<?xml version="1.0" encoding="utf-8" standalone="no"?>
<!DOCTYPE svg PUBLIC "-//W3C//DTD SVG 1.1//EN"
  "http://www.w3.org/Graphics/SVG/1.1/DTD/svg11.dtd">
<svg height="345.6pt" version="1.1" viewBox="0 0 460.8 345.6" width="460.8pt" xmlns="http://www.w3.org/2000/svg" xmlns:xlink="http://www.w3.org/1999/xlink">
 <metadata>
  <rdf:RDF xmlns:cc="http://creativecommons.org/ns#" xmlns:dc="http://purl.org/dc/elements/1.1/" xmlns:rdf="http://www.w3.org/1999/02/22-rdf-syntax-ns#">
   <cc:Work>
    <dc:type rdf:resource="http://purl.org/dc/dcmitype/StillImage"/>
    <dc:date>2022-01-18T17:02:45.162893</dc:date>
    <dc:format>image/svg+xml</dc:format>
    <dc:creator>
     <cc:Agent>
      <dc:title>Matplotlib v3.4.3, https://matplotlib.org/</dc:title>
     </cc:Agent>
    </dc:creator>
   </cc:Work>
  </rdf:RDF>
 </metadata>
 <defs>
  <style type="text/css">*{stroke-linecap:butt;stroke-linejoin:round;}</style>
 </defs>
 <g id="figure_1">
  <g id="patch_1">
   <path d="M 0 345.6 
L 460.8 345.6 
L 460.8 0 
L 0 0 
z
" style="fill:#ffffff;"/>
  </g>
  <g id="axes_1">
   <g id="patch_2">
    <path d="M 57.6 307.584 
L 414.72 307.584 
L 414.72 41.472 
L 57.6 41.472 
z
" style="fill:#ffffff;"/>
   </g>
   <g id="matplotlib.axis_1">
    <g id="xtick_1">
     <g id="line2d_1">
      <path clip-path="url(#pc68ca96c8d)" d="M 72.201297 307.584 
L 72.201297 41.472 
" style="fill:none;stroke:#cccccc;stroke-linecap:round;stroke-width:0.8;"/>
     </g>
     <g id="text_1">
      <!-- 0 -->
      <g style="fill:#262626;" transform="translate(69.020047 322.182437)scale(0.1 -0.1)">
       <defs>
        <path d="M 2034 4250 
Q 1547 4250 1301 3770 
Q 1056 3291 1056 2328 
Q 1056 1369 1301 889 
Q 1547 409 2034 409 
Q 2525 409 2770 889 
Q 3016 1369 3016 2328 
Q 3016 3291 2770 3770 
Q 2525 4250 2034 4250 
z
M 2034 4750 
Q 2819 4750 3233 4129 
Q 3647 3509 3647 2328 
Q 3647 1150 3233 529 
Q 2819 -91 2034 -91 
Q 1250 -91 836 529 
Q 422 1150 422 2328 
Q 422 3509 836 4129 
Q 1250 4750 2034 4750 
z
" id="DejaVuSans-30" transform="scale(0.015625)"/>
       </defs>
       <use xlink:href="#DejaVuSans-30"/>
      </g>
     </g>
    </g>
    <g id="xtick_2">
     <g id="line2d_2">
      <path clip-path="url(#pc68ca96c8d)" d="M 112.987044 307.584 
L 112.987044 41.472 
" style="fill:none;stroke:#cccccc;stroke-linecap:round;stroke-width:0.8;"/>
     </g>
     <g id="text_2">
      <!-- 25 -->
      <g style="fill:#262626;" transform="translate(106.624544 322.182437)scale(0.1 -0.1)">
       <defs>
        <path d="M 1228 531 
L 3431 531 
L 3431 0 
L 469 0 
L 469 531 
Q 828 903 1448 1529 
Q 2069 2156 2228 2338 
Q 2531 2678 2651 2914 
Q 2772 3150 2772 3378 
Q 2772 3750 2511 3984 
Q 2250 4219 1831 4219 
Q 1534 4219 1204 4116 
Q 875 4013 500 3803 
L 500 4441 
Q 881 4594 1212 4672 
Q 1544 4750 1819 4750 
Q 2544 4750 2975 4387 
Q 3406 4025 3406 3419 
Q 3406 3131 3298 2873 
Q 3191 2616 2906 2266 
Q 2828 2175 2409 1742 
Q 1991 1309 1228 531 
z
" id="DejaVuSans-32" transform="scale(0.015625)"/>
        <path d="M 691 4666 
L 3169 4666 
L 3169 4134 
L 1269 4134 
L 1269 2991 
Q 1406 3038 1543 3061 
Q 1681 3084 1819 3084 
Q 2600 3084 3056 2656 
Q 3513 2228 3513 1497 
Q 3513 744 3044 326 
Q 2575 -91 1722 -91 
Q 1428 -91 1123 -41 
Q 819 9 494 109 
L 494 744 
Q 775 591 1075 516 
Q 1375 441 1709 441 
Q 2250 441 2565 725 
Q 2881 1009 2881 1497 
Q 2881 1984 2565 2268 
Q 2250 2553 1709 2553 
Q 1456 2553 1204 2497 
Q 953 2441 691 2322 
L 691 4666 
z
" id="DejaVuSans-35" transform="scale(0.015625)"/>
       </defs>
       <use xlink:href="#DejaVuSans-32"/>
       <use x="63.623047" xlink:href="#DejaVuSans-35"/>
      </g>
     </g>
    </g>
    <g id="xtick_3">
     <g id="line2d_3">
      <path clip-path="url(#pc68ca96c8d)" d="M 153.772791 307.584 
L 153.772791 41.472 
" style="fill:none;stroke:#cccccc;stroke-linecap:round;stroke-width:0.8;"/>
     </g>
     <g id="text_3">
      <!-- 50 -->
      <g style="fill:#262626;" transform="translate(147.410291 322.182437)scale(0.1 -0.1)">
       <use xlink:href="#DejaVuSans-35"/>
       <use x="63.623047" xlink:href="#DejaVuSans-30"/>
      </g>
     </g>
    </g>
    <g id="xtick_4">
     <g id="line2d_4">
      <path clip-path="url(#pc68ca96c8d)" d="M 194.558538 307.584 
L 194.558538 41.472 
" style="fill:none;stroke:#cccccc;stroke-linecap:round;stroke-width:0.8;"/>
     </g>
     <g id="text_4">
      <!-- 75 -->
      <g style="fill:#262626;" transform="translate(188.196038 322.182437)scale(0.1 -0.1)">
       <defs>
        <path d="M 525 4666 
L 3525 4666 
L 3525 4397 
L 1831 0 
L 1172 0 
L 2766 4134 
L 525 4134 
L 525 4666 
z
" id="DejaVuSans-37" transform="scale(0.015625)"/>
       </defs>
       <use xlink:href="#DejaVuSans-37"/>
       <use x="63.623047" xlink:href="#DejaVuSans-35"/>
      </g>
     </g>
    </g>
    <g id="xtick_5">
     <g id="line2d_5">
      <path clip-path="url(#pc68ca96c8d)" d="M 235.344285 307.584 
L 235.344285 41.472 
" style="fill:none;stroke:#cccccc;stroke-linecap:round;stroke-width:0.8;"/>
     </g>
     <g id="text_5">
      <!-- 100 -->
      <g style="fill:#262626;" transform="translate(225.800535 322.182437)scale(0.1 -0.1)">
       <defs>
        <path d="M 794 531 
L 1825 531 
L 1825 4091 
L 703 3866 
L 703 4441 
L 1819 4666 
L 2450 4666 
L 2450 531 
L 3481 531 
L 3481 0 
L 794 0 
L 794 531 
z
" id="DejaVuSans-31" transform="scale(0.015625)"/>
       </defs>
       <use xlink:href="#DejaVuSans-31"/>
       <use x="63.623047" xlink:href="#DejaVuSans-30"/>
       <use x="127.246094" xlink:href="#DejaVuSans-30"/>
      </g>
     </g>
    </g>
    <g id="xtick_6">
     <g id="line2d_6">
      <path clip-path="url(#pc68ca96c8d)" d="M 276.130032 307.584 
L 276.130032 41.472 
" style="fill:none;stroke:#cccccc;stroke-linecap:round;stroke-width:0.8;"/>
     </g>
     <g id="text_6">
      <!-- 125 -->
      <g style="fill:#262626;" transform="translate(266.586282 322.182437)scale(0.1 -0.1)">
       <use xlink:href="#DejaVuSans-31"/>
       <use x="63.623047" xlink:href="#DejaVuSans-32"/>
       <use x="127.246094" xlink:href="#DejaVuSans-35"/>
      </g>
     </g>
    </g>
    <g id="xtick_7">
     <g id="line2d_7">
      <path clip-path="url(#pc68ca96c8d)" d="M 316.915779 307.584 
L 316.915779 41.472 
" style="fill:none;stroke:#cccccc;stroke-linecap:round;stroke-width:0.8;"/>
     </g>
     <g id="text_7">
      <!-- 150 -->
      <g style="fill:#262626;" transform="translate(307.372029 322.182437)scale(0.1 -0.1)">
       <use xlink:href="#DejaVuSans-31"/>
       <use x="63.623047" xlink:href="#DejaVuSans-35"/>
       <use x="127.246094" xlink:href="#DejaVuSans-30"/>
      </g>
     </g>
    </g>
    <g id="xtick_8">
     <g id="line2d_8">
      <path clip-path="url(#pc68ca96c8d)" d="M 357.701526 307.584 
L 357.701526 41.472 
" style="fill:none;stroke:#cccccc;stroke-linecap:round;stroke-width:0.8;"/>
     </g>
     <g id="text_8">
      <!-- 175 -->
      <g style="fill:#262626;" transform="translate(348.157776 322.182437)scale(0.1 -0.1)">
       <use xlink:href="#DejaVuSans-31"/>
       <use x="63.623047" xlink:href="#DejaVuSans-37"/>
       <use x="127.246094" xlink:href="#DejaVuSans-35"/>
      </g>
     </g>
    </g>
    <g id="xtick_9">
     <g id="line2d_9">
      <path clip-path="url(#pc68ca96c8d)" d="M 398.487273 307.584 
L 398.487273 41.472 
" style="fill:none;stroke:#cccccc;stroke-linecap:round;stroke-width:0.8;"/>
     </g>
     <g id="text_9">
      <!-- 200 -->
      <g style="fill:#262626;" transform="translate(388.943523 322.182437)scale(0.1 -0.1)">
       <use xlink:href="#DejaVuSans-32"/>
       <use x="63.623047" xlink:href="#DejaVuSans-30"/>
       <use x="127.246094" xlink:href="#DejaVuSans-30"/>
      </g>
     </g>
    </g>
    <g id="text_10">
     <!-- Auroc -->
     <g style="fill:#262626;" transform="translate(221.819375 335.860562)scale(0.1 -0.1)">
      <defs>
       <path d="M 2188 4044 
L 1331 1722 
L 3047 1722 
L 2188 4044 
z
M 1831 4666 
L 2547 4666 
L 4325 0 
L 3669 0 
L 3244 1197 
L 1141 1197 
L 716 0 
L 50 0 
L 1831 4666 
z
" id="DejaVuSans-41" transform="scale(0.015625)"/>
       <path d="M 544 1381 
L 544 3500 
L 1119 3500 
L 1119 1403 
Q 1119 906 1312 657 
Q 1506 409 1894 409 
Q 2359 409 2629 706 
Q 2900 1003 2900 1516 
L 2900 3500 
L 3475 3500 
L 3475 0 
L 2900 0 
L 2900 538 
Q 2691 219 2414 64 
Q 2138 -91 1772 -91 
Q 1169 -91 856 284 
Q 544 659 544 1381 
z
M 1991 3584 
L 1991 3584 
z
" id="DejaVuSans-75" transform="scale(0.015625)"/>
       <path d="M 2631 2963 
Q 2534 3019 2420 3045 
Q 2306 3072 2169 3072 
Q 1681 3072 1420 2755 
Q 1159 2438 1159 1844 
L 1159 0 
L 581 0 
L 581 3500 
L 1159 3500 
L 1159 2956 
Q 1341 3275 1631 3429 
Q 1922 3584 2338 3584 
Q 2397 3584 2469 3576 
Q 2541 3569 2628 3553 
L 2631 2963 
z
" id="DejaVuSans-72" transform="scale(0.015625)"/>
       <path d="M 1959 3097 
Q 1497 3097 1228 2736 
Q 959 2375 959 1747 
Q 959 1119 1226 758 
Q 1494 397 1959 397 
Q 2419 397 2687 759 
Q 2956 1122 2956 1747 
Q 2956 2369 2687 2733 
Q 2419 3097 1959 3097 
z
M 1959 3584 
Q 2709 3584 3137 3096 
Q 3566 2609 3566 1747 
Q 3566 888 3137 398 
Q 2709 -91 1959 -91 
Q 1206 -91 779 398 
Q 353 888 353 1747 
Q 353 2609 779 3096 
Q 1206 3584 1959 3584 
z
" id="DejaVuSans-6f" transform="scale(0.015625)"/>
       <path d="M 3122 3366 
L 3122 2828 
Q 2878 2963 2633 3030 
Q 2388 3097 2138 3097 
Q 1578 3097 1268 2742 
Q 959 2388 959 1747 
Q 959 1106 1268 751 
Q 1578 397 2138 397 
Q 2388 397 2633 464 
Q 2878 531 3122 666 
L 3122 134 
Q 2881 22 2623 -34 
Q 2366 -91 2075 -91 
Q 1284 -91 818 406 
Q 353 903 353 1747 
Q 353 2603 823 3093 
Q 1294 3584 2113 3584 
Q 2378 3584 2631 3529 
Q 2884 3475 3122 3366 
z
" id="DejaVuSans-63" transform="scale(0.015625)"/>
      </defs>
      <use xlink:href="#DejaVuSans-41"/>
      <use x="68.408203" xlink:href="#DejaVuSans-75"/>
      <use x="131.787109" xlink:href="#DejaVuSans-72"/>
      <use x="170.650391" xlink:href="#DejaVuSans-6f"/>
      <use x="231.832031" xlink:href="#DejaVuSans-63"/>
     </g>
    </g>
   </g>
   <g id="matplotlib.axis_2">
    <g id="ytick_1">
     <g id="line2d_10">
      <path clip-path="url(#pc68ca96c8d)" d="M 57.6 291.611507 
L 414.72 291.611507 
" style="fill:none;stroke:#cccccc;stroke-linecap:round;stroke-width:0.8;"/>
     </g>
     <g id="text_11">
      <!-- 0.45 -->
      <g style="fill:#262626;" transform="translate(28.334375 295.410726)scale(0.1 -0.1)">
       <defs>
        <path d="M 684 794 
L 1344 794 
L 1344 0 
L 684 0 
L 684 794 
z
" id="DejaVuSans-2e" transform="scale(0.015625)"/>
        <path d="M 2419 4116 
L 825 1625 
L 2419 1625 
L 2419 4116 
z
M 2253 4666 
L 3047 4666 
L 3047 1625 
L 3713 1625 
L 3713 1100 
L 3047 1100 
L 3047 0 
L 2419 0 
L 2419 1100 
L 313 1100 
L 313 1709 
L 2253 4666 
z
" id="DejaVuSans-34" transform="scale(0.015625)"/>
       </defs>
       <use xlink:href="#DejaVuSans-30"/>
       <use x="63.623047" xlink:href="#DejaVuSans-2e"/>
       <use x="95.410156" xlink:href="#DejaVuSans-34"/>
       <use x="159.033203" xlink:href="#DejaVuSans-35"/>
      </g>
     </g>
    </g>
    <g id="ytick_2">
     <g id="line2d_11">
      <path clip-path="url(#pc68ca96c8d)" d="M 57.6 242.088748 
L 414.72 242.088748 
" style="fill:none;stroke:#cccccc;stroke-linecap:round;stroke-width:0.8;"/>
     </g>
     <g id="text_12">
      <!-- 0.50 -->
      <g style="fill:#262626;" transform="translate(28.334375 245.887967)scale(0.1 -0.1)">
       <use xlink:href="#DejaVuSans-30"/>
       <use x="63.623047" xlink:href="#DejaVuSans-2e"/>
       <use x="95.410156" xlink:href="#DejaVuSans-35"/>
       <use x="159.033203" xlink:href="#DejaVuSans-30"/>
      </g>
     </g>
    </g>
    <g id="ytick_3">
     <g id="line2d_12">
      <path clip-path="url(#pc68ca96c8d)" d="M 57.6 192.56599 
L 414.72 192.56599 
" style="fill:none;stroke:#cccccc;stroke-linecap:round;stroke-width:0.8;"/>
     </g>
     <g id="text_13">
      <!-- 0.55 -->
      <g style="fill:#262626;" transform="translate(28.334375 196.365208)scale(0.1 -0.1)">
       <use xlink:href="#DejaVuSans-30"/>
       <use x="63.623047" xlink:href="#DejaVuSans-2e"/>
       <use x="95.410156" xlink:href="#DejaVuSans-35"/>
       <use x="159.033203" xlink:href="#DejaVuSans-35"/>
      </g>
     </g>
    </g>
    <g id="ytick_4">
     <g id="line2d_13">
      <path clip-path="url(#pc68ca96c8d)" d="M 57.6 143.043231 
L 414.72 143.043231 
" style="fill:none;stroke:#cccccc;stroke-linecap:round;stroke-width:0.8;"/>
     </g>
     <g id="text_14">
      <!-- 0.60 -->
      <g style="fill:#262626;" transform="translate(28.334375 146.84245)scale(0.1 -0.1)">
       <defs>
        <path d="M 2113 2584 
Q 1688 2584 1439 2293 
Q 1191 2003 1191 1497 
Q 1191 994 1439 701 
Q 1688 409 2113 409 
Q 2538 409 2786 701 
Q 3034 994 3034 1497 
Q 3034 2003 2786 2293 
Q 2538 2584 2113 2584 
z
M 3366 4563 
L 3366 3988 
Q 3128 4100 2886 4159 
Q 2644 4219 2406 4219 
Q 1781 4219 1451 3797 
Q 1122 3375 1075 2522 
Q 1259 2794 1537 2939 
Q 1816 3084 2150 3084 
Q 2853 3084 3261 2657 
Q 3669 2231 3669 1497 
Q 3669 778 3244 343 
Q 2819 -91 2113 -91 
Q 1303 -91 875 529 
Q 447 1150 447 2328 
Q 447 3434 972 4092 
Q 1497 4750 2381 4750 
Q 2619 4750 2861 4703 
Q 3103 4656 3366 4563 
z
" id="DejaVuSans-36" transform="scale(0.015625)"/>
       </defs>
       <use xlink:href="#DejaVuSans-30"/>
       <use x="63.623047" xlink:href="#DejaVuSans-2e"/>
       <use x="95.410156" xlink:href="#DejaVuSans-36"/>
       <use x="159.033203" xlink:href="#DejaVuSans-30"/>
      </g>
     </g>
    </g>
    <g id="ytick_5">
     <g id="line2d_14">
      <path clip-path="url(#pc68ca96c8d)" d="M 57.6 93.520472 
L 414.72 93.520472 
" style="fill:none;stroke:#cccccc;stroke-linecap:round;stroke-width:0.8;"/>
     </g>
     <g id="text_15">
      <!-- 0.65 -->
      <g style="fill:#262626;" transform="translate(28.334375 97.319691)scale(0.1 -0.1)">
       <use xlink:href="#DejaVuSans-30"/>
       <use x="63.623047" xlink:href="#DejaVuSans-2e"/>
       <use x="95.410156" xlink:href="#DejaVuSans-36"/>
       <use x="159.033203" xlink:href="#DejaVuSans-35"/>
      </g>
     </g>
    </g>
    <g id="ytick_6">
     <g id="line2d_15">
      <path clip-path="url(#pc68ca96c8d)" d="M 57.6 43.997713 
L 414.72 43.997713 
" style="fill:none;stroke:#cccccc;stroke-linecap:round;stroke-width:0.8;"/>
     </g>
     <g id="text_16">
      <!-- 0.70 -->
      <g style="fill:#262626;" transform="translate(28.334375 47.796932)scale(0.1 -0.1)">
       <use xlink:href="#DejaVuSans-30"/>
       <use x="63.623047" xlink:href="#DejaVuSans-2e"/>
       <use x="95.410156" xlink:href="#DejaVuSans-37"/>
       <use x="159.033203" xlink:href="#DejaVuSans-30"/>
      </g>
     </g>
    </g>
    <g id="text_17">
     <!-- Iteration -->
     <g style="fill:#262626;" transform="translate(22.254687 195.736594)rotate(-90)scale(0.1 -0.1)">
      <defs>
       <path d="M 628 4666 
L 1259 4666 
L 1259 0 
L 628 0 
L 628 4666 
z
" id="DejaVuSans-49" transform="scale(0.015625)"/>
       <path d="M 1172 4494 
L 1172 3500 
L 2356 3500 
L 2356 3053 
L 1172 3053 
L 1172 1153 
Q 1172 725 1289 603 
Q 1406 481 1766 481 
L 2356 481 
L 2356 0 
L 1766 0 
Q 1100 0 847 248 
Q 594 497 594 1153 
L 594 3053 
L 172 3053 
L 172 3500 
L 594 3500 
L 594 4494 
L 1172 4494 
z
" id="DejaVuSans-74" transform="scale(0.015625)"/>
       <path d="M 3597 1894 
L 3597 1613 
L 953 1613 
Q 991 1019 1311 708 
Q 1631 397 2203 397 
Q 2534 397 2845 478 
Q 3156 559 3463 722 
L 3463 178 
Q 3153 47 2828 -22 
Q 2503 -91 2169 -91 
Q 1331 -91 842 396 
Q 353 884 353 1716 
Q 353 2575 817 3079 
Q 1281 3584 2069 3584 
Q 2775 3584 3186 3129 
Q 3597 2675 3597 1894 
z
M 3022 2063 
Q 3016 2534 2758 2815 
Q 2500 3097 2075 3097 
Q 1594 3097 1305 2825 
Q 1016 2553 972 2059 
L 3022 2063 
z
" id="DejaVuSans-65" transform="scale(0.015625)"/>
       <path d="M 2194 1759 
Q 1497 1759 1228 1600 
Q 959 1441 959 1056 
Q 959 750 1161 570 
Q 1363 391 1709 391 
Q 2188 391 2477 730 
Q 2766 1069 2766 1631 
L 2766 1759 
L 2194 1759 
z
M 3341 1997 
L 3341 0 
L 2766 0 
L 2766 531 
Q 2569 213 2275 61 
Q 1981 -91 1556 -91 
Q 1019 -91 701 211 
Q 384 513 384 1019 
Q 384 1609 779 1909 
Q 1175 2209 1959 2209 
L 2766 2209 
L 2766 2266 
Q 2766 2663 2505 2880 
Q 2244 3097 1772 3097 
Q 1472 3097 1187 3025 
Q 903 2953 641 2809 
L 641 3341 
Q 956 3463 1253 3523 
Q 1550 3584 1831 3584 
Q 2591 3584 2966 3190 
Q 3341 2797 3341 1997 
z
" id="DejaVuSans-61" transform="scale(0.015625)"/>
       <path d="M 603 3500 
L 1178 3500 
L 1178 0 
L 603 0 
L 603 3500 
z
M 603 4863 
L 1178 4863 
L 1178 4134 
L 603 4134 
L 603 4863 
z
" id="DejaVuSans-69" transform="scale(0.015625)"/>
       <path d="M 3513 2113 
L 3513 0 
L 2938 0 
L 2938 2094 
Q 2938 2591 2744 2837 
Q 2550 3084 2163 3084 
Q 1697 3084 1428 2787 
Q 1159 2491 1159 1978 
L 1159 0 
L 581 0 
L 581 3500 
L 1159 3500 
L 1159 2956 
Q 1366 3272 1645 3428 
Q 1925 3584 2291 3584 
Q 2894 3584 3203 3211 
Q 3513 2838 3513 2113 
z
" id="DejaVuSans-6e" transform="scale(0.015625)"/>
      </defs>
      <use xlink:href="#DejaVuSans-49"/>
      <use x="29.492188" xlink:href="#DejaVuSans-74"/>
      <use x="68.701172" xlink:href="#DejaVuSans-65"/>
      <use x="130.224609" xlink:href="#DejaVuSans-72"/>
      <use x="171.337891" xlink:href="#DejaVuSans-61"/>
      <use x="232.617188" xlink:href="#DejaVuSans-74"/>
      <use x="271.826172" xlink:href="#DejaVuSans-69"/>
      <use x="299.609375" xlink:href="#DejaVuSans-6f"/>
      <use x="360.791016" xlink:href="#DejaVuSans-6e"/>
     </g>
    </g>
   </g>
   <g id="PolyCollection_1">
    <defs>
     <path d="M 73.832727 -241.63284 
L 73.832727 -153.530894 
L 75.464157 -209.495206 
L 77.095587 -174.791753 
L 78.727017 -140.445958 
L 80.358447 -146.572323 
L 81.989877 -204.32482 
L 83.621307 -50.112 
L 85.252736 -142.540573 
L 86.884166 -146.530518 
L 88.515596 -165.308947 
L 90.147026 -150.603969 
L 91.778456 -118.304754 
L 93.409886 -199.491118 
L 95.041316 -122.238292 
L 96.672746 -160.755308 
L 98.304175 -132.14755 
L 99.935605 -156.726262 
L 101.567035 -201.654189 
L 103.198465 -160.731476 
L 104.829895 -115.135026 
L 106.461325 -75.143276 
L 108.092755 -183.348698 
L 109.724185 -163.83976 
L 111.355614 -148.834319 
L 112.987044 -215.353656 
L 114.618474 -167.62923 
L 116.249904 -134.075725 
L 117.881334 -190.648623 
L 119.512764 -94.284641 
L 121.144194 -136.440969 
L 122.775624 -114.191679 
L 124.407053 -158.119985 
L 126.038483 -174.780803 
L 127.669913 -153.625502 
L 129.301343 -146.078702 
L 130.932773 -199.731771 
L 132.564203 -76.566173 
L 134.195633 -172.800885 
L 135.827063 -150.510306 
L 137.458492 -174.270131 
L 139.089922 -161.513793 
L 140.721352 -184.973363 
L 142.352782 -217.434236 
L 143.984212 -125.79711 
L 145.615642 -181.437708 
L 147.247072 -119.885489 
L 148.878502 -206.182565 
L 150.509931 -137.309274 
L 152.141361 -153.643973 
L 153.772791 -167.80045 
L 155.404221 -163.463408 
L 157.035651 -164.067343 
L 158.667081 -174.488971 
L 160.298511 -195.015579 
L 161.929941 -154.543519 
L 163.56137 -164.485218 
L 165.1928 -169.166747 
L 166.82423 -165.062231 
L 168.45566 -203.879696 
L 170.08709 -188.995968 
L 171.71852 -181.261315 
L 173.34995 -173.332471 
L 174.98138 -131.013318 
L 176.61281 -156.325181 
L 178.244239 -157.521871 
L 179.875669 -165.177683 
L 181.507099 -157.631957 
L 183.138529 -161.902191 
L 184.769959 -145.902275 
L 186.401389 -208.393651 
L 188.032819 -143.492947 
L 189.664249 -191.219702 
L 191.295678 -181.370359 
L 192.927108 -165.372761 
L 194.558538 -168.510357 
L 196.189968 -160.854179 
L 197.821398 -193.786027 
L 199.452828 -172.655309 
L 201.084258 -172.991829 
L 202.715688 -206.996798 
L 204.347117 -187.572184 
L 205.978547 -162.078904 
L 207.609977 -192.95 
L 209.241407 -145.010912 
L 210.872837 -199.190374 
L 212.504267 -171.783995 
L 214.135697 -129.048121 
L 215.767127 -213.201909 
L 217.398556 -168.756153 
L 219.029986 -98.446777 
L 220.661416 -186.235358 
L 222.292846 -187.107841 
L 223.924276 -160.916589 
L 225.555706 -188.405219 
L 227.187136 -207.036451 
L 228.818566 -132.19204 
L 230.449995 -163.312895 
L 232.081425 -174.728799 
L 233.712855 -178.808476 
L 235.344285 -151.966304 
L 236.975715 -160.023794 
L 238.607145 -174.316934 
L 240.238575 -155.543796 
L 241.870005 -171.650273 
L 243.501434 -193.347919 
L 245.132864 -167.959877 
L 246.764294 -175.679871 
L 248.395724 -181.225316 
L 250.027154 -138.512627 
L 251.658584 -194.829784 
L 253.290014 -196.078323 
L 254.921444 -210.031528 
L 256.552873 -172.833844 
L 258.184303 -150.019688 
L 259.815733 -142.434248 
L 261.447163 -114.568552 
L 263.078593 -203.341604 
L 264.710023 -171.14238 
L 266.341453 -155.630192 
L 267.972883 -192.485331 
L 269.604312 -165.728641 
L 271.235742 -168.432663 
L 272.867172 -179.805701 
L 274.498602 -150.903891 
L 276.130032 -204.621025 
L 277.761462 -160.324648 
L 279.392892 -175.37419 
L 281.024322 -176.194994 
L 282.655751 -109.072369 
L 284.287181 -183.912131 
L 285.918611 -203.646062 
L 287.550041 -165.095522 
L 289.181471 -148.692264 
L 290.812901 -187.150144 
L 292.444331 -180.472075 
L 294.075761 -191.412471 
L 295.70719 -181.506888 
L 297.33862 -169.815864 
L 298.97005 -116.703161 
L 300.60148 -204.064016 
L 302.23291 -179.951843 
L 303.86434 -180.977751 
L 305.49577 -148.213557 
L 307.1272 -133.694709 
L 308.75863 -211.570536 
L 310.390059 -192.752952 
L 312.021489 -189.772225 
L 313.652919 -176.444173 
L 315.284349 -174.639741 
L 316.915779 -165.847109 
L 318.547209 -153.930749 
L 320.178639 -203.844887 
L 321.810069 -188.06062 
L 323.441498 -169.414199 
L 325.072928 -182.349899 
L 326.704358 -172.524183 
L 328.335788 -192.974045 
L 329.967218 -131.433953 
L 331.598648 -134.396124 
L 333.230078 -130.428621 
L 334.861508 -107.210347 
L 336.492937 -190.873227 
L 338.124367 -182.928654 
L 339.755797 -178.233706 
L 341.387227 -116.114768 
L 343.018657 -202.682915 
L 344.650087 -170.494156 
L 346.281517 -161.903949 
L 347.912947 -171.40786 
L 349.544376 -200.098226 
L 351.175806 -185.477945 
L 352.807236 -166.47532 
L 354.438666 -206.801443 
L 356.070096 -189.693209 
L 357.701526 -179.221843 
L 359.332956 -161.491533 
L 360.964386 -206.071339 
L 362.595815 -185.291077 
L 364.227245 -181.324126 
L 365.858675 -165.872322 
L 367.490105 -178.635283 
L 369.121535 -197.72049 
L 370.752965 -130.943533 
L 372.384395 -201.361158 
L 374.015825 -163.122785 
L 375.647254 -193.53737 
L 377.278684 -104.299811 
L 378.910114 -163.073189 
L 380.541544 -204.998498 
L 382.172974 -118.176306 
L 383.804404 -158.269504 
L 385.435834 -141.465128 
L 387.067264 -183.153961 
L 388.698693 -145.347203 
L 390.330123 -206.888108 
L 391.961553 -198.506051 
L 393.592983 -131.250174 
L 395.224413 -147.518867 
L 396.855843 -179.048774 
L 398.487273 -182.7101 
L 398.487273 -264.744506 
L 398.487273 -264.744506 
L 396.855843 -278.975041 
L 395.224413 -258.185362 
L 393.592983 -274.044272 
L 391.961553 -228.073333 
L 390.330123 -255.398086 
L 388.698693 -260.208133 
L 387.067264 -260.629026 
L 385.435834 -241.152792 
L 383.804404 -248.630826 
L 382.172974 -227.129022 
L 380.541544 -276.50071 
L 378.910114 -230.721377 
L 377.278684 -262.775328 
L 375.647254 -254.781713 
L 374.015825 -271.380281 
L 372.384395 -270.56605 
L 370.752965 -268.463324 
L 369.121535 -249.093393 
L 367.490105 -220.907538 
L 365.858675 -267.849758 
L 364.227245 -253.424666 
L 362.595815 -229.157435 
L 360.964386 -253.969004 
L 359.332956 -251.298759 
L 357.701526 -259.419914 
L 356.070096 -266.028051 
L 354.438666 -262.286781 
L 352.807236 -266.986798 
L 351.175806 -255.549307 
L 349.544376 -270.157282 
L 347.912947 -231.417153 
L 346.281517 -236.538195 
L 344.650087 -242.752616 
L 343.018657 -281.570618 
L 341.387227 -261.347377 
L 339.755797 -243.059268 
L 338.124367 -272.83332 
L 336.492937 -240.102506 
L 334.861508 -243.863283 
L 333.230078 -270.602792 
L 331.598648 -223.008613 
L 329.967218 -237.85601 
L 328.335788 -259.462031 
L 326.704358 -249.572885 
L 325.072928 -268.471353 
L 323.441498 -274.864642 
L 321.810069 -258.326904 
L 320.178639 -264.856316 
L 318.547209 -282.787668 
L 316.915779 -237.933299 
L 315.284349 -251.745118 
L 313.652919 -213.351415 
L 312.021489 -266.90443 
L 310.390059 -245.913976 
L 308.75863 -255.271974 
L 307.1272 -255.923031 
L 305.49577 -246.97258 
L 303.86434 -236.871861 
L 302.23291 -240.943623 
L 300.60148 -260.12444 
L 298.97005 -239.95109 
L 297.33862 -231.10534 
L 295.70719 -263.157184 
L 294.075761 -250.003693 
L 292.444331 -234.079597 
L 290.812901 -259.708166 
L 289.181471 -277.951388 
L 287.550041 -242.294541 
L 285.918611 -265.115524 
L 284.287181 -221.17579 
L 282.655751 -211.562406 
L 281.024322 -285.6047 
L 279.392892 -262.360761 
L 277.761462 -279.862543 
L 276.130032 -249.02635 
L 274.498602 -248.73143 
L 272.867172 -236.94313 
L 271.235742 -248.434802 
L 269.604312 -216.285796 
L 267.972883 -268.870639 
L 266.341453 -251.680025 
L 264.710023 -260.038847 
L 263.078593 -275.301426 
L 261.447163 -258.802183 
L 259.815733 -251.215122 
L 258.184303 -256.009356 
L 256.552873 -262.715638 
L 254.921444 -272.821545 
L 253.290014 -292.032 
L 251.658584 -277.234695 
L 250.027154 -185.371077 
L 248.395724 -250.097204 
L 246.764294 -254.89268 
L 245.132864 -265.322881 
L 243.501434 -252.92981 
L 241.870005 -230.427039 
L 240.238575 -229.936595 
L 238.607145 -238.881766 
L 236.975715 -254.496139 
L 235.344285 -231.22869 
L 233.712855 -236.769771 
L 232.081425 -260.196397 
L 230.449995 -231.594418 
L 228.818566 -215.543658 
L 227.187136 -257.029211 
L 225.555706 -256.056145 
L 223.924276 -289.835305 
L 222.292846 -267.682714 
L 220.661416 -230.847745 
L 219.029986 -289.230086 
L 217.398556 -279.282198 
L 215.767127 -256.736452 
L 214.135697 -290.222938 
L 212.504267 -259.567514 
L 210.872837 -261.714308 
L 209.241407 -241.205763 
L 207.609977 -229.297578 
L 205.978547 -271.778006 
L 204.347117 -252.884906 
L 202.715688 -266.059525 
L 201.084258 -239.067852 
L 199.452828 -244.031593 
L 197.821398 -256.658555 
L 196.189968 -281.233519 
L 194.558538 -261.827781 
L 192.927108 -225.91245 
L 191.295678 -217.860921 
L 189.664249 -254.51135 
L 188.032819 -253.487598 
L 186.401389 -253.592968 
L 184.769959 -225.037541 
L 183.138529 -279.80588 
L 181.507099 -251.064896 
L 179.875669 -230.727733 
L 178.244239 -212.91573 
L 176.61281 -210.947314 
L 174.98138 -230.165854 
L 173.34995 -263.46366 
L 171.71852 -263.753809 
L 170.08709 -274.469684 
L 168.45566 -277.837901 
L 166.82423 -242.069932 
L 165.1928 -250.886903 
L 163.56137 -262.577364 
L 161.929941 -264.413442 
L 160.298511 -278.725861 
L 158.667081 -248.595678 
L 157.035651 -209.348611 
L 155.404221 -208.202926 
L 153.772791 -244.802401 
L 152.141361 -232.095348 
L 150.509931 -223.555364 
L 148.878502 -252.825426 
L 147.247072 -235.098162 
L 145.615642 -223.362054 
L 143.984212 -227.677627 
L 142.352782 -275.733517 
L 140.721352 -259.696349 
L 139.089922 -237.931095 
L 137.458492 -286.420392 
L 135.827063 -253.870628 
L 134.195633 -237.590569 
L 132.564203 -225.664921 
L 130.932773 -265.834071 
L 129.301343 -270.195596 
L 127.669913 -214.357349 
L 126.038483 -216.347159 
L 124.407053 -238.09601 
L 122.775624 -211.945304 
L 121.144194 -240.883183 
L 119.512764 -221.384918 
L 117.881334 -252.57493 
L 116.249904 -233.522582 
L 114.618474 -252.29719 
L 112.987044 -263.706277 
L 111.355614 -211.118595 
L 109.724185 -221.722298 
L 108.092755 -265.600071 
L 106.461325 -228.768677 
L 104.829895 -231.092789 
L 103.198465 -227.832387 
L 101.567035 -274.123345 
L 99.935605 -240.529788 
L 98.304175 -243.732781 
L 96.672746 -259.163547 
L 95.041316 -213.305395 
L 93.409886 -264.356086 
L 91.778456 -187.488003 
L 90.147026 -216.097297 
L 88.515596 -255.639715 
L 86.884166 -277.380163 
L 85.252736 -199.381639 
L 83.621307 -173.63657 
L 81.989877 -277.67227 
L 80.358447 -221.455644 
L 78.727017 -227.674645 
L 77.095587 -230.433748 
L 75.464157 -254.375656 
L 73.832727 -241.63284 
z
" id="m102bc587f2" style="stroke:#ffffff;stroke-opacity:0.2;"/>
    </defs>
    <g clip-path="url(#pc68ca96c8d)">
     <use style="fill:#1f77b4;fill-opacity:0.2;stroke:#ffffff;stroke-opacity:0.2;" x="0" xlink:href="#m102bc587f2" y="345.6"/>
    </g>
   </g>
   <g id="LineCollection_1">
    <path clip-path="url(#pc68ca96c8d)" d="M 153.772791 295.488 
L 153.772791 53.568 
" style="fill:none;stroke:#1f77b4;stroke-dasharray:5.55,2.4;stroke-dashoffset:0;stroke-width:1.5;"/>
   </g>
   <g id="line2d_16">
    <path clip-path="url(#pc68ca96c8d)" d="M 73.832727 148.018133 
L 75.464157 113.664569 
L 77.095587 142.98725 
L 78.727017 161.539698 
L 80.358447 161.586017 
L 81.989877 104.601455 
L 83.621307 233.725715 
L 85.252736 174.638894 
L 86.884166 133.644659 
L 88.515596 135.125669 
L 90.147026 162.249367 
L 91.778456 192.703622 
L 93.409886 113.676398 
L 95.041316 177.828156 
L 96.672746 135.640573 
L 98.304175 157.659834 
L 99.935605 146.971975 
L 101.567035 107.711233 
L 103.198465 151.318069 
L 106.461325 193.644024 
L 108.092755 121.125616 
L 109.724185 152.818971 
L 111.355614 165.623543 
L 112.987044 106.070034 
L 114.618474 135.63679 
L 116.249904 161.800847 
L 117.881334 123.988223 
L 119.512764 187.765221 
L 121.144194 156.937924 
L 122.775624 182.531508 
L 124.407053 147.492002 
L 126.038483 150.036019 
L 127.669913 161.608574 
L 130.932773 112.817079 
L 132.564203 194.484453 
L 134.195633 140.404273 
L 135.827063 143.409533 
L 137.458492 115.254739 
L 139.089922 145.877556 
L 140.721352 123.265144 
L 142.352782 99.016124 
L 143.984212 168.862631 
L 145.615642 143.200119 
L 147.247072 168.108174 
L 148.878502 116.096004 
L 150.509931 165.167681 
L 152.141361 152.73034 
L 153.772791 139.298575 
L 155.404221 159.766833 
L 157.035651 158.892023 
L 160.298511 108.72928 
L 161.929941 136.121519 
L 163.56137 132.068709 
L 165.1928 135.573175 
L 166.82423 142.033918 
L 168.45566 104.741202 
L 171.71852 123.092438 
L 173.34995 127.201935 
L 174.98138 165.010414 
L 176.61281 161.963753 
L 178.244239 160.3812 
L 179.875669 147.647292 
L 181.507099 141.251574 
L 183.138529 124.745964 
L 184.769959 160.130092 
L 186.401389 114.60669 
L 188.032819 147.109728 
L 189.664249 122.734474 
L 191.295678 145.98436 
L 192.927108 149.957394 
L 194.558538 130.430931 
L 196.189968 124.556151 
L 197.821398 120.377709 
L 199.452828 137.256549 
L 201.084258 139.570159 
L 202.715688 109.071838 
L 204.347117 125.371455 
L 205.978547 128.671545 
L 207.609977 134.476211 
L 209.241407 152.491663 
L 210.872837 115.147659 
L 212.504267 129.924246 
L 214.135697 135.964471 
L 215.767127 110.630819 
L 217.398556 121.580824 
L 219.029986 151.761568 
L 220.661416 137.058449 
L 222.292846 118.204723 
L 223.924276 120.224053 
L 225.555706 123.369318 
L 227.187136 113.567169 
L 228.818566 171.732151 
L 230.449995 148.146343 
L 232.081425 128.137402 
L 233.712855 137.810877 
L 235.344285 154.002503 
L 236.975715 138.340034 
L 238.607145 139.00065 
L 240.238575 152.859805 
L 241.870005 144.561344 
L 243.501434 122.461136 
L 245.132864 128.958621 
L 246.764294 130.313724 
L 248.395724 129.93874 
L 250.027154 183.658148 
L 251.658584 109.567761 
L 253.290014 101.544838 
L 254.921444 104.173463 
L 256.552873 127.825259 
L 258.184303 142.585478 
L 259.815733 148.775315 
L 261.447163 158.914632 
L 263.078593 106.278485 
L 264.710023 130.009387 
L 266.341453 141.944891 
L 267.972883 114.922015 
L 269.604312 154.592781 
L 271.235742 137.166267 
L 272.867172 137.225584 
L 274.498602 145.78234 
L 276.130032 118.776312 
L 277.761462 125.506405 
L 279.392892 126.732525 
L 281.024322 114.700153 
L 282.655751 185.282612 
L 284.287181 143.05604 
L 285.918611 111.219207 
L 287.550041 141.904969 
L 290.812901 122.170845 
L 292.444331 138.324164 
L 294.075761 124.891918 
L 295.70719 123.267964 
L 298.97005 167.272874 
L 300.60148 113.505772 
L 302.23291 135.152267 
L 303.86434 136.675194 
L 305.49577 148.006932 
L 307.1272 150.79113 
L 308.75863 112.178745 
L 310.390059 126.266536 
L 312.021489 117.261673 
L 313.652919 150.702206 
L 315.284349 132.40757 
L 316.915779 143.709796 
L 320.178639 111.249398 
L 321.810069 122.406238 
L 323.441498 123.46058 
L 325.072928 120.189374 
L 326.704358 134.551466 
L 328.335788 119.381962 
L 329.967218 160.955019 
L 331.598648 166.897632 
L 333.230078 145.084294 
L 334.861508 170.063185 
L 336.492937 130.112134 
L 338.124367 117.719013 
L 339.755797 134.953513 
L 341.387227 156.868928 
L 343.018657 103.473234 
L 344.650087 138.976614 
L 346.281517 146.378928 
L 347.912947 144.187493 
L 349.544376 110.472246 
L 351.175806 125.086374 
L 352.807236 128.868941 
L 354.438666 111.055888 
L 356.070096 117.73937 
L 357.701526 126.279121 
L 359.332956 139.204854 
L 360.964386 115.579829 
L 362.595815 138.375744 
L 364.227245 128.225604 
L 365.858675 128.73896 
L 367.490105 145.828589 
L 369.121535 122.193059 
L 370.752965 145.896572 
L 372.384395 109.636396 
L 374.015825 128.348467 
L 375.647254 121.440458 
L 377.278684 162.06243 
L 378.910114 148.702717 
L 380.541544 104.850396 
L 382.172974 172.947336 
L 383.804404 142.149835 
L 385.435834 154.29104 
L 387.067264 123.708506 
L 388.698693 142.822332 
L 390.330123 114.456903 
L 391.961553 132.310308 
L 393.592983 142.952777 
L 395.224413 142.747885 
L 396.855843 116.588093 
L 398.487273 121.872697 
L 398.487273 121.872697 
" style="fill:none;stroke:#1f77b4;stroke-linecap:round;stroke-width:1.5;"/>
   </g>
   <g id="patch_3">
    <path d="M 57.6 307.584 
L 57.6 41.472 
" style="fill:none;stroke:#cccccc;stroke-linecap:square;stroke-linejoin:miter;stroke-width:0.8;"/>
   </g>
   <g id="patch_4">
    <path d="M 414.72 307.584 
L 414.72 41.472 
" style="fill:none;stroke:#cccccc;stroke-linecap:square;stroke-linejoin:miter;stroke-width:0.8;"/>
   </g>
   <g id="patch_5">
    <path d="M 57.6 307.584 
L 414.72 307.584 
" style="fill:none;stroke:#cccccc;stroke-linecap:square;stroke-linejoin:miter;stroke-width:0.8;"/>
   </g>
   <g id="patch_6">
    <path d="M 57.6 41.472 
L 414.72 41.472 
" style="fill:none;stroke:#cccccc;stroke-linecap:square;stroke-linejoin:miter;stroke-width:0.8;"/>
   </g>
   <g id="text_18">
    <!-- Model performance vs. # of iterations -->
    <g style="fill:#262626;" transform="translate(122.314688 35.472)scale(0.12 -0.12)">
     <defs>
      <path d="M 628 4666 
L 1569 4666 
L 2759 1491 
L 3956 4666 
L 4897 4666 
L 4897 0 
L 4281 0 
L 4281 4097 
L 3078 897 
L 2444 897 
L 1241 4097 
L 1241 0 
L 628 0 
L 628 4666 
z
" id="DejaVuSans-4d" transform="scale(0.015625)"/>
      <path d="M 2906 2969 
L 2906 4863 
L 3481 4863 
L 3481 0 
L 2906 0 
L 2906 525 
Q 2725 213 2448 61 
Q 2172 -91 1784 -91 
Q 1150 -91 751 415 
Q 353 922 353 1747 
Q 353 2572 751 3078 
Q 1150 3584 1784 3584 
Q 2172 3584 2448 3432 
Q 2725 3281 2906 2969 
z
M 947 1747 
Q 947 1113 1208 752 
Q 1469 391 1925 391 
Q 2381 391 2643 752 
Q 2906 1113 2906 1747 
Q 2906 2381 2643 2742 
Q 2381 3103 1925 3103 
Q 1469 3103 1208 2742 
Q 947 2381 947 1747 
z
" id="DejaVuSans-64" transform="scale(0.015625)"/>
      <path d="M 603 4863 
L 1178 4863 
L 1178 0 
L 603 0 
L 603 4863 
z
" id="DejaVuSans-6c" transform="scale(0.015625)"/>
      <path id="DejaVuSans-20" transform="scale(0.015625)"/>
      <path d="M 1159 525 
L 1159 -1331 
L 581 -1331 
L 581 3500 
L 1159 3500 
L 1159 2969 
Q 1341 3281 1617 3432 
Q 1894 3584 2278 3584 
Q 2916 3584 3314 3078 
Q 3713 2572 3713 1747 
Q 3713 922 3314 415 
Q 2916 -91 2278 -91 
Q 1894 -91 1617 61 
Q 1341 213 1159 525 
z
M 3116 1747 
Q 3116 2381 2855 2742 
Q 2594 3103 2138 3103 
Q 1681 3103 1420 2742 
Q 1159 2381 1159 1747 
Q 1159 1113 1420 752 
Q 1681 391 2138 391 
Q 2594 391 2855 752 
Q 3116 1113 3116 1747 
z
" id="DejaVuSans-70" transform="scale(0.015625)"/>
      <path d="M 2375 4863 
L 2375 4384 
L 1825 4384 
Q 1516 4384 1395 4259 
Q 1275 4134 1275 3809 
L 1275 3500 
L 2222 3500 
L 2222 3053 
L 1275 3053 
L 1275 0 
L 697 0 
L 697 3053 
L 147 3053 
L 147 3500 
L 697 3500 
L 697 3744 
Q 697 4328 969 4595 
Q 1241 4863 1831 4863 
L 2375 4863 
z
" id="DejaVuSans-66" transform="scale(0.015625)"/>
      <path d="M 3328 2828 
Q 3544 3216 3844 3400 
Q 4144 3584 4550 3584 
Q 5097 3584 5394 3201 
Q 5691 2819 5691 2113 
L 5691 0 
L 5113 0 
L 5113 2094 
Q 5113 2597 4934 2840 
Q 4756 3084 4391 3084 
Q 3944 3084 3684 2787 
Q 3425 2491 3425 1978 
L 3425 0 
L 2847 0 
L 2847 2094 
Q 2847 2600 2669 2842 
Q 2491 3084 2119 3084 
Q 1678 3084 1418 2786 
Q 1159 2488 1159 1978 
L 1159 0 
L 581 0 
L 581 3500 
L 1159 3500 
L 1159 2956 
Q 1356 3278 1631 3431 
Q 1906 3584 2284 3584 
Q 2666 3584 2933 3390 
Q 3200 3197 3328 2828 
z
" id="DejaVuSans-6d" transform="scale(0.015625)"/>
      <path d="M 191 3500 
L 800 3500 
L 1894 563 
L 2988 3500 
L 3597 3500 
L 2284 0 
L 1503 0 
L 191 3500 
z
" id="DejaVuSans-76" transform="scale(0.015625)"/>
      <path d="M 2834 3397 
L 2834 2853 
Q 2591 2978 2328 3040 
Q 2066 3103 1784 3103 
Q 1356 3103 1142 2972 
Q 928 2841 928 2578 
Q 928 2378 1081 2264 
Q 1234 2150 1697 2047 
L 1894 2003 
Q 2506 1872 2764 1633 
Q 3022 1394 3022 966 
Q 3022 478 2636 193 
Q 2250 -91 1575 -91 
Q 1294 -91 989 -36 
Q 684 19 347 128 
L 347 722 
Q 666 556 975 473 
Q 1284 391 1588 391 
Q 1994 391 2212 530 
Q 2431 669 2431 922 
Q 2431 1156 2273 1281 
Q 2116 1406 1581 1522 
L 1381 1569 
Q 847 1681 609 1914 
Q 372 2147 372 2553 
Q 372 3047 722 3315 
Q 1072 3584 1716 3584 
Q 2034 3584 2315 3537 
Q 2597 3491 2834 3397 
z
" id="DejaVuSans-73" transform="scale(0.015625)"/>
      <path d="M 3272 2816 
L 2363 2816 
L 2100 1772 
L 3016 1772 
L 3272 2816 
z
M 2803 4594 
L 2478 3297 
L 3391 3297 
L 3719 4594 
L 4219 4594 
L 3897 3297 
L 4872 3297 
L 4872 2816 
L 3775 2816 
L 3519 1772 
L 4513 1772 
L 4513 1294 
L 3397 1294 
L 3072 0 
L 2572 0 
L 2894 1294 
L 1978 1294 
L 1656 0 
L 1153 0 
L 1478 1294 
L 494 1294 
L 494 1772 
L 1594 1772 
L 1856 2816 
L 850 2816 
L 850 3297 
L 1978 3297 
L 2297 4594 
L 2803 4594 
z
" id="DejaVuSans-23" transform="scale(0.015625)"/>
     </defs>
     <use xlink:href="#DejaVuSans-4d"/>
     <use x="86.279297" xlink:href="#DejaVuSans-6f"/>
     <use x="147.460938" xlink:href="#DejaVuSans-64"/>
     <use x="210.9375" xlink:href="#DejaVuSans-65"/>
     <use x="272.460938" xlink:href="#DejaVuSans-6c"/>
     <use x="300.244141" xlink:href="#DejaVuSans-20"/>
     <use x="332.03125" xlink:href="#DejaVuSans-70"/>
     <use x="395.507812" xlink:href="#DejaVuSans-65"/>
     <use x="457.03125" xlink:href="#DejaVuSans-72"/>
     <use x="498.144531" xlink:href="#DejaVuSans-66"/>
     <use x="533.349609" xlink:href="#DejaVuSans-6f"/>
     <use x="594.53125" xlink:href="#DejaVuSans-72"/>
     <use x="633.894531" xlink:href="#DejaVuSans-6d"/>
     <use x="731.306641" xlink:href="#DejaVuSans-61"/>
     <use x="792.585938" xlink:href="#DejaVuSans-6e"/>
     <use x="855.964844" xlink:href="#DejaVuSans-63"/>
     <use x="910.945312" xlink:href="#DejaVuSans-65"/>
     <use x="972.46875" xlink:href="#DejaVuSans-20"/>
     <use x="1004.255859" xlink:href="#DejaVuSans-76"/>
     <use x="1063.435547" xlink:href="#DejaVuSans-73"/>
     <use x="1115.535156" xlink:href="#DejaVuSans-2e"/>
     <use x="1147.322266" xlink:href="#DejaVuSans-20"/>
     <use x="1179.109375" xlink:href="#DejaVuSans-23"/>
     <use x="1262.898438" xlink:href="#DejaVuSans-20"/>
     <use x="1294.685547" xlink:href="#DejaVuSans-6f"/>
     <use x="1355.867188" xlink:href="#DejaVuSans-66"/>
     <use x="1391.072266" xlink:href="#DejaVuSans-20"/>
     <use x="1422.859375" xlink:href="#DejaVuSans-69"/>
     <use x="1450.642578" xlink:href="#DejaVuSans-74"/>
     <use x="1489.851562" xlink:href="#DejaVuSans-65"/>
     <use x="1551.375" xlink:href="#DejaVuSans-72"/>
     <use x="1592.488281" xlink:href="#DejaVuSans-61"/>
     <use x="1653.767578" xlink:href="#DejaVuSans-74"/>
     <use x="1692.976562" xlink:href="#DejaVuSans-69"/>
     <use x="1720.759766" xlink:href="#DejaVuSans-6f"/>
     <use x="1781.941406" xlink:href="#DejaVuSans-6e"/>
     <use x="1845.320312" xlink:href="#DejaVuSans-73"/>
    </g>
   </g>
  </g>
 </g>
 <defs>
  <clipPath id="pc68ca96c8d">
   <rect height="266.112" width="357.12" x="57.6" y="41.472"/>
  </clipPath>
 </defs>
</svg>
