<?xml version="1.0" encoding="utf-8" standalone="no"?>
<!DOCTYPE svg PUBLIC "-//W3C//DTD SVG 1.1//EN"
  "http://www.w3.org/Graphics/SVG/1.1/DTD/svg11.dtd">
<svg xmlns:xlink="http://www.w3.org/1999/xlink" width="460.8pt" height="345.6pt" viewBox="0 0 460.8 345.6" xmlns="http://www.w3.org/2000/svg" version="1.1">
 <metadata>
  <rdf:RDF xmlns:dc="http://purl.org/dc/elements/1.1/" xmlns:cc="http://creativecommons.org/ns#" xmlns:rdf="http://www.w3.org/1999/02/22-rdf-syntax-ns#">
   <cc:Work>
    <dc:type rdf:resource="http://purl.org/dc/dcmitype/StillImage"/>
    <dc:date>2022-11-03T12:02:19.061322</dc:date>
    <dc:format>image/svg+xml</dc:format>
    <dc:creator>
     <cc:Agent>
      <dc:title>Matplotlib v3.5.2, https://matplotlib.org/</dc:title>
     </cc:Agent>
    </dc:creator>
   </cc:Work>
  </rdf:RDF>
 </metadata>
 <defs>
  <style type="text/css">*{stroke-linejoin: round; stroke-linecap: butt}</style>
 </defs>
 <g id="figure_1">
  <g id="patch_1">
   <path d="M 0 345.6 
L 460.8 345.6 
L 460.8 0 
L 0 0 
z
" style="fill: #ffffff"/>
  </g>
  <g id="axes_1">
   <g id="patch_2">
    <path d="M 57.6 307.584 
L 414.72 307.584 
L 414.72 41.472 
L 57.6 41.472 
z
" style="fill: #ffffff"/>
   </g>
   <g id="matplotlib.axis_1">
    <g id="xtick_1">
     <g id="line2d_1">
      <path d="M 72.201297 307.584 
L 72.201297 41.472 
" clip-path="url(#p0d7b2ed996)" style="fill: none; stroke: #cccccc; stroke-width: 0.8; stroke-linecap: round"/>
     </g>
     <g id="text_1">
      <!-- 0 -->
      <g style="fill: #262626" transform="translate(69.020047 322.182437)scale(0.1 -0.1)">
       <defs>
        <path id="DejaVuSans-30" d="M 2034 4250 
Q 1547 4250 1301 3770 
Q 1056 3291 1056 2328 
Q 1056 1369 1301 889 
Q 1547 409 2034 409 
Q 2525 409 2770 889 
Q 3016 1369 3016 2328 
Q 3016 3291 2770 3770 
Q 2525 4250 2034 4250 
z
M 2034 4750 
Q 2819 4750 3233 4129 
Q 3647 3509 3647 2328 
Q 3647 1150 3233 529 
Q 2819 -91 2034 -91 
Q 1250 -91 836 529 
Q 422 1150 422 2328 
Q 422 3509 836 4129 
Q 1250 4750 2034 4750 
z
" transform="scale(0.015625)"/>
       </defs>
       <use xlink:href="#DejaVuSans-30"/>
      </g>
     </g>
    </g>
    <g id="xtick_2">
     <g id="line2d_2">
      <path d="M 112.987044 307.584 
L 112.987044 41.472 
" clip-path="url(#p0d7b2ed996)" style="fill: none; stroke: #cccccc; stroke-width: 0.8; stroke-linecap: round"/>
     </g>
     <g id="text_2">
      <!-- 25 -->
      <g style="fill: #262626" transform="translate(106.624544 322.182437)scale(0.1 -0.1)">
       <defs>
        <path id="DejaVuSans-32" d="M 1228 531 
L 3431 531 
L 3431 0 
L 469 0 
L 469 531 
Q 828 903 1448 1529 
Q 2069 2156 2228 2338 
Q 2531 2678 2651 2914 
Q 2772 3150 2772 3378 
Q 2772 3750 2511 3984 
Q 2250 4219 1831 4219 
Q 1534 4219 1204 4116 
Q 875 4013 500 3803 
L 500 4441 
Q 881 4594 1212 4672 
Q 1544 4750 1819 4750 
Q 2544 4750 2975 4387 
Q 3406 4025 3406 3419 
Q 3406 3131 3298 2873 
Q 3191 2616 2906 2266 
Q 2828 2175 2409 1742 
Q 1991 1309 1228 531 
z
" transform="scale(0.015625)"/>
        <path id="DejaVuSans-35" d="M 691 4666 
L 3169 4666 
L 3169 4134 
L 1269 4134 
L 1269 2991 
Q 1406 3038 1543 3061 
Q 1681 3084 1819 3084 
Q 2600 3084 3056 2656 
Q 3513 2228 3513 1497 
Q 3513 744 3044 326 
Q 2575 -91 1722 -91 
Q 1428 -91 1123 -41 
Q 819 9 494 109 
L 494 744 
Q 775 591 1075 516 
Q 1375 441 1709 441 
Q 2250 441 2565 725 
Q 2881 1009 2881 1497 
Q 2881 1984 2565 2268 
Q 2250 2553 1709 2553 
Q 1456 2553 1204 2497 
Q 953 2441 691 2322 
L 691 4666 
z
" transform="scale(0.015625)"/>
       </defs>
       <use xlink:href="#DejaVuSans-32"/>
       <use xlink:href="#DejaVuSans-35" x="63.623047"/>
      </g>
     </g>
    </g>
    <g id="xtick_3">
     <g id="line2d_3">
      <path d="M 153.772791 307.584 
L 153.772791 41.472 
" clip-path="url(#p0d7b2ed996)" style="fill: none; stroke: #cccccc; stroke-width: 0.8; stroke-linecap: round"/>
     </g>
     <g id="text_3">
      <!-- 50 -->
      <g style="fill: #262626" transform="translate(147.410291 322.182437)scale(0.1 -0.1)">
       <use xlink:href="#DejaVuSans-35"/>
       <use xlink:href="#DejaVuSans-30" x="63.623047"/>
      </g>
     </g>
    </g>
    <g id="xtick_4">
     <g id="line2d_4">
      <path d="M 194.558538 307.584 
L 194.558538 41.472 
" clip-path="url(#p0d7b2ed996)" style="fill: none; stroke: #cccccc; stroke-width: 0.8; stroke-linecap: round"/>
     </g>
     <g id="text_4">
      <!-- 75 -->
      <g style="fill: #262626" transform="translate(188.196038 322.182437)scale(0.1 -0.1)">
       <defs>
        <path id="DejaVuSans-37" d="M 525 4666 
L 3525 4666 
L 3525 4397 
L 1831 0 
L 1172 0 
L 2766 4134 
L 525 4134 
L 525 4666 
z
" transform="scale(0.015625)"/>
       </defs>
       <use xlink:href="#DejaVuSans-37"/>
       <use xlink:href="#DejaVuSans-35" x="63.623047"/>
      </g>
     </g>
    </g>
    <g id="xtick_5">
     <g id="line2d_5">
      <path d="M 235.344285 307.584 
L 235.344285 41.472 
" clip-path="url(#p0d7b2ed996)" style="fill: none; stroke: #cccccc; stroke-width: 0.8; stroke-linecap: round"/>
     </g>
     <g id="text_5">
      <!-- 100 -->
      <g style="fill: #262626" transform="translate(225.800535 322.182437)scale(0.1 -0.1)">
       <defs>
        <path id="DejaVuSans-31" d="M 794 531 
L 1825 531 
L 1825 4091 
L 703 3866 
L 703 4441 
L 1819 4666 
L 2450 4666 
L 2450 531 
L 3481 531 
L 3481 0 
L 794 0 
L 794 531 
z
" transform="scale(0.015625)"/>
       </defs>
       <use xlink:href="#DejaVuSans-31"/>
       <use xlink:href="#DejaVuSans-30" x="63.623047"/>
       <use xlink:href="#DejaVuSans-30" x="127.246094"/>
      </g>
     </g>
    </g>
    <g id="xtick_6">
     <g id="line2d_6">
      <path d="M 276.130032 307.584 
L 276.130032 41.472 
" clip-path="url(#p0d7b2ed996)" style="fill: none; stroke: #cccccc; stroke-width: 0.8; stroke-linecap: round"/>
     </g>
     <g id="text_6">
      <!-- 125 -->
      <g style="fill: #262626" transform="translate(266.586282 322.182437)scale(0.1 -0.1)">
       <use xlink:href="#DejaVuSans-31"/>
       <use xlink:href="#DejaVuSans-32" x="63.623047"/>
       <use xlink:href="#DejaVuSans-35" x="127.246094"/>
      </g>
     </g>
    </g>
    <g id="xtick_7">
     <g id="line2d_7">
      <path d="M 316.915779 307.584 
L 316.915779 41.472 
" clip-path="url(#p0d7b2ed996)" style="fill: none; stroke: #cccccc; stroke-width: 0.8; stroke-linecap: round"/>
     </g>
     <g id="text_7">
      <!-- 150 -->
      <g style="fill: #262626" transform="translate(307.372029 322.182437)scale(0.1 -0.1)">
       <use xlink:href="#DejaVuSans-31"/>
       <use xlink:href="#DejaVuSans-35" x="63.623047"/>
       <use xlink:href="#DejaVuSans-30" x="127.246094"/>
      </g>
     </g>
    </g>
    <g id="xtick_8">
     <g id="line2d_8">
      <path d="M 357.701526 307.584 
L 357.701526 41.472 
" clip-path="url(#p0d7b2ed996)" style="fill: none; stroke: #cccccc; stroke-width: 0.8; stroke-linecap: round"/>
     </g>
     <g id="text_8">
      <!-- 175 -->
      <g style="fill: #262626" transform="translate(348.157776 322.182437)scale(0.1 -0.1)">
       <use xlink:href="#DejaVuSans-31"/>
       <use xlink:href="#DejaVuSans-37" x="63.623047"/>
       <use xlink:href="#DejaVuSans-35" x="127.246094"/>
      </g>
     </g>
    </g>
    <g id="xtick_9">
     <g id="line2d_9">
      <path d="M 398.487273 307.584 
L 398.487273 41.472 
" clip-path="url(#p0d7b2ed996)" style="fill: none; stroke: #cccccc; stroke-width: 0.8; stroke-linecap: round"/>
     </g>
     <g id="text_9">
      <!-- 200 -->
      <g style="fill: #262626" transform="translate(388.943523 322.182437)scale(0.1 -0.1)">
       <use xlink:href="#DejaVuSans-32"/>
       <use xlink:href="#DejaVuSans-30" x="63.623047"/>
       <use xlink:href="#DejaVuSans-30" x="127.246094"/>
      </g>
     </g>
    </g>
    <g id="text_10">
     <!-- Iteration -->
     <g style="fill: #262626" transform="translate(214.951406 335.860562)scale(0.1 -0.1)">
      <defs>
       <path id="DejaVuSans-49" d="M 628 4666 
L 1259 4666 
L 1259 0 
L 628 0 
L 628 4666 
z
" transform="scale(0.015625)"/>
       <path id="DejaVuSans-74" d="M 1172 4494 
L 1172 3500 
L 2356 3500 
L 2356 3053 
L 1172 3053 
L 1172 1153 
Q 1172 725 1289 603 
Q 1406 481 1766 481 
L 2356 481 
L 2356 0 
L 1766 0 
Q 1100 0 847 248 
Q 594 497 594 1153 
L 594 3053 
L 172 3053 
L 172 3500 
L 594 3500 
L 594 4494 
L 1172 4494 
z
" transform="scale(0.015625)"/>
       <path id="DejaVuSans-65" d="M 3597 1894 
L 3597 1613 
L 953 1613 
Q 991 1019 1311 708 
Q 1631 397 2203 397 
Q 2534 397 2845 478 
Q 3156 559 3463 722 
L 3463 178 
Q 3153 47 2828 -22 
Q 2503 -91 2169 -91 
Q 1331 -91 842 396 
Q 353 884 353 1716 
Q 353 2575 817 3079 
Q 1281 3584 2069 3584 
Q 2775 3584 3186 3129 
Q 3597 2675 3597 1894 
z
M 3022 2063 
Q 3016 2534 2758 2815 
Q 2500 3097 2075 3097 
Q 1594 3097 1305 2825 
Q 1016 2553 972 2059 
L 3022 2063 
z
" transform="scale(0.015625)"/>
       <path id="DejaVuSans-72" d="M 2631 2963 
Q 2534 3019 2420 3045 
Q 2306 3072 2169 3072 
Q 1681 3072 1420 2755 
Q 1159 2438 1159 1844 
L 1159 0 
L 581 0 
L 581 3500 
L 1159 3500 
L 1159 2956 
Q 1341 3275 1631 3429 
Q 1922 3584 2338 3584 
Q 2397 3584 2469 3576 
Q 2541 3569 2628 3553 
L 2631 2963 
z
" transform="scale(0.015625)"/>
       <path id="DejaVuSans-61" d="M 2194 1759 
Q 1497 1759 1228 1600 
Q 959 1441 959 1056 
Q 959 750 1161 570 
Q 1363 391 1709 391 
Q 2188 391 2477 730 
Q 2766 1069 2766 1631 
L 2766 1759 
L 2194 1759 
z
M 3341 1997 
L 3341 0 
L 2766 0 
L 2766 531 
Q 2569 213 2275 61 
Q 1981 -91 1556 -91 
Q 1019 -91 701 211 
Q 384 513 384 1019 
Q 384 1609 779 1909 
Q 1175 2209 1959 2209 
L 2766 2209 
L 2766 2266 
Q 2766 2663 2505 2880 
Q 2244 3097 1772 3097 
Q 1472 3097 1187 3025 
Q 903 2953 641 2809 
L 641 3341 
Q 956 3463 1253 3523 
Q 1550 3584 1831 3584 
Q 2591 3584 2966 3190 
Q 3341 2797 3341 1997 
z
" transform="scale(0.015625)"/>
       <path id="DejaVuSans-69" d="M 603 3500 
L 1178 3500 
L 1178 0 
L 603 0 
L 603 3500 
z
M 603 4863 
L 1178 4863 
L 1178 4134 
L 603 4134 
L 603 4863 
z
" transform="scale(0.015625)"/>
       <path id="DejaVuSans-6f" d="M 1959 3097 
Q 1497 3097 1228 2736 
Q 959 2375 959 1747 
Q 959 1119 1226 758 
Q 1494 397 1959 397 
Q 2419 397 2687 759 
Q 2956 1122 2956 1747 
Q 2956 2369 2687 2733 
Q 2419 3097 1959 3097 
z
M 1959 3584 
Q 2709 3584 3137 3096 
Q 3566 2609 3566 1747 
Q 3566 888 3137 398 
Q 2709 -91 1959 -91 
Q 1206 -91 779 398 
Q 353 888 353 1747 
Q 353 2609 779 3096 
Q 1206 3584 1959 3584 
z
" transform="scale(0.015625)"/>
       <path id="DejaVuSans-6e" d="M 3513 2113 
L 3513 0 
L 2938 0 
L 2938 2094 
Q 2938 2591 2744 2837 
Q 2550 3084 2163 3084 
Q 1697 3084 1428 2787 
Q 1159 2491 1159 1978 
L 1159 0 
L 581 0 
L 581 3500 
L 1159 3500 
L 1159 2956 
Q 1366 3272 1645 3428 
Q 1925 3584 2291 3584 
Q 2894 3584 3203 3211 
Q 3513 2838 3513 2113 
z
" transform="scale(0.015625)"/>
      </defs>
      <use xlink:href="#DejaVuSans-49"/>
      <use xlink:href="#DejaVuSans-74" x="29.492188"/>
      <use xlink:href="#DejaVuSans-65" x="68.701172"/>
      <use xlink:href="#DejaVuSans-72" x="130.224609"/>
      <use xlink:href="#DejaVuSans-61" x="171.337891"/>
      <use xlink:href="#DejaVuSans-74" x="232.617188"/>
      <use xlink:href="#DejaVuSans-69" x="271.826172"/>
      <use xlink:href="#DejaVuSans-6f" x="299.609375"/>
      <use xlink:href="#DejaVuSans-6e" x="360.791016"/>
     </g>
    </g>
   </g>
   <g id="matplotlib.axis_2">
    <g id="ytick_1">
     <g id="line2d_10">
      <path d="M 57.6 279.394979 
L 414.72 279.394979 
" clip-path="url(#p0d7b2ed996)" style="fill: none; stroke: #cccccc; stroke-width: 0.8; stroke-linecap: round"/>
     </g>
     <g id="text_11">
      <!-- 0.50 -->
      <g style="fill: #262626" transform="translate(28.334375 283.194198)scale(0.1 -0.1)">
       <defs>
        <path id="DejaVuSans-2e" d="M 684 794 
L 1344 794 
L 1344 0 
L 684 0 
L 684 794 
z
" transform="scale(0.015625)"/>
       </defs>
       <use xlink:href="#DejaVuSans-30"/>
       <use xlink:href="#DejaVuSans-2e" x="63.623047"/>
       <use xlink:href="#DejaVuSans-35" x="95.410156"/>
       <use xlink:href="#DejaVuSans-30" x="159.033203"/>
      </g>
     </g>
    </g>
    <g id="ytick_2">
     <g id="line2d_11">
      <path d="M 57.6 237.543787 
L 414.72 237.543787 
" clip-path="url(#p0d7b2ed996)" style="fill: none; stroke: #cccccc; stroke-width: 0.8; stroke-linecap: round"/>
     </g>
     <g id="text_12">
      <!-- 0.55 -->
      <g style="fill: #262626" transform="translate(28.334375 241.343006)scale(0.1 -0.1)">
       <use xlink:href="#DejaVuSans-30"/>
       <use xlink:href="#DejaVuSans-2e" x="63.623047"/>
       <use xlink:href="#DejaVuSans-35" x="95.410156"/>
       <use xlink:href="#DejaVuSans-35" x="159.033203"/>
      </g>
     </g>
    </g>
    <g id="ytick_3">
     <g id="line2d_12">
      <path d="M 57.6 195.692596 
L 414.72 195.692596 
" clip-path="url(#p0d7b2ed996)" style="fill: none; stroke: #cccccc; stroke-width: 0.8; stroke-linecap: round"/>
     </g>
     <g id="text_13">
      <!-- 0.60 -->
      <g style="fill: #262626" transform="translate(28.334375 199.491815)scale(0.1 -0.1)">
       <defs>
        <path id="DejaVuSans-36" d="M 2113 2584 
Q 1688 2584 1439 2293 
Q 1191 2003 1191 1497 
Q 1191 994 1439 701 
Q 1688 409 2113 409 
Q 2538 409 2786 701 
Q 3034 994 3034 1497 
Q 3034 2003 2786 2293 
Q 2538 2584 2113 2584 
z
M 3366 4563 
L 3366 3988 
Q 3128 4100 2886 4159 
Q 2644 4219 2406 4219 
Q 1781 4219 1451 3797 
Q 1122 3375 1075 2522 
Q 1259 2794 1537 2939 
Q 1816 3084 2150 3084 
Q 2853 3084 3261 2657 
Q 3669 2231 3669 1497 
Q 3669 778 3244 343 
Q 2819 -91 2113 -91 
Q 1303 -91 875 529 
Q 447 1150 447 2328 
Q 447 3434 972 4092 
Q 1497 4750 2381 4750 
Q 2619 4750 2861 4703 
Q 3103 4656 3366 4563 
z
" transform="scale(0.015625)"/>
       </defs>
       <use xlink:href="#DejaVuSans-30"/>
       <use xlink:href="#DejaVuSans-2e" x="63.623047"/>
       <use xlink:href="#DejaVuSans-36" x="95.410156"/>
       <use xlink:href="#DejaVuSans-30" x="159.033203"/>
      </g>
     </g>
    </g>
    <g id="ytick_4">
     <g id="line2d_13">
      <path d="M 57.6 153.841405 
L 414.72 153.841405 
" clip-path="url(#p0d7b2ed996)" style="fill: none; stroke: #cccccc; stroke-width: 0.8; stroke-linecap: round"/>
     </g>
     <g id="text_14">
      <!-- 0.65 -->
      <g style="fill: #262626" transform="translate(28.334375 157.640623)scale(0.1 -0.1)">
       <use xlink:href="#DejaVuSans-30"/>
       <use xlink:href="#DejaVuSans-2e" x="63.623047"/>
       <use xlink:href="#DejaVuSans-36" x="95.410156"/>
       <use xlink:href="#DejaVuSans-35" x="159.033203"/>
      </g>
     </g>
    </g>
    <g id="ytick_5">
     <g id="line2d_14">
      <path d="M 57.6 111.990213 
L 414.72 111.990213 
" clip-path="url(#p0d7b2ed996)" style="fill: none; stroke: #cccccc; stroke-width: 0.8; stroke-linecap: round"/>
     </g>
     <g id="text_15">
      <!-- 0.70 -->
      <g style="fill: #262626" transform="translate(28.334375 115.789432)scale(0.1 -0.1)">
       <use xlink:href="#DejaVuSans-30"/>
       <use xlink:href="#DejaVuSans-2e" x="63.623047"/>
       <use xlink:href="#DejaVuSans-37" x="95.410156"/>
       <use xlink:href="#DejaVuSans-30" x="159.033203"/>
      </g>
     </g>
    </g>
    <g id="ytick_6">
     <g id="line2d_15">
      <path d="M 57.6 70.139022 
L 414.72 70.139022 
" clip-path="url(#p0d7b2ed996)" style="fill: none; stroke: #cccccc; stroke-width: 0.8; stroke-linecap: round"/>
     </g>
     <g id="text_16">
      <!-- 0.75 -->
      <g style="fill: #262626" transform="translate(28.334375 73.93824)scale(0.1 -0.1)">
       <use xlink:href="#DejaVuSans-30"/>
       <use xlink:href="#DejaVuSans-2e" x="63.623047"/>
       <use xlink:href="#DejaVuSans-37" x="95.410156"/>
       <use xlink:href="#DejaVuSans-35" x="159.033203"/>
      </g>
     </g>
    </g>
    <g id="text_17">
     <!-- Auroc -->
     <g style="fill: #262626" transform="translate(22.254688 188.868625)rotate(-90)scale(0.1 -0.1)">
      <defs>
       <path id="DejaVuSans-41" d="M 2188 4044 
L 1331 1722 
L 3047 1722 
L 2188 4044 
z
M 1831 4666 
L 2547 4666 
L 4325 0 
L 3669 0 
L 3244 1197 
L 1141 1197 
L 716 0 
L 50 0 
L 1831 4666 
z
" transform="scale(0.015625)"/>
       <path id="DejaVuSans-75" d="M 544 1381 
L 544 3500 
L 1119 3500 
L 1119 1403 
Q 1119 906 1312 657 
Q 1506 409 1894 409 
Q 2359 409 2629 706 
Q 2900 1003 2900 1516 
L 2900 3500 
L 3475 3500 
L 3475 0 
L 2900 0 
L 2900 538 
Q 2691 219 2414 64 
Q 2138 -91 1772 -91 
Q 1169 -91 856 284 
Q 544 659 544 1381 
z
M 1991 3584 
L 1991 3584 
z
" transform="scale(0.015625)"/>
       <path id="DejaVuSans-63" d="M 3122 3366 
L 3122 2828 
Q 2878 2963 2633 3030 
Q 2388 3097 2138 3097 
Q 1578 3097 1268 2742 
Q 959 2388 959 1747 
Q 959 1106 1268 751 
Q 1578 397 2138 397 
Q 2388 397 2633 464 
Q 2878 531 3122 666 
L 3122 134 
Q 2881 22 2623 -34 
Q 2366 -91 2075 -91 
Q 1284 -91 818 406 
Q 353 903 353 1747 
Q 353 2603 823 3093 
Q 1294 3584 2113 3584 
Q 2378 3584 2631 3529 
Q 2884 3475 3122 3366 
z
" transform="scale(0.015625)"/>
      </defs>
      <use xlink:href="#DejaVuSans-41"/>
      <use xlink:href="#DejaVuSans-75" x="68.408203"/>
      <use xlink:href="#DejaVuSans-72" x="131.787109"/>
      <use xlink:href="#DejaVuSans-6f" x="170.650391"/>
      <use xlink:href="#DejaVuSans-63" x="231.832031"/>
     </g>
    </g>
   </g>
   <g id="PolyCollection_1">
    <defs>
     <path id="m55cf2a65d2" d="M 73.832727 -191.77829 
L 73.832727 -109.706652 
L 75.464157 -119.585162 
L 77.095587 -89.592389 
L 78.727017 -81.827683 
L 80.358447 -114.305936 
L 81.989877 -131.955827 
L 83.621307 -92.488737 
L 85.252736 -120.959568 
L 86.884166 -126.855911 
L 88.515596 -82.481928 
L 90.147026 -87.20403 
L 91.778456 -86.497871 
L 93.409886 -72.214343 
L 95.041316 -74.070221 
L 96.672746 -124.452034 
L 98.304175 -86.395502 
L 99.935605 -78.716322 
L 101.567035 -107.333385 
L 103.198465 -159.981072 
L 104.829895 -62.425194 
L 106.461325 -89.441937 
L 108.092755 -121.663687 
L 109.724185 -108.921056 
L 111.355614 -109.466038 
L 112.987044 -102.167098 
L 114.618474 -155.321663 
L 116.249904 -137.098103 
L 117.881334 -140.860024 
L 119.512764 -96.901669 
L 121.144194 -139.082373 
L 122.775624 -115.403548 
L 124.407053 -174.15183 
L 126.038483 -125.778541 
L 127.669913 -119.714276 
L 129.301343 -144.220869 
L 130.932773 -104.482922 
L 132.564203 -121.670961 
L 134.195633 -117.520517 
L 135.827063 -118.963521 
L 137.458492 -128.246293 
L 139.089922 -96.15759 
L 140.721352 -128.10075 
L 142.352782 -128.176766 
L 143.984212 -120.178891 
L 145.615642 -131.327135 
L 147.247072 -96.344813 
L 148.878502 -90.509394 
L 150.509931 -125.159537 
L 152.141361 -123.833536 
L 153.772791 -91.736661 
L 155.404221 -123.268775 
L 157.035651 -153.637881 
L 158.667081 -139.687332 
L 160.298511 -143.069706 
L 161.929941 -110.597479 
L 163.56137 -105.100953 
L 165.1928 -142.127953 
L 166.82423 -113.224471 
L 168.45566 -146.388506 
L 170.08709 -103.873543 
L 171.71852 -131.329681 
L 173.34995 -86.957438 
L 174.98138 -55.47022 
L 176.61281 -136.008205 
L 178.244239 -107.511188 
L 179.875669 -144.183171 
L 181.507099 -89.946863 
L 183.138529 -139.611468 
L 184.769959 -98.998698 
L 186.401389 -101.781498 
L 188.032819 -69.875805 
L 189.664249 -105.618224 
L 191.295678 -164.759274 
L 192.927108 -178.792587 
L 194.558538 -106.292398 
L 196.189968 -99.276925 
L 197.821398 -135.674001 
L 199.452828 -82.108678 
L 201.084258 -131.200304 
L 202.715688 -103.627184 
L 204.347117 -136.589388 
L 205.978547 -159.753431 
L 207.609977 -124.281628 
L 209.241407 -112.978272 
L 210.872837 -131.380592 
L 212.504267 -55.541328 
L 214.135697 -133.000684 
L 215.767127 -158.387055 
L 217.398556 -65.964006 
L 219.029986 -114.410407 
L 220.661416 -84.832866 
L 222.292846 -115.045066 
L 223.924276 -134.932083 
L 225.555706 -152.630751 
L 227.187136 -144.437305 
L 228.818566 -121.009757 
L 230.449995 -168.140495 
L 232.081425 -136.700109 
L 233.712855 -96.708056 
L 235.344285 -137.965613 
L 236.975715 -118.415594 
L 238.607145 -127.31383 
L 240.238575 -151.490629 
L 241.870005 -145.599858 
L 243.501434 -108.788757 
L 245.132864 -100.216979 
L 246.764294 -130.725913 
L 248.395724 -111.213109 
L 250.027154 -147.5122 
L 251.658584 -164.465395 
L 253.290014 -120.693652 
L 254.921444 -94.378951 
L 256.552873 -118.702034 
L 258.184303 -132.91076 
L 259.815733 -140.001088 
L 261.447163 -117.748028 
L 263.078593 -207.412847 
L 264.710023 -113.072976 
L 266.341453 -135.083099 
L 267.972883 -81.187535 
L 269.604312 -102.752392 
L 271.235742 -96.842932 
L 272.867172 -114.509695 
L 274.498602 -101.065598 
L 276.130032 -127.484941 
L 277.761462 -120.130246 
L 279.392892 -78.398391 
L 281.024322 -77.853818 
L 282.655751 -112.488858 
L 284.287181 -154.428458 
L 285.918611 -114.052661 
L 287.550041 -147.294121 
L 289.181471 -161.687124 
L 290.812901 -109.552891 
L 292.444331 -142.398913 
L 294.075761 -80.197325 
L 295.70719 -121.286638 
L 297.33862 -151.568882 
L 298.97005 -110.153992 
L 300.60148 -174.134891 
L 302.23291 -119.33781 
L 303.86434 -135.230307 
L 305.49577 -120.329807 
L 307.1272 -160.540889 
L 308.75863 -130.634927 
L 310.390059 -107.914414 
L 312.021489 -110.290869 
L 313.652919 -147.906317 
L 315.284349 -142.617379 
L 316.915779 -82.969013 
L 318.547209 -149.177495 
L 320.178639 -113.978684 
L 321.810069 -102.336069 
L 323.441498 -125.153308 
L 325.072928 -157.291403 
L 326.704358 -108.860699 
L 328.335788 -92.61286 
L 329.967218 -151.901512 
L 331.598648 -151.59031 
L 333.230078 -63.408617 
L 334.861508 -163.597156 
L 336.492937 -161.984024 
L 338.124367 -131.618626 
L 339.755797 -123.978229 
L 341.387227 -50.112 
L 343.018657 -78.733652 
L 344.650087 -89.206487 
L 346.281517 -71.065972 
L 347.912947 -135.751405 
L 349.544376 -105.435488 
L 351.175806 -176.953822 
L 352.807236 -107.77333 
L 354.438666 -80.482621 
L 356.070096 -101.14596 
L 357.701526 -139.169708 
L 359.332956 -101.495628 
L 360.964386 -140.416345 
L 362.595815 -132.081392 
L 364.227245 -117.331945 
L 365.858675 -163.136497 
L 367.490105 -135.997227 
L 369.121535 -94.224456 
L 370.752965 -96.296657 
L 372.384395 -99.088739 
L 374.015825 -129.936744 
L 375.647254 -126.183183 
L 377.278684 -153.039137 
L 378.910114 -130.370171 
L 380.541544 -155.947334 
L 382.172974 -76.666398 
L 383.804404 -169.300953 
L 385.435834 -169.542488 
L 387.067264 -140.24681 
L 388.698693 -139.658575 
L 390.330123 -98.039479 
L 391.961553 -126.429489 
L 393.592983 -127.613377 
L 395.224413 -148.759701 
L 396.855843 -86.9858 
L 398.487273 -115.047158 
L 398.487273 -206.406665 
L 398.487273 -206.406665 
L 396.855843 -217.860038 
L 395.224413 -199.773058 
L 393.592983 -213.432152 
L 391.961553 -195.232652 
L 390.330123 -214.682911 
L 388.698693 -194.24665 
L 387.067264 -223.325634 
L 385.435834 -225.698418 
L 383.804404 -237.709653 
L 382.172974 -222.22015 
L 380.541544 -199.940977 
L 378.910114 -253.030835 
L 377.278684 -194.575961 
L 375.647254 -168.950374 
L 374.015825 -201.478445 
L 372.384395 -253.766115 
L 370.752965 -209.137854 
L 369.121535 -222.591329 
L 367.490105 -205.44374 
L 365.858675 -234.255673 
L 364.227245 -200.12347 
L 362.595815 -247.367273 
L 360.964386 -210.247701 
L 359.332956 -227.169841 
L 357.701526 -268.872216 
L 356.070096 -237.398934 
L 354.438666 -165.26604 
L 352.807236 -213.820486 
L 351.175806 -236.645839 
L 349.544376 -254.749725 
L 347.912947 -216.272214 
L 346.281517 -197.488858 
L 344.650087 -260.294238 
L 343.018657 -208.965673 
L 341.387227 -164.25846 
L 339.755797 -210.105962 
L 338.124367 -233.5765 
L 336.492937 -292.032 
L 334.861508 -213.8435 
L 333.230078 -223.522253 
L 331.598648 -193.393128 
L 329.967218 -241.928944 
L 328.335788 -261.472499 
L 326.704358 -197.777656 
L 325.072928 -215.662459 
L 323.441498 -207.988844 
L 321.810069 -255.307579 
L 320.178639 -182.584973 
L 318.547209 -211.407151 
L 316.915779 -254.117 
L 315.284349 -194.727748 
L 313.652919 -245.782596 
L 312.021489 -224.839806 
L 310.390059 -252.796935 
L 308.75863 -246.276576 
L 307.1272 -220.884965 
L 305.49577 -210.615341 
L 303.86434 -182.030651 
L 302.23291 -205.710421 
L 300.60148 -228.26499 
L 298.97005 -221.707349 
L 297.33862 -239.93746 
L 295.70719 -224.908879 
L 294.075761 -195.832096 
L 292.444331 -177.945483 
L 290.812901 -215.442262 
L 289.181471 -241.526381 
L 287.550041 -195.303318 
L 285.918611 -198.85636 
L 284.287181 -208.695878 
L 282.655751 -222.062113 
L 281.024322 -228.429458 
L 279.392892 -196.149157 
L 277.761462 -260.224176 
L 276.130032 -191.363068 
L 274.498602 -238.696184 
L 272.867172 -213.582185 
L 271.235742 -219.863515 
L 269.604312 -194.171235 
L 267.972883 -245.035188 
L 266.341453 -223.239315 
L 264.710023 -221.281173 
L 263.078593 -238.362088 
L 261.447163 -216.016633 
L 259.815733 -263.005403 
L 258.184303 -212.59914 
L 256.552873 -213.410838 
L 254.921444 -193.87684 
L 253.290014 -216.569533 
L 251.658584 -197.005439 
L 250.027154 -217.103548 
L 248.395724 -191.113748 
L 246.764294 -227.361359 
L 245.132864 -190.318899 
L 243.501434 -202.31878 
L 241.870005 -219.00847 
L 240.238575 -263.932286 
L 238.607145 -260.303848 
L 236.975715 -218.080768 
L 235.344285 -219.938208 
L 233.712855 -176.242657 
L 232.081425 -232.464154 
L 230.449995 -226.920385 
L 228.818566 -184.236167 
L 227.187136 -217.537897 
L 225.555706 -188.181184 
L 223.924276 -216.640248 
L 222.292846 -211.568202 
L 220.661416 -210.732004 
L 219.029986 -210.921153 
L 217.398556 -147.446722 
L 215.767127 -214.311444 
L 214.135697 -236.579644 
L 212.504267 -193.150288 
L 210.872837 -192.796778 
L 209.241407 -172.05042 
L 207.609977 -234.92665 
L 205.978547 -176.015734 
L 204.347117 -238.34036 
L 202.715688 -197.19171 
L 201.084258 -220.615404 
L 199.452828 -236.042708 
L 197.821398 -170.283955 
L 196.189968 -180.829584 
L 194.558538 -183.86068 
L 192.927108 -199.77951 
L 191.295678 -266.995145 
L 189.664249 -207.979838 
L 188.032819 -199.501862 
L 186.401389 -202.804085 
L 184.769959 -197.479511 
L 183.138529 -213.020555 
L 181.507099 -188.687965 
L 179.875669 -204.01 
L 178.244239 -211.366825 
L 176.61281 -225.745388 
L 174.98138 -250.505999 
L 173.34995 -242.934948 
L 171.71852 -188.279688 
L 170.08709 -253.094681 
L 168.45566 -177.696813 
L 166.82423 -208.023479 
L 165.1928 -226.818125 
L 163.56137 -235.276 
L 161.929941 -154.33726 
L 160.298511 -209.965337 
L 158.667081 -223.77651 
L 157.035651 -201.943619 
L 155.404221 -196.176468 
L 153.772791 -257.049911 
L 152.141361 -223.046373 
L 150.509931 -210.07281 
L 148.878502 -215.140365 
L 147.247072 -211.596855 
L 145.615642 -217.083486 
L 143.984212 -206.2793 
L 142.352782 -206.897977 
L 140.721352 -229.84392 
L 139.089922 -211.327164 
L 137.458492 -217.506496 
L 135.827063 -175.130075 
L 134.195633 -215.213886 
L 132.564203 -198.125283 
L 130.932773 -185.597753 
L 129.301343 -185.000088 
L 127.669913 -193.408037 
L 126.038483 -211.403926 
L 124.407053 -209.456597 
L 122.775624 -238.749076 
L 121.144194 -230.386662 
L 119.512764 -201.670567 
L 117.881334 -253.578836 
L 116.249904 -168.533311 
L 114.618474 -238.534558 
L 112.987044 -239.879011 
L 111.355614 -260.636513 
L 109.724185 -239.269913 
L 108.092755 -208.732576 
L 106.461325 -185.854579 
L 104.829895 -204.226071 
L 103.198465 -200.066187 
L 101.567035 -231.040532 
L 99.935605 -136.131028 
L 98.304175 -219.219524 
L 96.672746 -209.335374 
L 95.041316 -213.741049 
L 93.409886 -225.909295 
L 91.778456 -229.623491 
L 90.147026 -192.061867 
L 88.515596 -170.440712 
L 86.884166 -235.951422 
L 85.252736 -215.98955 
L 83.621307 -168.175762 
L 81.989877 -166.146776 
L 80.358447 -197.592639 
L 78.727017 -172.262435 
L 77.095587 -224.317049 
L 75.464157 -222.133672 
L 73.832727 -191.77829 
z
" style="stroke: #ffffff; stroke-opacity: 0.2"/>
    </defs>
    <g clip-path="url(#p0d7b2ed996)">
     <use xlink:href="#m55cf2a65d2" x="0" y="345.6" style="fill: #1f77b4; fill-opacity: 0.2; stroke: #ffffff; stroke-opacity: 0.2"/>
    </g>
   </g>
   <g id="line2d_16">
    <path d="M 73.832727 194.857529 
L 75.464157 174.740583 
L 77.095587 188.645281 
L 78.727017 218.554941 
L 80.358447 189.650712 
L 81.989877 196.548699 
L 83.621307 215.267751 
L 85.252736 177.125441 
L 86.884166 164.196333 
L 88.515596 219.13868 
L 90.147026 205.967051 
L 91.778456 187.539319 
L 93.409886 196.538181 
L 95.041316 201.694365 
L 96.672746 178.706296 
L 98.304175 192.792487 
L 99.935605 238.176325 
L 101.567035 176.413041 
L 103.198465 165.576371 
L 104.829895 212.274367 
L 106.461325 207.951742 
L 108.092755 180.401868 
L 109.724185 171.504515 
L 111.355614 160.548724 
L 112.987044 174.576945 
L 114.618474 148.67189 
L 116.249904 192.784293 
L 117.881334 148.38057 
L 119.512764 196.313882 
L 121.144194 160.865482 
L 122.775624 168.523688 
L 124.407053 153.795786 
L 126.038483 177.008766 
L 127.669913 189.038844 
L 129.301343 180.989522 
L 130.932773 200.559662 
L 132.564203 185.701878 
L 134.195633 179.232799 
L 135.827063 198.553202 
L 137.458492 172.723605 
L 139.089922 191.857623 
L 140.721352 166.627665 
L 142.352782 178.062629 
L 143.984212 182.370904 
L 145.615642 171.394689 
L 147.247072 191.629166 
L 148.878502 192.77512 
L 150.509931 177.983827 
L 152.141361 172.160045 
L 153.772791 171.206714 
L 155.404221 185.877379 
L 157.035651 167.80925 
L 158.667081 163.868079 
L 160.298511 169.082478 
L 161.929941 213.132631 
L 163.56137 175.411523 
L 165.1928 161.126961 
L 166.82423 184.976025 
L 168.45566 183.55734 
L 170.08709 167.115888 
L 171.71852 185.795315 
L 173.34995 180.653807 
L 174.98138 192.61189 
L 176.61281 164.723204 
L 178.244239 186.160993 
L 179.875669 171.503415 
L 181.507099 206.282586 
L 183.138529 169.283989 
L 184.769959 197.360896 
L 186.401389 193.307209 
L 188.032819 210.911167 
L 189.664249 188.800969 
L 191.295678 129.72279 
L 192.927108 156.313951 
L 194.558538 200.523461 
L 196.189968 205.546746 
L 197.821398 192.621022 
L 199.452828 186.524307 
L 201.084258 169.692146 
L 202.715688 195.190553 
L 204.347117 158.135126 
L 205.978547 177.715418 
L 207.609977 165.995861 
L 209.241407 203.085654 
L 210.872837 183.511315 
L 212.504267 221.254192 
L 214.135697 160.809836 
L 215.767127 159.250751 
L 217.398556 238.894636 
L 219.029986 182.93422 
L 220.661416 197.817565 
L 222.292846 182.293366 
L 223.924276 169.813835 
L 225.555706 175.194032 
L 227.187136 164.612399 
L 228.818566 192.977038 
L 230.449995 148.06956 
L 232.081425 161.017869 
L 233.712855 209.124643 
L 235.344285 166.648089 
L 236.975715 177.351819 
L 238.607145 151.791161 
L 240.238575 137.888542 
L 243.501434 190.046232 
L 245.132864 200.332061 
L 246.764294 166.556364 
L 248.395724 194.436571 
L 250.027154 163.292126 
L 251.658584 164.864583 
L 253.290014 176.968407 
L 254.921444 201.472104 
L 256.552873 179.543564 
L 258.184303 172.84505 
L 259.815733 144.096755 
L 261.447163 178.71767 
L 263.078593 122.712532 
L 264.710023 178.422926 
L 266.341453 166.438793 
L 267.972883 182.488639 
L 269.604312 197.138187 
L 271.235742 187.246776 
L 274.498602 175.719109 
L 276.130032 186.175995 
L 277.761462 155.422789 
L 279.392892 208.326226 
L 281.024322 192.458362 
L 284.287181 164.037832 
L 285.918611 189.14549 
L 287.550041 174.30128 
L 289.181471 143.993248 
L 290.812901 183.102424 
L 292.444331 185.427802 
L 294.075761 207.585289 
L 295.70719 172.502242 
L 297.33862 149.846829 
L 298.97005 179.66933 
L 300.60148 144.400059 
L 302.23291 183.075885 
L 303.86434 186.969521 
L 305.49577 180.127426 
L 307.1272 154.887073 
L 308.75863 157.144249 
L 310.390059 165.244325 
L 312.021489 178.034663 
L 313.652919 148.755543 
L 315.284349 176.927437 
L 316.915779 177.056993 
L 318.547209 165.307677 
L 320.178639 197.318172 
L 321.810069 166.778176 
L 323.441498 179.028924 
L 325.072928 159.123069 
L 326.704358 192.280823 
L 328.335788 168.557321 
L 329.967218 148.684772 
L 331.598648 173.108281 
L 333.230078 202.134565 
L 334.861508 156.879672 
L 336.492937 118.591988 
L 338.124367 163.002437 
L 339.755797 178.557905 
L 341.387227 238.41477 
L 343.018657 201.750338 
L 344.650087 170.849637 
L 346.281517 211.322585 
L 347.912947 169.58819 
L 349.544376 165.507394 
L 351.175806 138.800169 
L 352.807236 184.803092 
L 354.438666 222.725669 
L 356.070096 176.327553 
L 357.701526 141.579038 
L 359.332956 181.267266 
L 360.964386 170.267977 
L 362.595815 155.875668 
L 364.227245 186.872292 
L 365.858675 146.903915 
L 367.490105 174.879517 
L 369.121535 187.192108 
L 370.752965 192.882745 
L 372.384395 169.172573 
L 374.015825 179.892406 
L 375.647254 198.033222 
L 377.278684 171.792451 
L 378.910114 153.899497 
L 380.541544 167.655844 
L 382.172974 196.156726 
L 383.804404 142.094697 
L 385.435834 147.979547 
L 388.698693 178.647388 
L 390.330123 189.238805 
L 391.961553 184.76893 
L 393.592983 175.077236 
L 395.224413 171.333621 
L 396.855843 193.177081 
L 398.487273 184.873089 
L 398.487273 184.873089 
" clip-path="url(#p0d7b2ed996)" style="fill: none; stroke: #1f77b4; stroke-width: 1.5; stroke-linecap: round"/>
   </g>
   <g id="LineCollection_1">
    <path d="M 398.487273 295.488 
L 398.487273 53.568 
" clip-path="url(#p0d7b2ed996)" style="fill: none; stroke-dasharray: 5.55,2.4; stroke-dashoffset: 0; stroke: #1f77b4; stroke-width: 1.5"/>
   </g>
   <g id="patch_3">
    <path d="M 57.6 307.584 
L 57.6 41.472 
" style="fill: none; stroke: #cccccc; stroke-width: 0.8; stroke-linejoin: miter; stroke-linecap: square"/>
   </g>
   <g id="patch_4">
    <path d="M 414.72 307.584 
L 414.72 41.472 
" style="fill: none; stroke: #cccccc; stroke-width: 0.8; stroke-linejoin: miter; stroke-linecap: square"/>
   </g>
   <g id="patch_5">
    <path d="M 57.6 307.584 
L 414.72 307.584 
" style="fill: none; stroke: #cccccc; stroke-width: 0.8; stroke-linejoin: miter; stroke-linecap: square"/>
   </g>
   <g id="patch_6">
    <path d="M 57.6 41.472 
L 414.72 41.472 
" style="fill: none; stroke: #cccccc; stroke-width: 0.8; stroke-linejoin: miter; stroke-linecap: square"/>
   </g>
   <g id="text_18">
    <!-- Model performance vs. # of iterations -->
    <g style="fill: #262626" transform="translate(122.314688 35.472)scale(0.12 -0.12)">
     <defs>
      <path id="DejaVuSans-4d" d="M 628 4666 
L 1569 4666 
L 2759 1491 
L 3956 4666 
L 4897 4666 
L 4897 0 
L 4281 0 
L 4281 4097 
L 3078 897 
L 2444 897 
L 1241 4097 
L 1241 0 
L 628 0 
L 628 4666 
z
" transform="scale(0.015625)"/>
      <path id="DejaVuSans-64" d="M 2906 2969 
L 2906 4863 
L 3481 4863 
L 3481 0 
L 2906 0 
L 2906 525 
Q 2725 213 2448 61 
Q 2172 -91 1784 -91 
Q 1150 -91 751 415 
Q 353 922 353 1747 
Q 353 2572 751 3078 
Q 1150 3584 1784 3584 
Q 2172 3584 2448 3432 
Q 2725 3281 2906 2969 
z
M 947 1747 
Q 947 1113 1208 752 
Q 1469 391 1925 391 
Q 2381 391 2643 752 
Q 2906 1113 2906 1747 
Q 2906 2381 2643 2742 
Q 2381 3103 1925 3103 
Q 1469 3103 1208 2742 
Q 947 2381 947 1747 
z
" transform="scale(0.015625)"/>
      <path id="DejaVuSans-6c" d="M 603 4863 
L 1178 4863 
L 1178 0 
L 603 0 
L 603 4863 
z
" transform="scale(0.015625)"/>
      <path id="DejaVuSans-20" transform="scale(0.015625)"/>
      <path id="DejaVuSans-70" d="M 1159 525 
L 1159 -1331 
L 581 -1331 
L 581 3500 
L 1159 3500 
L 1159 2969 
Q 1341 3281 1617 3432 
Q 1894 3584 2278 3584 
Q 2916 3584 3314 3078 
Q 3713 2572 3713 1747 
Q 3713 922 3314 415 
Q 2916 -91 2278 -91 
Q 1894 -91 1617 61 
Q 1341 213 1159 525 
z
M 3116 1747 
Q 3116 2381 2855 2742 
Q 2594 3103 2138 3103 
Q 1681 3103 1420 2742 
Q 1159 2381 1159 1747 
Q 1159 1113 1420 752 
Q 1681 391 2138 391 
Q 2594 391 2855 752 
Q 3116 1113 3116 1747 
z
" transform="scale(0.015625)"/>
      <path id="DejaVuSans-66" d="M 2375 4863 
L 2375 4384 
L 1825 4384 
Q 1516 4384 1395 4259 
Q 1275 4134 1275 3809 
L 1275 3500 
L 2222 3500 
L 2222 3053 
L 1275 3053 
L 1275 0 
L 697 0 
L 697 3053 
L 147 3053 
L 147 3500 
L 697 3500 
L 697 3744 
Q 697 4328 969 4595 
Q 1241 4863 1831 4863 
L 2375 4863 
z
" transform="scale(0.015625)"/>
      <path id="DejaVuSans-6d" d="M 3328 2828 
Q 3544 3216 3844 3400 
Q 4144 3584 4550 3584 
Q 5097 3584 5394 3201 
Q 5691 2819 5691 2113 
L 5691 0 
L 5113 0 
L 5113 2094 
Q 5113 2597 4934 2840 
Q 4756 3084 4391 3084 
Q 3944 3084 3684 2787 
Q 3425 2491 3425 1978 
L 3425 0 
L 2847 0 
L 2847 2094 
Q 2847 2600 2669 2842 
Q 2491 3084 2119 3084 
Q 1678 3084 1418 2786 
Q 1159 2488 1159 1978 
L 1159 0 
L 581 0 
L 581 3500 
L 1159 3500 
L 1159 2956 
Q 1356 3278 1631 3431 
Q 1906 3584 2284 3584 
Q 2666 3584 2933 3390 
Q 3200 3197 3328 2828 
z
" transform="scale(0.015625)"/>
      <path id="DejaVuSans-76" d="M 191 3500 
L 800 3500 
L 1894 563 
L 2988 3500 
L 3597 3500 
L 2284 0 
L 1503 0 
L 191 3500 
z
" transform="scale(0.015625)"/>
      <path id="DejaVuSans-73" d="M 2834 3397 
L 2834 2853 
Q 2591 2978 2328 3040 
Q 2066 3103 1784 3103 
Q 1356 3103 1142 2972 
Q 928 2841 928 2578 
Q 928 2378 1081 2264 
Q 1234 2150 1697 2047 
L 1894 2003 
Q 2506 1872 2764 1633 
Q 3022 1394 3022 966 
Q 3022 478 2636 193 
Q 2250 -91 1575 -91 
Q 1294 -91 989 -36 
Q 684 19 347 128 
L 347 722 
Q 666 556 975 473 
Q 1284 391 1588 391 
Q 1994 391 2212 530 
Q 2431 669 2431 922 
Q 2431 1156 2273 1281 
Q 2116 1406 1581 1522 
L 1381 1569 
Q 847 1681 609 1914 
Q 372 2147 372 2553 
Q 372 3047 722 3315 
Q 1072 3584 1716 3584 
Q 2034 3584 2315 3537 
Q 2597 3491 2834 3397 
z
" transform="scale(0.015625)"/>
      <path id="DejaVuSans-23" d="M 3272 2816 
L 2363 2816 
L 2100 1772 
L 3016 1772 
L 3272 2816 
z
M 2803 4594 
L 2478 3297 
L 3391 3297 
L 3719 4594 
L 4219 4594 
L 3897 3297 
L 4872 3297 
L 4872 2816 
L 3775 2816 
L 3519 1772 
L 4513 1772 
L 4513 1294 
L 3397 1294 
L 3072 0 
L 2572 0 
L 2894 1294 
L 1978 1294 
L 1656 0 
L 1153 0 
L 1478 1294 
L 494 1294 
L 494 1772 
L 1594 1772 
L 1856 2816 
L 850 2816 
L 850 3297 
L 1978 3297 
L 2297 4594 
L 2803 4594 
z
" transform="scale(0.015625)"/>
     </defs>
     <use xlink:href="#DejaVuSans-4d"/>
     <use xlink:href="#DejaVuSans-6f" x="86.279297"/>
     <use xlink:href="#DejaVuSans-64" x="147.460938"/>
     <use xlink:href="#DejaVuSans-65" x="210.9375"/>
     <use xlink:href="#DejaVuSans-6c" x="272.460938"/>
     <use xlink:href="#DejaVuSans-20" x="300.244141"/>
     <use xlink:href="#DejaVuSans-70" x="332.03125"/>
     <use xlink:href="#DejaVuSans-65" x="395.507812"/>
     <use xlink:href="#DejaVuSans-72" x="457.03125"/>
     <use xlink:href="#DejaVuSans-66" x="498.144531"/>
     <use xlink:href="#DejaVuSans-6f" x="533.349609"/>
     <use xlink:href="#DejaVuSans-72" x="594.53125"/>
     <use xlink:href="#DejaVuSans-6d" x="633.894531"/>
     <use xlink:href="#DejaVuSans-61" x="731.306641"/>
     <use xlink:href="#DejaVuSans-6e" x="792.585938"/>
     <use xlink:href="#DejaVuSans-63" x="855.964844"/>
     <use xlink:href="#DejaVuSans-65" x="910.945312"/>
     <use xlink:href="#DejaVuSans-20" x="972.46875"/>
     <use xlink:href="#DejaVuSans-76" x="1004.255859"/>
     <use xlink:href="#DejaVuSans-73" x="1063.435547"/>
     <use xlink:href="#DejaVuSans-2e" x="1115.535156"/>
     <use xlink:href="#DejaVuSans-20" x="1147.322266"/>
     <use xlink:href="#DejaVuSans-23" x="1179.109375"/>
     <use xlink:href="#DejaVuSans-20" x="1262.898438"/>
     <use xlink:href="#DejaVuSans-6f" x="1294.685547"/>
     <use xlink:href="#DejaVuSans-66" x="1355.867188"/>
     <use xlink:href="#DejaVuSans-20" x="1391.072266"/>
     <use xlink:href="#DejaVuSans-69" x="1422.859375"/>
     <use xlink:href="#DejaVuSans-74" x="1450.642578"/>
     <use xlink:href="#DejaVuSans-65" x="1489.851562"/>
     <use xlink:href="#DejaVuSans-72" x="1551.375"/>
     <use xlink:href="#DejaVuSans-61" x="1592.488281"/>
     <use xlink:href="#DejaVuSans-74" x="1653.767578"/>
     <use xlink:href="#DejaVuSans-69" x="1692.976562"/>
     <use xlink:href="#DejaVuSans-6f" x="1720.759766"/>
     <use xlink:href="#DejaVuSans-6e" x="1781.941406"/>
     <use xlink:href="#DejaVuSans-73" x="1845.320312"/>
    </g>
   </g>
  </g>
 </g>
 <defs>
  <clipPath id="p0d7b2ed996">
   <rect x="57.6" y="41.472" width="357.12" height="266.112"/>
  </clipPath>
 </defs>
</svg>
