<?xml version="1.0" encoding="utf-8" standalone="no"?>
<!DOCTYPE svg PUBLIC "-//W3C//DTD SVG 1.1//EN"
  "http://www.w3.org/Graphics/SVG/1.1/DTD/svg11.dtd">
<svg xmlns:xlink="http://www.w3.org/1999/xlink" width="460.8pt" height="345.6pt" viewBox="0 0 460.8 345.6" xmlns="http://www.w3.org/2000/svg" version="1.1">
 <metadata>
  <rdf:RDF xmlns:dc="http://purl.org/dc/elements/1.1/" xmlns:cc="http://creativecommons.org/ns#" xmlns:rdf="http://www.w3.org/1999/02/22-rdf-syntax-ns#">
   <cc:Work>
    <dc:type rdf:resource="http://purl.org/dc/dcmitype/StillImage"/>
    <dc:date>2022-10-29T09:30:51.767610</dc:date>
    <dc:format>image/svg+xml</dc:format>
    <dc:creator>
     <cc:Agent>
      <dc:title>Matplotlib v3.5.2, https://matplotlib.org/</dc:title>
     </cc:Agent>
    </dc:creator>
   </cc:Work>
  </rdf:RDF>
 </metadata>
 <defs>
  <style type="text/css">*{stroke-linejoin: round; stroke-linecap: butt}</style>
 </defs>
 <g id="figure_1">
  <g id="patch_1">
   <path d="M 0 345.6 
L 460.8 345.6 
L 460.8 0 
L 0 0 
z
" style="fill: #ffffff"/>
  </g>
  <g id="axes_1">
   <g id="patch_2">
    <path d="M 57.6 307.584 
L 414.72 307.584 
L 414.72 41.472 
L 57.6 41.472 
z
" style="fill: #ffffff"/>
   </g>
   <g id="matplotlib.axis_1">
    <g id="xtick_1">
     <g id="line2d_1">
      <path d="M 72.201297 307.584 
L 72.201297 41.472 
" clip-path="url(#pc43a574a08)" style="fill: none; stroke: #cccccc; stroke-width: 0.8; stroke-linecap: round"/>
     </g>
     <g id="text_1">
      <!-- 0 -->
      <g style="fill: #262626" transform="translate(69.020047 322.182437)scale(0.1 -0.1)">
       <defs>
        <path id="DejaVuSans-30" d="M 2034 4250 
Q 1547 4250 1301 3770 
Q 1056 3291 1056 2328 
Q 1056 1369 1301 889 
Q 1547 409 2034 409 
Q 2525 409 2770 889 
Q 3016 1369 3016 2328 
Q 3016 3291 2770 3770 
Q 2525 4250 2034 4250 
z
M 2034 4750 
Q 2819 4750 3233 4129 
Q 3647 3509 3647 2328 
Q 3647 1150 3233 529 
Q 2819 -91 2034 -91 
Q 1250 -91 836 529 
Q 422 1150 422 2328 
Q 422 3509 836 4129 
Q 1250 4750 2034 4750 
z
" transform="scale(0.015625)"/>
       </defs>
       <use xlink:href="#DejaVuSans-30"/>
      </g>
     </g>
    </g>
    <g id="xtick_2">
     <g id="line2d_2">
      <path d="M 112.987044 307.584 
L 112.987044 41.472 
" clip-path="url(#pc43a574a08)" style="fill: none; stroke: #cccccc; stroke-width: 0.8; stroke-linecap: round"/>
     </g>
     <g id="text_2">
      <!-- 25 -->
      <g style="fill: #262626" transform="translate(106.624544 322.182437)scale(0.1 -0.1)">
       <defs>
        <path id="DejaVuSans-32" d="M 1228 531 
L 3431 531 
L 3431 0 
L 469 0 
L 469 531 
Q 828 903 1448 1529 
Q 2069 2156 2228 2338 
Q 2531 2678 2651 2914 
Q 2772 3150 2772 3378 
Q 2772 3750 2511 3984 
Q 2250 4219 1831 4219 
Q 1534 4219 1204 4116 
Q 875 4013 500 3803 
L 500 4441 
Q 881 4594 1212 4672 
Q 1544 4750 1819 4750 
Q 2544 4750 2975 4387 
Q 3406 4025 3406 3419 
Q 3406 3131 3298 2873 
Q 3191 2616 2906 2266 
Q 2828 2175 2409 1742 
Q 1991 1309 1228 531 
z
" transform="scale(0.015625)"/>
        <path id="DejaVuSans-35" d="M 691 4666 
L 3169 4666 
L 3169 4134 
L 1269 4134 
L 1269 2991 
Q 1406 3038 1543 3061 
Q 1681 3084 1819 3084 
Q 2600 3084 3056 2656 
Q 3513 2228 3513 1497 
Q 3513 744 3044 326 
Q 2575 -91 1722 -91 
Q 1428 -91 1123 -41 
Q 819 9 494 109 
L 494 744 
Q 775 591 1075 516 
Q 1375 441 1709 441 
Q 2250 441 2565 725 
Q 2881 1009 2881 1497 
Q 2881 1984 2565 2268 
Q 2250 2553 1709 2553 
Q 1456 2553 1204 2497 
Q 953 2441 691 2322 
L 691 4666 
z
" transform="scale(0.015625)"/>
       </defs>
       <use xlink:href="#DejaVuSans-32"/>
       <use xlink:href="#DejaVuSans-35" x="63.623047"/>
      </g>
     </g>
    </g>
    <g id="xtick_3">
     <g id="line2d_3">
      <path d="M 153.772791 307.584 
L 153.772791 41.472 
" clip-path="url(#pc43a574a08)" style="fill: none; stroke: #cccccc; stroke-width: 0.8; stroke-linecap: round"/>
     </g>
     <g id="text_3">
      <!-- 50 -->
      <g style="fill: #262626" transform="translate(147.410291 322.182437)scale(0.1 -0.1)">
       <use xlink:href="#DejaVuSans-35"/>
       <use xlink:href="#DejaVuSans-30" x="63.623047"/>
      </g>
     </g>
    </g>
    <g id="xtick_4">
     <g id="line2d_4">
      <path d="M 194.558538 307.584 
L 194.558538 41.472 
" clip-path="url(#pc43a574a08)" style="fill: none; stroke: #cccccc; stroke-width: 0.8; stroke-linecap: round"/>
     </g>
     <g id="text_4">
      <!-- 75 -->
      <g style="fill: #262626" transform="translate(188.196038 322.182437)scale(0.1 -0.1)">
       <defs>
        <path id="DejaVuSans-37" d="M 525 4666 
L 3525 4666 
L 3525 4397 
L 1831 0 
L 1172 0 
L 2766 4134 
L 525 4134 
L 525 4666 
z
" transform="scale(0.015625)"/>
       </defs>
       <use xlink:href="#DejaVuSans-37"/>
       <use xlink:href="#DejaVuSans-35" x="63.623047"/>
      </g>
     </g>
    </g>
    <g id="xtick_5">
     <g id="line2d_5">
      <path d="M 235.344285 307.584 
L 235.344285 41.472 
" clip-path="url(#pc43a574a08)" style="fill: none; stroke: #cccccc; stroke-width: 0.8; stroke-linecap: round"/>
     </g>
     <g id="text_5">
      <!-- 100 -->
      <g style="fill: #262626" transform="translate(225.800535 322.182437)scale(0.1 -0.1)">
       <defs>
        <path id="DejaVuSans-31" d="M 794 531 
L 1825 531 
L 1825 4091 
L 703 3866 
L 703 4441 
L 1819 4666 
L 2450 4666 
L 2450 531 
L 3481 531 
L 3481 0 
L 794 0 
L 794 531 
z
" transform="scale(0.015625)"/>
       </defs>
       <use xlink:href="#DejaVuSans-31"/>
       <use xlink:href="#DejaVuSans-30" x="63.623047"/>
       <use xlink:href="#DejaVuSans-30" x="127.246094"/>
      </g>
     </g>
    </g>
    <g id="xtick_6">
     <g id="line2d_6">
      <path d="M 276.130032 307.584 
L 276.130032 41.472 
" clip-path="url(#pc43a574a08)" style="fill: none; stroke: #cccccc; stroke-width: 0.8; stroke-linecap: round"/>
     </g>
     <g id="text_6">
      <!-- 125 -->
      <g style="fill: #262626" transform="translate(266.586282 322.182437)scale(0.1 -0.1)">
       <use xlink:href="#DejaVuSans-31"/>
       <use xlink:href="#DejaVuSans-32" x="63.623047"/>
       <use xlink:href="#DejaVuSans-35" x="127.246094"/>
      </g>
     </g>
    </g>
    <g id="xtick_7">
     <g id="line2d_7">
      <path d="M 316.915779 307.584 
L 316.915779 41.472 
" clip-path="url(#pc43a574a08)" style="fill: none; stroke: #cccccc; stroke-width: 0.8; stroke-linecap: round"/>
     </g>
     <g id="text_7">
      <!-- 150 -->
      <g style="fill: #262626" transform="translate(307.372029 322.182437)scale(0.1 -0.1)">
       <use xlink:href="#DejaVuSans-31"/>
       <use xlink:href="#DejaVuSans-35" x="63.623047"/>
       <use xlink:href="#DejaVuSans-30" x="127.246094"/>
      </g>
     </g>
    </g>
    <g id="xtick_8">
     <g id="line2d_8">
      <path d="M 357.701526 307.584 
L 357.701526 41.472 
" clip-path="url(#pc43a574a08)" style="fill: none; stroke: #cccccc; stroke-width: 0.8; stroke-linecap: round"/>
     </g>
     <g id="text_8">
      <!-- 175 -->
      <g style="fill: #262626" transform="translate(348.157776 322.182437)scale(0.1 -0.1)">
       <use xlink:href="#DejaVuSans-31"/>
       <use xlink:href="#DejaVuSans-37" x="63.623047"/>
       <use xlink:href="#DejaVuSans-35" x="127.246094"/>
      </g>
     </g>
    </g>
    <g id="xtick_9">
     <g id="line2d_9">
      <path d="M 398.487273 307.584 
L 398.487273 41.472 
" clip-path="url(#pc43a574a08)" style="fill: none; stroke: #cccccc; stroke-width: 0.8; stroke-linecap: round"/>
     </g>
     <g id="text_9">
      <!-- 200 -->
      <g style="fill: #262626" transform="translate(388.943523 322.182437)scale(0.1 -0.1)">
       <use xlink:href="#DejaVuSans-32"/>
       <use xlink:href="#DejaVuSans-30" x="63.623047"/>
       <use xlink:href="#DejaVuSans-30" x="127.246094"/>
      </g>
     </g>
    </g>
    <g id="text_10">
     <!-- Iteration -->
     <g style="fill: #262626" transform="translate(214.951406 335.860562)scale(0.1 -0.1)">
      <defs>
       <path id="DejaVuSans-49" d="M 628 4666 
L 1259 4666 
L 1259 0 
L 628 0 
L 628 4666 
z
" transform="scale(0.015625)"/>
       <path id="DejaVuSans-74" d="M 1172 4494 
L 1172 3500 
L 2356 3500 
L 2356 3053 
L 1172 3053 
L 1172 1153 
Q 1172 725 1289 603 
Q 1406 481 1766 481 
L 2356 481 
L 2356 0 
L 1766 0 
Q 1100 0 847 248 
Q 594 497 594 1153 
L 594 3053 
L 172 3053 
L 172 3500 
L 594 3500 
L 594 4494 
L 1172 4494 
z
" transform="scale(0.015625)"/>
       <path id="DejaVuSans-65" d="M 3597 1894 
L 3597 1613 
L 953 1613 
Q 991 1019 1311 708 
Q 1631 397 2203 397 
Q 2534 397 2845 478 
Q 3156 559 3463 722 
L 3463 178 
Q 3153 47 2828 -22 
Q 2503 -91 2169 -91 
Q 1331 -91 842 396 
Q 353 884 353 1716 
Q 353 2575 817 3079 
Q 1281 3584 2069 3584 
Q 2775 3584 3186 3129 
Q 3597 2675 3597 1894 
z
M 3022 2063 
Q 3016 2534 2758 2815 
Q 2500 3097 2075 3097 
Q 1594 3097 1305 2825 
Q 1016 2553 972 2059 
L 3022 2063 
z
" transform="scale(0.015625)"/>
       <path id="DejaVuSans-72" d="M 2631 2963 
Q 2534 3019 2420 3045 
Q 2306 3072 2169 3072 
Q 1681 3072 1420 2755 
Q 1159 2438 1159 1844 
L 1159 0 
L 581 0 
L 581 3500 
L 1159 3500 
L 1159 2956 
Q 1341 3275 1631 3429 
Q 1922 3584 2338 3584 
Q 2397 3584 2469 3576 
Q 2541 3569 2628 3553 
L 2631 2963 
z
" transform="scale(0.015625)"/>
       <path id="DejaVuSans-61" d="M 2194 1759 
Q 1497 1759 1228 1600 
Q 959 1441 959 1056 
Q 959 750 1161 570 
Q 1363 391 1709 391 
Q 2188 391 2477 730 
Q 2766 1069 2766 1631 
L 2766 1759 
L 2194 1759 
z
M 3341 1997 
L 3341 0 
L 2766 0 
L 2766 531 
Q 2569 213 2275 61 
Q 1981 -91 1556 -91 
Q 1019 -91 701 211 
Q 384 513 384 1019 
Q 384 1609 779 1909 
Q 1175 2209 1959 2209 
L 2766 2209 
L 2766 2266 
Q 2766 2663 2505 2880 
Q 2244 3097 1772 3097 
Q 1472 3097 1187 3025 
Q 903 2953 641 2809 
L 641 3341 
Q 956 3463 1253 3523 
Q 1550 3584 1831 3584 
Q 2591 3584 2966 3190 
Q 3341 2797 3341 1997 
z
" transform="scale(0.015625)"/>
       <path id="DejaVuSans-69" d="M 603 3500 
L 1178 3500 
L 1178 0 
L 603 0 
L 603 3500 
z
M 603 4863 
L 1178 4863 
L 1178 4134 
L 603 4134 
L 603 4863 
z
" transform="scale(0.015625)"/>
       <path id="DejaVuSans-6f" d="M 1959 3097 
Q 1497 3097 1228 2736 
Q 959 2375 959 1747 
Q 959 1119 1226 758 
Q 1494 397 1959 397 
Q 2419 397 2687 759 
Q 2956 1122 2956 1747 
Q 2956 2369 2687 2733 
Q 2419 3097 1959 3097 
z
M 1959 3584 
Q 2709 3584 3137 3096 
Q 3566 2609 3566 1747 
Q 3566 888 3137 398 
Q 2709 -91 1959 -91 
Q 1206 -91 779 398 
Q 353 888 353 1747 
Q 353 2609 779 3096 
Q 1206 3584 1959 3584 
z
" transform="scale(0.015625)"/>
       <path id="DejaVuSans-6e" d="M 3513 2113 
L 3513 0 
L 2938 0 
L 2938 2094 
Q 2938 2591 2744 2837 
Q 2550 3084 2163 3084 
Q 1697 3084 1428 2787 
Q 1159 2491 1159 1978 
L 1159 0 
L 581 0 
L 581 3500 
L 1159 3500 
L 1159 2956 
Q 1366 3272 1645 3428 
Q 1925 3584 2291 3584 
Q 2894 3584 3203 3211 
Q 3513 2838 3513 2113 
z
" transform="scale(0.015625)"/>
      </defs>
      <use xlink:href="#DejaVuSans-49"/>
      <use xlink:href="#DejaVuSans-74" x="29.492188"/>
      <use xlink:href="#DejaVuSans-65" x="68.701172"/>
      <use xlink:href="#DejaVuSans-72" x="130.224609"/>
      <use xlink:href="#DejaVuSans-61" x="171.337891"/>
      <use xlink:href="#DejaVuSans-74" x="232.617188"/>
      <use xlink:href="#DejaVuSans-69" x="271.826172"/>
      <use xlink:href="#DejaVuSans-6f" x="299.609375"/>
      <use xlink:href="#DejaVuSans-6e" x="360.791016"/>
     </g>
    </g>
   </g>
   <g id="matplotlib.axis_2">
    <g id="ytick_1">
     <g id="line2d_10">
      <path d="M 57.6 254.427075 
L 414.72 254.427075 
" clip-path="url(#pc43a574a08)" style="fill: none; stroke: #cccccc; stroke-width: 0.8; stroke-linecap: round"/>
     </g>
     <g id="text_11">
      <!-- 0.50 -->
      <g style="fill: #262626" transform="translate(28.334375 258.226294)scale(0.1 -0.1)">
       <defs>
        <path id="DejaVuSans-2e" d="M 684 794 
L 1344 794 
L 1344 0 
L 684 0 
L 684 794 
z
" transform="scale(0.015625)"/>
       </defs>
       <use xlink:href="#DejaVuSans-30"/>
       <use xlink:href="#DejaVuSans-2e" x="63.623047"/>
       <use xlink:href="#DejaVuSans-35" x="95.410156"/>
       <use xlink:href="#DejaVuSans-30" x="159.033203"/>
      </g>
     </g>
    </g>
    <g id="ytick_2">
     <g id="line2d_11">
      <path d="M 57.6 200.36432 
L 414.72 200.36432 
" clip-path="url(#pc43a574a08)" style="fill: none; stroke: #cccccc; stroke-width: 0.8; stroke-linecap: round"/>
     </g>
     <g id="text_12">
      <!-- 0.55 -->
      <g style="fill: #262626" transform="translate(28.334375 204.163539)scale(0.1 -0.1)">
       <use xlink:href="#DejaVuSans-30"/>
       <use xlink:href="#DejaVuSans-2e" x="63.623047"/>
       <use xlink:href="#DejaVuSans-35" x="95.410156"/>
       <use xlink:href="#DejaVuSans-35" x="159.033203"/>
      </g>
     </g>
    </g>
    <g id="ytick_3">
     <g id="line2d_12">
      <path d="M 57.6 146.301565 
L 414.72 146.301565 
" clip-path="url(#pc43a574a08)" style="fill: none; stroke: #cccccc; stroke-width: 0.8; stroke-linecap: round"/>
     </g>
     <g id="text_13">
      <!-- 0.60 -->
      <g style="fill: #262626" transform="translate(28.334375 150.100784)scale(0.1 -0.1)">
       <defs>
        <path id="DejaVuSans-36" d="M 2113 2584 
Q 1688 2584 1439 2293 
Q 1191 2003 1191 1497 
Q 1191 994 1439 701 
Q 1688 409 2113 409 
Q 2538 409 2786 701 
Q 3034 994 3034 1497 
Q 3034 2003 2786 2293 
Q 2538 2584 2113 2584 
z
M 3366 4563 
L 3366 3988 
Q 3128 4100 2886 4159 
Q 2644 4219 2406 4219 
Q 1781 4219 1451 3797 
Q 1122 3375 1075 2522 
Q 1259 2794 1537 2939 
Q 1816 3084 2150 3084 
Q 2853 3084 3261 2657 
Q 3669 2231 3669 1497 
Q 3669 778 3244 343 
Q 2819 -91 2113 -91 
Q 1303 -91 875 529 
Q 447 1150 447 2328 
Q 447 3434 972 4092 
Q 1497 4750 2381 4750 
Q 2619 4750 2861 4703 
Q 3103 4656 3366 4563 
z
" transform="scale(0.015625)"/>
       </defs>
       <use xlink:href="#DejaVuSans-30"/>
       <use xlink:href="#DejaVuSans-2e" x="63.623047"/>
       <use xlink:href="#DejaVuSans-36" x="95.410156"/>
       <use xlink:href="#DejaVuSans-30" x="159.033203"/>
      </g>
     </g>
    </g>
    <g id="ytick_4">
     <g id="line2d_13">
      <path d="M 57.6 92.23881 
L 414.72 92.23881 
" clip-path="url(#pc43a574a08)" style="fill: none; stroke: #cccccc; stroke-width: 0.8; stroke-linecap: round"/>
     </g>
     <g id="text_14">
      <!-- 0.65 -->
      <g style="fill: #262626" transform="translate(28.334375 96.038029)scale(0.1 -0.1)">
       <use xlink:href="#DejaVuSans-30"/>
       <use xlink:href="#DejaVuSans-2e" x="63.623047"/>
       <use xlink:href="#DejaVuSans-36" x="95.410156"/>
       <use xlink:href="#DejaVuSans-35" x="159.033203"/>
      </g>
     </g>
    </g>
    <g id="text_15">
     <!-- Auroc -->
     <g style="fill: #262626" transform="translate(22.254688 188.868625)rotate(-90)scale(0.1 -0.1)">
      <defs>
       <path id="DejaVuSans-41" d="M 2188 4044 
L 1331 1722 
L 3047 1722 
L 2188 4044 
z
M 1831 4666 
L 2547 4666 
L 4325 0 
L 3669 0 
L 3244 1197 
L 1141 1197 
L 716 0 
L 50 0 
L 1831 4666 
z
" transform="scale(0.015625)"/>
       <path id="DejaVuSans-75" d="M 544 1381 
L 544 3500 
L 1119 3500 
L 1119 1403 
Q 1119 906 1312 657 
Q 1506 409 1894 409 
Q 2359 409 2629 706 
Q 2900 1003 2900 1516 
L 2900 3500 
L 3475 3500 
L 3475 0 
L 2900 0 
L 2900 538 
Q 2691 219 2414 64 
Q 2138 -91 1772 -91 
Q 1169 -91 856 284 
Q 544 659 544 1381 
z
M 1991 3584 
L 1991 3584 
z
" transform="scale(0.015625)"/>
       <path id="DejaVuSans-63" d="M 3122 3366 
L 3122 2828 
Q 2878 2963 2633 3030 
Q 2388 3097 2138 3097 
Q 1578 3097 1268 2742 
Q 959 2388 959 1747 
Q 959 1106 1268 751 
Q 1578 397 2138 397 
Q 2388 397 2633 464 
Q 2878 531 3122 666 
L 3122 134 
Q 2881 22 2623 -34 
Q 2366 -91 2075 -91 
Q 1284 -91 818 406 
Q 353 903 353 1747 
Q 353 2603 823 3093 
Q 1294 3584 2113 3584 
Q 2378 3584 2631 3529 
Q 2884 3475 3122 3366 
z
" transform="scale(0.015625)"/>
      </defs>
      <use xlink:href="#DejaVuSans-41"/>
      <use xlink:href="#DejaVuSans-75" x="68.408203"/>
      <use xlink:href="#DejaVuSans-72" x="131.787109"/>
      <use xlink:href="#DejaVuSans-6f" x="170.650391"/>
      <use xlink:href="#DejaVuSans-63" x="231.832031"/>
     </g>
    </g>
   </g>
   <g id="PolyCollection_1">
    <defs>
     <path id="m95c76a19e2" d="M 73.832727 -252.784381 
L 73.832727 -137.157373 
L 75.464157 -170.823052 
L 77.095587 -168.351428 
L 78.727017 -157.502993 
L 80.358447 -139.932532 
L 81.989877 -115.262343 
L 83.621307 -138.327067 
L 85.252736 -184.015933 
L 86.884166 -181.16073 
L 88.515596 -129.656598 
L 90.147026 -121.255038 
L 91.778456 -194.605322 
L 93.409886 -126.107004 
L 95.041316 -146.614709 
L 96.672746 -167.322576 
L 98.304175 -134.304069 
L 99.935605 -164.78382 
L 101.567035 -86.779845 
L 103.198465 -124.920683 
L 104.829895 -123.831982 
L 106.461325 -120.71771 
L 108.092755 -138.216281 
L 109.724185 -97.492036 
L 111.355614 -127.915814 
L 112.987044 -129.656585 
L 114.618474 -128.423676 
L 116.249904 -119.188367 
L 117.881334 -191.223945 
L 119.512764 -162.299422 
L 121.144194 -139.532993 
L 122.775624 -117.633268 
L 124.407053 -167.803491 
L 126.038483 -126.117833 
L 127.669913 -106.636966 
L 129.301343 -147.714577 
L 130.932773 -126.909522 
L 132.564203 -132.92538 
L 134.195633 -137.107233 
L 135.827063 -130.666914 
L 137.458492 -111.720961 
L 139.089922 -142.572826 
L 140.721352 -172.25154 
L 142.352782 -132.637679 
L 143.984212 -143.051835 
L 145.615642 -153.341796 
L 147.247072 -131.908556 
L 148.878502 -189.462162 
L 150.509931 -153.40503 
L 152.141361 -137.820429 
L 153.772791 -154.214474 
L 155.404221 -132.531993 
L 157.035651 -140.035327 
L 158.667081 -153.023282 
L 160.298511 -142.522651 
L 161.929941 -119.05264 
L 163.56137 -98.334491 
L 165.1928 -134.732028 
L 166.82423 -144.44385 
L 168.45566 -167.078734 
L 170.08709 -149.558504 
L 171.71852 -143.491118 
L 173.34995 -147.324854 
L 174.98138 -159.194986 
L 176.61281 -132.654522 
L 178.244239 -161.638773 
L 179.875669 -132.036619 
L 181.507099 -104.571673 
L 183.138529 -77.041048 
L 184.769959 -165.295193 
L 186.401389 -142.65249 
L 188.032819 -103.790458 
L 189.664249 -142.384041 
L 191.295678 -141.887268 
L 192.927108 -131.156534 
L 194.558538 -157.379106 
L 196.189968 -138.875149 
L 197.821398 -140.246453 
L 199.452828 -156.832463 
L 201.084258 -126.263462 
L 202.715688 -130.662958 
L 204.347117 -162.381494 
L 205.978547 -134.593189 
L 207.609977 -152.456826 
L 209.241407 -154.521262 
L 210.872837 -154.295213 
L 212.504267 -139.841746 
L 214.135697 -142.9503 
L 215.767127 -192.118094 
L 217.398556 -166.841054 
L 219.029986 -138.741124 
L 220.661416 -153.530991 
L 222.292846 -114.9683 
L 223.924276 -134.356686 
L 225.555706 -177.354944 
L 227.187136 -173.938161 
L 228.818566 -139.132838 
L 230.449995 -163.186497 
L 232.081425 -149.878904 
L 233.712855 -139.182283 
L 235.344285 -178.801546 
L 236.975715 -123.902483 
L 238.607145 -118.818008 
L 240.238575 -128.902048 
L 241.870005 -151.05392 
L 243.501434 -143.21998 
L 245.132864 -102.134093 
L 246.764294 -157.678826 
L 248.395724 -110.186251 
L 250.027154 -137.902287 
L 251.658584 -150.335684 
L 253.290014 -151.450005 
L 254.921444 -157.982411 
L 256.552873 -165.497046 
L 258.184303 -152.463783 
L 259.815733 -132.993612 
L 261.447163 -121.807059 
L 263.078593 -121.85382 
L 264.710023 -80.39326 
L 266.341453 -164.414951 
L 267.972883 -161.223583 
L 269.604312 -150.460117 
L 271.235742 -149.757372 
L 272.867172 -140.023368 
L 274.498602 -154.395027 
L 276.130032 -128.975452 
L 277.761462 -138.476496 
L 279.392892 -153.227445 
L 281.024322 -132.208716 
L 282.655751 -156.87677 
L 284.287181 -97.428136 
L 285.918611 -153.308477 
L 287.550041 -150.626123 
L 289.181471 -131.108334 
L 290.812901 -138.356873 
L 292.444331 -125.793982 
L 294.075761 -143.865561 
L 295.70719 -168.219156 
L 297.33862 -105.365347 
L 298.97005 -164.946687 
L 300.60148 -100.946372 
L 302.23291 -117.68775 
L 303.86434 -152.537476 
L 305.49577 -124.99074 
L 307.1272 -114.914426 
L 308.75863 -131.553573 
L 310.390059 -136.857062 
L 312.021489 -170.236267 
L 313.652919 -161.732839 
L 315.284349 -131.537156 
L 316.915779 -145.916233 
L 318.547209 -141.532235 
L 320.178639 -50.112 
L 321.810069 -174.24552 
L 323.441498 -152.300693 
L 325.072928 -110.600782 
L 326.704358 -159.330332 
L 328.335788 -102.08093 
L 329.967218 -171.863674 
L 331.598648 -144.054388 
L 333.230078 -136.761337 
L 334.861508 -153.325816 
L 336.492937 -141.464933 
L 338.124367 -148.915876 
L 339.755797 -152.443478 
L 341.387227 -143.25182 
L 343.018657 -116.473876 
L 344.650087 -145.891031 
L 346.281517 -132.279036 
L 347.912947 -148.386215 
L 349.544376 -158.303394 
L 351.175806 -160.771374 
L 352.807236 -141.195864 
L 354.438666 -91.885883 
L 356.070096 -114.237006 
L 357.701526 -102.587153 
L 359.332956 -176.474643 
L 360.964386 -138.810679 
L 362.595815 -131.459507 
L 364.227245 -163.517807 
L 365.858675 -112.06633 
L 367.490105 -123.401733 
L 369.121535 -164.254295 
L 370.752965 -156.41433 
L 372.384395 -154.391063 
L 374.015825 -165.332854 
L 375.647254 -147.02319 
L 377.278684 -137.019339 
L 378.910114 -149.837155 
L 380.541544 -148.517601 
L 382.172974 -159.203434 
L 383.804404 -141.294186 
L 385.435834 -174.759926 
L 387.067264 -133.373744 
L 388.698693 -171.886226 
L 390.330123 -132.785737 
L 391.961553 -133.509285 
L 393.592983 -166.637577 
L 395.224413 -176.947436 
L 396.855843 -138.502685 
L 398.487273 -168.941415 
L 398.487273 -222.623971 
L 398.487273 -222.623971 
L 396.855843 -224.58784 
L 395.224413 -219.317556 
L 393.592983 -214.264888 
L 391.961553 -192.569774 
L 390.330123 -231.94186 
L 388.698693 -215.067958 
L 387.067264 -202.345414 
L 385.435834 -233.404443 
L 383.804404 -207.626085 
L 382.172974 -203.763025 
L 380.541544 -236.528556 
L 378.910114 -222.750522 
L 377.278684 -190.284126 
L 375.647254 -237.813801 
L 374.015825 -210.720488 
L 372.384395 -243.310392 
L 370.752965 -243.185842 
L 369.121535 -231.532039 
L 367.490105 -222.051334 
L 365.858675 -228.479278 
L 364.227245 -213.90683 
L 362.595815 -201.847027 
L 360.964386 -258.370825 
L 359.332956 -218.607836 
L 357.701526 -216.25521 
L 356.070096 -255.467158 
L 354.438666 -214.816867 
L 352.807236 -226.76034 
L 351.175806 -231.424139 
L 349.544376 -238.682532 
L 347.912947 -217.378093 
L 346.281517 -255.897639 
L 344.650087 -229.850888 
L 343.018657 -232.669339 
L 341.387227 -238.579582 
L 339.755797 -225.892641 
L 338.124367 -224.245732 
L 336.492937 -235.916346 
L 334.861508 -242.078372 
L 333.230078 -188.087122 
L 331.598648 -267.927686 
L 329.967218 -235.164505 
L 328.335788 -216.226591 
L 326.704358 -204.879077 
L 325.072928 -217.877275 
L 323.441498 -204.522227 
L 321.810069 -216.622694 
L 320.178639 -206.550011 
L 318.547209 -228.545329 
L 316.915779 -218.547127 
L 315.284349 -245.692617 
L 313.652919 -217.207468 
L 312.021489 -222.344659 
L 310.390059 -246.495078 
L 308.75863 -253.309808 
L 307.1272 -178.347274 
L 305.49577 -238.679724 
L 303.86434 -218.58288 
L 302.23291 -238.582147 
L 300.60148 -243.607513 
L 298.97005 -237.060666 
L 297.33862 -199.45255 
L 295.70719 -220.178774 
L 294.075761 -223.059261 
L 292.444331 -205.917788 
L 290.812901 -225.121673 
L 289.181471 -224.896427 
L 287.550041 -209.604315 
L 285.918611 -219.951633 
L 284.287181 -238.765288 
L 282.655751 -198.807708 
L 281.024322 -239.39867 
L 279.392892 -238.506153 
L 277.761462 -182.715338 
L 276.130032 -224.452902 
L 274.498602 -243.271818 
L 272.867172 -228.290769 
L 271.235742 -214.947776 
L 269.604312 -229.802385 
L 267.972883 -221.021948 
L 266.341453 -241.725096 
L 264.710023 -244.705359 
L 263.078593 -215.192225 
L 261.447163 -238.018597 
L 259.815733 -243.168967 
L 258.184303 -218.609087 
L 256.552873 -227.550375 
L 254.921444 -215.447526 
L 253.290014 -253.265216 
L 251.658584 -229.502403 
L 250.027154 -172.747351 
L 248.395724 -235.872581 
L 246.764294 -223.043114 
L 245.132864 -229.322086 
L 243.501434 -229.267956 
L 241.870005 -220.751446 
L 240.238575 -235.851225 
L 238.607145 -250.291954 
L 236.975715 -204.949011 
L 235.344285 -234.73002 
L 233.712855 -202.270753 
L 232.081425 -229.879301 
L 230.449995 -249.284858 
L 228.818566 -242.866476 
L 227.187136 -215.133104 
L 225.555706 -242.308262 
L 223.924276 -243.829991 
L 222.292846 -197.102373 
L 220.661416 -247.870748 
L 219.029986 -243.197114 
L 217.398556 -205.681567 
L 215.767127 -247.413432 
L 214.135697 -263.149393 
L 212.504267 -241.831204 
L 210.872837 -219.140429 
L 209.241407 -256.605864 
L 207.609977 -217.312093 
L 205.978547 -251.00464 
L 204.347117 -240.18196 
L 202.715688 -257.066517 
L 201.084258 -195.063925 
L 199.452828 -202.689841 
L 197.821398 -240.842994 
L 196.189968 -217.007196 
L 194.558538 -270.375833 
L 192.927108 -279.003703 
L 191.295678 -206.635091 
L 189.664249 -219.542967 
L 188.032819 -214.563924 
L 186.401389 -223.48334 
L 184.769959 -234.569665 
L 183.138529 -230.424942 
L 181.507099 -246.983315 
L 179.875669 -221.67245 
L 178.244239 -233.850327 
L 176.61281 -191.670683 
L 174.98138 -218.052806 
L 173.34995 -226.199831 
L 171.71852 -218.003404 
L 170.08709 -232.492801 
L 168.45566 -236.025693 
L 166.82423 -226.461108 
L 165.1928 -232.338521 
L 163.56137 -204.879369 
L 161.929941 -221.48426 
L 160.298511 -227.965513 
L 158.667081 -279.921483 
L 157.035651 -236.459246 
L 155.404221 -238.042022 
L 153.772791 -245.709283 
L 152.141361 -221.4721 
L 150.509931 -243.898025 
L 148.878502 -216.400322 
L 147.247072 -191.438611 
L 145.615642 -202.413593 
L 143.984212 -203.401906 
L 142.352782 -206.658447 
L 140.721352 -279.358048 
L 139.089922 -229.294817 
L 137.458492 -235.689108 
L 135.827063 -226.34599 
L 134.195633 -235.489941 
L 132.564203 -263.895713 
L 130.932773 -260.948898 
L 129.301343 -237.086902 
L 127.669913 -238.387406 
L 126.038483 -226.232103 
L 124.407053 -223.748756 
L 122.775624 -217.996848 
L 121.144194 -235.999647 
L 119.512764 -238.939586 
L 117.881334 -260.145994 
L 116.249904 -193.681434 
L 114.618474 -217.450802 
L 112.987044 -169.210084 
L 111.355614 -214.65941 
L 109.724185 -246.279026 
L 108.092755 -218.74009 
L 106.461325 -242.228779 
L 104.829895 -225.310632 
L 103.198465 -232.304129 
L 101.567035 -211.512892 
L 99.935605 -212.762781 
L 98.304175 -243.207758 
L 96.672746 -239.954674 
L 95.041316 -209.325672 
L 93.409886 -221.399665 
L 91.778456 -277.127962 
L 90.147026 -292.032 
L 88.515596 -235.271644 
L 86.884166 -244.891482 
L 85.252736 -219.627815 
L 83.621307 -220.623332 
L 81.989877 -212.23242 
L 80.358447 -225.667055 
L 78.727017 -248.792502 
L 77.095587 -258.160561 
L 75.464157 -194.500699 
L 73.832727 -252.784381 
z
" style="stroke: #ffffff; stroke-opacity: 0.2"/>
    </defs>
    <g clip-path="url(#pc43a574a08)">
     <use xlink:href="#m95c76a19e2" x="0" y="345.6" style="fill: #1f77b4; fill-opacity: 0.2; stroke: #ffffff; stroke-opacity: 0.2"/>
    </g>
   </g>
   <g id="line2d_14">
    <path d="M 73.832727 150.629123 
L 75.464157 162.938124 
L 77.095587 132.344006 
L 78.727017 142.452252 
L 81.989877 181.852618 
L 83.621307 166.1248 
L 85.252736 143.778126 
L 86.884166 132.573894 
L 88.515596 163.135879 
L 90.147026 138.956481 
L 91.778456 109.733358 
L 93.409886 171.846665 
L 95.041316 167.62981 
L 96.672746 141.961375 
L 98.304175 156.844086 
L 99.935605 156.8267 
L 101.567035 196.453631 
L 103.198465 166.987594 
L 104.829895 171.028693 
L 106.461325 164.126756 
L 108.092755 167.121815 
L 109.724185 173.714469 
L 111.355614 174.312388 
L 112.987044 196.166665 
L 114.618474 172.662761 
L 116.249904 189.1651 
L 117.881334 119.91503 
L 119.512764 144.980496 
L 121.144194 157.83368 
L 122.775624 177.784942 
L 124.407053 149.823876 
L 126.038483 169.425032 
L 127.669913 173.087814 
L 129.301343 153.19926 
L 130.932773 151.67079 
L 132.564203 147.189454 
L 134.195633 159.301413 
L 135.827063 167.093548 
L 137.458492 171.894965 
L 139.089922 159.666179 
L 140.721352 119.795206 
L 142.352782 175.951937 
L 143.984212 172.373129 
L 145.615642 167.722305 
L 147.247072 183.926417 
L 148.878502 142.668758 
L 150.509931 146.948473 
L 152.141361 165.953736 
L 153.772791 145.638121 
L 155.404221 160.312992 
L 157.035651 157.352713 
L 158.667081 129.127618 
L 160.298511 160.355918 
L 161.929941 175.33155 
L 163.56137 193.99307 
L 165.1928 162.064726 
L 166.82423 160.147521 
L 168.45566 144.047786 
L 171.71852 164.852739 
L 173.34995 158.837658 
L 174.98138 156.976104 
L 176.61281 183.437398 
L 178.244239 147.85545 
L 179.875669 168.745465 
L 181.507099 169.822506 
L 183.138529 191.867005 
L 184.769959 145.667571 
L 186.401389 162.532085 
L 188.032819 186.422809 
L 189.664249 164.636496 
L 191.295678 171.338821 
L 192.927108 140.519882 
L 194.558538 131.722531 
L 196.189968 167.658827 
L 197.821398 155.055277 
L 199.452828 165.838848 
L 201.084258 184.936307 
L 202.715688 151.735263 
L 204.347117 144.318273 
L 207.609977 160.715541 
L 209.241407 140.036437 
L 210.872837 158.882179 
L 212.504267 154.763525 
L 214.135697 142.550154 
L 215.767127 125.834237 
L 217.398556 159.338689 
L 219.029986 154.630881 
L 220.661416 144.899131 
L 222.292846 189.564664 
L 223.924276 156.506662 
L 225.555706 135.768397 
L 227.187136 151.064368 
L 228.818566 154.600343 
L 230.449995 139.364322 
L 232.081425 155.720898 
L 233.712855 174.873482 
L 235.344285 138.834217 
L 236.975715 181.174253 
L 238.607145 161.045019 
L 240.238575 163.223363 
L 241.870005 159.697317 
L 243.501434 159.356032 
L 245.132864 179.87191 
L 246.764294 155.23903 
L 250.027154 190.275181 
L 251.658584 155.680956 
L 253.290014 143.24239 
L 254.921444 158.885032 
L 256.552873 149.076289 
L 258.184303 160.063565 
L 259.815733 157.51871 
L 261.447163 165.687172 
L 263.078593 177.076977 
L 264.710023 183.050691 
L 266.341453 142.529977 
L 267.972883 154.477234 
L 269.604312 155.468749 
L 271.235742 163.247426 
L 272.867172 161.442932 
L 274.498602 146.766578 
L 276.130032 168.885823 
L 277.761462 185.004083 
L 279.392892 149.733201 
L 281.024322 159.796307 
L 282.655751 167.757761 
L 284.287181 177.503288 
L 285.918611 158.969945 
L 287.550041 165.484781 
L 289.181471 167.59762 
L 290.812901 163.860727 
L 292.444331 179.744115 
L 294.075761 162.137589 
L 295.70719 151.401035 
L 297.33862 193.191052 
L 298.97005 144.596323 
L 300.60148 173.323057 
L 302.23291 167.465051 
L 303.86434 160.039822 
L 305.49577 163.764768 
L 307.1272 198.96915 
L 308.75863 153.16831 
L 310.390059 153.92393 
L 312.021489 149.309537 
L 313.652919 156.129846 
L 315.284349 156.985114 
L 316.915779 163.36832 
L 318.547209 160.561218 
L 320.178639 217.268995 
L 321.810069 150.165893 
L 323.441498 167.18854 
L 325.072928 181.360972 
L 326.704358 163.495295 
L 328.335788 186.446239 
L 329.967218 142.08591 
L 331.598648 139.608963 
L 333.230078 183.17577 
L 334.861508 147.897906 
L 336.492937 156.90936 
L 338.124367 159.019196 
L 339.755797 156.431941 
L 341.387227 154.684299 
L 343.018657 171.028393 
L 344.650087 157.729041 
L 346.281517 151.511662 
L 347.912947 162.717846 
L 349.544376 147.107037 
L 351.175806 149.502243 
L 352.807236 161.621898 
L 354.438666 192.248625 
L 356.070096 160.747918 
L 357.701526 186.178819 
L 359.332956 148.05876 
L 360.964386 147.009248 
L 362.595815 178.946733 
L 364.227245 156.887681 
L 365.858675 175.327196 
L 367.490105 172.873467 
L 369.121535 147.706833 
L 370.752965 145.799914 
L 372.384395 146.749273 
L 374.015825 157.573329 
L 375.647254 153.181505 
L 377.278684 181.948267 
L 378.910114 159.306162 
L 380.541544 153.076921 
L 382.172974 164.11677 
L 383.804404 171.139864 
L 385.435834 141.517816 
L 387.067264 177.740421 
L 388.698693 152.122908 
L 390.330123 163.236202 
L 391.961553 182.56047 
L 393.592983 155.148768 
L 395.224413 147.467504 
L 396.855843 164.054737 
L 398.487273 149.817307 
L 398.487273 149.817307 
" clip-path="url(#pc43a574a08)" style="fill: none; stroke: #1f77b4; stroke-width: 1.5; stroke-linecap: round"/>
   </g>
   <g id="LineCollection_1">
    <path d="M 398.487273 295.488 
L 398.487273 53.568 
" clip-path="url(#pc43a574a08)" style="fill: none; stroke-dasharray: 5.55,2.4; stroke-dashoffset: 0; stroke: #1f77b4; stroke-width: 1.5"/>
   </g>
   <g id="patch_3">
    <path d="M 57.6 307.584 
L 57.6 41.472 
" style="fill: none; stroke: #cccccc; stroke-width: 0.8; stroke-linejoin: miter; stroke-linecap: square"/>
   </g>
   <g id="patch_4">
    <path d="M 414.72 307.584 
L 414.72 41.472 
" style="fill: none; stroke: #cccccc; stroke-width: 0.8; stroke-linejoin: miter; stroke-linecap: square"/>
   </g>
   <g id="patch_5">
    <path d="M 57.6 307.584 
L 414.72 307.584 
" style="fill: none; stroke: #cccccc; stroke-width: 0.8; stroke-linejoin: miter; stroke-linecap: square"/>
   </g>
   <g id="patch_6">
    <path d="M 57.6 41.472 
L 414.72 41.472 
" style="fill: none; stroke: #cccccc; stroke-width: 0.8; stroke-linejoin: miter; stroke-linecap: square"/>
   </g>
   <g id="text_16">
    <!-- Model performance vs. # of iterations -->
    <g style="fill: #262626" transform="translate(122.314688 35.472)scale(0.12 -0.12)">
     <defs>
      <path id="DejaVuSans-4d" d="M 628 4666 
L 1569 4666 
L 2759 1491 
L 3956 4666 
L 4897 4666 
L 4897 0 
L 4281 0 
L 4281 4097 
L 3078 897 
L 2444 897 
L 1241 4097 
L 1241 0 
L 628 0 
L 628 4666 
z
" transform="scale(0.015625)"/>
      <path id="DejaVuSans-64" d="M 2906 2969 
L 2906 4863 
L 3481 4863 
L 3481 0 
L 2906 0 
L 2906 525 
Q 2725 213 2448 61 
Q 2172 -91 1784 -91 
Q 1150 -91 751 415 
Q 353 922 353 1747 
Q 353 2572 751 3078 
Q 1150 3584 1784 3584 
Q 2172 3584 2448 3432 
Q 2725 3281 2906 2969 
z
M 947 1747 
Q 947 1113 1208 752 
Q 1469 391 1925 391 
Q 2381 391 2643 752 
Q 2906 1113 2906 1747 
Q 2906 2381 2643 2742 
Q 2381 3103 1925 3103 
Q 1469 3103 1208 2742 
Q 947 2381 947 1747 
z
" transform="scale(0.015625)"/>
      <path id="DejaVuSans-6c" d="M 603 4863 
L 1178 4863 
L 1178 0 
L 603 0 
L 603 4863 
z
" transform="scale(0.015625)"/>
      <path id="DejaVuSans-20" transform="scale(0.015625)"/>
      <path id="DejaVuSans-70" d="M 1159 525 
L 1159 -1331 
L 581 -1331 
L 581 3500 
L 1159 3500 
L 1159 2969 
Q 1341 3281 1617 3432 
Q 1894 3584 2278 3584 
Q 2916 3584 3314 3078 
Q 3713 2572 3713 1747 
Q 3713 922 3314 415 
Q 2916 -91 2278 -91 
Q 1894 -91 1617 61 
Q 1341 213 1159 525 
z
M 3116 1747 
Q 3116 2381 2855 2742 
Q 2594 3103 2138 3103 
Q 1681 3103 1420 2742 
Q 1159 2381 1159 1747 
Q 1159 1113 1420 752 
Q 1681 391 2138 391 
Q 2594 391 2855 752 
Q 3116 1113 3116 1747 
z
" transform="scale(0.015625)"/>
      <path id="DejaVuSans-66" d="M 2375 4863 
L 2375 4384 
L 1825 4384 
Q 1516 4384 1395 4259 
Q 1275 4134 1275 3809 
L 1275 3500 
L 2222 3500 
L 2222 3053 
L 1275 3053 
L 1275 0 
L 697 0 
L 697 3053 
L 147 3053 
L 147 3500 
L 697 3500 
L 697 3744 
Q 697 4328 969 4595 
Q 1241 4863 1831 4863 
L 2375 4863 
z
" transform="scale(0.015625)"/>
      <path id="DejaVuSans-6d" d="M 3328 2828 
Q 3544 3216 3844 3400 
Q 4144 3584 4550 3584 
Q 5097 3584 5394 3201 
Q 5691 2819 5691 2113 
L 5691 0 
L 5113 0 
L 5113 2094 
Q 5113 2597 4934 2840 
Q 4756 3084 4391 3084 
Q 3944 3084 3684 2787 
Q 3425 2491 3425 1978 
L 3425 0 
L 2847 0 
L 2847 2094 
Q 2847 2600 2669 2842 
Q 2491 3084 2119 3084 
Q 1678 3084 1418 2786 
Q 1159 2488 1159 1978 
L 1159 0 
L 581 0 
L 581 3500 
L 1159 3500 
L 1159 2956 
Q 1356 3278 1631 3431 
Q 1906 3584 2284 3584 
Q 2666 3584 2933 3390 
Q 3200 3197 3328 2828 
z
" transform="scale(0.015625)"/>
      <path id="DejaVuSans-76" d="M 191 3500 
L 800 3500 
L 1894 563 
L 2988 3500 
L 3597 3500 
L 2284 0 
L 1503 0 
L 191 3500 
z
" transform="scale(0.015625)"/>
      <path id="DejaVuSans-73" d="M 2834 3397 
L 2834 2853 
Q 2591 2978 2328 3040 
Q 2066 3103 1784 3103 
Q 1356 3103 1142 2972 
Q 928 2841 928 2578 
Q 928 2378 1081 2264 
Q 1234 2150 1697 2047 
L 1894 2003 
Q 2506 1872 2764 1633 
Q 3022 1394 3022 966 
Q 3022 478 2636 193 
Q 2250 -91 1575 -91 
Q 1294 -91 989 -36 
Q 684 19 347 128 
L 347 722 
Q 666 556 975 473 
Q 1284 391 1588 391 
Q 1994 391 2212 530 
Q 2431 669 2431 922 
Q 2431 1156 2273 1281 
Q 2116 1406 1581 1522 
L 1381 1569 
Q 847 1681 609 1914 
Q 372 2147 372 2553 
Q 372 3047 722 3315 
Q 1072 3584 1716 3584 
Q 2034 3584 2315 3537 
Q 2597 3491 2834 3397 
z
" transform="scale(0.015625)"/>
      <path id="DejaVuSans-23" d="M 3272 2816 
L 2363 2816 
L 2100 1772 
L 3016 1772 
L 3272 2816 
z
M 2803 4594 
L 2478 3297 
L 3391 3297 
L 3719 4594 
L 4219 4594 
L 3897 3297 
L 4872 3297 
L 4872 2816 
L 3775 2816 
L 3519 1772 
L 4513 1772 
L 4513 1294 
L 3397 1294 
L 3072 0 
L 2572 0 
L 2894 1294 
L 1978 1294 
L 1656 0 
L 1153 0 
L 1478 1294 
L 494 1294 
L 494 1772 
L 1594 1772 
L 1856 2816 
L 850 2816 
L 850 3297 
L 1978 3297 
L 2297 4594 
L 2803 4594 
z
" transform="scale(0.015625)"/>
     </defs>
     <use xlink:href="#DejaVuSans-4d"/>
     <use xlink:href="#DejaVuSans-6f" x="86.279297"/>
     <use xlink:href="#DejaVuSans-64" x="147.460938"/>
     <use xlink:href="#DejaVuSans-65" x="210.9375"/>
     <use xlink:href="#DejaVuSans-6c" x="272.460938"/>
     <use xlink:href="#DejaVuSans-20" x="300.244141"/>
     <use xlink:href="#DejaVuSans-70" x="332.03125"/>
     <use xlink:href="#DejaVuSans-65" x="395.507812"/>
     <use xlink:href="#DejaVuSans-72" x="457.03125"/>
     <use xlink:href="#DejaVuSans-66" x="498.144531"/>
     <use xlink:href="#DejaVuSans-6f" x="533.349609"/>
     <use xlink:href="#DejaVuSans-72" x="594.53125"/>
     <use xlink:href="#DejaVuSans-6d" x="633.894531"/>
     <use xlink:href="#DejaVuSans-61" x="731.306641"/>
     <use xlink:href="#DejaVuSans-6e" x="792.585938"/>
     <use xlink:href="#DejaVuSans-63" x="855.964844"/>
     <use xlink:href="#DejaVuSans-65" x="910.945312"/>
     <use xlink:href="#DejaVuSans-20" x="972.46875"/>
     <use xlink:href="#DejaVuSans-76" x="1004.255859"/>
     <use xlink:href="#DejaVuSans-73" x="1063.435547"/>
     <use xlink:href="#DejaVuSans-2e" x="1115.535156"/>
     <use xlink:href="#DejaVuSans-20" x="1147.322266"/>
     <use xlink:href="#DejaVuSans-23" x="1179.109375"/>
     <use xlink:href="#DejaVuSans-20" x="1262.898438"/>
     <use xlink:href="#DejaVuSans-6f" x="1294.685547"/>
     <use xlink:href="#DejaVuSans-66" x="1355.867188"/>
     <use xlink:href="#DejaVuSans-20" x="1391.072266"/>
     <use xlink:href="#DejaVuSans-69" x="1422.859375"/>
     <use xlink:href="#DejaVuSans-74" x="1450.642578"/>
     <use xlink:href="#DejaVuSans-65" x="1489.851562"/>
     <use xlink:href="#DejaVuSans-72" x="1551.375"/>
     <use xlink:href="#DejaVuSans-61" x="1592.488281"/>
     <use xlink:href="#DejaVuSans-74" x="1653.767578"/>
     <use xlink:href="#DejaVuSans-69" x="1692.976562"/>
     <use xlink:href="#DejaVuSans-6f" x="1720.759766"/>
     <use xlink:href="#DejaVuSans-6e" x="1781.941406"/>
     <use xlink:href="#DejaVuSans-73" x="1845.320312"/>
    </g>
   </g>
  </g>
 </g>
 <defs>
  <clipPath id="pc43a574a08">
   <rect x="57.6" y="41.472" width="357.12" height="266.112"/>
  </clipPath>
 </defs>
</svg>
