<?xml version="1.0" encoding="utf-8" standalone="no"?>
<!DOCTYPE svg PUBLIC "-//W3C//DTD SVG 1.1//EN"
  "http://www.w3.org/Graphics/SVG/1.1/DTD/svg11.dtd">
<svg xmlns:xlink="http://www.w3.org/1999/xlink" width="460.8pt" height="345.6pt" viewBox="0 0 460.8 345.6" xmlns="http://www.w3.org/2000/svg" version="1.1">
 <metadata>
  <rdf:RDF xmlns:dc="http://purl.org/dc/elements/1.1/" xmlns:cc="http://creativecommons.org/ns#" xmlns:rdf="http://www.w3.org/1999/02/22-rdf-syntax-ns#">
   <cc:Work>
    <dc:type rdf:resource="http://purl.org/dc/dcmitype/StillImage"/>
    <dc:date>2022-10-30T12:07:26.883550</dc:date>
    <dc:format>image/svg+xml</dc:format>
    <dc:creator>
     <cc:Agent>
      <dc:title>Matplotlib v3.5.2, https://matplotlib.org/</dc:title>
     </cc:Agent>
    </dc:creator>
   </cc:Work>
  </rdf:RDF>
 </metadata>
 <defs>
  <style type="text/css">*{stroke-linejoin: round; stroke-linecap: butt}</style>
 </defs>
 <g id="figure_1">
  <g id="patch_1">
   <path d="M 0 345.6 
L 460.8 345.6 
L 460.8 0 
L 0 0 
z
" style="fill: #ffffff"/>
  </g>
  <g id="axes_1">
   <g id="patch_2">
    <path d="M 57.6 307.584 
L 414.72 307.584 
L 414.72 41.472 
L 57.6 41.472 
z
" style="fill: #ffffff"/>
   </g>
   <g id="matplotlib.axis_1">
    <g id="xtick_1">
     <g id="line2d_1">
      <path d="M 72.201297 307.584 
L 72.201297 41.472 
" clip-path="url(#p7ba3a08345)" style="fill: none; stroke: #cccccc; stroke-width: 0.8; stroke-linecap: round"/>
     </g>
     <g id="text_1">
      <!-- 0 -->
      <g style="fill: #262626" transform="translate(69.020047 322.182437)scale(0.1 -0.1)">
       <defs>
        <path id="DejaVuSans-30" d="M 2034 4250 
Q 1547 4250 1301 3770 
Q 1056 3291 1056 2328 
Q 1056 1369 1301 889 
Q 1547 409 2034 409 
Q 2525 409 2770 889 
Q 3016 1369 3016 2328 
Q 3016 3291 2770 3770 
Q 2525 4250 2034 4250 
z
M 2034 4750 
Q 2819 4750 3233 4129 
Q 3647 3509 3647 2328 
Q 3647 1150 3233 529 
Q 2819 -91 2034 -91 
Q 1250 -91 836 529 
Q 422 1150 422 2328 
Q 422 3509 836 4129 
Q 1250 4750 2034 4750 
z
" transform="scale(0.015625)"/>
       </defs>
       <use xlink:href="#DejaVuSans-30"/>
      </g>
     </g>
    </g>
    <g id="xtick_2">
     <g id="line2d_2">
      <path d="M 112.987044 307.584 
L 112.987044 41.472 
" clip-path="url(#p7ba3a08345)" style="fill: none; stroke: #cccccc; stroke-width: 0.8; stroke-linecap: round"/>
     </g>
     <g id="text_2">
      <!-- 25 -->
      <g style="fill: #262626" transform="translate(106.624544 322.182437)scale(0.1 -0.1)">
       <defs>
        <path id="DejaVuSans-32" d="M 1228 531 
L 3431 531 
L 3431 0 
L 469 0 
L 469 531 
Q 828 903 1448 1529 
Q 2069 2156 2228 2338 
Q 2531 2678 2651 2914 
Q 2772 3150 2772 3378 
Q 2772 3750 2511 3984 
Q 2250 4219 1831 4219 
Q 1534 4219 1204 4116 
Q 875 4013 500 3803 
L 500 4441 
Q 881 4594 1212 4672 
Q 1544 4750 1819 4750 
Q 2544 4750 2975 4387 
Q 3406 4025 3406 3419 
Q 3406 3131 3298 2873 
Q 3191 2616 2906 2266 
Q 2828 2175 2409 1742 
Q 1991 1309 1228 531 
z
" transform="scale(0.015625)"/>
        <path id="DejaVuSans-35" d="M 691 4666 
L 3169 4666 
L 3169 4134 
L 1269 4134 
L 1269 2991 
Q 1406 3038 1543 3061 
Q 1681 3084 1819 3084 
Q 2600 3084 3056 2656 
Q 3513 2228 3513 1497 
Q 3513 744 3044 326 
Q 2575 -91 1722 -91 
Q 1428 -91 1123 -41 
Q 819 9 494 109 
L 494 744 
Q 775 591 1075 516 
Q 1375 441 1709 441 
Q 2250 441 2565 725 
Q 2881 1009 2881 1497 
Q 2881 1984 2565 2268 
Q 2250 2553 1709 2553 
Q 1456 2553 1204 2497 
Q 953 2441 691 2322 
L 691 4666 
z
" transform="scale(0.015625)"/>
       </defs>
       <use xlink:href="#DejaVuSans-32"/>
       <use xlink:href="#DejaVuSans-35" x="63.623047"/>
      </g>
     </g>
    </g>
    <g id="xtick_3">
     <g id="line2d_3">
      <path d="M 153.772791 307.584 
L 153.772791 41.472 
" clip-path="url(#p7ba3a08345)" style="fill: none; stroke: #cccccc; stroke-width: 0.8; stroke-linecap: round"/>
     </g>
     <g id="text_3">
      <!-- 50 -->
      <g style="fill: #262626" transform="translate(147.410291 322.182437)scale(0.1 -0.1)">
       <use xlink:href="#DejaVuSans-35"/>
       <use xlink:href="#DejaVuSans-30" x="63.623047"/>
      </g>
     </g>
    </g>
    <g id="xtick_4">
     <g id="line2d_4">
      <path d="M 194.558538 307.584 
L 194.558538 41.472 
" clip-path="url(#p7ba3a08345)" style="fill: none; stroke: #cccccc; stroke-width: 0.8; stroke-linecap: round"/>
     </g>
     <g id="text_4">
      <!-- 75 -->
      <g style="fill: #262626" transform="translate(188.196038 322.182437)scale(0.1 -0.1)">
       <defs>
        <path id="DejaVuSans-37" d="M 525 4666 
L 3525 4666 
L 3525 4397 
L 1831 0 
L 1172 0 
L 2766 4134 
L 525 4134 
L 525 4666 
z
" transform="scale(0.015625)"/>
       </defs>
       <use xlink:href="#DejaVuSans-37"/>
       <use xlink:href="#DejaVuSans-35" x="63.623047"/>
      </g>
     </g>
    </g>
    <g id="xtick_5">
     <g id="line2d_5">
      <path d="M 235.344285 307.584 
L 235.344285 41.472 
" clip-path="url(#p7ba3a08345)" style="fill: none; stroke: #cccccc; stroke-width: 0.8; stroke-linecap: round"/>
     </g>
     <g id="text_5">
      <!-- 100 -->
      <g style="fill: #262626" transform="translate(225.800535 322.182437)scale(0.1 -0.1)">
       <defs>
        <path id="DejaVuSans-31" d="M 794 531 
L 1825 531 
L 1825 4091 
L 703 3866 
L 703 4441 
L 1819 4666 
L 2450 4666 
L 2450 531 
L 3481 531 
L 3481 0 
L 794 0 
L 794 531 
z
" transform="scale(0.015625)"/>
       </defs>
       <use xlink:href="#DejaVuSans-31"/>
       <use xlink:href="#DejaVuSans-30" x="63.623047"/>
       <use xlink:href="#DejaVuSans-30" x="127.246094"/>
      </g>
     </g>
    </g>
    <g id="xtick_6">
     <g id="line2d_6">
      <path d="M 276.130032 307.584 
L 276.130032 41.472 
" clip-path="url(#p7ba3a08345)" style="fill: none; stroke: #cccccc; stroke-width: 0.8; stroke-linecap: round"/>
     </g>
     <g id="text_6">
      <!-- 125 -->
      <g style="fill: #262626" transform="translate(266.586282 322.182437)scale(0.1 -0.1)">
       <use xlink:href="#DejaVuSans-31"/>
       <use xlink:href="#DejaVuSans-32" x="63.623047"/>
       <use xlink:href="#DejaVuSans-35" x="127.246094"/>
      </g>
     </g>
    </g>
    <g id="xtick_7">
     <g id="line2d_7">
      <path d="M 316.915779 307.584 
L 316.915779 41.472 
" clip-path="url(#p7ba3a08345)" style="fill: none; stroke: #cccccc; stroke-width: 0.8; stroke-linecap: round"/>
     </g>
     <g id="text_7">
      <!-- 150 -->
      <g style="fill: #262626" transform="translate(307.372029 322.182437)scale(0.1 -0.1)">
       <use xlink:href="#DejaVuSans-31"/>
       <use xlink:href="#DejaVuSans-35" x="63.623047"/>
       <use xlink:href="#DejaVuSans-30" x="127.246094"/>
      </g>
     </g>
    </g>
    <g id="xtick_8">
     <g id="line2d_8">
      <path d="M 357.701526 307.584 
L 357.701526 41.472 
" clip-path="url(#p7ba3a08345)" style="fill: none; stroke: #cccccc; stroke-width: 0.8; stroke-linecap: round"/>
     </g>
     <g id="text_8">
      <!-- 175 -->
      <g style="fill: #262626" transform="translate(348.157776 322.182437)scale(0.1 -0.1)">
       <use xlink:href="#DejaVuSans-31"/>
       <use xlink:href="#DejaVuSans-37" x="63.623047"/>
       <use xlink:href="#DejaVuSans-35" x="127.246094"/>
      </g>
     </g>
    </g>
    <g id="xtick_9">
     <g id="line2d_9">
      <path d="M 398.487273 307.584 
L 398.487273 41.472 
" clip-path="url(#p7ba3a08345)" style="fill: none; stroke: #cccccc; stroke-width: 0.8; stroke-linecap: round"/>
     </g>
     <g id="text_9">
      <!-- 200 -->
      <g style="fill: #262626" transform="translate(388.943523 322.182437)scale(0.1 -0.1)">
       <use xlink:href="#DejaVuSans-32"/>
       <use xlink:href="#DejaVuSans-30" x="63.623047"/>
       <use xlink:href="#DejaVuSans-30" x="127.246094"/>
      </g>
     </g>
    </g>
    <g id="text_10">
     <!-- Iteration -->
     <g style="fill: #262626" transform="translate(214.951406 335.860562)scale(0.1 -0.1)">
      <defs>
       <path id="DejaVuSans-49" d="M 628 4666 
L 1259 4666 
L 1259 0 
L 628 0 
L 628 4666 
z
" transform="scale(0.015625)"/>
       <path id="DejaVuSans-74" d="M 1172 4494 
L 1172 3500 
L 2356 3500 
L 2356 3053 
L 1172 3053 
L 1172 1153 
Q 1172 725 1289 603 
Q 1406 481 1766 481 
L 2356 481 
L 2356 0 
L 1766 0 
Q 1100 0 847 248 
Q 594 497 594 1153 
L 594 3053 
L 172 3053 
L 172 3500 
L 594 3500 
L 594 4494 
L 1172 4494 
z
" transform="scale(0.015625)"/>
       <path id="DejaVuSans-65" d="M 3597 1894 
L 3597 1613 
L 953 1613 
Q 991 1019 1311 708 
Q 1631 397 2203 397 
Q 2534 397 2845 478 
Q 3156 559 3463 722 
L 3463 178 
Q 3153 47 2828 -22 
Q 2503 -91 2169 -91 
Q 1331 -91 842 396 
Q 353 884 353 1716 
Q 353 2575 817 3079 
Q 1281 3584 2069 3584 
Q 2775 3584 3186 3129 
Q 3597 2675 3597 1894 
z
M 3022 2063 
Q 3016 2534 2758 2815 
Q 2500 3097 2075 3097 
Q 1594 3097 1305 2825 
Q 1016 2553 972 2059 
L 3022 2063 
z
" transform="scale(0.015625)"/>
       <path id="DejaVuSans-72" d="M 2631 2963 
Q 2534 3019 2420 3045 
Q 2306 3072 2169 3072 
Q 1681 3072 1420 2755 
Q 1159 2438 1159 1844 
L 1159 0 
L 581 0 
L 581 3500 
L 1159 3500 
L 1159 2956 
Q 1341 3275 1631 3429 
Q 1922 3584 2338 3584 
Q 2397 3584 2469 3576 
Q 2541 3569 2628 3553 
L 2631 2963 
z
" transform="scale(0.015625)"/>
       <path id="DejaVuSans-61" d="M 2194 1759 
Q 1497 1759 1228 1600 
Q 959 1441 959 1056 
Q 959 750 1161 570 
Q 1363 391 1709 391 
Q 2188 391 2477 730 
Q 2766 1069 2766 1631 
L 2766 1759 
L 2194 1759 
z
M 3341 1997 
L 3341 0 
L 2766 0 
L 2766 531 
Q 2569 213 2275 61 
Q 1981 -91 1556 -91 
Q 1019 -91 701 211 
Q 384 513 384 1019 
Q 384 1609 779 1909 
Q 1175 2209 1959 2209 
L 2766 2209 
L 2766 2266 
Q 2766 2663 2505 2880 
Q 2244 3097 1772 3097 
Q 1472 3097 1187 3025 
Q 903 2953 641 2809 
L 641 3341 
Q 956 3463 1253 3523 
Q 1550 3584 1831 3584 
Q 2591 3584 2966 3190 
Q 3341 2797 3341 1997 
z
" transform="scale(0.015625)"/>
       <path id="DejaVuSans-69" d="M 603 3500 
L 1178 3500 
L 1178 0 
L 603 0 
L 603 3500 
z
M 603 4863 
L 1178 4863 
L 1178 4134 
L 603 4134 
L 603 4863 
z
" transform="scale(0.015625)"/>
       <path id="DejaVuSans-6f" d="M 1959 3097 
Q 1497 3097 1228 2736 
Q 959 2375 959 1747 
Q 959 1119 1226 758 
Q 1494 397 1959 397 
Q 2419 397 2687 759 
Q 2956 1122 2956 1747 
Q 2956 2369 2687 2733 
Q 2419 3097 1959 3097 
z
M 1959 3584 
Q 2709 3584 3137 3096 
Q 3566 2609 3566 1747 
Q 3566 888 3137 398 
Q 2709 -91 1959 -91 
Q 1206 -91 779 398 
Q 353 888 353 1747 
Q 353 2609 779 3096 
Q 1206 3584 1959 3584 
z
" transform="scale(0.015625)"/>
       <path id="DejaVuSans-6e" d="M 3513 2113 
L 3513 0 
L 2938 0 
L 2938 2094 
Q 2938 2591 2744 2837 
Q 2550 3084 2163 3084 
Q 1697 3084 1428 2787 
Q 1159 2491 1159 1978 
L 1159 0 
L 581 0 
L 581 3500 
L 1159 3500 
L 1159 2956 
Q 1366 3272 1645 3428 
Q 1925 3584 2291 3584 
Q 2894 3584 3203 3211 
Q 3513 2838 3513 2113 
z
" transform="scale(0.015625)"/>
      </defs>
      <use xlink:href="#DejaVuSans-49"/>
      <use xlink:href="#DejaVuSans-74" x="29.492188"/>
      <use xlink:href="#DejaVuSans-65" x="68.701172"/>
      <use xlink:href="#DejaVuSans-72" x="130.224609"/>
      <use xlink:href="#DejaVuSans-61" x="171.337891"/>
      <use xlink:href="#DejaVuSans-74" x="232.617188"/>
      <use xlink:href="#DejaVuSans-69" x="271.826172"/>
      <use xlink:href="#DejaVuSans-6f" x="299.609375"/>
      <use xlink:href="#DejaVuSans-6e" x="360.791016"/>
     </g>
    </g>
   </g>
   <g id="matplotlib.axis_2">
    <g id="ytick_1">
     <g id="line2d_10">
      <path d="M 57.6 282.002466 
L 414.72 282.002466 
" clip-path="url(#p7ba3a08345)" style="fill: none; stroke: #cccccc; stroke-width: 0.8; stroke-linecap: round"/>
     </g>
     <g id="text_11">
      <!-- 0.58 -->
      <g style="fill: #262626" transform="translate(28.334375 285.801685)scale(0.1 -0.1)">
       <defs>
        <path id="DejaVuSans-2e" d="M 684 794 
L 1344 794 
L 1344 0 
L 684 0 
L 684 794 
z
" transform="scale(0.015625)"/>
        <path id="DejaVuSans-38" d="M 2034 2216 
Q 1584 2216 1326 1975 
Q 1069 1734 1069 1313 
Q 1069 891 1326 650 
Q 1584 409 2034 409 
Q 2484 409 2743 651 
Q 3003 894 3003 1313 
Q 3003 1734 2745 1975 
Q 2488 2216 2034 2216 
z
M 1403 2484 
Q 997 2584 770 2862 
Q 544 3141 544 3541 
Q 544 4100 942 4425 
Q 1341 4750 2034 4750 
Q 2731 4750 3128 4425 
Q 3525 4100 3525 3541 
Q 3525 3141 3298 2862 
Q 3072 2584 2669 2484 
Q 3125 2378 3379 2068 
Q 3634 1759 3634 1313 
Q 3634 634 3220 271 
Q 2806 -91 2034 -91 
Q 1263 -91 848 271 
Q 434 634 434 1313 
Q 434 1759 690 2068 
Q 947 2378 1403 2484 
z
M 1172 3481 
Q 1172 3119 1398 2916 
Q 1625 2713 2034 2713 
Q 2441 2713 2670 2916 
Q 2900 3119 2900 3481 
Q 2900 3844 2670 4047 
Q 2441 4250 2034 4250 
Q 1625 4250 1398 4047 
Q 1172 3844 1172 3481 
z
" transform="scale(0.015625)"/>
       </defs>
       <use xlink:href="#DejaVuSans-30"/>
       <use xlink:href="#DejaVuSans-2e" x="63.623047"/>
       <use xlink:href="#DejaVuSans-35" x="95.410156"/>
       <use xlink:href="#DejaVuSans-38" x="159.033203"/>
      </g>
     </g>
    </g>
    <g id="ytick_2">
     <g id="line2d_11">
      <path d="M 57.6 245.086548 
L 414.72 245.086548 
" clip-path="url(#p7ba3a08345)" style="fill: none; stroke: #cccccc; stroke-width: 0.8; stroke-linecap: round"/>
     </g>
     <g id="text_12">
      <!-- 0.60 -->
      <g style="fill: #262626" transform="translate(28.334375 248.885767)scale(0.1 -0.1)">
       <defs>
        <path id="DejaVuSans-36" d="M 2113 2584 
Q 1688 2584 1439 2293 
Q 1191 2003 1191 1497 
Q 1191 994 1439 701 
Q 1688 409 2113 409 
Q 2538 409 2786 701 
Q 3034 994 3034 1497 
Q 3034 2003 2786 2293 
Q 2538 2584 2113 2584 
z
M 3366 4563 
L 3366 3988 
Q 3128 4100 2886 4159 
Q 2644 4219 2406 4219 
Q 1781 4219 1451 3797 
Q 1122 3375 1075 2522 
Q 1259 2794 1537 2939 
Q 1816 3084 2150 3084 
Q 2853 3084 3261 2657 
Q 3669 2231 3669 1497 
Q 3669 778 3244 343 
Q 2819 -91 2113 -91 
Q 1303 -91 875 529 
Q 447 1150 447 2328 
Q 447 3434 972 4092 
Q 1497 4750 2381 4750 
Q 2619 4750 2861 4703 
Q 3103 4656 3366 4563 
z
" transform="scale(0.015625)"/>
       </defs>
       <use xlink:href="#DejaVuSans-30"/>
       <use xlink:href="#DejaVuSans-2e" x="63.623047"/>
       <use xlink:href="#DejaVuSans-36" x="95.410156"/>
       <use xlink:href="#DejaVuSans-30" x="159.033203"/>
      </g>
     </g>
    </g>
    <g id="ytick_3">
     <g id="line2d_12">
      <path d="M 57.6 208.170631 
L 414.72 208.170631 
" clip-path="url(#p7ba3a08345)" style="fill: none; stroke: #cccccc; stroke-width: 0.8; stroke-linecap: round"/>
     </g>
     <g id="text_13">
      <!-- 0.62 -->
      <g style="fill: #262626" transform="translate(28.334375 211.96985)scale(0.1 -0.1)">
       <use xlink:href="#DejaVuSans-30"/>
       <use xlink:href="#DejaVuSans-2e" x="63.623047"/>
       <use xlink:href="#DejaVuSans-36" x="95.410156"/>
       <use xlink:href="#DejaVuSans-32" x="159.033203"/>
      </g>
     </g>
    </g>
    <g id="ytick_4">
     <g id="line2d_13">
      <path d="M 57.6 171.254713 
L 414.72 171.254713 
" clip-path="url(#p7ba3a08345)" style="fill: none; stroke: #cccccc; stroke-width: 0.8; stroke-linecap: round"/>
     </g>
     <g id="text_14">
      <!-- 0.64 -->
      <g style="fill: #262626" transform="translate(28.334375 175.053932)scale(0.1 -0.1)">
       <defs>
        <path id="DejaVuSans-34" d="M 2419 4116 
L 825 1625 
L 2419 1625 
L 2419 4116 
z
M 2253 4666 
L 3047 4666 
L 3047 1625 
L 3713 1625 
L 3713 1100 
L 3047 1100 
L 3047 0 
L 2419 0 
L 2419 1100 
L 313 1100 
L 313 1709 
L 2253 4666 
z
" transform="scale(0.015625)"/>
       </defs>
       <use xlink:href="#DejaVuSans-30"/>
       <use xlink:href="#DejaVuSans-2e" x="63.623047"/>
       <use xlink:href="#DejaVuSans-36" x="95.410156"/>
       <use xlink:href="#DejaVuSans-34" x="159.033203"/>
      </g>
     </g>
    </g>
    <g id="ytick_5">
     <g id="line2d_14">
      <path d="M 57.6 134.338796 
L 414.72 134.338796 
" clip-path="url(#p7ba3a08345)" style="fill: none; stroke: #cccccc; stroke-width: 0.8; stroke-linecap: round"/>
     </g>
     <g id="text_15">
      <!-- 0.66 -->
      <g style="fill: #262626" transform="translate(28.334375 138.138014)scale(0.1 -0.1)">
       <use xlink:href="#DejaVuSans-30"/>
       <use xlink:href="#DejaVuSans-2e" x="63.623047"/>
       <use xlink:href="#DejaVuSans-36" x="95.410156"/>
       <use xlink:href="#DejaVuSans-36" x="159.033203"/>
      </g>
     </g>
    </g>
    <g id="ytick_6">
     <g id="line2d_15">
      <path d="M 57.6 97.422878 
L 414.72 97.422878 
" clip-path="url(#p7ba3a08345)" style="fill: none; stroke: #cccccc; stroke-width: 0.8; stroke-linecap: round"/>
     </g>
     <g id="text_16">
      <!-- 0.68 -->
      <g style="fill: #262626" transform="translate(28.334375 101.222097)scale(0.1 -0.1)">
       <use xlink:href="#DejaVuSans-30"/>
       <use xlink:href="#DejaVuSans-2e" x="63.623047"/>
       <use xlink:href="#DejaVuSans-36" x="95.410156"/>
       <use xlink:href="#DejaVuSans-38" x="159.033203"/>
      </g>
     </g>
    </g>
    <g id="ytick_7">
     <g id="line2d_16">
      <path d="M 57.6 60.506961 
L 414.72 60.506961 
" clip-path="url(#p7ba3a08345)" style="fill: none; stroke: #cccccc; stroke-width: 0.8; stroke-linecap: round"/>
     </g>
     <g id="text_17">
      <!-- 0.70 -->
      <g style="fill: #262626" transform="translate(28.334375 64.306179)scale(0.1 -0.1)">
       <use xlink:href="#DejaVuSans-30"/>
       <use xlink:href="#DejaVuSans-2e" x="63.623047"/>
       <use xlink:href="#DejaVuSans-37" x="95.410156"/>
       <use xlink:href="#DejaVuSans-30" x="159.033203"/>
      </g>
     </g>
    </g>
    <g id="text_18">
     <!-- Auroc -->
     <g style="fill: #262626" transform="translate(22.254688 188.868625)rotate(-90)scale(0.1 -0.1)">
      <defs>
       <path id="DejaVuSans-41" d="M 2188 4044 
L 1331 1722 
L 3047 1722 
L 2188 4044 
z
M 1831 4666 
L 2547 4666 
L 4325 0 
L 3669 0 
L 3244 1197 
L 1141 1197 
L 716 0 
L 50 0 
L 1831 4666 
z
" transform="scale(0.015625)"/>
       <path id="DejaVuSans-75" d="M 544 1381 
L 544 3500 
L 1119 3500 
L 1119 1403 
Q 1119 906 1312 657 
Q 1506 409 1894 409 
Q 2359 409 2629 706 
Q 2900 1003 2900 1516 
L 2900 3500 
L 3475 3500 
L 3475 0 
L 2900 0 
L 2900 538 
Q 2691 219 2414 64 
Q 2138 -91 1772 -91 
Q 1169 -91 856 284 
Q 544 659 544 1381 
z
M 1991 3584 
L 1991 3584 
z
" transform="scale(0.015625)"/>
       <path id="DejaVuSans-63" d="M 3122 3366 
L 3122 2828 
Q 2878 2963 2633 3030 
Q 2388 3097 2138 3097 
Q 1578 3097 1268 2742 
Q 959 2388 959 1747 
Q 959 1106 1268 751 
Q 1578 397 2138 397 
Q 2388 397 2633 464 
Q 2878 531 3122 666 
L 3122 134 
Q 2881 22 2623 -34 
Q 2366 -91 2075 -91 
Q 1284 -91 818 406 
Q 353 903 353 1747 
Q 353 2603 823 3093 
Q 1294 3584 2113 3584 
Q 2378 3584 2631 3529 
Q 2884 3475 3122 3366 
z
" transform="scale(0.015625)"/>
      </defs>
      <use xlink:href="#DejaVuSans-41"/>
      <use xlink:href="#DejaVuSans-75" x="68.408203"/>
      <use xlink:href="#DejaVuSans-72" x="131.787109"/>
      <use xlink:href="#DejaVuSans-6f" x="170.650391"/>
      <use xlink:href="#DejaVuSans-63" x="231.832031"/>
     </g>
    </g>
   </g>
   <g id="PolyCollection_1">
    <defs>
     <path id="m749cc57f22" d="M 73.832727 -242.408009 
L 73.832727 -134.175385 
L 75.464157 -96.627902 
L 77.095587 -184.03289 
L 78.727017 -157.816703 
L 80.358447 -114.728778 
L 81.989877 -85.410131 
L 83.621307 -162.054406 
L 85.252736 -75.271862 
L 86.884166 -158.377385 
L 88.515596 -109.36835 
L 90.147026 -116.53603 
L 91.778456 -144.579646 
L 93.409886 -87.052923 
L 95.041316 -110.59684 
L 96.672746 -127.204688 
L 98.304175 -85.398671 
L 99.935605 -109.676264 
L 101.567035 -184.78108 
L 103.198465 -121.507492 
L 104.829895 -98.129917 
L 106.461325 -169.947748 
L 108.092755 -94.284962 
L 109.724185 -179.491781 
L 111.355614 -147.01253 
L 112.987044 -77.963501 
L 114.618474 -169.805486 
L 116.249904 -159.635202 
L 117.881334 -172.097886 
L 119.512764 -134.89817 
L 121.144194 -132.802586 
L 122.775624 -94.469758 
L 124.407053 -120.039306 
L 126.038483 -132.379996 
L 127.669913 -99.878001 
L 129.301343 -176.986931 
L 130.932773 -112.843411 
L 132.564203 -118.263154 
L 134.195633 -131.00353 
L 135.827063 -121.428618 
L 137.458492 -195.221902 
L 139.089922 -130.092662 
L 140.721352 -138.619911 
L 142.352782 -130.337613 
L 143.984212 -112.49606 
L 145.615642 -120.932822 
L 147.247072 -136.934387 
L 148.878502 -112.895699 
L 150.509931 -159.060669 
L 152.141361 -114.367461 
L 153.772791 -77.371811 
L 155.404221 -122.11294 
L 157.035651 -127.91003 
L 158.667081 -153.309731 
L 160.298511 -123.46132 
L 161.929941 -134.192263 
L 163.56137 -117.425252 
L 165.1928 -163.550102 
L 166.82423 -147.437604 
L 168.45566 -88.900625 
L 170.08709 -151.400888 
L 171.71852 -161.427609 
L 173.34995 -140.556523 
L 174.98138 -137.017607 
L 176.61281 -83.639057 
L 178.244239 -50.112 
L 179.875669 -90.024861 
L 181.507099 -88.395176 
L 183.138529 -85.335048 
L 184.769959 -153.436753 
L 186.401389 -119.652987 
L 188.032819 -134.111366 
L 189.664249 -92.419917 
L 191.295678 -150.467806 
L 192.927108 -160.027221 
L 194.558538 -159.283306 
L 196.189968 -93.292641 
L 197.821398 -164.079598 
L 199.452828 -75.522715 
L 201.084258 -91.727518 
L 202.715688 -133.410173 
L 204.347117 -147.864595 
L 205.978547 -156.24152 
L 207.609977 -138.657885 
L 209.241407 -59.98164 
L 210.872837 -103.670999 
L 212.504267 -157.756264 
L 214.135697 -138.93759 
L 215.767127 -111.482252 
L 217.398556 -139.721245 
L 219.029986 -98.743573 
L 220.661416 -55.902252 
L 222.292846 -67.003664 
L 223.924276 -174.242974 
L 225.555706 -57.563491 
L 227.187136 -129.495618 
L 228.818566 -132.390719 
L 230.449995 -159.76342 
L 232.081425 -134.644633 
L 233.712855 -96.887054 
L 235.344285 -173.769588 
L 236.975715 -110.236833 
L 238.607145 -129.193631 
L 240.238575 -151.845198 
L 241.870005 -72.208889 
L 243.501434 -59.205162 
L 245.132864 -56.710811 
L 246.764294 -118.880383 
L 248.395724 -155.411587 
L 250.027154 -119.907954 
L 251.658584 -116.427387 
L 253.290014 -141.304091 
L 254.921444 -148.134648 
L 256.552873 -132.896217 
L 258.184303 -161.660579 
L 259.815733 -143.424156 
L 261.447163 -171.579837 
L 263.078593 -103.944973 
L 264.710023 -119.659742 
L 266.341453 -123.86922 
L 267.972883 -127.987375 
L 269.604312 -87.74126 
L 271.235742 -167.720087 
L 272.867172 -133.528938 
L 274.498602 -106.260617 
L 276.130032 -112.16878 
L 277.761462 -112.720874 
L 279.392892 -153.31739 
L 281.024322 -172.95136 
L 282.655751 -159.377422 
L 284.287181 -127.011152 
L 285.918611 -116.533572 
L 287.550041 -141.966387 
L 289.181471 -152.572384 
L 290.812901 -105.950545 
L 292.444331 -102.141293 
L 294.075761 -183.531082 
L 295.70719 -117.266712 
L 297.33862 -167.965007 
L 298.97005 -73.137167 
L 300.60148 -61.664921 
L 302.23291 -117.86354 
L 303.86434 -153.547105 
L 305.49577 -134.868327 
L 307.1272 -100.798872 
L 308.75863 -137.649915 
L 310.390059 -135.981632 
L 312.021489 -78.96088 
L 313.652919 -144.615506 
L 315.284349 -150.875938 
L 316.915779 -157.98026 
L 318.547209 -142.64524 
L 320.178639 -111.563651 
L 321.810069 -156.631912 
L 323.441498 -106.782481 
L 325.072928 -114.857634 
L 326.704358 -124.858571 
L 328.335788 -175.947916 
L 329.967218 -105.0668 
L 331.598648 -57.685511 
L 333.230078 -126.977396 
L 334.861508 -140.191928 
L 336.492937 -58.747778 
L 338.124367 -142.623604 
L 339.755797 -114.130775 
L 341.387227 -114.133992 
L 343.018657 -84.701531 
L 344.650087 -131.092853 
L 346.281517 -155.063195 
L 347.912947 -149.503921 
L 349.544376 -155.575053 
L 351.175806 -102.878743 
L 352.807236 -147.453067 
L 354.438666 -151.688552 
L 356.070096 -139.410851 
L 357.701526 -68.295531 
L 359.332956 -187.580917 
L 360.964386 -115.127674 
L 362.595815 -96.699475 
L 364.227245 -97.052471 
L 365.858675 -152.790105 
L 367.490105 -136.503885 
L 369.121535 -71.916864 
L 370.752965 -176.800871 
L 372.384395 -90.509473 
L 374.015825 -172.042423 
L 375.647254 -110.884546 
L 377.278684 -166.175719 
L 378.910114 -129.588705 
L 380.541544 -162.423014 
L 382.172974 -66.624493 
L 383.804404 -71.655642 
L 385.435834 -134.98942 
L 387.067264 -141.564323 
L 388.698693 -151.698569 
L 390.330123 -146.67074 
L 391.961553 -139.331783 
L 393.592983 -172.006004 
L 395.224413 -137.279714 
L 396.855843 -157.003729 
L 398.487273 -152.694929 
L 398.487273 -246.084725 
L 398.487273 -246.084725 
L 396.855843 -256.138562 
L 395.224413 -259.323007 
L 393.592983 -228.490324 
L 391.961553 -260.274076 
L 390.330123 -227.340916 
L 388.698693 -243.802744 
L 387.067264 -234.368103 
L 385.435834 -229.257428 
L 383.804404 -234.345398 
L 382.172974 -234.763545 
L 380.541544 -284.015007 
L 378.910114 -239.440135 
L 377.278684 -184.476087 
L 375.647254 -196.301207 
L 374.015825 -246.605123 
L 372.384395 -286.035839 
L 370.752965 -257.764433 
L 369.121535 -216.902119 
L 367.490105 -246.931475 
L 365.858675 -222.095209 
L 364.227245 -248.576057 
L 362.595815 -237.480299 
L 360.964386 -265.620066 
L 359.332956 -249.229451 
L 357.701526 -252.826516 
L 356.070096 -229.8804 
L 354.438666 -205.054619 
L 352.807236 -254.99289 
L 351.175806 -218.822273 
L 349.544376 -248.239929 
L 347.912947 -228.68666 
L 346.281517 -241.826928 
L 344.650087 -276.214533 
L 343.018657 -287.398875 
L 341.387227 -255.483932 
L 339.755797 -200.58692 
L 338.124367 -249.031409 
L 336.492937 -208.401252 
L 334.861508 -217.447811 
L 333.230078 -232.675491 
L 331.598648 -255.588929 
L 329.967218 -244.506804 
L 328.335788 -220.062747 
L 326.704358 -237.970608 
L 325.072928 -265.233486 
L 323.441498 -265.213794 
L 321.810069 -245.055377 
L 320.178639 -229.538154 
L 318.547209 -208.65069 
L 316.915779 -247.949622 
L 315.284349 -235.903961 
L 313.652919 -209.625546 
L 312.021489 -260.399558 
L 310.390059 -291.8342 
L 308.75863 -272.804606 
L 307.1272 -282.751181 
L 305.49577 -259.33968 
L 303.86434 -232.596702 
L 302.23291 -244.595529 
L 300.60148 -244.54319 
L 298.97005 -158.688257 
L 297.33862 -236.795633 
L 295.70719 -247.247604 
L 294.075761 -234.010296 
L 292.444331 -215.570019 
L 290.812901 -231.907432 
L 289.181471 -260.294406 
L 287.550041 -226.004482 
L 285.918611 -230.948785 
L 284.287181 -253.103174 
L 282.655751 -285.442701 
L 281.024322 -243.368413 
L 279.392892 -232.475346 
L 277.761462 -230.630607 
L 276.130032 -240.156262 
L 274.498602 -240.91738 
L 272.867172 -233.545215 
L 271.235742 -215.592101 
L 269.604312 -238.516526 
L 267.972883 -237.149942 
L 266.341453 -273.557625 
L 264.710023 -199.386231 
L 263.078593 -248.19412 
L 261.447163 -254.646659 
L 259.815733 -281.445068 
L 258.184303 -248.089274 
L 256.552873 -225.980151 
L 254.921444 -245.711429 
L 253.290014 -207.413259 
L 251.658584 -239.896731 
L 250.027154 -274.525274 
L 248.395724 -246.454212 
L 246.764294 -246.437824 
L 245.132864 -270.387015 
L 243.501434 -262.884014 
L 241.870005 -212.833264 
L 240.238575 -225.484369 
L 238.607145 -206.765592 
L 236.975715 -250.040394 
L 235.344285 -191.868748 
L 233.712855 -210.256303 
L 232.081425 -258.05764 
L 230.449995 -264.123997 
L 228.818566 -257.603554 
L 227.187136 -265.811119 
L 225.555706 -211.676936 
L 223.924276 -273.731425 
L 222.292846 -260.780385 
L 220.661416 -254.563031 
L 219.029986 -245.453601 
L 217.398556 -287.359125 
L 215.767127 -187.117158 
L 214.135697 -209.075834 
L 212.504267 -253.677683 
L 210.872837 -235.019431 
L 209.241407 -226.254003 
L 207.609977 -254.899452 
L 205.978547 -251.418572 
L 204.347117 -198.537478 
L 202.715688 -173.775431 
L 201.084258 -250.725908 
L 199.452828 -262.596928 
L 197.821398 -286.166046 
L 196.189968 -257.795325 
L 194.558538 -257.643401 
L 192.927108 -244.504925 
L 191.295678 -231.018669 
L 189.664249 -235.712525 
L 188.032819 -246.208247 
L 186.401389 -222.99442 
L 184.769959 -222.709886 
L 183.138529 -270.976723 
L 181.507099 -234.917043 
L 179.875669 -254.859279 
L 178.244239 -246.05982 
L 176.61281 -209.966231 
L 174.98138 -238.318595 
L 173.34995 -241.191171 
L 171.71852 -251.546287 
L 170.08709 -260.363898 
L 168.45566 -212.03846 
L 166.82423 -249.598898 
L 165.1928 -268.513679 
L 163.56137 -245.554917 
L 161.929941 -253.304056 
L 160.298511 -255.571234 
L 158.667081 -236.592311 
L 157.035651 -275.263059 
L 155.404221 -229.83128 
L 153.772791 -269.340869 
L 152.141361 -255.36947 
L 150.509931 -219.294885 
L 148.878502 -209.748148 
L 147.247072 -232.396731 
L 145.615642 -224.965852 
L 143.984212 -223.804118 
L 142.352782 -223.588071 
L 140.721352 -250.530603 
L 139.089922 -229.019042 
L 137.458492 -265.245238 
L 135.827063 -246.921288 
L 134.195633 -227.850822 
L 132.564203 -236.831772 
L 130.932773 -272.94754 
L 129.301343 -219.787161 
L 127.669913 -244.253868 
L 126.038483 -222.760748 
L 124.407053 -240.822691 
L 122.775624 -257.534561 
L 121.144194 -249.801511 
L 119.512764 -233.993813 
L 117.881334 -226.054007 
L 116.249904 -266.336024 
L 114.618474 -232.35545 
L 112.987044 -194.007537 
L 111.355614 -245.502903 
L 109.724185 -236.494773 
L 108.092755 -292.032 
L 106.461325 -266.177141 
L 104.829895 -231.847428 
L 103.198465 -256.80388 
L 101.567035 -233.846235 
L 99.935605 -248.278991 
L 98.304175 -223.607886 
L 96.672746 -233.887587 
L 95.041316 -242.65348 
L 93.409886 -219.768222 
L 91.778456 -265.185826 
L 90.147026 -248.950572 
L 88.515596 -250.264307 
L 86.884166 -241.85207 
L 85.252736 -209.68401 
L 83.621307 -225.047406 
L 81.989877 -244.918581 
L 80.358447 -245.907106 
L 78.727017 -242.044426 
L 77.095587 -209.276318 
L 75.464157 -290.218045 
L 73.832727 -242.408009 
z
" style="stroke: #ffffff; stroke-opacity: 0.2"/>
    </defs>
    <g clip-path="url(#p7ba3a08345)">
     <use xlink:href="#m749cc57f22" x="0" y="345.6" style="fill: #1f77b4; fill-opacity: 0.2; stroke: #ffffff; stroke-opacity: 0.2"/>
    </g>
   </g>
   <g id="line2d_17">
    <path d="M 73.832727 157.308303 
L 75.464157 152.177026 
L 78.727017 145.669436 
L 80.358447 165.282058 
L 81.989877 180.435644 
L 83.621307 152.049094 
L 85.252736 203.122064 
L 86.884166 145.485273 
L 88.515596 165.783672 
L 90.147026 162.856699 
L 91.778456 140.717264 
L 93.409886 192.189427 
L 95.041316 168.97484 
L 96.672746 165.053863 
L 98.304175 191.096721 
L 99.935605 166.622373 
L 101.567035 136.286342 
L 103.198465 156.444314 
L 104.829895 180.611327 
L 106.461325 127.537556 
L 108.092755 152.441519 
L 109.724185 137.606723 
L 111.355614 149.342284 
L 112.987044 209.614481 
L 114.618474 144.519532 
L 116.249904 132.614387 
L 119.512764 161.154009 
L 121.144194 154.297951 
L 122.775624 169.597841 
L 124.407053 165.169002 
L 126.038483 168.029628 
L 127.669913 173.534066 
L 129.301343 147.212954 
L 130.932773 152.704524 
L 132.564203 168.052537 
L 134.195633 166.172824 
L 135.827063 161.425047 
L 137.458492 115.36643 
L 139.089922 166.044148 
L 140.721352 151.024743 
L 142.352782 168.637158 
L 143.984212 177.449911 
L 145.615642 172.650663 
L 147.247072 160.934441 
L 148.878502 184.278077 
L 150.509931 156.422223 
L 152.141361 160.731535 
L 153.772791 172.24366 
L 155.404221 169.62789 
L 157.035651 144.013456 
L 158.667081 150.648979 
L 160.298511 156.083723 
L 161.929941 151.85184 
L 163.56137 164.109915 
L 165.1928 129.56811 
L 166.82423 147.081749 
L 168.45566 195.130458 
L 170.08709 139.717607 
L 171.71852 139.113052 
L 173.34995 154.726153 
L 174.98138 157.931899 
L 176.61281 198.797356 
L 178.244239 197.51409 
L 179.875669 173.15793 
L 181.507099 183.94389 
L 183.138529 167.444115 
L 184.769959 157.526681 
L 186.401389 174.276297 
L 188.032819 155.440194 
L 189.664249 181.533779 
L 191.295678 154.856763 
L 192.927108 143.333927 
L 194.558538 137.136646 
L 196.189968 170.056017 
L 197.821398 120.477178 
L 199.452828 176.540178 
L 201.084258 174.373287 
L 202.715688 192.007198 
L 204.347117 172.398964 
L 205.978547 141.769954 
L 207.609977 148.821331 
L 209.241407 202.482179 
L 210.872837 176.254785 
L 212.504267 139.883026 
L 214.135697 171.593288 
L 215.767127 196.300295 
L 217.398556 132.059815 
L 219.029986 173.501413 
L 220.661416 190.367358 
L 222.292846 181.707975 
L 223.924276 121.612801 
L 225.555706 210.979787 
L 227.187136 147.946631 
L 228.818566 150.602864 
L 230.449995 133.656292 
L 232.081425 149.248863 
L 233.712855 192.028322 
L 235.344285 162.780832 
L 236.975715 165.461387 
L 238.607145 177.620388 
L 240.238575 156.935217 
L 241.870005 203.078924 
L 243.501434 184.555412 
L 245.132864 182.051087 
L 248.395724 144.667101 
L 250.027154 148.383386 
L 251.658584 167.437941 
L 253.290014 171.241325 
L 254.921444 148.676961 
L 256.552873 166.161816 
L 258.184303 140.725074 
L 259.815733 133.165388 
L 261.447163 132.486752 
L 263.078593 169.530453 
L 264.710023 186.077013 
L 266.341453 146.886578 
L 267.972883 163.031342 
L 269.604312 182.471107 
L 271.235742 153.943906 
L 272.867172 162.062923 
L 274.498602 172.011002 
L 276.130032 169.437479 
L 277.761462 173.924259 
L 279.392892 152.703632 
L 282.655751 123.189939 
L 284.287181 155.542837 
L 285.918611 171.858822 
L 287.550041 161.614565 
L 289.181471 139.166605 
L 290.812901 176.671011 
L 292.444331 186.744344 
L 294.075761 136.829311 
L 295.70719 163.342842 
L 297.33862 143.21968 
L 298.97005 229.687288 
L 300.60148 192.495944 
L 302.23291 164.370466 
L 303.86434 152.528097 
L 305.49577 148.495997 
L 307.1272 153.824973 
L 308.75863 140.372739 
L 310.390059 131.692084 
L 312.021489 175.919781 
L 313.652919 168.479474 
L 315.284349 152.210051 
L 316.915779 142.635059 
L 318.547209 169.952035 
L 320.178639 175.049097 
L 321.810069 144.756356 
L 323.441498 159.601862 
L 325.072928 155.55444 
L 326.704358 164.18541 
L 328.335788 147.594669 
L 329.967218 170.813198 
L 331.598648 188.96278 
L 333.230078 165.773556 
L 334.861508 166.780131 
L 336.492937 212.025485 
L 338.124367 149.772493 
L 339.755797 188.241153 
L 341.387227 160.791038 
L 343.018657 159.549797 
L 344.650087 141.946307 
L 346.281517 147.154938 
L 347.912947 156.50471 
L 349.544376 143.692509 
L 351.175806 184.749492 
L 352.807236 144.377021 
L 354.438666 167.228415 
L 356.070096 160.954375 
L 357.701526 185.038976 
L 359.332956 127.194816 
L 360.964386 155.22613 
L 362.595815 178.510113 
L 364.227245 172.785736 
L 365.858675 158.157343 
L 367.490105 153.88232 
L 369.121535 201.190508 
L 370.752965 128.317348 
L 372.384395 157.327344 
L 374.015825 136.276227 
L 375.647254 192.007124 
L 377.278684 170.274097 
L 378.910114 161.08558 
L 380.541544 122.38099 
L 382.172974 194.905981 
L 383.804404 192.59948 
L 385.435834 163.476576 
L 387.067264 157.633787 
L 388.698693 147.849343 
L 390.330123 158.594172 
L 391.961553 145.79707 
L 393.592983 145.351836 
L 395.224413 147.298639 
L 396.855843 139.028855 
L 398.487273 146.210173 
L 398.487273 146.210173 
" clip-path="url(#p7ba3a08345)" style="fill: none; stroke: #1f77b4; stroke-width: 1.5; stroke-linecap: round"/>
   </g>
   <g id="LineCollection_1">
    <path d="M 398.487273 295.488 
L 398.487273 53.568 
" clip-path="url(#p7ba3a08345)" style="fill: none; stroke-dasharray: 5.55,2.4; stroke-dashoffset: 0; stroke: #1f77b4; stroke-width: 1.5"/>
   </g>
   <g id="patch_3">
    <path d="M 57.6 307.584 
L 57.6 41.472 
" style="fill: none; stroke: #cccccc; stroke-width: 0.8; stroke-linejoin: miter; stroke-linecap: square"/>
   </g>
   <g id="patch_4">
    <path d="M 414.72 307.584 
L 414.72 41.472 
" style="fill: none; stroke: #cccccc; stroke-width: 0.8; stroke-linejoin: miter; stroke-linecap: square"/>
   </g>
   <g id="patch_5">
    <path d="M 57.6 307.584 
L 414.72 307.584 
" style="fill: none; stroke: #cccccc; stroke-width: 0.8; stroke-linejoin: miter; stroke-linecap: square"/>
   </g>
   <g id="patch_6">
    <path d="M 57.6 41.472 
L 414.72 41.472 
" style="fill: none; stroke: #cccccc; stroke-width: 0.8; stroke-linejoin: miter; stroke-linecap: square"/>
   </g>
   <g id="text_19">
    <!-- Model performance vs. # of iterations -->
    <g style="fill: #262626" transform="translate(122.314688 35.472)scale(0.12 -0.12)">
     <defs>
      <path id="DejaVuSans-4d" d="M 628 4666 
L 1569 4666 
L 2759 1491 
L 3956 4666 
L 4897 4666 
L 4897 0 
L 4281 0 
L 4281 4097 
L 3078 897 
L 2444 897 
L 1241 4097 
L 1241 0 
L 628 0 
L 628 4666 
z
" transform="scale(0.015625)"/>
      <path id="DejaVuSans-64" d="M 2906 2969 
L 2906 4863 
L 3481 4863 
L 3481 0 
L 2906 0 
L 2906 525 
Q 2725 213 2448 61 
Q 2172 -91 1784 -91 
Q 1150 -91 751 415 
Q 353 922 353 1747 
Q 353 2572 751 3078 
Q 1150 3584 1784 3584 
Q 2172 3584 2448 3432 
Q 2725 3281 2906 2969 
z
M 947 1747 
Q 947 1113 1208 752 
Q 1469 391 1925 391 
Q 2381 391 2643 752 
Q 2906 1113 2906 1747 
Q 2906 2381 2643 2742 
Q 2381 3103 1925 3103 
Q 1469 3103 1208 2742 
Q 947 2381 947 1747 
z
" transform="scale(0.015625)"/>
      <path id="DejaVuSans-6c" d="M 603 4863 
L 1178 4863 
L 1178 0 
L 603 0 
L 603 4863 
z
" transform="scale(0.015625)"/>
      <path id="DejaVuSans-20" transform="scale(0.015625)"/>
      <path id="DejaVuSans-70" d="M 1159 525 
L 1159 -1331 
L 581 -1331 
L 581 3500 
L 1159 3500 
L 1159 2969 
Q 1341 3281 1617 3432 
Q 1894 3584 2278 3584 
Q 2916 3584 3314 3078 
Q 3713 2572 3713 1747 
Q 3713 922 3314 415 
Q 2916 -91 2278 -91 
Q 1894 -91 1617 61 
Q 1341 213 1159 525 
z
M 3116 1747 
Q 3116 2381 2855 2742 
Q 2594 3103 2138 3103 
Q 1681 3103 1420 2742 
Q 1159 2381 1159 1747 
Q 1159 1113 1420 752 
Q 1681 391 2138 391 
Q 2594 391 2855 752 
Q 3116 1113 3116 1747 
z
" transform="scale(0.015625)"/>
      <path id="DejaVuSans-66" d="M 2375 4863 
L 2375 4384 
L 1825 4384 
Q 1516 4384 1395 4259 
Q 1275 4134 1275 3809 
L 1275 3500 
L 2222 3500 
L 2222 3053 
L 1275 3053 
L 1275 0 
L 697 0 
L 697 3053 
L 147 3053 
L 147 3500 
L 697 3500 
L 697 3744 
Q 697 4328 969 4595 
Q 1241 4863 1831 4863 
L 2375 4863 
z
" transform="scale(0.015625)"/>
      <path id="DejaVuSans-6d" d="M 3328 2828 
Q 3544 3216 3844 3400 
Q 4144 3584 4550 3584 
Q 5097 3584 5394 3201 
Q 5691 2819 5691 2113 
L 5691 0 
L 5113 0 
L 5113 2094 
Q 5113 2597 4934 2840 
Q 4756 3084 4391 3084 
Q 3944 3084 3684 2787 
Q 3425 2491 3425 1978 
L 3425 0 
L 2847 0 
L 2847 2094 
Q 2847 2600 2669 2842 
Q 2491 3084 2119 3084 
Q 1678 3084 1418 2786 
Q 1159 2488 1159 1978 
L 1159 0 
L 581 0 
L 581 3500 
L 1159 3500 
L 1159 2956 
Q 1356 3278 1631 3431 
Q 1906 3584 2284 3584 
Q 2666 3584 2933 3390 
Q 3200 3197 3328 2828 
z
" transform="scale(0.015625)"/>
      <path id="DejaVuSans-76" d="M 191 3500 
L 800 3500 
L 1894 563 
L 2988 3500 
L 3597 3500 
L 2284 0 
L 1503 0 
L 191 3500 
z
" transform="scale(0.015625)"/>
      <path id="DejaVuSans-73" d="M 2834 3397 
L 2834 2853 
Q 2591 2978 2328 3040 
Q 2066 3103 1784 3103 
Q 1356 3103 1142 2972 
Q 928 2841 928 2578 
Q 928 2378 1081 2264 
Q 1234 2150 1697 2047 
L 1894 2003 
Q 2506 1872 2764 1633 
Q 3022 1394 3022 966 
Q 3022 478 2636 193 
Q 2250 -91 1575 -91 
Q 1294 -91 989 -36 
Q 684 19 347 128 
L 347 722 
Q 666 556 975 473 
Q 1284 391 1588 391 
Q 1994 391 2212 530 
Q 2431 669 2431 922 
Q 2431 1156 2273 1281 
Q 2116 1406 1581 1522 
L 1381 1569 
Q 847 1681 609 1914 
Q 372 2147 372 2553 
Q 372 3047 722 3315 
Q 1072 3584 1716 3584 
Q 2034 3584 2315 3537 
Q 2597 3491 2834 3397 
z
" transform="scale(0.015625)"/>
      <path id="DejaVuSans-23" d="M 3272 2816 
L 2363 2816 
L 2100 1772 
L 3016 1772 
L 3272 2816 
z
M 2803 4594 
L 2478 3297 
L 3391 3297 
L 3719 4594 
L 4219 4594 
L 3897 3297 
L 4872 3297 
L 4872 2816 
L 3775 2816 
L 3519 1772 
L 4513 1772 
L 4513 1294 
L 3397 1294 
L 3072 0 
L 2572 0 
L 2894 1294 
L 1978 1294 
L 1656 0 
L 1153 0 
L 1478 1294 
L 494 1294 
L 494 1772 
L 1594 1772 
L 1856 2816 
L 850 2816 
L 850 3297 
L 1978 3297 
L 2297 4594 
L 2803 4594 
z
" transform="scale(0.015625)"/>
     </defs>
     <use xlink:href="#DejaVuSans-4d"/>
     <use xlink:href="#DejaVuSans-6f" x="86.279297"/>
     <use xlink:href="#DejaVuSans-64" x="147.460938"/>
     <use xlink:href="#DejaVuSans-65" x="210.9375"/>
     <use xlink:href="#DejaVuSans-6c" x="272.460938"/>
     <use xlink:href="#DejaVuSans-20" x="300.244141"/>
     <use xlink:href="#DejaVuSans-70" x="332.03125"/>
     <use xlink:href="#DejaVuSans-65" x="395.507812"/>
     <use xlink:href="#DejaVuSans-72" x="457.03125"/>
     <use xlink:href="#DejaVuSans-66" x="498.144531"/>
     <use xlink:href="#DejaVuSans-6f" x="533.349609"/>
     <use xlink:href="#DejaVuSans-72" x="594.53125"/>
     <use xlink:href="#DejaVuSans-6d" x="633.894531"/>
     <use xlink:href="#DejaVuSans-61" x="731.306641"/>
     <use xlink:href="#DejaVuSans-6e" x="792.585938"/>
     <use xlink:href="#DejaVuSans-63" x="855.964844"/>
     <use xlink:href="#DejaVuSans-65" x="910.945312"/>
     <use xlink:href="#DejaVuSans-20" x="972.46875"/>
     <use xlink:href="#DejaVuSans-76" x="1004.255859"/>
     <use xlink:href="#DejaVuSans-73" x="1063.435547"/>
     <use xlink:href="#DejaVuSans-2e" x="1115.535156"/>
     <use xlink:href="#DejaVuSans-20" x="1147.322266"/>
     <use xlink:href="#DejaVuSans-23" x="1179.109375"/>
     <use xlink:href="#DejaVuSans-20" x="1262.898438"/>
     <use xlink:href="#DejaVuSans-6f" x="1294.685547"/>
     <use xlink:href="#DejaVuSans-66" x="1355.867188"/>
     <use xlink:href="#DejaVuSans-20" x="1391.072266"/>
     <use xlink:href="#DejaVuSans-69" x="1422.859375"/>
     <use xlink:href="#DejaVuSans-74" x="1450.642578"/>
     <use xlink:href="#DejaVuSans-65" x="1489.851562"/>
     <use xlink:href="#DejaVuSans-72" x="1551.375"/>
     <use xlink:href="#DejaVuSans-61" x="1592.488281"/>
     <use xlink:href="#DejaVuSans-74" x="1653.767578"/>
     <use xlink:href="#DejaVuSans-69" x="1692.976562"/>
     <use xlink:href="#DejaVuSans-6f" x="1720.759766"/>
     <use xlink:href="#DejaVuSans-6e" x="1781.941406"/>
     <use xlink:href="#DejaVuSans-73" x="1845.320312"/>
    </g>
   </g>
  </g>
 </g>
 <defs>
  <clipPath id="p7ba3a08345">
   <rect x="57.6" y="41.472" width="357.12" height="266.112"/>
  </clipPath>
 </defs>
</svg>
