<?xml version="1.0" encoding="utf-8" standalone="no"?>
<!DOCTYPE svg PUBLIC "-//W3C//DTD SVG 1.1//EN"
  "http://www.w3.org/Graphics/SVG/1.1/DTD/svg11.dtd">
<svg height="345.6pt" version="1.1" viewBox="0 0 460.8 345.6" width="460.8pt" xmlns="http://www.w3.org/2000/svg" xmlns:xlink="http://www.w3.org/1999/xlink">
 <metadata>
  <rdf:RDF xmlns:cc="http://creativecommons.org/ns#" xmlns:dc="http://purl.org/dc/elements/1.1/" xmlns:rdf="http://www.w3.org/1999/02/22-rdf-syntax-ns#">
   <cc:Work>
    <dc:type rdf:resource="http://purl.org/dc/dcmitype/StillImage"/>
    <dc:date>2021-07-30T19:05:39.173745</dc:date>
    <dc:format>image/svg+xml</dc:format>
    <dc:creator>
     <cc:Agent>
      <dc:title>Matplotlib v3.4.2, https://matplotlib.org/</dc:title>
     </cc:Agent>
    </dc:creator>
   </cc:Work>
  </rdf:RDF>
 </metadata>
 <defs>
  <style type="text/css">*{stroke-linecap:butt;stroke-linejoin:round;}</style>
 </defs>
 <g id="figure_1">
  <g id="patch_1">
   <path d="M 0 345.6 
L 460.8 345.6 
L 460.8 0 
L 0 0 
z
" style="fill:#ffffff;"/>
  </g>
  <g id="axes_1">
   <g id="patch_2">
    <path d="M 57.6 307.584 
L 414.72 307.584 
L 414.72 41.472 
L 57.6 41.472 
z
" style="fill:#ffffff;"/>
   </g>
   <g id="matplotlib.axis_1">
    <g id="xtick_1">
     <g id="line2d_1">
      <path clip-path="url(#p3c02e5007d)" d="M 72.201297 307.584 
L 72.201297 41.472 
" style="fill:none;stroke:#cccccc;stroke-linecap:round;stroke-width:0.8;"/>
     </g>
     <g id="text_1">
      <!-- 0 -->
      <g style="fill:#262626;" transform="translate(69.020047 322.182437)scale(0.1 -0.1)">
       <defs>
        <path d="M 2034 4250 
Q 1547 4250 1301 3770 
Q 1056 3291 1056 2328 
Q 1056 1369 1301 889 
Q 1547 409 2034 409 
Q 2525 409 2770 889 
Q 3016 1369 3016 2328 
Q 3016 3291 2770 3770 
Q 2525 4250 2034 4250 
z
M 2034 4750 
Q 2819 4750 3233 4129 
Q 3647 3509 3647 2328 
Q 3647 1150 3233 529 
Q 2819 -91 2034 -91 
Q 1250 -91 836 529 
Q 422 1150 422 2328 
Q 422 3509 836 4129 
Q 1250 4750 2034 4750 
z
" id="DejaVuSans-30" transform="scale(0.015625)"/>
       </defs>
       <use xlink:href="#DejaVuSans-30"/>
      </g>
     </g>
    </g>
    <g id="xtick_2">
     <g id="line2d_2">
      <path clip-path="url(#p3c02e5007d)" d="M 112.987044 307.584 
L 112.987044 41.472 
" style="fill:none;stroke:#cccccc;stroke-linecap:round;stroke-width:0.8;"/>
     </g>
     <g id="text_2">
      <!-- 25 -->
      <g style="fill:#262626;" transform="translate(106.624544 322.182437)scale(0.1 -0.1)">
       <defs>
        <path d="M 1228 531 
L 3431 531 
L 3431 0 
L 469 0 
L 469 531 
Q 828 903 1448 1529 
Q 2069 2156 2228 2338 
Q 2531 2678 2651 2914 
Q 2772 3150 2772 3378 
Q 2772 3750 2511 3984 
Q 2250 4219 1831 4219 
Q 1534 4219 1204 4116 
Q 875 4013 500 3803 
L 500 4441 
Q 881 4594 1212 4672 
Q 1544 4750 1819 4750 
Q 2544 4750 2975 4387 
Q 3406 4025 3406 3419 
Q 3406 3131 3298 2873 
Q 3191 2616 2906 2266 
Q 2828 2175 2409 1742 
Q 1991 1309 1228 531 
z
" id="DejaVuSans-32" transform="scale(0.015625)"/>
        <path d="M 691 4666 
L 3169 4666 
L 3169 4134 
L 1269 4134 
L 1269 2991 
Q 1406 3038 1543 3061 
Q 1681 3084 1819 3084 
Q 2600 3084 3056 2656 
Q 3513 2228 3513 1497 
Q 3513 744 3044 326 
Q 2575 -91 1722 -91 
Q 1428 -91 1123 -41 
Q 819 9 494 109 
L 494 744 
Q 775 591 1075 516 
Q 1375 441 1709 441 
Q 2250 441 2565 725 
Q 2881 1009 2881 1497 
Q 2881 1984 2565 2268 
Q 2250 2553 1709 2553 
Q 1456 2553 1204 2497 
Q 953 2441 691 2322 
L 691 4666 
z
" id="DejaVuSans-35" transform="scale(0.015625)"/>
       </defs>
       <use xlink:href="#DejaVuSans-32"/>
       <use x="63.623047" xlink:href="#DejaVuSans-35"/>
      </g>
     </g>
    </g>
    <g id="xtick_3">
     <g id="line2d_3">
      <path clip-path="url(#p3c02e5007d)" d="M 153.772791 307.584 
L 153.772791 41.472 
" style="fill:none;stroke:#cccccc;stroke-linecap:round;stroke-width:0.8;"/>
     </g>
     <g id="text_3">
      <!-- 50 -->
      <g style="fill:#262626;" transform="translate(147.410291 322.182437)scale(0.1 -0.1)">
       <use xlink:href="#DejaVuSans-35"/>
       <use x="63.623047" xlink:href="#DejaVuSans-30"/>
      </g>
     </g>
    </g>
    <g id="xtick_4">
     <g id="line2d_4">
      <path clip-path="url(#p3c02e5007d)" d="M 194.558538 307.584 
L 194.558538 41.472 
" style="fill:none;stroke:#cccccc;stroke-linecap:round;stroke-width:0.8;"/>
     </g>
     <g id="text_4">
      <!-- 75 -->
      <g style="fill:#262626;" transform="translate(188.196038 322.182437)scale(0.1 -0.1)">
       <defs>
        <path d="M 525 4666 
L 3525 4666 
L 3525 4397 
L 1831 0 
L 1172 0 
L 2766 4134 
L 525 4134 
L 525 4666 
z
" id="DejaVuSans-37" transform="scale(0.015625)"/>
       </defs>
       <use xlink:href="#DejaVuSans-37"/>
       <use x="63.623047" xlink:href="#DejaVuSans-35"/>
      </g>
     </g>
    </g>
    <g id="xtick_5">
     <g id="line2d_5">
      <path clip-path="url(#p3c02e5007d)" d="M 235.344285 307.584 
L 235.344285 41.472 
" style="fill:none;stroke:#cccccc;stroke-linecap:round;stroke-width:0.8;"/>
     </g>
     <g id="text_5">
      <!-- 100 -->
      <g style="fill:#262626;" transform="translate(225.800535 322.182437)scale(0.1 -0.1)">
       <defs>
        <path d="M 794 531 
L 1825 531 
L 1825 4091 
L 703 3866 
L 703 4441 
L 1819 4666 
L 2450 4666 
L 2450 531 
L 3481 531 
L 3481 0 
L 794 0 
L 794 531 
z
" id="DejaVuSans-31" transform="scale(0.015625)"/>
       </defs>
       <use xlink:href="#DejaVuSans-31"/>
       <use x="63.623047" xlink:href="#DejaVuSans-30"/>
       <use x="127.246094" xlink:href="#DejaVuSans-30"/>
      </g>
     </g>
    </g>
    <g id="xtick_6">
     <g id="line2d_6">
      <path clip-path="url(#p3c02e5007d)" d="M 276.130032 307.584 
L 276.130032 41.472 
" style="fill:none;stroke:#cccccc;stroke-linecap:round;stroke-width:0.8;"/>
     </g>
     <g id="text_6">
      <!-- 125 -->
      <g style="fill:#262626;" transform="translate(266.586282 322.182437)scale(0.1 -0.1)">
       <use xlink:href="#DejaVuSans-31"/>
       <use x="63.623047" xlink:href="#DejaVuSans-32"/>
       <use x="127.246094" xlink:href="#DejaVuSans-35"/>
      </g>
     </g>
    </g>
    <g id="xtick_7">
     <g id="line2d_7">
      <path clip-path="url(#p3c02e5007d)" d="M 316.915779 307.584 
L 316.915779 41.472 
" style="fill:none;stroke:#cccccc;stroke-linecap:round;stroke-width:0.8;"/>
     </g>
     <g id="text_7">
      <!-- 150 -->
      <g style="fill:#262626;" transform="translate(307.372029 322.182437)scale(0.1 -0.1)">
       <use xlink:href="#DejaVuSans-31"/>
       <use x="63.623047" xlink:href="#DejaVuSans-35"/>
       <use x="127.246094" xlink:href="#DejaVuSans-30"/>
      </g>
     </g>
    </g>
    <g id="xtick_8">
     <g id="line2d_8">
      <path clip-path="url(#p3c02e5007d)" d="M 357.701526 307.584 
L 357.701526 41.472 
" style="fill:none;stroke:#cccccc;stroke-linecap:round;stroke-width:0.8;"/>
     </g>
     <g id="text_8">
      <!-- 175 -->
      <g style="fill:#262626;" transform="translate(348.157776 322.182437)scale(0.1 -0.1)">
       <use xlink:href="#DejaVuSans-31"/>
       <use x="63.623047" xlink:href="#DejaVuSans-37"/>
       <use x="127.246094" xlink:href="#DejaVuSans-35"/>
      </g>
     </g>
    </g>
    <g id="xtick_9">
     <g id="line2d_9">
      <path clip-path="url(#p3c02e5007d)" d="M 398.487273 307.584 
L 398.487273 41.472 
" style="fill:none;stroke:#cccccc;stroke-linecap:round;stroke-width:0.8;"/>
     </g>
     <g id="text_9">
      <!-- 200 -->
      <g style="fill:#262626;" transform="translate(388.943523 322.182437)scale(0.1 -0.1)">
       <use xlink:href="#DejaVuSans-32"/>
       <use x="63.623047" xlink:href="#DejaVuSans-30"/>
       <use x="127.246094" xlink:href="#DejaVuSans-30"/>
      </g>
     </g>
    </g>
    <g id="text_10">
     <!-- Auroc -->
     <g style="fill:#262626;" transform="translate(221.819375 335.860562)scale(0.1 -0.1)">
      <defs>
       <path d="M 2188 4044 
L 1331 1722 
L 3047 1722 
L 2188 4044 
z
M 1831 4666 
L 2547 4666 
L 4325 0 
L 3669 0 
L 3244 1197 
L 1141 1197 
L 716 0 
L 50 0 
L 1831 4666 
z
" id="DejaVuSans-41" transform="scale(0.015625)"/>
       <path d="M 544 1381 
L 544 3500 
L 1119 3500 
L 1119 1403 
Q 1119 906 1312 657 
Q 1506 409 1894 409 
Q 2359 409 2629 706 
Q 2900 1003 2900 1516 
L 2900 3500 
L 3475 3500 
L 3475 0 
L 2900 0 
L 2900 538 
Q 2691 219 2414 64 
Q 2138 -91 1772 -91 
Q 1169 -91 856 284 
Q 544 659 544 1381 
z
M 1991 3584 
L 1991 3584 
z
" id="DejaVuSans-75" transform="scale(0.015625)"/>
       <path d="M 2631 2963 
Q 2534 3019 2420 3045 
Q 2306 3072 2169 3072 
Q 1681 3072 1420 2755 
Q 1159 2438 1159 1844 
L 1159 0 
L 581 0 
L 581 3500 
L 1159 3500 
L 1159 2956 
Q 1341 3275 1631 3429 
Q 1922 3584 2338 3584 
Q 2397 3584 2469 3576 
Q 2541 3569 2628 3553 
L 2631 2963 
z
" id="DejaVuSans-72" transform="scale(0.015625)"/>
       <path d="M 1959 3097 
Q 1497 3097 1228 2736 
Q 959 2375 959 1747 
Q 959 1119 1226 758 
Q 1494 397 1959 397 
Q 2419 397 2687 759 
Q 2956 1122 2956 1747 
Q 2956 2369 2687 2733 
Q 2419 3097 1959 3097 
z
M 1959 3584 
Q 2709 3584 3137 3096 
Q 3566 2609 3566 1747 
Q 3566 888 3137 398 
Q 2709 -91 1959 -91 
Q 1206 -91 779 398 
Q 353 888 353 1747 
Q 353 2609 779 3096 
Q 1206 3584 1959 3584 
z
" id="DejaVuSans-6f" transform="scale(0.015625)"/>
       <path d="M 3122 3366 
L 3122 2828 
Q 2878 2963 2633 3030 
Q 2388 3097 2138 3097 
Q 1578 3097 1268 2742 
Q 959 2388 959 1747 
Q 959 1106 1268 751 
Q 1578 397 2138 397 
Q 2388 397 2633 464 
Q 2878 531 3122 666 
L 3122 134 
Q 2881 22 2623 -34 
Q 2366 -91 2075 -91 
Q 1284 -91 818 406 
Q 353 903 353 1747 
Q 353 2603 823 3093 
Q 1294 3584 2113 3584 
Q 2378 3584 2631 3529 
Q 2884 3475 3122 3366 
z
" id="DejaVuSans-63" transform="scale(0.015625)"/>
      </defs>
      <use xlink:href="#DejaVuSans-41"/>
      <use x="68.408203" xlink:href="#DejaVuSans-75"/>
      <use x="131.787109" xlink:href="#DejaVuSans-72"/>
      <use x="170.650391" xlink:href="#DejaVuSans-6f"/>
      <use x="231.832031" xlink:href="#DejaVuSans-63"/>
     </g>
    </g>
   </g>
   <g id="matplotlib.axis_2">
    <g id="ytick_1">
     <g id="line2d_10">
      <path clip-path="url(#p3c02e5007d)" d="M 57.6 284.195383 
L 414.72 284.195383 
" style="fill:none;stroke:#cccccc;stroke-linecap:round;stroke-width:0.8;"/>
     </g>
     <g id="text_11">
      <!-- 0.45 -->
      <g style="fill:#262626;" transform="translate(28.334375 287.994602)scale(0.1 -0.1)">
       <defs>
        <path d="M 684 794 
L 1344 794 
L 1344 0 
L 684 0 
L 684 794 
z
" id="DejaVuSans-2e" transform="scale(0.015625)"/>
        <path d="M 2419 4116 
L 825 1625 
L 2419 1625 
L 2419 4116 
z
M 2253 4666 
L 3047 4666 
L 3047 1625 
L 3713 1625 
L 3713 1100 
L 3047 1100 
L 3047 0 
L 2419 0 
L 2419 1100 
L 313 1100 
L 313 1709 
L 2253 4666 
z
" id="DejaVuSans-34" transform="scale(0.015625)"/>
       </defs>
       <use xlink:href="#DejaVuSans-30"/>
       <use x="63.623047" xlink:href="#DejaVuSans-2e"/>
       <use x="95.410156" xlink:href="#DejaVuSans-34"/>
       <use x="159.033203" xlink:href="#DejaVuSans-35"/>
      </g>
     </g>
    </g>
    <g id="ytick_2">
     <g id="line2d_11">
      <path clip-path="url(#p3c02e5007d)" d="M 57.6 238.76402 
L 414.72 238.76402 
" style="fill:none;stroke:#cccccc;stroke-linecap:round;stroke-width:0.8;"/>
     </g>
     <g id="text_12">
      <!-- 0.50 -->
      <g style="fill:#262626;" transform="translate(28.334375 242.563239)scale(0.1 -0.1)">
       <use xlink:href="#DejaVuSans-30"/>
       <use x="63.623047" xlink:href="#DejaVuSans-2e"/>
       <use x="95.410156" xlink:href="#DejaVuSans-35"/>
       <use x="159.033203" xlink:href="#DejaVuSans-30"/>
      </g>
     </g>
    </g>
    <g id="ytick_3">
     <g id="line2d_12">
      <path clip-path="url(#p3c02e5007d)" d="M 57.6 193.332658 
L 414.72 193.332658 
" style="fill:none;stroke:#cccccc;stroke-linecap:round;stroke-width:0.8;"/>
     </g>
     <g id="text_13">
      <!-- 0.55 -->
      <g style="fill:#262626;" transform="translate(28.334375 197.131877)scale(0.1 -0.1)">
       <use xlink:href="#DejaVuSans-30"/>
       <use x="63.623047" xlink:href="#DejaVuSans-2e"/>
       <use x="95.410156" xlink:href="#DejaVuSans-35"/>
       <use x="159.033203" xlink:href="#DejaVuSans-35"/>
      </g>
     </g>
    </g>
    <g id="ytick_4">
     <g id="line2d_13">
      <path clip-path="url(#p3c02e5007d)" d="M 57.6 147.901295 
L 414.72 147.901295 
" style="fill:none;stroke:#cccccc;stroke-linecap:round;stroke-width:0.8;"/>
     </g>
     <g id="text_14">
      <!-- 0.60 -->
      <g style="fill:#262626;" transform="translate(28.334375 151.700514)scale(0.1 -0.1)">
       <defs>
        <path d="M 2113 2584 
Q 1688 2584 1439 2293 
Q 1191 2003 1191 1497 
Q 1191 994 1439 701 
Q 1688 409 2113 409 
Q 2538 409 2786 701 
Q 3034 994 3034 1497 
Q 3034 2003 2786 2293 
Q 2538 2584 2113 2584 
z
M 3366 4563 
L 3366 3988 
Q 3128 4100 2886 4159 
Q 2644 4219 2406 4219 
Q 1781 4219 1451 3797 
Q 1122 3375 1075 2522 
Q 1259 2794 1537 2939 
Q 1816 3084 2150 3084 
Q 2853 3084 3261 2657 
Q 3669 2231 3669 1497 
Q 3669 778 3244 343 
Q 2819 -91 2113 -91 
Q 1303 -91 875 529 
Q 447 1150 447 2328 
Q 447 3434 972 4092 
Q 1497 4750 2381 4750 
Q 2619 4750 2861 4703 
Q 3103 4656 3366 4563 
z
" id="DejaVuSans-36" transform="scale(0.015625)"/>
       </defs>
       <use xlink:href="#DejaVuSans-30"/>
       <use x="63.623047" xlink:href="#DejaVuSans-2e"/>
       <use x="95.410156" xlink:href="#DejaVuSans-36"/>
       <use x="159.033203" xlink:href="#DejaVuSans-30"/>
      </g>
     </g>
    </g>
    <g id="ytick_5">
     <g id="line2d_14">
      <path clip-path="url(#p3c02e5007d)" d="M 57.6 102.469933 
L 414.72 102.469933 
" style="fill:none;stroke:#cccccc;stroke-linecap:round;stroke-width:0.8;"/>
     </g>
     <g id="text_15">
      <!-- 0.65 -->
      <g style="fill:#262626;" transform="translate(28.334375 106.269152)scale(0.1 -0.1)">
       <use xlink:href="#DejaVuSans-30"/>
       <use x="63.623047" xlink:href="#DejaVuSans-2e"/>
       <use x="95.410156" xlink:href="#DejaVuSans-36"/>
       <use x="159.033203" xlink:href="#DejaVuSans-35"/>
      </g>
     </g>
    </g>
    <g id="ytick_6">
     <g id="line2d_15">
      <path clip-path="url(#p3c02e5007d)" d="M 57.6 57.03857 
L 414.72 57.03857 
" style="fill:none;stroke:#cccccc;stroke-linecap:round;stroke-width:0.8;"/>
     </g>
     <g id="text_16">
      <!-- 0.70 -->
      <g style="fill:#262626;" transform="translate(28.334375 60.837789)scale(0.1 -0.1)">
       <use xlink:href="#DejaVuSans-30"/>
       <use x="63.623047" xlink:href="#DejaVuSans-2e"/>
       <use x="95.410156" xlink:href="#DejaVuSans-37"/>
       <use x="159.033203" xlink:href="#DejaVuSans-30"/>
      </g>
     </g>
    </g>
    <g id="text_17">
     <!-- Iteration -->
     <g style="fill:#262626;" transform="translate(22.254687 195.736594)rotate(-90)scale(0.1 -0.1)">
      <defs>
       <path d="M 628 4666 
L 1259 4666 
L 1259 0 
L 628 0 
L 628 4666 
z
" id="DejaVuSans-49" transform="scale(0.015625)"/>
       <path d="M 1172 4494 
L 1172 3500 
L 2356 3500 
L 2356 3053 
L 1172 3053 
L 1172 1153 
Q 1172 725 1289 603 
Q 1406 481 1766 481 
L 2356 481 
L 2356 0 
L 1766 0 
Q 1100 0 847 248 
Q 594 497 594 1153 
L 594 3053 
L 172 3053 
L 172 3500 
L 594 3500 
L 594 4494 
L 1172 4494 
z
" id="DejaVuSans-74" transform="scale(0.015625)"/>
       <path d="M 3597 1894 
L 3597 1613 
L 953 1613 
Q 991 1019 1311 708 
Q 1631 397 2203 397 
Q 2534 397 2845 478 
Q 3156 559 3463 722 
L 3463 178 
Q 3153 47 2828 -22 
Q 2503 -91 2169 -91 
Q 1331 -91 842 396 
Q 353 884 353 1716 
Q 353 2575 817 3079 
Q 1281 3584 2069 3584 
Q 2775 3584 3186 3129 
Q 3597 2675 3597 1894 
z
M 3022 2063 
Q 3016 2534 2758 2815 
Q 2500 3097 2075 3097 
Q 1594 3097 1305 2825 
Q 1016 2553 972 2059 
L 3022 2063 
z
" id="DejaVuSans-65" transform="scale(0.015625)"/>
       <path d="M 2194 1759 
Q 1497 1759 1228 1600 
Q 959 1441 959 1056 
Q 959 750 1161 570 
Q 1363 391 1709 391 
Q 2188 391 2477 730 
Q 2766 1069 2766 1631 
L 2766 1759 
L 2194 1759 
z
M 3341 1997 
L 3341 0 
L 2766 0 
L 2766 531 
Q 2569 213 2275 61 
Q 1981 -91 1556 -91 
Q 1019 -91 701 211 
Q 384 513 384 1019 
Q 384 1609 779 1909 
Q 1175 2209 1959 2209 
L 2766 2209 
L 2766 2266 
Q 2766 2663 2505 2880 
Q 2244 3097 1772 3097 
Q 1472 3097 1187 3025 
Q 903 2953 641 2809 
L 641 3341 
Q 956 3463 1253 3523 
Q 1550 3584 1831 3584 
Q 2591 3584 2966 3190 
Q 3341 2797 3341 1997 
z
" id="DejaVuSans-61" transform="scale(0.015625)"/>
       <path d="M 603 3500 
L 1178 3500 
L 1178 0 
L 603 0 
L 603 3500 
z
M 603 4863 
L 1178 4863 
L 1178 4134 
L 603 4134 
L 603 4863 
z
" id="DejaVuSans-69" transform="scale(0.015625)"/>
       <path d="M 3513 2113 
L 3513 0 
L 2938 0 
L 2938 2094 
Q 2938 2591 2744 2837 
Q 2550 3084 2163 3084 
Q 1697 3084 1428 2787 
Q 1159 2491 1159 1978 
L 1159 0 
L 581 0 
L 581 3500 
L 1159 3500 
L 1159 2956 
Q 1366 3272 1645 3428 
Q 1925 3584 2291 3584 
Q 2894 3584 3203 3211 
Q 3513 2838 3513 2113 
z
" id="DejaVuSans-6e" transform="scale(0.015625)"/>
      </defs>
      <use xlink:href="#DejaVuSans-49"/>
      <use x="29.492188" xlink:href="#DejaVuSans-74"/>
      <use x="68.701172" xlink:href="#DejaVuSans-65"/>
      <use x="130.224609" xlink:href="#DejaVuSans-72"/>
      <use x="171.337891" xlink:href="#DejaVuSans-61"/>
      <use x="232.617188" xlink:href="#DejaVuSans-74"/>
      <use x="271.826172" xlink:href="#DejaVuSans-69"/>
      <use x="299.609375" xlink:href="#DejaVuSans-6f"/>
      <use x="360.791016" xlink:href="#DejaVuSans-6e"/>
     </g>
    </g>
   </g>
   <g id="PolyCollection_1">
    <defs>
     <path d="M 73.832727 -242.384154 
L 73.832727 -124.768637 
L 75.464157 -158.603282 
L 77.095587 -151.797662 
L 78.727017 -159.98904 
L 80.358447 -93.044216 
L 81.989877 -152.422241 
L 83.621307 -94.965679 
L 85.252736 -179.285166 
L 86.884166 -131.168147 
L 88.515596 -153.513975 
L 90.147026 -128.817994 
L 91.778456 -95.137928 
L 93.409886 -142.662998 
L 95.041316 -115.104428 
L 96.672746 -151.059972 
L 98.304175 -145.794083 
L 99.935605 -153.268507 
L 101.567035 -178.378231 
L 103.198465 -158.211961 
L 104.829895 -71.788799 
L 106.461325 -189.204245 
L 108.092755 -125.098548 
L 109.724185 -158.851297 
L 111.355614 -163.077339 
L 112.987044 -172.41538 
L 114.618474 -131.529373 
L 116.249904 -163.011155 
L 117.881334 -168.705247 
L 119.512764 -92.021296 
L 121.144194 -154.476508 
L 122.775624 -137.792746 
L 124.407053 -118.629413 
L 126.038483 -109.623425 
L 127.669913 -163.689584 
L 129.301343 -85.887188 
L 130.932773 -153.5955 
L 132.564203 -113.807663 
L 134.195633 -138.839323 
L 135.827063 -65.960446 
L 137.458492 -176.682433 
L 139.089922 -134.55095 
L 140.721352 -93.482882 
L 142.352782 -111.55267 
L 143.984212 -176.57199 
L 145.615642 -103.523176 
L 147.247072 -153.454525 
L 148.878502 -146.917342 
L 150.509931 -109.01325 
L 152.141361 -122.543051 
L 153.772791 -203.266765 
L 155.404221 -115.498587 
L 157.035651 -104.525947 
L 158.667081 -172.026478 
L 160.298511 -148.464807 
L 161.929941 -142.708797 
L 163.56137 -172.572166 
L 165.1928 -114.716872 
L 166.82423 -153.46544 
L 168.45566 -87.913432 
L 170.08709 -76.102769 
L 171.71852 -82.042805 
L 173.34995 -178.95798 
L 174.98138 -163.305923 
L 176.61281 -180.559889 
L 178.244239 -145.225419 
L 179.875669 -84.379877 
L 181.507099 -130.670793 
L 183.138529 -121.575895 
L 184.769959 -125.283092 
L 186.401389 -108.894452 
L 188.032819 -160.355634 
L 189.664249 -160.676724 
L 191.295678 -149.335201 
L 192.927108 -125.426523 
L 194.558538 -145.426494 
L 196.189968 -159.718809 
L 197.821398 -130.350903 
L 199.452828 -189.650427 
L 201.084258 -169.86745 
L 202.715688 -120.84371 
L 204.347117 -96.796496 
L 205.978547 -125.372922 
L 207.609977 -117.600656 
L 209.241407 -150.811685 
L 210.872837 -162.613949 
L 212.504267 -172.799116 
L 214.135697 -84.332589 
L 215.767127 -124.824293 
L 217.398556 -124.690116 
L 219.029986 -167.072175 
L 220.661416 -98.044218 
L 222.292846 -131.492707 
L 223.924276 -157.578661 
L 225.555706 -114.471068 
L 227.187136 -50.112 
L 228.818566 -175.666738 
L 230.449995 -100.434485 
L 232.081425 -136.225426 
L 233.712855 -99.316072 
L 235.344285 -157.427848 
L 236.975715 -82.224731 
L 238.607145 -149.415395 
L 240.238575 -119.797505 
L 241.870005 -100.471429 
L 243.501434 -142.692441 
L 245.132864 -150.249907 
L 246.764294 -136.981962 
L 248.395724 -123.263634 
L 250.027154 -160.50079 
L 251.658584 -106.024521 
L 253.290014 -72.449911 
L 254.921444 -97.993554 
L 256.552873 -138.62225 
L 258.184303 -95.505385 
L 259.815733 -143.725988 
L 261.447163 -112.789523 
L 263.078593 -92.442823 
L 264.710023 -186.944323 
L 266.341453 -113.611626 
L 267.972883 -117.631568 
L 269.604312 -87.416631 
L 271.235742 -161.082226 
L 272.867172 -139.233679 
L 274.498602 -137.296801 
L 276.130032 -189.691766 
L 277.761462 -110.69948 
L 279.392892 -148.879786 
L 281.024322 -175.527096 
L 282.655751 -169.128691 
L 284.287181 -80.499942 
L 285.918611 -104.048406 
L 287.550041 -147.915418 
L 289.181471 -169.760387 
L 290.812901 -145.457224 
L 292.444331 -77.483902 
L 294.075761 -108.89979 
L 295.70719 -138.513339 
L 297.33862 -122.659944 
L 298.97005 -154.303501 
L 300.60148 -146.174791 
L 302.23291 -146.744835 
L 303.86434 -111.708435 
L 305.49577 -144.766629 
L 307.1272 -145.982875 
L 308.75863 -91.822571 
L 310.390059 -158.138351 
L 312.021489 -164.494178 
L 313.652919 -170.615289 
L 315.284349 -115.03609 
L 316.915779 -88.275206 
L 318.547209 -129.679347 
L 320.178639 -121.052515 
L 321.810069 -150.485793 
L 323.441498 -113.264008 
L 325.072928 -100.561608 
L 326.704358 -182.788766 
L 328.335788 -137.968907 
L 329.967218 -126.080496 
L 331.598648 -151.925794 
L 333.230078 -168.150485 
L 334.861508 -149.361874 
L 336.492937 -162.670443 
L 338.124367 -160.761666 
L 339.755797 -109.319985 
L 341.387227 -173.42828 
L 343.018657 -132.021767 
L 344.650087 -178.194815 
L 346.281517 -157.307652 
L 347.912947 -167.891878 
L 349.544376 -153.529088 
L 351.175806 -102.78865 
L 352.807236 -72.033393 
L 354.438666 -110.746137 
L 356.070096 -154.611837 
L 357.701526 -155.395472 
L 359.332956 -137.35872 
L 360.964386 -87.497482 
L 362.595815 -175.711835 
L 364.227245 -188.06288 
L 365.858675 -121.947133 
L 367.490105 -128.698873 
L 369.121535 -165.952121 
L 370.752965 -88.411377 
L 372.384395 -145.311021 
L 374.015825 -151.096564 
L 375.647254 -126.323902 
L 377.278684 -123.434272 
L 378.910114 -191.688218 
L 380.541544 -137.778368 
L 382.172974 -192.787064 
L 383.804404 -127.83013 
L 385.435834 -105.64286 
L 387.067264 -117.072802 
L 388.698693 -167.200208 
L 390.330123 -155.923165 
L 391.961553 -132.7152 
L 393.592983 -155.202944 
L 395.224413 -78.896108 
L 396.855843 -124.69394 
L 398.487273 -142.348957 
L 398.487273 -192.957654 
L 398.487273 -192.957654 
L 396.855843 -227.635315 
L 395.224413 -208.265712 
L 393.592983 -230.586933 
L 391.961553 -198.409724 
L 390.330123 -211.309562 
L 388.698693 -244.96767 
L 387.067264 -200.421893 
L 385.435834 -222.670278 
L 383.804404 -207.191498 
L 382.172974 -242.9587 
L 380.541544 -206.57338 
L 378.910114 -240.651755 
L 377.278684 -232.930739 
L 375.647254 -243.985848 
L 374.015825 -222.337842 
L 372.384395 -219.279888 
L 370.752965 -229.563946 
L 369.121535 -236.191886 
L 367.490105 -180.801407 
L 365.858675 -201.469557 
L 364.227245 -236.272899 
L 362.595815 -218.773401 
L 360.964386 -210.675588 
L 359.332956 -275.096602 
L 357.701526 -237.535448 
L 356.070096 -272.542668 
L 354.438666 -223.947353 
L 352.807236 -244.324083 
L 351.175806 -191.809355 
L 349.544376 -187.294219 
L 347.912947 -261.103692 
L 346.281517 -242.098385 
L 344.650087 -241.614925 
L 343.018657 -235.290204 
L 341.387227 -245.956352 
L 339.755797 -195.044731 
L 338.124367 -266.688295 
L 336.492937 -209.94668 
L 334.861508 -243.563116 
L 333.230078 -212.00749 
L 331.598648 -226.416731 
L 329.967218 -243.478279 
L 328.335788 -229.945521 
L 326.704358 -264.286542 
L 325.072928 -211.505727 
L 323.441498 -253.207776 
L 321.810069 -194.037563 
L 320.178639 -209.197712 
L 318.547209 -221.517736 
L 316.915779 -269.891501 
L 315.284349 -197.260708 
L 313.652919 -253.092479 
L 312.021489 -224.55026 
L 310.390059 -221.305747 
L 308.75863 -181.079118 
L 307.1272 -234.233018 
L 305.49577 -220.829954 
L 303.86434 -243.470714 
L 302.23291 -225.670648 
L 300.60148 -246.172977 
L 298.97005 -180.547339 
L 297.33862 -287.745228 
L 295.70719 -218.959238 
L 294.075761 -235.163883 
L 292.444331 -214.172916 
L 290.812901 -216.902905 
L 289.181471 -205.77767 
L 287.550041 -220.563046 
L 285.918611 -232.562931 
L 284.287181 -171.540001 
L 282.655751 -222.865388 
L 281.024322 -270.427333 
L 279.392892 -230.385575 
L 277.761462 -249.361794 
L 276.130032 -218.65802 
L 274.498602 -238.416839 
L 272.867172 -228.251666 
L 271.235742 -210.475784 
L 269.604312 -214.952573 
L 267.972883 -221.811745 
L 266.341453 -207.494916 
L 264.710023 -260.931549 
L 263.078593 -205.680152 
L 261.447163 -204.43552 
L 259.815733 -179.935496 
L 258.184303 -195.593517 
L 256.552873 -231.624598 
L 254.921444 -221.151292 
L 253.290014 -217.06843 
L 251.658584 -167.270478 
L 250.027154 -259.884405 
L 248.395724 -208.761539 
L 246.764294 -210.085358 
L 245.132864 -231.197527 
L 243.501434 -193.76142 
L 241.870005 -235.434864 
L 240.238575 -239.213237 
L 238.607145 -256.519069 
L 236.975715 -195.799019 
L 235.344285 -218.371092 
L 233.712855 -224.500679 
L 232.081425 -194.85647 
L 230.449995 -199.02186 
L 228.818566 -235.553573 
L 227.187136 -187.949829 
L 225.555706 -189.95409 
L 223.924276 -218.752011 
L 222.292846 -237.164368 
L 220.661416 -187.696851 
L 219.029986 -227.315585 
L 217.398556 -187.796712 
L 215.767127 -221.557982 
L 214.135697 -212.588499 
L 212.504267 -225.020113 
L 210.872837 -228.888207 
L 209.241407 -250.204629 
L 207.609977 -233.531758 
L 205.978547 -226.702959 
L 204.347117 -213.534568 
L 202.715688 -233.568628 
L 201.084258 -216.287915 
L 199.452828 -284.90477 
L 197.821398 -250.967951 
L 196.189968 -247.120573 
L 194.558538 -280.259562 
L 192.927108 -180.120523 
L 191.295678 -247.506618 
L 189.664249 -248.00284 
L 188.032819 -236.703787 
L 186.401389 -184.432643 
L 184.769959 -246.01719 
L 183.138529 -191.846009 
L 181.507099 -209.08091 
L 179.875669 -221.011397 
L 178.244239 -201.165627 
L 176.61281 -214.626417 
L 174.98138 -198.57629 
L 173.34995 -237.987355 
L 171.71852 -189.385514 
L 170.08709 -209.24726 
L 168.45566 -218.144527 
L 166.82423 -221.14404 
L 165.1928 -260.691533 
L 163.56137 -249.870875 
L 161.929941 -217.083835 
L 160.298511 -258.480253 
L 158.667081 -252.249111 
L 157.035651 -177.45684 
L 155.404221 -230.162556 
L 153.772791 -270.013106 
L 152.141361 -229.780526 
L 150.509931 -223.829459 
L 148.878502 -241.655173 
L 147.247072 -240.438284 
L 145.615642 -248.561916 
L 143.984212 -248.983784 
L 142.352782 -205.04512 
L 140.721352 -277.194059 
L 139.089922 -210.467104 
L 137.458492 -247.922871 
L 135.827063 -200.7207 
L 134.195633 -211.708866 
L 132.564203 -210.745679 
L 130.932773 -262.731667 
L 129.301343 -220.598277 
L 127.669913 -242.007531 
L 126.038483 -202.051041 
L 124.407053 -241.561892 
L 122.775624 -191.94007 
L 121.144194 -237.668864 
L 119.512764 -191.779781 
L 117.881334 -190.832622 
L 116.249904 -229.383995 
L 114.618474 -247.687092 
L 112.987044 -241.693373 
L 111.355614 -240.362309 
L 109.724185 -192.178846 
L 108.092755 -213.945271 
L 106.461325 -260.175344 
L 104.829895 -212.978016 
L 103.198465 -189.320215 
L 101.567035 -256.046907 
L 99.935605 -196.041391 
L 98.304175 -261.877409 
L 96.672746 -195.739211 
L 95.041316 -221.720284 
L 93.409886 -276.171351 
L 91.778456 -198.198694 
L 90.147026 -207.041611 
L 88.515596 -217.214323 
L 86.884166 -223.443244 
L 85.252736 -292.032 
L 83.621307 -248.584873 
L 81.989877 -226.634224 
L 80.358447 -201.75852 
L 78.727017 -218.183076 
L 77.095587 -212.031862 
L 75.464157 -207.416391 
L 73.832727 -242.384154 
z
" id="mb999c3c8d5" style="stroke:#ffffff;stroke-opacity:0.2;"/>
    </defs>
    <g clip-path="url(#p3c02e5007d)">
     <use style="fill:#1f77b4;fill-opacity:0.2;stroke:#ffffff;stroke-opacity:0.2;" x="0" xlink:href="#mb999c3c8d5" y="345.6"/>
    </g>
   </g>
   <g id="line2d_16">
    <path clip-path="url(#p3c02e5007d)" d="M 73.832727 162.023604 
L 75.464157 162.590164 
L 77.095587 163.685238 
L 78.727017 156.513942 
L 80.358447 198.198632 
L 81.989877 156.071767 
L 83.621307 173.824724 
L 85.252736 109.941417 
L 86.884166 168.294305 
L 88.515596 160.235851 
L 90.147026 177.670197 
L 91.778456 198.931689 
L 93.409886 136.182825 
L 95.041316 177.187644 
L 96.672746 172.200409 
L 98.304175 141.764254 
L 99.935605 170.945051 
L 101.567035 128.387431 
L 103.198465 171.833912 
L 104.829895 203.216593 
L 106.461325 120.910206 
L 108.092755 176.07809 
L 109.724185 170.084928 
L 111.355614 143.880176 
L 112.987044 138.545623 
L 114.618474 155.991768 
L 116.249904 149.402425 
L 117.881334 165.831065 
L 119.512764 203.699462 
L 121.144194 149.527314 
L 122.775624 180.733592 
L 124.407053 165.504347 
L 126.038483 189.762767 
L 127.669913 142.751442 
L 129.301343 192.357268 
L 130.932773 137.436416 
L 132.564203 183.323329 
L 134.195633 170.325905 
L 135.827063 212.259427 
L 137.458492 133.297348 
L 139.089922 173.090973 
L 140.721352 160.261529 
L 142.352782 187.301105 
L 143.984212 132.822113 
L 145.615642 169.557454 
L 147.247072 148.653595 
L 148.878502 151.313742 
L 150.509931 179.178646 
L 152.141361 169.438212 
L 153.772791 108.960064 
L 155.404221 172.769429 
L 157.035651 204.608606 
L 158.667081 133.462205 
L 160.298511 142.12747 
L 161.929941 165.703684 
L 163.56137 134.378479 
L 165.1928 157.895798 
L 166.82423 158.29526 
L 168.45566 192.571021 
L 170.08709 202.924985 
L 171.71852 209.88584 
L 173.34995 137.127333 
L 174.98138 164.658893 
L 176.61281 148.006847 
L 178.244239 172.404477 
L 179.875669 192.904363 
L 181.507099 175.724148 
L 183.138529 188.889048 
L 184.769959 159.949859 
L 186.401389 198.936452 
L 188.032819 147.070289 
L 189.664249 141.260218 
L 191.295678 147.17909 
L 192.927108 192.826477 
L 194.558538 132.756972 
L 196.189968 142.180309 
L 197.821398 154.940573 
L 199.452828 108.322401 
L 201.084258 152.522318 
L 202.715688 168.393831 
L 204.347117 190.434468 
L 205.978547 169.56206 
L 207.609977 170.033793 
L 209.241407 145.091843 
L 210.872837 149.848922 
L 212.504267 146.690385 
L 214.135697 197.139456 
L 215.767127 172.408862 
L 217.398556 189.356586 
L 219.029986 148.40612 
L 220.661416 202.729465 
L 222.292846 161.271462 
L 223.924276 157.434664 
L 225.555706 193.387421 
L 227.187136 226.569085 
L 228.818566 139.989845 
L 230.449995 195.871827 
L 232.081425 180.059052 
L 233.712855 183.691624 
L 235.344285 157.70053 
L 236.975715 206.588125 
L 238.607145 142.632768 
L 240.238575 166.094629 
L 241.870005 177.646854 
L 243.501434 177.373069 
L 245.132864 154.876283 
L 246.764294 172.06634 
L 248.395724 179.587414 
L 250.027154 135.407403 
L 251.658584 208.9525 
L 253.290014 200.84083 
L 254.921444 186.027577 
L 256.552873 160.476576 
L 258.184303 200.050549 
L 259.815733 183.769258 
L 261.447163 186.987478 
L 263.078593 196.538512 
L 264.710023 121.662064 
L 266.341453 185.046729 
L 267.972883 175.878343 
L 269.604312 194.415398 
L 271.235742 159.820995 
L 272.867172 161.857327 
L 274.498602 157.74318 
L 276.130032 141.425107 
L 277.761462 165.569363 
L 279.392892 155.96732 
L 281.024322 122.622785 
L 282.655751 149.60296 
L 284.287181 219.580028 
L 285.918611 177.294331 
L 287.550041 161.360768 
L 289.181471 157.830971 
L 290.812901 164.419935 
L 292.444331 199.771591 
L 294.075761 173.568163 
L 295.70719 166.863711 
L 297.33862 140.397414 
L 298.97005 178.17458 
L 300.60148 149.426116 
L 302.23291 159.392259 
L 303.86434 168.010426 
L 305.49577 162.801708 
L 307.1272 155.492053 
L 308.75863 209.149156 
L 310.390059 155.877951 
L 312.021489 151.077781 
L 313.652919 133.746116 
L 315.284349 189.451601 
L 316.915779 166.516646 
L 318.547209 170.001459 
L 320.178639 180.474886 
L 321.810069 173.338322 
L 323.441498 162.364108 
L 325.072928 189.566332 
L 326.704358 122.062346 
L 328.335788 161.642786 
L 329.967218 160.820612 
L 331.598648 156.428737 
L 333.230078 155.521012 
L 334.861508 149.137505 
L 336.492937 159.291439 
L 338.124367 131.875019 
L 339.755797 193.417642 
L 341.387227 135.907684 
L 343.018657 161.944015 
L 344.650087 135.69513 
L 346.281517 145.896982 
L 347.912947 131.102215 
L 349.544376 175.188346 
L 351.175806 198.300997 
L 352.807236 187.421262 
L 354.438666 178.253255 
L 356.070096 132.022747 
L 357.701526 149.13454 
L 359.332956 139.372339 
L 360.964386 196.513465 
L 362.595815 148.357382 
L 364.227245 133.432111 
L 365.858675 183.891655 
L 367.490105 190.84986 
L 369.121535 144.527997 
L 370.752965 186.612338 
L 372.384395 163.304546 
L 374.015825 158.882797 
L 375.647254 160.445125 
L 377.278684 167.417494 
L 378.910114 129.430013 
L 380.541544 173.424126 
L 382.172974 127.727118 
L 383.804404 178.089186 
L 385.435834 181.443431 
L 387.067264 186.852653 
L 388.698693 139.516061 
L 390.330123 161.983636 
L 391.961553 180.037538 
L 393.592983 152.705062 
L 395.224413 202.01909 
L 396.855843 169.435373 
L 398.487273 177.946695 
L 398.487273 177.946695 
" style="fill:none;stroke:#1f77b4;stroke-linecap:round;stroke-width:1.5;"/>
   </g>
   <g id="patch_3">
    <path d="M 57.6 307.584 
L 57.6 41.472 
" style="fill:none;stroke:#cccccc;stroke-linecap:square;stroke-linejoin:miter;stroke-width:0.8;"/>
   </g>
   <g id="patch_4">
    <path d="M 414.72 307.584 
L 414.72 41.472 
" style="fill:none;stroke:#cccccc;stroke-linecap:square;stroke-linejoin:miter;stroke-width:0.8;"/>
   </g>
   <g id="patch_5">
    <path d="M 57.6 307.584 
L 414.72 307.584 
" style="fill:none;stroke:#cccccc;stroke-linecap:square;stroke-linejoin:miter;stroke-width:0.8;"/>
   </g>
   <g id="patch_6">
    <path d="M 57.6 41.472 
L 414.72 41.472 
" style="fill:none;stroke:#cccccc;stroke-linecap:square;stroke-linejoin:miter;stroke-width:0.8;"/>
   </g>
   <g id="text_18">
    <!-- Model performance vs. # of iterations -->
    <g style="fill:#262626;" transform="translate(122.314688 35.472)scale(0.12 -0.12)">
     <defs>
      <path d="M 628 4666 
L 1569 4666 
L 2759 1491 
L 3956 4666 
L 4897 4666 
L 4897 0 
L 4281 0 
L 4281 4097 
L 3078 897 
L 2444 897 
L 1241 4097 
L 1241 0 
L 628 0 
L 628 4666 
z
" id="DejaVuSans-4d" transform="scale(0.015625)"/>
      <path d="M 2906 2969 
L 2906 4863 
L 3481 4863 
L 3481 0 
L 2906 0 
L 2906 525 
Q 2725 213 2448 61 
Q 2172 -91 1784 -91 
Q 1150 -91 751 415 
Q 353 922 353 1747 
Q 353 2572 751 3078 
Q 1150 3584 1784 3584 
Q 2172 3584 2448 3432 
Q 2725 3281 2906 2969 
z
M 947 1747 
Q 947 1113 1208 752 
Q 1469 391 1925 391 
Q 2381 391 2643 752 
Q 2906 1113 2906 1747 
Q 2906 2381 2643 2742 
Q 2381 3103 1925 3103 
Q 1469 3103 1208 2742 
Q 947 2381 947 1747 
z
" id="DejaVuSans-64" transform="scale(0.015625)"/>
      <path d="M 603 4863 
L 1178 4863 
L 1178 0 
L 603 0 
L 603 4863 
z
" id="DejaVuSans-6c" transform="scale(0.015625)"/>
      <path id="DejaVuSans-20" transform="scale(0.015625)"/>
      <path d="M 1159 525 
L 1159 -1331 
L 581 -1331 
L 581 3500 
L 1159 3500 
L 1159 2969 
Q 1341 3281 1617 3432 
Q 1894 3584 2278 3584 
Q 2916 3584 3314 3078 
Q 3713 2572 3713 1747 
Q 3713 922 3314 415 
Q 2916 -91 2278 -91 
Q 1894 -91 1617 61 
Q 1341 213 1159 525 
z
M 3116 1747 
Q 3116 2381 2855 2742 
Q 2594 3103 2138 3103 
Q 1681 3103 1420 2742 
Q 1159 2381 1159 1747 
Q 1159 1113 1420 752 
Q 1681 391 2138 391 
Q 2594 391 2855 752 
Q 3116 1113 3116 1747 
z
" id="DejaVuSans-70" transform="scale(0.015625)"/>
      <path d="M 2375 4863 
L 2375 4384 
L 1825 4384 
Q 1516 4384 1395 4259 
Q 1275 4134 1275 3809 
L 1275 3500 
L 2222 3500 
L 2222 3053 
L 1275 3053 
L 1275 0 
L 697 0 
L 697 3053 
L 147 3053 
L 147 3500 
L 697 3500 
L 697 3744 
Q 697 4328 969 4595 
Q 1241 4863 1831 4863 
L 2375 4863 
z
" id="DejaVuSans-66" transform="scale(0.015625)"/>
      <path d="M 3328 2828 
Q 3544 3216 3844 3400 
Q 4144 3584 4550 3584 
Q 5097 3584 5394 3201 
Q 5691 2819 5691 2113 
L 5691 0 
L 5113 0 
L 5113 2094 
Q 5113 2597 4934 2840 
Q 4756 3084 4391 3084 
Q 3944 3084 3684 2787 
Q 3425 2491 3425 1978 
L 3425 0 
L 2847 0 
L 2847 2094 
Q 2847 2600 2669 2842 
Q 2491 3084 2119 3084 
Q 1678 3084 1418 2786 
Q 1159 2488 1159 1978 
L 1159 0 
L 581 0 
L 581 3500 
L 1159 3500 
L 1159 2956 
Q 1356 3278 1631 3431 
Q 1906 3584 2284 3584 
Q 2666 3584 2933 3390 
Q 3200 3197 3328 2828 
z
" id="DejaVuSans-6d" transform="scale(0.015625)"/>
      <path d="M 191 3500 
L 800 3500 
L 1894 563 
L 2988 3500 
L 3597 3500 
L 2284 0 
L 1503 0 
L 191 3500 
z
" id="DejaVuSans-76" transform="scale(0.015625)"/>
      <path d="M 2834 3397 
L 2834 2853 
Q 2591 2978 2328 3040 
Q 2066 3103 1784 3103 
Q 1356 3103 1142 2972 
Q 928 2841 928 2578 
Q 928 2378 1081 2264 
Q 1234 2150 1697 2047 
L 1894 2003 
Q 2506 1872 2764 1633 
Q 3022 1394 3022 966 
Q 3022 478 2636 193 
Q 2250 -91 1575 -91 
Q 1294 -91 989 -36 
Q 684 19 347 128 
L 347 722 
Q 666 556 975 473 
Q 1284 391 1588 391 
Q 1994 391 2212 530 
Q 2431 669 2431 922 
Q 2431 1156 2273 1281 
Q 2116 1406 1581 1522 
L 1381 1569 
Q 847 1681 609 1914 
Q 372 2147 372 2553 
Q 372 3047 722 3315 
Q 1072 3584 1716 3584 
Q 2034 3584 2315 3537 
Q 2597 3491 2834 3397 
z
" id="DejaVuSans-73" transform="scale(0.015625)"/>
      <path d="M 3272 2816 
L 2363 2816 
L 2100 1772 
L 3016 1772 
L 3272 2816 
z
M 2803 4594 
L 2478 3297 
L 3391 3297 
L 3719 4594 
L 4219 4594 
L 3897 3297 
L 4872 3297 
L 4872 2816 
L 3775 2816 
L 3519 1772 
L 4513 1772 
L 4513 1294 
L 3397 1294 
L 3072 0 
L 2572 0 
L 2894 1294 
L 1978 1294 
L 1656 0 
L 1153 0 
L 1478 1294 
L 494 1294 
L 494 1772 
L 1594 1772 
L 1856 2816 
L 850 2816 
L 850 3297 
L 1978 3297 
L 2297 4594 
L 2803 4594 
z
" id="DejaVuSans-23" transform="scale(0.015625)"/>
     </defs>
     <use xlink:href="#DejaVuSans-4d"/>
     <use x="86.279297" xlink:href="#DejaVuSans-6f"/>
     <use x="147.460938" xlink:href="#DejaVuSans-64"/>
     <use x="210.9375" xlink:href="#DejaVuSans-65"/>
     <use x="272.460938" xlink:href="#DejaVuSans-6c"/>
     <use x="300.244141" xlink:href="#DejaVuSans-20"/>
     <use x="332.03125" xlink:href="#DejaVuSans-70"/>
     <use x="395.507812" xlink:href="#DejaVuSans-65"/>
     <use x="457.03125" xlink:href="#DejaVuSans-72"/>
     <use x="498.144531" xlink:href="#DejaVuSans-66"/>
     <use x="533.349609" xlink:href="#DejaVuSans-6f"/>
     <use x="594.53125" xlink:href="#DejaVuSans-72"/>
     <use x="633.894531" xlink:href="#DejaVuSans-6d"/>
     <use x="731.306641" xlink:href="#DejaVuSans-61"/>
     <use x="792.585938" xlink:href="#DejaVuSans-6e"/>
     <use x="855.964844" xlink:href="#DejaVuSans-63"/>
     <use x="910.945312" xlink:href="#DejaVuSans-65"/>
     <use x="972.46875" xlink:href="#DejaVuSans-20"/>
     <use x="1004.255859" xlink:href="#DejaVuSans-76"/>
     <use x="1063.435547" xlink:href="#DejaVuSans-73"/>
     <use x="1115.535156" xlink:href="#DejaVuSans-2e"/>
     <use x="1147.322266" xlink:href="#DejaVuSans-20"/>
     <use x="1179.109375" xlink:href="#DejaVuSans-23"/>
     <use x="1262.898438" xlink:href="#DejaVuSans-20"/>
     <use x="1294.685547" xlink:href="#DejaVuSans-6f"/>
     <use x="1355.867188" xlink:href="#DejaVuSans-66"/>
     <use x="1391.072266" xlink:href="#DejaVuSans-20"/>
     <use x="1422.859375" xlink:href="#DejaVuSans-69"/>
     <use x="1450.642578" xlink:href="#DejaVuSans-74"/>
     <use x="1489.851562" xlink:href="#DejaVuSans-65"/>
     <use x="1551.375" xlink:href="#DejaVuSans-72"/>
     <use x="1592.488281" xlink:href="#DejaVuSans-61"/>
     <use x="1653.767578" xlink:href="#DejaVuSans-74"/>
     <use x="1692.976562" xlink:href="#DejaVuSans-69"/>
     <use x="1720.759766" xlink:href="#DejaVuSans-6f"/>
     <use x="1781.941406" xlink:href="#DejaVuSans-6e"/>
     <use x="1845.320312" xlink:href="#DejaVuSans-73"/>
    </g>
   </g>
  </g>
 </g>
 <defs>
  <clipPath id="p3c02e5007d">
   <rect height="266.112" width="357.12" x="57.6" y="41.472"/>
  </clipPath>
 </defs>
</svg>
