<?xml version="1.0" encoding="utf-8" standalone="no"?>
<!DOCTYPE svg PUBLIC "-//W3C//DTD SVG 1.1//EN"
  "http://www.w3.org/Graphics/SVG/1.1/DTD/svg11.dtd">
<svg height="345.6pt" version="1.1" viewBox="0 0 460.8 345.6" width="460.8pt" xmlns="http://www.w3.org/2000/svg" xmlns:xlink="http://www.w3.org/1999/xlink">
 <metadata>
  <rdf:RDF xmlns:cc="http://creativecommons.org/ns#" xmlns:dc="http://purl.org/dc/elements/1.1/" xmlns:rdf="http://www.w3.org/1999/02/22-rdf-syntax-ns#">
   <cc:Work>
    <dc:type rdf:resource="http://purl.org/dc/dcmitype/StillImage"/>
    <dc:date>2022-01-22T15:22:14.083274</dc:date>
    <dc:format>image/svg+xml</dc:format>
    <dc:creator>
     <cc:Agent>
      <dc:title>Matplotlib v3.4.3, https://matplotlib.org/</dc:title>
     </cc:Agent>
    </dc:creator>
   </cc:Work>
  </rdf:RDF>
 </metadata>
 <defs>
  <style type="text/css">*{stroke-linecap:butt;stroke-linejoin:round;}</style>
 </defs>
 <g id="figure_1">
  <g id="patch_1">
   <path d="M 0 345.6 
L 460.8 345.6 
L 460.8 0 
L 0 0 
z
" style="fill:#ffffff;"/>
  </g>
  <g id="axes_1">
   <g id="patch_2">
    <path d="M 57.6 307.584 
L 414.72 307.584 
L 414.72 41.472 
L 57.6 41.472 
z
" style="fill:#ffffff;"/>
   </g>
   <g id="matplotlib.axis_1">
    <g id="xtick_1">
     <g id="line2d_1">
      <path clip-path="url(#p1c164f4157)" d="M 72.201297 307.584 
L 72.201297 41.472 
" style="fill:none;stroke:#cccccc;stroke-linecap:round;stroke-width:0.8;"/>
     </g>
     <g id="text_1">
      <!-- 0 -->
      <g style="fill:#262626;" transform="translate(69.020047 322.182437)scale(0.1 -0.1)">
       <defs>
        <path d="M 2034 4250 
Q 1547 4250 1301 3770 
Q 1056 3291 1056 2328 
Q 1056 1369 1301 889 
Q 1547 409 2034 409 
Q 2525 409 2770 889 
Q 3016 1369 3016 2328 
Q 3016 3291 2770 3770 
Q 2525 4250 2034 4250 
z
M 2034 4750 
Q 2819 4750 3233 4129 
Q 3647 3509 3647 2328 
Q 3647 1150 3233 529 
Q 2819 -91 2034 -91 
Q 1250 -91 836 529 
Q 422 1150 422 2328 
Q 422 3509 836 4129 
Q 1250 4750 2034 4750 
z
" id="DejaVuSans-30" transform="scale(0.015625)"/>
       </defs>
       <use xlink:href="#DejaVuSans-30"/>
      </g>
     </g>
    </g>
    <g id="xtick_2">
     <g id="line2d_2">
      <path clip-path="url(#p1c164f4157)" d="M 112.987044 307.584 
L 112.987044 41.472 
" style="fill:none;stroke:#cccccc;stroke-linecap:round;stroke-width:0.8;"/>
     </g>
     <g id="text_2">
      <!-- 25 -->
      <g style="fill:#262626;" transform="translate(106.624544 322.182437)scale(0.1 -0.1)">
       <defs>
        <path d="M 1228 531 
L 3431 531 
L 3431 0 
L 469 0 
L 469 531 
Q 828 903 1448 1529 
Q 2069 2156 2228 2338 
Q 2531 2678 2651 2914 
Q 2772 3150 2772 3378 
Q 2772 3750 2511 3984 
Q 2250 4219 1831 4219 
Q 1534 4219 1204 4116 
Q 875 4013 500 3803 
L 500 4441 
Q 881 4594 1212 4672 
Q 1544 4750 1819 4750 
Q 2544 4750 2975 4387 
Q 3406 4025 3406 3419 
Q 3406 3131 3298 2873 
Q 3191 2616 2906 2266 
Q 2828 2175 2409 1742 
Q 1991 1309 1228 531 
z
" id="DejaVuSans-32" transform="scale(0.015625)"/>
        <path d="M 691 4666 
L 3169 4666 
L 3169 4134 
L 1269 4134 
L 1269 2991 
Q 1406 3038 1543 3061 
Q 1681 3084 1819 3084 
Q 2600 3084 3056 2656 
Q 3513 2228 3513 1497 
Q 3513 744 3044 326 
Q 2575 -91 1722 -91 
Q 1428 -91 1123 -41 
Q 819 9 494 109 
L 494 744 
Q 775 591 1075 516 
Q 1375 441 1709 441 
Q 2250 441 2565 725 
Q 2881 1009 2881 1497 
Q 2881 1984 2565 2268 
Q 2250 2553 1709 2553 
Q 1456 2553 1204 2497 
Q 953 2441 691 2322 
L 691 4666 
z
" id="DejaVuSans-35" transform="scale(0.015625)"/>
       </defs>
       <use xlink:href="#DejaVuSans-32"/>
       <use x="63.623047" xlink:href="#DejaVuSans-35"/>
      </g>
     </g>
    </g>
    <g id="xtick_3">
     <g id="line2d_3">
      <path clip-path="url(#p1c164f4157)" d="M 153.772791 307.584 
L 153.772791 41.472 
" style="fill:none;stroke:#cccccc;stroke-linecap:round;stroke-width:0.8;"/>
     </g>
     <g id="text_3">
      <!-- 50 -->
      <g style="fill:#262626;" transform="translate(147.410291 322.182437)scale(0.1 -0.1)">
       <use xlink:href="#DejaVuSans-35"/>
       <use x="63.623047" xlink:href="#DejaVuSans-30"/>
      </g>
     </g>
    </g>
    <g id="xtick_4">
     <g id="line2d_4">
      <path clip-path="url(#p1c164f4157)" d="M 194.558538 307.584 
L 194.558538 41.472 
" style="fill:none;stroke:#cccccc;stroke-linecap:round;stroke-width:0.8;"/>
     </g>
     <g id="text_4">
      <!-- 75 -->
      <g style="fill:#262626;" transform="translate(188.196038 322.182437)scale(0.1 -0.1)">
       <defs>
        <path d="M 525 4666 
L 3525 4666 
L 3525 4397 
L 1831 0 
L 1172 0 
L 2766 4134 
L 525 4134 
L 525 4666 
z
" id="DejaVuSans-37" transform="scale(0.015625)"/>
       </defs>
       <use xlink:href="#DejaVuSans-37"/>
       <use x="63.623047" xlink:href="#DejaVuSans-35"/>
      </g>
     </g>
    </g>
    <g id="xtick_5">
     <g id="line2d_5">
      <path clip-path="url(#p1c164f4157)" d="M 235.344285 307.584 
L 235.344285 41.472 
" style="fill:none;stroke:#cccccc;stroke-linecap:round;stroke-width:0.8;"/>
     </g>
     <g id="text_5">
      <!-- 100 -->
      <g style="fill:#262626;" transform="translate(225.800535 322.182437)scale(0.1 -0.1)">
       <defs>
        <path d="M 794 531 
L 1825 531 
L 1825 4091 
L 703 3866 
L 703 4441 
L 1819 4666 
L 2450 4666 
L 2450 531 
L 3481 531 
L 3481 0 
L 794 0 
L 794 531 
z
" id="DejaVuSans-31" transform="scale(0.015625)"/>
       </defs>
       <use xlink:href="#DejaVuSans-31"/>
       <use x="63.623047" xlink:href="#DejaVuSans-30"/>
       <use x="127.246094" xlink:href="#DejaVuSans-30"/>
      </g>
     </g>
    </g>
    <g id="xtick_6">
     <g id="line2d_6">
      <path clip-path="url(#p1c164f4157)" d="M 276.130032 307.584 
L 276.130032 41.472 
" style="fill:none;stroke:#cccccc;stroke-linecap:round;stroke-width:0.8;"/>
     </g>
     <g id="text_6">
      <!-- 125 -->
      <g style="fill:#262626;" transform="translate(266.586282 322.182437)scale(0.1 -0.1)">
       <use xlink:href="#DejaVuSans-31"/>
       <use x="63.623047" xlink:href="#DejaVuSans-32"/>
       <use x="127.246094" xlink:href="#DejaVuSans-35"/>
      </g>
     </g>
    </g>
    <g id="xtick_7">
     <g id="line2d_7">
      <path clip-path="url(#p1c164f4157)" d="M 316.915779 307.584 
L 316.915779 41.472 
" style="fill:none;stroke:#cccccc;stroke-linecap:round;stroke-width:0.8;"/>
     </g>
     <g id="text_7">
      <!-- 150 -->
      <g style="fill:#262626;" transform="translate(307.372029 322.182437)scale(0.1 -0.1)">
       <use xlink:href="#DejaVuSans-31"/>
       <use x="63.623047" xlink:href="#DejaVuSans-35"/>
       <use x="127.246094" xlink:href="#DejaVuSans-30"/>
      </g>
     </g>
    </g>
    <g id="xtick_8">
     <g id="line2d_8">
      <path clip-path="url(#p1c164f4157)" d="M 357.701526 307.584 
L 357.701526 41.472 
" style="fill:none;stroke:#cccccc;stroke-linecap:round;stroke-width:0.8;"/>
     </g>
     <g id="text_8">
      <!-- 175 -->
      <g style="fill:#262626;" transform="translate(348.157776 322.182437)scale(0.1 -0.1)">
       <use xlink:href="#DejaVuSans-31"/>
       <use x="63.623047" xlink:href="#DejaVuSans-37"/>
       <use x="127.246094" xlink:href="#DejaVuSans-35"/>
      </g>
     </g>
    </g>
    <g id="xtick_9">
     <g id="line2d_9">
      <path clip-path="url(#p1c164f4157)" d="M 398.487273 307.584 
L 398.487273 41.472 
" style="fill:none;stroke:#cccccc;stroke-linecap:round;stroke-width:0.8;"/>
     </g>
     <g id="text_9">
      <!-- 200 -->
      <g style="fill:#262626;" transform="translate(388.943523 322.182437)scale(0.1 -0.1)">
       <use xlink:href="#DejaVuSans-32"/>
       <use x="63.623047" xlink:href="#DejaVuSans-30"/>
       <use x="127.246094" xlink:href="#DejaVuSans-30"/>
      </g>
     </g>
    </g>
    <g id="text_10">
     <!-- Auroc -->
     <g style="fill:#262626;" transform="translate(221.819375 335.860562)scale(0.1 -0.1)">
      <defs>
       <path d="M 2188 4044 
L 1331 1722 
L 3047 1722 
L 2188 4044 
z
M 1831 4666 
L 2547 4666 
L 4325 0 
L 3669 0 
L 3244 1197 
L 1141 1197 
L 716 0 
L 50 0 
L 1831 4666 
z
" id="DejaVuSans-41" transform="scale(0.015625)"/>
       <path d="M 544 1381 
L 544 3500 
L 1119 3500 
L 1119 1403 
Q 1119 906 1312 657 
Q 1506 409 1894 409 
Q 2359 409 2629 706 
Q 2900 1003 2900 1516 
L 2900 3500 
L 3475 3500 
L 3475 0 
L 2900 0 
L 2900 538 
Q 2691 219 2414 64 
Q 2138 -91 1772 -91 
Q 1169 -91 856 284 
Q 544 659 544 1381 
z
M 1991 3584 
L 1991 3584 
z
" id="DejaVuSans-75" transform="scale(0.015625)"/>
       <path d="M 2631 2963 
Q 2534 3019 2420 3045 
Q 2306 3072 2169 3072 
Q 1681 3072 1420 2755 
Q 1159 2438 1159 1844 
L 1159 0 
L 581 0 
L 581 3500 
L 1159 3500 
L 1159 2956 
Q 1341 3275 1631 3429 
Q 1922 3584 2338 3584 
Q 2397 3584 2469 3576 
Q 2541 3569 2628 3553 
L 2631 2963 
z
" id="DejaVuSans-72" transform="scale(0.015625)"/>
       <path d="M 1959 3097 
Q 1497 3097 1228 2736 
Q 959 2375 959 1747 
Q 959 1119 1226 758 
Q 1494 397 1959 397 
Q 2419 397 2687 759 
Q 2956 1122 2956 1747 
Q 2956 2369 2687 2733 
Q 2419 3097 1959 3097 
z
M 1959 3584 
Q 2709 3584 3137 3096 
Q 3566 2609 3566 1747 
Q 3566 888 3137 398 
Q 2709 -91 1959 -91 
Q 1206 -91 779 398 
Q 353 888 353 1747 
Q 353 2609 779 3096 
Q 1206 3584 1959 3584 
z
" id="DejaVuSans-6f" transform="scale(0.015625)"/>
       <path d="M 3122 3366 
L 3122 2828 
Q 2878 2963 2633 3030 
Q 2388 3097 2138 3097 
Q 1578 3097 1268 2742 
Q 959 2388 959 1747 
Q 959 1106 1268 751 
Q 1578 397 2138 397 
Q 2388 397 2633 464 
Q 2878 531 3122 666 
L 3122 134 
Q 2881 22 2623 -34 
Q 2366 -91 2075 -91 
Q 1284 -91 818 406 
Q 353 903 353 1747 
Q 353 2603 823 3093 
Q 1294 3584 2113 3584 
Q 2378 3584 2631 3529 
Q 2884 3475 3122 3366 
z
" id="DejaVuSans-63" transform="scale(0.015625)"/>
      </defs>
      <use xlink:href="#DejaVuSans-41"/>
      <use x="68.408203" xlink:href="#DejaVuSans-75"/>
      <use x="131.787109" xlink:href="#DejaVuSans-72"/>
      <use x="170.650391" xlink:href="#DejaVuSans-6f"/>
      <use x="231.832031" xlink:href="#DejaVuSans-63"/>
     </g>
    </g>
   </g>
   <g id="matplotlib.axis_2">
    <g id="ytick_1">
     <g id="line2d_10">
      <path clip-path="url(#p1c164f4157)" d="M 57.6 279.798128 
L 414.72 279.798128 
" style="fill:none;stroke:#cccccc;stroke-linecap:round;stroke-width:0.8;"/>
     </g>
     <g id="text_11">
      <!-- 0.500 -->
      <g style="fill:#262626;" transform="translate(21.971875 283.597346)scale(0.1 -0.1)">
       <defs>
        <path d="M 684 794 
L 1344 794 
L 1344 0 
L 684 0 
L 684 794 
z
" id="DejaVuSans-2e" transform="scale(0.015625)"/>
       </defs>
       <use xlink:href="#DejaVuSans-30"/>
       <use x="63.623047" xlink:href="#DejaVuSans-2e"/>
       <use x="95.410156" xlink:href="#DejaVuSans-35"/>
       <use x="159.033203" xlink:href="#DejaVuSans-30"/>
       <use x="222.65625" xlink:href="#DejaVuSans-30"/>
      </g>
     </g>
    </g>
    <g id="ytick_2">
     <g id="line2d_11">
      <path clip-path="url(#p1c164f4157)" d="M 57.6 248.770213 
L 414.72 248.770213 
" style="fill:none;stroke:#cccccc;stroke-linecap:round;stroke-width:0.8;"/>
     </g>
     <g id="text_12">
      <!-- 0.525 -->
      <g style="fill:#262626;" transform="translate(21.971875 252.569432)scale(0.1 -0.1)">
       <use xlink:href="#DejaVuSans-30"/>
       <use x="63.623047" xlink:href="#DejaVuSans-2e"/>
       <use x="95.410156" xlink:href="#DejaVuSans-35"/>
       <use x="159.033203" xlink:href="#DejaVuSans-32"/>
       <use x="222.65625" xlink:href="#DejaVuSans-35"/>
      </g>
     </g>
    </g>
    <g id="ytick_3">
     <g id="line2d_12">
      <path clip-path="url(#p1c164f4157)" d="M 57.6 217.742299 
L 414.72 217.742299 
" style="fill:none;stroke:#cccccc;stroke-linecap:round;stroke-width:0.8;"/>
     </g>
     <g id="text_13">
      <!-- 0.550 -->
      <g style="fill:#262626;" transform="translate(21.971875 221.541518)scale(0.1 -0.1)">
       <use xlink:href="#DejaVuSans-30"/>
       <use x="63.623047" xlink:href="#DejaVuSans-2e"/>
       <use x="95.410156" xlink:href="#DejaVuSans-35"/>
       <use x="159.033203" xlink:href="#DejaVuSans-35"/>
       <use x="222.65625" xlink:href="#DejaVuSans-30"/>
      </g>
     </g>
    </g>
    <g id="ytick_4">
     <g id="line2d_13">
      <path clip-path="url(#p1c164f4157)" d="M 57.6 186.714385 
L 414.72 186.714385 
" style="fill:none;stroke:#cccccc;stroke-linecap:round;stroke-width:0.8;"/>
     </g>
     <g id="text_14">
      <!-- 0.575 -->
      <g style="fill:#262626;" transform="translate(21.971875 190.513604)scale(0.1 -0.1)">
       <use xlink:href="#DejaVuSans-30"/>
       <use x="63.623047" xlink:href="#DejaVuSans-2e"/>
       <use x="95.410156" xlink:href="#DejaVuSans-35"/>
       <use x="159.033203" xlink:href="#DejaVuSans-37"/>
       <use x="222.65625" xlink:href="#DejaVuSans-35"/>
      </g>
     </g>
    </g>
    <g id="ytick_5">
     <g id="line2d_14">
      <path clip-path="url(#p1c164f4157)" d="M 57.6 155.686471 
L 414.72 155.686471 
" style="fill:none;stroke:#cccccc;stroke-linecap:round;stroke-width:0.8;"/>
     </g>
     <g id="text_15">
      <!-- 0.600 -->
      <g style="fill:#262626;" transform="translate(21.971875 159.485689)scale(0.1 -0.1)">
       <defs>
        <path d="M 2113 2584 
Q 1688 2584 1439 2293 
Q 1191 2003 1191 1497 
Q 1191 994 1439 701 
Q 1688 409 2113 409 
Q 2538 409 2786 701 
Q 3034 994 3034 1497 
Q 3034 2003 2786 2293 
Q 2538 2584 2113 2584 
z
M 3366 4563 
L 3366 3988 
Q 3128 4100 2886 4159 
Q 2644 4219 2406 4219 
Q 1781 4219 1451 3797 
Q 1122 3375 1075 2522 
Q 1259 2794 1537 2939 
Q 1816 3084 2150 3084 
Q 2853 3084 3261 2657 
Q 3669 2231 3669 1497 
Q 3669 778 3244 343 
Q 2819 -91 2113 -91 
Q 1303 -91 875 529 
Q 447 1150 447 2328 
Q 447 3434 972 4092 
Q 1497 4750 2381 4750 
Q 2619 4750 2861 4703 
Q 3103 4656 3366 4563 
z
" id="DejaVuSans-36" transform="scale(0.015625)"/>
       </defs>
       <use xlink:href="#DejaVuSans-30"/>
       <use x="63.623047" xlink:href="#DejaVuSans-2e"/>
       <use x="95.410156" xlink:href="#DejaVuSans-36"/>
       <use x="159.033203" xlink:href="#DejaVuSans-30"/>
       <use x="222.65625" xlink:href="#DejaVuSans-30"/>
      </g>
     </g>
    </g>
    <g id="ytick_6">
     <g id="line2d_15">
      <path clip-path="url(#p1c164f4157)" d="M 57.6 124.658556 
L 414.72 124.658556 
" style="fill:none;stroke:#cccccc;stroke-linecap:round;stroke-width:0.8;"/>
     </g>
     <g id="text_16">
      <!-- 0.625 -->
      <g style="fill:#262626;" transform="translate(21.971875 128.457775)scale(0.1 -0.1)">
       <use xlink:href="#DejaVuSans-30"/>
       <use x="63.623047" xlink:href="#DejaVuSans-2e"/>
       <use x="95.410156" xlink:href="#DejaVuSans-36"/>
       <use x="159.033203" xlink:href="#DejaVuSans-32"/>
       <use x="222.65625" xlink:href="#DejaVuSans-35"/>
      </g>
     </g>
    </g>
    <g id="ytick_7">
     <g id="line2d_16">
      <path clip-path="url(#p1c164f4157)" d="M 57.6 93.630642 
L 414.72 93.630642 
" style="fill:none;stroke:#cccccc;stroke-linecap:round;stroke-width:0.8;"/>
     </g>
     <g id="text_17">
      <!-- 0.650 -->
      <g style="fill:#262626;" transform="translate(21.971875 97.429861)scale(0.1 -0.1)">
       <use xlink:href="#DejaVuSans-30"/>
       <use x="63.623047" xlink:href="#DejaVuSans-2e"/>
       <use x="95.410156" xlink:href="#DejaVuSans-36"/>
       <use x="159.033203" xlink:href="#DejaVuSans-35"/>
       <use x="222.65625" xlink:href="#DejaVuSans-30"/>
      </g>
     </g>
    </g>
    <g id="ytick_8">
     <g id="line2d_17">
      <path clip-path="url(#p1c164f4157)" d="M 57.6 62.602728 
L 414.72 62.602728 
" style="fill:none;stroke:#cccccc;stroke-linecap:round;stroke-width:0.8;"/>
     </g>
     <g id="text_18">
      <!-- 0.675 -->
      <g style="fill:#262626;" transform="translate(21.971875 66.401947)scale(0.1 -0.1)">
       <use xlink:href="#DejaVuSans-30"/>
       <use x="63.623047" xlink:href="#DejaVuSans-2e"/>
       <use x="95.410156" xlink:href="#DejaVuSans-36"/>
       <use x="159.033203" xlink:href="#DejaVuSans-37"/>
       <use x="222.65625" xlink:href="#DejaVuSans-35"/>
      </g>
     </g>
    </g>
    <g id="text_19">
     <!-- Iteration -->
     <g style="fill:#262626;" transform="translate(15.892187 195.736594)rotate(-90)scale(0.1 -0.1)">
      <defs>
       <path d="M 628 4666 
L 1259 4666 
L 1259 0 
L 628 0 
L 628 4666 
z
" id="DejaVuSans-49" transform="scale(0.015625)"/>
       <path d="M 1172 4494 
L 1172 3500 
L 2356 3500 
L 2356 3053 
L 1172 3053 
L 1172 1153 
Q 1172 725 1289 603 
Q 1406 481 1766 481 
L 2356 481 
L 2356 0 
L 1766 0 
Q 1100 0 847 248 
Q 594 497 594 1153 
L 594 3053 
L 172 3053 
L 172 3500 
L 594 3500 
L 594 4494 
L 1172 4494 
z
" id="DejaVuSans-74" transform="scale(0.015625)"/>
       <path d="M 3597 1894 
L 3597 1613 
L 953 1613 
Q 991 1019 1311 708 
Q 1631 397 2203 397 
Q 2534 397 2845 478 
Q 3156 559 3463 722 
L 3463 178 
Q 3153 47 2828 -22 
Q 2503 -91 2169 -91 
Q 1331 -91 842 396 
Q 353 884 353 1716 
Q 353 2575 817 3079 
Q 1281 3584 2069 3584 
Q 2775 3584 3186 3129 
Q 3597 2675 3597 1894 
z
M 3022 2063 
Q 3016 2534 2758 2815 
Q 2500 3097 2075 3097 
Q 1594 3097 1305 2825 
Q 1016 2553 972 2059 
L 3022 2063 
z
" id="DejaVuSans-65" transform="scale(0.015625)"/>
       <path d="M 2194 1759 
Q 1497 1759 1228 1600 
Q 959 1441 959 1056 
Q 959 750 1161 570 
Q 1363 391 1709 391 
Q 2188 391 2477 730 
Q 2766 1069 2766 1631 
L 2766 1759 
L 2194 1759 
z
M 3341 1997 
L 3341 0 
L 2766 0 
L 2766 531 
Q 2569 213 2275 61 
Q 1981 -91 1556 -91 
Q 1019 -91 701 211 
Q 384 513 384 1019 
Q 384 1609 779 1909 
Q 1175 2209 1959 2209 
L 2766 2209 
L 2766 2266 
Q 2766 2663 2505 2880 
Q 2244 3097 1772 3097 
Q 1472 3097 1187 3025 
Q 903 2953 641 2809 
L 641 3341 
Q 956 3463 1253 3523 
Q 1550 3584 1831 3584 
Q 2591 3584 2966 3190 
Q 3341 2797 3341 1997 
z
" id="DejaVuSans-61" transform="scale(0.015625)"/>
       <path d="M 603 3500 
L 1178 3500 
L 1178 0 
L 603 0 
L 603 3500 
z
M 603 4863 
L 1178 4863 
L 1178 4134 
L 603 4134 
L 603 4863 
z
" id="DejaVuSans-69" transform="scale(0.015625)"/>
       <path d="M 3513 2113 
L 3513 0 
L 2938 0 
L 2938 2094 
Q 2938 2591 2744 2837 
Q 2550 3084 2163 3084 
Q 1697 3084 1428 2787 
Q 1159 2491 1159 1978 
L 1159 0 
L 581 0 
L 581 3500 
L 1159 3500 
L 1159 2956 
Q 1366 3272 1645 3428 
Q 1925 3584 2291 3584 
Q 2894 3584 3203 3211 
Q 3513 2838 3513 2113 
z
" id="DejaVuSans-6e" transform="scale(0.015625)"/>
      </defs>
      <use xlink:href="#DejaVuSans-49"/>
      <use x="29.492188" xlink:href="#DejaVuSans-74"/>
      <use x="68.701172" xlink:href="#DejaVuSans-65"/>
      <use x="130.224609" xlink:href="#DejaVuSans-72"/>
      <use x="171.337891" xlink:href="#DejaVuSans-61"/>
      <use x="232.617188" xlink:href="#DejaVuSans-74"/>
      <use x="271.826172" xlink:href="#DejaVuSans-69"/>
      <use x="299.609375" xlink:href="#DejaVuSans-6f"/>
      <use x="360.791016" xlink:href="#DejaVuSans-6e"/>
     </g>
    </g>
   </g>
   <g id="PolyCollection_1">
    <defs>
     <path d="M 73.832727 -237.563107 
L 73.832727 -153.11323 
L 75.464157 -69.4945 
L 77.095587 -130.442649 
L 78.727017 -96.74247 
L 80.358447 -74.199915 
L 81.989877 -101.787953 
L 83.621307 -114.616627 
L 85.252736 -100.01347 
L 86.884166 -147.411262 
L 88.515596 -142.020641 
L 90.147026 -161.098667 
L 91.778456 -107.161416 
L 93.409886 -104.54383 
L 95.041316 -109.105961 
L 96.672746 -100.777063 
L 98.304175 -172.078407 
L 99.935605 -130.695622 
L 101.567035 -116.043883 
L 103.198465 -133.626327 
L 104.829895 -99.072281 
L 106.461325 -149.692293 
L 108.092755 -141.061015 
L 109.724185 -126.724704 
L 111.355614 -128.59197 
L 112.987044 -88.988032 
L 114.618474 -163.536667 
L 116.249904 -87.735615 
L 117.881334 -116.419556 
L 119.512764 -146.69433 
L 121.144194 -124.654119 
L 122.775624 -154.20192 
L 124.407053 -130.083453 
L 126.038483 -144.953978 
L 127.669913 -148.084653 
L 129.301343 -158.888178 
L 130.932773 -138.550072 
L 132.564203 -106.736688 
L 134.195633 -82.20427 
L 135.827063 -151.265655 
L 137.458492 -140.87613 
L 139.089922 -160.964711 
L 140.721352 -187.906357 
L 142.352782 -136.873865 
L 143.984212 -140.550831 
L 145.615642 -111.636782 
L 147.247072 -141.548953 
L 148.878502 -100.027232 
L 150.509931 -172.033339 
L 152.141361 -134.445599 
L 153.772791 -114.342617 
L 155.404221 -150.706834 
L 157.035651 -111.687089 
L 158.667081 -177.045952 
L 160.298511 -184.851469 
L 161.929941 -126.928061 
L 163.56137 -128.157961 
L 165.1928 -127.225917 
L 166.82423 -156.87304 
L 168.45566 -139.838557 
L 170.08709 -125.424473 
L 171.71852 -170.604886 
L 173.34995 -119.319968 
L 174.98138 -106.056509 
L 176.61281 -161.447657 
L 178.244239 -91.228833 
L 179.875669 -86.122805 
L 181.507099 -136.588757 
L 183.138529 -68.838462 
L 184.769959 -115.844689 
L 186.401389 -95.205631 
L 188.032819 -160.17751 
L 189.664249 -89.111686 
L 191.295678 -87.643793 
L 192.927108 -103.719162 
L 194.558538 -107.709436 
L 196.189968 -133.941476 
L 197.821398 -136.010276 
L 199.452828 -103.477583 
L 201.084258 -144.494085 
L 202.715688 -161.901662 
L 204.347117 -164.471371 
L 205.978547 -141.365381 
L 207.609977 -98.416659 
L 209.241407 -91.213044 
L 210.872837 -115.243572 
L 212.504267 -97.222376 
L 214.135697 -74.815636 
L 215.767127 -151.181084 
L 217.398556 -144.136525 
L 219.029986 -134.578604 
L 220.661416 -135.191072 
L 222.292846 -110.660837 
L 223.924276 -112.020966 
L 225.555706 -148.839536 
L 227.187136 -168.696882 
L 228.818566 -93.914579 
L 230.449995 -135.246434 
L 232.081425 -58.484187 
L 233.712855 -109.31966 
L 235.344285 -94.605116 
L 236.975715 -74.47008 
L 238.607145 -145.673073 
L 240.238575 -82.569947 
L 241.870005 -182.7029 
L 243.501434 -120.021569 
L 245.132864 -57.072592 
L 246.764294 -154.233626 
L 248.395724 -140.415956 
L 250.027154 -124.855319 
L 251.658584 -93.966035 
L 253.290014 -110.685749 
L 254.921444 -128.997524 
L 256.552873 -131.736575 
L 258.184303 -105.102016 
L 259.815733 -140.659448 
L 261.447163 -130.762205 
L 263.078593 -124.195857 
L 264.710023 -134.181302 
L 266.341453 -126.191644 
L 267.972883 -108.145548 
L 269.604312 -110.618933 
L 271.235742 -92.434472 
L 272.867172 -156.866253 
L 274.498602 -159.539826 
L 276.130032 -157.39333 
L 277.761462 -114.173618 
L 279.392892 -159.103494 
L 281.024322 -168.389282 
L 282.655751 -108.2538 
L 284.287181 -122.837742 
L 285.918611 -151.649333 
L 287.550041 -118.491139 
L 289.181471 -50.112 
L 290.812901 -158.736241 
L 292.444331 -64.122185 
L 294.075761 -113.597407 
L 295.70719 -161.803278 
L 297.33862 -127.426049 
L 298.97005 -141.22307 
L 300.60148 -100.270875 
L 302.23291 -119.022398 
L 303.86434 -107.72327 
L 305.49577 -125.477043 
L 307.1272 -107.852401 
L 308.75863 -119.084582 
L 310.390059 -66.903004 
L 312.021489 -94.131779 
L 313.652919 -149.981972 
L 315.284349 -122.583898 
L 316.915779 -93.382724 
L 318.547209 -104.783458 
L 320.178639 -105.293177 
L 321.810069 -109.57448 
L 323.441498 -118.183646 
L 325.072928 -97.65217 
L 326.704358 -102.833301 
L 328.335788 -93.627272 
L 329.967218 -127.413702 
L 331.598648 -134.424743 
L 333.230078 -112.751535 
L 334.861508 -123.391274 
L 336.492937 -131.902484 
L 338.124367 -50.72586 
L 339.755797 -104.193941 
L 341.387227 -177.516156 
L 343.018657 -135.482889 
L 344.650087 -149.471577 
L 346.281517 -110.772367 
L 347.912947 -73.374537 
L 349.544376 -96.575148 
L 351.175806 -131.915062 
L 352.807236 -149.690325 
L 354.438666 -117.664537 
L 356.070096 -70.111357 
L 357.701526 -141.578798 
L 359.332956 -156.925825 
L 360.964386 -74.739884 
L 362.595815 -107.507126 
L 364.227245 -118.882932 
L 365.858675 -144.049115 
L 367.490105 -126.080448 
L 369.121535 -130.851354 
L 370.752965 -93.500029 
L 372.384395 -128.460304 
L 374.015825 -94.341034 
L 375.647254 -153.356616 
L 377.278684 -60.823465 
L 378.910114 -172.171533 
L 380.541544 -142.960476 
L 382.172974 -91.359403 
L 383.804404 -145.878741 
L 385.435834 -146.8441 
L 387.067264 -93.48354 
L 388.698693 -127.775018 
L 390.330123 -110.440439 
L 391.961553 -113.30229 
L 393.592983 -129.258309 
L 395.224413 -127.02267 
L 396.855843 -130.69187 
L 398.487273 -68.931699 
L 398.487273 -251.582746 
L 398.487273 -251.582746 
L 396.855843 -227.980243 
L 395.224413 -215.651382 
L 393.592983 -226.271414 
L 391.961553 -223.319317 
L 390.330123 -219.567532 
L 388.698693 -203.98495 
L 387.067264 -198.191994 
L 385.435834 -222.857575 
L 383.804404 -229.896234 
L 382.172974 -231.129894 
L 380.541544 -247.940268 
L 378.910114 -231.028518 
L 377.278684 -253.762028 
L 375.647254 -263.254263 
L 374.015825 -190.05178 
L 372.384395 -211.393146 
L 370.752965 -197.813731 
L 369.121535 -213.796861 
L 367.490105 -255.847799 
L 365.858675 -171.811035 
L 364.227245 -201.937099 
L 362.595815 -239.881717 
L 360.964386 -197.679549 
L 359.332956 -216.205902 
L 357.701526 -198.446146 
L 356.070096 -236.134788 
L 354.438666 -228.121398 
L 352.807236 -237.896362 
L 351.175806 -235.060979 
L 349.544376 -204.618388 
L 347.912947 -235.520717 
L 346.281517 -257.680763 
L 344.650087 -226.97524 
L 343.018657 -230.739268 
L 341.387227 -258.753104 
L 339.755797 -189.061061 
L 338.124367 -172.709894 
L 336.492937 -220.615839 
L 334.861508 -237.560417 
L 333.230078 -223.980552 
L 331.598648 -188.567661 
L 329.967218 -186.213923 
L 328.335788 -236.001862 
L 326.704358 -238.163902 
L 325.072928 -214.899956 
L 323.441498 -234.354326 
L 321.810069 -253.403941 
L 320.178639 -224.411793 
L 318.547209 -159.467863 
L 316.915779 -207.63725 
L 315.284349 -206.31755 
L 313.652919 -232.354242 
L 312.021489 -230.858572 
L 310.390059 -170.001146 
L 308.75863 -209.619347 
L 307.1272 -210.838003 
L 305.49577 -233.827616 
L 303.86434 -212.299444 
L 302.23291 -191.242394 
L 300.60148 -238.866782 
L 298.97005 -188.337639 
L 297.33862 -218.899187 
L 295.70719 -229.304465 
L 294.075761 -222.538157 
L 292.444331 -237.235779 
L 290.812901 -245.544825 
L 289.181471 -246.8471 
L 287.550041 -258.319349 
L 285.918611 -199.848989 
L 284.287181 -292.032 
L 282.655751 -230.694954 
L 281.024322 -256.015697 
L 279.392892 -206.74603 
L 277.761462 -220.170653 
L 276.130032 -228.379313 
L 274.498602 -236.88716 
L 272.867172 -234.588442 
L 271.235742 -183.63356 
L 269.604312 -206.482351 
L 267.972883 -204.197338 
L 266.341453 -222.523649 
L 264.710023 -180.955298 
L 263.078593 -205.048235 
L 261.447163 -193.227104 
L 259.815733 -210.556728 
L 258.184303 -203.023324 
L 256.552873 -192.240842 
L 254.921444 -235.293559 
L 253.290014 -235.94042 
L 251.658584 -186.943641 
L 250.027154 -209.974305 
L 248.395724 -234.727508 
L 246.764294 -214.730884 
L 245.132864 -261.487166 
L 243.501434 -255.981777 
L 241.870005 -217.637596 
L 240.238575 -246.0285 
L 238.607145 -206.624634 
L 236.975715 -179.286499 
L 235.344285 -231.246152 
L 233.712855 -247.423792 
L 232.081425 -244.019426 
L 230.449995 -217.773272 
L 228.818566 -213.619581 
L 227.187136 -229.641013 
L 225.555706 -239.671322 
L 223.924276 -256.420444 
L 222.292846 -177.541212 
L 220.661416 -247.118254 
L 219.029986 -251.508588 
L 217.398556 -199.158352 
L 215.767127 -216.517128 
L 214.135697 -189.67974 
L 212.504267 -237.784258 
L 210.872837 -234.920199 
L 209.241407 -232.41742 
L 207.609977 -212.857966 
L 205.978547 -201.246967 
L 204.347117 -232.148654 
L 202.715688 -201.58745 
L 201.084258 -233.046157 
L 199.452828 -187.835487 
L 197.821398 -204.957281 
L 196.189968 -248.567266 
L 194.558538 -190.68625 
L 192.927108 -177.902172 
L 191.295678 -224.300089 
L 189.664249 -243.416472 
L 188.032819 -190.180506 
L 186.401389 -235.584319 
L 184.769959 -206.432438 
L 183.138529 -202.620949 
L 181.507099 -190.641874 
L 179.875669 -224.47584 
L 178.244239 -217.379448 
L 176.61281 -205.490811 
L 174.98138 -268.197426 
L 173.34995 -204.422183 
L 171.71852 -257.570375 
L 170.08709 -221.215658 
L 168.45566 -229.699552 
L 166.82423 -206.022651 
L 165.1928 -217.316643 
L 163.56137 -240.13281 
L 161.929941 -229.20077 
L 160.298511 -254.254767 
L 158.667081 -228.668597 
L 157.035651 -232.11055 
L 155.404221 -212.081135 
L 153.772791 -216.960092 
L 152.141361 -248.324434 
L 150.509931 -230.223064 
L 148.878502 -217.66075 
L 147.247072 -207.264756 
L 145.615642 -229.039149 
L 143.984212 -264.860543 
L 142.352782 -202.683477 
L 140.721352 -212.728351 
L 139.089922 -237.274252 
L 137.458492 -210.938809 
L 135.827063 -202.340922 
L 134.195633 -231.882683 
L 132.564203 -218.813992 
L 130.932773 -235.701967 
L 129.301343 -219.431457 
L 127.669913 -224.357479 
L 126.038483 -243.295245 
L 124.407053 -197.676138 
L 122.775624 -229.357675 
L 121.144194 -221.177318 
L 119.512764 -259.024872 
L 117.881334 -197.22203 
L 116.249904 -203.274109 
L 114.618474 -253.18745 
L 112.987044 -277.172594 
L 111.355614 -237.082096 
L 109.724185 -204.256561 
L 108.092755 -212.506954 
L 106.461325 -218.022809 
L 104.829895 -246.199689 
L 103.198465 -217.426283 
L 101.567035 -207.598646 
L 99.935605 -202.468873 
L 98.304175 -239.359732 
L 96.672746 -215.880577 
L 95.041316 -223.756912 
L 93.409886 -211.227728 
L 91.778456 -243.311906 
L 90.147026 -208.003382 
L 88.515596 -223.164365 
L 86.884166 -256.383933 
L 85.252736 -252.692032 
L 83.621307 -212.352885 
L 81.989877 -243.116727 
L 80.358447 -214.601587 
L 78.727017 -248.540703 
L 77.095587 -279.332429 
L 75.464157 -201.045221 
L 73.832727 -237.563107 
z
" id="mcbd5289fb8" style="stroke:#ffffff;stroke-opacity:0.2;"/>
    </defs>
    <g clip-path="url(#p1c164f4157)">
     <use style="fill:#1f77b4;fill-opacity:0.2;stroke:#ffffff;stroke-opacity:0.2;" x="0" xlink:href="#mcbd5289fb8" y="345.6"/>
    </g>
   </g>
   <g id="LineCollection_1">
    <path clip-path="url(#p1c164f4157)" d="M 398.487273 295.488 
L 398.487273 53.568 
" style="fill:none;stroke:#1f77b4;stroke-dasharray:5.55,2.4;stroke-dashoffset:0;stroke-width:1.5;"/>
   </g>
   <g id="line2d_18">
    <path clip-path="url(#p1c164f4157)" d="M 73.832727 150.261832 
L 75.464157 210.33014 
L 77.095587 140.712461 
L 78.727017 172.958413 
L 80.358447 201.199249 
L 81.989877 173.14766 
L 83.621307 182.115244 
L 85.252736 169.247249 
L 86.884166 143.702403 
L 88.515596 163.007497 
L 90.147026 161.048975 
L 91.778456 170.363339 
L 93.409886 187.714221 
L 95.041316 179.168564 
L 96.672746 187.27118 
L 98.304175 139.880931 
L 99.935605 179.017752 
L 101.567035 183.778735 
L 103.198465 170.073695 
L 104.829895 172.964015 
L 106.461325 161.742449 
L 108.092755 168.816015 
L 109.724185 180.109368 
L 111.355614 162.762967 
L 112.987044 162.519687 
L 114.618474 137.237941 
L 116.249904 200.095138 
L 117.881334 188.779207 
L 119.512764 142.740399 
L 121.144194 172.684282 
L 122.775624 153.820203 
L 124.407053 181.720204 
L 126.038483 151.475389 
L 127.669913 159.378934 
L 129.301343 156.440182 
L 130.932773 158.47398 
L 132.564203 182.82466 
L 134.195633 188.556523 
L 135.827063 168.796711 
L 137.458492 169.69253 
L 139.089922 146.480519 
L 140.721352 145.282646 
L 142.352782 175.821329 
L 143.984212 142.894313 
L 145.615642 175.262034 
L 147.247072 171.193146 
L 148.878502 186.756009 
L 150.509931 144.471799 
L 152.141361 154.214983 
L 153.772791 179.948646 
L 155.404221 164.206016 
L 157.035651 173.701181 
L 158.667081 142.742726 
L 160.298511 126.046882 
L 161.929941 167.535584 
L 163.56137 161.454615 
L 165.1928 173.32872 
L 166.82423 164.152155 
L 168.45566 160.830945 
L 170.08709 172.279935 
L 171.71852 131.512369 
L 173.34995 183.728925 
L 174.98138 158.473032 
L 176.61281 162.130766 
L 178.244239 191.295859 
L 179.875669 190.300677 
L 181.507099 181.984684 
L 183.138529 209.870295 
L 184.769959 184.461437 
L 186.401389 180.205025 
L 188.032819 170.420992 
L 189.664249 179.335921 
L 191.295678 189.628059 
L 192.927108 204.789333 
L 194.558538 196.402157 
L 196.189968 154.345629 
L 197.821398 175.116221 
L 199.452828 199.943465 
L 201.084258 156.829879 
L 202.715688 163.855444 
L 204.347117 147.289988 
L 205.978547 174.293826 
L 207.609977 189.962688 
L 209.241407 183.784768 
L 210.872837 170.518114 
L 212.504267 178.096683 
L 214.135697 213.352312 
L 215.767127 161.750894 
L 217.398556 173.952561 
L 219.029986 152.556404 
L 220.661416 154.445337 
L 222.292846 201.498976 
L 223.924276 161.379295 
L 225.555706 151.344571 
L 227.187136 146.431053 
L 228.818566 191.83292 
L 230.449995 169.090147 
L 232.081425 194.348194 
L 233.712855 167.228274 
L 235.344285 182.674366 
L 236.975715 218.721711 
L 238.607145 169.451146 
L 240.238575 181.300777 
L 241.870005 145.429752 
L 243.501434 157.598327 
L 245.132864 186.320121 
L 246.764294 161.117745 
L 248.395724 158.028268 
L 250.027154 178.185188 
L 251.658584 205.145162 
L 253.290014 172.286915 
L 254.921444 163.454458 
L 256.552873 183.611292 
L 258.184303 191.53733 
L 259.815733 169.991912 
L 261.447163 183.605346 
L 263.078593 180.977954 
L 264.710023 188.0317 
L 266.341453 171.242353 
L 267.972883 189.428557 
L 269.604312 187.049358 
L 271.235742 207.565984 
L 272.867172 149.872652 
L 274.498602 147.386507 
L 276.130032 152.713679 
L 277.761462 178.427865 
L 279.392892 162.675238 
L 281.024322 133.39751 
L 282.655751 176.125623 
L 284.287181 138.165129 
L 285.918611 169.850839 
L 287.550041 157.194756 
L 289.181471 197.12045 
L 290.812901 143.459467 
L 292.444331 194.921018 
L 294.075761 177.532218 
L 295.70719 150.046128 
L 297.33862 172.437382 
L 298.97005 180.819646 
L 300.60148 176.031172 
L 302.23291 190.467604 
L 303.86434 185.588643 
L 305.49577 165.947671 
L 307.1272 186.254798 
L 308.75863 181.248036 
L 310.390059 227.147925 
L 312.021489 183.104824 
L 313.652919 154.431893 
L 315.284349 181.149276 
L 316.915779 195.090013 
L 318.547209 213.47434 
L 320.178639 180.747515 
L 321.810069 164.110789 
L 323.441498 169.331014 
L 325.072928 189.323937 
L 326.704358 175.101399 
L 328.335788 180.785433 
L 329.967218 188.786187 
L 331.598648 184.103798 
L 333.230078 177.233956 
L 334.861508 165.124155 
L 336.492937 169.340838 
L 338.124367 233.882123 
L 339.755797 198.972499 
L 341.387227 127.46537 
L 343.018657 162.488921 
L 344.650087 157.376591 
L 346.281517 161.373435 
L 347.912947 191.152373 
L 349.544376 195.003232 
L 351.175806 162.111979 
L 352.807236 151.806656 
L 356.070096 192.476927 
L 359.332956 159.034137 
L 360.964386 209.390284 
L 362.595815 171.905578 
L 364.227245 185.189984 
L 365.858675 187.669925 
L 367.490105 154.635876 
L 369.121535 173.275893 
L 370.752965 199.94312 
L 372.384395 175.673275 
L 374.015825 203.403593 
L 375.647254 137.29456 
L 377.278684 188.307254 
L 378.910114 143.999975 
L 380.541544 150.149628 
L 382.172974 184.355352 
L 383.804404 157.712513 
L 385.435834 160.749162 
L 387.067264 199.762233 
L 388.698693 179.720016 
L 390.330123 180.596014 
L 391.961553 177.289197 
L 393.592983 167.835139 
L 395.224413 174.262974 
L 396.855843 166.263943 
L 398.487273 185.342778 
L 398.487273 185.342778 
" style="fill:none;stroke:#1f77b4;stroke-linecap:round;stroke-width:1.5;"/>
   </g>
   <g id="patch_3">
    <path d="M 57.6 307.584 
L 57.6 41.472 
" style="fill:none;stroke:#cccccc;stroke-linecap:square;stroke-linejoin:miter;stroke-width:0.8;"/>
   </g>
   <g id="patch_4">
    <path d="M 414.72 307.584 
L 414.72 41.472 
" style="fill:none;stroke:#cccccc;stroke-linecap:square;stroke-linejoin:miter;stroke-width:0.8;"/>
   </g>
   <g id="patch_5">
    <path d="M 57.6 307.584 
L 414.72 307.584 
" style="fill:none;stroke:#cccccc;stroke-linecap:square;stroke-linejoin:miter;stroke-width:0.8;"/>
   </g>
   <g id="patch_6">
    <path d="M 57.6 41.472 
L 414.72 41.472 
" style="fill:none;stroke:#cccccc;stroke-linecap:square;stroke-linejoin:miter;stroke-width:0.8;"/>
   </g>
   <g id="text_20">
    <!-- Model performance vs. # of iterations -->
    <g style="fill:#262626;" transform="translate(122.314688 35.472)scale(0.12 -0.12)">
     <defs>
      <path d="M 628 4666 
L 1569 4666 
L 2759 1491 
L 3956 4666 
L 4897 4666 
L 4897 0 
L 4281 0 
L 4281 4097 
L 3078 897 
L 2444 897 
L 1241 4097 
L 1241 0 
L 628 0 
L 628 4666 
z
" id="DejaVuSans-4d" transform="scale(0.015625)"/>
      <path d="M 2906 2969 
L 2906 4863 
L 3481 4863 
L 3481 0 
L 2906 0 
L 2906 525 
Q 2725 213 2448 61 
Q 2172 -91 1784 -91 
Q 1150 -91 751 415 
Q 353 922 353 1747 
Q 353 2572 751 3078 
Q 1150 3584 1784 3584 
Q 2172 3584 2448 3432 
Q 2725 3281 2906 2969 
z
M 947 1747 
Q 947 1113 1208 752 
Q 1469 391 1925 391 
Q 2381 391 2643 752 
Q 2906 1113 2906 1747 
Q 2906 2381 2643 2742 
Q 2381 3103 1925 3103 
Q 1469 3103 1208 2742 
Q 947 2381 947 1747 
z
" id="DejaVuSans-64" transform="scale(0.015625)"/>
      <path d="M 603 4863 
L 1178 4863 
L 1178 0 
L 603 0 
L 603 4863 
z
" id="DejaVuSans-6c" transform="scale(0.015625)"/>
      <path id="DejaVuSans-20" transform="scale(0.015625)"/>
      <path d="M 1159 525 
L 1159 -1331 
L 581 -1331 
L 581 3500 
L 1159 3500 
L 1159 2969 
Q 1341 3281 1617 3432 
Q 1894 3584 2278 3584 
Q 2916 3584 3314 3078 
Q 3713 2572 3713 1747 
Q 3713 922 3314 415 
Q 2916 -91 2278 -91 
Q 1894 -91 1617 61 
Q 1341 213 1159 525 
z
M 3116 1747 
Q 3116 2381 2855 2742 
Q 2594 3103 2138 3103 
Q 1681 3103 1420 2742 
Q 1159 2381 1159 1747 
Q 1159 1113 1420 752 
Q 1681 391 2138 391 
Q 2594 391 2855 752 
Q 3116 1113 3116 1747 
z
" id="DejaVuSans-70" transform="scale(0.015625)"/>
      <path d="M 2375 4863 
L 2375 4384 
L 1825 4384 
Q 1516 4384 1395 4259 
Q 1275 4134 1275 3809 
L 1275 3500 
L 2222 3500 
L 2222 3053 
L 1275 3053 
L 1275 0 
L 697 0 
L 697 3053 
L 147 3053 
L 147 3500 
L 697 3500 
L 697 3744 
Q 697 4328 969 4595 
Q 1241 4863 1831 4863 
L 2375 4863 
z
" id="DejaVuSans-66" transform="scale(0.015625)"/>
      <path d="M 3328 2828 
Q 3544 3216 3844 3400 
Q 4144 3584 4550 3584 
Q 5097 3584 5394 3201 
Q 5691 2819 5691 2113 
L 5691 0 
L 5113 0 
L 5113 2094 
Q 5113 2597 4934 2840 
Q 4756 3084 4391 3084 
Q 3944 3084 3684 2787 
Q 3425 2491 3425 1978 
L 3425 0 
L 2847 0 
L 2847 2094 
Q 2847 2600 2669 2842 
Q 2491 3084 2119 3084 
Q 1678 3084 1418 2786 
Q 1159 2488 1159 1978 
L 1159 0 
L 581 0 
L 581 3500 
L 1159 3500 
L 1159 2956 
Q 1356 3278 1631 3431 
Q 1906 3584 2284 3584 
Q 2666 3584 2933 3390 
Q 3200 3197 3328 2828 
z
" id="DejaVuSans-6d" transform="scale(0.015625)"/>
      <path d="M 191 3500 
L 800 3500 
L 1894 563 
L 2988 3500 
L 3597 3500 
L 2284 0 
L 1503 0 
L 191 3500 
z
" id="DejaVuSans-76" transform="scale(0.015625)"/>
      <path d="M 2834 3397 
L 2834 2853 
Q 2591 2978 2328 3040 
Q 2066 3103 1784 3103 
Q 1356 3103 1142 2972 
Q 928 2841 928 2578 
Q 928 2378 1081 2264 
Q 1234 2150 1697 2047 
L 1894 2003 
Q 2506 1872 2764 1633 
Q 3022 1394 3022 966 
Q 3022 478 2636 193 
Q 2250 -91 1575 -91 
Q 1294 -91 989 -36 
Q 684 19 347 128 
L 347 722 
Q 666 556 975 473 
Q 1284 391 1588 391 
Q 1994 391 2212 530 
Q 2431 669 2431 922 
Q 2431 1156 2273 1281 
Q 2116 1406 1581 1522 
L 1381 1569 
Q 847 1681 609 1914 
Q 372 2147 372 2553 
Q 372 3047 722 3315 
Q 1072 3584 1716 3584 
Q 2034 3584 2315 3537 
Q 2597 3491 2834 3397 
z
" id="DejaVuSans-73" transform="scale(0.015625)"/>
      <path d="M 3272 2816 
L 2363 2816 
L 2100 1772 
L 3016 1772 
L 3272 2816 
z
M 2803 4594 
L 2478 3297 
L 3391 3297 
L 3719 4594 
L 4219 4594 
L 3897 3297 
L 4872 3297 
L 4872 2816 
L 3775 2816 
L 3519 1772 
L 4513 1772 
L 4513 1294 
L 3397 1294 
L 3072 0 
L 2572 0 
L 2894 1294 
L 1978 1294 
L 1656 0 
L 1153 0 
L 1478 1294 
L 494 1294 
L 494 1772 
L 1594 1772 
L 1856 2816 
L 850 2816 
L 850 3297 
L 1978 3297 
L 2297 4594 
L 2803 4594 
z
" id="DejaVuSans-23" transform="scale(0.015625)"/>
     </defs>
     <use xlink:href="#DejaVuSans-4d"/>
     <use x="86.279297" xlink:href="#DejaVuSans-6f"/>
     <use x="147.460938" xlink:href="#DejaVuSans-64"/>
     <use x="210.9375" xlink:href="#DejaVuSans-65"/>
     <use x="272.460938" xlink:href="#DejaVuSans-6c"/>
     <use x="300.244141" xlink:href="#DejaVuSans-20"/>
     <use x="332.03125" xlink:href="#DejaVuSans-70"/>
     <use x="395.507812" xlink:href="#DejaVuSans-65"/>
     <use x="457.03125" xlink:href="#DejaVuSans-72"/>
     <use x="498.144531" xlink:href="#DejaVuSans-66"/>
     <use x="533.349609" xlink:href="#DejaVuSans-6f"/>
     <use x="594.53125" xlink:href="#DejaVuSans-72"/>
     <use x="633.894531" xlink:href="#DejaVuSans-6d"/>
     <use x="731.306641" xlink:href="#DejaVuSans-61"/>
     <use x="792.585938" xlink:href="#DejaVuSans-6e"/>
     <use x="855.964844" xlink:href="#DejaVuSans-63"/>
     <use x="910.945312" xlink:href="#DejaVuSans-65"/>
     <use x="972.46875" xlink:href="#DejaVuSans-20"/>
     <use x="1004.255859" xlink:href="#DejaVuSans-76"/>
     <use x="1063.435547" xlink:href="#DejaVuSans-73"/>
     <use x="1115.535156" xlink:href="#DejaVuSans-2e"/>
     <use x="1147.322266" xlink:href="#DejaVuSans-20"/>
     <use x="1179.109375" xlink:href="#DejaVuSans-23"/>
     <use x="1262.898438" xlink:href="#DejaVuSans-20"/>
     <use x="1294.685547" xlink:href="#DejaVuSans-6f"/>
     <use x="1355.867188" xlink:href="#DejaVuSans-66"/>
     <use x="1391.072266" xlink:href="#DejaVuSans-20"/>
     <use x="1422.859375" xlink:href="#DejaVuSans-69"/>
     <use x="1450.642578" xlink:href="#DejaVuSans-74"/>
     <use x="1489.851562" xlink:href="#DejaVuSans-65"/>
     <use x="1551.375" xlink:href="#DejaVuSans-72"/>
     <use x="1592.488281" xlink:href="#DejaVuSans-61"/>
     <use x="1653.767578" xlink:href="#DejaVuSans-74"/>
     <use x="1692.976562" xlink:href="#DejaVuSans-69"/>
     <use x="1720.759766" xlink:href="#DejaVuSans-6f"/>
     <use x="1781.941406" xlink:href="#DejaVuSans-6e"/>
     <use x="1845.320312" xlink:href="#DejaVuSans-73"/>
    </g>
   </g>
  </g>
 </g>
 <defs>
  <clipPath id="p1c164f4157">
   <rect height="266.112" width="357.12" x="57.6" y="41.472"/>
  </clipPath>
 </defs>
</svg>
