<?xml version="1.0" encoding="utf-8" standalone="no"?>
<!DOCTYPE svg PUBLIC "-//W3C//DTD SVG 1.1//EN"
  "http://www.w3.org/Graphics/SVG/1.1/DTD/svg11.dtd">
<svg height="345.6pt" version="1.1" viewBox="0 0 460.8 345.6" width="460.8pt" xmlns="http://www.w3.org/2000/svg" xmlns:xlink="http://www.w3.org/1999/xlink">
 <metadata>
  <rdf:RDF xmlns:cc="http://creativecommons.org/ns#" xmlns:dc="http://purl.org/dc/elements/1.1/" xmlns:rdf="http://www.w3.org/1999/02/22-rdf-syntax-ns#">
   <cc:Work>
    <dc:type rdf:resource="http://purl.org/dc/dcmitype/StillImage"/>
    <dc:date>2022-03-05T12:46:17.626723</dc:date>
    <dc:format>image/svg+xml</dc:format>
    <dc:creator>
     <cc:Agent>
      <dc:title>Matplotlib v3.4.3, https://matplotlib.org/</dc:title>
     </cc:Agent>
    </dc:creator>
   </cc:Work>
  </rdf:RDF>
 </metadata>
 <defs>
  <style type="text/css">*{stroke-linecap:butt;stroke-linejoin:round;}</style>
 </defs>
 <g id="figure_1">
  <g id="patch_1">
   <path d="M 0 345.6 
L 460.8 345.6 
L 460.8 0 
L 0 0 
z
" style="fill:#ffffff;"/>
  </g>
  <g id="axes_1">
   <g id="patch_2">
    <path d="M 57.6 307.584 
L 414.72 307.584 
L 414.72 41.472 
L 57.6 41.472 
z
" style="fill:#ffffff;"/>
   </g>
   <g id="matplotlib.axis_1">
    <g id="xtick_1">
     <g id="line2d_1">
      <path clip-path="url(#p2874e1126c)" d="M 72.201297 307.584 
L 72.201297 41.472 
" style="fill:none;stroke:#cccccc;stroke-linecap:round;stroke-width:0.8;"/>
     </g>
     <g id="text_1">
      <!-- 0 -->
      <g style="fill:#262626;" transform="translate(69.020047 322.182437)scale(0.1 -0.1)">
       <defs>
        <path d="M 2034 4250 
Q 1547 4250 1301 3770 
Q 1056 3291 1056 2328 
Q 1056 1369 1301 889 
Q 1547 409 2034 409 
Q 2525 409 2770 889 
Q 3016 1369 3016 2328 
Q 3016 3291 2770 3770 
Q 2525 4250 2034 4250 
z
M 2034 4750 
Q 2819 4750 3233 4129 
Q 3647 3509 3647 2328 
Q 3647 1150 3233 529 
Q 2819 -91 2034 -91 
Q 1250 -91 836 529 
Q 422 1150 422 2328 
Q 422 3509 836 4129 
Q 1250 4750 2034 4750 
z
" id="DejaVuSans-30" transform="scale(0.015625)"/>
       </defs>
       <use xlink:href="#DejaVuSans-30"/>
      </g>
     </g>
    </g>
    <g id="xtick_2">
     <g id="line2d_2">
      <path clip-path="url(#p2874e1126c)" d="M 112.987044 307.584 
L 112.987044 41.472 
" style="fill:none;stroke:#cccccc;stroke-linecap:round;stroke-width:0.8;"/>
     </g>
     <g id="text_2">
      <!-- 25 -->
      <g style="fill:#262626;" transform="translate(106.624544 322.182437)scale(0.1 -0.1)">
       <defs>
        <path d="M 1228 531 
L 3431 531 
L 3431 0 
L 469 0 
L 469 531 
Q 828 903 1448 1529 
Q 2069 2156 2228 2338 
Q 2531 2678 2651 2914 
Q 2772 3150 2772 3378 
Q 2772 3750 2511 3984 
Q 2250 4219 1831 4219 
Q 1534 4219 1204 4116 
Q 875 4013 500 3803 
L 500 4441 
Q 881 4594 1212 4672 
Q 1544 4750 1819 4750 
Q 2544 4750 2975 4387 
Q 3406 4025 3406 3419 
Q 3406 3131 3298 2873 
Q 3191 2616 2906 2266 
Q 2828 2175 2409 1742 
Q 1991 1309 1228 531 
z
" id="DejaVuSans-32" transform="scale(0.015625)"/>
        <path d="M 691 4666 
L 3169 4666 
L 3169 4134 
L 1269 4134 
L 1269 2991 
Q 1406 3038 1543 3061 
Q 1681 3084 1819 3084 
Q 2600 3084 3056 2656 
Q 3513 2228 3513 1497 
Q 3513 744 3044 326 
Q 2575 -91 1722 -91 
Q 1428 -91 1123 -41 
Q 819 9 494 109 
L 494 744 
Q 775 591 1075 516 
Q 1375 441 1709 441 
Q 2250 441 2565 725 
Q 2881 1009 2881 1497 
Q 2881 1984 2565 2268 
Q 2250 2553 1709 2553 
Q 1456 2553 1204 2497 
Q 953 2441 691 2322 
L 691 4666 
z
" id="DejaVuSans-35" transform="scale(0.015625)"/>
       </defs>
       <use xlink:href="#DejaVuSans-32"/>
       <use x="63.623047" xlink:href="#DejaVuSans-35"/>
      </g>
     </g>
    </g>
    <g id="xtick_3">
     <g id="line2d_3">
      <path clip-path="url(#p2874e1126c)" d="M 153.772791 307.584 
L 153.772791 41.472 
" style="fill:none;stroke:#cccccc;stroke-linecap:round;stroke-width:0.8;"/>
     </g>
     <g id="text_3">
      <!-- 50 -->
      <g style="fill:#262626;" transform="translate(147.410291 322.182437)scale(0.1 -0.1)">
       <use xlink:href="#DejaVuSans-35"/>
       <use x="63.623047" xlink:href="#DejaVuSans-30"/>
      </g>
     </g>
    </g>
    <g id="xtick_4">
     <g id="line2d_4">
      <path clip-path="url(#p2874e1126c)" d="M 194.558538 307.584 
L 194.558538 41.472 
" style="fill:none;stroke:#cccccc;stroke-linecap:round;stroke-width:0.8;"/>
     </g>
     <g id="text_4">
      <!-- 75 -->
      <g style="fill:#262626;" transform="translate(188.196038 322.182437)scale(0.1 -0.1)">
       <defs>
        <path d="M 525 4666 
L 3525 4666 
L 3525 4397 
L 1831 0 
L 1172 0 
L 2766 4134 
L 525 4134 
L 525 4666 
z
" id="DejaVuSans-37" transform="scale(0.015625)"/>
       </defs>
       <use xlink:href="#DejaVuSans-37"/>
       <use x="63.623047" xlink:href="#DejaVuSans-35"/>
      </g>
     </g>
    </g>
    <g id="xtick_5">
     <g id="line2d_5">
      <path clip-path="url(#p2874e1126c)" d="M 235.344285 307.584 
L 235.344285 41.472 
" style="fill:none;stroke:#cccccc;stroke-linecap:round;stroke-width:0.8;"/>
     </g>
     <g id="text_5">
      <!-- 100 -->
      <g style="fill:#262626;" transform="translate(225.800535 322.182437)scale(0.1 -0.1)">
       <defs>
        <path d="M 794 531 
L 1825 531 
L 1825 4091 
L 703 3866 
L 703 4441 
L 1819 4666 
L 2450 4666 
L 2450 531 
L 3481 531 
L 3481 0 
L 794 0 
L 794 531 
z
" id="DejaVuSans-31" transform="scale(0.015625)"/>
       </defs>
       <use xlink:href="#DejaVuSans-31"/>
       <use x="63.623047" xlink:href="#DejaVuSans-30"/>
       <use x="127.246094" xlink:href="#DejaVuSans-30"/>
      </g>
     </g>
    </g>
    <g id="xtick_6">
     <g id="line2d_6">
      <path clip-path="url(#p2874e1126c)" d="M 276.130032 307.584 
L 276.130032 41.472 
" style="fill:none;stroke:#cccccc;stroke-linecap:round;stroke-width:0.8;"/>
     </g>
     <g id="text_6">
      <!-- 125 -->
      <g style="fill:#262626;" transform="translate(266.586282 322.182437)scale(0.1 -0.1)">
       <use xlink:href="#DejaVuSans-31"/>
       <use x="63.623047" xlink:href="#DejaVuSans-32"/>
       <use x="127.246094" xlink:href="#DejaVuSans-35"/>
      </g>
     </g>
    </g>
    <g id="xtick_7">
     <g id="line2d_7">
      <path clip-path="url(#p2874e1126c)" d="M 316.915779 307.584 
L 316.915779 41.472 
" style="fill:none;stroke:#cccccc;stroke-linecap:round;stroke-width:0.8;"/>
     </g>
     <g id="text_7">
      <!-- 150 -->
      <g style="fill:#262626;" transform="translate(307.372029 322.182437)scale(0.1 -0.1)">
       <use xlink:href="#DejaVuSans-31"/>
       <use x="63.623047" xlink:href="#DejaVuSans-35"/>
       <use x="127.246094" xlink:href="#DejaVuSans-30"/>
      </g>
     </g>
    </g>
    <g id="xtick_8">
     <g id="line2d_8">
      <path clip-path="url(#p2874e1126c)" d="M 357.701526 307.584 
L 357.701526 41.472 
" style="fill:none;stroke:#cccccc;stroke-linecap:round;stroke-width:0.8;"/>
     </g>
     <g id="text_8">
      <!-- 175 -->
      <g style="fill:#262626;" transform="translate(348.157776 322.182437)scale(0.1 -0.1)">
       <use xlink:href="#DejaVuSans-31"/>
       <use x="63.623047" xlink:href="#DejaVuSans-37"/>
       <use x="127.246094" xlink:href="#DejaVuSans-35"/>
      </g>
     </g>
    </g>
    <g id="xtick_9">
     <g id="line2d_9">
      <path clip-path="url(#p2874e1126c)" d="M 398.487273 307.584 
L 398.487273 41.472 
" style="fill:none;stroke:#cccccc;stroke-linecap:round;stroke-width:0.8;"/>
     </g>
     <g id="text_9">
      <!-- 200 -->
      <g style="fill:#262626;" transform="translate(388.943523 322.182437)scale(0.1 -0.1)">
       <use xlink:href="#DejaVuSans-32"/>
       <use x="63.623047" xlink:href="#DejaVuSans-30"/>
       <use x="127.246094" xlink:href="#DejaVuSans-30"/>
      </g>
     </g>
    </g>
    <g id="text_10">
     <!-- Auroc -->
     <g style="fill:#262626;" transform="translate(221.819375 335.860562)scale(0.1 -0.1)">
      <defs>
       <path d="M 2188 4044 
L 1331 1722 
L 3047 1722 
L 2188 4044 
z
M 1831 4666 
L 2547 4666 
L 4325 0 
L 3669 0 
L 3244 1197 
L 1141 1197 
L 716 0 
L 50 0 
L 1831 4666 
z
" id="DejaVuSans-41" transform="scale(0.015625)"/>
       <path d="M 544 1381 
L 544 3500 
L 1119 3500 
L 1119 1403 
Q 1119 906 1312 657 
Q 1506 409 1894 409 
Q 2359 409 2629 706 
Q 2900 1003 2900 1516 
L 2900 3500 
L 3475 3500 
L 3475 0 
L 2900 0 
L 2900 538 
Q 2691 219 2414 64 
Q 2138 -91 1772 -91 
Q 1169 -91 856 284 
Q 544 659 544 1381 
z
M 1991 3584 
L 1991 3584 
z
" id="DejaVuSans-75" transform="scale(0.015625)"/>
       <path d="M 2631 2963 
Q 2534 3019 2420 3045 
Q 2306 3072 2169 3072 
Q 1681 3072 1420 2755 
Q 1159 2438 1159 1844 
L 1159 0 
L 581 0 
L 581 3500 
L 1159 3500 
L 1159 2956 
Q 1341 3275 1631 3429 
Q 1922 3584 2338 3584 
Q 2397 3584 2469 3576 
Q 2541 3569 2628 3553 
L 2631 2963 
z
" id="DejaVuSans-72" transform="scale(0.015625)"/>
       <path d="M 1959 3097 
Q 1497 3097 1228 2736 
Q 959 2375 959 1747 
Q 959 1119 1226 758 
Q 1494 397 1959 397 
Q 2419 397 2687 759 
Q 2956 1122 2956 1747 
Q 2956 2369 2687 2733 
Q 2419 3097 1959 3097 
z
M 1959 3584 
Q 2709 3584 3137 3096 
Q 3566 2609 3566 1747 
Q 3566 888 3137 398 
Q 2709 -91 1959 -91 
Q 1206 -91 779 398 
Q 353 888 353 1747 
Q 353 2609 779 3096 
Q 1206 3584 1959 3584 
z
" id="DejaVuSans-6f" transform="scale(0.015625)"/>
       <path d="M 3122 3366 
L 3122 2828 
Q 2878 2963 2633 3030 
Q 2388 3097 2138 3097 
Q 1578 3097 1268 2742 
Q 959 2388 959 1747 
Q 959 1106 1268 751 
Q 1578 397 2138 397 
Q 2388 397 2633 464 
Q 2878 531 3122 666 
L 3122 134 
Q 2881 22 2623 -34 
Q 2366 -91 2075 -91 
Q 1284 -91 818 406 
Q 353 903 353 1747 
Q 353 2603 823 3093 
Q 1294 3584 2113 3584 
Q 2378 3584 2631 3529 
Q 2884 3475 3122 3366 
z
" id="DejaVuSans-63" transform="scale(0.015625)"/>
      </defs>
      <use xlink:href="#DejaVuSans-41"/>
      <use x="68.408203" xlink:href="#DejaVuSans-75"/>
      <use x="131.787109" xlink:href="#DejaVuSans-72"/>
      <use x="170.650391" xlink:href="#DejaVuSans-6f"/>
      <use x="231.832031" xlink:href="#DejaVuSans-63"/>
     </g>
    </g>
   </g>
   <g id="matplotlib.axis_2">
    <g id="ytick_1">
     <g id="line2d_10">
      <path clip-path="url(#p2874e1126c)" d="M 57.6 288.267619 
L 414.72 288.267619 
" style="fill:none;stroke:#cccccc;stroke-linecap:round;stroke-width:0.8;"/>
     </g>
     <g id="text_11">
      <!-- 0.52 -->
      <g style="fill:#262626;" transform="translate(28.334375 292.066838)scale(0.1 -0.1)">
       <defs>
        <path d="M 684 794 
L 1344 794 
L 1344 0 
L 684 0 
L 684 794 
z
" id="DejaVuSans-2e" transform="scale(0.015625)"/>
       </defs>
       <use xlink:href="#DejaVuSans-30"/>
       <use x="63.623047" xlink:href="#DejaVuSans-2e"/>
       <use x="95.410156" xlink:href="#DejaVuSans-35"/>
       <use x="159.033203" xlink:href="#DejaVuSans-32"/>
      </g>
     </g>
    </g>
    <g id="ytick_2">
     <g id="line2d_11">
      <path clip-path="url(#p2874e1126c)" d="M 57.6 258.159459 
L 414.72 258.159459 
" style="fill:none;stroke:#cccccc;stroke-linecap:round;stroke-width:0.8;"/>
     </g>
     <g id="text_12">
      <!-- 0.54 -->
      <g style="fill:#262626;" transform="translate(28.334375 261.958678)scale(0.1 -0.1)">
       <defs>
        <path d="M 2419 4116 
L 825 1625 
L 2419 1625 
L 2419 4116 
z
M 2253 4666 
L 3047 4666 
L 3047 1625 
L 3713 1625 
L 3713 1100 
L 3047 1100 
L 3047 0 
L 2419 0 
L 2419 1100 
L 313 1100 
L 313 1709 
L 2253 4666 
z
" id="DejaVuSans-34" transform="scale(0.015625)"/>
       </defs>
       <use xlink:href="#DejaVuSans-30"/>
       <use x="63.623047" xlink:href="#DejaVuSans-2e"/>
       <use x="95.410156" xlink:href="#DejaVuSans-35"/>
       <use x="159.033203" xlink:href="#DejaVuSans-34"/>
      </g>
     </g>
    </g>
    <g id="ytick_3">
     <g id="line2d_12">
      <path clip-path="url(#p2874e1126c)" d="M 57.6 228.051299 
L 414.72 228.051299 
" style="fill:none;stroke:#cccccc;stroke-linecap:round;stroke-width:0.8;"/>
     </g>
     <g id="text_13">
      <!-- 0.56 -->
      <g style="fill:#262626;" transform="translate(28.334375 231.850518)scale(0.1 -0.1)">
       <defs>
        <path d="M 2113 2584 
Q 1688 2584 1439 2293 
Q 1191 2003 1191 1497 
Q 1191 994 1439 701 
Q 1688 409 2113 409 
Q 2538 409 2786 701 
Q 3034 994 3034 1497 
Q 3034 2003 2786 2293 
Q 2538 2584 2113 2584 
z
M 3366 4563 
L 3366 3988 
Q 3128 4100 2886 4159 
Q 2644 4219 2406 4219 
Q 1781 4219 1451 3797 
Q 1122 3375 1075 2522 
Q 1259 2794 1537 2939 
Q 1816 3084 2150 3084 
Q 2853 3084 3261 2657 
Q 3669 2231 3669 1497 
Q 3669 778 3244 343 
Q 2819 -91 2113 -91 
Q 1303 -91 875 529 
Q 447 1150 447 2328 
Q 447 3434 972 4092 
Q 1497 4750 2381 4750 
Q 2619 4750 2861 4703 
Q 3103 4656 3366 4563 
z
" id="DejaVuSans-36" transform="scale(0.015625)"/>
       </defs>
       <use xlink:href="#DejaVuSans-30"/>
       <use x="63.623047" xlink:href="#DejaVuSans-2e"/>
       <use x="95.410156" xlink:href="#DejaVuSans-35"/>
       <use x="159.033203" xlink:href="#DejaVuSans-36"/>
      </g>
     </g>
    </g>
    <g id="ytick_4">
     <g id="line2d_13">
      <path clip-path="url(#p2874e1126c)" d="M 57.6 197.943139 
L 414.72 197.943139 
" style="fill:none;stroke:#cccccc;stroke-linecap:round;stroke-width:0.8;"/>
     </g>
     <g id="text_14">
      <!-- 0.58 -->
      <g style="fill:#262626;" transform="translate(28.334375 201.742358)scale(0.1 -0.1)">
       <defs>
        <path d="M 2034 2216 
Q 1584 2216 1326 1975 
Q 1069 1734 1069 1313 
Q 1069 891 1326 650 
Q 1584 409 2034 409 
Q 2484 409 2743 651 
Q 3003 894 3003 1313 
Q 3003 1734 2745 1975 
Q 2488 2216 2034 2216 
z
M 1403 2484 
Q 997 2584 770 2862 
Q 544 3141 544 3541 
Q 544 4100 942 4425 
Q 1341 4750 2034 4750 
Q 2731 4750 3128 4425 
Q 3525 4100 3525 3541 
Q 3525 3141 3298 2862 
Q 3072 2584 2669 2484 
Q 3125 2378 3379 2068 
Q 3634 1759 3634 1313 
Q 3634 634 3220 271 
Q 2806 -91 2034 -91 
Q 1263 -91 848 271 
Q 434 634 434 1313 
Q 434 1759 690 2068 
Q 947 2378 1403 2484 
z
M 1172 3481 
Q 1172 3119 1398 2916 
Q 1625 2713 2034 2713 
Q 2441 2713 2670 2916 
Q 2900 3119 2900 3481 
Q 2900 3844 2670 4047 
Q 2441 4250 2034 4250 
Q 1625 4250 1398 4047 
Q 1172 3844 1172 3481 
z
" id="DejaVuSans-38" transform="scale(0.015625)"/>
       </defs>
       <use xlink:href="#DejaVuSans-30"/>
       <use x="63.623047" xlink:href="#DejaVuSans-2e"/>
       <use x="95.410156" xlink:href="#DejaVuSans-35"/>
       <use x="159.033203" xlink:href="#DejaVuSans-38"/>
      </g>
     </g>
    </g>
    <g id="ytick_5">
     <g id="line2d_14">
      <path clip-path="url(#p2874e1126c)" d="M 57.6 167.834979 
L 414.72 167.834979 
" style="fill:none;stroke:#cccccc;stroke-linecap:round;stroke-width:0.8;"/>
     </g>
     <g id="text_15">
      <!-- 0.60 -->
      <g style="fill:#262626;" transform="translate(28.334375 171.634198)scale(0.1 -0.1)">
       <use xlink:href="#DejaVuSans-30"/>
       <use x="63.623047" xlink:href="#DejaVuSans-2e"/>
       <use x="95.410156" xlink:href="#DejaVuSans-36"/>
       <use x="159.033203" xlink:href="#DejaVuSans-30"/>
      </g>
     </g>
    </g>
    <g id="ytick_6">
     <g id="line2d_15">
      <path clip-path="url(#p2874e1126c)" d="M 57.6 137.726819 
L 414.72 137.726819 
" style="fill:none;stroke:#cccccc;stroke-linecap:round;stroke-width:0.8;"/>
     </g>
     <g id="text_16">
      <!-- 0.62 -->
      <g style="fill:#262626;" transform="translate(28.334375 141.526038)scale(0.1 -0.1)">
       <use xlink:href="#DejaVuSans-30"/>
       <use x="63.623047" xlink:href="#DejaVuSans-2e"/>
       <use x="95.410156" xlink:href="#DejaVuSans-36"/>
       <use x="159.033203" xlink:href="#DejaVuSans-32"/>
      </g>
     </g>
    </g>
    <g id="ytick_7">
     <g id="line2d_16">
      <path clip-path="url(#p2874e1126c)" d="M 57.6 107.618659 
L 414.72 107.618659 
" style="fill:none;stroke:#cccccc;stroke-linecap:round;stroke-width:0.8;"/>
     </g>
     <g id="text_17">
      <!-- 0.64 -->
      <g style="fill:#262626;" transform="translate(28.334375 111.417877)scale(0.1 -0.1)">
       <use xlink:href="#DejaVuSans-30"/>
       <use x="63.623047" xlink:href="#DejaVuSans-2e"/>
       <use x="95.410156" xlink:href="#DejaVuSans-36"/>
       <use x="159.033203" xlink:href="#DejaVuSans-34"/>
      </g>
     </g>
    </g>
    <g id="ytick_8">
     <g id="line2d_17">
      <path clip-path="url(#p2874e1126c)" d="M 57.6 77.510499 
L 414.72 77.510499 
" style="fill:none;stroke:#cccccc;stroke-linecap:round;stroke-width:0.8;"/>
     </g>
     <g id="text_18">
      <!-- 0.66 -->
      <g style="fill:#262626;" transform="translate(28.334375 81.309717)scale(0.1 -0.1)">
       <use xlink:href="#DejaVuSans-30"/>
       <use x="63.623047" xlink:href="#DejaVuSans-2e"/>
       <use x="95.410156" xlink:href="#DejaVuSans-36"/>
       <use x="159.033203" xlink:href="#DejaVuSans-36"/>
      </g>
     </g>
    </g>
    <g id="ytick_9">
     <g id="line2d_18">
      <path clip-path="url(#p2874e1126c)" d="M 57.6 47.402338 
L 414.72 47.402338 
" style="fill:none;stroke:#cccccc;stroke-linecap:round;stroke-width:0.8;"/>
     </g>
     <g id="text_19">
      <!-- 0.68 -->
      <g style="fill:#262626;" transform="translate(28.334375 51.201557)scale(0.1 -0.1)">
       <use xlink:href="#DejaVuSans-30"/>
       <use x="63.623047" xlink:href="#DejaVuSans-2e"/>
       <use x="95.410156" xlink:href="#DejaVuSans-36"/>
       <use x="159.033203" xlink:href="#DejaVuSans-38"/>
      </g>
     </g>
    </g>
    <g id="text_20">
     <!-- Iteration -->
     <g style="fill:#262626;" transform="translate(22.254687 195.736594)rotate(-90)scale(0.1 -0.1)">
      <defs>
       <path d="M 628 4666 
L 1259 4666 
L 1259 0 
L 628 0 
L 628 4666 
z
" id="DejaVuSans-49" transform="scale(0.015625)"/>
       <path d="M 1172 4494 
L 1172 3500 
L 2356 3500 
L 2356 3053 
L 1172 3053 
L 1172 1153 
Q 1172 725 1289 603 
Q 1406 481 1766 481 
L 2356 481 
L 2356 0 
L 1766 0 
Q 1100 0 847 248 
Q 594 497 594 1153 
L 594 3053 
L 172 3053 
L 172 3500 
L 594 3500 
L 594 4494 
L 1172 4494 
z
" id="DejaVuSans-74" transform="scale(0.015625)"/>
       <path d="M 3597 1894 
L 3597 1613 
L 953 1613 
Q 991 1019 1311 708 
Q 1631 397 2203 397 
Q 2534 397 2845 478 
Q 3156 559 3463 722 
L 3463 178 
Q 3153 47 2828 -22 
Q 2503 -91 2169 -91 
Q 1331 -91 842 396 
Q 353 884 353 1716 
Q 353 2575 817 3079 
Q 1281 3584 2069 3584 
Q 2775 3584 3186 3129 
Q 3597 2675 3597 1894 
z
M 3022 2063 
Q 3016 2534 2758 2815 
Q 2500 3097 2075 3097 
Q 1594 3097 1305 2825 
Q 1016 2553 972 2059 
L 3022 2063 
z
" id="DejaVuSans-65" transform="scale(0.015625)"/>
       <path d="M 2194 1759 
Q 1497 1759 1228 1600 
Q 959 1441 959 1056 
Q 959 750 1161 570 
Q 1363 391 1709 391 
Q 2188 391 2477 730 
Q 2766 1069 2766 1631 
L 2766 1759 
L 2194 1759 
z
M 3341 1997 
L 3341 0 
L 2766 0 
L 2766 531 
Q 2569 213 2275 61 
Q 1981 -91 1556 -91 
Q 1019 -91 701 211 
Q 384 513 384 1019 
Q 384 1609 779 1909 
Q 1175 2209 1959 2209 
L 2766 2209 
L 2766 2266 
Q 2766 2663 2505 2880 
Q 2244 3097 1772 3097 
Q 1472 3097 1187 3025 
Q 903 2953 641 2809 
L 641 3341 
Q 956 3463 1253 3523 
Q 1550 3584 1831 3584 
Q 2591 3584 2966 3190 
Q 3341 2797 3341 1997 
z
" id="DejaVuSans-61" transform="scale(0.015625)"/>
       <path d="M 603 3500 
L 1178 3500 
L 1178 0 
L 603 0 
L 603 3500 
z
M 603 4863 
L 1178 4863 
L 1178 4134 
L 603 4134 
L 603 4863 
z
" id="DejaVuSans-69" transform="scale(0.015625)"/>
       <path d="M 3513 2113 
L 3513 0 
L 2938 0 
L 2938 2094 
Q 2938 2591 2744 2837 
Q 2550 3084 2163 3084 
Q 1697 3084 1428 2787 
Q 1159 2491 1159 1978 
L 1159 0 
L 581 0 
L 581 3500 
L 1159 3500 
L 1159 2956 
Q 1366 3272 1645 3428 
Q 1925 3584 2291 3584 
Q 2894 3584 3203 3211 
Q 3513 2838 3513 2113 
z
" id="DejaVuSans-6e" transform="scale(0.015625)"/>
      </defs>
      <use xlink:href="#DejaVuSans-49"/>
      <use x="29.492188" xlink:href="#DejaVuSans-74"/>
      <use x="68.701172" xlink:href="#DejaVuSans-65"/>
      <use x="130.224609" xlink:href="#DejaVuSans-72"/>
      <use x="171.337891" xlink:href="#DejaVuSans-61"/>
      <use x="232.617188" xlink:href="#DejaVuSans-74"/>
      <use x="271.826172" xlink:href="#DejaVuSans-69"/>
      <use x="299.609375" xlink:href="#DejaVuSans-6f"/>
      <use x="360.791016" xlink:href="#DejaVuSans-6e"/>
     </g>
    </g>
   </g>
   <g id="PolyCollection_1">
    <defs>
     <path d="M 73.832727 -225.240951 
L 73.832727 -108.941101 
L 75.464157 -108.915572 
L 77.095587 -140.974173 
L 78.727017 -155.101524 
L 80.358447 -151.21841 
L 81.989877 -102.518008 
L 83.621307 -99.832205 
L 85.252736 -145.384132 
L 86.884166 -184.469112 
L 88.515596 -90.934114 
L 90.147026 -121.449346 
L 91.778456 -150.270727 
L 93.409886 -138.380992 
L 95.041316 -156.042753 
L 96.672746 -115.737537 
L 98.304175 -98.875751 
L 99.935605 -82.773151 
L 101.567035 -132.169962 
L 103.198465 -140.653711 
L 104.829895 -159.189287 
L 106.461325 -128.886993 
L 108.092755 -147.313733 
L 109.724185 -152.229973 
L 111.355614 -122.727783 
L 112.987044 -107.878024 
L 114.618474 -121.809119 
L 116.249904 -143.199512 
L 117.881334 -110.593322 
L 119.512764 -80.514948 
L 121.144194 -161.555951 
L 122.775624 -147.480385 
L 124.407053 -116.021961 
L 126.038483 -110.696664 
L 127.669913 -128.541477 
L 129.301343 -148.354471 
L 130.932773 -147.396585 
L 132.564203 -84.589245 
L 134.195633 -118.958534 
L 135.827063 -92.037012 
L 137.458492 -91.10811 
L 139.089922 -125.012519 
L 140.721352 -133.576544 
L 142.352782 -129.72667 
L 143.984212 -102.093152 
L 145.615642 -104.191293 
L 147.247072 -156.016398 
L 148.878502 -124.766718 
L 150.509931 -126.498988 
L 152.141361 -79.349089 
L 153.772791 -147.146454 
L 155.404221 -123.440514 
L 157.035651 -119.168011 
L 158.667081 -113.729853 
L 160.298511 -180.784656 
L 161.929941 -146.089554 
L 163.56137 -134.055846 
L 165.1928 -118.051347 
L 166.82423 -133.997873 
L 168.45566 -97.300845 
L 170.08709 -72.339885 
L 171.71852 -114.563965 
L 173.34995 -158.688237 
L 174.98138 -130.307122 
L 176.61281 -170.405667 
L 178.244239 -165.125173 
L 179.875669 -153.995411 
L 181.507099 -77.630465 
L 183.138529 -84.947956 
L 184.769959 -91.890096 
L 186.401389 -138.336137 
L 188.032819 -156.833515 
L 189.664249 -139.135213 
L 191.295678 -121.311853 
L 192.927108 -131.916124 
L 194.558538 -152.918377 
L 196.189968 -129.124654 
L 197.821398 -155.82947 
L 199.452828 -181.63706 
L 201.084258 -91.214392 
L 202.715688 -133.17234 
L 204.347117 -131.225967 
L 205.978547 -139.035876 
L 207.609977 -120.020593 
L 209.241407 -131.295101 
L 210.872837 -138.330347 
L 212.504267 -174.01015 
L 214.135697 -118.053018 
L 215.767127 -88.316704 
L 217.398556 -148.536093 
L 219.029986 -81.313557 
L 220.661416 -98.916029 
L 222.292846 -136.71699 
L 223.924276 -100.549726 
L 225.555706 -100.683353 
L 227.187136 -187.672552 
L 228.818566 -50.112 
L 230.449995 -154.350101 
L 232.081425 -143.920513 
L 233.712855 -124.546426 
L 235.344285 -97.588649 
L 236.975715 -145.358973 
L 238.607145 -120.017001 
L 240.238575 -130.389282 
L 241.870005 -118.854062 
L 243.501434 -85.363371 
L 245.132864 -77.710378 
L 246.764294 -139.460452 
L 248.395724 -122.437136 
L 250.027154 -135.324894 
L 251.658584 -61.56757 
L 253.290014 -156.780344 
L 254.921444 -111.797102 
L 256.552873 -119.270119 
L 258.184303 -162.544166 
L 259.815733 -109.684738 
L 261.447163 -133.350059 
L 263.078593 -129.128538 
L 264.710023 -80.628861 
L 266.341453 -147.301968 
L 267.972883 -139.704741 
L 269.604312 -175.814236 
L 271.235742 -75.828661 
L 272.867172 -125.922716 
L 274.498602 -122.674577 
L 276.130032 -117.612541 
L 277.761462 -130.674879 
L 279.392892 -118.926058 
L 281.024322 -112.920205 
L 282.655751 -102.625799 
L 284.287181 -135.281806 
L 285.918611 -109.729926 
L 287.550041 -107.971265 
L 289.181471 -167.332667 
L 290.812901 -121.235206 
L 292.444331 -119.081256 
L 294.075761 -109.402197 
L 295.70719 -147.352869 
L 297.33862 -124.050823 
L 298.97005 -167.40891 
L 300.60148 -52.956788 
L 302.23291 -115.299252 
L 303.86434 -89.8322 
L 305.49577 -160.705985 
L 307.1272 -132.303922 
L 308.75863 -143.372498 
L 310.390059 -134.155955 
L 312.021489 -144.13312 
L 313.652919 -133.317754 
L 315.284349 -171.267919 
L 316.915779 -155.362219 
L 318.547209 -150.360023 
L 320.178639 -105.212663 
L 321.810069 -169.987775 
L 323.441498 -138.548123 
L 325.072928 -122.696986 
L 326.704358 -128.315641 
L 328.335788 -131.34149 
L 329.967218 -138.329315 
L 331.598648 -101.945116 
L 333.230078 -140.368339 
L 334.861508 -109.584232 
L 336.492937 -127.953201 
L 338.124367 -131.736525 
L 339.755797 -114.375565 
L 341.387227 -113.337824 
L 343.018657 -115.663316 
L 344.650087 -139.307958 
L 346.281517 -135.403647 
L 347.912947 -126.846037 
L 349.544376 -137.886733 
L 351.175806 -137.860373 
L 352.807236 -143.168454 
L 354.438666 -157.96215 
L 356.070096 -140.050142 
L 357.701526 -137.054539 
L 359.332956 -144.402854 
L 360.964386 -108.520032 
L 362.595815 -156.063487 
L 364.227245 -129.272084 
L 365.858675 -123.174316 
L 367.490105 -137.539112 
L 369.121535 -156.046544 
L 370.752965 -159.033958 
L 372.384395 -155.110901 
L 374.015825 -96.630358 
L 375.647254 -116.397922 
L 377.278684 -136.878571 
L 378.910114 -175.580795 
L 380.541544 -116.900353 
L 382.172974 -105.620622 
L 383.804404 -133.200854 
L 385.435834 -132.740996 
L 387.067264 -138.062398 
L 388.698693 -138.455694 
L 390.330123 -136.678989 
L 391.961553 -147.494727 
L 393.592983 -144.73466 
L 395.224413 -142.608231 
L 396.855843 -151.598768 
L 398.487273 -149.1882 
L 398.487273 -191.287135 
L 398.487273 -191.287135 
L 396.855843 -232.385992 
L 395.224413 -267.870699 
L 393.592983 -257.784374 
L 391.961553 -284.396164 
L 390.330123 -227.212968 
L 388.698693 -227.027614 
L 387.067264 -231.671484 
L 385.435834 -236.525432 
L 383.804404 -237.834626 
L 382.172974 -269.659577 
L 380.541544 -218.931797 
L 378.910114 -219.526286 
L 377.278684 -262.271488 
L 375.647254 -276.934463 
L 374.015825 -224.741228 
L 372.384395 -221.054033 
L 370.752965 -243.315948 
L 369.121535 -276.403787 
L 367.490105 -237.2521 
L 365.858675 -260.1032 
L 364.227245 -198.736895 
L 362.595815 -183.825021 
L 360.964386 -244.562565 
L 359.332956 -269.372925 
L 357.701526 -289.682855 
L 356.070096 -275.068 
L 354.438666 -235.290793 
L 352.807236 -234.761977 
L 351.175806 -180.091438 
L 349.544376 -271.567811 
L 347.912947 -240.424511 
L 346.281517 -249.777763 
L 344.650087 -202.006328 
L 343.018657 -189.521304 
L 341.387227 -246.142584 
L 339.755797 -196.059554 
L 338.124367 -219.87221 
L 336.492937 -249.470682 
L 334.861508 -217.005241 
L 333.230078 -237.89115 
L 331.598648 -219.734622 
L 329.967218 -264.805813 
L 328.335788 -188.029408 
L 326.704358 -266.429141 
L 325.072928 -201.794795 
L 323.441498 -208.325232 
L 321.810069 -263.018442 
L 320.178639 -232.359061 
L 318.547209 -249.705712 
L 316.915779 -259.506726 
L 315.284349 -243.548552 
L 313.652919 -202.145827 
L 312.021489 -218.684904 
L 310.390059 -249.617029 
L 308.75863 -220.684406 
L 307.1272 -217.249561 
L 305.49577 -286.704559 
L 303.86434 -197.131106 
L 302.23291 -249.779111 
L 300.60148 -257.860071 
L 298.97005 -219.056327 
L 297.33862 -247.940053 
L 295.70719 -225.007204 
L 294.075761 -249.195985 
L 292.444331 -254.2616 
L 290.812901 -242.115289 
L 289.181471 -219.972566 
L 287.550041 -184.679682 
L 285.918611 -245.620953 
L 284.287181 -231.070976 
L 282.655751 -218.834219 
L 281.024322 -221.979126 
L 279.392892 -239.181046 
L 277.761462 -232.109696 
L 276.130032 -255.538191 
L 274.498602 -178.617168 
L 272.867172 -270.93481 
L 271.235742 -235.219626 
L 269.604312 -281.894521 
L 267.972883 -238.210429 
L 266.341453 -264.890403 
L 264.710023 -174.025109 
L 263.078593 -236.902712 
L 261.447163 -228.60769 
L 259.815733 -267.709041 
L 258.184303 -222.229789 
L 256.552873 -231.784821 
L 254.921444 -236.217503 
L 253.290014 -258.383164 
L 251.658584 -221.23234 
L 250.027154 -284.382288 
L 248.395724 -242.52938 
L 246.764294 -243.78675 
L 245.132864 -236.138663 
L 243.501434 -256.429658 
L 241.870005 -252.046574 
L 240.238575 -214.416278 
L 238.607145 -243.525201 
L 236.975715 -259.643883 
L 235.344285 -228.971765 
L 233.712855 -231.751906 
L 232.081425 -256.757972 
L 230.449995 -262.652283 
L 228.818566 -254.420566 
L 227.187136 -243.1304 
L 225.555706 -241.104659 
L 223.924276 -261.797081 
L 222.292846 -207.776027 
L 220.661416 -249.299899 
L 219.029986 -171.394081 
L 217.398556 -247.442342 
L 215.767127 -255.896594 
L 214.135697 -273.602719 
L 212.504267 -268.463273 
L 210.872837 -275.271077 
L 209.241407 -257.323228 
L 207.609977 -256.392494 
L 205.978547 -232.32218 
L 204.347117 -255.504774 
L 202.715688 -235.403987 
L 201.084258 -237.042948 
L 199.452828 -244.739708 
L 197.821398 -236.528285 
L 196.189968 -252.769105 
L 194.558538 -190.585795 
L 192.927108 -212.552225 
L 191.295678 -251.966822 
L 189.664249 -183.289191 
L 188.032819 -282.642848 
L 186.401389 -252.31842 
L 184.769959 -251.240489 
L 183.138529 -281.565592 
L 181.507099 -255.617724 
L 179.875669 -250.377552 
L 178.244239 -252.412401 
L 176.61281 -266.958161 
L 174.98138 -267.857227 
L 173.34995 -267.54449 
L 171.71852 -176.962248 
L 170.08709 -258.092707 
L 168.45566 -218.286934 
L 166.82423 -226.487687 
L 165.1928 -272.881257 
L 163.56137 -250.949746 
L 161.929941 -233.339198 
L 160.298511 -223.665241 
L 158.667081 -226.629455 
L 157.035651 -222.789966 
L 155.404221 -246.303403 
L 153.772791 -292.032 
L 152.141361 -241.966679 
L 150.509931 -244.326806 
L 148.878502 -268.391103 
L 147.247072 -273.334225 
L 145.615642 -221.35268 
L 143.984212 -246.145772 
L 142.352782 -254.80206 
L 140.721352 -224.765751 
L 139.089922 -226.575729 
L 137.458492 -200.01692 
L 135.827063 -198.33039 
L 134.195633 -203.060297 
L 132.564203 -230.190942 
L 130.932773 -267.226507 
L 129.301343 -208.715913 
L 127.669913 -225.642439 
L 126.038483 -245.96522 
L 124.407053 -237.617358 
L 122.775624 -247.089207 
L 121.144194 -227.747043 
L 119.512764 -218.023081 
L 117.881334 -256.319109 
L 116.249904 -285.246934 
L 114.618474 -248.058561 
L 112.987044 -212.427156 
L 111.355614 -248.409717 
L 109.724185 -268.439085 
L 108.092755 -227.298315 
L 106.461325 -231.055852 
L 104.829895 -240.510386 
L 103.198465 -229.151042 
L 101.567035 -237.485942 
L 99.935605 -266.051346 
L 98.304175 -247.138375 
L 96.672746 -235.271619 
L 95.041316 -250.09738 
L 93.409886 -227.179668 
L 91.778456 -281.218354 
L 90.147026 -254.557121 
L 88.515596 -214.757471 
L 86.884166 -248.014877 
L 85.252736 -236.445237 
L 83.621307 -215.222266 
L 81.989877 -271.453904 
L 80.358447 -272.63607 
L 78.727017 -222.615877 
L 77.095587 -238.491583 
L 75.464157 -251.087691 
L 73.832727 -225.240951 
z
" id="m9be3712d3c" style="stroke:#ffffff;stroke-opacity:0.2;"/>
    </defs>
    <g clip-path="url(#p2874e1126c)">
     <use style="fill:#1f77b4;fill-opacity:0.2;stroke:#ffffff;stroke-opacity:0.2;" x="0" xlink:href="#m9be3712d3c" y="345.6"/>
    </g>
   </g>
   <g id="LineCollection_1">
    <path clip-path="url(#p2874e1126c)" d="M 398.487273 295.488 
L 398.487273 53.568 
" style="fill:none;stroke:#1f77b4;stroke-dasharray:5.55,2.4;stroke-dashoffset:0;stroke-width:1.5;"/>
   </g>
   <g id="line2d_19">
    <path clip-path="url(#p2874e1126c)" d="M 73.832727 178.508974 
L 75.464157 165.598369 
L 77.095587 155.867122 
L 78.727017 156.7413 
L 80.358447 133.67276 
L 81.989877 158.614044 
L 83.621307 188.072764 
L 85.252736 154.685316 
L 86.884166 129.358005 
L 88.515596 192.754207 
L 90.147026 157.596766 
L 91.778456 129.85546 
L 93.409886 162.81967 
L 95.041316 142.529934 
L 96.672746 170.095422 
L 98.304175 172.592937 
L 99.935605 171.187752 
L 101.567035 160.772048 
L 103.198465 160.697624 
L 104.829895 145.750163 
L 106.461325 165.628577 
L 108.092755 158.293976 
L 109.724185 135.265471 
L 112.987044 185.44741 
L 114.618474 160.66616 
L 116.249904 131.376777 
L 117.881334 162.143784 
L 119.512764 196.330986 
L 121.144194 150.948503 
L 122.775624 148.315204 
L 124.407053 168.780341 
L 126.038483 167.269058 
L 127.669913 168.508042 
L 129.301343 167.064808 
L 130.932773 138.288454 
L 132.564203 188.209907 
L 134.195633 184.590585 
L 135.827063 200.416299 
L 137.458492 200.037485 
L 139.089922 169.805876 
L 140.721352 166.428853 
L 142.352782 153.335635 
L 143.984212 171.480538 
L 145.615642 182.828014 
L 147.247072 130.924688 
L 148.878502 149.02109 
L 150.509931 160.187103 
L 152.141361 184.942116 
L 153.772791 126.010773 
L 155.404221 160.728042 
L 157.035651 174.621012 
L 158.667081 175.420346 
L 160.298511 143.375052 
L 161.929941 155.885624 
L 165.1928 150.133698 
L 166.82423 165.35722 
L 168.45566 187.80611 
L 170.08709 180.383704 
L 171.71852 199.836894 
L 173.34995 132.483636 
L 174.98138 146.517825 
L 176.61281 126.918086 
L 178.244239 136.831213 
L 179.875669 143.413518 
L 181.507099 178.975905 
L 183.138529 162.343226 
L 184.769959 174.034708 
L 188.032819 125.861819 
L 189.664249 184.387798 
L 191.295678 158.960663 
L 192.927108 173.365826 
L 194.558538 173.847914 
L 196.189968 154.653121 
L 197.821398 149.421123 
L 199.452828 132.411616 
L 201.084258 181.47133 
L 202.715688 161.311837 
L 204.347117 152.234629 
L 205.978547 159.920972 
L 207.609977 157.393457 
L 209.241407 151.290836 
L 210.872837 138.799288 
L 212.504267 124.363289 
L 215.767127 173.493351 
L 217.398556 147.610782 
L 219.029986 219.246181 
L 220.661416 171.492036 
L 222.292846 173.353491 
L 223.924276 164.426597 
L 225.555706 174.705994 
L 227.187136 130.198524 
L 228.818566 193.333717 
L 230.449995 137.098808 
L 232.081425 145.260758 
L 233.712855 167.450834 
L 235.344285 182.319793 
L 236.975715 143.098572 
L 238.607145 163.828899 
L 240.238575 173.19722 
L 241.870005 160.149682 
L 245.132864 188.675479 
L 246.764294 153.976399 
L 248.395724 163.116742 
L 250.027154 135.746409 
L 251.658584 204.200045 
L 253.290014 138.018246 
L 254.921444 171.592698 
L 256.552873 170.07253 
L 258.184303 153.213022 
L 259.815733 156.903111 
L 261.447163 164.621125 
L 263.078593 162.584375 
L 264.710023 218.273015 
L 266.341453 139.503814 
L 267.972883 156.642415 
L 269.604312 116.745622 
L 271.235742 190.075857 
L 272.867172 147.171237 
L 274.498602 194.954128 
L 276.130032 159.024634 
L 277.761462 164.207713 
L 279.392892 166.546448 
L 281.024322 178.150334 
L 282.655751 184.869991 
L 284.287181 162.423609 
L 285.918611 167.92456 
L 287.550041 199.274527 
L 289.181471 151.947383 
L 290.812901 163.924752 
L 292.444331 158.928572 
L 294.075761 166.300909 
L 295.70719 159.419964 
L 297.33862 159.604562 
L 298.97005 152.367381 
L 300.60148 190.19157 
L 302.23291 163.060819 
L 303.86434 202.118347 
L 305.49577 121.894728 
L 307.1272 170.823258 
L 308.75863 163.571548 
L 310.390059 153.713508 
L 312.021489 164.190988 
L 313.652919 177.86821 
L 315.284349 138.191764 
L 316.915779 138.165528 
L 318.547209 145.567133 
L 320.178639 176.814138 
L 321.810069 129.096892 
L 323.441498 172.163322 
L 325.072928 183.354109 
L 326.704358 148.227609 
L 328.335788 185.914551 
L 329.967218 144.032436 
L 331.598648 184.760131 
L 333.230078 156.470255 
L 334.861508 182.305264 
L 336.492937 156.888058 
L 338.124367 169.795632 
L 339.755797 190.382441 
L 341.387227 165.859796 
L 343.018657 193.00769 
L 344.650087 174.942857 
L 346.281517 153.009295 
L 347.912947 161.964726 
L 349.544376 140.872728 
L 351.175806 186.624095 
L 352.807236 156.634784 
L 354.438666 148.973529 
L 356.070096 138.040929 
L 357.701526 132.231303 
L 359.332956 138.712111 
L 360.964386 169.058702 
L 362.595815 175.655746 
L 364.227245 181.595511 
L 365.858675 153.961242 
L 367.490105 158.204394 
L 369.121535 129.374835 
L 370.752965 144.425047 
L 372.384395 157.517533 
L 374.015825 184.914207 
L 375.647254 148.933808 
L 377.278684 146.02497 
L 378.910114 148.04646 
L 380.541544 177.683925 
L 382.172974 157.9599 
L 383.804404 160.08226 
L 385.435834 160.966786 
L 387.067264 160.733059 
L 388.698693 162.858346 
L 390.330123 163.654022 
L 391.961553 129.654555 
L 393.592983 144.340483 
L 395.224413 140.360535 
L 396.855843 153.60762 
L 398.487273 175.362332 
L 398.487273 175.362332 
" style="fill:none;stroke:#1f77b4;stroke-linecap:round;stroke-width:1.5;"/>
   </g>
   <g id="patch_3">
    <path d="M 57.6 307.584 
L 57.6 41.472 
" style="fill:none;stroke:#cccccc;stroke-linecap:square;stroke-linejoin:miter;stroke-width:0.8;"/>
   </g>
   <g id="patch_4">
    <path d="M 414.72 307.584 
L 414.72 41.472 
" style="fill:none;stroke:#cccccc;stroke-linecap:square;stroke-linejoin:miter;stroke-width:0.8;"/>
   </g>
   <g id="patch_5">
    <path d="M 57.6 307.584 
L 414.72 307.584 
" style="fill:none;stroke:#cccccc;stroke-linecap:square;stroke-linejoin:miter;stroke-width:0.8;"/>
   </g>
   <g id="patch_6">
    <path d="M 57.6 41.472 
L 414.72 41.472 
" style="fill:none;stroke:#cccccc;stroke-linecap:square;stroke-linejoin:miter;stroke-width:0.8;"/>
   </g>
   <g id="text_21">
    <!-- Model performance vs. # of iterations -->
    <g style="fill:#262626;" transform="translate(122.314688 35.472)scale(0.12 -0.12)">
     <defs>
      <path d="M 628 4666 
L 1569 4666 
L 2759 1491 
L 3956 4666 
L 4897 4666 
L 4897 0 
L 4281 0 
L 4281 4097 
L 3078 897 
L 2444 897 
L 1241 4097 
L 1241 0 
L 628 0 
L 628 4666 
z
" id="DejaVuSans-4d" transform="scale(0.015625)"/>
      <path d="M 2906 2969 
L 2906 4863 
L 3481 4863 
L 3481 0 
L 2906 0 
L 2906 525 
Q 2725 213 2448 61 
Q 2172 -91 1784 -91 
Q 1150 -91 751 415 
Q 353 922 353 1747 
Q 353 2572 751 3078 
Q 1150 3584 1784 3584 
Q 2172 3584 2448 3432 
Q 2725 3281 2906 2969 
z
M 947 1747 
Q 947 1113 1208 752 
Q 1469 391 1925 391 
Q 2381 391 2643 752 
Q 2906 1113 2906 1747 
Q 2906 2381 2643 2742 
Q 2381 3103 1925 3103 
Q 1469 3103 1208 2742 
Q 947 2381 947 1747 
z
" id="DejaVuSans-64" transform="scale(0.015625)"/>
      <path d="M 603 4863 
L 1178 4863 
L 1178 0 
L 603 0 
L 603 4863 
z
" id="DejaVuSans-6c" transform="scale(0.015625)"/>
      <path id="DejaVuSans-20" transform="scale(0.015625)"/>
      <path d="M 1159 525 
L 1159 -1331 
L 581 -1331 
L 581 3500 
L 1159 3500 
L 1159 2969 
Q 1341 3281 1617 3432 
Q 1894 3584 2278 3584 
Q 2916 3584 3314 3078 
Q 3713 2572 3713 1747 
Q 3713 922 3314 415 
Q 2916 -91 2278 -91 
Q 1894 -91 1617 61 
Q 1341 213 1159 525 
z
M 3116 1747 
Q 3116 2381 2855 2742 
Q 2594 3103 2138 3103 
Q 1681 3103 1420 2742 
Q 1159 2381 1159 1747 
Q 1159 1113 1420 752 
Q 1681 391 2138 391 
Q 2594 391 2855 752 
Q 3116 1113 3116 1747 
z
" id="DejaVuSans-70" transform="scale(0.015625)"/>
      <path d="M 2375 4863 
L 2375 4384 
L 1825 4384 
Q 1516 4384 1395 4259 
Q 1275 4134 1275 3809 
L 1275 3500 
L 2222 3500 
L 2222 3053 
L 1275 3053 
L 1275 0 
L 697 0 
L 697 3053 
L 147 3053 
L 147 3500 
L 697 3500 
L 697 3744 
Q 697 4328 969 4595 
Q 1241 4863 1831 4863 
L 2375 4863 
z
" id="DejaVuSans-66" transform="scale(0.015625)"/>
      <path d="M 3328 2828 
Q 3544 3216 3844 3400 
Q 4144 3584 4550 3584 
Q 5097 3584 5394 3201 
Q 5691 2819 5691 2113 
L 5691 0 
L 5113 0 
L 5113 2094 
Q 5113 2597 4934 2840 
Q 4756 3084 4391 3084 
Q 3944 3084 3684 2787 
Q 3425 2491 3425 1978 
L 3425 0 
L 2847 0 
L 2847 2094 
Q 2847 2600 2669 2842 
Q 2491 3084 2119 3084 
Q 1678 3084 1418 2786 
Q 1159 2488 1159 1978 
L 1159 0 
L 581 0 
L 581 3500 
L 1159 3500 
L 1159 2956 
Q 1356 3278 1631 3431 
Q 1906 3584 2284 3584 
Q 2666 3584 2933 3390 
Q 3200 3197 3328 2828 
z
" id="DejaVuSans-6d" transform="scale(0.015625)"/>
      <path d="M 191 3500 
L 800 3500 
L 1894 563 
L 2988 3500 
L 3597 3500 
L 2284 0 
L 1503 0 
L 191 3500 
z
" id="DejaVuSans-76" transform="scale(0.015625)"/>
      <path d="M 2834 3397 
L 2834 2853 
Q 2591 2978 2328 3040 
Q 2066 3103 1784 3103 
Q 1356 3103 1142 2972 
Q 928 2841 928 2578 
Q 928 2378 1081 2264 
Q 1234 2150 1697 2047 
L 1894 2003 
Q 2506 1872 2764 1633 
Q 3022 1394 3022 966 
Q 3022 478 2636 193 
Q 2250 -91 1575 -91 
Q 1294 -91 989 -36 
Q 684 19 347 128 
L 347 722 
Q 666 556 975 473 
Q 1284 391 1588 391 
Q 1994 391 2212 530 
Q 2431 669 2431 922 
Q 2431 1156 2273 1281 
Q 2116 1406 1581 1522 
L 1381 1569 
Q 847 1681 609 1914 
Q 372 2147 372 2553 
Q 372 3047 722 3315 
Q 1072 3584 1716 3584 
Q 2034 3584 2315 3537 
Q 2597 3491 2834 3397 
z
" id="DejaVuSans-73" transform="scale(0.015625)"/>
      <path d="M 3272 2816 
L 2363 2816 
L 2100 1772 
L 3016 1772 
L 3272 2816 
z
M 2803 4594 
L 2478 3297 
L 3391 3297 
L 3719 4594 
L 4219 4594 
L 3897 3297 
L 4872 3297 
L 4872 2816 
L 3775 2816 
L 3519 1772 
L 4513 1772 
L 4513 1294 
L 3397 1294 
L 3072 0 
L 2572 0 
L 2894 1294 
L 1978 1294 
L 1656 0 
L 1153 0 
L 1478 1294 
L 494 1294 
L 494 1772 
L 1594 1772 
L 1856 2816 
L 850 2816 
L 850 3297 
L 1978 3297 
L 2297 4594 
L 2803 4594 
z
" id="DejaVuSans-23" transform="scale(0.015625)"/>
     </defs>
     <use xlink:href="#DejaVuSans-4d"/>
     <use x="86.279297" xlink:href="#DejaVuSans-6f"/>
     <use x="147.460938" xlink:href="#DejaVuSans-64"/>
     <use x="210.9375" xlink:href="#DejaVuSans-65"/>
     <use x="272.460938" xlink:href="#DejaVuSans-6c"/>
     <use x="300.244141" xlink:href="#DejaVuSans-20"/>
     <use x="332.03125" xlink:href="#DejaVuSans-70"/>
     <use x="395.507812" xlink:href="#DejaVuSans-65"/>
     <use x="457.03125" xlink:href="#DejaVuSans-72"/>
     <use x="498.144531" xlink:href="#DejaVuSans-66"/>
     <use x="533.349609" xlink:href="#DejaVuSans-6f"/>
     <use x="594.53125" xlink:href="#DejaVuSans-72"/>
     <use x="633.894531" xlink:href="#DejaVuSans-6d"/>
     <use x="731.306641" xlink:href="#DejaVuSans-61"/>
     <use x="792.585938" xlink:href="#DejaVuSans-6e"/>
     <use x="855.964844" xlink:href="#DejaVuSans-63"/>
     <use x="910.945312" xlink:href="#DejaVuSans-65"/>
     <use x="972.46875" xlink:href="#DejaVuSans-20"/>
     <use x="1004.255859" xlink:href="#DejaVuSans-76"/>
     <use x="1063.435547" xlink:href="#DejaVuSans-73"/>
     <use x="1115.535156" xlink:href="#DejaVuSans-2e"/>
     <use x="1147.322266" xlink:href="#DejaVuSans-20"/>
     <use x="1179.109375" xlink:href="#DejaVuSans-23"/>
     <use x="1262.898438" xlink:href="#DejaVuSans-20"/>
     <use x="1294.685547" xlink:href="#DejaVuSans-6f"/>
     <use x="1355.867188" xlink:href="#DejaVuSans-66"/>
     <use x="1391.072266" xlink:href="#DejaVuSans-20"/>
     <use x="1422.859375" xlink:href="#DejaVuSans-69"/>
     <use x="1450.642578" xlink:href="#DejaVuSans-74"/>
     <use x="1489.851562" xlink:href="#DejaVuSans-65"/>
     <use x="1551.375" xlink:href="#DejaVuSans-72"/>
     <use x="1592.488281" xlink:href="#DejaVuSans-61"/>
     <use x="1653.767578" xlink:href="#DejaVuSans-74"/>
     <use x="1692.976562" xlink:href="#DejaVuSans-69"/>
     <use x="1720.759766" xlink:href="#DejaVuSans-6f"/>
     <use x="1781.941406" xlink:href="#DejaVuSans-6e"/>
     <use x="1845.320312" xlink:href="#DejaVuSans-73"/>
    </g>
   </g>
  </g>
 </g>
 <defs>
  <clipPath id="p2874e1126c">
   <rect height="266.112" width="357.12" x="57.6" y="41.472"/>
  </clipPath>
 </defs>
</svg>
