<?xml version="1.0" encoding="utf-8" standalone="no"?>
<!DOCTYPE svg PUBLIC "-//W3C//DTD SVG 1.1//EN"
  "http://www.w3.org/Graphics/SVG/1.1/DTD/svg11.dtd">
<svg height="345.6pt" version="1.1" viewBox="0 0 460.8 345.6" width="460.8pt" xmlns="http://www.w3.org/2000/svg" xmlns:xlink="http://www.w3.org/1999/xlink">
 <metadata>
  <rdf:RDF xmlns:cc="http://creativecommons.org/ns#" xmlns:dc="http://purl.org/dc/elements/1.1/" xmlns:rdf="http://www.w3.org/1999/02/22-rdf-syntax-ns#">
   <cc:Work>
    <dc:type rdf:resource="http://purl.org/dc/dcmitype/StillImage"/>
    <dc:date>2022-01-03T10:21:16.949872</dc:date>
    <dc:format>image/svg+xml</dc:format>
    <dc:creator>
     <cc:Agent>
      <dc:title>Matplotlib v3.4.3, https://matplotlib.org/</dc:title>
     </cc:Agent>
    </dc:creator>
   </cc:Work>
  </rdf:RDF>
 </metadata>
 <defs>
  <style type="text/css">*{stroke-linecap:butt;stroke-linejoin:round;}</style>
 </defs>
 <g id="figure_1">
  <g id="patch_1">
   <path d="M 0 345.6 
L 460.8 345.6 
L 460.8 0 
L 0 0 
z
" style="fill:#ffffff;"/>
  </g>
  <g id="axes_1">
   <g id="patch_2">
    <path d="M 57.6 307.584 
L 414.72 307.584 
L 414.72 41.472 
L 57.6 41.472 
z
" style="fill:#ffffff;"/>
   </g>
   <g id="matplotlib.axis_1">
    <g id="xtick_1">
     <g id="line2d_1">
      <path clip-path="url(#p6a2923b53c)" d="M 72.201297 307.584 
L 72.201297 41.472 
" style="fill:none;stroke:#cccccc;stroke-linecap:round;stroke-width:0.8;"/>
     </g>
     <g id="text_1">
      <!-- 0 -->
      <g style="fill:#262626;" transform="translate(69.020047 322.182437)scale(0.1 -0.1)">
       <defs>
        <path d="M 2034 4250 
Q 1547 4250 1301 3770 
Q 1056 3291 1056 2328 
Q 1056 1369 1301 889 
Q 1547 409 2034 409 
Q 2525 409 2770 889 
Q 3016 1369 3016 2328 
Q 3016 3291 2770 3770 
Q 2525 4250 2034 4250 
z
M 2034 4750 
Q 2819 4750 3233 4129 
Q 3647 3509 3647 2328 
Q 3647 1150 3233 529 
Q 2819 -91 2034 -91 
Q 1250 -91 836 529 
Q 422 1150 422 2328 
Q 422 3509 836 4129 
Q 1250 4750 2034 4750 
z
" id="DejaVuSans-30" transform="scale(0.015625)"/>
       </defs>
       <use xlink:href="#DejaVuSans-30"/>
      </g>
     </g>
    </g>
    <g id="xtick_2">
     <g id="line2d_2">
      <path clip-path="url(#p6a2923b53c)" d="M 112.987044 307.584 
L 112.987044 41.472 
" style="fill:none;stroke:#cccccc;stroke-linecap:round;stroke-width:0.8;"/>
     </g>
     <g id="text_2">
      <!-- 25 -->
      <g style="fill:#262626;" transform="translate(106.624544 322.182437)scale(0.1 -0.1)">
       <defs>
        <path d="M 1228 531 
L 3431 531 
L 3431 0 
L 469 0 
L 469 531 
Q 828 903 1448 1529 
Q 2069 2156 2228 2338 
Q 2531 2678 2651 2914 
Q 2772 3150 2772 3378 
Q 2772 3750 2511 3984 
Q 2250 4219 1831 4219 
Q 1534 4219 1204 4116 
Q 875 4013 500 3803 
L 500 4441 
Q 881 4594 1212 4672 
Q 1544 4750 1819 4750 
Q 2544 4750 2975 4387 
Q 3406 4025 3406 3419 
Q 3406 3131 3298 2873 
Q 3191 2616 2906 2266 
Q 2828 2175 2409 1742 
Q 1991 1309 1228 531 
z
" id="DejaVuSans-32" transform="scale(0.015625)"/>
        <path d="M 691 4666 
L 3169 4666 
L 3169 4134 
L 1269 4134 
L 1269 2991 
Q 1406 3038 1543 3061 
Q 1681 3084 1819 3084 
Q 2600 3084 3056 2656 
Q 3513 2228 3513 1497 
Q 3513 744 3044 326 
Q 2575 -91 1722 -91 
Q 1428 -91 1123 -41 
Q 819 9 494 109 
L 494 744 
Q 775 591 1075 516 
Q 1375 441 1709 441 
Q 2250 441 2565 725 
Q 2881 1009 2881 1497 
Q 2881 1984 2565 2268 
Q 2250 2553 1709 2553 
Q 1456 2553 1204 2497 
Q 953 2441 691 2322 
L 691 4666 
z
" id="DejaVuSans-35" transform="scale(0.015625)"/>
       </defs>
       <use xlink:href="#DejaVuSans-32"/>
       <use x="63.623047" xlink:href="#DejaVuSans-35"/>
      </g>
     </g>
    </g>
    <g id="xtick_3">
     <g id="line2d_3">
      <path clip-path="url(#p6a2923b53c)" d="M 153.772791 307.584 
L 153.772791 41.472 
" style="fill:none;stroke:#cccccc;stroke-linecap:round;stroke-width:0.8;"/>
     </g>
     <g id="text_3">
      <!-- 50 -->
      <g style="fill:#262626;" transform="translate(147.410291 322.182437)scale(0.1 -0.1)">
       <use xlink:href="#DejaVuSans-35"/>
       <use x="63.623047" xlink:href="#DejaVuSans-30"/>
      </g>
     </g>
    </g>
    <g id="xtick_4">
     <g id="line2d_4">
      <path clip-path="url(#p6a2923b53c)" d="M 194.558538 307.584 
L 194.558538 41.472 
" style="fill:none;stroke:#cccccc;stroke-linecap:round;stroke-width:0.8;"/>
     </g>
     <g id="text_4">
      <!-- 75 -->
      <g style="fill:#262626;" transform="translate(188.196038 322.182437)scale(0.1 -0.1)">
       <defs>
        <path d="M 525 4666 
L 3525 4666 
L 3525 4397 
L 1831 0 
L 1172 0 
L 2766 4134 
L 525 4134 
L 525 4666 
z
" id="DejaVuSans-37" transform="scale(0.015625)"/>
       </defs>
       <use xlink:href="#DejaVuSans-37"/>
       <use x="63.623047" xlink:href="#DejaVuSans-35"/>
      </g>
     </g>
    </g>
    <g id="xtick_5">
     <g id="line2d_5">
      <path clip-path="url(#p6a2923b53c)" d="M 235.344285 307.584 
L 235.344285 41.472 
" style="fill:none;stroke:#cccccc;stroke-linecap:round;stroke-width:0.8;"/>
     </g>
     <g id="text_5">
      <!-- 100 -->
      <g style="fill:#262626;" transform="translate(225.800535 322.182437)scale(0.1 -0.1)">
       <defs>
        <path d="M 794 531 
L 1825 531 
L 1825 4091 
L 703 3866 
L 703 4441 
L 1819 4666 
L 2450 4666 
L 2450 531 
L 3481 531 
L 3481 0 
L 794 0 
L 794 531 
z
" id="DejaVuSans-31" transform="scale(0.015625)"/>
       </defs>
       <use xlink:href="#DejaVuSans-31"/>
       <use x="63.623047" xlink:href="#DejaVuSans-30"/>
       <use x="127.246094" xlink:href="#DejaVuSans-30"/>
      </g>
     </g>
    </g>
    <g id="xtick_6">
     <g id="line2d_6">
      <path clip-path="url(#p6a2923b53c)" d="M 276.130032 307.584 
L 276.130032 41.472 
" style="fill:none;stroke:#cccccc;stroke-linecap:round;stroke-width:0.8;"/>
     </g>
     <g id="text_6">
      <!-- 125 -->
      <g style="fill:#262626;" transform="translate(266.586282 322.182437)scale(0.1 -0.1)">
       <use xlink:href="#DejaVuSans-31"/>
       <use x="63.623047" xlink:href="#DejaVuSans-32"/>
       <use x="127.246094" xlink:href="#DejaVuSans-35"/>
      </g>
     </g>
    </g>
    <g id="xtick_7">
     <g id="line2d_7">
      <path clip-path="url(#p6a2923b53c)" d="M 316.915779 307.584 
L 316.915779 41.472 
" style="fill:none;stroke:#cccccc;stroke-linecap:round;stroke-width:0.8;"/>
     </g>
     <g id="text_7">
      <!-- 150 -->
      <g style="fill:#262626;" transform="translate(307.372029 322.182437)scale(0.1 -0.1)">
       <use xlink:href="#DejaVuSans-31"/>
       <use x="63.623047" xlink:href="#DejaVuSans-35"/>
       <use x="127.246094" xlink:href="#DejaVuSans-30"/>
      </g>
     </g>
    </g>
    <g id="xtick_8">
     <g id="line2d_8">
      <path clip-path="url(#p6a2923b53c)" d="M 357.701526 307.584 
L 357.701526 41.472 
" style="fill:none;stroke:#cccccc;stroke-linecap:round;stroke-width:0.8;"/>
     </g>
     <g id="text_8">
      <!-- 175 -->
      <g style="fill:#262626;" transform="translate(348.157776 322.182437)scale(0.1 -0.1)">
       <use xlink:href="#DejaVuSans-31"/>
       <use x="63.623047" xlink:href="#DejaVuSans-37"/>
       <use x="127.246094" xlink:href="#DejaVuSans-35"/>
      </g>
     </g>
    </g>
    <g id="xtick_9">
     <g id="line2d_9">
      <path clip-path="url(#p6a2923b53c)" d="M 398.487273 307.584 
L 398.487273 41.472 
" style="fill:none;stroke:#cccccc;stroke-linecap:round;stroke-width:0.8;"/>
     </g>
     <g id="text_9">
      <!-- 200 -->
      <g style="fill:#262626;" transform="translate(388.943523 322.182437)scale(0.1 -0.1)">
       <use xlink:href="#DejaVuSans-32"/>
       <use x="63.623047" xlink:href="#DejaVuSans-30"/>
       <use x="127.246094" xlink:href="#DejaVuSans-30"/>
      </g>
     </g>
    </g>
    <g id="text_10">
     <!-- Auroc -->
     <g style="fill:#262626;" transform="translate(221.819375 335.860562)scale(0.1 -0.1)">
      <defs>
       <path d="M 2188 4044 
L 1331 1722 
L 3047 1722 
L 2188 4044 
z
M 1831 4666 
L 2547 4666 
L 4325 0 
L 3669 0 
L 3244 1197 
L 1141 1197 
L 716 0 
L 50 0 
L 1831 4666 
z
" id="DejaVuSans-41" transform="scale(0.015625)"/>
       <path d="M 544 1381 
L 544 3500 
L 1119 3500 
L 1119 1403 
Q 1119 906 1312 657 
Q 1506 409 1894 409 
Q 2359 409 2629 706 
Q 2900 1003 2900 1516 
L 2900 3500 
L 3475 3500 
L 3475 0 
L 2900 0 
L 2900 538 
Q 2691 219 2414 64 
Q 2138 -91 1772 -91 
Q 1169 -91 856 284 
Q 544 659 544 1381 
z
M 1991 3584 
L 1991 3584 
z
" id="DejaVuSans-75" transform="scale(0.015625)"/>
       <path d="M 2631 2963 
Q 2534 3019 2420 3045 
Q 2306 3072 2169 3072 
Q 1681 3072 1420 2755 
Q 1159 2438 1159 1844 
L 1159 0 
L 581 0 
L 581 3500 
L 1159 3500 
L 1159 2956 
Q 1341 3275 1631 3429 
Q 1922 3584 2338 3584 
Q 2397 3584 2469 3576 
Q 2541 3569 2628 3553 
L 2631 2963 
z
" id="DejaVuSans-72" transform="scale(0.015625)"/>
       <path d="M 1959 3097 
Q 1497 3097 1228 2736 
Q 959 2375 959 1747 
Q 959 1119 1226 758 
Q 1494 397 1959 397 
Q 2419 397 2687 759 
Q 2956 1122 2956 1747 
Q 2956 2369 2687 2733 
Q 2419 3097 1959 3097 
z
M 1959 3584 
Q 2709 3584 3137 3096 
Q 3566 2609 3566 1747 
Q 3566 888 3137 398 
Q 2709 -91 1959 -91 
Q 1206 -91 779 398 
Q 353 888 353 1747 
Q 353 2609 779 3096 
Q 1206 3584 1959 3584 
z
" id="DejaVuSans-6f" transform="scale(0.015625)"/>
       <path d="M 3122 3366 
L 3122 2828 
Q 2878 2963 2633 3030 
Q 2388 3097 2138 3097 
Q 1578 3097 1268 2742 
Q 959 2388 959 1747 
Q 959 1106 1268 751 
Q 1578 397 2138 397 
Q 2388 397 2633 464 
Q 2878 531 3122 666 
L 3122 134 
Q 2881 22 2623 -34 
Q 2366 -91 2075 -91 
Q 1284 -91 818 406 
Q 353 903 353 1747 
Q 353 2603 823 3093 
Q 1294 3584 2113 3584 
Q 2378 3584 2631 3529 
Q 2884 3475 3122 3366 
z
" id="DejaVuSans-63" transform="scale(0.015625)"/>
      </defs>
      <use xlink:href="#DejaVuSans-41"/>
      <use x="68.408203" xlink:href="#DejaVuSans-75"/>
      <use x="131.787109" xlink:href="#DejaVuSans-72"/>
      <use x="170.650391" xlink:href="#DejaVuSans-6f"/>
      <use x="231.832031" xlink:href="#DejaVuSans-63"/>
     </g>
    </g>
   </g>
   <g id="matplotlib.axis_2">
    <g id="ytick_1">
     <g id="line2d_10">
      <path clip-path="url(#p6a2923b53c)" d="M 57.6 286.290274 
L 414.72 286.290274 
" style="fill:none;stroke:#cccccc;stroke-linecap:round;stroke-width:0.8;"/>
     </g>
     <g id="text_11">
      <!-- 0.55 -->
      <g style="fill:#262626;" transform="translate(28.334375 290.089492)scale(0.1 -0.1)">
       <defs>
        <path d="M 684 794 
L 1344 794 
L 1344 0 
L 684 0 
L 684 794 
z
" id="DejaVuSans-2e" transform="scale(0.015625)"/>
       </defs>
       <use xlink:href="#DejaVuSans-30"/>
       <use x="63.623047" xlink:href="#DejaVuSans-2e"/>
       <use x="95.410156" xlink:href="#DejaVuSans-35"/>
       <use x="159.033203" xlink:href="#DejaVuSans-35"/>
      </g>
     </g>
    </g>
    <g id="ytick_2">
     <g id="line2d_11">
      <path clip-path="url(#p6a2923b53c)" d="M 57.6 229.68917 
L 414.72 229.68917 
" style="fill:none;stroke:#cccccc;stroke-linecap:round;stroke-width:0.8;"/>
     </g>
     <g id="text_12">
      <!-- 0.60 -->
      <g style="fill:#262626;" transform="translate(28.334375 233.488389)scale(0.1 -0.1)">
       <defs>
        <path d="M 2113 2584 
Q 1688 2584 1439 2293 
Q 1191 2003 1191 1497 
Q 1191 994 1439 701 
Q 1688 409 2113 409 
Q 2538 409 2786 701 
Q 3034 994 3034 1497 
Q 3034 2003 2786 2293 
Q 2538 2584 2113 2584 
z
M 3366 4563 
L 3366 3988 
Q 3128 4100 2886 4159 
Q 2644 4219 2406 4219 
Q 1781 4219 1451 3797 
Q 1122 3375 1075 2522 
Q 1259 2794 1537 2939 
Q 1816 3084 2150 3084 
Q 2853 3084 3261 2657 
Q 3669 2231 3669 1497 
Q 3669 778 3244 343 
Q 2819 -91 2113 -91 
Q 1303 -91 875 529 
Q 447 1150 447 2328 
Q 447 3434 972 4092 
Q 1497 4750 2381 4750 
Q 2619 4750 2861 4703 
Q 3103 4656 3366 4563 
z
" id="DejaVuSans-36" transform="scale(0.015625)"/>
       </defs>
       <use xlink:href="#DejaVuSans-30"/>
       <use x="63.623047" xlink:href="#DejaVuSans-2e"/>
       <use x="95.410156" xlink:href="#DejaVuSans-36"/>
       <use x="159.033203" xlink:href="#DejaVuSans-30"/>
      </g>
     </g>
    </g>
    <g id="ytick_3">
     <g id="line2d_12">
      <path clip-path="url(#p6a2923b53c)" d="M 57.6 173.088067 
L 414.72 173.088067 
" style="fill:none;stroke:#cccccc;stroke-linecap:round;stroke-width:0.8;"/>
     </g>
     <g id="text_13">
      <!-- 0.65 -->
      <g style="fill:#262626;" transform="translate(28.334375 176.887286)scale(0.1 -0.1)">
       <use xlink:href="#DejaVuSans-30"/>
       <use x="63.623047" xlink:href="#DejaVuSans-2e"/>
       <use x="95.410156" xlink:href="#DejaVuSans-36"/>
       <use x="159.033203" xlink:href="#DejaVuSans-35"/>
      </g>
     </g>
    </g>
    <g id="ytick_4">
     <g id="line2d_13">
      <path clip-path="url(#p6a2923b53c)" d="M 57.6 116.486964 
L 414.72 116.486964 
" style="fill:none;stroke:#cccccc;stroke-linecap:round;stroke-width:0.8;"/>
     </g>
     <g id="text_14">
      <!-- 0.70 -->
      <g style="fill:#262626;" transform="translate(28.334375 120.286182)scale(0.1 -0.1)">
       <use xlink:href="#DejaVuSans-30"/>
       <use x="63.623047" xlink:href="#DejaVuSans-2e"/>
       <use x="95.410156" xlink:href="#DejaVuSans-37"/>
       <use x="159.033203" xlink:href="#DejaVuSans-30"/>
      </g>
     </g>
    </g>
    <g id="ytick_5">
     <g id="line2d_14">
      <path clip-path="url(#p6a2923b53c)" d="M 57.6 59.88586 
L 414.72 59.88586 
" style="fill:none;stroke:#cccccc;stroke-linecap:round;stroke-width:0.8;"/>
     </g>
     <g id="text_15">
      <!-- 0.75 -->
      <g style="fill:#262626;" transform="translate(28.334375 63.685079)scale(0.1 -0.1)">
       <use xlink:href="#DejaVuSans-30"/>
       <use x="63.623047" xlink:href="#DejaVuSans-2e"/>
       <use x="95.410156" xlink:href="#DejaVuSans-37"/>
       <use x="159.033203" xlink:href="#DejaVuSans-35"/>
      </g>
     </g>
    </g>
    <g id="text_16">
     <!-- Iteration -->
     <g style="fill:#262626;" transform="translate(22.254687 195.736594)rotate(-90)scale(0.1 -0.1)">
      <defs>
       <path d="M 628 4666 
L 1259 4666 
L 1259 0 
L 628 0 
L 628 4666 
z
" id="DejaVuSans-49" transform="scale(0.015625)"/>
       <path d="M 1172 4494 
L 1172 3500 
L 2356 3500 
L 2356 3053 
L 1172 3053 
L 1172 1153 
Q 1172 725 1289 603 
Q 1406 481 1766 481 
L 2356 481 
L 2356 0 
L 1766 0 
Q 1100 0 847 248 
Q 594 497 594 1153 
L 594 3053 
L 172 3053 
L 172 3500 
L 594 3500 
L 594 4494 
L 1172 4494 
z
" id="DejaVuSans-74" transform="scale(0.015625)"/>
       <path d="M 3597 1894 
L 3597 1613 
L 953 1613 
Q 991 1019 1311 708 
Q 1631 397 2203 397 
Q 2534 397 2845 478 
Q 3156 559 3463 722 
L 3463 178 
Q 3153 47 2828 -22 
Q 2503 -91 2169 -91 
Q 1331 -91 842 396 
Q 353 884 353 1716 
Q 353 2575 817 3079 
Q 1281 3584 2069 3584 
Q 2775 3584 3186 3129 
Q 3597 2675 3597 1894 
z
M 3022 2063 
Q 3016 2534 2758 2815 
Q 2500 3097 2075 3097 
Q 1594 3097 1305 2825 
Q 1016 2553 972 2059 
L 3022 2063 
z
" id="DejaVuSans-65" transform="scale(0.015625)"/>
       <path d="M 2194 1759 
Q 1497 1759 1228 1600 
Q 959 1441 959 1056 
Q 959 750 1161 570 
Q 1363 391 1709 391 
Q 2188 391 2477 730 
Q 2766 1069 2766 1631 
L 2766 1759 
L 2194 1759 
z
M 3341 1997 
L 3341 0 
L 2766 0 
L 2766 531 
Q 2569 213 2275 61 
Q 1981 -91 1556 -91 
Q 1019 -91 701 211 
Q 384 513 384 1019 
Q 384 1609 779 1909 
Q 1175 2209 1959 2209 
L 2766 2209 
L 2766 2266 
Q 2766 2663 2505 2880 
Q 2244 3097 1772 3097 
Q 1472 3097 1187 3025 
Q 903 2953 641 2809 
L 641 3341 
Q 956 3463 1253 3523 
Q 1550 3584 1831 3584 
Q 2591 3584 2966 3190 
Q 3341 2797 3341 1997 
z
" id="DejaVuSans-61" transform="scale(0.015625)"/>
       <path d="M 603 3500 
L 1178 3500 
L 1178 0 
L 603 0 
L 603 3500 
z
M 603 4863 
L 1178 4863 
L 1178 4134 
L 603 4134 
L 603 4863 
z
" id="DejaVuSans-69" transform="scale(0.015625)"/>
       <path d="M 3513 2113 
L 3513 0 
L 2938 0 
L 2938 2094 
Q 2938 2591 2744 2837 
Q 2550 3084 2163 3084 
Q 1697 3084 1428 2787 
Q 1159 2491 1159 1978 
L 1159 0 
L 581 0 
L 581 3500 
L 1159 3500 
L 1159 2956 
Q 1366 3272 1645 3428 
Q 1925 3584 2291 3584 
Q 2894 3584 3203 3211 
Q 3513 2838 3513 2113 
z
" id="DejaVuSans-6e" transform="scale(0.015625)"/>
      </defs>
      <use xlink:href="#DejaVuSans-49"/>
      <use x="29.492188" xlink:href="#DejaVuSans-74"/>
      <use x="68.701172" xlink:href="#DejaVuSans-65"/>
      <use x="130.224609" xlink:href="#DejaVuSans-72"/>
      <use x="171.337891" xlink:href="#DejaVuSans-61"/>
      <use x="232.617188" xlink:href="#DejaVuSans-74"/>
      <use x="271.826172" xlink:href="#DejaVuSans-69"/>
      <use x="299.609375" xlink:href="#DejaVuSans-6f"/>
      <use x="360.791016" xlink:href="#DejaVuSans-6e"/>
     </g>
    </g>
   </g>
   <g id="PolyCollection_1">
    <defs>
     <path d="M 73.832727 -234.183156 
L 73.832727 -161.601061 
L 75.464157 -167.452642 
L 77.095587 -189.046138 
L 78.727017 -152.995268 
L 80.358447 -130.179665 
L 81.989877 -116.154462 
L 83.621307 -161.863813 
L 85.252736 -149.093595 
L 86.884166 -178.980328 
L 88.515596 -182.02662 
L 90.147026 -147.495829 
L 91.778456 -179.21581 
L 93.409886 -86.718579 
L 95.041316 -192.250118 
L 96.672746 -123.850669 
L 98.304175 -147.94151 
L 99.935605 -187.5038 
L 101.567035 -55.125237 
L 103.198465 -149.812464 
L 104.829895 -141.449739 
L 106.461325 -190.98381 
L 108.092755 -175.244875 
L 109.724185 -107.720156 
L 111.355614 -164.27654 
L 112.987044 -106.966489 
L 114.618474 -129.382049 
L 116.249904 -175.9613 
L 117.881334 -102.065917 
L 119.512764 -124.465864 
L 121.144194 -182.043673 
L 122.775624 -174.595087 
L 124.407053 -155.387899 
L 126.038483 -136.373955 
L 127.669913 -200.33927 
L 129.301343 -160.284643 
L 130.932773 -210.987789 
L 132.564203 -170.011682 
L 134.195633 -131.820227 
L 135.827063 -96.021543 
L 137.458492 -108.700652 
L 139.089922 -119.168621 
L 140.721352 -165.675064 
L 142.352782 -152.997738 
L 143.984212 -146.352332 
L 145.615642 -125.790793 
L 147.247072 -136.396355 
L 148.878502 -200.222706 
L 150.509931 -166.288989 
L 152.141361 -188.891508 
L 153.772791 -149.288781 
L 155.404221 -171.449399 
L 157.035651 -106.043889 
L 158.667081 -173.864837 
L 160.298511 -198.115044 
L 161.929941 -177.346018 
L 163.56137 -117.711583 
L 165.1928 -178.463345 
L 166.82423 -188.406602 
L 168.45566 -113.314983 
L 170.08709 -162.082766 
L 171.71852 -129.019283 
L 173.34995 -85.27567 
L 174.98138 -163.375194 
L 176.61281 -142.065265 
L 178.244239 -106.657477 
L 179.875669 -164.254006 
L 181.507099 -163.134778 
L 183.138529 -77.565889 
L 184.769959 -95.134162 
L 186.401389 -132.122193 
L 188.032819 -158.705398 
L 189.664249 -98.622567 
L 191.295678 -173.896417 
L 192.927108 -135.011991 
L 194.558538 -135.125789 
L 196.189968 -170.062795 
L 197.821398 -154.628531 
L 199.452828 -161.930306 
L 201.084258 -152.391326 
L 202.715688 -197.797556 
L 204.347117 -174.558747 
L 205.978547 -198.129665 
L 207.609977 -145.34322 
L 209.241407 -139.662833 
L 210.872837 -207.366918 
L 212.504267 -176.20169 
L 214.135697 -76.03341 
L 215.767127 -154.772092 
L 217.398556 -165.78896 
L 219.029986 -193.692688 
L 220.661416 -179.853631 
L 222.292846 -54.555355 
L 223.924276 -154.736115 
L 225.555706 -201.489757 
L 227.187136 -163.249452 
L 228.818566 -92.691372 
L 230.449995 -125.296718 
L 232.081425 -101.777795 
L 233.712855 -165.593747 
L 235.344285 -143.46165 
L 236.975715 -183.006116 
L 238.607145 -163.452186 
L 240.238575 -185.225071 
L 241.870005 -163.102884 
L 243.501434 -129.360799 
L 245.132864 -146.513453 
L 246.764294 -150.951997 
L 248.395724 -151.53511 
L 250.027154 -189.609806 
L 251.658584 -155.135054 
L 253.290014 -168.654965 
L 254.921444 -101.585677 
L 256.552873 -188.759822 
L 258.184303 -77.679421 
L 259.815733 -190.176671 
L 261.447163 -184.306468 
L 263.078593 -140.027435 
L 264.710023 -169.141229 
L 266.341453 -165.78842 
L 267.972883 -125.556489 
L 269.604312 -186.654515 
L 271.235742 -100.006878 
L 272.867172 -174.809456 
L 274.498602 -169.853219 
L 276.130032 -168.399731 
L 277.761462 -146.891278 
L 279.392892 -204.161851 
L 281.024322 -152.423671 
L 282.655751 -181.401817 
L 284.287181 -149.233364 
L 285.918611 -50.112 
L 287.550041 -180.278022 
L 289.181471 -156.564119 
L 290.812901 -183.298745 
L 292.444331 -182.713583 
L 294.075761 -161.137602 
L 295.70719 -113.1762 
L 297.33862 -133.475964 
L 298.97005 -155.693693 
L 300.60148 -171.531393 
L 302.23291 -150.508267 
L 303.86434 -167.212062 
L 305.49577 -182.06835 
L 307.1272 -160.795682 
L 308.75863 -192.713776 
L 310.390059 -125.385057 
L 312.021489 -162.171062 
L 313.652919 -141.667348 
L 315.284349 -102.414793 
L 316.915779 -89.838704 
L 318.547209 -95.11766 
L 320.178639 -155.897854 
L 321.810069 -141.189784 
L 323.441498 -99.777313 
L 325.072928 -142.138444 
L 326.704358 -135.421828 
L 328.335788 -170.590676 
L 329.967218 -59.862585 
L 331.598648 -190.017057 
L 333.230078 -142.048891 
L 334.861508 -67.68154 
L 336.492937 -171.555964 
L 338.124367 -170.30164 
L 339.755797 -167.053542 
L 341.387227 -155.167851 
L 343.018657 -202.700853 
L 344.650087 -182.418032 
L 346.281517 -163.867751 
L 347.912947 -121.624518 
L 349.544376 -169.563394 
L 351.175806 -53.336541 
L 352.807236 -84.466168 
L 354.438666 -103.26125 
L 356.070096 -204.522361 
L 357.701526 -175.545603 
L 359.332956 -207.689171 
L 360.964386 -150.198669 
L 362.595815 -124.044687 
L 364.227245 -147.856679 
L 365.858675 -192.918037 
L 367.490105 -180.847496 
L 369.121535 -182.354646 
L 370.752965 -83.414827 
L 372.384395 -179.923689 
L 374.015825 -160.51985 
L 375.647254 -144.324919 
L 377.278684 -126.654578 
L 378.910114 -134.5465 
L 380.541544 -97.970787 
L 382.172974 -151.329722 
L 383.804404 -147.002709 
L 385.435834 -165.84416 
L 387.067264 -191.794094 
L 388.698693 -171.957309 
L 390.330123 -101.546807 
L 391.961553 -207.51378 
L 393.592983 -176.151431 
L 395.224413 -175.691703 
L 396.855843 -123.443719 
L 398.487273 -177.007654 
L 398.487273 -242.812417 
L 398.487273 -242.812417 
L 396.855843 -228.696888 
L 395.224413 -247.702248 
L 393.592983 -249.23925 
L 391.961553 -256.992242 
L 390.330123 -226.531214 
L 388.698693 -244.802708 
L 387.067264 -244.294324 
L 385.435834 -253.980382 
L 383.804404 -223.903572 
L 382.172974 -272.47341 
L 380.541544 -255.916267 
L 378.910114 -265.110751 
L 377.278684 -220.378518 
L 375.647254 -244.806206 
L 374.015825 -257.761391 
L 372.384395 -273.701674 
L 370.752965 -212.131549 
L 369.121535 -265.563895 
L 367.490105 -261.039799 
L 365.858675 -245.86167 
L 364.227245 -225.497846 
L 362.595815 -232.484239 
L 360.964386 -250.348289 
L 359.332956 -265.969643 
L 357.701526 -257.227399 
L 356.070096 -220.672717 
L 354.438666 -258.203637 
L 352.807236 -238.990038 
L 351.175806 -249.745244 
L 349.544376 -215.751809 
L 347.912947 -253.315641 
L 346.281517 -236.891962 
L 344.650087 -252.233371 
L 343.018657 -266.288644 
L 341.387227 -208.421706 
L 339.755797 -229.915065 
L 338.124367 -226.193741 
L 336.492937 -252.585096 
L 334.861508 -254.226712 
L 333.230078 -220.431452 
L 331.598648 -239.683483 
L 329.967218 -288.791969 
L 328.335788 -246.661453 
L 326.704358 -231.827916 
L 325.072928 -268.088634 
L 323.441498 -230.362945 
L 321.810069 -211.593926 
L 320.178639 -280.864869 
L 318.547209 -292.032 
L 316.915779 -230.287519 
L 315.284349 -212.872328 
L 313.652919 -253.24696 
L 312.021489 -272.543961 
L 310.390059 -239.088247 
L 308.75863 -255.377926 
L 307.1272 -237.352754 
L 305.49577 -254.605056 
L 303.86434 -221.314824 
L 302.23291 -254.275106 
L 300.60148 -234.342491 
L 298.97005 -230.938371 
L 297.33862 -211.999568 
L 295.70719 -238.024309 
L 294.075761 -238.12388 
L 292.444331 -214.092902 
L 290.812901 -231.125154 
L 289.181471 -228.319733 
L 287.550041 -234.90512 
L 285.918611 -216.429838 
L 284.287181 -204.547799 
L 282.655751 -224.992918 
L 281.024322 -257.038964 
L 279.392892 -232.056575 
L 277.761462 -258.137695 
L 276.130032 -202.995286 
L 274.498602 -261.124677 
L 272.867172 -231.860985 
L 271.235742 -193.579747 
L 269.604312 -246.704934 
L 267.972883 -256.923276 
L 266.341453 -256.762079 
L 264.710023 -232.2625 
L 263.078593 -249.998232 
L 261.447163 -249.122228 
L 259.815733 -255.616865 
L 258.184303 -272.137353 
L 256.552873 -212.049796 
L 254.921444 -196.058486 
L 253.290014 -261.746611 
L 251.658584 -228.04894 
L 250.027154 -249.369794 
L 248.395724 -272.428136 
L 246.764294 -217.549193 
L 245.132864 -213.3339 
L 243.501434 -233.230667 
L 241.870005 -244.871555 
L 240.238575 -254.627631 
L 238.607145 -266.601426 
L 236.975715 -258.29911 
L 235.344285 -233.737626 
L 233.712855 -207.645915 
L 232.081425 -237.273213 
L 230.449995 -247.237346 
L 228.818566 -238.729983 
L 227.187136 -226.517295 
L 225.555706 -240.139894 
L 223.924276 -244.844682 
L 222.292846 -265.121331 
L 220.661416 -262.861148 
L 219.029986 -235.654049 
L 217.398556 -250.695168 
L 215.767127 -249.587686 
L 214.135697 -215.749655 
L 212.504267 -241.835136 
L 210.872837 -248.892531 
L 209.241407 -227.581984 
L 207.609977 -238.160273 
L 205.978547 -266.782709 
L 204.347117 -252.42359 
L 202.715688 -245.460062 
L 201.084258 -264.493863 
L 199.452828 -233.716149 
L 197.821398 -237.401165 
L 196.189968 -235.504181 
L 194.558538 -227.698686 
L 192.927108 -222.046452 
L 191.295678 -246.54924 
L 189.664249 -228.986972 
L 188.032819 -254.515955 
L 186.401389 -204.572716 
L 184.769959 -191.180474 
L 183.138529 -252.614998 
L 181.507099 -261.424313 
L 179.875669 -232.132624 
L 178.244239 -251.97629 
L 176.61281 -214.929315 
L 174.98138 -228.096519 
L 173.34995 -235.609887 
L 171.71852 -247.16776 
L 170.08709 -235.104892 
L 168.45566 -222.56193 
L 166.82423 -280.420409 
L 165.1928 -237.958744 
L 163.56137 -229.088686 
L 161.929941 -274.043765 
L 160.298511 -223.271775 
L 158.667081 -263.012292 
L 157.035651 -214.963191 
L 155.404221 -246.855471 
L 153.772791 -245.39343 
L 152.141361 -279.185201 
L 150.509931 -243.7236 
L 148.878502 -259.467478 
L 147.247072 -220.504984 
L 145.615642 -235.68936 
L 143.984212 -231.948676 
L 142.352782 -212.726586 
L 140.721352 -214.97593 
L 139.089922 -240.663677 
L 137.458492 -211.943046 
L 135.827063 -239.423563 
L 134.195633 -213.343134 
L 132.564203 -221.140806 
L 130.932773 -277.491957 
L 129.301343 -212.306715 
L 127.669913 -246.773135 
L 126.038483 -268.160351 
L 124.407053 -227.243131 
L 122.775624 -260.28376 
L 121.144194 -246.584877 
L 119.512764 -255.744565 
L 117.881334 -254.11988 
L 116.249904 -242.652394 
L 114.618474 -192.03996 
L 112.987044 -208.83464 
L 111.355614 -229.335688 
L 109.724185 -244.750168 
L 108.092755 -266.133702 
L 106.461325 -232.480208 
L 104.829895 -249.382795 
L 103.198465 -235.512775 
L 101.567035 -219.87514 
L 99.935605 -225.614734 
L 98.304175 -203.31897 
L 96.672746 -235.123672 
L 95.041316 -242.035987 
L 93.409886 -250.298201 
L 91.778456 -234.652205 
L 90.147026 -263.238232 
L 88.515596 -248.268943 
L 86.884166 -227.651156 
L 85.252736 -253.13251 
L 83.621307 -252.739085 
L 81.989877 -215.430656 
L 80.358447 -251.409481 
L 78.727017 -225.774862 
L 77.095587 -259.340247 
L 75.464157 -260.008852 
L 73.832727 -234.183156 
z
" id="medc75a42b5" style="stroke:#ffffff;stroke-opacity:0.2;"/>
    </defs>
    <g clip-path="url(#p6a2923b53c)">
     <use style="fill:#1f77b4;fill-opacity:0.2;stroke:#ffffff;stroke-opacity:0.2;" x="0" xlink:href="#medc75a42b5" y="345.6"/>
    </g>
   </g>
   <g id="LineCollection_1">
    <path clip-path="url(#p6a2923b53c)" d="M 398.487273 295.488 
L 398.487273 53.568 
" style="fill:none;stroke:#1f77b4;stroke-dasharray:5.55,2.4;stroke-dashoffset:0;stroke-width:1.5;"/>
   </g>
   <g id="line2d_15">
    <path clip-path="url(#p6a2923b53c)" d="M 73.832727 147.707891 
L 75.464157 131.869253 
L 77.095587 121.406807 
L 78.727017 156.214935 
L 80.358447 154.805427 
L 81.989877 179.807441 
L 83.621307 138.298551 
L 85.252736 144.486947 
L 86.884166 142.284258 
L 88.515596 130.452218 
L 90.147026 140.232969 
L 91.778456 138.665993 
L 93.409886 177.09161 
L 95.041316 128.456947 
L 96.672746 166.112829 
L 98.304175 169.96976 
L 99.935605 139.040733 
L 101.567035 208.099812 
L 103.198465 152.937381 
L 104.829895 150.183733 
L 106.461325 133.867991 
L 108.092755 124.910711 
L 109.724185 169.364838 
L 111.355614 148.793886 
L 112.987044 187.699436 
L 114.618474 184.888995 
L 116.249904 136.293153 
L 117.881334 167.507101 
L 119.512764 155.494785 
L 121.144194 131.285725 
L 122.775624 128.160576 
L 124.407053 154.284485 
L 126.038483 143.332847 
L 127.669913 122.043798 
L 129.301343 159.304321 
L 130.932773 101.360127 
L 132.564203 150.023756 
L 134.195633 173.018319 
L 135.827063 177.877447 
L 137.458492 185.278151 
L 139.089922 165.683851 
L 140.721352 155.274503 
L 142.352782 162.737838 
L 143.984212 156.449496 
L 145.615642 164.859923 
L 147.247072 167.14933 
L 148.878502 115.754908 
L 150.509931 140.593706 
L 152.141361 111.561646 
L 153.772791 148.258894 
L 155.404221 136.447565 
L 157.035651 185.09646 
L 158.667081 127.161435 
L 160.298511 134.90659 
L 161.929941 119.905108 
L 163.56137 172.199866 
L 165.1928 137.388955 
L 166.82423 111.186495 
L 168.45566 177.661544 
L 170.08709 147.006171 
L 171.71852 157.506478 
L 173.34995 185.157221 
L 174.98138 149.864143 
L 176.61281 167.10271 
L 178.244239 166.283116 
L 179.875669 147.406685 
L 181.507099 133.320455 
L 183.138529 180.509557 
L 184.769959 202.442682 
L 186.401389 177.252545 
L 188.032819 138.989323 
L 189.664249 181.795231 
L 191.295678 135.377171 
L 192.927108 167.070778 
L 194.558538 164.187762 
L 196.189968 142.816512 
L 197.821398 149.585152 
L 199.452828 147.776772 
L 201.084258 137.157405 
L 202.715688 123.971191 
L 204.347117 132.108832 
L 205.978547 113.143813 
L 207.609977 153.848253 
L 209.241407 161.977591 
L 210.872837 117.470275 
L 212.504267 136.581587 
L 214.135697 199.708467 
L 215.767127 143.420111 
L 219.029986 130.926631 
L 220.661416 124.24261 
L 222.292846 185.761657 
L 223.924276 145.809601 
L 225.555706 124.785174 
L 227.187136 150.716627 
L 228.818566 179.889323 
L 230.449995 159.332968 
L 232.081425 176.074496 
L 233.712855 158.980169 
L 235.344285 157.000362 
L 236.975715 124.947387 
L 238.607145 130.573194 
L 240.238575 125.673649 
L 241.870005 141.612781 
L 243.501434 164.304267 
L 245.132864 165.676324 
L 246.764294 161.349405 
L 248.395724 133.618377 
L 250.027154 126.1102 
L 251.658584 154.008003 
L 253.290014 130.399212 
L 254.921444 196.777919 
L 256.552873 145.195191 
L 258.184303 170.691613 
L 259.815733 122.703232 
L 261.447163 128.885652 
L 263.078593 150.587167 
L 264.710023 144.898136 
L 266.341453 134.32475 
L 267.972883 154.360118 
L 269.604312 128.920275 
L 271.235742 198.806687 
L 272.867172 142.264779 
L 274.498602 130.111052 
L 276.130032 159.902491 
L 277.761462 143.085513 
L 279.392892 127.490787 
L 281.024322 140.868683 
L 282.655751 142.402633 
L 284.287181 168.709419 
L 285.918611 212.329081 
L 287.550041 138.008429 
L 289.181471 153.158074 
L 290.812901 138.388051 
L 292.444331 147.196757 
L 294.075761 145.969259 
L 295.70719 169.999746 
L 297.33862 172.862234 
L 298.97005 152.283968 
L 300.60148 142.663058 
L 302.23291 143.208313 
L 303.86434 151.336557 
L 305.49577 127.263297 
L 307.1272 146.525782 
L 308.75863 121.554149 
L 310.390059 163.363348 
L 312.021489 128.242488 
L 313.652919 148.142846 
L 315.284349 187.95644 
L 316.915779 185.536888 
L 318.547209 152.02517 
L 320.178639 127.218639 
L 321.810069 169.208145 
L 323.441498 180.529871 
L 325.072928 140.486461 
L 326.704358 161.975128 
L 328.335788 136.973935 
L 329.967218 171.272723 
L 331.598648 130.74973 
L 333.230078 164.359828 
L 334.861508 184.645874 
L 336.492937 133.52947 
L 338.124367 147.35231 
L 339.755797 147.115696 
L 341.387227 163.805221 
L 343.018657 111.105251 
L 346.281517 145.220143 
L 347.912947 158.129921 
L 349.544376 152.942399 
L 351.175806 194.059107 
L 352.807236 183.871897 
L 354.438666 164.867556 
L 356.070096 133.002461 
L 357.701526 129.213499 
L 359.332956 108.770593 
L 360.964386 145.326521 
L 362.595815 167.335537 
L 364.227245 158.922738 
L 365.858675 126.210146 
L 367.490105 124.656353 
L 369.121535 121.640729 
L 370.752965 197.826812 
L 372.384395 118.787318 
L 374.015825 136.45938 
L 375.647254 151.034438 
L 377.278684 172.083452 
L 378.910114 145.771374 
L 380.541544 168.656473 
L 382.172974 133.698434 
L 383.804404 160.14686 
L 385.435834 135.687729 
L 387.067264 127.555791 
L 388.698693 137.219991 
L 390.330123 181.560989 
L 391.961553 113.346989 
L 393.592983 132.904659 
L 395.224413 133.903025 
L 396.855843 169.529697 
L 398.487273 135.689964 
L 398.487273 135.689964 
" style="fill:none;stroke:#1f77b4;stroke-linecap:round;stroke-width:1.5;"/>
   </g>
   <g id="patch_3">
    <path d="M 57.6 307.584 
L 57.6 41.472 
" style="fill:none;stroke:#cccccc;stroke-linecap:square;stroke-linejoin:miter;stroke-width:0.8;"/>
   </g>
   <g id="patch_4">
    <path d="M 414.72 307.584 
L 414.72 41.472 
" style="fill:none;stroke:#cccccc;stroke-linecap:square;stroke-linejoin:miter;stroke-width:0.8;"/>
   </g>
   <g id="patch_5">
    <path d="M 57.6 307.584 
L 414.72 307.584 
" style="fill:none;stroke:#cccccc;stroke-linecap:square;stroke-linejoin:miter;stroke-width:0.8;"/>
   </g>
   <g id="patch_6">
    <path d="M 57.6 41.472 
L 414.72 41.472 
" style="fill:none;stroke:#cccccc;stroke-linecap:square;stroke-linejoin:miter;stroke-width:0.8;"/>
   </g>
   <g id="text_17">
    <!-- Model performance vs. # of iterations -->
    <g style="fill:#262626;" transform="translate(122.314688 35.472)scale(0.12 -0.12)">
     <defs>
      <path d="M 628 4666 
L 1569 4666 
L 2759 1491 
L 3956 4666 
L 4897 4666 
L 4897 0 
L 4281 0 
L 4281 4097 
L 3078 897 
L 2444 897 
L 1241 4097 
L 1241 0 
L 628 0 
L 628 4666 
z
" id="DejaVuSans-4d" transform="scale(0.015625)"/>
      <path d="M 2906 2969 
L 2906 4863 
L 3481 4863 
L 3481 0 
L 2906 0 
L 2906 525 
Q 2725 213 2448 61 
Q 2172 -91 1784 -91 
Q 1150 -91 751 415 
Q 353 922 353 1747 
Q 353 2572 751 3078 
Q 1150 3584 1784 3584 
Q 2172 3584 2448 3432 
Q 2725 3281 2906 2969 
z
M 947 1747 
Q 947 1113 1208 752 
Q 1469 391 1925 391 
Q 2381 391 2643 752 
Q 2906 1113 2906 1747 
Q 2906 2381 2643 2742 
Q 2381 3103 1925 3103 
Q 1469 3103 1208 2742 
Q 947 2381 947 1747 
z
" id="DejaVuSans-64" transform="scale(0.015625)"/>
      <path d="M 603 4863 
L 1178 4863 
L 1178 0 
L 603 0 
L 603 4863 
z
" id="DejaVuSans-6c" transform="scale(0.015625)"/>
      <path id="DejaVuSans-20" transform="scale(0.015625)"/>
      <path d="M 1159 525 
L 1159 -1331 
L 581 -1331 
L 581 3500 
L 1159 3500 
L 1159 2969 
Q 1341 3281 1617 3432 
Q 1894 3584 2278 3584 
Q 2916 3584 3314 3078 
Q 3713 2572 3713 1747 
Q 3713 922 3314 415 
Q 2916 -91 2278 -91 
Q 1894 -91 1617 61 
Q 1341 213 1159 525 
z
M 3116 1747 
Q 3116 2381 2855 2742 
Q 2594 3103 2138 3103 
Q 1681 3103 1420 2742 
Q 1159 2381 1159 1747 
Q 1159 1113 1420 752 
Q 1681 391 2138 391 
Q 2594 391 2855 752 
Q 3116 1113 3116 1747 
z
" id="DejaVuSans-70" transform="scale(0.015625)"/>
      <path d="M 2375 4863 
L 2375 4384 
L 1825 4384 
Q 1516 4384 1395 4259 
Q 1275 4134 1275 3809 
L 1275 3500 
L 2222 3500 
L 2222 3053 
L 1275 3053 
L 1275 0 
L 697 0 
L 697 3053 
L 147 3053 
L 147 3500 
L 697 3500 
L 697 3744 
Q 697 4328 969 4595 
Q 1241 4863 1831 4863 
L 2375 4863 
z
" id="DejaVuSans-66" transform="scale(0.015625)"/>
      <path d="M 3328 2828 
Q 3544 3216 3844 3400 
Q 4144 3584 4550 3584 
Q 5097 3584 5394 3201 
Q 5691 2819 5691 2113 
L 5691 0 
L 5113 0 
L 5113 2094 
Q 5113 2597 4934 2840 
Q 4756 3084 4391 3084 
Q 3944 3084 3684 2787 
Q 3425 2491 3425 1978 
L 3425 0 
L 2847 0 
L 2847 2094 
Q 2847 2600 2669 2842 
Q 2491 3084 2119 3084 
Q 1678 3084 1418 2786 
Q 1159 2488 1159 1978 
L 1159 0 
L 581 0 
L 581 3500 
L 1159 3500 
L 1159 2956 
Q 1356 3278 1631 3431 
Q 1906 3584 2284 3584 
Q 2666 3584 2933 3390 
Q 3200 3197 3328 2828 
z
" id="DejaVuSans-6d" transform="scale(0.015625)"/>
      <path d="M 191 3500 
L 800 3500 
L 1894 563 
L 2988 3500 
L 3597 3500 
L 2284 0 
L 1503 0 
L 191 3500 
z
" id="DejaVuSans-76" transform="scale(0.015625)"/>
      <path d="M 2834 3397 
L 2834 2853 
Q 2591 2978 2328 3040 
Q 2066 3103 1784 3103 
Q 1356 3103 1142 2972 
Q 928 2841 928 2578 
Q 928 2378 1081 2264 
Q 1234 2150 1697 2047 
L 1894 2003 
Q 2506 1872 2764 1633 
Q 3022 1394 3022 966 
Q 3022 478 2636 193 
Q 2250 -91 1575 -91 
Q 1294 -91 989 -36 
Q 684 19 347 128 
L 347 722 
Q 666 556 975 473 
Q 1284 391 1588 391 
Q 1994 391 2212 530 
Q 2431 669 2431 922 
Q 2431 1156 2273 1281 
Q 2116 1406 1581 1522 
L 1381 1569 
Q 847 1681 609 1914 
Q 372 2147 372 2553 
Q 372 3047 722 3315 
Q 1072 3584 1716 3584 
Q 2034 3584 2315 3537 
Q 2597 3491 2834 3397 
z
" id="DejaVuSans-73" transform="scale(0.015625)"/>
      <path d="M 3272 2816 
L 2363 2816 
L 2100 1772 
L 3016 1772 
L 3272 2816 
z
M 2803 4594 
L 2478 3297 
L 3391 3297 
L 3719 4594 
L 4219 4594 
L 3897 3297 
L 4872 3297 
L 4872 2816 
L 3775 2816 
L 3519 1772 
L 4513 1772 
L 4513 1294 
L 3397 1294 
L 3072 0 
L 2572 0 
L 2894 1294 
L 1978 1294 
L 1656 0 
L 1153 0 
L 1478 1294 
L 494 1294 
L 494 1772 
L 1594 1772 
L 1856 2816 
L 850 2816 
L 850 3297 
L 1978 3297 
L 2297 4594 
L 2803 4594 
z
" id="DejaVuSans-23" transform="scale(0.015625)"/>
     </defs>
     <use xlink:href="#DejaVuSans-4d"/>
     <use x="86.279297" xlink:href="#DejaVuSans-6f"/>
     <use x="147.460938" xlink:href="#DejaVuSans-64"/>
     <use x="210.9375" xlink:href="#DejaVuSans-65"/>
     <use x="272.460938" xlink:href="#DejaVuSans-6c"/>
     <use x="300.244141" xlink:href="#DejaVuSans-20"/>
     <use x="332.03125" xlink:href="#DejaVuSans-70"/>
     <use x="395.507812" xlink:href="#DejaVuSans-65"/>
     <use x="457.03125" xlink:href="#DejaVuSans-72"/>
     <use x="498.144531" xlink:href="#DejaVuSans-66"/>
     <use x="533.349609" xlink:href="#DejaVuSans-6f"/>
     <use x="594.53125" xlink:href="#DejaVuSans-72"/>
     <use x="633.894531" xlink:href="#DejaVuSans-6d"/>
     <use x="731.306641" xlink:href="#DejaVuSans-61"/>
     <use x="792.585938" xlink:href="#DejaVuSans-6e"/>
     <use x="855.964844" xlink:href="#DejaVuSans-63"/>
     <use x="910.945312" xlink:href="#DejaVuSans-65"/>
     <use x="972.46875" xlink:href="#DejaVuSans-20"/>
     <use x="1004.255859" xlink:href="#DejaVuSans-76"/>
     <use x="1063.435547" xlink:href="#DejaVuSans-73"/>
     <use x="1115.535156" xlink:href="#DejaVuSans-2e"/>
     <use x="1147.322266" xlink:href="#DejaVuSans-20"/>
     <use x="1179.109375" xlink:href="#DejaVuSans-23"/>
     <use x="1262.898438" xlink:href="#DejaVuSans-20"/>
     <use x="1294.685547" xlink:href="#DejaVuSans-6f"/>
     <use x="1355.867188" xlink:href="#DejaVuSans-66"/>
     <use x="1391.072266" xlink:href="#DejaVuSans-20"/>
     <use x="1422.859375" xlink:href="#DejaVuSans-69"/>
     <use x="1450.642578" xlink:href="#DejaVuSans-74"/>
     <use x="1489.851562" xlink:href="#DejaVuSans-65"/>
     <use x="1551.375" xlink:href="#DejaVuSans-72"/>
     <use x="1592.488281" xlink:href="#DejaVuSans-61"/>
     <use x="1653.767578" xlink:href="#DejaVuSans-74"/>
     <use x="1692.976562" xlink:href="#DejaVuSans-69"/>
     <use x="1720.759766" xlink:href="#DejaVuSans-6f"/>
     <use x="1781.941406" xlink:href="#DejaVuSans-6e"/>
     <use x="1845.320312" xlink:href="#DejaVuSans-73"/>
    </g>
   </g>
  </g>
 </g>
 <defs>
  <clipPath id="p6a2923b53c">
   <rect height="266.112" width="357.12" x="57.6" y="41.472"/>
  </clipPath>
 </defs>
</svg>
