<?xml version="1.0" encoding="utf-8" standalone="no"?>
<!DOCTYPE svg PUBLIC "-//W3C//DTD SVG 1.1//EN"
  "http://www.w3.org/Graphics/SVG/1.1/DTD/svg11.dtd">
<svg xmlns:xlink="http://www.w3.org/1999/xlink" width="460.8pt" height="345.6pt" viewBox="0 0 460.8 345.6" xmlns="http://www.w3.org/2000/svg" version="1.1">
 <metadata>
  <rdf:RDF xmlns:dc="http://purl.org/dc/elements/1.1/" xmlns:cc="http://creativecommons.org/ns#" xmlns:rdf="http://www.w3.org/1999/02/22-rdf-syntax-ns#">
   <cc:Work>
    <dc:type rdf:resource="http://purl.org/dc/dcmitype/StillImage"/>
    <dc:date>2022-05-22T08:16:09.796356</dc:date>
    <dc:format>image/svg+xml</dc:format>
    <dc:creator>
     <cc:Agent>
      <dc:title>Matplotlib v3.5.1, https://matplotlib.org/</dc:title>
     </cc:Agent>
    </dc:creator>
   </cc:Work>
  </rdf:RDF>
 </metadata>
 <defs>
  <style type="text/css">*{stroke-linejoin: round; stroke-linecap: butt}</style>
 </defs>
 <g id="figure_1">
  <g id="patch_1">
   <path d="M 0 345.6 
L 460.8 345.6 
L 460.8 0 
L 0 0 
z
" style="fill: #ffffff"/>
  </g>
  <g id="axes_1">
   <g id="patch_2">
    <path d="M 57.6 307.584 
L 414.72 307.584 
L 414.72 41.472 
L 57.6 41.472 
z
" style="fill: #ffffff"/>
   </g>
   <g id="matplotlib.axis_1">
    <g id="xtick_1">
     <g id="line2d_1">
      <path d="M 72.201297 307.584 
L 72.201297 41.472 
" clip-path="url(#p2563fa1a29)" style="fill: none; stroke: #cccccc; stroke-width: 0.8; stroke-linecap: round"/>
     </g>
     <g id="text_1">
      <!-- 0 -->
      <g style="fill: #262626" transform="translate(69.020047 322.182437)scale(0.1 -0.1)">
       <defs>
        <path id="DejaVuSans-30" d="M 2034 4250 
Q 1547 4250 1301 3770 
Q 1056 3291 1056 2328 
Q 1056 1369 1301 889 
Q 1547 409 2034 409 
Q 2525 409 2770 889 
Q 3016 1369 3016 2328 
Q 3016 3291 2770 3770 
Q 2525 4250 2034 4250 
z
M 2034 4750 
Q 2819 4750 3233 4129 
Q 3647 3509 3647 2328 
Q 3647 1150 3233 529 
Q 2819 -91 2034 -91 
Q 1250 -91 836 529 
Q 422 1150 422 2328 
Q 422 3509 836 4129 
Q 1250 4750 2034 4750 
z
" transform="scale(0.015625)"/>
       </defs>
       <use xlink:href="#DejaVuSans-30"/>
      </g>
     </g>
    </g>
    <g id="xtick_2">
     <g id="line2d_2">
      <path d="M 112.987044 307.584 
L 112.987044 41.472 
" clip-path="url(#p2563fa1a29)" style="fill: none; stroke: #cccccc; stroke-width: 0.8; stroke-linecap: round"/>
     </g>
     <g id="text_2">
      <!-- 25 -->
      <g style="fill: #262626" transform="translate(106.624544 322.182437)scale(0.1 -0.1)">
       <defs>
        <path id="DejaVuSans-32" d="M 1228 531 
L 3431 531 
L 3431 0 
L 469 0 
L 469 531 
Q 828 903 1448 1529 
Q 2069 2156 2228 2338 
Q 2531 2678 2651 2914 
Q 2772 3150 2772 3378 
Q 2772 3750 2511 3984 
Q 2250 4219 1831 4219 
Q 1534 4219 1204 4116 
Q 875 4013 500 3803 
L 500 4441 
Q 881 4594 1212 4672 
Q 1544 4750 1819 4750 
Q 2544 4750 2975 4387 
Q 3406 4025 3406 3419 
Q 3406 3131 3298 2873 
Q 3191 2616 2906 2266 
Q 2828 2175 2409 1742 
Q 1991 1309 1228 531 
z
" transform="scale(0.015625)"/>
        <path id="DejaVuSans-35" d="M 691 4666 
L 3169 4666 
L 3169 4134 
L 1269 4134 
L 1269 2991 
Q 1406 3038 1543 3061 
Q 1681 3084 1819 3084 
Q 2600 3084 3056 2656 
Q 3513 2228 3513 1497 
Q 3513 744 3044 326 
Q 2575 -91 1722 -91 
Q 1428 -91 1123 -41 
Q 819 9 494 109 
L 494 744 
Q 775 591 1075 516 
Q 1375 441 1709 441 
Q 2250 441 2565 725 
Q 2881 1009 2881 1497 
Q 2881 1984 2565 2268 
Q 2250 2553 1709 2553 
Q 1456 2553 1204 2497 
Q 953 2441 691 2322 
L 691 4666 
z
" transform="scale(0.015625)"/>
       </defs>
       <use xlink:href="#DejaVuSans-32"/>
       <use xlink:href="#DejaVuSans-35" x="63.623047"/>
      </g>
     </g>
    </g>
    <g id="xtick_3">
     <g id="line2d_3">
      <path d="M 153.772791 307.584 
L 153.772791 41.472 
" clip-path="url(#p2563fa1a29)" style="fill: none; stroke: #cccccc; stroke-width: 0.8; stroke-linecap: round"/>
     </g>
     <g id="text_3">
      <!-- 50 -->
      <g style="fill: #262626" transform="translate(147.410291 322.182437)scale(0.1 -0.1)">
       <use xlink:href="#DejaVuSans-35"/>
       <use xlink:href="#DejaVuSans-30" x="63.623047"/>
      </g>
     </g>
    </g>
    <g id="xtick_4">
     <g id="line2d_4">
      <path d="M 194.558538 307.584 
L 194.558538 41.472 
" clip-path="url(#p2563fa1a29)" style="fill: none; stroke: #cccccc; stroke-width: 0.8; stroke-linecap: round"/>
     </g>
     <g id="text_4">
      <!-- 75 -->
      <g style="fill: #262626" transform="translate(188.196038 322.182437)scale(0.1 -0.1)">
       <defs>
        <path id="DejaVuSans-37" d="M 525 4666 
L 3525 4666 
L 3525 4397 
L 1831 0 
L 1172 0 
L 2766 4134 
L 525 4134 
L 525 4666 
z
" transform="scale(0.015625)"/>
       </defs>
       <use xlink:href="#DejaVuSans-37"/>
       <use xlink:href="#DejaVuSans-35" x="63.623047"/>
      </g>
     </g>
    </g>
    <g id="xtick_5">
     <g id="line2d_5">
      <path d="M 235.344285 307.584 
L 235.344285 41.472 
" clip-path="url(#p2563fa1a29)" style="fill: none; stroke: #cccccc; stroke-width: 0.8; stroke-linecap: round"/>
     </g>
     <g id="text_5">
      <!-- 100 -->
      <g style="fill: #262626" transform="translate(225.800535 322.182437)scale(0.1 -0.1)">
       <defs>
        <path id="DejaVuSans-31" d="M 794 531 
L 1825 531 
L 1825 4091 
L 703 3866 
L 703 4441 
L 1819 4666 
L 2450 4666 
L 2450 531 
L 3481 531 
L 3481 0 
L 794 0 
L 794 531 
z
" transform="scale(0.015625)"/>
       </defs>
       <use xlink:href="#DejaVuSans-31"/>
       <use xlink:href="#DejaVuSans-30" x="63.623047"/>
       <use xlink:href="#DejaVuSans-30" x="127.246094"/>
      </g>
     </g>
    </g>
    <g id="xtick_6">
     <g id="line2d_6">
      <path d="M 276.130032 307.584 
L 276.130032 41.472 
" clip-path="url(#p2563fa1a29)" style="fill: none; stroke: #cccccc; stroke-width: 0.8; stroke-linecap: round"/>
     </g>
     <g id="text_6">
      <!-- 125 -->
      <g style="fill: #262626" transform="translate(266.586282 322.182437)scale(0.1 -0.1)">
       <use xlink:href="#DejaVuSans-31"/>
       <use xlink:href="#DejaVuSans-32" x="63.623047"/>
       <use xlink:href="#DejaVuSans-35" x="127.246094"/>
      </g>
     </g>
    </g>
    <g id="xtick_7">
     <g id="line2d_7">
      <path d="M 316.915779 307.584 
L 316.915779 41.472 
" clip-path="url(#p2563fa1a29)" style="fill: none; stroke: #cccccc; stroke-width: 0.8; stroke-linecap: round"/>
     </g>
     <g id="text_7">
      <!-- 150 -->
      <g style="fill: #262626" transform="translate(307.372029 322.182437)scale(0.1 -0.1)">
       <use xlink:href="#DejaVuSans-31"/>
       <use xlink:href="#DejaVuSans-35" x="63.623047"/>
       <use xlink:href="#DejaVuSans-30" x="127.246094"/>
      </g>
     </g>
    </g>
    <g id="xtick_8">
     <g id="line2d_8">
      <path d="M 357.701526 307.584 
L 357.701526 41.472 
" clip-path="url(#p2563fa1a29)" style="fill: none; stroke: #cccccc; stroke-width: 0.8; stroke-linecap: round"/>
     </g>
     <g id="text_8">
      <!-- 175 -->
      <g style="fill: #262626" transform="translate(348.157776 322.182437)scale(0.1 -0.1)">
       <use xlink:href="#DejaVuSans-31"/>
       <use xlink:href="#DejaVuSans-37" x="63.623047"/>
       <use xlink:href="#DejaVuSans-35" x="127.246094"/>
      </g>
     </g>
    </g>
    <g id="xtick_9">
     <g id="line2d_9">
      <path d="M 398.487273 307.584 
L 398.487273 41.472 
" clip-path="url(#p2563fa1a29)" style="fill: none; stroke: #cccccc; stroke-width: 0.8; stroke-linecap: round"/>
     </g>
     <g id="text_9">
      <!-- 200 -->
      <g style="fill: #262626" transform="translate(388.943523 322.182437)scale(0.1 -0.1)">
       <use xlink:href="#DejaVuSans-32"/>
       <use xlink:href="#DejaVuSans-30" x="63.623047"/>
       <use xlink:href="#DejaVuSans-30" x="127.246094"/>
      </g>
     </g>
    </g>
    <g id="text_10">
     <!-- Iteration -->
     <g style="fill: #262626" transform="translate(214.951406 335.860562)scale(0.1 -0.1)">
      <defs>
       <path id="DejaVuSans-49" d="M 628 4666 
L 1259 4666 
L 1259 0 
L 628 0 
L 628 4666 
z
" transform="scale(0.015625)"/>
       <path id="DejaVuSans-74" d="M 1172 4494 
L 1172 3500 
L 2356 3500 
L 2356 3053 
L 1172 3053 
L 1172 1153 
Q 1172 725 1289 603 
Q 1406 481 1766 481 
L 2356 481 
L 2356 0 
L 1766 0 
Q 1100 0 847 248 
Q 594 497 594 1153 
L 594 3053 
L 172 3053 
L 172 3500 
L 594 3500 
L 594 4494 
L 1172 4494 
z
" transform="scale(0.015625)"/>
       <path id="DejaVuSans-65" d="M 3597 1894 
L 3597 1613 
L 953 1613 
Q 991 1019 1311 708 
Q 1631 397 2203 397 
Q 2534 397 2845 478 
Q 3156 559 3463 722 
L 3463 178 
Q 3153 47 2828 -22 
Q 2503 -91 2169 -91 
Q 1331 -91 842 396 
Q 353 884 353 1716 
Q 353 2575 817 3079 
Q 1281 3584 2069 3584 
Q 2775 3584 3186 3129 
Q 3597 2675 3597 1894 
z
M 3022 2063 
Q 3016 2534 2758 2815 
Q 2500 3097 2075 3097 
Q 1594 3097 1305 2825 
Q 1016 2553 972 2059 
L 3022 2063 
z
" transform="scale(0.015625)"/>
       <path id="DejaVuSans-72" d="M 2631 2963 
Q 2534 3019 2420 3045 
Q 2306 3072 2169 3072 
Q 1681 3072 1420 2755 
Q 1159 2438 1159 1844 
L 1159 0 
L 581 0 
L 581 3500 
L 1159 3500 
L 1159 2956 
Q 1341 3275 1631 3429 
Q 1922 3584 2338 3584 
Q 2397 3584 2469 3576 
Q 2541 3569 2628 3553 
L 2631 2963 
z
" transform="scale(0.015625)"/>
       <path id="DejaVuSans-61" d="M 2194 1759 
Q 1497 1759 1228 1600 
Q 959 1441 959 1056 
Q 959 750 1161 570 
Q 1363 391 1709 391 
Q 2188 391 2477 730 
Q 2766 1069 2766 1631 
L 2766 1759 
L 2194 1759 
z
M 3341 1997 
L 3341 0 
L 2766 0 
L 2766 531 
Q 2569 213 2275 61 
Q 1981 -91 1556 -91 
Q 1019 -91 701 211 
Q 384 513 384 1019 
Q 384 1609 779 1909 
Q 1175 2209 1959 2209 
L 2766 2209 
L 2766 2266 
Q 2766 2663 2505 2880 
Q 2244 3097 1772 3097 
Q 1472 3097 1187 3025 
Q 903 2953 641 2809 
L 641 3341 
Q 956 3463 1253 3523 
Q 1550 3584 1831 3584 
Q 2591 3584 2966 3190 
Q 3341 2797 3341 1997 
z
" transform="scale(0.015625)"/>
       <path id="DejaVuSans-69" d="M 603 3500 
L 1178 3500 
L 1178 0 
L 603 0 
L 603 3500 
z
M 603 4863 
L 1178 4863 
L 1178 4134 
L 603 4134 
L 603 4863 
z
" transform="scale(0.015625)"/>
       <path id="DejaVuSans-6f" d="M 1959 3097 
Q 1497 3097 1228 2736 
Q 959 2375 959 1747 
Q 959 1119 1226 758 
Q 1494 397 1959 397 
Q 2419 397 2687 759 
Q 2956 1122 2956 1747 
Q 2956 2369 2687 2733 
Q 2419 3097 1959 3097 
z
M 1959 3584 
Q 2709 3584 3137 3096 
Q 3566 2609 3566 1747 
Q 3566 888 3137 398 
Q 2709 -91 1959 -91 
Q 1206 -91 779 398 
Q 353 888 353 1747 
Q 353 2609 779 3096 
Q 1206 3584 1959 3584 
z
" transform="scale(0.015625)"/>
       <path id="DejaVuSans-6e" d="M 3513 2113 
L 3513 0 
L 2938 0 
L 2938 2094 
Q 2938 2591 2744 2837 
Q 2550 3084 2163 3084 
Q 1697 3084 1428 2787 
Q 1159 2491 1159 1978 
L 1159 0 
L 581 0 
L 581 3500 
L 1159 3500 
L 1159 2956 
Q 1366 3272 1645 3428 
Q 1925 3584 2291 3584 
Q 2894 3584 3203 3211 
Q 3513 2838 3513 2113 
z
" transform="scale(0.015625)"/>
      </defs>
      <use xlink:href="#DejaVuSans-49"/>
      <use xlink:href="#DejaVuSans-74" x="29.492188"/>
      <use xlink:href="#DejaVuSans-65" x="68.701172"/>
      <use xlink:href="#DejaVuSans-72" x="130.224609"/>
      <use xlink:href="#DejaVuSans-61" x="171.337891"/>
      <use xlink:href="#DejaVuSans-74" x="232.617188"/>
      <use xlink:href="#DejaVuSans-69" x="271.826172"/>
      <use xlink:href="#DejaVuSans-6f" x="299.609375"/>
      <use xlink:href="#DejaVuSans-6e" x="360.791016"/>
     </g>
    </g>
   </g>
   <g id="matplotlib.axis_2">
    <g id="ytick_1">
     <g id="line2d_10">
      <path d="M 57.6 295.782853 
L 414.72 295.782853 
" clip-path="url(#p2563fa1a29)" style="fill: none; stroke: #cccccc; stroke-width: 0.8; stroke-linecap: round"/>
     </g>
     <g id="text_11">
      <!-- 0.50 -->
      <g style="fill: #262626" transform="translate(28.334375 299.582072)scale(0.1 -0.1)">
       <defs>
        <path id="DejaVuSans-2e" d="M 684 794 
L 1344 794 
L 1344 0 
L 684 0 
L 684 794 
z
" transform="scale(0.015625)"/>
       </defs>
       <use xlink:href="#DejaVuSans-30"/>
       <use xlink:href="#DejaVuSans-2e" x="63.623047"/>
       <use xlink:href="#DejaVuSans-35" x="95.410156"/>
       <use xlink:href="#DejaVuSans-30" x="159.033203"/>
      </g>
     </g>
    </g>
    <g id="ytick_2">
     <g id="line2d_11">
      <path d="M 57.6 246.237434 
L 414.72 246.237434 
" clip-path="url(#p2563fa1a29)" style="fill: none; stroke: #cccccc; stroke-width: 0.8; stroke-linecap: round"/>
     </g>
     <g id="text_12">
      <!-- 0.55 -->
      <g style="fill: #262626" transform="translate(28.334375 250.036653)scale(0.1 -0.1)">
       <use xlink:href="#DejaVuSans-30"/>
       <use xlink:href="#DejaVuSans-2e" x="63.623047"/>
       <use xlink:href="#DejaVuSans-35" x="95.410156"/>
       <use xlink:href="#DejaVuSans-35" x="159.033203"/>
      </g>
     </g>
    </g>
    <g id="ytick_3">
     <g id="line2d_12">
      <path d="M 57.6 196.692015 
L 414.72 196.692015 
" clip-path="url(#p2563fa1a29)" style="fill: none; stroke: #cccccc; stroke-width: 0.8; stroke-linecap: round"/>
     </g>
     <g id="text_13">
      <!-- 0.60 -->
      <g style="fill: #262626" transform="translate(28.334375 200.491234)scale(0.1 -0.1)">
       <defs>
        <path id="DejaVuSans-36" d="M 2113 2584 
Q 1688 2584 1439 2293 
Q 1191 2003 1191 1497 
Q 1191 994 1439 701 
Q 1688 409 2113 409 
Q 2538 409 2786 701 
Q 3034 994 3034 1497 
Q 3034 2003 2786 2293 
Q 2538 2584 2113 2584 
z
M 3366 4563 
L 3366 3988 
Q 3128 4100 2886 4159 
Q 2644 4219 2406 4219 
Q 1781 4219 1451 3797 
Q 1122 3375 1075 2522 
Q 1259 2794 1537 2939 
Q 1816 3084 2150 3084 
Q 2853 3084 3261 2657 
Q 3669 2231 3669 1497 
Q 3669 778 3244 343 
Q 2819 -91 2113 -91 
Q 1303 -91 875 529 
Q 447 1150 447 2328 
Q 447 3434 972 4092 
Q 1497 4750 2381 4750 
Q 2619 4750 2861 4703 
Q 3103 4656 3366 4563 
z
" transform="scale(0.015625)"/>
       </defs>
       <use xlink:href="#DejaVuSans-30"/>
       <use xlink:href="#DejaVuSans-2e" x="63.623047"/>
       <use xlink:href="#DejaVuSans-36" x="95.410156"/>
       <use xlink:href="#DejaVuSans-30" x="159.033203"/>
      </g>
     </g>
    </g>
    <g id="ytick_4">
     <g id="line2d_13">
      <path d="M 57.6 147.146596 
L 414.72 147.146596 
" clip-path="url(#p2563fa1a29)" style="fill: none; stroke: #cccccc; stroke-width: 0.8; stroke-linecap: round"/>
     </g>
     <g id="text_14">
      <!-- 0.65 -->
      <g style="fill: #262626" transform="translate(28.334375 150.945815)scale(0.1 -0.1)">
       <use xlink:href="#DejaVuSans-30"/>
       <use xlink:href="#DejaVuSans-2e" x="63.623047"/>
       <use xlink:href="#DejaVuSans-36" x="95.410156"/>
       <use xlink:href="#DejaVuSans-35" x="159.033203"/>
      </g>
     </g>
    </g>
    <g id="ytick_5">
     <g id="line2d_14">
      <path d="M 57.6 97.601177 
L 414.72 97.601177 
" clip-path="url(#p2563fa1a29)" style="fill: none; stroke: #cccccc; stroke-width: 0.8; stroke-linecap: round"/>
     </g>
     <g id="text_15">
      <!-- 0.70 -->
      <g style="fill: #262626" transform="translate(28.334375 101.400395)scale(0.1 -0.1)">
       <use xlink:href="#DejaVuSans-30"/>
       <use xlink:href="#DejaVuSans-2e" x="63.623047"/>
       <use xlink:href="#DejaVuSans-37" x="95.410156"/>
       <use xlink:href="#DejaVuSans-30" x="159.033203"/>
      </g>
     </g>
    </g>
    <g id="ytick_6">
     <g id="line2d_15">
      <path d="M 57.6 48.055758 
L 414.72 48.055758 
" clip-path="url(#p2563fa1a29)" style="fill: none; stroke: #cccccc; stroke-width: 0.8; stroke-linecap: round"/>
     </g>
     <g id="text_16">
      <!-- 0.75 -->
      <g style="fill: #262626" transform="translate(28.334375 51.854976)scale(0.1 -0.1)">
       <use xlink:href="#DejaVuSans-30"/>
       <use xlink:href="#DejaVuSans-2e" x="63.623047"/>
       <use xlink:href="#DejaVuSans-37" x="95.410156"/>
       <use xlink:href="#DejaVuSans-35" x="159.033203"/>
      </g>
     </g>
    </g>
    <g id="text_17">
     <!-- Auroc -->
     <g style="fill: #262626" transform="translate(22.254688 188.868625)rotate(-90)scale(0.1 -0.1)">
      <defs>
       <path id="DejaVuSans-41" d="M 2188 4044 
L 1331 1722 
L 3047 1722 
L 2188 4044 
z
M 1831 4666 
L 2547 4666 
L 4325 0 
L 3669 0 
L 3244 1197 
L 1141 1197 
L 716 0 
L 50 0 
L 1831 4666 
z
" transform="scale(0.015625)"/>
       <path id="DejaVuSans-75" d="M 544 1381 
L 544 3500 
L 1119 3500 
L 1119 1403 
Q 1119 906 1312 657 
Q 1506 409 1894 409 
Q 2359 409 2629 706 
Q 2900 1003 2900 1516 
L 2900 3500 
L 3475 3500 
L 3475 0 
L 2900 0 
L 2900 538 
Q 2691 219 2414 64 
Q 2138 -91 1772 -91 
Q 1169 -91 856 284 
Q 544 659 544 1381 
z
M 1991 3584 
L 1991 3584 
z
" transform="scale(0.015625)"/>
       <path id="DejaVuSans-63" d="M 3122 3366 
L 3122 2828 
Q 2878 2963 2633 3030 
Q 2388 3097 2138 3097 
Q 1578 3097 1268 2742 
Q 959 2388 959 1747 
Q 959 1106 1268 751 
Q 1578 397 2138 397 
Q 2388 397 2633 464 
Q 2878 531 3122 666 
L 3122 134 
Q 2881 22 2623 -34 
Q 2366 -91 2075 -91 
Q 1284 -91 818 406 
Q 353 903 353 1747 
Q 353 2603 823 3093 
Q 1294 3584 2113 3584 
Q 2378 3584 2631 3529 
Q 2884 3475 3122 3366 
z
" transform="scale(0.015625)"/>
      </defs>
      <use xlink:href="#DejaVuSans-41"/>
      <use xlink:href="#DejaVuSans-75" x="68.408203"/>
      <use xlink:href="#DejaVuSans-72" x="131.787109"/>
      <use xlink:href="#DejaVuSans-6f" x="170.650391"/>
      <use xlink:href="#DejaVuSans-63" x="231.832031"/>
     </g>
    </g>
   </g>
   <g id="PolyCollection_1">
    <defs>
     <path id="mcb69b9618f" d="M 73.832727 -243.292376 
L 73.832727 -181.429825 
L 75.464157 -195.642042 
L 77.095587 -167.862907 
L 78.727017 -200.12197 
L 80.358447 -184.911659 
L 81.989877 -113.909507 
L 83.621307 -223.37638 
L 85.252736 -203.249185 
L 86.884166 -197.353438 
L 88.515596 -146.446526 
L 90.147026 -183.398322 
L 91.778456 -212.754946 
L 93.409886 -204.85049 
L 95.041316 -144.453675 
L 96.672746 -193.971835 
L 98.304175 -186.558829 
L 99.935605 -155.717641 
L 101.567035 -185.208172 
L 103.198465 -213.435953 
L 104.829895 -215.66147 
L 106.461325 -204.056336 
L 108.092755 -169.724051 
L 109.724185 -178.776666 
L 111.355614 -190.513799 
L 112.987044 -171.936296 
L 114.618474 -197.944203 
L 116.249904 -179.620174 
L 117.881334 -179.301154 
L 119.512764 -196.302586 
L 121.144194 -178.197911 
L 122.775624 -202.133911 
L 124.407053 -185.778557 
L 126.038483 -206.169831 
L 127.669913 -192.836047 
L 129.301343 -192.656842 
L 130.932773 -202.276546 
L 132.564203 -150.14562 
L 134.195633 -175.949825 
L 135.827063 -170.472429 
L 137.458492 -184.167324 
L 139.089922 -161.646714 
L 140.721352 -195.787377 
L 142.352782 -122.238565 
L 143.984212 -184.131991 
L 145.615642 -186.161066 
L 147.247072 -161.005918 
L 148.878502 -199.049429 
L 150.509931 -149.291955 
L 152.141361 -189.938945 
L 153.772791 -144.980505 
L 155.404221 -157.43912 
L 157.035651 -202.900219 
L 158.667081 -176.654911 
L 160.298511 -187.511661 
L 161.929941 -175.205557 
L 163.56137 -168.276912 
L 165.1928 -179.47584 
L 166.82423 -214.377894 
L 168.45566 -146.414223 
L 170.08709 -197.639905 
L 171.71852 -198.042489 
L 173.34995 -205.18615 
L 174.98138 -179.410123 
L 176.61281 -204.199745 
L 178.244239 -213.236068 
L 179.875669 -110.116323 
L 181.507099 -193.729478 
L 183.138529 -200.302248 
L 184.769959 -170.307797 
L 186.401389 -197.166286 
L 188.032819 -153.437198 
L 189.664249 -172.21248 
L 191.295678 -212.945995 
L 192.927108 -182.032931 
L 194.558538 -178.88642 
L 196.189968 -198.961398 
L 197.821398 -189.277648 
L 199.452828 -147.856694 
L 201.084258 -188.76294 
L 202.715688 -179.857942 
L 204.347117 -178.785419 
L 205.978547 -186.588619 
L 207.609977 -224.165202 
L 209.241407 -208.63339 
L 210.872837 -182.216019 
L 212.504267 -189.790553 
L 214.135697 -203.232415 
L 215.767127 -154.180417 
L 217.398556 -179.620013 
L 219.029986 -151.345921 
L 220.661416 -184.503443 
L 222.292846 -153.066145 
L 223.924276 -190.1676 
L 225.555706 -186.178028 
L 227.187136 -130.863651 
L 228.818566 -179.927491 
L 230.449995 -178.447014 
L 232.081425 -154.537732 
L 233.712855 -191.190937 
L 235.344285 -168.482872 
L 236.975715 -170.709674 
L 238.607145 -179.111919 
L 240.238575 -188.348086 
L 241.870005 -190.801125 
L 243.501434 -193.446093 
L 245.132864 -205.240889 
L 246.764294 -167.160142 
L 248.395724 -201.069295 
L 250.027154 -174.379613 
L 251.658584 -163.960007 
L 253.290014 -180.543681 
L 254.921444 -122.628489 
L 256.552873 -168.255617 
L 258.184303 -193.322371 
L 259.815733 -179.762049 
L 261.447163 -173.110421 
L 263.078593 -158.320338 
L 264.710023 -160.890747 
L 266.341453 -191.306513 
L 267.972883 -206.642888 
L 269.604312 -191.051494 
L 271.235742 -159.35157 
L 272.867172 -161.226684 
L 274.498602 -183.463757 
L 276.130032 -218.564546 
L 277.761462 -171.996551 
L 279.392892 -160.020848 
L 281.024322 -183.834152 
L 282.655751 -105.055912 
L 284.287181 -204.337135 
L 285.918611 -179.47658 
L 287.550041 -206.183392 
L 289.181471 -209.075185 
L 290.812901 -191.395726 
L 292.444331 -196.42014 
L 294.075761 -174.604458 
L 295.70719 -179.998589 
L 297.33862 -175.593832 
L 298.97005 -186.734034 
L 300.60148 -194.963026 
L 302.23291 -204.943571 
L 303.86434 -166.81799 
L 305.49577 -180.358935 
L 307.1272 -198.106269 
L 308.75863 -185.226933 
L 310.390059 -212.353984 
L 312.021489 -179.253121 
L 313.652919 -195.672352 
L 315.284349 -184.247893 
L 316.915779 -192.833826 
L 318.547209 -131.541727 
L 320.178639 -192.863213 
L 321.810069 -199.72344 
L 323.441498 -206.864199 
L 325.072928 -160.658314 
L 326.704358 -190.556479 
L 328.335788 -141.253954 
L 329.967218 -209.86106 
L 331.598648 -78.846653 
L 333.230078 -207.304727 
L 334.861508 -175.809544 
L 336.492937 -163.622615 
L 338.124367 -148.043883 
L 339.755797 -180.818457 
L 341.387227 -179.79358 
L 343.018657 -176.972274 
L 344.650087 -174.708943 
L 346.281517 -193.002772 
L 347.912947 -180.280953 
L 349.544376 -163.604197 
L 351.175806 -173.522462 
L 352.807236 -50.112 
L 354.438666 -135.399232 
L 356.070096 -180.318057 
L 357.701526 -176.264099 
L 359.332956 -217.272068 
L 360.964386 -201.214693 
L 362.595815 -190.668651 
L 364.227245 -161.88875 
L 365.858675 -159.485833 
L 367.490105 -188.569016 
L 369.121535 -176.017735 
L 370.752965 -131.091185 
L 372.384395 -162.418609 
L 374.015825 -156.036912 
L 375.647254 -213.397724 
L 377.278684 -215.430069 
L 378.910114 -162.910979 
L 380.541544 -168.158557 
L 382.172974 -188.64504 
L 383.804404 -211.184625 
L 385.435834 -201.035324 
L 387.067264 -191.007709 
L 388.698693 -193.511264 
L 390.330123 -193.776675 
L 391.961553 -165.756203 
L 393.592983 -196.535918 
L 395.224413 -154.74291 
L 396.855843 -185.949105 
L 398.487273 -177.047915 
L 398.487273 -269.928517 
L 398.487273 -269.928517 
L 396.855843 -236.651204 
L 395.224413 -263.489112 
L 393.592983 -260.750417 
L 391.961553 -235.60019 
L 390.330123 -255.062741 
L 388.698693 -238.908046 
L 387.067264 -285.008455 
L 385.435834 -265.632217 
L 383.804404 -257.68411 
L 382.172974 -256.822668 
L 380.541544 -258.05368 
L 378.910114 -265.894008 
L 377.278684 -255.46193 
L 375.647254 -241.396247 
L 374.015825 -225.350776 
L 372.384395 -249.536462 
L 370.752965 -246.180656 
L 369.121535 -228.186321 
L 367.490105 -241.478678 
L 365.858675 -261.85875 
L 364.227245 -237.412194 
L 362.595815 -254.668405 
L 360.964386 -274.66483 
L 359.332956 -275.822491 
L 357.701526 -224.305269 
L 356.070096 -233.90537 
L 354.438666 -264.050253 
L 352.807236 -292.032 
L 351.175806 -245.678906 
L 349.544376 -270.125543 
L 347.912947 -249.982524 
L 346.281517 -263.748258 
L 344.650087 -221.558343 
L 343.018657 -248.660336 
L 341.387227 -255.589511 
L 339.755797 -276.985852 
L 338.124367 -232.645745 
L 336.492937 -262.457293 
L 334.861508 -286.743587 
L 333.230078 -243.266702 
L 331.598648 -279.912445 
L 329.967218 -260.833284 
L 328.335788 -223.498564 
L 326.704358 -267.694251 
L 325.072928 -269.749951 
L 323.441498 -250.549114 
L 321.810069 -260.530669 
L 320.178639 -270.075724 
L 318.547209 -282.156378 
L 316.915779 -256.620675 
L 315.284349 -245.820485 
L 313.652919 -266.935802 
L 312.021489 -229.831128 
L 310.390059 -251.194448 
L 308.75863 -252.971717 
L 307.1272 -267.232315 
L 305.49577 -251.312322 
L 303.86434 -243.102956 
L 302.23291 -258.716825 
L 300.60148 -233.877339 
L 298.97005 -238.946652 
L 297.33862 -238.199866 
L 295.70719 -266.322188 
L 294.075761 -265.374282 
L 292.444331 -248.326667 
L 290.812901 -258.959441 
L 289.181471 -261.834783 
L 287.550041 -261.762795 
L 285.918611 -273.895395 
L 284.287181 -249.484614 
L 282.655751 -270.798139 
L 281.024322 -256.187793 
L 279.392892 -260.073679 
L 277.761462 -229.621544 
L 276.130032 -238.165242 
L 274.498602 -280.071977 
L 272.867172 -254.047307 
L 271.235742 -220.00367 
L 269.604312 -258.130364 
L 267.972883 -257.829848 
L 266.341453 -249.130626 
L 264.710023 -257.987586 
L 263.078593 -224.687878 
L 261.447163 -257.124785 
L 259.815733 -262.234525 
L 258.184303 -260.607349 
L 256.552873 -238.164487 
L 254.921444 -276.257101 
L 253.290014 -268.636659 
L 251.658584 -241.82273 
L 250.027154 -272.267474 
L 248.395724 -247.356124 
L 246.764294 -247.992782 
L 245.132864 -286.933998 
L 243.501434 -257.527513 
L 241.870005 -255.07994 
L 240.238575 -264.801558 
L 238.607145 -248.125885 
L 236.975715 -243.436768 
L 235.344285 -226.488997 
L 233.712855 -289.211242 
L 232.081425 -267.137313 
L 230.449995 -232.82557 
L 228.818566 -260.334114 
L 227.187136 -217.91606 
L 225.555706 -277.340377 
L 223.924276 -274.158593 
L 222.292846 -249.664725 
L 220.661416 -267.009381 
L 219.029986 -258.484783 
L 217.398556 -235.205802 
L 215.767127 -259.690826 
L 214.135697 -253.981406 
L 212.504267 -251.858868 
L 210.872837 -259.406009 
L 209.241407 -254.919834 
L 207.609977 -263.172378 
L 205.978547 -232.710179 
L 204.347117 -281.839801 
L 202.715688 -236.165141 
L 201.084258 -255.801866 
L 199.452828 -246.369519 
L 197.821398 -244.499689 
L 196.189968 -271.500712 
L 194.558538 -279.298904 
L 192.927108 -266.030401 
L 191.295678 -263.220068 
L 189.664249 -280.563656 
L 188.032819 -255.314512 
L 186.401389 -254.562162 
L 184.769959 -269.38664 
L 183.138529 -265.023238 
L 181.507099 -246.040826 
L 179.875669 -267.393741 
L 178.244239 -240.68918 
L 176.61281 -255.972747 
L 174.98138 -227.84604 
L 173.34995 -257.349971 
L 171.71852 -265.262129 
L 170.08709 -214.571439 
L 168.45566 -224.96192 
L 166.82423 -272.579231 
L 165.1928 -280.055372 
L 163.56137 -254.354861 
L 161.929941 -245.695561 
L 160.298511 -252.280365 
L 158.667081 -261.971313 
L 157.035651 -275.305479 
L 155.404221 -248.902321 
L 153.772791 -225.455362 
L 152.141361 -260.047746 
L 150.509931 -219.079119 
L 148.878502 -261.983478 
L 147.247072 -249.083533 
L 145.615642 -276.800551 
L 143.984212 -254.441125 
L 142.352782 -281.157144 
L 140.721352 -260.602364 
L 139.089922 -232.180436 
L 137.458492 -283.275742 
L 135.827063 -228.240743 
L 134.195633 -235.892803 
L 132.564203 -287.044792 
L 130.932773 -261.154331 
L 129.301343 -253.518748 
L 127.669913 -242.296202 
L 126.038483 -256.282277 
L 124.407053 -258.555612 
L 122.775624 -266.0041 
L 121.144194 -285.49363 
L 119.512764 -257.525313 
L 117.881334 -255.29036 
L 116.249904 -233.836513 
L 114.618474 -279.455863 
L 112.987044 -286.783693 
L 111.355614 -252.381844 
L 109.724185 -250.628232 
L 108.092755 -280.761687 
L 106.461325 -251.633189 
L 104.829895 -252.035233 
L 103.198465 -271.879561 
L 101.567035 -268.540745 
L 99.935605 -222.733259 
L 98.304175 -274.783538 
L 96.672746 -268.803547 
L 95.041316 -285.409941 
L 93.409886 -247.533133 
L 91.778456 -250.3616 
L 90.147026 -254.691559 
L 88.515596 -243.781793 
L 86.884166 -269.261555 
L 85.252736 -237.31605 
L 83.621307 -257.947389 
L 81.989877 -278.329085 
L 80.358447 -284.842568 
L 78.727017 -245.896456 
L 77.095587 -248.452705 
L 75.464157 -256.132725 
L 73.832727 -243.292376 
z
" style="stroke: #ffffff; stroke-opacity: 0.2"/>
    </defs>
    <g clip-path="url(#p2563fa1a29)">
     <use xlink:href="#mcb69b9618f" x="0" y="345.6" style="fill: #1f77b4; fill-opacity: 0.2; stroke: #ffffff; stroke-opacity: 0.2"/>
    </g>
   </g>
   <g id="line2d_16">
    <path d="M 73.832727 133.2389 
L 75.464157 119.712617 
L 77.095587 137.442194 
L 78.727017 122.590787 
L 80.358447 110.722886 
L 81.989877 149.480704 
L 83.621307 104.938115 
L 85.252736 125.317383 
L 86.884166 112.292504 
L 88.515596 150.48584 
L 90.147026 126.55506 
L 91.778456 114.041727 
L 93.409886 119.408189 
L 95.041316 130.668192 
L 96.672746 114.212309 
L 98.304175 114.928817 
L 99.935605 156.37455 
L 101.567035 118.725542 
L 103.198465 102.942243 
L 104.829895 111.751649 
L 106.461325 117.755237 
L 108.092755 120.357131 
L 109.724185 130.897551 
L 111.355614 124.152179 
L 112.987044 116.240005 
L 114.618474 106.899967 
L 116.249904 138.871656 
L 117.881334 128.304243 
L 119.512764 118.686051 
L 121.144194 113.754229 
L 122.775624 111.530994 
L 124.407053 123.432916 
L 126.038483 114.373946 
L 127.669913 128.033875 
L 129.301343 122.512205 
L 130.932773 113.884561 
L 134.195633 139.678686 
L 135.827063 146.243414 
L 137.458492 111.878467 
L 139.089922 148.686425 
L 140.721352 117.405129 
L 142.352782 143.902146 
L 143.984212 126.313442 
L 145.615642 114.119191 
L 147.247072 140.555274 
L 148.878502 115.083546 
L 150.509931 161.414463 
L 152.141361 120.606655 
L 153.772791 160.382067 
L 155.404221 142.429279 
L 157.035651 106.497151 
L 158.667081 126.286888 
L 160.298511 125.703987 
L 161.929941 135.149441 
L 163.56137 134.284113 
L 165.1928 115.834394 
L 166.82423 102.121438 
L 168.45566 159.911928 
L 170.08709 139.494328 
L 171.71852 113.947691 
L 173.34995 114.33194 
L 174.98138 141.971919 
L 176.61281 115.513754 
L 178.244239 118.637376 
L 179.875669 156.844968 
L 181.507099 125.714848 
L 183.138529 112.937257 
L 184.769959 125.752782 
L 186.401389 119.735776 
L 188.032819 141.224145 
L 189.664249 119.211932 
L 191.295678 107.516969 
L 192.927108 121.568334 
L 194.558538 116.507338 
L 196.189968 110.368945 
L 197.821398 128.711332 
L 199.452828 148.486894 
L 201.084258 123.317597 
L 202.715688 137.588459 
L 204.347117 115.28739 
L 205.978547 135.950601 
L 207.609977 101.93121 
L 209.241407 113.823388 
L 210.872837 124.788986 
L 212.504267 124.77529 
L 214.135697 116.993089 
L 215.767127 138.664379 
L 217.398556 138.187093 
L 219.029986 140.684648 
L 220.661416 119.843588 
L 222.292846 144.234565 
L 223.924276 113.436904 
L 225.555706 113.840798 
L 227.187136 171.210145 
L 228.818566 125.469197 
L 230.449995 139.963708 
L 232.081425 134.762477 
L 233.712855 105.39891 
L 235.344285 148.114065 
L 236.975715 138.526779 
L 238.607145 131.981098 
L 240.238575 119.025178 
L 241.870005 122.659467 
L 243.501434 120.113197 
L 245.132864 99.512557 
L 246.764294 138.023538 
L 248.395724 121.38729 
L 250.027154 122.276457 
L 251.658584 142.708631 
L 253.290014 121.00983 
L 254.921444 146.157205 
L 256.552873 142.389948 
L 258.184303 118.63514 
L 261.447163 130.482397 
L 263.078593 154.095892 
L 264.710023 136.160834 
L 266.341453 125.381431 
L 267.972883 113.363632 
L 269.604312 121.009071 
L 271.235742 155.92238 
L 272.867172 137.963004 
L 274.498602 113.832133 
L 276.130032 117.235106 
L 277.761462 144.790952 
L 279.392892 135.552736 
L 281.024322 125.589028 
L 282.655751 157.672974 
L 284.287181 118.689125 
L 285.918611 118.914012 
L 287.550041 111.626907 
L 289.181471 110.145016 
L 290.812901 120.422416 
L 292.444331 123.226596 
L 294.075761 125.61063 
L 295.70719 122.439611 
L 297.33862 138.703151 
L 298.97005 132.759657 
L 300.60148 131.179818 
L 302.23291 113.769802 
L 303.86434 140.639527 
L 305.49577 129.764371 
L 307.1272 112.930708 
L 308.75863 126.500675 
L 310.390059 113.825784 
L 312.021489 141.057876 
L 313.652919 114.295923 
L 315.284349 130.565811 
L 316.915779 120.87275 
L 318.547209 138.750947 
L 320.178639 114.130532 
L 323.441498 116.893344 
L 325.072928 130.395868 
L 326.704358 116.474635 
L 328.335788 163.223741 
L 329.967218 110.252828 
L 331.598648 166.220451 
L 333.230078 120.314285 
L 334.861508 114.323434 
L 336.492937 132.560046 
L 338.124367 155.255186 
L 339.755797 116.697845 
L 341.387227 127.908455 
L 343.018657 132.783695 
L 344.650087 147.466357 
L 346.281517 117.224485 
L 347.912947 130.468261 
L 349.544376 128.73513 
L 351.175806 135.999316 
L 352.807236 174.528 
L 354.438666 145.875257 
L 356.070096 138.488286 
L 357.701526 145.315316 
L 359.332956 99.05272 
L 360.964386 107.660238 
L 362.595815 122.931472 
L 364.227245 145.949528 
L 365.858675 134.927708 
L 367.490105 130.576153 
L 370.752965 156.96408 
L 372.384395 139.622464 
L 374.015825 154.906156 
L 375.647254 118.203015 
L 377.278684 110.154001 
L 378.910114 131.197507 
L 380.541544 132.493882 
L 382.172974 122.866146 
L 383.804404 111.165633 
L 385.435834 112.266229 
L 387.067264 107.591918 
L 388.698693 129.390345 
L 390.330123 121.180292 
L 391.961553 144.921804 
L 393.592983 116.956833 
L 395.224413 136.483989 
L 396.855843 134.299846 
L 398.487273 122.111784 
L 398.487273 122.111784 
" clip-path="url(#p2563fa1a29)" style="fill: none; stroke: #1f77b4; stroke-width: 1.5; stroke-linecap: round"/>
   </g>
   <g id="LineCollection_1">
    <path d="M 398.487273 295.488 
L 398.487273 53.568 
" clip-path="url(#p2563fa1a29)" style="fill: none; stroke-dasharray: 5.55,2.4; stroke-dashoffset: 0; stroke: #1f77b4; stroke-width: 1.5"/>
   </g>
   <g id="patch_3">
    <path d="M 57.6 307.584 
L 57.6 41.472 
" style="fill: none; stroke: #cccccc; stroke-width: 0.8; stroke-linejoin: miter; stroke-linecap: square"/>
   </g>
   <g id="patch_4">
    <path d="M 414.72 307.584 
L 414.72 41.472 
" style="fill: none; stroke: #cccccc; stroke-width: 0.8; stroke-linejoin: miter; stroke-linecap: square"/>
   </g>
   <g id="patch_5">
    <path d="M 57.6 307.584 
L 414.72 307.584 
" style="fill: none; stroke: #cccccc; stroke-width: 0.8; stroke-linejoin: miter; stroke-linecap: square"/>
   </g>
   <g id="patch_6">
    <path d="M 57.6 41.472 
L 414.72 41.472 
" style="fill: none; stroke: #cccccc; stroke-width: 0.8; stroke-linejoin: miter; stroke-linecap: square"/>
   </g>
   <g id="text_18">
    <!-- Model performance vs. # of iterations -->
    <g style="fill: #262626" transform="translate(122.314688 35.472)scale(0.12 -0.12)">
     <defs>
      <path id="DejaVuSans-4d" d="M 628 4666 
L 1569 4666 
L 2759 1491 
L 3956 4666 
L 4897 4666 
L 4897 0 
L 4281 0 
L 4281 4097 
L 3078 897 
L 2444 897 
L 1241 4097 
L 1241 0 
L 628 0 
L 628 4666 
z
" transform="scale(0.015625)"/>
      <path id="DejaVuSans-64" d="M 2906 2969 
L 2906 4863 
L 3481 4863 
L 3481 0 
L 2906 0 
L 2906 525 
Q 2725 213 2448 61 
Q 2172 -91 1784 -91 
Q 1150 -91 751 415 
Q 353 922 353 1747 
Q 353 2572 751 3078 
Q 1150 3584 1784 3584 
Q 2172 3584 2448 3432 
Q 2725 3281 2906 2969 
z
M 947 1747 
Q 947 1113 1208 752 
Q 1469 391 1925 391 
Q 2381 391 2643 752 
Q 2906 1113 2906 1747 
Q 2906 2381 2643 2742 
Q 2381 3103 1925 3103 
Q 1469 3103 1208 2742 
Q 947 2381 947 1747 
z
" transform="scale(0.015625)"/>
      <path id="DejaVuSans-6c" d="M 603 4863 
L 1178 4863 
L 1178 0 
L 603 0 
L 603 4863 
z
" transform="scale(0.015625)"/>
      <path id="DejaVuSans-20" transform="scale(0.015625)"/>
      <path id="DejaVuSans-70" d="M 1159 525 
L 1159 -1331 
L 581 -1331 
L 581 3500 
L 1159 3500 
L 1159 2969 
Q 1341 3281 1617 3432 
Q 1894 3584 2278 3584 
Q 2916 3584 3314 3078 
Q 3713 2572 3713 1747 
Q 3713 922 3314 415 
Q 2916 -91 2278 -91 
Q 1894 -91 1617 61 
Q 1341 213 1159 525 
z
M 3116 1747 
Q 3116 2381 2855 2742 
Q 2594 3103 2138 3103 
Q 1681 3103 1420 2742 
Q 1159 2381 1159 1747 
Q 1159 1113 1420 752 
Q 1681 391 2138 391 
Q 2594 391 2855 752 
Q 3116 1113 3116 1747 
z
" transform="scale(0.015625)"/>
      <path id="DejaVuSans-66" d="M 2375 4863 
L 2375 4384 
L 1825 4384 
Q 1516 4384 1395 4259 
Q 1275 4134 1275 3809 
L 1275 3500 
L 2222 3500 
L 2222 3053 
L 1275 3053 
L 1275 0 
L 697 0 
L 697 3053 
L 147 3053 
L 147 3500 
L 697 3500 
L 697 3744 
Q 697 4328 969 4595 
Q 1241 4863 1831 4863 
L 2375 4863 
z
" transform="scale(0.015625)"/>
      <path id="DejaVuSans-6d" d="M 3328 2828 
Q 3544 3216 3844 3400 
Q 4144 3584 4550 3584 
Q 5097 3584 5394 3201 
Q 5691 2819 5691 2113 
L 5691 0 
L 5113 0 
L 5113 2094 
Q 5113 2597 4934 2840 
Q 4756 3084 4391 3084 
Q 3944 3084 3684 2787 
Q 3425 2491 3425 1978 
L 3425 0 
L 2847 0 
L 2847 2094 
Q 2847 2600 2669 2842 
Q 2491 3084 2119 3084 
Q 1678 3084 1418 2786 
Q 1159 2488 1159 1978 
L 1159 0 
L 581 0 
L 581 3500 
L 1159 3500 
L 1159 2956 
Q 1356 3278 1631 3431 
Q 1906 3584 2284 3584 
Q 2666 3584 2933 3390 
Q 3200 3197 3328 2828 
z
" transform="scale(0.015625)"/>
      <path id="DejaVuSans-76" d="M 191 3500 
L 800 3500 
L 1894 563 
L 2988 3500 
L 3597 3500 
L 2284 0 
L 1503 0 
L 191 3500 
z
" transform="scale(0.015625)"/>
      <path id="DejaVuSans-73" d="M 2834 3397 
L 2834 2853 
Q 2591 2978 2328 3040 
Q 2066 3103 1784 3103 
Q 1356 3103 1142 2972 
Q 928 2841 928 2578 
Q 928 2378 1081 2264 
Q 1234 2150 1697 2047 
L 1894 2003 
Q 2506 1872 2764 1633 
Q 3022 1394 3022 966 
Q 3022 478 2636 193 
Q 2250 -91 1575 -91 
Q 1294 -91 989 -36 
Q 684 19 347 128 
L 347 722 
Q 666 556 975 473 
Q 1284 391 1588 391 
Q 1994 391 2212 530 
Q 2431 669 2431 922 
Q 2431 1156 2273 1281 
Q 2116 1406 1581 1522 
L 1381 1569 
Q 847 1681 609 1914 
Q 372 2147 372 2553 
Q 372 3047 722 3315 
Q 1072 3584 1716 3584 
Q 2034 3584 2315 3537 
Q 2597 3491 2834 3397 
z
" transform="scale(0.015625)"/>
      <path id="DejaVuSans-23" d="M 3272 2816 
L 2363 2816 
L 2100 1772 
L 3016 1772 
L 3272 2816 
z
M 2803 4594 
L 2478 3297 
L 3391 3297 
L 3719 4594 
L 4219 4594 
L 3897 3297 
L 4872 3297 
L 4872 2816 
L 3775 2816 
L 3519 1772 
L 4513 1772 
L 4513 1294 
L 3397 1294 
L 3072 0 
L 2572 0 
L 2894 1294 
L 1978 1294 
L 1656 0 
L 1153 0 
L 1478 1294 
L 494 1294 
L 494 1772 
L 1594 1772 
L 1856 2816 
L 850 2816 
L 850 3297 
L 1978 3297 
L 2297 4594 
L 2803 4594 
z
" transform="scale(0.015625)"/>
     </defs>
     <use xlink:href="#DejaVuSans-4d"/>
     <use xlink:href="#DejaVuSans-6f" x="86.279297"/>
     <use xlink:href="#DejaVuSans-64" x="147.460938"/>
     <use xlink:href="#DejaVuSans-65" x="210.9375"/>
     <use xlink:href="#DejaVuSans-6c" x="272.460938"/>
     <use xlink:href="#DejaVuSans-20" x="300.244141"/>
     <use xlink:href="#DejaVuSans-70" x="332.03125"/>
     <use xlink:href="#DejaVuSans-65" x="395.507812"/>
     <use xlink:href="#DejaVuSans-72" x="457.03125"/>
     <use xlink:href="#DejaVuSans-66" x="498.144531"/>
     <use xlink:href="#DejaVuSans-6f" x="533.349609"/>
     <use xlink:href="#DejaVuSans-72" x="594.53125"/>
     <use xlink:href="#DejaVuSans-6d" x="633.894531"/>
     <use xlink:href="#DejaVuSans-61" x="731.306641"/>
     <use xlink:href="#DejaVuSans-6e" x="792.585938"/>
     <use xlink:href="#DejaVuSans-63" x="855.964844"/>
     <use xlink:href="#DejaVuSans-65" x="910.945312"/>
     <use xlink:href="#DejaVuSans-20" x="972.46875"/>
     <use xlink:href="#DejaVuSans-76" x="1004.255859"/>
     <use xlink:href="#DejaVuSans-73" x="1063.435547"/>
     <use xlink:href="#DejaVuSans-2e" x="1115.535156"/>
     <use xlink:href="#DejaVuSans-20" x="1147.322266"/>
     <use xlink:href="#DejaVuSans-23" x="1179.109375"/>
     <use xlink:href="#DejaVuSans-20" x="1262.898438"/>
     <use xlink:href="#DejaVuSans-6f" x="1294.685547"/>
     <use xlink:href="#DejaVuSans-66" x="1355.867188"/>
     <use xlink:href="#DejaVuSans-20" x="1391.072266"/>
     <use xlink:href="#DejaVuSans-69" x="1422.859375"/>
     <use xlink:href="#DejaVuSans-74" x="1450.642578"/>
     <use xlink:href="#DejaVuSans-65" x="1489.851562"/>
     <use xlink:href="#DejaVuSans-72" x="1551.375"/>
     <use xlink:href="#DejaVuSans-61" x="1592.488281"/>
     <use xlink:href="#DejaVuSans-74" x="1653.767578"/>
     <use xlink:href="#DejaVuSans-69" x="1692.976562"/>
     <use xlink:href="#DejaVuSans-6f" x="1720.759766"/>
     <use xlink:href="#DejaVuSans-6e" x="1781.941406"/>
     <use xlink:href="#DejaVuSans-73" x="1845.320312"/>
    </g>
   </g>
  </g>
 </g>
 <defs>
  <clipPath id="p2563fa1a29">
   <rect x="57.6" y="41.472" width="357.12" height="266.112"/>
  </clipPath>
 </defs>
</svg>
