<?xml version="1.0" encoding="utf-8" standalone="no"?>
<!DOCTYPE svg PUBLIC "-//W3C//DTD SVG 1.1//EN"
  "http://www.w3.org/Graphics/SVG/1.1/DTD/svg11.dtd">
<svg height="345.6pt" version="1.1" viewBox="0 0 460.8 345.6" width="460.8pt" xmlns="http://www.w3.org/2000/svg" xmlns:xlink="http://www.w3.org/1999/xlink">
 <metadata>
  <rdf:RDF xmlns:cc="http://creativecommons.org/ns#" xmlns:dc="http://purl.org/dc/elements/1.1/" xmlns:rdf="http://www.w3.org/1999/02/22-rdf-syntax-ns#">
   <cc:Work>
    <dc:type rdf:resource="http://purl.org/dc/dcmitype/StillImage"/>
    <dc:date>2022-01-19T07:14:09.411122</dc:date>
    <dc:format>image/svg+xml</dc:format>
    <dc:creator>
     <cc:Agent>
      <dc:title>Matplotlib v3.4.3, https://matplotlib.org/</dc:title>
     </cc:Agent>
    </dc:creator>
   </cc:Work>
  </rdf:RDF>
 </metadata>
 <defs>
  <style type="text/css">*{stroke-linecap:butt;stroke-linejoin:round;}</style>
 </defs>
 <g id="figure_1">
  <g id="patch_1">
   <path d="M 0 345.6 
L 460.8 345.6 
L 460.8 0 
L 0 0 
z
" style="fill:#ffffff;"/>
  </g>
  <g id="axes_1">
   <g id="patch_2">
    <path d="M 57.6 307.584 
L 414.72 307.584 
L 414.72 41.472 
L 57.6 41.472 
z
" style="fill:#ffffff;"/>
   </g>
   <g id="matplotlib.axis_1">
    <g id="xtick_1">
     <g id="line2d_1">
      <path clip-path="url(#p0446f153b7)" d="M 72.201297 307.584 
L 72.201297 41.472 
" style="fill:none;stroke:#cccccc;stroke-linecap:round;stroke-width:0.8;"/>
     </g>
     <g id="text_1">
      <!-- 0 -->
      <g style="fill:#262626;" transform="translate(69.020047 322.182437)scale(0.1 -0.1)">
       <defs>
        <path d="M 2034 4250 
Q 1547 4250 1301 3770 
Q 1056 3291 1056 2328 
Q 1056 1369 1301 889 
Q 1547 409 2034 409 
Q 2525 409 2770 889 
Q 3016 1369 3016 2328 
Q 3016 3291 2770 3770 
Q 2525 4250 2034 4250 
z
M 2034 4750 
Q 2819 4750 3233 4129 
Q 3647 3509 3647 2328 
Q 3647 1150 3233 529 
Q 2819 -91 2034 -91 
Q 1250 -91 836 529 
Q 422 1150 422 2328 
Q 422 3509 836 4129 
Q 1250 4750 2034 4750 
z
" id="DejaVuSans-30" transform="scale(0.015625)"/>
       </defs>
       <use xlink:href="#DejaVuSans-30"/>
      </g>
     </g>
    </g>
    <g id="xtick_2">
     <g id="line2d_2">
      <path clip-path="url(#p0446f153b7)" d="M 112.987044 307.584 
L 112.987044 41.472 
" style="fill:none;stroke:#cccccc;stroke-linecap:round;stroke-width:0.8;"/>
     </g>
     <g id="text_2">
      <!-- 25 -->
      <g style="fill:#262626;" transform="translate(106.624544 322.182437)scale(0.1 -0.1)">
       <defs>
        <path d="M 1228 531 
L 3431 531 
L 3431 0 
L 469 0 
L 469 531 
Q 828 903 1448 1529 
Q 2069 2156 2228 2338 
Q 2531 2678 2651 2914 
Q 2772 3150 2772 3378 
Q 2772 3750 2511 3984 
Q 2250 4219 1831 4219 
Q 1534 4219 1204 4116 
Q 875 4013 500 3803 
L 500 4441 
Q 881 4594 1212 4672 
Q 1544 4750 1819 4750 
Q 2544 4750 2975 4387 
Q 3406 4025 3406 3419 
Q 3406 3131 3298 2873 
Q 3191 2616 2906 2266 
Q 2828 2175 2409 1742 
Q 1991 1309 1228 531 
z
" id="DejaVuSans-32" transform="scale(0.015625)"/>
        <path d="M 691 4666 
L 3169 4666 
L 3169 4134 
L 1269 4134 
L 1269 2991 
Q 1406 3038 1543 3061 
Q 1681 3084 1819 3084 
Q 2600 3084 3056 2656 
Q 3513 2228 3513 1497 
Q 3513 744 3044 326 
Q 2575 -91 1722 -91 
Q 1428 -91 1123 -41 
Q 819 9 494 109 
L 494 744 
Q 775 591 1075 516 
Q 1375 441 1709 441 
Q 2250 441 2565 725 
Q 2881 1009 2881 1497 
Q 2881 1984 2565 2268 
Q 2250 2553 1709 2553 
Q 1456 2553 1204 2497 
Q 953 2441 691 2322 
L 691 4666 
z
" id="DejaVuSans-35" transform="scale(0.015625)"/>
       </defs>
       <use xlink:href="#DejaVuSans-32"/>
       <use x="63.623047" xlink:href="#DejaVuSans-35"/>
      </g>
     </g>
    </g>
    <g id="xtick_3">
     <g id="line2d_3">
      <path clip-path="url(#p0446f153b7)" d="M 153.772791 307.584 
L 153.772791 41.472 
" style="fill:none;stroke:#cccccc;stroke-linecap:round;stroke-width:0.8;"/>
     </g>
     <g id="text_3">
      <!-- 50 -->
      <g style="fill:#262626;" transform="translate(147.410291 322.182437)scale(0.1 -0.1)">
       <use xlink:href="#DejaVuSans-35"/>
       <use x="63.623047" xlink:href="#DejaVuSans-30"/>
      </g>
     </g>
    </g>
    <g id="xtick_4">
     <g id="line2d_4">
      <path clip-path="url(#p0446f153b7)" d="M 194.558538 307.584 
L 194.558538 41.472 
" style="fill:none;stroke:#cccccc;stroke-linecap:round;stroke-width:0.8;"/>
     </g>
     <g id="text_4">
      <!-- 75 -->
      <g style="fill:#262626;" transform="translate(188.196038 322.182437)scale(0.1 -0.1)">
       <defs>
        <path d="M 525 4666 
L 3525 4666 
L 3525 4397 
L 1831 0 
L 1172 0 
L 2766 4134 
L 525 4134 
L 525 4666 
z
" id="DejaVuSans-37" transform="scale(0.015625)"/>
       </defs>
       <use xlink:href="#DejaVuSans-37"/>
       <use x="63.623047" xlink:href="#DejaVuSans-35"/>
      </g>
     </g>
    </g>
    <g id="xtick_5">
     <g id="line2d_5">
      <path clip-path="url(#p0446f153b7)" d="M 235.344285 307.584 
L 235.344285 41.472 
" style="fill:none;stroke:#cccccc;stroke-linecap:round;stroke-width:0.8;"/>
     </g>
     <g id="text_5">
      <!-- 100 -->
      <g style="fill:#262626;" transform="translate(225.800535 322.182437)scale(0.1 -0.1)">
       <defs>
        <path d="M 794 531 
L 1825 531 
L 1825 4091 
L 703 3866 
L 703 4441 
L 1819 4666 
L 2450 4666 
L 2450 531 
L 3481 531 
L 3481 0 
L 794 0 
L 794 531 
z
" id="DejaVuSans-31" transform="scale(0.015625)"/>
       </defs>
       <use xlink:href="#DejaVuSans-31"/>
       <use x="63.623047" xlink:href="#DejaVuSans-30"/>
       <use x="127.246094" xlink:href="#DejaVuSans-30"/>
      </g>
     </g>
    </g>
    <g id="xtick_6">
     <g id="line2d_6">
      <path clip-path="url(#p0446f153b7)" d="M 276.130032 307.584 
L 276.130032 41.472 
" style="fill:none;stroke:#cccccc;stroke-linecap:round;stroke-width:0.8;"/>
     </g>
     <g id="text_6">
      <!-- 125 -->
      <g style="fill:#262626;" transform="translate(266.586282 322.182437)scale(0.1 -0.1)">
       <use xlink:href="#DejaVuSans-31"/>
       <use x="63.623047" xlink:href="#DejaVuSans-32"/>
       <use x="127.246094" xlink:href="#DejaVuSans-35"/>
      </g>
     </g>
    </g>
    <g id="xtick_7">
     <g id="line2d_7">
      <path clip-path="url(#p0446f153b7)" d="M 316.915779 307.584 
L 316.915779 41.472 
" style="fill:none;stroke:#cccccc;stroke-linecap:round;stroke-width:0.8;"/>
     </g>
     <g id="text_7">
      <!-- 150 -->
      <g style="fill:#262626;" transform="translate(307.372029 322.182437)scale(0.1 -0.1)">
       <use xlink:href="#DejaVuSans-31"/>
       <use x="63.623047" xlink:href="#DejaVuSans-35"/>
       <use x="127.246094" xlink:href="#DejaVuSans-30"/>
      </g>
     </g>
    </g>
    <g id="xtick_8">
     <g id="line2d_8">
      <path clip-path="url(#p0446f153b7)" d="M 357.701526 307.584 
L 357.701526 41.472 
" style="fill:none;stroke:#cccccc;stroke-linecap:round;stroke-width:0.8;"/>
     </g>
     <g id="text_8">
      <!-- 175 -->
      <g style="fill:#262626;" transform="translate(348.157776 322.182437)scale(0.1 -0.1)">
       <use xlink:href="#DejaVuSans-31"/>
       <use x="63.623047" xlink:href="#DejaVuSans-37"/>
       <use x="127.246094" xlink:href="#DejaVuSans-35"/>
      </g>
     </g>
    </g>
    <g id="xtick_9">
     <g id="line2d_9">
      <path clip-path="url(#p0446f153b7)" d="M 398.487273 307.584 
L 398.487273 41.472 
" style="fill:none;stroke:#cccccc;stroke-linecap:round;stroke-width:0.8;"/>
     </g>
     <g id="text_9">
      <!-- 200 -->
      <g style="fill:#262626;" transform="translate(388.943523 322.182437)scale(0.1 -0.1)">
       <use xlink:href="#DejaVuSans-32"/>
       <use x="63.623047" xlink:href="#DejaVuSans-30"/>
       <use x="127.246094" xlink:href="#DejaVuSans-30"/>
      </g>
     </g>
    </g>
    <g id="text_10">
     <!-- Auroc -->
     <g style="fill:#262626;" transform="translate(221.819375 335.860562)scale(0.1 -0.1)">
      <defs>
       <path d="M 2188 4044 
L 1331 1722 
L 3047 1722 
L 2188 4044 
z
M 1831 4666 
L 2547 4666 
L 4325 0 
L 3669 0 
L 3244 1197 
L 1141 1197 
L 716 0 
L 50 0 
L 1831 4666 
z
" id="DejaVuSans-41" transform="scale(0.015625)"/>
       <path d="M 544 1381 
L 544 3500 
L 1119 3500 
L 1119 1403 
Q 1119 906 1312 657 
Q 1506 409 1894 409 
Q 2359 409 2629 706 
Q 2900 1003 2900 1516 
L 2900 3500 
L 3475 3500 
L 3475 0 
L 2900 0 
L 2900 538 
Q 2691 219 2414 64 
Q 2138 -91 1772 -91 
Q 1169 -91 856 284 
Q 544 659 544 1381 
z
M 1991 3584 
L 1991 3584 
z
" id="DejaVuSans-75" transform="scale(0.015625)"/>
       <path d="M 2631 2963 
Q 2534 3019 2420 3045 
Q 2306 3072 2169 3072 
Q 1681 3072 1420 2755 
Q 1159 2438 1159 1844 
L 1159 0 
L 581 0 
L 581 3500 
L 1159 3500 
L 1159 2956 
Q 1341 3275 1631 3429 
Q 1922 3584 2338 3584 
Q 2397 3584 2469 3576 
Q 2541 3569 2628 3553 
L 2631 2963 
z
" id="DejaVuSans-72" transform="scale(0.015625)"/>
       <path d="M 1959 3097 
Q 1497 3097 1228 2736 
Q 959 2375 959 1747 
Q 959 1119 1226 758 
Q 1494 397 1959 397 
Q 2419 397 2687 759 
Q 2956 1122 2956 1747 
Q 2956 2369 2687 2733 
Q 2419 3097 1959 3097 
z
M 1959 3584 
Q 2709 3584 3137 3096 
Q 3566 2609 3566 1747 
Q 3566 888 3137 398 
Q 2709 -91 1959 -91 
Q 1206 -91 779 398 
Q 353 888 353 1747 
Q 353 2609 779 3096 
Q 1206 3584 1959 3584 
z
" id="DejaVuSans-6f" transform="scale(0.015625)"/>
       <path d="M 3122 3366 
L 3122 2828 
Q 2878 2963 2633 3030 
Q 2388 3097 2138 3097 
Q 1578 3097 1268 2742 
Q 959 2388 959 1747 
Q 959 1106 1268 751 
Q 1578 397 2138 397 
Q 2388 397 2633 464 
Q 2878 531 3122 666 
L 3122 134 
Q 2881 22 2623 -34 
Q 2366 -91 2075 -91 
Q 1284 -91 818 406 
Q 353 903 353 1747 
Q 353 2603 823 3093 
Q 1294 3584 2113 3584 
Q 2378 3584 2631 3529 
Q 2884 3475 3122 3366 
z
" id="DejaVuSans-63" transform="scale(0.015625)"/>
      </defs>
      <use xlink:href="#DejaVuSans-41"/>
      <use x="68.408203" xlink:href="#DejaVuSans-75"/>
      <use x="131.787109" xlink:href="#DejaVuSans-72"/>
      <use x="170.650391" xlink:href="#DejaVuSans-6f"/>
      <use x="231.832031" xlink:href="#DejaVuSans-63"/>
     </g>
    </g>
   </g>
   <g id="matplotlib.axis_2">
    <g id="ytick_1">
     <g id="line2d_10">
      <path clip-path="url(#p0446f153b7)" d="M 57.6 295.895864 
L 414.72 295.895864 
" style="fill:none;stroke:#cccccc;stroke-linecap:round;stroke-width:0.8;"/>
     </g>
     <g id="text_11">
      <!-- 0.40 -->
      <g style="fill:#262626;" transform="translate(28.334375 299.695083)scale(0.1 -0.1)">
       <defs>
        <path d="M 684 794 
L 1344 794 
L 1344 0 
L 684 0 
L 684 794 
z
" id="DejaVuSans-2e" transform="scale(0.015625)"/>
        <path d="M 2419 4116 
L 825 1625 
L 2419 1625 
L 2419 4116 
z
M 2253 4666 
L 3047 4666 
L 3047 1625 
L 3713 1625 
L 3713 1100 
L 3047 1100 
L 3047 0 
L 2419 0 
L 2419 1100 
L 313 1100 
L 313 1709 
L 2253 4666 
z
" id="DejaVuSans-34" transform="scale(0.015625)"/>
       </defs>
       <use xlink:href="#DejaVuSans-30"/>
       <use x="63.623047" xlink:href="#DejaVuSans-2e"/>
       <use x="95.410156" xlink:href="#DejaVuSans-34"/>
       <use x="159.033203" xlink:href="#DejaVuSans-30"/>
      </g>
     </g>
    </g>
    <g id="ytick_2">
     <g id="line2d_11">
      <path clip-path="url(#p0446f153b7)" d="M 57.6 258.451728 
L 414.72 258.451728 
" style="fill:none;stroke:#cccccc;stroke-linecap:round;stroke-width:0.8;"/>
     </g>
     <g id="text_12">
      <!-- 0.45 -->
      <g style="fill:#262626;" transform="translate(28.334375 262.250946)scale(0.1 -0.1)">
       <use xlink:href="#DejaVuSans-30"/>
       <use x="63.623047" xlink:href="#DejaVuSans-2e"/>
       <use x="95.410156" xlink:href="#DejaVuSans-34"/>
       <use x="159.033203" xlink:href="#DejaVuSans-35"/>
      </g>
     </g>
    </g>
    <g id="ytick_3">
     <g id="line2d_12">
      <path clip-path="url(#p0446f153b7)" d="M 57.6 221.007591 
L 414.72 221.007591 
" style="fill:none;stroke:#cccccc;stroke-linecap:round;stroke-width:0.8;"/>
     </g>
     <g id="text_13">
      <!-- 0.50 -->
      <g style="fill:#262626;" transform="translate(28.334375 224.80681)scale(0.1 -0.1)">
       <use xlink:href="#DejaVuSans-30"/>
       <use x="63.623047" xlink:href="#DejaVuSans-2e"/>
       <use x="95.410156" xlink:href="#DejaVuSans-35"/>
       <use x="159.033203" xlink:href="#DejaVuSans-30"/>
      </g>
     </g>
    </g>
    <g id="ytick_4">
     <g id="line2d_13">
      <path clip-path="url(#p0446f153b7)" d="M 57.6 183.563454 
L 414.72 183.563454 
" style="fill:none;stroke:#cccccc;stroke-linecap:round;stroke-width:0.8;"/>
     </g>
     <g id="text_14">
      <!-- 0.55 -->
      <g style="fill:#262626;" transform="translate(28.334375 187.362673)scale(0.1 -0.1)">
       <use xlink:href="#DejaVuSans-30"/>
       <use x="63.623047" xlink:href="#DejaVuSans-2e"/>
       <use x="95.410156" xlink:href="#DejaVuSans-35"/>
       <use x="159.033203" xlink:href="#DejaVuSans-35"/>
      </g>
     </g>
    </g>
    <g id="ytick_5">
     <g id="line2d_14">
      <path clip-path="url(#p0446f153b7)" d="M 57.6 146.119318 
L 414.72 146.119318 
" style="fill:none;stroke:#cccccc;stroke-linecap:round;stroke-width:0.8;"/>
     </g>
     <g id="text_15">
      <!-- 0.60 -->
      <g style="fill:#262626;" transform="translate(28.334375 149.918537)scale(0.1 -0.1)">
       <defs>
        <path d="M 2113 2584 
Q 1688 2584 1439 2293 
Q 1191 2003 1191 1497 
Q 1191 994 1439 701 
Q 1688 409 2113 409 
Q 2538 409 2786 701 
Q 3034 994 3034 1497 
Q 3034 2003 2786 2293 
Q 2538 2584 2113 2584 
z
M 3366 4563 
L 3366 3988 
Q 3128 4100 2886 4159 
Q 2644 4219 2406 4219 
Q 1781 4219 1451 3797 
Q 1122 3375 1075 2522 
Q 1259 2794 1537 2939 
Q 1816 3084 2150 3084 
Q 2853 3084 3261 2657 
Q 3669 2231 3669 1497 
Q 3669 778 3244 343 
Q 2819 -91 2113 -91 
Q 1303 -91 875 529 
Q 447 1150 447 2328 
Q 447 3434 972 4092 
Q 1497 4750 2381 4750 
Q 2619 4750 2861 4703 
Q 3103 4656 3366 4563 
z
" id="DejaVuSans-36" transform="scale(0.015625)"/>
       </defs>
       <use xlink:href="#DejaVuSans-30"/>
       <use x="63.623047" xlink:href="#DejaVuSans-2e"/>
       <use x="95.410156" xlink:href="#DejaVuSans-36"/>
       <use x="159.033203" xlink:href="#DejaVuSans-30"/>
      </g>
     </g>
    </g>
    <g id="ytick_6">
     <g id="line2d_15">
      <path clip-path="url(#p0446f153b7)" d="M 57.6 108.675181 
L 414.72 108.675181 
" style="fill:none;stroke:#cccccc;stroke-linecap:round;stroke-width:0.8;"/>
     </g>
     <g id="text_16">
      <!-- 0.65 -->
      <g style="fill:#262626;" transform="translate(28.334375 112.4744)scale(0.1 -0.1)">
       <use xlink:href="#DejaVuSans-30"/>
       <use x="63.623047" xlink:href="#DejaVuSans-2e"/>
       <use x="95.410156" xlink:href="#DejaVuSans-36"/>
       <use x="159.033203" xlink:href="#DejaVuSans-35"/>
      </g>
     </g>
    </g>
    <g id="ytick_7">
     <g id="line2d_16">
      <path clip-path="url(#p0446f153b7)" d="M 57.6 71.231045 
L 414.72 71.231045 
" style="fill:none;stroke:#cccccc;stroke-linecap:round;stroke-width:0.8;"/>
     </g>
     <g id="text_17">
      <!-- 0.70 -->
      <g style="fill:#262626;" transform="translate(28.334375 75.030263)scale(0.1 -0.1)">
       <use xlink:href="#DejaVuSans-30"/>
       <use x="63.623047" xlink:href="#DejaVuSans-2e"/>
       <use x="95.410156" xlink:href="#DejaVuSans-37"/>
       <use x="159.033203" xlink:href="#DejaVuSans-30"/>
      </g>
     </g>
    </g>
    <g id="text_18">
     <!-- Iteration -->
     <g style="fill:#262626;" transform="translate(22.254687 195.736594)rotate(-90)scale(0.1 -0.1)">
      <defs>
       <path d="M 628 4666 
L 1259 4666 
L 1259 0 
L 628 0 
L 628 4666 
z
" id="DejaVuSans-49" transform="scale(0.015625)"/>
       <path d="M 1172 4494 
L 1172 3500 
L 2356 3500 
L 2356 3053 
L 1172 3053 
L 1172 1153 
Q 1172 725 1289 603 
Q 1406 481 1766 481 
L 2356 481 
L 2356 0 
L 1766 0 
Q 1100 0 847 248 
Q 594 497 594 1153 
L 594 3053 
L 172 3053 
L 172 3500 
L 594 3500 
L 594 4494 
L 1172 4494 
z
" id="DejaVuSans-74" transform="scale(0.015625)"/>
       <path d="M 3597 1894 
L 3597 1613 
L 953 1613 
Q 991 1019 1311 708 
Q 1631 397 2203 397 
Q 2534 397 2845 478 
Q 3156 559 3463 722 
L 3463 178 
Q 3153 47 2828 -22 
Q 2503 -91 2169 -91 
Q 1331 -91 842 396 
Q 353 884 353 1716 
Q 353 2575 817 3079 
Q 1281 3584 2069 3584 
Q 2775 3584 3186 3129 
Q 3597 2675 3597 1894 
z
M 3022 2063 
Q 3016 2534 2758 2815 
Q 2500 3097 2075 3097 
Q 1594 3097 1305 2825 
Q 1016 2553 972 2059 
L 3022 2063 
z
" id="DejaVuSans-65" transform="scale(0.015625)"/>
       <path d="M 2194 1759 
Q 1497 1759 1228 1600 
Q 959 1441 959 1056 
Q 959 750 1161 570 
Q 1363 391 1709 391 
Q 2188 391 2477 730 
Q 2766 1069 2766 1631 
L 2766 1759 
L 2194 1759 
z
M 3341 1997 
L 3341 0 
L 2766 0 
L 2766 531 
Q 2569 213 2275 61 
Q 1981 -91 1556 -91 
Q 1019 -91 701 211 
Q 384 513 384 1019 
Q 384 1609 779 1909 
Q 1175 2209 1959 2209 
L 2766 2209 
L 2766 2266 
Q 2766 2663 2505 2880 
Q 2244 3097 1772 3097 
Q 1472 3097 1187 3025 
Q 903 2953 641 2809 
L 641 3341 
Q 956 3463 1253 3523 
Q 1550 3584 1831 3584 
Q 2591 3584 2966 3190 
Q 3341 2797 3341 1997 
z
" id="DejaVuSans-61" transform="scale(0.015625)"/>
       <path d="M 603 3500 
L 1178 3500 
L 1178 0 
L 603 0 
L 603 3500 
z
M 603 4863 
L 1178 4863 
L 1178 4134 
L 603 4134 
L 603 4863 
z
" id="DejaVuSans-69" transform="scale(0.015625)"/>
       <path d="M 3513 2113 
L 3513 0 
L 2938 0 
L 2938 2094 
Q 2938 2591 2744 2837 
Q 2550 3084 2163 3084 
Q 1697 3084 1428 2787 
Q 1159 2491 1159 1978 
L 1159 0 
L 581 0 
L 581 3500 
L 1159 3500 
L 1159 2956 
Q 1366 3272 1645 3428 
Q 1925 3584 2291 3584 
Q 2894 3584 3203 3211 
Q 3513 2838 3513 2113 
z
" id="DejaVuSans-6e" transform="scale(0.015625)"/>
      </defs>
      <use xlink:href="#DejaVuSans-49"/>
      <use x="29.492188" xlink:href="#DejaVuSans-74"/>
      <use x="68.701172" xlink:href="#DejaVuSans-65"/>
      <use x="130.224609" xlink:href="#DejaVuSans-72"/>
      <use x="171.337891" xlink:href="#DejaVuSans-61"/>
      <use x="232.617188" xlink:href="#DejaVuSans-74"/>
      <use x="271.826172" xlink:href="#DejaVuSans-69"/>
      <use x="299.609375" xlink:href="#DejaVuSans-6f"/>
      <use x="360.791016" xlink:href="#DejaVuSans-6e"/>
     </g>
    </g>
   </g>
   <g id="PolyCollection_1">
    <defs>
     <path d="M 73.832727 -247.237852 
L 73.832727 -139.035837 
L 75.464157 -147.41488 
L 77.095587 -152.059599 
L 78.727017 -112.625607 
L 80.358447 -159.284556 
L 81.989877 -148.902792 
L 83.621307 -132.237879 
L 85.252736 -179.323826 
L 86.884166 -185.176297 
L 88.515596 -130.242224 
L 90.147026 -175.632567 
L 91.778456 -146.238891 
L 93.409886 -177.700551 
L 95.041316 -201.478788 
L 96.672746 -170.08559 
L 98.304175 -96.588811 
L 99.935605 -123.355502 
L 101.567035 -187.505699 
L 103.198465 -156.66835 
L 104.829895 -155.041274 
L 106.461325 -169.360757 
L 108.092755 -147.658801 
L 109.724185 -155.323494 
L 111.355614 -153.430924 
L 112.987044 -164.776611 
L 114.618474 -163.281295 
L 116.249904 -146.547722 
L 117.881334 -138.316286 
L 119.512764 -140.446569 
L 121.144194 -166.850215 
L 122.775624 -158.218422 
L 124.407053 -195.912143 
L 126.038483 -154.321712 
L 127.669913 -173.155073 
L 129.301343 -176.746244 
L 130.932773 -164.843684 
L 132.564203 -72.354283 
L 134.195633 -170.650564 
L 135.827063 -156.664173 
L 137.458492 -120.76614 
L 139.089922 -141.292607 
L 140.721352 -143.514819 
L 142.352782 -188.591647 
L 143.984212 -167.000645 
L 145.615642 -183.521996 
L 147.247072 -145.213084 
L 148.878502 -158.098376 
L 150.509931 -149.758048 
L 152.141361 -171.192475 
L 153.772791 -181.989828 
L 155.404221 -140.788406 
L 157.035651 -169.346385 
L 158.667081 -134.099221 
L 160.298511 -210.569131 
L 161.929941 -157.141009 
L 163.56137 -182.066497 
L 165.1928 -146.000353 
L 166.82423 -189.999818 
L 168.45566 -150.492173 
L 170.08709 -154.418227 
L 171.71852 -154.291765 
L 173.34995 -172.696201 
L 174.98138 -148.974617 
L 176.61281 -142.180739 
L 178.244239 -150.092587 
L 179.875669 -169.843864 
L 181.507099 -165.97368 
L 183.138529 -190.713332 
L 184.769959 -155.524152 
L 186.401389 -197.337943 
L 188.032819 -145.997027 
L 189.664249 -160.106421 
L 191.295678 -156.477405 
L 192.927108 -164.135663 
L 194.558538 -161.410426 
L 196.189968 -169.678392 
L 197.821398 -148.993116 
L 199.452828 -149.851582 
L 201.084258 -192.38339 
L 202.715688 -156.749714 
L 204.347117 -169.021635 
L 205.978547 -200.259055 
L 207.609977 -177.993663 
L 209.241407 -169.976457 
L 210.872837 -143.141381 
L 212.504267 -168.494966 
L 214.135697 -185.365448 
L 215.767127 -160.72546 
L 217.398556 -164.749363 
L 219.029986 -159.671653 
L 220.661416 -167.862527 
L 222.292846 -170.744554 
L 223.924276 -108.482449 
L 225.555706 -155.367988 
L 227.187136 -182.066764 
L 228.818566 -121.436699 
L 230.449995 -184.172389 
L 232.081425 -184.851698 
L 233.712855 -128.644934 
L 235.344285 -142.550703 
L 236.975715 -184.825251 
L 238.607145 -183.509992 
L 240.238575 -191.459689 
L 241.870005 -168.185395 
L 243.501434 -169.175325 
L 245.132864 -162.959317 
L 246.764294 -114.378396 
L 248.395724 -189.727108 
L 250.027154 -149.709722 
L 251.658584 -131.064554 
L 253.290014 -182.846364 
L 254.921444 -187.100616 
L 256.552873 -177.699154 
L 258.184303 -145.311867 
L 259.815733 -171.831267 
L 261.447163 -216.143275 
L 263.078593 -192.168834 
L 264.710023 -213.457461 
L 266.341453 -141.693134 
L 267.972883 -158.492644 
L 269.604312 -177.893651 
L 271.235742 -105.703206 
L 272.867172 -148.23141 
L 274.498602 -153.962783 
L 276.130032 -149.840796 
L 277.761462 -194.458443 
L 279.392892 -196.393697 
L 281.024322 -183.598422 
L 282.655751 -149.826447 
L 284.287181 -204.762697 
L 285.918611 -195.869835 
L 287.550041 -184.84159 
L 289.181471 -170.418966 
L 290.812901 -168.11452 
L 292.444331 -126.300057 
L 294.075761 -169.287799 
L 295.70719 -161.469975 
L 297.33862 -156.20944 
L 298.97005 -155.251487 
L 300.60148 -189.192252 
L 302.23291 -183.789859 
L 303.86434 -160.472012 
L 305.49577 -166.793738 
L 307.1272 -165.964913 
L 308.75863 -204.316121 
L 310.390059 -161.858958 
L 312.021489 -199.630836 
L 313.652919 -158.916981 
L 315.284349 -172.559123 
L 316.915779 -150.122706 
L 318.547209 -157.54223 
L 320.178639 -163.356449 
L 321.810069 -166.867107 
L 323.441498 -179.276104 
L 325.072928 -194.989648 
L 326.704358 -155.225471 
L 328.335788 -151.75315 
L 329.967218 -205.96231 
L 331.598648 -168.127525 
L 333.230078 -175.821169 
L 334.861508 -177.044724 
L 336.492937 -146.729867 
L 338.124367 -182.85013 
L 339.755797 -157.038813 
L 341.387227 -168.718077 
L 343.018657 -171.043012 
L 344.650087 -178.327752 
L 346.281517 -154.329994 
L 347.912947 -172.018403 
L 349.544376 -201.617629 
L 351.175806 -175.613088 
L 352.807236 -164.518672 
L 354.438666 -161.706132 
L 356.070096 -185.561176 
L 357.701526 -182.137692 
L 359.332956 -166.012691 
L 360.964386 -152.516757 
L 362.595815 -128.43532 
L 364.227245 -207.758233 
L 365.858675 -152.325275 
L 367.490105 -178.78656 
L 369.121535 -189.838264 
L 370.752965 -187.862533 
L 372.384395 -184.267473 
L 374.015825 -159.223792 
L 375.647254 -168.170974 
L 377.278684 -139.880273 
L 378.910114 -167.666256 
L 380.541544 -171.625768 
L 382.172974 -167.427894 
L 383.804404 -196.758489 
L 385.435834 -189.484466 
L 387.067264 -50.112 
L 388.698693 -170.630826 
L 390.330123 -169.986047 
L 391.961553 -150.571343 
L 393.592983 -164.760787 
L 395.224413 -186.994634 
L 396.855843 -119.435242 
L 398.487273 -189.021605 
L 398.487273 -236.191579 
L 398.487273 -236.191579 
L 396.855843 -235.902938 
L 395.224413 -258.072477 
L 393.592983 -251.416345 
L 391.961553 -248.205463 
L 390.330123 -245.783161 
L 388.698693 -226.862754 
L 387.067264 -237.702357 
L 385.435834 -258.186665 
L 383.804404 -255.455834 
L 382.172974 -245.495253 
L 380.541544 -250.972892 
L 378.910114 -244.217822 
L 377.278684 -239.603575 
L 375.647254 -277.132269 
L 374.015825 -237.080812 
L 372.384395 -251.89358 
L 370.752965 -255.95148 
L 369.121535 -268.870899 
L 367.490105 -258.508321 
L 365.858675 -236.992966 
L 364.227245 -244.641232 
L 362.595815 -248.248935 
L 360.964386 -220.30593 
L 359.332956 -243.060997 
L 357.701526 -255.366623 
L 356.070096 -292.032 
L 354.438666 -220.268084 
L 352.807236 -246.543867 
L 351.175806 -240.307559 
L 349.544376 -264.442271 
L 347.912947 -270.729842 
L 346.281517 -259.993023 
L 344.650087 -244.657167 
L 343.018657 -237.832112 
L 341.387227 -207.727566 
L 339.755797 -237.919173 
L 338.124367 -229.496802 
L 336.492937 -265.076522 
L 334.861508 -261.690805 
L 333.230078 -261.821163 
L 331.598648 -252.727462 
L 329.967218 -287.34668 
L 328.335788 -219.047568 
L 326.704358 -250.063099 
L 325.072928 -245.731011 
L 323.441498 -253.509287 
L 321.810069 -269.704716 
L 320.178639 -252.23659 
L 318.547209 -226.18018 
L 316.915779 -220.788018 
L 315.284349 -255.159382 
L 313.652919 -237.98025 
L 312.021489 -248.415392 
L 310.390059 -231.14067 
L 308.75863 -263.916896 
L 307.1272 -261.486165 
L 305.49577 -251.633544 
L 303.86434 -237.776141 
L 302.23291 -284.84036 
L 300.60148 -235.736435 
L 298.97005 -238.134692 
L 297.33862 -242.959169 
L 295.70719 -208.279273 
L 294.075761 -222.472518 
L 292.444331 -206.881377 
L 290.812901 -249.040186 
L 289.181471 -255.270641 
L 287.550041 -246.608636 
L 285.918611 -244.516869 
L 284.287181 -252.826644 
L 282.655751 -227.330802 
L 281.024322 -248.140896 
L 279.392892 -249.046104 
L 277.761462 -247.603508 
L 276.130032 -250.952435 
L 274.498602 -211.047772 
L 272.867172 -240.107287 
L 271.235742 -249.686986 
L 269.604312 -244.1819 
L 267.972883 -233.925297 
L 266.341453 -221.949795 
L 264.710023 -234.617655 
L 263.078593 -269.51135 
L 261.447163 -253.201468 
L 259.815733 -244.215872 
L 258.184303 -263.478857 
L 256.552873 -242.678317 
L 254.921444 -248.969945 
L 253.290014 -262.954748 
L 251.658584 -233.843874 
L 250.027154 -228.771093 
L 248.395724 -264.083461 
L 246.764294 -256.847171 
L 245.132864 -268.135507 
L 243.501434 -290.788468 
L 241.870005 -236.626972 
L 240.238575 -282.096261 
L 238.607145 -248.289289 
L 236.975715 -265.031909 
L 235.344285 -221.360017 
L 233.712855 -221.352878 
L 232.081425 -270.441755 
L 230.449995 -236.35229 
L 228.818566 -208.323991 
L 227.187136 -244.935028 
L 225.555706 -243.657279 
L 223.924276 -245.653184 
L 222.292846 -266.794338 
L 220.661416 -213.599448 
L 219.029986 -250.699559 
L 217.398556 -258.477815 
L 215.767127 -245.900901 
L 214.135697 -254.582255 
L 212.504267 -242.658174 
L 210.872837 -229.755494 
L 209.241407 -221.563995 
L 207.609977 -254.907934 
L 205.978547 -255.220415 
L 204.347117 -227.304853 
L 202.715688 -257.495468 
L 201.084258 -258.174287 
L 199.452828 -244.671416 
L 197.821398 -227.076554 
L 196.189968 -247.067078 
L 194.558538 -270.366534 
L 192.927108 -236.812363 
L 191.295678 -232.951351 
L 189.664249 -234.684441 
L 188.032819 -241.691923 
L 186.401389 -258.463665 
L 184.769959 -265.605192 
L 183.138529 -237.345256 
L 181.507099 -238.639977 
L 179.875669 -259.758009 
L 178.244239 -239.6559 
L 176.61281 -243.559628 
L 174.98138 -242.860325 
L 173.34995 -229.214737 
L 171.71852 -230.93235 
L 170.08709 -227.015517 
L 168.45566 -217.434327 
L 166.82423 -243.151916 
L 165.1928 -220.333111 
L 163.56137 -251.265783 
L 161.929941 -249.743368 
L 160.298511 -237.783479 
L 158.667081 -237.324399 
L 157.035651 -245.856456 
L 155.404221 -221.16454 
L 153.772791 -241.935243 
L 152.141361 -274.913924 
L 150.509931 -244.900268 
L 148.878502 -250.872675 
L 147.247072 -264.718471 
L 145.615642 -250.47929 
L 143.984212 -249.317422 
L 142.352782 -245.920639 
L 140.721352 -225.404137 
L 139.089922 -219.856745 
L 137.458492 -268.138268 
L 135.827063 -244.051223 
L 134.195633 -225.244801 
L 132.564203 -241.030707 
L 130.932773 -254.506461 
L 129.301343 -227.721006 
L 127.669913 -253.292169 
L 126.038483 -234.756458 
L 124.407053 -247.81674 
L 122.775624 -240.624767 
L 121.144194 -255.551485 
L 119.512764 -235.384232 
L 117.881334 -261.263093 
L 116.249904 -234.876831 
L 114.618474 -224.257747 
L 112.987044 -264.485836 
L 111.355614 -241.553834 
L 109.724185 -242.152141 
L 108.092755 -228.927339 
L 106.461325 -248.519197 
L 104.829895 -238.737875 
L 103.198465 -257.111351 
L 101.567035 -247.844101 
L 99.935605 -245.494299 
L 98.304175 -211.153078 
L 96.672746 -250.582651 
L 95.041316 -273.7163 
L 93.409886 -251.634552 
L 91.778456 -255.485155 
L 90.147026 -268.849138 
L 88.515596 -258.583837 
L 86.884166 -264.687209 
L 85.252736 -245.296949 
L 83.621307 -222.381399 
L 81.989877 -242.850741 
L 80.358447 -268.333062 
L 78.727017 -217.196067 
L 77.095587 -218.34618 
L 75.464157 -224.910376 
L 73.832727 -247.237852 
z
" id="mac96f1067d" style="stroke:#ffffff;stroke-opacity:0.2;"/>
    </defs>
    <g clip-path="url(#p0446f153b7)">
     <use style="fill:#1f77b4;fill-opacity:0.2;stroke:#ffffff;stroke-opacity:0.2;" x="0" xlink:href="#mac96f1067d" y="345.6"/>
    </g>
   </g>
   <g id="LineCollection_1">
    <path clip-path="url(#p0446f153b7)" d="M 398.487273 295.488 
L 398.487273 53.568 
" style="fill:none;stroke:#1f77b4;stroke-dasharray:5.55,2.4;stroke-dashoffset:0;stroke-width:1.5;"/>
   </g>
   <g id="line2d_17">
    <path clip-path="url(#p0446f153b7)" d="M 73.832727 152.463156 
L 75.464157 159.437372 
L 77.095587 160.397111 
L 78.727017 180.689163 
L 80.358447 131.791191 
L 83.621307 168.290361 
L 85.252736 133.289613 
L 86.884166 120.668247 
L 88.515596 151.186969 
L 90.147026 123.359148 
L 91.778456 144.737977 
L 93.409886 130.932449 
L 95.041316 108.002456 
L 96.672746 135.26588 
L 98.304175 191.729056 
L 99.935605 161.1751 
L 101.567035 127.9251 
L 103.198465 138.71015 
L 104.829895 148.710426 
L 106.461325 136.660023 
L 108.092755 157.30693 
L 109.724185 146.862182 
L 111.355614 148.107621 
L 112.987044 130.968777 
L 114.618474 151.830479 
L 116.249904 154.887724 
L 117.881334 145.810311 
L 119.512764 157.684599 
L 121.144194 134.39915 
L 122.775624 146.178406 
L 124.407053 123.735559 
L 126.038483 151.060915 
L 127.669913 132.376379 
L 129.301343 143.366375 
L 130.932773 135.924927 
L 132.564203 188.907505 
L 134.195633 147.652317 
L 135.827063 145.242302 
L 137.458492 151.147796 
L 139.089922 165.025324 
L 140.721352 161.140522 
L 142.352782 128.343857 
L 143.984212 137.440966 
L 145.615642 128.599357 
L 147.247072 140.634222 
L 148.878502 141.114475 
L 150.509931 148.270842 
L 152.141361 122.5468 
L 153.772791 133.637465 
L 155.404221 164.623527 
L 157.035651 137.99858 
L 158.667081 159.88819 
L 160.298511 121.423695 
L 161.929941 142.157811 
L 163.56137 128.93386 
L 165.1928 162.433268 
L 166.82423 129.024133 
L 168.45566 161.63675 
L 170.08709 154.883128 
L 171.71852 152.987942 
L 173.34995 144.644531 
L 174.98138 149.682529 
L 176.61281 152.729816 
L 178.244239 150.725756 
L 179.875669 130.799064 
L 181.507099 143.293172 
L 183.138529 131.570706 
L 184.769959 135.035328 
L 186.401389 117.699196 
L 188.032819 151.755525 
L 189.664249 148.204569 
L 191.295678 150.885622 
L 192.927108 145.125987 
L 194.558538 129.71152 
L 196.189968 137.227265 
L 197.821398 157.565165 
L 199.452828 148.338501 
L 201.084258 120.321161 
L 202.715688 138.477409 
L 204.347117 147.436756 
L 205.978547 117.860265 
L 207.609977 129.149202 
L 209.241407 149.829774 
L 210.872837 159.151562 
L 212.504267 140.02343 
L 214.135697 125.626148 
L 215.767127 142.28682 
L 217.398556 133.986411 
L 219.029986 140.414394 
L 220.661416 154.869012 
L 222.292846 126.830554 
L 223.924276 168.532183 
L 225.555706 146.087367 
L 227.187136 132.099104 
L 228.818566 180.719655 
L 230.449995 135.337661 
L 232.081425 117.953274 
L 233.712855 170.601094 
L 235.344285 163.64464 
L 236.975715 120.67142 
L 238.607145 129.700359 
L 240.238575 108.822025 
L 241.870005 143.193817 
L 243.501434 115.618103 
L 245.132864 130.052588 
L 246.764294 159.987217 
L 248.395724 118.694716 
L 250.027154 156.359593 
L 251.658584 163.145786 
L 253.290014 122.699444 
L 254.921444 127.56472 
L 256.552873 135.411265 
L 258.184303 141.204638 
L 259.815733 137.57643 
L 261.447163 110.927629 
L 263.078593 114.759908 
L 264.710023 121.562442 
L 266.341453 163.778536 
L 269.604312 134.562225 
L 271.235742 167.904904 
L 272.867172 151.430651 
L 274.498602 163.094723 
L 276.130032 145.203384 
L 277.761462 124.569024 
L 279.392892 122.880099 
L 281.024322 129.730341 
L 282.655751 157.021375 
L 284.287181 116.80533 
L 285.918611 125.406648 
L 287.550041 129.874887 
L 289.181471 132.755197 
L 290.812901 137.022647 
L 292.444331 179.009283 
L 294.075761 149.719842 
L 295.70719 160.725376 
L 297.33862 146.015695 
L 298.97005 148.906911 
L 300.60148 133.135656 
L 302.23291 111.284891 
L 303.86434 146.475923 
L 305.49577 136.386359 
L 307.1272 131.874461 
L 308.75863 111.483491 
L 310.390059 149.100186 
L 312.021489 121.576886 
L 313.652919 147.151384 
L 315.284349 131.740747 
L 316.915779 160.144638 
L 318.547209 153.738795 
L 320.178639 137.803481 
L 321.810069 127.314089 
L 323.441498 129.207305 
L 325.072928 125.239671 
L 328.335788 160.199641 
L 329.967218 98.945505 
L 331.598648 135.172507 
L 333.230078 126.778834 
L 334.861508 126.232236 
L 336.492937 139.696806 
L 338.124367 139.426534 
L 341.387227 157.377179 
L 343.018657 141.162438 
L 344.650087 134.107541 
L 346.281517 138.438492 
L 347.912947 124.225878 
L 349.544376 112.57005 
L 351.175806 137.639676 
L 352.807236 140.06873 
L 354.438666 154.612892 
L 356.070096 106.803412 
L 357.701526 126.847843 
L 359.332956 141.063156 
L 360.964386 159.188656 
L 362.595815 157.257872 
L 364.227245 119.400267 
L 365.858675 150.94088 
L 367.490105 126.952559 
L 369.121535 116.245418 
L 370.752965 123.692994 
L 372.384395 127.519474 
L 374.015825 147.447698 
L 375.647254 122.948378 
L 377.278684 155.858076 
L 378.910114 139.657961 
L 380.541544 134.30067 
L 382.172974 139.138426 
L 383.804404 119.492838 
L 385.435834 121.764435 
L 387.067264 201.692821 
L 388.698693 146.85321 
L 390.330123 137.715396 
L 391.961553 146.211597 
L 393.592983 137.511434 
L 395.224413 123.066444 
L 396.855843 167.93091 
L 398.487273 132.993408 
L 398.487273 132.993408 
" style="fill:none;stroke:#1f77b4;stroke-linecap:round;stroke-width:1.5;"/>
   </g>
   <g id="patch_3">
    <path d="M 57.6 307.584 
L 57.6 41.472 
" style="fill:none;stroke:#cccccc;stroke-linecap:square;stroke-linejoin:miter;stroke-width:0.8;"/>
   </g>
   <g id="patch_4">
    <path d="M 414.72 307.584 
L 414.72 41.472 
" style="fill:none;stroke:#cccccc;stroke-linecap:square;stroke-linejoin:miter;stroke-width:0.8;"/>
   </g>
   <g id="patch_5">
    <path d="M 57.6 307.584 
L 414.72 307.584 
" style="fill:none;stroke:#cccccc;stroke-linecap:square;stroke-linejoin:miter;stroke-width:0.8;"/>
   </g>
   <g id="patch_6">
    <path d="M 57.6 41.472 
L 414.72 41.472 
" style="fill:none;stroke:#cccccc;stroke-linecap:square;stroke-linejoin:miter;stroke-width:0.8;"/>
   </g>
   <g id="text_19">
    <!-- Model performance vs. # of iterations -->
    <g style="fill:#262626;" transform="translate(122.314688 35.472)scale(0.12 -0.12)">
     <defs>
      <path d="M 628 4666 
L 1569 4666 
L 2759 1491 
L 3956 4666 
L 4897 4666 
L 4897 0 
L 4281 0 
L 4281 4097 
L 3078 897 
L 2444 897 
L 1241 4097 
L 1241 0 
L 628 0 
L 628 4666 
z
" id="DejaVuSans-4d" transform="scale(0.015625)"/>
      <path d="M 2906 2969 
L 2906 4863 
L 3481 4863 
L 3481 0 
L 2906 0 
L 2906 525 
Q 2725 213 2448 61 
Q 2172 -91 1784 -91 
Q 1150 -91 751 415 
Q 353 922 353 1747 
Q 353 2572 751 3078 
Q 1150 3584 1784 3584 
Q 2172 3584 2448 3432 
Q 2725 3281 2906 2969 
z
M 947 1747 
Q 947 1113 1208 752 
Q 1469 391 1925 391 
Q 2381 391 2643 752 
Q 2906 1113 2906 1747 
Q 2906 2381 2643 2742 
Q 2381 3103 1925 3103 
Q 1469 3103 1208 2742 
Q 947 2381 947 1747 
z
" id="DejaVuSans-64" transform="scale(0.015625)"/>
      <path d="M 603 4863 
L 1178 4863 
L 1178 0 
L 603 0 
L 603 4863 
z
" id="DejaVuSans-6c" transform="scale(0.015625)"/>
      <path id="DejaVuSans-20" transform="scale(0.015625)"/>
      <path d="M 1159 525 
L 1159 -1331 
L 581 -1331 
L 581 3500 
L 1159 3500 
L 1159 2969 
Q 1341 3281 1617 3432 
Q 1894 3584 2278 3584 
Q 2916 3584 3314 3078 
Q 3713 2572 3713 1747 
Q 3713 922 3314 415 
Q 2916 -91 2278 -91 
Q 1894 -91 1617 61 
Q 1341 213 1159 525 
z
M 3116 1747 
Q 3116 2381 2855 2742 
Q 2594 3103 2138 3103 
Q 1681 3103 1420 2742 
Q 1159 2381 1159 1747 
Q 1159 1113 1420 752 
Q 1681 391 2138 391 
Q 2594 391 2855 752 
Q 3116 1113 3116 1747 
z
" id="DejaVuSans-70" transform="scale(0.015625)"/>
      <path d="M 2375 4863 
L 2375 4384 
L 1825 4384 
Q 1516 4384 1395 4259 
Q 1275 4134 1275 3809 
L 1275 3500 
L 2222 3500 
L 2222 3053 
L 1275 3053 
L 1275 0 
L 697 0 
L 697 3053 
L 147 3053 
L 147 3500 
L 697 3500 
L 697 3744 
Q 697 4328 969 4595 
Q 1241 4863 1831 4863 
L 2375 4863 
z
" id="DejaVuSans-66" transform="scale(0.015625)"/>
      <path d="M 3328 2828 
Q 3544 3216 3844 3400 
Q 4144 3584 4550 3584 
Q 5097 3584 5394 3201 
Q 5691 2819 5691 2113 
L 5691 0 
L 5113 0 
L 5113 2094 
Q 5113 2597 4934 2840 
Q 4756 3084 4391 3084 
Q 3944 3084 3684 2787 
Q 3425 2491 3425 1978 
L 3425 0 
L 2847 0 
L 2847 2094 
Q 2847 2600 2669 2842 
Q 2491 3084 2119 3084 
Q 1678 3084 1418 2786 
Q 1159 2488 1159 1978 
L 1159 0 
L 581 0 
L 581 3500 
L 1159 3500 
L 1159 2956 
Q 1356 3278 1631 3431 
Q 1906 3584 2284 3584 
Q 2666 3584 2933 3390 
Q 3200 3197 3328 2828 
z
" id="DejaVuSans-6d" transform="scale(0.015625)"/>
      <path d="M 191 3500 
L 800 3500 
L 1894 563 
L 2988 3500 
L 3597 3500 
L 2284 0 
L 1503 0 
L 191 3500 
z
" id="DejaVuSans-76" transform="scale(0.015625)"/>
      <path d="M 2834 3397 
L 2834 2853 
Q 2591 2978 2328 3040 
Q 2066 3103 1784 3103 
Q 1356 3103 1142 2972 
Q 928 2841 928 2578 
Q 928 2378 1081 2264 
Q 1234 2150 1697 2047 
L 1894 2003 
Q 2506 1872 2764 1633 
Q 3022 1394 3022 966 
Q 3022 478 2636 193 
Q 2250 -91 1575 -91 
Q 1294 -91 989 -36 
Q 684 19 347 128 
L 347 722 
Q 666 556 975 473 
Q 1284 391 1588 391 
Q 1994 391 2212 530 
Q 2431 669 2431 922 
Q 2431 1156 2273 1281 
Q 2116 1406 1581 1522 
L 1381 1569 
Q 847 1681 609 1914 
Q 372 2147 372 2553 
Q 372 3047 722 3315 
Q 1072 3584 1716 3584 
Q 2034 3584 2315 3537 
Q 2597 3491 2834 3397 
z
" id="DejaVuSans-73" transform="scale(0.015625)"/>
      <path d="M 3272 2816 
L 2363 2816 
L 2100 1772 
L 3016 1772 
L 3272 2816 
z
M 2803 4594 
L 2478 3297 
L 3391 3297 
L 3719 4594 
L 4219 4594 
L 3897 3297 
L 4872 3297 
L 4872 2816 
L 3775 2816 
L 3519 1772 
L 4513 1772 
L 4513 1294 
L 3397 1294 
L 3072 0 
L 2572 0 
L 2894 1294 
L 1978 1294 
L 1656 0 
L 1153 0 
L 1478 1294 
L 494 1294 
L 494 1772 
L 1594 1772 
L 1856 2816 
L 850 2816 
L 850 3297 
L 1978 3297 
L 2297 4594 
L 2803 4594 
z
" id="DejaVuSans-23" transform="scale(0.015625)"/>
     </defs>
     <use xlink:href="#DejaVuSans-4d"/>
     <use x="86.279297" xlink:href="#DejaVuSans-6f"/>
     <use x="147.460938" xlink:href="#DejaVuSans-64"/>
     <use x="210.9375" xlink:href="#DejaVuSans-65"/>
     <use x="272.460938" xlink:href="#DejaVuSans-6c"/>
     <use x="300.244141" xlink:href="#DejaVuSans-20"/>
     <use x="332.03125" xlink:href="#DejaVuSans-70"/>
     <use x="395.507812" xlink:href="#DejaVuSans-65"/>
     <use x="457.03125" xlink:href="#DejaVuSans-72"/>
     <use x="498.144531" xlink:href="#DejaVuSans-66"/>
     <use x="533.349609" xlink:href="#DejaVuSans-6f"/>
     <use x="594.53125" xlink:href="#DejaVuSans-72"/>
     <use x="633.894531" xlink:href="#DejaVuSans-6d"/>
     <use x="731.306641" xlink:href="#DejaVuSans-61"/>
     <use x="792.585938" xlink:href="#DejaVuSans-6e"/>
     <use x="855.964844" xlink:href="#DejaVuSans-63"/>
     <use x="910.945312" xlink:href="#DejaVuSans-65"/>
     <use x="972.46875" xlink:href="#DejaVuSans-20"/>
     <use x="1004.255859" xlink:href="#DejaVuSans-76"/>
     <use x="1063.435547" xlink:href="#DejaVuSans-73"/>
     <use x="1115.535156" xlink:href="#DejaVuSans-2e"/>
     <use x="1147.322266" xlink:href="#DejaVuSans-20"/>
     <use x="1179.109375" xlink:href="#DejaVuSans-23"/>
     <use x="1262.898438" xlink:href="#DejaVuSans-20"/>
     <use x="1294.685547" xlink:href="#DejaVuSans-6f"/>
     <use x="1355.867188" xlink:href="#DejaVuSans-66"/>
     <use x="1391.072266" xlink:href="#DejaVuSans-20"/>
     <use x="1422.859375" xlink:href="#DejaVuSans-69"/>
     <use x="1450.642578" xlink:href="#DejaVuSans-74"/>
     <use x="1489.851562" xlink:href="#DejaVuSans-65"/>
     <use x="1551.375" xlink:href="#DejaVuSans-72"/>
     <use x="1592.488281" xlink:href="#DejaVuSans-61"/>
     <use x="1653.767578" xlink:href="#DejaVuSans-74"/>
     <use x="1692.976562" xlink:href="#DejaVuSans-69"/>
     <use x="1720.759766" xlink:href="#DejaVuSans-6f"/>
     <use x="1781.941406" xlink:href="#DejaVuSans-6e"/>
     <use x="1845.320312" xlink:href="#DejaVuSans-73"/>
    </g>
   </g>
  </g>
 </g>
 <defs>
  <clipPath id="p0446f153b7">
   <rect height="266.112" width="357.12" x="57.6" y="41.472"/>
  </clipPath>
 </defs>
</svg>
