<?xml version="1.0" encoding="utf-8" standalone="no"?>
<!DOCTYPE svg PUBLIC "-//W3C//DTD SVG 1.1//EN"
  "http://www.w3.org/Graphics/SVG/1.1/DTD/svg11.dtd">
<svg xmlns:xlink="http://www.w3.org/1999/xlink" width="460.8pt" height="345.6pt" viewBox="0 0 460.8 345.6" xmlns="http://www.w3.org/2000/svg" version="1.1">
 <metadata>
  <rdf:RDF xmlns:dc="http://purl.org/dc/elements/1.1/" xmlns:cc="http://creativecommons.org/ns#" xmlns:rdf="http://www.w3.org/1999/02/22-rdf-syntax-ns#">
   <cc:Work>
    <dc:type rdf:resource="http://purl.org/dc/dcmitype/StillImage"/>
    <dc:date>2022-10-31T07:59:37.009051</dc:date>
    <dc:format>image/svg+xml</dc:format>
    <dc:creator>
     <cc:Agent>
      <dc:title>Matplotlib v3.5.2, https://matplotlib.org/</dc:title>
     </cc:Agent>
    </dc:creator>
   </cc:Work>
  </rdf:RDF>
 </metadata>
 <defs>
  <style type="text/css">*{stroke-linejoin: round; stroke-linecap: butt}</style>
 </defs>
 <g id="figure_1">
  <g id="patch_1">
   <path d="M 0 345.6 
L 460.8 345.6 
L 460.8 0 
L 0 0 
z
" style="fill: #ffffff"/>
  </g>
  <g id="axes_1">
   <g id="patch_2">
    <path d="M 57.6 307.584 
L 414.72 307.584 
L 414.72 41.472 
L 57.6 41.472 
z
" style="fill: #ffffff"/>
   </g>
   <g id="matplotlib.axis_1">
    <g id="xtick_1">
     <g id="line2d_1">
      <path d="M 72.201297 307.584 
L 72.201297 41.472 
" clip-path="url(#pcd2dd5d2fe)" style="fill: none; stroke: #cccccc; stroke-width: 0.8; stroke-linecap: round"/>
     </g>
     <g id="text_1">
      <!-- 0 -->
      <g style="fill: #262626" transform="translate(69.020047 322.182437)scale(0.1 -0.1)">
       <defs>
        <path id="DejaVuSans-30" d="M 2034 4250 
Q 1547 4250 1301 3770 
Q 1056 3291 1056 2328 
Q 1056 1369 1301 889 
Q 1547 409 2034 409 
Q 2525 409 2770 889 
Q 3016 1369 3016 2328 
Q 3016 3291 2770 3770 
Q 2525 4250 2034 4250 
z
M 2034 4750 
Q 2819 4750 3233 4129 
Q 3647 3509 3647 2328 
Q 3647 1150 3233 529 
Q 2819 -91 2034 -91 
Q 1250 -91 836 529 
Q 422 1150 422 2328 
Q 422 3509 836 4129 
Q 1250 4750 2034 4750 
z
" transform="scale(0.015625)"/>
       </defs>
       <use xlink:href="#DejaVuSans-30"/>
      </g>
     </g>
    </g>
    <g id="xtick_2">
     <g id="line2d_2">
      <path d="M 112.987044 307.584 
L 112.987044 41.472 
" clip-path="url(#pcd2dd5d2fe)" style="fill: none; stroke: #cccccc; stroke-width: 0.8; stroke-linecap: round"/>
     </g>
     <g id="text_2">
      <!-- 25 -->
      <g style="fill: #262626" transform="translate(106.624544 322.182437)scale(0.1 -0.1)">
       <defs>
        <path id="DejaVuSans-32" d="M 1228 531 
L 3431 531 
L 3431 0 
L 469 0 
L 469 531 
Q 828 903 1448 1529 
Q 2069 2156 2228 2338 
Q 2531 2678 2651 2914 
Q 2772 3150 2772 3378 
Q 2772 3750 2511 3984 
Q 2250 4219 1831 4219 
Q 1534 4219 1204 4116 
Q 875 4013 500 3803 
L 500 4441 
Q 881 4594 1212 4672 
Q 1544 4750 1819 4750 
Q 2544 4750 2975 4387 
Q 3406 4025 3406 3419 
Q 3406 3131 3298 2873 
Q 3191 2616 2906 2266 
Q 2828 2175 2409 1742 
Q 1991 1309 1228 531 
z
" transform="scale(0.015625)"/>
        <path id="DejaVuSans-35" d="M 691 4666 
L 3169 4666 
L 3169 4134 
L 1269 4134 
L 1269 2991 
Q 1406 3038 1543 3061 
Q 1681 3084 1819 3084 
Q 2600 3084 3056 2656 
Q 3513 2228 3513 1497 
Q 3513 744 3044 326 
Q 2575 -91 1722 -91 
Q 1428 -91 1123 -41 
Q 819 9 494 109 
L 494 744 
Q 775 591 1075 516 
Q 1375 441 1709 441 
Q 2250 441 2565 725 
Q 2881 1009 2881 1497 
Q 2881 1984 2565 2268 
Q 2250 2553 1709 2553 
Q 1456 2553 1204 2497 
Q 953 2441 691 2322 
L 691 4666 
z
" transform="scale(0.015625)"/>
       </defs>
       <use xlink:href="#DejaVuSans-32"/>
       <use xlink:href="#DejaVuSans-35" x="63.623047"/>
      </g>
     </g>
    </g>
    <g id="xtick_3">
     <g id="line2d_3">
      <path d="M 153.772791 307.584 
L 153.772791 41.472 
" clip-path="url(#pcd2dd5d2fe)" style="fill: none; stroke: #cccccc; stroke-width: 0.8; stroke-linecap: round"/>
     </g>
     <g id="text_3">
      <!-- 50 -->
      <g style="fill: #262626" transform="translate(147.410291 322.182437)scale(0.1 -0.1)">
       <use xlink:href="#DejaVuSans-35"/>
       <use xlink:href="#DejaVuSans-30" x="63.623047"/>
      </g>
     </g>
    </g>
    <g id="xtick_4">
     <g id="line2d_4">
      <path d="M 194.558538 307.584 
L 194.558538 41.472 
" clip-path="url(#pcd2dd5d2fe)" style="fill: none; stroke: #cccccc; stroke-width: 0.8; stroke-linecap: round"/>
     </g>
     <g id="text_4">
      <!-- 75 -->
      <g style="fill: #262626" transform="translate(188.196038 322.182437)scale(0.1 -0.1)">
       <defs>
        <path id="DejaVuSans-37" d="M 525 4666 
L 3525 4666 
L 3525 4397 
L 1831 0 
L 1172 0 
L 2766 4134 
L 525 4134 
L 525 4666 
z
" transform="scale(0.015625)"/>
       </defs>
       <use xlink:href="#DejaVuSans-37"/>
       <use xlink:href="#DejaVuSans-35" x="63.623047"/>
      </g>
     </g>
    </g>
    <g id="xtick_5">
     <g id="line2d_5">
      <path d="M 235.344285 307.584 
L 235.344285 41.472 
" clip-path="url(#pcd2dd5d2fe)" style="fill: none; stroke: #cccccc; stroke-width: 0.8; stroke-linecap: round"/>
     </g>
     <g id="text_5">
      <!-- 100 -->
      <g style="fill: #262626" transform="translate(225.800535 322.182437)scale(0.1 -0.1)">
       <defs>
        <path id="DejaVuSans-31" d="M 794 531 
L 1825 531 
L 1825 4091 
L 703 3866 
L 703 4441 
L 1819 4666 
L 2450 4666 
L 2450 531 
L 3481 531 
L 3481 0 
L 794 0 
L 794 531 
z
" transform="scale(0.015625)"/>
       </defs>
       <use xlink:href="#DejaVuSans-31"/>
       <use xlink:href="#DejaVuSans-30" x="63.623047"/>
       <use xlink:href="#DejaVuSans-30" x="127.246094"/>
      </g>
     </g>
    </g>
    <g id="xtick_6">
     <g id="line2d_6">
      <path d="M 276.130032 307.584 
L 276.130032 41.472 
" clip-path="url(#pcd2dd5d2fe)" style="fill: none; stroke: #cccccc; stroke-width: 0.8; stroke-linecap: round"/>
     </g>
     <g id="text_6">
      <!-- 125 -->
      <g style="fill: #262626" transform="translate(266.586282 322.182437)scale(0.1 -0.1)">
       <use xlink:href="#DejaVuSans-31"/>
       <use xlink:href="#DejaVuSans-32" x="63.623047"/>
       <use xlink:href="#DejaVuSans-35" x="127.246094"/>
      </g>
     </g>
    </g>
    <g id="xtick_7">
     <g id="line2d_7">
      <path d="M 316.915779 307.584 
L 316.915779 41.472 
" clip-path="url(#pcd2dd5d2fe)" style="fill: none; stroke: #cccccc; stroke-width: 0.8; stroke-linecap: round"/>
     </g>
     <g id="text_7">
      <!-- 150 -->
      <g style="fill: #262626" transform="translate(307.372029 322.182437)scale(0.1 -0.1)">
       <use xlink:href="#DejaVuSans-31"/>
       <use xlink:href="#DejaVuSans-35" x="63.623047"/>
       <use xlink:href="#DejaVuSans-30" x="127.246094"/>
      </g>
     </g>
    </g>
    <g id="xtick_8">
     <g id="line2d_8">
      <path d="M 357.701526 307.584 
L 357.701526 41.472 
" clip-path="url(#pcd2dd5d2fe)" style="fill: none; stroke: #cccccc; stroke-width: 0.8; stroke-linecap: round"/>
     </g>
     <g id="text_8">
      <!-- 175 -->
      <g style="fill: #262626" transform="translate(348.157776 322.182437)scale(0.1 -0.1)">
       <use xlink:href="#DejaVuSans-31"/>
       <use xlink:href="#DejaVuSans-37" x="63.623047"/>
       <use xlink:href="#DejaVuSans-35" x="127.246094"/>
      </g>
     </g>
    </g>
    <g id="xtick_9">
     <g id="line2d_9">
      <path d="M 398.487273 307.584 
L 398.487273 41.472 
" clip-path="url(#pcd2dd5d2fe)" style="fill: none; stroke: #cccccc; stroke-width: 0.8; stroke-linecap: round"/>
     </g>
     <g id="text_9">
      <!-- 200 -->
      <g style="fill: #262626" transform="translate(388.943523 322.182437)scale(0.1 -0.1)">
       <use xlink:href="#DejaVuSans-32"/>
       <use xlink:href="#DejaVuSans-30" x="63.623047"/>
       <use xlink:href="#DejaVuSans-30" x="127.246094"/>
      </g>
     </g>
    </g>
    <g id="text_10">
     <!-- Iteration -->
     <g style="fill: #262626" transform="translate(214.951406 335.860562)scale(0.1 -0.1)">
      <defs>
       <path id="DejaVuSans-49" d="M 628 4666 
L 1259 4666 
L 1259 0 
L 628 0 
L 628 4666 
z
" transform="scale(0.015625)"/>
       <path id="DejaVuSans-74" d="M 1172 4494 
L 1172 3500 
L 2356 3500 
L 2356 3053 
L 1172 3053 
L 1172 1153 
Q 1172 725 1289 603 
Q 1406 481 1766 481 
L 2356 481 
L 2356 0 
L 1766 0 
Q 1100 0 847 248 
Q 594 497 594 1153 
L 594 3053 
L 172 3053 
L 172 3500 
L 594 3500 
L 594 4494 
L 1172 4494 
z
" transform="scale(0.015625)"/>
       <path id="DejaVuSans-65" d="M 3597 1894 
L 3597 1613 
L 953 1613 
Q 991 1019 1311 708 
Q 1631 397 2203 397 
Q 2534 397 2845 478 
Q 3156 559 3463 722 
L 3463 178 
Q 3153 47 2828 -22 
Q 2503 -91 2169 -91 
Q 1331 -91 842 396 
Q 353 884 353 1716 
Q 353 2575 817 3079 
Q 1281 3584 2069 3584 
Q 2775 3584 3186 3129 
Q 3597 2675 3597 1894 
z
M 3022 2063 
Q 3016 2534 2758 2815 
Q 2500 3097 2075 3097 
Q 1594 3097 1305 2825 
Q 1016 2553 972 2059 
L 3022 2063 
z
" transform="scale(0.015625)"/>
       <path id="DejaVuSans-72" d="M 2631 2963 
Q 2534 3019 2420 3045 
Q 2306 3072 2169 3072 
Q 1681 3072 1420 2755 
Q 1159 2438 1159 1844 
L 1159 0 
L 581 0 
L 581 3500 
L 1159 3500 
L 1159 2956 
Q 1341 3275 1631 3429 
Q 1922 3584 2338 3584 
Q 2397 3584 2469 3576 
Q 2541 3569 2628 3553 
L 2631 2963 
z
" transform="scale(0.015625)"/>
       <path id="DejaVuSans-61" d="M 2194 1759 
Q 1497 1759 1228 1600 
Q 959 1441 959 1056 
Q 959 750 1161 570 
Q 1363 391 1709 391 
Q 2188 391 2477 730 
Q 2766 1069 2766 1631 
L 2766 1759 
L 2194 1759 
z
M 3341 1997 
L 3341 0 
L 2766 0 
L 2766 531 
Q 2569 213 2275 61 
Q 1981 -91 1556 -91 
Q 1019 -91 701 211 
Q 384 513 384 1019 
Q 384 1609 779 1909 
Q 1175 2209 1959 2209 
L 2766 2209 
L 2766 2266 
Q 2766 2663 2505 2880 
Q 2244 3097 1772 3097 
Q 1472 3097 1187 3025 
Q 903 2953 641 2809 
L 641 3341 
Q 956 3463 1253 3523 
Q 1550 3584 1831 3584 
Q 2591 3584 2966 3190 
Q 3341 2797 3341 1997 
z
" transform="scale(0.015625)"/>
       <path id="DejaVuSans-69" d="M 603 3500 
L 1178 3500 
L 1178 0 
L 603 0 
L 603 3500 
z
M 603 4863 
L 1178 4863 
L 1178 4134 
L 603 4134 
L 603 4863 
z
" transform="scale(0.015625)"/>
       <path id="DejaVuSans-6f" d="M 1959 3097 
Q 1497 3097 1228 2736 
Q 959 2375 959 1747 
Q 959 1119 1226 758 
Q 1494 397 1959 397 
Q 2419 397 2687 759 
Q 2956 1122 2956 1747 
Q 2956 2369 2687 2733 
Q 2419 3097 1959 3097 
z
M 1959 3584 
Q 2709 3584 3137 3096 
Q 3566 2609 3566 1747 
Q 3566 888 3137 398 
Q 2709 -91 1959 -91 
Q 1206 -91 779 398 
Q 353 888 353 1747 
Q 353 2609 779 3096 
Q 1206 3584 1959 3584 
z
" transform="scale(0.015625)"/>
       <path id="DejaVuSans-6e" d="M 3513 2113 
L 3513 0 
L 2938 0 
L 2938 2094 
Q 2938 2591 2744 2837 
Q 2550 3084 2163 3084 
Q 1697 3084 1428 2787 
Q 1159 2491 1159 1978 
L 1159 0 
L 581 0 
L 581 3500 
L 1159 3500 
L 1159 2956 
Q 1366 3272 1645 3428 
Q 1925 3584 2291 3584 
Q 2894 3584 3203 3211 
Q 3513 2838 3513 2113 
z
" transform="scale(0.015625)"/>
      </defs>
      <use xlink:href="#DejaVuSans-49"/>
      <use xlink:href="#DejaVuSans-74" x="29.492188"/>
      <use xlink:href="#DejaVuSans-65" x="68.701172"/>
      <use xlink:href="#DejaVuSans-72" x="130.224609"/>
      <use xlink:href="#DejaVuSans-61" x="171.337891"/>
      <use xlink:href="#DejaVuSans-74" x="232.617188"/>
      <use xlink:href="#DejaVuSans-69" x="271.826172"/>
      <use xlink:href="#DejaVuSans-6f" x="299.609375"/>
      <use xlink:href="#DejaVuSans-6e" x="360.791016"/>
     </g>
    </g>
   </g>
   <g id="matplotlib.axis_2">
    <g id="ytick_1">
     <g id="line2d_10">
      <path d="M 57.6 276.960842 
L 414.72 276.960842 
" clip-path="url(#pcd2dd5d2fe)" style="fill: none; stroke: #cccccc; stroke-width: 0.8; stroke-linecap: round"/>
     </g>
     <g id="text_11">
      <!-- 0.55 -->
      <g style="fill: #262626" transform="translate(28.334375 280.760061)scale(0.1 -0.1)">
       <defs>
        <path id="DejaVuSans-2e" d="M 684 794 
L 1344 794 
L 1344 0 
L 684 0 
L 684 794 
z
" transform="scale(0.015625)"/>
       </defs>
       <use xlink:href="#DejaVuSans-30"/>
       <use xlink:href="#DejaVuSans-2e" x="63.623047"/>
       <use xlink:href="#DejaVuSans-35" x="95.410156"/>
       <use xlink:href="#DejaVuSans-35" x="159.033203"/>
      </g>
     </g>
    </g>
    <g id="ytick_2">
     <g id="line2d_11">
      <path d="M 57.6 218.443985 
L 414.72 218.443985 
" clip-path="url(#pcd2dd5d2fe)" style="fill: none; stroke: #cccccc; stroke-width: 0.8; stroke-linecap: round"/>
     </g>
     <g id="text_12">
      <!-- 0.60 -->
      <g style="fill: #262626" transform="translate(28.334375 222.243204)scale(0.1 -0.1)">
       <defs>
        <path id="DejaVuSans-36" d="M 2113 2584 
Q 1688 2584 1439 2293 
Q 1191 2003 1191 1497 
Q 1191 994 1439 701 
Q 1688 409 2113 409 
Q 2538 409 2786 701 
Q 3034 994 3034 1497 
Q 3034 2003 2786 2293 
Q 2538 2584 2113 2584 
z
M 3366 4563 
L 3366 3988 
Q 3128 4100 2886 4159 
Q 2644 4219 2406 4219 
Q 1781 4219 1451 3797 
Q 1122 3375 1075 2522 
Q 1259 2794 1537 2939 
Q 1816 3084 2150 3084 
Q 2853 3084 3261 2657 
Q 3669 2231 3669 1497 
Q 3669 778 3244 343 
Q 2819 -91 2113 -91 
Q 1303 -91 875 529 
Q 447 1150 447 2328 
Q 447 3434 972 4092 
Q 1497 4750 2381 4750 
Q 2619 4750 2861 4703 
Q 3103 4656 3366 4563 
z
" transform="scale(0.015625)"/>
       </defs>
       <use xlink:href="#DejaVuSans-30"/>
       <use xlink:href="#DejaVuSans-2e" x="63.623047"/>
       <use xlink:href="#DejaVuSans-36" x="95.410156"/>
       <use xlink:href="#DejaVuSans-30" x="159.033203"/>
      </g>
     </g>
    </g>
    <g id="ytick_3">
     <g id="line2d_12">
      <path d="M 57.6 159.927128 
L 414.72 159.927128 
" clip-path="url(#pcd2dd5d2fe)" style="fill: none; stroke: #cccccc; stroke-width: 0.8; stroke-linecap: round"/>
     </g>
     <g id="text_13">
      <!-- 0.65 -->
      <g style="fill: #262626" transform="translate(28.334375 163.726347)scale(0.1 -0.1)">
       <use xlink:href="#DejaVuSans-30"/>
       <use xlink:href="#DejaVuSans-2e" x="63.623047"/>
       <use xlink:href="#DejaVuSans-36" x="95.410156"/>
       <use xlink:href="#DejaVuSans-35" x="159.033203"/>
      </g>
     </g>
    </g>
    <g id="ytick_4">
     <g id="line2d_13">
      <path d="M 57.6 101.41027 
L 414.72 101.41027 
" clip-path="url(#pcd2dd5d2fe)" style="fill: none; stroke: #cccccc; stroke-width: 0.8; stroke-linecap: round"/>
     </g>
     <g id="text_14">
      <!-- 0.70 -->
      <g style="fill: #262626" transform="translate(28.334375 105.209489)scale(0.1 -0.1)">
       <use xlink:href="#DejaVuSans-30"/>
       <use xlink:href="#DejaVuSans-2e" x="63.623047"/>
       <use xlink:href="#DejaVuSans-37" x="95.410156"/>
       <use xlink:href="#DejaVuSans-30" x="159.033203"/>
      </g>
     </g>
    </g>
    <g id="ytick_5">
     <g id="line2d_14">
      <path d="M 57.6 42.893413 
L 414.72 42.893413 
" clip-path="url(#pcd2dd5d2fe)" style="fill: none; stroke: #cccccc; stroke-width: 0.8; stroke-linecap: round"/>
     </g>
     <g id="text_15">
      <!-- 0.75 -->
      <g style="fill: #262626" transform="translate(28.334375 46.692632)scale(0.1 -0.1)">
       <use xlink:href="#DejaVuSans-30"/>
       <use xlink:href="#DejaVuSans-2e" x="63.623047"/>
       <use xlink:href="#DejaVuSans-37" x="95.410156"/>
       <use xlink:href="#DejaVuSans-35" x="159.033203"/>
      </g>
     </g>
    </g>
    <g id="text_16">
     <!-- Auroc -->
     <g style="fill: #262626" transform="translate(22.254688 188.868625)rotate(-90)scale(0.1 -0.1)">
      <defs>
       <path id="DejaVuSans-41" d="M 2188 4044 
L 1331 1722 
L 3047 1722 
L 2188 4044 
z
M 1831 4666 
L 2547 4666 
L 4325 0 
L 3669 0 
L 3244 1197 
L 1141 1197 
L 716 0 
L 50 0 
L 1831 4666 
z
" transform="scale(0.015625)"/>
       <path id="DejaVuSans-75" d="M 544 1381 
L 544 3500 
L 1119 3500 
L 1119 1403 
Q 1119 906 1312 657 
Q 1506 409 1894 409 
Q 2359 409 2629 706 
Q 2900 1003 2900 1516 
L 2900 3500 
L 3475 3500 
L 3475 0 
L 2900 0 
L 2900 538 
Q 2691 219 2414 64 
Q 2138 -91 1772 -91 
Q 1169 -91 856 284 
Q 544 659 544 1381 
z
M 1991 3584 
L 1991 3584 
z
" transform="scale(0.015625)"/>
       <path id="DejaVuSans-63" d="M 3122 3366 
L 3122 2828 
Q 2878 2963 2633 3030 
Q 2388 3097 2138 3097 
Q 1578 3097 1268 2742 
Q 959 2388 959 1747 
Q 959 1106 1268 751 
Q 1578 397 2138 397 
Q 2388 397 2633 464 
Q 2878 531 3122 666 
L 3122 134 
Q 2881 22 2623 -34 
Q 2366 -91 2075 -91 
Q 1284 -91 818 406 
Q 353 903 353 1747 
Q 353 2603 823 3093 
Q 1294 3584 2113 3584 
Q 2378 3584 2631 3529 
Q 2884 3475 3122 3366 
z
" transform="scale(0.015625)"/>
      </defs>
      <use xlink:href="#DejaVuSans-41"/>
      <use xlink:href="#DejaVuSans-75" x="68.408203"/>
      <use xlink:href="#DejaVuSans-72" x="131.787109"/>
      <use xlink:href="#DejaVuSans-6f" x="170.650391"/>
      <use xlink:href="#DejaVuSans-63" x="231.832031"/>
     </g>
    </g>
   </g>
   <g id="PolyCollection_1">
    <defs>
     <path id="m65170a5368" d="M 73.832727 -240.482382 
L 73.832727 -194.345369 
L 75.464157 -193.349091 
L 77.095587 -210.81211 
L 78.727017 -88.534653 
L 80.358447 -181.704366 
L 81.989877 -119.855275 
L 83.621307 -134.263664 
L 85.252736 -193.112358 
L 86.884166 -118.268814 
L 88.515596 -155.430423 
L 90.147026 -182.635559 
L 91.778456 -173.632872 
L 93.409886 -184.051951 
L 95.041316 -171.005987 
L 96.672746 -138.397327 
L 98.304175 -143.184657 
L 99.935605 -165.373851 
L 101.567035 -181.33431 
L 103.198465 -151.845203 
L 104.829895 -92.986267 
L 106.461325 -163.739994 
L 108.092755 -149.247064 
L 109.724185 -159.052445 
L 111.355614 -193.643677 
L 112.987044 -154.40227 
L 114.618474 -132.02184 
L 116.249904 -178.738269 
L 117.881334 -203.744974 
L 119.512764 -171.924413 
L 121.144194 -157.156061 
L 122.775624 -175.523305 
L 124.407053 -201.840277 
L 126.038483 -171.32083 
L 127.669913 -191.251278 
L 129.301343 -156.649464 
L 130.932773 -168.613238 
L 132.564203 -187.25716 
L 134.195633 -165.20082 
L 135.827063 -133.759821 
L 137.458492 -170.56168 
L 139.089922 -155.365863 
L 140.721352 -168.961725 
L 142.352782 -133.021458 
L 143.984212 -151.474454 
L 145.615642 -171.428044 
L 147.247072 -180.58485 
L 148.878502 -194.241673 
L 150.509931 -88.563674 
L 152.141361 -185.926965 
L 153.772791 -163.384324 
L 155.404221 -165.359734 
L 157.035651 -167.219654 
L 158.667081 -177.995619 
L 160.298511 -116.706388 
L 161.929941 -172.718988 
L 163.56137 -159.049607 
L 165.1928 -147.176085 
L 166.82423 -188.16417 
L 168.45566 -176.070828 
L 170.08709 -152.814205 
L 171.71852 -129.9429 
L 173.34995 -166.120971 
L 174.98138 -151.001539 
L 176.61281 -180.61909 
L 178.244239 -137.609502 
L 179.875669 -173.779608 
L 181.507099 -193.504939 
L 183.138529 -187.811971 
L 184.769959 -171.102664 
L 186.401389 -177.292873 
L 188.032819 -181.55507 
L 189.664249 -139.443028 
L 191.295678 -168.793916 
L 192.927108 -139.605298 
L 194.558538 -117.504295 
L 196.189968 -179.092327 
L 197.821398 -115.065075 
L 199.452828 -202.510292 
L 201.084258 -98.483842 
L 202.715688 -204.739404 
L 204.347117 -159.074576 
L 205.978547 -102.123973 
L 207.609977 -78.548001 
L 209.241407 -165.179564 
L 210.872837 -179.935696 
L 212.504267 -143.141705 
L 214.135697 -151.200234 
L 215.767127 -197.292688 
L 217.398556 -111.512365 
L 219.029986 -142.565787 
L 220.661416 -205.116909 
L 222.292846 -123.885001 
L 223.924276 -197.580366 
L 225.555706 -174.553451 
L 227.187136 -139.219264 
L 228.818566 -180.449881 
L 230.449995 -126.902005 
L 232.081425 -108.773634 
L 233.712855 -168.490016 
L 235.344285 -147.999097 
L 236.975715 -104.671852 
L 238.607145 -179.669569 
L 240.238575 -180.939147 
L 241.870005 -169.811149 
L 243.501434 -219.797773 
L 245.132864 -164.407365 
L 246.764294 -155.32219 
L 248.395724 -78.19303 
L 250.027154 -205.756491 
L 251.658584 -152.571176 
L 253.290014 -158.281643 
L 254.921444 -130.56922 
L 256.552873 -157.120299 
L 258.184303 -181.570895 
L 259.815733 -143.742563 
L 261.447163 -165.059842 
L 263.078593 -173.093117 
L 264.710023 -174.712955 
L 266.341453 -184.861825 
L 267.972883 -196.771589 
L 269.604312 -147.293498 
L 271.235742 -166.028084 
L 272.867172 -153.660333 
L 274.498602 -191.211101 
L 276.130032 -202.12119 
L 277.761462 -110.950054 
L 279.392892 -137.810763 
L 281.024322 -163.30213 
L 282.655751 -154.024222 
L 284.287181 -162.040698 
L 285.918611 -109.190771 
L 287.550041 -158.944176 
L 289.181471 -180.211594 
L 290.812901 -183.743462 
L 292.444331 -104.767664 
L 294.075761 -192.658901 
L 295.70719 -148.662049 
L 297.33862 -121.071988 
L 298.97005 -159.001088 
L 300.60148 -191.008752 
L 302.23291 -163.735361 
L 303.86434 -186.519307 
L 305.49577 -163.647911 
L 307.1272 -157.388072 
L 308.75863 -113.697765 
L 310.390059 -176.269597 
L 312.021489 -115.655758 
L 313.652919 -152.749519 
L 315.284349 -50.112 
L 316.915779 -177.459544 
L 318.547209 -160.302002 
L 320.178639 -158.850464 
L 321.810069 -180.280841 
L 323.441498 -165.150291 
L 325.072928 -196.023982 
L 326.704358 -184.935464 
L 328.335788 -167.252301 
L 329.967218 -183.235827 
L 331.598648 -188.37832 
L 333.230078 -111.357695 
L 334.861508 -170.334515 
L 336.492937 -174.120723 
L 338.124367 -108.494167 
L 339.755797 -144.577041 
L 341.387227 -100.411962 
L 343.018657 -182.449134 
L 344.650087 -132.208174 
L 346.281517 -192.884288 
L 347.912947 -185.91624 
L 349.544376 -153.681668 
L 351.175806 -171.826086 
L 352.807236 -177.232072 
L 354.438666 -190.521311 
L 356.070096 -163.720431 
L 357.701526 -176.936114 
L 359.332956 -171.928818 
L 360.964386 -166.447585 
L 362.595815 -161.447475 
L 364.227245 -118.716384 
L 365.858675 -150.795271 
L 367.490105 -170.579156 
L 369.121535 -161.675995 
L 370.752965 -146.056868 
L 372.384395 -148.057974 
L 374.015825 -184.271892 
L 375.647254 -164.142078 
L 377.278684 -150.006279 
L 378.910114 -181.683358 
L 380.541544 -161.708375 
L 382.172974 -143.428232 
L 383.804404 -153.557163 
L 385.435834 -153.322957 
L 387.067264 -163.250293 
L 388.698693 -165.059688 
L 390.330123 -145.680793 
L 391.961553 -156.423574 
L 393.592983 -198.564877 
L 395.224413 -196.763492 
L 396.855843 -201.099373 
L 398.487273 -129.391055 
L 398.487273 -227.118453 
L 398.487273 -227.118453 
L 396.855843 -240.385192 
L 395.224413 -242.017764 
L 393.592983 -272.709169 
L 391.961553 -229.309228 
L 390.330123 -250.827458 
L 388.698693 -259.608112 
L 387.067264 -267.199895 
L 385.435834 -271.336658 
L 383.804404 -238.576316 
L 382.172974 -274.182266 
L 380.541544 -251.648531 
L 378.910114 -236.00922 
L 377.278684 -241.642298 
L 375.647254 -254.7064 
L 374.015825 -257.298566 
L 372.384395 -251.744233 
L 370.752965 -245.732782 
L 369.121535 -238.972685 
L 367.490105 -266.478514 
L 365.858675 -262.511064 
L 364.227245 -234.769949 
L 362.595815 -269.474678 
L 360.964386 -254.96346 
L 359.332956 -254.712577 
L 357.701526 -246.030917 
L 356.070096 -239.572409 
L 354.438666 -273.909441 
L 352.807236 -248.14368 
L 351.175806 -264.772899 
L 349.544376 -269.914036 
L 347.912947 -267.458797 
L 346.281517 -222.285331 
L 344.650087 -265.713521 
L 343.018657 -238.524006 
L 341.387227 -251.883698 
L 339.755797 -221.910506 
L 338.124367 -268.772788 
L 336.492937 -259.042478 
L 334.861508 -241.612553 
L 333.230078 -225.543674 
L 331.598648 -271.677567 
L 329.967218 -236.776107 
L 328.335788 -258.917997 
L 326.704358 -222.012748 
L 325.072928 -249.059843 
L 323.441498 -266.204755 
L 321.810069 -217.073295 
L 320.178639 -248.747387 
L 318.547209 -236.193736 
L 316.915779 -207.000412 
L 315.284349 -245.748135 
L 313.652919 -235.994181 
L 312.021489 -269.372327 
L 310.390059 -228.393793 
L 308.75863 -228.83315 
L 307.1272 -285.082408 
L 305.49577 -223.632858 
L 303.86434 -267.533766 
L 302.23291 -272.937715 
L 300.60148 -292.032 
L 298.97005 -234.539449 
L 297.33862 -254.54664 
L 295.70719 -258.489516 
L 294.075761 -265.797 
L 292.444331 -245.572731 
L 290.812901 -260.696366 
L 289.181471 -272.122998 
L 287.550041 -279.444064 
L 285.918611 -196.671853 
L 284.287181 -237.6073 
L 282.655751 -266.492102 
L 281.024322 -226.231085 
L 279.392892 -229.025738 
L 277.761462 -285.827769 
L 276.130032 -268.958203 
L 274.498602 -239.327346 
L 272.867172 -270.228792 
L 271.235742 -263.314151 
L 269.604312 -240.003774 
L 267.972883 -245.183463 
L 266.341453 -243.094618 
L 264.710023 -260.305202 
L 263.078593 -246.948753 
L 261.447163 -231.650234 
L 259.815733 -246.218678 
L 258.184303 -229.622734 
L 256.552873 -234.116362 
L 254.921444 -205.260488 
L 253.290014 -230.658075 
L 251.658584 -225.43904 
L 250.027154 -261.998018 
L 248.395724 -248.248043 
L 246.764294 -240.935008 
L 245.132864 -259.494966 
L 243.501434 -291.24866 
L 241.870005 -263.967426 
L 240.238575 -274.885748 
L 238.607145 -243.717035 
L 236.975715 -230.935725 
L 235.344285 -282.189146 
L 233.712855 -243.53255 
L 232.081425 -269.953576 
L 230.449995 -244.876881 
L 228.818566 -230.136641 
L 227.187136 -228.811817 
L 225.555706 -262.911434 
L 223.924276 -240.528351 
L 222.292846 -254.775144 
L 220.661416 -284.130486 
L 219.029986 -254.790219 
L 217.398556 -218.249117 
L 215.767127 -260.30961 
L 214.135697 -242.022236 
L 212.504267 -270.624906 
L 210.872837 -285.962989 
L 209.241407 -230.05116 
L 207.609977 -229.636491 
L 205.978547 -251.168471 
L 204.347117 -235.264363 
L 202.715688 -257.629091 
L 201.084258 -277.5175 
L 199.452828 -240.028843 
L 197.821398 -260.054287 
L 196.189968 -241.75307 
L 194.558538 -265.399335 
L 192.927108 -249.486861 
L 191.295678 -265.879183 
L 189.664249 -255.574494 
L 188.032819 -258.404614 
L 186.401389 -225.321559 
L 184.769959 -254.456756 
L 183.138529 -237.354257 
L 181.507099 -250.182926 
L 179.875669 -246.226342 
L 178.244239 -255.046245 
L 176.61281 -278.394338 
L 174.98138 -243.327758 
L 173.34995 -244.94943 
L 171.71852 -242.009517 
L 170.08709 -262.957147 
L 168.45566 -254.699308 
L 166.82423 -247.129614 
L 165.1928 -263.566815 
L 163.56137 -249.413968 
L 161.929941 -254.979396 
L 160.298511 -276.685377 
L 158.667081 -233.535318 
L 157.035651 -248.209151 
L 155.404221 -257.042144 
L 153.772791 -244.586713 
L 152.141361 -243.95092 
L 150.509931 -245.190777 
L 148.878502 -248.239688 
L 147.247072 -219.971676 
L 145.615642 -226.46045 
L 143.984212 -283.802724 
L 142.352782 -278.839533 
L 140.721352 -245.833499 
L 139.089922 -235.462467 
L 137.458492 -251.69312 
L 135.827063 -288.071852 
L 134.195633 -272.908104 
L 132.564203 -247.18362 
L 130.932773 -249.108346 
L 129.301343 -230.270654 
L 127.669913 -238.323524 
L 126.038483 -277.101685 
L 124.407053 -270.321865 
L 122.775624 -269.931661 
L 121.144194 -270.784354 
L 119.512764 -265.894272 
L 117.881334 -268.868084 
L 116.249904 -272.624348 
L 114.618474 -261.043106 
L 112.987044 -262.225 
L 111.355614 -283.790191 
L 109.724185 -247.720509 
L 108.092755 -285.872218 
L 106.461325 -229.910874 
L 104.829895 -277.414784 
L 103.198465 -202.721327 
L 101.567035 -252.819859 
L 99.935605 -207.812888 
L 98.304175 -254.33402 
L 96.672746 -215.929527 
L 95.041316 -223.584233 
L 93.409886 -249.603376 
L 91.778456 -277.510726 
L 90.147026 -263.341871 
L 88.515596 -278.02437 
L 86.884166 -246.800659 
L 85.252736 -223.121648 
L 83.621307 -264.196865 
L 81.989877 -259.922557 
L 80.358447 -263.175165 
L 78.727017 -235.299873 
L 77.095587 -242.658367 
L 75.464157 -258.078897 
L 73.832727 -240.482382 
z
" style="stroke: #ffffff; stroke-opacity: 0.2"/>
    </defs>
    <g clip-path="url(#pcd2dd5d2fe)">
     <use xlink:href="#m65170a5368" x="0" y="345.6" style="fill: #1f77b4; fill-opacity: 0.2; stroke: #ffffff; stroke-opacity: 0.2"/>
    </g>
   </g>
   <g id="line2d_15">
    <path d="M 73.832727 128.186124 
L 75.464157 119.886006 
L 77.095587 118.864762 
L 78.727017 183.682737 
L 80.358447 123.160234 
L 81.989877 155.711084 
L 85.252736 137.482997 
L 86.884166 163.065263 
L 88.515596 128.872603 
L 90.147026 122.611285 
L 91.778456 120.028201 
L 93.409886 128.772337 
L 96.672746 168.436573 
L 98.304175 146.840662 
L 99.935605 159.00663 
L 101.567035 128.522916 
L 103.198465 168.316735 
L 104.829895 160.399475 
L 106.461325 148.774566 
L 108.092755 128.040359 
L 109.724185 142.213523 
L 111.355614 106.883066 
L 112.987044 137.286365 
L 114.618474 149.067527 
L 116.249904 119.918691 
L 117.881334 109.293471 
L 119.512764 126.690657 
L 121.144194 131.629792 
L 122.775624 122.872517 
L 124.407053 109.518929 
L 126.038483 121.388743 
L 127.669913 130.812599 
L 129.301343 152.139941 
L 130.932773 136.739208 
L 132.564203 128.37961 
L 134.195633 126.545538 
L 135.827063 134.684164 
L 137.458492 134.4726 
L 139.089922 150.185835 
L 140.721352 138.202388 
L 142.352782 139.669505 
L 143.984212 127.961411 
L 145.615642 146.655753 
L 147.247072 145.321737 
L 148.878502 124.35932 
L 150.509931 178.722775 
L 152.141361 130.661057 
L 153.772791 141.614481 
L 155.404221 134.399061 
L 157.035651 137.885597 
L 158.667081 139.834532 
L 160.298511 148.904118 
L 161.929941 131.750808 
L 163.56137 141.368212 
L 165.1928 140.22855 
L 166.82423 127.953108 
L 168.45566 130.214932 
L 170.08709 137.714324 
L 171.71852 159.623791 
L 173.34995 140.0648 
L 174.98138 148.435351 
L 176.61281 116.093286 
L 178.244239 149.272127 
L 179.875669 135.597025 
L 181.507099 123.756067 
L 183.138529 133.016886 
L 184.769959 132.82029 
L 186.401389 144.292784 
L 188.032819 125.620158 
L 189.664249 148.091239 
L 191.295678 128.26345 
L 192.927108 151.053921 
L 194.558538 154.148185 
L 196.189968 135.177302 
L 197.821398 158.040319 
L 199.452828 124.330432 
L 201.084258 157.599329 
L 202.715688 114.415753 
L 204.347117 148.430531 
L 205.978547 168.953778 
L 207.609977 191.507754 
L 209.241407 147.984638 
L 210.872837 112.650657 
L 212.504267 138.716694 
L 214.135697 148.988765 
L 215.767127 116.798851 
L 217.398556 180.719259 
L 219.029986 146.921997 
L 220.661416 100.976302 
L 222.292846 156.269928 
L 223.924276 126.545642 
L 225.555706 126.867558 
L 227.187136 161.58446 
L 228.818566 140.306739 
L 230.449995 159.710557 
L 232.081425 156.236395 
L 233.712855 139.588717 
L 235.344285 130.505878 
L 236.975715 177.796211 
L 238.607145 133.906698 
L 240.238575 117.687553 
L 241.870005 128.710713 
L 243.501434 90.076783 
L 245.132864 133.648834 
L 246.764294 147.471401 
L 248.395724 182.379464 
L 250.027154 111.722745 
L 251.658584 156.594892 
L 253.290014 151.130141 
L 254.921444 177.685146 
L 256.552873 149.98167 
L 258.184303 140.003186 
L 259.815733 150.619379 
L 261.447163 147.244962 
L 263.078593 135.579065 
L 264.710023 128.090921 
L 266.341453 131.621778 
L 267.972883 124.622474 
L 269.604312 151.951364 
L 271.235742 130.928883 
L 272.867172 133.655438 
L 274.498602 130.330776 
L 276.130032 110.060304 
L 277.761462 147.211089 
L 279.392892 162.181749 
L 281.024322 150.833392 
L 282.655751 135.341838 
L 284.287181 145.776001 
L 285.918611 192.668688 
L 287.550041 126.40588 
L 289.181471 119.432704 
L 290.812901 123.380086 
L 292.444331 170.429802 
L 294.075761 116.37205 
L 295.70719 142.024217 
L 297.33862 157.790686 
L 298.97005 148.829732 
L 300.60148 104.079624 
L 302.23291 127.263462 
L 303.86434 118.573464 
L 305.49577 151.959616 
L 307.1272 124.36476 
L 308.75863 174.334543 
L 310.390059 143.268305 
L 312.021489 153.085958 
L 313.652919 151.22815 
L 315.284349 197.669932 
L 316.915779 153.370022 
L 318.547209 147.352131 
L 320.178639 141.801074 
L 321.810069 146.922932 
L 323.441498 129.922477 
L 325.072928 123.058087 
L 326.704358 142.125894 
L 328.335788 132.514851 
L 329.967218 135.594033 
L 331.598648 115.572057 
L 333.230078 177.149315 
L 334.861508 139.626466 
L 336.492937 129.018399 
L 338.124367 156.966523 
L 339.755797 162.356226 
L 341.387227 169.45217 
L 343.018657 135.11343 
L 344.650087 146.639152 
L 346.281517 138.01519 
L 347.912947 118.912482 
L 349.544376 133.802148 
L 351.175806 127.300508 
L 352.807236 132.912124 
L 354.438666 113.384624 
L 356.070096 143.95358 
L 357.701526 134.116485 
L 359.332956 132.279303 
L 360.964386 134.894477 
L 362.595815 130.138924 
L 364.227245 168.856833 
L 365.858675 138.946833 
L 367.490105 127.071165 
L 369.121535 145.27566 
L 370.752965 149.705175 
L 372.384395 145.698897 
L 374.015825 124.814771 
L 375.647254 136.175761 
L 377.278684 149.775712 
L 378.910114 136.753711 
L 380.541544 138.921547 
L 382.172974 136.794751 
L 383.804404 149.533261 
L 385.435834 133.270192 
L 387.067264 130.374906 
L 388.698693 133.2661 
L 390.330123 147.345874 
L 391.961553 152.733599 
L 393.592983 109.962977 
L 395.224413 126.209372 
L 396.855843 124.857717 
L 398.487273 167.345246 
L 398.487273 167.345246 
" clip-path="url(#pcd2dd5d2fe)" style="fill: none; stroke: #1f77b4; stroke-width: 1.5; stroke-linecap: round"/>
   </g>
   <g id="LineCollection_1">
    <path d="M 398.487273 295.488 
L 398.487273 53.568 
" clip-path="url(#pcd2dd5d2fe)" style="fill: none; stroke-dasharray: 5.55,2.4; stroke-dashoffset: 0; stroke: #1f77b4; stroke-width: 1.5"/>
   </g>
   <g id="patch_3">
    <path d="M 57.6 307.584 
L 57.6 41.472 
" style="fill: none; stroke: #cccccc; stroke-width: 0.8; stroke-linejoin: miter; stroke-linecap: square"/>
   </g>
   <g id="patch_4">
    <path d="M 414.72 307.584 
L 414.72 41.472 
" style="fill: none; stroke: #cccccc; stroke-width: 0.8; stroke-linejoin: miter; stroke-linecap: square"/>
   </g>
   <g id="patch_5">
    <path d="M 57.6 307.584 
L 414.72 307.584 
" style="fill: none; stroke: #cccccc; stroke-width: 0.8; stroke-linejoin: miter; stroke-linecap: square"/>
   </g>
   <g id="patch_6">
    <path d="M 57.6 41.472 
L 414.72 41.472 
" style="fill: none; stroke: #cccccc; stroke-width: 0.8; stroke-linejoin: miter; stroke-linecap: square"/>
   </g>
   <g id="text_17">
    <!-- Model performance vs. # of iterations -->
    <g style="fill: #262626" transform="translate(122.314688 35.472)scale(0.12 -0.12)">
     <defs>
      <path id="DejaVuSans-4d" d="M 628 4666 
L 1569 4666 
L 2759 1491 
L 3956 4666 
L 4897 4666 
L 4897 0 
L 4281 0 
L 4281 4097 
L 3078 897 
L 2444 897 
L 1241 4097 
L 1241 0 
L 628 0 
L 628 4666 
z
" transform="scale(0.015625)"/>
      <path id="DejaVuSans-64" d="M 2906 2969 
L 2906 4863 
L 3481 4863 
L 3481 0 
L 2906 0 
L 2906 525 
Q 2725 213 2448 61 
Q 2172 -91 1784 -91 
Q 1150 -91 751 415 
Q 353 922 353 1747 
Q 353 2572 751 3078 
Q 1150 3584 1784 3584 
Q 2172 3584 2448 3432 
Q 2725 3281 2906 2969 
z
M 947 1747 
Q 947 1113 1208 752 
Q 1469 391 1925 391 
Q 2381 391 2643 752 
Q 2906 1113 2906 1747 
Q 2906 2381 2643 2742 
Q 2381 3103 1925 3103 
Q 1469 3103 1208 2742 
Q 947 2381 947 1747 
z
" transform="scale(0.015625)"/>
      <path id="DejaVuSans-6c" d="M 603 4863 
L 1178 4863 
L 1178 0 
L 603 0 
L 603 4863 
z
" transform="scale(0.015625)"/>
      <path id="DejaVuSans-20" transform="scale(0.015625)"/>
      <path id="DejaVuSans-70" d="M 1159 525 
L 1159 -1331 
L 581 -1331 
L 581 3500 
L 1159 3500 
L 1159 2969 
Q 1341 3281 1617 3432 
Q 1894 3584 2278 3584 
Q 2916 3584 3314 3078 
Q 3713 2572 3713 1747 
Q 3713 922 3314 415 
Q 2916 -91 2278 -91 
Q 1894 -91 1617 61 
Q 1341 213 1159 525 
z
M 3116 1747 
Q 3116 2381 2855 2742 
Q 2594 3103 2138 3103 
Q 1681 3103 1420 2742 
Q 1159 2381 1159 1747 
Q 1159 1113 1420 752 
Q 1681 391 2138 391 
Q 2594 391 2855 752 
Q 3116 1113 3116 1747 
z
" transform="scale(0.015625)"/>
      <path id="DejaVuSans-66" d="M 2375 4863 
L 2375 4384 
L 1825 4384 
Q 1516 4384 1395 4259 
Q 1275 4134 1275 3809 
L 1275 3500 
L 2222 3500 
L 2222 3053 
L 1275 3053 
L 1275 0 
L 697 0 
L 697 3053 
L 147 3053 
L 147 3500 
L 697 3500 
L 697 3744 
Q 697 4328 969 4595 
Q 1241 4863 1831 4863 
L 2375 4863 
z
" transform="scale(0.015625)"/>
      <path id="DejaVuSans-6d" d="M 3328 2828 
Q 3544 3216 3844 3400 
Q 4144 3584 4550 3584 
Q 5097 3584 5394 3201 
Q 5691 2819 5691 2113 
L 5691 0 
L 5113 0 
L 5113 2094 
Q 5113 2597 4934 2840 
Q 4756 3084 4391 3084 
Q 3944 3084 3684 2787 
Q 3425 2491 3425 1978 
L 3425 0 
L 2847 0 
L 2847 2094 
Q 2847 2600 2669 2842 
Q 2491 3084 2119 3084 
Q 1678 3084 1418 2786 
Q 1159 2488 1159 1978 
L 1159 0 
L 581 0 
L 581 3500 
L 1159 3500 
L 1159 2956 
Q 1356 3278 1631 3431 
Q 1906 3584 2284 3584 
Q 2666 3584 2933 3390 
Q 3200 3197 3328 2828 
z
" transform="scale(0.015625)"/>
      <path id="DejaVuSans-76" d="M 191 3500 
L 800 3500 
L 1894 563 
L 2988 3500 
L 3597 3500 
L 2284 0 
L 1503 0 
L 191 3500 
z
" transform="scale(0.015625)"/>
      <path id="DejaVuSans-73" d="M 2834 3397 
L 2834 2853 
Q 2591 2978 2328 3040 
Q 2066 3103 1784 3103 
Q 1356 3103 1142 2972 
Q 928 2841 928 2578 
Q 928 2378 1081 2264 
Q 1234 2150 1697 2047 
L 1894 2003 
Q 2506 1872 2764 1633 
Q 3022 1394 3022 966 
Q 3022 478 2636 193 
Q 2250 -91 1575 -91 
Q 1294 -91 989 -36 
Q 684 19 347 128 
L 347 722 
Q 666 556 975 473 
Q 1284 391 1588 391 
Q 1994 391 2212 530 
Q 2431 669 2431 922 
Q 2431 1156 2273 1281 
Q 2116 1406 1581 1522 
L 1381 1569 
Q 847 1681 609 1914 
Q 372 2147 372 2553 
Q 372 3047 722 3315 
Q 1072 3584 1716 3584 
Q 2034 3584 2315 3537 
Q 2597 3491 2834 3397 
z
" transform="scale(0.015625)"/>
      <path id="DejaVuSans-23" d="M 3272 2816 
L 2363 2816 
L 2100 1772 
L 3016 1772 
L 3272 2816 
z
M 2803 4594 
L 2478 3297 
L 3391 3297 
L 3719 4594 
L 4219 4594 
L 3897 3297 
L 4872 3297 
L 4872 2816 
L 3775 2816 
L 3519 1772 
L 4513 1772 
L 4513 1294 
L 3397 1294 
L 3072 0 
L 2572 0 
L 2894 1294 
L 1978 1294 
L 1656 0 
L 1153 0 
L 1478 1294 
L 494 1294 
L 494 1772 
L 1594 1772 
L 1856 2816 
L 850 2816 
L 850 3297 
L 1978 3297 
L 2297 4594 
L 2803 4594 
z
" transform="scale(0.015625)"/>
     </defs>
     <use xlink:href="#DejaVuSans-4d"/>
     <use xlink:href="#DejaVuSans-6f" x="86.279297"/>
     <use xlink:href="#DejaVuSans-64" x="147.460938"/>
     <use xlink:href="#DejaVuSans-65" x="210.9375"/>
     <use xlink:href="#DejaVuSans-6c" x="272.460938"/>
     <use xlink:href="#DejaVuSans-20" x="300.244141"/>
     <use xlink:href="#DejaVuSans-70" x="332.03125"/>
     <use xlink:href="#DejaVuSans-65" x="395.507812"/>
     <use xlink:href="#DejaVuSans-72" x="457.03125"/>
     <use xlink:href="#DejaVuSans-66" x="498.144531"/>
     <use xlink:href="#DejaVuSans-6f" x="533.349609"/>
     <use xlink:href="#DejaVuSans-72" x="594.53125"/>
     <use xlink:href="#DejaVuSans-6d" x="633.894531"/>
     <use xlink:href="#DejaVuSans-61" x="731.306641"/>
     <use xlink:href="#DejaVuSans-6e" x="792.585938"/>
     <use xlink:href="#DejaVuSans-63" x="855.964844"/>
     <use xlink:href="#DejaVuSans-65" x="910.945312"/>
     <use xlink:href="#DejaVuSans-20" x="972.46875"/>
     <use xlink:href="#DejaVuSans-76" x="1004.255859"/>
     <use xlink:href="#DejaVuSans-73" x="1063.435547"/>
     <use xlink:href="#DejaVuSans-2e" x="1115.535156"/>
     <use xlink:href="#DejaVuSans-20" x="1147.322266"/>
     <use xlink:href="#DejaVuSans-23" x="1179.109375"/>
     <use xlink:href="#DejaVuSans-20" x="1262.898438"/>
     <use xlink:href="#DejaVuSans-6f" x="1294.685547"/>
     <use xlink:href="#DejaVuSans-66" x="1355.867188"/>
     <use xlink:href="#DejaVuSans-20" x="1391.072266"/>
     <use xlink:href="#DejaVuSans-69" x="1422.859375"/>
     <use xlink:href="#DejaVuSans-74" x="1450.642578"/>
     <use xlink:href="#DejaVuSans-65" x="1489.851562"/>
     <use xlink:href="#DejaVuSans-72" x="1551.375"/>
     <use xlink:href="#DejaVuSans-61" x="1592.488281"/>
     <use xlink:href="#DejaVuSans-74" x="1653.767578"/>
     <use xlink:href="#DejaVuSans-69" x="1692.976562"/>
     <use xlink:href="#DejaVuSans-6f" x="1720.759766"/>
     <use xlink:href="#DejaVuSans-6e" x="1781.941406"/>
     <use xlink:href="#DejaVuSans-73" x="1845.320312"/>
    </g>
   </g>
  </g>
 </g>
 <defs>
  <clipPath id="pcd2dd5d2fe">
   <rect x="57.6" y="41.472" width="357.12" height="266.112"/>
  </clipPath>
 </defs>
</svg>
