<?xml version="1.0" encoding="utf-8" standalone="no"?>
<!DOCTYPE svg PUBLIC "-//W3C//DTD SVG 1.1//EN"
  "http://www.w3.org/Graphics/SVG/1.1/DTD/svg11.dtd">
<svg height="345.6pt" version="1.1" viewBox="0 0 460.8 345.6" width="460.8pt" xmlns="http://www.w3.org/2000/svg" xmlns:xlink="http://www.w3.org/1999/xlink">
 <metadata>
  <rdf:RDF xmlns:cc="http://creativecommons.org/ns#" xmlns:dc="http://purl.org/dc/elements/1.1/" xmlns:rdf="http://www.w3.org/1999/02/22-rdf-syntax-ns#">
   <cc:Work>
    <dc:type rdf:resource="http://purl.org/dc/dcmitype/StillImage"/>
    <dc:date>2022-04-21T16:19:51.752621</dc:date>
    <dc:format>image/svg+xml</dc:format>
    <dc:creator>
     <cc:Agent>
      <dc:title>Matplotlib v3.4.3, https://matplotlib.org/</dc:title>
     </cc:Agent>
    </dc:creator>
   </cc:Work>
  </rdf:RDF>
 </metadata>
 <defs>
  <style type="text/css">*{stroke-linecap:butt;stroke-linejoin:round;}</style>
 </defs>
 <g id="figure_1">
  <g id="patch_1">
   <path d="M 0 345.6 
L 460.8 345.6 
L 460.8 0 
L 0 0 
z
" style="fill:#ffffff;"/>
  </g>
  <g id="axes_1">
   <g id="patch_2">
    <path d="M 57.6 307.584 
L 414.72 307.584 
L 414.72 41.472 
L 57.6 41.472 
z
" style="fill:#ffffff;"/>
   </g>
   <g id="matplotlib.axis_1">
    <g id="xtick_1">
     <g id="line2d_1">
      <path clip-path="url(#pe6eb639011)" d="M 72.201297 307.584 
L 72.201297 41.472 
" style="fill:none;stroke:#cccccc;stroke-linecap:round;stroke-width:0.8;"/>
     </g>
     <g id="text_1">
      <!-- 0 -->
      <g style="fill:#262626;" transform="translate(69.020047 322.182437)scale(0.1 -0.1)">
       <defs>
        <path d="M 2034 4250 
Q 1547 4250 1301 3770 
Q 1056 3291 1056 2328 
Q 1056 1369 1301 889 
Q 1547 409 2034 409 
Q 2525 409 2770 889 
Q 3016 1369 3016 2328 
Q 3016 3291 2770 3770 
Q 2525 4250 2034 4250 
z
M 2034 4750 
Q 2819 4750 3233 4129 
Q 3647 3509 3647 2328 
Q 3647 1150 3233 529 
Q 2819 -91 2034 -91 
Q 1250 -91 836 529 
Q 422 1150 422 2328 
Q 422 3509 836 4129 
Q 1250 4750 2034 4750 
z
" id="DejaVuSans-30" transform="scale(0.015625)"/>
       </defs>
       <use xlink:href="#DejaVuSans-30"/>
      </g>
     </g>
    </g>
    <g id="xtick_2">
     <g id="line2d_2">
      <path clip-path="url(#pe6eb639011)" d="M 112.987044 307.584 
L 112.987044 41.472 
" style="fill:none;stroke:#cccccc;stroke-linecap:round;stroke-width:0.8;"/>
     </g>
     <g id="text_2">
      <!-- 25 -->
      <g style="fill:#262626;" transform="translate(106.624544 322.182437)scale(0.1 -0.1)">
       <defs>
        <path d="M 1228 531 
L 3431 531 
L 3431 0 
L 469 0 
L 469 531 
Q 828 903 1448 1529 
Q 2069 2156 2228 2338 
Q 2531 2678 2651 2914 
Q 2772 3150 2772 3378 
Q 2772 3750 2511 3984 
Q 2250 4219 1831 4219 
Q 1534 4219 1204 4116 
Q 875 4013 500 3803 
L 500 4441 
Q 881 4594 1212 4672 
Q 1544 4750 1819 4750 
Q 2544 4750 2975 4387 
Q 3406 4025 3406 3419 
Q 3406 3131 3298 2873 
Q 3191 2616 2906 2266 
Q 2828 2175 2409 1742 
Q 1991 1309 1228 531 
z
" id="DejaVuSans-32" transform="scale(0.015625)"/>
        <path d="M 691 4666 
L 3169 4666 
L 3169 4134 
L 1269 4134 
L 1269 2991 
Q 1406 3038 1543 3061 
Q 1681 3084 1819 3084 
Q 2600 3084 3056 2656 
Q 3513 2228 3513 1497 
Q 3513 744 3044 326 
Q 2575 -91 1722 -91 
Q 1428 -91 1123 -41 
Q 819 9 494 109 
L 494 744 
Q 775 591 1075 516 
Q 1375 441 1709 441 
Q 2250 441 2565 725 
Q 2881 1009 2881 1497 
Q 2881 1984 2565 2268 
Q 2250 2553 1709 2553 
Q 1456 2553 1204 2497 
Q 953 2441 691 2322 
L 691 4666 
z
" id="DejaVuSans-35" transform="scale(0.015625)"/>
       </defs>
       <use xlink:href="#DejaVuSans-32"/>
       <use x="63.623047" xlink:href="#DejaVuSans-35"/>
      </g>
     </g>
    </g>
    <g id="xtick_3">
     <g id="line2d_3">
      <path clip-path="url(#pe6eb639011)" d="M 153.772791 307.584 
L 153.772791 41.472 
" style="fill:none;stroke:#cccccc;stroke-linecap:round;stroke-width:0.8;"/>
     </g>
     <g id="text_3">
      <!-- 50 -->
      <g style="fill:#262626;" transform="translate(147.410291 322.182437)scale(0.1 -0.1)">
       <use xlink:href="#DejaVuSans-35"/>
       <use x="63.623047" xlink:href="#DejaVuSans-30"/>
      </g>
     </g>
    </g>
    <g id="xtick_4">
     <g id="line2d_4">
      <path clip-path="url(#pe6eb639011)" d="M 194.558538 307.584 
L 194.558538 41.472 
" style="fill:none;stroke:#cccccc;stroke-linecap:round;stroke-width:0.8;"/>
     </g>
     <g id="text_4">
      <!-- 75 -->
      <g style="fill:#262626;" transform="translate(188.196038 322.182437)scale(0.1 -0.1)">
       <defs>
        <path d="M 525 4666 
L 3525 4666 
L 3525 4397 
L 1831 0 
L 1172 0 
L 2766 4134 
L 525 4134 
L 525 4666 
z
" id="DejaVuSans-37" transform="scale(0.015625)"/>
       </defs>
       <use xlink:href="#DejaVuSans-37"/>
       <use x="63.623047" xlink:href="#DejaVuSans-35"/>
      </g>
     </g>
    </g>
    <g id="xtick_5">
     <g id="line2d_5">
      <path clip-path="url(#pe6eb639011)" d="M 235.344285 307.584 
L 235.344285 41.472 
" style="fill:none;stroke:#cccccc;stroke-linecap:round;stroke-width:0.8;"/>
     </g>
     <g id="text_5">
      <!-- 100 -->
      <g style="fill:#262626;" transform="translate(225.800535 322.182437)scale(0.1 -0.1)">
       <defs>
        <path d="M 794 531 
L 1825 531 
L 1825 4091 
L 703 3866 
L 703 4441 
L 1819 4666 
L 2450 4666 
L 2450 531 
L 3481 531 
L 3481 0 
L 794 0 
L 794 531 
z
" id="DejaVuSans-31" transform="scale(0.015625)"/>
       </defs>
       <use xlink:href="#DejaVuSans-31"/>
       <use x="63.623047" xlink:href="#DejaVuSans-30"/>
       <use x="127.246094" xlink:href="#DejaVuSans-30"/>
      </g>
     </g>
    </g>
    <g id="xtick_6">
     <g id="line2d_6">
      <path clip-path="url(#pe6eb639011)" d="M 276.130032 307.584 
L 276.130032 41.472 
" style="fill:none;stroke:#cccccc;stroke-linecap:round;stroke-width:0.8;"/>
     </g>
     <g id="text_6">
      <!-- 125 -->
      <g style="fill:#262626;" transform="translate(266.586282 322.182437)scale(0.1 -0.1)">
       <use xlink:href="#DejaVuSans-31"/>
       <use x="63.623047" xlink:href="#DejaVuSans-32"/>
       <use x="127.246094" xlink:href="#DejaVuSans-35"/>
      </g>
     </g>
    </g>
    <g id="xtick_7">
     <g id="line2d_7">
      <path clip-path="url(#pe6eb639011)" d="M 316.915779 307.584 
L 316.915779 41.472 
" style="fill:none;stroke:#cccccc;stroke-linecap:round;stroke-width:0.8;"/>
     </g>
     <g id="text_7">
      <!-- 150 -->
      <g style="fill:#262626;" transform="translate(307.372029 322.182437)scale(0.1 -0.1)">
       <use xlink:href="#DejaVuSans-31"/>
       <use x="63.623047" xlink:href="#DejaVuSans-35"/>
       <use x="127.246094" xlink:href="#DejaVuSans-30"/>
      </g>
     </g>
    </g>
    <g id="xtick_8">
     <g id="line2d_8">
      <path clip-path="url(#pe6eb639011)" d="M 357.701526 307.584 
L 357.701526 41.472 
" style="fill:none;stroke:#cccccc;stroke-linecap:round;stroke-width:0.8;"/>
     </g>
     <g id="text_8">
      <!-- 175 -->
      <g style="fill:#262626;" transform="translate(348.157776 322.182437)scale(0.1 -0.1)">
       <use xlink:href="#DejaVuSans-31"/>
       <use x="63.623047" xlink:href="#DejaVuSans-37"/>
       <use x="127.246094" xlink:href="#DejaVuSans-35"/>
      </g>
     </g>
    </g>
    <g id="xtick_9">
     <g id="line2d_9">
      <path clip-path="url(#pe6eb639011)" d="M 398.487273 307.584 
L 398.487273 41.472 
" style="fill:none;stroke:#cccccc;stroke-linecap:round;stroke-width:0.8;"/>
     </g>
     <g id="text_9">
      <!-- 200 -->
      <g style="fill:#262626;" transform="translate(388.943523 322.182437)scale(0.1 -0.1)">
       <use xlink:href="#DejaVuSans-32"/>
       <use x="63.623047" xlink:href="#DejaVuSans-30"/>
       <use x="127.246094" xlink:href="#DejaVuSans-30"/>
      </g>
     </g>
    </g>
    <g id="text_10">
     <!-- Iteration -->
     <g style="fill:#262626;" transform="translate(214.951406 335.860562)scale(0.1 -0.1)">
      <defs>
       <path d="M 628 4666 
L 1259 4666 
L 1259 0 
L 628 0 
L 628 4666 
z
" id="DejaVuSans-49" transform="scale(0.015625)"/>
       <path d="M 1172 4494 
L 1172 3500 
L 2356 3500 
L 2356 3053 
L 1172 3053 
L 1172 1153 
Q 1172 725 1289 603 
Q 1406 481 1766 481 
L 2356 481 
L 2356 0 
L 1766 0 
Q 1100 0 847 248 
Q 594 497 594 1153 
L 594 3053 
L 172 3053 
L 172 3500 
L 594 3500 
L 594 4494 
L 1172 4494 
z
" id="DejaVuSans-74" transform="scale(0.015625)"/>
       <path d="M 3597 1894 
L 3597 1613 
L 953 1613 
Q 991 1019 1311 708 
Q 1631 397 2203 397 
Q 2534 397 2845 478 
Q 3156 559 3463 722 
L 3463 178 
Q 3153 47 2828 -22 
Q 2503 -91 2169 -91 
Q 1331 -91 842 396 
Q 353 884 353 1716 
Q 353 2575 817 3079 
Q 1281 3584 2069 3584 
Q 2775 3584 3186 3129 
Q 3597 2675 3597 1894 
z
M 3022 2063 
Q 3016 2534 2758 2815 
Q 2500 3097 2075 3097 
Q 1594 3097 1305 2825 
Q 1016 2553 972 2059 
L 3022 2063 
z
" id="DejaVuSans-65" transform="scale(0.015625)"/>
       <path d="M 2631 2963 
Q 2534 3019 2420 3045 
Q 2306 3072 2169 3072 
Q 1681 3072 1420 2755 
Q 1159 2438 1159 1844 
L 1159 0 
L 581 0 
L 581 3500 
L 1159 3500 
L 1159 2956 
Q 1341 3275 1631 3429 
Q 1922 3584 2338 3584 
Q 2397 3584 2469 3576 
Q 2541 3569 2628 3553 
L 2631 2963 
z
" id="DejaVuSans-72" transform="scale(0.015625)"/>
       <path d="M 2194 1759 
Q 1497 1759 1228 1600 
Q 959 1441 959 1056 
Q 959 750 1161 570 
Q 1363 391 1709 391 
Q 2188 391 2477 730 
Q 2766 1069 2766 1631 
L 2766 1759 
L 2194 1759 
z
M 3341 1997 
L 3341 0 
L 2766 0 
L 2766 531 
Q 2569 213 2275 61 
Q 1981 -91 1556 -91 
Q 1019 -91 701 211 
Q 384 513 384 1019 
Q 384 1609 779 1909 
Q 1175 2209 1959 2209 
L 2766 2209 
L 2766 2266 
Q 2766 2663 2505 2880 
Q 2244 3097 1772 3097 
Q 1472 3097 1187 3025 
Q 903 2953 641 2809 
L 641 3341 
Q 956 3463 1253 3523 
Q 1550 3584 1831 3584 
Q 2591 3584 2966 3190 
Q 3341 2797 3341 1997 
z
" id="DejaVuSans-61" transform="scale(0.015625)"/>
       <path d="M 603 3500 
L 1178 3500 
L 1178 0 
L 603 0 
L 603 3500 
z
M 603 4863 
L 1178 4863 
L 1178 4134 
L 603 4134 
L 603 4863 
z
" id="DejaVuSans-69" transform="scale(0.015625)"/>
       <path d="M 1959 3097 
Q 1497 3097 1228 2736 
Q 959 2375 959 1747 
Q 959 1119 1226 758 
Q 1494 397 1959 397 
Q 2419 397 2687 759 
Q 2956 1122 2956 1747 
Q 2956 2369 2687 2733 
Q 2419 3097 1959 3097 
z
M 1959 3584 
Q 2709 3584 3137 3096 
Q 3566 2609 3566 1747 
Q 3566 888 3137 398 
Q 2709 -91 1959 -91 
Q 1206 -91 779 398 
Q 353 888 353 1747 
Q 353 2609 779 3096 
Q 1206 3584 1959 3584 
z
" id="DejaVuSans-6f" transform="scale(0.015625)"/>
       <path d="M 3513 2113 
L 3513 0 
L 2938 0 
L 2938 2094 
Q 2938 2591 2744 2837 
Q 2550 3084 2163 3084 
Q 1697 3084 1428 2787 
Q 1159 2491 1159 1978 
L 1159 0 
L 581 0 
L 581 3500 
L 1159 3500 
L 1159 2956 
Q 1366 3272 1645 3428 
Q 1925 3584 2291 3584 
Q 2894 3584 3203 3211 
Q 3513 2838 3513 2113 
z
" id="DejaVuSans-6e" transform="scale(0.015625)"/>
      </defs>
      <use xlink:href="#DejaVuSans-49"/>
      <use x="29.492188" xlink:href="#DejaVuSans-74"/>
      <use x="68.701172" xlink:href="#DejaVuSans-65"/>
      <use x="130.224609" xlink:href="#DejaVuSans-72"/>
      <use x="171.337891" xlink:href="#DejaVuSans-61"/>
      <use x="232.617188" xlink:href="#DejaVuSans-74"/>
      <use x="271.826172" xlink:href="#DejaVuSans-69"/>
      <use x="299.609375" xlink:href="#DejaVuSans-6f"/>
      <use x="360.791016" xlink:href="#DejaVuSans-6e"/>
     </g>
    </g>
   </g>
   <g id="matplotlib.axis_2">
    <g id="ytick_1">
     <g id="line2d_10">
      <path clip-path="url(#pe6eb639011)" d="M 57.6 281.308773 
L 414.72 281.308773 
" style="fill:none;stroke:#cccccc;stroke-linecap:round;stroke-width:0.8;"/>
     </g>
     <g id="text_11">
      <!-- 0.60 -->
      <g style="fill:#262626;" transform="translate(28.334375 285.107992)scale(0.1 -0.1)">
       <defs>
        <path d="M 684 794 
L 1344 794 
L 1344 0 
L 684 0 
L 684 794 
z
" id="DejaVuSans-2e" transform="scale(0.015625)"/>
        <path d="M 2113 2584 
Q 1688 2584 1439 2293 
Q 1191 2003 1191 1497 
Q 1191 994 1439 701 
Q 1688 409 2113 409 
Q 2538 409 2786 701 
Q 3034 994 3034 1497 
Q 3034 2003 2786 2293 
Q 2538 2584 2113 2584 
z
M 3366 4563 
L 3366 3988 
Q 3128 4100 2886 4159 
Q 2644 4219 2406 4219 
Q 1781 4219 1451 3797 
Q 1122 3375 1075 2522 
Q 1259 2794 1537 2939 
Q 1816 3084 2150 3084 
Q 2853 3084 3261 2657 
Q 3669 2231 3669 1497 
Q 3669 778 3244 343 
Q 2819 -91 2113 -91 
Q 1303 -91 875 529 
Q 447 1150 447 2328 
Q 447 3434 972 4092 
Q 1497 4750 2381 4750 
Q 2619 4750 2861 4703 
Q 3103 4656 3366 4563 
z
" id="DejaVuSans-36" transform="scale(0.015625)"/>
       </defs>
       <use xlink:href="#DejaVuSans-30"/>
       <use x="63.623047" xlink:href="#DejaVuSans-2e"/>
       <use x="95.410156" xlink:href="#DejaVuSans-36"/>
       <use x="159.033203" xlink:href="#DejaVuSans-30"/>
      </g>
     </g>
    </g>
    <g id="ytick_2">
     <g id="line2d_11">
      <path clip-path="url(#pe6eb639011)" d="M 57.6 232.215377 
L 414.72 232.215377 
" style="fill:none;stroke:#cccccc;stroke-linecap:round;stroke-width:0.8;"/>
     </g>
     <g id="text_12">
      <!-- 0.65 -->
      <g style="fill:#262626;" transform="translate(28.334375 236.014596)scale(0.1 -0.1)">
       <use xlink:href="#DejaVuSans-30"/>
       <use x="63.623047" xlink:href="#DejaVuSans-2e"/>
       <use x="95.410156" xlink:href="#DejaVuSans-36"/>
       <use x="159.033203" xlink:href="#DejaVuSans-35"/>
      </g>
     </g>
    </g>
    <g id="ytick_3">
     <g id="line2d_12">
      <path clip-path="url(#pe6eb639011)" d="M 57.6 183.12198 
L 414.72 183.12198 
" style="fill:none;stroke:#cccccc;stroke-linecap:round;stroke-width:0.8;"/>
     </g>
     <g id="text_13">
      <!-- 0.70 -->
      <g style="fill:#262626;" transform="translate(28.334375 186.921199)scale(0.1 -0.1)">
       <use xlink:href="#DejaVuSans-30"/>
       <use x="63.623047" xlink:href="#DejaVuSans-2e"/>
       <use x="95.410156" xlink:href="#DejaVuSans-37"/>
       <use x="159.033203" xlink:href="#DejaVuSans-30"/>
      </g>
     </g>
    </g>
    <g id="ytick_4">
     <g id="line2d_13">
      <path clip-path="url(#pe6eb639011)" d="M 57.6 134.028584 
L 414.72 134.028584 
" style="fill:none;stroke:#cccccc;stroke-linecap:round;stroke-width:0.8;"/>
     </g>
     <g id="text_14">
      <!-- 0.75 -->
      <g style="fill:#262626;" transform="translate(28.334375 137.827802)scale(0.1 -0.1)">
       <use xlink:href="#DejaVuSans-30"/>
       <use x="63.623047" xlink:href="#DejaVuSans-2e"/>
       <use x="95.410156" xlink:href="#DejaVuSans-37"/>
       <use x="159.033203" xlink:href="#DejaVuSans-35"/>
      </g>
     </g>
    </g>
    <g id="ytick_5">
     <g id="line2d_14">
      <path clip-path="url(#pe6eb639011)" d="M 57.6 84.935187 
L 414.72 84.935187 
" style="fill:none;stroke:#cccccc;stroke-linecap:round;stroke-width:0.8;"/>
     </g>
     <g id="text_15">
      <!-- 0.80 -->
      <g style="fill:#262626;" transform="translate(28.334375 88.734406)scale(0.1 -0.1)">
       <defs>
        <path d="M 2034 2216 
Q 1584 2216 1326 1975 
Q 1069 1734 1069 1313 
Q 1069 891 1326 650 
Q 1584 409 2034 409 
Q 2484 409 2743 651 
Q 3003 894 3003 1313 
Q 3003 1734 2745 1975 
Q 2488 2216 2034 2216 
z
M 1403 2484 
Q 997 2584 770 2862 
Q 544 3141 544 3541 
Q 544 4100 942 4425 
Q 1341 4750 2034 4750 
Q 2731 4750 3128 4425 
Q 3525 4100 3525 3541 
Q 3525 3141 3298 2862 
Q 3072 2584 2669 2484 
Q 3125 2378 3379 2068 
Q 3634 1759 3634 1313 
Q 3634 634 3220 271 
Q 2806 -91 2034 -91 
Q 1263 -91 848 271 
Q 434 634 434 1313 
Q 434 1759 690 2068 
Q 947 2378 1403 2484 
z
M 1172 3481 
Q 1172 3119 1398 2916 
Q 1625 2713 2034 2713 
Q 2441 2713 2670 2916 
Q 2900 3119 2900 3481 
Q 2900 3844 2670 4047 
Q 2441 4250 2034 4250 
Q 1625 4250 1398 4047 
Q 1172 3844 1172 3481 
z
" id="DejaVuSans-38" transform="scale(0.015625)"/>
       </defs>
       <use xlink:href="#DejaVuSans-30"/>
       <use x="63.623047" xlink:href="#DejaVuSans-2e"/>
       <use x="95.410156" xlink:href="#DejaVuSans-38"/>
       <use x="159.033203" xlink:href="#DejaVuSans-30"/>
      </g>
     </g>
    </g>
    <g id="text_16">
     <!-- Auroc -->
     <g style="fill:#262626;" transform="translate(22.254688 188.868625)rotate(-90)scale(0.1 -0.1)">
      <defs>
       <path d="M 2188 4044 
L 1331 1722 
L 3047 1722 
L 2188 4044 
z
M 1831 4666 
L 2547 4666 
L 4325 0 
L 3669 0 
L 3244 1197 
L 1141 1197 
L 716 0 
L 50 0 
L 1831 4666 
z
" id="DejaVuSans-41" transform="scale(0.015625)"/>
       <path d="M 544 1381 
L 544 3500 
L 1119 3500 
L 1119 1403 
Q 1119 906 1312 657 
Q 1506 409 1894 409 
Q 2359 409 2629 706 
Q 2900 1003 2900 1516 
L 2900 3500 
L 3475 3500 
L 3475 0 
L 2900 0 
L 2900 538 
Q 2691 219 2414 64 
Q 2138 -91 1772 -91 
Q 1169 -91 856 284 
Q 544 659 544 1381 
z
M 1991 3584 
L 1991 3584 
z
" id="DejaVuSans-75" transform="scale(0.015625)"/>
       <path d="M 3122 3366 
L 3122 2828 
Q 2878 2963 2633 3030 
Q 2388 3097 2138 3097 
Q 1578 3097 1268 2742 
Q 959 2388 959 1747 
Q 959 1106 1268 751 
Q 1578 397 2138 397 
Q 2388 397 2633 464 
Q 2878 531 3122 666 
L 3122 134 
Q 2881 22 2623 -34 
Q 2366 -91 2075 -91 
Q 1284 -91 818 406 
Q 353 903 353 1747 
Q 353 2603 823 3093 
Q 1294 3584 2113 3584 
Q 2378 3584 2631 3529 
Q 2884 3475 3122 3366 
z
" id="DejaVuSans-63" transform="scale(0.015625)"/>
      </defs>
      <use xlink:href="#DejaVuSans-41"/>
      <use x="68.408203" xlink:href="#DejaVuSans-75"/>
      <use x="131.787109" xlink:href="#DejaVuSans-72"/>
      <use x="170.650391" xlink:href="#DejaVuSans-6f"/>
      <use x="231.832031" xlink:href="#DejaVuSans-63"/>
     </g>
    </g>
   </g>
   <g id="PolyCollection_1">
    <defs>
     <path d="M 73.832727 -258.527424 
L 73.832727 -204.890161 
L 75.464157 -166.180977 
L 77.095587 -162.379347 
L 78.727017 -158.749875 
L 80.358447 -129.570834 
L 81.989877 -154.157179 
L 83.621307 -175.821686 
L 85.252736 -161.184789 
L 86.884166 -142.486539 
L 88.515596 -146.09117 
L 90.147026 -182.717035 
L 91.778456 -158.47174 
L 93.409886 -132.582498 
L 95.041316 -131.277251 
L 96.672746 -141.997728 
L 98.304175 -167.135293 
L 99.935605 -195.882245 
L 101.567035 -114.554711 
L 103.198465 -123.011655 
L 104.829895 -180.630727 
L 106.461325 -229.111761 
L 108.092755 -170.431093 
L 109.724185 -191.684122 
L 111.355614 -206.651643 
L 112.987044 -203.428656 
L 114.618474 -132.10076 
L 116.249904 -210.643559 
L 117.881334 -182.763389 
L 119.512764 -148.796247 
L 121.144194 -138.601138 
L 122.775624 -173.741701 
L 124.407053 -150.530748 
L 126.038483 -157.276503 
L 127.669913 -149.165662 
L 129.301343 -154.213554 
L 130.932773 -149.984322 
L 132.564203 -147.229409 
L 134.195633 -144.307492 
L 135.827063 -91.836605 
L 137.458492 -171.490988 
L 139.089922 -188.545817 
L 140.721352 -176.421953 
L 142.352782 -186.346378 
L 143.984212 -108.010657 
L 145.615642 -139.009219 
L 147.247072 -178.282926 
L 148.878502 -216.231283 
L 150.509931 -181.88975 
L 152.141361 -189.733431 
L 153.772791 -142.281016 
L 155.404221 -169.172718 
L 157.035651 -159.852916 
L 158.667081 -175.133781 
L 160.298511 -199.099728 
L 161.929941 -198.852611 
L 163.56137 -218.066106 
L 165.1928 -173.028064 
L 166.82423 -155.913892 
L 168.45566 -106.146037 
L 170.08709 -153.567003 
L 171.71852 -153.975384 
L 173.34995 -166.003483 
L 174.98138 -196.087238 
L 176.61281 -158.999412 
L 178.244239 -137.821705 
L 179.875669 -136.667661 
L 181.507099 -162.848823 
L 183.138529 -201.904291 
L 184.769959 -133.501896 
L 186.401389 -180.814564 
L 188.032819 -219.66224 
L 189.664249 -99.999621 
L 191.295678 -191.436694 
L 192.927108 -140.138308 
L 194.558538 -212.154046 
L 196.189968 -173.113522 
L 197.821398 -163.298729 
L 199.452828 -171.742828 
L 201.084258 -187.185103 
L 202.715688 -109.557451 
L 204.347117 -174.818527 
L 205.978547 -202.403104 
L 207.609977 -179.439689 
L 209.241407 -179.933743 
L 210.872837 -163.799362 
L 212.504267 -183.358333 
L 214.135697 -132.743686 
L 215.767127 -146.136738 
L 217.398556 -163.63497 
L 219.029986 -197.175485 
L 220.661416 -172.418559 
L 222.292846 -205.591664 
L 223.924276 -174.766365 
L 225.555706 -166.689772 
L 227.187136 -152.096772 
L 228.818566 -160.038304 
L 230.449995 -138.168114 
L 232.081425 -132.040914 
L 233.712855 -195.410702 
L 235.344285 -166.201996 
L 236.975715 -184.363443 
L 238.607145 -177.962159 
L 240.238575 -142.198988 
L 241.870005 -172.943485 
L 243.501434 -148.584611 
L 245.132864 -153.986519 
L 246.764294 -136.016409 
L 248.395724 -155.156258 
L 250.027154 -161.090797 
L 251.658584 -151.203578 
L 253.290014 -144.016826 
L 254.921444 -147.1809 
L 256.552873 -173.575435 
L 258.184303 -143.452784 
L 259.815733 -123.18083 
L 261.447163 -120.495762 
L 263.078593 -115.836139 
L 264.710023 -174.693799 
L 266.341453 -161.768675 
L 267.972883 -180.009336 
L 269.604312 -100.900378 
L 271.235742 -148.690309 
L 272.867172 -159.635892 
L 274.498602 -191.147202 
L 276.130032 -82.266562 
L 277.761462 -168.031029 
L 279.392892 -170.924831 
L 281.024322 -126.588027 
L 282.655751 -148.449624 
L 284.287181 -148.818972 
L 285.918611 -141.01559 
L 287.550041 -159.569494 
L 289.181471 -195.318259 
L 290.812901 -170.27887 
L 292.444331 -163.833803 
L 294.075761 -219.461554 
L 295.70719 -139.918922 
L 297.33862 -179.413323 
L 298.97005 -164.648132 
L 300.60148 -162.012775 
L 302.23291 -163.453322 
L 303.86434 -153.86103 
L 305.49577 -100.137994 
L 307.1272 -179.417517 
L 308.75863 -136.027797 
L 310.390059 -117.474236 
L 312.021489 -156.062704 
L 313.652919 -179.004006 
L 315.284349 -150.58618 
L 316.915779 -182.162963 
L 318.547209 -130.453451 
L 320.178639 -164.78315 
L 321.810069 -163.767722 
L 323.441498 -183.126579 
L 325.072928 -134.595644 
L 326.704358 -108.985011 
L 328.335788 -174.291435 
L 329.967218 -190.581946 
L 331.598648 -184.955188 
L 333.230078 -177.656 
L 334.861508 -160.576853 
L 336.492937 -177.103166 
L 338.124367 -126.188699 
L 339.755797 -137.581452 
L 341.387227 -173.078585 
L 343.018657 -161.478157 
L 344.650087 -191.369471 
L 346.281517 -140.242629 
L 347.912947 -192.121395 
L 349.544376 -119.143249 
L 351.175806 -137.911918 
L 352.807236 -128.008699 
L 354.438666 -142.515017 
L 356.070096 -115.946995 
L 357.701526 -134.854164 
L 359.332956 -204.826794 
L 360.964386 -152.925966 
L 362.595815 -146.351685 
L 364.227245 -159.066585 
L 365.858675 -128.31766 
L 367.490105 -176.251087 
L 369.121535 -149.370878 
L 370.752965 -149.293307 
L 372.384395 -145.710288 
L 374.015825 -103.553685 
L 375.647254 -50.112 
L 377.278684 -129.879492 
L 378.910114 -142.273167 
L 380.541544 -164.668702 
L 382.172974 -191.299194 
L 383.804404 -143.781388 
L 385.435834 -133.16054 
L 387.067264 -196.803906 
L 388.698693 -139.469465 
L 390.330123 -172.516958 
L 391.961553 -197.537559 
L 393.592983 -126.226716 
L 395.224413 -178.253132 
L 396.855843 -123.213701 
L 398.487273 -177.548234 
L 398.487273 -219.678633 
L 398.487273 -219.678633 
L 396.855843 -227.736743 
L 395.224413 -251.820463 
L 393.592983 -215.656403 
L 391.961553 -266.919069 
L 390.330123 -248.04285 
L 388.698693 -238.193923 
L 387.067264 -254.155651 
L 385.435834 -242.640542 
L 383.804404 -258.74269 
L 382.172974 -249.233062 
L 380.541544 -260.187307 
L 378.910114 -262.133282 
L 377.278684 -263.081368 
L 375.647254 -192.918409 
L 374.015825 -236.992168 
L 372.384395 -231.629747 
L 370.752965 -219.887437 
L 369.121535 -227.840733 
L 367.490105 -253.327012 
L 365.858675 -271.701448 
L 364.227245 -242.95886 
L 362.595815 -253.57702 
L 360.964386 -203.069043 
L 359.332956 -257.70638 
L 357.701526 -264.413375 
L 356.070096 -276.262115 
L 354.438666 -275.819444 
L 352.807236 -242.560525 
L 351.175806 -274.125246 
L 349.544376 -240.523553 
L 347.912947 -240.858914 
L 346.281517 -267.998224 
L 344.650087 -277.5153 
L 343.018657 -246.804366 
L 341.387227 -271.943411 
L 339.755797 -217.054719 
L 338.124367 -258.064227 
L 336.492937 -240.576894 
L 334.861508 -282.241142 
L 333.230078 -201.552646 
L 331.598648 -244.939838 
L 329.967218 -289.449303 
L 328.335788 -266.54603 
L 326.704358 -254.709246 
L 325.072928 -240.998329 
L 323.441498 -254.495438 
L 321.810069 -258.806854 
L 320.178639 -257.912535 
L 318.547209 -225.078916 
L 316.915779 -261.280706 
L 315.284349 -286.052617 
L 313.652919 -224.80295 
L 312.021489 -219.123301 
L 310.390059 -239.360162 
L 308.75863 -235.004207 
L 307.1272 -273.376507 
L 305.49577 -235.199755 
L 303.86434 -221.432441 
L 302.23291 -239.40075 
L 300.60148 -243.767493 
L 298.97005 -233.463356 
L 297.33862 -272.948919 
L 295.70719 -236.983015 
L 294.075761 -276.313464 
L 292.444331 -184.367935 
L 290.812901 -281.043655 
L 289.181471 -264.114952 
L 287.550041 -229.479471 
L 285.918611 -193.681741 
L 284.287181 -248.736406 
L 282.655751 -228.435444 
L 281.024322 -241.459459 
L 279.392892 -249.27542 
L 277.761462 -240.975109 
L 276.130032 -250.458142 
L 274.498602 -252.153112 
L 272.867172 -247.74641 
L 271.235742 -246.507205 
L 269.604312 -223.348524 
L 267.972883 -219.286867 
L 266.341453 -215.961056 
L 264.710023 -229.066502 
L 263.078593 -251.586951 
L 261.447163 -241.784869 
L 259.815733 -236.737126 
L 258.184303 -234.154629 
L 256.552873 -245.394799 
L 254.921444 -237.851412 
L 253.290014 -217.073745 
L 251.658584 -196.522095 
L 250.027154 -234.632054 
L 248.395724 -207.916755 
L 246.764294 -228.417681 
L 245.132864 -249.227982 
L 243.501434 -224.375288 
L 241.870005 -249.613913 
L 240.238575 -222.216564 
L 238.607145 -230.297403 
L 236.975715 -230.911427 
L 235.344285 -255.36245 
L 233.712855 -252.103865 
L 232.081425 -244.416745 
L 230.449995 -233.838802 
L 228.818566 -248.535187 
L 227.187136 -223.339935 
L 225.555706 -221.293184 
L 223.924276 -240.258477 
L 222.292846 -260.792284 
L 220.661416 -225.415653 
L 219.029986 -292.032 
L 217.398556 -258.899681 
L 215.767127 -191.544774 
L 214.135697 -237.040299 
L 212.504267 -234.641569 
L 210.872837 -213.648378 
L 209.241407 -242.573942 
L 207.609977 -233.760204 
L 205.978547 -264.8553 
L 204.347117 -265.467967 
L 202.715688 -275.826296 
L 201.084258 -270.783512 
L 199.452828 -265.705962 
L 197.821398 -198.831532 
L 196.189968 -231.533795 
L 194.558538 -249.067472 
L 192.927108 -211.245016 
L 191.295678 -258.179551 
L 189.664249 -237.834247 
L 188.032819 -264.416317 
L 186.401389 -227.03268 
L 184.769959 -229.322492 
L 183.138529 -266.805575 
L 181.507099 -222.436725 
L 179.875669 -270.915552 
L 178.244239 -261.947466 
L 176.61281 -259.530903 
L 174.98138 -242.044052 
L 173.34995 -263.41202 
L 171.71852 -232.748594 
L 170.08709 -222.461603 
L 168.45566 -267.797277 
L 166.82423 -207.313143 
L 165.1928 -229.09805 
L 163.56137 -243.888342 
L 161.929941 -228.278165 
L 160.298511 -251.791923 
L 158.667081 -220.39109 
L 157.035651 -255.79229 
L 155.404221 -234.767044 
L 153.772791 -225.356392 
L 152.141361 -281.435097 
L 150.509931 -235.901445 
L 148.878502 -262.014847 
L 147.247072 -251.059607 
L 145.615642 -246.523499 
L 143.984212 -233.849363 
L 142.352782 -255.618796 
L 140.721352 -270.001368 
L 139.089922 -235.130665 
L 137.458492 -228.654272 
L 135.827063 -263.969425 
L 134.195633 -248.084905 
L 132.564203 -266.255421 
L 130.932773 -230.319789 
L 129.301343 -242.464361 
L 127.669913 -235.399777 
L 126.038483 -252.642197 
L 124.407053 -241.834822 
L 122.775624 -236.541188 
L 121.144194 -229.158449 
L 119.512764 -261.756977 
L 117.881334 -277.444807 
L 116.249904 -270.849672 
L 114.618474 -267.525873 
L 112.987044 -280.481491 
L 111.355614 -234.026906 
L 109.724185 -254.01976 
L 108.092755 -268.792291 
L 106.461325 -270.46924 
L 104.829895 -262.697187 
L 103.198465 -228.380175 
L 101.567035 -216.940235 
L 99.935605 -253.8749 
L 98.304175 -206.876629 
L 96.672746 -250.650935 
L 95.041316 -213.862303 
L 93.409886 -280.144094 
L 91.778456 -222.9343 
L 90.147026 -234.58307 
L 88.515596 -259.497586 
L 86.884166 -214.130475 
L 85.252736 -280.120799 
L 83.621307 -253.292669 
L 81.989877 -249.240384 
L 80.358447 -200.265525 
L 78.727017 -232.256992 
L 77.095587 -284.348231 
L 75.464157 -287.771307 
L 73.832727 -258.527424 
z
" id="mc29b9b9a3d" style="stroke:#ffffff;stroke-opacity:0.2;"/>
    </defs>
    <g clip-path="url(#pe6eb639011)">
     <use style="fill:#1f77b4;fill-opacity:0.2;stroke:#ffffff;stroke-opacity:0.2;" x="0" xlink:href="#mc29b9b9a3d" y="345.6"/>
    </g>
   </g>
   <g id="LineCollection_1">
    <path clip-path="url(#pe6eb639011)" d="M 398.487273 295.488 
L 398.487273 53.568 
" style="fill:none;stroke:#1f77b4;stroke-dasharray:5.55,2.4;stroke-dashoffset:0;stroke-width:1.5;"/>
   </g>
   <g id="line2d_15">
    <path clip-path="url(#pe6eb639011)" d="M 73.832727 113.891208 
L 75.464157 118.623858 
L 77.095587 122.236211 
L 78.727017 150.096566 
L 80.358447 180.68182 
L 81.989877 143.901218 
L 83.621307 131.042823 
L 85.252736 124.947206 
L 86.884166 167.291493 
L 88.515596 142.805622 
L 90.147026 136.949948 
L 91.778456 154.89698 
L 93.409886 139.236704 
L 95.041316 173.030223 
L 96.672746 149.275668 
L 98.304175 158.594039 
L 99.935605 120.721428 
L 101.567035 179.852527 
L 103.198465 169.904085 
L 104.829895 123.936043 
L 106.461325 95.809499 
L 108.092755 125.988308 
L 109.724185 122.748059 
L 111.355614 125.260725 
L 112.987044 103.644926 
L 114.618474 145.786684 
L 116.249904 104.853384 
L 117.881334 115.495902 
L 119.512764 140.323388 
L 121.144194 161.720206 
L 122.775624 140.458556 
L 124.407053 149.417215 
L 126.038483 140.64065 
L 127.669913 153.317281 
L 129.301343 147.261042 
L 130.932773 155.447945 
L 132.564203 138.857585 
L 134.195633 149.403801 
L 135.827063 167.696985 
L 137.458492 145.52737 
L 140.721352 122.38834 
L 142.352782 124.617413 
L 143.984212 174.66999 
L 147.247072 130.928733 
L 148.878502 106.476935 
L 150.509931 136.704403 
L 152.141361 110.015736 
L 153.772791 161.781296 
L 155.404221 143.630119 
L 157.035651 137.777397 
L 158.667081 147.837565 
L 160.298511 120.154174 
L 161.929941 132.034612 
L 163.56137 114.622776 
L 165.1928 144.536943 
L 166.82423 163.986483 
L 168.45566 158.628343 
L 170.08709 157.585697 
L 171.71852 152.238011 
L 173.34995 130.892248 
L 174.98138 126.534355 
L 178.244239 145.715415 
L 179.875669 141.808394 
L 181.507099 152.957226 
L 183.138529 111.245067 
L 184.769959 164.187806 
L 186.401389 141.676378 
L 188.032819 103.560722 
L 189.664249 176.683066 
L 191.295678 120.791878 
L 192.927108 169.908338 
L 194.558538 114.989241 
L 196.189968 143.276342 
L 197.821398 164.53487 
L 199.452828 126.875605 
L 201.084258 116.615692 
L 202.715688 152.908126 
L 204.347117 125.456753 
L 205.978547 111.970798 
L 207.609977 139.000054 
L 209.241407 134.346157 
L 210.872837 156.87613 
L 212.504267 136.600049 
L 214.135697 160.708008 
L 215.767127 176.759244 
L 217.398556 134.332674 
L 219.029986 100.996258 
L 220.661416 146.682894 
L 222.292846 112.408026 
L 223.924276 138.087579 
L 225.555706 151.608522 
L 227.187136 157.881646 
L 228.818566 141.313254 
L 230.449995 159.596542 
L 232.081425 157.37117 
L 233.712855 121.842717 
L 235.344285 134.817777 
L 236.975715 137.962565 
L 238.607145 141.470219 
L 240.238575 163.392224 
L 241.870005 134.321301 
L 243.501434 159.12005 
L 245.132864 143.992749 
L 246.764294 163.382955 
L 248.395724 164.063494 
L 250.027154 147.738575 
L 251.658584 171.737164 
L 253.290014 165.054714 
L 254.921444 153.083844 
L 256.552873 136.114883 
L 258.184303 156.796293 
L 259.815733 165.641022 
L 261.447163 164.459685 
L 263.078593 161.888455 
L 264.710023 143.71985 
L 266.341453 156.735135 
L 267.972883 145.951899 
L 269.604312 183.475549 
L 271.235742 148.001243 
L 272.867172 141.908849 
L 274.498602 123.949843 
L 276.130032 179.237648 
L 277.761462 141.096931 
L 279.392892 135.499875 
L 281.024322 161.576257 
L 282.655751 157.157466 
L 284.287181 146.822311 
L 285.918611 178.251334 
L 287.550041 151.075517 
L 289.181471 115.883395 
L 290.812901 119.938738 
L 292.444331 171.499131 
L 294.075761 97.712491 
L 295.70719 157.149032 
L 297.33862 119.418879 
L 298.97005 146.544256 
L 300.60148 142.709866 
L 302.23291 144.172964 
L 303.86434 157.953264 
L 305.49577 177.931126 
L 307.1272 119.202988 
L 308.75863 160.083998 
L 310.390059 167.182801 
L 312.021489 158.006998 
L 313.652919 143.696522 
L 315.284349 127.280602 
L 316.915779 123.878166 
L 318.547209 167.833816 
L 320.178639 134.252158 
L 321.810069 134.312712 
L 323.441498 126.788991 
L 325.072928 157.803013 
L 326.704358 163.752872 
L 328.335788 125.181267 
L 329.967218 105.584375 
L 333.230078 155.995677 
L 334.861508 124.191002 
L 336.492937 136.75997 
L 338.124367 153.473537 
L 339.755797 168.281914 
L 341.387227 123.089002 
L 343.018657 141.458739 
L 344.650087 111.157615 
L 346.281517 141.479574 
L 347.912947 129.109846 
L 349.544376 165.766599 
L 351.175806 139.581418 
L 352.807236 160.315388 
L 354.438666 136.43277 
L 356.070096 149.495445 
L 357.701526 145.96623 
L 359.332956 114.333413 
L 360.964386 167.602496 
L 362.595815 145.635648 
L 364.227245 144.587277 
L 365.858675 145.590446 
L 367.490105 130.81095 
L 369.121535 156.994194 
L 370.752965 161.009628 
L 372.384395 156.929982 
L 374.015825 175.327073 
L 375.647254 224.084795 
L 377.278684 149.11957 
L 378.910114 143.396776 
L 380.541544 133.171995 
L 382.172974 125.333872 
L 383.804404 144.337961 
L 385.435834 157.699459 
L 387.067264 120.120221 
L 388.698693 156.768306 
L 391.961553 113.371686 
L 393.592983 174.658441 
L 395.224413 130.563202 
L 396.855843 170.124778 
L 398.487273 146.986566 
L 398.487273 146.986566 
" style="fill:none;stroke:#1f77b4;stroke-linecap:round;stroke-width:1.5;"/>
   </g>
   <g id="patch_3">
    <path d="M 57.6 307.584 
L 57.6 41.472 
" style="fill:none;stroke:#cccccc;stroke-linecap:square;stroke-linejoin:miter;stroke-width:0.8;"/>
   </g>
   <g id="patch_4">
    <path d="M 414.72 307.584 
L 414.72 41.472 
" style="fill:none;stroke:#cccccc;stroke-linecap:square;stroke-linejoin:miter;stroke-width:0.8;"/>
   </g>
   <g id="patch_5">
    <path d="M 57.6 307.584 
L 414.72 307.584 
" style="fill:none;stroke:#cccccc;stroke-linecap:square;stroke-linejoin:miter;stroke-width:0.8;"/>
   </g>
   <g id="patch_6">
    <path d="M 57.6 41.472 
L 414.72 41.472 
" style="fill:none;stroke:#cccccc;stroke-linecap:square;stroke-linejoin:miter;stroke-width:0.8;"/>
   </g>
   <g id="text_17">
    <!-- Model performance vs. # of iterations -->
    <g style="fill:#262626;" transform="translate(122.314688 35.472)scale(0.12 -0.12)">
     <defs>
      <path d="M 628 4666 
L 1569 4666 
L 2759 1491 
L 3956 4666 
L 4897 4666 
L 4897 0 
L 4281 0 
L 4281 4097 
L 3078 897 
L 2444 897 
L 1241 4097 
L 1241 0 
L 628 0 
L 628 4666 
z
" id="DejaVuSans-4d" transform="scale(0.015625)"/>
      <path d="M 2906 2969 
L 2906 4863 
L 3481 4863 
L 3481 0 
L 2906 0 
L 2906 525 
Q 2725 213 2448 61 
Q 2172 -91 1784 -91 
Q 1150 -91 751 415 
Q 353 922 353 1747 
Q 353 2572 751 3078 
Q 1150 3584 1784 3584 
Q 2172 3584 2448 3432 
Q 2725 3281 2906 2969 
z
M 947 1747 
Q 947 1113 1208 752 
Q 1469 391 1925 391 
Q 2381 391 2643 752 
Q 2906 1113 2906 1747 
Q 2906 2381 2643 2742 
Q 2381 3103 1925 3103 
Q 1469 3103 1208 2742 
Q 947 2381 947 1747 
z
" id="DejaVuSans-64" transform="scale(0.015625)"/>
      <path d="M 603 4863 
L 1178 4863 
L 1178 0 
L 603 0 
L 603 4863 
z
" id="DejaVuSans-6c" transform="scale(0.015625)"/>
      <path id="DejaVuSans-20" transform="scale(0.015625)"/>
      <path d="M 1159 525 
L 1159 -1331 
L 581 -1331 
L 581 3500 
L 1159 3500 
L 1159 2969 
Q 1341 3281 1617 3432 
Q 1894 3584 2278 3584 
Q 2916 3584 3314 3078 
Q 3713 2572 3713 1747 
Q 3713 922 3314 415 
Q 2916 -91 2278 -91 
Q 1894 -91 1617 61 
Q 1341 213 1159 525 
z
M 3116 1747 
Q 3116 2381 2855 2742 
Q 2594 3103 2138 3103 
Q 1681 3103 1420 2742 
Q 1159 2381 1159 1747 
Q 1159 1113 1420 752 
Q 1681 391 2138 391 
Q 2594 391 2855 752 
Q 3116 1113 3116 1747 
z
" id="DejaVuSans-70" transform="scale(0.015625)"/>
      <path d="M 2375 4863 
L 2375 4384 
L 1825 4384 
Q 1516 4384 1395 4259 
Q 1275 4134 1275 3809 
L 1275 3500 
L 2222 3500 
L 2222 3053 
L 1275 3053 
L 1275 0 
L 697 0 
L 697 3053 
L 147 3053 
L 147 3500 
L 697 3500 
L 697 3744 
Q 697 4328 969 4595 
Q 1241 4863 1831 4863 
L 2375 4863 
z
" id="DejaVuSans-66" transform="scale(0.015625)"/>
      <path d="M 3328 2828 
Q 3544 3216 3844 3400 
Q 4144 3584 4550 3584 
Q 5097 3584 5394 3201 
Q 5691 2819 5691 2113 
L 5691 0 
L 5113 0 
L 5113 2094 
Q 5113 2597 4934 2840 
Q 4756 3084 4391 3084 
Q 3944 3084 3684 2787 
Q 3425 2491 3425 1978 
L 3425 0 
L 2847 0 
L 2847 2094 
Q 2847 2600 2669 2842 
Q 2491 3084 2119 3084 
Q 1678 3084 1418 2786 
Q 1159 2488 1159 1978 
L 1159 0 
L 581 0 
L 581 3500 
L 1159 3500 
L 1159 2956 
Q 1356 3278 1631 3431 
Q 1906 3584 2284 3584 
Q 2666 3584 2933 3390 
Q 3200 3197 3328 2828 
z
" id="DejaVuSans-6d" transform="scale(0.015625)"/>
      <path d="M 191 3500 
L 800 3500 
L 1894 563 
L 2988 3500 
L 3597 3500 
L 2284 0 
L 1503 0 
L 191 3500 
z
" id="DejaVuSans-76" transform="scale(0.015625)"/>
      <path d="M 2834 3397 
L 2834 2853 
Q 2591 2978 2328 3040 
Q 2066 3103 1784 3103 
Q 1356 3103 1142 2972 
Q 928 2841 928 2578 
Q 928 2378 1081 2264 
Q 1234 2150 1697 2047 
L 1894 2003 
Q 2506 1872 2764 1633 
Q 3022 1394 3022 966 
Q 3022 478 2636 193 
Q 2250 -91 1575 -91 
Q 1294 -91 989 -36 
Q 684 19 347 128 
L 347 722 
Q 666 556 975 473 
Q 1284 391 1588 391 
Q 1994 391 2212 530 
Q 2431 669 2431 922 
Q 2431 1156 2273 1281 
Q 2116 1406 1581 1522 
L 1381 1569 
Q 847 1681 609 1914 
Q 372 2147 372 2553 
Q 372 3047 722 3315 
Q 1072 3584 1716 3584 
Q 2034 3584 2315 3537 
Q 2597 3491 2834 3397 
z
" id="DejaVuSans-73" transform="scale(0.015625)"/>
      <path d="M 3272 2816 
L 2363 2816 
L 2100 1772 
L 3016 1772 
L 3272 2816 
z
M 2803 4594 
L 2478 3297 
L 3391 3297 
L 3719 4594 
L 4219 4594 
L 3897 3297 
L 4872 3297 
L 4872 2816 
L 3775 2816 
L 3519 1772 
L 4513 1772 
L 4513 1294 
L 3397 1294 
L 3072 0 
L 2572 0 
L 2894 1294 
L 1978 1294 
L 1656 0 
L 1153 0 
L 1478 1294 
L 494 1294 
L 494 1772 
L 1594 1772 
L 1856 2816 
L 850 2816 
L 850 3297 
L 1978 3297 
L 2297 4594 
L 2803 4594 
z
" id="DejaVuSans-23" transform="scale(0.015625)"/>
     </defs>
     <use xlink:href="#DejaVuSans-4d"/>
     <use x="86.279297" xlink:href="#DejaVuSans-6f"/>
     <use x="147.460938" xlink:href="#DejaVuSans-64"/>
     <use x="210.9375" xlink:href="#DejaVuSans-65"/>
     <use x="272.460938" xlink:href="#DejaVuSans-6c"/>
     <use x="300.244141" xlink:href="#DejaVuSans-20"/>
     <use x="332.03125" xlink:href="#DejaVuSans-70"/>
     <use x="395.507812" xlink:href="#DejaVuSans-65"/>
     <use x="457.03125" xlink:href="#DejaVuSans-72"/>
     <use x="498.144531" xlink:href="#DejaVuSans-66"/>
     <use x="533.349609" xlink:href="#DejaVuSans-6f"/>
     <use x="594.53125" xlink:href="#DejaVuSans-72"/>
     <use x="633.894531" xlink:href="#DejaVuSans-6d"/>
     <use x="731.306641" xlink:href="#DejaVuSans-61"/>
     <use x="792.585938" xlink:href="#DejaVuSans-6e"/>
     <use x="855.964844" xlink:href="#DejaVuSans-63"/>
     <use x="910.945312" xlink:href="#DejaVuSans-65"/>
     <use x="972.46875" xlink:href="#DejaVuSans-20"/>
     <use x="1004.255859" xlink:href="#DejaVuSans-76"/>
     <use x="1063.435547" xlink:href="#DejaVuSans-73"/>
     <use x="1115.535156" xlink:href="#DejaVuSans-2e"/>
     <use x="1147.322266" xlink:href="#DejaVuSans-20"/>
     <use x="1179.109375" xlink:href="#DejaVuSans-23"/>
     <use x="1262.898438" xlink:href="#DejaVuSans-20"/>
     <use x="1294.685547" xlink:href="#DejaVuSans-6f"/>
     <use x="1355.867188" xlink:href="#DejaVuSans-66"/>
     <use x="1391.072266" xlink:href="#DejaVuSans-20"/>
     <use x="1422.859375" xlink:href="#DejaVuSans-69"/>
     <use x="1450.642578" xlink:href="#DejaVuSans-74"/>
     <use x="1489.851562" xlink:href="#DejaVuSans-65"/>
     <use x="1551.375" xlink:href="#DejaVuSans-72"/>
     <use x="1592.488281" xlink:href="#DejaVuSans-61"/>
     <use x="1653.767578" xlink:href="#DejaVuSans-74"/>
     <use x="1692.976562" xlink:href="#DejaVuSans-69"/>
     <use x="1720.759766" xlink:href="#DejaVuSans-6f"/>
     <use x="1781.941406" xlink:href="#DejaVuSans-6e"/>
     <use x="1845.320312" xlink:href="#DejaVuSans-73"/>
    </g>
   </g>
  </g>
 </g>
 <defs>
  <clipPath id="pe6eb639011">
   <rect height="266.112" width="357.12" x="57.6" y="41.472"/>
  </clipPath>
 </defs>
</svg>
