<?xml version="1.0" encoding="utf-8" standalone="no"?>
<!DOCTYPE svg PUBLIC "-//W3C//DTD SVG 1.1//EN"
  "http://www.w3.org/Graphics/SVG/1.1/DTD/svg11.dtd">
<svg height="345.6pt" version="1.1" viewBox="0 0 460.8 345.6" width="460.8pt" xmlns="http://www.w3.org/2000/svg" xmlns:xlink="http://www.w3.org/1999/xlink">
 <metadata>
  <rdf:RDF xmlns:cc="http://creativecommons.org/ns#" xmlns:dc="http://purl.org/dc/elements/1.1/" xmlns:rdf="http://www.w3.org/1999/02/22-rdf-syntax-ns#">
   <cc:Work>
    <dc:type rdf:resource="http://purl.org/dc/dcmitype/StillImage"/>
    <dc:date>2022-04-08T02:00:28.988780</dc:date>
    <dc:format>image/svg+xml</dc:format>
    <dc:creator>
     <cc:Agent>
      <dc:title>Matplotlib v3.4.3, https://matplotlib.org/</dc:title>
     </cc:Agent>
    </dc:creator>
   </cc:Work>
  </rdf:RDF>
 </metadata>
 <defs>
  <style type="text/css">*{stroke-linecap:butt;stroke-linejoin:round;}</style>
 </defs>
 <g id="figure_1">
  <g id="patch_1">
   <path d="M 0 345.6 
L 460.8 345.6 
L 460.8 0 
L 0 0 
z
" style="fill:#ffffff;"/>
  </g>
  <g id="axes_1">
   <g id="patch_2">
    <path d="M 57.6 307.584 
L 414.72 307.584 
L 414.72 41.472 
L 57.6 41.472 
z
" style="fill:#ffffff;"/>
   </g>
   <g id="matplotlib.axis_1">
    <g id="xtick_1">
     <g id="line2d_1">
      <path clip-path="url(#pfec3fd61e1)" d="M 72.201297 307.584 
L 72.201297 41.472 
" style="fill:none;stroke:#cccccc;stroke-linecap:round;stroke-width:0.8;"/>
     </g>
     <g id="text_1">
      <!-- 0 -->
      <g style="fill:#262626;" transform="translate(69.020047 322.182437)scale(0.1 -0.1)">
       <defs>
        <path d="M 2034 4250 
Q 1547 4250 1301 3770 
Q 1056 3291 1056 2328 
Q 1056 1369 1301 889 
Q 1547 409 2034 409 
Q 2525 409 2770 889 
Q 3016 1369 3016 2328 
Q 3016 3291 2770 3770 
Q 2525 4250 2034 4250 
z
M 2034 4750 
Q 2819 4750 3233 4129 
Q 3647 3509 3647 2328 
Q 3647 1150 3233 529 
Q 2819 -91 2034 -91 
Q 1250 -91 836 529 
Q 422 1150 422 2328 
Q 422 3509 836 4129 
Q 1250 4750 2034 4750 
z
" id="DejaVuSans-30" transform="scale(0.015625)"/>
       </defs>
       <use xlink:href="#DejaVuSans-30"/>
      </g>
     </g>
    </g>
    <g id="xtick_2">
     <g id="line2d_2">
      <path clip-path="url(#pfec3fd61e1)" d="M 112.987044 307.584 
L 112.987044 41.472 
" style="fill:none;stroke:#cccccc;stroke-linecap:round;stroke-width:0.8;"/>
     </g>
     <g id="text_2">
      <!-- 25 -->
      <g style="fill:#262626;" transform="translate(106.624544 322.182437)scale(0.1 -0.1)">
       <defs>
        <path d="M 1228 531 
L 3431 531 
L 3431 0 
L 469 0 
L 469 531 
Q 828 903 1448 1529 
Q 2069 2156 2228 2338 
Q 2531 2678 2651 2914 
Q 2772 3150 2772 3378 
Q 2772 3750 2511 3984 
Q 2250 4219 1831 4219 
Q 1534 4219 1204 4116 
Q 875 4013 500 3803 
L 500 4441 
Q 881 4594 1212 4672 
Q 1544 4750 1819 4750 
Q 2544 4750 2975 4387 
Q 3406 4025 3406 3419 
Q 3406 3131 3298 2873 
Q 3191 2616 2906 2266 
Q 2828 2175 2409 1742 
Q 1991 1309 1228 531 
z
" id="DejaVuSans-32" transform="scale(0.015625)"/>
        <path d="M 691 4666 
L 3169 4666 
L 3169 4134 
L 1269 4134 
L 1269 2991 
Q 1406 3038 1543 3061 
Q 1681 3084 1819 3084 
Q 2600 3084 3056 2656 
Q 3513 2228 3513 1497 
Q 3513 744 3044 326 
Q 2575 -91 1722 -91 
Q 1428 -91 1123 -41 
Q 819 9 494 109 
L 494 744 
Q 775 591 1075 516 
Q 1375 441 1709 441 
Q 2250 441 2565 725 
Q 2881 1009 2881 1497 
Q 2881 1984 2565 2268 
Q 2250 2553 1709 2553 
Q 1456 2553 1204 2497 
Q 953 2441 691 2322 
L 691 4666 
z
" id="DejaVuSans-35" transform="scale(0.015625)"/>
       </defs>
       <use xlink:href="#DejaVuSans-32"/>
       <use x="63.623047" xlink:href="#DejaVuSans-35"/>
      </g>
     </g>
    </g>
    <g id="xtick_3">
     <g id="line2d_3">
      <path clip-path="url(#pfec3fd61e1)" d="M 153.772791 307.584 
L 153.772791 41.472 
" style="fill:none;stroke:#cccccc;stroke-linecap:round;stroke-width:0.8;"/>
     </g>
     <g id="text_3">
      <!-- 50 -->
      <g style="fill:#262626;" transform="translate(147.410291 322.182437)scale(0.1 -0.1)">
       <use xlink:href="#DejaVuSans-35"/>
       <use x="63.623047" xlink:href="#DejaVuSans-30"/>
      </g>
     </g>
    </g>
    <g id="xtick_4">
     <g id="line2d_4">
      <path clip-path="url(#pfec3fd61e1)" d="M 194.558538 307.584 
L 194.558538 41.472 
" style="fill:none;stroke:#cccccc;stroke-linecap:round;stroke-width:0.8;"/>
     </g>
     <g id="text_4">
      <!-- 75 -->
      <g style="fill:#262626;" transform="translate(188.196038 322.182437)scale(0.1 -0.1)">
       <defs>
        <path d="M 525 4666 
L 3525 4666 
L 3525 4397 
L 1831 0 
L 1172 0 
L 2766 4134 
L 525 4134 
L 525 4666 
z
" id="DejaVuSans-37" transform="scale(0.015625)"/>
       </defs>
       <use xlink:href="#DejaVuSans-37"/>
       <use x="63.623047" xlink:href="#DejaVuSans-35"/>
      </g>
     </g>
    </g>
    <g id="xtick_5">
     <g id="line2d_5">
      <path clip-path="url(#pfec3fd61e1)" d="M 235.344285 307.584 
L 235.344285 41.472 
" style="fill:none;stroke:#cccccc;stroke-linecap:round;stroke-width:0.8;"/>
     </g>
     <g id="text_5">
      <!-- 100 -->
      <g style="fill:#262626;" transform="translate(225.800535 322.182437)scale(0.1 -0.1)">
       <defs>
        <path d="M 794 531 
L 1825 531 
L 1825 4091 
L 703 3866 
L 703 4441 
L 1819 4666 
L 2450 4666 
L 2450 531 
L 3481 531 
L 3481 0 
L 794 0 
L 794 531 
z
" id="DejaVuSans-31" transform="scale(0.015625)"/>
       </defs>
       <use xlink:href="#DejaVuSans-31"/>
       <use x="63.623047" xlink:href="#DejaVuSans-30"/>
       <use x="127.246094" xlink:href="#DejaVuSans-30"/>
      </g>
     </g>
    </g>
    <g id="xtick_6">
     <g id="line2d_6">
      <path clip-path="url(#pfec3fd61e1)" d="M 276.130032 307.584 
L 276.130032 41.472 
" style="fill:none;stroke:#cccccc;stroke-linecap:round;stroke-width:0.8;"/>
     </g>
     <g id="text_6">
      <!-- 125 -->
      <g style="fill:#262626;" transform="translate(266.586282 322.182437)scale(0.1 -0.1)">
       <use xlink:href="#DejaVuSans-31"/>
       <use x="63.623047" xlink:href="#DejaVuSans-32"/>
       <use x="127.246094" xlink:href="#DejaVuSans-35"/>
      </g>
     </g>
    </g>
    <g id="xtick_7">
     <g id="line2d_7">
      <path clip-path="url(#pfec3fd61e1)" d="M 316.915779 307.584 
L 316.915779 41.472 
" style="fill:none;stroke:#cccccc;stroke-linecap:round;stroke-width:0.8;"/>
     </g>
     <g id="text_7">
      <!-- 150 -->
      <g style="fill:#262626;" transform="translate(307.372029 322.182437)scale(0.1 -0.1)">
       <use xlink:href="#DejaVuSans-31"/>
       <use x="63.623047" xlink:href="#DejaVuSans-35"/>
       <use x="127.246094" xlink:href="#DejaVuSans-30"/>
      </g>
     </g>
    </g>
    <g id="xtick_8">
     <g id="line2d_8">
      <path clip-path="url(#pfec3fd61e1)" d="M 357.701526 307.584 
L 357.701526 41.472 
" style="fill:none;stroke:#cccccc;stroke-linecap:round;stroke-width:0.8;"/>
     </g>
     <g id="text_8">
      <!-- 175 -->
      <g style="fill:#262626;" transform="translate(348.157776 322.182437)scale(0.1 -0.1)">
       <use xlink:href="#DejaVuSans-31"/>
       <use x="63.623047" xlink:href="#DejaVuSans-37"/>
       <use x="127.246094" xlink:href="#DejaVuSans-35"/>
      </g>
     </g>
    </g>
    <g id="xtick_9">
     <g id="line2d_9">
      <path clip-path="url(#pfec3fd61e1)" d="M 398.487273 307.584 
L 398.487273 41.472 
" style="fill:none;stroke:#cccccc;stroke-linecap:round;stroke-width:0.8;"/>
     </g>
     <g id="text_9">
      <!-- 200 -->
      <g style="fill:#262626;" transform="translate(388.943523 322.182437)scale(0.1 -0.1)">
       <use xlink:href="#DejaVuSans-32"/>
       <use x="63.623047" xlink:href="#DejaVuSans-30"/>
       <use x="127.246094" xlink:href="#DejaVuSans-30"/>
      </g>
     </g>
    </g>
    <g id="text_10">
     <!-- Auroc -->
     <g style="fill:#262626;" transform="translate(221.819375 335.860562)scale(0.1 -0.1)">
      <defs>
       <path d="M 2188 4044 
L 1331 1722 
L 3047 1722 
L 2188 4044 
z
M 1831 4666 
L 2547 4666 
L 4325 0 
L 3669 0 
L 3244 1197 
L 1141 1197 
L 716 0 
L 50 0 
L 1831 4666 
z
" id="DejaVuSans-41" transform="scale(0.015625)"/>
       <path d="M 544 1381 
L 544 3500 
L 1119 3500 
L 1119 1403 
Q 1119 906 1312 657 
Q 1506 409 1894 409 
Q 2359 409 2629 706 
Q 2900 1003 2900 1516 
L 2900 3500 
L 3475 3500 
L 3475 0 
L 2900 0 
L 2900 538 
Q 2691 219 2414 64 
Q 2138 -91 1772 -91 
Q 1169 -91 856 284 
Q 544 659 544 1381 
z
M 1991 3584 
L 1991 3584 
z
" id="DejaVuSans-75" transform="scale(0.015625)"/>
       <path d="M 2631 2963 
Q 2534 3019 2420 3045 
Q 2306 3072 2169 3072 
Q 1681 3072 1420 2755 
Q 1159 2438 1159 1844 
L 1159 0 
L 581 0 
L 581 3500 
L 1159 3500 
L 1159 2956 
Q 1341 3275 1631 3429 
Q 1922 3584 2338 3584 
Q 2397 3584 2469 3576 
Q 2541 3569 2628 3553 
L 2631 2963 
z
" id="DejaVuSans-72" transform="scale(0.015625)"/>
       <path d="M 1959 3097 
Q 1497 3097 1228 2736 
Q 959 2375 959 1747 
Q 959 1119 1226 758 
Q 1494 397 1959 397 
Q 2419 397 2687 759 
Q 2956 1122 2956 1747 
Q 2956 2369 2687 2733 
Q 2419 3097 1959 3097 
z
M 1959 3584 
Q 2709 3584 3137 3096 
Q 3566 2609 3566 1747 
Q 3566 888 3137 398 
Q 2709 -91 1959 -91 
Q 1206 -91 779 398 
Q 353 888 353 1747 
Q 353 2609 779 3096 
Q 1206 3584 1959 3584 
z
" id="DejaVuSans-6f" transform="scale(0.015625)"/>
       <path d="M 3122 3366 
L 3122 2828 
Q 2878 2963 2633 3030 
Q 2388 3097 2138 3097 
Q 1578 3097 1268 2742 
Q 959 2388 959 1747 
Q 959 1106 1268 751 
Q 1578 397 2138 397 
Q 2388 397 2633 464 
Q 2878 531 3122 666 
L 3122 134 
Q 2881 22 2623 -34 
Q 2366 -91 2075 -91 
Q 1284 -91 818 406 
Q 353 903 353 1747 
Q 353 2603 823 3093 
Q 1294 3584 2113 3584 
Q 2378 3584 2631 3529 
Q 2884 3475 3122 3366 
z
" id="DejaVuSans-63" transform="scale(0.015625)"/>
      </defs>
      <use xlink:href="#DejaVuSans-41"/>
      <use x="68.408203" xlink:href="#DejaVuSans-75"/>
      <use x="131.787109" xlink:href="#DejaVuSans-72"/>
      <use x="170.650391" xlink:href="#DejaVuSans-6f"/>
      <use x="231.832031" xlink:href="#DejaVuSans-63"/>
     </g>
    </g>
   </g>
   <g id="matplotlib.axis_2">
    <g id="ytick_1">
     <g id="line2d_10">
      <path clip-path="url(#pfec3fd61e1)" d="M 57.6 271.719018 
L 414.72 271.719018 
" style="fill:none;stroke:#cccccc;stroke-linecap:round;stroke-width:0.8;"/>
     </g>
     <g id="text_11">
      <!-- 0.50 -->
      <g style="fill:#262626;" transform="translate(28.334375 275.518237)scale(0.1 -0.1)">
       <defs>
        <path d="M 684 794 
L 1344 794 
L 1344 0 
L 684 0 
L 684 794 
z
" id="DejaVuSans-2e" transform="scale(0.015625)"/>
       </defs>
       <use xlink:href="#DejaVuSans-30"/>
       <use x="63.623047" xlink:href="#DejaVuSans-2e"/>
       <use x="95.410156" xlink:href="#DejaVuSans-35"/>
       <use x="159.033203" xlink:href="#DejaVuSans-30"/>
      </g>
     </g>
    </g>
    <g id="ytick_2">
     <g id="line2d_11">
      <path clip-path="url(#pfec3fd61e1)" d="M 57.6 229.392501 
L 414.72 229.392501 
" style="fill:none;stroke:#cccccc;stroke-linecap:round;stroke-width:0.8;"/>
     </g>
     <g id="text_12">
      <!-- 0.55 -->
      <g style="fill:#262626;" transform="translate(28.334375 233.191719)scale(0.1 -0.1)">
       <use xlink:href="#DejaVuSans-30"/>
       <use x="63.623047" xlink:href="#DejaVuSans-2e"/>
       <use x="95.410156" xlink:href="#DejaVuSans-35"/>
       <use x="159.033203" xlink:href="#DejaVuSans-35"/>
      </g>
     </g>
    </g>
    <g id="ytick_3">
     <g id="line2d_12">
      <path clip-path="url(#pfec3fd61e1)" d="M 57.6 187.065984 
L 414.72 187.065984 
" style="fill:none;stroke:#cccccc;stroke-linecap:round;stroke-width:0.8;"/>
     </g>
     <g id="text_13">
      <!-- 0.60 -->
      <g style="fill:#262626;" transform="translate(28.334375 190.865202)scale(0.1 -0.1)">
       <defs>
        <path d="M 2113 2584 
Q 1688 2584 1439 2293 
Q 1191 2003 1191 1497 
Q 1191 994 1439 701 
Q 1688 409 2113 409 
Q 2538 409 2786 701 
Q 3034 994 3034 1497 
Q 3034 2003 2786 2293 
Q 2538 2584 2113 2584 
z
M 3366 4563 
L 3366 3988 
Q 3128 4100 2886 4159 
Q 2644 4219 2406 4219 
Q 1781 4219 1451 3797 
Q 1122 3375 1075 2522 
Q 1259 2794 1537 2939 
Q 1816 3084 2150 3084 
Q 2853 3084 3261 2657 
Q 3669 2231 3669 1497 
Q 3669 778 3244 343 
Q 2819 -91 2113 -91 
Q 1303 -91 875 529 
Q 447 1150 447 2328 
Q 447 3434 972 4092 
Q 1497 4750 2381 4750 
Q 2619 4750 2861 4703 
Q 3103 4656 3366 4563 
z
" id="DejaVuSans-36" transform="scale(0.015625)"/>
       </defs>
       <use xlink:href="#DejaVuSans-30"/>
       <use x="63.623047" xlink:href="#DejaVuSans-2e"/>
       <use x="95.410156" xlink:href="#DejaVuSans-36"/>
       <use x="159.033203" xlink:href="#DejaVuSans-30"/>
      </g>
     </g>
    </g>
    <g id="ytick_4">
     <g id="line2d_13">
      <path clip-path="url(#pfec3fd61e1)" d="M 57.6 144.739466 
L 414.72 144.739466 
" style="fill:none;stroke:#cccccc;stroke-linecap:round;stroke-width:0.8;"/>
     </g>
     <g id="text_14">
      <!-- 0.65 -->
      <g style="fill:#262626;" transform="translate(28.334375 148.538685)scale(0.1 -0.1)">
       <use xlink:href="#DejaVuSans-30"/>
       <use x="63.623047" xlink:href="#DejaVuSans-2e"/>
       <use x="95.410156" xlink:href="#DejaVuSans-36"/>
       <use x="159.033203" xlink:href="#DejaVuSans-35"/>
      </g>
     </g>
    </g>
    <g id="ytick_5">
     <g id="line2d_14">
      <path clip-path="url(#pfec3fd61e1)" d="M 57.6 102.412949 
L 414.72 102.412949 
" style="fill:none;stroke:#cccccc;stroke-linecap:round;stroke-width:0.8;"/>
     </g>
     <g id="text_15">
      <!-- 0.70 -->
      <g style="fill:#262626;" transform="translate(28.334375 106.212168)scale(0.1 -0.1)">
       <use xlink:href="#DejaVuSans-30"/>
       <use x="63.623047" xlink:href="#DejaVuSans-2e"/>
       <use x="95.410156" xlink:href="#DejaVuSans-37"/>
       <use x="159.033203" xlink:href="#DejaVuSans-30"/>
      </g>
     </g>
    </g>
    <g id="ytick_6">
     <g id="line2d_15">
      <path clip-path="url(#pfec3fd61e1)" d="M 57.6 60.086432 
L 414.72 60.086432 
" style="fill:none;stroke:#cccccc;stroke-linecap:round;stroke-width:0.8;"/>
     </g>
     <g id="text_16">
      <!-- 0.75 -->
      <g style="fill:#262626;" transform="translate(28.334375 63.885651)scale(0.1 -0.1)">
       <use xlink:href="#DejaVuSans-30"/>
       <use x="63.623047" xlink:href="#DejaVuSans-2e"/>
       <use x="95.410156" xlink:href="#DejaVuSans-37"/>
       <use x="159.033203" xlink:href="#DejaVuSans-35"/>
      </g>
     </g>
    </g>
    <g id="text_17">
     <!-- Iteration -->
     <g style="fill:#262626;" transform="translate(22.254687 195.736594)rotate(-90)scale(0.1 -0.1)">
      <defs>
       <path d="M 628 4666 
L 1259 4666 
L 1259 0 
L 628 0 
L 628 4666 
z
" id="DejaVuSans-49" transform="scale(0.015625)"/>
       <path d="M 1172 4494 
L 1172 3500 
L 2356 3500 
L 2356 3053 
L 1172 3053 
L 1172 1153 
Q 1172 725 1289 603 
Q 1406 481 1766 481 
L 2356 481 
L 2356 0 
L 1766 0 
Q 1100 0 847 248 
Q 594 497 594 1153 
L 594 3053 
L 172 3053 
L 172 3500 
L 594 3500 
L 594 4494 
L 1172 4494 
z
" id="DejaVuSans-74" transform="scale(0.015625)"/>
       <path d="M 3597 1894 
L 3597 1613 
L 953 1613 
Q 991 1019 1311 708 
Q 1631 397 2203 397 
Q 2534 397 2845 478 
Q 3156 559 3463 722 
L 3463 178 
Q 3153 47 2828 -22 
Q 2503 -91 2169 -91 
Q 1331 -91 842 396 
Q 353 884 353 1716 
Q 353 2575 817 3079 
Q 1281 3584 2069 3584 
Q 2775 3584 3186 3129 
Q 3597 2675 3597 1894 
z
M 3022 2063 
Q 3016 2534 2758 2815 
Q 2500 3097 2075 3097 
Q 1594 3097 1305 2825 
Q 1016 2553 972 2059 
L 3022 2063 
z
" id="DejaVuSans-65" transform="scale(0.015625)"/>
       <path d="M 2194 1759 
Q 1497 1759 1228 1600 
Q 959 1441 959 1056 
Q 959 750 1161 570 
Q 1363 391 1709 391 
Q 2188 391 2477 730 
Q 2766 1069 2766 1631 
L 2766 1759 
L 2194 1759 
z
M 3341 1997 
L 3341 0 
L 2766 0 
L 2766 531 
Q 2569 213 2275 61 
Q 1981 -91 1556 -91 
Q 1019 -91 701 211 
Q 384 513 384 1019 
Q 384 1609 779 1909 
Q 1175 2209 1959 2209 
L 2766 2209 
L 2766 2266 
Q 2766 2663 2505 2880 
Q 2244 3097 1772 3097 
Q 1472 3097 1187 3025 
Q 903 2953 641 2809 
L 641 3341 
Q 956 3463 1253 3523 
Q 1550 3584 1831 3584 
Q 2591 3584 2966 3190 
Q 3341 2797 3341 1997 
z
" id="DejaVuSans-61" transform="scale(0.015625)"/>
       <path d="M 603 3500 
L 1178 3500 
L 1178 0 
L 603 0 
L 603 3500 
z
M 603 4863 
L 1178 4863 
L 1178 4134 
L 603 4134 
L 603 4863 
z
" id="DejaVuSans-69" transform="scale(0.015625)"/>
       <path d="M 3513 2113 
L 3513 0 
L 2938 0 
L 2938 2094 
Q 2938 2591 2744 2837 
Q 2550 3084 2163 3084 
Q 1697 3084 1428 2787 
Q 1159 2491 1159 1978 
L 1159 0 
L 581 0 
L 581 3500 
L 1159 3500 
L 1159 2956 
Q 1366 3272 1645 3428 
Q 1925 3584 2291 3584 
Q 2894 3584 3203 3211 
Q 3513 2838 3513 2113 
z
" id="DejaVuSans-6e" transform="scale(0.015625)"/>
      </defs>
      <use xlink:href="#DejaVuSans-49"/>
      <use x="29.492188" xlink:href="#DejaVuSans-74"/>
      <use x="68.701172" xlink:href="#DejaVuSans-65"/>
      <use x="130.224609" xlink:href="#DejaVuSans-72"/>
      <use x="171.337891" xlink:href="#DejaVuSans-61"/>
      <use x="232.617188" xlink:href="#DejaVuSans-74"/>
      <use x="271.826172" xlink:href="#DejaVuSans-69"/>
      <use x="299.609375" xlink:href="#DejaVuSans-6f"/>
      <use x="360.791016" xlink:href="#DejaVuSans-6e"/>
     </g>
    </g>
   </g>
   <g id="LineCollection_1">
    <path clip-path="url(#pfec3fd61e1)" d="M 398.487273 295.488 
L 398.487273 53.568 
" style="fill:none;stroke:#1f77b4;stroke-dasharray:5.55,2.4;stroke-dashoffset:0;stroke-width:1.5;"/>
   </g>
   <g id="line2d_16">
    <path clip-path="url(#pfec3fd61e1)" d="M 73.832727 170.961622 
L 75.464157 185.965148 
L 77.095587 95.065798 
L 78.727017 216.043321 
L 80.358447 176.818316 
L 81.989877 115.0169 
L 83.621307 193.315391 
L 85.252736 72.690383 
L 86.884166 249.903298 
L 88.515596 98.182771 
L 90.147026 154.600605 
L 91.778456 169.721636 
L 93.409886 202.020034 
L 95.041316 53.568 
L 96.672746 144.442612 
L 98.304175 130.434786 
L 99.935605 171.607899 
L 101.567035 124.961529 
L 103.198465 124.760534 
L 104.829895 204.638126 
L 106.461325 135.289595 
L 108.092755 111.216543 
L 109.724185 199.401941 
L 111.355614 185.507497 
L 112.987044 232.787775 
L 114.618474 139.881565 
L 116.249904 246.409072 
L 117.881334 179.678633 
L 119.512764 166.938624 
L 121.144194 177.993365 
L 122.775624 209.889772 
L 124.407053 128.347527 
L 126.038483 186.218711 
L 127.669913 127.852769 
L 129.301343 193.933838 
L 130.932773 158.651433 
L 132.564203 154.430532 
L 134.195633 115.839435 
L 135.827063 113.025501 
L 137.458492 191.877502 
L 139.089922 182.028732 
L 140.721352 133.295103 
L 142.352782 138.180835 
L 145.615642 123.600946 
L 147.247072 182.647179 
L 148.878502 192.990706 
L 150.509931 207.122222 
L 152.141361 180.250697 
L 153.772791 119.22234 
L 155.404221 166.134643 
L 157.035651 106.618389 
L 158.667081 167.031391 
L 160.298511 81.534176 
L 163.56137 154.430532 
L 165.1928 165.980031 
L 166.82423 176.045257 
L 168.45566 199.128794 
L 170.08709 114.769522 
L 171.71852 188.723422 
L 173.34995 165.500734 
L 174.98138 118.204995 
L 176.61281 185.67757 
L 179.875669 107.505861 
L 181.507099 144.782758 
L 183.138529 99.926792 
L 184.769959 142.138896 
L 186.401389 115.449813 
L 188.032819 198.247506 
L 189.664249 132.4602 
L 191.295678 160.785075 
L 192.927108 158.187598 
L 194.558538 163.660854 
L 196.189968 131.81083 
L 197.821398 111.232004 
L 199.452828 126.708642 
L 201.084258 181.20929 
L 204.347117 156.285873 
L 205.978547 97.131411 
L 207.609977 130.543014 
L 209.241407 136.866635 
L 210.872837 193.774073 
L 212.504267 101.695551 
L 214.135697 134.052701 
L 215.767127 126.770487 
L 217.398556 191.176595 
L 219.029986 172.643798 
L 220.661416 80.680719 
L 222.292846 123.78648 
L 223.924276 171.793433 
L 225.555706 86.419908 
L 227.187136 245.898853 
L 228.818566 148.307906 
L 230.449995 130.573936 
L 232.081425 229.556389 
L 233.712855 279.140383 
L 235.344285 160.243934 
L 236.975715 177.900598 
L 238.607145 162.733184 
L 240.238575 136.170882 
L 241.870005 167.850833 
L 243.501434 167.15508 
L 245.132864 185.0282 
L 246.764294 214.388975 
L 248.395724 104.095125 
L 250.027154 176.957466 
L 251.658584 218.635645 
L 253.290014 185.785798 
L 254.921444 122.895916 
L 256.552873 124.605922 
L 258.184303 69.684731 
L 259.815733 161.743668 
L 261.447163 190.67153 
L 263.078593 108.189245 
L 264.710023 161.589057 
L 266.341453 190.857064 
L 267.972883 120.415943 
L 269.604312 212.327485 
L 271.235742 128.440294 
L 272.867172 64.712416 
L 274.498602 203.648611 
L 276.130032 190.67153 
L 277.761462 195.758257 
L 279.392892 65.491659 
L 281.024322 206.679001 
L 282.655751 200.643989 
L 284.287181 130.527553 
L 285.918611 189.202718 
L 287.550041 185.120967 
L 289.181471 154.894367 
L 290.812901 190.661222 
L 292.444331 167.124158 
L 294.075761 206.364624 
L 295.70719 144.087005 
L 297.33862 295.488 
L 298.97005 207.256219 
L 300.60148 147.519386 
L 302.23291 125.579976 
L 303.86434 121.189002 
L 305.49577 138.598287 
L 307.1272 152.838031 
L 308.75863 201.417048 
L 310.390059 204.586589 
L 313.652919 151.353758 
L 315.284349 134.083623 
L 316.915779 62.337579 
L 318.547209 112.196782 
L 320.178639 126.507647 
L 321.810069 167.093236 
L 323.441498 212.796474 
L 325.072928 142.927416 
L 326.704358 120.953992 
L 328.335788 113.396569 
L 329.967218 164.727676 
L 331.598648 187.146382 
L 333.230078 123.168033 
L 334.861508 127.574468 
L 336.492937 112.963656 
L 338.124367 162.393038 
L 339.755797 140.561856 
L 341.387227 88.077346 
L 343.018657 85.826199 
L 344.650087 131.857214 
L 346.281517 113.643948 
L 347.912947 181.193829 
L 349.544376 142.726421 
L 351.175806 165.516196 
L 352.807236 150.178708 
L 354.438666 265.550008 
L 356.070096 203.689841 
L 357.701526 147.488464 
L 359.332956 121.467303 
L 362.595815 254.072662 
L 364.227245 145.432127 
L 365.858675 159.362647 
L 367.490105 116.847504 
L 369.121535 115.808513 
L 370.752965 163.908233 
L 372.384395 204.354671 
L 374.015825 105.195961 
L 375.647254 205.406031 
L 377.278684 162.918718 
L 378.910114 161.790052 
L 380.541544 149.792179 
L 382.172974 139.788798 
L 383.804404 169.814403 
L 385.435834 106.330811 
L 387.067264 142.200741 
L 388.698693 185.29104 
L 390.330123 154.708833 
L 391.961553 137.036708 
L 393.592983 197.50537 
L 395.224413 101.769764 
L 396.855843 195.423265 
L 398.487273 146.251569 
L 398.487273 146.251569 
" style="fill:none;stroke:#1f77b4;stroke-linecap:round;stroke-width:1.5;"/>
   </g>
   <g id="patch_3">
    <path d="M 57.6 307.584 
L 57.6 41.472 
" style="fill:none;stroke:#cccccc;stroke-linecap:square;stroke-linejoin:miter;stroke-width:0.8;"/>
   </g>
   <g id="patch_4">
    <path d="M 414.72 307.584 
L 414.72 41.472 
" style="fill:none;stroke:#cccccc;stroke-linecap:square;stroke-linejoin:miter;stroke-width:0.8;"/>
   </g>
   <g id="patch_5">
    <path d="M 57.6 307.584 
L 414.72 307.584 
" style="fill:none;stroke:#cccccc;stroke-linecap:square;stroke-linejoin:miter;stroke-width:0.8;"/>
   </g>
   <g id="patch_6">
    <path d="M 57.6 41.472 
L 414.72 41.472 
" style="fill:none;stroke:#cccccc;stroke-linecap:square;stroke-linejoin:miter;stroke-width:0.8;"/>
   </g>
   <g id="text_18">
    <!-- Model performance vs. # of iterations -->
    <g style="fill:#262626;" transform="translate(122.314688 35.472)scale(0.12 -0.12)">
     <defs>
      <path d="M 628 4666 
L 1569 4666 
L 2759 1491 
L 3956 4666 
L 4897 4666 
L 4897 0 
L 4281 0 
L 4281 4097 
L 3078 897 
L 2444 897 
L 1241 4097 
L 1241 0 
L 628 0 
L 628 4666 
z
" id="DejaVuSans-4d" transform="scale(0.015625)"/>
      <path d="M 2906 2969 
L 2906 4863 
L 3481 4863 
L 3481 0 
L 2906 0 
L 2906 525 
Q 2725 213 2448 61 
Q 2172 -91 1784 -91 
Q 1150 -91 751 415 
Q 353 922 353 1747 
Q 353 2572 751 3078 
Q 1150 3584 1784 3584 
Q 2172 3584 2448 3432 
Q 2725 3281 2906 2969 
z
M 947 1747 
Q 947 1113 1208 752 
Q 1469 391 1925 391 
Q 2381 391 2643 752 
Q 2906 1113 2906 1747 
Q 2906 2381 2643 2742 
Q 2381 3103 1925 3103 
Q 1469 3103 1208 2742 
Q 947 2381 947 1747 
z
" id="DejaVuSans-64" transform="scale(0.015625)"/>
      <path d="M 603 4863 
L 1178 4863 
L 1178 0 
L 603 0 
L 603 4863 
z
" id="DejaVuSans-6c" transform="scale(0.015625)"/>
      <path id="DejaVuSans-20" transform="scale(0.015625)"/>
      <path d="M 1159 525 
L 1159 -1331 
L 581 -1331 
L 581 3500 
L 1159 3500 
L 1159 2969 
Q 1341 3281 1617 3432 
Q 1894 3584 2278 3584 
Q 2916 3584 3314 3078 
Q 3713 2572 3713 1747 
Q 3713 922 3314 415 
Q 2916 -91 2278 -91 
Q 1894 -91 1617 61 
Q 1341 213 1159 525 
z
M 3116 1747 
Q 3116 2381 2855 2742 
Q 2594 3103 2138 3103 
Q 1681 3103 1420 2742 
Q 1159 2381 1159 1747 
Q 1159 1113 1420 752 
Q 1681 391 2138 391 
Q 2594 391 2855 752 
Q 3116 1113 3116 1747 
z
" id="DejaVuSans-70" transform="scale(0.015625)"/>
      <path d="M 2375 4863 
L 2375 4384 
L 1825 4384 
Q 1516 4384 1395 4259 
Q 1275 4134 1275 3809 
L 1275 3500 
L 2222 3500 
L 2222 3053 
L 1275 3053 
L 1275 0 
L 697 0 
L 697 3053 
L 147 3053 
L 147 3500 
L 697 3500 
L 697 3744 
Q 697 4328 969 4595 
Q 1241 4863 1831 4863 
L 2375 4863 
z
" id="DejaVuSans-66" transform="scale(0.015625)"/>
      <path d="M 3328 2828 
Q 3544 3216 3844 3400 
Q 4144 3584 4550 3584 
Q 5097 3584 5394 3201 
Q 5691 2819 5691 2113 
L 5691 0 
L 5113 0 
L 5113 2094 
Q 5113 2597 4934 2840 
Q 4756 3084 4391 3084 
Q 3944 3084 3684 2787 
Q 3425 2491 3425 1978 
L 3425 0 
L 2847 0 
L 2847 2094 
Q 2847 2600 2669 2842 
Q 2491 3084 2119 3084 
Q 1678 3084 1418 2786 
Q 1159 2488 1159 1978 
L 1159 0 
L 581 0 
L 581 3500 
L 1159 3500 
L 1159 2956 
Q 1356 3278 1631 3431 
Q 1906 3584 2284 3584 
Q 2666 3584 2933 3390 
Q 3200 3197 3328 2828 
z
" id="DejaVuSans-6d" transform="scale(0.015625)"/>
      <path d="M 191 3500 
L 800 3500 
L 1894 563 
L 2988 3500 
L 3597 3500 
L 2284 0 
L 1503 0 
L 191 3500 
z
" id="DejaVuSans-76" transform="scale(0.015625)"/>
      <path d="M 2834 3397 
L 2834 2853 
Q 2591 2978 2328 3040 
Q 2066 3103 1784 3103 
Q 1356 3103 1142 2972 
Q 928 2841 928 2578 
Q 928 2378 1081 2264 
Q 1234 2150 1697 2047 
L 1894 2003 
Q 2506 1872 2764 1633 
Q 3022 1394 3022 966 
Q 3022 478 2636 193 
Q 2250 -91 1575 -91 
Q 1294 -91 989 -36 
Q 684 19 347 128 
L 347 722 
Q 666 556 975 473 
Q 1284 391 1588 391 
Q 1994 391 2212 530 
Q 2431 669 2431 922 
Q 2431 1156 2273 1281 
Q 2116 1406 1581 1522 
L 1381 1569 
Q 847 1681 609 1914 
Q 372 2147 372 2553 
Q 372 3047 722 3315 
Q 1072 3584 1716 3584 
Q 2034 3584 2315 3537 
Q 2597 3491 2834 3397 
z
" id="DejaVuSans-73" transform="scale(0.015625)"/>
      <path d="M 3272 2816 
L 2363 2816 
L 2100 1772 
L 3016 1772 
L 3272 2816 
z
M 2803 4594 
L 2478 3297 
L 3391 3297 
L 3719 4594 
L 4219 4594 
L 3897 3297 
L 4872 3297 
L 4872 2816 
L 3775 2816 
L 3519 1772 
L 4513 1772 
L 4513 1294 
L 3397 1294 
L 3072 0 
L 2572 0 
L 2894 1294 
L 1978 1294 
L 1656 0 
L 1153 0 
L 1478 1294 
L 494 1294 
L 494 1772 
L 1594 1772 
L 1856 2816 
L 850 2816 
L 850 3297 
L 1978 3297 
L 2297 4594 
L 2803 4594 
z
" id="DejaVuSans-23" transform="scale(0.015625)"/>
     </defs>
     <use xlink:href="#DejaVuSans-4d"/>
     <use x="86.279297" xlink:href="#DejaVuSans-6f"/>
     <use x="147.460938" xlink:href="#DejaVuSans-64"/>
     <use x="210.9375" xlink:href="#DejaVuSans-65"/>
     <use x="272.460938" xlink:href="#DejaVuSans-6c"/>
     <use x="300.244141" xlink:href="#DejaVuSans-20"/>
     <use x="332.03125" xlink:href="#DejaVuSans-70"/>
     <use x="395.507812" xlink:href="#DejaVuSans-65"/>
     <use x="457.03125" xlink:href="#DejaVuSans-72"/>
     <use x="498.144531" xlink:href="#DejaVuSans-66"/>
     <use x="533.349609" xlink:href="#DejaVuSans-6f"/>
     <use x="594.53125" xlink:href="#DejaVuSans-72"/>
     <use x="633.894531" xlink:href="#DejaVuSans-6d"/>
     <use x="731.306641" xlink:href="#DejaVuSans-61"/>
     <use x="792.585938" xlink:href="#DejaVuSans-6e"/>
     <use x="855.964844" xlink:href="#DejaVuSans-63"/>
     <use x="910.945312" xlink:href="#DejaVuSans-65"/>
     <use x="972.46875" xlink:href="#DejaVuSans-20"/>
     <use x="1004.255859" xlink:href="#DejaVuSans-76"/>
     <use x="1063.435547" xlink:href="#DejaVuSans-73"/>
     <use x="1115.535156" xlink:href="#DejaVuSans-2e"/>
     <use x="1147.322266" xlink:href="#DejaVuSans-20"/>
     <use x="1179.109375" xlink:href="#DejaVuSans-23"/>
     <use x="1262.898438" xlink:href="#DejaVuSans-20"/>
     <use x="1294.685547" xlink:href="#DejaVuSans-6f"/>
     <use x="1355.867188" xlink:href="#DejaVuSans-66"/>
     <use x="1391.072266" xlink:href="#DejaVuSans-20"/>
     <use x="1422.859375" xlink:href="#DejaVuSans-69"/>
     <use x="1450.642578" xlink:href="#DejaVuSans-74"/>
     <use x="1489.851562" xlink:href="#DejaVuSans-65"/>
     <use x="1551.375" xlink:href="#DejaVuSans-72"/>
     <use x="1592.488281" xlink:href="#DejaVuSans-61"/>
     <use x="1653.767578" xlink:href="#DejaVuSans-74"/>
     <use x="1692.976562" xlink:href="#DejaVuSans-69"/>
     <use x="1720.759766" xlink:href="#DejaVuSans-6f"/>
     <use x="1781.941406" xlink:href="#DejaVuSans-6e"/>
     <use x="1845.320312" xlink:href="#DejaVuSans-73"/>
    </g>
   </g>
  </g>
 </g>
 <defs>
  <clipPath id="pfec3fd61e1">
   <rect height="266.112" width="357.12" x="57.6" y="41.472"/>
  </clipPath>
 </defs>
</svg>
