<?xml version="1.0" encoding="utf-8" standalone="no"?>
<!DOCTYPE svg PUBLIC "-//W3C//DTD SVG 1.1//EN"
  "http://www.w3.org/Graphics/SVG/1.1/DTD/svg11.dtd">
<svg height="345.6pt" version="1.1" viewBox="0 0 460.8 345.6" width="460.8pt" xmlns="http://www.w3.org/2000/svg" xmlns:xlink="http://www.w3.org/1999/xlink">
 <metadata>
  <rdf:RDF xmlns:cc="http://creativecommons.org/ns#" xmlns:dc="http://purl.org/dc/elements/1.1/" xmlns:rdf="http://www.w3.org/1999/02/22-rdf-syntax-ns#">
   <cc:Work>
    <dc:type rdf:resource="http://purl.org/dc/dcmitype/StillImage"/>
    <dc:date>2022-01-27T17:21:18.541349</dc:date>
    <dc:format>image/svg+xml</dc:format>
    <dc:creator>
     <cc:Agent>
      <dc:title>Matplotlib v3.4.3, https://matplotlib.org/</dc:title>
     </cc:Agent>
    </dc:creator>
   </cc:Work>
  </rdf:RDF>
 </metadata>
 <defs>
  <style type="text/css">*{stroke-linecap:butt;stroke-linejoin:round;}</style>
 </defs>
 <g id="figure_1">
  <g id="patch_1">
   <path d="M 0 345.6 
L 460.8 345.6 
L 460.8 0 
L 0 0 
z
" style="fill:#ffffff;"/>
  </g>
  <g id="axes_1">
   <g id="patch_2">
    <path d="M 57.6 307.584 
L 414.72 307.584 
L 414.72 41.472 
L 57.6 41.472 
z
" style="fill:#ffffff;"/>
   </g>
   <g id="matplotlib.axis_1">
    <g id="xtick_1">
     <g id="line2d_1">
      <path clip-path="url(#p4ee40cec38)" d="M 72.201297 307.584 
L 72.201297 41.472 
" style="fill:none;stroke:#cccccc;stroke-linecap:round;stroke-width:0.8;"/>
     </g>
     <g id="text_1">
      <!-- 0 -->
      <g style="fill:#262626;" transform="translate(69.020047 322.182437)scale(0.1 -0.1)">
       <defs>
        <path d="M 2034 4250 
Q 1547 4250 1301 3770 
Q 1056 3291 1056 2328 
Q 1056 1369 1301 889 
Q 1547 409 2034 409 
Q 2525 409 2770 889 
Q 3016 1369 3016 2328 
Q 3016 3291 2770 3770 
Q 2525 4250 2034 4250 
z
M 2034 4750 
Q 2819 4750 3233 4129 
Q 3647 3509 3647 2328 
Q 3647 1150 3233 529 
Q 2819 -91 2034 -91 
Q 1250 -91 836 529 
Q 422 1150 422 2328 
Q 422 3509 836 4129 
Q 1250 4750 2034 4750 
z
" id="DejaVuSans-30" transform="scale(0.015625)"/>
       </defs>
       <use xlink:href="#DejaVuSans-30"/>
      </g>
     </g>
    </g>
    <g id="xtick_2">
     <g id="line2d_2">
      <path clip-path="url(#p4ee40cec38)" d="M 112.987044 307.584 
L 112.987044 41.472 
" style="fill:none;stroke:#cccccc;stroke-linecap:round;stroke-width:0.8;"/>
     </g>
     <g id="text_2">
      <!-- 25 -->
      <g style="fill:#262626;" transform="translate(106.624544 322.182437)scale(0.1 -0.1)">
       <defs>
        <path d="M 1228 531 
L 3431 531 
L 3431 0 
L 469 0 
L 469 531 
Q 828 903 1448 1529 
Q 2069 2156 2228 2338 
Q 2531 2678 2651 2914 
Q 2772 3150 2772 3378 
Q 2772 3750 2511 3984 
Q 2250 4219 1831 4219 
Q 1534 4219 1204 4116 
Q 875 4013 500 3803 
L 500 4441 
Q 881 4594 1212 4672 
Q 1544 4750 1819 4750 
Q 2544 4750 2975 4387 
Q 3406 4025 3406 3419 
Q 3406 3131 3298 2873 
Q 3191 2616 2906 2266 
Q 2828 2175 2409 1742 
Q 1991 1309 1228 531 
z
" id="DejaVuSans-32" transform="scale(0.015625)"/>
        <path d="M 691 4666 
L 3169 4666 
L 3169 4134 
L 1269 4134 
L 1269 2991 
Q 1406 3038 1543 3061 
Q 1681 3084 1819 3084 
Q 2600 3084 3056 2656 
Q 3513 2228 3513 1497 
Q 3513 744 3044 326 
Q 2575 -91 1722 -91 
Q 1428 -91 1123 -41 
Q 819 9 494 109 
L 494 744 
Q 775 591 1075 516 
Q 1375 441 1709 441 
Q 2250 441 2565 725 
Q 2881 1009 2881 1497 
Q 2881 1984 2565 2268 
Q 2250 2553 1709 2553 
Q 1456 2553 1204 2497 
Q 953 2441 691 2322 
L 691 4666 
z
" id="DejaVuSans-35" transform="scale(0.015625)"/>
       </defs>
       <use xlink:href="#DejaVuSans-32"/>
       <use x="63.623047" xlink:href="#DejaVuSans-35"/>
      </g>
     </g>
    </g>
    <g id="xtick_3">
     <g id="line2d_3">
      <path clip-path="url(#p4ee40cec38)" d="M 153.772791 307.584 
L 153.772791 41.472 
" style="fill:none;stroke:#cccccc;stroke-linecap:round;stroke-width:0.8;"/>
     </g>
     <g id="text_3">
      <!-- 50 -->
      <g style="fill:#262626;" transform="translate(147.410291 322.182437)scale(0.1 -0.1)">
       <use xlink:href="#DejaVuSans-35"/>
       <use x="63.623047" xlink:href="#DejaVuSans-30"/>
      </g>
     </g>
    </g>
    <g id="xtick_4">
     <g id="line2d_4">
      <path clip-path="url(#p4ee40cec38)" d="M 194.558538 307.584 
L 194.558538 41.472 
" style="fill:none;stroke:#cccccc;stroke-linecap:round;stroke-width:0.8;"/>
     </g>
     <g id="text_4">
      <!-- 75 -->
      <g style="fill:#262626;" transform="translate(188.196038 322.182437)scale(0.1 -0.1)">
       <defs>
        <path d="M 525 4666 
L 3525 4666 
L 3525 4397 
L 1831 0 
L 1172 0 
L 2766 4134 
L 525 4134 
L 525 4666 
z
" id="DejaVuSans-37" transform="scale(0.015625)"/>
       </defs>
       <use xlink:href="#DejaVuSans-37"/>
       <use x="63.623047" xlink:href="#DejaVuSans-35"/>
      </g>
     </g>
    </g>
    <g id="xtick_5">
     <g id="line2d_5">
      <path clip-path="url(#p4ee40cec38)" d="M 235.344285 307.584 
L 235.344285 41.472 
" style="fill:none;stroke:#cccccc;stroke-linecap:round;stroke-width:0.8;"/>
     </g>
     <g id="text_5">
      <!-- 100 -->
      <g style="fill:#262626;" transform="translate(225.800535 322.182437)scale(0.1 -0.1)">
       <defs>
        <path d="M 794 531 
L 1825 531 
L 1825 4091 
L 703 3866 
L 703 4441 
L 1819 4666 
L 2450 4666 
L 2450 531 
L 3481 531 
L 3481 0 
L 794 0 
L 794 531 
z
" id="DejaVuSans-31" transform="scale(0.015625)"/>
       </defs>
       <use xlink:href="#DejaVuSans-31"/>
       <use x="63.623047" xlink:href="#DejaVuSans-30"/>
       <use x="127.246094" xlink:href="#DejaVuSans-30"/>
      </g>
     </g>
    </g>
    <g id="xtick_6">
     <g id="line2d_6">
      <path clip-path="url(#p4ee40cec38)" d="M 276.130032 307.584 
L 276.130032 41.472 
" style="fill:none;stroke:#cccccc;stroke-linecap:round;stroke-width:0.8;"/>
     </g>
     <g id="text_6">
      <!-- 125 -->
      <g style="fill:#262626;" transform="translate(266.586282 322.182437)scale(0.1 -0.1)">
       <use xlink:href="#DejaVuSans-31"/>
       <use x="63.623047" xlink:href="#DejaVuSans-32"/>
       <use x="127.246094" xlink:href="#DejaVuSans-35"/>
      </g>
     </g>
    </g>
    <g id="xtick_7">
     <g id="line2d_7">
      <path clip-path="url(#p4ee40cec38)" d="M 316.915779 307.584 
L 316.915779 41.472 
" style="fill:none;stroke:#cccccc;stroke-linecap:round;stroke-width:0.8;"/>
     </g>
     <g id="text_7">
      <!-- 150 -->
      <g style="fill:#262626;" transform="translate(307.372029 322.182437)scale(0.1 -0.1)">
       <use xlink:href="#DejaVuSans-31"/>
       <use x="63.623047" xlink:href="#DejaVuSans-35"/>
       <use x="127.246094" xlink:href="#DejaVuSans-30"/>
      </g>
     </g>
    </g>
    <g id="xtick_8">
     <g id="line2d_8">
      <path clip-path="url(#p4ee40cec38)" d="M 357.701526 307.584 
L 357.701526 41.472 
" style="fill:none;stroke:#cccccc;stroke-linecap:round;stroke-width:0.8;"/>
     </g>
     <g id="text_8">
      <!-- 175 -->
      <g style="fill:#262626;" transform="translate(348.157776 322.182437)scale(0.1 -0.1)">
       <use xlink:href="#DejaVuSans-31"/>
       <use x="63.623047" xlink:href="#DejaVuSans-37"/>
       <use x="127.246094" xlink:href="#DejaVuSans-35"/>
      </g>
     </g>
    </g>
    <g id="xtick_9">
     <g id="line2d_9">
      <path clip-path="url(#p4ee40cec38)" d="M 398.487273 307.584 
L 398.487273 41.472 
" style="fill:none;stroke:#cccccc;stroke-linecap:round;stroke-width:0.8;"/>
     </g>
     <g id="text_9">
      <!-- 200 -->
      <g style="fill:#262626;" transform="translate(388.943523 322.182437)scale(0.1 -0.1)">
       <use xlink:href="#DejaVuSans-32"/>
       <use x="63.623047" xlink:href="#DejaVuSans-30"/>
       <use x="127.246094" xlink:href="#DejaVuSans-30"/>
      </g>
     </g>
    </g>
    <g id="text_10">
     <!-- Auroc -->
     <g style="fill:#262626;" transform="translate(221.819375 335.860562)scale(0.1 -0.1)">
      <defs>
       <path d="M 2188 4044 
L 1331 1722 
L 3047 1722 
L 2188 4044 
z
M 1831 4666 
L 2547 4666 
L 4325 0 
L 3669 0 
L 3244 1197 
L 1141 1197 
L 716 0 
L 50 0 
L 1831 4666 
z
" id="DejaVuSans-41" transform="scale(0.015625)"/>
       <path d="M 544 1381 
L 544 3500 
L 1119 3500 
L 1119 1403 
Q 1119 906 1312 657 
Q 1506 409 1894 409 
Q 2359 409 2629 706 
Q 2900 1003 2900 1516 
L 2900 3500 
L 3475 3500 
L 3475 0 
L 2900 0 
L 2900 538 
Q 2691 219 2414 64 
Q 2138 -91 1772 -91 
Q 1169 -91 856 284 
Q 544 659 544 1381 
z
M 1991 3584 
L 1991 3584 
z
" id="DejaVuSans-75" transform="scale(0.015625)"/>
       <path d="M 2631 2963 
Q 2534 3019 2420 3045 
Q 2306 3072 2169 3072 
Q 1681 3072 1420 2755 
Q 1159 2438 1159 1844 
L 1159 0 
L 581 0 
L 581 3500 
L 1159 3500 
L 1159 2956 
Q 1341 3275 1631 3429 
Q 1922 3584 2338 3584 
Q 2397 3584 2469 3576 
Q 2541 3569 2628 3553 
L 2631 2963 
z
" id="DejaVuSans-72" transform="scale(0.015625)"/>
       <path d="M 1959 3097 
Q 1497 3097 1228 2736 
Q 959 2375 959 1747 
Q 959 1119 1226 758 
Q 1494 397 1959 397 
Q 2419 397 2687 759 
Q 2956 1122 2956 1747 
Q 2956 2369 2687 2733 
Q 2419 3097 1959 3097 
z
M 1959 3584 
Q 2709 3584 3137 3096 
Q 3566 2609 3566 1747 
Q 3566 888 3137 398 
Q 2709 -91 1959 -91 
Q 1206 -91 779 398 
Q 353 888 353 1747 
Q 353 2609 779 3096 
Q 1206 3584 1959 3584 
z
" id="DejaVuSans-6f" transform="scale(0.015625)"/>
       <path d="M 3122 3366 
L 3122 2828 
Q 2878 2963 2633 3030 
Q 2388 3097 2138 3097 
Q 1578 3097 1268 2742 
Q 959 2388 959 1747 
Q 959 1106 1268 751 
Q 1578 397 2138 397 
Q 2388 397 2633 464 
Q 2878 531 3122 666 
L 3122 134 
Q 2881 22 2623 -34 
Q 2366 -91 2075 -91 
Q 1284 -91 818 406 
Q 353 903 353 1747 
Q 353 2603 823 3093 
Q 1294 3584 2113 3584 
Q 2378 3584 2631 3529 
Q 2884 3475 3122 3366 
z
" id="DejaVuSans-63" transform="scale(0.015625)"/>
      </defs>
      <use xlink:href="#DejaVuSans-41"/>
      <use x="68.408203" xlink:href="#DejaVuSans-75"/>
      <use x="131.787109" xlink:href="#DejaVuSans-72"/>
      <use x="170.650391" xlink:href="#DejaVuSans-6f"/>
      <use x="231.832031" xlink:href="#DejaVuSans-63"/>
     </g>
    </g>
   </g>
   <g id="matplotlib.axis_2">
    <g id="ytick_1">
     <g id="line2d_10">
      <path clip-path="url(#p4ee40cec38)" d="M 57.6 298.493531 
L 414.72 298.493531 
" style="fill:none;stroke:#cccccc;stroke-linecap:round;stroke-width:0.8;"/>
     </g>
     <g id="text_11">
      <!-- 0.45 -->
      <g style="fill:#262626;" transform="translate(28.334375 302.29275)scale(0.1 -0.1)">
       <defs>
        <path d="M 684 794 
L 1344 794 
L 1344 0 
L 684 0 
L 684 794 
z
" id="DejaVuSans-2e" transform="scale(0.015625)"/>
        <path d="M 2419 4116 
L 825 1625 
L 2419 1625 
L 2419 4116 
z
M 2253 4666 
L 3047 4666 
L 3047 1625 
L 3713 1625 
L 3713 1100 
L 3047 1100 
L 3047 0 
L 2419 0 
L 2419 1100 
L 313 1100 
L 313 1709 
L 2253 4666 
z
" id="DejaVuSans-34" transform="scale(0.015625)"/>
       </defs>
       <use xlink:href="#DejaVuSans-30"/>
       <use x="63.623047" xlink:href="#DejaVuSans-2e"/>
       <use x="95.410156" xlink:href="#DejaVuSans-34"/>
       <use x="159.033203" xlink:href="#DejaVuSans-35"/>
      </g>
     </g>
    </g>
    <g id="ytick_2">
     <g id="line2d_11">
      <path clip-path="url(#p4ee40cec38)" d="M 57.6 245.505342 
L 414.72 245.505342 
" style="fill:none;stroke:#cccccc;stroke-linecap:round;stroke-width:0.8;"/>
     </g>
     <g id="text_12">
      <!-- 0.50 -->
      <g style="fill:#262626;" transform="translate(28.334375 249.30456)scale(0.1 -0.1)">
       <use xlink:href="#DejaVuSans-30"/>
       <use x="63.623047" xlink:href="#DejaVuSans-2e"/>
       <use x="95.410156" xlink:href="#DejaVuSans-35"/>
       <use x="159.033203" xlink:href="#DejaVuSans-30"/>
      </g>
     </g>
    </g>
    <g id="ytick_3">
     <g id="line2d_12">
      <path clip-path="url(#p4ee40cec38)" d="M 57.6 192.517152 
L 414.72 192.517152 
" style="fill:none;stroke:#cccccc;stroke-linecap:round;stroke-width:0.8;"/>
     </g>
     <g id="text_13">
      <!-- 0.55 -->
      <g style="fill:#262626;" transform="translate(28.334375 196.316371)scale(0.1 -0.1)">
       <use xlink:href="#DejaVuSans-30"/>
       <use x="63.623047" xlink:href="#DejaVuSans-2e"/>
       <use x="95.410156" xlink:href="#DejaVuSans-35"/>
       <use x="159.033203" xlink:href="#DejaVuSans-35"/>
      </g>
     </g>
    </g>
    <g id="ytick_4">
     <g id="line2d_13">
      <path clip-path="url(#p4ee40cec38)" d="M 57.6 139.528963 
L 414.72 139.528963 
" style="fill:none;stroke:#cccccc;stroke-linecap:round;stroke-width:0.8;"/>
     </g>
     <g id="text_14">
      <!-- 0.60 -->
      <g style="fill:#262626;" transform="translate(28.334375 143.328182)scale(0.1 -0.1)">
       <defs>
        <path d="M 2113 2584 
Q 1688 2584 1439 2293 
Q 1191 2003 1191 1497 
Q 1191 994 1439 701 
Q 1688 409 2113 409 
Q 2538 409 2786 701 
Q 3034 994 3034 1497 
Q 3034 2003 2786 2293 
Q 2538 2584 2113 2584 
z
M 3366 4563 
L 3366 3988 
Q 3128 4100 2886 4159 
Q 2644 4219 2406 4219 
Q 1781 4219 1451 3797 
Q 1122 3375 1075 2522 
Q 1259 2794 1537 2939 
Q 1816 3084 2150 3084 
Q 2853 3084 3261 2657 
Q 3669 2231 3669 1497 
Q 3669 778 3244 343 
Q 2819 -91 2113 -91 
Q 1303 -91 875 529 
Q 447 1150 447 2328 
Q 447 3434 972 4092 
Q 1497 4750 2381 4750 
Q 2619 4750 2861 4703 
Q 3103 4656 3366 4563 
z
" id="DejaVuSans-36" transform="scale(0.015625)"/>
       </defs>
       <use xlink:href="#DejaVuSans-30"/>
       <use x="63.623047" xlink:href="#DejaVuSans-2e"/>
       <use x="95.410156" xlink:href="#DejaVuSans-36"/>
       <use x="159.033203" xlink:href="#DejaVuSans-30"/>
      </g>
     </g>
    </g>
    <g id="ytick_5">
     <g id="line2d_14">
      <path clip-path="url(#p4ee40cec38)" d="M 57.6 86.540774 
L 414.72 86.540774 
" style="fill:none;stroke:#cccccc;stroke-linecap:round;stroke-width:0.8;"/>
     </g>
     <g id="text_15">
      <!-- 0.65 -->
      <g style="fill:#262626;" transform="translate(28.334375 90.339993)scale(0.1 -0.1)">
       <use xlink:href="#DejaVuSans-30"/>
       <use x="63.623047" xlink:href="#DejaVuSans-2e"/>
       <use x="95.410156" xlink:href="#DejaVuSans-36"/>
       <use x="159.033203" xlink:href="#DejaVuSans-35"/>
      </g>
     </g>
    </g>
    <g id="text_16">
     <!-- Iteration -->
     <g style="fill:#262626;" transform="translate(22.254687 195.736594)rotate(-90)scale(0.1 -0.1)">
      <defs>
       <path d="M 628 4666 
L 1259 4666 
L 1259 0 
L 628 0 
L 628 4666 
z
" id="DejaVuSans-49" transform="scale(0.015625)"/>
       <path d="M 1172 4494 
L 1172 3500 
L 2356 3500 
L 2356 3053 
L 1172 3053 
L 1172 1153 
Q 1172 725 1289 603 
Q 1406 481 1766 481 
L 2356 481 
L 2356 0 
L 1766 0 
Q 1100 0 847 248 
Q 594 497 594 1153 
L 594 3053 
L 172 3053 
L 172 3500 
L 594 3500 
L 594 4494 
L 1172 4494 
z
" id="DejaVuSans-74" transform="scale(0.015625)"/>
       <path d="M 3597 1894 
L 3597 1613 
L 953 1613 
Q 991 1019 1311 708 
Q 1631 397 2203 397 
Q 2534 397 2845 478 
Q 3156 559 3463 722 
L 3463 178 
Q 3153 47 2828 -22 
Q 2503 -91 2169 -91 
Q 1331 -91 842 396 
Q 353 884 353 1716 
Q 353 2575 817 3079 
Q 1281 3584 2069 3584 
Q 2775 3584 3186 3129 
Q 3597 2675 3597 1894 
z
M 3022 2063 
Q 3016 2534 2758 2815 
Q 2500 3097 2075 3097 
Q 1594 3097 1305 2825 
Q 1016 2553 972 2059 
L 3022 2063 
z
" id="DejaVuSans-65" transform="scale(0.015625)"/>
       <path d="M 2194 1759 
Q 1497 1759 1228 1600 
Q 959 1441 959 1056 
Q 959 750 1161 570 
Q 1363 391 1709 391 
Q 2188 391 2477 730 
Q 2766 1069 2766 1631 
L 2766 1759 
L 2194 1759 
z
M 3341 1997 
L 3341 0 
L 2766 0 
L 2766 531 
Q 2569 213 2275 61 
Q 1981 -91 1556 -91 
Q 1019 -91 701 211 
Q 384 513 384 1019 
Q 384 1609 779 1909 
Q 1175 2209 1959 2209 
L 2766 2209 
L 2766 2266 
Q 2766 2663 2505 2880 
Q 2244 3097 1772 3097 
Q 1472 3097 1187 3025 
Q 903 2953 641 2809 
L 641 3341 
Q 956 3463 1253 3523 
Q 1550 3584 1831 3584 
Q 2591 3584 2966 3190 
Q 3341 2797 3341 1997 
z
" id="DejaVuSans-61" transform="scale(0.015625)"/>
       <path d="M 603 3500 
L 1178 3500 
L 1178 0 
L 603 0 
L 603 3500 
z
M 603 4863 
L 1178 4863 
L 1178 4134 
L 603 4134 
L 603 4863 
z
" id="DejaVuSans-69" transform="scale(0.015625)"/>
       <path d="M 3513 2113 
L 3513 0 
L 2938 0 
L 2938 2094 
Q 2938 2591 2744 2837 
Q 2550 3084 2163 3084 
Q 1697 3084 1428 2787 
Q 1159 2491 1159 1978 
L 1159 0 
L 581 0 
L 581 3500 
L 1159 3500 
L 1159 2956 
Q 1366 3272 1645 3428 
Q 1925 3584 2291 3584 
Q 2894 3584 3203 3211 
Q 3513 2838 3513 2113 
z
" id="DejaVuSans-6e" transform="scale(0.015625)"/>
      </defs>
      <use xlink:href="#DejaVuSans-49"/>
      <use x="29.492188" xlink:href="#DejaVuSans-74"/>
      <use x="68.701172" xlink:href="#DejaVuSans-65"/>
      <use x="130.224609" xlink:href="#DejaVuSans-72"/>
      <use x="171.337891" xlink:href="#DejaVuSans-61"/>
      <use x="232.617188" xlink:href="#DejaVuSans-74"/>
      <use x="271.826172" xlink:href="#DejaVuSans-69"/>
      <use x="299.609375" xlink:href="#DejaVuSans-6f"/>
      <use x="360.791016" xlink:href="#DejaVuSans-6e"/>
     </g>
    </g>
   </g>
   <g id="PolyCollection_1">
    <defs>
     <path d="M 73.832727 -254.60106 
L 73.832727 -118.206321 
L 75.464157 -133.479174 
L 77.095587 -137.324977 
L 78.727017 -170.692024 
L 80.358447 -181.74228 
L 81.989877 -182.961073 
L 83.621307 -112.035539 
L 85.252736 -160.788314 
L 86.884166 -140.818805 
L 88.515596 -167.508184 
L 90.147026 -161.747612 
L 91.778456 -149.376273 
L 93.409886 -111.956794 
L 95.041316 -153.494285 
L 96.672746 -105.296273 
L 98.304175 -186.038664 
L 99.935605 -151.936192 
L 101.567035 -133.509678 
L 103.198465 -118.418187 
L 104.829895 -138.585993 
L 106.461325 -145.232508 
L 108.092755 -165.233437 
L 109.724185 -151.898864 
L 111.355614 -182.304188 
L 112.987044 -169.366505 
L 114.618474 -112.989382 
L 116.249904 -65.091371 
L 117.881334 -135.858345 
L 119.512764 -77.606701 
L 121.144194 -175.532432 
L 122.775624 -133.891068 
L 124.407053 -143.35751 
L 126.038483 -170.678863 
L 127.669913 -142.225979 
L 129.301343 -159.554642 
L 130.932773 -182.071098 
L 132.564203 -157.756089 
L 134.195633 -144.736717 
L 135.827063 -160.976434 
L 137.458492 -153.326775 
L 139.089922 -113.336573 
L 140.721352 -169.048092 
L 142.352782 -160.521769 
L 143.984212 -158.495362 
L 145.615642 -186.590954 
L 147.247072 -138.915137 
L 148.878502 -171.84053 
L 150.509931 -140.743188 
L 152.141361 -139.697814 
L 153.772791 -170.502006 
L 155.404221 -106.742134 
L 157.035651 -142.245753 
L 158.667081 -121.311144 
L 160.298511 -136.342346 
L 161.929941 -132.273148 
L 163.56137 -123.252646 
L 165.1928 -145.466015 
L 166.82423 -128.466245 
L 168.45566 -152.153324 
L 170.08709 -169.091119 
L 171.71852 -156.249775 
L 173.34995 -130.293563 
L 174.98138 -120.800142 
L 176.61281 -144.343543 
L 178.244239 -167.695467 
L 179.875669 -130.722488 
L 181.507099 -108.280736 
L 183.138529 -173.232949 
L 184.769959 -171.841731 
L 186.401389 -182.232165 
L 188.032819 -154.229605 
L 189.664249 -173.032105 
L 191.295678 -117.680602 
L 192.927108 -127.825348 
L 194.558538 -155.340514 
L 196.189968 -144.087137 
L 197.821398 -124.67687 
L 199.452828 -156.659041 
L 201.084258 -145.184919 
L 202.715688 -162.079829 
L 204.347117 -184.972005 
L 205.978547 -134.788017 
L 207.609977 -137.495485 
L 209.241407 -163.977848 
L 210.872837 -158.539353 
L 212.504267 -159.721247 
L 214.135697 -135.098621 
L 215.767127 -98.377587 
L 217.398556 -131.523317 
L 219.029986 -125.703606 
L 220.661416 -150.12797 
L 222.292846 -131.982613 
L 223.924276 -120.345533 
L 225.555706 -149.040547 
L 227.187136 -136.123987 
L 228.818566 -148.645665 
L 230.449995 -152.112787 
L 232.081425 -159.451926 
L 233.712855 -152.294104 
L 235.344285 -149.10877 
L 236.975715 -140.035191 
L 238.607145 -148.49659 
L 240.238575 -176.137441 
L 241.870005 -144.793478 
L 243.501434 -161.21776 
L 245.132864 -128.793252 
L 246.764294 -189.996599 
L 248.395724 -150.763395 
L 250.027154 -164.536654 
L 251.658584 -145.667799 
L 253.290014 -143.611004 
L 254.921444 -154.232183 
L 256.552873 -133.34441 
L 258.184303 -132.875807 
L 259.815733 -146.788723 
L 261.447163 -124.629162 
L 263.078593 -121.09149 
L 264.710023 -153.629395 
L 266.341453 -171.646363 
L 267.972883 -124.904464 
L 269.604312 -131.082486 
L 271.235742 -108.249166 
L 272.867172 -123.777346 
L 274.498602 -141.86075 
L 276.130032 -158.43519 
L 277.761462 -173.925827 
L 279.392892 -140.998503 
L 281.024322 -137.852893 
L 282.655751 -159.64393 
L 284.287181 -136.831455 
L 285.918611 -148.05304 
L 287.550041 -200.39511 
L 289.181471 -145.898167 
L 290.812901 -141.445588 
L 292.444331 -136.985329 
L 294.075761 -118.943082 
L 295.70719 -122.74804 
L 297.33862 -180.185672 
L 298.97005 -125.38331 
L 300.60148 -115.843202 
L 302.23291 -141.521638 
L 303.86434 -86.975489 
L 305.49577 -148.421149 
L 307.1272 -178.353826 
L 308.75863 -163.406865 
L 310.390059 -165.879878 
L 312.021489 -158.889768 
L 313.652919 -156.521257 
L 315.284349 -142.610383 
L 316.915779 -136.048759 
L 318.547209 -130.229434 
L 320.178639 -150.477818 
L 321.810069 -142.253507 
L 323.441498 -115.739205 
L 325.072928 -189.906642 
L 326.704358 -130.140286 
L 328.335788 -100.554914 
L 329.967218 -145.314698 
L 331.598648 -134.310642 
L 333.230078 -129.906683 
L 334.861508 -149.38507 
L 336.492937 -57.530868 
L 338.124367 -133.491511 
L 339.755797 -170.706882 
L 341.387227 -144.281915 
L 343.018657 -107.738891 
L 344.650087 -152.180797 
L 346.281517 -121.578515 
L 347.912947 -136.765873 
L 349.544376 -127.374882 
L 351.175806 -147.178597 
L 352.807236 -135.575311 
L 354.438666 -183.093761 
L 356.070096 -84.778922 
L 357.701526 -115.746027 
L 359.332956 -148.466465 
L 360.964386 -103.434993 
L 362.595815 -156.038391 
L 364.227245 -151.912263 
L 365.858675 -123.283745 
L 367.490105 -157.89207 
L 369.121535 -108.119833 
L 370.752965 -182.073028 
L 372.384395 -172.676993 
L 374.015825 -50.112 
L 375.647254 -147.052598 
L 377.278684 -116.284319 
L 378.910114 -141.066545 
L 380.541544 -137.844136 
L 382.172974 -143.611831 
L 383.804404 -133.89862 
L 385.435834 -143.688174 
L 387.067264 -161.687294 
L 388.698693 -148.979177 
L 390.330123 -157.782951 
L 391.961553 -153.551789 
L 393.592983 -140.505023 
L 395.224413 -112.956245 
L 396.855843 -177.479934 
L 398.487273 -143.120234 
L 398.487273 -232.802648 
L 398.487273 -232.802648 
L 396.855843 -232.122888 
L 395.224413 -234.935242 
L 393.592983 -211.627958 
L 391.961553 -224.663722 
L 390.330123 -222.908418 
L 388.698693 -237.476513 
L 387.067264 -255.722067 
L 385.435834 -279.428405 
L 383.804404 -236.250558 
L 382.172974 -236.749655 
L 380.541544 -241.959277 
L 378.910114 -237.872961 
L 377.278684 -198.751888 
L 375.647254 -237.68844 
L 374.015825 -205.593168 
L 372.384395 -230.17973 
L 370.752965 -240.081384 
L 369.121535 -214.262195 
L 367.490105 -264.764857 
L 365.858675 -277.362764 
L 364.227245 -213.057047 
L 362.595815 -218.02193 
L 360.964386 -223.337011 
L 359.332956 -282.651656 
L 357.701526 -255.333787 
L 356.070096 -263.660066 
L 354.438666 -255.853674 
L 352.807236 -256.837604 
L 351.175806 -242.915344 
L 349.544376 -223.610311 
L 347.912947 -230.907852 
L 346.281517 -219.909512 
L 344.650087 -243.954 
L 343.018657 -227.829918 
L 341.387227 -239.053161 
L 339.755797 -243.651145 
L 338.124367 -262.509692 
L 336.492937 -243.916033 
L 334.861508 -219.925933 
L 333.230078 -233.505668 
L 331.598648 -249.016217 
L 329.967218 -211.653881 
L 328.335788 -203.743475 
L 326.704358 -228.77485 
L 325.072928 -251.597595 
L 323.441498 -292.032 
L 321.810069 -232.344063 
L 320.178639 -271.605621 
L 318.547209 -232.897516 
L 316.915779 -243.912532 
L 315.284349 -206.985259 
L 313.652919 -262.856075 
L 312.021489 -256.892948 
L 310.390059 -206.393309 
L 308.75863 -223.493723 
L 307.1272 -252.346513 
L 305.49577 -224.478103 
L 303.86434 -248.535334 
L 302.23291 -216.467534 
L 300.60148 -286.96201 
L 298.97005 -234.511323 
L 297.33862 -198.805467 
L 295.70719 -235.229396 
L 294.075761 -265.718851 
L 292.444331 -241.563488 
L 290.812901 -243.684165 
L 289.181471 -231.698454 
L 287.550041 -243.097039 
L 285.918611 -246.410041 
L 284.287181 -242.284669 
L 282.655751 -265.938316 
L 281.024322 -177.752314 
L 279.392892 -203.536701 
L 277.761462 -242.128825 
L 276.130032 -244.175941 
L 274.498602 -202.609183 
L 272.867172 -219.17529 
L 271.235742 -227.312395 
L 269.604312 -251.132434 
L 267.972883 -226.946684 
L 266.341453 -202.937814 
L 264.710023 -204.639587 
L 263.078593 -217.623283 
L 261.447163 -252.507549 
L 259.815733 -255.533143 
L 258.184303 -205.127284 
L 256.552873 -210.038223 
L 254.921444 -233.509708 
L 253.290014 -251.800705 
L 251.658584 -234.362478 
L 250.027154 -226.313416 
L 248.395724 -249.149723 
L 246.764294 -246.265737 
L 245.132864 -235.762655 
L 243.501434 -232.350448 
L 241.870005 -259.336936 
L 240.238575 -214.594156 
L 238.607145 -223.646277 
L 236.975715 -227.99421 
L 235.344285 -211.12627 
L 233.712855 -218.42367 
L 232.081425 -206.980411 
L 230.449995 -213.194759 
L 228.818566 -245.841405 
L 227.187136 -214.895056 
L 225.555706 -275.69403 
L 223.924276 -206.929012 
L 222.292846 -259.447826 
L 220.661416 -242.942506 
L 219.029986 -234.652813 
L 217.398556 -222.20978 
L 215.767127 -231.60255 
L 214.135697 -198.633972 
L 212.504267 -214.634447 
L 210.872837 -252.862266 
L 209.241407 -220.90521 
L 207.609977 -241.220665 
L 205.978547 -239.461052 
L 204.347117 -257.060576 
L 202.715688 -250.406514 
L 201.084258 -240.436275 
L 199.452828 -265.427636 
L 197.821398 -241.962721 
L 196.189968 -228.299813 
L 194.558538 -247.13522 
L 192.927108 -221.064131 
L 191.295678 -228.636475 
L 189.664249 -235.555604 
L 188.032819 -254.66823 
L 186.401389 -244.099991 
L 184.769959 -219.101387 
L 183.138529 -255.335324 
L 181.507099 -237.512522 
L 179.875669 -195.515457 
L 178.244239 -258.094952 
L 176.61281 -260.152923 
L 174.98138 -197.767103 
L 173.34995 -224.788651 
L 171.71852 -248.830591 
L 170.08709 -239.197024 
L 168.45566 -244.689071 
L 166.82423 -235.974758 
L 165.1928 -228.978055 
L 163.56137 -260.118339 
L 161.929941 -218.478449 
L 160.298511 -256.111741 
L 158.667081 -219.931696 
L 157.035651 -221.46955 
L 155.404221 -253.845601 
L 153.772791 -232.813192 
L 152.141361 -237.89785 
L 150.509931 -240.886801 
L 148.878502 -251.303313 
L 147.247072 -210.764466 
L 145.615642 -237.614434 
L 143.984212 -185.843331 
L 142.352782 -245.047315 
L 140.721352 -194.526111 
L 139.089922 -224.104509 
L 137.458492 -232.890939 
L 135.827063 -229.195067 
L 134.195633 -216.133733 
L 132.564203 -241.32382 
L 130.932773 -221.712803 
L 129.301343 -191.48953 
L 127.669913 -214.547414 
L 126.038483 -244.860286 
L 124.407053 -208.178361 
L 122.775624 -195.02241 
L 121.144194 -236.426267 
L 119.512764 -231.627657 
L 117.881334 -170.682783 
L 116.249904 -217.875793 
L 114.618474 -224.596737 
L 112.987044 -215.111538 
L 111.355614 -243.519345 
L 109.724185 -211.049899 
L 108.092755 -215.230001 
L 106.461325 -213.19277 
L 104.829895 -256.87362 
L 103.198465 -244.701735 
L 101.567035 -219.221958 
L 99.935605 -212.230595 
L 98.304175 -242.608492 
L 96.672746 -228.436357 
L 95.041316 -253.793205 
L 93.409886 -210.518172 
L 91.778456 -240.598865 
L 90.147026 -227.404141 
L 88.515596 -230.427471 
L 86.884166 -231.41873 
L 85.252736 -214.058636 
L 83.621307 -228.462064 
L 81.989877 -227.598176 
L 80.358447 -216.636397 
L 78.727017 -254.077617 
L 77.095587 -233.904105 
L 75.464157 -246.499115 
L 73.832727 -254.60106 
z
" id="m12da91a248" style="stroke:#ffffff;stroke-opacity:0.2;"/>
    </defs>
    <g clip-path="url(#p4ee40cec38)">
     <use style="fill:#1f77b4;fill-opacity:0.2;stroke:#ffffff;stroke-opacity:0.2;" x="0" xlink:href="#m12da91a248" y="345.6"/>
    </g>
   </g>
   <g id="LineCollection_1">
    <path clip-path="url(#p4ee40cec38)" d="M 398.487273 295.488 
L 398.487273 53.568 
" style="fill:none;stroke:#1f77b4;stroke-dasharray:5.55,2.4;stroke-dashoffset:0;stroke-width:1.5;"/>
   </g>
   <g id="line2d_15">
    <path clip-path="url(#p4ee40cec38)" d="M 73.832727 159.196309 
L 75.464157 155.610856 
L 77.095587 159.985459 
L 78.727017 133.215179 
L 80.358447 146.410662 
L 81.989877 140.320375 
L 83.621307 175.351198 
L 85.252736 158.176525 
L 86.884166 159.481233 
L 88.515596 146.632172 
L 90.147026 151.024124 
L 91.778456 150.612431 
L 93.409886 184.362517 
L 95.041316 141.956255 
L 96.672746 178.733685 
L 98.304175 131.276422 
L 99.935605 163.516607 
L 101.567035 169.234182 
L 103.198465 164.040039 
L 104.829895 147.870193 
L 106.461325 166.387361 
L 108.092755 155.368281 
L 109.724185 164.125619 
L 111.355614 132.688234 
L 112.987044 153.360979 
L 114.618474 176.806941 
L 116.249904 204.116418 
L 117.881334 192.329436 
L 119.512764 190.982821 
L 121.144194 139.620651 
L 122.775624 181.143261 
L 124.407053 169.832065 
L 126.038483 137.830426 
L 127.669913 167.213303 
L 129.301343 170.077914 
L 130.932773 143.70805 
L 132.564203 146.060045 
L 134.195633 165.164775 
L 135.827063 150.51425 
L 137.458492 152.491143 
L 139.089922 176.879459 
L 140.721352 163.812899 
L 142.352782 142.815458 
L 143.984212 173.430654 
L 145.615642 133.497306 
L 147.247072 170.760199 
L 148.878502 134.028079 
L 150.509931 154.785005 
L 152.141361 156.802168 
L 153.772791 143.942401 
L 155.404221 165.306133 
L 157.035651 163.742349 
L 158.667081 174.97858 
L 160.298511 149.372957 
L 161.929941 170.224202 
L 163.56137 153.914507 
L 165.1928 158.377965 
L 166.82423 163.379498 
L 168.45566 147.178802 
L 170.08709 141.455929 
L 171.71852 143.059817 
L 173.34995 168.058893 
L 174.98138 186.316378 
L 176.61281 143.351767 
L 178.244239 132.70479 
L 179.875669 182.481027 
L 181.507099 172.703371 
L 183.138529 131.315864 
L 184.769959 150.128441 
L 186.401389 132.433922 
L 188.032819 141.151082 
L 189.664249 141.306145 
L 191.295678 172.441462 
L 192.927108 171.155261 
L 194.558538 144.362133 
L 196.189968 159.406525 
L 197.821398 162.280205 
L 199.452828 134.556662 
L 201.084258 152.789403 
L 202.715688 139.356828 
L 204.347117 124.58371 
L 205.978547 158.475466 
L 207.609977 156.241925 
L 209.241407 153.158471 
L 210.872837 139.89919 
L 212.504267 158.422153 
L 214.135697 178.733704 
L 215.767127 180.609932 
L 217.398556 168.733451 
L 219.029986 165.421791 
L 220.661416 149.064762 
L 222.292846 149.884781 
L 223.924276 181.962728 
L 225.555706 133.232711 
L 227.187136 170.090478 
L 228.818566 148.356465 
L 230.449995 162.946227 
L 232.081425 162.383831 
L 233.712855 160.241113 
L 235.344285 165.48248 
L 236.975715 161.5853 
L 238.607145 159.528566 
L 240.238575 150.234202 
L 241.870005 143.534793 
L 243.501434 148.815896 
L 245.132864 163.322047 
L 246.764294 127.468832 
L 248.395724 145.643441 
L 250.027154 150.174965 
L 251.658584 155.584861 
L 253.290014 147.894146 
L 254.921444 151.729054 
L 256.552873 173.908683 
L 258.184303 176.598454 
L 259.815733 144.439067 
L 261.447163 157.031645 
L 263.078593 176.242613 
L 264.710023 166.465509 
L 266.341453 158.307912 
L 267.972883 169.674426 
L 269.604312 154.49254 
L 271.235742 177.81922 
L 272.867172 174.123682 
L 274.498602 173.365034 
L 276.130032 144.294434 
L 277.761462 137.572674 
L 279.392892 173.332398 
L 281.024322 187.797396 
L 282.655751 132.808877 
L 284.287181 156.041938 
L 285.918611 148.368459 
L 287.550041 123.853925 
L 289.181471 156.80169 
L 290.812901 153.035124 
L 292.444331 156.325592 
L 294.075761 153.269033 
L 295.70719 166.611282 
L 297.33862 156.10443 
L 298.97005 165.652684 
L 300.60148 144.197394 
L 302.23291 166.605414 
L 303.86434 177.844588 
L 305.49577 159.150374 
L 307.1272 130.249831 
L 308.75863 152.149706 
L 310.390059 159.463406 
L 312.021489 137.708642 
L 313.652919 135.911334 
L 315.284349 170.802179 
L 316.915779 155.619355 
L 318.547209 164.036525 
L 320.178639 134.558281 
L 321.810069 158.301215 
L 325.072928 124.847882 
L 326.704358 166.142432 
L 328.335788 193.450805 
L 329.967218 167.115711 
L 331.598648 153.936571 
L 333.230078 163.893824 
L 334.861508 160.944499 
L 336.492937 194.876549 
L 338.124367 147.599399 
L 339.755797 138.420986 
L 341.387227 153.932462 
L 343.018657 177.815596 
L 344.650087 147.532602 
L 346.281517 174.855986 
L 347.912947 161.763138 
L 349.544376 170.107403 
L 351.175806 150.553029 
L 352.807236 149.393542 
L 354.438666 126.126283 
L 356.070096 171.380506 
L 357.701526 160.060093 
L 359.332956 130.04094 
L 360.964386 182.213998 
L 362.595815 158.569839 
L 364.227245 163.115345 
L 365.858675 145.276746 
L 367.490105 134.271536 
L 369.121535 184.408986 
L 370.752965 134.522794 
L 372.384395 144.171639 
L 374.015825 217.747416 
L 375.647254 153.229481 
L 377.278684 188.081896 
L 378.910114 156.130247 
L 380.541544 155.698293 
L 382.172974 155.419257 
L 383.804404 160.525411 
L 385.435834 134.04171 
L 387.067264 136.89532 
L 388.698693 152.372155 
L 390.330123 155.254315 
L 391.961553 156.492244 
L 393.592983 169.53351 
L 395.224413 171.654256 
L 396.855843 140.798589 
L 398.487273 157.638559 
L 398.487273 157.638559 
" style="fill:none;stroke:#1f77b4;stroke-linecap:round;stroke-width:1.5;"/>
   </g>
   <g id="patch_3">
    <path d="M 57.6 307.584 
L 57.6 41.472 
" style="fill:none;stroke:#cccccc;stroke-linecap:square;stroke-linejoin:miter;stroke-width:0.8;"/>
   </g>
   <g id="patch_4">
    <path d="M 414.72 307.584 
L 414.72 41.472 
" style="fill:none;stroke:#cccccc;stroke-linecap:square;stroke-linejoin:miter;stroke-width:0.8;"/>
   </g>
   <g id="patch_5">
    <path d="M 57.6 307.584 
L 414.72 307.584 
" style="fill:none;stroke:#cccccc;stroke-linecap:square;stroke-linejoin:miter;stroke-width:0.8;"/>
   </g>
   <g id="patch_6">
    <path d="M 57.6 41.472 
L 414.72 41.472 
" style="fill:none;stroke:#cccccc;stroke-linecap:square;stroke-linejoin:miter;stroke-width:0.8;"/>
   </g>
   <g id="text_17">
    <!-- Model performance vs. # of iterations -->
    <g style="fill:#262626;" transform="translate(122.314688 35.472)scale(0.12 -0.12)">
     <defs>
      <path d="M 628 4666 
L 1569 4666 
L 2759 1491 
L 3956 4666 
L 4897 4666 
L 4897 0 
L 4281 0 
L 4281 4097 
L 3078 897 
L 2444 897 
L 1241 4097 
L 1241 0 
L 628 0 
L 628 4666 
z
" id="DejaVuSans-4d" transform="scale(0.015625)"/>
      <path d="M 2906 2969 
L 2906 4863 
L 3481 4863 
L 3481 0 
L 2906 0 
L 2906 525 
Q 2725 213 2448 61 
Q 2172 -91 1784 -91 
Q 1150 -91 751 415 
Q 353 922 353 1747 
Q 353 2572 751 3078 
Q 1150 3584 1784 3584 
Q 2172 3584 2448 3432 
Q 2725 3281 2906 2969 
z
M 947 1747 
Q 947 1113 1208 752 
Q 1469 391 1925 391 
Q 2381 391 2643 752 
Q 2906 1113 2906 1747 
Q 2906 2381 2643 2742 
Q 2381 3103 1925 3103 
Q 1469 3103 1208 2742 
Q 947 2381 947 1747 
z
" id="DejaVuSans-64" transform="scale(0.015625)"/>
      <path d="M 603 4863 
L 1178 4863 
L 1178 0 
L 603 0 
L 603 4863 
z
" id="DejaVuSans-6c" transform="scale(0.015625)"/>
      <path id="DejaVuSans-20" transform="scale(0.015625)"/>
      <path d="M 1159 525 
L 1159 -1331 
L 581 -1331 
L 581 3500 
L 1159 3500 
L 1159 2969 
Q 1341 3281 1617 3432 
Q 1894 3584 2278 3584 
Q 2916 3584 3314 3078 
Q 3713 2572 3713 1747 
Q 3713 922 3314 415 
Q 2916 -91 2278 -91 
Q 1894 -91 1617 61 
Q 1341 213 1159 525 
z
M 3116 1747 
Q 3116 2381 2855 2742 
Q 2594 3103 2138 3103 
Q 1681 3103 1420 2742 
Q 1159 2381 1159 1747 
Q 1159 1113 1420 752 
Q 1681 391 2138 391 
Q 2594 391 2855 752 
Q 3116 1113 3116 1747 
z
" id="DejaVuSans-70" transform="scale(0.015625)"/>
      <path d="M 2375 4863 
L 2375 4384 
L 1825 4384 
Q 1516 4384 1395 4259 
Q 1275 4134 1275 3809 
L 1275 3500 
L 2222 3500 
L 2222 3053 
L 1275 3053 
L 1275 0 
L 697 0 
L 697 3053 
L 147 3053 
L 147 3500 
L 697 3500 
L 697 3744 
Q 697 4328 969 4595 
Q 1241 4863 1831 4863 
L 2375 4863 
z
" id="DejaVuSans-66" transform="scale(0.015625)"/>
      <path d="M 3328 2828 
Q 3544 3216 3844 3400 
Q 4144 3584 4550 3584 
Q 5097 3584 5394 3201 
Q 5691 2819 5691 2113 
L 5691 0 
L 5113 0 
L 5113 2094 
Q 5113 2597 4934 2840 
Q 4756 3084 4391 3084 
Q 3944 3084 3684 2787 
Q 3425 2491 3425 1978 
L 3425 0 
L 2847 0 
L 2847 2094 
Q 2847 2600 2669 2842 
Q 2491 3084 2119 3084 
Q 1678 3084 1418 2786 
Q 1159 2488 1159 1978 
L 1159 0 
L 581 0 
L 581 3500 
L 1159 3500 
L 1159 2956 
Q 1356 3278 1631 3431 
Q 1906 3584 2284 3584 
Q 2666 3584 2933 3390 
Q 3200 3197 3328 2828 
z
" id="DejaVuSans-6d" transform="scale(0.015625)"/>
      <path d="M 191 3500 
L 800 3500 
L 1894 563 
L 2988 3500 
L 3597 3500 
L 2284 0 
L 1503 0 
L 191 3500 
z
" id="DejaVuSans-76" transform="scale(0.015625)"/>
      <path d="M 2834 3397 
L 2834 2853 
Q 2591 2978 2328 3040 
Q 2066 3103 1784 3103 
Q 1356 3103 1142 2972 
Q 928 2841 928 2578 
Q 928 2378 1081 2264 
Q 1234 2150 1697 2047 
L 1894 2003 
Q 2506 1872 2764 1633 
Q 3022 1394 3022 966 
Q 3022 478 2636 193 
Q 2250 -91 1575 -91 
Q 1294 -91 989 -36 
Q 684 19 347 128 
L 347 722 
Q 666 556 975 473 
Q 1284 391 1588 391 
Q 1994 391 2212 530 
Q 2431 669 2431 922 
Q 2431 1156 2273 1281 
Q 2116 1406 1581 1522 
L 1381 1569 
Q 847 1681 609 1914 
Q 372 2147 372 2553 
Q 372 3047 722 3315 
Q 1072 3584 1716 3584 
Q 2034 3584 2315 3537 
Q 2597 3491 2834 3397 
z
" id="DejaVuSans-73" transform="scale(0.015625)"/>
      <path d="M 3272 2816 
L 2363 2816 
L 2100 1772 
L 3016 1772 
L 3272 2816 
z
M 2803 4594 
L 2478 3297 
L 3391 3297 
L 3719 4594 
L 4219 4594 
L 3897 3297 
L 4872 3297 
L 4872 2816 
L 3775 2816 
L 3519 1772 
L 4513 1772 
L 4513 1294 
L 3397 1294 
L 3072 0 
L 2572 0 
L 2894 1294 
L 1978 1294 
L 1656 0 
L 1153 0 
L 1478 1294 
L 494 1294 
L 494 1772 
L 1594 1772 
L 1856 2816 
L 850 2816 
L 850 3297 
L 1978 3297 
L 2297 4594 
L 2803 4594 
z
" id="DejaVuSans-23" transform="scale(0.015625)"/>
     </defs>
     <use xlink:href="#DejaVuSans-4d"/>
     <use x="86.279297" xlink:href="#DejaVuSans-6f"/>
     <use x="147.460938" xlink:href="#DejaVuSans-64"/>
     <use x="210.9375" xlink:href="#DejaVuSans-65"/>
     <use x="272.460938" xlink:href="#DejaVuSans-6c"/>
     <use x="300.244141" xlink:href="#DejaVuSans-20"/>
     <use x="332.03125" xlink:href="#DejaVuSans-70"/>
     <use x="395.507812" xlink:href="#DejaVuSans-65"/>
     <use x="457.03125" xlink:href="#DejaVuSans-72"/>
     <use x="498.144531" xlink:href="#DejaVuSans-66"/>
     <use x="533.349609" xlink:href="#DejaVuSans-6f"/>
     <use x="594.53125" xlink:href="#DejaVuSans-72"/>
     <use x="633.894531" xlink:href="#DejaVuSans-6d"/>
     <use x="731.306641" xlink:href="#DejaVuSans-61"/>
     <use x="792.585938" xlink:href="#DejaVuSans-6e"/>
     <use x="855.964844" xlink:href="#DejaVuSans-63"/>
     <use x="910.945312" xlink:href="#DejaVuSans-65"/>
     <use x="972.46875" xlink:href="#DejaVuSans-20"/>
     <use x="1004.255859" xlink:href="#DejaVuSans-76"/>
     <use x="1063.435547" xlink:href="#DejaVuSans-73"/>
     <use x="1115.535156" xlink:href="#DejaVuSans-2e"/>
     <use x="1147.322266" xlink:href="#DejaVuSans-20"/>
     <use x="1179.109375" xlink:href="#DejaVuSans-23"/>
     <use x="1262.898438" xlink:href="#DejaVuSans-20"/>
     <use x="1294.685547" xlink:href="#DejaVuSans-6f"/>
     <use x="1355.867188" xlink:href="#DejaVuSans-66"/>
     <use x="1391.072266" xlink:href="#DejaVuSans-20"/>
     <use x="1422.859375" xlink:href="#DejaVuSans-69"/>
     <use x="1450.642578" xlink:href="#DejaVuSans-74"/>
     <use x="1489.851562" xlink:href="#DejaVuSans-65"/>
     <use x="1551.375" xlink:href="#DejaVuSans-72"/>
     <use x="1592.488281" xlink:href="#DejaVuSans-61"/>
     <use x="1653.767578" xlink:href="#DejaVuSans-74"/>
     <use x="1692.976562" xlink:href="#DejaVuSans-69"/>
     <use x="1720.759766" xlink:href="#DejaVuSans-6f"/>
     <use x="1781.941406" xlink:href="#DejaVuSans-6e"/>
     <use x="1845.320312" xlink:href="#DejaVuSans-73"/>
    </g>
   </g>
  </g>
 </g>
 <defs>
  <clipPath id="p4ee40cec38">
   <rect height="266.112" width="357.12" x="57.6" y="41.472"/>
  </clipPath>
 </defs>
</svg>
