<?xml version="1.0" encoding="utf-8" standalone="no"?>
<!DOCTYPE svg PUBLIC "-//W3C//DTD SVG 1.1//EN"
  "http://www.w3.org/Graphics/SVG/1.1/DTD/svg11.dtd">
<svg xmlns:xlink="http://www.w3.org/1999/xlink" width="460.8pt" height="345.6pt" viewBox="0 0 460.8 345.6" xmlns="http://www.w3.org/2000/svg" version="1.1">
 <metadata>
  <rdf:RDF xmlns:dc="http://purl.org/dc/elements/1.1/" xmlns:cc="http://creativecommons.org/ns#" xmlns:rdf="http://www.w3.org/1999/02/22-rdf-syntax-ns#">
   <cc:Work>
    <dc:type rdf:resource="http://purl.org/dc/dcmitype/StillImage"/>
    <dc:date>2022-05-28T03:56:39.567350</dc:date>
    <dc:format>image/svg+xml</dc:format>
    <dc:creator>
     <cc:Agent>
      <dc:title>Matplotlib v3.5.2, https://matplotlib.org/</dc:title>
     </cc:Agent>
    </dc:creator>
   </cc:Work>
  </rdf:RDF>
 </metadata>
 <defs>
  <style type="text/css">*{stroke-linejoin: round; stroke-linecap: butt}</style>
 </defs>
 <g id="figure_1">
  <g id="patch_1">
   <path d="M 0 345.6 
L 460.8 345.6 
L 460.8 0 
L 0 0 
z
" style="fill: #ffffff"/>
  </g>
  <g id="axes_1">
   <g id="patch_2">
    <path d="M 57.6 307.584 
L 414.72 307.584 
L 414.72 41.472 
L 57.6 41.472 
z
" style="fill: #ffffff"/>
   </g>
   <g id="matplotlib.axis_1">
    <g id="xtick_1">
     <g id="line2d_1">
      <path d="M 72.201297 307.584 
L 72.201297 41.472 
" clip-path="url(#pd84d691f43)" style="fill: none; stroke: #cccccc; stroke-width: 0.8; stroke-linecap: round"/>
     </g>
     <g id="text_1">
      <!-- 0 -->
      <g style="fill: #262626" transform="translate(69.020047 322.182437)scale(0.1 -0.1)">
       <defs>
        <path id="DejaVuSans-30" d="M 2034 4250 
Q 1547 4250 1301 3770 
Q 1056 3291 1056 2328 
Q 1056 1369 1301 889 
Q 1547 409 2034 409 
Q 2525 409 2770 889 
Q 3016 1369 3016 2328 
Q 3016 3291 2770 3770 
Q 2525 4250 2034 4250 
z
M 2034 4750 
Q 2819 4750 3233 4129 
Q 3647 3509 3647 2328 
Q 3647 1150 3233 529 
Q 2819 -91 2034 -91 
Q 1250 -91 836 529 
Q 422 1150 422 2328 
Q 422 3509 836 4129 
Q 1250 4750 2034 4750 
z
" transform="scale(0.015625)"/>
       </defs>
       <use xlink:href="#DejaVuSans-30"/>
      </g>
     </g>
    </g>
    <g id="xtick_2">
     <g id="line2d_2">
      <path d="M 112.987044 307.584 
L 112.987044 41.472 
" clip-path="url(#pd84d691f43)" style="fill: none; stroke: #cccccc; stroke-width: 0.8; stroke-linecap: round"/>
     </g>
     <g id="text_2">
      <!-- 25 -->
      <g style="fill: #262626" transform="translate(106.624544 322.182437)scale(0.1 -0.1)">
       <defs>
        <path id="DejaVuSans-32" d="M 1228 531 
L 3431 531 
L 3431 0 
L 469 0 
L 469 531 
Q 828 903 1448 1529 
Q 2069 2156 2228 2338 
Q 2531 2678 2651 2914 
Q 2772 3150 2772 3378 
Q 2772 3750 2511 3984 
Q 2250 4219 1831 4219 
Q 1534 4219 1204 4116 
Q 875 4013 500 3803 
L 500 4441 
Q 881 4594 1212 4672 
Q 1544 4750 1819 4750 
Q 2544 4750 2975 4387 
Q 3406 4025 3406 3419 
Q 3406 3131 3298 2873 
Q 3191 2616 2906 2266 
Q 2828 2175 2409 1742 
Q 1991 1309 1228 531 
z
" transform="scale(0.015625)"/>
        <path id="DejaVuSans-35" d="M 691 4666 
L 3169 4666 
L 3169 4134 
L 1269 4134 
L 1269 2991 
Q 1406 3038 1543 3061 
Q 1681 3084 1819 3084 
Q 2600 3084 3056 2656 
Q 3513 2228 3513 1497 
Q 3513 744 3044 326 
Q 2575 -91 1722 -91 
Q 1428 -91 1123 -41 
Q 819 9 494 109 
L 494 744 
Q 775 591 1075 516 
Q 1375 441 1709 441 
Q 2250 441 2565 725 
Q 2881 1009 2881 1497 
Q 2881 1984 2565 2268 
Q 2250 2553 1709 2553 
Q 1456 2553 1204 2497 
Q 953 2441 691 2322 
L 691 4666 
z
" transform="scale(0.015625)"/>
       </defs>
       <use xlink:href="#DejaVuSans-32"/>
       <use xlink:href="#DejaVuSans-35" x="63.623047"/>
      </g>
     </g>
    </g>
    <g id="xtick_3">
     <g id="line2d_3">
      <path d="M 153.772791 307.584 
L 153.772791 41.472 
" clip-path="url(#pd84d691f43)" style="fill: none; stroke: #cccccc; stroke-width: 0.8; stroke-linecap: round"/>
     </g>
     <g id="text_3">
      <!-- 50 -->
      <g style="fill: #262626" transform="translate(147.410291 322.182437)scale(0.1 -0.1)">
       <use xlink:href="#DejaVuSans-35"/>
       <use xlink:href="#DejaVuSans-30" x="63.623047"/>
      </g>
     </g>
    </g>
    <g id="xtick_4">
     <g id="line2d_4">
      <path d="M 194.558538 307.584 
L 194.558538 41.472 
" clip-path="url(#pd84d691f43)" style="fill: none; stroke: #cccccc; stroke-width: 0.8; stroke-linecap: round"/>
     </g>
     <g id="text_4">
      <!-- 75 -->
      <g style="fill: #262626" transform="translate(188.196038 322.182437)scale(0.1 -0.1)">
       <defs>
        <path id="DejaVuSans-37" d="M 525 4666 
L 3525 4666 
L 3525 4397 
L 1831 0 
L 1172 0 
L 2766 4134 
L 525 4134 
L 525 4666 
z
" transform="scale(0.015625)"/>
       </defs>
       <use xlink:href="#DejaVuSans-37"/>
       <use xlink:href="#DejaVuSans-35" x="63.623047"/>
      </g>
     </g>
    </g>
    <g id="xtick_5">
     <g id="line2d_5">
      <path d="M 235.344285 307.584 
L 235.344285 41.472 
" clip-path="url(#pd84d691f43)" style="fill: none; stroke: #cccccc; stroke-width: 0.8; stroke-linecap: round"/>
     </g>
     <g id="text_5">
      <!-- 100 -->
      <g style="fill: #262626" transform="translate(225.800535 322.182437)scale(0.1 -0.1)">
       <defs>
        <path id="DejaVuSans-31" d="M 794 531 
L 1825 531 
L 1825 4091 
L 703 3866 
L 703 4441 
L 1819 4666 
L 2450 4666 
L 2450 531 
L 3481 531 
L 3481 0 
L 794 0 
L 794 531 
z
" transform="scale(0.015625)"/>
       </defs>
       <use xlink:href="#DejaVuSans-31"/>
       <use xlink:href="#DejaVuSans-30" x="63.623047"/>
       <use xlink:href="#DejaVuSans-30" x="127.246094"/>
      </g>
     </g>
    </g>
    <g id="xtick_6">
     <g id="line2d_6">
      <path d="M 276.130032 307.584 
L 276.130032 41.472 
" clip-path="url(#pd84d691f43)" style="fill: none; stroke: #cccccc; stroke-width: 0.8; stroke-linecap: round"/>
     </g>
     <g id="text_6">
      <!-- 125 -->
      <g style="fill: #262626" transform="translate(266.586282 322.182437)scale(0.1 -0.1)">
       <use xlink:href="#DejaVuSans-31"/>
       <use xlink:href="#DejaVuSans-32" x="63.623047"/>
       <use xlink:href="#DejaVuSans-35" x="127.246094"/>
      </g>
     </g>
    </g>
    <g id="xtick_7">
     <g id="line2d_7">
      <path d="M 316.915779 307.584 
L 316.915779 41.472 
" clip-path="url(#pd84d691f43)" style="fill: none; stroke: #cccccc; stroke-width: 0.8; stroke-linecap: round"/>
     </g>
     <g id="text_7">
      <!-- 150 -->
      <g style="fill: #262626" transform="translate(307.372029 322.182437)scale(0.1 -0.1)">
       <use xlink:href="#DejaVuSans-31"/>
       <use xlink:href="#DejaVuSans-35" x="63.623047"/>
       <use xlink:href="#DejaVuSans-30" x="127.246094"/>
      </g>
     </g>
    </g>
    <g id="xtick_8">
     <g id="line2d_8">
      <path d="M 357.701526 307.584 
L 357.701526 41.472 
" clip-path="url(#pd84d691f43)" style="fill: none; stroke: #cccccc; stroke-width: 0.8; stroke-linecap: round"/>
     </g>
     <g id="text_8">
      <!-- 175 -->
      <g style="fill: #262626" transform="translate(348.157776 322.182437)scale(0.1 -0.1)">
       <use xlink:href="#DejaVuSans-31"/>
       <use xlink:href="#DejaVuSans-37" x="63.623047"/>
       <use xlink:href="#DejaVuSans-35" x="127.246094"/>
      </g>
     </g>
    </g>
    <g id="xtick_9">
     <g id="line2d_9">
      <path d="M 398.487273 307.584 
L 398.487273 41.472 
" clip-path="url(#pd84d691f43)" style="fill: none; stroke: #cccccc; stroke-width: 0.8; stroke-linecap: round"/>
     </g>
     <g id="text_9">
      <!-- 200 -->
      <g style="fill: #262626" transform="translate(388.943523 322.182437)scale(0.1 -0.1)">
       <use xlink:href="#DejaVuSans-32"/>
       <use xlink:href="#DejaVuSans-30" x="63.623047"/>
       <use xlink:href="#DejaVuSans-30" x="127.246094"/>
      </g>
     </g>
    </g>
    <g id="text_10">
     <!-- Iteration -->
     <g style="fill: #262626" transform="translate(214.951406 335.860562)scale(0.1 -0.1)">
      <defs>
       <path id="DejaVuSans-49" d="M 628 4666 
L 1259 4666 
L 1259 0 
L 628 0 
L 628 4666 
z
" transform="scale(0.015625)"/>
       <path id="DejaVuSans-74" d="M 1172 4494 
L 1172 3500 
L 2356 3500 
L 2356 3053 
L 1172 3053 
L 1172 1153 
Q 1172 725 1289 603 
Q 1406 481 1766 481 
L 2356 481 
L 2356 0 
L 1766 0 
Q 1100 0 847 248 
Q 594 497 594 1153 
L 594 3053 
L 172 3053 
L 172 3500 
L 594 3500 
L 594 4494 
L 1172 4494 
z
" transform="scale(0.015625)"/>
       <path id="DejaVuSans-65" d="M 3597 1894 
L 3597 1613 
L 953 1613 
Q 991 1019 1311 708 
Q 1631 397 2203 397 
Q 2534 397 2845 478 
Q 3156 559 3463 722 
L 3463 178 
Q 3153 47 2828 -22 
Q 2503 -91 2169 -91 
Q 1331 -91 842 396 
Q 353 884 353 1716 
Q 353 2575 817 3079 
Q 1281 3584 2069 3584 
Q 2775 3584 3186 3129 
Q 3597 2675 3597 1894 
z
M 3022 2063 
Q 3016 2534 2758 2815 
Q 2500 3097 2075 3097 
Q 1594 3097 1305 2825 
Q 1016 2553 972 2059 
L 3022 2063 
z
" transform="scale(0.015625)"/>
       <path id="DejaVuSans-72" d="M 2631 2963 
Q 2534 3019 2420 3045 
Q 2306 3072 2169 3072 
Q 1681 3072 1420 2755 
Q 1159 2438 1159 1844 
L 1159 0 
L 581 0 
L 581 3500 
L 1159 3500 
L 1159 2956 
Q 1341 3275 1631 3429 
Q 1922 3584 2338 3584 
Q 2397 3584 2469 3576 
Q 2541 3569 2628 3553 
L 2631 2963 
z
" transform="scale(0.015625)"/>
       <path id="DejaVuSans-61" d="M 2194 1759 
Q 1497 1759 1228 1600 
Q 959 1441 959 1056 
Q 959 750 1161 570 
Q 1363 391 1709 391 
Q 2188 391 2477 730 
Q 2766 1069 2766 1631 
L 2766 1759 
L 2194 1759 
z
M 3341 1997 
L 3341 0 
L 2766 0 
L 2766 531 
Q 2569 213 2275 61 
Q 1981 -91 1556 -91 
Q 1019 -91 701 211 
Q 384 513 384 1019 
Q 384 1609 779 1909 
Q 1175 2209 1959 2209 
L 2766 2209 
L 2766 2266 
Q 2766 2663 2505 2880 
Q 2244 3097 1772 3097 
Q 1472 3097 1187 3025 
Q 903 2953 641 2809 
L 641 3341 
Q 956 3463 1253 3523 
Q 1550 3584 1831 3584 
Q 2591 3584 2966 3190 
Q 3341 2797 3341 1997 
z
" transform="scale(0.015625)"/>
       <path id="DejaVuSans-69" d="M 603 3500 
L 1178 3500 
L 1178 0 
L 603 0 
L 603 3500 
z
M 603 4863 
L 1178 4863 
L 1178 4134 
L 603 4134 
L 603 4863 
z
" transform="scale(0.015625)"/>
       <path id="DejaVuSans-6f" d="M 1959 3097 
Q 1497 3097 1228 2736 
Q 959 2375 959 1747 
Q 959 1119 1226 758 
Q 1494 397 1959 397 
Q 2419 397 2687 759 
Q 2956 1122 2956 1747 
Q 2956 2369 2687 2733 
Q 2419 3097 1959 3097 
z
M 1959 3584 
Q 2709 3584 3137 3096 
Q 3566 2609 3566 1747 
Q 3566 888 3137 398 
Q 2709 -91 1959 -91 
Q 1206 -91 779 398 
Q 353 888 353 1747 
Q 353 2609 779 3096 
Q 1206 3584 1959 3584 
z
" transform="scale(0.015625)"/>
       <path id="DejaVuSans-6e" d="M 3513 2113 
L 3513 0 
L 2938 0 
L 2938 2094 
Q 2938 2591 2744 2837 
Q 2550 3084 2163 3084 
Q 1697 3084 1428 2787 
Q 1159 2491 1159 1978 
L 1159 0 
L 581 0 
L 581 3500 
L 1159 3500 
L 1159 2956 
Q 1366 3272 1645 3428 
Q 1925 3584 2291 3584 
Q 2894 3584 3203 3211 
Q 3513 2838 3513 2113 
z
" transform="scale(0.015625)"/>
      </defs>
      <use xlink:href="#DejaVuSans-49"/>
      <use xlink:href="#DejaVuSans-74" x="29.492188"/>
      <use xlink:href="#DejaVuSans-65" x="68.701172"/>
      <use xlink:href="#DejaVuSans-72" x="130.224609"/>
      <use xlink:href="#DejaVuSans-61" x="171.337891"/>
      <use xlink:href="#DejaVuSans-74" x="232.617188"/>
      <use xlink:href="#DejaVuSans-69" x="271.826172"/>
      <use xlink:href="#DejaVuSans-6f" x="299.609375"/>
      <use xlink:href="#DejaVuSans-6e" x="360.791016"/>
     </g>
    </g>
   </g>
   <g id="matplotlib.axis_2">
    <g id="ytick_1">
     <g id="line2d_10">
      <path d="M 57.6 266.532869 
L 414.72 266.532869 
" clip-path="url(#pd84d691f43)" style="fill: none; stroke: #cccccc; stroke-width: 0.8; stroke-linecap: round"/>
     </g>
     <g id="text_11">
      <!-- 0.45 -->
      <g style="fill: #262626" transform="translate(28.334375 270.332087)scale(0.1 -0.1)">
       <defs>
        <path id="DejaVuSans-2e" d="M 684 794 
L 1344 794 
L 1344 0 
L 684 0 
L 684 794 
z
" transform="scale(0.015625)"/>
        <path id="DejaVuSans-34" d="M 2419 4116 
L 825 1625 
L 2419 1625 
L 2419 4116 
z
M 2253 4666 
L 3047 4666 
L 3047 1625 
L 3713 1625 
L 3713 1100 
L 3047 1100 
L 3047 0 
L 2419 0 
L 2419 1100 
L 313 1100 
L 313 1709 
L 2253 4666 
z
" transform="scale(0.015625)"/>
       </defs>
       <use xlink:href="#DejaVuSans-30"/>
       <use xlink:href="#DejaVuSans-2e" x="63.623047"/>
       <use xlink:href="#DejaVuSans-34" x="95.410156"/>
       <use xlink:href="#DejaVuSans-35" x="159.033203"/>
      </g>
     </g>
    </g>
    <g id="ytick_2">
     <g id="line2d_11">
      <path d="M 57.6 219.611252 
L 414.72 219.611252 
" clip-path="url(#pd84d691f43)" style="fill: none; stroke: #cccccc; stroke-width: 0.8; stroke-linecap: round"/>
     </g>
     <g id="text_12">
      <!-- 0.50 -->
      <g style="fill: #262626" transform="translate(28.334375 223.410471)scale(0.1 -0.1)">
       <use xlink:href="#DejaVuSans-30"/>
       <use xlink:href="#DejaVuSans-2e" x="63.623047"/>
       <use xlink:href="#DejaVuSans-35" x="95.410156"/>
       <use xlink:href="#DejaVuSans-30" x="159.033203"/>
      </g>
     </g>
    </g>
    <g id="ytick_3">
     <g id="line2d_12">
      <path d="M 57.6 172.689636 
L 414.72 172.689636 
" clip-path="url(#pd84d691f43)" style="fill: none; stroke: #cccccc; stroke-width: 0.8; stroke-linecap: round"/>
     </g>
     <g id="text_13">
      <!-- 0.55 -->
      <g style="fill: #262626" transform="translate(28.334375 176.488855)scale(0.1 -0.1)">
       <use xlink:href="#DejaVuSans-30"/>
       <use xlink:href="#DejaVuSans-2e" x="63.623047"/>
       <use xlink:href="#DejaVuSans-35" x="95.410156"/>
       <use xlink:href="#DejaVuSans-35" x="159.033203"/>
      </g>
     </g>
    </g>
    <g id="ytick_4">
     <g id="line2d_13">
      <path d="M 57.6 125.76802 
L 414.72 125.76802 
" clip-path="url(#pd84d691f43)" style="fill: none; stroke: #cccccc; stroke-width: 0.8; stroke-linecap: round"/>
     </g>
     <g id="text_14">
      <!-- 0.60 -->
      <g style="fill: #262626" transform="translate(28.334375 129.567238)scale(0.1 -0.1)">
       <defs>
        <path id="DejaVuSans-36" d="M 2113 2584 
Q 1688 2584 1439 2293 
Q 1191 2003 1191 1497 
Q 1191 994 1439 701 
Q 1688 409 2113 409 
Q 2538 409 2786 701 
Q 3034 994 3034 1497 
Q 3034 2003 2786 2293 
Q 2538 2584 2113 2584 
z
M 3366 4563 
L 3366 3988 
Q 3128 4100 2886 4159 
Q 2644 4219 2406 4219 
Q 1781 4219 1451 3797 
Q 1122 3375 1075 2522 
Q 1259 2794 1537 2939 
Q 1816 3084 2150 3084 
Q 2853 3084 3261 2657 
Q 3669 2231 3669 1497 
Q 3669 778 3244 343 
Q 2819 -91 2113 -91 
Q 1303 -91 875 529 
Q 447 1150 447 2328 
Q 447 3434 972 4092 
Q 1497 4750 2381 4750 
Q 2619 4750 2861 4703 
Q 3103 4656 3366 4563 
z
" transform="scale(0.015625)"/>
       </defs>
       <use xlink:href="#DejaVuSans-30"/>
       <use xlink:href="#DejaVuSans-2e" x="63.623047"/>
       <use xlink:href="#DejaVuSans-36" x="95.410156"/>
       <use xlink:href="#DejaVuSans-30" x="159.033203"/>
      </g>
     </g>
    </g>
    <g id="ytick_5">
     <g id="line2d_14">
      <path d="M 57.6 78.846403 
L 414.72 78.846403 
" clip-path="url(#pd84d691f43)" style="fill: none; stroke: #cccccc; stroke-width: 0.8; stroke-linecap: round"/>
     </g>
     <g id="text_15">
      <!-- 0.65 -->
      <g style="fill: #262626" transform="translate(28.334375 82.645622)scale(0.1 -0.1)">
       <use xlink:href="#DejaVuSans-30"/>
       <use xlink:href="#DejaVuSans-2e" x="63.623047"/>
       <use xlink:href="#DejaVuSans-36" x="95.410156"/>
       <use xlink:href="#DejaVuSans-35" x="159.033203"/>
      </g>
     </g>
    </g>
    <g id="text_16">
     <!-- Auroc -->
     <g style="fill: #262626" transform="translate(22.254688 188.868625)rotate(-90)scale(0.1 -0.1)">
      <defs>
       <path id="DejaVuSans-41" d="M 2188 4044 
L 1331 1722 
L 3047 1722 
L 2188 4044 
z
M 1831 4666 
L 2547 4666 
L 4325 0 
L 3669 0 
L 3244 1197 
L 1141 1197 
L 716 0 
L 50 0 
L 1831 4666 
z
" transform="scale(0.015625)"/>
       <path id="DejaVuSans-75" d="M 544 1381 
L 544 3500 
L 1119 3500 
L 1119 1403 
Q 1119 906 1312 657 
Q 1506 409 1894 409 
Q 2359 409 2629 706 
Q 2900 1003 2900 1516 
L 2900 3500 
L 3475 3500 
L 3475 0 
L 2900 0 
L 2900 538 
Q 2691 219 2414 64 
Q 2138 -91 1772 -91 
Q 1169 -91 856 284 
Q 544 659 544 1381 
z
M 1991 3584 
L 1991 3584 
z
" transform="scale(0.015625)"/>
       <path id="DejaVuSans-63" d="M 3122 3366 
L 3122 2828 
Q 2878 2963 2633 3030 
Q 2388 3097 2138 3097 
Q 1578 3097 1268 2742 
Q 959 2388 959 1747 
Q 959 1106 1268 751 
Q 1578 397 2138 397 
Q 2388 397 2633 464 
Q 2878 531 3122 666 
L 3122 134 
Q 2881 22 2623 -34 
Q 2366 -91 2075 -91 
Q 1284 -91 818 406 
Q 353 903 353 1747 
Q 353 2603 823 3093 
Q 1294 3584 2113 3584 
Q 2378 3584 2631 3529 
Q 2884 3475 3122 3366 
z
" transform="scale(0.015625)"/>
      </defs>
      <use xlink:href="#DejaVuSans-41"/>
      <use xlink:href="#DejaVuSans-75" x="68.408203"/>
      <use xlink:href="#DejaVuSans-72" x="131.787109"/>
      <use xlink:href="#DejaVuSans-6f" x="170.650391"/>
      <use xlink:href="#DejaVuSans-63" x="231.832031"/>
     </g>
    </g>
   </g>
   <g id="PolyCollection_1">
    <defs>
     <path id="m64e4b7b318" d="M 73.832727 -235.763055 
L 73.832727 -113.833218 
L 75.464157 -117.1753 
L 77.095587 -174.690267 
L 78.727017 -131.162845 
L 80.358447 -151.142929 
L 81.989877 -127.262236 
L 83.621307 -158.765279 
L 85.252736 -96.174632 
L 86.884166 -184.439163 
L 88.515596 -127.930109 
L 90.147026 -83.201001 
L 91.778456 -140.385387 
L 93.409886 -173.775529 
L 95.041316 -200.161253 
L 96.672746 -138.353481 
L 98.304175 -98.03941 
L 99.935605 -184.414399 
L 101.567035 -95.281181 
L 103.198465 -137.619511 
L 104.829895 -130.097678 
L 106.461325 -55.462571 
L 108.092755 -80.222359 
L 109.724185 -77.071048 
L 111.355614 -158.935353 
L 112.987044 -140.051219 
L 114.618474 -161.54539 
L 116.249904 -132.28176 
L 117.881334 -146.408711 
L 119.512764 -182.417238 
L 121.144194 -102.909437 
L 122.775624 -93.592026 
L 124.407053 -149.15665 
L 126.038483 -96.484777 
L 127.669913 -95.623721 
L 129.301343 -170.481838 
L 130.932773 -94.354714 
L 132.564203 -134.148374 
L 134.195633 -170.09438 
L 135.827063 -148.98472 
L 137.458492 -120.480965 
L 139.089922 -50.112 
L 140.721352 -120.962045 
L 142.352782 -162.578928 
L 143.984212 -112.921059 
L 145.615642 -148.729543 
L 147.247072 -152.804252 
L 148.878502 -69.766042 
L 150.509931 -130.021175 
L 152.141361 -107.074835 
L 153.772791 -152.131906 
L 155.404221 -173.694014 
L 157.035651 -90.588609 
L 158.667081 -163.892129 
L 160.298511 -187.666708 
L 161.929941 -154.421083 
L 163.56137 -136.76467 
L 165.1928 -164.305389 
L 166.82423 -151.111751 
L 168.45566 -110.532637 
L 170.08709 -107.844906 
L 171.71852 -182.787013 
L 173.34995 -152.977713 
L 174.98138 -98.987741 
L 176.61281 -164.482916 
L 178.244239 -124.185485 
L 179.875669 -153.456382 
L 181.507099 -100.294357 
L 183.138529 -126.276001 
L 184.769959 -155.391409 
L 186.401389 -161.488913 
L 188.032819 -79.009512 
L 189.664249 -136.729801 
L 191.295678 -113.237689 
L 192.927108 -152.598841 
L 194.558538 -165.418633 
L 196.189968 -155.22442 
L 197.821398 -93.132402 
L 199.452828 -97.316268 
L 201.084258 -124.142513 
L 202.715688 -92.13817 
L 204.347117 -192.116656 
L 205.978547 -155.760276 
L 207.609977 -94.145248 
L 209.241407 -197.996313 
L 210.872837 -167.383626 
L 212.504267 -148.541222 
L 214.135697 -170.219195 
L 215.767127 -144.854454 
L 217.398556 -128.388484 
L 219.029986 -132.803322 
L 220.661416 -131.163625 
L 222.292846 -110.857306 
L 223.924276 -155.263308 
L 225.555706 -171.291643 
L 227.187136 -86.613338 
L 228.818566 -135.51371 
L 230.449995 -74.2204 
L 232.081425 -153.695375 
L 233.712855 -155.049795 
L 235.344285 -138.452782 
L 236.975715 -218.480681 
L 238.607145 -182.629458 
L 240.238575 -110.880575 
L 241.870005 -101.530916 
L 243.501434 -91.337163 
L 245.132864 -146.207092 
L 246.764294 -92.311504 
L 248.395724 -117.976248 
L 250.027154 -166.78219 
L 251.658584 -129.981111 
L 253.290014 -111.59308 
L 254.921444 -162.160976 
L 256.552873 -140.335226 
L 258.184303 -127.600095 
L 259.815733 -223.617609 
L 261.447163 -73.293391 
L 263.078593 -88.596202 
L 264.710023 -155.949385 
L 266.341453 -136.669681 
L 267.972883 -90.616924 
L 269.604312 -167.268748 
L 271.235742 -144.084208 
L 272.867172 -174.454639 
L 274.498602 -127.734046 
L 276.130032 -152.369458 
L 277.761462 -78.279744 
L 279.392892 -157.49966 
L 281.024322 -140.841467 
L 282.655751 -143.675651 
L 284.287181 -136.521863 
L 285.918611 -151.250669 
L 287.550041 -136.416026 
L 289.181471 -150.470354 
L 290.812901 -103.817812 
L 292.444331 -155.992435 
L 294.075761 -156.609853 
L 295.70719 -166.663743 
L 297.33862 -83.037646 
L 298.97005 -165.372713 
L 300.60148 -120.547857 
L 302.23291 -133.913604 
L 303.86434 -57.723971 
L 305.49577 -122.665874 
L 307.1272 -126.416349 
L 308.75863 -152.336042 
L 310.390059 -156.735389 
L 312.021489 -136.192158 
L 313.652919 -131.632268 
L 315.284349 -75.890071 
L 316.915779 -217.293903 
L 318.547209 -149.846097 
L 320.178639 -158.896 
L 321.810069 -194.500334 
L 323.441498 -52.809462 
L 325.072928 -137.552805 
L 326.704358 -133.221293 
L 328.335788 -196.002697 
L 329.967218 -159.002551 
L 331.598648 -112.180675 
L 333.230078 -142.295818 
L 334.861508 -149.007016 
L 336.492937 -107.82294 
L 338.124367 -155.894889 
L 339.755797 -104.657784 
L 341.387227 -137.096955 
L 343.018657 -209.55219 
L 344.650087 -143.313591 
L 346.281517 -143.902543 
L 347.912947 -135.69182 
L 349.544376 -132.62227 
L 351.175806 -110.204173 
L 352.807236 -154.602873 
L 354.438666 -181.95029 
L 356.070096 -103.0074 
L 357.701526 -170.549897 
L 359.332956 -180.495146 
L 360.964386 -117.245129 
L 362.595815 -177.996716 
L 364.227245 -157.11937 
L 365.858675 -141.462082 
L 367.490105 -141.278414 
L 369.121535 -118.044543 
L 370.752965 -161.706173 
L 372.384395 -136.959816 
L 374.015825 -149.008728 
L 375.647254 -150.371226 
L 377.278684 -140.312741 
L 378.910114 -149.29885 
L 380.541544 -138.94362 
L 382.172974 -200.192669 
L 383.804404 -150.679223 
L 385.435834 -180.588332 
L 387.067264 -148.46974 
L 388.698693 -174.321657 
L 390.330123 -176.725543 
L 391.961553 -135.36599 
L 393.592983 -133.927113 
L 395.224413 -121.760199 
L 396.855843 -139.753916 
L 398.487273 -155.926879 
L 398.487273 -261.777007 
L 398.487273 -261.777007 
L 396.855843 -234.142095 
L 395.224413 -188.189723 
L 393.592983 -229.947448 
L 391.961553 -205.500956 
L 390.330123 -239.942173 
L 388.698693 -214.803532 
L 387.067264 -236.136794 
L 385.435834 -212.249767 
L 383.804404 -211.530904 
L 382.172974 -274.509588 
L 380.541544 -208.285949 
L 378.910114 -215.302335 
L 377.278684 -190.447118 
L 375.647254 -238.465887 
L 374.015825 -248.936932 
L 372.384395 -247.700085 
L 370.752965 -219.688343 
L 369.121535 -205.437853 
L 367.490105 -204.211982 
L 365.858675 -250.50915 
L 364.227245 -202.568286 
L 362.595815 -255.525077 
L 360.964386 -196.908119 
L 359.332956 -253.350513 
L 357.701526 -242.801266 
L 356.070096 -203.795469 
L 354.438666 -246.837394 
L 352.807236 -248.304323 
L 351.175806 -223.53702 
L 349.544376 -221.458857 
L 347.912947 -224.560796 
L 346.281517 -228.002512 
L 344.650087 -242.797032 
L 343.018657 -277.19264 
L 341.387227 -234.964763 
L 339.755797 -240.772127 
L 338.124367 -254.269099 
L 336.492937 -219.570356 
L 334.861508 -227.495507 
L 333.230078 -223.294263 
L 331.598648 -219.960007 
L 329.967218 -228.601753 
L 328.335788 -226.980124 
L 326.704358 -186.980991 
L 325.072928 -225.037209 
L 323.441498 -220.652168 
L 321.810069 -272.730638 
L 320.178639 -238.135617 
L 318.547209 -244.013396 
L 316.915779 -283.56084 
L 315.284349 -254.368854 
L 313.652919 -245.63547 
L 312.021489 -204.083911 
L 310.390059 -214.57382 
L 308.75863 -214.886675 
L 307.1272 -222.113585 
L 305.49577 -235.511584 
L 303.86434 -202.993213 
L 302.23291 -227.681797 
L 300.60148 -223.820796 
L 298.97005 -253.564781 
L 297.33862 -255.405081 
L 295.70719 -262.931152 
L 294.075761 -221.486681 
L 292.444331 -267.180867 
L 290.812901 -227.536423 
L 289.181471 -248.150974 
L 287.550041 -225.053842 
L 285.918611 -263.359645 
L 284.287181 -254.219313 
L 282.655751 -249.079498 
L 281.024322 -233.905591 
L 279.392892 -233.826529 
L 277.761462 -230.766854 
L 276.130032 -233.759655 
L 274.498602 -292.032 
L 272.867172 -241.180736 
L 271.235742 -256.863979 
L 269.604312 -239.176026 
L 267.972883 -185.673248 
L 266.341453 -249.453177 
L 264.710023 -240.572903 
L 263.078593 -238.778219 
L 261.447163 -228.294559 
L 259.815733 -258.397853 
L 258.184303 -190.690453 
L 256.552873 -237.533506 
L 254.921444 -254.932419 
L 253.290014 -181.544126 
L 251.658584 -174.480612 
L 250.027154 -234.124636 
L 248.395724 -233.517506 
L 246.764294 -228.155312 
L 245.132864 -228.863604 
L 243.501434 -222.208482 
L 241.870005 -226.123533 
L 240.238575 -191.014173 
L 238.607145 -225.057101 
L 236.975715 -274.272298 
L 235.344285 -260.682045 
L 233.712855 -258.918164 
L 232.081425 -260.710709 
L 230.449995 -216.209333 
L 228.818566 -229.032073 
L 227.187136 -272.453032 
L 225.555706 -247.003854 
L 223.924276 -226.224534 
L 222.292846 -195.041538 
L 220.661416 -188.212958 
L 219.029986 -197.815579 
L 217.398556 -185.593293 
L 215.767127 -226.727095 
L 214.135697 -261.999318 
L 212.504267 -234.375792 
L 210.872837 -234.545084 
L 209.241407 -263.315602 
L 207.609977 -198.760947 
L 205.978547 -269.077721 
L 204.347117 -275.29952 
L 202.715688 -255.724208 
L 201.084258 -226.598863 
L 199.452828 -230.398884 
L 197.821398 -225.464891 
L 196.189968 -240.883413 
L 194.558538 -284.952382 
L 192.927108 -234.091339 
L 191.295678 -249.272276 
L 189.664249 -179.910127 
L 188.032819 -218.831421 
L 186.401389 -232.049257 
L 184.769959 -200.329716 
L 183.138529 -234.413535 
L 181.507099 -193.494604 
L 179.875669 -211.975864 
L 178.244239 -230.562317 
L 176.61281 -205.85517 
L 174.98138 -238.919082 
L 173.34995 -222.800743 
L 171.71852 -222.907109 
L 170.08709 -264.224968 
L 168.45566 -238.021444 
L 166.82423 -216.55836 
L 165.1928 -250.351971 
L 163.56137 -193.044771 
L 161.929941 -224.149935 
L 160.298511 -246.299335 
L 158.667081 -208.839947 
L 157.035651 -200.056926 
L 155.404221 -251.061245 
L 153.772791 -227.650662 
L 152.141361 -226.407637 
L 150.509931 -225.023516 
L 148.878502 -224.756139 
L 147.247072 -218.454132 
L 145.615642 -229.937636 
L 143.984212 -206.069235 
L 142.352782 -243.702553 
L 140.721352 -226.428341 
L 139.089922 -149.282744 
L 137.458492 -176.787678 
L 135.827063 -279.062999 
L 134.195633 -246.758588 
L 132.564203 -230.429109 
L 130.932773 -191.991285 
L 129.301343 -205.564281 
L 127.669913 -261.55909 
L 126.038483 -247.05508 
L 124.407053 -202.296527 
L 122.775624 -223.49705 
L 121.144194 -260.761073 
L 119.512764 -249.390469 
L 117.881334 -241.706307 
L 116.249904 -240.368458 
L 114.618474 -262.17378 
L 112.987044 -238.309102 
L 111.355614 -255.512548 
L 109.724185 -217.112363 
L 108.092755 -215.661428 
L 106.461325 -162.055712 
L 104.829895 -235.24173 
L 103.198465 -202.288595 
L 101.567035 -252.5222 
L 99.935605 -248.733289 
L 98.304175 -206.751017 
L 96.672746 -209.525545 
L 95.041316 -221.035984 
L 93.409886 -185.472846 
L 91.778456 -225.413599 
L 90.147026 -197.296743 
L 88.515596 -217.263121 
L 86.884166 -272.749395 
L 85.252736 -207.944492 
L 83.621307 -241.646325 
L 81.989877 -235.952621 
L 80.358447 -272.371979 
L 78.727017 -203.625253 
L 77.095587 -257.085006 
L 75.464157 -245.010359 
L 73.832727 -235.763055 
z
" style="stroke: #ffffff; stroke-opacity: 0.2"/>
    </defs>
    <g clip-path="url(#pd84d691f43)">
     <use xlink:href="#m64e4b7b318" x="0" y="345.6" style="fill: #1f77b4; fill-opacity: 0.2; stroke: #ffffff; stroke-opacity: 0.2"/>
    </g>
   </g>
   <g id="line2d_15">
    <path d="M 73.832727 170.801863 
L 75.464157 164.50717 
L 77.095587 129.712364 
L 78.727017 178.205951 
L 80.358447 133.842546 
L 81.989877 163.992571 
L 83.621307 145.394198 
L 85.252736 193.540438 
L 86.884166 117.005721 
L 88.515596 173.003385 
L 90.147026 205.351128 
L 91.778456 162.700507 
L 93.409886 165.975813 
L 95.041316 135.001382 
L 96.672746 171.660487 
L 98.304175 193.204786 
L 99.935605 129.026156 
L 101.567035 171.69831 
L 103.198465 175.645947 
L 104.829895 162.930296 
L 106.461325 236.840858 
L 108.092755 197.658107 
L 109.724185 198.508295 
L 111.355614 138.37605 
L 112.987044 156.41984 
L 114.618474 133.740415 
L 116.249904 159.274891 
L 117.881334 151.542491 
L 119.512764 129.696147 
L 121.144194 163.764745 
L 122.775624 187.055462 
L 124.407053 169.873412 
L 126.038483 173.830071 
L 127.669913 167.008594 
L 129.301343 157.57694 
L 130.932773 202.427001 
L 132.564203 163.311259 
L 134.195633 137.173516 
L 135.827063 131.576141 
L 137.458492 196.965679 
L 139.089922 245.902628 
L 140.721352 171.904807 
L 142.352782 142.459259 
L 143.984212 186.104853 
L 145.615642 156.26641 
L 147.247072 159.970808 
L 148.878502 198.338909 
L 150.509931 168.077655 
L 152.141361 178.858764 
L 155.404221 133.222371 
L 157.035651 200.277233 
L 158.667081 159.233962 
L 160.298511 128.616979 
L 161.929941 156.314491 
L 163.56137 180.695279 
L 165.1928 138.27132 
L 166.82423 161.764945 
L 168.45566 171.322959 
L 170.08709 159.565063 
L 171.71852 142.752939 
L 173.34995 157.710772 
L 174.98138 176.646589 
L 176.61281 160.430957 
L 178.244239 168.226099 
L 179.875669 162.883877 
L 181.507099 198.70552 
L 183.138529 165.255232 
L 184.769959 167.739438 
L 186.401389 148.830915 
L 188.032819 196.679533 
L 189.664249 187.280036 
L 191.295678 164.345018 
L 192.927108 152.25491 
L 194.558538 120.414492 
L 196.189968 147.546083 
L 197.821398 186.301353 
L 199.452828 181.742424 
L 201.084258 170.229312 
L 202.715688 171.668811 
L 204.347117 111.891912 
L 205.978547 133.181002 
L 207.609977 199.146903 
L 209.241407 114.944042 
L 210.872837 144.635645 
L 212.504267 154.141493 
L 214.135697 129.490744 
L 217.398556 188.609112 
L 219.029986 180.29055 
L 220.661416 185.911708 
L 222.292846 192.650578 
L 223.924276 154.856079 
L 225.555706 136.452251 
L 227.187136 166.066815 
L 228.818566 163.327109 
L 230.449995 200.385134 
L 232.081425 138.396958 
L 233.712855 138.61602 
L 235.344285 146.032586 
L 236.975715 99.223511 
L 238.607145 141.75672 
L 240.238575 194.652626 
L 241.870005 181.772775 
L 243.501434 188.827178 
L 245.132864 158.064652 
L 246.764294 185.366592 
L 248.395724 169.853123 
L 250.027154 145.146587 
L 251.658584 193.369138 
L 253.290014 199.031397 
L 254.921444 137.053302 
L 256.552873 156.665634 
L 258.184303 186.454726 
L 259.815733 104.592269 
L 261.447163 194.806025 
L 263.078593 181.912789 
L 264.710023 147.338856 
L 266.341453 152.538571 
L 267.972883 207.454914 
L 269.604312 142.377613 
L 271.235742 145.125907 
L 272.867172 137.782313 
L 274.498602 135.716977 
L 276.130032 152.535443 
L 277.761462 191.076701 
L 279.392892 149.936905 
L 281.024322 158.226471 
L 282.655751 149.222426 
L 284.287181 150.229412 
L 285.918611 138.294843 
L 287.550041 164.865066 
L 289.181471 146.289336 
L 290.812901 179.922883 
L 292.444331 134.013349 
L 294.075761 156.551733 
L 295.70719 130.802552 
L 297.33862 176.378637 
L 298.97005 136.131253 
L 300.60148 173.415673 
L 302.23291 164.8023 
L 303.86434 215.241408 
L 305.49577 166.511271 
L 307.1272 171.335033 
L 308.75863 161.988642 
L 310.390059 159.945395 
L 312.021489 175.461966 
L 313.652919 156.966131 
L 315.284349 180.470537 
L 316.915779 95.172629 
L 318.547209 148.670253 
L 320.178639 147.084191 
L 321.810069 111.984514 
L 323.441498 208.869185 
L 325.072928 164.304993 
L 326.704358 185.498858 
L 328.335788 134.10859 
L 329.967218 151.797848 
L 331.598648 179.529659 
L 333.230078 162.804959 
L 334.861508 157.348739 
L 336.492937 181.903352 
L 338.124367 140.518006 
L 339.755797 172.885045 
L 341.387227 159.569141 
L 343.018657 102.227585 
L 344.650087 152.544688 
L 346.281517 159.647472 
L 347.912947 165.473692 
L 349.544376 168.559437 
L 351.175806 178.729404 
L 352.807236 144.146402 
L 354.438666 131.206158 
L 356.070096 192.198566 
L 357.701526 138.924418 
L 359.332956 128.677171 
L 360.964386 188.523376 
L 362.595815 128.839103 
L 364.227245 165.756172 
L 365.858675 149.614384 
L 367.490105 172.854802 
L 369.121535 183.858802 
L 370.752965 154.902742 
L 372.384395 153.27005 
L 374.015825 146.62717 
L 375.647254 151.181443 
L 377.278684 180.22007 
L 378.910114 163.299407 
L 380.541544 171.985215 
L 382.172974 108.248871 
L 383.804404 164.494936 
L 385.435834 149.180951 
L 387.067264 153.296733 
L 388.698693 151.037406 
L 390.330123 137.266142 
L 391.961553 175.166527 
L 393.592983 163.662719 
L 395.224413 190.625039 
L 396.855843 158.651995 
L 398.487273 136.748057 
L 398.487273 136.748057 
" clip-path="url(#pd84d691f43)" style="fill: none; stroke: #1f77b4; stroke-width: 1.5; stroke-linecap: round"/>
   </g>
   <g id="LineCollection_1">
    <path d="M 398.487273 295.488 
L 398.487273 53.568 
" clip-path="url(#pd84d691f43)" style="fill: none; stroke-dasharray: 5.55,2.4; stroke-dashoffset: 0; stroke: #1f77b4; stroke-width: 1.5"/>
   </g>
   <g id="patch_3">
    <path d="M 57.6 307.584 
L 57.6 41.472 
" style="fill: none; stroke: #cccccc; stroke-width: 0.8; stroke-linejoin: miter; stroke-linecap: square"/>
   </g>
   <g id="patch_4">
    <path d="M 414.72 307.584 
L 414.72 41.472 
" style="fill: none; stroke: #cccccc; stroke-width: 0.8; stroke-linejoin: miter; stroke-linecap: square"/>
   </g>
   <g id="patch_5">
    <path d="M 57.6 307.584 
L 414.72 307.584 
" style="fill: none; stroke: #cccccc; stroke-width: 0.8; stroke-linejoin: miter; stroke-linecap: square"/>
   </g>
   <g id="patch_6">
    <path d="M 57.6 41.472 
L 414.72 41.472 
" style="fill: none; stroke: #cccccc; stroke-width: 0.8; stroke-linejoin: miter; stroke-linecap: square"/>
   </g>
   <g id="text_17">
    <!-- Model performance vs. # of iterations -->
    <g style="fill: #262626" transform="translate(122.314688 35.472)scale(0.12 -0.12)">
     <defs>
      <path id="DejaVuSans-4d" d="M 628 4666 
L 1569 4666 
L 2759 1491 
L 3956 4666 
L 4897 4666 
L 4897 0 
L 4281 0 
L 4281 4097 
L 3078 897 
L 2444 897 
L 1241 4097 
L 1241 0 
L 628 0 
L 628 4666 
z
" transform="scale(0.015625)"/>
      <path id="DejaVuSans-64" d="M 2906 2969 
L 2906 4863 
L 3481 4863 
L 3481 0 
L 2906 0 
L 2906 525 
Q 2725 213 2448 61 
Q 2172 -91 1784 -91 
Q 1150 -91 751 415 
Q 353 922 353 1747 
Q 353 2572 751 3078 
Q 1150 3584 1784 3584 
Q 2172 3584 2448 3432 
Q 2725 3281 2906 2969 
z
M 947 1747 
Q 947 1113 1208 752 
Q 1469 391 1925 391 
Q 2381 391 2643 752 
Q 2906 1113 2906 1747 
Q 2906 2381 2643 2742 
Q 2381 3103 1925 3103 
Q 1469 3103 1208 2742 
Q 947 2381 947 1747 
z
" transform="scale(0.015625)"/>
      <path id="DejaVuSans-6c" d="M 603 4863 
L 1178 4863 
L 1178 0 
L 603 0 
L 603 4863 
z
" transform="scale(0.015625)"/>
      <path id="DejaVuSans-20" transform="scale(0.015625)"/>
      <path id="DejaVuSans-70" d="M 1159 525 
L 1159 -1331 
L 581 -1331 
L 581 3500 
L 1159 3500 
L 1159 2969 
Q 1341 3281 1617 3432 
Q 1894 3584 2278 3584 
Q 2916 3584 3314 3078 
Q 3713 2572 3713 1747 
Q 3713 922 3314 415 
Q 2916 -91 2278 -91 
Q 1894 -91 1617 61 
Q 1341 213 1159 525 
z
M 3116 1747 
Q 3116 2381 2855 2742 
Q 2594 3103 2138 3103 
Q 1681 3103 1420 2742 
Q 1159 2381 1159 1747 
Q 1159 1113 1420 752 
Q 1681 391 2138 391 
Q 2594 391 2855 752 
Q 3116 1113 3116 1747 
z
" transform="scale(0.015625)"/>
      <path id="DejaVuSans-66" d="M 2375 4863 
L 2375 4384 
L 1825 4384 
Q 1516 4384 1395 4259 
Q 1275 4134 1275 3809 
L 1275 3500 
L 2222 3500 
L 2222 3053 
L 1275 3053 
L 1275 0 
L 697 0 
L 697 3053 
L 147 3053 
L 147 3500 
L 697 3500 
L 697 3744 
Q 697 4328 969 4595 
Q 1241 4863 1831 4863 
L 2375 4863 
z
" transform="scale(0.015625)"/>
      <path id="DejaVuSans-6d" d="M 3328 2828 
Q 3544 3216 3844 3400 
Q 4144 3584 4550 3584 
Q 5097 3584 5394 3201 
Q 5691 2819 5691 2113 
L 5691 0 
L 5113 0 
L 5113 2094 
Q 5113 2597 4934 2840 
Q 4756 3084 4391 3084 
Q 3944 3084 3684 2787 
Q 3425 2491 3425 1978 
L 3425 0 
L 2847 0 
L 2847 2094 
Q 2847 2600 2669 2842 
Q 2491 3084 2119 3084 
Q 1678 3084 1418 2786 
Q 1159 2488 1159 1978 
L 1159 0 
L 581 0 
L 581 3500 
L 1159 3500 
L 1159 2956 
Q 1356 3278 1631 3431 
Q 1906 3584 2284 3584 
Q 2666 3584 2933 3390 
Q 3200 3197 3328 2828 
z
" transform="scale(0.015625)"/>
      <path id="DejaVuSans-76" d="M 191 3500 
L 800 3500 
L 1894 563 
L 2988 3500 
L 3597 3500 
L 2284 0 
L 1503 0 
L 191 3500 
z
" transform="scale(0.015625)"/>
      <path id="DejaVuSans-73" d="M 2834 3397 
L 2834 2853 
Q 2591 2978 2328 3040 
Q 2066 3103 1784 3103 
Q 1356 3103 1142 2972 
Q 928 2841 928 2578 
Q 928 2378 1081 2264 
Q 1234 2150 1697 2047 
L 1894 2003 
Q 2506 1872 2764 1633 
Q 3022 1394 3022 966 
Q 3022 478 2636 193 
Q 2250 -91 1575 -91 
Q 1294 -91 989 -36 
Q 684 19 347 128 
L 347 722 
Q 666 556 975 473 
Q 1284 391 1588 391 
Q 1994 391 2212 530 
Q 2431 669 2431 922 
Q 2431 1156 2273 1281 
Q 2116 1406 1581 1522 
L 1381 1569 
Q 847 1681 609 1914 
Q 372 2147 372 2553 
Q 372 3047 722 3315 
Q 1072 3584 1716 3584 
Q 2034 3584 2315 3537 
Q 2597 3491 2834 3397 
z
" transform="scale(0.015625)"/>
      <path id="DejaVuSans-23" d="M 3272 2816 
L 2363 2816 
L 2100 1772 
L 3016 1772 
L 3272 2816 
z
M 2803 4594 
L 2478 3297 
L 3391 3297 
L 3719 4594 
L 4219 4594 
L 3897 3297 
L 4872 3297 
L 4872 2816 
L 3775 2816 
L 3519 1772 
L 4513 1772 
L 4513 1294 
L 3397 1294 
L 3072 0 
L 2572 0 
L 2894 1294 
L 1978 1294 
L 1656 0 
L 1153 0 
L 1478 1294 
L 494 1294 
L 494 1772 
L 1594 1772 
L 1856 2816 
L 850 2816 
L 850 3297 
L 1978 3297 
L 2297 4594 
L 2803 4594 
z
" transform="scale(0.015625)"/>
     </defs>
     <use xlink:href="#DejaVuSans-4d"/>
     <use xlink:href="#DejaVuSans-6f" x="86.279297"/>
     <use xlink:href="#DejaVuSans-64" x="147.460938"/>
     <use xlink:href="#DejaVuSans-65" x="210.9375"/>
     <use xlink:href="#DejaVuSans-6c" x="272.460938"/>
     <use xlink:href="#DejaVuSans-20" x="300.244141"/>
     <use xlink:href="#DejaVuSans-70" x="332.03125"/>
     <use xlink:href="#DejaVuSans-65" x="395.507812"/>
     <use xlink:href="#DejaVuSans-72" x="457.03125"/>
     <use xlink:href="#DejaVuSans-66" x="498.144531"/>
     <use xlink:href="#DejaVuSans-6f" x="533.349609"/>
     <use xlink:href="#DejaVuSans-72" x="594.53125"/>
     <use xlink:href="#DejaVuSans-6d" x="633.894531"/>
     <use xlink:href="#DejaVuSans-61" x="731.306641"/>
     <use xlink:href="#DejaVuSans-6e" x="792.585938"/>
     <use xlink:href="#DejaVuSans-63" x="855.964844"/>
     <use xlink:href="#DejaVuSans-65" x="910.945312"/>
     <use xlink:href="#DejaVuSans-20" x="972.46875"/>
     <use xlink:href="#DejaVuSans-76" x="1004.255859"/>
     <use xlink:href="#DejaVuSans-73" x="1063.435547"/>
     <use xlink:href="#DejaVuSans-2e" x="1115.535156"/>
     <use xlink:href="#DejaVuSans-20" x="1147.322266"/>
     <use xlink:href="#DejaVuSans-23" x="1179.109375"/>
     <use xlink:href="#DejaVuSans-20" x="1262.898438"/>
     <use xlink:href="#DejaVuSans-6f" x="1294.685547"/>
     <use xlink:href="#DejaVuSans-66" x="1355.867188"/>
     <use xlink:href="#DejaVuSans-20" x="1391.072266"/>
     <use xlink:href="#DejaVuSans-69" x="1422.859375"/>
     <use xlink:href="#DejaVuSans-74" x="1450.642578"/>
     <use xlink:href="#DejaVuSans-65" x="1489.851562"/>
     <use xlink:href="#DejaVuSans-72" x="1551.375"/>
     <use xlink:href="#DejaVuSans-61" x="1592.488281"/>
     <use xlink:href="#DejaVuSans-74" x="1653.767578"/>
     <use xlink:href="#DejaVuSans-69" x="1692.976562"/>
     <use xlink:href="#DejaVuSans-6f" x="1720.759766"/>
     <use xlink:href="#DejaVuSans-6e" x="1781.941406"/>
     <use xlink:href="#DejaVuSans-73" x="1845.320312"/>
    </g>
   </g>
  </g>
 </g>
 <defs>
  <clipPath id="pd84d691f43">
   <rect x="57.6" y="41.472" width="357.12" height="266.112"/>
  </clipPath>
 </defs>
</svg>
