<?xml version="1.0" encoding="utf-8" standalone="no"?>
<!DOCTYPE svg PUBLIC "-//W3C//DTD SVG 1.1//EN"
  "http://www.w3.org/Graphics/SVG/1.1/DTD/svg11.dtd">
<svg xmlns:xlink="http://www.w3.org/1999/xlink" width="460.8pt" height="345.6pt" viewBox="0 0 460.8 345.6" xmlns="http://www.w3.org/2000/svg" version="1.1">
 <metadata>
  <rdf:RDF xmlns:dc="http://purl.org/dc/elements/1.1/" xmlns:cc="http://creativecommons.org/ns#" xmlns:rdf="http://www.w3.org/1999/02/22-rdf-syntax-ns#">
   <cc:Work>
    <dc:type rdf:resource="http://purl.org/dc/dcmitype/StillImage"/>
    <dc:date>2022-05-19T23:53:30.200622</dc:date>
    <dc:format>image/svg+xml</dc:format>
    <dc:creator>
     <cc:Agent>
      <dc:title>Matplotlib v3.5.1, https://matplotlib.org/</dc:title>
     </cc:Agent>
    </dc:creator>
   </cc:Work>
  </rdf:RDF>
 </metadata>
 <defs>
  <style type="text/css">*{stroke-linejoin: round; stroke-linecap: butt}</style>
 </defs>
 <g id="figure_1">
  <g id="patch_1">
   <path d="M 0 345.6 
L 460.8 345.6 
L 460.8 0 
L 0 0 
z
" style="fill: #ffffff"/>
  </g>
  <g id="axes_1">
   <g id="patch_2">
    <path d="M 57.6 307.584 
L 414.72 307.584 
L 414.72 41.472 
L 57.6 41.472 
z
" style="fill: #ffffff"/>
   </g>
   <g id="matplotlib.axis_1">
    <g id="xtick_1">
     <g id="line2d_1">
      <path d="M 72.201297 307.584 
L 72.201297 41.472 
" clip-path="url(#p5257c86fcd)" style="fill: none; stroke: #cccccc; stroke-width: 0.8; stroke-linecap: round"/>
     </g>
     <g id="text_1">
      <!-- 0 -->
      <g style="fill: #262626" transform="translate(69.020047 322.182437)scale(0.1 -0.1)">
       <defs>
        <path id="DejaVuSans-30" d="M 2034 4250 
Q 1547 4250 1301 3770 
Q 1056 3291 1056 2328 
Q 1056 1369 1301 889 
Q 1547 409 2034 409 
Q 2525 409 2770 889 
Q 3016 1369 3016 2328 
Q 3016 3291 2770 3770 
Q 2525 4250 2034 4250 
z
M 2034 4750 
Q 2819 4750 3233 4129 
Q 3647 3509 3647 2328 
Q 3647 1150 3233 529 
Q 2819 -91 2034 -91 
Q 1250 -91 836 529 
Q 422 1150 422 2328 
Q 422 3509 836 4129 
Q 1250 4750 2034 4750 
z
" transform="scale(0.015625)"/>
       </defs>
       <use xlink:href="#DejaVuSans-30"/>
      </g>
     </g>
    </g>
    <g id="xtick_2">
     <g id="line2d_2">
      <path d="M 112.987044 307.584 
L 112.987044 41.472 
" clip-path="url(#p5257c86fcd)" style="fill: none; stroke: #cccccc; stroke-width: 0.8; stroke-linecap: round"/>
     </g>
     <g id="text_2">
      <!-- 25 -->
      <g style="fill: #262626" transform="translate(106.624544 322.182437)scale(0.1 -0.1)">
       <defs>
        <path id="DejaVuSans-32" d="M 1228 531 
L 3431 531 
L 3431 0 
L 469 0 
L 469 531 
Q 828 903 1448 1529 
Q 2069 2156 2228 2338 
Q 2531 2678 2651 2914 
Q 2772 3150 2772 3378 
Q 2772 3750 2511 3984 
Q 2250 4219 1831 4219 
Q 1534 4219 1204 4116 
Q 875 4013 500 3803 
L 500 4441 
Q 881 4594 1212 4672 
Q 1544 4750 1819 4750 
Q 2544 4750 2975 4387 
Q 3406 4025 3406 3419 
Q 3406 3131 3298 2873 
Q 3191 2616 2906 2266 
Q 2828 2175 2409 1742 
Q 1991 1309 1228 531 
z
" transform="scale(0.015625)"/>
        <path id="DejaVuSans-35" d="M 691 4666 
L 3169 4666 
L 3169 4134 
L 1269 4134 
L 1269 2991 
Q 1406 3038 1543 3061 
Q 1681 3084 1819 3084 
Q 2600 3084 3056 2656 
Q 3513 2228 3513 1497 
Q 3513 744 3044 326 
Q 2575 -91 1722 -91 
Q 1428 -91 1123 -41 
Q 819 9 494 109 
L 494 744 
Q 775 591 1075 516 
Q 1375 441 1709 441 
Q 2250 441 2565 725 
Q 2881 1009 2881 1497 
Q 2881 1984 2565 2268 
Q 2250 2553 1709 2553 
Q 1456 2553 1204 2497 
Q 953 2441 691 2322 
L 691 4666 
z
" transform="scale(0.015625)"/>
       </defs>
       <use xlink:href="#DejaVuSans-32"/>
       <use xlink:href="#DejaVuSans-35" x="63.623047"/>
      </g>
     </g>
    </g>
    <g id="xtick_3">
     <g id="line2d_3">
      <path d="M 153.772791 307.584 
L 153.772791 41.472 
" clip-path="url(#p5257c86fcd)" style="fill: none; stroke: #cccccc; stroke-width: 0.8; stroke-linecap: round"/>
     </g>
     <g id="text_3">
      <!-- 50 -->
      <g style="fill: #262626" transform="translate(147.410291 322.182437)scale(0.1 -0.1)">
       <use xlink:href="#DejaVuSans-35"/>
       <use xlink:href="#DejaVuSans-30" x="63.623047"/>
      </g>
     </g>
    </g>
    <g id="xtick_4">
     <g id="line2d_4">
      <path d="M 194.558538 307.584 
L 194.558538 41.472 
" clip-path="url(#p5257c86fcd)" style="fill: none; stroke: #cccccc; stroke-width: 0.8; stroke-linecap: round"/>
     </g>
     <g id="text_4">
      <!-- 75 -->
      <g style="fill: #262626" transform="translate(188.196038 322.182437)scale(0.1 -0.1)">
       <defs>
        <path id="DejaVuSans-37" d="M 525 4666 
L 3525 4666 
L 3525 4397 
L 1831 0 
L 1172 0 
L 2766 4134 
L 525 4134 
L 525 4666 
z
" transform="scale(0.015625)"/>
       </defs>
       <use xlink:href="#DejaVuSans-37"/>
       <use xlink:href="#DejaVuSans-35" x="63.623047"/>
      </g>
     </g>
    </g>
    <g id="xtick_5">
     <g id="line2d_5">
      <path d="M 235.344285 307.584 
L 235.344285 41.472 
" clip-path="url(#p5257c86fcd)" style="fill: none; stroke: #cccccc; stroke-width: 0.8; stroke-linecap: round"/>
     </g>
     <g id="text_5">
      <!-- 100 -->
      <g style="fill: #262626" transform="translate(225.800535 322.182437)scale(0.1 -0.1)">
       <defs>
        <path id="DejaVuSans-31" d="M 794 531 
L 1825 531 
L 1825 4091 
L 703 3866 
L 703 4441 
L 1819 4666 
L 2450 4666 
L 2450 531 
L 3481 531 
L 3481 0 
L 794 0 
L 794 531 
z
" transform="scale(0.015625)"/>
       </defs>
       <use xlink:href="#DejaVuSans-31"/>
       <use xlink:href="#DejaVuSans-30" x="63.623047"/>
       <use xlink:href="#DejaVuSans-30" x="127.246094"/>
      </g>
     </g>
    </g>
    <g id="xtick_6">
     <g id="line2d_6">
      <path d="M 276.130032 307.584 
L 276.130032 41.472 
" clip-path="url(#p5257c86fcd)" style="fill: none; stroke: #cccccc; stroke-width: 0.8; stroke-linecap: round"/>
     </g>
     <g id="text_6">
      <!-- 125 -->
      <g style="fill: #262626" transform="translate(266.586282 322.182437)scale(0.1 -0.1)">
       <use xlink:href="#DejaVuSans-31"/>
       <use xlink:href="#DejaVuSans-32" x="63.623047"/>
       <use xlink:href="#DejaVuSans-35" x="127.246094"/>
      </g>
     </g>
    </g>
    <g id="xtick_7">
     <g id="line2d_7">
      <path d="M 316.915779 307.584 
L 316.915779 41.472 
" clip-path="url(#p5257c86fcd)" style="fill: none; stroke: #cccccc; stroke-width: 0.8; stroke-linecap: round"/>
     </g>
     <g id="text_7">
      <!-- 150 -->
      <g style="fill: #262626" transform="translate(307.372029 322.182437)scale(0.1 -0.1)">
       <use xlink:href="#DejaVuSans-31"/>
       <use xlink:href="#DejaVuSans-35" x="63.623047"/>
       <use xlink:href="#DejaVuSans-30" x="127.246094"/>
      </g>
     </g>
    </g>
    <g id="xtick_8">
     <g id="line2d_8">
      <path d="M 357.701526 307.584 
L 357.701526 41.472 
" clip-path="url(#p5257c86fcd)" style="fill: none; stroke: #cccccc; stroke-width: 0.8; stroke-linecap: round"/>
     </g>
     <g id="text_8">
      <!-- 175 -->
      <g style="fill: #262626" transform="translate(348.157776 322.182437)scale(0.1 -0.1)">
       <use xlink:href="#DejaVuSans-31"/>
       <use xlink:href="#DejaVuSans-37" x="63.623047"/>
       <use xlink:href="#DejaVuSans-35" x="127.246094"/>
      </g>
     </g>
    </g>
    <g id="xtick_9">
     <g id="line2d_9">
      <path d="M 398.487273 307.584 
L 398.487273 41.472 
" clip-path="url(#p5257c86fcd)" style="fill: none; stroke: #cccccc; stroke-width: 0.8; stroke-linecap: round"/>
     </g>
     <g id="text_9">
      <!-- 200 -->
      <g style="fill: #262626" transform="translate(388.943523 322.182437)scale(0.1 -0.1)">
       <use xlink:href="#DejaVuSans-32"/>
       <use xlink:href="#DejaVuSans-30" x="63.623047"/>
       <use xlink:href="#DejaVuSans-30" x="127.246094"/>
      </g>
     </g>
    </g>
    <g id="text_10">
     <!-- Iteration -->
     <g style="fill: #262626" transform="translate(214.951406 335.860562)scale(0.1 -0.1)">
      <defs>
       <path id="DejaVuSans-49" d="M 628 4666 
L 1259 4666 
L 1259 0 
L 628 0 
L 628 4666 
z
" transform="scale(0.015625)"/>
       <path id="DejaVuSans-74" d="M 1172 4494 
L 1172 3500 
L 2356 3500 
L 2356 3053 
L 1172 3053 
L 1172 1153 
Q 1172 725 1289 603 
Q 1406 481 1766 481 
L 2356 481 
L 2356 0 
L 1766 0 
Q 1100 0 847 248 
Q 594 497 594 1153 
L 594 3053 
L 172 3053 
L 172 3500 
L 594 3500 
L 594 4494 
L 1172 4494 
z
" transform="scale(0.015625)"/>
       <path id="DejaVuSans-65" d="M 3597 1894 
L 3597 1613 
L 953 1613 
Q 991 1019 1311 708 
Q 1631 397 2203 397 
Q 2534 397 2845 478 
Q 3156 559 3463 722 
L 3463 178 
Q 3153 47 2828 -22 
Q 2503 -91 2169 -91 
Q 1331 -91 842 396 
Q 353 884 353 1716 
Q 353 2575 817 3079 
Q 1281 3584 2069 3584 
Q 2775 3584 3186 3129 
Q 3597 2675 3597 1894 
z
M 3022 2063 
Q 3016 2534 2758 2815 
Q 2500 3097 2075 3097 
Q 1594 3097 1305 2825 
Q 1016 2553 972 2059 
L 3022 2063 
z
" transform="scale(0.015625)"/>
       <path id="DejaVuSans-72" d="M 2631 2963 
Q 2534 3019 2420 3045 
Q 2306 3072 2169 3072 
Q 1681 3072 1420 2755 
Q 1159 2438 1159 1844 
L 1159 0 
L 581 0 
L 581 3500 
L 1159 3500 
L 1159 2956 
Q 1341 3275 1631 3429 
Q 1922 3584 2338 3584 
Q 2397 3584 2469 3576 
Q 2541 3569 2628 3553 
L 2631 2963 
z
" transform="scale(0.015625)"/>
       <path id="DejaVuSans-61" d="M 2194 1759 
Q 1497 1759 1228 1600 
Q 959 1441 959 1056 
Q 959 750 1161 570 
Q 1363 391 1709 391 
Q 2188 391 2477 730 
Q 2766 1069 2766 1631 
L 2766 1759 
L 2194 1759 
z
M 3341 1997 
L 3341 0 
L 2766 0 
L 2766 531 
Q 2569 213 2275 61 
Q 1981 -91 1556 -91 
Q 1019 -91 701 211 
Q 384 513 384 1019 
Q 384 1609 779 1909 
Q 1175 2209 1959 2209 
L 2766 2209 
L 2766 2266 
Q 2766 2663 2505 2880 
Q 2244 3097 1772 3097 
Q 1472 3097 1187 3025 
Q 903 2953 641 2809 
L 641 3341 
Q 956 3463 1253 3523 
Q 1550 3584 1831 3584 
Q 2591 3584 2966 3190 
Q 3341 2797 3341 1997 
z
" transform="scale(0.015625)"/>
       <path id="DejaVuSans-69" d="M 603 3500 
L 1178 3500 
L 1178 0 
L 603 0 
L 603 3500 
z
M 603 4863 
L 1178 4863 
L 1178 4134 
L 603 4134 
L 603 4863 
z
" transform="scale(0.015625)"/>
       <path id="DejaVuSans-6f" d="M 1959 3097 
Q 1497 3097 1228 2736 
Q 959 2375 959 1747 
Q 959 1119 1226 758 
Q 1494 397 1959 397 
Q 2419 397 2687 759 
Q 2956 1122 2956 1747 
Q 2956 2369 2687 2733 
Q 2419 3097 1959 3097 
z
M 1959 3584 
Q 2709 3584 3137 3096 
Q 3566 2609 3566 1747 
Q 3566 888 3137 398 
Q 2709 -91 1959 -91 
Q 1206 -91 779 398 
Q 353 888 353 1747 
Q 353 2609 779 3096 
Q 1206 3584 1959 3584 
z
" transform="scale(0.015625)"/>
       <path id="DejaVuSans-6e" d="M 3513 2113 
L 3513 0 
L 2938 0 
L 2938 2094 
Q 2938 2591 2744 2837 
Q 2550 3084 2163 3084 
Q 1697 3084 1428 2787 
Q 1159 2491 1159 1978 
L 1159 0 
L 581 0 
L 581 3500 
L 1159 3500 
L 1159 2956 
Q 1366 3272 1645 3428 
Q 1925 3584 2291 3584 
Q 2894 3584 3203 3211 
Q 3513 2838 3513 2113 
z
" transform="scale(0.015625)"/>
      </defs>
      <use xlink:href="#DejaVuSans-49"/>
      <use xlink:href="#DejaVuSans-74" x="29.492188"/>
      <use xlink:href="#DejaVuSans-65" x="68.701172"/>
      <use xlink:href="#DejaVuSans-72" x="130.224609"/>
      <use xlink:href="#DejaVuSans-61" x="171.337891"/>
      <use xlink:href="#DejaVuSans-74" x="232.617188"/>
      <use xlink:href="#DejaVuSans-69" x="271.826172"/>
      <use xlink:href="#DejaVuSans-6f" x="299.609375"/>
      <use xlink:href="#DejaVuSans-6e" x="360.791016"/>
     </g>
    </g>
   </g>
   <g id="matplotlib.axis_2">
    <g id="ytick_1">
     <g id="line2d_10">
      <path d="M 57.6 275.85147 
L 414.72 275.85147 
" clip-path="url(#p5257c86fcd)" style="fill: none; stroke: #cccccc; stroke-width: 0.8; stroke-linecap: round"/>
     </g>
     <g id="text_11">
      <!-- 0.55 -->
      <g style="fill: #262626" transform="translate(28.334375 279.650689)scale(0.1 -0.1)">
       <defs>
        <path id="DejaVuSans-2e" d="M 684 794 
L 1344 794 
L 1344 0 
L 684 0 
L 684 794 
z
" transform="scale(0.015625)"/>
       </defs>
       <use xlink:href="#DejaVuSans-30"/>
       <use xlink:href="#DejaVuSans-2e" x="63.623047"/>
       <use xlink:href="#DejaVuSans-35" x="95.410156"/>
       <use xlink:href="#DejaVuSans-35" x="159.033203"/>
      </g>
     </g>
    </g>
    <g id="ytick_2">
     <g id="line2d_11">
      <path d="M 57.6 224.016789 
L 414.72 224.016789 
" clip-path="url(#p5257c86fcd)" style="fill: none; stroke: #cccccc; stroke-width: 0.8; stroke-linecap: round"/>
     </g>
     <g id="text_12">
      <!-- 0.60 -->
      <g style="fill: #262626" transform="translate(28.334375 227.816008)scale(0.1 -0.1)">
       <defs>
        <path id="DejaVuSans-36" d="M 2113 2584 
Q 1688 2584 1439 2293 
Q 1191 2003 1191 1497 
Q 1191 994 1439 701 
Q 1688 409 2113 409 
Q 2538 409 2786 701 
Q 3034 994 3034 1497 
Q 3034 2003 2786 2293 
Q 2538 2584 2113 2584 
z
M 3366 4563 
L 3366 3988 
Q 3128 4100 2886 4159 
Q 2644 4219 2406 4219 
Q 1781 4219 1451 3797 
Q 1122 3375 1075 2522 
Q 1259 2794 1537 2939 
Q 1816 3084 2150 3084 
Q 2853 3084 3261 2657 
Q 3669 2231 3669 1497 
Q 3669 778 3244 343 
Q 2819 -91 2113 -91 
Q 1303 -91 875 529 
Q 447 1150 447 2328 
Q 447 3434 972 4092 
Q 1497 4750 2381 4750 
Q 2619 4750 2861 4703 
Q 3103 4656 3366 4563 
z
" transform="scale(0.015625)"/>
       </defs>
       <use xlink:href="#DejaVuSans-30"/>
       <use xlink:href="#DejaVuSans-2e" x="63.623047"/>
       <use xlink:href="#DejaVuSans-36" x="95.410156"/>
       <use xlink:href="#DejaVuSans-30" x="159.033203"/>
      </g>
     </g>
    </g>
    <g id="ytick_3">
     <g id="line2d_12">
      <path d="M 57.6 172.182108 
L 414.72 172.182108 
" clip-path="url(#p5257c86fcd)" style="fill: none; stroke: #cccccc; stroke-width: 0.8; stroke-linecap: round"/>
     </g>
     <g id="text_13">
      <!-- 0.65 -->
      <g style="fill: #262626" transform="translate(28.334375 175.981327)scale(0.1 -0.1)">
       <use xlink:href="#DejaVuSans-30"/>
       <use xlink:href="#DejaVuSans-2e" x="63.623047"/>
       <use xlink:href="#DejaVuSans-36" x="95.410156"/>
       <use xlink:href="#DejaVuSans-35" x="159.033203"/>
      </g>
     </g>
    </g>
    <g id="ytick_4">
     <g id="line2d_13">
      <path d="M 57.6 120.347428 
L 414.72 120.347428 
" clip-path="url(#p5257c86fcd)" style="fill: none; stroke: #cccccc; stroke-width: 0.8; stroke-linecap: round"/>
     </g>
     <g id="text_14">
      <!-- 0.70 -->
      <g style="fill: #262626" transform="translate(28.334375 124.146646)scale(0.1 -0.1)">
       <use xlink:href="#DejaVuSans-30"/>
       <use xlink:href="#DejaVuSans-2e" x="63.623047"/>
       <use xlink:href="#DejaVuSans-37" x="95.410156"/>
       <use xlink:href="#DejaVuSans-30" x="159.033203"/>
      </g>
     </g>
    </g>
    <g id="ytick_5">
     <g id="line2d_14">
      <path d="M 57.6 68.512747 
L 414.72 68.512747 
" clip-path="url(#p5257c86fcd)" style="fill: none; stroke: #cccccc; stroke-width: 0.8; stroke-linecap: round"/>
     </g>
     <g id="text_15">
      <!-- 0.75 -->
      <g style="fill: #262626" transform="translate(28.334375 72.311965)scale(0.1 -0.1)">
       <use xlink:href="#DejaVuSans-30"/>
       <use xlink:href="#DejaVuSans-2e" x="63.623047"/>
       <use xlink:href="#DejaVuSans-37" x="95.410156"/>
       <use xlink:href="#DejaVuSans-35" x="159.033203"/>
      </g>
     </g>
    </g>
    <g id="text_16">
     <!-- Auroc -->
     <g style="fill: #262626" transform="translate(22.254688 188.868625)rotate(-90)scale(0.1 -0.1)">
      <defs>
       <path id="DejaVuSans-41" d="M 2188 4044 
L 1331 1722 
L 3047 1722 
L 2188 4044 
z
M 1831 4666 
L 2547 4666 
L 4325 0 
L 3669 0 
L 3244 1197 
L 1141 1197 
L 716 0 
L 50 0 
L 1831 4666 
z
" transform="scale(0.015625)"/>
       <path id="DejaVuSans-75" d="M 544 1381 
L 544 3500 
L 1119 3500 
L 1119 1403 
Q 1119 906 1312 657 
Q 1506 409 1894 409 
Q 2359 409 2629 706 
Q 2900 1003 2900 1516 
L 2900 3500 
L 3475 3500 
L 3475 0 
L 2900 0 
L 2900 538 
Q 2691 219 2414 64 
Q 2138 -91 1772 -91 
Q 1169 -91 856 284 
Q 544 659 544 1381 
z
M 1991 3584 
L 1991 3584 
z
" transform="scale(0.015625)"/>
       <path id="DejaVuSans-63" d="M 3122 3366 
L 3122 2828 
Q 2878 2963 2633 3030 
Q 2388 3097 2138 3097 
Q 1578 3097 1268 2742 
Q 959 2388 959 1747 
Q 959 1106 1268 751 
Q 1578 397 2138 397 
Q 2388 397 2633 464 
Q 2878 531 3122 666 
L 3122 134 
Q 2881 22 2623 -34 
Q 2366 -91 2075 -91 
Q 1284 -91 818 406 
Q 353 903 353 1747 
Q 353 2603 823 3093 
Q 1294 3584 2113 3584 
Q 2378 3584 2631 3529 
Q 2884 3475 3122 3366 
z
" transform="scale(0.015625)"/>
      </defs>
      <use xlink:href="#DejaVuSans-41"/>
      <use xlink:href="#DejaVuSans-75" x="68.408203"/>
      <use xlink:href="#DejaVuSans-72" x="131.787109"/>
      <use xlink:href="#DejaVuSans-6f" x="170.650391"/>
      <use xlink:href="#DejaVuSans-63" x="231.832031"/>
     </g>
    </g>
   </g>
   <g id="PolyCollection_1">
    <defs>
     <path id="m0806b0c03b" d="M 73.832727 -260.528287 
L 73.832727 -161.250887 
L 75.464157 -145.720631 
L 77.095587 -131.080066 
L 78.727017 -163.962422 
L 80.358447 -50.112 
L 81.989877 -153.901652 
L 83.621307 -89.35085 
L 85.252736 -160.993115 
L 86.884166 -154.698916 
L 88.515596 -180.945926 
L 90.147026 -175.801139 
L 91.778456 -165.571034 
L 93.409886 -146.924445 
L 95.041316 -125.423251 
L 96.672746 -175.414674 
L 98.304175 -158.642646 
L 99.935605 -134.554094 
L 101.567035 -163.362989 
L 103.198465 -173.473077 
L 104.829895 -146.246723 
L 106.461325 -155.680526 
L 108.092755 -158.017464 
L 109.724185 -178.657087 
L 111.355614 -161.753957 
L 112.987044 -139.869574 
L 114.618474 -180.676416 
L 116.249904 -177.52422 
L 117.881334 -135.063851 
L 119.512764 -173.642905 
L 121.144194 -170.499407 
L 122.775624 -157.813701 
L 124.407053 -194.376752 
L 126.038483 -193.122278 
L 127.669913 -181.109927 
L 129.301343 -81.287749 
L 130.932773 -146.620315 
L 132.564203 -125.687957 
L 134.195633 -142.867004 
L 135.827063 -158.43413 
L 137.458492 -133.22209 
L 139.089922 -168.120428 
L 140.721352 -152.786495 
L 142.352782 -169.067619 
L 143.984212 -173.713152 
L 145.615642 -152.410059 
L 147.247072 -123.007823 
L 148.878502 -142.415462 
L 150.509931 -196.78206 
L 152.141361 -134.735423 
L 153.772791 -170.736721 
L 155.404221 -188.371937 
L 157.035651 -153.972306 
L 158.667081 -192.827995 
L 160.298511 -145.436955 
L 161.929941 -193.158678 
L 163.56137 -145.299886 
L 165.1928 -139.549878 
L 166.82423 -78.590171 
L 168.45566 -172.96521 
L 170.08709 -183.254449 
L 171.71852 -155.301363 
L 173.34995 -140.053078 
L 174.98138 -153.368662 
L 176.61281 -145.026403 
L 178.244239 -165.33265 
L 179.875669 -154.055085 
L 181.507099 -190.447068 
L 183.138529 -196.503894 
L 184.769959 -193.757347 
L 186.401389 -168.006533 
L 188.032819 -182.653066 
L 189.664249 -166.275681 
L 191.295678 -87.449051 
L 192.927108 -154.917155 
L 194.558538 -157.879237 
L 196.189968 -169.398929 
L 197.821398 -152.704034 
L 199.452828 -165.405124 
L 201.084258 -144.084761 
L 202.715688 -130.360338 
L 204.347117 -158.460783 
L 205.978547 -154.923555 
L 207.609977 -128.225282 
L 209.241407 -182.878334 
L 210.872837 -155.144197 
L 212.504267 -192.688342 
L 214.135697 -168.271867 
L 215.767127 -190.25944 
L 217.398556 -186.552129 
L 219.029986 -189.820076 
L 220.661416 -169.798156 
L 222.292846 -146.260329 
L 223.924276 -175.242002 
L 225.555706 -176.430736 
L 227.187136 -162.674887 
L 228.818566 -127.265641 
L 230.449995 -160.43563 
L 232.081425 -162.382995 
L 233.712855 -160.505739 
L 235.344285 -181.016544 
L 236.975715 -176.023673 
L 238.607145 -133.754072 
L 240.238575 -144.616014 
L 241.870005 -201.364811 
L 243.501434 -176.49517 
L 245.132864 -170.712014 
L 246.764294 -130.307495 
L 248.395724 -171.20002 
L 250.027154 -171.372366 
L 251.658584 -132.746371 
L 253.290014 -155.668147 
L 254.921444 -173.768502 
L 256.552873 -104.842397 
L 258.184303 -172.838754 
L 259.815733 -156.76923 
L 261.447163 -164.45419 
L 263.078593 -156.935774 
L 264.710023 -152.391323 
L 266.341453 -152.026354 
L 267.972883 -170.660189 
L 269.604312 -172.799655 
L 271.235742 -192.679009 
L 272.867172 -198.646066 
L 274.498602 -133.702995 
L 276.130032 -141.978295 
L 277.761462 -173.418197 
L 279.392892 -140.371314 
L 281.024322 -161.185135 
L 282.655751 -181.840656 
L 284.287181 -123.708209 
L 285.918611 -129.647408 
L 287.550041 -130.81298 
L 289.181471 -97.448369 
L 290.812901 -169.75343 
L 292.444331 -177.82258 
L 294.075761 -171.090612 
L 295.70719 -126.265566 
L 297.33862 -187.497348 
L 298.97005 -140.115425 
L 300.60148 -208.532321 
L 302.23291 -169.706175 
L 303.86434 -143.388759 
L 305.49577 -151.744928 
L 307.1272 -147.461917 
L 308.75863 -120.812611 
L 310.390059 -163.811427 
L 312.021489 -121.797457 
L 313.652919 -156.600303 
L 315.284349 -163.563352 
L 316.915779 -142.073401 
L 318.547209 -164.041946 
L 320.178639 -146.07616 
L 321.810069 -172.370149 
L 323.441498 -167.675139 
L 325.072928 -200.079631 
L 326.704358 -164.824804 
L 328.335788 -152.787285 
L 329.967218 -158.340377 
L 331.598648 -150.189581 
L 333.230078 -177.964346 
L 334.861508 -201.807625 
L 336.492937 -153.214357 
L 338.124367 -167.349799 
L 339.755797 -183.790941 
L 341.387227 -211.543635 
L 343.018657 -170.984186 
L 344.650087 -152.702686 
L 346.281517 -167.552188 
L 347.912947 -153.500213 
L 349.544376 -184.776567 
L 351.175806 -155.752464 
L 352.807236 -168.605693 
L 354.438666 -162.679947 
L 356.070096 -192.263292 
L 357.701526 -157.232187 
L 359.332956 -165.250298 
L 360.964386 -180.736504 
L 362.595815 -114.759794 
L 364.227245 -169.79956 
L 365.858675 -145.169146 
L 367.490105 -169.734521 
L 369.121535 -208.096175 
L 370.752965 -144.396737 
L 372.384395 -169.144919 
L 374.015825 -157.19873 
L 375.647254 -210.15562 
L 377.278684 -164.538606 
L 378.910114 -172.98936 
L 380.541544 -166.28509 
L 382.172974 -163.455915 
L 383.804404 -152.665892 
L 385.435834 -163.690976 
L 387.067264 -169.380387 
L 388.698693 -127.654247 
L 390.330123 -166.889292 
L 391.961553 -116.34564 
L 393.592983 -132.31744 
L 395.224413 -154.839894 
L 396.855843 -182.577382 
L 398.487273 -185.086753 
L 398.487273 -228.532636 
L 398.487273 -228.532636 
L 396.855843 -236.00699 
L 395.224413 -238.22158 
L 393.592983 -246.865222 
L 391.961553 -225.409999 
L 390.330123 -248.920706 
L 388.698693 -246.650408 
L 387.067264 -229.410557 
L 385.435834 -237.18806 
L 383.804404 -242.590451 
L 382.172974 -238.272243 
L 380.541544 -238.836887 
L 378.910114 -255.279007 
L 377.278684 -215.657607 
L 375.647254 -246.094953 
L 374.015825 -241.718709 
L 372.384395 -232.199994 
L 370.752965 -221.260506 
L 369.121535 -250.592567 
L 367.490105 -257.0408 
L 365.858675 -247.675013 
L 364.227245 -230.337298 
L 362.595815 -219.908124 
L 360.964386 -242.191321 
L 359.332956 -231.426569 
L 357.701526 -243.972863 
L 356.070096 -271.218904 
L 354.438666 -226.577309 
L 352.807236 -280.896178 
L 351.175806 -236.340327 
L 349.544376 -232.268473 
L 347.912947 -247.69055 
L 346.281517 -265.781591 
L 344.650087 -254.920039 
L 343.018657 -206.596147 
L 341.387227 -238.413085 
L 339.755797 -230.091548 
L 338.124367 -234.60169 
L 336.492937 -232.711075 
L 334.861508 -255.817269 
L 333.230078 -251.945704 
L 331.598648 -280.81264 
L 329.967218 -253.885641 
L 328.335788 -239.915841 
L 326.704358 -217.80047 
L 325.072928 -230.713463 
L 323.441498 -229.435689 
L 321.810069 -241.145972 
L 320.178639 -261.658606 
L 318.547209 -211.066464 
L 316.915779 -257.535083 
L 315.284349 -243.706122 
L 313.652919 -254.506891 
L 312.021489 -231.91887 
L 310.390059 -221.106944 
L 308.75863 -241.244555 
L 307.1272 -220.686743 
L 305.49577 -241.550988 
L 303.86434 -263.966521 
L 302.23291 -218.341772 
L 300.60148 -253.014095 
L 298.97005 -267.703393 
L 297.33862 -243.427589 
L 295.70719 -243.828398 
L 294.075761 -263.531431 
L 292.444331 -228.739639 
L 290.812901 -230.142886 
L 289.181471 -247.524936 
L 287.550041 -265.557508 
L 285.918611 -234.09497 
L 284.287181 -272.108757 
L 282.655751 -258.455296 
L 281.024322 -277.021638 
L 279.392892 -271.752857 
L 277.761462 -230.619212 
L 276.130032 -209.588281 
L 274.498602 -246.910302 
L 272.867172 -255.794304 
L 271.235742 -241.311226 
L 269.604312 -238.357419 
L 267.972883 -227.72846 
L 266.341453 -237.774063 
L 264.710023 -241.154158 
L 263.078593 -237.55767 
L 261.447163 -245.122779 
L 259.815733 -226.82289 
L 258.184303 -226.727704 
L 256.552873 -278.61075 
L 254.921444 -240.862766 
L 253.290014 -257.326452 
L 251.658584 -231.128435 
L 250.027154 -248.302339 
L 248.395724 -253.0987 
L 246.764294 -223.405128 
L 245.132864 -201.296508 
L 243.501434 -274.26731 
L 241.870005 -243.657421 
L 240.238575 -209.673219 
L 238.607145 -243.815344 
L 236.975715 -236.293917 
L 235.344285 -246.157313 
L 233.712855 -234.771492 
L 232.081425 -219.224802 
L 230.449995 -245.010522 
L 228.818566 -267.386048 
L 227.187136 -240.714171 
L 225.555706 -251.996461 
L 223.924276 -250.039188 
L 222.292846 -292.032 
L 220.661416 -232.868107 
L 219.029986 -251.731805 
L 217.398556 -222.895336 
L 215.767127 -232.021036 
L 214.135697 -242.594452 
L 212.504267 -256.628716 
L 210.872837 -245.967945 
L 209.241407 -246.943403 
L 207.609977 -266.336925 
L 205.978547 -218.105703 
L 204.347117 -255.648546 
L 202.715688 -211.795981 
L 201.084258 -209.887899 
L 199.452828 -250.991815 
L 197.821398 -241.795593 
L 196.189968 -224.938945 
L 194.558538 -254.860116 
L 192.927108 -242.923487 
L 191.295678 -253.902705 
L 189.664249 -258.990887 
L 188.032819 -237.026151 
L 186.401389 -250.733995 
L 184.769959 -244.796412 
L 183.138529 -238.887314 
L 181.507099 -249.416762 
L 179.875669 -247.04135 
L 178.244239 -225.910433 
L 176.61281 -214.950023 
L 174.98138 -212.20723 
L 173.34995 -237.776486 
L 171.71852 -243.017521 
L 170.08709 -258.780355 
L 168.45566 -248.31333 
L 166.82423 -250.463967 
L 165.1928 -239.559845 
L 163.56137 -251.449086 
L 161.929941 -258.07135 
L 160.298511 -204.132598 
L 158.667081 -222.546538 
L 157.035651 -221.57207 
L 155.404221 -230.039403 
L 153.772791 -251.675765 
L 152.141361 -218.233963 
L 150.509931 -241.779385 
L 148.878502 -227.416321 
L 147.247072 -269.256412 
L 145.615642 -229.661192 
L 143.984212 -219.121817 
L 142.352782 -257.750313 
L 140.721352 -231.388723 
L 139.089922 -221.061047 
L 137.458492 -224.828165 
L 135.827063 -229.372023 
L 134.195633 -225.167359 
L 132.564203 -218.557346 
L 130.932773 -253.524313 
L 129.301343 -242.535798 
L 127.669913 -264.007218 
L 126.038483 -216.652789 
L 124.407053 -229.882532 
L 122.775624 -222.402146 
L 121.144194 -240.422891 
L 119.512764 -246.729614 
L 117.881334 -216.523529 
L 116.249904 -231.778537 
L 114.618474 -214.335626 
L 112.987044 -228.401069 
L 111.355614 -224.656569 
L 109.724185 -250.487558 
L 108.092755 -229.179856 
L 106.461325 -183.884282 
L 104.829895 -223.991867 
L 103.198465 -258.235563 
L 101.567035 -231.984173 
L 99.935605 -244.945977 
L 98.304175 -223.494735 
L 96.672746 -249.245987 
L 95.041316 -254.534509 
L 93.409886 -251.879032 
L 91.778456 -248.302264 
L 90.147026 -209.638614 
L 88.515596 -235.85498 
L 86.884166 -207.460015 
L 85.252736 -225.864322 
L 83.621307 -250.370782 
L 81.989877 -253.354119 
L 80.358447 -270.182377 
L 78.727017 -194.842043 
L 77.095587 -248.182639 
L 75.464157 -244.503554 
L 73.832727 -260.528287 
z
" style="stroke: #ffffff; stroke-opacity: 0.2"/>
    </defs>
    <g clip-path="url(#p5257c86fcd)">
     <use xlink:href="#m0806b0c03b" x="0" y="345.6" style="fill: #1f77b4; fill-opacity: 0.2; stroke: #ffffff; stroke-opacity: 0.2"/>
    </g>
   </g>
   <g id="line2d_15">
    <path d="M 73.832727 134.710413 
L 75.464157 150.487908 
L 77.095587 155.968648 
L 78.727017 166.197768 
L 80.358447 185.452812 
L 81.989877 141.972114 
L 83.621307 175.739184 
L 85.252736 152.171281 
L 86.884166 164.520535 
L 88.515596 137.199547 
L 90.147026 152.880123 
L 91.778456 138.663351 
L 93.409886 146.198262 
L 95.041316 155.62112 
L 96.672746 133.26967 
L 98.304175 154.531309 
L 99.935605 155.849965 
L 101.567035 147.926419 
L 103.198465 129.74568 
L 104.829895 160.480705 
L 106.461325 175.817596 
L 108.092755 152.00134 
L 109.724185 131.027678 
L 111.355614 152.394737 
L 112.987044 161.464678 
L 114.618474 148.093979 
L 116.249904 140.948622 
L 117.881334 169.80631 
L 119.512764 135.413741 
L 121.144194 140.138851 
L 122.775624 155.492076 
L 124.407053 133.470358 
L 126.038483 140.712467 
L 127.669913 123.041427 
L 129.301343 183.688227 
L 130.932773 145.527686 
L 132.564203 173.477349 
L 134.195633 161.582818 
L 135.827063 151.696924 
L 137.458492 166.574873 
L 139.089922 151.009262 
L 140.721352 153.512391 
L 142.352782 132.191034 
L 143.984212 149.182516 
L 145.615642 154.564374 
L 147.247072 149.467882 
L 148.878502 160.684108 
L 150.509931 126.319277 
L 152.141361 169.115307 
L 153.772791 134.393757 
L 155.404221 136.39433 
L 157.035651 157.827812 
L 158.667081 137.912734 
L 160.298511 170.815223 
L 161.929941 119.984986 
L 163.56137 147.225514 
L 165.1928 156.045138 
L 166.82423 181.072931 
L 168.45566 134.96073 
L 170.08709 124.582598 
L 171.71852 146.440558 
L 173.34995 156.685218 
L 174.98138 162.812054 
L 176.61281 165.611787 
L 178.244239 149.978459 
L 179.875669 145.051783 
L 181.507099 125.668085 
L 183.138529 127.904396 
L 184.769959 126.323121 
L 186.401389 136.229736 
L 188.032819 135.760391 
L 189.664249 132.966716 
L 191.295678 174.924122 
L 192.927108 146.679679 
L 194.558538 139.230324 
L 196.189968 148.431063 
L 197.821398 148.350186 
L 199.452828 137.40153 
L 201.084258 168.61367 
L 202.715688 174.52184 
L 204.347117 138.545336 
L 205.978547 159.085371 
L 207.609977 148.318897 
L 209.241407 130.689131 
L 210.872837 145.043929 
L 212.504267 120.941471 
L 214.135697 140.166841 
L 215.767127 134.459762 
L 217.398556 140.876267 
L 219.029986 124.824059 
L 220.661416 144.266869 
L 222.292846 126.453835 
L 223.924276 132.959405 
L 225.555706 131.386402 
L 227.187136 143.905471 
L 228.818566 148.274156 
L 230.449995 142.876924 
L 232.081425 154.796101 
L 233.712855 147.961385 
L 235.344285 132.013071 
L 236.975715 139.441205 
L 238.607145 156.815292 
L 240.238575 168.455384 
L 241.870005 123.088884 
L 243.501434 120.21876 
L 245.132864 159.595739 
L 246.764294 168.743688 
L 248.395724 133.45064 
L 250.027154 135.762647 
L 251.658584 163.662597 
L 253.290014 139.102701 
L 254.921444 138.284366 
L 256.552873 153.873426 
L 258.184303 145.816771 
L 259.815733 153.80394 
L 261.447163 140.811516 
L 263.078593 148.353278 
L 264.710023 148.827259 
L 266.341453 150.699791 
L 267.972883 146.405676 
L 269.604312 140.021463 
L 271.235742 128.604883 
L 272.867172 118.379815 
L 274.498602 155.293352 
L 276.130032 169.816712 
L 277.761462 143.581296 
L 279.392892 139.537915 
L 281.024322 126.496613 
L 282.655751 125.452024 
L 284.287181 147.691517 
L 285.918611 163.728811 
L 287.550041 147.414756 
L 289.181471 173.113347 
L 290.812901 145.651842 
L 292.444331 142.31889 
L 294.075761 128.288979 
L 295.70719 160.553018 
L 297.33862 130.137532 
L 298.97005 141.690591 
L 300.60148 114.826792 
L 302.23291 151.576026 
L 303.86434 141.92236 
L 305.49577 148.952042 
L 307.1272 161.52567 
L 308.75863 164.571417 
L 310.390059 153.140814 
L 312.021489 168.741836 
L 313.652919 140.046403 
L 315.284349 141.965263 
L 316.915779 145.795758 
L 318.547209 158.045795 
L 320.178639 141.732617 
L 321.810069 138.84194 
L 323.441498 147.044586 
L 325.072928 130.203453 
L 326.704358 154.287363 
L 328.335788 149.248437 
L 331.598648 130.09889 
L 333.230078 130.644975 
L 334.861508 116.787553 
L 336.492937 152.637284 
L 338.124367 144.624255 
L 339.755797 138.658755 
L 341.387227 120.62164 
L 343.018657 156.809834 
L 344.650087 141.788638 
L 346.281517 128.933111 
L 347.912947 145.004619 
L 349.544376 137.07748 
L 351.175806 149.553605 
L 352.807236 120.849064 
L 354.438666 150.971372 
L 356.070096 113.858902 
L 357.701526 144.997475 
L 359.332956 147.261566 
L 360.964386 134.136088 
L 362.595815 178.266041 
L 364.227245 145.531571 
L 365.858675 149.17792 
L 369.121535 116.255629 
L 370.752965 162.771379 
L 372.384395 144.927543 
L 374.015825 146.14128 
L 375.647254 117.474713 
L 377.278684 155.501894 
L 378.910114 131.465816 
L 380.541544 143.039012 
L 382.172974 144.735921 
L 383.804404 147.971828 
L 385.435834 145.160482 
L 387.067264 146.204528 
L 388.698693 158.447672 
L 390.330123 137.695001 
L 391.961553 174.72218 
L 393.592983 156.008669 
L 395.224413 149.069263 
L 396.855843 136.307814 
L 398.487273 138.790306 
L 398.487273 138.790306 
" clip-path="url(#p5257c86fcd)" style="fill: none; stroke: #1f77b4; stroke-width: 1.5; stroke-linecap: round"/>
   </g>
   <g id="LineCollection_1">
    <path d="M 398.487273 295.488 
L 398.487273 53.568 
" clip-path="url(#p5257c86fcd)" style="fill: none; stroke-dasharray: 5.55,2.4; stroke-dashoffset: 0; stroke: #1f77b4; stroke-width: 1.5"/>
   </g>
   <g id="patch_3">
    <path d="M 57.6 307.584 
L 57.6 41.472 
" style="fill: none; stroke: #cccccc; stroke-width: 0.8; stroke-linejoin: miter; stroke-linecap: square"/>
   </g>
   <g id="patch_4">
    <path d="M 414.72 307.584 
L 414.72 41.472 
" style="fill: none; stroke: #cccccc; stroke-width: 0.8; stroke-linejoin: miter; stroke-linecap: square"/>
   </g>
   <g id="patch_5">
    <path d="M 57.6 307.584 
L 414.72 307.584 
" style="fill: none; stroke: #cccccc; stroke-width: 0.8; stroke-linejoin: miter; stroke-linecap: square"/>
   </g>
   <g id="patch_6">
    <path d="M 57.6 41.472 
L 414.72 41.472 
" style="fill: none; stroke: #cccccc; stroke-width: 0.8; stroke-linejoin: miter; stroke-linecap: square"/>
   </g>
   <g id="text_17">
    <!-- Model performance vs. # of iterations -->
    <g style="fill: #262626" transform="translate(122.314688 35.472)scale(0.12 -0.12)">
     <defs>
      <path id="DejaVuSans-4d" d="M 628 4666 
L 1569 4666 
L 2759 1491 
L 3956 4666 
L 4897 4666 
L 4897 0 
L 4281 0 
L 4281 4097 
L 3078 897 
L 2444 897 
L 1241 4097 
L 1241 0 
L 628 0 
L 628 4666 
z
" transform="scale(0.015625)"/>
      <path id="DejaVuSans-64" d="M 2906 2969 
L 2906 4863 
L 3481 4863 
L 3481 0 
L 2906 0 
L 2906 525 
Q 2725 213 2448 61 
Q 2172 -91 1784 -91 
Q 1150 -91 751 415 
Q 353 922 353 1747 
Q 353 2572 751 3078 
Q 1150 3584 1784 3584 
Q 2172 3584 2448 3432 
Q 2725 3281 2906 2969 
z
M 947 1747 
Q 947 1113 1208 752 
Q 1469 391 1925 391 
Q 2381 391 2643 752 
Q 2906 1113 2906 1747 
Q 2906 2381 2643 2742 
Q 2381 3103 1925 3103 
Q 1469 3103 1208 2742 
Q 947 2381 947 1747 
z
" transform="scale(0.015625)"/>
      <path id="DejaVuSans-6c" d="M 603 4863 
L 1178 4863 
L 1178 0 
L 603 0 
L 603 4863 
z
" transform="scale(0.015625)"/>
      <path id="DejaVuSans-20" transform="scale(0.015625)"/>
      <path id="DejaVuSans-70" d="M 1159 525 
L 1159 -1331 
L 581 -1331 
L 581 3500 
L 1159 3500 
L 1159 2969 
Q 1341 3281 1617 3432 
Q 1894 3584 2278 3584 
Q 2916 3584 3314 3078 
Q 3713 2572 3713 1747 
Q 3713 922 3314 415 
Q 2916 -91 2278 -91 
Q 1894 -91 1617 61 
Q 1341 213 1159 525 
z
M 3116 1747 
Q 3116 2381 2855 2742 
Q 2594 3103 2138 3103 
Q 1681 3103 1420 2742 
Q 1159 2381 1159 1747 
Q 1159 1113 1420 752 
Q 1681 391 2138 391 
Q 2594 391 2855 752 
Q 3116 1113 3116 1747 
z
" transform="scale(0.015625)"/>
      <path id="DejaVuSans-66" d="M 2375 4863 
L 2375 4384 
L 1825 4384 
Q 1516 4384 1395 4259 
Q 1275 4134 1275 3809 
L 1275 3500 
L 2222 3500 
L 2222 3053 
L 1275 3053 
L 1275 0 
L 697 0 
L 697 3053 
L 147 3053 
L 147 3500 
L 697 3500 
L 697 3744 
Q 697 4328 969 4595 
Q 1241 4863 1831 4863 
L 2375 4863 
z
" transform="scale(0.015625)"/>
      <path id="DejaVuSans-6d" d="M 3328 2828 
Q 3544 3216 3844 3400 
Q 4144 3584 4550 3584 
Q 5097 3584 5394 3201 
Q 5691 2819 5691 2113 
L 5691 0 
L 5113 0 
L 5113 2094 
Q 5113 2597 4934 2840 
Q 4756 3084 4391 3084 
Q 3944 3084 3684 2787 
Q 3425 2491 3425 1978 
L 3425 0 
L 2847 0 
L 2847 2094 
Q 2847 2600 2669 2842 
Q 2491 3084 2119 3084 
Q 1678 3084 1418 2786 
Q 1159 2488 1159 1978 
L 1159 0 
L 581 0 
L 581 3500 
L 1159 3500 
L 1159 2956 
Q 1356 3278 1631 3431 
Q 1906 3584 2284 3584 
Q 2666 3584 2933 3390 
Q 3200 3197 3328 2828 
z
" transform="scale(0.015625)"/>
      <path id="DejaVuSans-76" d="M 191 3500 
L 800 3500 
L 1894 563 
L 2988 3500 
L 3597 3500 
L 2284 0 
L 1503 0 
L 191 3500 
z
" transform="scale(0.015625)"/>
      <path id="DejaVuSans-73" d="M 2834 3397 
L 2834 2853 
Q 2591 2978 2328 3040 
Q 2066 3103 1784 3103 
Q 1356 3103 1142 2972 
Q 928 2841 928 2578 
Q 928 2378 1081 2264 
Q 1234 2150 1697 2047 
L 1894 2003 
Q 2506 1872 2764 1633 
Q 3022 1394 3022 966 
Q 3022 478 2636 193 
Q 2250 -91 1575 -91 
Q 1294 -91 989 -36 
Q 684 19 347 128 
L 347 722 
Q 666 556 975 473 
Q 1284 391 1588 391 
Q 1994 391 2212 530 
Q 2431 669 2431 922 
Q 2431 1156 2273 1281 
Q 2116 1406 1581 1522 
L 1381 1569 
Q 847 1681 609 1914 
Q 372 2147 372 2553 
Q 372 3047 722 3315 
Q 1072 3584 1716 3584 
Q 2034 3584 2315 3537 
Q 2597 3491 2834 3397 
z
" transform="scale(0.015625)"/>
      <path id="DejaVuSans-23" d="M 3272 2816 
L 2363 2816 
L 2100 1772 
L 3016 1772 
L 3272 2816 
z
M 2803 4594 
L 2478 3297 
L 3391 3297 
L 3719 4594 
L 4219 4594 
L 3897 3297 
L 4872 3297 
L 4872 2816 
L 3775 2816 
L 3519 1772 
L 4513 1772 
L 4513 1294 
L 3397 1294 
L 3072 0 
L 2572 0 
L 2894 1294 
L 1978 1294 
L 1656 0 
L 1153 0 
L 1478 1294 
L 494 1294 
L 494 1772 
L 1594 1772 
L 1856 2816 
L 850 2816 
L 850 3297 
L 1978 3297 
L 2297 4594 
L 2803 4594 
z
" transform="scale(0.015625)"/>
     </defs>
     <use xlink:href="#DejaVuSans-4d"/>
     <use xlink:href="#DejaVuSans-6f" x="86.279297"/>
     <use xlink:href="#DejaVuSans-64" x="147.460938"/>
     <use xlink:href="#DejaVuSans-65" x="210.9375"/>
     <use xlink:href="#DejaVuSans-6c" x="272.460938"/>
     <use xlink:href="#DejaVuSans-20" x="300.244141"/>
     <use xlink:href="#DejaVuSans-70" x="332.03125"/>
     <use xlink:href="#DejaVuSans-65" x="395.507812"/>
     <use xlink:href="#DejaVuSans-72" x="457.03125"/>
     <use xlink:href="#DejaVuSans-66" x="498.144531"/>
     <use xlink:href="#DejaVuSans-6f" x="533.349609"/>
     <use xlink:href="#DejaVuSans-72" x="594.53125"/>
     <use xlink:href="#DejaVuSans-6d" x="633.894531"/>
     <use xlink:href="#DejaVuSans-61" x="731.306641"/>
     <use xlink:href="#DejaVuSans-6e" x="792.585938"/>
     <use xlink:href="#DejaVuSans-63" x="855.964844"/>
     <use xlink:href="#DejaVuSans-65" x="910.945312"/>
     <use xlink:href="#DejaVuSans-20" x="972.46875"/>
     <use xlink:href="#DejaVuSans-76" x="1004.255859"/>
     <use xlink:href="#DejaVuSans-73" x="1063.435547"/>
     <use xlink:href="#DejaVuSans-2e" x="1115.535156"/>
     <use xlink:href="#DejaVuSans-20" x="1147.322266"/>
     <use xlink:href="#DejaVuSans-23" x="1179.109375"/>
     <use xlink:href="#DejaVuSans-20" x="1262.898438"/>
     <use xlink:href="#DejaVuSans-6f" x="1294.685547"/>
     <use xlink:href="#DejaVuSans-66" x="1355.867188"/>
     <use xlink:href="#DejaVuSans-20" x="1391.072266"/>
     <use xlink:href="#DejaVuSans-69" x="1422.859375"/>
     <use xlink:href="#DejaVuSans-74" x="1450.642578"/>
     <use xlink:href="#DejaVuSans-65" x="1489.851562"/>
     <use xlink:href="#DejaVuSans-72" x="1551.375"/>
     <use xlink:href="#DejaVuSans-61" x="1592.488281"/>
     <use xlink:href="#DejaVuSans-74" x="1653.767578"/>
     <use xlink:href="#DejaVuSans-69" x="1692.976562"/>
     <use xlink:href="#DejaVuSans-6f" x="1720.759766"/>
     <use xlink:href="#DejaVuSans-6e" x="1781.941406"/>
     <use xlink:href="#DejaVuSans-73" x="1845.320312"/>
    </g>
   </g>
  </g>
 </g>
 <defs>
  <clipPath id="p5257c86fcd">
   <rect x="57.6" y="41.472" width="357.12" height="266.112"/>
  </clipPath>
 </defs>
</svg>
