<?xml version="1.0" encoding="utf-8" standalone="no"?>
<!DOCTYPE svg PUBLIC "-//W3C//DTD SVG 1.1//EN"
  "http://www.w3.org/Graphics/SVG/1.1/DTD/svg11.dtd">
<svg xmlns:xlink="http://www.w3.org/1999/xlink" width="460.8pt" height="345.6pt" viewBox="0 0 460.8 345.6" xmlns="http://www.w3.org/2000/svg" version="1.1">
 <metadata>
  <rdf:RDF xmlns:dc="http://purl.org/dc/elements/1.1/" xmlns:cc="http://creativecommons.org/ns#" xmlns:rdf="http://www.w3.org/1999/02/22-rdf-syntax-ns#">
   <cc:Work>
    <dc:type rdf:resource="http://purl.org/dc/dcmitype/StillImage"/>
    <dc:date>2022-10-29T03:09:16.884990</dc:date>
    <dc:format>image/svg+xml</dc:format>
    <dc:creator>
     <cc:Agent>
      <dc:title>Matplotlib v3.5.2, https://matplotlib.org/</dc:title>
     </cc:Agent>
    </dc:creator>
   </cc:Work>
  </rdf:RDF>
 </metadata>
 <defs>
  <style type="text/css">*{stroke-linejoin: round; stroke-linecap: butt}</style>
 </defs>
 <g id="figure_1">
  <g id="patch_1">
   <path d="M 0 345.6 
L 460.8 345.6 
L 460.8 0 
L 0 0 
z
" style="fill: #ffffff"/>
  </g>
  <g id="axes_1">
   <g id="patch_2">
    <path d="M 57.6 307.584 
L 414.72 307.584 
L 414.72 41.472 
L 57.6 41.472 
z
" style="fill: #ffffff"/>
   </g>
   <g id="matplotlib.axis_1">
    <g id="xtick_1">
     <g id="line2d_1">
      <path d="M 72.201297 307.584 
L 72.201297 41.472 
" clip-path="url(#pa2a336dae4)" style="fill: none; stroke: #cccccc; stroke-width: 0.8; stroke-linecap: round"/>
     </g>
     <g id="text_1">
      <!-- 0 -->
      <g style="fill: #262626" transform="translate(69.020047 322.182437)scale(0.1 -0.1)">
       <defs>
        <path id="DejaVuSans-30" d="M 2034 4250 
Q 1547 4250 1301 3770 
Q 1056 3291 1056 2328 
Q 1056 1369 1301 889 
Q 1547 409 2034 409 
Q 2525 409 2770 889 
Q 3016 1369 3016 2328 
Q 3016 3291 2770 3770 
Q 2525 4250 2034 4250 
z
M 2034 4750 
Q 2819 4750 3233 4129 
Q 3647 3509 3647 2328 
Q 3647 1150 3233 529 
Q 2819 -91 2034 -91 
Q 1250 -91 836 529 
Q 422 1150 422 2328 
Q 422 3509 836 4129 
Q 1250 4750 2034 4750 
z
" transform="scale(0.015625)"/>
       </defs>
       <use xlink:href="#DejaVuSans-30"/>
      </g>
     </g>
    </g>
    <g id="xtick_2">
     <g id="line2d_2">
      <path d="M 112.987044 307.584 
L 112.987044 41.472 
" clip-path="url(#pa2a336dae4)" style="fill: none; stroke: #cccccc; stroke-width: 0.8; stroke-linecap: round"/>
     </g>
     <g id="text_2">
      <!-- 25 -->
      <g style="fill: #262626" transform="translate(106.624544 322.182437)scale(0.1 -0.1)">
       <defs>
        <path id="DejaVuSans-32" d="M 1228 531 
L 3431 531 
L 3431 0 
L 469 0 
L 469 531 
Q 828 903 1448 1529 
Q 2069 2156 2228 2338 
Q 2531 2678 2651 2914 
Q 2772 3150 2772 3378 
Q 2772 3750 2511 3984 
Q 2250 4219 1831 4219 
Q 1534 4219 1204 4116 
Q 875 4013 500 3803 
L 500 4441 
Q 881 4594 1212 4672 
Q 1544 4750 1819 4750 
Q 2544 4750 2975 4387 
Q 3406 4025 3406 3419 
Q 3406 3131 3298 2873 
Q 3191 2616 2906 2266 
Q 2828 2175 2409 1742 
Q 1991 1309 1228 531 
z
" transform="scale(0.015625)"/>
        <path id="DejaVuSans-35" d="M 691 4666 
L 3169 4666 
L 3169 4134 
L 1269 4134 
L 1269 2991 
Q 1406 3038 1543 3061 
Q 1681 3084 1819 3084 
Q 2600 3084 3056 2656 
Q 3513 2228 3513 1497 
Q 3513 744 3044 326 
Q 2575 -91 1722 -91 
Q 1428 -91 1123 -41 
Q 819 9 494 109 
L 494 744 
Q 775 591 1075 516 
Q 1375 441 1709 441 
Q 2250 441 2565 725 
Q 2881 1009 2881 1497 
Q 2881 1984 2565 2268 
Q 2250 2553 1709 2553 
Q 1456 2553 1204 2497 
Q 953 2441 691 2322 
L 691 4666 
z
" transform="scale(0.015625)"/>
       </defs>
       <use xlink:href="#DejaVuSans-32"/>
       <use xlink:href="#DejaVuSans-35" x="63.623047"/>
      </g>
     </g>
    </g>
    <g id="xtick_3">
     <g id="line2d_3">
      <path d="M 153.772791 307.584 
L 153.772791 41.472 
" clip-path="url(#pa2a336dae4)" style="fill: none; stroke: #cccccc; stroke-width: 0.8; stroke-linecap: round"/>
     </g>
     <g id="text_3">
      <!-- 50 -->
      <g style="fill: #262626" transform="translate(147.410291 322.182437)scale(0.1 -0.1)">
       <use xlink:href="#DejaVuSans-35"/>
       <use xlink:href="#DejaVuSans-30" x="63.623047"/>
      </g>
     </g>
    </g>
    <g id="xtick_4">
     <g id="line2d_4">
      <path d="M 194.558538 307.584 
L 194.558538 41.472 
" clip-path="url(#pa2a336dae4)" style="fill: none; stroke: #cccccc; stroke-width: 0.8; stroke-linecap: round"/>
     </g>
     <g id="text_4">
      <!-- 75 -->
      <g style="fill: #262626" transform="translate(188.196038 322.182437)scale(0.1 -0.1)">
       <defs>
        <path id="DejaVuSans-37" d="M 525 4666 
L 3525 4666 
L 3525 4397 
L 1831 0 
L 1172 0 
L 2766 4134 
L 525 4134 
L 525 4666 
z
" transform="scale(0.015625)"/>
       </defs>
       <use xlink:href="#DejaVuSans-37"/>
       <use xlink:href="#DejaVuSans-35" x="63.623047"/>
      </g>
     </g>
    </g>
    <g id="xtick_5">
     <g id="line2d_5">
      <path d="M 235.344285 307.584 
L 235.344285 41.472 
" clip-path="url(#pa2a336dae4)" style="fill: none; stroke: #cccccc; stroke-width: 0.8; stroke-linecap: round"/>
     </g>
     <g id="text_5">
      <!-- 100 -->
      <g style="fill: #262626" transform="translate(225.800535 322.182437)scale(0.1 -0.1)">
       <defs>
        <path id="DejaVuSans-31" d="M 794 531 
L 1825 531 
L 1825 4091 
L 703 3866 
L 703 4441 
L 1819 4666 
L 2450 4666 
L 2450 531 
L 3481 531 
L 3481 0 
L 794 0 
L 794 531 
z
" transform="scale(0.015625)"/>
       </defs>
       <use xlink:href="#DejaVuSans-31"/>
       <use xlink:href="#DejaVuSans-30" x="63.623047"/>
       <use xlink:href="#DejaVuSans-30" x="127.246094"/>
      </g>
     </g>
    </g>
    <g id="xtick_6">
     <g id="line2d_6">
      <path d="M 276.130032 307.584 
L 276.130032 41.472 
" clip-path="url(#pa2a336dae4)" style="fill: none; stroke: #cccccc; stroke-width: 0.8; stroke-linecap: round"/>
     </g>
     <g id="text_6">
      <!-- 125 -->
      <g style="fill: #262626" transform="translate(266.586282 322.182437)scale(0.1 -0.1)">
       <use xlink:href="#DejaVuSans-31"/>
       <use xlink:href="#DejaVuSans-32" x="63.623047"/>
       <use xlink:href="#DejaVuSans-35" x="127.246094"/>
      </g>
     </g>
    </g>
    <g id="xtick_7">
     <g id="line2d_7">
      <path d="M 316.915779 307.584 
L 316.915779 41.472 
" clip-path="url(#pa2a336dae4)" style="fill: none; stroke: #cccccc; stroke-width: 0.8; stroke-linecap: round"/>
     </g>
     <g id="text_7">
      <!-- 150 -->
      <g style="fill: #262626" transform="translate(307.372029 322.182437)scale(0.1 -0.1)">
       <use xlink:href="#DejaVuSans-31"/>
       <use xlink:href="#DejaVuSans-35" x="63.623047"/>
       <use xlink:href="#DejaVuSans-30" x="127.246094"/>
      </g>
     </g>
    </g>
    <g id="xtick_8">
     <g id="line2d_8">
      <path d="M 357.701526 307.584 
L 357.701526 41.472 
" clip-path="url(#pa2a336dae4)" style="fill: none; stroke: #cccccc; stroke-width: 0.8; stroke-linecap: round"/>
     </g>
     <g id="text_8">
      <!-- 175 -->
      <g style="fill: #262626" transform="translate(348.157776 322.182437)scale(0.1 -0.1)">
       <use xlink:href="#DejaVuSans-31"/>
       <use xlink:href="#DejaVuSans-37" x="63.623047"/>
       <use xlink:href="#DejaVuSans-35" x="127.246094"/>
      </g>
     </g>
    </g>
    <g id="xtick_9">
     <g id="line2d_9">
      <path d="M 398.487273 307.584 
L 398.487273 41.472 
" clip-path="url(#pa2a336dae4)" style="fill: none; stroke: #cccccc; stroke-width: 0.8; stroke-linecap: round"/>
     </g>
     <g id="text_9">
      <!-- 200 -->
      <g style="fill: #262626" transform="translate(388.943523 322.182437)scale(0.1 -0.1)">
       <use xlink:href="#DejaVuSans-32"/>
       <use xlink:href="#DejaVuSans-30" x="63.623047"/>
       <use xlink:href="#DejaVuSans-30" x="127.246094"/>
      </g>
     </g>
    </g>
    <g id="text_10">
     <!-- Iteration -->
     <g style="fill: #262626" transform="translate(214.951406 335.860562)scale(0.1 -0.1)">
      <defs>
       <path id="DejaVuSans-49" d="M 628 4666 
L 1259 4666 
L 1259 0 
L 628 0 
L 628 4666 
z
" transform="scale(0.015625)"/>
       <path id="DejaVuSans-74" d="M 1172 4494 
L 1172 3500 
L 2356 3500 
L 2356 3053 
L 1172 3053 
L 1172 1153 
Q 1172 725 1289 603 
Q 1406 481 1766 481 
L 2356 481 
L 2356 0 
L 1766 0 
Q 1100 0 847 248 
Q 594 497 594 1153 
L 594 3053 
L 172 3053 
L 172 3500 
L 594 3500 
L 594 4494 
L 1172 4494 
z
" transform="scale(0.015625)"/>
       <path id="DejaVuSans-65" d="M 3597 1894 
L 3597 1613 
L 953 1613 
Q 991 1019 1311 708 
Q 1631 397 2203 397 
Q 2534 397 2845 478 
Q 3156 559 3463 722 
L 3463 178 
Q 3153 47 2828 -22 
Q 2503 -91 2169 -91 
Q 1331 -91 842 396 
Q 353 884 353 1716 
Q 353 2575 817 3079 
Q 1281 3584 2069 3584 
Q 2775 3584 3186 3129 
Q 3597 2675 3597 1894 
z
M 3022 2063 
Q 3016 2534 2758 2815 
Q 2500 3097 2075 3097 
Q 1594 3097 1305 2825 
Q 1016 2553 972 2059 
L 3022 2063 
z
" transform="scale(0.015625)"/>
       <path id="DejaVuSans-72" d="M 2631 2963 
Q 2534 3019 2420 3045 
Q 2306 3072 2169 3072 
Q 1681 3072 1420 2755 
Q 1159 2438 1159 1844 
L 1159 0 
L 581 0 
L 581 3500 
L 1159 3500 
L 1159 2956 
Q 1341 3275 1631 3429 
Q 1922 3584 2338 3584 
Q 2397 3584 2469 3576 
Q 2541 3569 2628 3553 
L 2631 2963 
z
" transform="scale(0.015625)"/>
       <path id="DejaVuSans-61" d="M 2194 1759 
Q 1497 1759 1228 1600 
Q 959 1441 959 1056 
Q 959 750 1161 570 
Q 1363 391 1709 391 
Q 2188 391 2477 730 
Q 2766 1069 2766 1631 
L 2766 1759 
L 2194 1759 
z
M 3341 1997 
L 3341 0 
L 2766 0 
L 2766 531 
Q 2569 213 2275 61 
Q 1981 -91 1556 -91 
Q 1019 -91 701 211 
Q 384 513 384 1019 
Q 384 1609 779 1909 
Q 1175 2209 1959 2209 
L 2766 2209 
L 2766 2266 
Q 2766 2663 2505 2880 
Q 2244 3097 1772 3097 
Q 1472 3097 1187 3025 
Q 903 2953 641 2809 
L 641 3341 
Q 956 3463 1253 3523 
Q 1550 3584 1831 3584 
Q 2591 3584 2966 3190 
Q 3341 2797 3341 1997 
z
" transform="scale(0.015625)"/>
       <path id="DejaVuSans-69" d="M 603 3500 
L 1178 3500 
L 1178 0 
L 603 0 
L 603 3500 
z
M 603 4863 
L 1178 4863 
L 1178 4134 
L 603 4134 
L 603 4863 
z
" transform="scale(0.015625)"/>
       <path id="DejaVuSans-6f" d="M 1959 3097 
Q 1497 3097 1228 2736 
Q 959 2375 959 1747 
Q 959 1119 1226 758 
Q 1494 397 1959 397 
Q 2419 397 2687 759 
Q 2956 1122 2956 1747 
Q 2956 2369 2687 2733 
Q 2419 3097 1959 3097 
z
M 1959 3584 
Q 2709 3584 3137 3096 
Q 3566 2609 3566 1747 
Q 3566 888 3137 398 
Q 2709 -91 1959 -91 
Q 1206 -91 779 398 
Q 353 888 353 1747 
Q 353 2609 779 3096 
Q 1206 3584 1959 3584 
z
" transform="scale(0.015625)"/>
       <path id="DejaVuSans-6e" d="M 3513 2113 
L 3513 0 
L 2938 0 
L 2938 2094 
Q 2938 2591 2744 2837 
Q 2550 3084 2163 3084 
Q 1697 3084 1428 2787 
Q 1159 2491 1159 1978 
L 1159 0 
L 581 0 
L 581 3500 
L 1159 3500 
L 1159 2956 
Q 1366 3272 1645 3428 
Q 1925 3584 2291 3584 
Q 2894 3584 3203 3211 
Q 3513 2838 3513 2113 
z
" transform="scale(0.015625)"/>
      </defs>
      <use xlink:href="#DejaVuSans-49"/>
      <use xlink:href="#DejaVuSans-74" x="29.492188"/>
      <use xlink:href="#DejaVuSans-65" x="68.701172"/>
      <use xlink:href="#DejaVuSans-72" x="130.224609"/>
      <use xlink:href="#DejaVuSans-61" x="171.337891"/>
      <use xlink:href="#DejaVuSans-74" x="232.617188"/>
      <use xlink:href="#DejaVuSans-69" x="271.826172"/>
      <use xlink:href="#DejaVuSans-6f" x="299.609375"/>
      <use xlink:href="#DejaVuSans-6e" x="360.791016"/>
     </g>
    </g>
   </g>
   <g id="matplotlib.axis_2">
    <g id="ytick_1">
     <g id="line2d_10">
      <path d="M 57.6 289.995826 
L 414.72 289.995826 
" clip-path="url(#pa2a336dae4)" style="fill: none; stroke: #cccccc; stroke-width: 0.8; stroke-linecap: round"/>
     </g>
     <g id="text_11">
      <!-- 0.45 -->
      <g style="fill: #262626" transform="translate(28.334375 293.795045)scale(0.1 -0.1)">
       <defs>
        <path id="DejaVuSans-2e" d="M 684 794 
L 1344 794 
L 1344 0 
L 684 0 
L 684 794 
z
" transform="scale(0.015625)"/>
        <path id="DejaVuSans-34" d="M 2419 4116 
L 825 1625 
L 2419 1625 
L 2419 4116 
z
M 2253 4666 
L 3047 4666 
L 3047 1625 
L 3713 1625 
L 3713 1100 
L 3047 1100 
L 3047 0 
L 2419 0 
L 2419 1100 
L 313 1100 
L 313 1709 
L 2253 4666 
z
" transform="scale(0.015625)"/>
       </defs>
       <use xlink:href="#DejaVuSans-30"/>
       <use xlink:href="#DejaVuSans-2e" x="63.623047"/>
       <use xlink:href="#DejaVuSans-34" x="95.410156"/>
       <use xlink:href="#DejaVuSans-35" x="159.033203"/>
      </g>
     </g>
    </g>
    <g id="ytick_2">
     <g id="line2d_11">
      <path d="M 57.6 238.640335 
L 414.72 238.640335 
" clip-path="url(#pa2a336dae4)" style="fill: none; stroke: #cccccc; stroke-width: 0.8; stroke-linecap: round"/>
     </g>
     <g id="text_12">
      <!-- 0.50 -->
      <g style="fill: #262626" transform="translate(28.334375 242.439554)scale(0.1 -0.1)">
       <use xlink:href="#DejaVuSans-30"/>
       <use xlink:href="#DejaVuSans-2e" x="63.623047"/>
       <use xlink:href="#DejaVuSans-35" x="95.410156"/>
       <use xlink:href="#DejaVuSans-30" x="159.033203"/>
      </g>
     </g>
    </g>
    <g id="ytick_3">
     <g id="line2d_12">
      <path d="M 57.6 187.284845 
L 414.72 187.284845 
" clip-path="url(#pa2a336dae4)" style="fill: none; stroke: #cccccc; stroke-width: 0.8; stroke-linecap: round"/>
     </g>
     <g id="text_13">
      <!-- 0.55 -->
      <g style="fill: #262626" transform="translate(28.334375 191.084063)scale(0.1 -0.1)">
       <use xlink:href="#DejaVuSans-30"/>
       <use xlink:href="#DejaVuSans-2e" x="63.623047"/>
       <use xlink:href="#DejaVuSans-35" x="95.410156"/>
       <use xlink:href="#DejaVuSans-35" x="159.033203"/>
      </g>
     </g>
    </g>
    <g id="ytick_4">
     <g id="line2d_13">
      <path d="M 57.6 135.929354 
L 414.72 135.929354 
" clip-path="url(#pa2a336dae4)" style="fill: none; stroke: #cccccc; stroke-width: 0.8; stroke-linecap: round"/>
     </g>
     <g id="text_14">
      <!-- 0.60 -->
      <g style="fill: #262626" transform="translate(28.334375 139.728573)scale(0.1 -0.1)">
       <defs>
        <path id="DejaVuSans-36" d="M 2113 2584 
Q 1688 2584 1439 2293 
Q 1191 2003 1191 1497 
Q 1191 994 1439 701 
Q 1688 409 2113 409 
Q 2538 409 2786 701 
Q 3034 994 3034 1497 
Q 3034 2003 2786 2293 
Q 2538 2584 2113 2584 
z
M 3366 4563 
L 3366 3988 
Q 3128 4100 2886 4159 
Q 2644 4219 2406 4219 
Q 1781 4219 1451 3797 
Q 1122 3375 1075 2522 
Q 1259 2794 1537 2939 
Q 1816 3084 2150 3084 
Q 2853 3084 3261 2657 
Q 3669 2231 3669 1497 
Q 3669 778 3244 343 
Q 2819 -91 2113 -91 
Q 1303 -91 875 529 
Q 447 1150 447 2328 
Q 447 3434 972 4092 
Q 1497 4750 2381 4750 
Q 2619 4750 2861 4703 
Q 3103 4656 3366 4563 
z
" transform="scale(0.015625)"/>
       </defs>
       <use xlink:href="#DejaVuSans-30"/>
       <use xlink:href="#DejaVuSans-2e" x="63.623047"/>
       <use xlink:href="#DejaVuSans-36" x="95.410156"/>
       <use xlink:href="#DejaVuSans-30" x="159.033203"/>
      </g>
     </g>
    </g>
    <g id="ytick_5">
     <g id="line2d_14">
      <path d="M 57.6 84.573863 
L 414.72 84.573863 
" clip-path="url(#pa2a336dae4)" style="fill: none; stroke: #cccccc; stroke-width: 0.8; stroke-linecap: round"/>
     </g>
     <g id="text_15">
      <!-- 0.65 -->
      <g style="fill: #262626" transform="translate(28.334375 88.373082)scale(0.1 -0.1)">
       <use xlink:href="#DejaVuSans-30"/>
       <use xlink:href="#DejaVuSans-2e" x="63.623047"/>
       <use xlink:href="#DejaVuSans-36" x="95.410156"/>
       <use xlink:href="#DejaVuSans-35" x="159.033203"/>
      </g>
     </g>
    </g>
    <g id="text_16">
     <!-- Auroc -->
     <g style="fill: #262626" transform="translate(22.254688 188.868625)rotate(-90)scale(0.1 -0.1)">
      <defs>
       <path id="DejaVuSans-41" d="M 2188 4044 
L 1331 1722 
L 3047 1722 
L 2188 4044 
z
M 1831 4666 
L 2547 4666 
L 4325 0 
L 3669 0 
L 3244 1197 
L 1141 1197 
L 716 0 
L 50 0 
L 1831 4666 
z
" transform="scale(0.015625)"/>
       <path id="DejaVuSans-75" d="M 544 1381 
L 544 3500 
L 1119 3500 
L 1119 1403 
Q 1119 906 1312 657 
Q 1506 409 1894 409 
Q 2359 409 2629 706 
Q 2900 1003 2900 1516 
L 2900 3500 
L 3475 3500 
L 3475 0 
L 2900 0 
L 2900 538 
Q 2691 219 2414 64 
Q 2138 -91 1772 -91 
Q 1169 -91 856 284 
Q 544 659 544 1381 
z
M 1991 3584 
L 1991 3584 
z
" transform="scale(0.015625)"/>
       <path id="DejaVuSans-63" d="M 3122 3366 
L 3122 2828 
Q 2878 2963 2633 3030 
Q 2388 3097 2138 3097 
Q 1578 3097 1268 2742 
Q 959 2388 959 1747 
Q 959 1106 1268 751 
Q 1578 397 2138 397 
Q 2388 397 2633 464 
Q 2878 531 3122 666 
L 3122 134 
Q 2881 22 2623 -34 
Q 2366 -91 2075 -91 
Q 1284 -91 818 406 
Q 353 903 353 1747 
Q 353 2603 823 3093 
Q 1294 3584 2113 3584 
Q 2378 3584 2631 3529 
Q 2884 3475 3122 3366 
z
" transform="scale(0.015625)"/>
      </defs>
      <use xlink:href="#DejaVuSans-41"/>
      <use xlink:href="#DejaVuSans-75" x="68.408203"/>
      <use xlink:href="#DejaVuSans-72" x="131.787109"/>
      <use xlink:href="#DejaVuSans-6f" x="170.650391"/>
      <use xlink:href="#DejaVuSans-63" x="231.832031"/>
     </g>
    </g>
   </g>
   <g id="PolyCollection_1">
    <defs>
     <path id="mc2d579350d" d="M 73.832727 -256.092109 
L 73.832727 -174.469668 
L 75.464157 -149.478507 
L 77.095587 -88.324173 
L 78.727017 -149.455028 
L 80.358447 -102.327336 
L 81.989877 -142.065331 
L 83.621307 -159.454153 
L 85.252736 -50.112 
L 86.884166 -97.322144 
L 88.515596 -158.696152 
L 90.147026 -133.279478 
L 91.778456 -153.92552 
L 93.409886 -122.101199 
L 95.041316 -164.204385 
L 96.672746 -109.979357 
L 98.304175 -168.257233 
L 99.935605 -158.942964 
L 101.567035 -118.949133 
L 103.198465 -154.38141 
L 104.829895 -156.556639 
L 106.461325 -160.053513 
L 108.092755 -76.714063 
L 109.724185 -121.540817 
L 111.355614 -111.110216 
L 112.987044 -189.401412 
L 114.618474 -126.144784 
L 116.249904 -129.995504 
L 117.881334 -168.373284 
L 119.512764 -115.058786 
L 121.144194 -139.027721 
L 122.775624 -163.567222 
L 124.407053 -152.370069 
L 126.038483 -138.587989 
L 127.669913 -120.618029 
L 129.301343 -175.109902 
L 130.932773 -150.358767 
L 132.564203 -79.888319 
L 134.195633 -168.909496 
L 135.827063 -182.755122 
L 137.458492 -161.744258 
L 139.089922 -182.66734 
L 140.721352 -96.527233 
L 142.352782 -70.95993 
L 143.984212 -188.377109 
L 145.615642 -166.310215 
L 147.247072 -115.693218 
L 148.878502 -129.86551 
L 150.509931 -101.069459 
L 152.141361 -146.259246 
L 153.772791 -103.888771 
L 155.404221 -135.712427 
L 157.035651 -200.546362 
L 158.667081 -160.366376 
L 160.298511 -173.665756 
L 161.929941 -135.978519 
L 163.56137 -145.164655 
L 165.1928 -108.203098 
L 166.82423 -84.860962 
L 168.45566 -100.541848 
L 170.08709 -145.023018 
L 171.71852 -160.396096 
L 173.34995 -156.821547 
L 174.98138 -192.791286 
L 176.61281 -111.556162 
L 178.244239 -132.283604 
L 179.875669 -144.995041 
L 181.507099 -179.954387 
L 183.138529 -127.134118 
L 184.769959 -145.778289 
L 186.401389 -146.607705 
L 188.032819 -172.026188 
L 189.664249 -166.596647 
L 191.295678 -69.19899 
L 192.927108 -163.313067 
L 194.558538 -163.234892 
L 196.189968 -176.79984 
L 197.821398 -180.537981 
L 199.452828 -155.396534 
L 201.084258 -173.299066 
L 202.715688 -134.359327 
L 204.347117 -180.549667 
L 205.978547 -207.325355 
L 207.609977 -171.835457 
L 209.241407 -146.175594 
L 210.872837 -110.74405 
L 212.504267 -152.647754 
L 214.135697 -223.169811 
L 215.767127 -111.731587 
L 217.398556 -102.080526 
L 219.029986 -166.021567 
L 220.661416 -79.819894 
L 222.292846 -122.656356 
L 223.924276 -146.932295 
L 225.555706 -174.523667 
L 227.187136 -192.604003 
L 228.818566 -79.697679 
L 230.449995 -168.454565 
L 232.081425 -193.522913 
L 233.712855 -163.375155 
L 235.344285 -168.587036 
L 236.975715 -161.016967 
L 238.607145 -141.547797 
L 240.238575 -173.927825 
L 241.870005 -155.076722 
L 243.501434 -80.030768 
L 245.132864 -147.211367 
L 246.764294 -133.369069 
L 248.395724 -114.663591 
L 250.027154 -143.657944 
L 251.658584 -130.815543 
L 253.290014 -144.611971 
L 254.921444 -130.448813 
L 256.552873 -61.466039 
L 258.184303 -124.026685 
L 259.815733 -136.790336 
L 261.447163 -174.44385 
L 263.078593 -156.825229 
L 264.710023 -143.12424 
L 266.341453 -152.994409 
L 267.972883 -151.334748 
L 269.604312 -79.314945 
L 271.235742 -165.378098 
L 272.867172 -105.953632 
L 274.498602 -107.67437 
L 276.130032 -108.582398 
L 277.761462 -134.497376 
L 279.392892 -173.275907 
L 281.024322 -153.118904 
L 282.655751 -73.804876 
L 284.287181 -174.697225 
L 285.918611 -165.179871 
L 287.550041 -159.590654 
L 289.181471 -85.334462 
L 290.812901 -150.046031 
L 292.444331 -126.868028 
L 294.075761 -120.127849 
L 295.70719 -129.605039 
L 297.33862 -167.698704 
L 298.97005 -155.711764 
L 300.60148 -144.486525 
L 302.23291 -180.668116 
L 303.86434 -55.1592 
L 305.49577 -128.227684 
L 307.1272 -118.020364 
L 308.75863 -138.707566 
L 310.390059 -152.32402 
L 312.021489 -189.357824 
L 313.652919 -183.574459 
L 315.284349 -147.666165 
L 316.915779 -186.521328 
L 318.547209 -157.01979 
L 320.178639 -57.599922 
L 321.810069 -121.455276 
L 323.441498 -221.489542 
L 325.072928 -155.569784 
L 326.704358 -148.237215 
L 328.335788 -177.645952 
L 329.967218 -141.475908 
L 331.598648 -167.800069 
L 333.230078 -83.967667 
L 334.861508 -104.759924 
L 336.492937 -135.267122 
L 338.124367 -221.288075 
L 339.755797 -221.623994 
L 341.387227 -142.00837 
L 343.018657 -177.752944 
L 344.650087 -172.624419 
L 346.281517 -129.417449 
L 347.912947 -74.549404 
L 349.544376 -159.742361 
L 351.175806 -105.483956 
L 352.807236 -194.843758 
L 354.438666 -148.344861 
L 356.070096 -189.521451 
L 357.701526 -109.058692 
L 359.332956 -159.413175 
L 360.964386 -105.037351 
L 362.595815 -168.370744 
L 364.227245 -189.839436 
L 365.858675 -158.652765 
L 367.490105 -160.972145 
L 369.121535 -112.803713 
L 370.752965 -128.655743 
L 372.384395 -162.973589 
L 374.015825 -176.877528 
L 375.647254 -117.511989 
L 377.278684 -61.911425 
L 378.910114 -133.33021 
L 380.541544 -164.079639 
L 382.172974 -120.30684 
L 383.804404 -170.29189 
L 385.435834 -115.459558 
L 387.067264 -98.96381 
L 388.698693 -154.626484 
L 390.330123 -124.402131 
L 391.961553 -146.418762 
L 393.592983 -138.570458 
L 395.224413 -128.554469 
L 396.855843 -151.354194 
L 398.487273 -144.483606 
L 398.487273 -269.07899 
L 398.487273 -269.07899 
L 396.855843 -244.577448 
L 395.224413 -239.424557 
L 393.592983 -261.919948 
L 391.961553 -242.971116 
L 390.330123 -250.671198 
L 388.698693 -257.652866 
L 387.067264 -221.266012 
L 385.435834 -240.520908 
L 383.804404 -255.337203 
L 382.172974 -251.191023 
L 380.541544 -217.049314 
L 378.910114 -209.646632 
L 377.278684 -247.114385 
L 375.647254 -235.338459 
L 374.015825 -257.704704 
L 372.384395 -252.774516 
L 370.752965 -252.594272 
L 369.121535 -224.295283 
L 367.490105 -256.821685 
L 365.858675 -238.13441 
L 364.227245 -273.702602 
L 362.595815 -227.373955 
L 360.964386 -237.647217 
L 359.332956 -208.522953 
L 357.701526 -229.394296 
L 356.070096 -240.904251 
L 354.438666 -194.269827 
L 352.807236 -245.401705 
L 351.175806 -241.344156 
L 349.544376 -214.730171 
L 347.912947 -214.345109 
L 346.281517 -229.181242 
L 344.650087 -266.711096 
L 343.018657 -269.891225 
L 341.387227 -209.315478 
L 339.755797 -276.484492 
L 338.124367 -260.350607 
L 336.492937 -239.433676 
L 334.861508 -252.450452 
L 333.230078 -192.258472 
L 331.598648 -273.132652 
L 329.967218 -231.747641 
L 328.335788 -253.966378 
L 326.704358 -254.723723 
L 325.072928 -251.570594 
L 323.441498 -260.041467 
L 321.810069 -284.386595 
L 320.178639 -270.543736 
L 318.547209 -240.604089 
L 316.915779 -230.17677 
L 315.284349 -252.243747 
L 313.652919 -209.312362 
L 312.021489 -253.868988 
L 310.390059 -236.574119 
L 308.75863 -236.12205 
L 307.1272 -195.450303 
L 305.49577 -237.824718 
L 303.86434 -226.862906 
L 302.23291 -260.514361 
L 300.60148 -253.647422 
L 298.97005 -217.800837 
L 297.33862 -249.726323 
L 295.70719 -269.639771 
L 294.075761 -252.195594 
L 292.444331 -234.078421 
L 290.812901 -229.248013 
L 289.181471 -264.304196 
L 287.550041 -277.936661 
L 285.918611 -223.468191 
L 284.287181 -221.070599 
L 282.655751 -240.302388 
L 281.024322 -287.224872 
L 279.392892 -254.742023 
L 277.761462 -252.005328 
L 276.130032 -213.834989 
L 274.498602 -292.032 
L 272.867172 -206.904554 
L 271.235742 -256.631349 
L 269.604312 -242.665493 
L 267.972883 -230.968422 
L 266.341453 -257.296894 
L 264.710023 -230.527467 
L 263.078593 -252.497787 
L 261.447163 -231.501076 
L 259.815733 -223.46964 
L 258.184303 -197.98779 
L 256.552873 -214.907562 
L 254.921444 -253.300868 
L 253.290014 -203.510476 
L 251.658584 -216.420419 
L 250.027154 -218.709947 
L 248.395724 -237.094952 
L 246.764294 -216.926798 
L 245.132864 -230.685679 
L 243.501434 -202.730372 
L 241.870005 -209.213658 
L 240.238575 -208.149767 
L 238.607145 -217.422284 
L 236.975715 -271.023557 
L 235.344285 -255.869337 
L 233.712855 -279.2518 
L 232.081425 -223.332834 
L 230.449995 -251.474281 
L 228.818566 -218.809476 
L 227.187136 -256.912785 
L 225.555706 -235.596758 
L 223.924276 -215.936251 
L 222.292846 -213.163139 
L 220.661416 -182.082083 
L 219.029986 -248.749622 
L 217.398556 -174.143818 
L 215.767127 -238.307286 
L 214.135697 -263.609786 
L 212.504267 -253.510269 
L 210.872837 -250.909912 
L 209.241407 -279.510803 
L 207.609977 -267.075287 
L 205.978547 -249.832033 
L 204.347117 -218.084113 
L 202.715688 -251.743497 
L 201.084258 -234.905075 
L 199.452828 -245.841429 
L 197.821398 -284.415301 
L 196.189968 -250.091834 
L 194.558538 -287.884522 
L 192.927108 -235.190807 
L 191.295678 -238.870818 
L 189.664249 -248.377799 
L 188.032819 -253.909893 
L 186.401389 -242.647167 
L 184.769959 -204.040032 
L 183.138529 -257.51731 
L 181.507099 -273.462934 
L 179.875669 -260.65723 
L 178.244239 -269.624464 
L 176.61281 -233.639709 
L 174.98138 -246.559776 
L 173.34995 -223.635606 
L 171.71852 -207.636347 
L 170.08709 -233.612295 
L 168.45566 -195.923967 
L 166.82423 -154.963356 
L 165.1928 -236.210163 
L 163.56137 -240.659065 
L 161.929941 -258.474305 
L 160.298511 -241.765447 
L 158.667081 -247.383629 
L 157.035651 -269.24739 
L 155.404221 -245.271393 
L 153.772791 -237.77373 
L 152.141361 -243.262498 
L 150.509931 -252.663884 
L 148.878502 -210.543593 
L 147.247072 -240.5631 
L 145.615642 -268.956064 
L 143.984212 -252.595835 
L 142.352782 -212.866953 
L 140.721352 -232.801703 
L 139.089922 -242.846039 
L 137.458492 -264.343374 
L 135.827063 -265.329633 
L 134.195633 -258.487609 
L 132.564203 -260.992173 
L 130.932773 -223.520018 
L 129.301343 -245.379291 
L 127.669913 -247.396905 
L 126.038483 -238.70665 
L 124.407053 -208.39484 
L 122.775624 -234.73122 
L 121.144194 -214.258446 
L 119.512764 -211.800474 
L 117.881334 -234.100693 
L 116.249904 -237.516994 
L 114.618474 -255.434346 
L 112.987044 -226.033998 
L 111.355614 -210.318951 
L 109.724185 -240.867619 
L 108.092755 -224.012929 
L 106.461325 -244.069127 
L 104.829895 -242.78854 
L 103.198465 -291.150904 
L 101.567035 -231.91136 
L 99.935605 -203.156914 
L 98.304175 -230.334541 
L 96.672746 -240.155082 
L 95.041316 -238.958669 
L 93.409886 -210.547919 
L 91.778456 -229.572978 
L 90.147026 -290.382838 
L 88.515596 -227.439371 
L 86.884166 -248.25387 
L 85.252736 -218.060072 
L 83.621307 -224.940637 
L 81.989877 -257.342251 
L 80.358447 -189.153233 
L 78.727017 -282.939056 
L 77.095587 -249.895141 
L 75.464157 -267.047714 
L 73.832727 -256.092109 
z
" style="stroke: #ffffff; stroke-opacity: 0.2"/>
    </defs>
    <g clip-path="url(#pa2a336dae4)">
     <use xlink:href="#mc2d579350d" x="0" y="345.6" style="fill: #1f77b4; fill-opacity: 0.2; stroke: #ffffff; stroke-opacity: 0.2"/>
    </g>
   </g>
   <g id="line2d_15">
    <path d="M 73.832727 130.319111 
L 75.464157 137.336889 
L 77.095587 176.490343 
L 78.727017 129.402958 
L 80.358447 199.859715 
L 81.989877 145.896209 
L 83.621307 153.402605 
L 85.252736 211.513964 
L 86.884166 172.811993 
L 88.515596 152.532239 
L 90.147026 133.768842 
L 91.778456 153.850751 
L 93.409886 179.275441 
L 95.041316 144.018473 
L 96.672746 170.532781 
L 98.304175 146.304113 
L 99.935605 164.550061 
L 101.567035 170.169753 
L 103.198465 122.833843 
L 104.829895 145.927411 
L 106.461325 143.53868 
L 108.092755 195.236504 
L 109.724185 164.395782 
L 111.355614 184.885417 
L 112.987044 137.882295 
L 114.618474 154.810435 
L 116.249904 161.843751 
L 117.881334 144.363011 
L 119.512764 182.17037 
L 121.144194 168.956917 
L 122.775624 146.450779 
L 124.407053 165.217545 
L 126.038483 156.95268 
L 127.669913 161.592533 
L 129.301343 135.355403 
L 130.932773 158.660608 
L 132.564203 175.159754 
L 134.195633 131.901447 
L 135.827063 121.557622 
L 137.458492 132.556184 
L 139.089922 132.843311 
L 140.721352 180.935532 
L 142.352782 203.686558 
L 143.984212 125.113528 
L 145.615642 127.96686 
L 147.247072 167.471841 
L 148.878502 175.395448 
L 150.509931 168.733328 
L 152.141361 150.839128 
L 153.772791 174.768749 
L 155.404221 155.10809 
L 157.035651 110.703124 
L 158.667081 141.724997 
L 160.298511 137.884399 
L 161.929941 148.373588 
L 163.56137 152.68814 
L 165.1928 173.39337 
L 166.82423 225.687841 
L 168.45566 197.367092 
L 170.08709 156.282343 
L 171.71852 161.583778 
L 173.34995 155.371423 
L 174.98138 125.924469 
L 176.61281 173.002065 
L 178.244239 144.645966 
L 179.875669 142.773864 
L 181.507099 118.89134 
L 183.138529 153.274286 
L 184.769959 170.690839 
L 186.401389 150.972564 
L 188.032819 132.631959 
L 189.664249 138.112777 
L 191.295678 191.565096 
L 192.927108 146.348063 
L 194.558538 120.040293 
L 196.189968 132.154163 
L 197.821398 113.123359 
L 199.452828 144.981019 
L 201.084258 141.497929 
L 202.715688 152.548588 
L 204.347117 146.28311 
L 205.978547 117.021306 
L 207.609977 126.144628 
L 209.241407 132.756802 
L 210.872837 164.773019 
L 212.504267 142.520988 
L 214.135697 102.210201 
L 215.767127 170.580564 
L 217.398556 207.487828 
L 219.029986 138.214406 
L 220.661416 214.649012 
L 222.292846 177.690253 
L 223.924276 164.165727 
L 225.555706 140.539788 
L 227.187136 120.841606 
L 228.818566 196.346423 
L 230.449995 135.635577 
L 232.081425 137.172126 
L 233.712855 124.286523 
L 235.344285 133.371814 
L 236.975715 129.579738 
L 238.607145 166.11496 
L 240.238575 154.561204 
L 241.870005 163.45481 
L 243.501434 204.21943 
L 245.132864 156.651477 
L 246.764294 170.452066 
L 248.395724 169.720728 
L 250.027154 164.416054 
L 251.658584 171.982019 
L 253.290014 171.538777 
L 254.921444 153.725159 
L 256.552873 207.4132 
L 258.184303 184.592763 
L 259.815733 165.470012 
L 261.447163 142.627537 
L 263.078593 140.938492 
L 264.710023 158.774146 
L 266.341453 140.454348 
L 267.972883 154.448415 
L 269.604312 184.609781 
L 271.235742 134.595277 
L 272.867172 189.170907 
L 274.498602 145.746815 
L 276.130032 184.391307 
L 277.761462 152.348648 
L 279.392892 131.591035 
L 281.024322 125.428112 
L 282.655751 188.546368 
L 284.287181 147.716088 
L 285.918611 151.275969 
L 287.550041 126.836343 
L 289.181471 170.780671 
L 290.812901 155.952978 
L 292.444331 165.126775 
L 294.075761 159.438279 
L 295.70719 145.977595 
L 297.33862 136.887487 
L 298.97005 158.843699 
L 300.60148 146.533027 
L 302.23291 125.008762 
L 303.86434 204.588947 
L 305.49577 162.573799 
L 307.1272 188.864667 
L 308.75863 158.185192 
L 310.390059 151.150931 
L 312.021489 123.986594 
L 313.652919 149.15659 
L 315.284349 145.645044 
L 316.915779 137.250951 
L 318.547209 146.78806 
L 320.178639 181.528171 
L 323.441498 104.834496 
L 325.072928 142.029811 
L 326.704358 144.119531 
L 328.335788 129.793835 
L 329.967218 158.988225 
L 331.598648 125.13364 
L 333.230078 207.486931 
L 334.861508 166.994812 
L 336.492937 158.249601 
L 338.124367 104.780659 
L 339.755797 96.545757 
L 341.387227 169.938076 
L 343.018657 121.777915 
L 344.650087 125.932242 
L 346.281517 166.300654 
L 347.912947 201.152743 
L 349.544376 158.363734 
L 351.175806 172.185944 
L 352.807236 125.477268 
L 354.438666 174.292656 
L 356.070096 130.387149 
L 357.701526 176.373506 
L 359.332956 161.631936 
L 360.964386 174.257716 
L 362.595815 147.72765 
L 364.227245 113.828981 
L 365.858675 147.206413 
L 367.490105 136.703085 
L 369.121535 177.050502 
L 370.752965 154.974992 
L 372.384395 137.725948 
L 374.015825 128.308884 
L 375.647254 169.174776 
L 377.278684 191.087095 
L 378.910114 174.111579 
L 380.541544 155.035524 
L 382.172974 159.851068 
L 383.804404 132.785454 
L 385.435834 167.609767 
L 387.067264 185.485089 
L 388.698693 139.460325 
L 390.330123 158.063336 
L 391.961553 150.905061 
L 393.592983 145.354797 
L 395.224413 161.610487 
L 396.855843 147.634179 
L 398.487273 138.818702 
L 398.487273 138.818702 
" clip-path="url(#pa2a336dae4)" style="fill: none; stroke: #1f77b4; stroke-width: 1.5; stroke-linecap: round"/>
   </g>
   <g id="LineCollection_1">
    <path d="M 398.487273 295.488 
L 398.487273 53.568 
" clip-path="url(#pa2a336dae4)" style="fill: none; stroke-dasharray: 5.55,2.4; stroke-dashoffset: 0; stroke: #1f77b4; stroke-width: 1.5"/>
   </g>
   <g id="patch_3">
    <path d="M 57.6 307.584 
L 57.6 41.472 
" style="fill: none; stroke: #cccccc; stroke-width: 0.8; stroke-linejoin: miter; stroke-linecap: square"/>
   </g>
   <g id="patch_4">
    <path d="M 414.72 307.584 
L 414.72 41.472 
" style="fill: none; stroke: #cccccc; stroke-width: 0.8; stroke-linejoin: miter; stroke-linecap: square"/>
   </g>
   <g id="patch_5">
    <path d="M 57.6 307.584 
L 414.72 307.584 
" style="fill: none; stroke: #cccccc; stroke-width: 0.8; stroke-linejoin: miter; stroke-linecap: square"/>
   </g>
   <g id="patch_6">
    <path d="M 57.6 41.472 
L 414.72 41.472 
" style="fill: none; stroke: #cccccc; stroke-width: 0.8; stroke-linejoin: miter; stroke-linecap: square"/>
   </g>
   <g id="text_17">
    <!-- Model performance vs. # of iterations -->
    <g style="fill: #262626" transform="translate(122.314688 35.472)scale(0.12 -0.12)">
     <defs>
      <path id="DejaVuSans-4d" d="M 628 4666 
L 1569 4666 
L 2759 1491 
L 3956 4666 
L 4897 4666 
L 4897 0 
L 4281 0 
L 4281 4097 
L 3078 897 
L 2444 897 
L 1241 4097 
L 1241 0 
L 628 0 
L 628 4666 
z
" transform="scale(0.015625)"/>
      <path id="DejaVuSans-64" d="M 2906 2969 
L 2906 4863 
L 3481 4863 
L 3481 0 
L 2906 0 
L 2906 525 
Q 2725 213 2448 61 
Q 2172 -91 1784 -91 
Q 1150 -91 751 415 
Q 353 922 353 1747 
Q 353 2572 751 3078 
Q 1150 3584 1784 3584 
Q 2172 3584 2448 3432 
Q 2725 3281 2906 2969 
z
M 947 1747 
Q 947 1113 1208 752 
Q 1469 391 1925 391 
Q 2381 391 2643 752 
Q 2906 1113 2906 1747 
Q 2906 2381 2643 2742 
Q 2381 3103 1925 3103 
Q 1469 3103 1208 2742 
Q 947 2381 947 1747 
z
" transform="scale(0.015625)"/>
      <path id="DejaVuSans-6c" d="M 603 4863 
L 1178 4863 
L 1178 0 
L 603 0 
L 603 4863 
z
" transform="scale(0.015625)"/>
      <path id="DejaVuSans-20" transform="scale(0.015625)"/>
      <path id="DejaVuSans-70" d="M 1159 525 
L 1159 -1331 
L 581 -1331 
L 581 3500 
L 1159 3500 
L 1159 2969 
Q 1341 3281 1617 3432 
Q 1894 3584 2278 3584 
Q 2916 3584 3314 3078 
Q 3713 2572 3713 1747 
Q 3713 922 3314 415 
Q 2916 -91 2278 -91 
Q 1894 -91 1617 61 
Q 1341 213 1159 525 
z
M 3116 1747 
Q 3116 2381 2855 2742 
Q 2594 3103 2138 3103 
Q 1681 3103 1420 2742 
Q 1159 2381 1159 1747 
Q 1159 1113 1420 752 
Q 1681 391 2138 391 
Q 2594 391 2855 752 
Q 3116 1113 3116 1747 
z
" transform="scale(0.015625)"/>
      <path id="DejaVuSans-66" d="M 2375 4863 
L 2375 4384 
L 1825 4384 
Q 1516 4384 1395 4259 
Q 1275 4134 1275 3809 
L 1275 3500 
L 2222 3500 
L 2222 3053 
L 1275 3053 
L 1275 0 
L 697 0 
L 697 3053 
L 147 3053 
L 147 3500 
L 697 3500 
L 697 3744 
Q 697 4328 969 4595 
Q 1241 4863 1831 4863 
L 2375 4863 
z
" transform="scale(0.015625)"/>
      <path id="DejaVuSans-6d" d="M 3328 2828 
Q 3544 3216 3844 3400 
Q 4144 3584 4550 3584 
Q 5097 3584 5394 3201 
Q 5691 2819 5691 2113 
L 5691 0 
L 5113 0 
L 5113 2094 
Q 5113 2597 4934 2840 
Q 4756 3084 4391 3084 
Q 3944 3084 3684 2787 
Q 3425 2491 3425 1978 
L 3425 0 
L 2847 0 
L 2847 2094 
Q 2847 2600 2669 2842 
Q 2491 3084 2119 3084 
Q 1678 3084 1418 2786 
Q 1159 2488 1159 1978 
L 1159 0 
L 581 0 
L 581 3500 
L 1159 3500 
L 1159 2956 
Q 1356 3278 1631 3431 
Q 1906 3584 2284 3584 
Q 2666 3584 2933 3390 
Q 3200 3197 3328 2828 
z
" transform="scale(0.015625)"/>
      <path id="DejaVuSans-76" d="M 191 3500 
L 800 3500 
L 1894 563 
L 2988 3500 
L 3597 3500 
L 2284 0 
L 1503 0 
L 191 3500 
z
" transform="scale(0.015625)"/>
      <path id="DejaVuSans-73" d="M 2834 3397 
L 2834 2853 
Q 2591 2978 2328 3040 
Q 2066 3103 1784 3103 
Q 1356 3103 1142 2972 
Q 928 2841 928 2578 
Q 928 2378 1081 2264 
Q 1234 2150 1697 2047 
L 1894 2003 
Q 2506 1872 2764 1633 
Q 3022 1394 3022 966 
Q 3022 478 2636 193 
Q 2250 -91 1575 -91 
Q 1294 -91 989 -36 
Q 684 19 347 128 
L 347 722 
Q 666 556 975 473 
Q 1284 391 1588 391 
Q 1994 391 2212 530 
Q 2431 669 2431 922 
Q 2431 1156 2273 1281 
Q 2116 1406 1581 1522 
L 1381 1569 
Q 847 1681 609 1914 
Q 372 2147 372 2553 
Q 372 3047 722 3315 
Q 1072 3584 1716 3584 
Q 2034 3584 2315 3537 
Q 2597 3491 2834 3397 
z
" transform="scale(0.015625)"/>
      <path id="DejaVuSans-23" d="M 3272 2816 
L 2363 2816 
L 2100 1772 
L 3016 1772 
L 3272 2816 
z
M 2803 4594 
L 2478 3297 
L 3391 3297 
L 3719 4594 
L 4219 4594 
L 3897 3297 
L 4872 3297 
L 4872 2816 
L 3775 2816 
L 3519 1772 
L 4513 1772 
L 4513 1294 
L 3397 1294 
L 3072 0 
L 2572 0 
L 2894 1294 
L 1978 1294 
L 1656 0 
L 1153 0 
L 1478 1294 
L 494 1294 
L 494 1772 
L 1594 1772 
L 1856 2816 
L 850 2816 
L 850 3297 
L 1978 3297 
L 2297 4594 
L 2803 4594 
z
" transform="scale(0.015625)"/>
     </defs>
     <use xlink:href="#DejaVuSans-4d"/>
     <use xlink:href="#DejaVuSans-6f" x="86.279297"/>
     <use xlink:href="#DejaVuSans-64" x="147.460938"/>
     <use xlink:href="#DejaVuSans-65" x="210.9375"/>
     <use xlink:href="#DejaVuSans-6c" x="272.460938"/>
     <use xlink:href="#DejaVuSans-20" x="300.244141"/>
     <use xlink:href="#DejaVuSans-70" x="332.03125"/>
     <use xlink:href="#DejaVuSans-65" x="395.507812"/>
     <use xlink:href="#DejaVuSans-72" x="457.03125"/>
     <use xlink:href="#DejaVuSans-66" x="498.144531"/>
     <use xlink:href="#DejaVuSans-6f" x="533.349609"/>
     <use xlink:href="#DejaVuSans-72" x="594.53125"/>
     <use xlink:href="#DejaVuSans-6d" x="633.894531"/>
     <use xlink:href="#DejaVuSans-61" x="731.306641"/>
     <use xlink:href="#DejaVuSans-6e" x="792.585938"/>
     <use xlink:href="#DejaVuSans-63" x="855.964844"/>
     <use xlink:href="#DejaVuSans-65" x="910.945312"/>
     <use xlink:href="#DejaVuSans-20" x="972.46875"/>
     <use xlink:href="#DejaVuSans-76" x="1004.255859"/>
     <use xlink:href="#DejaVuSans-73" x="1063.435547"/>
     <use xlink:href="#DejaVuSans-2e" x="1115.535156"/>
     <use xlink:href="#DejaVuSans-20" x="1147.322266"/>
     <use xlink:href="#DejaVuSans-23" x="1179.109375"/>
     <use xlink:href="#DejaVuSans-20" x="1262.898438"/>
     <use xlink:href="#DejaVuSans-6f" x="1294.685547"/>
     <use xlink:href="#DejaVuSans-66" x="1355.867188"/>
     <use xlink:href="#DejaVuSans-20" x="1391.072266"/>
     <use xlink:href="#DejaVuSans-69" x="1422.859375"/>
     <use xlink:href="#DejaVuSans-74" x="1450.642578"/>
     <use xlink:href="#DejaVuSans-65" x="1489.851562"/>
     <use xlink:href="#DejaVuSans-72" x="1551.375"/>
     <use xlink:href="#DejaVuSans-61" x="1592.488281"/>
     <use xlink:href="#DejaVuSans-74" x="1653.767578"/>
     <use xlink:href="#DejaVuSans-69" x="1692.976562"/>
     <use xlink:href="#DejaVuSans-6f" x="1720.759766"/>
     <use xlink:href="#DejaVuSans-6e" x="1781.941406"/>
     <use xlink:href="#DejaVuSans-73" x="1845.320312"/>
    </g>
   </g>
  </g>
 </g>
 <defs>
  <clipPath id="pa2a336dae4">
   <rect x="57.6" y="41.472" width="357.12" height="266.112"/>
  </clipPath>
 </defs>
</svg>
