<?xml version="1.0" encoding="utf-8" standalone="no"?>
<!DOCTYPE svg PUBLIC "-//W3C//DTD SVG 1.1//EN"
  "http://www.w3.org/Graphics/SVG/1.1/DTD/svg11.dtd">
<svg height="345.6pt" version="1.1" viewBox="0 0 460.8 345.6" width="460.8pt" xmlns="http://www.w3.org/2000/svg" xmlns:xlink="http://www.w3.org/1999/xlink">
 <metadata>
  <rdf:RDF xmlns:cc="http://creativecommons.org/ns#" xmlns:dc="http://purl.org/dc/elements/1.1/" xmlns:rdf="http://www.w3.org/1999/02/22-rdf-syntax-ns#">
   <cc:Work>
    <dc:type rdf:resource="http://purl.org/dc/dcmitype/StillImage"/>
    <dc:date>2022-04-07T05:31:11.697599</dc:date>
    <dc:format>image/svg+xml</dc:format>
    <dc:creator>
     <cc:Agent>
      <dc:title>Matplotlib v3.4.3, https://matplotlib.org/</dc:title>
     </cc:Agent>
    </dc:creator>
   </cc:Work>
  </rdf:RDF>
 </metadata>
 <defs>
  <style type="text/css">*{stroke-linecap:butt;stroke-linejoin:round;}</style>
 </defs>
 <g id="figure_1">
  <g id="patch_1">
   <path d="M 0 345.6 
L 460.8 345.6 
L 460.8 0 
L 0 0 
z
" style="fill:#ffffff;"/>
  </g>
  <g id="axes_1">
   <g id="patch_2">
    <path d="M 57.6 307.584 
L 414.72 307.584 
L 414.72 41.472 
L 57.6 41.472 
z
" style="fill:#ffffff;"/>
   </g>
   <g id="matplotlib.axis_1">
    <g id="xtick_1">
     <g id="line2d_1">
      <path clip-path="url(#pacc0816629)" d="M 72.201297 307.584 
L 72.201297 41.472 
" style="fill:none;stroke:#cccccc;stroke-linecap:round;stroke-width:0.8;"/>
     </g>
     <g id="text_1">
      <!-- 0 -->
      <g style="fill:#262626;" transform="translate(69.020047 322.182437)scale(0.1 -0.1)">
       <defs>
        <path d="M 2034 4250 
Q 1547 4250 1301 3770 
Q 1056 3291 1056 2328 
Q 1056 1369 1301 889 
Q 1547 409 2034 409 
Q 2525 409 2770 889 
Q 3016 1369 3016 2328 
Q 3016 3291 2770 3770 
Q 2525 4250 2034 4250 
z
M 2034 4750 
Q 2819 4750 3233 4129 
Q 3647 3509 3647 2328 
Q 3647 1150 3233 529 
Q 2819 -91 2034 -91 
Q 1250 -91 836 529 
Q 422 1150 422 2328 
Q 422 3509 836 4129 
Q 1250 4750 2034 4750 
z
" id="DejaVuSans-30" transform="scale(0.015625)"/>
       </defs>
       <use xlink:href="#DejaVuSans-30"/>
      </g>
     </g>
    </g>
    <g id="xtick_2">
     <g id="line2d_2">
      <path clip-path="url(#pacc0816629)" d="M 112.987044 307.584 
L 112.987044 41.472 
" style="fill:none;stroke:#cccccc;stroke-linecap:round;stroke-width:0.8;"/>
     </g>
     <g id="text_2">
      <!-- 25 -->
      <g style="fill:#262626;" transform="translate(106.624544 322.182437)scale(0.1 -0.1)">
       <defs>
        <path d="M 1228 531 
L 3431 531 
L 3431 0 
L 469 0 
L 469 531 
Q 828 903 1448 1529 
Q 2069 2156 2228 2338 
Q 2531 2678 2651 2914 
Q 2772 3150 2772 3378 
Q 2772 3750 2511 3984 
Q 2250 4219 1831 4219 
Q 1534 4219 1204 4116 
Q 875 4013 500 3803 
L 500 4441 
Q 881 4594 1212 4672 
Q 1544 4750 1819 4750 
Q 2544 4750 2975 4387 
Q 3406 4025 3406 3419 
Q 3406 3131 3298 2873 
Q 3191 2616 2906 2266 
Q 2828 2175 2409 1742 
Q 1991 1309 1228 531 
z
" id="DejaVuSans-32" transform="scale(0.015625)"/>
        <path d="M 691 4666 
L 3169 4666 
L 3169 4134 
L 1269 4134 
L 1269 2991 
Q 1406 3038 1543 3061 
Q 1681 3084 1819 3084 
Q 2600 3084 3056 2656 
Q 3513 2228 3513 1497 
Q 3513 744 3044 326 
Q 2575 -91 1722 -91 
Q 1428 -91 1123 -41 
Q 819 9 494 109 
L 494 744 
Q 775 591 1075 516 
Q 1375 441 1709 441 
Q 2250 441 2565 725 
Q 2881 1009 2881 1497 
Q 2881 1984 2565 2268 
Q 2250 2553 1709 2553 
Q 1456 2553 1204 2497 
Q 953 2441 691 2322 
L 691 4666 
z
" id="DejaVuSans-35" transform="scale(0.015625)"/>
       </defs>
       <use xlink:href="#DejaVuSans-32"/>
       <use x="63.623047" xlink:href="#DejaVuSans-35"/>
      </g>
     </g>
    </g>
    <g id="xtick_3">
     <g id="line2d_3">
      <path clip-path="url(#pacc0816629)" d="M 153.772791 307.584 
L 153.772791 41.472 
" style="fill:none;stroke:#cccccc;stroke-linecap:round;stroke-width:0.8;"/>
     </g>
     <g id="text_3">
      <!-- 50 -->
      <g style="fill:#262626;" transform="translate(147.410291 322.182437)scale(0.1 -0.1)">
       <use xlink:href="#DejaVuSans-35"/>
       <use x="63.623047" xlink:href="#DejaVuSans-30"/>
      </g>
     </g>
    </g>
    <g id="xtick_4">
     <g id="line2d_4">
      <path clip-path="url(#pacc0816629)" d="M 194.558538 307.584 
L 194.558538 41.472 
" style="fill:none;stroke:#cccccc;stroke-linecap:round;stroke-width:0.8;"/>
     </g>
     <g id="text_4">
      <!-- 75 -->
      <g style="fill:#262626;" transform="translate(188.196038 322.182437)scale(0.1 -0.1)">
       <defs>
        <path d="M 525 4666 
L 3525 4666 
L 3525 4397 
L 1831 0 
L 1172 0 
L 2766 4134 
L 525 4134 
L 525 4666 
z
" id="DejaVuSans-37" transform="scale(0.015625)"/>
       </defs>
       <use xlink:href="#DejaVuSans-37"/>
       <use x="63.623047" xlink:href="#DejaVuSans-35"/>
      </g>
     </g>
    </g>
    <g id="xtick_5">
     <g id="line2d_5">
      <path clip-path="url(#pacc0816629)" d="M 235.344285 307.584 
L 235.344285 41.472 
" style="fill:none;stroke:#cccccc;stroke-linecap:round;stroke-width:0.8;"/>
     </g>
     <g id="text_5">
      <!-- 100 -->
      <g style="fill:#262626;" transform="translate(225.800535 322.182437)scale(0.1 -0.1)">
       <defs>
        <path d="M 794 531 
L 1825 531 
L 1825 4091 
L 703 3866 
L 703 4441 
L 1819 4666 
L 2450 4666 
L 2450 531 
L 3481 531 
L 3481 0 
L 794 0 
L 794 531 
z
" id="DejaVuSans-31" transform="scale(0.015625)"/>
       </defs>
       <use xlink:href="#DejaVuSans-31"/>
       <use x="63.623047" xlink:href="#DejaVuSans-30"/>
       <use x="127.246094" xlink:href="#DejaVuSans-30"/>
      </g>
     </g>
    </g>
    <g id="xtick_6">
     <g id="line2d_6">
      <path clip-path="url(#pacc0816629)" d="M 276.130032 307.584 
L 276.130032 41.472 
" style="fill:none;stroke:#cccccc;stroke-linecap:round;stroke-width:0.8;"/>
     </g>
     <g id="text_6">
      <!-- 125 -->
      <g style="fill:#262626;" transform="translate(266.586282 322.182437)scale(0.1 -0.1)">
       <use xlink:href="#DejaVuSans-31"/>
       <use x="63.623047" xlink:href="#DejaVuSans-32"/>
       <use x="127.246094" xlink:href="#DejaVuSans-35"/>
      </g>
     </g>
    </g>
    <g id="xtick_7">
     <g id="line2d_7">
      <path clip-path="url(#pacc0816629)" d="M 316.915779 307.584 
L 316.915779 41.472 
" style="fill:none;stroke:#cccccc;stroke-linecap:round;stroke-width:0.8;"/>
     </g>
     <g id="text_7">
      <!-- 150 -->
      <g style="fill:#262626;" transform="translate(307.372029 322.182437)scale(0.1 -0.1)">
       <use xlink:href="#DejaVuSans-31"/>
       <use x="63.623047" xlink:href="#DejaVuSans-35"/>
       <use x="127.246094" xlink:href="#DejaVuSans-30"/>
      </g>
     </g>
    </g>
    <g id="xtick_8">
     <g id="line2d_8">
      <path clip-path="url(#pacc0816629)" d="M 357.701526 307.584 
L 357.701526 41.472 
" style="fill:none;stroke:#cccccc;stroke-linecap:round;stroke-width:0.8;"/>
     </g>
     <g id="text_8">
      <!-- 175 -->
      <g style="fill:#262626;" transform="translate(348.157776 322.182437)scale(0.1 -0.1)">
       <use xlink:href="#DejaVuSans-31"/>
       <use x="63.623047" xlink:href="#DejaVuSans-37"/>
       <use x="127.246094" xlink:href="#DejaVuSans-35"/>
      </g>
     </g>
    </g>
    <g id="xtick_9">
     <g id="line2d_9">
      <path clip-path="url(#pacc0816629)" d="M 398.487273 307.584 
L 398.487273 41.472 
" style="fill:none;stroke:#cccccc;stroke-linecap:round;stroke-width:0.8;"/>
     </g>
     <g id="text_9">
      <!-- 200 -->
      <g style="fill:#262626;" transform="translate(388.943523 322.182437)scale(0.1 -0.1)">
       <use xlink:href="#DejaVuSans-32"/>
       <use x="63.623047" xlink:href="#DejaVuSans-30"/>
       <use x="127.246094" xlink:href="#DejaVuSans-30"/>
      </g>
     </g>
    </g>
    <g id="text_10">
     <!-- Auroc -->
     <g style="fill:#262626;" transform="translate(221.819375 335.860562)scale(0.1 -0.1)">
      <defs>
       <path d="M 2188 4044 
L 1331 1722 
L 3047 1722 
L 2188 4044 
z
M 1831 4666 
L 2547 4666 
L 4325 0 
L 3669 0 
L 3244 1197 
L 1141 1197 
L 716 0 
L 50 0 
L 1831 4666 
z
" id="DejaVuSans-41" transform="scale(0.015625)"/>
       <path d="M 544 1381 
L 544 3500 
L 1119 3500 
L 1119 1403 
Q 1119 906 1312 657 
Q 1506 409 1894 409 
Q 2359 409 2629 706 
Q 2900 1003 2900 1516 
L 2900 3500 
L 3475 3500 
L 3475 0 
L 2900 0 
L 2900 538 
Q 2691 219 2414 64 
Q 2138 -91 1772 -91 
Q 1169 -91 856 284 
Q 544 659 544 1381 
z
M 1991 3584 
L 1991 3584 
z
" id="DejaVuSans-75" transform="scale(0.015625)"/>
       <path d="M 2631 2963 
Q 2534 3019 2420 3045 
Q 2306 3072 2169 3072 
Q 1681 3072 1420 2755 
Q 1159 2438 1159 1844 
L 1159 0 
L 581 0 
L 581 3500 
L 1159 3500 
L 1159 2956 
Q 1341 3275 1631 3429 
Q 1922 3584 2338 3584 
Q 2397 3584 2469 3576 
Q 2541 3569 2628 3553 
L 2631 2963 
z
" id="DejaVuSans-72" transform="scale(0.015625)"/>
       <path d="M 1959 3097 
Q 1497 3097 1228 2736 
Q 959 2375 959 1747 
Q 959 1119 1226 758 
Q 1494 397 1959 397 
Q 2419 397 2687 759 
Q 2956 1122 2956 1747 
Q 2956 2369 2687 2733 
Q 2419 3097 1959 3097 
z
M 1959 3584 
Q 2709 3584 3137 3096 
Q 3566 2609 3566 1747 
Q 3566 888 3137 398 
Q 2709 -91 1959 -91 
Q 1206 -91 779 398 
Q 353 888 353 1747 
Q 353 2609 779 3096 
Q 1206 3584 1959 3584 
z
" id="DejaVuSans-6f" transform="scale(0.015625)"/>
       <path d="M 3122 3366 
L 3122 2828 
Q 2878 2963 2633 3030 
Q 2388 3097 2138 3097 
Q 1578 3097 1268 2742 
Q 959 2388 959 1747 
Q 959 1106 1268 751 
Q 1578 397 2138 397 
Q 2388 397 2633 464 
Q 2878 531 3122 666 
L 3122 134 
Q 2881 22 2623 -34 
Q 2366 -91 2075 -91 
Q 1284 -91 818 406 
Q 353 903 353 1747 
Q 353 2603 823 3093 
Q 1294 3584 2113 3584 
Q 2378 3584 2631 3529 
Q 2884 3475 3122 3366 
z
" id="DejaVuSans-63" transform="scale(0.015625)"/>
      </defs>
      <use xlink:href="#DejaVuSans-41"/>
      <use x="68.408203" xlink:href="#DejaVuSans-75"/>
      <use x="131.787109" xlink:href="#DejaVuSans-72"/>
      <use x="170.650391" xlink:href="#DejaVuSans-6f"/>
      <use x="231.832031" xlink:href="#DejaVuSans-63"/>
     </g>
    </g>
   </g>
   <g id="matplotlib.axis_2">
    <g id="ytick_1">
     <g id="line2d_10">
      <path clip-path="url(#pacc0816629)" d="M 57.6 297.877707 
L 414.72 297.877707 
" style="fill:none;stroke:#cccccc;stroke-linecap:round;stroke-width:0.8;"/>
     </g>
     <g id="text_11">
      <!-- 0.56 -->
      <g style="fill:#262626;" transform="translate(28.334375 301.676926)scale(0.1 -0.1)">
       <defs>
        <path d="M 684 794 
L 1344 794 
L 1344 0 
L 684 0 
L 684 794 
z
" id="DejaVuSans-2e" transform="scale(0.015625)"/>
        <path d="M 2113 2584 
Q 1688 2584 1439 2293 
Q 1191 2003 1191 1497 
Q 1191 994 1439 701 
Q 1688 409 2113 409 
Q 2538 409 2786 701 
Q 3034 994 3034 1497 
Q 3034 2003 2786 2293 
Q 2538 2584 2113 2584 
z
M 3366 4563 
L 3366 3988 
Q 3128 4100 2886 4159 
Q 2644 4219 2406 4219 
Q 1781 4219 1451 3797 
Q 1122 3375 1075 2522 
Q 1259 2794 1537 2939 
Q 1816 3084 2150 3084 
Q 2853 3084 3261 2657 
Q 3669 2231 3669 1497 
Q 3669 778 3244 343 
Q 2819 -91 2113 -91 
Q 1303 -91 875 529 
Q 447 1150 447 2328 
Q 447 3434 972 4092 
Q 1497 4750 2381 4750 
Q 2619 4750 2861 4703 
Q 3103 4656 3366 4563 
z
" id="DejaVuSans-36" transform="scale(0.015625)"/>
       </defs>
       <use xlink:href="#DejaVuSans-30"/>
       <use x="63.623047" xlink:href="#DejaVuSans-2e"/>
       <use x="95.410156" xlink:href="#DejaVuSans-35"/>
       <use x="159.033203" xlink:href="#DejaVuSans-36"/>
      </g>
     </g>
    </g>
    <g id="ytick_2">
     <g id="line2d_11">
      <path clip-path="url(#pacc0816629)" d="M 57.6 263.577762 
L 414.72 263.577762 
" style="fill:none;stroke:#cccccc;stroke-linecap:round;stroke-width:0.8;"/>
     </g>
     <g id="text_12">
      <!-- 0.58 -->
      <g style="fill:#262626;" transform="translate(28.334375 267.37698)scale(0.1 -0.1)">
       <defs>
        <path d="M 2034 2216 
Q 1584 2216 1326 1975 
Q 1069 1734 1069 1313 
Q 1069 891 1326 650 
Q 1584 409 2034 409 
Q 2484 409 2743 651 
Q 3003 894 3003 1313 
Q 3003 1734 2745 1975 
Q 2488 2216 2034 2216 
z
M 1403 2484 
Q 997 2584 770 2862 
Q 544 3141 544 3541 
Q 544 4100 942 4425 
Q 1341 4750 2034 4750 
Q 2731 4750 3128 4425 
Q 3525 4100 3525 3541 
Q 3525 3141 3298 2862 
Q 3072 2584 2669 2484 
Q 3125 2378 3379 2068 
Q 3634 1759 3634 1313 
Q 3634 634 3220 271 
Q 2806 -91 2034 -91 
Q 1263 -91 848 271 
Q 434 634 434 1313 
Q 434 1759 690 2068 
Q 947 2378 1403 2484 
z
M 1172 3481 
Q 1172 3119 1398 2916 
Q 1625 2713 2034 2713 
Q 2441 2713 2670 2916 
Q 2900 3119 2900 3481 
Q 2900 3844 2670 4047 
Q 2441 4250 2034 4250 
Q 1625 4250 1398 4047 
Q 1172 3844 1172 3481 
z
" id="DejaVuSans-38" transform="scale(0.015625)"/>
       </defs>
       <use xlink:href="#DejaVuSans-30"/>
       <use x="63.623047" xlink:href="#DejaVuSans-2e"/>
       <use x="95.410156" xlink:href="#DejaVuSans-35"/>
       <use x="159.033203" xlink:href="#DejaVuSans-38"/>
      </g>
     </g>
    </g>
    <g id="ytick_3">
     <g id="line2d_12">
      <path clip-path="url(#pacc0816629)" d="M 57.6 229.277816 
L 414.72 229.277816 
" style="fill:none;stroke:#cccccc;stroke-linecap:round;stroke-width:0.8;"/>
     </g>
     <g id="text_13">
      <!-- 0.60 -->
      <g style="fill:#262626;" transform="translate(28.334375 233.077035)scale(0.1 -0.1)">
       <use xlink:href="#DejaVuSans-30"/>
       <use x="63.623047" xlink:href="#DejaVuSans-2e"/>
       <use x="95.410156" xlink:href="#DejaVuSans-36"/>
       <use x="159.033203" xlink:href="#DejaVuSans-30"/>
      </g>
     </g>
    </g>
    <g id="ytick_4">
     <g id="line2d_13">
      <path clip-path="url(#pacc0816629)" d="M 57.6 194.97787 
L 414.72 194.97787 
" style="fill:none;stroke:#cccccc;stroke-linecap:round;stroke-width:0.8;"/>
     </g>
     <g id="text_14">
      <!-- 0.62 -->
      <g style="fill:#262626;" transform="translate(28.334375 198.777089)scale(0.1 -0.1)">
       <use xlink:href="#DejaVuSans-30"/>
       <use x="63.623047" xlink:href="#DejaVuSans-2e"/>
       <use x="95.410156" xlink:href="#DejaVuSans-36"/>
       <use x="159.033203" xlink:href="#DejaVuSans-32"/>
      </g>
     </g>
    </g>
    <g id="ytick_5">
     <g id="line2d_14">
      <path clip-path="url(#pacc0816629)" d="M 57.6 160.677925 
L 414.72 160.677925 
" style="fill:none;stroke:#cccccc;stroke-linecap:round;stroke-width:0.8;"/>
     </g>
     <g id="text_15">
      <!-- 0.64 -->
      <g style="fill:#262626;" transform="translate(28.334375 164.477144)scale(0.1 -0.1)">
       <defs>
        <path d="M 2419 4116 
L 825 1625 
L 2419 1625 
L 2419 4116 
z
M 2253 4666 
L 3047 4666 
L 3047 1625 
L 3713 1625 
L 3713 1100 
L 3047 1100 
L 3047 0 
L 2419 0 
L 2419 1100 
L 313 1100 
L 313 1709 
L 2253 4666 
z
" id="DejaVuSans-34" transform="scale(0.015625)"/>
       </defs>
       <use xlink:href="#DejaVuSans-30"/>
       <use x="63.623047" xlink:href="#DejaVuSans-2e"/>
       <use x="95.410156" xlink:href="#DejaVuSans-36"/>
       <use x="159.033203" xlink:href="#DejaVuSans-34"/>
      </g>
     </g>
    </g>
    <g id="ytick_6">
     <g id="line2d_15">
      <path clip-path="url(#pacc0816629)" d="M 57.6 126.377979 
L 414.72 126.377979 
" style="fill:none;stroke:#cccccc;stroke-linecap:round;stroke-width:0.8;"/>
     </g>
     <g id="text_16">
      <!-- 0.66 -->
      <g style="fill:#262626;" transform="translate(28.334375 130.177198)scale(0.1 -0.1)">
       <use xlink:href="#DejaVuSans-30"/>
       <use x="63.623047" xlink:href="#DejaVuSans-2e"/>
       <use x="95.410156" xlink:href="#DejaVuSans-36"/>
       <use x="159.033203" xlink:href="#DejaVuSans-36"/>
      </g>
     </g>
    </g>
    <g id="ytick_7">
     <g id="line2d_16">
      <path clip-path="url(#pacc0816629)" d="M 57.6 92.078034 
L 414.72 92.078034 
" style="fill:none;stroke:#cccccc;stroke-linecap:round;stroke-width:0.8;"/>
     </g>
     <g id="text_17">
      <!-- 0.68 -->
      <g style="fill:#262626;" transform="translate(28.334375 95.877252)scale(0.1 -0.1)">
       <use xlink:href="#DejaVuSans-30"/>
       <use x="63.623047" xlink:href="#DejaVuSans-2e"/>
       <use x="95.410156" xlink:href="#DejaVuSans-36"/>
       <use x="159.033203" xlink:href="#DejaVuSans-38"/>
      </g>
     </g>
    </g>
    <g id="ytick_8">
     <g id="line2d_17">
      <path clip-path="url(#pacc0816629)" d="M 57.6 57.778088 
L 414.72 57.778088 
" style="fill:none;stroke:#cccccc;stroke-linecap:round;stroke-width:0.8;"/>
     </g>
     <g id="text_18">
      <!-- 0.70 -->
      <g style="fill:#262626;" transform="translate(28.334375 61.577307)scale(0.1 -0.1)">
       <use xlink:href="#DejaVuSans-30"/>
       <use x="63.623047" xlink:href="#DejaVuSans-2e"/>
       <use x="95.410156" xlink:href="#DejaVuSans-37"/>
       <use x="159.033203" xlink:href="#DejaVuSans-30"/>
      </g>
     </g>
    </g>
    <g id="text_19">
     <!-- Iteration -->
     <g style="fill:#262626;" transform="translate(22.254687 195.736594)rotate(-90)scale(0.1 -0.1)">
      <defs>
       <path d="M 628 4666 
L 1259 4666 
L 1259 0 
L 628 0 
L 628 4666 
z
" id="DejaVuSans-49" transform="scale(0.015625)"/>
       <path d="M 1172 4494 
L 1172 3500 
L 2356 3500 
L 2356 3053 
L 1172 3053 
L 1172 1153 
Q 1172 725 1289 603 
Q 1406 481 1766 481 
L 2356 481 
L 2356 0 
L 1766 0 
Q 1100 0 847 248 
Q 594 497 594 1153 
L 594 3053 
L 172 3053 
L 172 3500 
L 594 3500 
L 594 4494 
L 1172 4494 
z
" id="DejaVuSans-74" transform="scale(0.015625)"/>
       <path d="M 3597 1894 
L 3597 1613 
L 953 1613 
Q 991 1019 1311 708 
Q 1631 397 2203 397 
Q 2534 397 2845 478 
Q 3156 559 3463 722 
L 3463 178 
Q 3153 47 2828 -22 
Q 2503 -91 2169 -91 
Q 1331 -91 842 396 
Q 353 884 353 1716 
Q 353 2575 817 3079 
Q 1281 3584 2069 3584 
Q 2775 3584 3186 3129 
Q 3597 2675 3597 1894 
z
M 3022 2063 
Q 3016 2534 2758 2815 
Q 2500 3097 2075 3097 
Q 1594 3097 1305 2825 
Q 1016 2553 972 2059 
L 3022 2063 
z
" id="DejaVuSans-65" transform="scale(0.015625)"/>
       <path d="M 2194 1759 
Q 1497 1759 1228 1600 
Q 959 1441 959 1056 
Q 959 750 1161 570 
Q 1363 391 1709 391 
Q 2188 391 2477 730 
Q 2766 1069 2766 1631 
L 2766 1759 
L 2194 1759 
z
M 3341 1997 
L 3341 0 
L 2766 0 
L 2766 531 
Q 2569 213 2275 61 
Q 1981 -91 1556 -91 
Q 1019 -91 701 211 
Q 384 513 384 1019 
Q 384 1609 779 1909 
Q 1175 2209 1959 2209 
L 2766 2209 
L 2766 2266 
Q 2766 2663 2505 2880 
Q 2244 3097 1772 3097 
Q 1472 3097 1187 3025 
Q 903 2953 641 2809 
L 641 3341 
Q 956 3463 1253 3523 
Q 1550 3584 1831 3584 
Q 2591 3584 2966 3190 
Q 3341 2797 3341 1997 
z
" id="DejaVuSans-61" transform="scale(0.015625)"/>
       <path d="M 603 3500 
L 1178 3500 
L 1178 0 
L 603 0 
L 603 3500 
z
M 603 4863 
L 1178 4863 
L 1178 4134 
L 603 4134 
L 603 4863 
z
" id="DejaVuSans-69" transform="scale(0.015625)"/>
       <path d="M 3513 2113 
L 3513 0 
L 2938 0 
L 2938 2094 
Q 2938 2591 2744 2837 
Q 2550 3084 2163 3084 
Q 1697 3084 1428 2787 
Q 1159 2491 1159 1978 
L 1159 0 
L 581 0 
L 581 3500 
L 1159 3500 
L 1159 2956 
Q 1366 3272 1645 3428 
Q 1925 3584 2291 3584 
Q 2894 3584 3203 3211 
Q 3513 2838 3513 2113 
z
" id="DejaVuSans-6e" transform="scale(0.015625)"/>
      </defs>
      <use xlink:href="#DejaVuSans-49"/>
      <use x="29.492188" xlink:href="#DejaVuSans-74"/>
      <use x="68.701172" xlink:href="#DejaVuSans-65"/>
      <use x="130.224609" xlink:href="#DejaVuSans-72"/>
      <use x="171.337891" xlink:href="#DejaVuSans-61"/>
      <use x="232.617188" xlink:href="#DejaVuSans-74"/>
      <use x="271.826172" xlink:href="#DejaVuSans-69"/>
      <use x="299.609375" xlink:href="#DejaVuSans-6f"/>
      <use x="360.791016" xlink:href="#DejaVuSans-6e"/>
     </g>
    </g>
   </g>
   <g id="PolyCollection_1">
    <defs>
     <path d="M 73.832727 -248.163559 
L 73.832727 -168.928711 
L 75.464157 -78.099714 
L 77.095587 -139.290191 
L 78.727017 -135.12964 
L 80.358447 -183.994547 
L 81.989877 -121.425506 
L 83.621307 -169.396342 
L 85.252736 -174.559306 
L 86.884166 -124.114652 
L 88.515596 -145.58162 
L 90.147026 -97.361373 
L 91.778456 -154.569416 
L 93.409886 -141.989363 
L 95.041316 -109.537455 
L 96.672746 -149.695861 
L 98.304175 -156.575963 
L 99.935605 -126.977028 
L 101.567035 -142.643437 
L 103.198465 -205.274536 
L 104.829895 -198.654249 
L 106.461325 -98.818995 
L 108.092755 -158.456091 
L 109.724185 -183.792129 
L 111.355614 -138.566449 
L 112.987044 -152.655709 
L 114.618474 -134.338946 
L 116.249904 -188.446936 
L 117.881334 -175.012207 
L 119.512764 -115.014629 
L 121.144194 -189.80801 
L 122.775624 -102.773172 
L 124.407053 -105.234283 
L 126.038483 -177.237937 
L 127.669913 -80.856727 
L 129.301343 -55.10114 
L 130.932773 -95.292215 
L 132.564203 -115.867308 
L 134.195633 -142.508482 
L 135.827063 -151.6069 
L 137.458492 -180.063604 
L 139.089922 -191.335636 
L 140.721352 -180.613953 
L 142.352782 -95.664419 
L 143.984212 -133.708688 
L 145.615642 -160.958318 
L 147.247072 -82.642898 
L 148.878502 -103.979012 
L 150.509931 -107.058442 
L 152.141361 -167.142519 
L 153.772791 -183.883915 
L 155.404221 -195.722101 
L 157.035651 -161.72443 
L 158.667081 -151.336045 
L 160.298511 -100.893645 
L 161.929941 -169.842383 
L 163.56137 -187.704007 
L 165.1928 -159.017245 
L 166.82423 -144.99763 
L 168.45566 -107.216615 
L 170.08709 -146.167659 
L 171.71852 -146.979452 
L 173.34995 -137.475104 
L 174.98138 -88.325684 
L 176.61281 -163.749738 
L 178.244239 -154.610472 
L 179.875669 -125.258454 
L 181.507099 -76.371255 
L 183.138529 -177.814358 
L 184.769959 -171.29676 
L 186.401389 -104.749062 
L 188.032819 -81.202609 
L 189.664249 -167.048885 
L 191.295678 -145.597855 
L 192.927108 -154.882633 
L 194.558538 -127.381247 
L 196.189968 -177.112279 
L 197.821398 -141.15699 
L 199.452828 -138.613142 
L 201.084258 -145.008633 
L 202.715688 -146.853622 
L 204.347117 -100.502954 
L 205.978547 -130.638231 
L 207.609977 -144.560395 
L 209.241407 -128.847488 
L 210.872837 -174.165577 
L 212.504267 -132.724966 
L 214.135697 -174.341461 
L 215.767127 -143.688613 
L 217.398556 -150.09336 
L 219.029986 -169.509404 
L 220.661416 -107.157902 
L 222.292846 -111.616521 
L 223.924276 -140.544159 
L 225.555706 -125.737213 
L 227.187136 -147.09507 
L 228.818566 -103.986533 
L 230.449995 -113.514092 
L 232.081425 -126.746349 
L 233.712855 -121.890171 
L 235.344285 -168.187551 
L 236.975715 -147.310705 
L 238.607145 -121.466464 
L 240.238575 -130.379183 
L 241.870005 -163.571425 
L 243.501434 -160.610281 
L 245.132864 -101.769127 
L 246.764294 -163.431602 
L 248.395724 -172.712486 
L 250.027154 -161.618101 
L 251.658584 -161.622941 
L 253.290014 -125.271828 
L 254.921444 -167.780893 
L 256.552873 -108.860323 
L 258.184303 -142.427633 
L 259.815733 -163.430815 
L 261.447163 -115.833054 
L 263.078593 -148.496077 
L 264.710023 -165.661496 
L 266.341453 -153.535245 
L 267.972883 -165.596055 
L 269.604312 -127.907473 
L 271.235742 -202.93662 
L 272.867172 -155.099916 
L 274.498602 -123.692929 
L 276.130032 -173.860732 
L 277.761462 -103.926905 
L 279.392892 -147.773283 
L 281.024322 -160.957776 
L 282.655751 -153.162909 
L 284.287181 -156.215951 
L 285.918611 -169.933501 
L 287.550041 -177.432392 
L 289.181471 -186.265444 
L 290.812901 -114.874509 
L 292.444331 -179.667659 
L 294.075761 -114.83731 
L 295.70719 -94.167135 
L 297.33862 -138.312156 
L 298.97005 -151.169496 
L 300.60148 -155.039048 
L 302.23291 -152.552263 
L 303.86434 -138.292806 
L 305.49577 -146.481244 
L 307.1272 -179.150678 
L 308.75863 -153.125352 
L 310.390059 -178.257922 
L 312.021489 -131.844837 
L 313.652919 -162.378533 
L 315.284349 -196.086704 
L 316.915779 -144.958561 
L 318.547209 -163.154722 
L 320.178639 -139.544277 
L 321.810069 -155.439978 
L 323.441498 -149.341718 
L 325.072928 -152.804278 
L 326.704358 -162.583038 
L 328.335788 -137.795302 
L 329.967218 -159.817572 
L 331.598648 -148.054384 
L 333.230078 -136.272065 
L 334.861508 -134.291251 
L 336.492937 -155.520911 
L 338.124367 -145.990218 
L 339.755797 -154.086345 
L 341.387227 -135.953435 
L 343.018657 -152.451777 
L 344.650087 -150.000338 
L 346.281517 -50.112 
L 347.912947 -174.204693 
L 349.544376 -177.196669 
L 351.175806 -174.862941 
L 352.807236 -169.874832 
L 354.438666 -184.928442 
L 356.070096 -171.169103 
L 357.701526 -143.853173 
L 359.332956 -150.10254 
L 360.964386 -132.262811 
L 362.595815 -201.588406 
L 364.227245 -179.752991 
L 365.858675 -62.724391 
L 367.490105 -122.846696 
L 369.121535 -146.73583 
L 370.752965 -60.507922 
L 372.384395 -136.599234 
L 374.015825 -137.47074 
L 375.647254 -108.417982 
L 377.278684 -132.235266 
L 378.910114 -135.437489 
L 380.541544 -113.769168 
L 382.172974 -162.398145 
L 383.804404 -196.440768 
L 385.435834 -110.350932 
L 387.067264 -159.47797 
L 388.698693 -121.174475 
L 390.330123 -155.556564 
L 391.961553 -99.364428 
L 393.592983 -147.459602 
L 395.224413 -137.193605 
L 396.855843 -147.511648 
L 398.487273 -141.171791 
L 398.487273 -243.993445 
L 398.487273 -243.993445 
L 396.855843 -258.28663 
L 395.224413 -240.191116 
L 393.592983 -222.895813 
L 391.961553 -259.476816 
L 390.330123 -211.347018 
L 388.698693 -238.99227 
L 387.067264 -251.844567 
L 385.435834 -199.225466 
L 383.804404 -251.352829 
L 382.172974 -250.757703 
L 380.541544 -225.510215 
L 378.910114 -261.826162 
L 377.278684 -258.978209 
L 375.647254 -254.807782 
L 374.015825 -256.739972 
L 372.384395 -250.66303 
L 370.752965 -215.73992 
L 369.121535 -243.535834 
L 367.490105 -290.481647 
L 365.858675 -242.188426 
L 364.227245 -216.173272 
L 362.595815 -241.532901 
L 360.964386 -245.009124 
L 359.332956 -257.281363 
L 357.701526 -245.42789 
L 356.070096 -235.987572 
L 354.438666 -285.558737 
L 352.807236 -252.120411 
L 351.175806 -236.914054 
L 349.544376 -235.998433 
L 347.912947 -225.114522 
L 346.281517 -283.639668 
L 344.650087 -267.29594 
L 343.018657 -232.039512 
L 341.387227 -243.680906 
L 339.755797 -225.639081 
L 338.124367 -236.086695 
L 336.492937 -266.975646 
L 334.861508 -248.986491 
L 333.230078 -255.060415 
L 331.598648 -222.80815 
L 329.967218 -246.788447 
L 328.335788 -252.023425 
L 326.704358 -231.175428 
L 325.072928 -267.88053 
L 323.441498 -265.30798 
L 321.810069 -255.518219 
L 320.178639 -227.118669 
L 318.547209 -263.788554 
L 316.915779 -245.528031 
L 315.284349 -247.161763 
L 313.652919 -272.824733 
L 312.021489 -272.545838 
L 310.390059 -265.885638 
L 308.75863 -254.632844 
L 307.1272 -257.162609 
L 305.49577 -255.504454 
L 303.86434 -271.371126 
L 302.23291 -237.798876 
L 300.60148 -241.197927 
L 298.97005 -217.647426 
L 297.33862 -231.435243 
L 295.70719 -245.684467 
L 294.075761 -240.032404 
L 292.444331 -269.551232 
L 290.812901 -241.888779 
L 289.181471 -253.091936 
L 287.550041 -244.254766 
L 285.918611 -260.21807 
L 284.287181 -269.256696 
L 282.655751 -239.697699 
L 281.024322 -283.580532 
L 279.392892 -199.549503 
L 277.761462 -241.490974 
L 276.130032 -228.102852 
L 274.498602 -238.578585 
L 272.867172 -236.539406 
L 271.235742 -260.405843 
L 269.604312 -246.38077 
L 267.972883 -226.268838 
L 266.341453 -244.73739 
L 264.710023 -229.07375 
L 263.078593 -218.325543 
L 261.447163 -239.934518 
L 259.815733 -250.845698 
L 258.184303 -238.362755 
L 256.552873 -254.128952 
L 254.921444 -267.526174 
L 253.290014 -252.003286 
L 251.658584 -238.601872 
L 250.027154 -250.344657 
L 248.395724 -222.125179 
L 246.764294 -241.640207 
L 245.132864 -221.430359 
L 243.501434 -244.039689 
L 241.870005 -232.325121 
L 240.238575 -217.170556 
L 238.607145 -237.391088 
L 236.975715 -219.616513 
L 235.344285 -252.259524 
L 233.712855 -280.332293 
L 232.081425 -275.654554 
L 230.449995 -253.710569 
L 228.818566 -255.233701 
L 227.187136 -241.794839 
L 225.555706 -267.723948 
L 223.924276 -248.853421 
L 222.292846 -251.513597 
L 220.661416 -257.419073 
L 219.029986 -240.883762 
L 217.398556 -235.28625 
L 215.767127 -292.032 
L 214.135697 -271.791872 
L 212.504267 -212.696782 
L 210.872837 -274.885242 
L 209.241407 -235.927967 
L 207.609977 -253.938917 
L 205.978547 -224.423881 
L 204.347117 -243.824116 
L 202.715688 -265.481217 
L 201.084258 -254.906021 
L 199.452828 -261.742701 
L 197.821398 -219.990542 
L 196.189968 -281.520852 
L 194.558538 -264.66001 
L 192.927108 -252.012535 
L 191.295678 -268.565319 
L 189.664249 -229.031628 
L 188.032819 -231.068055 
L 186.401389 -254.589486 
L 184.769959 -259.239607 
L 183.138529 -244.783927 
L 181.507099 -233.968793 
L 179.875669 -283.337889 
L 178.244239 -257.365003 
L 176.61281 -220.944453 
L 174.98138 -257.541815 
L 173.34995 -263.585646 
L 171.71852 -246.45061 
L 170.08709 -250.851624 
L 168.45566 -286.761892 
L 166.82423 -238.580873 
L 165.1928 -239.087318 
L 163.56137 -242.89207 
L 161.929941 -217.866046 
L 160.298511 -252.718847 
L 158.667081 -256.189393 
L 157.035651 -263.557478 
L 155.404221 -274.672749 
L 153.772791 -234.785688 
L 152.141361 -260.423287 
L 150.509931 -248.210443 
L 148.878502 -247.821178 
L 147.247072 -274.782035 
L 145.615642 -209.236904 
L 143.984212 -258.690828 
L 142.352782 -246.820494 
L 140.721352 -212.503739 
L 139.089922 -252.225754 
L 137.458492 -249.695984 
L 135.827063 -240.742304 
L 134.195633 -243.965392 
L 132.564203 -253.990664 
L 130.932773 -290.742958 
L 129.301343 -262.306775 
L 127.669913 -221.711652 
L 126.038483 -256.711285 
L 124.407053 -259.606825 
L 122.775624 -183.276194 
L 121.144194 -237.282882 
L 119.512764 -237.278166 
L 117.881334 -257.487395 
L 116.249904 -263.759654 
L 114.618474 -255.487521 
L 112.987044 -243.67083 
L 111.355614 -207.036641 
L 109.724185 -256.286191 
L 108.092755 -235.073487 
L 106.461325 -260.296194 
L 104.829895 -265.408048 
L 103.198465 -272.035037 
L 101.567035 -249.060018 
L 99.935605 -255.322138 
L 98.304175 -248.754035 
L 96.672746 -263.163649 
L 95.041316 -268.625151 
L 93.409886 -194.700937 
L 91.778456 -234.401211 
L 90.147026 -259.225826 
L 88.515596 -214.644282 
L 86.884166 -252.646433 
L 85.252736 -241.256944 
L 83.621307 -236.458328 
L 81.989877 -244.603716 
L 80.358447 -280.82518 
L 78.727017 -240.240981 
L 77.095587 -239.211876 
L 75.464157 -268.400681 
L 73.832727 -248.163559 
z
" id="md9c6bc8e96" style="stroke:#ffffff;stroke-opacity:0.2;"/>
    </defs>
    <g clip-path="url(#pacc0816629)">
     <use style="fill:#1f77b4;fill-opacity:0.2;stroke:#ffffff;stroke-opacity:0.2;" x="0" xlink:href="#md9c6bc8e96" y="345.6"/>
    </g>
   </g>
   <g id="LineCollection_1">
    <path clip-path="url(#pacc0816629)" d="M 398.487273 295.488 
L 398.487273 53.568 
" style="fill:none;stroke:#1f77b4;stroke-dasharray:5.55,2.4;stroke-dashoffset:0;stroke-width:1.5;"/>
   </g>
   <g id="line2d_18">
    <path clip-path="url(#pacc0816629)" d="M 73.832727 137.053865 
L 75.464157 172.349803 
L 77.095587 156.348967 
L 78.727017 157.914689 
L 80.358447 113.190137 
L 81.989877 162.585389 
L 83.621307 142.672665 
L 85.252736 137.691875 
L 86.884166 157.219458 
L 88.515596 165.487049 
L 90.147026 167.3064 
L 91.778456 151.114686 
L 93.409886 177.25485 
L 95.041316 156.518697 
L 96.672746 139.170245 
L 98.304175 142.935001 
L 99.935605 154.450417 
L 101.567035 149.748273 
L 103.198465 106.945213 
L 104.829895 113.568851 
L 106.461325 166.042405 
L 108.092755 148.835211 
L 109.724185 125.56084 
L 111.355614 172.798455 
L 112.987044 147.43673 
L 114.618474 150.686766 
L 116.249904 119.496705 
L 117.881334 129.350199 
L 119.512764 169.453602 
L 121.144194 132.054554 
L 122.775624 202.575317 
L 124.407053 163.179446 
L 126.038483 128.625389 
L 127.669913 194.315811 
L 129.301343 186.896042 
L 130.932773 152.582413 
L 132.564203 160.671014 
L 134.195633 152.363063 
L 135.827063 149.425398 
L 137.458492 130.720206 
L 139.089922 123.819305 
L 142.352782 174.357544 
L 143.984212 149.400242 
L 145.615642 160.502389 
L 147.247072 166.887534 
L 148.878502 169.699905 
L 150.509931 167.965558 
L 152.141361 131.817097 
L 153.772791 136.265198 
L 155.404221 110.402575 
L 157.035651 132.959046 
L 158.667081 141.837281 
L 160.298511 168.793754 
L 161.929941 151.745786 
L 163.56137 130.301962 
L 165.1928 146.547718 
L 166.82423 153.810748 
L 168.45566 148.610746 
L 170.08709 147.090359 
L 171.71852 148.884969 
L 173.34995 145.069625 
L 174.98138 172.666251 
L 176.61281 153.252904 
L 178.244239 139.612263 
L 179.875669 141.301828 
L 181.507099 190.429976 
L 183.138529 134.300858 
L 184.769959 130.331816 
L 186.401389 165.930726 
L 188.032819 189.464668 
L 189.664249 147.559744 
L 191.295678 138.518413 
L 192.927108 142.152416 
L 194.558538 149.579371 
L 196.189968 116.283434 
L 197.821398 165.026234 
L 199.452828 145.422079 
L 201.084258 145.642673 
L 202.715688 139.432581 
L 204.347117 173.436465 
L 205.978547 168.068944 
L 207.609977 146.350344 
L 209.241407 163.212273 
L 210.872837 121.074591 
L 212.504267 172.889126 
L 214.135697 122.533334 
L 215.767127 127.739694 
L 217.398556 152.910195 
L 219.029986 140.403417 
L 220.661416 163.311513 
L 222.292846 164.034941 
L 223.924276 150.90121 
L 225.555706 148.869419 
L 227.187136 151.155046 
L 228.818566 165.989883 
L 230.449995 161.98767 
L 232.081425 144.399549 
L 233.712855 144.488768 
L 235.344285 135.376463 
L 236.975715 162.136391 
L 238.607145 166.171224 
L 240.238575 171.825131 
L 241.870005 147.651727 
L 243.501434 143.275015 
L 245.132864 184.000257 
L 246.764294 143.064096 
L 248.395724 148.181168 
L 250.027154 139.618621 
L 251.658584 145.487594 
L 253.290014 156.962443 
L 254.921444 127.946466 
L 256.552873 164.105362 
L 258.184303 155.204806 
L 259.815733 138.461744 
L 261.447163 167.716214 
L 263.078593 162.18919 
L 264.710023 148.232377 
L 266.341453 146.463682 
L 267.972883 149.667554 
L 269.604312 158.455878 
L 271.235742 113.928769 
L 272.867172 149.780339 
L 274.498602 164.464243 
L 276.130032 144.618208 
L 277.761462 172.891061 
L 279.392892 171.938607 
L 281.024322 123.330846 
L 282.655751 149.169696 
L 284.287181 132.863677 
L 285.918611 130.524215 
L 287.550041 134.756421 
L 289.181471 125.92131 
L 290.812901 167.218356 
L 292.444331 120.990555 
L 294.075761 168.165143 
L 295.70719 175.674199 
L 297.33862 160.726301 
L 298.97005 161.191539 
L 300.60148 147.481513 
L 302.23291 150.42443 
L 303.86434 140.768034 
L 305.49577 144.607151 
L 307.1272 127.443356 
L 308.75863 141.720902 
L 310.390059 123.52822 
L 312.021489 143.404662 
L 313.652919 127.998367 
L 315.284349 123.975767 
L 316.915779 150.356704 
L 318.547209 132.128362 
L 320.178639 162.268527 
L 321.810069 140.120902 
L 323.441498 138.275151 
L 325.072928 135.257596 
L 326.704358 148.720767 
L 328.335788 150.690637 
L 329.967218 142.296991 
L 331.598648 160.168733 
L 333.230078 149.93376 
L 334.861508 153.961129 
L 336.492937 134.351721 
L 338.124367 154.561543 
L 339.755797 155.737287 
L 341.387227 155.782829 
L 343.018657 153.354356 
L 344.650087 136.951861 
L 346.281517 178.724166 
L 347.912947 145.940393 
L 349.544376 139.002449 
L 351.175806 139.711503 
L 352.807236 134.602378 
L 354.438666 110.356411 
L 356.070096 142.021663 
L 357.701526 150.959469 
L 359.332956 141.908048 
L 360.964386 156.964032 
L 362.595815 124.039347 
L 364.227245 147.636869 
L 365.858675 193.143592 
L 367.490105 138.935828 
L 369.121535 150.464168 
L 370.752965 207.476079 
L 372.384395 151.968868 
L 374.015825 148.494644 
L 375.647254 163.987118 
L 377.278684 149.993262 
L 378.910114 146.968175 
L 380.541544 175.960309 
L 382.172974 139.022076 
L 383.804404 121.703202 
L 385.435834 190.811801 
L 387.067264 139.938731 
L 388.698693 165.516628 
L 390.330123 162.148209 
L 391.961553 166.179378 
L 393.592983 160.422292 
L 395.224413 156.90764 
L 396.855843 142.700861 
L 398.487273 153.017382 
L 398.487273 153.017382 
" style="fill:none;stroke:#1f77b4;stroke-linecap:round;stroke-width:1.5;"/>
   </g>
   <g id="patch_3">
    <path d="M 57.6 307.584 
L 57.6 41.472 
" style="fill:none;stroke:#cccccc;stroke-linecap:square;stroke-linejoin:miter;stroke-width:0.8;"/>
   </g>
   <g id="patch_4">
    <path d="M 414.72 307.584 
L 414.72 41.472 
" style="fill:none;stroke:#cccccc;stroke-linecap:square;stroke-linejoin:miter;stroke-width:0.8;"/>
   </g>
   <g id="patch_5">
    <path d="M 57.6 307.584 
L 414.72 307.584 
" style="fill:none;stroke:#cccccc;stroke-linecap:square;stroke-linejoin:miter;stroke-width:0.8;"/>
   </g>
   <g id="patch_6">
    <path d="M 57.6 41.472 
L 414.72 41.472 
" style="fill:none;stroke:#cccccc;stroke-linecap:square;stroke-linejoin:miter;stroke-width:0.8;"/>
   </g>
   <g id="text_20">
    <!-- Model performance vs. # of iterations -->
    <g style="fill:#262626;" transform="translate(122.314688 35.472)scale(0.12 -0.12)">
     <defs>
      <path d="M 628 4666 
L 1569 4666 
L 2759 1491 
L 3956 4666 
L 4897 4666 
L 4897 0 
L 4281 0 
L 4281 4097 
L 3078 897 
L 2444 897 
L 1241 4097 
L 1241 0 
L 628 0 
L 628 4666 
z
" id="DejaVuSans-4d" transform="scale(0.015625)"/>
      <path d="M 2906 2969 
L 2906 4863 
L 3481 4863 
L 3481 0 
L 2906 0 
L 2906 525 
Q 2725 213 2448 61 
Q 2172 -91 1784 -91 
Q 1150 -91 751 415 
Q 353 922 353 1747 
Q 353 2572 751 3078 
Q 1150 3584 1784 3584 
Q 2172 3584 2448 3432 
Q 2725 3281 2906 2969 
z
M 947 1747 
Q 947 1113 1208 752 
Q 1469 391 1925 391 
Q 2381 391 2643 752 
Q 2906 1113 2906 1747 
Q 2906 2381 2643 2742 
Q 2381 3103 1925 3103 
Q 1469 3103 1208 2742 
Q 947 2381 947 1747 
z
" id="DejaVuSans-64" transform="scale(0.015625)"/>
      <path d="M 603 4863 
L 1178 4863 
L 1178 0 
L 603 0 
L 603 4863 
z
" id="DejaVuSans-6c" transform="scale(0.015625)"/>
      <path id="DejaVuSans-20" transform="scale(0.015625)"/>
      <path d="M 1159 525 
L 1159 -1331 
L 581 -1331 
L 581 3500 
L 1159 3500 
L 1159 2969 
Q 1341 3281 1617 3432 
Q 1894 3584 2278 3584 
Q 2916 3584 3314 3078 
Q 3713 2572 3713 1747 
Q 3713 922 3314 415 
Q 2916 -91 2278 -91 
Q 1894 -91 1617 61 
Q 1341 213 1159 525 
z
M 3116 1747 
Q 3116 2381 2855 2742 
Q 2594 3103 2138 3103 
Q 1681 3103 1420 2742 
Q 1159 2381 1159 1747 
Q 1159 1113 1420 752 
Q 1681 391 2138 391 
Q 2594 391 2855 752 
Q 3116 1113 3116 1747 
z
" id="DejaVuSans-70" transform="scale(0.015625)"/>
      <path d="M 2375 4863 
L 2375 4384 
L 1825 4384 
Q 1516 4384 1395 4259 
Q 1275 4134 1275 3809 
L 1275 3500 
L 2222 3500 
L 2222 3053 
L 1275 3053 
L 1275 0 
L 697 0 
L 697 3053 
L 147 3053 
L 147 3500 
L 697 3500 
L 697 3744 
Q 697 4328 969 4595 
Q 1241 4863 1831 4863 
L 2375 4863 
z
" id="DejaVuSans-66" transform="scale(0.015625)"/>
      <path d="M 3328 2828 
Q 3544 3216 3844 3400 
Q 4144 3584 4550 3584 
Q 5097 3584 5394 3201 
Q 5691 2819 5691 2113 
L 5691 0 
L 5113 0 
L 5113 2094 
Q 5113 2597 4934 2840 
Q 4756 3084 4391 3084 
Q 3944 3084 3684 2787 
Q 3425 2491 3425 1978 
L 3425 0 
L 2847 0 
L 2847 2094 
Q 2847 2600 2669 2842 
Q 2491 3084 2119 3084 
Q 1678 3084 1418 2786 
Q 1159 2488 1159 1978 
L 1159 0 
L 581 0 
L 581 3500 
L 1159 3500 
L 1159 2956 
Q 1356 3278 1631 3431 
Q 1906 3584 2284 3584 
Q 2666 3584 2933 3390 
Q 3200 3197 3328 2828 
z
" id="DejaVuSans-6d" transform="scale(0.015625)"/>
      <path d="M 191 3500 
L 800 3500 
L 1894 563 
L 2988 3500 
L 3597 3500 
L 2284 0 
L 1503 0 
L 191 3500 
z
" id="DejaVuSans-76" transform="scale(0.015625)"/>
      <path d="M 2834 3397 
L 2834 2853 
Q 2591 2978 2328 3040 
Q 2066 3103 1784 3103 
Q 1356 3103 1142 2972 
Q 928 2841 928 2578 
Q 928 2378 1081 2264 
Q 1234 2150 1697 2047 
L 1894 2003 
Q 2506 1872 2764 1633 
Q 3022 1394 3022 966 
Q 3022 478 2636 193 
Q 2250 -91 1575 -91 
Q 1294 -91 989 -36 
Q 684 19 347 128 
L 347 722 
Q 666 556 975 473 
Q 1284 391 1588 391 
Q 1994 391 2212 530 
Q 2431 669 2431 922 
Q 2431 1156 2273 1281 
Q 2116 1406 1581 1522 
L 1381 1569 
Q 847 1681 609 1914 
Q 372 2147 372 2553 
Q 372 3047 722 3315 
Q 1072 3584 1716 3584 
Q 2034 3584 2315 3537 
Q 2597 3491 2834 3397 
z
" id="DejaVuSans-73" transform="scale(0.015625)"/>
      <path d="M 3272 2816 
L 2363 2816 
L 2100 1772 
L 3016 1772 
L 3272 2816 
z
M 2803 4594 
L 2478 3297 
L 3391 3297 
L 3719 4594 
L 4219 4594 
L 3897 3297 
L 4872 3297 
L 4872 2816 
L 3775 2816 
L 3519 1772 
L 4513 1772 
L 4513 1294 
L 3397 1294 
L 3072 0 
L 2572 0 
L 2894 1294 
L 1978 1294 
L 1656 0 
L 1153 0 
L 1478 1294 
L 494 1294 
L 494 1772 
L 1594 1772 
L 1856 2816 
L 850 2816 
L 850 3297 
L 1978 3297 
L 2297 4594 
L 2803 4594 
z
" id="DejaVuSans-23" transform="scale(0.015625)"/>
     </defs>
     <use xlink:href="#DejaVuSans-4d"/>
     <use x="86.279297" xlink:href="#DejaVuSans-6f"/>
     <use x="147.460938" xlink:href="#DejaVuSans-64"/>
     <use x="210.9375" xlink:href="#DejaVuSans-65"/>
     <use x="272.460938" xlink:href="#DejaVuSans-6c"/>
     <use x="300.244141" xlink:href="#DejaVuSans-20"/>
     <use x="332.03125" xlink:href="#DejaVuSans-70"/>
     <use x="395.507812" xlink:href="#DejaVuSans-65"/>
     <use x="457.03125" xlink:href="#DejaVuSans-72"/>
     <use x="498.144531" xlink:href="#DejaVuSans-66"/>
     <use x="533.349609" xlink:href="#DejaVuSans-6f"/>
     <use x="594.53125" xlink:href="#DejaVuSans-72"/>
     <use x="633.894531" xlink:href="#DejaVuSans-6d"/>
     <use x="731.306641" xlink:href="#DejaVuSans-61"/>
     <use x="792.585938" xlink:href="#DejaVuSans-6e"/>
     <use x="855.964844" xlink:href="#DejaVuSans-63"/>
     <use x="910.945312" xlink:href="#DejaVuSans-65"/>
     <use x="972.46875" xlink:href="#DejaVuSans-20"/>
     <use x="1004.255859" xlink:href="#DejaVuSans-76"/>
     <use x="1063.435547" xlink:href="#DejaVuSans-73"/>
     <use x="1115.535156" xlink:href="#DejaVuSans-2e"/>
     <use x="1147.322266" xlink:href="#DejaVuSans-20"/>
     <use x="1179.109375" xlink:href="#DejaVuSans-23"/>
     <use x="1262.898438" xlink:href="#DejaVuSans-20"/>
     <use x="1294.685547" xlink:href="#DejaVuSans-6f"/>
     <use x="1355.867188" xlink:href="#DejaVuSans-66"/>
     <use x="1391.072266" xlink:href="#DejaVuSans-20"/>
     <use x="1422.859375" xlink:href="#DejaVuSans-69"/>
     <use x="1450.642578" xlink:href="#DejaVuSans-74"/>
     <use x="1489.851562" xlink:href="#DejaVuSans-65"/>
     <use x="1551.375" xlink:href="#DejaVuSans-72"/>
     <use x="1592.488281" xlink:href="#DejaVuSans-61"/>
     <use x="1653.767578" xlink:href="#DejaVuSans-74"/>
     <use x="1692.976562" xlink:href="#DejaVuSans-69"/>
     <use x="1720.759766" xlink:href="#DejaVuSans-6f"/>
     <use x="1781.941406" xlink:href="#DejaVuSans-6e"/>
     <use x="1845.320312" xlink:href="#DejaVuSans-73"/>
    </g>
   </g>
  </g>
 </g>
 <defs>
  <clipPath id="pacc0816629">
   <rect height="266.112" width="357.12" x="57.6" y="41.472"/>
  </clipPath>
 </defs>
</svg>
