<?xml version="1.0" encoding="utf-8" standalone="no"?>
<!DOCTYPE svg PUBLIC "-//W3C//DTD SVG 1.1//EN"
  "http://www.w3.org/Graphics/SVG/1.1/DTD/svg11.dtd">
<svg height="345.6pt" version="1.1" viewBox="0 0 460.8 345.6" width="460.8pt" xmlns="http://www.w3.org/2000/svg" xmlns:xlink="http://www.w3.org/1999/xlink">
 <metadata>
  <rdf:RDF xmlns:cc="http://creativecommons.org/ns#" xmlns:dc="http://purl.org/dc/elements/1.1/" xmlns:rdf="http://www.w3.org/1999/02/22-rdf-syntax-ns#">
   <cc:Work>
    <dc:type rdf:resource="http://purl.org/dc/dcmitype/StillImage"/>
    <dc:date>2022-01-22T14:41:16.235887</dc:date>
    <dc:format>image/svg+xml</dc:format>
    <dc:creator>
     <cc:Agent>
      <dc:title>Matplotlib v3.4.3, https://matplotlib.org/</dc:title>
     </cc:Agent>
    </dc:creator>
   </cc:Work>
  </rdf:RDF>
 </metadata>
 <defs>
  <style type="text/css">*{stroke-linecap:butt;stroke-linejoin:round;}</style>
 </defs>
 <g id="figure_1">
  <g id="patch_1">
   <path d="M 0 345.6 
L 460.8 345.6 
L 460.8 0 
L 0 0 
z
" style="fill:#ffffff;"/>
  </g>
  <g id="axes_1">
   <g id="patch_2">
    <path d="M 57.6 307.584 
L 414.72 307.584 
L 414.72 41.472 
L 57.6 41.472 
z
" style="fill:#ffffff;"/>
   </g>
   <g id="matplotlib.axis_1">
    <g id="xtick_1">
     <g id="line2d_1">
      <path clip-path="url(#pef45be99f9)" d="M 72.201297 307.584 
L 72.201297 41.472 
" style="fill:none;stroke:#cccccc;stroke-linecap:round;stroke-width:0.8;"/>
     </g>
     <g id="text_1">
      <!-- 0 -->
      <g style="fill:#262626;" transform="translate(69.020047 322.182437)scale(0.1 -0.1)">
       <defs>
        <path d="M 2034 4250 
Q 1547 4250 1301 3770 
Q 1056 3291 1056 2328 
Q 1056 1369 1301 889 
Q 1547 409 2034 409 
Q 2525 409 2770 889 
Q 3016 1369 3016 2328 
Q 3016 3291 2770 3770 
Q 2525 4250 2034 4250 
z
M 2034 4750 
Q 2819 4750 3233 4129 
Q 3647 3509 3647 2328 
Q 3647 1150 3233 529 
Q 2819 -91 2034 -91 
Q 1250 -91 836 529 
Q 422 1150 422 2328 
Q 422 3509 836 4129 
Q 1250 4750 2034 4750 
z
" id="DejaVuSans-30" transform="scale(0.015625)"/>
       </defs>
       <use xlink:href="#DejaVuSans-30"/>
      </g>
     </g>
    </g>
    <g id="xtick_2">
     <g id="line2d_2">
      <path clip-path="url(#pef45be99f9)" d="M 112.987044 307.584 
L 112.987044 41.472 
" style="fill:none;stroke:#cccccc;stroke-linecap:round;stroke-width:0.8;"/>
     </g>
     <g id="text_2">
      <!-- 25 -->
      <g style="fill:#262626;" transform="translate(106.624544 322.182437)scale(0.1 -0.1)">
       <defs>
        <path d="M 1228 531 
L 3431 531 
L 3431 0 
L 469 0 
L 469 531 
Q 828 903 1448 1529 
Q 2069 2156 2228 2338 
Q 2531 2678 2651 2914 
Q 2772 3150 2772 3378 
Q 2772 3750 2511 3984 
Q 2250 4219 1831 4219 
Q 1534 4219 1204 4116 
Q 875 4013 500 3803 
L 500 4441 
Q 881 4594 1212 4672 
Q 1544 4750 1819 4750 
Q 2544 4750 2975 4387 
Q 3406 4025 3406 3419 
Q 3406 3131 3298 2873 
Q 3191 2616 2906 2266 
Q 2828 2175 2409 1742 
Q 1991 1309 1228 531 
z
" id="DejaVuSans-32" transform="scale(0.015625)"/>
        <path d="M 691 4666 
L 3169 4666 
L 3169 4134 
L 1269 4134 
L 1269 2991 
Q 1406 3038 1543 3061 
Q 1681 3084 1819 3084 
Q 2600 3084 3056 2656 
Q 3513 2228 3513 1497 
Q 3513 744 3044 326 
Q 2575 -91 1722 -91 
Q 1428 -91 1123 -41 
Q 819 9 494 109 
L 494 744 
Q 775 591 1075 516 
Q 1375 441 1709 441 
Q 2250 441 2565 725 
Q 2881 1009 2881 1497 
Q 2881 1984 2565 2268 
Q 2250 2553 1709 2553 
Q 1456 2553 1204 2497 
Q 953 2441 691 2322 
L 691 4666 
z
" id="DejaVuSans-35" transform="scale(0.015625)"/>
       </defs>
       <use xlink:href="#DejaVuSans-32"/>
       <use x="63.623047" xlink:href="#DejaVuSans-35"/>
      </g>
     </g>
    </g>
    <g id="xtick_3">
     <g id="line2d_3">
      <path clip-path="url(#pef45be99f9)" d="M 153.772791 307.584 
L 153.772791 41.472 
" style="fill:none;stroke:#cccccc;stroke-linecap:round;stroke-width:0.8;"/>
     </g>
     <g id="text_3">
      <!-- 50 -->
      <g style="fill:#262626;" transform="translate(147.410291 322.182437)scale(0.1 -0.1)">
       <use xlink:href="#DejaVuSans-35"/>
       <use x="63.623047" xlink:href="#DejaVuSans-30"/>
      </g>
     </g>
    </g>
    <g id="xtick_4">
     <g id="line2d_4">
      <path clip-path="url(#pef45be99f9)" d="M 194.558538 307.584 
L 194.558538 41.472 
" style="fill:none;stroke:#cccccc;stroke-linecap:round;stroke-width:0.8;"/>
     </g>
     <g id="text_4">
      <!-- 75 -->
      <g style="fill:#262626;" transform="translate(188.196038 322.182437)scale(0.1 -0.1)">
       <defs>
        <path d="M 525 4666 
L 3525 4666 
L 3525 4397 
L 1831 0 
L 1172 0 
L 2766 4134 
L 525 4134 
L 525 4666 
z
" id="DejaVuSans-37" transform="scale(0.015625)"/>
       </defs>
       <use xlink:href="#DejaVuSans-37"/>
       <use x="63.623047" xlink:href="#DejaVuSans-35"/>
      </g>
     </g>
    </g>
    <g id="xtick_5">
     <g id="line2d_5">
      <path clip-path="url(#pef45be99f9)" d="M 235.344285 307.584 
L 235.344285 41.472 
" style="fill:none;stroke:#cccccc;stroke-linecap:round;stroke-width:0.8;"/>
     </g>
     <g id="text_5">
      <!-- 100 -->
      <g style="fill:#262626;" transform="translate(225.800535 322.182437)scale(0.1 -0.1)">
       <defs>
        <path d="M 794 531 
L 1825 531 
L 1825 4091 
L 703 3866 
L 703 4441 
L 1819 4666 
L 2450 4666 
L 2450 531 
L 3481 531 
L 3481 0 
L 794 0 
L 794 531 
z
" id="DejaVuSans-31" transform="scale(0.015625)"/>
       </defs>
       <use xlink:href="#DejaVuSans-31"/>
       <use x="63.623047" xlink:href="#DejaVuSans-30"/>
       <use x="127.246094" xlink:href="#DejaVuSans-30"/>
      </g>
     </g>
    </g>
    <g id="xtick_6">
     <g id="line2d_6">
      <path clip-path="url(#pef45be99f9)" d="M 276.130032 307.584 
L 276.130032 41.472 
" style="fill:none;stroke:#cccccc;stroke-linecap:round;stroke-width:0.8;"/>
     </g>
     <g id="text_6">
      <!-- 125 -->
      <g style="fill:#262626;" transform="translate(266.586282 322.182437)scale(0.1 -0.1)">
       <use xlink:href="#DejaVuSans-31"/>
       <use x="63.623047" xlink:href="#DejaVuSans-32"/>
       <use x="127.246094" xlink:href="#DejaVuSans-35"/>
      </g>
     </g>
    </g>
    <g id="xtick_7">
     <g id="line2d_7">
      <path clip-path="url(#pef45be99f9)" d="M 316.915779 307.584 
L 316.915779 41.472 
" style="fill:none;stroke:#cccccc;stroke-linecap:round;stroke-width:0.8;"/>
     </g>
     <g id="text_7">
      <!-- 150 -->
      <g style="fill:#262626;" transform="translate(307.372029 322.182437)scale(0.1 -0.1)">
       <use xlink:href="#DejaVuSans-31"/>
       <use x="63.623047" xlink:href="#DejaVuSans-35"/>
       <use x="127.246094" xlink:href="#DejaVuSans-30"/>
      </g>
     </g>
    </g>
    <g id="xtick_8">
     <g id="line2d_8">
      <path clip-path="url(#pef45be99f9)" d="M 357.701526 307.584 
L 357.701526 41.472 
" style="fill:none;stroke:#cccccc;stroke-linecap:round;stroke-width:0.8;"/>
     </g>
     <g id="text_8">
      <!-- 175 -->
      <g style="fill:#262626;" transform="translate(348.157776 322.182437)scale(0.1 -0.1)">
       <use xlink:href="#DejaVuSans-31"/>
       <use x="63.623047" xlink:href="#DejaVuSans-37"/>
       <use x="127.246094" xlink:href="#DejaVuSans-35"/>
      </g>
     </g>
    </g>
    <g id="xtick_9">
     <g id="line2d_9">
      <path clip-path="url(#pef45be99f9)" d="M 398.487273 307.584 
L 398.487273 41.472 
" style="fill:none;stroke:#cccccc;stroke-linecap:round;stroke-width:0.8;"/>
     </g>
     <g id="text_9">
      <!-- 200 -->
      <g style="fill:#262626;" transform="translate(388.943523 322.182437)scale(0.1 -0.1)">
       <use xlink:href="#DejaVuSans-32"/>
       <use x="63.623047" xlink:href="#DejaVuSans-30"/>
       <use x="127.246094" xlink:href="#DejaVuSans-30"/>
      </g>
     </g>
    </g>
    <g id="text_10">
     <!-- Auroc -->
     <g style="fill:#262626;" transform="translate(221.819375 335.860562)scale(0.1 -0.1)">
      <defs>
       <path d="M 2188 4044 
L 1331 1722 
L 3047 1722 
L 2188 4044 
z
M 1831 4666 
L 2547 4666 
L 4325 0 
L 3669 0 
L 3244 1197 
L 1141 1197 
L 716 0 
L 50 0 
L 1831 4666 
z
" id="DejaVuSans-41" transform="scale(0.015625)"/>
       <path d="M 544 1381 
L 544 3500 
L 1119 3500 
L 1119 1403 
Q 1119 906 1312 657 
Q 1506 409 1894 409 
Q 2359 409 2629 706 
Q 2900 1003 2900 1516 
L 2900 3500 
L 3475 3500 
L 3475 0 
L 2900 0 
L 2900 538 
Q 2691 219 2414 64 
Q 2138 -91 1772 -91 
Q 1169 -91 856 284 
Q 544 659 544 1381 
z
M 1991 3584 
L 1991 3584 
z
" id="DejaVuSans-75" transform="scale(0.015625)"/>
       <path d="M 2631 2963 
Q 2534 3019 2420 3045 
Q 2306 3072 2169 3072 
Q 1681 3072 1420 2755 
Q 1159 2438 1159 1844 
L 1159 0 
L 581 0 
L 581 3500 
L 1159 3500 
L 1159 2956 
Q 1341 3275 1631 3429 
Q 1922 3584 2338 3584 
Q 2397 3584 2469 3576 
Q 2541 3569 2628 3553 
L 2631 2963 
z
" id="DejaVuSans-72" transform="scale(0.015625)"/>
       <path d="M 1959 3097 
Q 1497 3097 1228 2736 
Q 959 2375 959 1747 
Q 959 1119 1226 758 
Q 1494 397 1959 397 
Q 2419 397 2687 759 
Q 2956 1122 2956 1747 
Q 2956 2369 2687 2733 
Q 2419 3097 1959 3097 
z
M 1959 3584 
Q 2709 3584 3137 3096 
Q 3566 2609 3566 1747 
Q 3566 888 3137 398 
Q 2709 -91 1959 -91 
Q 1206 -91 779 398 
Q 353 888 353 1747 
Q 353 2609 779 3096 
Q 1206 3584 1959 3584 
z
" id="DejaVuSans-6f" transform="scale(0.015625)"/>
       <path d="M 3122 3366 
L 3122 2828 
Q 2878 2963 2633 3030 
Q 2388 3097 2138 3097 
Q 1578 3097 1268 2742 
Q 959 2388 959 1747 
Q 959 1106 1268 751 
Q 1578 397 2138 397 
Q 2388 397 2633 464 
Q 2878 531 3122 666 
L 3122 134 
Q 2881 22 2623 -34 
Q 2366 -91 2075 -91 
Q 1284 -91 818 406 
Q 353 903 353 1747 
Q 353 2603 823 3093 
Q 1294 3584 2113 3584 
Q 2378 3584 2631 3529 
Q 2884 3475 3122 3366 
z
" id="DejaVuSans-63" transform="scale(0.015625)"/>
      </defs>
      <use xlink:href="#DejaVuSans-41"/>
      <use x="68.408203" xlink:href="#DejaVuSans-75"/>
      <use x="131.787109" xlink:href="#DejaVuSans-72"/>
      <use x="170.650391" xlink:href="#DejaVuSans-6f"/>
      <use x="231.832031" xlink:href="#DejaVuSans-63"/>
     </g>
    </g>
   </g>
   <g id="matplotlib.axis_2">
    <g id="ytick_1">
     <g id="line2d_10">
      <path clip-path="url(#pef45be99f9)" d="M 57.6 269.061131 
L 414.72 269.061131 
" style="fill:none;stroke:#cccccc;stroke-linecap:round;stroke-width:0.8;"/>
     </g>
     <g id="text_11">
      <!-- 0.60 -->
      <g style="fill:#262626;" transform="translate(28.334375 272.86035)scale(0.1 -0.1)">
       <defs>
        <path d="M 684 794 
L 1344 794 
L 1344 0 
L 684 0 
L 684 794 
z
" id="DejaVuSans-2e" transform="scale(0.015625)"/>
        <path d="M 2113 2584 
Q 1688 2584 1439 2293 
Q 1191 2003 1191 1497 
Q 1191 994 1439 701 
Q 1688 409 2113 409 
Q 2538 409 2786 701 
Q 3034 994 3034 1497 
Q 3034 2003 2786 2293 
Q 2538 2584 2113 2584 
z
M 3366 4563 
L 3366 3988 
Q 3128 4100 2886 4159 
Q 2644 4219 2406 4219 
Q 1781 4219 1451 3797 
Q 1122 3375 1075 2522 
Q 1259 2794 1537 2939 
Q 1816 3084 2150 3084 
Q 2853 3084 3261 2657 
Q 3669 2231 3669 1497 
Q 3669 778 3244 343 
Q 2819 -91 2113 -91 
Q 1303 -91 875 529 
Q 447 1150 447 2328 
Q 447 3434 972 4092 
Q 1497 4750 2381 4750 
Q 2619 4750 2861 4703 
Q 3103 4656 3366 4563 
z
" id="DejaVuSans-36" transform="scale(0.015625)"/>
       </defs>
       <use xlink:href="#DejaVuSans-30"/>
       <use x="63.623047" xlink:href="#DejaVuSans-2e"/>
       <use x="95.410156" xlink:href="#DejaVuSans-36"/>
       <use x="159.033203" xlink:href="#DejaVuSans-30"/>
      </g>
     </g>
    </g>
    <g id="ytick_2">
     <g id="line2d_11">
      <path clip-path="url(#pef45be99f9)" d="M 57.6 224.059731 
L 414.72 224.059731 
" style="fill:none;stroke:#cccccc;stroke-linecap:round;stroke-width:0.8;"/>
     </g>
     <g id="text_12">
      <!-- 0.65 -->
      <g style="fill:#262626;" transform="translate(28.334375 227.85895)scale(0.1 -0.1)">
       <use xlink:href="#DejaVuSans-30"/>
       <use x="63.623047" xlink:href="#DejaVuSans-2e"/>
       <use x="95.410156" xlink:href="#DejaVuSans-36"/>
       <use x="159.033203" xlink:href="#DejaVuSans-35"/>
      </g>
     </g>
    </g>
    <g id="ytick_3">
     <g id="line2d_12">
      <path clip-path="url(#pef45be99f9)" d="M 57.6 179.058332 
L 414.72 179.058332 
" style="fill:none;stroke:#cccccc;stroke-linecap:round;stroke-width:0.8;"/>
     </g>
     <g id="text_13">
      <!-- 0.70 -->
      <g style="fill:#262626;" transform="translate(28.334375 182.857551)scale(0.1 -0.1)">
       <use xlink:href="#DejaVuSans-30"/>
       <use x="63.623047" xlink:href="#DejaVuSans-2e"/>
       <use x="95.410156" xlink:href="#DejaVuSans-37"/>
       <use x="159.033203" xlink:href="#DejaVuSans-30"/>
      </g>
     </g>
    </g>
    <g id="ytick_4">
     <g id="line2d_13">
      <path clip-path="url(#pef45be99f9)" d="M 57.6 134.056932 
L 414.72 134.056932 
" style="fill:none;stroke:#cccccc;stroke-linecap:round;stroke-width:0.8;"/>
     </g>
     <g id="text_14">
      <!-- 0.75 -->
      <g style="fill:#262626;" transform="translate(28.334375 137.856151)scale(0.1 -0.1)">
       <use xlink:href="#DejaVuSans-30"/>
       <use x="63.623047" xlink:href="#DejaVuSans-2e"/>
       <use x="95.410156" xlink:href="#DejaVuSans-37"/>
       <use x="159.033203" xlink:href="#DejaVuSans-35"/>
      </g>
     </g>
    </g>
    <g id="ytick_5">
     <g id="line2d_14">
      <path clip-path="url(#pef45be99f9)" d="M 57.6 89.055533 
L 414.72 89.055533 
" style="fill:none;stroke:#cccccc;stroke-linecap:round;stroke-width:0.8;"/>
     </g>
     <g id="text_15">
      <!-- 0.80 -->
      <g style="fill:#262626;" transform="translate(28.334375 92.854752)scale(0.1 -0.1)">
       <defs>
        <path d="M 2034 2216 
Q 1584 2216 1326 1975 
Q 1069 1734 1069 1313 
Q 1069 891 1326 650 
Q 1584 409 2034 409 
Q 2484 409 2743 651 
Q 3003 894 3003 1313 
Q 3003 1734 2745 1975 
Q 2488 2216 2034 2216 
z
M 1403 2484 
Q 997 2584 770 2862 
Q 544 3141 544 3541 
Q 544 4100 942 4425 
Q 1341 4750 2034 4750 
Q 2731 4750 3128 4425 
Q 3525 4100 3525 3541 
Q 3525 3141 3298 2862 
Q 3072 2584 2669 2484 
Q 3125 2378 3379 2068 
Q 3634 1759 3634 1313 
Q 3634 634 3220 271 
Q 2806 -91 2034 -91 
Q 1263 -91 848 271 
Q 434 634 434 1313 
Q 434 1759 690 2068 
Q 947 2378 1403 2484 
z
M 1172 3481 
Q 1172 3119 1398 2916 
Q 1625 2713 2034 2713 
Q 2441 2713 2670 2916 
Q 2900 3119 2900 3481 
Q 2900 3844 2670 4047 
Q 2441 4250 2034 4250 
Q 1625 4250 1398 4047 
Q 1172 3844 1172 3481 
z
" id="DejaVuSans-38" transform="scale(0.015625)"/>
       </defs>
       <use xlink:href="#DejaVuSans-30"/>
       <use x="63.623047" xlink:href="#DejaVuSans-2e"/>
       <use x="95.410156" xlink:href="#DejaVuSans-38"/>
       <use x="159.033203" xlink:href="#DejaVuSans-30"/>
      </g>
     </g>
    </g>
    <g id="ytick_6">
     <g id="line2d_15">
      <path clip-path="url(#pef45be99f9)" d="M 57.6 44.054133 
L 414.72 44.054133 
" style="fill:none;stroke:#cccccc;stroke-linecap:round;stroke-width:0.8;"/>
     </g>
     <g id="text_16">
      <!-- 0.85 -->
      <g style="fill:#262626;" transform="translate(28.334375 47.853352)scale(0.1 -0.1)">
       <use xlink:href="#DejaVuSans-30"/>
       <use x="63.623047" xlink:href="#DejaVuSans-2e"/>
       <use x="95.410156" xlink:href="#DejaVuSans-38"/>
       <use x="159.033203" xlink:href="#DejaVuSans-35"/>
      </g>
     </g>
    </g>
    <g id="text_17">
     <!-- Iteration -->
     <g style="fill:#262626;" transform="translate(22.254687 195.736594)rotate(-90)scale(0.1 -0.1)">
      <defs>
       <path d="M 628 4666 
L 1259 4666 
L 1259 0 
L 628 0 
L 628 4666 
z
" id="DejaVuSans-49" transform="scale(0.015625)"/>
       <path d="M 1172 4494 
L 1172 3500 
L 2356 3500 
L 2356 3053 
L 1172 3053 
L 1172 1153 
Q 1172 725 1289 603 
Q 1406 481 1766 481 
L 2356 481 
L 2356 0 
L 1766 0 
Q 1100 0 847 248 
Q 594 497 594 1153 
L 594 3053 
L 172 3053 
L 172 3500 
L 594 3500 
L 594 4494 
L 1172 4494 
z
" id="DejaVuSans-74" transform="scale(0.015625)"/>
       <path d="M 3597 1894 
L 3597 1613 
L 953 1613 
Q 991 1019 1311 708 
Q 1631 397 2203 397 
Q 2534 397 2845 478 
Q 3156 559 3463 722 
L 3463 178 
Q 3153 47 2828 -22 
Q 2503 -91 2169 -91 
Q 1331 -91 842 396 
Q 353 884 353 1716 
Q 353 2575 817 3079 
Q 1281 3584 2069 3584 
Q 2775 3584 3186 3129 
Q 3597 2675 3597 1894 
z
M 3022 2063 
Q 3016 2534 2758 2815 
Q 2500 3097 2075 3097 
Q 1594 3097 1305 2825 
Q 1016 2553 972 2059 
L 3022 2063 
z
" id="DejaVuSans-65" transform="scale(0.015625)"/>
       <path d="M 2194 1759 
Q 1497 1759 1228 1600 
Q 959 1441 959 1056 
Q 959 750 1161 570 
Q 1363 391 1709 391 
Q 2188 391 2477 730 
Q 2766 1069 2766 1631 
L 2766 1759 
L 2194 1759 
z
M 3341 1997 
L 3341 0 
L 2766 0 
L 2766 531 
Q 2569 213 2275 61 
Q 1981 -91 1556 -91 
Q 1019 -91 701 211 
Q 384 513 384 1019 
Q 384 1609 779 1909 
Q 1175 2209 1959 2209 
L 2766 2209 
L 2766 2266 
Q 2766 2663 2505 2880 
Q 2244 3097 1772 3097 
Q 1472 3097 1187 3025 
Q 903 2953 641 2809 
L 641 3341 
Q 956 3463 1253 3523 
Q 1550 3584 1831 3584 
Q 2591 3584 2966 3190 
Q 3341 2797 3341 1997 
z
" id="DejaVuSans-61" transform="scale(0.015625)"/>
       <path d="M 603 3500 
L 1178 3500 
L 1178 0 
L 603 0 
L 603 3500 
z
M 603 4863 
L 1178 4863 
L 1178 4134 
L 603 4134 
L 603 4863 
z
" id="DejaVuSans-69" transform="scale(0.015625)"/>
       <path d="M 3513 2113 
L 3513 0 
L 2938 0 
L 2938 2094 
Q 2938 2591 2744 2837 
Q 2550 3084 2163 3084 
Q 1697 3084 1428 2787 
Q 1159 2491 1159 1978 
L 1159 0 
L 581 0 
L 581 3500 
L 1159 3500 
L 1159 2956 
Q 1366 3272 1645 3428 
Q 1925 3584 2291 3584 
Q 2894 3584 3203 3211 
Q 3513 2838 3513 2113 
z
" id="DejaVuSans-6e" transform="scale(0.015625)"/>
      </defs>
      <use xlink:href="#DejaVuSans-49"/>
      <use x="29.492188" xlink:href="#DejaVuSans-74"/>
      <use x="68.701172" xlink:href="#DejaVuSans-65"/>
      <use x="130.224609" xlink:href="#DejaVuSans-72"/>
      <use x="171.337891" xlink:href="#DejaVuSans-61"/>
      <use x="232.617188" xlink:href="#DejaVuSans-74"/>
      <use x="271.826172" xlink:href="#DejaVuSans-69"/>
      <use x="299.609375" xlink:href="#DejaVuSans-6f"/>
      <use x="360.791016" xlink:href="#DejaVuSans-6e"/>
     </g>
    </g>
   </g>
   <g id="PolyCollection_1">
    <defs>
     <path d="M 73.832727 -243.044077 
L 73.832727 -187.182042 
L 75.464157 -202.38273 
L 77.095587 -128.674821 
L 78.727017 -110.538323 
L 80.358447 -104.890161 
L 81.989877 -115.814907 
L 83.621307 -193.46184 
L 85.252736 -225.350489 
L 86.884166 -158.463131 
L 88.515596 -126.996328 
L 90.147026 -129.911684 
L 91.778456 -195.547653 
L 93.409886 -178.518908 
L 95.041316 -160.026136 
L 96.672746 -92.109726 
L 98.304175 -144.238031 
L 99.935605 -154.766622 
L 101.567035 -187.821789 
L 103.198465 -179.056433 
L 104.829895 -120.924227 
L 106.461325 -168.335953 
L 108.092755 -160.621821 
L 109.724185 -99.880131 
L 111.355614 -144.3149 
L 112.987044 -126.076902 
L 114.618474 -211.721011 
L 116.249904 -190.357308 
L 117.881334 -98.729453 
L 119.512764 -196.083851 
L 121.144194 -152.028495 
L 122.775624 -161.572694 
L 124.407053 -73.380371 
L 126.038483 -137.884418 
L 127.669913 -237.126027 
L 129.301343 -181.474294 
L 130.932773 -144.266813 
L 132.564203 -135.019243 
L 134.195633 -169.885768 
L 135.827063 -174.70831 
L 137.458492 -153.540371 
L 139.089922 -199.126404 
L 140.721352 -155.125217 
L 142.352782 -163.003733 
L 143.984212 -175.821905 
L 145.615642 -138.72032 
L 147.247072 -139.241264 
L 148.878502 -150.848737 
L 150.509931 -87.326184 
L 152.141361 -157.84221 
L 153.772791 -191.867742 
L 155.404221 -172.078254 
L 157.035651 -129.815333 
L 158.667081 -149.845086 
L 160.298511 -190.534709 
L 161.929941 -164.250736 
L 163.56137 -162.212122 
L 165.1928 -120.034358 
L 166.82423 -144.885554 
L 168.45566 -150.657054 
L 170.08709 -148.262882 
L 171.71852 -124.622442 
L 173.34995 -164.419528 
L 174.98138 -108.046519 
L 176.61281 -167.675779 
L 178.244239 -198.47911 
L 179.875669 -166.38976 
L 181.507099 -162.857768 
L 183.138529 -116.152378 
L 184.769959 -79.530589 
L 186.401389 -198.544689 
L 188.032819 -188.411257 
L 189.664249 -79.338627 
L 191.295678 -203.640055 
L 192.927108 -85.015854 
L 194.558538 -215.722661 
L 196.189968 -171.286883 
L 197.821398 -168.112784 
L 199.452828 -104.697766 
L 201.084258 -184.991894 
L 202.715688 -143.996349 
L 204.347117 -135.849297 
L 205.978547 -168.445151 
L 207.609977 -164.99432 
L 209.241407 -138.974582 
L 210.872837 -141.214171 
L 212.504267 -158.898735 
L 214.135697 -121.757406 
L 215.767127 -155.414061 
L 217.398556 -173.095711 
L 219.029986 -81.878622 
L 220.661416 -159.26307 
L 222.292846 -107.964105 
L 223.924276 -158.184405 
L 225.555706 -177.46704 
L 227.187136 -133.855188 
L 228.818566 -122.348791 
L 230.449995 -197.366054 
L 232.081425 -181.693366 
L 233.712855 -178.484082 
L 235.344285 -177.023392 
L 236.975715 -109.092124 
L 238.607145 -179.446816 
L 240.238575 -117.979084 
L 241.870005 -114.321839 
L 243.501434 -130.579239 
L 245.132864 -145.856307 
L 246.764294 -179.160359 
L 248.395724 -171.887576 
L 250.027154 -113.08777 
L 251.658584 -221.758989 
L 253.290014 -123.267395 
L 254.921444 -154.116256 
L 256.552873 -171.574173 
L 258.184303 -129.734759 
L 259.815733 -169.792599 
L 261.447163 -181.649262 
L 263.078593 -130.852935 
L 264.710023 -165.365591 
L 266.341453 -87.60131 
L 267.972883 -152.694809 
L 269.604312 -218.346233 
L 271.235742 -174.03586 
L 272.867172 -174.472287 
L 274.498602 -146.6294 
L 276.130032 -166.664485 
L 277.761462 -152.851988 
L 279.392892 -199.201089 
L 281.024322 -173.045385 
L 282.655751 -140.854504 
L 284.287181 -107.483986 
L 285.918611 -62.478366 
L 287.550041 -123.136958 
L 289.181471 -134.14603 
L 290.812901 -167.358424 
L 292.444331 -176.126691 
L 294.075761 -87.48832 
L 295.70719 -172.059394 
L 297.33862 -158.534242 
L 298.97005 -170.09396 
L 300.60148 -191.799572 
L 302.23291 -118.882363 
L 303.86434 -131.09871 
L 305.49577 -161.187645 
L 307.1272 -50.112 
L 308.75863 -97.038956 
L 310.390059 -155.402526 
L 312.021489 -207.023299 
L 313.652919 -176.60257 
L 315.284349 -71.74519 
L 316.915779 -111.356801 
L 318.547209 -155.814843 
L 320.178639 -152.082687 
L 321.810069 -157.80434 
L 323.441498 -167.422187 
L 325.072928 -138.017344 
L 326.704358 -217.003492 
L 328.335788 -167.975869 
L 329.967218 -148.349525 
L 331.598648 -119.333546 
L 333.230078 -121.619565 
L 334.861508 -139.79948 
L 336.492937 -164.722305 
L 338.124367 -205.299408 
L 339.755797 -202.195259 
L 341.387227 -84.56244 
L 343.018657 -157.809698 
L 344.650087 -142.171336 
L 346.281517 -80.806107 
L 347.912947 -161.987018 
L 349.544376 -111.319106 
L 351.175806 -148.444777 
L 352.807236 -115.899849 
L 354.438666 -138.647241 
L 356.070096 -134.498252 
L 357.701526 -181.810232 
L 359.332956 -173.665542 
L 360.964386 -126.452542 
L 362.595815 -164.459635 
L 364.227245 -126.466054 
L 365.858675 -178.889819 
L 367.490105 -118.658833 
L 369.121535 -171.527589 
L 370.752965 -129.56988 
L 372.384395 -182.992862 
L 374.015825 -159.991531 
L 375.647254 -93.695219 
L 377.278684 -203.007724 
L 378.910114 -177.065571 
L 380.541544 -186.217762 
L 382.172974 -186.406404 
L 383.804404 -154.477066 
L 385.435834 -146.093732 
L 387.067264 -142.221831 
L 388.698693 -112.893089 
L 390.330123 -182.527081 
L 391.961553 -123.678167 
L 393.592983 -204.991509 
L 395.224413 -83.36305 
L 396.855843 -178.386023 
L 398.487273 -183.414089 
L 398.487273 -268.558118 
L 398.487273 -268.558118 
L 396.855843 -247.929775 
L 395.224413 -261.913504 
L 393.592983 -263.421585 
L 391.961553 -242.384658 
L 390.330123 -250.53054 
L 388.698693 -268.844758 
L 387.067264 -248.640275 
L 385.435834 -239.770189 
L 383.804404 -252.534844 
L 382.172974 -251.879281 
L 380.541544 -266.933279 
L 378.910114 -239.933028 
L 377.278684 -255.155279 
L 375.647254 -225.998565 
L 374.015825 -226.147106 
L 372.384395 -235.246934 
L 370.752965 -190.615978 
L 369.121535 -231.375683 
L 367.490105 -212.081077 
L 365.858675 -284.007802 
L 364.227245 -231.999915 
L 362.595815 -218.307409 
L 360.964386 -255.35233 
L 359.332956 -223.539377 
L 357.701526 -258.677317 
L 356.070096 -216.872066 
L 354.438666 -227.147047 
L 352.807236 -225.188207 
L 351.175806 -217.564693 
L 349.544376 -258.438629 
L 347.912947 -235.472952 
L 346.281517 -247.387851 
L 344.650087 -246.893077 
L 343.018657 -231.771433 
L 341.387227 -273.863021 
L 339.755797 -288.625668 
L 338.124367 -273.667765 
L 336.492937 -230.743779 
L 334.861508 -193.227713 
L 333.230078 -248.497669 
L 331.598648 -245.277051 
L 329.967218 -221.181857 
L 328.335788 -252.160689 
L 326.704358 -267.400522 
L 325.072928 -227.752843 
L 323.441498 -181.066102 
L 321.810069 -237.606377 
L 320.178639 -238.974173 
L 318.547209 -261.522976 
L 316.915779 -217.574412 
L 315.284349 -236.554205 
L 313.652919 -255.242806 
L 312.021489 -286.232522 
L 310.390059 -251.892034 
L 308.75863 -267.22655 
L 307.1272 -260.507535 
L 305.49577 -244.671554 
L 303.86434 -249.928148 
L 302.23291 -273.752042 
L 300.60148 -258.713355 
L 298.97005 -231.685544 
L 297.33862 -246.655059 
L 295.70719 -225.20512 
L 294.075761 -227.413123 
L 292.444331 -235.902632 
L 290.812901 -246.724978 
L 289.181471 -234.474942 
L 287.550041 -223.94954 
L 285.918611 -249.371303 
L 284.287181 -260.483787 
L 282.655751 -259.02245 
L 281.024322 -258.332066 
L 279.392892 -207.160325 
L 277.761462 -254.993798 
L 276.130032 -244.166571 
L 274.498602 -187.795078 
L 272.867172 -253.032811 
L 271.235742 -258.379103 
L 269.604312 -267.565581 
L 267.972883 -229.423511 
L 266.341453 -180.258595 
L 264.710023 -214.497089 
L 263.078593 -206.563312 
L 261.447163 -248.37543 
L 259.815733 -249.731432 
L 258.184303 -258.394795 
L 256.552873 -217.097148 
L 254.921444 -221.01326 
L 253.290014 -250.085795 
L 251.658584 -262.235179 
L 250.027154 -229.537101 
L 248.395724 -243.916783 
L 246.764294 -274.195475 
L 245.132864 -261.176786 
L 243.501434 -285.513025 
L 241.870005 -179.623299 
L 240.238575 -252.375085 
L 238.607145 -265.017913 
L 236.975715 -237.717103 
L 235.344285 -234.657787 
L 233.712855 -225.490539 
L 232.081425 -232.95912 
L 230.449995 -225.026519 
L 228.818566 -214.820093 
L 227.187136 -204.780991 
L 225.555706 -224.495924 
L 223.924276 -214.203287 
L 222.292846 -209.912168 
L 220.661416 -228.061257 
L 219.029986 -210.034084 
L 217.398556 -247.700654 
L 215.767127 -235.432239 
L 214.135697 -208.802969 
L 212.504267 -244.050752 
L 210.872837 -242.024235 
L 209.241407 -210.838564 
L 207.609977 -265.70714 
L 205.978547 -250.199841 
L 204.347117 -221.613846 
L 202.715688 -200.331712 
L 201.084258 -265.910983 
L 199.452828 -230.029982 
L 197.821398 -257.971035 
L 196.189968 -217.690478 
L 194.558538 -277.420194 
L 192.927108 -229.567415 
L 191.295678 -272.670021 
L 189.664249 -242.696257 
L 188.032819 -248.610683 
L 186.401389 -242.217068 
L 184.769959 -241.825542 
L 183.138529 -229.927155 
L 181.507099 -266.785127 
L 179.875669 -233.369617 
L 178.244239 -238.078983 
L 176.61281 -249.820167 
L 174.98138 -258.807091 
L 173.34995 -262.583129 
L 171.71852 -198.435456 
L 170.08709 -265.956066 
L 168.45566 -198.807857 
L 166.82423 -230.913988 
L 165.1928 -188.489347 
L 163.56137 -239.913273 
L 161.929941 -232.902735 
L 160.298511 -277.653698 
L 158.667081 -226.928766 
L 157.035651 -203.722235 
L 155.404221 -270.584899 
L 153.772791 -251.727501 
L 152.141361 -226.505213 
L 150.509931 -234.444743 
L 148.878502 -259.157525 
L 147.247072 -272.549275 
L 145.615642 -256.966317 
L 143.984212 -237.976191 
L 142.352782 -254.355068 
L 140.721352 -247.661883 
L 139.089922 -286.862149 
L 137.458492 -233.301243 
L 135.827063 -227.301764 
L 134.195633 -250.001954 
L 132.564203 -253.221292 
L 130.932773 -260.924341 
L 129.301343 -286.667853 
L 127.669913 -285.853324 
L 126.038483 -238.344449 
L 124.407053 -204.929377 
L 122.775624 -193.823938 
L 121.144194 -234.941199 
L 119.512764 -258.339077 
L 117.881334 -248.361369 
L 116.249904 -236.485089 
L 114.618474 -256.213079 
L 112.987044 -219.276517 
L 111.355614 -223.009805 
L 109.724185 -242.067797 
L 108.092755 -292.032 
L 106.461325 -265.03943 
L 104.829895 -220.38988 
L 103.198465 -227.429455 
L 101.567035 -228.084296 
L 99.935605 -264.573394 
L 98.304175 -275.652196 
L 96.672746 -241.976619 
L 95.041316 -246.977492 
L 93.409886 -251.179319 
L 91.778456 -244.154295 
L 90.147026 -229.5001 
L 88.515596 -205.559988 
L 86.884166 -226.849124 
L 85.252736 -258.770844 
L 83.621307 -241.664107 
L 81.989877 -224.561487 
L 80.358447 -245.297542 
L 78.727017 -282.212544 
L 77.095587 -243.561232 
L 75.464157 -270.878845 
L 73.832727 -243.044077 
z
" id="m411b7261b4" style="stroke:#ffffff;stroke-opacity:0.2;"/>
    </defs>
    <g clip-path="url(#pef45be99f9)">
     <use style="fill:#1f77b4;fill-opacity:0.2;stroke:#ffffff;stroke-opacity:0.2;" x="0" xlink:href="#m411b7261b4" y="345.6"/>
    </g>
   </g>
   <g id="LineCollection_1">
    <path clip-path="url(#pef45be99f9)" d="M 398.487273 295.488 
L 398.487273 53.568 
" style="fill:none;stroke:#1f77b4;stroke-dasharray:5.55,2.4;stroke-dashoffset:0;stroke-width:1.5;"/>
   </g>
   <g id="line2d_16">
    <path clip-path="url(#pef45be99f9)" d="M 73.832727 130.48694 
L 75.464157 108.969212 
L 77.095587 159.481973 
L 78.727017 149.224566 
L 80.358447 170.506149 
L 81.989877 175.411803 
L 83.621307 128.037027 
L 85.252736 103.539334 
L 86.884166 152.943873 
L 88.515596 179.321842 
L 90.147026 165.894108 
L 91.778456 125.749026 
L 93.409886 130.750887 
L 95.041316 142.098186 
L 96.672746 178.556828 
L 98.304175 135.654887 
L 99.935605 135.929992 
L 101.567035 137.646957 
L 103.198465 142.357056 
L 104.829895 174.942946 
L 106.461325 128.912308 
L 108.092755 119.27309 
L 109.724185 174.626036 
L 111.355614 161.937648 
L 112.987044 172.923291 
L 114.618474 111.632955 
L 116.249904 132.178802 
L 117.881334 172.054589 
L 119.512764 118.388536 
L 121.144194 152.115153 
L 122.775624 167.901684 
L 124.407053 206.445126 
L 126.038483 157.485566 
L 127.669913 84.110324 
L 129.301343 111.528926 
L 130.932773 143.004423 
L 132.564203 151.479733 
L 134.195633 135.656139 
L 135.827063 144.594963 
L 137.458492 152.179193 
L 139.089922 102.605723 
L 140.721352 144.20645 
L 142.352782 136.9206 
L 143.984212 138.700952 
L 145.615642 147.756681 
L 147.247072 139.704731 
L 148.878502 140.596869 
L 150.509931 184.714536 
L 153.772791 123.802379 
L 155.404221 124.268423 
L 157.035651 178.831216 
L 158.667081 157.213074 
L 160.298511 111.505797 
L 161.929941 147.023265 
L 163.56137 144.537303 
L 165.1928 191.338148 
L 166.82423 157.700229 
L 168.45566 170.867544 
L 170.08709 138.490526 
L 171.71852 184.071051 
L 173.34995 132.098671 
L 174.98138 162.173195 
L 176.61281 136.852027 
L 178.244239 127.320954 
L 179.875669 145.720312 
L 181.507099 130.778553 
L 183.138529 172.560234 
L 184.769959 184.921934 
L 186.401389 125.219122 
L 188.032819 127.08903 
L 189.664249 184.582558 
L 191.295678 107.444962 
L 192.927108 188.308365 
L 194.558538 99.028572 
L 196.189968 151.111319 
L 197.821398 132.558091 
L 199.452828 178.236126 
L 201.084258 120.148561 
L 202.715688 173.43597 
L 204.347117 166.868429 
L 205.978547 136.277504 
L 207.609977 130.24927 
L 209.241407 170.693427 
L 210.872837 153.980797 
L 212.504267 144.125257 
L 214.135697 180.319812 
L 215.767127 150.17685 
L 217.398556 135.201817 
L 219.029986 199.643647 
L 220.661416 151.937836 
L 222.292846 186.661863 
L 223.924276 159.406154 
L 225.555706 144.618518 
L 227.187136 176.281911 
L 228.818566 177.015558 
L 230.449995 134.403714 
L 232.081425 138.273757 
L 233.712855 143.612689 
L 235.344285 139.759411 
L 236.975715 172.195386 
L 238.607145 123.367636 
L 241.870005 198.627431 
L 243.501434 137.553868 
L 245.132864 142.083453 
L 246.764294 118.922083 
L 248.395724 137.69782 
L 250.027154 174.287565 
L 251.658584 103.602916 
L 253.290014 158.923405 
L 254.921444 158.035242 
L 256.552873 151.264339 
L 258.184303 151.535223 
L 259.815733 135.837985 
L 261.447163 130.587654 
L 263.078593 176.891877 
L 264.710023 155.66866 
L 266.341453 211.670047 
L 267.972883 154.54084 
L 269.604312 102.644093 
L 271.235742 129.392519 
L 272.867172 131.847451 
L 274.498602 178.387761 
L 276.130032 140.184472 
L 277.761462 141.677107 
L 279.392892 142.419293 
L 281.024322 129.911274 
L 284.287181 161.616113 
L 285.918611 189.675166 
L 287.550041 172.056751 
L 289.181471 161.289514 
L 290.812901 138.558299 
L 292.444331 139.585339 
L 294.075761 188.149278 
L 295.70719 146.967743 
L 297.33862 143.00535 
L 298.97005 144.710248 
L 300.60148 120.343537 
L 302.23291 149.282798 
L 303.86434 155.086571 
L 305.49577 142.6704 
L 307.1272 190.290232 
L 308.75863 163.467247 
L 310.390059 141.95272 
L 312.021489 98.972089 
L 313.652919 129.677312 
L 315.284349 191.450303 
L 316.915779 181.134393 
L 318.547209 136.93109 
L 320.178639 150.07157 
L 321.810069 147.894641 
L 323.441498 171.355855 
L 325.072928 162.714906 
L 326.704358 103.397993 
L 328.335788 135.531721 
L 329.967218 160.834309 
L 331.598648 163.294702 
L 333.230078 160.541383 
L 334.861508 179.086403 
L 336.492937 147.866958 
L 338.124367 106.116414 
L 339.755797 100.189537 
L 341.387227 166.38727 
L 343.018657 150.809434 
L 344.650087 151.067794 
L 346.281517 181.503021 
L 347.912947 146.870015 
L 349.544376 160.721133 
L 351.175806 162.595265 
L 352.807236 175.055972 
L 354.438666 162.702856 
L 356.070096 169.914841 
L 357.701526 125.356226 
L 359.332956 146.997541 
L 360.964386 154.697564 
L 362.595815 154.216478 
L 364.227245 166.367015 
L 365.858675 114.15119 
L 367.490105 180.230045 
L 369.121535 144.148364 
L 370.752965 185.507071 
L 372.384395 136.480102 
L 374.015825 152.530681 
L 375.647254 185.753108 
L 377.278684 116.518498 
L 378.910114 137.100701 
L 380.541544 119.02448 
L 382.172974 126.457158 
L 383.804404 142.094045 
L 385.435834 152.66804 
L 387.067264 150.168947 
L 388.698693 154.731077 
L 390.330123 129.07119 
L 391.961553 162.568588 
L 393.592983 111.393453 
L 395.224413 172.961723 
L 396.855843 132.442101 
L 398.487273 119.613897 
L 398.487273 119.613897 
" style="fill:none;stroke:#1f77b4;stroke-linecap:round;stroke-width:1.5;"/>
   </g>
   <g id="patch_3">
    <path d="M 57.6 307.584 
L 57.6 41.472 
" style="fill:none;stroke:#cccccc;stroke-linecap:square;stroke-linejoin:miter;stroke-width:0.8;"/>
   </g>
   <g id="patch_4">
    <path d="M 414.72 307.584 
L 414.72 41.472 
" style="fill:none;stroke:#cccccc;stroke-linecap:square;stroke-linejoin:miter;stroke-width:0.8;"/>
   </g>
   <g id="patch_5">
    <path d="M 57.6 307.584 
L 414.72 307.584 
" style="fill:none;stroke:#cccccc;stroke-linecap:square;stroke-linejoin:miter;stroke-width:0.8;"/>
   </g>
   <g id="patch_6">
    <path d="M 57.6 41.472 
L 414.72 41.472 
" style="fill:none;stroke:#cccccc;stroke-linecap:square;stroke-linejoin:miter;stroke-width:0.8;"/>
   </g>
   <g id="text_18">
    <!-- Model performance vs. # of iterations -->
    <g style="fill:#262626;" transform="translate(122.314688 35.472)scale(0.12 -0.12)">
     <defs>
      <path d="M 628 4666 
L 1569 4666 
L 2759 1491 
L 3956 4666 
L 4897 4666 
L 4897 0 
L 4281 0 
L 4281 4097 
L 3078 897 
L 2444 897 
L 1241 4097 
L 1241 0 
L 628 0 
L 628 4666 
z
" id="DejaVuSans-4d" transform="scale(0.015625)"/>
      <path d="M 2906 2969 
L 2906 4863 
L 3481 4863 
L 3481 0 
L 2906 0 
L 2906 525 
Q 2725 213 2448 61 
Q 2172 -91 1784 -91 
Q 1150 -91 751 415 
Q 353 922 353 1747 
Q 353 2572 751 3078 
Q 1150 3584 1784 3584 
Q 2172 3584 2448 3432 
Q 2725 3281 2906 2969 
z
M 947 1747 
Q 947 1113 1208 752 
Q 1469 391 1925 391 
Q 2381 391 2643 752 
Q 2906 1113 2906 1747 
Q 2906 2381 2643 2742 
Q 2381 3103 1925 3103 
Q 1469 3103 1208 2742 
Q 947 2381 947 1747 
z
" id="DejaVuSans-64" transform="scale(0.015625)"/>
      <path d="M 603 4863 
L 1178 4863 
L 1178 0 
L 603 0 
L 603 4863 
z
" id="DejaVuSans-6c" transform="scale(0.015625)"/>
      <path id="DejaVuSans-20" transform="scale(0.015625)"/>
      <path d="M 1159 525 
L 1159 -1331 
L 581 -1331 
L 581 3500 
L 1159 3500 
L 1159 2969 
Q 1341 3281 1617 3432 
Q 1894 3584 2278 3584 
Q 2916 3584 3314 3078 
Q 3713 2572 3713 1747 
Q 3713 922 3314 415 
Q 2916 -91 2278 -91 
Q 1894 -91 1617 61 
Q 1341 213 1159 525 
z
M 3116 1747 
Q 3116 2381 2855 2742 
Q 2594 3103 2138 3103 
Q 1681 3103 1420 2742 
Q 1159 2381 1159 1747 
Q 1159 1113 1420 752 
Q 1681 391 2138 391 
Q 2594 391 2855 752 
Q 3116 1113 3116 1747 
z
" id="DejaVuSans-70" transform="scale(0.015625)"/>
      <path d="M 2375 4863 
L 2375 4384 
L 1825 4384 
Q 1516 4384 1395 4259 
Q 1275 4134 1275 3809 
L 1275 3500 
L 2222 3500 
L 2222 3053 
L 1275 3053 
L 1275 0 
L 697 0 
L 697 3053 
L 147 3053 
L 147 3500 
L 697 3500 
L 697 3744 
Q 697 4328 969 4595 
Q 1241 4863 1831 4863 
L 2375 4863 
z
" id="DejaVuSans-66" transform="scale(0.015625)"/>
      <path d="M 3328 2828 
Q 3544 3216 3844 3400 
Q 4144 3584 4550 3584 
Q 5097 3584 5394 3201 
Q 5691 2819 5691 2113 
L 5691 0 
L 5113 0 
L 5113 2094 
Q 5113 2597 4934 2840 
Q 4756 3084 4391 3084 
Q 3944 3084 3684 2787 
Q 3425 2491 3425 1978 
L 3425 0 
L 2847 0 
L 2847 2094 
Q 2847 2600 2669 2842 
Q 2491 3084 2119 3084 
Q 1678 3084 1418 2786 
Q 1159 2488 1159 1978 
L 1159 0 
L 581 0 
L 581 3500 
L 1159 3500 
L 1159 2956 
Q 1356 3278 1631 3431 
Q 1906 3584 2284 3584 
Q 2666 3584 2933 3390 
Q 3200 3197 3328 2828 
z
" id="DejaVuSans-6d" transform="scale(0.015625)"/>
      <path d="M 191 3500 
L 800 3500 
L 1894 563 
L 2988 3500 
L 3597 3500 
L 2284 0 
L 1503 0 
L 191 3500 
z
" id="DejaVuSans-76" transform="scale(0.015625)"/>
      <path d="M 2834 3397 
L 2834 2853 
Q 2591 2978 2328 3040 
Q 2066 3103 1784 3103 
Q 1356 3103 1142 2972 
Q 928 2841 928 2578 
Q 928 2378 1081 2264 
Q 1234 2150 1697 2047 
L 1894 2003 
Q 2506 1872 2764 1633 
Q 3022 1394 3022 966 
Q 3022 478 2636 193 
Q 2250 -91 1575 -91 
Q 1294 -91 989 -36 
Q 684 19 347 128 
L 347 722 
Q 666 556 975 473 
Q 1284 391 1588 391 
Q 1994 391 2212 530 
Q 2431 669 2431 922 
Q 2431 1156 2273 1281 
Q 2116 1406 1581 1522 
L 1381 1569 
Q 847 1681 609 1914 
Q 372 2147 372 2553 
Q 372 3047 722 3315 
Q 1072 3584 1716 3584 
Q 2034 3584 2315 3537 
Q 2597 3491 2834 3397 
z
" id="DejaVuSans-73" transform="scale(0.015625)"/>
      <path d="M 3272 2816 
L 2363 2816 
L 2100 1772 
L 3016 1772 
L 3272 2816 
z
M 2803 4594 
L 2478 3297 
L 3391 3297 
L 3719 4594 
L 4219 4594 
L 3897 3297 
L 4872 3297 
L 4872 2816 
L 3775 2816 
L 3519 1772 
L 4513 1772 
L 4513 1294 
L 3397 1294 
L 3072 0 
L 2572 0 
L 2894 1294 
L 1978 1294 
L 1656 0 
L 1153 0 
L 1478 1294 
L 494 1294 
L 494 1772 
L 1594 1772 
L 1856 2816 
L 850 2816 
L 850 3297 
L 1978 3297 
L 2297 4594 
L 2803 4594 
z
" id="DejaVuSans-23" transform="scale(0.015625)"/>
     </defs>
     <use xlink:href="#DejaVuSans-4d"/>
     <use x="86.279297" xlink:href="#DejaVuSans-6f"/>
     <use x="147.460938" xlink:href="#DejaVuSans-64"/>
     <use x="210.9375" xlink:href="#DejaVuSans-65"/>
     <use x="272.460938" xlink:href="#DejaVuSans-6c"/>
     <use x="300.244141" xlink:href="#DejaVuSans-20"/>
     <use x="332.03125" xlink:href="#DejaVuSans-70"/>
     <use x="395.507812" xlink:href="#DejaVuSans-65"/>
     <use x="457.03125" xlink:href="#DejaVuSans-72"/>
     <use x="498.144531" xlink:href="#DejaVuSans-66"/>
     <use x="533.349609" xlink:href="#DejaVuSans-6f"/>
     <use x="594.53125" xlink:href="#DejaVuSans-72"/>
     <use x="633.894531" xlink:href="#DejaVuSans-6d"/>
     <use x="731.306641" xlink:href="#DejaVuSans-61"/>
     <use x="792.585938" xlink:href="#DejaVuSans-6e"/>
     <use x="855.964844" xlink:href="#DejaVuSans-63"/>
     <use x="910.945312" xlink:href="#DejaVuSans-65"/>
     <use x="972.46875" xlink:href="#DejaVuSans-20"/>
     <use x="1004.255859" xlink:href="#DejaVuSans-76"/>
     <use x="1063.435547" xlink:href="#DejaVuSans-73"/>
     <use x="1115.535156" xlink:href="#DejaVuSans-2e"/>
     <use x="1147.322266" xlink:href="#DejaVuSans-20"/>
     <use x="1179.109375" xlink:href="#DejaVuSans-23"/>
     <use x="1262.898438" xlink:href="#DejaVuSans-20"/>
     <use x="1294.685547" xlink:href="#DejaVuSans-6f"/>
     <use x="1355.867188" xlink:href="#DejaVuSans-66"/>
     <use x="1391.072266" xlink:href="#DejaVuSans-20"/>
     <use x="1422.859375" xlink:href="#DejaVuSans-69"/>
     <use x="1450.642578" xlink:href="#DejaVuSans-74"/>
     <use x="1489.851562" xlink:href="#DejaVuSans-65"/>
     <use x="1551.375" xlink:href="#DejaVuSans-72"/>
     <use x="1592.488281" xlink:href="#DejaVuSans-61"/>
     <use x="1653.767578" xlink:href="#DejaVuSans-74"/>
     <use x="1692.976562" xlink:href="#DejaVuSans-69"/>
     <use x="1720.759766" xlink:href="#DejaVuSans-6f"/>
     <use x="1781.941406" xlink:href="#DejaVuSans-6e"/>
     <use x="1845.320312" xlink:href="#DejaVuSans-73"/>
    </g>
   </g>
  </g>
 </g>
 <defs>
  <clipPath id="pef45be99f9">
   <rect height="266.112" width="357.12" x="57.6" y="41.472"/>
  </clipPath>
 </defs>
</svg>
