<?xml version="1.0" encoding="utf-8" standalone="no"?>
<!DOCTYPE svg PUBLIC "-//W3C//DTD SVG 1.1//EN"
  "http://www.w3.org/Graphics/SVG/1.1/DTD/svg11.dtd">
<svg xmlns:xlink="http://www.w3.org/1999/xlink" width="460.8pt" height="345.6pt" viewBox="0 0 460.8 345.6" xmlns="http://www.w3.org/2000/svg" version="1.1">
 <metadata>
  <rdf:RDF xmlns:dc="http://purl.org/dc/elements/1.1/" xmlns:cc="http://creativecommons.org/ns#" xmlns:rdf="http://www.w3.org/1999/02/22-rdf-syntax-ns#">
   <cc:Work>
    <dc:type rdf:resource="http://purl.org/dc/dcmitype/StillImage"/>
    <dc:date>2022-10-29T19:18:38.713071</dc:date>
    <dc:format>image/svg+xml</dc:format>
    <dc:creator>
     <cc:Agent>
      <dc:title>Matplotlib v3.5.2, https://matplotlib.org/</dc:title>
     </cc:Agent>
    </dc:creator>
   </cc:Work>
  </rdf:RDF>
 </metadata>
 <defs>
  <style type="text/css">*{stroke-linejoin: round; stroke-linecap: butt}</style>
 </defs>
 <g id="figure_1">
  <g id="patch_1">
   <path d="M 0 345.6 
L 460.8 345.6 
L 460.8 0 
L 0 0 
z
" style="fill: #ffffff"/>
  </g>
  <g id="axes_1">
   <g id="patch_2">
    <path d="M 57.6 307.584 
L 414.72 307.584 
L 414.72 41.472 
L 57.6 41.472 
z
" style="fill: #ffffff"/>
   </g>
   <g id="matplotlib.axis_1">
    <g id="xtick_1">
     <g id="line2d_1">
      <path d="M 72.201297 307.584 
L 72.201297 41.472 
" clip-path="url(#p0b70e4916f)" style="fill: none; stroke: #cccccc; stroke-width: 0.8; stroke-linecap: round"/>
     </g>
     <g id="text_1">
      <!-- 0 -->
      <g style="fill: #262626" transform="translate(69.020047 322.182437)scale(0.1 -0.1)">
       <defs>
        <path id="DejaVuSans-30" d="M 2034 4250 
Q 1547 4250 1301 3770 
Q 1056 3291 1056 2328 
Q 1056 1369 1301 889 
Q 1547 409 2034 409 
Q 2525 409 2770 889 
Q 3016 1369 3016 2328 
Q 3016 3291 2770 3770 
Q 2525 4250 2034 4250 
z
M 2034 4750 
Q 2819 4750 3233 4129 
Q 3647 3509 3647 2328 
Q 3647 1150 3233 529 
Q 2819 -91 2034 -91 
Q 1250 -91 836 529 
Q 422 1150 422 2328 
Q 422 3509 836 4129 
Q 1250 4750 2034 4750 
z
" transform="scale(0.015625)"/>
       </defs>
       <use xlink:href="#DejaVuSans-30"/>
      </g>
     </g>
    </g>
    <g id="xtick_2">
     <g id="line2d_2">
      <path d="M 112.987044 307.584 
L 112.987044 41.472 
" clip-path="url(#p0b70e4916f)" style="fill: none; stroke: #cccccc; stroke-width: 0.8; stroke-linecap: round"/>
     </g>
     <g id="text_2">
      <!-- 25 -->
      <g style="fill: #262626" transform="translate(106.624544 322.182437)scale(0.1 -0.1)">
       <defs>
        <path id="DejaVuSans-32" d="M 1228 531 
L 3431 531 
L 3431 0 
L 469 0 
L 469 531 
Q 828 903 1448 1529 
Q 2069 2156 2228 2338 
Q 2531 2678 2651 2914 
Q 2772 3150 2772 3378 
Q 2772 3750 2511 3984 
Q 2250 4219 1831 4219 
Q 1534 4219 1204 4116 
Q 875 4013 500 3803 
L 500 4441 
Q 881 4594 1212 4672 
Q 1544 4750 1819 4750 
Q 2544 4750 2975 4387 
Q 3406 4025 3406 3419 
Q 3406 3131 3298 2873 
Q 3191 2616 2906 2266 
Q 2828 2175 2409 1742 
Q 1991 1309 1228 531 
z
" transform="scale(0.015625)"/>
        <path id="DejaVuSans-35" d="M 691 4666 
L 3169 4666 
L 3169 4134 
L 1269 4134 
L 1269 2991 
Q 1406 3038 1543 3061 
Q 1681 3084 1819 3084 
Q 2600 3084 3056 2656 
Q 3513 2228 3513 1497 
Q 3513 744 3044 326 
Q 2575 -91 1722 -91 
Q 1428 -91 1123 -41 
Q 819 9 494 109 
L 494 744 
Q 775 591 1075 516 
Q 1375 441 1709 441 
Q 2250 441 2565 725 
Q 2881 1009 2881 1497 
Q 2881 1984 2565 2268 
Q 2250 2553 1709 2553 
Q 1456 2553 1204 2497 
Q 953 2441 691 2322 
L 691 4666 
z
" transform="scale(0.015625)"/>
       </defs>
       <use xlink:href="#DejaVuSans-32"/>
       <use xlink:href="#DejaVuSans-35" x="63.623047"/>
      </g>
     </g>
    </g>
    <g id="xtick_3">
     <g id="line2d_3">
      <path d="M 153.772791 307.584 
L 153.772791 41.472 
" clip-path="url(#p0b70e4916f)" style="fill: none; stroke: #cccccc; stroke-width: 0.8; stroke-linecap: round"/>
     </g>
     <g id="text_3">
      <!-- 50 -->
      <g style="fill: #262626" transform="translate(147.410291 322.182437)scale(0.1 -0.1)">
       <use xlink:href="#DejaVuSans-35"/>
       <use xlink:href="#DejaVuSans-30" x="63.623047"/>
      </g>
     </g>
    </g>
    <g id="xtick_4">
     <g id="line2d_4">
      <path d="M 194.558538 307.584 
L 194.558538 41.472 
" clip-path="url(#p0b70e4916f)" style="fill: none; stroke: #cccccc; stroke-width: 0.8; stroke-linecap: round"/>
     </g>
     <g id="text_4">
      <!-- 75 -->
      <g style="fill: #262626" transform="translate(188.196038 322.182437)scale(0.1 -0.1)">
       <defs>
        <path id="DejaVuSans-37" d="M 525 4666 
L 3525 4666 
L 3525 4397 
L 1831 0 
L 1172 0 
L 2766 4134 
L 525 4134 
L 525 4666 
z
" transform="scale(0.015625)"/>
       </defs>
       <use xlink:href="#DejaVuSans-37"/>
       <use xlink:href="#DejaVuSans-35" x="63.623047"/>
      </g>
     </g>
    </g>
    <g id="xtick_5">
     <g id="line2d_5">
      <path d="M 235.344285 307.584 
L 235.344285 41.472 
" clip-path="url(#p0b70e4916f)" style="fill: none; stroke: #cccccc; stroke-width: 0.8; stroke-linecap: round"/>
     </g>
     <g id="text_5">
      <!-- 100 -->
      <g style="fill: #262626" transform="translate(225.800535 322.182437)scale(0.1 -0.1)">
       <defs>
        <path id="DejaVuSans-31" d="M 794 531 
L 1825 531 
L 1825 4091 
L 703 3866 
L 703 4441 
L 1819 4666 
L 2450 4666 
L 2450 531 
L 3481 531 
L 3481 0 
L 794 0 
L 794 531 
z
" transform="scale(0.015625)"/>
       </defs>
       <use xlink:href="#DejaVuSans-31"/>
       <use xlink:href="#DejaVuSans-30" x="63.623047"/>
       <use xlink:href="#DejaVuSans-30" x="127.246094"/>
      </g>
     </g>
    </g>
    <g id="xtick_6">
     <g id="line2d_6">
      <path d="M 276.130032 307.584 
L 276.130032 41.472 
" clip-path="url(#p0b70e4916f)" style="fill: none; stroke: #cccccc; stroke-width: 0.8; stroke-linecap: round"/>
     </g>
     <g id="text_6">
      <!-- 125 -->
      <g style="fill: #262626" transform="translate(266.586282 322.182437)scale(0.1 -0.1)">
       <use xlink:href="#DejaVuSans-31"/>
       <use xlink:href="#DejaVuSans-32" x="63.623047"/>
       <use xlink:href="#DejaVuSans-35" x="127.246094"/>
      </g>
     </g>
    </g>
    <g id="xtick_7">
     <g id="line2d_7">
      <path d="M 316.915779 307.584 
L 316.915779 41.472 
" clip-path="url(#p0b70e4916f)" style="fill: none; stroke: #cccccc; stroke-width: 0.8; stroke-linecap: round"/>
     </g>
     <g id="text_7">
      <!-- 150 -->
      <g style="fill: #262626" transform="translate(307.372029 322.182437)scale(0.1 -0.1)">
       <use xlink:href="#DejaVuSans-31"/>
       <use xlink:href="#DejaVuSans-35" x="63.623047"/>
       <use xlink:href="#DejaVuSans-30" x="127.246094"/>
      </g>
     </g>
    </g>
    <g id="xtick_8">
     <g id="line2d_8">
      <path d="M 357.701526 307.584 
L 357.701526 41.472 
" clip-path="url(#p0b70e4916f)" style="fill: none; stroke: #cccccc; stroke-width: 0.8; stroke-linecap: round"/>
     </g>
     <g id="text_8">
      <!-- 175 -->
      <g style="fill: #262626" transform="translate(348.157776 322.182437)scale(0.1 -0.1)">
       <use xlink:href="#DejaVuSans-31"/>
       <use xlink:href="#DejaVuSans-37" x="63.623047"/>
       <use xlink:href="#DejaVuSans-35" x="127.246094"/>
      </g>
     </g>
    </g>
    <g id="xtick_9">
     <g id="line2d_9">
      <path d="M 398.487273 307.584 
L 398.487273 41.472 
" clip-path="url(#p0b70e4916f)" style="fill: none; stroke: #cccccc; stroke-width: 0.8; stroke-linecap: round"/>
     </g>
     <g id="text_9">
      <!-- 200 -->
      <g style="fill: #262626" transform="translate(388.943523 322.182437)scale(0.1 -0.1)">
       <use xlink:href="#DejaVuSans-32"/>
       <use xlink:href="#DejaVuSans-30" x="63.623047"/>
       <use xlink:href="#DejaVuSans-30" x="127.246094"/>
      </g>
     </g>
    </g>
    <g id="text_10">
     <!-- Iteration -->
     <g style="fill: #262626" transform="translate(214.951406 335.860562)scale(0.1 -0.1)">
      <defs>
       <path id="DejaVuSans-49" d="M 628 4666 
L 1259 4666 
L 1259 0 
L 628 0 
L 628 4666 
z
" transform="scale(0.015625)"/>
       <path id="DejaVuSans-74" d="M 1172 4494 
L 1172 3500 
L 2356 3500 
L 2356 3053 
L 1172 3053 
L 1172 1153 
Q 1172 725 1289 603 
Q 1406 481 1766 481 
L 2356 481 
L 2356 0 
L 1766 0 
Q 1100 0 847 248 
Q 594 497 594 1153 
L 594 3053 
L 172 3053 
L 172 3500 
L 594 3500 
L 594 4494 
L 1172 4494 
z
" transform="scale(0.015625)"/>
       <path id="DejaVuSans-65" d="M 3597 1894 
L 3597 1613 
L 953 1613 
Q 991 1019 1311 708 
Q 1631 397 2203 397 
Q 2534 397 2845 478 
Q 3156 559 3463 722 
L 3463 178 
Q 3153 47 2828 -22 
Q 2503 -91 2169 -91 
Q 1331 -91 842 396 
Q 353 884 353 1716 
Q 353 2575 817 3079 
Q 1281 3584 2069 3584 
Q 2775 3584 3186 3129 
Q 3597 2675 3597 1894 
z
M 3022 2063 
Q 3016 2534 2758 2815 
Q 2500 3097 2075 3097 
Q 1594 3097 1305 2825 
Q 1016 2553 972 2059 
L 3022 2063 
z
" transform="scale(0.015625)"/>
       <path id="DejaVuSans-72" d="M 2631 2963 
Q 2534 3019 2420 3045 
Q 2306 3072 2169 3072 
Q 1681 3072 1420 2755 
Q 1159 2438 1159 1844 
L 1159 0 
L 581 0 
L 581 3500 
L 1159 3500 
L 1159 2956 
Q 1341 3275 1631 3429 
Q 1922 3584 2338 3584 
Q 2397 3584 2469 3576 
Q 2541 3569 2628 3553 
L 2631 2963 
z
" transform="scale(0.015625)"/>
       <path id="DejaVuSans-61" d="M 2194 1759 
Q 1497 1759 1228 1600 
Q 959 1441 959 1056 
Q 959 750 1161 570 
Q 1363 391 1709 391 
Q 2188 391 2477 730 
Q 2766 1069 2766 1631 
L 2766 1759 
L 2194 1759 
z
M 3341 1997 
L 3341 0 
L 2766 0 
L 2766 531 
Q 2569 213 2275 61 
Q 1981 -91 1556 -91 
Q 1019 -91 701 211 
Q 384 513 384 1019 
Q 384 1609 779 1909 
Q 1175 2209 1959 2209 
L 2766 2209 
L 2766 2266 
Q 2766 2663 2505 2880 
Q 2244 3097 1772 3097 
Q 1472 3097 1187 3025 
Q 903 2953 641 2809 
L 641 3341 
Q 956 3463 1253 3523 
Q 1550 3584 1831 3584 
Q 2591 3584 2966 3190 
Q 3341 2797 3341 1997 
z
" transform="scale(0.015625)"/>
       <path id="DejaVuSans-69" d="M 603 3500 
L 1178 3500 
L 1178 0 
L 603 0 
L 603 3500 
z
M 603 4863 
L 1178 4863 
L 1178 4134 
L 603 4134 
L 603 4863 
z
" transform="scale(0.015625)"/>
       <path id="DejaVuSans-6f" d="M 1959 3097 
Q 1497 3097 1228 2736 
Q 959 2375 959 1747 
Q 959 1119 1226 758 
Q 1494 397 1959 397 
Q 2419 397 2687 759 
Q 2956 1122 2956 1747 
Q 2956 2369 2687 2733 
Q 2419 3097 1959 3097 
z
M 1959 3584 
Q 2709 3584 3137 3096 
Q 3566 2609 3566 1747 
Q 3566 888 3137 398 
Q 2709 -91 1959 -91 
Q 1206 -91 779 398 
Q 353 888 353 1747 
Q 353 2609 779 3096 
Q 1206 3584 1959 3584 
z
" transform="scale(0.015625)"/>
       <path id="DejaVuSans-6e" d="M 3513 2113 
L 3513 0 
L 2938 0 
L 2938 2094 
Q 2938 2591 2744 2837 
Q 2550 3084 2163 3084 
Q 1697 3084 1428 2787 
Q 1159 2491 1159 1978 
L 1159 0 
L 581 0 
L 581 3500 
L 1159 3500 
L 1159 2956 
Q 1366 3272 1645 3428 
Q 1925 3584 2291 3584 
Q 2894 3584 3203 3211 
Q 3513 2838 3513 2113 
z
" transform="scale(0.015625)"/>
      </defs>
      <use xlink:href="#DejaVuSans-49"/>
      <use xlink:href="#DejaVuSans-74" x="29.492188"/>
      <use xlink:href="#DejaVuSans-65" x="68.701172"/>
      <use xlink:href="#DejaVuSans-72" x="130.224609"/>
      <use xlink:href="#DejaVuSans-61" x="171.337891"/>
      <use xlink:href="#DejaVuSans-74" x="232.617188"/>
      <use xlink:href="#DejaVuSans-69" x="271.826172"/>
      <use xlink:href="#DejaVuSans-6f" x="299.609375"/>
      <use xlink:href="#DejaVuSans-6e" x="360.791016"/>
     </g>
    </g>
   </g>
   <g id="matplotlib.axis_2">
    <g id="ytick_1">
     <g id="line2d_10">
      <path d="M 57.6 289.511009 
L 414.72 289.511009 
" clip-path="url(#p0b70e4916f)" style="fill: none; stroke: #cccccc; stroke-width: 0.8; stroke-linecap: round"/>
     </g>
     <g id="text_11">
      <!-- 0.45 -->
      <g style="fill: #262626" transform="translate(28.334375 293.310228)scale(0.1 -0.1)">
       <defs>
        <path id="DejaVuSans-2e" d="M 684 794 
L 1344 794 
L 1344 0 
L 684 0 
L 684 794 
z
" transform="scale(0.015625)"/>
        <path id="DejaVuSans-34" d="M 2419 4116 
L 825 1625 
L 2419 1625 
L 2419 4116 
z
M 2253 4666 
L 3047 4666 
L 3047 1625 
L 3713 1625 
L 3713 1100 
L 3047 1100 
L 3047 0 
L 2419 0 
L 2419 1100 
L 313 1100 
L 313 1709 
L 2253 4666 
z
" transform="scale(0.015625)"/>
       </defs>
       <use xlink:href="#DejaVuSans-30"/>
       <use xlink:href="#DejaVuSans-2e" x="63.623047"/>
       <use xlink:href="#DejaVuSans-34" x="95.410156"/>
       <use xlink:href="#DejaVuSans-35" x="159.033203"/>
      </g>
     </g>
    </g>
    <g id="ytick_2">
     <g id="line2d_11">
      <path d="M 57.6 236.171211 
L 414.72 236.171211 
" clip-path="url(#p0b70e4916f)" style="fill: none; stroke: #cccccc; stroke-width: 0.8; stroke-linecap: round"/>
     </g>
     <g id="text_12">
      <!-- 0.50 -->
      <g style="fill: #262626" transform="translate(28.334375 239.97043)scale(0.1 -0.1)">
       <use xlink:href="#DejaVuSans-30"/>
       <use xlink:href="#DejaVuSans-2e" x="63.623047"/>
       <use xlink:href="#DejaVuSans-35" x="95.410156"/>
       <use xlink:href="#DejaVuSans-30" x="159.033203"/>
      </g>
     </g>
    </g>
    <g id="ytick_3">
     <g id="line2d_12">
      <path d="M 57.6 182.831413 
L 414.72 182.831413 
" clip-path="url(#p0b70e4916f)" style="fill: none; stroke: #cccccc; stroke-width: 0.8; stroke-linecap: round"/>
     </g>
     <g id="text_13">
      <!-- 0.55 -->
      <g style="fill: #262626" transform="translate(28.334375 186.630632)scale(0.1 -0.1)">
       <use xlink:href="#DejaVuSans-30"/>
       <use xlink:href="#DejaVuSans-2e" x="63.623047"/>
       <use xlink:href="#DejaVuSans-35" x="95.410156"/>
       <use xlink:href="#DejaVuSans-35" x="159.033203"/>
      </g>
     </g>
    </g>
    <g id="ytick_4">
     <g id="line2d_13">
      <path d="M 57.6 129.491615 
L 414.72 129.491615 
" clip-path="url(#p0b70e4916f)" style="fill: none; stroke: #cccccc; stroke-width: 0.8; stroke-linecap: round"/>
     </g>
     <g id="text_14">
      <!-- 0.60 -->
      <g style="fill: #262626" transform="translate(28.334375 133.290834)scale(0.1 -0.1)">
       <defs>
        <path id="DejaVuSans-36" d="M 2113 2584 
Q 1688 2584 1439 2293 
Q 1191 2003 1191 1497 
Q 1191 994 1439 701 
Q 1688 409 2113 409 
Q 2538 409 2786 701 
Q 3034 994 3034 1497 
Q 3034 2003 2786 2293 
Q 2538 2584 2113 2584 
z
M 3366 4563 
L 3366 3988 
Q 3128 4100 2886 4159 
Q 2644 4219 2406 4219 
Q 1781 4219 1451 3797 
Q 1122 3375 1075 2522 
Q 1259 2794 1537 2939 
Q 1816 3084 2150 3084 
Q 2853 3084 3261 2657 
Q 3669 2231 3669 1497 
Q 3669 778 3244 343 
Q 2819 -91 2113 -91 
Q 1303 -91 875 529 
Q 447 1150 447 2328 
Q 447 3434 972 4092 
Q 1497 4750 2381 4750 
Q 2619 4750 2861 4703 
Q 3103 4656 3366 4563 
z
" transform="scale(0.015625)"/>
       </defs>
       <use xlink:href="#DejaVuSans-30"/>
       <use xlink:href="#DejaVuSans-2e" x="63.623047"/>
       <use xlink:href="#DejaVuSans-36" x="95.410156"/>
       <use xlink:href="#DejaVuSans-30" x="159.033203"/>
      </g>
     </g>
    </g>
    <g id="ytick_5">
     <g id="line2d_14">
      <path d="M 57.6 76.151817 
L 414.72 76.151817 
" clip-path="url(#p0b70e4916f)" style="fill: none; stroke: #cccccc; stroke-width: 0.8; stroke-linecap: round"/>
     </g>
     <g id="text_15">
      <!-- 0.65 -->
      <g style="fill: #262626" transform="translate(28.334375 79.951036)scale(0.1 -0.1)">
       <use xlink:href="#DejaVuSans-30"/>
       <use xlink:href="#DejaVuSans-2e" x="63.623047"/>
       <use xlink:href="#DejaVuSans-36" x="95.410156"/>
       <use xlink:href="#DejaVuSans-35" x="159.033203"/>
      </g>
     </g>
    </g>
    <g id="text_16">
     <!-- Auroc -->
     <g style="fill: #262626" transform="translate(22.254688 188.868625)rotate(-90)scale(0.1 -0.1)">
      <defs>
       <path id="DejaVuSans-41" d="M 2188 4044 
L 1331 1722 
L 3047 1722 
L 2188 4044 
z
M 1831 4666 
L 2547 4666 
L 4325 0 
L 3669 0 
L 3244 1197 
L 1141 1197 
L 716 0 
L 50 0 
L 1831 4666 
z
" transform="scale(0.015625)"/>
       <path id="DejaVuSans-75" d="M 544 1381 
L 544 3500 
L 1119 3500 
L 1119 1403 
Q 1119 906 1312 657 
Q 1506 409 1894 409 
Q 2359 409 2629 706 
Q 2900 1003 2900 1516 
L 2900 3500 
L 3475 3500 
L 3475 0 
L 2900 0 
L 2900 538 
Q 2691 219 2414 64 
Q 2138 -91 1772 -91 
Q 1169 -91 856 284 
Q 544 659 544 1381 
z
M 1991 3584 
L 1991 3584 
z
" transform="scale(0.015625)"/>
       <path id="DejaVuSans-63" d="M 3122 3366 
L 3122 2828 
Q 2878 2963 2633 3030 
Q 2388 3097 2138 3097 
Q 1578 3097 1268 2742 
Q 959 2388 959 1747 
Q 959 1106 1268 751 
Q 1578 397 2138 397 
Q 2388 397 2633 464 
Q 2878 531 3122 666 
L 3122 134 
Q 2881 22 2623 -34 
Q 2366 -91 2075 -91 
Q 1284 -91 818 406 
Q 353 903 353 1747 
Q 353 2603 823 3093 
Q 1294 3584 2113 3584 
Q 2378 3584 2631 3529 
Q 2884 3475 3122 3366 
z
" transform="scale(0.015625)"/>
      </defs>
      <use xlink:href="#DejaVuSans-41"/>
      <use xlink:href="#DejaVuSans-75" x="68.408203"/>
      <use xlink:href="#DejaVuSans-72" x="131.787109"/>
      <use xlink:href="#DejaVuSans-6f" x="170.650391"/>
      <use xlink:href="#DejaVuSans-63" x="231.832031"/>
     </g>
    </g>
   </g>
   <g id="PolyCollection_1">
    <defs>
     <path id="m725dba898a" d="M 73.832727 -237.96374 
L 73.832727 -163.136555 
L 75.464157 -146.783662 
L 77.095587 -191.84735 
L 78.727017 -155.020975 
L 80.358447 -147.844192 
L 81.989877 -201.95263 
L 83.621307 -175.771845 
L 85.252736 -167.217637 
L 86.884166 -171.274248 
L 88.515596 -196.179585 
L 90.147026 -166.995765 
L 91.778456 -173.588559 
L 93.409886 -85.100215 
L 95.041316 -135.388477 
L 96.672746 -133.968941 
L 98.304175 -190.102639 
L 99.935605 -148.21582 
L 101.567035 -131.284152 
L 103.198465 -140.518878 
L 104.829895 -175.890027 
L 106.461325 -176.741835 
L 108.092755 -190.092223 
L 109.724185 -125.911052 
L 111.355614 -162.472008 
L 112.987044 -206.75517 
L 114.618474 -178.263008 
L 116.249904 -168.600015 
L 117.881334 -189.424204 
L 119.512764 -177.00454 
L 121.144194 -76.271788 
L 122.775624 -154.636673 
L 124.407053 -151.038912 
L 126.038483 -100.406111 
L 127.669913 -173.148791 
L 129.301343 -170.791216 
L 130.932773 -149.715112 
L 132.564203 -163.363701 
L 134.195633 -140.969265 
L 135.827063 -175.525477 
L 137.458492 -211.686802 
L 139.089922 -202.978805 
L 140.721352 -141.379303 
L 142.352782 -125.157917 
L 143.984212 -197.155211 
L 145.615642 -171.305907 
L 147.247072 -156.021416 
L 148.878502 -180.135719 
L 150.509931 -170.930803 
L 152.141361 -121.81382 
L 153.772791 -120.687159 
L 155.404221 -177.541073 
L 157.035651 -102.469953 
L 158.667081 -186.204271 
L 160.298511 -171.762378 
L 161.929941 -133.132736 
L 163.56137 -153.956441 
L 165.1928 -153.391591 
L 166.82423 -162.111777 
L 168.45566 -149.204093 
L 170.08709 -196.851997 
L 171.71852 -127.726825 
L 173.34995 -182.096688 
L 174.98138 -149.456614 
L 176.61281 -208.298149 
L 178.244239 -147.265868 
L 179.875669 -150.473806 
L 181.507099 -121.816282 
L 183.138529 -201.61514 
L 184.769959 -167.50166 
L 186.401389 -174.569844 
L 188.032819 -158.254977 
L 189.664249 -149.059418 
L 191.295678 -156.446312 
L 192.927108 -116.493834 
L 194.558538 -166.972324 
L 196.189968 -188.110817 
L 197.821398 -184.012272 
L 199.452828 -103.09003 
L 201.084258 -99.292559 
L 202.715688 -172.947228 
L 204.347117 -189.23519 
L 205.978547 -129.485564 
L 207.609977 -158.623751 
L 209.241407 -171.320931 
L 210.872837 -156.509177 
L 212.504267 -117.327149 
L 214.135697 -150.57526 
L 215.767127 -145.246727 
L 217.398556 -203.689426 
L 219.029986 -131.308984 
L 220.661416 -142.631854 
L 222.292846 -167.161279 
L 223.924276 -140.161763 
L 225.555706 -147.895035 
L 227.187136 -178.728476 
L 228.818566 -202.808802 
L 230.449995 -106.66313 
L 232.081425 -125.438494 
L 233.712855 -131.237007 
L 235.344285 -115.561112 
L 236.975715 -158.422813 
L 238.607145 -136.503943 
L 240.238575 -165.211546 
L 241.870005 -130.646142 
L 243.501434 -197.559125 
L 245.132864 -169.561346 
L 246.764294 -151.633661 
L 248.395724 -160.844776 
L 250.027154 -205.096034 
L 251.658584 -202.800073 
L 253.290014 -50.112 
L 254.921444 -95.617185 
L 256.552873 -203.696804 
L 258.184303 -126.587613 
L 259.815733 -176.737676 
L 261.447163 -148.941864 
L 263.078593 -131.780579 
L 264.710023 -159.144423 
L 266.341453 -139.784329 
L 267.972883 -160.772759 
L 269.604312 -174.257929 
L 271.235742 -104.39141 
L 272.867172 -195.408591 
L 274.498602 -164.799629 
L 276.130032 -198.56499 
L 277.761462 -105.035498 
L 279.392892 -177.68837 
L 281.024322 -139.054192 
L 282.655751 -168.527512 
L 284.287181 -199.699639 
L 285.918611 -107.976592 
L 287.550041 -117.918427 
L 289.181471 -138.201586 
L 290.812901 -98.009364 
L 292.444331 -181.039821 
L 294.075761 -138.963031 
L 295.70719 -149.612135 
L 297.33862 -134.118461 
L 298.97005 -135.2364 
L 300.60148 -145.81475 
L 302.23291 -133.681436 
L 303.86434 -165.993124 
L 305.49577 -173.275424 
L 307.1272 -180.691792 
L 308.75863 -157.724409 
L 310.390059 -189.680827 
L 312.021489 -131.60311 
L 313.652919 -133.763955 
L 315.284349 -175.353901 
L 316.915779 -132.389511 
L 318.547209 -166.887319 
L 320.178639 -167.329638 
L 321.810069 -165.252471 
L 323.441498 -174.384358 
L 325.072928 -145.965272 
L 326.704358 -194.859934 
L 328.335788 -140.512629 
L 329.967218 -175.518002 
L 331.598648 -179.39204 
L 333.230078 -179.212569 
L 334.861508 -143.855726 
L 336.492937 -156.214517 
L 338.124367 -170.73549 
L 339.755797 -153.419 
L 341.387227 -166.506964 
L 343.018657 -159.158064 
L 344.650087 -173.62549 
L 346.281517 -181.344357 
L 347.912947 -178.995679 
L 349.544376 -183.227365 
L 351.175806 -140.436113 
L 352.807236 -190.271954 
L 354.438666 -137.392948 
L 356.070096 -167.111085 
L 357.701526 -145.270575 
L 359.332956 -153.166509 
L 360.964386 -143.445682 
L 362.595815 -144.212619 
L 364.227245 -200.796697 
L 365.858675 -141.128697 
L 367.490105 -178.199994 
L 369.121535 -200.563778 
L 370.752965 -154.555253 
L 372.384395 -204.692592 
L 374.015825 -102.765212 
L 375.647254 -127.142683 
L 377.278684 -176.503663 
L 378.910114 -167.217461 
L 380.541544 -170.131578 
L 382.172974 -178.948008 
L 383.804404 -173.183025 
L 385.435834 -113.788142 
L 387.067264 -175.31936 
L 388.698693 -143.169159 
L 390.330123 -125.894971 
L 391.961553 -93.738009 
L 393.592983 -182.434 
L 395.224413 -127.51843 
L 396.855843 -163.719662 
L 398.487273 -212.659509 
L 398.487273 -248.15093 
L 398.487273 -248.15093 
L 396.855843 -252.520428 
L 395.224413 -243.203462 
L 393.592983 -243.873458 
L 391.961553 -235.166707 
L 390.330123 -210.007941 
L 388.698693 -289.144796 
L 387.067264 -219.662736 
L 385.435834 -247.420156 
L 383.804404 -223.165733 
L 382.172974 -239.132074 
L 380.541544 -259.353054 
L 378.910114 -283.718349 
L 377.278684 -233.671412 
L 375.647254 -245.783497 
L 374.015825 -232.648221 
L 372.384395 -237.378955 
L 370.752965 -222.906613 
L 369.121535 -246.482269 
L 367.490105 -234.857145 
L 365.858675 -232.967849 
L 364.227245 -289.131409 
L 362.595815 -224.830316 
L 360.964386 -207.002508 
L 359.332956 -227.7749 
L 357.701526 -274.748018 
L 356.070096 -233.192324 
L 354.438666 -270.269989 
L 352.807236 -237.350908 
L 351.175806 -246.968679 
L 349.544376 -245.291196 
L 347.912947 -263.564755 
L 346.281517 -274.804766 
L 344.650087 -242.734303 
L 343.018657 -228.107173 
L 341.387227 -275.160881 
L 339.755797 -234.07305 
L 338.124367 -226.486005 
L 336.492937 -230.182279 
L 334.861508 -286.826679 
L 333.230078 -256.849815 
L 331.598648 -225.689277 
L 329.967218 -244.031853 
L 328.335788 -200.846114 
L 326.704358 -234.591809 
L 325.072928 -223.714698 
L 323.441498 -223.287802 
L 321.810069 -235.346196 
L 320.178639 -213.933843 
L 318.547209 -265.490635 
L 316.915779 -246.272351 
L 315.284349 -249.483193 
L 313.652919 -240.063406 
L 312.021489 -246.754456 
L 310.390059 -219.702696 
L 308.75863 -266.279059 
L 307.1272 -249.176691 
L 305.49577 -255.008028 
L 303.86434 -248.701786 
L 302.23291 -214.506023 
L 300.60148 -217.535022 
L 298.97005 -223.851758 
L 297.33862 -225.216215 
L 295.70719 -207.133217 
L 294.075761 -211.632419 
L 292.444331 -271.155984 
L 290.812901 -188.235959 
L 289.181471 -264.99322 
L 287.550041 -240.440696 
L 285.918611 -266.151954 
L 284.287181 -235.029418 
L 282.655751 -225.769105 
L 281.024322 -248.859783 
L 279.392892 -258.104238 
L 277.761462 -223.911145 
L 276.130032 -236.548214 
L 274.498602 -263.754784 
L 272.867172 -232.12316 
L 271.235742 -266.888109 
L 269.604312 -209.495469 
L 267.972883 -233.906524 
L 266.341453 -232.690297 
L 264.710023 -278.744177 
L 263.078593 -235.729918 
L 261.447163 -244.396238 
L 259.815733 -241.257814 
L 258.184303 -238.588522 
L 256.552873 -232.689283 
L 254.921444 -224.575564 
L 253.290014 -206.292695 
L 251.658584 -256.255854 
L 250.027154 -273.589448 
L 248.395724 -229.562078 
L 246.764294 -219.539637 
L 245.132864 -261.575428 
L 243.501434 -239.318368 
L 241.870005 -246.23306 
L 240.238575 -251.304247 
L 238.607145 -233.630099 
L 236.975715 -264.345844 
L 235.344285 -229.519543 
L 233.712855 -253.853275 
L 232.081425 -214.296997 
L 230.449995 -236.131016 
L 228.818566 -264.024577 
L 227.187136 -262.448112 
L 225.555706 -231.466527 
L 223.924276 -229.052135 
L 222.292846 -274.226271 
L 220.661416 -265.145601 
L 219.029986 -241.15779 
L 217.398556 -272.557103 
L 215.767127 -250.911809 
L 214.135697 -264.658759 
L 212.504267 -213.152821 
L 210.872837 -206.638818 
L 209.241407 -245.803303 
L 207.609977 -242.353729 
L 205.978547 -228.76319 
L 204.347117 -230.552441 
L 202.715688 -255.09578 
L 201.084258 -216.349245 
L 199.452828 -242.378476 
L 197.821398 -239.810307 
L 196.189968 -252.403255 
L 194.558538 -251.954274 
L 192.927108 -242.149585 
L 191.295678 -257.473046 
L 189.664249 -219.401 
L 188.032819 -232.328469 
L 186.401389 -239.188773 
L 184.769959 -199.606912 
L 183.138529 -243.199508 
L 181.507099 -231.539305 
L 179.875669 -235.969803 
L 178.244239 -197.73538 
L 176.61281 -244.862097 
L 174.98138 -228.923026 
L 173.34995 -274.883099 
L 171.71852 -232.1037 
L 170.08709 -225.792217 
L 168.45566 -272.123681 
L 166.82423 -222.361322 
L 165.1928 -252.037873 
L 163.56137 -259.795362 
L 161.929941 -241.476845 
L 160.298511 -215.702265 
L 158.667081 -259.453041 
L 157.035651 -264.843507 
L 155.404221 -292.032 
L 153.772791 -255.177825 
L 152.141361 -238.022779 
L 150.509931 -266.42254 
L 148.878502 -236.732072 
L 147.247072 -246.796799 
L 145.615642 -228.252468 
L 143.984212 -257.551844 
L 142.352782 -269.430699 
L 140.721352 -228.552222 
L 139.089922 -240.735995 
L 137.458492 -232.051554 
L 135.827063 -219.673507 
L 134.195633 -229.260332 
L 132.564203 -228.132186 
L 130.932773 -235.524799 
L 129.301343 -244.537173 
L 127.669913 -251.848302 
L 126.038483 -234.020511 
L 124.407053 -274.826771 
L 122.775624 -252.51634 
L 121.144194 -178.508913 
L 119.512764 -228.033814 
L 117.881334 -227.187885 
L 116.249904 -260.515137 
L 114.618474 -226.3032 
L 112.987044 -236.256374 
L 111.355614 -190.258544 
L 109.724185 -230.815337 
L 108.092755 -249.298742 
L 106.461325 -239.132627 
L 104.829895 -257.867626 
L 103.198465 -224.207925 
L 101.567035 -242.144692 
L 99.935605 -207.765387 
L 98.304175 -262.611979 
L 96.672746 -253.846367 
L 95.041316 -254.054085 
L 93.409886 -249.161518 
L 91.778456 -224.212489 
L 90.147026 -234.70838 
L 88.515596 -236.67659 
L 86.884166 -250.963744 
L 85.252736 -206.071949 
L 83.621307 -256.815738 
L 81.989877 -237.385002 
L 80.358447 -212.940107 
L 78.727017 -235.726323 
L 77.095587 -228.251243 
L 75.464157 -237.92188 
L 73.832727 -237.96374 
z
" style="stroke: #ffffff; stroke-opacity: 0.2"/>
    </defs>
    <g clip-path="url(#p0b70e4916f)">
     <use xlink:href="#m725dba898a" x="0" y="345.6" style="fill: #1f77b4; fill-opacity: 0.2; stroke: #ffffff; stroke-opacity: 0.2"/>
    </g>
   </g>
   <g id="line2d_15">
    <path d="M 73.832727 145.049852 
L 75.464157 153.247229 
L 77.095587 135.550703 
L 80.358447 165.20785 
L 81.989877 125.931184 
L 83.621307 129.306208 
L 85.252736 158.955207 
L 86.884166 134.481004 
L 88.515596 129.171913 
L 90.147026 144.747928 
L 91.778456 146.699476 
L 93.409886 178.469133 
L 95.041316 150.878719 
L 96.672746 151.692346 
L 98.304175 119.242691 
L 99.935605 167.609397 
L 101.567035 158.885578 
L 103.198465 163.236598 
L 104.829895 128.721174 
L 106.461325 137.662769 
L 108.092755 125.904518 
L 109.724185 167.236805 
L 111.355614 169.234724 
L 112.987044 124.094228 
L 114.618474 143.316896 
L 116.249904 131.042424 
L 117.881334 137.293956 
L 119.512764 143.080823 
L 121.144194 218.209649 
L 122.775624 142.023494 
L 124.407053 132.667159 
L 126.038483 178.386689 
L 127.669913 133.101453 
L 129.301343 137.935805 
L 130.932773 152.980045 
L 132.564203 149.852056 
L 134.195633 160.485201 
L 135.827063 148.000508 
L 137.458492 123.730822 
L 139.089922 123.7426 
L 140.721352 160.634238 
L 142.352782 148.305692 
L 143.984212 118.246473 
L 145.615642 145.820812 
L 147.247072 144.190893 
L 148.878502 137.166105 
L 150.509931 126.923329 
L 152.141361 165.6817 
L 153.772791 157.667508 
L 155.404221 110.813464 
L 157.035651 161.94327 
L 158.667081 122.771344 
L 160.298511 151.867678 
L 161.929941 158.29521 
L 163.56137 138.724099 
L 165.1928 142.885268 
L 166.82423 153.363451 
L 168.45566 134.936113 
L 170.08709 134.277893 
L 171.71852 165.684737 
L 173.34995 117.110106 
L 174.98138 156.41018 
L 176.61281 119.019877 
L 178.244239 173.099376 
L 179.875669 152.378195 
L 181.507099 168.922206 
L 183.138529 123.192676 
L 184.769959 162.045714 
L 186.401389 138.720691 
L 189.664249 161.369791 
L 191.295678 138.640321 
L 192.927108 166.278291 
L 194.558538 136.136701 
L 196.189968 125.342964 
L 197.821398 133.68871 
L 199.452828 172.865747 
L 201.084258 187.779098 
L 202.715688 131.578496 
L 204.347117 135.706184 
L 205.978547 166.475623 
L 207.609977 145.11126 
L 209.241407 137.037883 
L 210.872837 164.026003 
L 212.504267 180.360015 
L 214.135697 137.98299 
L 215.767127 147.520732 
L 217.398556 107.476736 
L 219.029986 159.366613 
L 222.292846 124.906225 
L 223.924276 160.993051 
L 225.555706 155.919219 
L 227.187136 125.011706 
L 228.818566 112.18331 
L 230.449995 174.202927 
L 232.081425 175.732255 
L 233.712855 153.054859 
L 235.344285 173.059672 
L 236.975715 134.215671 
L 238.607145 160.532979 
L 240.238575 137.342104 
L 241.870005 157.160399 
L 243.501434 127.161254 
L 245.132864 130.031613 
L 246.764294 160.013351 
L 248.395724 150.396573 
L 250.027154 106.257259 
L 251.658584 116.072036 
L 253.290014 217.397652 
L 254.921444 185.503625 
L 256.552873 127.406956 
L 258.184303 163.011933 
L 259.815733 136.602255 
L 263.078593 161.844752 
L 264.710023 126.6557 
L 266.341453 159.362687 
L 267.972883 148.260359 
L 269.604312 153.723301 
L 271.235742 159.96024 
L 272.867172 131.834125 
L 274.498602 131.322793 
L 276.130032 128.043398 
L 277.761462 181.126679 
L 279.392892 127.703696 
L 281.024322 151.643013 
L 282.655751 148.451691 
L 284.287181 128.235472 
L 285.918611 158.535727 
L 287.550041 166.420438 
L 289.181471 144.002597 
L 290.812901 202.477339 
L 292.444331 119.502097 
L 294.075761 170.302275 
L 295.70719 167.227324 
L 297.33862 165.932662 
L 298.97005 166.055921 
L 300.60148 163.925114 
L 302.23291 171.506271 
L 303.86434 138.252545 
L 305.49577 131.458274 
L 307.1272 130.665759 
L 308.75863 133.598266 
L 310.390059 140.908239 
L 312.021489 156.421217 
L 313.652919 158.686319 
L 315.284349 133.181453 
L 316.915779 156.269069 
L 318.547209 129.411023 
L 320.178639 154.968259 
L 321.810069 145.300666 
L 323.441498 146.76392 
L 325.072928 160.760015 
L 326.704358 130.874128 
L 328.335788 174.920628 
L 329.967218 135.825073 
L 331.598648 143.059341 
L 333.230078 127.568808 
L 334.861508 130.258797 
L 336.492937 152.401602 
L 338.124367 146.989253 
L 339.755797 151.853975 
L 341.387227 124.766077 
L 343.018657 151.967382 
L 344.650087 137.420104 
L 346.281517 117.525438 
L 349.544376 131.340719 
L 351.175806 151.897604 
L 352.807236 131.788569 
L 354.438666 141.768532 
L 356.070096 145.448295 
L 357.701526 135.590703 
L 359.332956 155.129296 
L 360.964386 170.375905 
L 362.595815 161.078532 
L 364.227245 100.635947 
L 365.858675 158.551727 
L 367.490105 139.071431 
L 369.121535 122.076977 
L 370.752965 156.869067 
L 372.384395 124.564226 
L 374.015825 177.893284 
L 377.278684 140.512462 
L 378.910114 120.132095 
L 380.541544 130.857684 
L 382.172974 136.559959 
L 383.804404 147.425621 
L 385.435834 164.995851 
L 387.067264 148.108952 
L 388.698693 129.443023 
L 390.330123 177.648544 
L 391.961553 181.147642 
L 393.592983 132.446271 
L 395.224413 160.239054 
L 398.487273 115.19478 
L 398.487273 115.19478 
" clip-path="url(#p0b70e4916f)" style="fill: none; stroke: #1f77b4; stroke-width: 1.5; stroke-linecap: round"/>
   </g>
   <g id="LineCollection_1">
    <path d="M 398.487273 295.488 
L 398.487273 53.568 
" clip-path="url(#p0b70e4916f)" style="fill: none; stroke-dasharray: 5.55,2.4; stroke-dashoffset: 0; stroke: #1f77b4; stroke-width: 1.5"/>
   </g>
   <g id="patch_3">
    <path d="M 57.6 307.584 
L 57.6 41.472 
" style="fill: none; stroke: #cccccc; stroke-width: 0.8; stroke-linejoin: miter; stroke-linecap: square"/>
   </g>
   <g id="patch_4">
    <path d="M 414.72 307.584 
L 414.72 41.472 
" style="fill: none; stroke: #cccccc; stroke-width: 0.8; stroke-linejoin: miter; stroke-linecap: square"/>
   </g>
   <g id="patch_5">
    <path d="M 57.6 307.584 
L 414.72 307.584 
" style="fill: none; stroke: #cccccc; stroke-width: 0.8; stroke-linejoin: miter; stroke-linecap: square"/>
   </g>
   <g id="patch_6">
    <path d="M 57.6 41.472 
L 414.72 41.472 
" style="fill: none; stroke: #cccccc; stroke-width: 0.8; stroke-linejoin: miter; stroke-linecap: square"/>
   </g>
   <g id="text_17">
    <!-- Model performance vs. # of iterations -->
    <g style="fill: #262626" transform="translate(122.314688 35.472)scale(0.12 -0.12)">
     <defs>
      <path id="DejaVuSans-4d" d="M 628 4666 
L 1569 4666 
L 2759 1491 
L 3956 4666 
L 4897 4666 
L 4897 0 
L 4281 0 
L 4281 4097 
L 3078 897 
L 2444 897 
L 1241 4097 
L 1241 0 
L 628 0 
L 628 4666 
z
" transform="scale(0.015625)"/>
      <path id="DejaVuSans-64" d="M 2906 2969 
L 2906 4863 
L 3481 4863 
L 3481 0 
L 2906 0 
L 2906 525 
Q 2725 213 2448 61 
Q 2172 -91 1784 -91 
Q 1150 -91 751 415 
Q 353 922 353 1747 
Q 353 2572 751 3078 
Q 1150 3584 1784 3584 
Q 2172 3584 2448 3432 
Q 2725 3281 2906 2969 
z
M 947 1747 
Q 947 1113 1208 752 
Q 1469 391 1925 391 
Q 2381 391 2643 752 
Q 2906 1113 2906 1747 
Q 2906 2381 2643 2742 
Q 2381 3103 1925 3103 
Q 1469 3103 1208 2742 
Q 947 2381 947 1747 
z
" transform="scale(0.015625)"/>
      <path id="DejaVuSans-6c" d="M 603 4863 
L 1178 4863 
L 1178 0 
L 603 0 
L 603 4863 
z
" transform="scale(0.015625)"/>
      <path id="DejaVuSans-20" transform="scale(0.015625)"/>
      <path id="DejaVuSans-70" d="M 1159 525 
L 1159 -1331 
L 581 -1331 
L 581 3500 
L 1159 3500 
L 1159 2969 
Q 1341 3281 1617 3432 
Q 1894 3584 2278 3584 
Q 2916 3584 3314 3078 
Q 3713 2572 3713 1747 
Q 3713 922 3314 415 
Q 2916 -91 2278 -91 
Q 1894 -91 1617 61 
Q 1341 213 1159 525 
z
M 3116 1747 
Q 3116 2381 2855 2742 
Q 2594 3103 2138 3103 
Q 1681 3103 1420 2742 
Q 1159 2381 1159 1747 
Q 1159 1113 1420 752 
Q 1681 391 2138 391 
Q 2594 391 2855 752 
Q 3116 1113 3116 1747 
z
" transform="scale(0.015625)"/>
      <path id="DejaVuSans-66" d="M 2375 4863 
L 2375 4384 
L 1825 4384 
Q 1516 4384 1395 4259 
Q 1275 4134 1275 3809 
L 1275 3500 
L 2222 3500 
L 2222 3053 
L 1275 3053 
L 1275 0 
L 697 0 
L 697 3053 
L 147 3053 
L 147 3500 
L 697 3500 
L 697 3744 
Q 697 4328 969 4595 
Q 1241 4863 1831 4863 
L 2375 4863 
z
" transform="scale(0.015625)"/>
      <path id="DejaVuSans-6d" d="M 3328 2828 
Q 3544 3216 3844 3400 
Q 4144 3584 4550 3584 
Q 5097 3584 5394 3201 
Q 5691 2819 5691 2113 
L 5691 0 
L 5113 0 
L 5113 2094 
Q 5113 2597 4934 2840 
Q 4756 3084 4391 3084 
Q 3944 3084 3684 2787 
Q 3425 2491 3425 1978 
L 3425 0 
L 2847 0 
L 2847 2094 
Q 2847 2600 2669 2842 
Q 2491 3084 2119 3084 
Q 1678 3084 1418 2786 
Q 1159 2488 1159 1978 
L 1159 0 
L 581 0 
L 581 3500 
L 1159 3500 
L 1159 2956 
Q 1356 3278 1631 3431 
Q 1906 3584 2284 3584 
Q 2666 3584 2933 3390 
Q 3200 3197 3328 2828 
z
" transform="scale(0.015625)"/>
      <path id="DejaVuSans-76" d="M 191 3500 
L 800 3500 
L 1894 563 
L 2988 3500 
L 3597 3500 
L 2284 0 
L 1503 0 
L 191 3500 
z
" transform="scale(0.015625)"/>
      <path id="DejaVuSans-73" d="M 2834 3397 
L 2834 2853 
Q 2591 2978 2328 3040 
Q 2066 3103 1784 3103 
Q 1356 3103 1142 2972 
Q 928 2841 928 2578 
Q 928 2378 1081 2264 
Q 1234 2150 1697 2047 
L 1894 2003 
Q 2506 1872 2764 1633 
Q 3022 1394 3022 966 
Q 3022 478 2636 193 
Q 2250 -91 1575 -91 
Q 1294 -91 989 -36 
Q 684 19 347 128 
L 347 722 
Q 666 556 975 473 
Q 1284 391 1588 391 
Q 1994 391 2212 530 
Q 2431 669 2431 922 
Q 2431 1156 2273 1281 
Q 2116 1406 1581 1522 
L 1381 1569 
Q 847 1681 609 1914 
Q 372 2147 372 2553 
Q 372 3047 722 3315 
Q 1072 3584 1716 3584 
Q 2034 3584 2315 3537 
Q 2597 3491 2834 3397 
z
" transform="scale(0.015625)"/>
      <path id="DejaVuSans-23" d="M 3272 2816 
L 2363 2816 
L 2100 1772 
L 3016 1772 
L 3272 2816 
z
M 2803 4594 
L 2478 3297 
L 3391 3297 
L 3719 4594 
L 4219 4594 
L 3897 3297 
L 4872 3297 
L 4872 2816 
L 3775 2816 
L 3519 1772 
L 4513 1772 
L 4513 1294 
L 3397 1294 
L 3072 0 
L 2572 0 
L 2894 1294 
L 1978 1294 
L 1656 0 
L 1153 0 
L 1478 1294 
L 494 1294 
L 494 1772 
L 1594 1772 
L 1856 2816 
L 850 2816 
L 850 3297 
L 1978 3297 
L 2297 4594 
L 2803 4594 
z
" transform="scale(0.015625)"/>
     </defs>
     <use xlink:href="#DejaVuSans-4d"/>
     <use xlink:href="#DejaVuSans-6f" x="86.279297"/>
     <use xlink:href="#DejaVuSans-64" x="147.460938"/>
     <use xlink:href="#DejaVuSans-65" x="210.9375"/>
     <use xlink:href="#DejaVuSans-6c" x="272.460938"/>
     <use xlink:href="#DejaVuSans-20" x="300.244141"/>
     <use xlink:href="#DejaVuSans-70" x="332.03125"/>
     <use xlink:href="#DejaVuSans-65" x="395.507812"/>
     <use xlink:href="#DejaVuSans-72" x="457.03125"/>
     <use xlink:href="#DejaVuSans-66" x="498.144531"/>
     <use xlink:href="#DejaVuSans-6f" x="533.349609"/>
     <use xlink:href="#DejaVuSans-72" x="594.53125"/>
     <use xlink:href="#DejaVuSans-6d" x="633.894531"/>
     <use xlink:href="#DejaVuSans-61" x="731.306641"/>
     <use xlink:href="#DejaVuSans-6e" x="792.585938"/>
     <use xlink:href="#DejaVuSans-63" x="855.964844"/>
     <use xlink:href="#DejaVuSans-65" x="910.945312"/>
     <use xlink:href="#DejaVuSans-20" x="972.46875"/>
     <use xlink:href="#DejaVuSans-76" x="1004.255859"/>
     <use xlink:href="#DejaVuSans-73" x="1063.435547"/>
     <use xlink:href="#DejaVuSans-2e" x="1115.535156"/>
     <use xlink:href="#DejaVuSans-20" x="1147.322266"/>
     <use xlink:href="#DejaVuSans-23" x="1179.109375"/>
     <use xlink:href="#DejaVuSans-20" x="1262.898438"/>
     <use xlink:href="#DejaVuSans-6f" x="1294.685547"/>
     <use xlink:href="#DejaVuSans-66" x="1355.867188"/>
     <use xlink:href="#DejaVuSans-20" x="1391.072266"/>
     <use xlink:href="#DejaVuSans-69" x="1422.859375"/>
     <use xlink:href="#DejaVuSans-74" x="1450.642578"/>
     <use xlink:href="#DejaVuSans-65" x="1489.851562"/>
     <use xlink:href="#DejaVuSans-72" x="1551.375"/>
     <use xlink:href="#DejaVuSans-61" x="1592.488281"/>
     <use xlink:href="#DejaVuSans-74" x="1653.767578"/>
     <use xlink:href="#DejaVuSans-69" x="1692.976562"/>
     <use xlink:href="#DejaVuSans-6f" x="1720.759766"/>
     <use xlink:href="#DejaVuSans-6e" x="1781.941406"/>
     <use xlink:href="#DejaVuSans-73" x="1845.320312"/>
    </g>
   </g>
  </g>
 </g>
 <defs>
  <clipPath id="p0b70e4916f">
   <rect x="57.6" y="41.472" width="357.12" height="266.112"/>
  </clipPath>
 </defs>
</svg>
