<?xml version="1.0" encoding="utf-8" standalone="no"?>
<!DOCTYPE svg PUBLIC "-//W3C//DTD SVG 1.1//EN"
  "http://www.w3.org/Graphics/SVG/1.1/DTD/svg11.dtd">
<svg xmlns:xlink="http://www.w3.org/1999/xlink" width="460.8pt" height="345.6pt" viewBox="0 0 460.8 345.6" xmlns="http://www.w3.org/2000/svg" version="1.1">
 <metadata>
  <rdf:RDF xmlns:dc="http://purl.org/dc/elements/1.1/" xmlns:cc="http://creativecommons.org/ns#" xmlns:rdf="http://www.w3.org/1999/02/22-rdf-syntax-ns#">
   <cc:Work>
    <dc:type rdf:resource="http://purl.org/dc/dcmitype/StillImage"/>
    <dc:date>2022-06-11T07:01:34.280756</dc:date>
    <dc:format>image/svg+xml</dc:format>
    <dc:creator>
     <cc:Agent>
      <dc:title>Matplotlib v3.5.2, https://matplotlib.org/</dc:title>
     </cc:Agent>
    </dc:creator>
   </cc:Work>
  </rdf:RDF>
 </metadata>
 <defs>
  <style type="text/css">*{stroke-linejoin: round; stroke-linecap: butt}</style>
 </defs>
 <g id="figure_1">
  <g id="patch_1">
   <path d="M 0 345.6 
L 460.8 345.6 
L 460.8 0 
L 0 0 
z
" style="fill: #ffffff"/>
  </g>
  <g id="axes_1">
   <g id="patch_2">
    <path d="M 57.6 307.584 
L 414.72 307.584 
L 414.72 41.472 
L 57.6 41.472 
z
" style="fill: #ffffff"/>
   </g>
   <g id="matplotlib.axis_1">
    <g id="xtick_1">
     <g id="line2d_1">
      <path d="M 72.201297 307.584 
L 72.201297 41.472 
" clip-path="url(#p01e1c2577f)" style="fill: none; stroke: #cccccc; stroke-width: 0.8; stroke-linecap: round"/>
     </g>
     <g id="text_1">
      <!-- 0 -->
      <g style="fill: #262626" transform="translate(69.020047 322.182437)scale(0.1 -0.1)">
       <defs>
        <path id="DejaVuSans-30" d="M 2034 4250 
Q 1547 4250 1301 3770 
Q 1056 3291 1056 2328 
Q 1056 1369 1301 889 
Q 1547 409 2034 409 
Q 2525 409 2770 889 
Q 3016 1369 3016 2328 
Q 3016 3291 2770 3770 
Q 2525 4250 2034 4250 
z
M 2034 4750 
Q 2819 4750 3233 4129 
Q 3647 3509 3647 2328 
Q 3647 1150 3233 529 
Q 2819 -91 2034 -91 
Q 1250 -91 836 529 
Q 422 1150 422 2328 
Q 422 3509 836 4129 
Q 1250 4750 2034 4750 
z
" transform="scale(0.015625)"/>
       </defs>
       <use xlink:href="#DejaVuSans-30"/>
      </g>
     </g>
    </g>
    <g id="xtick_2">
     <g id="line2d_2">
      <path d="M 112.987044 307.584 
L 112.987044 41.472 
" clip-path="url(#p01e1c2577f)" style="fill: none; stroke: #cccccc; stroke-width: 0.8; stroke-linecap: round"/>
     </g>
     <g id="text_2">
      <!-- 25 -->
      <g style="fill: #262626" transform="translate(106.624544 322.182437)scale(0.1 -0.1)">
       <defs>
        <path id="DejaVuSans-32" d="M 1228 531 
L 3431 531 
L 3431 0 
L 469 0 
L 469 531 
Q 828 903 1448 1529 
Q 2069 2156 2228 2338 
Q 2531 2678 2651 2914 
Q 2772 3150 2772 3378 
Q 2772 3750 2511 3984 
Q 2250 4219 1831 4219 
Q 1534 4219 1204 4116 
Q 875 4013 500 3803 
L 500 4441 
Q 881 4594 1212 4672 
Q 1544 4750 1819 4750 
Q 2544 4750 2975 4387 
Q 3406 4025 3406 3419 
Q 3406 3131 3298 2873 
Q 3191 2616 2906 2266 
Q 2828 2175 2409 1742 
Q 1991 1309 1228 531 
z
" transform="scale(0.015625)"/>
        <path id="DejaVuSans-35" d="M 691 4666 
L 3169 4666 
L 3169 4134 
L 1269 4134 
L 1269 2991 
Q 1406 3038 1543 3061 
Q 1681 3084 1819 3084 
Q 2600 3084 3056 2656 
Q 3513 2228 3513 1497 
Q 3513 744 3044 326 
Q 2575 -91 1722 -91 
Q 1428 -91 1123 -41 
Q 819 9 494 109 
L 494 744 
Q 775 591 1075 516 
Q 1375 441 1709 441 
Q 2250 441 2565 725 
Q 2881 1009 2881 1497 
Q 2881 1984 2565 2268 
Q 2250 2553 1709 2553 
Q 1456 2553 1204 2497 
Q 953 2441 691 2322 
L 691 4666 
z
" transform="scale(0.015625)"/>
       </defs>
       <use xlink:href="#DejaVuSans-32"/>
       <use xlink:href="#DejaVuSans-35" x="63.623047"/>
      </g>
     </g>
    </g>
    <g id="xtick_3">
     <g id="line2d_3">
      <path d="M 153.772791 307.584 
L 153.772791 41.472 
" clip-path="url(#p01e1c2577f)" style="fill: none; stroke: #cccccc; stroke-width: 0.8; stroke-linecap: round"/>
     </g>
     <g id="text_3">
      <!-- 50 -->
      <g style="fill: #262626" transform="translate(147.410291 322.182437)scale(0.1 -0.1)">
       <use xlink:href="#DejaVuSans-35"/>
       <use xlink:href="#DejaVuSans-30" x="63.623047"/>
      </g>
     </g>
    </g>
    <g id="xtick_4">
     <g id="line2d_4">
      <path d="M 194.558538 307.584 
L 194.558538 41.472 
" clip-path="url(#p01e1c2577f)" style="fill: none; stroke: #cccccc; stroke-width: 0.8; stroke-linecap: round"/>
     </g>
     <g id="text_4">
      <!-- 75 -->
      <g style="fill: #262626" transform="translate(188.196038 322.182437)scale(0.1 -0.1)">
       <defs>
        <path id="DejaVuSans-37" d="M 525 4666 
L 3525 4666 
L 3525 4397 
L 1831 0 
L 1172 0 
L 2766 4134 
L 525 4134 
L 525 4666 
z
" transform="scale(0.015625)"/>
       </defs>
       <use xlink:href="#DejaVuSans-37"/>
       <use xlink:href="#DejaVuSans-35" x="63.623047"/>
      </g>
     </g>
    </g>
    <g id="xtick_5">
     <g id="line2d_5">
      <path d="M 235.344285 307.584 
L 235.344285 41.472 
" clip-path="url(#p01e1c2577f)" style="fill: none; stroke: #cccccc; stroke-width: 0.8; stroke-linecap: round"/>
     </g>
     <g id="text_5">
      <!-- 100 -->
      <g style="fill: #262626" transform="translate(225.800535 322.182437)scale(0.1 -0.1)">
       <defs>
        <path id="DejaVuSans-31" d="M 794 531 
L 1825 531 
L 1825 4091 
L 703 3866 
L 703 4441 
L 1819 4666 
L 2450 4666 
L 2450 531 
L 3481 531 
L 3481 0 
L 794 0 
L 794 531 
z
" transform="scale(0.015625)"/>
       </defs>
       <use xlink:href="#DejaVuSans-31"/>
       <use xlink:href="#DejaVuSans-30" x="63.623047"/>
       <use xlink:href="#DejaVuSans-30" x="127.246094"/>
      </g>
     </g>
    </g>
    <g id="xtick_6">
     <g id="line2d_6">
      <path d="M 276.130032 307.584 
L 276.130032 41.472 
" clip-path="url(#p01e1c2577f)" style="fill: none; stroke: #cccccc; stroke-width: 0.8; stroke-linecap: round"/>
     </g>
     <g id="text_6">
      <!-- 125 -->
      <g style="fill: #262626" transform="translate(266.586282 322.182437)scale(0.1 -0.1)">
       <use xlink:href="#DejaVuSans-31"/>
       <use xlink:href="#DejaVuSans-32" x="63.623047"/>
       <use xlink:href="#DejaVuSans-35" x="127.246094"/>
      </g>
     </g>
    </g>
    <g id="xtick_7">
     <g id="line2d_7">
      <path d="M 316.915779 307.584 
L 316.915779 41.472 
" clip-path="url(#p01e1c2577f)" style="fill: none; stroke: #cccccc; stroke-width: 0.8; stroke-linecap: round"/>
     </g>
     <g id="text_7">
      <!-- 150 -->
      <g style="fill: #262626" transform="translate(307.372029 322.182437)scale(0.1 -0.1)">
       <use xlink:href="#DejaVuSans-31"/>
       <use xlink:href="#DejaVuSans-35" x="63.623047"/>
       <use xlink:href="#DejaVuSans-30" x="127.246094"/>
      </g>
     </g>
    </g>
    <g id="xtick_8">
     <g id="line2d_8">
      <path d="M 357.701526 307.584 
L 357.701526 41.472 
" clip-path="url(#p01e1c2577f)" style="fill: none; stroke: #cccccc; stroke-width: 0.8; stroke-linecap: round"/>
     </g>
     <g id="text_8">
      <!-- 175 -->
      <g style="fill: #262626" transform="translate(348.157776 322.182437)scale(0.1 -0.1)">
       <use xlink:href="#DejaVuSans-31"/>
       <use xlink:href="#DejaVuSans-37" x="63.623047"/>
       <use xlink:href="#DejaVuSans-35" x="127.246094"/>
      </g>
     </g>
    </g>
    <g id="xtick_9">
     <g id="line2d_9">
      <path d="M 398.487273 307.584 
L 398.487273 41.472 
" clip-path="url(#p01e1c2577f)" style="fill: none; stroke: #cccccc; stroke-width: 0.8; stroke-linecap: round"/>
     </g>
     <g id="text_9">
      <!-- 200 -->
      <g style="fill: #262626" transform="translate(388.943523 322.182437)scale(0.1 -0.1)">
       <use xlink:href="#DejaVuSans-32"/>
       <use xlink:href="#DejaVuSans-30" x="63.623047"/>
       <use xlink:href="#DejaVuSans-30" x="127.246094"/>
      </g>
     </g>
    </g>
    <g id="text_10">
     <!-- Iteration -->
     <g style="fill: #262626" transform="translate(214.951406 335.860562)scale(0.1 -0.1)">
      <defs>
       <path id="DejaVuSans-49" d="M 628 4666 
L 1259 4666 
L 1259 0 
L 628 0 
L 628 4666 
z
" transform="scale(0.015625)"/>
       <path id="DejaVuSans-74" d="M 1172 4494 
L 1172 3500 
L 2356 3500 
L 2356 3053 
L 1172 3053 
L 1172 1153 
Q 1172 725 1289 603 
Q 1406 481 1766 481 
L 2356 481 
L 2356 0 
L 1766 0 
Q 1100 0 847 248 
Q 594 497 594 1153 
L 594 3053 
L 172 3053 
L 172 3500 
L 594 3500 
L 594 4494 
L 1172 4494 
z
" transform="scale(0.015625)"/>
       <path id="DejaVuSans-65" d="M 3597 1894 
L 3597 1613 
L 953 1613 
Q 991 1019 1311 708 
Q 1631 397 2203 397 
Q 2534 397 2845 478 
Q 3156 559 3463 722 
L 3463 178 
Q 3153 47 2828 -22 
Q 2503 -91 2169 -91 
Q 1331 -91 842 396 
Q 353 884 353 1716 
Q 353 2575 817 3079 
Q 1281 3584 2069 3584 
Q 2775 3584 3186 3129 
Q 3597 2675 3597 1894 
z
M 3022 2063 
Q 3016 2534 2758 2815 
Q 2500 3097 2075 3097 
Q 1594 3097 1305 2825 
Q 1016 2553 972 2059 
L 3022 2063 
z
" transform="scale(0.015625)"/>
       <path id="DejaVuSans-72" d="M 2631 2963 
Q 2534 3019 2420 3045 
Q 2306 3072 2169 3072 
Q 1681 3072 1420 2755 
Q 1159 2438 1159 1844 
L 1159 0 
L 581 0 
L 581 3500 
L 1159 3500 
L 1159 2956 
Q 1341 3275 1631 3429 
Q 1922 3584 2338 3584 
Q 2397 3584 2469 3576 
Q 2541 3569 2628 3553 
L 2631 2963 
z
" transform="scale(0.015625)"/>
       <path id="DejaVuSans-61" d="M 2194 1759 
Q 1497 1759 1228 1600 
Q 959 1441 959 1056 
Q 959 750 1161 570 
Q 1363 391 1709 391 
Q 2188 391 2477 730 
Q 2766 1069 2766 1631 
L 2766 1759 
L 2194 1759 
z
M 3341 1997 
L 3341 0 
L 2766 0 
L 2766 531 
Q 2569 213 2275 61 
Q 1981 -91 1556 -91 
Q 1019 -91 701 211 
Q 384 513 384 1019 
Q 384 1609 779 1909 
Q 1175 2209 1959 2209 
L 2766 2209 
L 2766 2266 
Q 2766 2663 2505 2880 
Q 2244 3097 1772 3097 
Q 1472 3097 1187 3025 
Q 903 2953 641 2809 
L 641 3341 
Q 956 3463 1253 3523 
Q 1550 3584 1831 3584 
Q 2591 3584 2966 3190 
Q 3341 2797 3341 1997 
z
" transform="scale(0.015625)"/>
       <path id="DejaVuSans-69" d="M 603 3500 
L 1178 3500 
L 1178 0 
L 603 0 
L 603 3500 
z
M 603 4863 
L 1178 4863 
L 1178 4134 
L 603 4134 
L 603 4863 
z
" transform="scale(0.015625)"/>
       <path id="DejaVuSans-6f" d="M 1959 3097 
Q 1497 3097 1228 2736 
Q 959 2375 959 1747 
Q 959 1119 1226 758 
Q 1494 397 1959 397 
Q 2419 397 2687 759 
Q 2956 1122 2956 1747 
Q 2956 2369 2687 2733 
Q 2419 3097 1959 3097 
z
M 1959 3584 
Q 2709 3584 3137 3096 
Q 3566 2609 3566 1747 
Q 3566 888 3137 398 
Q 2709 -91 1959 -91 
Q 1206 -91 779 398 
Q 353 888 353 1747 
Q 353 2609 779 3096 
Q 1206 3584 1959 3584 
z
" transform="scale(0.015625)"/>
       <path id="DejaVuSans-6e" d="M 3513 2113 
L 3513 0 
L 2938 0 
L 2938 2094 
Q 2938 2591 2744 2837 
Q 2550 3084 2163 3084 
Q 1697 3084 1428 2787 
Q 1159 2491 1159 1978 
L 1159 0 
L 581 0 
L 581 3500 
L 1159 3500 
L 1159 2956 
Q 1366 3272 1645 3428 
Q 1925 3584 2291 3584 
Q 2894 3584 3203 3211 
Q 3513 2838 3513 2113 
z
" transform="scale(0.015625)"/>
      </defs>
      <use xlink:href="#DejaVuSans-49"/>
      <use xlink:href="#DejaVuSans-74" x="29.492188"/>
      <use xlink:href="#DejaVuSans-65" x="68.701172"/>
      <use xlink:href="#DejaVuSans-72" x="130.224609"/>
      <use xlink:href="#DejaVuSans-61" x="171.337891"/>
      <use xlink:href="#DejaVuSans-74" x="232.617188"/>
      <use xlink:href="#DejaVuSans-69" x="271.826172"/>
      <use xlink:href="#DejaVuSans-6f" x="299.609375"/>
      <use xlink:href="#DejaVuSans-6e" x="360.791016"/>
     </g>
    </g>
   </g>
   <g id="matplotlib.axis_2">
    <g id="ytick_1">
     <g id="line2d_10">
      <path d="M 57.6 269.33805 
L 414.72 269.33805 
" clip-path="url(#p01e1c2577f)" style="fill: none; stroke: #cccccc; stroke-width: 0.8; stroke-linecap: round"/>
     </g>
     <g id="text_11">
      <!-- 0.4 -->
      <g style="fill: #262626" transform="translate(34.696875 273.137269)scale(0.1 -0.1)">
       <defs>
        <path id="DejaVuSans-2e" d="M 684 794 
L 1344 794 
L 1344 0 
L 684 0 
L 684 794 
z
" transform="scale(0.015625)"/>
        <path id="DejaVuSans-34" d="M 2419 4116 
L 825 1625 
L 2419 1625 
L 2419 4116 
z
M 2253 4666 
L 3047 4666 
L 3047 1625 
L 3713 1625 
L 3713 1100 
L 3047 1100 
L 3047 0 
L 2419 0 
L 2419 1100 
L 313 1100 
L 313 1709 
L 2253 4666 
z
" transform="scale(0.015625)"/>
       </defs>
       <use xlink:href="#DejaVuSans-30"/>
       <use xlink:href="#DejaVuSans-2e" x="63.623047"/>
       <use xlink:href="#DejaVuSans-34" x="95.410156"/>
      </g>
     </g>
    </g>
    <g id="ytick_2">
     <g id="line2d_11">
      <path d="M 57.6 211.011063 
L 414.72 211.011063 
" clip-path="url(#p01e1c2577f)" style="fill: none; stroke: #cccccc; stroke-width: 0.8; stroke-linecap: round"/>
     </g>
     <g id="text_12">
      <!-- 0.5 -->
      <g style="fill: #262626" transform="translate(34.696875 214.810282)scale(0.1 -0.1)">
       <use xlink:href="#DejaVuSans-30"/>
       <use xlink:href="#DejaVuSans-2e" x="63.623047"/>
       <use xlink:href="#DejaVuSans-35" x="95.410156"/>
      </g>
     </g>
    </g>
    <g id="ytick_3">
     <g id="line2d_12">
      <path d="M 57.6 152.684076 
L 414.72 152.684076 
" clip-path="url(#p01e1c2577f)" style="fill: none; stroke: #cccccc; stroke-width: 0.8; stroke-linecap: round"/>
     </g>
     <g id="text_13">
      <!-- 0.6 -->
      <g style="fill: #262626" transform="translate(34.696875 156.483295)scale(0.1 -0.1)">
       <defs>
        <path id="DejaVuSans-36" d="M 2113 2584 
Q 1688 2584 1439 2293 
Q 1191 2003 1191 1497 
Q 1191 994 1439 701 
Q 1688 409 2113 409 
Q 2538 409 2786 701 
Q 3034 994 3034 1497 
Q 3034 2003 2786 2293 
Q 2538 2584 2113 2584 
z
M 3366 4563 
L 3366 3988 
Q 3128 4100 2886 4159 
Q 2644 4219 2406 4219 
Q 1781 4219 1451 3797 
Q 1122 3375 1075 2522 
Q 1259 2794 1537 2939 
Q 1816 3084 2150 3084 
Q 2853 3084 3261 2657 
Q 3669 2231 3669 1497 
Q 3669 778 3244 343 
Q 2819 -91 2113 -91 
Q 1303 -91 875 529 
Q 447 1150 447 2328 
Q 447 3434 972 4092 
Q 1497 4750 2381 4750 
Q 2619 4750 2861 4703 
Q 3103 4656 3366 4563 
z
" transform="scale(0.015625)"/>
       </defs>
       <use xlink:href="#DejaVuSans-30"/>
       <use xlink:href="#DejaVuSans-2e" x="63.623047"/>
       <use xlink:href="#DejaVuSans-36" x="95.410156"/>
      </g>
     </g>
    </g>
    <g id="ytick_4">
     <g id="line2d_13">
      <path d="M 57.6 94.35709 
L 414.72 94.35709 
" clip-path="url(#p01e1c2577f)" style="fill: none; stroke: #cccccc; stroke-width: 0.8; stroke-linecap: round"/>
     </g>
     <g id="text_14">
      <!-- 0.7 -->
      <g style="fill: #262626" transform="translate(34.696875 98.156308)scale(0.1 -0.1)">
       <use xlink:href="#DejaVuSans-30"/>
       <use xlink:href="#DejaVuSans-2e" x="63.623047"/>
       <use xlink:href="#DejaVuSans-37" x="95.410156"/>
      </g>
     </g>
    </g>
    <g id="text_15">
     <!-- Auroc -->
     <g style="fill: #262626" transform="translate(28.617188 188.868625)rotate(-90)scale(0.1 -0.1)">
      <defs>
       <path id="DejaVuSans-41" d="M 2188 4044 
L 1331 1722 
L 3047 1722 
L 2188 4044 
z
M 1831 4666 
L 2547 4666 
L 4325 0 
L 3669 0 
L 3244 1197 
L 1141 1197 
L 716 0 
L 50 0 
L 1831 4666 
z
" transform="scale(0.015625)"/>
       <path id="DejaVuSans-75" d="M 544 1381 
L 544 3500 
L 1119 3500 
L 1119 1403 
Q 1119 906 1312 657 
Q 1506 409 1894 409 
Q 2359 409 2629 706 
Q 2900 1003 2900 1516 
L 2900 3500 
L 3475 3500 
L 3475 0 
L 2900 0 
L 2900 538 
Q 2691 219 2414 64 
Q 2138 -91 1772 -91 
Q 1169 -91 856 284 
Q 544 659 544 1381 
z
M 1991 3584 
L 1991 3584 
z
" transform="scale(0.015625)"/>
       <path id="DejaVuSans-63" d="M 3122 3366 
L 3122 2828 
Q 2878 2963 2633 3030 
Q 2388 3097 2138 3097 
Q 1578 3097 1268 2742 
Q 959 2388 959 1747 
Q 959 1106 1268 751 
Q 1578 397 2138 397 
Q 2388 397 2633 464 
Q 2878 531 3122 666 
L 3122 134 
Q 2881 22 2623 -34 
Q 2366 -91 2075 -91 
Q 1284 -91 818 406 
Q 353 903 353 1747 
Q 353 2603 823 3093 
Q 1294 3584 2113 3584 
Q 2378 3584 2631 3529 
Q 2884 3475 3122 3366 
z
" transform="scale(0.015625)"/>
      </defs>
      <use xlink:href="#DejaVuSans-41"/>
      <use xlink:href="#DejaVuSans-75" x="68.408203"/>
      <use xlink:href="#DejaVuSans-72" x="131.787109"/>
      <use xlink:href="#DejaVuSans-6f" x="170.650391"/>
      <use xlink:href="#DejaVuSans-63" x="231.832031"/>
     </g>
    </g>
   </g>
   <g id="PolyCollection_1">
    <defs>
     <path id="m69988a4646" d="M 73.832727 -259.099424 
L 73.832727 -126.042794 
L 75.464157 -178.782353 
L 77.095587 -167.936406 
L 78.727017 -172.217841 
L 80.358447 -185.042986 
L 81.989877 -128.28336 
L 83.621307 -144.694462 
L 85.252736 -143.919288 
L 86.884166 -181.748179 
L 88.515596 -137.989312 
L 90.147026 -102.272882 
L 91.778456 -174.929836 
L 93.409886 -150.640252 
L 95.041316 -179.071237 
L 96.672746 -169.528963 
L 98.304175 -128.081752 
L 99.935605 -149.544394 
L 101.567035 -198.833278 
L 103.198465 -185.317437 
L 104.829895 -188.206199 
L 106.461325 -118.033621 
L 108.092755 -125.520998 
L 109.724185 -137.997656 
L 111.355614 -119.685124 
L 112.987044 -158.458397 
L 114.618474 -151.67587 
L 116.249904 -128.832343 
L 117.881334 -147.664464 
L 119.512764 -166.802504 
L 121.144194 -198.860011 
L 122.775624 -114.67177 
L 124.407053 -150.979494 
L 126.038483 -157.613539 
L 127.669913 -126.849064 
L 129.301343 -159.985329 
L 130.932773 -189.653047 
L 132.564203 -198.638216 
L 134.195633 -199.055681 
L 135.827063 -138.155791 
L 137.458492 -189.290643 
L 139.089922 -143.493559 
L 140.721352 -116.796667 
L 142.352782 -82.536688 
L 143.984212 -162.022509 
L 145.615642 -182.257289 
L 147.247072 -197.968134 
L 148.878502 -142.184373 
L 150.509931 -115.710049 
L 152.141361 -222.257313 
L 153.772791 -181.131782 
L 155.404221 -207.755258 
L 157.035651 -145.487549 
L 158.667081 -165.660412 
L 160.298511 -125.603673 
L 161.929941 -172.414629 
L 163.56137 -121.572127 
L 165.1928 -158.449482 
L 166.82423 -165.607306 
L 168.45566 -93.245402 
L 170.08709 -153.669933 
L 171.71852 -123.598562 
L 173.34995 -180.034594 
L 174.98138 -97.450683 
L 176.61281 -93.292193 
L 178.244239 -169.651288 
L 179.875669 -192.28221 
L 181.507099 -162.190797 
L 183.138529 -130.224281 
L 184.769959 -126.025441 
L 186.401389 -85.331144 
L 188.032819 -143.599602 
L 189.664249 -132.956132 
L 191.295678 -165.627592 
L 192.927108 -158.848605 
L 194.558538 -146.329952 
L 196.189968 -188.812766 
L 197.821398 -185.070188 
L 199.452828 -75.113072 
L 201.084258 -174.71224 
L 202.715688 -201.482465 
L 204.347117 -93.249004 
L 205.978547 -129.294321 
L 207.609977 -151.015156 
L 209.241407 -85.212061 
L 210.872837 -123.659202 
L 212.504267 -206.176881 
L 214.135697 -139.634563 
L 215.767127 -147.378305 
L 217.398556 -162.151574 
L 219.029986 -159.304425 
L 220.661416 -229.338199 
L 222.292846 -170.453222 
L 223.924276 -157.138213 
L 225.555706 -184.329643 
L 227.187136 -138.96778 
L 228.818566 -160.469394 
L 230.449995 -145.789094 
L 232.081425 -50.112 
L 233.712855 -176.341373 
L 235.344285 -165.880811 
L 236.975715 -135.669489 
L 238.607145 -209.159873 
L 240.238575 -169.87351 
L 241.870005 -202.193764 
L 243.501434 -161.726233 
L 245.132864 -136.005195 
L 246.764294 -208.397576 
L 248.395724 -128.442878 
L 250.027154 -177.229786 
L 251.658584 -123.221821 
L 253.290014 -174.461057 
L 254.921444 -151.362691 
L 256.552873 -118.890221 
L 258.184303 -152.562768 
L 259.815733 -107.294414 
L 261.447163 -130.888508 
L 263.078593 -147.585179 
L 264.710023 -207.579266 
L 266.341453 -124.866396 
L 267.972883 -189.251267 
L 269.604312 -125.534052 
L 271.235742 -138.434676 
L 272.867172 -94.786466 
L 274.498602 -167.675159 
L 276.130032 -56.390069 
L 277.761462 -183.020004 
L 279.392892 -206.008325 
L 281.024322 -195.491366 
L 282.655751 -206.314666 
L 284.287181 -195.425212 
L 285.918611 -154.595757 
L 287.550041 -155.636821 
L 289.181471 -205.832023 
L 290.812901 -57.334333 
L 292.444331 -159.803118 
L 294.075761 -169.60284 
L 295.70719 -186.126492 
L 297.33862 -163.307333 
L 298.97005 -203.189223 
L 300.60148 -197.17909 
L 302.23291 -146.488514 
L 303.86434 -196.834212 
L 305.49577 -163.390282 
L 307.1272 -140.142655 
L 308.75863 -130.621592 
L 310.390059 -126.806989 
L 312.021489 -139.163818 
L 313.652919 -206.851536 
L 315.284349 -145.633562 
L 316.915779 -168.958834 
L 318.547209 -213.471248 
L 320.178639 -122.39959 
L 321.810069 -119.591749 
L 323.441498 -104.263041 
L 325.072928 -156.219762 
L 326.704358 -145.930942 
L 328.335788 -174.369631 
L 329.967218 -166.518477 
L 331.598648 -141.012313 
L 333.230078 -195.407274 
L 334.861508 -154.803088 
L 336.492937 -150.586139 
L 338.124367 -124.728277 
L 339.755797 -132.791806 
L 341.387227 -165.788994 
L 343.018657 -185.55147 
L 344.650087 -168.99688 
L 346.281517 -87.496092 
L 347.912947 -177.476221 
L 349.544376 -144.74946 
L 351.175806 -101.013224 
L 352.807236 -139.804379 
L 354.438666 -135.47848 
L 356.070096 -126.708076 
L 357.701526 -162.510257 
L 359.332956 -151.528722 
L 360.964386 -187.348692 
L 362.595815 -181.36737 
L 364.227245 -194.555131 
L 365.858675 -214.380336 
L 367.490105 -101.105856 
L 369.121535 -100.59752 
L 370.752965 -177.764939 
L 372.384395 -128.296014 
L 374.015825 -212.84662 
L 375.647254 -142.488225 
L 377.278684 -179.131543 
L 378.910114 -94.119188 
L 380.541544 -143.536148 
L 382.172974 -86.292553 
L 383.804404 -125.05417 
L 385.435834 -176.4389 
L 387.067264 -108.265577 
L 388.698693 -170.949347 
L 390.330123 -112.197994 
L 391.961553 -153.616481 
L 393.592983 -118.077716 
L 395.224413 -157.834568 
L 396.855843 -152.783055 
L 398.487273 -113.999112 
L 398.487273 -251.93304 
L 398.487273 -251.93304 
L 396.855843 -223.665568 
L 395.224413 -224.77171 
L 393.592983 -220.49859 
L 391.961553 -256.833718 
L 390.330123 -289.089481 
L 388.698693 -250.03985 
L 387.067264 -214.718459 
L 385.435834 -268.502798 
L 383.804404 -246.162864 
L 382.172974 -254.521667 
L 380.541544 -230.452866 
L 378.910114 -240.672626 
L 377.278684 -275.721481 
L 375.647254 -222.891821 
L 374.015825 -246.764263 
L 372.384395 -236.135409 
L 370.752965 -260.856069 
L 369.121535 -247.54081 
L 367.490105 -183.158572 
L 365.858675 -270.846015 
L 364.227245 -243.225148 
L 362.595815 -255.496898 
L 360.964386 -265.353176 
L 359.332956 -240.977662 
L 357.701526 -244.612985 
L 356.070096 -240.643503 
L 354.438666 -260.945828 
L 352.807236 -247.061343 
L 351.175806 -227.012182 
L 349.544376 -245.565713 
L 347.912947 -272.178536 
L 346.281517 -265.664603 
L 344.650087 -237.502469 
L 343.018657 -242.734481 
L 341.387227 -280.513751 
L 339.755797 -248.417516 
L 338.124367 -247.049073 
L 336.492937 -222.383545 
L 334.861508 -235.170395 
L 333.230078 -259.55762 
L 331.598648 -189.778766 
L 329.967218 -269.778599 
L 328.335788 -264.166921 
L 326.704358 -253.826431 
L 325.072928 -256.656581 
L 323.441498 -244.021306 
L 321.810069 -244.220041 
L 320.178639 -270.44104 
L 318.547209 -257.419112 
L 316.915779 -230.977564 
L 315.284349 -248.591014 
L 313.652919 -264.178335 
L 312.021489 -236.828574 
L 310.390059 -216.615923 
L 308.75863 -215.64574 
L 307.1272 -202.281722 
L 305.49577 -257.191972 
L 303.86434 -240.556055 
L 302.23291 -246.655228 
L 300.60148 -262.959014 
L 298.97005 -242.738625 
L 297.33862 -254.582483 
L 295.70719 -223.673338 
L 294.075761 -252.794136 
L 292.444331 -242.393949 
L 290.812901 -217.624253 
L 289.181471 -280.321049 
L 287.550041 -247.179054 
L 285.918611 -250.062083 
L 284.287181 -267.782786 
L 282.655751 -227.208441 
L 281.024322 -246.255727 
L 279.392892 -254.888695 
L 277.761462 -246.483678 
L 276.130032 -221.52833 
L 274.498602 -255.100494 
L 272.867172 -255.648979 
L 271.235742 -191.826881 
L 269.604312 -236.272542 
L 267.972883 -280.192708 
L 266.341453 -251.722447 
L 264.710023 -245.4181 
L 263.078593 -253.060109 
L 261.447163 -235.198808 
L 259.815733 -254.220318 
L 258.184303 -255.656449 
L 256.552873 -244.917308 
L 254.921444 -224.395962 
L 253.290014 -260.028315 
L 251.658584 -220.957876 
L 250.027154 -239.196287 
L 248.395724 -268.818809 
L 246.764294 -250.054778 
L 245.132864 -235.078436 
L 243.501434 -245.40735 
L 241.870005 -259.093068 
L 240.238575 -273.515244 
L 238.607145 -261.132588 
L 236.975715 -195.093467 
L 235.344285 -274.919023 
L 233.712855 -246.524531 
L 232.081425 -207.450247 
L 230.449995 -258.948742 
L 228.818566 -233.546298 
L 227.187136 -267.451232 
L 225.555706 -243.391957 
L 223.924276 -253.667539 
L 222.292846 -258.688714 
L 220.661416 -260.707031 
L 219.029986 -254.530171 
L 217.398556 -217.176752 
L 215.767127 -212.730409 
L 214.135697 -260.169825 
L 212.504267 -256.00281 
L 210.872837 -238.515557 
L 209.241407 -214.51612 
L 207.609977 -267.16709 
L 205.978547 -248.853147 
L 204.347117 -246.54651 
L 202.715688 -254.101976 
L 201.084258 -278.746527 
L 199.452828 -224.646528 
L 197.821398 -247.180362 
L 196.189968 -272.64065 
L 194.558538 -263.615041 
L 192.927108 -232.950424 
L 191.295678 -263.333159 
L 189.664249 -249.430696 
L 188.032819 -234.02965 
L 186.401389 -285.195693 
L 184.769959 -213.650761 
L 183.138529 -235.072444 
L 181.507099 -214.107405 
L 179.875669 -239.730566 
L 178.244239 -232.784007 
L 176.61281 -236.162979 
L 174.98138 -204.074067 
L 173.34995 -259.071905 
L 171.71852 -263.335367 
L 170.08709 -264.692419 
L 168.45566 -244.266121 
L 166.82423 -253.840112 
L 165.1928 -250.44158 
L 163.56137 -212.246093 
L 161.929941 -260.761505 
L 160.298511 -239.168671 
L 158.667081 -270.639278 
L 157.035651 -248.3894 
L 155.404221 -254.183933 
L 153.772791 -247.077894 
L 152.141361 -264.706916 
L 150.509931 -236.619006 
L 148.878502 -258.056785 
L 147.247072 -239.060614 
L 145.615642 -237.419039 
L 143.984212 -257.230826 
L 142.352782 -247.287105 
L 140.721352 -263.856004 
L 139.089922 -217.955267 
L 137.458492 -266.114913 
L 135.827063 -239.706718 
L 134.195633 -276.365191 
L 132.564203 -275.753099 
L 130.932773 -254.212902 
L 129.301343 -234.991003 
L 127.669913 -225.94588 
L 126.038483 -244.974675 
L 124.407053 -251.687694 
L 122.775624 -269.260729 
L 121.144194 -292.032 
L 119.512764 -261.956096 
L 117.881334 -260.11733 
L 116.249904 -242.848932 
L 114.618474 -234.728054 
L 112.987044 -257.054421 
L 111.355614 -259.780298 
L 109.724185 -248.421125 
L 108.092755 -240.842499 
L 106.461325 -214.470167 
L 104.829895 -271.601949 
L 103.198465 -253.404306 
L 101.567035 -258.698663 
L 99.935605 -232.701872 
L 98.304175 -211.598483 
L 96.672746 -238.289619 
L 95.041316 -266.037328 
L 93.409886 -234.157152 
L 91.778456 -249.529748 
L 90.147026 -228.919884 
L 88.515596 -261.431257 
L 86.884166 -267.533953 
L 85.252736 -242.646163 
L 83.621307 -257.127024 
L 81.989877 -260.045082 
L 80.358447 -242.594754 
L 78.727017 -192.056088 
L 77.095587 -231.837386 
L 75.464157 -234.579422 
L 73.832727 -259.099424 
z
" style="stroke: #ffffff; stroke-opacity: 0.2"/>
    </defs>
    <g clip-path="url(#p01e1c2577f)">
     <use xlink:href="#m69988a4646" x="0" y="345.6" style="fill: #1f77b4; fill-opacity: 0.2; stroke: #ffffff; stroke-opacity: 0.2"/>
    </g>
   </g>
   <g id="line2d_14">
    <path d="M 73.832727 153.028891 
L 75.464157 138.919112 
L 77.095587 145.713104 
L 78.727017 163.463035 
L 80.358447 131.78113 
L 81.989877 151.435779 
L 83.621307 144.689257 
L 85.252736 152.317274 
L 86.884166 120.958934 
L 88.515596 145.889715 
L 90.147026 180.003617 
L 91.778456 133.370208 
L 93.409886 153.201298 
L 95.041316 123.045718 
L 96.672746 141.690709 
L 98.304175 175.759882 
L 99.935605 154.476867 
L 101.567035 116.83403 
L 103.198465 126.239129 
L 104.829895 115.695926 
L 106.461325 179.348106 
L 108.092755 162.418252 
L 109.724185 152.390609 
L 111.355614 155.867289 
L 112.987044 137.843591 
L 114.618474 152.398038 
L 116.249904 159.759363 
L 117.881334 141.709103 
L 119.512764 131.2207 
L 121.144194 100.153994 
L 122.775624 153.633751 
L 124.407053 144.266406 
L 126.038483 144.305893 
L 127.669913 169.202528 
L 129.301343 148.111834 
L 130.932773 123.667025 
L 132.564203 108.404343 
L 134.195633 107.889564 
L 135.827063 156.668745 
L 137.458492 117.897222 
L 139.089922 164.875587 
L 140.721352 155.273665 
L 142.352782 180.688104 
L 143.984212 135.973332 
L 145.615642 135.761836 
L 147.247072 127.085626 
L 148.878502 145.479421 
L 150.509931 169.435472 
L 152.141361 102.117886 
L 153.772791 131.495162 
L 155.404221 114.630405 
L 157.035651 148.661526 
L 158.667081 127.450155 
L 160.298511 163.213828 
L 161.929941 129.011933 
L 163.56137 178.69089 
L 165.1928 141.154469 
L 166.82423 135.876291 
L 168.45566 176.844238 
L 170.08709 136.418824 
L 171.71852 152.133035 
L 173.34995 126.046751 
L 174.98138 194.837625 
L 176.61281 180.872414 
L 178.244239 144.382353 
L 179.875669 129.593612 
L 181.507099 157.450899 
L 183.138529 162.951637 
L 184.769959 175.761899 
L 186.401389 160.336582 
L 188.032819 156.785374 
L 189.664249 154.406586 
L 191.295678 131.119625 
L 192.927108 149.700486 
L 194.558538 140.627503 
L 196.189968 114.873292 
L 197.821398 129.474725 
L 199.452828 195.7202 
L 201.084258 118.870617 
L 202.715688 117.80778 
L 204.347117 175.702243 
L 207.609977 136.508877 
L 209.241407 195.735909 
L 210.872837 164.51262 
L 212.504267 114.510154 
L 214.135697 145.697806 
L 215.767127 165.545643 
L 217.398556 155.935837 
L 219.029986 138.682702 
L 220.661416 100.577385 
L 222.292846 131.029032 
L 223.924276 140.197124 
L 225.555706 131.7392 
L 227.187136 142.390494 
L 228.818566 148.592154 
L 230.449995 143.231082 
L 232.081425 216.818877 
L 233.712855 134.167048 
L 235.344285 125.200083 
L 236.975715 180.218522 
L 238.607145 110.45377 
L 240.238575 123.905623 
L 241.870005 114.956584 
L 243.501434 142.033208 
L 245.132864 160.058185 
L 246.764294 116.373823 
L 248.395724 146.969157 
L 250.027154 137.386963 
L 251.658584 173.510152 
L 253.290014 128.355314 
L 254.921444 157.720674 
L 256.552873 163.696235 
L 258.184303 141.490391 
L 259.815733 164.842634 
L 261.447163 162.556342 
L 263.078593 145.277356 
L 264.710023 119.101317 
L 266.341453 157.305578 
L 267.972883 110.878013 
L 269.604312 164.696703 
L 271.235742 180.469221 
L 272.867172 170.382277 
L 274.498602 134.212174 
L 276.130032 206.6408 
L 277.761462 130.848159 
L 279.392892 115.15149 
L 281.024322 124.726453 
L 282.655751 128.838446 
L 284.287181 113.996001 
L 285.918611 143.27108 
L 287.550041 144.192063 
L 289.181471 102.523464 
L 290.812901 208.120707 
L 292.444331 144.501467 
L 294.075761 134.401512 
L 295.70719 140.700085 
L 297.33862 136.655092 
L 298.97005 122.636076 
L 300.60148 115.530948 
L 302.23291 149.028129 
L 303.86434 126.904866 
L 305.49577 135.308873 
L 307.1272 174.387812 
L 308.75863 172.466334 
L 310.390059 173.888544 
L 312.021489 157.603804 
L 313.652919 110.085064 
L 315.284349 148.487712 
L 316.915779 145.631801 
L 318.547209 110.15482 
L 320.178639 149.179685 
L 321.810069 163.694105 
L 323.441498 171.457827 
L 325.072928 139.161829 
L 326.704358 145.721314 
L 328.335788 126.331724 
L 329.967218 127.451462 
L 331.598648 180.20446 
L 333.230078 118.117553 
L 334.861508 150.613258 
L 336.492937 159.115158 
L 338.124367 159.711325 
L 339.755797 154.995339 
L 341.387227 122.448627 
L 343.018657 131.457025 
L 344.650087 142.350325 
L 346.281517 169.019652 
L 347.912947 120.772621 
L 351.175806 181.587297 
L 352.807236 152.167139 
L 354.438666 147.387846 
L 356.070096 161.924211 
L 357.701526 142.038379 
L 359.332956 149.346808 
L 360.964386 119.249066 
L 362.595815 127.167866 
L 364.227245 126.709861 
L 365.858675 102.986825 
L 367.490105 203.467786 
L 369.121535 171.530835 
L 370.752965 126.289496 
L 372.384395 163.384289 
L 374.015825 115.794558 
L 375.647254 162.909977 
L 377.278684 118.173488 
L 378.910114 178.204093 
L 380.541544 158.605493 
L 382.172974 175.19289 
L 383.804404 159.991483 
L 385.435834 123.129151 
L 387.067264 184.107982 
L 388.698693 135.105402 
L 390.330123 144.956262 
L 391.961553 140.374901 
L 393.592983 176.311847 
L 395.224413 154.296861 
L 396.855843 157.375689 
L 398.487273 162.633924 
L 398.487273 162.633924 
" clip-path="url(#p01e1c2577f)" style="fill: none; stroke: #1f77b4; stroke-width: 1.5; stroke-linecap: round"/>
   </g>
   <g id="LineCollection_1">
    <path d="M 398.487273 295.488 
L 398.487273 53.568 
" clip-path="url(#p01e1c2577f)" style="fill: none; stroke-dasharray: 5.55,2.4; stroke-dashoffset: 0; stroke: #1f77b4; stroke-width: 1.5"/>
   </g>
   <g id="patch_3">
    <path d="M 57.6 307.584 
L 57.6 41.472 
" style="fill: none; stroke: #cccccc; stroke-width: 0.8; stroke-linejoin: miter; stroke-linecap: square"/>
   </g>
   <g id="patch_4">
    <path d="M 414.72 307.584 
L 414.72 41.472 
" style="fill: none; stroke: #cccccc; stroke-width: 0.8; stroke-linejoin: miter; stroke-linecap: square"/>
   </g>
   <g id="patch_5">
    <path d="M 57.6 307.584 
L 414.72 307.584 
" style="fill: none; stroke: #cccccc; stroke-width: 0.8; stroke-linejoin: miter; stroke-linecap: square"/>
   </g>
   <g id="patch_6">
    <path d="M 57.6 41.472 
L 414.72 41.472 
" style="fill: none; stroke: #cccccc; stroke-width: 0.8; stroke-linejoin: miter; stroke-linecap: square"/>
   </g>
   <g id="text_16">
    <!-- Model performance vs. # of iterations -->
    <g style="fill: #262626" transform="translate(122.314688 35.472)scale(0.12 -0.12)">
     <defs>
      <path id="DejaVuSans-4d" d="M 628 4666 
L 1569 4666 
L 2759 1491 
L 3956 4666 
L 4897 4666 
L 4897 0 
L 4281 0 
L 4281 4097 
L 3078 897 
L 2444 897 
L 1241 4097 
L 1241 0 
L 628 0 
L 628 4666 
z
" transform="scale(0.015625)"/>
      <path id="DejaVuSans-64" d="M 2906 2969 
L 2906 4863 
L 3481 4863 
L 3481 0 
L 2906 0 
L 2906 525 
Q 2725 213 2448 61 
Q 2172 -91 1784 -91 
Q 1150 -91 751 415 
Q 353 922 353 1747 
Q 353 2572 751 3078 
Q 1150 3584 1784 3584 
Q 2172 3584 2448 3432 
Q 2725 3281 2906 2969 
z
M 947 1747 
Q 947 1113 1208 752 
Q 1469 391 1925 391 
Q 2381 391 2643 752 
Q 2906 1113 2906 1747 
Q 2906 2381 2643 2742 
Q 2381 3103 1925 3103 
Q 1469 3103 1208 2742 
Q 947 2381 947 1747 
z
" transform="scale(0.015625)"/>
      <path id="DejaVuSans-6c" d="M 603 4863 
L 1178 4863 
L 1178 0 
L 603 0 
L 603 4863 
z
" transform="scale(0.015625)"/>
      <path id="DejaVuSans-20" transform="scale(0.015625)"/>
      <path id="DejaVuSans-70" d="M 1159 525 
L 1159 -1331 
L 581 -1331 
L 581 3500 
L 1159 3500 
L 1159 2969 
Q 1341 3281 1617 3432 
Q 1894 3584 2278 3584 
Q 2916 3584 3314 3078 
Q 3713 2572 3713 1747 
Q 3713 922 3314 415 
Q 2916 -91 2278 -91 
Q 1894 -91 1617 61 
Q 1341 213 1159 525 
z
M 3116 1747 
Q 3116 2381 2855 2742 
Q 2594 3103 2138 3103 
Q 1681 3103 1420 2742 
Q 1159 2381 1159 1747 
Q 1159 1113 1420 752 
Q 1681 391 2138 391 
Q 2594 391 2855 752 
Q 3116 1113 3116 1747 
z
" transform="scale(0.015625)"/>
      <path id="DejaVuSans-66" d="M 2375 4863 
L 2375 4384 
L 1825 4384 
Q 1516 4384 1395 4259 
Q 1275 4134 1275 3809 
L 1275 3500 
L 2222 3500 
L 2222 3053 
L 1275 3053 
L 1275 0 
L 697 0 
L 697 3053 
L 147 3053 
L 147 3500 
L 697 3500 
L 697 3744 
Q 697 4328 969 4595 
Q 1241 4863 1831 4863 
L 2375 4863 
z
" transform="scale(0.015625)"/>
      <path id="DejaVuSans-6d" d="M 3328 2828 
Q 3544 3216 3844 3400 
Q 4144 3584 4550 3584 
Q 5097 3584 5394 3201 
Q 5691 2819 5691 2113 
L 5691 0 
L 5113 0 
L 5113 2094 
Q 5113 2597 4934 2840 
Q 4756 3084 4391 3084 
Q 3944 3084 3684 2787 
Q 3425 2491 3425 1978 
L 3425 0 
L 2847 0 
L 2847 2094 
Q 2847 2600 2669 2842 
Q 2491 3084 2119 3084 
Q 1678 3084 1418 2786 
Q 1159 2488 1159 1978 
L 1159 0 
L 581 0 
L 581 3500 
L 1159 3500 
L 1159 2956 
Q 1356 3278 1631 3431 
Q 1906 3584 2284 3584 
Q 2666 3584 2933 3390 
Q 3200 3197 3328 2828 
z
" transform="scale(0.015625)"/>
      <path id="DejaVuSans-76" d="M 191 3500 
L 800 3500 
L 1894 563 
L 2988 3500 
L 3597 3500 
L 2284 0 
L 1503 0 
L 191 3500 
z
" transform="scale(0.015625)"/>
      <path id="DejaVuSans-73" d="M 2834 3397 
L 2834 2853 
Q 2591 2978 2328 3040 
Q 2066 3103 1784 3103 
Q 1356 3103 1142 2972 
Q 928 2841 928 2578 
Q 928 2378 1081 2264 
Q 1234 2150 1697 2047 
L 1894 2003 
Q 2506 1872 2764 1633 
Q 3022 1394 3022 966 
Q 3022 478 2636 193 
Q 2250 -91 1575 -91 
Q 1294 -91 989 -36 
Q 684 19 347 128 
L 347 722 
Q 666 556 975 473 
Q 1284 391 1588 391 
Q 1994 391 2212 530 
Q 2431 669 2431 922 
Q 2431 1156 2273 1281 
Q 2116 1406 1581 1522 
L 1381 1569 
Q 847 1681 609 1914 
Q 372 2147 372 2553 
Q 372 3047 722 3315 
Q 1072 3584 1716 3584 
Q 2034 3584 2315 3537 
Q 2597 3491 2834 3397 
z
" transform="scale(0.015625)"/>
      <path id="DejaVuSans-23" d="M 3272 2816 
L 2363 2816 
L 2100 1772 
L 3016 1772 
L 3272 2816 
z
M 2803 4594 
L 2478 3297 
L 3391 3297 
L 3719 4594 
L 4219 4594 
L 3897 3297 
L 4872 3297 
L 4872 2816 
L 3775 2816 
L 3519 1772 
L 4513 1772 
L 4513 1294 
L 3397 1294 
L 3072 0 
L 2572 0 
L 2894 1294 
L 1978 1294 
L 1656 0 
L 1153 0 
L 1478 1294 
L 494 1294 
L 494 1772 
L 1594 1772 
L 1856 2816 
L 850 2816 
L 850 3297 
L 1978 3297 
L 2297 4594 
L 2803 4594 
z
" transform="scale(0.015625)"/>
     </defs>
     <use xlink:href="#DejaVuSans-4d"/>
     <use xlink:href="#DejaVuSans-6f" x="86.279297"/>
     <use xlink:href="#DejaVuSans-64" x="147.460938"/>
     <use xlink:href="#DejaVuSans-65" x="210.9375"/>
     <use xlink:href="#DejaVuSans-6c" x="272.460938"/>
     <use xlink:href="#DejaVuSans-20" x="300.244141"/>
     <use xlink:href="#DejaVuSans-70" x="332.03125"/>
     <use xlink:href="#DejaVuSans-65" x="395.507812"/>
     <use xlink:href="#DejaVuSans-72" x="457.03125"/>
     <use xlink:href="#DejaVuSans-66" x="498.144531"/>
     <use xlink:href="#DejaVuSans-6f" x="533.349609"/>
     <use xlink:href="#DejaVuSans-72" x="594.53125"/>
     <use xlink:href="#DejaVuSans-6d" x="633.894531"/>
     <use xlink:href="#DejaVuSans-61" x="731.306641"/>
     <use xlink:href="#DejaVuSans-6e" x="792.585938"/>
     <use xlink:href="#DejaVuSans-63" x="855.964844"/>
     <use xlink:href="#DejaVuSans-65" x="910.945312"/>
     <use xlink:href="#DejaVuSans-20" x="972.46875"/>
     <use xlink:href="#DejaVuSans-76" x="1004.255859"/>
     <use xlink:href="#DejaVuSans-73" x="1063.435547"/>
     <use xlink:href="#DejaVuSans-2e" x="1115.535156"/>
     <use xlink:href="#DejaVuSans-20" x="1147.322266"/>
     <use xlink:href="#DejaVuSans-23" x="1179.109375"/>
     <use xlink:href="#DejaVuSans-20" x="1262.898438"/>
     <use xlink:href="#DejaVuSans-6f" x="1294.685547"/>
     <use xlink:href="#DejaVuSans-66" x="1355.867188"/>
     <use xlink:href="#DejaVuSans-20" x="1391.072266"/>
     <use xlink:href="#DejaVuSans-69" x="1422.859375"/>
     <use xlink:href="#DejaVuSans-74" x="1450.642578"/>
     <use xlink:href="#DejaVuSans-65" x="1489.851562"/>
     <use xlink:href="#DejaVuSans-72" x="1551.375"/>
     <use xlink:href="#DejaVuSans-61" x="1592.488281"/>
     <use xlink:href="#DejaVuSans-74" x="1653.767578"/>
     <use xlink:href="#DejaVuSans-69" x="1692.976562"/>
     <use xlink:href="#DejaVuSans-6f" x="1720.759766"/>
     <use xlink:href="#DejaVuSans-6e" x="1781.941406"/>
     <use xlink:href="#DejaVuSans-73" x="1845.320312"/>
    </g>
   </g>
  </g>
 </g>
 <defs>
  <clipPath id="p01e1c2577f">
   <rect x="57.6" y="41.472" width="357.12" height="266.112"/>
  </clipPath>
 </defs>
</svg>
