<?xml version="1.0" encoding="utf-8" standalone="no"?>
<!DOCTYPE svg PUBLIC "-//W3C//DTD SVG 1.1//EN"
  "http://www.w3.org/Graphics/SVG/1.1/DTD/svg11.dtd">
<svg xmlns:xlink="http://www.w3.org/1999/xlink" width="460.8pt" height="345.6pt" viewBox="0 0 460.8 345.6" xmlns="http://www.w3.org/2000/svg" version="1.1">
 <metadata>
  <rdf:RDF xmlns:dc="http://purl.org/dc/elements/1.1/" xmlns:cc="http://creativecommons.org/ns#" xmlns:rdf="http://www.w3.org/1999/02/22-rdf-syntax-ns#">
   <cc:Work>
    <dc:type rdf:resource="http://purl.org/dc/dcmitype/StillImage"/>
    <dc:date>2022-05-31T00:31:18.585984</dc:date>
    <dc:format>image/svg+xml</dc:format>
    <dc:creator>
     <cc:Agent>
      <dc:title>Matplotlib v3.5.2, https://matplotlib.org/</dc:title>
     </cc:Agent>
    </dc:creator>
   </cc:Work>
  </rdf:RDF>
 </metadata>
 <defs>
  <style type="text/css">*{stroke-linejoin: round; stroke-linecap: butt}</style>
 </defs>
 <g id="figure_1">
  <g id="patch_1">
   <path d="M 0 345.6 
L 460.8 345.6 
L 460.8 0 
L 0 0 
z
" style="fill: #ffffff"/>
  </g>
  <g id="axes_1">
   <g id="patch_2">
    <path d="M 57.6 307.584 
L 414.72 307.584 
L 414.72 41.472 
L 57.6 41.472 
z
" style="fill: #ffffff"/>
   </g>
   <g id="matplotlib.axis_1">
    <g id="xtick_1">
     <g id="line2d_1">
      <path d="M 72.201297 307.584 
L 72.201297 41.472 
" clip-path="url(#p06a13426c4)" style="fill: none; stroke: #cccccc; stroke-width: 0.8; stroke-linecap: round"/>
     </g>
     <g id="text_1">
      <!-- 0 -->
      <g style="fill: #262626" transform="translate(69.020047 322.182437)scale(0.1 -0.1)">
       <defs>
        <path id="DejaVuSans-30" d="M 2034 4250 
Q 1547 4250 1301 3770 
Q 1056 3291 1056 2328 
Q 1056 1369 1301 889 
Q 1547 409 2034 409 
Q 2525 409 2770 889 
Q 3016 1369 3016 2328 
Q 3016 3291 2770 3770 
Q 2525 4250 2034 4250 
z
M 2034 4750 
Q 2819 4750 3233 4129 
Q 3647 3509 3647 2328 
Q 3647 1150 3233 529 
Q 2819 -91 2034 -91 
Q 1250 -91 836 529 
Q 422 1150 422 2328 
Q 422 3509 836 4129 
Q 1250 4750 2034 4750 
z
" transform="scale(0.015625)"/>
       </defs>
       <use xlink:href="#DejaVuSans-30"/>
      </g>
     </g>
    </g>
    <g id="xtick_2">
     <g id="line2d_2">
      <path d="M 112.987044 307.584 
L 112.987044 41.472 
" clip-path="url(#p06a13426c4)" style="fill: none; stroke: #cccccc; stroke-width: 0.8; stroke-linecap: round"/>
     </g>
     <g id="text_2">
      <!-- 25 -->
      <g style="fill: #262626" transform="translate(106.624544 322.182437)scale(0.1 -0.1)">
       <defs>
        <path id="DejaVuSans-32" d="M 1228 531 
L 3431 531 
L 3431 0 
L 469 0 
L 469 531 
Q 828 903 1448 1529 
Q 2069 2156 2228 2338 
Q 2531 2678 2651 2914 
Q 2772 3150 2772 3378 
Q 2772 3750 2511 3984 
Q 2250 4219 1831 4219 
Q 1534 4219 1204 4116 
Q 875 4013 500 3803 
L 500 4441 
Q 881 4594 1212 4672 
Q 1544 4750 1819 4750 
Q 2544 4750 2975 4387 
Q 3406 4025 3406 3419 
Q 3406 3131 3298 2873 
Q 3191 2616 2906 2266 
Q 2828 2175 2409 1742 
Q 1991 1309 1228 531 
z
" transform="scale(0.015625)"/>
        <path id="DejaVuSans-35" d="M 691 4666 
L 3169 4666 
L 3169 4134 
L 1269 4134 
L 1269 2991 
Q 1406 3038 1543 3061 
Q 1681 3084 1819 3084 
Q 2600 3084 3056 2656 
Q 3513 2228 3513 1497 
Q 3513 744 3044 326 
Q 2575 -91 1722 -91 
Q 1428 -91 1123 -41 
Q 819 9 494 109 
L 494 744 
Q 775 591 1075 516 
Q 1375 441 1709 441 
Q 2250 441 2565 725 
Q 2881 1009 2881 1497 
Q 2881 1984 2565 2268 
Q 2250 2553 1709 2553 
Q 1456 2553 1204 2497 
Q 953 2441 691 2322 
L 691 4666 
z
" transform="scale(0.015625)"/>
       </defs>
       <use xlink:href="#DejaVuSans-32"/>
       <use xlink:href="#DejaVuSans-35" x="63.623047"/>
      </g>
     </g>
    </g>
    <g id="xtick_3">
     <g id="line2d_3">
      <path d="M 153.772791 307.584 
L 153.772791 41.472 
" clip-path="url(#p06a13426c4)" style="fill: none; stroke: #cccccc; stroke-width: 0.8; stroke-linecap: round"/>
     </g>
     <g id="text_3">
      <!-- 50 -->
      <g style="fill: #262626" transform="translate(147.410291 322.182437)scale(0.1 -0.1)">
       <use xlink:href="#DejaVuSans-35"/>
       <use xlink:href="#DejaVuSans-30" x="63.623047"/>
      </g>
     </g>
    </g>
    <g id="xtick_4">
     <g id="line2d_4">
      <path d="M 194.558538 307.584 
L 194.558538 41.472 
" clip-path="url(#p06a13426c4)" style="fill: none; stroke: #cccccc; stroke-width: 0.8; stroke-linecap: round"/>
     </g>
     <g id="text_4">
      <!-- 75 -->
      <g style="fill: #262626" transform="translate(188.196038 322.182437)scale(0.1 -0.1)">
       <defs>
        <path id="DejaVuSans-37" d="M 525 4666 
L 3525 4666 
L 3525 4397 
L 1831 0 
L 1172 0 
L 2766 4134 
L 525 4134 
L 525 4666 
z
" transform="scale(0.015625)"/>
       </defs>
       <use xlink:href="#DejaVuSans-37"/>
       <use xlink:href="#DejaVuSans-35" x="63.623047"/>
      </g>
     </g>
    </g>
    <g id="xtick_5">
     <g id="line2d_5">
      <path d="M 235.344285 307.584 
L 235.344285 41.472 
" clip-path="url(#p06a13426c4)" style="fill: none; stroke: #cccccc; stroke-width: 0.8; stroke-linecap: round"/>
     </g>
     <g id="text_5">
      <!-- 100 -->
      <g style="fill: #262626" transform="translate(225.800535 322.182437)scale(0.1 -0.1)">
       <defs>
        <path id="DejaVuSans-31" d="M 794 531 
L 1825 531 
L 1825 4091 
L 703 3866 
L 703 4441 
L 1819 4666 
L 2450 4666 
L 2450 531 
L 3481 531 
L 3481 0 
L 794 0 
L 794 531 
z
" transform="scale(0.015625)"/>
       </defs>
       <use xlink:href="#DejaVuSans-31"/>
       <use xlink:href="#DejaVuSans-30" x="63.623047"/>
       <use xlink:href="#DejaVuSans-30" x="127.246094"/>
      </g>
     </g>
    </g>
    <g id="xtick_6">
     <g id="line2d_6">
      <path d="M 276.130032 307.584 
L 276.130032 41.472 
" clip-path="url(#p06a13426c4)" style="fill: none; stroke: #cccccc; stroke-width: 0.8; stroke-linecap: round"/>
     </g>
     <g id="text_6">
      <!-- 125 -->
      <g style="fill: #262626" transform="translate(266.586282 322.182437)scale(0.1 -0.1)">
       <use xlink:href="#DejaVuSans-31"/>
       <use xlink:href="#DejaVuSans-32" x="63.623047"/>
       <use xlink:href="#DejaVuSans-35" x="127.246094"/>
      </g>
     </g>
    </g>
    <g id="xtick_7">
     <g id="line2d_7">
      <path d="M 316.915779 307.584 
L 316.915779 41.472 
" clip-path="url(#p06a13426c4)" style="fill: none; stroke: #cccccc; stroke-width: 0.8; stroke-linecap: round"/>
     </g>
     <g id="text_7">
      <!-- 150 -->
      <g style="fill: #262626" transform="translate(307.372029 322.182437)scale(0.1 -0.1)">
       <use xlink:href="#DejaVuSans-31"/>
       <use xlink:href="#DejaVuSans-35" x="63.623047"/>
       <use xlink:href="#DejaVuSans-30" x="127.246094"/>
      </g>
     </g>
    </g>
    <g id="xtick_8">
     <g id="line2d_8">
      <path d="M 357.701526 307.584 
L 357.701526 41.472 
" clip-path="url(#p06a13426c4)" style="fill: none; stroke: #cccccc; stroke-width: 0.8; stroke-linecap: round"/>
     </g>
     <g id="text_8">
      <!-- 175 -->
      <g style="fill: #262626" transform="translate(348.157776 322.182437)scale(0.1 -0.1)">
       <use xlink:href="#DejaVuSans-31"/>
       <use xlink:href="#DejaVuSans-37" x="63.623047"/>
       <use xlink:href="#DejaVuSans-35" x="127.246094"/>
      </g>
     </g>
    </g>
    <g id="xtick_9">
     <g id="line2d_9">
      <path d="M 398.487273 307.584 
L 398.487273 41.472 
" clip-path="url(#p06a13426c4)" style="fill: none; stroke: #cccccc; stroke-width: 0.8; stroke-linecap: round"/>
     </g>
     <g id="text_9">
      <!-- 200 -->
      <g style="fill: #262626" transform="translate(388.943523 322.182437)scale(0.1 -0.1)">
       <use xlink:href="#DejaVuSans-32"/>
       <use xlink:href="#DejaVuSans-30" x="63.623047"/>
       <use xlink:href="#DejaVuSans-30" x="127.246094"/>
      </g>
     </g>
    </g>
    <g id="text_10">
     <!-- Iteration -->
     <g style="fill: #262626" transform="translate(214.951406 335.860562)scale(0.1 -0.1)">
      <defs>
       <path id="DejaVuSans-49" d="M 628 4666 
L 1259 4666 
L 1259 0 
L 628 0 
L 628 4666 
z
" transform="scale(0.015625)"/>
       <path id="DejaVuSans-74" d="M 1172 4494 
L 1172 3500 
L 2356 3500 
L 2356 3053 
L 1172 3053 
L 1172 1153 
Q 1172 725 1289 603 
Q 1406 481 1766 481 
L 2356 481 
L 2356 0 
L 1766 0 
Q 1100 0 847 248 
Q 594 497 594 1153 
L 594 3053 
L 172 3053 
L 172 3500 
L 594 3500 
L 594 4494 
L 1172 4494 
z
" transform="scale(0.015625)"/>
       <path id="DejaVuSans-65" d="M 3597 1894 
L 3597 1613 
L 953 1613 
Q 991 1019 1311 708 
Q 1631 397 2203 397 
Q 2534 397 2845 478 
Q 3156 559 3463 722 
L 3463 178 
Q 3153 47 2828 -22 
Q 2503 -91 2169 -91 
Q 1331 -91 842 396 
Q 353 884 353 1716 
Q 353 2575 817 3079 
Q 1281 3584 2069 3584 
Q 2775 3584 3186 3129 
Q 3597 2675 3597 1894 
z
M 3022 2063 
Q 3016 2534 2758 2815 
Q 2500 3097 2075 3097 
Q 1594 3097 1305 2825 
Q 1016 2553 972 2059 
L 3022 2063 
z
" transform="scale(0.015625)"/>
       <path id="DejaVuSans-72" d="M 2631 2963 
Q 2534 3019 2420 3045 
Q 2306 3072 2169 3072 
Q 1681 3072 1420 2755 
Q 1159 2438 1159 1844 
L 1159 0 
L 581 0 
L 581 3500 
L 1159 3500 
L 1159 2956 
Q 1341 3275 1631 3429 
Q 1922 3584 2338 3584 
Q 2397 3584 2469 3576 
Q 2541 3569 2628 3553 
L 2631 2963 
z
" transform="scale(0.015625)"/>
       <path id="DejaVuSans-61" d="M 2194 1759 
Q 1497 1759 1228 1600 
Q 959 1441 959 1056 
Q 959 750 1161 570 
Q 1363 391 1709 391 
Q 2188 391 2477 730 
Q 2766 1069 2766 1631 
L 2766 1759 
L 2194 1759 
z
M 3341 1997 
L 3341 0 
L 2766 0 
L 2766 531 
Q 2569 213 2275 61 
Q 1981 -91 1556 -91 
Q 1019 -91 701 211 
Q 384 513 384 1019 
Q 384 1609 779 1909 
Q 1175 2209 1959 2209 
L 2766 2209 
L 2766 2266 
Q 2766 2663 2505 2880 
Q 2244 3097 1772 3097 
Q 1472 3097 1187 3025 
Q 903 2953 641 2809 
L 641 3341 
Q 956 3463 1253 3523 
Q 1550 3584 1831 3584 
Q 2591 3584 2966 3190 
Q 3341 2797 3341 1997 
z
" transform="scale(0.015625)"/>
       <path id="DejaVuSans-69" d="M 603 3500 
L 1178 3500 
L 1178 0 
L 603 0 
L 603 3500 
z
M 603 4863 
L 1178 4863 
L 1178 4134 
L 603 4134 
L 603 4863 
z
" transform="scale(0.015625)"/>
       <path id="DejaVuSans-6f" d="M 1959 3097 
Q 1497 3097 1228 2736 
Q 959 2375 959 1747 
Q 959 1119 1226 758 
Q 1494 397 1959 397 
Q 2419 397 2687 759 
Q 2956 1122 2956 1747 
Q 2956 2369 2687 2733 
Q 2419 3097 1959 3097 
z
M 1959 3584 
Q 2709 3584 3137 3096 
Q 3566 2609 3566 1747 
Q 3566 888 3137 398 
Q 2709 -91 1959 -91 
Q 1206 -91 779 398 
Q 353 888 353 1747 
Q 353 2609 779 3096 
Q 1206 3584 1959 3584 
z
" transform="scale(0.015625)"/>
       <path id="DejaVuSans-6e" d="M 3513 2113 
L 3513 0 
L 2938 0 
L 2938 2094 
Q 2938 2591 2744 2837 
Q 2550 3084 2163 3084 
Q 1697 3084 1428 2787 
Q 1159 2491 1159 1978 
L 1159 0 
L 581 0 
L 581 3500 
L 1159 3500 
L 1159 2956 
Q 1366 3272 1645 3428 
Q 1925 3584 2291 3584 
Q 2894 3584 3203 3211 
Q 3513 2838 3513 2113 
z
" transform="scale(0.015625)"/>
      </defs>
      <use xlink:href="#DejaVuSans-49"/>
      <use xlink:href="#DejaVuSans-74" x="29.492188"/>
      <use xlink:href="#DejaVuSans-65" x="68.701172"/>
      <use xlink:href="#DejaVuSans-72" x="130.224609"/>
      <use xlink:href="#DejaVuSans-61" x="171.337891"/>
      <use xlink:href="#DejaVuSans-74" x="232.617188"/>
      <use xlink:href="#DejaVuSans-69" x="271.826172"/>
      <use xlink:href="#DejaVuSans-6f" x="299.609375"/>
      <use xlink:href="#DejaVuSans-6e" x="360.791016"/>
     </g>
    </g>
   </g>
   <g id="matplotlib.axis_2">
    <g id="ytick_1">
     <g id="line2d_10">
      <path d="M 57.6 289.112024 
L 414.72 289.112024 
" clip-path="url(#p06a13426c4)" style="fill: none; stroke: #cccccc; stroke-width: 0.8; stroke-linecap: round"/>
     </g>
     <g id="text_11">
      <!-- 0.54 -->
      <g style="fill: #262626" transform="translate(28.334375 292.911243)scale(0.1 -0.1)">
       <defs>
        <path id="DejaVuSans-2e" d="M 684 794 
L 1344 794 
L 1344 0 
L 684 0 
L 684 794 
z
" transform="scale(0.015625)"/>
        <path id="DejaVuSans-34" d="M 2419 4116 
L 825 1625 
L 2419 1625 
L 2419 4116 
z
M 2253 4666 
L 3047 4666 
L 3047 1625 
L 3713 1625 
L 3713 1100 
L 3047 1100 
L 3047 0 
L 2419 0 
L 2419 1100 
L 313 1100 
L 313 1709 
L 2253 4666 
z
" transform="scale(0.015625)"/>
       </defs>
       <use xlink:href="#DejaVuSans-30"/>
       <use xlink:href="#DejaVuSans-2e" x="63.623047"/>
       <use xlink:href="#DejaVuSans-35" x="95.410156"/>
       <use xlink:href="#DejaVuSans-34" x="159.033203"/>
      </g>
     </g>
    </g>
    <g id="ytick_2">
     <g id="line2d_11">
      <path d="M 57.6 259.194499 
L 414.72 259.194499 
" clip-path="url(#p06a13426c4)" style="fill: none; stroke: #cccccc; stroke-width: 0.8; stroke-linecap: round"/>
     </g>
     <g id="text_12">
      <!-- 0.56 -->
      <g style="fill: #262626" transform="translate(28.334375 262.993718)scale(0.1 -0.1)">
       <defs>
        <path id="DejaVuSans-36" d="M 2113 2584 
Q 1688 2584 1439 2293 
Q 1191 2003 1191 1497 
Q 1191 994 1439 701 
Q 1688 409 2113 409 
Q 2538 409 2786 701 
Q 3034 994 3034 1497 
Q 3034 2003 2786 2293 
Q 2538 2584 2113 2584 
z
M 3366 4563 
L 3366 3988 
Q 3128 4100 2886 4159 
Q 2644 4219 2406 4219 
Q 1781 4219 1451 3797 
Q 1122 3375 1075 2522 
Q 1259 2794 1537 2939 
Q 1816 3084 2150 3084 
Q 2853 3084 3261 2657 
Q 3669 2231 3669 1497 
Q 3669 778 3244 343 
Q 2819 -91 2113 -91 
Q 1303 -91 875 529 
Q 447 1150 447 2328 
Q 447 3434 972 4092 
Q 1497 4750 2381 4750 
Q 2619 4750 2861 4703 
Q 3103 4656 3366 4563 
z
" transform="scale(0.015625)"/>
       </defs>
       <use xlink:href="#DejaVuSans-30"/>
       <use xlink:href="#DejaVuSans-2e" x="63.623047"/>
       <use xlink:href="#DejaVuSans-35" x="95.410156"/>
       <use xlink:href="#DejaVuSans-36" x="159.033203"/>
      </g>
     </g>
    </g>
    <g id="ytick_3">
     <g id="line2d_12">
      <path d="M 57.6 229.276973 
L 414.72 229.276973 
" clip-path="url(#p06a13426c4)" style="fill: none; stroke: #cccccc; stroke-width: 0.8; stroke-linecap: round"/>
     </g>
     <g id="text_13">
      <!-- 0.58 -->
      <g style="fill: #262626" transform="translate(28.334375 233.076192)scale(0.1 -0.1)">
       <defs>
        <path id="DejaVuSans-38" d="M 2034 2216 
Q 1584 2216 1326 1975 
Q 1069 1734 1069 1313 
Q 1069 891 1326 650 
Q 1584 409 2034 409 
Q 2484 409 2743 651 
Q 3003 894 3003 1313 
Q 3003 1734 2745 1975 
Q 2488 2216 2034 2216 
z
M 1403 2484 
Q 997 2584 770 2862 
Q 544 3141 544 3541 
Q 544 4100 942 4425 
Q 1341 4750 2034 4750 
Q 2731 4750 3128 4425 
Q 3525 4100 3525 3541 
Q 3525 3141 3298 2862 
Q 3072 2584 2669 2484 
Q 3125 2378 3379 2068 
Q 3634 1759 3634 1313 
Q 3634 634 3220 271 
Q 2806 -91 2034 -91 
Q 1263 -91 848 271 
Q 434 634 434 1313 
Q 434 1759 690 2068 
Q 947 2378 1403 2484 
z
M 1172 3481 
Q 1172 3119 1398 2916 
Q 1625 2713 2034 2713 
Q 2441 2713 2670 2916 
Q 2900 3119 2900 3481 
Q 2900 3844 2670 4047 
Q 2441 4250 2034 4250 
Q 1625 4250 1398 4047 
Q 1172 3844 1172 3481 
z
" transform="scale(0.015625)"/>
       </defs>
       <use xlink:href="#DejaVuSans-30"/>
       <use xlink:href="#DejaVuSans-2e" x="63.623047"/>
       <use xlink:href="#DejaVuSans-35" x="95.410156"/>
       <use xlink:href="#DejaVuSans-38" x="159.033203"/>
      </g>
     </g>
    </g>
    <g id="ytick_4">
     <g id="line2d_13">
      <path d="M 57.6 199.359448 
L 414.72 199.359448 
" clip-path="url(#p06a13426c4)" style="fill: none; stroke: #cccccc; stroke-width: 0.8; stroke-linecap: round"/>
     </g>
     <g id="text_14">
      <!-- 0.60 -->
      <g style="fill: #262626" transform="translate(28.334375 203.158667)scale(0.1 -0.1)">
       <use xlink:href="#DejaVuSans-30"/>
       <use xlink:href="#DejaVuSans-2e" x="63.623047"/>
       <use xlink:href="#DejaVuSans-36" x="95.410156"/>
       <use xlink:href="#DejaVuSans-30" x="159.033203"/>
      </g>
     </g>
    </g>
    <g id="ytick_5">
     <g id="line2d_14">
      <path d="M 57.6 169.441922 
L 414.72 169.441922 
" clip-path="url(#p06a13426c4)" style="fill: none; stroke: #cccccc; stroke-width: 0.8; stroke-linecap: round"/>
     </g>
     <g id="text_15">
      <!-- 0.62 -->
      <g style="fill: #262626" transform="translate(28.334375 173.241141)scale(0.1 -0.1)">
       <use xlink:href="#DejaVuSans-30"/>
       <use xlink:href="#DejaVuSans-2e" x="63.623047"/>
       <use xlink:href="#DejaVuSans-36" x="95.410156"/>
       <use xlink:href="#DejaVuSans-32" x="159.033203"/>
      </g>
     </g>
    </g>
    <g id="ytick_6">
     <g id="line2d_15">
      <path d="M 57.6 139.524397 
L 414.72 139.524397 
" clip-path="url(#p06a13426c4)" style="fill: none; stroke: #cccccc; stroke-width: 0.8; stroke-linecap: round"/>
     </g>
     <g id="text_16">
      <!-- 0.64 -->
      <g style="fill: #262626" transform="translate(28.334375 143.323615)scale(0.1 -0.1)">
       <use xlink:href="#DejaVuSans-30"/>
       <use xlink:href="#DejaVuSans-2e" x="63.623047"/>
       <use xlink:href="#DejaVuSans-36" x="95.410156"/>
       <use xlink:href="#DejaVuSans-34" x="159.033203"/>
      </g>
     </g>
    </g>
    <g id="ytick_7">
     <g id="line2d_16">
      <path d="M 57.6 109.606871 
L 414.72 109.606871 
" clip-path="url(#p06a13426c4)" style="fill: none; stroke: #cccccc; stroke-width: 0.8; stroke-linecap: round"/>
     </g>
     <g id="text_17">
      <!-- 0.66 -->
      <g style="fill: #262626" transform="translate(28.334375 113.40609)scale(0.1 -0.1)">
       <use xlink:href="#DejaVuSans-30"/>
       <use xlink:href="#DejaVuSans-2e" x="63.623047"/>
       <use xlink:href="#DejaVuSans-36" x="95.410156"/>
       <use xlink:href="#DejaVuSans-36" x="159.033203"/>
      </g>
     </g>
    </g>
    <g id="ytick_8">
     <g id="line2d_17">
      <path d="M 57.6 79.689346 
L 414.72 79.689346 
" clip-path="url(#p06a13426c4)" style="fill: none; stroke: #cccccc; stroke-width: 0.8; stroke-linecap: round"/>
     </g>
     <g id="text_18">
      <!-- 0.68 -->
      <g style="fill: #262626" transform="translate(28.334375 83.488564)scale(0.1 -0.1)">
       <use xlink:href="#DejaVuSans-30"/>
       <use xlink:href="#DejaVuSans-2e" x="63.623047"/>
       <use xlink:href="#DejaVuSans-36" x="95.410156"/>
       <use xlink:href="#DejaVuSans-38" x="159.033203"/>
      </g>
     </g>
    </g>
    <g id="ytick_9">
     <g id="line2d_18">
      <path d="M 57.6 49.77182 
L 414.72 49.77182 
" clip-path="url(#p06a13426c4)" style="fill: none; stroke: #cccccc; stroke-width: 0.8; stroke-linecap: round"/>
     </g>
     <g id="text_19">
      <!-- 0.70 -->
      <g style="fill: #262626" transform="translate(28.334375 53.571039)scale(0.1 -0.1)">
       <use xlink:href="#DejaVuSans-30"/>
       <use xlink:href="#DejaVuSans-2e" x="63.623047"/>
       <use xlink:href="#DejaVuSans-37" x="95.410156"/>
       <use xlink:href="#DejaVuSans-30" x="159.033203"/>
      </g>
     </g>
    </g>
    <g id="text_20">
     <!-- Auroc -->
     <g style="fill: #262626" transform="translate(22.254688 188.868625)rotate(-90)scale(0.1 -0.1)">
      <defs>
       <path id="DejaVuSans-41" d="M 2188 4044 
L 1331 1722 
L 3047 1722 
L 2188 4044 
z
M 1831 4666 
L 2547 4666 
L 4325 0 
L 3669 0 
L 3244 1197 
L 1141 1197 
L 716 0 
L 50 0 
L 1831 4666 
z
" transform="scale(0.015625)"/>
       <path id="DejaVuSans-75" d="M 544 1381 
L 544 3500 
L 1119 3500 
L 1119 1403 
Q 1119 906 1312 657 
Q 1506 409 1894 409 
Q 2359 409 2629 706 
Q 2900 1003 2900 1516 
L 2900 3500 
L 3475 3500 
L 3475 0 
L 2900 0 
L 2900 538 
Q 2691 219 2414 64 
Q 2138 -91 1772 -91 
Q 1169 -91 856 284 
Q 544 659 544 1381 
z
M 1991 3584 
L 1991 3584 
z
" transform="scale(0.015625)"/>
       <path id="DejaVuSans-63" d="M 3122 3366 
L 3122 2828 
Q 2878 2963 2633 3030 
Q 2388 3097 2138 3097 
Q 1578 3097 1268 2742 
Q 959 2388 959 1747 
Q 959 1106 1268 751 
Q 1578 397 2138 397 
Q 2388 397 2633 464 
Q 2878 531 3122 666 
L 3122 134 
Q 2881 22 2623 -34 
Q 2366 -91 2075 -91 
Q 1284 -91 818 406 
Q 353 903 353 1747 
Q 353 2603 823 3093 
Q 1294 3584 2113 3584 
Q 2378 3584 2631 3529 
Q 2884 3475 3122 3366 
z
" transform="scale(0.015625)"/>
      </defs>
      <use xlink:href="#DejaVuSans-41"/>
      <use xlink:href="#DejaVuSans-75" x="68.408203"/>
      <use xlink:href="#DejaVuSans-72" x="131.787109"/>
      <use xlink:href="#DejaVuSans-6f" x="170.650391"/>
      <use xlink:href="#DejaVuSans-63" x="231.832031"/>
     </g>
    </g>
   </g>
   <g id="PolyCollection_1">
    <defs>
     <path id="mba065dd967" d="M 73.832727 -243.696353 
L 73.832727 -106.119121 
L 75.464157 -129.512445 
L 77.095587 -131.398034 
L 78.727017 -156.799683 
L 80.358447 -155.743983 
L 81.989877 -156.141008 
L 83.621307 -132.197618 
L 85.252736 -135.753152 
L 86.884166 -126.165797 
L 88.515596 -127.578948 
L 90.147026 -72.740728 
L 91.778456 -134.896415 
L 93.409886 -115.513924 
L 95.041316 -117.277633 
L 96.672746 -148.81626 
L 98.304175 -96.325443 
L 99.935605 -131.110344 
L 101.567035 -131.030703 
L 103.198465 -132.156481 
L 104.829895 -140.296594 
L 106.461325 -113.846337 
L 108.092755 -116.297459 
L 109.724185 -149.72252 
L 111.355614 -114.407034 
L 112.987044 -115.365418 
L 114.618474 -124.036025 
L 116.249904 -149.300697 
L 117.881334 -113.702812 
L 119.512764 -61.988659 
L 121.144194 -79.521155 
L 122.775624 -150.433806 
L 124.407053 -119.99933 
L 126.038483 -144.993375 
L 127.669913 -144.962999 
L 129.301343 -146.347348 
L 130.932773 -157.376782 
L 132.564203 -164.976386 
L 134.195633 -145.500199 
L 135.827063 -105.564585 
L 137.458492 -119.08397 
L 139.089922 -165.438829 
L 140.721352 -110.095201 
L 142.352782 -142.521677 
L 143.984212 -114.652511 
L 145.615642 -100.01437 
L 147.247072 -123.610683 
L 148.878502 -143.57342 
L 150.509931 -108.089543 
L 152.141361 -52.759348 
L 153.772791 -136.020617 
L 155.404221 -126.943275 
L 157.035651 -126.858516 
L 158.667081 -127.474268 
L 160.298511 -128.632704 
L 161.929941 -119.134477 
L 163.56137 -141.729637 
L 165.1928 -129.303241 
L 166.82423 -140.983377 
L 168.45566 -104.595719 
L 170.08709 -131.44017 
L 171.71852 -132.444572 
L 173.34995 -108.207692 
L 174.98138 -102.099346 
L 176.61281 -150.69651 
L 178.244239 -89.38242 
L 179.875669 -125.992097 
L 181.507099 -118.993399 
L 183.138529 -132.963845 
L 184.769959 -129.794028 
L 186.401389 -121.207329 
L 188.032819 -77.431162 
L 189.664249 -121.816285 
L 191.295678 -186.446232 
L 192.927108 -144.433076 
L 194.558538 -130.300724 
L 196.189968 -136.317899 
L 197.821398 -103.630238 
L 199.452828 -147.424902 
L 201.084258 -133.527603 
L 202.715688 -141.184382 
L 204.347117 -140.739586 
L 205.978547 -140.380255 
L 207.609977 -131.507034 
L 209.241407 -110.478342 
L 210.872837 -73.545089 
L 212.504267 -156.165309 
L 214.135697 -138.267248 
L 215.767127 -144.359493 
L 217.398556 -121.104756 
L 219.029986 -160.904914 
L 220.661416 -97.831077 
L 222.292846 -149.300366 
L 223.924276 -140.104226 
L 225.555706 -108.548904 
L 227.187136 -96.466218 
L 228.818566 -85.690417 
L 230.449995 -128.287842 
L 232.081425 -126.266426 
L 233.712855 -112.525322 
L 235.344285 -148.061468 
L 236.975715 -132.455322 
L 238.607145 -147.267648 
L 240.238575 -118.722393 
L 241.870005 -123.988835 
L 243.501434 -125.785141 
L 245.132864 -132.046324 
L 246.764294 -106.778702 
L 248.395724 -138.300199 
L 250.027154 -148.192668 
L 251.658584 -124.243797 
L 253.290014 -132.501824 
L 254.921444 -155.698096 
L 256.552873 -109.310775 
L 258.184303 -67.026883 
L 259.815733 -130.994186 
L 261.447163 -78.039518 
L 263.078593 -124.801069 
L 264.710023 -140.480405 
L 266.341453 -163.312278 
L 267.972883 -157.338812 
L 269.604312 -158.441857 
L 271.235742 -120.717877 
L 272.867172 -161.274321 
L 274.498602 -156.341052 
L 276.130032 -132.51655 
L 277.761462 -107.273539 
L 279.392892 -83.905072 
L 281.024322 -77.193009 
L 282.655751 -111.805434 
L 284.287181 -154.535664 
L 285.918611 -115.887213 
L 287.550041 -120.493369 
L 289.181471 -131.929018 
L 290.812901 -131.897528 
L 292.444331 -141.082745 
L 294.075761 -170.859796 
L 295.70719 -166.099332 
L 297.33862 -118.892727 
L 298.97005 -104.010886 
L 300.60148 -95.355631 
L 302.23291 -119.878945 
L 303.86434 -143.254637 
L 305.49577 -144.59514 
L 307.1272 -101.738573 
L 308.75863 -129.701879 
L 310.390059 -102.366415 
L 312.021489 -148.435587 
L 313.652919 -171.442184 
L 315.284349 -136.675591 
L 316.915779 -132.189904 
L 318.547209 -135.471342 
L 320.178639 -119.649505 
L 321.810069 -156.189416 
L 323.441498 -78.23219 
L 325.072928 -166.212062 
L 326.704358 -123.033243 
L 328.335788 -63.633702 
L 329.967218 -149.851286 
L 331.598648 -101.24231 
L 333.230078 -120.911049 
L 334.861508 -138.240515 
L 336.492937 -88.404892 
L 338.124367 -124.842849 
L 339.755797 -90.690487 
L 341.387227 -134.595579 
L 343.018657 -136.896129 
L 344.650087 -157.899973 
L 346.281517 -124.280079 
L 347.912947 -121.402547 
L 349.544376 -128.982052 
L 351.175806 -91.156158 
L 352.807236 -112.681992 
L 354.438666 -131.908391 
L 356.070096 -143.759425 
L 357.701526 -50.112 
L 359.332956 -137.23304 
L 360.964386 -169.022443 
L 362.595815 -126.784846 
L 364.227245 -115.244923 
L 365.858675 -113.002478 
L 367.490105 -151.378565 
L 369.121535 -154.615762 
L 370.752965 -162.183193 
L 372.384395 -89.284457 
L 374.015825 -109.582153 
L 375.647254 -130.092507 
L 377.278684 -64.754256 
L 378.910114 -102.287839 
L 380.541544 -157.914342 
L 382.172974 -116.640308 
L 383.804404 -143.329675 
L 385.435834 -131.913467 
L 387.067264 -88.621746 
L 388.698693 -114.160996 
L 390.330123 -146.800902 
L 391.961553 -145.829711 
L 393.592983 -107.621181 
L 395.224413 -118.200716 
L 396.855843 -135.111419 
L 398.487273 -121.297193 
L 398.487273 -239.98154 
L 398.487273 -239.98154 
L 396.855843 -258.446839 
L 395.224413 -226.718211 
L 393.592983 -257.024555 
L 391.961553 -272.421917 
L 390.330123 -291.459194 
L 388.698693 -230.931153 
L 387.067264 -205.32664 
L 385.435834 -253.17397 
L 383.804404 -231.14776 
L 382.172974 -169.795821 
L 380.541544 -185.780726 
L 378.910114 -265.784045 
L 377.278684 -203.085095 
L 375.647254 -277.499326 
L 374.015825 -183.500136 
L 372.384395 -253.993888 
L 370.752965 -249.199365 
L 369.121535 -264.613516 
L 367.490105 -277.25058 
L 365.858675 -197.327758 
L 364.227245 -253.850799 
L 362.595815 -232.156825 
L 360.964386 -250.765742 
L 359.332956 -252.668896 
L 357.701526 -248.840338 
L 356.070096 -246.951232 
L 354.438666 -248.885468 
L 352.807236 -227.478399 
L 351.175806 -251.266142 
L 349.544376 -223.208509 
L 347.912947 -253.242628 
L 346.281517 -228.469878 
L 344.650087 -209.05707 
L 343.018657 -246.549458 
L 341.387227 -208.8007 
L 339.755797 -233.667235 
L 338.124367 -257.502466 
L 336.492937 -223.874066 
L 334.861508 -203.993757 
L 333.230078 -261.548805 
L 331.598648 -224.97012 
L 329.967218 -219.543688 
L 328.335788 -238.012431 
L 326.704358 -281.843094 
L 325.072928 -224.436927 
L 323.441498 -237.987642 
L 321.810069 -220.369429 
L 320.178639 -257.170592 
L 318.547209 -252.382679 
L 316.915779 -215.221305 
L 315.284349 -255.469736 
L 313.652919 -223.714615 
L 312.021489 -259.580061 
L 310.390059 -239.485699 
L 308.75863 -221.665987 
L 307.1272 -230.508411 
L 305.49577 -228.790911 
L 303.86434 -237.93023 
L 302.23291 -266.800997 
L 300.60148 -241.150115 
L 298.97005 -246.037588 
L 297.33862 -256.620342 
L 295.70719 -241.684305 
L 294.075761 -191.684388 
L 292.444331 -251.813585 
L 290.812901 -253.436792 
L 289.181471 -238.665527 
L 287.550041 -205.529317 
L 285.918611 -217.873359 
L 284.287181 -213.050011 
L 282.655751 -232.119624 
L 281.024322 -246.354617 
L 279.392892 -246.190368 
L 277.761462 -265.671593 
L 276.130032 -258.545622 
L 274.498602 -250.707406 
L 272.867172 -243.063793 
L 271.235742 -252.007634 
L 269.604312 -192.482369 
L 267.972883 -216.881425 
L 266.341453 -258.916413 
L 264.710023 -255.3843 
L 263.078593 -232.95638 
L 261.447163 -227.091592 
L 259.815733 -223.803395 
L 258.184303 -224.969464 
L 256.552873 -239.01289 
L 254.921444 -216.557476 
L 253.290014 -218.601158 
L 251.658584 -231.336458 
L 250.027154 -250.093867 
L 248.395724 -219.690317 
L 246.764294 -184.922131 
L 245.132864 -256.26131 
L 243.501434 -242.279188 
L 241.870005 -219.207185 
L 240.238575 -262.530837 
L 238.607145 -244.146225 
L 236.975715 -238.130082 
L 235.344285 -213.669346 
L 233.712855 -271.170212 
L 232.081425 -248.769308 
L 230.449995 -223.809524 
L 228.818566 -234.539262 
L 227.187136 -269.733259 
L 225.555706 -220.234593 
L 223.924276 -240.442064 
L 222.292846 -249.329575 
L 220.661416 -228.374498 
L 219.029986 -286.213524 
L 217.398556 -240.521399 
L 215.767127 -256.954192 
L 214.135697 -226.594795 
L 212.504267 -254.099384 
L 210.872837 -222.132267 
L 209.241407 -245.66642 
L 207.609977 -246.772143 
L 205.978547 -242.883538 
L 204.347117 -214.453624 
L 202.715688 -267.805323 
L 201.084258 -222.139838 
L 199.452828 -257.276825 
L 197.821398 -234.185984 
L 196.189968 -213.212138 
L 194.558538 -227.021313 
L 192.927108 -274.14558 
L 191.295678 -236.443014 
L 189.664249 -223.121609 
L 188.032819 -241.789695 
L 186.401389 -249.506734 
L 184.769959 -218.793029 
L 183.138529 -243.759967 
L 181.507099 -241.117649 
L 179.875669 -273.937292 
L 178.244239 -242.366784 
L 176.61281 -260.140984 
L 174.98138 -273.561704 
L 173.34995 -217.307624 
L 171.71852 -235.865107 
L 170.08709 -224.132266 
L 168.45566 -254.699185 
L 166.82423 -251.349292 
L 165.1928 -282.435878 
L 163.56137 -292.032 
L 161.929941 -239.7196 
L 160.298511 -202.000312 
L 158.667081 -244.546574 
L 157.035651 -218.312788 
L 155.404221 -208.291618 
L 153.772791 -273.749571 
L 152.141361 -228.775058 
L 150.509931 -271.030067 
L 148.878502 -245.698868 
L 147.247072 -254.441159 
L 145.615642 -261.559006 
L 143.984212 -241.775587 
L 142.352782 -216.298256 
L 140.721352 -240.215253 
L 139.089922 -276.41847 
L 137.458492 -244.08561 
L 135.827063 -220.296052 
L 134.195633 -208.802084 
L 132.564203 -210.959877 
L 130.932773 -252.976457 
L 129.301343 -282.733138 
L 127.669913 -270.149053 
L 126.038483 -258.580555 
L 124.407053 -181.182043 
L 122.775624 -213.047401 
L 121.144194 -255.747114 
L 119.512764 -212.566457 
L 117.881334 -221.947589 
L 116.249904 -202.823521 
L 114.618474 -255.421615 
L 112.987044 -243.212242 
L 111.355614 -235.439293 
L 109.724185 -271.521758 
L 108.092755 -234.909073 
L 106.461325 -247.372856 
L 104.829895 -245.202719 
L 103.198465 -243.249603 
L 101.567035 -208.400188 
L 99.935605 -236.060813 
L 98.304175 -225.507518 
L 96.672746 -226.676785 
L 95.041316 -180.955494 
L 93.409886 -203.932736 
L 91.778456 -227.924053 
L 90.147026 -214.39661 
L 88.515596 -233.543774 
L 86.884166 -222.364018 
L 85.252736 -255.448179 
L 83.621307 -206.286384 
L 81.989877 -243.236977 
L 80.358447 -239.460721 
L 78.727017 -251.617064 
L 77.095587 -249.26998 
L 75.464157 -278.396113 
L 73.832727 -243.696353 
z
" style="stroke: #ffffff; stroke-opacity: 0.2"/>
    </defs>
    <g clip-path="url(#p06a13426c4)">
     <use xlink:href="#mba065dd967" x="0" y="345.6" style="fill: #1f77b4; fill-opacity: 0.2; stroke: #ffffff; stroke-opacity: 0.2"/>
    </g>
   </g>
   <g id="line2d_19">
    <path d="M 73.832727 170.692263 
L 75.464157 141.645721 
L 77.095587 155.265993 
L 78.727017 141.391627 
L 80.358447 147.997648 
L 81.989877 145.911008 
L 83.621307 176.357999 
L 85.252736 149.999335 
L 86.884166 171.335093 
L 88.515596 165.038639 
L 90.147026 202.031331 
L 91.778456 164.189766 
L 93.409886 185.87667 
L 95.041316 196.483436 
L 96.672746 157.853477 
L 98.304175 184.683519 
L 99.935605 162.014422 
L 101.567035 175.884555 
L 103.198465 157.896958 
L 104.829895 152.850343 
L 106.461325 164.990404 
L 108.092755 169.996734 
L 109.724185 134.977861 
L 111.355614 170.676836 
L 112.987044 166.31117 
L 114.618474 155.87118 
L 116.249904 169.537891 
L 117.881334 177.774799 
L 119.512764 208.322442 
L 121.144194 177.965865 
L 122.775624 163.859396 
L 124.407053 195.009313 
L 126.038483 143.813035 
L 127.669913 138.043974 
L 129.301343 131.059757 
L 130.932773 140.423381 
L 132.564203 157.631868 
L 134.195633 168.448858 
L 135.827063 182.669681 
L 137.458492 164.01521 
L 139.089922 124.67135 
L 140.721352 170.444773 
L 142.352782 166.190033 
L 143.984212 167.385951 
L 145.615642 164.813312 
L 147.247072 156.574079 
L 148.878502 150.963856 
L 150.509931 156.040195 
L 152.141361 204.832797 
L 153.772791 140.714906 
L 155.404221 177.982553 
L 157.035651 173.014348 
L 158.667081 159.589579 
L 160.298511 180.283492 
L 161.929941 166.172962 
L 163.56137 128.719182 
L 165.1928 139.73044 
L 166.82423 149.433666 
L 168.45566 165.952548 
L 170.08709 167.813782 
L 171.71852 161.44516 
L 173.34995 182.842342 
L 174.98138 157.769475 
L 176.61281 140.181253 
L 178.244239 179.725398 
L 179.875669 145.635305 
L 181.507099 165.544476 
L 183.138529 157.238094 
L 184.769959 171.306471 
L 186.401389 160.242969 
L 188.032819 185.989571 
L 189.664249 173.131053 
L 191.295678 134.155377 
L 192.927108 136.310672 
L 194.558538 166.938982 
L 196.189968 170.834981 
L 197.821398 176.691889 
L 199.452828 143.249136 
L 201.084258 167.76628 
L 202.715688 141.105147 
L 204.347117 168.003395 
L 205.978547 153.968103 
L 207.609977 156.460412 
L 209.241407 167.527619 
L 210.872837 197.761322 
L 212.504267 140.467654 
L 214.135697 163.168979 
L 215.767127 144.943158 
L 217.398556 164.786923 
L 219.029986 122.040781 
L 220.661416 182.497212 
L 222.292846 146.285029 
L 223.924276 155.326855 
L 225.555706 181.208251 
L 227.187136 162.500262 
L 228.818566 185.485161 
L 230.449995 169.551317 
L 232.081425 158.082133 
L 233.712855 153.752233 
L 235.344285 164.734593 
L 236.975715 160.307298 
L 238.607145 149.893064 
L 240.238575 154.973385 
L 241.870005 174.00199 
L 243.501434 161.567835 
L 245.132864 151.446183 
L 246.764294 199.749583 
L 248.395724 166.604742 
L 250.027154 146.456732 
L 251.658584 167.809872 
L 253.290014 170.048509 
L 254.921444 159.472214 
L 256.552873 171.438167 
L 258.184303 199.601826 
L 259.815733 168.20121 
L 261.447163 193.034445 
L 263.078593 166.721275 
L 264.710023 147.667648 
L 266.341453 134.485654 
L 267.972883 158.489881 
L 269.604312 170.137887 
L 271.235742 159.237245 
L 272.867172 143.430943 
L 274.498602 142.075771 
L 276.130032 150.068914 
L 277.761462 159.127434 
L 279.392892 180.55228 
L 281.024322 183.826187 
L 282.655751 173.637471 
L 284.287181 161.807163 
L 285.918611 178.719714 
L 287.550041 182.588657 
L 289.181471 160.302728 
L 290.812901 152.93284 
L 292.444331 149.151835 
L 294.075761 164.327908 
L 295.70719 141.708181 
L 297.33862 157.843466 
L 298.97005 170.575763 
L 300.60148 177.347127 
L 302.23291 152.260029 
L 303.86434 155.007567 
L 305.49577 158.906974 
L 307.1272 179.476508 
L 308.75863 169.916067 
L 310.390059 174.673943 
L 312.021489 141.592176 
L 313.652919 148.0216 
L 315.284349 149.527336 
L 316.915779 171.894395 
L 318.547209 151.672989 
L 320.178639 157.189951 
L 321.810069 157.320577 
L 323.441498 187.490084 
L 325.072928 150.275506 
L 326.704358 143.161832 
L 328.335788 194.776933 
L 329.967218 160.902513 
L 331.598648 182.493785 
L 333.230078 154.370073 
L 334.861508 174.482864 
L 336.492937 189.460521 
L 338.124367 154.427343 
L 339.755797 183.421139 
L 341.387227 173.901861 
L 343.018657 153.877206 
L 344.650087 162.121478 
L 346.281517 169.225022 
L 347.912947 158.277412 
L 349.544376 169.504719 
L 351.175806 174.38885 
L 352.807236 175.519805 
L 354.438666 155.20307 
L 356.070096 150.244672 
L 357.701526 196.123831 
L 359.332956 150.649032 
L 360.964386 135.705908 
L 362.595815 166.129164 
L 364.227245 161.052139 
L 365.858675 190.434882 
L 367.490105 131.285428 
L 369.121535 135.985361 
L 370.752965 139.908721 
L 372.384395 173.960827 
L 374.015825 199.058855 
L 375.647254 141.804084 
L 377.278684 211.680325 
L 378.910114 161.564058 
L 380.541544 173.752466 
L 382.172974 202.381935 
L 383.804404 158.361282 
L 385.435834 153.056281 
L 387.067264 198.625807 
L 388.698693 173.053925 
L 390.330123 126.469952 
L 391.961553 136.474186 
L 393.592983 163.277132 
L 395.224413 173.140536 
L 396.855843 148.820871 
L 398.487273 164.960633 
L 398.487273 164.960633 
" clip-path="url(#p06a13426c4)" style="fill: none; stroke: #1f77b4; stroke-width: 1.5; stroke-linecap: round"/>
   </g>
   <g id="LineCollection_1">
    <path d="M 398.487273 295.488 
L 398.487273 53.568 
" clip-path="url(#p06a13426c4)" style="fill: none; stroke-dasharray: 5.55,2.4; stroke-dashoffset: 0; stroke: #1f77b4; stroke-width: 1.5"/>
   </g>
   <g id="patch_3">
    <path d="M 57.6 307.584 
L 57.6 41.472 
" style="fill: none; stroke: #cccccc; stroke-width: 0.8; stroke-linejoin: miter; stroke-linecap: square"/>
   </g>
   <g id="patch_4">
    <path d="M 414.72 307.584 
L 414.72 41.472 
" style="fill: none; stroke: #cccccc; stroke-width: 0.8; stroke-linejoin: miter; stroke-linecap: square"/>
   </g>
   <g id="patch_5">
    <path d="M 57.6 307.584 
L 414.72 307.584 
" style="fill: none; stroke: #cccccc; stroke-width: 0.8; stroke-linejoin: miter; stroke-linecap: square"/>
   </g>
   <g id="patch_6">
    <path d="M 57.6 41.472 
L 414.72 41.472 
" style="fill: none; stroke: #cccccc; stroke-width: 0.8; stroke-linejoin: miter; stroke-linecap: square"/>
   </g>
   <g id="text_21">
    <!-- Model performance vs. # of iterations -->
    <g style="fill: #262626" transform="translate(122.314688 35.472)scale(0.12 -0.12)">
     <defs>
      <path id="DejaVuSans-4d" d="M 628 4666 
L 1569 4666 
L 2759 1491 
L 3956 4666 
L 4897 4666 
L 4897 0 
L 4281 0 
L 4281 4097 
L 3078 897 
L 2444 897 
L 1241 4097 
L 1241 0 
L 628 0 
L 628 4666 
z
" transform="scale(0.015625)"/>
      <path id="DejaVuSans-64" d="M 2906 2969 
L 2906 4863 
L 3481 4863 
L 3481 0 
L 2906 0 
L 2906 525 
Q 2725 213 2448 61 
Q 2172 -91 1784 -91 
Q 1150 -91 751 415 
Q 353 922 353 1747 
Q 353 2572 751 3078 
Q 1150 3584 1784 3584 
Q 2172 3584 2448 3432 
Q 2725 3281 2906 2969 
z
M 947 1747 
Q 947 1113 1208 752 
Q 1469 391 1925 391 
Q 2381 391 2643 752 
Q 2906 1113 2906 1747 
Q 2906 2381 2643 2742 
Q 2381 3103 1925 3103 
Q 1469 3103 1208 2742 
Q 947 2381 947 1747 
z
" transform="scale(0.015625)"/>
      <path id="DejaVuSans-6c" d="M 603 4863 
L 1178 4863 
L 1178 0 
L 603 0 
L 603 4863 
z
" transform="scale(0.015625)"/>
      <path id="DejaVuSans-20" transform="scale(0.015625)"/>
      <path id="DejaVuSans-70" d="M 1159 525 
L 1159 -1331 
L 581 -1331 
L 581 3500 
L 1159 3500 
L 1159 2969 
Q 1341 3281 1617 3432 
Q 1894 3584 2278 3584 
Q 2916 3584 3314 3078 
Q 3713 2572 3713 1747 
Q 3713 922 3314 415 
Q 2916 -91 2278 -91 
Q 1894 -91 1617 61 
Q 1341 213 1159 525 
z
M 3116 1747 
Q 3116 2381 2855 2742 
Q 2594 3103 2138 3103 
Q 1681 3103 1420 2742 
Q 1159 2381 1159 1747 
Q 1159 1113 1420 752 
Q 1681 391 2138 391 
Q 2594 391 2855 752 
Q 3116 1113 3116 1747 
z
" transform="scale(0.015625)"/>
      <path id="DejaVuSans-66" d="M 2375 4863 
L 2375 4384 
L 1825 4384 
Q 1516 4384 1395 4259 
Q 1275 4134 1275 3809 
L 1275 3500 
L 2222 3500 
L 2222 3053 
L 1275 3053 
L 1275 0 
L 697 0 
L 697 3053 
L 147 3053 
L 147 3500 
L 697 3500 
L 697 3744 
Q 697 4328 969 4595 
Q 1241 4863 1831 4863 
L 2375 4863 
z
" transform="scale(0.015625)"/>
      <path id="DejaVuSans-6d" d="M 3328 2828 
Q 3544 3216 3844 3400 
Q 4144 3584 4550 3584 
Q 5097 3584 5394 3201 
Q 5691 2819 5691 2113 
L 5691 0 
L 5113 0 
L 5113 2094 
Q 5113 2597 4934 2840 
Q 4756 3084 4391 3084 
Q 3944 3084 3684 2787 
Q 3425 2491 3425 1978 
L 3425 0 
L 2847 0 
L 2847 2094 
Q 2847 2600 2669 2842 
Q 2491 3084 2119 3084 
Q 1678 3084 1418 2786 
Q 1159 2488 1159 1978 
L 1159 0 
L 581 0 
L 581 3500 
L 1159 3500 
L 1159 2956 
Q 1356 3278 1631 3431 
Q 1906 3584 2284 3584 
Q 2666 3584 2933 3390 
Q 3200 3197 3328 2828 
z
" transform="scale(0.015625)"/>
      <path id="DejaVuSans-76" d="M 191 3500 
L 800 3500 
L 1894 563 
L 2988 3500 
L 3597 3500 
L 2284 0 
L 1503 0 
L 191 3500 
z
" transform="scale(0.015625)"/>
      <path id="DejaVuSans-73" d="M 2834 3397 
L 2834 2853 
Q 2591 2978 2328 3040 
Q 2066 3103 1784 3103 
Q 1356 3103 1142 2972 
Q 928 2841 928 2578 
Q 928 2378 1081 2264 
Q 1234 2150 1697 2047 
L 1894 2003 
Q 2506 1872 2764 1633 
Q 3022 1394 3022 966 
Q 3022 478 2636 193 
Q 2250 -91 1575 -91 
Q 1294 -91 989 -36 
Q 684 19 347 128 
L 347 722 
Q 666 556 975 473 
Q 1284 391 1588 391 
Q 1994 391 2212 530 
Q 2431 669 2431 922 
Q 2431 1156 2273 1281 
Q 2116 1406 1581 1522 
L 1381 1569 
Q 847 1681 609 1914 
Q 372 2147 372 2553 
Q 372 3047 722 3315 
Q 1072 3584 1716 3584 
Q 2034 3584 2315 3537 
Q 2597 3491 2834 3397 
z
" transform="scale(0.015625)"/>
      <path id="DejaVuSans-23" d="M 3272 2816 
L 2363 2816 
L 2100 1772 
L 3016 1772 
L 3272 2816 
z
M 2803 4594 
L 2478 3297 
L 3391 3297 
L 3719 4594 
L 4219 4594 
L 3897 3297 
L 4872 3297 
L 4872 2816 
L 3775 2816 
L 3519 1772 
L 4513 1772 
L 4513 1294 
L 3397 1294 
L 3072 0 
L 2572 0 
L 2894 1294 
L 1978 1294 
L 1656 0 
L 1153 0 
L 1478 1294 
L 494 1294 
L 494 1772 
L 1594 1772 
L 1856 2816 
L 850 2816 
L 850 3297 
L 1978 3297 
L 2297 4594 
L 2803 4594 
z
" transform="scale(0.015625)"/>
     </defs>
     <use xlink:href="#DejaVuSans-4d"/>
     <use xlink:href="#DejaVuSans-6f" x="86.279297"/>
     <use xlink:href="#DejaVuSans-64" x="147.460938"/>
     <use xlink:href="#DejaVuSans-65" x="210.9375"/>
     <use xlink:href="#DejaVuSans-6c" x="272.460938"/>
     <use xlink:href="#DejaVuSans-20" x="300.244141"/>
     <use xlink:href="#DejaVuSans-70" x="332.03125"/>
     <use xlink:href="#DejaVuSans-65" x="395.507812"/>
     <use xlink:href="#DejaVuSans-72" x="457.03125"/>
     <use xlink:href="#DejaVuSans-66" x="498.144531"/>
     <use xlink:href="#DejaVuSans-6f" x="533.349609"/>
     <use xlink:href="#DejaVuSans-72" x="594.53125"/>
     <use xlink:href="#DejaVuSans-6d" x="633.894531"/>
     <use xlink:href="#DejaVuSans-61" x="731.306641"/>
     <use xlink:href="#DejaVuSans-6e" x="792.585938"/>
     <use xlink:href="#DejaVuSans-63" x="855.964844"/>
     <use xlink:href="#DejaVuSans-65" x="910.945312"/>
     <use xlink:href="#DejaVuSans-20" x="972.46875"/>
     <use xlink:href="#DejaVuSans-76" x="1004.255859"/>
     <use xlink:href="#DejaVuSans-73" x="1063.435547"/>
     <use xlink:href="#DejaVuSans-2e" x="1115.535156"/>
     <use xlink:href="#DejaVuSans-20" x="1147.322266"/>
     <use xlink:href="#DejaVuSans-23" x="1179.109375"/>
     <use xlink:href="#DejaVuSans-20" x="1262.898438"/>
     <use xlink:href="#DejaVuSans-6f" x="1294.685547"/>
     <use xlink:href="#DejaVuSans-66" x="1355.867188"/>
     <use xlink:href="#DejaVuSans-20" x="1391.072266"/>
     <use xlink:href="#DejaVuSans-69" x="1422.859375"/>
     <use xlink:href="#DejaVuSans-74" x="1450.642578"/>
     <use xlink:href="#DejaVuSans-65" x="1489.851562"/>
     <use xlink:href="#DejaVuSans-72" x="1551.375"/>
     <use xlink:href="#DejaVuSans-61" x="1592.488281"/>
     <use xlink:href="#DejaVuSans-74" x="1653.767578"/>
     <use xlink:href="#DejaVuSans-69" x="1692.976562"/>
     <use xlink:href="#DejaVuSans-6f" x="1720.759766"/>
     <use xlink:href="#DejaVuSans-6e" x="1781.941406"/>
     <use xlink:href="#DejaVuSans-73" x="1845.320312"/>
    </g>
   </g>
  </g>
 </g>
 <defs>
  <clipPath id="p06a13426c4">
   <rect x="57.6" y="41.472" width="357.12" height="266.112"/>
  </clipPath>
 </defs>
</svg>
