<?xml version="1.0" encoding="utf-8" standalone="no"?>
<!DOCTYPE svg PUBLIC "-//W3C//DTD SVG 1.1//EN"
  "http://www.w3.org/Graphics/SVG/1.1/DTD/svg11.dtd">
<svg xmlns:xlink="http://www.w3.org/1999/xlink" width="460.8pt" height="345.6pt" viewBox="0 0 460.8 345.6" xmlns="http://www.w3.org/2000/svg" version="1.1">
 <metadata>
  <rdf:RDF xmlns:dc="http://purl.org/dc/elements/1.1/" xmlns:cc="http://creativecommons.org/ns#" xmlns:rdf="http://www.w3.org/1999/02/22-rdf-syntax-ns#">
   <cc:Work>
    <dc:type rdf:resource="http://purl.org/dc/dcmitype/StillImage"/>
    <dc:date>2022-02-06T15:15:38.591542</dc:date>
    <dc:format>image/svg+xml</dc:format>
    <dc:creator>
     <cc:Agent>
      <dc:title>Matplotlib v3.5.1, https://matplotlib.org/</dc:title>
     </cc:Agent>
    </dc:creator>
   </cc:Work>
  </rdf:RDF>
 </metadata>
 <defs>
  <style type="text/css">*{stroke-linejoin: round; stroke-linecap: butt}</style>
 </defs>
 <g id="figure_1">
  <g id="patch_1">
   <path d="M 0 345.6 
L 460.8 345.6 
L 460.8 0 
L 0 0 
z
" style="fill: #ffffff"/>
  </g>
  <g id="axes_1">
   <g id="patch_2">
    <path d="M 57.6 307.584 
L 414.72 307.584 
L 414.72 41.472 
L 57.6 41.472 
z
" style="fill: #ffffff"/>
   </g>
   <g id="matplotlib.axis_1">
    <g id="xtick_1">
     <g id="line2d_1">
      <path d="M 72.201297 307.584 
L 72.201297 41.472 
" clip-path="url(#p4764aac0c3)" style="fill: none; stroke: #cccccc; stroke-width: 0.8; stroke-linecap: round"/>
     </g>
     <g id="text_1">
      <!-- 0 -->
      <g style="fill: #262626" transform="translate(69.020047 322.182437)scale(0.1 -0.1)">
       <defs>
        <path id="DejaVuSans-30" d="M 2034 4250 
Q 1547 4250 1301 3770 
Q 1056 3291 1056 2328 
Q 1056 1369 1301 889 
Q 1547 409 2034 409 
Q 2525 409 2770 889 
Q 3016 1369 3016 2328 
Q 3016 3291 2770 3770 
Q 2525 4250 2034 4250 
z
M 2034 4750 
Q 2819 4750 3233 4129 
Q 3647 3509 3647 2328 
Q 3647 1150 3233 529 
Q 2819 -91 2034 -91 
Q 1250 -91 836 529 
Q 422 1150 422 2328 
Q 422 3509 836 4129 
Q 1250 4750 2034 4750 
z
" transform="scale(0.015625)"/>
       </defs>
       <use xlink:href="#DejaVuSans-30"/>
      </g>
     </g>
    </g>
    <g id="xtick_2">
     <g id="line2d_2">
      <path d="M 112.987044 307.584 
L 112.987044 41.472 
" clip-path="url(#p4764aac0c3)" style="fill: none; stroke: #cccccc; stroke-width: 0.8; stroke-linecap: round"/>
     </g>
     <g id="text_2">
      <!-- 25 -->
      <g style="fill: #262626" transform="translate(106.624544 322.182437)scale(0.1 -0.1)">
       <defs>
        <path id="DejaVuSans-32" d="M 1228 531 
L 3431 531 
L 3431 0 
L 469 0 
L 469 531 
Q 828 903 1448 1529 
Q 2069 2156 2228 2338 
Q 2531 2678 2651 2914 
Q 2772 3150 2772 3378 
Q 2772 3750 2511 3984 
Q 2250 4219 1831 4219 
Q 1534 4219 1204 4116 
Q 875 4013 500 3803 
L 500 4441 
Q 881 4594 1212 4672 
Q 1544 4750 1819 4750 
Q 2544 4750 2975 4387 
Q 3406 4025 3406 3419 
Q 3406 3131 3298 2873 
Q 3191 2616 2906 2266 
Q 2828 2175 2409 1742 
Q 1991 1309 1228 531 
z
" transform="scale(0.015625)"/>
        <path id="DejaVuSans-35" d="M 691 4666 
L 3169 4666 
L 3169 4134 
L 1269 4134 
L 1269 2991 
Q 1406 3038 1543 3061 
Q 1681 3084 1819 3084 
Q 2600 3084 3056 2656 
Q 3513 2228 3513 1497 
Q 3513 744 3044 326 
Q 2575 -91 1722 -91 
Q 1428 -91 1123 -41 
Q 819 9 494 109 
L 494 744 
Q 775 591 1075 516 
Q 1375 441 1709 441 
Q 2250 441 2565 725 
Q 2881 1009 2881 1497 
Q 2881 1984 2565 2268 
Q 2250 2553 1709 2553 
Q 1456 2553 1204 2497 
Q 953 2441 691 2322 
L 691 4666 
z
" transform="scale(0.015625)"/>
       </defs>
       <use xlink:href="#DejaVuSans-32"/>
       <use xlink:href="#DejaVuSans-35" x="63.623047"/>
      </g>
     </g>
    </g>
    <g id="xtick_3">
     <g id="line2d_3">
      <path d="M 153.772791 307.584 
L 153.772791 41.472 
" clip-path="url(#p4764aac0c3)" style="fill: none; stroke: #cccccc; stroke-width: 0.8; stroke-linecap: round"/>
     </g>
     <g id="text_3">
      <!-- 50 -->
      <g style="fill: #262626" transform="translate(147.410291 322.182437)scale(0.1 -0.1)">
       <use xlink:href="#DejaVuSans-35"/>
       <use xlink:href="#DejaVuSans-30" x="63.623047"/>
      </g>
     </g>
    </g>
    <g id="xtick_4">
     <g id="line2d_4">
      <path d="M 194.558538 307.584 
L 194.558538 41.472 
" clip-path="url(#p4764aac0c3)" style="fill: none; stroke: #cccccc; stroke-width: 0.8; stroke-linecap: round"/>
     </g>
     <g id="text_4">
      <!-- 75 -->
      <g style="fill: #262626" transform="translate(188.196038 322.182437)scale(0.1 -0.1)">
       <defs>
        <path id="DejaVuSans-37" d="M 525 4666 
L 3525 4666 
L 3525 4397 
L 1831 0 
L 1172 0 
L 2766 4134 
L 525 4134 
L 525 4666 
z
" transform="scale(0.015625)"/>
       </defs>
       <use xlink:href="#DejaVuSans-37"/>
       <use xlink:href="#DejaVuSans-35" x="63.623047"/>
      </g>
     </g>
    </g>
    <g id="xtick_5">
     <g id="line2d_5">
      <path d="M 235.344285 307.584 
L 235.344285 41.472 
" clip-path="url(#p4764aac0c3)" style="fill: none; stroke: #cccccc; stroke-width: 0.8; stroke-linecap: round"/>
     </g>
     <g id="text_5">
      <!-- 100 -->
      <g style="fill: #262626" transform="translate(225.800535 322.182437)scale(0.1 -0.1)">
       <defs>
        <path id="DejaVuSans-31" d="M 794 531 
L 1825 531 
L 1825 4091 
L 703 3866 
L 703 4441 
L 1819 4666 
L 2450 4666 
L 2450 531 
L 3481 531 
L 3481 0 
L 794 0 
L 794 531 
z
" transform="scale(0.015625)"/>
       </defs>
       <use xlink:href="#DejaVuSans-31"/>
       <use xlink:href="#DejaVuSans-30" x="63.623047"/>
       <use xlink:href="#DejaVuSans-30" x="127.246094"/>
      </g>
     </g>
    </g>
    <g id="xtick_6">
     <g id="line2d_6">
      <path d="M 276.130032 307.584 
L 276.130032 41.472 
" clip-path="url(#p4764aac0c3)" style="fill: none; stroke: #cccccc; stroke-width: 0.8; stroke-linecap: round"/>
     </g>
     <g id="text_6">
      <!-- 125 -->
      <g style="fill: #262626" transform="translate(266.586282 322.182437)scale(0.1 -0.1)">
       <use xlink:href="#DejaVuSans-31"/>
       <use xlink:href="#DejaVuSans-32" x="63.623047"/>
       <use xlink:href="#DejaVuSans-35" x="127.246094"/>
      </g>
     </g>
    </g>
    <g id="xtick_7">
     <g id="line2d_7">
      <path d="M 316.915779 307.584 
L 316.915779 41.472 
" clip-path="url(#p4764aac0c3)" style="fill: none; stroke: #cccccc; stroke-width: 0.8; stroke-linecap: round"/>
     </g>
     <g id="text_7">
      <!-- 150 -->
      <g style="fill: #262626" transform="translate(307.372029 322.182437)scale(0.1 -0.1)">
       <use xlink:href="#DejaVuSans-31"/>
       <use xlink:href="#DejaVuSans-35" x="63.623047"/>
       <use xlink:href="#DejaVuSans-30" x="127.246094"/>
      </g>
     </g>
    </g>
    <g id="xtick_8">
     <g id="line2d_8">
      <path d="M 357.701526 307.584 
L 357.701526 41.472 
" clip-path="url(#p4764aac0c3)" style="fill: none; stroke: #cccccc; stroke-width: 0.8; stroke-linecap: round"/>
     </g>
     <g id="text_8">
      <!-- 175 -->
      <g style="fill: #262626" transform="translate(348.157776 322.182437)scale(0.1 -0.1)">
       <use xlink:href="#DejaVuSans-31"/>
       <use xlink:href="#DejaVuSans-37" x="63.623047"/>
       <use xlink:href="#DejaVuSans-35" x="127.246094"/>
      </g>
     </g>
    </g>
    <g id="xtick_9">
     <g id="line2d_9">
      <path d="M 398.487273 307.584 
L 398.487273 41.472 
" clip-path="url(#p4764aac0c3)" style="fill: none; stroke: #cccccc; stroke-width: 0.8; stroke-linecap: round"/>
     </g>
     <g id="text_9">
      <!-- 200 -->
      <g style="fill: #262626" transform="translate(388.943523 322.182437)scale(0.1 -0.1)">
       <use xlink:href="#DejaVuSans-32"/>
       <use xlink:href="#DejaVuSans-30" x="63.623047"/>
       <use xlink:href="#DejaVuSans-30" x="127.246094"/>
      </g>
     </g>
    </g>
    <g id="text_10">
     <!-- Auroc -->
     <g style="fill: #262626" transform="translate(221.819375 335.860562)scale(0.1 -0.1)">
      <defs>
       <path id="DejaVuSans-41" d="M 2188 4044 
L 1331 1722 
L 3047 1722 
L 2188 4044 
z
M 1831 4666 
L 2547 4666 
L 4325 0 
L 3669 0 
L 3244 1197 
L 1141 1197 
L 716 0 
L 50 0 
L 1831 4666 
z
" transform="scale(0.015625)"/>
       <path id="DejaVuSans-75" d="M 544 1381 
L 544 3500 
L 1119 3500 
L 1119 1403 
Q 1119 906 1312 657 
Q 1506 409 1894 409 
Q 2359 409 2629 706 
Q 2900 1003 2900 1516 
L 2900 3500 
L 3475 3500 
L 3475 0 
L 2900 0 
L 2900 538 
Q 2691 219 2414 64 
Q 2138 -91 1772 -91 
Q 1169 -91 856 284 
Q 544 659 544 1381 
z
M 1991 3584 
L 1991 3584 
z
" transform="scale(0.015625)"/>
       <path id="DejaVuSans-72" d="M 2631 2963 
Q 2534 3019 2420 3045 
Q 2306 3072 2169 3072 
Q 1681 3072 1420 2755 
Q 1159 2438 1159 1844 
L 1159 0 
L 581 0 
L 581 3500 
L 1159 3500 
L 1159 2956 
Q 1341 3275 1631 3429 
Q 1922 3584 2338 3584 
Q 2397 3584 2469 3576 
Q 2541 3569 2628 3553 
L 2631 2963 
z
" transform="scale(0.015625)"/>
       <path id="DejaVuSans-6f" d="M 1959 3097 
Q 1497 3097 1228 2736 
Q 959 2375 959 1747 
Q 959 1119 1226 758 
Q 1494 397 1959 397 
Q 2419 397 2687 759 
Q 2956 1122 2956 1747 
Q 2956 2369 2687 2733 
Q 2419 3097 1959 3097 
z
M 1959 3584 
Q 2709 3584 3137 3096 
Q 3566 2609 3566 1747 
Q 3566 888 3137 398 
Q 2709 -91 1959 -91 
Q 1206 -91 779 398 
Q 353 888 353 1747 
Q 353 2609 779 3096 
Q 1206 3584 1959 3584 
z
" transform="scale(0.015625)"/>
       <path id="DejaVuSans-63" d="M 3122 3366 
L 3122 2828 
Q 2878 2963 2633 3030 
Q 2388 3097 2138 3097 
Q 1578 3097 1268 2742 
Q 959 2388 959 1747 
Q 959 1106 1268 751 
Q 1578 397 2138 397 
Q 2388 397 2633 464 
Q 2878 531 3122 666 
L 3122 134 
Q 2881 22 2623 -34 
Q 2366 -91 2075 -91 
Q 1284 -91 818 406 
Q 353 903 353 1747 
Q 353 2603 823 3093 
Q 1294 3584 2113 3584 
Q 2378 3584 2631 3529 
Q 2884 3475 3122 3366 
z
" transform="scale(0.015625)"/>
      </defs>
      <use xlink:href="#DejaVuSans-41"/>
      <use xlink:href="#DejaVuSans-75" x="68.408203"/>
      <use xlink:href="#DejaVuSans-72" x="131.787109"/>
      <use xlink:href="#DejaVuSans-6f" x="170.650391"/>
      <use xlink:href="#DejaVuSans-63" x="231.832031"/>
     </g>
    </g>
   </g>
   <g id="matplotlib.axis_2">
    <g id="ytick_1">
     <g id="line2d_10">
      <path d="M 57.6 303.851012 
L 414.72 303.851012 
" clip-path="url(#p4764aac0c3)" style="fill: none; stroke: #cccccc; stroke-width: 0.8; stroke-linecap: round"/>
     </g>
     <g id="text_11">
      <!-- 0.45 -->
      <g style="fill: #262626" transform="translate(28.334375 307.650231)scale(0.1 -0.1)">
       <defs>
        <path id="DejaVuSans-2e" d="M 684 794 
L 1344 794 
L 1344 0 
L 684 0 
L 684 794 
z
" transform="scale(0.015625)"/>
        <path id="DejaVuSans-34" d="M 2419 4116 
L 825 1625 
L 2419 1625 
L 2419 4116 
z
M 2253 4666 
L 3047 4666 
L 3047 1625 
L 3713 1625 
L 3713 1100 
L 3047 1100 
L 3047 0 
L 2419 0 
L 2419 1100 
L 313 1100 
L 313 1709 
L 2253 4666 
z
" transform="scale(0.015625)"/>
       </defs>
       <use xlink:href="#DejaVuSans-30"/>
       <use xlink:href="#DejaVuSans-2e" x="63.623047"/>
       <use xlink:href="#DejaVuSans-34" x="95.410156"/>
       <use xlink:href="#DejaVuSans-35" x="159.033203"/>
      </g>
     </g>
    </g>
    <g id="ytick_2">
     <g id="line2d_11">
      <path d="M 57.6 265.077568 
L 414.72 265.077568 
" clip-path="url(#p4764aac0c3)" style="fill: none; stroke: #cccccc; stroke-width: 0.8; stroke-linecap: round"/>
     </g>
     <g id="text_12">
      <!-- 0.50 -->
      <g style="fill: #262626" transform="translate(28.334375 268.876787)scale(0.1 -0.1)">
       <use xlink:href="#DejaVuSans-30"/>
       <use xlink:href="#DejaVuSans-2e" x="63.623047"/>
       <use xlink:href="#DejaVuSans-35" x="95.410156"/>
       <use xlink:href="#DejaVuSans-30" x="159.033203"/>
      </g>
     </g>
    </g>
    <g id="ytick_3">
     <g id="line2d_12">
      <path d="M 57.6 226.304125 
L 414.72 226.304125 
" clip-path="url(#p4764aac0c3)" style="fill: none; stroke: #cccccc; stroke-width: 0.8; stroke-linecap: round"/>
     </g>
     <g id="text_13">
      <!-- 0.55 -->
      <g style="fill: #262626" transform="translate(28.334375 230.103344)scale(0.1 -0.1)">
       <use xlink:href="#DejaVuSans-30"/>
       <use xlink:href="#DejaVuSans-2e" x="63.623047"/>
       <use xlink:href="#DejaVuSans-35" x="95.410156"/>
       <use xlink:href="#DejaVuSans-35" x="159.033203"/>
      </g>
     </g>
    </g>
    <g id="ytick_4">
     <g id="line2d_13">
      <path d="M 57.6 187.530682 
L 414.72 187.530682 
" clip-path="url(#p4764aac0c3)" style="fill: none; stroke: #cccccc; stroke-width: 0.8; stroke-linecap: round"/>
     </g>
     <g id="text_14">
      <!-- 0.60 -->
      <g style="fill: #262626" transform="translate(28.334375 191.3299)scale(0.1 -0.1)">
       <defs>
        <path id="DejaVuSans-36" d="M 2113 2584 
Q 1688 2584 1439 2293 
Q 1191 2003 1191 1497 
Q 1191 994 1439 701 
Q 1688 409 2113 409 
Q 2538 409 2786 701 
Q 3034 994 3034 1497 
Q 3034 2003 2786 2293 
Q 2538 2584 2113 2584 
z
M 3366 4563 
L 3366 3988 
Q 3128 4100 2886 4159 
Q 2644 4219 2406 4219 
Q 1781 4219 1451 3797 
Q 1122 3375 1075 2522 
Q 1259 2794 1537 2939 
Q 1816 3084 2150 3084 
Q 2853 3084 3261 2657 
Q 3669 2231 3669 1497 
Q 3669 778 3244 343 
Q 2819 -91 2113 -91 
Q 1303 -91 875 529 
Q 447 1150 447 2328 
Q 447 3434 972 4092 
Q 1497 4750 2381 4750 
Q 2619 4750 2861 4703 
Q 3103 4656 3366 4563 
z
" transform="scale(0.015625)"/>
       </defs>
       <use xlink:href="#DejaVuSans-30"/>
       <use xlink:href="#DejaVuSans-2e" x="63.623047"/>
       <use xlink:href="#DejaVuSans-36" x="95.410156"/>
       <use xlink:href="#DejaVuSans-30" x="159.033203"/>
      </g>
     </g>
    </g>
    <g id="ytick_5">
     <g id="line2d_14">
      <path d="M 57.6 148.757238 
L 414.72 148.757238 
" clip-path="url(#p4764aac0c3)" style="fill: none; stroke: #cccccc; stroke-width: 0.8; stroke-linecap: round"/>
     </g>
     <g id="text_15">
      <!-- 0.65 -->
      <g style="fill: #262626" transform="translate(28.334375 152.556457)scale(0.1 -0.1)">
       <use xlink:href="#DejaVuSans-30"/>
       <use xlink:href="#DejaVuSans-2e" x="63.623047"/>
       <use xlink:href="#DejaVuSans-36" x="95.410156"/>
       <use xlink:href="#DejaVuSans-35" x="159.033203"/>
      </g>
     </g>
    </g>
    <g id="ytick_6">
     <g id="line2d_15">
      <path d="M 57.6 109.983795 
L 414.72 109.983795 
" clip-path="url(#p4764aac0c3)" style="fill: none; stroke: #cccccc; stroke-width: 0.8; stroke-linecap: round"/>
     </g>
     <g id="text_16">
      <!-- 0.70 -->
      <g style="fill: #262626" transform="translate(28.334375 113.783014)scale(0.1 -0.1)">
       <use xlink:href="#DejaVuSans-30"/>
       <use xlink:href="#DejaVuSans-2e" x="63.623047"/>
       <use xlink:href="#DejaVuSans-37" x="95.410156"/>
       <use xlink:href="#DejaVuSans-30" x="159.033203"/>
      </g>
     </g>
    </g>
    <g id="ytick_7">
     <g id="line2d_16">
      <path d="M 57.6 71.210351 
L 414.72 71.210351 
" clip-path="url(#p4764aac0c3)" style="fill: none; stroke: #cccccc; stroke-width: 0.8; stroke-linecap: round"/>
     </g>
     <g id="text_17">
      <!-- 0.75 -->
      <g style="fill: #262626" transform="translate(28.334375 75.00957)scale(0.1 -0.1)">
       <use xlink:href="#DejaVuSans-30"/>
       <use xlink:href="#DejaVuSans-2e" x="63.623047"/>
       <use xlink:href="#DejaVuSans-37" x="95.410156"/>
       <use xlink:href="#DejaVuSans-35" x="159.033203"/>
      </g>
     </g>
    </g>
    <g id="text_18">
     <!-- Iteration -->
     <g style="fill: #262626" transform="translate(22.254687 195.736594)rotate(-90)scale(0.1 -0.1)">
      <defs>
       <path id="DejaVuSans-49" d="M 628 4666 
L 1259 4666 
L 1259 0 
L 628 0 
L 628 4666 
z
" transform="scale(0.015625)"/>
       <path id="DejaVuSans-74" d="M 1172 4494 
L 1172 3500 
L 2356 3500 
L 2356 3053 
L 1172 3053 
L 1172 1153 
Q 1172 725 1289 603 
Q 1406 481 1766 481 
L 2356 481 
L 2356 0 
L 1766 0 
Q 1100 0 847 248 
Q 594 497 594 1153 
L 594 3053 
L 172 3053 
L 172 3500 
L 594 3500 
L 594 4494 
L 1172 4494 
z
" transform="scale(0.015625)"/>
       <path id="DejaVuSans-65" d="M 3597 1894 
L 3597 1613 
L 953 1613 
Q 991 1019 1311 708 
Q 1631 397 2203 397 
Q 2534 397 2845 478 
Q 3156 559 3463 722 
L 3463 178 
Q 3153 47 2828 -22 
Q 2503 -91 2169 -91 
Q 1331 -91 842 396 
Q 353 884 353 1716 
Q 353 2575 817 3079 
Q 1281 3584 2069 3584 
Q 2775 3584 3186 3129 
Q 3597 2675 3597 1894 
z
M 3022 2063 
Q 3016 2534 2758 2815 
Q 2500 3097 2075 3097 
Q 1594 3097 1305 2825 
Q 1016 2553 972 2059 
L 3022 2063 
z
" transform="scale(0.015625)"/>
       <path id="DejaVuSans-61" d="M 2194 1759 
Q 1497 1759 1228 1600 
Q 959 1441 959 1056 
Q 959 750 1161 570 
Q 1363 391 1709 391 
Q 2188 391 2477 730 
Q 2766 1069 2766 1631 
L 2766 1759 
L 2194 1759 
z
M 3341 1997 
L 3341 0 
L 2766 0 
L 2766 531 
Q 2569 213 2275 61 
Q 1981 -91 1556 -91 
Q 1019 -91 701 211 
Q 384 513 384 1019 
Q 384 1609 779 1909 
Q 1175 2209 1959 2209 
L 2766 2209 
L 2766 2266 
Q 2766 2663 2505 2880 
Q 2244 3097 1772 3097 
Q 1472 3097 1187 3025 
Q 903 2953 641 2809 
L 641 3341 
Q 956 3463 1253 3523 
Q 1550 3584 1831 3584 
Q 2591 3584 2966 3190 
Q 3341 2797 3341 1997 
z
" transform="scale(0.015625)"/>
       <path id="DejaVuSans-69" d="M 603 3500 
L 1178 3500 
L 1178 0 
L 603 0 
L 603 3500 
z
M 603 4863 
L 1178 4863 
L 1178 4134 
L 603 4134 
L 603 4863 
z
" transform="scale(0.015625)"/>
       <path id="DejaVuSans-6e" d="M 3513 2113 
L 3513 0 
L 2938 0 
L 2938 2094 
Q 2938 2591 2744 2837 
Q 2550 3084 2163 3084 
Q 1697 3084 1428 2787 
Q 1159 2491 1159 1978 
L 1159 0 
L 581 0 
L 581 3500 
L 1159 3500 
L 1159 2956 
Q 1366 3272 1645 3428 
Q 1925 3584 2291 3584 
Q 2894 3584 3203 3211 
Q 3513 2838 3513 2113 
z
" transform="scale(0.015625)"/>
      </defs>
      <use xlink:href="#DejaVuSans-49"/>
      <use xlink:href="#DejaVuSans-74" x="29.492188"/>
      <use xlink:href="#DejaVuSans-65" x="68.701172"/>
      <use xlink:href="#DejaVuSans-72" x="130.224609"/>
      <use xlink:href="#DejaVuSans-61" x="171.337891"/>
      <use xlink:href="#DejaVuSans-74" x="232.617188"/>
      <use xlink:href="#DejaVuSans-69" x="271.826172"/>
      <use xlink:href="#DejaVuSans-6f" x="299.609375"/>
      <use xlink:href="#DejaVuSans-6e" x="360.791016"/>
     </g>
    </g>
   </g>
   <g id="PolyCollection_1">
    <defs>
     <path id="m57a3ef8aae" d="M 73.832727 -215.012163 
L 73.832727 -88.160598 
L 75.464157 -148.272982 
L 77.095587 -159.402157 
L 78.727017 -143.325696 
L 80.358447 -143.851624 
L 81.989877 -152.446199 
L 83.621307 -150.769945 
L 85.252736 -111.924976 
L 86.884166 -119.128697 
L 88.515596 -160.025479 
L 90.147026 -125.437405 
L 91.778456 -148.974036 
L 93.409886 -169.768371 
L 95.041316 -115.392201 
L 96.672746 -112.843097 
L 98.304175 -108.273668 
L 99.935605 -152.203814 
L 101.567035 -144.584983 
L 103.198465 -176.53755 
L 104.829895 -127.318532 
L 106.461325 -149.890173 
L 108.092755 -127.46919 
L 109.724185 -138.269694 
L 111.355614 -109.037802 
L 112.987044 -159.686193 
L 114.618474 -115.441296 
L 116.249904 -164.554838 
L 117.881334 -126.39255 
L 119.512764 -143.282346 
L 121.144194 -122.960453 
L 122.775624 -126.456153 
L 124.407053 -116.403825 
L 126.038483 -107.41159 
L 127.669913 -95.186802 
L 129.301343 -79.34568 
L 130.932773 -107.894251 
L 132.564203 -138.776377 
L 134.195633 -132.349914 
L 135.827063 -112.238318 
L 137.458492 -144.435164 
L 139.089922 -152.062402 
L 140.721352 -135.951686 
L 142.352782 -148.322368 
L 143.984212 -106.716156 
L 145.615642 -132.788078 
L 147.247072 -146.852883 
L 148.878502 -175.581357 
L 150.509931 -79.000478 
L 152.141361 -154.99442 
L 153.772791 -110.513459 
L 155.404221 -89.189184 
L 157.035651 -161.862351 
L 158.667081 -108.647844 
L 160.298511 -148.145732 
L 161.929941 -78.107467 
L 163.56137 -126.62488 
L 165.1928 -132.475937 
L 166.82423 -174.866608 
L 168.45566 -121.066642 
L 170.08709 -91.481628 
L 171.71852 -129.474654 
L 173.34995 -158.881046 
L 174.98138 -154.019656 
L 176.61281 -133.091353 
L 178.244239 -142.247241 
L 179.875669 -168.277859 
L 181.507099 -150.915015 
L 183.138529 -121.883336 
L 184.769959 -105.385791 
L 186.401389 -158.962726 
L 188.032819 -141.61952 
L 189.664249 -197.502297 
L 191.295678 -127.393757 
L 192.927108 -134.983973 
L 194.558538 -174.538673 
L 196.189968 -119.292835 
L 197.821398 -95.432354 
L 199.452828 -113.196733 
L 201.084258 -132.64269 
L 202.715688 -114.28626 
L 204.347117 -180.713751 
L 205.978547 -146.061462 
L 207.609977 -99.958434 
L 209.241407 -141.41614 
L 210.872837 -148.830577 
L 212.504267 -148.049165 
L 214.135697 -134.847712 
L 215.767127 -127.47533 
L 217.398556 -150.41171 
L 219.029986 -111.71578 
L 220.661416 -173.707167 
L 222.292846 -150.773601 
L 223.924276 -127.612272 
L 225.555706 -118.407781 
L 227.187136 -120.655781 
L 228.818566 -166.402565 
L 230.449995 -148.053247 
L 232.081425 -109.24843 
L 233.712855 -112.955449 
L 235.344285 -81.332027 
L 236.975715 -165.172185 
L 238.607145 -117.685758 
L 240.238575 -150.60264 
L 241.870005 -147.742003 
L 243.501434 -183.319308 
L 245.132864 -108.424912 
L 246.764294 -143.436229 
L 248.395724 -130.735136 
L 250.027154 -173.261692 
L 251.658584 -113.977749 
L 253.290014 -175.630534 
L 254.921444 -121.767698 
L 256.552873 -160.04356 
L 258.184303 -150.329834 
L 259.815733 -82.69787 
L 261.447163 -127.221222 
L 263.078593 -167.042183 
L 264.710023 -148.683828 
L 266.341453 -185.168419 
L 267.972883 -144.621571 
L 269.604312 -113.578523 
L 271.235742 -89.226566 
L 272.867172 -184.362921 
L 274.498602 -60.076512 
L 276.130032 -163.18402 
L 277.761462 -78.945463 
L 279.392892 -109.787185 
L 281.024322 -113.267159 
L 282.655751 -97.904166 
L 284.287181 -96.469699 
L 285.918611 -169.66521 
L 287.550041 -100.479718 
L 289.181471 -127.342432 
L 290.812901 -92.217803 
L 292.444331 -147.229831 
L 294.075761 -85.503215 
L 295.70719 -100.116817 
L 297.33862 -148.701346 
L 298.97005 -130.606701 
L 300.60148 -158.761172 
L 302.23291 -125.786076 
L 303.86434 -149.25889 
L 305.49577 -118.268678 
L 307.1272 -153.088869 
L 308.75863 -126.503897 
L 310.390059 -161.566748 
L 312.021489 -139.839457 
L 313.652919 -109.108596 
L 315.284349 -195.882077 
L 316.915779 -121.353665 
L 318.547209 -121.282529 
L 320.178639 -131.354184 
L 321.810069 -131.900165 
L 323.441498 -50.112 
L 325.072928 -133.392336 
L 326.704358 -131.591777 
L 328.335788 -143.022482 
L 329.967218 -143.360108 
L 331.598648 -95.029389 
L 333.230078 -107.563772 
L 334.861508 -137.334276 
L 336.492937 -121.247191 
L 338.124367 -167.200516 
L 339.755797 -148.169466 
L 341.387227 -167.781623 
L 343.018657 -137.883244 
L 344.650087 -81.866135 
L 346.281517 -142.126759 
L 347.912947 -159.921428 
L 349.544376 -142.274729 
L 351.175806 -159.637917 
L 352.807236 -163.944306 
L 354.438666 -74.213923 
L 356.070096 -123.076129 
L 357.701526 -141.022967 
L 359.332956 -145.418475 
L 360.964386 -151.199883 
L 362.595815 -69.097751 
L 364.227245 -161.048823 
L 365.858675 -134.608169 
L 367.490105 -86.649851 
L 369.121535 -89.721998 
L 370.752965 -139.861012 
L 372.384395 -165.720567 
L 374.015825 -159.322099 
L 375.647254 -186.200865 
L 377.278684 -73.638934 
L 378.910114 -129.424409 
L 380.541544 -131.167883 
L 382.172974 -103.975136 
L 383.804404 -135.03326 
L 385.435834 -132.143211 
L 387.067264 -131.547655 
L 388.698693 -148.712396 
L 390.330123 -158.095063 
L 391.961553 -174.114636 
L 393.592983 -184.578503 
L 395.224413 -154.229159 
L 396.855843 -138.336111 
L 398.487273 -144.027852 
L 398.487273 -230.247836 
L 398.487273 -230.247836 
L 396.855843 -228.080646 
L 395.224413 -236.799556 
L 393.592983 -245.711327 
L 391.961553 -252.001893 
L 390.330123 -228.980619 
L 388.698693 -228.903564 
L 387.067264 -195.643339 
L 385.435834 -197.391866 
L 383.804404 -219.218017 
L 382.172974 -187.815319 
L 380.541544 -220.158277 
L 378.910114 -232.253422 
L 377.278684 -223.751575 
L 375.647254 -222.80912 
L 374.015825 -233.715312 
L 372.384395 -251.703096 
L 370.752965 -232.987922 
L 369.121535 -240.642482 
L 367.490105 -228.715583 
L 365.858675 -245.543134 
L 364.227245 -231.532644 
L 362.595815 -245.759164 
L 360.964386 -238.79004 
L 359.332956 -218.267145 
L 357.701526 -265.279449 
L 356.070096 -229.166453 
L 354.438666 -238.908951 
L 352.807236 -257.927313 
L 351.175806 -243.277998 
L 349.544376 -217.419787 
L 347.912947 -242.576613 
L 346.281517 -266.23602 
L 344.650087 -172.38637 
L 343.018657 -229.053816 
L 341.387227 -229.598595 
L 339.755797 -226.047302 
L 338.124367 -238.729348 
L 336.492937 -218.467331 
L 334.861508 -219.338132 
L 333.230078 -176.02874 
L 331.598648 -192.702885 
L 329.967218 -227.012401 
L 328.335788 -252.141463 
L 326.704358 -233.446268 
L 325.072928 -239.033285 
L 323.441498 -228.883899 
L 321.810069 -225.065933 
L 320.178639 -215.572969 
L 318.547209 -212.366929 
L 316.915779 -206.283303 
L 315.284349 -244.148475 
L 313.652919 -204.518265 
L 312.021489 -222.41397 
L 310.390059 -220.154529 
L 308.75863 -234.62825 
L 307.1272 -218.669604 
L 305.49577 -229.828704 
L 303.86434 -227.127922 
L 302.23291 -266.155436 
L 300.60148 -243.011707 
L 298.97005 -246.725539 
L 297.33862 -224.313468 
L 295.70719 -207.458577 
L 294.075761 -241.929802 
L 292.444331 -229.032797 
L 290.812901 -200.310503 
L 289.181471 -221.752952 
L 287.550041 -223.810633 
L 285.918611 -230.892119 
L 284.287181 -192.123703 
L 282.655751 -196.351836 
L 281.024322 -188.421742 
L 279.392892 -223.611186 
L 277.761462 -237.682657 
L 276.130032 -221.905629 
L 274.498602 -246.608746 
L 272.867172 -245.913312 
L 271.235742 -234.767375 
L 269.604312 -247.246338 
L 267.972883 -226.416274 
L 266.341453 -228.740028 
L 264.710023 -235.360682 
L 263.078593 -292.032 
L 261.447163 -214.944344 
L 259.815733 -173.152708 
L 258.184303 -205.505919 
L 256.552873 -225.877304 
L 254.921444 -207.816327 
L 253.290014 -214.282341 
L 251.658584 -214.741521 
L 250.027154 -246.316606 
L 248.395724 -233.980212 
L 246.764294 -226.861045 
L 245.132864 -213.434337 
L 243.501434 -245.893658 
L 241.870005 -238.814283 
L 240.238575 -236.109556 
L 238.607145 -264.35459 
L 236.975715 -226.258089 
L 235.344285 -222.981956 
L 233.712855 -205.943331 
L 232.081425 -266.411408 
L 230.449995 -263.984285 
L 228.818566 -216.528824 
L 227.187136 -208.209428 
L 225.555706 -226.791677 
L 223.924276 -218.812707 
L 222.292846 -222.481423 
L 220.661416 -261.776627 
L 219.029986 -246.403324 
L 217.398556 -213.134317 
L 215.767127 -203.284362 
L 214.135697 -214.793355 
L 212.504267 -203.411149 
L 210.872837 -213.233402 
L 209.241407 -228.919204 
L 207.609977 -186.503902 
L 205.978547 -251.128401 
L 204.347117 -252.474003 
L 202.715688 -182.695441 
L 201.084258 -233.454996 
L 199.452828 -243.402253 
L 197.821398 -202.040643 
L 196.189968 -212.876388 
L 194.558538 -225.639759 
L 192.927108 -266.313927 
L 191.295678 -228.257987 
L 189.664249 -242.042398 
L 188.032819 -212.573745 
L 186.401389 -235.219533 
L 184.769959 -253.38777 
L 183.138529 -213.931634 
L 181.507099 -211.536019 
L 179.875669 -243.828563 
L 178.244239 -231.34045 
L 176.61281 -209.95075 
L 174.98138 -244.250697 
L 173.34995 -250.342861 
L 171.71852 -184.903655 
L 170.08709 -254.578051 
L 168.45566 -217.173084 
L 166.82423 -202.703123 
L 165.1928 -236.966553 
L 163.56137 -222.029062 
L 161.929941 -234.929295 
L 160.298511 -227.391735 
L 158.667081 -198.096334 
L 157.035651 -242.571869 
L 155.404221 -231.194363 
L 153.772791 -210.454749 
L 152.141361 -229.223223 
L 150.509931 -236.257994 
L 148.878502 -220.840743 
L 147.247072 -220.696938 
L 145.615642 -204.007671 
L 143.984212 -231.161896 
L 142.352782 -230.27981 
L 140.721352 -204.910403 
L 139.089922 -228.478675 
L 137.458492 -229.889471 
L 135.827063 -228.689036 
L 134.195633 -207.433498 
L 132.564203 -256.084814 
L 130.932773 -227.646971 
L 129.301343 -258.260437 
L 127.669913 -215.643658 
L 126.038483 -211.421019 
L 124.407053 -199.109361 
L 122.775624 -200.070413 
L 121.144194 -198.332264 
L 119.512764 -252.814337 
L 117.881334 -230.873584 
L 116.249904 -220.592824 
L 114.618474 -210.826025 
L 112.987044 -229.469795 
L 111.355614 -222.131606 
L 109.724185 -193.493439 
L 108.092755 -215.903769 
L 106.461325 -232.180994 
L 104.829895 -266.376962 
L 103.198465 -223.737873 
L 101.567035 -217.806224 
L 99.935605 -228.058983 
L 98.304175 -270.092833 
L 96.672746 -246.17702 
L 95.041316 -210.241511 
L 93.409886 -242.205709 
L 91.778456 -232.237814 
L 90.147026 -248.641583 
L 88.515596 -223.901192 
L 86.884166 -249.110027 
L 85.252736 -231.47155 
L 83.621307 -231.576783 
L 81.989877 -245.509616 
L 80.358447 -220.075112 
L 78.727017 -208.409273 
L 77.095587 -214.998621 
L 75.464157 -193.359591 
L 73.832727 -215.012163 
z
" style="stroke: #ffffff; stroke-opacity: 0.2"/>
    </defs>
    <g clip-path="url(#p4764aac0c3)">
     <use xlink:href="#m57a3ef8aae" x="0" y="345.6" style="fill: #1f77b4; fill-opacity: 0.2; stroke: #ffffff; stroke-opacity: 0.2"/>
    </g>
   </g>
   <g id="line2d_17">
    <path d="M 73.832727 194.013619 
L 75.464157 174.783714 
L 77.095587 158.399611 
L 78.727017 169.732515 
L 80.358447 163.636632 
L 81.989877 146.622093 
L 83.621307 154.426636 
L 85.252736 173.901737 
L 86.884166 161.480638 
L 88.515596 153.636664 
L 90.147026 158.560506 
L 91.778456 154.994075 
L 93.409886 139.61296 
L 95.041316 182.783144 
L 96.672746 166.089942 
L 98.304175 156.41675 
L 99.935605 155.468602 
L 101.567035 164.404396 
L 103.198465 145.462289 
L 104.829895 148.752253 
L 106.461325 154.564417 
L 108.092755 173.913521 
L 109.724185 179.718433 
L 111.355614 180.015296 
L 112.987044 151.022006 
L 114.618474 182.46634 
L 116.249904 153.026169 
L 117.881334 166.966933 
L 119.512764 147.551658 
L 121.144194 184.953641 
L 122.775624 182.336717 
L 124.407053 187.843407 
L 126.038483 186.183695 
L 127.669913 190.18477 
L 129.301343 176.796942 
L 130.932773 177.829389 
L 132.564203 148.169405 
L 134.195633 175.708294 
L 135.827063 175.136323 
L 137.458492 158.437682 
L 139.089922 155.329461 
L 140.721352 175.168955 
L 142.352782 156.298911 
L 143.984212 176.660974 
L 145.615642 177.202125 
L 148.878502 147.38895 
L 150.509931 187.970764 
L 152.141361 153.491179 
L 153.772791 185.115896 
L 155.404221 185.408226 
L 157.035651 143.38289 
L 158.667081 192.227911 
L 160.298511 157.831266 
L 161.929941 189.081619 
L 163.56137 171.273029 
L 165.1928 160.878755 
L 166.82423 156.815135 
L 168.45566 176.480137 
L 170.08709 172.57016 
L 171.71852 188.410846 
L 173.34995 140.988046 
L 174.98138 146.464823 
L 176.61281 174.078948 
L 178.244239 158.806154 
L 179.875669 139.546789 
L 181.507099 164.374483 
L 183.138529 177.692515 
L 184.769959 166.213219 
L 186.401389 148.508871 
L 188.032819 168.503368 
L 189.664249 125.827653 
L 191.295678 167.774128 
L 192.927108 144.95105 
L 194.558538 145.510784 
L 196.189968 179.515388 
L 197.821398 196.863502 
L 199.452828 167.300507 
L 201.084258 162.551157 
L 202.715688 197.10915 
L 204.347117 129.006123 
L 205.978547 147.005068 
L 207.609977 202.368832 
L 209.241407 160.432328 
L 210.872837 164.568011 
L 212.504267 169.869843 
L 214.135697 170.779466 
L 215.767127 180.220154 
L 217.398556 163.826987 
L 219.029986 166.540448 
L 220.661416 127.858103 
L 222.292846 158.972488 
L 223.924276 172.38751 
L 225.555706 173.000271 
L 227.187136 181.167395 
L 228.818566 154.134306 
L 230.449995 139.581234 
L 232.081425 157.770081 
L 233.712855 186.15061 
L 235.344285 193.443009 
L 236.975715 149.884863 
L 238.607145 154.579826 
L 240.238575 152.243902 
L 241.870005 152.321857 
L 243.501434 130.993517 
L 245.132864 184.670375 
L 246.764294 160.451363 
L 248.395724 163.242326 
L 250.027154 135.810851 
L 251.658584 181.240365 
L 253.290014 150.643563 
L 254.921444 180.807987 
L 256.552873 152.639568 
L 258.184303 167.682123 
L 259.815733 217.674711 
L 261.447163 174.517217 
L 263.078593 116.062909 
L 264.710023 153.577745 
L 266.341453 138.645777 
L 267.972883 160.081078 
L 269.604312 165.18757 
L 271.235742 183.603029 
L 272.867172 130.461884 
L 274.498602 192.257371 
L 276.130032 153.055176 
L 277.761462 187.28594 
L 279.392892 178.900814 
L 281.024322 194.75555 
L 282.655751 198.471999 
L 284.287181 201.303299 
L 285.918611 145.321336 
L 287.550041 183.454824 
L 289.181471 171.052308 
L 290.812901 199.335847 
L 292.444331 157.468686 
L 294.075761 181.883492 
L 295.70719 191.812303 
L 297.33862 159.092593 
L 298.97005 156.93388 
L 300.60148 144.71356 
L 302.23291 149.629244 
L 303.86434 157.406594 
L 305.49577 171.551309 
L 307.1272 159.720764 
L 308.75863 165.033926 
L 310.390059 154.739362 
L 312.021489 164.473286 
L 313.652919 188.78657 
L 315.284349 125.584724 
L 316.915779 181.781516 
L 318.547209 178.775271 
L 320.178639 172.136424 
L 321.810069 167.116951 
L 323.441498 206.102051 
L 325.072928 159.38719 
L 326.704358 163.080978 
L 328.335788 148.018027 
L 329.967218 160.413745 
L 331.598648 201.733863 
L 333.230078 203.803744 
L 334.861508 167.263796 
L 336.492937 175.742739 
L 338.124367 142.635068 
L 339.755797 158.491616 
L 341.387227 146.909891 
L 343.018657 162.13147 
L 344.650087 218.473748 
L 346.281517 141.418611 
L 347.912947 144.35098 
L 349.544376 165.752742 
L 351.175806 144.142043 
L 352.807236 134.664191 
L 354.438666 189.038563 
L 356.070096 169.478709 
L 357.701526 142.448792 
L 359.332956 163.75719 
L 360.964386 150.605039 
L 362.595815 188.171542 
L 364.227245 149.309267 
L 365.858675 155.524348 
L 367.490105 187.917283 
L 369.121535 180.41776 
L 372.384395 136.888168 
L 374.015825 149.081294 
L 375.647254 141.095008 
L 377.278684 196.904745 
L 378.910114 164.761085 
L 380.541544 169.93692 
L 382.172974 199.704772 
L 383.804404 168.474361 
L 385.435834 180.832462 
L 387.067264 182.004503 
L 388.698693 156.79202 
L 390.330123 152.062159 
L 391.961553 132.541735 
L 393.592983 130.455085 
L 395.224413 150.085642 
L 396.855843 162.391622 
L 398.487273 158.462156 
L 398.487273 158.462156 
" clip-path="url(#p4764aac0c3)" style="fill: none; stroke: #1f77b4; stroke-width: 1.5; stroke-linecap: round"/>
   </g>
   <g id="LineCollection_1">
    <path d="M 398.487273 295.488 
L 398.487273 53.568 
" clip-path="url(#p4764aac0c3)" style="fill: none; stroke-dasharray: 5.55,2.4; stroke-dashoffset: 0; stroke: #1f77b4; stroke-width: 1.5"/>
   </g>
   <g id="patch_3">
    <path d="M 57.6 307.584 
L 57.6 41.472 
" style="fill: none; stroke: #cccccc; stroke-width: 0.8; stroke-linejoin: miter; stroke-linecap: square"/>
   </g>
   <g id="patch_4">
    <path d="M 414.72 307.584 
L 414.72 41.472 
" style="fill: none; stroke: #cccccc; stroke-width: 0.8; stroke-linejoin: miter; stroke-linecap: square"/>
   </g>
   <g id="patch_5">
    <path d="M 57.6 307.584 
L 414.72 307.584 
" style="fill: none; stroke: #cccccc; stroke-width: 0.8; stroke-linejoin: miter; stroke-linecap: square"/>
   </g>
   <g id="patch_6">
    <path d="M 57.6 41.472 
L 414.72 41.472 
" style="fill: none; stroke: #cccccc; stroke-width: 0.8; stroke-linejoin: miter; stroke-linecap: square"/>
   </g>
   <g id="text_19">
    <!-- Model performance vs. # of iterations -->
    <g style="fill: #262626" transform="translate(122.314688 35.472)scale(0.12 -0.12)">
     <defs>
      <path id="DejaVuSans-4d" d="M 628 4666 
L 1569 4666 
L 2759 1491 
L 3956 4666 
L 4897 4666 
L 4897 0 
L 4281 0 
L 4281 4097 
L 3078 897 
L 2444 897 
L 1241 4097 
L 1241 0 
L 628 0 
L 628 4666 
z
" transform="scale(0.015625)"/>
      <path id="DejaVuSans-64" d="M 2906 2969 
L 2906 4863 
L 3481 4863 
L 3481 0 
L 2906 0 
L 2906 525 
Q 2725 213 2448 61 
Q 2172 -91 1784 -91 
Q 1150 -91 751 415 
Q 353 922 353 1747 
Q 353 2572 751 3078 
Q 1150 3584 1784 3584 
Q 2172 3584 2448 3432 
Q 2725 3281 2906 2969 
z
M 947 1747 
Q 947 1113 1208 752 
Q 1469 391 1925 391 
Q 2381 391 2643 752 
Q 2906 1113 2906 1747 
Q 2906 2381 2643 2742 
Q 2381 3103 1925 3103 
Q 1469 3103 1208 2742 
Q 947 2381 947 1747 
z
" transform="scale(0.015625)"/>
      <path id="DejaVuSans-6c" d="M 603 4863 
L 1178 4863 
L 1178 0 
L 603 0 
L 603 4863 
z
" transform="scale(0.015625)"/>
      <path id="DejaVuSans-20" transform="scale(0.015625)"/>
      <path id="DejaVuSans-70" d="M 1159 525 
L 1159 -1331 
L 581 -1331 
L 581 3500 
L 1159 3500 
L 1159 2969 
Q 1341 3281 1617 3432 
Q 1894 3584 2278 3584 
Q 2916 3584 3314 3078 
Q 3713 2572 3713 1747 
Q 3713 922 3314 415 
Q 2916 -91 2278 -91 
Q 1894 -91 1617 61 
Q 1341 213 1159 525 
z
M 3116 1747 
Q 3116 2381 2855 2742 
Q 2594 3103 2138 3103 
Q 1681 3103 1420 2742 
Q 1159 2381 1159 1747 
Q 1159 1113 1420 752 
Q 1681 391 2138 391 
Q 2594 391 2855 752 
Q 3116 1113 3116 1747 
z
" transform="scale(0.015625)"/>
      <path id="DejaVuSans-66" d="M 2375 4863 
L 2375 4384 
L 1825 4384 
Q 1516 4384 1395 4259 
Q 1275 4134 1275 3809 
L 1275 3500 
L 2222 3500 
L 2222 3053 
L 1275 3053 
L 1275 0 
L 697 0 
L 697 3053 
L 147 3053 
L 147 3500 
L 697 3500 
L 697 3744 
Q 697 4328 969 4595 
Q 1241 4863 1831 4863 
L 2375 4863 
z
" transform="scale(0.015625)"/>
      <path id="DejaVuSans-6d" d="M 3328 2828 
Q 3544 3216 3844 3400 
Q 4144 3584 4550 3584 
Q 5097 3584 5394 3201 
Q 5691 2819 5691 2113 
L 5691 0 
L 5113 0 
L 5113 2094 
Q 5113 2597 4934 2840 
Q 4756 3084 4391 3084 
Q 3944 3084 3684 2787 
Q 3425 2491 3425 1978 
L 3425 0 
L 2847 0 
L 2847 2094 
Q 2847 2600 2669 2842 
Q 2491 3084 2119 3084 
Q 1678 3084 1418 2786 
Q 1159 2488 1159 1978 
L 1159 0 
L 581 0 
L 581 3500 
L 1159 3500 
L 1159 2956 
Q 1356 3278 1631 3431 
Q 1906 3584 2284 3584 
Q 2666 3584 2933 3390 
Q 3200 3197 3328 2828 
z
" transform="scale(0.015625)"/>
      <path id="DejaVuSans-76" d="M 191 3500 
L 800 3500 
L 1894 563 
L 2988 3500 
L 3597 3500 
L 2284 0 
L 1503 0 
L 191 3500 
z
" transform="scale(0.015625)"/>
      <path id="DejaVuSans-73" d="M 2834 3397 
L 2834 2853 
Q 2591 2978 2328 3040 
Q 2066 3103 1784 3103 
Q 1356 3103 1142 2972 
Q 928 2841 928 2578 
Q 928 2378 1081 2264 
Q 1234 2150 1697 2047 
L 1894 2003 
Q 2506 1872 2764 1633 
Q 3022 1394 3022 966 
Q 3022 478 2636 193 
Q 2250 -91 1575 -91 
Q 1294 -91 989 -36 
Q 684 19 347 128 
L 347 722 
Q 666 556 975 473 
Q 1284 391 1588 391 
Q 1994 391 2212 530 
Q 2431 669 2431 922 
Q 2431 1156 2273 1281 
Q 2116 1406 1581 1522 
L 1381 1569 
Q 847 1681 609 1914 
Q 372 2147 372 2553 
Q 372 3047 722 3315 
Q 1072 3584 1716 3584 
Q 2034 3584 2315 3537 
Q 2597 3491 2834 3397 
z
" transform="scale(0.015625)"/>
      <path id="DejaVuSans-23" d="M 3272 2816 
L 2363 2816 
L 2100 1772 
L 3016 1772 
L 3272 2816 
z
M 2803 4594 
L 2478 3297 
L 3391 3297 
L 3719 4594 
L 4219 4594 
L 3897 3297 
L 4872 3297 
L 4872 2816 
L 3775 2816 
L 3519 1772 
L 4513 1772 
L 4513 1294 
L 3397 1294 
L 3072 0 
L 2572 0 
L 2894 1294 
L 1978 1294 
L 1656 0 
L 1153 0 
L 1478 1294 
L 494 1294 
L 494 1772 
L 1594 1772 
L 1856 2816 
L 850 2816 
L 850 3297 
L 1978 3297 
L 2297 4594 
L 2803 4594 
z
" transform="scale(0.015625)"/>
     </defs>
     <use xlink:href="#DejaVuSans-4d"/>
     <use xlink:href="#DejaVuSans-6f" x="86.279297"/>
     <use xlink:href="#DejaVuSans-64" x="147.460938"/>
     <use xlink:href="#DejaVuSans-65" x="210.9375"/>
     <use xlink:href="#DejaVuSans-6c" x="272.460938"/>
     <use xlink:href="#DejaVuSans-20" x="300.244141"/>
     <use xlink:href="#DejaVuSans-70" x="332.03125"/>
     <use xlink:href="#DejaVuSans-65" x="395.507812"/>
     <use xlink:href="#DejaVuSans-72" x="457.03125"/>
     <use xlink:href="#DejaVuSans-66" x="498.144531"/>
     <use xlink:href="#DejaVuSans-6f" x="533.349609"/>
     <use xlink:href="#DejaVuSans-72" x="594.53125"/>
     <use xlink:href="#DejaVuSans-6d" x="633.894531"/>
     <use xlink:href="#DejaVuSans-61" x="731.306641"/>
     <use xlink:href="#DejaVuSans-6e" x="792.585938"/>
     <use xlink:href="#DejaVuSans-63" x="855.964844"/>
     <use xlink:href="#DejaVuSans-65" x="910.945312"/>
     <use xlink:href="#DejaVuSans-20" x="972.46875"/>
     <use xlink:href="#DejaVuSans-76" x="1004.255859"/>
     <use xlink:href="#DejaVuSans-73" x="1063.435547"/>
     <use xlink:href="#DejaVuSans-2e" x="1115.535156"/>
     <use xlink:href="#DejaVuSans-20" x="1147.322266"/>
     <use xlink:href="#DejaVuSans-23" x="1179.109375"/>
     <use xlink:href="#DejaVuSans-20" x="1262.898438"/>
     <use xlink:href="#DejaVuSans-6f" x="1294.685547"/>
     <use xlink:href="#DejaVuSans-66" x="1355.867188"/>
     <use xlink:href="#DejaVuSans-20" x="1391.072266"/>
     <use xlink:href="#DejaVuSans-69" x="1422.859375"/>
     <use xlink:href="#DejaVuSans-74" x="1450.642578"/>
     <use xlink:href="#DejaVuSans-65" x="1489.851562"/>
     <use xlink:href="#DejaVuSans-72" x="1551.375"/>
     <use xlink:href="#DejaVuSans-61" x="1592.488281"/>
     <use xlink:href="#DejaVuSans-74" x="1653.767578"/>
     <use xlink:href="#DejaVuSans-69" x="1692.976562"/>
     <use xlink:href="#DejaVuSans-6f" x="1720.759766"/>
     <use xlink:href="#DejaVuSans-6e" x="1781.941406"/>
     <use xlink:href="#DejaVuSans-73" x="1845.320312"/>
    </g>
   </g>
  </g>
 </g>
 <defs>
  <clipPath id="p4764aac0c3">
   <rect x="57.6" y="41.472" width="357.12" height="266.112"/>
  </clipPath>
 </defs>
</svg>
