<?xml version="1.0" encoding="utf-8" standalone="no"?>
<!DOCTYPE svg PUBLIC "-//W3C//DTD SVG 1.1//EN"
  "http://www.w3.org/Graphics/SVG/1.1/DTD/svg11.dtd">
<svg xmlns:xlink="http://www.w3.org/1999/xlink" width="460.8pt" height="345.6pt" viewBox="0 0 460.8 345.6" xmlns="http://www.w3.org/2000/svg" version="1.1">
 <metadata>
  <rdf:RDF xmlns:dc="http://purl.org/dc/elements/1.1/" xmlns:cc="http://creativecommons.org/ns#" xmlns:rdf="http://www.w3.org/1999/02/22-rdf-syntax-ns#">
   <cc:Work>
    <dc:type rdf:resource="http://purl.org/dc/dcmitype/StillImage"/>
    <dc:date>2022-10-30T23:04:45.099443</dc:date>
    <dc:format>image/svg+xml</dc:format>
    <dc:creator>
     <cc:Agent>
      <dc:title>Matplotlib v3.5.2, https://matplotlib.org/</dc:title>
     </cc:Agent>
    </dc:creator>
   </cc:Work>
  </rdf:RDF>
 </metadata>
 <defs>
  <style type="text/css">*{stroke-linejoin: round; stroke-linecap: butt}</style>
 </defs>
 <g id="figure_1">
  <g id="patch_1">
   <path d="M 0 345.6 
L 460.8 345.6 
L 460.8 0 
L 0 0 
z
" style="fill: #ffffff"/>
  </g>
  <g id="axes_1">
   <g id="patch_2">
    <path d="M 57.6 307.584 
L 414.72 307.584 
L 414.72 41.472 
L 57.6 41.472 
z
" style="fill: #ffffff"/>
   </g>
   <g id="matplotlib.axis_1">
    <g id="xtick_1">
     <g id="line2d_1">
      <path d="M 72.201297 307.584 
L 72.201297 41.472 
" clip-path="url(#p247ae42b6a)" style="fill: none; stroke: #cccccc; stroke-width: 0.8; stroke-linecap: round"/>
     </g>
     <g id="text_1">
      <!-- 0 -->
      <g style="fill: #262626" transform="translate(69.020047 322.182437)scale(0.1 -0.1)">
       <defs>
        <path id="DejaVuSans-30" d="M 2034 4250 
Q 1547 4250 1301 3770 
Q 1056 3291 1056 2328 
Q 1056 1369 1301 889 
Q 1547 409 2034 409 
Q 2525 409 2770 889 
Q 3016 1369 3016 2328 
Q 3016 3291 2770 3770 
Q 2525 4250 2034 4250 
z
M 2034 4750 
Q 2819 4750 3233 4129 
Q 3647 3509 3647 2328 
Q 3647 1150 3233 529 
Q 2819 -91 2034 -91 
Q 1250 -91 836 529 
Q 422 1150 422 2328 
Q 422 3509 836 4129 
Q 1250 4750 2034 4750 
z
" transform="scale(0.015625)"/>
       </defs>
       <use xlink:href="#DejaVuSans-30"/>
      </g>
     </g>
    </g>
    <g id="xtick_2">
     <g id="line2d_2">
      <path d="M 112.987044 307.584 
L 112.987044 41.472 
" clip-path="url(#p247ae42b6a)" style="fill: none; stroke: #cccccc; stroke-width: 0.8; stroke-linecap: round"/>
     </g>
     <g id="text_2">
      <!-- 25 -->
      <g style="fill: #262626" transform="translate(106.624544 322.182437)scale(0.1 -0.1)">
       <defs>
        <path id="DejaVuSans-32" d="M 1228 531 
L 3431 531 
L 3431 0 
L 469 0 
L 469 531 
Q 828 903 1448 1529 
Q 2069 2156 2228 2338 
Q 2531 2678 2651 2914 
Q 2772 3150 2772 3378 
Q 2772 3750 2511 3984 
Q 2250 4219 1831 4219 
Q 1534 4219 1204 4116 
Q 875 4013 500 3803 
L 500 4441 
Q 881 4594 1212 4672 
Q 1544 4750 1819 4750 
Q 2544 4750 2975 4387 
Q 3406 4025 3406 3419 
Q 3406 3131 3298 2873 
Q 3191 2616 2906 2266 
Q 2828 2175 2409 1742 
Q 1991 1309 1228 531 
z
" transform="scale(0.015625)"/>
        <path id="DejaVuSans-35" d="M 691 4666 
L 3169 4666 
L 3169 4134 
L 1269 4134 
L 1269 2991 
Q 1406 3038 1543 3061 
Q 1681 3084 1819 3084 
Q 2600 3084 3056 2656 
Q 3513 2228 3513 1497 
Q 3513 744 3044 326 
Q 2575 -91 1722 -91 
Q 1428 -91 1123 -41 
Q 819 9 494 109 
L 494 744 
Q 775 591 1075 516 
Q 1375 441 1709 441 
Q 2250 441 2565 725 
Q 2881 1009 2881 1497 
Q 2881 1984 2565 2268 
Q 2250 2553 1709 2553 
Q 1456 2553 1204 2497 
Q 953 2441 691 2322 
L 691 4666 
z
" transform="scale(0.015625)"/>
       </defs>
       <use xlink:href="#DejaVuSans-32"/>
       <use xlink:href="#DejaVuSans-35" x="63.623047"/>
      </g>
     </g>
    </g>
    <g id="xtick_3">
     <g id="line2d_3">
      <path d="M 153.772791 307.584 
L 153.772791 41.472 
" clip-path="url(#p247ae42b6a)" style="fill: none; stroke: #cccccc; stroke-width: 0.8; stroke-linecap: round"/>
     </g>
     <g id="text_3">
      <!-- 50 -->
      <g style="fill: #262626" transform="translate(147.410291 322.182437)scale(0.1 -0.1)">
       <use xlink:href="#DejaVuSans-35"/>
       <use xlink:href="#DejaVuSans-30" x="63.623047"/>
      </g>
     </g>
    </g>
    <g id="xtick_4">
     <g id="line2d_4">
      <path d="M 194.558538 307.584 
L 194.558538 41.472 
" clip-path="url(#p247ae42b6a)" style="fill: none; stroke: #cccccc; stroke-width: 0.8; stroke-linecap: round"/>
     </g>
     <g id="text_4">
      <!-- 75 -->
      <g style="fill: #262626" transform="translate(188.196038 322.182437)scale(0.1 -0.1)">
       <defs>
        <path id="DejaVuSans-37" d="M 525 4666 
L 3525 4666 
L 3525 4397 
L 1831 0 
L 1172 0 
L 2766 4134 
L 525 4134 
L 525 4666 
z
" transform="scale(0.015625)"/>
       </defs>
       <use xlink:href="#DejaVuSans-37"/>
       <use xlink:href="#DejaVuSans-35" x="63.623047"/>
      </g>
     </g>
    </g>
    <g id="xtick_5">
     <g id="line2d_5">
      <path d="M 235.344285 307.584 
L 235.344285 41.472 
" clip-path="url(#p247ae42b6a)" style="fill: none; stroke: #cccccc; stroke-width: 0.8; stroke-linecap: round"/>
     </g>
     <g id="text_5">
      <!-- 100 -->
      <g style="fill: #262626" transform="translate(225.800535 322.182437)scale(0.1 -0.1)">
       <defs>
        <path id="DejaVuSans-31" d="M 794 531 
L 1825 531 
L 1825 4091 
L 703 3866 
L 703 4441 
L 1819 4666 
L 2450 4666 
L 2450 531 
L 3481 531 
L 3481 0 
L 794 0 
L 794 531 
z
" transform="scale(0.015625)"/>
       </defs>
       <use xlink:href="#DejaVuSans-31"/>
       <use xlink:href="#DejaVuSans-30" x="63.623047"/>
       <use xlink:href="#DejaVuSans-30" x="127.246094"/>
      </g>
     </g>
    </g>
    <g id="xtick_6">
     <g id="line2d_6">
      <path d="M 276.130032 307.584 
L 276.130032 41.472 
" clip-path="url(#p247ae42b6a)" style="fill: none; stroke: #cccccc; stroke-width: 0.8; stroke-linecap: round"/>
     </g>
     <g id="text_6">
      <!-- 125 -->
      <g style="fill: #262626" transform="translate(266.586282 322.182437)scale(0.1 -0.1)">
       <use xlink:href="#DejaVuSans-31"/>
       <use xlink:href="#DejaVuSans-32" x="63.623047"/>
       <use xlink:href="#DejaVuSans-35" x="127.246094"/>
      </g>
     </g>
    </g>
    <g id="xtick_7">
     <g id="line2d_7">
      <path d="M 316.915779 307.584 
L 316.915779 41.472 
" clip-path="url(#p247ae42b6a)" style="fill: none; stroke: #cccccc; stroke-width: 0.8; stroke-linecap: round"/>
     </g>
     <g id="text_7">
      <!-- 150 -->
      <g style="fill: #262626" transform="translate(307.372029 322.182437)scale(0.1 -0.1)">
       <use xlink:href="#DejaVuSans-31"/>
       <use xlink:href="#DejaVuSans-35" x="63.623047"/>
       <use xlink:href="#DejaVuSans-30" x="127.246094"/>
      </g>
     </g>
    </g>
    <g id="xtick_8">
     <g id="line2d_8">
      <path d="M 357.701526 307.584 
L 357.701526 41.472 
" clip-path="url(#p247ae42b6a)" style="fill: none; stroke: #cccccc; stroke-width: 0.8; stroke-linecap: round"/>
     </g>
     <g id="text_8">
      <!-- 175 -->
      <g style="fill: #262626" transform="translate(348.157776 322.182437)scale(0.1 -0.1)">
       <use xlink:href="#DejaVuSans-31"/>
       <use xlink:href="#DejaVuSans-37" x="63.623047"/>
       <use xlink:href="#DejaVuSans-35" x="127.246094"/>
      </g>
     </g>
    </g>
    <g id="xtick_9">
     <g id="line2d_9">
      <path d="M 398.487273 307.584 
L 398.487273 41.472 
" clip-path="url(#p247ae42b6a)" style="fill: none; stroke: #cccccc; stroke-width: 0.8; stroke-linecap: round"/>
     </g>
     <g id="text_9">
      <!-- 200 -->
      <g style="fill: #262626" transform="translate(388.943523 322.182437)scale(0.1 -0.1)">
       <use xlink:href="#DejaVuSans-32"/>
       <use xlink:href="#DejaVuSans-30" x="63.623047"/>
       <use xlink:href="#DejaVuSans-30" x="127.246094"/>
      </g>
     </g>
    </g>
    <g id="text_10">
     <!-- Iteration -->
     <g style="fill: #262626" transform="translate(214.951406 335.860562)scale(0.1 -0.1)">
      <defs>
       <path id="DejaVuSans-49" d="M 628 4666 
L 1259 4666 
L 1259 0 
L 628 0 
L 628 4666 
z
" transform="scale(0.015625)"/>
       <path id="DejaVuSans-74" d="M 1172 4494 
L 1172 3500 
L 2356 3500 
L 2356 3053 
L 1172 3053 
L 1172 1153 
Q 1172 725 1289 603 
Q 1406 481 1766 481 
L 2356 481 
L 2356 0 
L 1766 0 
Q 1100 0 847 248 
Q 594 497 594 1153 
L 594 3053 
L 172 3053 
L 172 3500 
L 594 3500 
L 594 4494 
L 1172 4494 
z
" transform="scale(0.015625)"/>
       <path id="DejaVuSans-65" d="M 3597 1894 
L 3597 1613 
L 953 1613 
Q 991 1019 1311 708 
Q 1631 397 2203 397 
Q 2534 397 2845 478 
Q 3156 559 3463 722 
L 3463 178 
Q 3153 47 2828 -22 
Q 2503 -91 2169 -91 
Q 1331 -91 842 396 
Q 353 884 353 1716 
Q 353 2575 817 3079 
Q 1281 3584 2069 3584 
Q 2775 3584 3186 3129 
Q 3597 2675 3597 1894 
z
M 3022 2063 
Q 3016 2534 2758 2815 
Q 2500 3097 2075 3097 
Q 1594 3097 1305 2825 
Q 1016 2553 972 2059 
L 3022 2063 
z
" transform="scale(0.015625)"/>
       <path id="DejaVuSans-72" d="M 2631 2963 
Q 2534 3019 2420 3045 
Q 2306 3072 2169 3072 
Q 1681 3072 1420 2755 
Q 1159 2438 1159 1844 
L 1159 0 
L 581 0 
L 581 3500 
L 1159 3500 
L 1159 2956 
Q 1341 3275 1631 3429 
Q 1922 3584 2338 3584 
Q 2397 3584 2469 3576 
Q 2541 3569 2628 3553 
L 2631 2963 
z
" transform="scale(0.015625)"/>
       <path id="DejaVuSans-61" d="M 2194 1759 
Q 1497 1759 1228 1600 
Q 959 1441 959 1056 
Q 959 750 1161 570 
Q 1363 391 1709 391 
Q 2188 391 2477 730 
Q 2766 1069 2766 1631 
L 2766 1759 
L 2194 1759 
z
M 3341 1997 
L 3341 0 
L 2766 0 
L 2766 531 
Q 2569 213 2275 61 
Q 1981 -91 1556 -91 
Q 1019 -91 701 211 
Q 384 513 384 1019 
Q 384 1609 779 1909 
Q 1175 2209 1959 2209 
L 2766 2209 
L 2766 2266 
Q 2766 2663 2505 2880 
Q 2244 3097 1772 3097 
Q 1472 3097 1187 3025 
Q 903 2953 641 2809 
L 641 3341 
Q 956 3463 1253 3523 
Q 1550 3584 1831 3584 
Q 2591 3584 2966 3190 
Q 3341 2797 3341 1997 
z
" transform="scale(0.015625)"/>
       <path id="DejaVuSans-69" d="M 603 3500 
L 1178 3500 
L 1178 0 
L 603 0 
L 603 3500 
z
M 603 4863 
L 1178 4863 
L 1178 4134 
L 603 4134 
L 603 4863 
z
" transform="scale(0.015625)"/>
       <path id="DejaVuSans-6f" d="M 1959 3097 
Q 1497 3097 1228 2736 
Q 959 2375 959 1747 
Q 959 1119 1226 758 
Q 1494 397 1959 397 
Q 2419 397 2687 759 
Q 2956 1122 2956 1747 
Q 2956 2369 2687 2733 
Q 2419 3097 1959 3097 
z
M 1959 3584 
Q 2709 3584 3137 3096 
Q 3566 2609 3566 1747 
Q 3566 888 3137 398 
Q 2709 -91 1959 -91 
Q 1206 -91 779 398 
Q 353 888 353 1747 
Q 353 2609 779 3096 
Q 1206 3584 1959 3584 
z
" transform="scale(0.015625)"/>
       <path id="DejaVuSans-6e" d="M 3513 2113 
L 3513 0 
L 2938 0 
L 2938 2094 
Q 2938 2591 2744 2837 
Q 2550 3084 2163 3084 
Q 1697 3084 1428 2787 
Q 1159 2491 1159 1978 
L 1159 0 
L 581 0 
L 581 3500 
L 1159 3500 
L 1159 2956 
Q 1366 3272 1645 3428 
Q 1925 3584 2291 3584 
Q 2894 3584 3203 3211 
Q 3513 2838 3513 2113 
z
" transform="scale(0.015625)"/>
      </defs>
      <use xlink:href="#DejaVuSans-49"/>
      <use xlink:href="#DejaVuSans-74" x="29.492188"/>
      <use xlink:href="#DejaVuSans-65" x="68.701172"/>
      <use xlink:href="#DejaVuSans-72" x="130.224609"/>
      <use xlink:href="#DejaVuSans-61" x="171.337891"/>
      <use xlink:href="#DejaVuSans-74" x="232.617188"/>
      <use xlink:href="#DejaVuSans-69" x="271.826172"/>
      <use xlink:href="#DejaVuSans-6f" x="299.609375"/>
      <use xlink:href="#DejaVuSans-6e" x="360.791016"/>
     </g>
    </g>
   </g>
   <g id="matplotlib.axis_2">
    <g id="ytick_1">
     <g id="line2d_10">
      <path d="M 57.6 293.783957 
L 414.72 293.783957 
" clip-path="url(#p247ae42b6a)" style="fill: none; stroke: #cccccc; stroke-width: 0.8; stroke-linecap: round"/>
     </g>
     <g id="text_11">
      <!-- 0.45 -->
      <g style="fill: #262626" transform="translate(28.334375 297.583175)scale(0.1 -0.1)">
       <defs>
        <path id="DejaVuSans-2e" d="M 684 794 
L 1344 794 
L 1344 0 
L 684 0 
L 684 794 
z
" transform="scale(0.015625)"/>
        <path id="DejaVuSans-34" d="M 2419 4116 
L 825 1625 
L 2419 1625 
L 2419 4116 
z
M 2253 4666 
L 3047 4666 
L 3047 1625 
L 3713 1625 
L 3713 1100 
L 3047 1100 
L 3047 0 
L 2419 0 
L 2419 1100 
L 313 1100 
L 313 1709 
L 2253 4666 
z
" transform="scale(0.015625)"/>
       </defs>
       <use xlink:href="#DejaVuSans-30"/>
       <use xlink:href="#DejaVuSans-2e" x="63.623047"/>
       <use xlink:href="#DejaVuSans-34" x="95.410156"/>
       <use xlink:href="#DejaVuSans-35" x="159.033203"/>
      </g>
     </g>
    </g>
    <g id="ytick_2">
     <g id="line2d_11">
      <path d="M 57.6 257.672763 
L 414.72 257.672763 
" clip-path="url(#p247ae42b6a)" style="fill: none; stroke: #cccccc; stroke-width: 0.8; stroke-linecap: round"/>
     </g>
     <g id="text_12">
      <!-- 0.50 -->
      <g style="fill: #262626" transform="translate(28.334375 261.471981)scale(0.1 -0.1)">
       <use xlink:href="#DejaVuSans-30"/>
       <use xlink:href="#DejaVuSans-2e" x="63.623047"/>
       <use xlink:href="#DejaVuSans-35" x="95.410156"/>
       <use xlink:href="#DejaVuSans-30" x="159.033203"/>
      </g>
     </g>
    </g>
    <g id="ytick_3">
     <g id="line2d_12">
      <path d="M 57.6 221.561568 
L 414.72 221.561568 
" clip-path="url(#p247ae42b6a)" style="fill: none; stroke: #cccccc; stroke-width: 0.8; stroke-linecap: round"/>
     </g>
     <g id="text_13">
      <!-- 0.55 -->
      <g style="fill: #262626" transform="translate(28.334375 225.360787)scale(0.1 -0.1)">
       <use xlink:href="#DejaVuSans-30"/>
       <use xlink:href="#DejaVuSans-2e" x="63.623047"/>
       <use xlink:href="#DejaVuSans-35" x="95.410156"/>
       <use xlink:href="#DejaVuSans-35" x="159.033203"/>
      </g>
     </g>
    </g>
    <g id="ytick_4">
     <g id="line2d_13">
      <path d="M 57.6 185.450374 
L 414.72 185.450374 
" clip-path="url(#p247ae42b6a)" style="fill: none; stroke: #cccccc; stroke-width: 0.8; stroke-linecap: round"/>
     </g>
     <g id="text_14">
      <!-- 0.60 -->
      <g style="fill: #262626" transform="translate(28.334375 189.249593)scale(0.1 -0.1)">
       <defs>
        <path id="DejaVuSans-36" d="M 2113 2584 
Q 1688 2584 1439 2293 
Q 1191 2003 1191 1497 
Q 1191 994 1439 701 
Q 1688 409 2113 409 
Q 2538 409 2786 701 
Q 3034 994 3034 1497 
Q 3034 2003 2786 2293 
Q 2538 2584 2113 2584 
z
M 3366 4563 
L 3366 3988 
Q 3128 4100 2886 4159 
Q 2644 4219 2406 4219 
Q 1781 4219 1451 3797 
Q 1122 3375 1075 2522 
Q 1259 2794 1537 2939 
Q 1816 3084 2150 3084 
Q 2853 3084 3261 2657 
Q 3669 2231 3669 1497 
Q 3669 778 3244 343 
Q 2819 -91 2113 -91 
Q 1303 -91 875 529 
Q 447 1150 447 2328 
Q 447 3434 972 4092 
Q 1497 4750 2381 4750 
Q 2619 4750 2861 4703 
Q 3103 4656 3366 4563 
z
" transform="scale(0.015625)"/>
       </defs>
       <use xlink:href="#DejaVuSans-30"/>
       <use xlink:href="#DejaVuSans-2e" x="63.623047"/>
       <use xlink:href="#DejaVuSans-36" x="95.410156"/>
       <use xlink:href="#DejaVuSans-30" x="159.033203"/>
      </g>
     </g>
    </g>
    <g id="ytick_5">
     <g id="line2d_14">
      <path d="M 57.6 149.33918 
L 414.72 149.33918 
" clip-path="url(#p247ae42b6a)" style="fill: none; stroke: #cccccc; stroke-width: 0.8; stroke-linecap: round"/>
     </g>
     <g id="text_15">
      <!-- 0.65 -->
      <g style="fill: #262626" transform="translate(28.334375 153.138399)scale(0.1 -0.1)">
       <use xlink:href="#DejaVuSans-30"/>
       <use xlink:href="#DejaVuSans-2e" x="63.623047"/>
       <use xlink:href="#DejaVuSans-36" x="95.410156"/>
       <use xlink:href="#DejaVuSans-35" x="159.033203"/>
      </g>
     </g>
    </g>
    <g id="ytick_6">
     <g id="line2d_15">
      <path d="M 57.6 113.227986 
L 414.72 113.227986 
" clip-path="url(#p247ae42b6a)" style="fill: none; stroke: #cccccc; stroke-width: 0.8; stroke-linecap: round"/>
     </g>
     <g id="text_16">
      <!-- 0.70 -->
      <g style="fill: #262626" transform="translate(28.334375 117.027205)scale(0.1 -0.1)">
       <use xlink:href="#DejaVuSans-30"/>
       <use xlink:href="#DejaVuSans-2e" x="63.623047"/>
       <use xlink:href="#DejaVuSans-37" x="95.410156"/>
       <use xlink:href="#DejaVuSans-30" x="159.033203"/>
      </g>
     </g>
    </g>
    <g id="ytick_7">
     <g id="line2d_16">
      <path d="M 57.6 77.116792 
L 414.72 77.116792 
" clip-path="url(#p247ae42b6a)" style="fill: none; stroke: #cccccc; stroke-width: 0.8; stroke-linecap: round"/>
     </g>
     <g id="text_17">
      <!-- 0.75 -->
      <g style="fill: #262626" transform="translate(28.334375 80.916011)scale(0.1 -0.1)">
       <use xlink:href="#DejaVuSans-30"/>
       <use xlink:href="#DejaVuSans-2e" x="63.623047"/>
       <use xlink:href="#DejaVuSans-37" x="95.410156"/>
       <use xlink:href="#DejaVuSans-35" x="159.033203"/>
      </g>
     </g>
    </g>
    <g id="text_18">
     <!-- Auroc -->
     <g style="fill: #262626" transform="translate(22.254688 188.868625)rotate(-90)scale(0.1 -0.1)">
      <defs>
       <path id="DejaVuSans-41" d="M 2188 4044 
L 1331 1722 
L 3047 1722 
L 2188 4044 
z
M 1831 4666 
L 2547 4666 
L 4325 0 
L 3669 0 
L 3244 1197 
L 1141 1197 
L 716 0 
L 50 0 
L 1831 4666 
z
" transform="scale(0.015625)"/>
       <path id="DejaVuSans-75" d="M 544 1381 
L 544 3500 
L 1119 3500 
L 1119 1403 
Q 1119 906 1312 657 
Q 1506 409 1894 409 
Q 2359 409 2629 706 
Q 2900 1003 2900 1516 
L 2900 3500 
L 3475 3500 
L 3475 0 
L 2900 0 
L 2900 538 
Q 2691 219 2414 64 
Q 2138 -91 1772 -91 
Q 1169 -91 856 284 
Q 544 659 544 1381 
z
M 1991 3584 
L 1991 3584 
z
" transform="scale(0.015625)"/>
       <path id="DejaVuSans-63" d="M 3122 3366 
L 3122 2828 
Q 2878 2963 2633 3030 
Q 2388 3097 2138 3097 
Q 1578 3097 1268 2742 
Q 959 2388 959 1747 
Q 959 1106 1268 751 
Q 1578 397 2138 397 
Q 2388 397 2633 464 
Q 2878 531 3122 666 
L 3122 134 
Q 2881 22 2623 -34 
Q 2366 -91 2075 -91 
Q 1284 -91 818 406 
Q 353 903 353 1747 
Q 353 2603 823 3093 
Q 1294 3584 2113 3584 
Q 2378 3584 2631 3529 
Q 2884 3475 3122 3366 
z
" transform="scale(0.015625)"/>
      </defs>
      <use xlink:href="#DejaVuSans-41"/>
      <use xlink:href="#DejaVuSans-75" x="68.408203"/>
      <use xlink:href="#DejaVuSans-72" x="131.787109"/>
      <use xlink:href="#DejaVuSans-6f" x="170.650391"/>
      <use xlink:href="#DejaVuSans-63" x="231.832031"/>
     </g>
    </g>
   </g>
   <g id="PolyCollection_1">
    <defs>
     <path id="m1cd2c85de6" d="M 73.832727 -264.665469 
L 73.832727 -158.256046 
L 75.464157 -167.44671 
L 77.095587 -128.367462 
L 78.727017 -173.189247 
L 80.358447 -71.20925 
L 81.989877 -181.773173 
L 83.621307 -193.75683 
L 85.252736 -119.000627 
L 86.884166 -195.517848 
L 88.515596 -153.70518 
L 90.147026 -115.07266 
L 91.778456 -165.912077 
L 93.409886 -171.086803 
L 95.041316 -117.216773 
L 96.672746 -164.617356 
L 98.304175 -147.621746 
L 99.935605 -143.373395 
L 101.567035 -153.18057 
L 103.198465 -178.813179 
L 104.829895 -175.309168 
L 106.461325 -201.627947 
L 108.092755 -142.616723 
L 109.724185 -83.883233 
L 111.355614 -115.693993 
L 112.987044 -168.882144 
L 114.618474 -85.702356 
L 116.249904 -179.386976 
L 117.881334 -133.496192 
L 119.512764 -179.830587 
L 121.144194 -132.370398 
L 122.775624 -182.38906 
L 124.407053 -181.188058 
L 126.038483 -130.393431 
L 127.669913 -195.400049 
L 129.301343 -93.29813 
L 130.932773 -192.333752 
L 132.564203 -214.237341 
L 134.195633 -180.349623 
L 135.827063 -183.414154 
L 137.458492 -211.563538 
L 139.089922 -104.597575 
L 140.721352 -148.424779 
L 142.352782 -117.405144 
L 143.984212 -189.303835 
L 145.615642 -138.594977 
L 147.247072 -156.065847 
L 148.878502 -113.448697 
L 150.509931 -147.798666 
L 152.141361 -131.857324 
L 153.772791 -202.010311 
L 155.404221 -173.316395 
L 157.035651 -158.107911 
L 158.667081 -92.216328 
L 160.298511 -195.722482 
L 161.929941 -193.103061 
L 163.56137 -195.194946 
L 165.1928 -177.250957 
L 166.82423 -190.526168 
L 168.45566 -126.232504 
L 170.08709 -170.514721 
L 171.71852 -165.688242 
L 173.34995 -152.134902 
L 174.98138 -177.662813 
L 176.61281 -160.673646 
L 178.244239 -207.746904 
L 179.875669 -132.446932 
L 181.507099 -184.251434 
L 183.138529 -102.274206 
L 184.769959 -104.150082 
L 186.401389 -164.463361 
L 188.032819 -165.780343 
L 189.664249 -180.775207 
L 191.295678 -164.003111 
L 192.927108 -137.763621 
L 194.558538 -183.935106 
L 196.189968 -173.02505 
L 197.821398 -50.112 
L 199.452828 -188.253376 
L 201.084258 -141.809192 
L 202.715688 -190.143891 
L 204.347117 -207.701529 
L 205.978547 -180.477684 
L 207.609977 -123.677645 
L 209.241407 -206.915724 
L 210.872837 -177.315217 
L 212.504267 -109.153042 
L 214.135697 -134.946691 
L 215.767127 -155.726506 
L 217.398556 -183.28058 
L 219.029986 -143.198878 
L 220.661416 -193.266527 
L 222.292846 -184.624096 
L 223.924276 -183.407622 
L 225.555706 -133.45824 
L 227.187136 -108.689775 
L 228.818566 -173.315765 
L 230.449995 -131.040607 
L 232.081425 -163.663691 
L 233.712855 -199.06612 
L 235.344285 -183.703665 
L 236.975715 -145.668354 
L 238.607145 -131.613037 
L 240.238575 -189.04184 
L 241.870005 -198.159086 
L 243.501434 -192.423969 
L 245.132864 -200.223947 
L 246.764294 -186.529413 
L 248.395724 -138.011228 
L 250.027154 -182.124165 
L 251.658584 -138.774152 
L 253.290014 -141.667857 
L 254.921444 -212.089074 
L 256.552873 -196.902778 
L 258.184303 -181.165915 
L 259.815733 -173.328847 
L 261.447163 -113.690196 
L 263.078593 -196.398863 
L 264.710023 -180.98152 
L 266.341453 -132.389075 
L 267.972883 -195.692728 
L 269.604312 -170.816463 
L 271.235742 -177.273628 
L 272.867172 -131.544129 
L 274.498602 -200.381816 
L 276.130032 -163.782358 
L 277.761462 -195.469606 
L 279.392892 -108.354075 
L 281.024322 -175.28215 
L 282.655751 -136.309755 
L 284.287181 -125.161386 
L 285.918611 -110.990535 
L 287.550041 -201.567158 
L 289.181471 -163.496798 
L 290.812901 -199.322026 
L 292.444331 -168.538582 
L 294.075761 -197.872085 
L 295.70719 -175.642217 
L 297.33862 -138.317267 
L 298.97005 -195.372721 
L 300.60148 -136.934364 
L 302.23291 -199.254211 
L 303.86434 -174.055178 
L 305.49577 -138.144744 
L 307.1272 -194.09247 
L 308.75863 -137.576895 
L 310.390059 -142.562534 
L 312.021489 -136.399005 
L 313.652919 -168.084397 
L 315.284349 -151.317115 
L 316.915779 -158.04462 
L 318.547209 -99.755589 
L 320.178639 -146.892152 
L 321.810069 -184.644112 
L 323.441498 -117.108878 
L 325.072928 -149.477419 
L 326.704358 -121.37807 
L 328.335788 -189.495849 
L 329.967218 -104.113676 
L 331.598648 -183.083057 
L 333.230078 -154.220008 
L 334.861508 -172.276223 
L 336.492937 -194.421334 
L 338.124367 -170.278525 
L 339.755797 -192.961617 
L 341.387227 -87.95634 
L 343.018657 -152.821747 
L 344.650087 -188.314158 
L 346.281517 -176.32445 
L 347.912947 -191.321693 
L 349.544376 -80.719935 
L 351.175806 -107.575435 
L 352.807236 -177.132114 
L 354.438666 -123.175099 
L 356.070096 -164.756106 
L 357.701526 -188.54457 
L 359.332956 -168.688025 
L 360.964386 -184.3875 
L 362.595815 -150.964617 
L 364.227245 -183.826332 
L 365.858675 -175.374172 
L 367.490105 -135.299457 
L 369.121535 -107.285828 
L 370.752965 -201.401937 
L 372.384395 -170.590627 
L 374.015825 -195.967125 
L 375.647254 -212.952428 
L 377.278684 -108.841887 
L 378.910114 -123.27236 
L 380.541544 -127.078776 
L 382.172974 -186.345609 
L 383.804404 -173.072854 
L 385.435834 -189.268173 
L 387.067264 -137.130323 
L 388.698693 -185.18114 
L 390.330123 -184.626515 
L 391.961553 -115.882647 
L 393.592983 -119.355908 
L 395.224413 -197.659309 
L 396.855843 -181.295148 
L 398.487273 -140.930698 
L 398.487273 -254.764583 
L 398.487273 -254.764583 
L 396.855843 -240.799546 
L 395.224413 -257.692083 
L 393.592983 -222.312665 
L 391.961553 -214.929294 
L 390.330123 -231.250465 
L 388.698693 -246.269034 
L 387.067264 -216.851562 
L 385.435834 -250.281487 
L 383.804404 -250.706854 
L 382.172974 -228.783187 
L 380.541544 -231.477562 
L 378.910114 -238.641841 
L 377.278684 -235.065145 
L 375.647254 -249.164982 
L 374.015825 -232.143715 
L 372.384395 -264.301655 
L 370.752965 -233.580391 
L 369.121535 -249.969619 
L 367.490105 -245.423152 
L 365.858675 -238.214989 
L 364.227245 -215.803345 
L 362.595815 -230.95908 
L 360.964386 -226.96359 
L 359.332956 -245.870892 
L 357.701526 -263.94994 
L 356.070096 -248.812586 
L 354.438666 -266.283182 
L 352.807236 -250.627479 
L 351.175806 -238.329761 
L 349.544376 -223.595427 
L 347.912947 -243.38916 
L 346.281517 -227.447218 
L 344.650087 -242.401705 
L 343.018657 -246.924848 
L 341.387227 -229.269968 
L 339.755797 -239.763586 
L 338.124367 -236.763028 
L 336.492937 -222.267624 
L 334.861508 -216.272196 
L 333.230078 -214.969342 
L 331.598648 -264.992838 
L 329.967218 -253.528056 
L 328.335788 -244.605817 
L 326.704358 -260.20381 
L 325.072928 -240.911057 
L 323.441498 -257.366827 
L 321.810069 -238.077056 
L 320.178639 -266.306668 
L 318.547209 -229.883291 
L 316.915779 -221.969998 
L 315.284349 -234.366855 
L 313.652919 -243.621344 
L 312.021489 -273.168818 
L 310.390059 -248.702936 
L 308.75863 -243.276534 
L 307.1272 -248.800444 
L 305.49577 -264.181225 
L 303.86434 -248.877163 
L 302.23291 -259.908531 
L 300.60148 -199.356954 
L 298.97005 -236.013912 
L 297.33862 -252.261563 
L 295.70719 -254.043394 
L 294.075761 -220.83797 
L 292.444331 -223.608791 
L 290.812901 -231.309263 
L 289.181471 -265.700463 
L 287.550041 -234.539541 
L 285.918611 -196.742605 
L 284.287181 -231.232859 
L 282.655751 -231.958189 
L 281.024322 -241.651448 
L 279.392892 -225.312915 
L 277.761462 -235.09073 
L 276.130032 -235.481552 
L 274.498602 -247.308462 
L 272.867172 -221.195827 
L 271.235742 -212.457689 
L 269.604312 -213.380336 
L 267.972883 -242.648569 
L 266.341453 -242.732371 
L 264.710023 -231.384571 
L 263.078593 -249.01974 
L 261.447163 -241.045693 
L 259.815733 -230.002015 
L 258.184303 -236.532398 
L 256.552873 -237.538958 
L 254.921444 -243.863124 
L 253.290014 -219.627961 
L 251.658584 -250.626155 
L 250.027154 -230.240064 
L 248.395724 -240.571805 
L 246.764294 -229.123764 
L 245.132864 -241.045128 
L 243.501434 -256.341961 
L 241.870005 -232.712537 
L 240.238575 -235.050319 
L 238.607145 -253.71438 
L 236.975715 -249.721246 
L 235.344285 -224.391772 
L 233.712855 -234.717739 
L 232.081425 -230.456731 
L 230.449995 -250.878638 
L 228.818566 -204.884475 
L 227.187136 -242.853692 
L 225.555706 -244.658658 
L 223.924276 -241.066226 
L 222.292846 -228.383545 
L 220.661416 -218.56686 
L 219.029986 -254.281299 
L 217.398556 -235.515737 
L 215.767127 -255.96445 
L 214.135697 -260.10573 
L 212.504267 -246.569909 
L 210.872837 -240.801716 
L 209.241407 -251.179281 
L 207.609977 -256.637084 
L 205.978547 -251.136652 
L 204.347117 -240.982913 
L 202.715688 -246.609538 
L 201.084258 -262.00517 
L 199.452828 -235.628309 
L 197.821398 -276.882568 
L 196.189968 -220.320558 
L 194.558538 -237.617454 
L 192.927108 -253.161536 
L 191.295678 -255.403587 
L 189.664249 -247.221316 
L 188.032819 -235.054206 
L 186.401389 -230.872438 
L 184.769959 -251.521833 
L 183.138529 -292.032 
L 181.507099 -245.070737 
L 179.875669 -249.394083 
L 178.244239 -237.274848 
L 176.61281 -248.603116 
L 174.98138 -236.383928 
L 173.34995 -238.077771 
L 171.71852 -217.364221 
L 170.08709 -239.853846 
L 168.45566 -227.341606 
L 166.82423 -211.73752 
L 165.1928 -222.430874 
L 163.56137 -225.031209 
L 161.929941 -237.440453 
L 160.298511 -244.490265 
L 158.667081 -222.957615 
L 157.035651 -246.282111 
L 155.404221 -215.888765 
L 153.772791 -237.008915 
L 152.141361 -251.43815 
L 150.509931 -249.679997 
L 148.878502 -220.65127 
L 147.247072 -222.845063 
L 145.615642 -261.720255 
L 143.984212 -247.675085 
L 142.352782 -218.039777 
L 140.721352 -239.596931 
L 139.089922 -227.696425 
L 137.458492 -247.633662 
L 135.827063 -237.026666 
L 134.195633 -250.868735 
L 132.564203 -243.796896 
L 130.932773 -218.732709 
L 129.301343 -238.907687 
L 127.669913 -246.857485 
L 126.038483 -225.535765 
L 124.407053 -246.854535 
L 122.775624 -242.42416 
L 121.144194 -231.022787 
L 119.512764 -236.110827 
L 117.881334 -252.512977 
L 116.249904 -248.949937 
L 114.618474 -230.103601 
L 112.987044 -235.144788 
L 111.355614 -254.944868 
L 109.724185 -215.990658 
L 108.092755 -224.620096 
L 106.461325 -248.752394 
L 104.829895 -236.140639 
L 103.198465 -228.177385 
L 101.567035 -228.715538 
L 99.935605 -257.147538 
L 98.304175 -239.877097 
L 96.672746 -251.916045 
L 95.041316 -218.05384 
L 93.409886 -234.357685 
L 91.778456 -223.998777 
L 90.147026 -232.888441 
L 88.515596 -249.161147 
L 86.884166 -248.669691 
L 85.252736 -219.703489 
L 83.621307 -231.66907 
L 81.989877 -246.387142 
L 80.358447 -248.141005 
L 78.727017 -221.089641 
L 77.095587 -237.200961 
L 75.464157 -231.323727 
L 73.832727 -264.665469 
z
" style="stroke: #ffffff; stroke-opacity: 0.2"/>
    </defs>
    <g clip-path="url(#p247ae42b6a)">
     <use xlink:href="#m1cd2c85de6" x="0" y="345.6" style="fill: #1f77b4; fill-opacity: 0.2; stroke: #ffffff; stroke-opacity: 0.2"/>
    </g>
   </g>
   <g id="line2d_17">
    <path d="M 73.832727 134.139243 
L 75.464157 146.214782 
L 77.095587 162.815789 
L 78.727017 148.460556 
L 80.358447 185.924872 
L 81.989877 131.519842 
L 83.621307 132.88705 
L 85.252736 176.247942 
L 86.884166 123.506231 
L 88.515596 144.166837 
L 90.147026 171.619449 
L 91.778456 150.644573 
L 93.409886 142.877756 
L 95.041316 177.964694 
L 96.672746 137.333299 
L 98.304175 151.850579 
L 99.935605 145.339534 
L 101.567035 154.651946 
L 103.198465 142.104718 
L 104.829895 139.875096 
L 106.461325 120.40983 
L 108.092755 161.98159 
L 109.724185 195.663054 
L 111.355614 160.280569 
L 112.987044 143.586534 
L 114.618474 187.697021 
L 116.249904 131.431543 
L 117.881334 152.595416 
L 119.512764 137.629293 
L 121.144194 163.903408 
L 122.775624 133.19339 
L 124.407053 131.578704 
L 126.038483 167.635402 
L 127.669913 124.471233 
L 129.301343 179.497091 
L 130.932773 140.06677 
L 132.564203 116.582881 
L 134.195633 129.990821 
L 135.827063 135.37959 
L 137.458492 116.0014 
L 139.089922 179.453 
L 140.721352 151.589145 
L 142.352782 177.877539 
L 143.984212 127.11054 
L 145.615642 145.442384 
L 147.247072 156.144545 
L 148.878502 178.550016 
L 150.509931 146.860668 
L 152.141361 153.952263 
L 153.772791 126.090387 
L 155.404221 150.99742 
L 157.035651 143.404989 
L 158.667081 188.013028 
L 160.298511 125.493627 
L 163.56137 135.486923 
L 165.1928 145.759085 
L 166.82423 144.468156 
L 168.45566 168.812945 
L 170.08709 140.415716 
L 171.71852 154.073769 
L 173.34995 150.493663 
L 174.98138 138.57663 
L 176.61281 140.961619 
L 178.244239 123.089124 
L 179.875669 154.679493 
L 181.507099 130.938914 
L 183.138529 148.446897 
L 184.769959 167.764043 
L 186.401389 147.932101 
L 188.032819 145.182726 
L 189.664249 131.601739 
L 191.295678 135.896651 
L 192.927108 150.137421 
L 194.558538 134.82372 
L 196.189968 148.927196 
L 197.821398 182.102716 
L 199.452828 133.659157 
L 201.084258 143.692819 
L 202.715688 127.223286 
L 204.347117 121.257779 
L 205.978547 129.792832 
L 207.609977 155.442635 
L 209.241407 116.552498 
L 210.872837 136.541534 
L 212.504267 167.738524 
L 214.135697 148.073789 
L 215.767127 139.754522 
L 217.398556 136.201842 
L 219.029986 146.859911 
L 220.661416 139.683306 
L 222.292846 139.096179 
L 223.924276 133.363076 
L 225.555706 156.541551 
L 227.187136 169.828267 
L 228.818566 156.49988 
L 230.449995 154.640378 
L 232.081425 148.539789 
L 233.712855 128.70807 
L 235.344285 141.552282 
L 236.975715 147.9052 
L 238.607145 152.936291 
L 240.238575 133.55392 
L 241.870005 130.164188 
L 243.501434 121.217035 
L 245.132864 124.965463 
L 246.764294 137.773412 
L 248.395724 156.308483 
L 250.027154 139.417886 
L 251.658584 150.899846 
L 253.290014 164.952091 
L 254.921444 117.623901 
L 256.552873 128.379132 
L 258.184303 136.750843 
L 259.815733 143.934569 
L 261.447163 168.232056 
L 263.078593 122.890699 
L 264.710023 139.416954 
L 266.341453 158.039277 
L 267.972883 126.429351 
L 269.604312 153.501601 
L 271.235742 150.734342 
L 272.867172 169.230022 
L 274.498602 121.754861 
L 276.130032 145.968045 
L 277.761462 130.319832 
L 279.392892 178.766505 
L 281.024322 137.133201 
L 282.655751 161.466028 
L 284.287181 167.402878 
L 285.918611 191.73343 
L 287.550041 127.546651 
L 289.181471 131.00137 
L 290.812901 130.284355 
L 292.444331 149.526313 
L 294.075761 136.244972 
L 295.70719 130.757194 
L 297.33862 150.310585 
L 298.97005 129.906684 
L 300.60148 177.454341 
L 302.23291 116.018629 
L 303.86434 134.13383 
L 305.49577 144.437016 
L 307.1272 124.153543 
L 308.75863 155.173286 
L 310.390059 149.967265 
L 312.021489 140.816088 
L 313.652919 139.74713 
L 315.284349 152.758015 
L 316.915779 155.592691 
L 318.547209 180.78056 
L 320.178639 139.00059 
L 321.810069 134.239416 
L 323.441498 158.362148 
L 325.072928 150.405762 
L 326.704358 154.80906 
L 328.335788 128.549167 
L 329.967218 166.779134 
L 331.598648 121.562053 
L 333.230078 161.005325 
L 334.861508 151.325791 
L 336.492937 137.255521 
L 338.124367 142.079224 
L 339.755797 129.237398 
L 341.387227 186.986846 
L 343.018657 145.726703 
L 344.650087 130.242068 
L 346.281517 143.714166 
L 347.912947 128.244573 
L 349.544376 193.442319 
L 351.175806 172.647402 
L 352.807236 131.720203 
L 354.438666 150.87086 
L 356.070096 138.815654 
L 357.701526 119.352745 
L 359.332956 138.320541 
L 360.964386 139.924455 
L 362.595815 154.638152 
L 364.227245 145.785161 
L 365.858675 138.805419 
L 367.490105 155.238695 
L 369.121535 166.972277 
L 370.752965 128.108836 
L 372.384395 128.153859 
L 374.015825 131.54458 
L 375.647254 114.541295 
L 377.278684 173.646484 
L 378.910114 164.642899 
L 380.541544 166.321831 
L 382.172974 138.035602 
L 383.804404 133.710146 
L 385.435834 125.82517 
L 387.067264 168.609058 
L 388.698693 129.874913 
L 390.330123 137.66151 
L 391.961553 180.194029 
L 393.592983 174.765714 
L 395.224413 117.924304 
L 396.855843 134.552653 
L 398.487273 147.75236 
L 398.487273 147.75236 
" clip-path="url(#p247ae42b6a)" style="fill: none; stroke: #1f77b4; stroke-width: 1.5; stroke-linecap: round"/>
   </g>
   <g id="LineCollection_1">
    <path d="M 398.487273 295.488 
L 398.487273 53.568 
" clip-path="url(#p247ae42b6a)" style="fill: none; stroke-dasharray: 5.55,2.4; stroke-dashoffset: 0; stroke: #1f77b4; stroke-width: 1.5"/>
   </g>
   <g id="patch_3">
    <path d="M 57.6 307.584 
L 57.6 41.472 
" style="fill: none; stroke: #cccccc; stroke-width: 0.8; stroke-linejoin: miter; stroke-linecap: square"/>
   </g>
   <g id="patch_4">
    <path d="M 414.72 307.584 
L 414.72 41.472 
" style="fill: none; stroke: #cccccc; stroke-width: 0.8; stroke-linejoin: miter; stroke-linecap: square"/>
   </g>
   <g id="patch_5">
    <path d="M 57.6 307.584 
L 414.72 307.584 
" style="fill: none; stroke: #cccccc; stroke-width: 0.8; stroke-linejoin: miter; stroke-linecap: square"/>
   </g>
   <g id="patch_6">
    <path d="M 57.6 41.472 
L 414.72 41.472 
" style="fill: none; stroke: #cccccc; stroke-width: 0.8; stroke-linejoin: miter; stroke-linecap: square"/>
   </g>
   <g id="text_19">
    <!-- Model performance vs. # of iterations -->
    <g style="fill: #262626" transform="translate(122.314688 35.472)scale(0.12 -0.12)">
     <defs>
      <path id="DejaVuSans-4d" d="M 628 4666 
L 1569 4666 
L 2759 1491 
L 3956 4666 
L 4897 4666 
L 4897 0 
L 4281 0 
L 4281 4097 
L 3078 897 
L 2444 897 
L 1241 4097 
L 1241 0 
L 628 0 
L 628 4666 
z
" transform="scale(0.015625)"/>
      <path id="DejaVuSans-64" d="M 2906 2969 
L 2906 4863 
L 3481 4863 
L 3481 0 
L 2906 0 
L 2906 525 
Q 2725 213 2448 61 
Q 2172 -91 1784 -91 
Q 1150 -91 751 415 
Q 353 922 353 1747 
Q 353 2572 751 3078 
Q 1150 3584 1784 3584 
Q 2172 3584 2448 3432 
Q 2725 3281 2906 2969 
z
M 947 1747 
Q 947 1113 1208 752 
Q 1469 391 1925 391 
Q 2381 391 2643 752 
Q 2906 1113 2906 1747 
Q 2906 2381 2643 2742 
Q 2381 3103 1925 3103 
Q 1469 3103 1208 2742 
Q 947 2381 947 1747 
z
" transform="scale(0.015625)"/>
      <path id="DejaVuSans-6c" d="M 603 4863 
L 1178 4863 
L 1178 0 
L 603 0 
L 603 4863 
z
" transform="scale(0.015625)"/>
      <path id="DejaVuSans-20" transform="scale(0.015625)"/>
      <path id="DejaVuSans-70" d="M 1159 525 
L 1159 -1331 
L 581 -1331 
L 581 3500 
L 1159 3500 
L 1159 2969 
Q 1341 3281 1617 3432 
Q 1894 3584 2278 3584 
Q 2916 3584 3314 3078 
Q 3713 2572 3713 1747 
Q 3713 922 3314 415 
Q 2916 -91 2278 -91 
Q 1894 -91 1617 61 
Q 1341 213 1159 525 
z
M 3116 1747 
Q 3116 2381 2855 2742 
Q 2594 3103 2138 3103 
Q 1681 3103 1420 2742 
Q 1159 2381 1159 1747 
Q 1159 1113 1420 752 
Q 1681 391 2138 391 
Q 2594 391 2855 752 
Q 3116 1113 3116 1747 
z
" transform="scale(0.015625)"/>
      <path id="DejaVuSans-66" d="M 2375 4863 
L 2375 4384 
L 1825 4384 
Q 1516 4384 1395 4259 
Q 1275 4134 1275 3809 
L 1275 3500 
L 2222 3500 
L 2222 3053 
L 1275 3053 
L 1275 0 
L 697 0 
L 697 3053 
L 147 3053 
L 147 3500 
L 697 3500 
L 697 3744 
Q 697 4328 969 4595 
Q 1241 4863 1831 4863 
L 2375 4863 
z
" transform="scale(0.015625)"/>
      <path id="DejaVuSans-6d" d="M 3328 2828 
Q 3544 3216 3844 3400 
Q 4144 3584 4550 3584 
Q 5097 3584 5394 3201 
Q 5691 2819 5691 2113 
L 5691 0 
L 5113 0 
L 5113 2094 
Q 5113 2597 4934 2840 
Q 4756 3084 4391 3084 
Q 3944 3084 3684 2787 
Q 3425 2491 3425 1978 
L 3425 0 
L 2847 0 
L 2847 2094 
Q 2847 2600 2669 2842 
Q 2491 3084 2119 3084 
Q 1678 3084 1418 2786 
Q 1159 2488 1159 1978 
L 1159 0 
L 581 0 
L 581 3500 
L 1159 3500 
L 1159 2956 
Q 1356 3278 1631 3431 
Q 1906 3584 2284 3584 
Q 2666 3584 2933 3390 
Q 3200 3197 3328 2828 
z
" transform="scale(0.015625)"/>
      <path id="DejaVuSans-76" d="M 191 3500 
L 800 3500 
L 1894 563 
L 2988 3500 
L 3597 3500 
L 2284 0 
L 1503 0 
L 191 3500 
z
" transform="scale(0.015625)"/>
      <path id="DejaVuSans-73" d="M 2834 3397 
L 2834 2853 
Q 2591 2978 2328 3040 
Q 2066 3103 1784 3103 
Q 1356 3103 1142 2972 
Q 928 2841 928 2578 
Q 928 2378 1081 2264 
Q 1234 2150 1697 2047 
L 1894 2003 
Q 2506 1872 2764 1633 
Q 3022 1394 3022 966 
Q 3022 478 2636 193 
Q 2250 -91 1575 -91 
Q 1294 -91 989 -36 
Q 684 19 347 128 
L 347 722 
Q 666 556 975 473 
Q 1284 391 1588 391 
Q 1994 391 2212 530 
Q 2431 669 2431 922 
Q 2431 1156 2273 1281 
Q 2116 1406 1581 1522 
L 1381 1569 
Q 847 1681 609 1914 
Q 372 2147 372 2553 
Q 372 3047 722 3315 
Q 1072 3584 1716 3584 
Q 2034 3584 2315 3537 
Q 2597 3491 2834 3397 
z
" transform="scale(0.015625)"/>
      <path id="DejaVuSans-23" d="M 3272 2816 
L 2363 2816 
L 2100 1772 
L 3016 1772 
L 3272 2816 
z
M 2803 4594 
L 2478 3297 
L 3391 3297 
L 3719 4594 
L 4219 4594 
L 3897 3297 
L 4872 3297 
L 4872 2816 
L 3775 2816 
L 3519 1772 
L 4513 1772 
L 4513 1294 
L 3397 1294 
L 3072 0 
L 2572 0 
L 2894 1294 
L 1978 1294 
L 1656 0 
L 1153 0 
L 1478 1294 
L 494 1294 
L 494 1772 
L 1594 1772 
L 1856 2816 
L 850 2816 
L 850 3297 
L 1978 3297 
L 2297 4594 
L 2803 4594 
z
" transform="scale(0.015625)"/>
     </defs>
     <use xlink:href="#DejaVuSans-4d"/>
     <use xlink:href="#DejaVuSans-6f" x="86.279297"/>
     <use xlink:href="#DejaVuSans-64" x="147.460938"/>
     <use xlink:href="#DejaVuSans-65" x="210.9375"/>
     <use xlink:href="#DejaVuSans-6c" x="272.460938"/>
     <use xlink:href="#DejaVuSans-20" x="300.244141"/>
     <use xlink:href="#DejaVuSans-70" x="332.03125"/>
     <use xlink:href="#DejaVuSans-65" x="395.507812"/>
     <use xlink:href="#DejaVuSans-72" x="457.03125"/>
     <use xlink:href="#DejaVuSans-66" x="498.144531"/>
     <use xlink:href="#DejaVuSans-6f" x="533.349609"/>
     <use xlink:href="#DejaVuSans-72" x="594.53125"/>
     <use xlink:href="#DejaVuSans-6d" x="633.894531"/>
     <use xlink:href="#DejaVuSans-61" x="731.306641"/>
     <use xlink:href="#DejaVuSans-6e" x="792.585938"/>
     <use xlink:href="#DejaVuSans-63" x="855.964844"/>
     <use xlink:href="#DejaVuSans-65" x="910.945312"/>
     <use xlink:href="#DejaVuSans-20" x="972.46875"/>
     <use xlink:href="#DejaVuSans-76" x="1004.255859"/>
     <use xlink:href="#DejaVuSans-73" x="1063.435547"/>
     <use xlink:href="#DejaVuSans-2e" x="1115.535156"/>
     <use xlink:href="#DejaVuSans-20" x="1147.322266"/>
     <use xlink:href="#DejaVuSans-23" x="1179.109375"/>
     <use xlink:href="#DejaVuSans-20" x="1262.898438"/>
     <use xlink:href="#DejaVuSans-6f" x="1294.685547"/>
     <use xlink:href="#DejaVuSans-66" x="1355.867188"/>
     <use xlink:href="#DejaVuSans-20" x="1391.072266"/>
     <use xlink:href="#DejaVuSans-69" x="1422.859375"/>
     <use xlink:href="#DejaVuSans-74" x="1450.642578"/>
     <use xlink:href="#DejaVuSans-65" x="1489.851562"/>
     <use xlink:href="#DejaVuSans-72" x="1551.375"/>
     <use xlink:href="#DejaVuSans-61" x="1592.488281"/>
     <use xlink:href="#DejaVuSans-74" x="1653.767578"/>
     <use xlink:href="#DejaVuSans-69" x="1692.976562"/>
     <use xlink:href="#DejaVuSans-6f" x="1720.759766"/>
     <use xlink:href="#DejaVuSans-6e" x="1781.941406"/>
     <use xlink:href="#DejaVuSans-73" x="1845.320312"/>
    </g>
   </g>
  </g>
 </g>
 <defs>
  <clipPath id="p247ae42b6a">
   <rect x="57.6" y="41.472" width="357.12" height="266.112"/>
  </clipPath>
 </defs>
</svg>
