<?xml version="1.0" encoding="utf-8" standalone="no"?>
<!DOCTYPE svg PUBLIC "-//W3C//DTD SVG 1.1//EN"
  "http://www.w3.org/Graphics/SVG/1.1/DTD/svg11.dtd">
<svg height="345.6pt" version="1.1" viewBox="0 0 460.8 345.6" width="460.8pt" xmlns="http://www.w3.org/2000/svg" xmlns:xlink="http://www.w3.org/1999/xlink">
 <metadata>
  <rdf:RDF xmlns:cc="http://creativecommons.org/ns#" xmlns:dc="http://purl.org/dc/elements/1.1/" xmlns:rdf="http://www.w3.org/1999/02/22-rdf-syntax-ns#">
   <cc:Work>
    <dc:type rdf:resource="http://purl.org/dc/dcmitype/StillImage"/>
    <dc:date>2022-01-20T14:04:32.479802</dc:date>
    <dc:format>image/svg+xml</dc:format>
    <dc:creator>
     <cc:Agent>
      <dc:title>Matplotlib v3.4.3, https://matplotlib.org/</dc:title>
     </cc:Agent>
    </dc:creator>
   </cc:Work>
  </rdf:RDF>
 </metadata>
 <defs>
  <style type="text/css">*{stroke-linecap:butt;stroke-linejoin:round;}</style>
 </defs>
 <g id="figure_1">
  <g id="patch_1">
   <path d="M 0 345.6 
L 460.8 345.6 
L 460.8 0 
L 0 0 
z
" style="fill:#ffffff;"/>
  </g>
  <g id="axes_1">
   <g id="patch_2">
    <path d="M 57.6 307.584 
L 414.72 307.584 
L 414.72 41.472 
L 57.6 41.472 
z
" style="fill:#ffffff;"/>
   </g>
   <g id="matplotlib.axis_1">
    <g id="xtick_1">
     <g id="line2d_1">
      <path clip-path="url(#pc6d88cea9d)" d="M 72.201297 307.584 
L 72.201297 41.472 
" style="fill:none;stroke:#cccccc;stroke-linecap:round;stroke-width:0.8;"/>
     </g>
     <g id="text_1">
      <!-- 0 -->
      <g style="fill:#262626;" transform="translate(69.020047 322.182437)scale(0.1 -0.1)">
       <defs>
        <path d="M 2034 4250 
Q 1547 4250 1301 3770 
Q 1056 3291 1056 2328 
Q 1056 1369 1301 889 
Q 1547 409 2034 409 
Q 2525 409 2770 889 
Q 3016 1369 3016 2328 
Q 3016 3291 2770 3770 
Q 2525 4250 2034 4250 
z
M 2034 4750 
Q 2819 4750 3233 4129 
Q 3647 3509 3647 2328 
Q 3647 1150 3233 529 
Q 2819 -91 2034 -91 
Q 1250 -91 836 529 
Q 422 1150 422 2328 
Q 422 3509 836 4129 
Q 1250 4750 2034 4750 
z
" id="DejaVuSans-30" transform="scale(0.015625)"/>
       </defs>
       <use xlink:href="#DejaVuSans-30"/>
      </g>
     </g>
    </g>
    <g id="xtick_2">
     <g id="line2d_2">
      <path clip-path="url(#pc6d88cea9d)" d="M 112.987044 307.584 
L 112.987044 41.472 
" style="fill:none;stroke:#cccccc;stroke-linecap:round;stroke-width:0.8;"/>
     </g>
     <g id="text_2">
      <!-- 25 -->
      <g style="fill:#262626;" transform="translate(106.624544 322.182437)scale(0.1 -0.1)">
       <defs>
        <path d="M 1228 531 
L 3431 531 
L 3431 0 
L 469 0 
L 469 531 
Q 828 903 1448 1529 
Q 2069 2156 2228 2338 
Q 2531 2678 2651 2914 
Q 2772 3150 2772 3378 
Q 2772 3750 2511 3984 
Q 2250 4219 1831 4219 
Q 1534 4219 1204 4116 
Q 875 4013 500 3803 
L 500 4441 
Q 881 4594 1212 4672 
Q 1544 4750 1819 4750 
Q 2544 4750 2975 4387 
Q 3406 4025 3406 3419 
Q 3406 3131 3298 2873 
Q 3191 2616 2906 2266 
Q 2828 2175 2409 1742 
Q 1991 1309 1228 531 
z
" id="DejaVuSans-32" transform="scale(0.015625)"/>
        <path d="M 691 4666 
L 3169 4666 
L 3169 4134 
L 1269 4134 
L 1269 2991 
Q 1406 3038 1543 3061 
Q 1681 3084 1819 3084 
Q 2600 3084 3056 2656 
Q 3513 2228 3513 1497 
Q 3513 744 3044 326 
Q 2575 -91 1722 -91 
Q 1428 -91 1123 -41 
Q 819 9 494 109 
L 494 744 
Q 775 591 1075 516 
Q 1375 441 1709 441 
Q 2250 441 2565 725 
Q 2881 1009 2881 1497 
Q 2881 1984 2565 2268 
Q 2250 2553 1709 2553 
Q 1456 2553 1204 2497 
Q 953 2441 691 2322 
L 691 4666 
z
" id="DejaVuSans-35" transform="scale(0.015625)"/>
       </defs>
       <use xlink:href="#DejaVuSans-32"/>
       <use x="63.623047" xlink:href="#DejaVuSans-35"/>
      </g>
     </g>
    </g>
    <g id="xtick_3">
     <g id="line2d_3">
      <path clip-path="url(#pc6d88cea9d)" d="M 153.772791 307.584 
L 153.772791 41.472 
" style="fill:none;stroke:#cccccc;stroke-linecap:round;stroke-width:0.8;"/>
     </g>
     <g id="text_3">
      <!-- 50 -->
      <g style="fill:#262626;" transform="translate(147.410291 322.182437)scale(0.1 -0.1)">
       <use xlink:href="#DejaVuSans-35"/>
       <use x="63.623047" xlink:href="#DejaVuSans-30"/>
      </g>
     </g>
    </g>
    <g id="xtick_4">
     <g id="line2d_4">
      <path clip-path="url(#pc6d88cea9d)" d="M 194.558538 307.584 
L 194.558538 41.472 
" style="fill:none;stroke:#cccccc;stroke-linecap:round;stroke-width:0.8;"/>
     </g>
     <g id="text_4">
      <!-- 75 -->
      <g style="fill:#262626;" transform="translate(188.196038 322.182437)scale(0.1 -0.1)">
       <defs>
        <path d="M 525 4666 
L 3525 4666 
L 3525 4397 
L 1831 0 
L 1172 0 
L 2766 4134 
L 525 4134 
L 525 4666 
z
" id="DejaVuSans-37" transform="scale(0.015625)"/>
       </defs>
       <use xlink:href="#DejaVuSans-37"/>
       <use x="63.623047" xlink:href="#DejaVuSans-35"/>
      </g>
     </g>
    </g>
    <g id="xtick_5">
     <g id="line2d_5">
      <path clip-path="url(#pc6d88cea9d)" d="M 235.344285 307.584 
L 235.344285 41.472 
" style="fill:none;stroke:#cccccc;stroke-linecap:round;stroke-width:0.8;"/>
     </g>
     <g id="text_5">
      <!-- 100 -->
      <g style="fill:#262626;" transform="translate(225.800535 322.182437)scale(0.1 -0.1)">
       <defs>
        <path d="M 794 531 
L 1825 531 
L 1825 4091 
L 703 3866 
L 703 4441 
L 1819 4666 
L 2450 4666 
L 2450 531 
L 3481 531 
L 3481 0 
L 794 0 
L 794 531 
z
" id="DejaVuSans-31" transform="scale(0.015625)"/>
       </defs>
       <use xlink:href="#DejaVuSans-31"/>
       <use x="63.623047" xlink:href="#DejaVuSans-30"/>
       <use x="127.246094" xlink:href="#DejaVuSans-30"/>
      </g>
     </g>
    </g>
    <g id="xtick_6">
     <g id="line2d_6">
      <path clip-path="url(#pc6d88cea9d)" d="M 276.130032 307.584 
L 276.130032 41.472 
" style="fill:none;stroke:#cccccc;stroke-linecap:round;stroke-width:0.8;"/>
     </g>
     <g id="text_6">
      <!-- 125 -->
      <g style="fill:#262626;" transform="translate(266.586282 322.182437)scale(0.1 -0.1)">
       <use xlink:href="#DejaVuSans-31"/>
       <use x="63.623047" xlink:href="#DejaVuSans-32"/>
       <use x="127.246094" xlink:href="#DejaVuSans-35"/>
      </g>
     </g>
    </g>
    <g id="xtick_7">
     <g id="line2d_7">
      <path clip-path="url(#pc6d88cea9d)" d="M 316.915779 307.584 
L 316.915779 41.472 
" style="fill:none;stroke:#cccccc;stroke-linecap:round;stroke-width:0.8;"/>
     </g>
     <g id="text_7">
      <!-- 150 -->
      <g style="fill:#262626;" transform="translate(307.372029 322.182437)scale(0.1 -0.1)">
       <use xlink:href="#DejaVuSans-31"/>
       <use x="63.623047" xlink:href="#DejaVuSans-35"/>
       <use x="127.246094" xlink:href="#DejaVuSans-30"/>
      </g>
     </g>
    </g>
    <g id="xtick_8">
     <g id="line2d_8">
      <path clip-path="url(#pc6d88cea9d)" d="M 357.701526 307.584 
L 357.701526 41.472 
" style="fill:none;stroke:#cccccc;stroke-linecap:round;stroke-width:0.8;"/>
     </g>
     <g id="text_8">
      <!-- 175 -->
      <g style="fill:#262626;" transform="translate(348.157776 322.182437)scale(0.1 -0.1)">
       <use xlink:href="#DejaVuSans-31"/>
       <use x="63.623047" xlink:href="#DejaVuSans-37"/>
       <use x="127.246094" xlink:href="#DejaVuSans-35"/>
      </g>
     </g>
    </g>
    <g id="xtick_9">
     <g id="line2d_9">
      <path clip-path="url(#pc6d88cea9d)" d="M 398.487273 307.584 
L 398.487273 41.472 
" style="fill:none;stroke:#cccccc;stroke-linecap:round;stroke-width:0.8;"/>
     </g>
     <g id="text_9">
      <!-- 200 -->
      <g style="fill:#262626;" transform="translate(388.943523 322.182437)scale(0.1 -0.1)">
       <use xlink:href="#DejaVuSans-32"/>
       <use x="63.623047" xlink:href="#DejaVuSans-30"/>
       <use x="127.246094" xlink:href="#DejaVuSans-30"/>
      </g>
     </g>
    </g>
    <g id="text_10">
     <!-- Auroc -->
     <g style="fill:#262626;" transform="translate(221.819375 335.860562)scale(0.1 -0.1)">
      <defs>
       <path d="M 2188 4044 
L 1331 1722 
L 3047 1722 
L 2188 4044 
z
M 1831 4666 
L 2547 4666 
L 4325 0 
L 3669 0 
L 3244 1197 
L 1141 1197 
L 716 0 
L 50 0 
L 1831 4666 
z
" id="DejaVuSans-41" transform="scale(0.015625)"/>
       <path d="M 544 1381 
L 544 3500 
L 1119 3500 
L 1119 1403 
Q 1119 906 1312 657 
Q 1506 409 1894 409 
Q 2359 409 2629 706 
Q 2900 1003 2900 1516 
L 2900 3500 
L 3475 3500 
L 3475 0 
L 2900 0 
L 2900 538 
Q 2691 219 2414 64 
Q 2138 -91 1772 -91 
Q 1169 -91 856 284 
Q 544 659 544 1381 
z
M 1991 3584 
L 1991 3584 
z
" id="DejaVuSans-75" transform="scale(0.015625)"/>
       <path d="M 2631 2963 
Q 2534 3019 2420 3045 
Q 2306 3072 2169 3072 
Q 1681 3072 1420 2755 
Q 1159 2438 1159 1844 
L 1159 0 
L 581 0 
L 581 3500 
L 1159 3500 
L 1159 2956 
Q 1341 3275 1631 3429 
Q 1922 3584 2338 3584 
Q 2397 3584 2469 3576 
Q 2541 3569 2628 3553 
L 2631 2963 
z
" id="DejaVuSans-72" transform="scale(0.015625)"/>
       <path d="M 1959 3097 
Q 1497 3097 1228 2736 
Q 959 2375 959 1747 
Q 959 1119 1226 758 
Q 1494 397 1959 397 
Q 2419 397 2687 759 
Q 2956 1122 2956 1747 
Q 2956 2369 2687 2733 
Q 2419 3097 1959 3097 
z
M 1959 3584 
Q 2709 3584 3137 3096 
Q 3566 2609 3566 1747 
Q 3566 888 3137 398 
Q 2709 -91 1959 -91 
Q 1206 -91 779 398 
Q 353 888 353 1747 
Q 353 2609 779 3096 
Q 1206 3584 1959 3584 
z
" id="DejaVuSans-6f" transform="scale(0.015625)"/>
       <path d="M 3122 3366 
L 3122 2828 
Q 2878 2963 2633 3030 
Q 2388 3097 2138 3097 
Q 1578 3097 1268 2742 
Q 959 2388 959 1747 
Q 959 1106 1268 751 
Q 1578 397 2138 397 
Q 2388 397 2633 464 
Q 2878 531 3122 666 
L 3122 134 
Q 2881 22 2623 -34 
Q 2366 -91 2075 -91 
Q 1284 -91 818 406 
Q 353 903 353 1747 
Q 353 2603 823 3093 
Q 1294 3584 2113 3584 
Q 2378 3584 2631 3529 
Q 2884 3475 3122 3366 
z
" id="DejaVuSans-63" transform="scale(0.015625)"/>
      </defs>
      <use xlink:href="#DejaVuSans-41"/>
      <use x="68.408203" xlink:href="#DejaVuSans-75"/>
      <use x="131.787109" xlink:href="#DejaVuSans-72"/>
      <use x="170.650391" xlink:href="#DejaVuSans-6f"/>
      <use x="231.832031" xlink:href="#DejaVuSans-63"/>
     </g>
    </g>
   </g>
   <g id="matplotlib.axis_2">
    <g id="ytick_1">
     <g id="line2d_10">
      <path clip-path="url(#pc6d88cea9d)" d="M 57.6 259.522035 
L 414.72 259.522035 
" style="fill:none;stroke:#cccccc;stroke-linecap:round;stroke-width:0.8;"/>
     </g>
     <g id="text_11">
      <!-- 0.50 -->
      <g style="fill:#262626;" transform="translate(28.334375 263.321254)scale(0.1 -0.1)">
       <defs>
        <path d="M 684 794 
L 1344 794 
L 1344 0 
L 684 0 
L 684 794 
z
" id="DejaVuSans-2e" transform="scale(0.015625)"/>
       </defs>
       <use xlink:href="#DejaVuSans-30"/>
       <use x="63.623047" xlink:href="#DejaVuSans-2e"/>
       <use x="95.410156" xlink:href="#DejaVuSans-35"/>
       <use x="159.033203" xlink:href="#DejaVuSans-30"/>
      </g>
     </g>
    </g>
    <g id="ytick_2">
     <g id="line2d_11">
      <path clip-path="url(#pc6d88cea9d)" d="M 57.6 204.500499 
L 414.72 204.500499 
" style="fill:none;stroke:#cccccc;stroke-linecap:round;stroke-width:0.8;"/>
     </g>
     <g id="text_12">
      <!-- 0.55 -->
      <g style="fill:#262626;" transform="translate(28.334375 208.299718)scale(0.1 -0.1)">
       <use xlink:href="#DejaVuSans-30"/>
       <use x="63.623047" xlink:href="#DejaVuSans-2e"/>
       <use x="95.410156" xlink:href="#DejaVuSans-35"/>
       <use x="159.033203" xlink:href="#DejaVuSans-35"/>
      </g>
     </g>
    </g>
    <g id="ytick_3">
     <g id="line2d_12">
      <path clip-path="url(#pc6d88cea9d)" d="M 57.6 149.478963 
L 414.72 149.478963 
" style="fill:none;stroke:#cccccc;stroke-linecap:round;stroke-width:0.8;"/>
     </g>
     <g id="text_13">
      <!-- 0.60 -->
      <g style="fill:#262626;" transform="translate(28.334375 153.278181)scale(0.1 -0.1)">
       <defs>
        <path d="M 2113 2584 
Q 1688 2584 1439 2293 
Q 1191 2003 1191 1497 
Q 1191 994 1439 701 
Q 1688 409 2113 409 
Q 2538 409 2786 701 
Q 3034 994 3034 1497 
Q 3034 2003 2786 2293 
Q 2538 2584 2113 2584 
z
M 3366 4563 
L 3366 3988 
Q 3128 4100 2886 4159 
Q 2644 4219 2406 4219 
Q 1781 4219 1451 3797 
Q 1122 3375 1075 2522 
Q 1259 2794 1537 2939 
Q 1816 3084 2150 3084 
Q 2853 3084 3261 2657 
Q 3669 2231 3669 1497 
Q 3669 778 3244 343 
Q 2819 -91 2113 -91 
Q 1303 -91 875 529 
Q 447 1150 447 2328 
Q 447 3434 972 4092 
Q 1497 4750 2381 4750 
Q 2619 4750 2861 4703 
Q 3103 4656 3366 4563 
z
" id="DejaVuSans-36" transform="scale(0.015625)"/>
       </defs>
       <use xlink:href="#DejaVuSans-30"/>
       <use x="63.623047" xlink:href="#DejaVuSans-2e"/>
       <use x="95.410156" xlink:href="#DejaVuSans-36"/>
       <use x="159.033203" xlink:href="#DejaVuSans-30"/>
      </g>
     </g>
    </g>
    <g id="ytick_4">
     <g id="line2d_13">
      <path clip-path="url(#pc6d88cea9d)" d="M 57.6 94.457427 
L 414.72 94.457427 
" style="fill:none;stroke:#cccccc;stroke-linecap:round;stroke-width:0.8;"/>
     </g>
     <g id="text_14">
      <!-- 0.65 -->
      <g style="fill:#262626;" transform="translate(28.334375 98.256645)scale(0.1 -0.1)">
       <use xlink:href="#DejaVuSans-30"/>
       <use x="63.623047" xlink:href="#DejaVuSans-2e"/>
       <use x="95.410156" xlink:href="#DejaVuSans-36"/>
       <use x="159.033203" xlink:href="#DejaVuSans-35"/>
      </g>
     </g>
    </g>
    <g id="text_15">
     <!-- Iteration -->
     <g style="fill:#262626;" transform="translate(22.254687 195.736594)rotate(-90)scale(0.1 -0.1)">
      <defs>
       <path d="M 628 4666 
L 1259 4666 
L 1259 0 
L 628 0 
L 628 4666 
z
" id="DejaVuSans-49" transform="scale(0.015625)"/>
       <path d="M 1172 4494 
L 1172 3500 
L 2356 3500 
L 2356 3053 
L 1172 3053 
L 1172 1153 
Q 1172 725 1289 603 
Q 1406 481 1766 481 
L 2356 481 
L 2356 0 
L 1766 0 
Q 1100 0 847 248 
Q 594 497 594 1153 
L 594 3053 
L 172 3053 
L 172 3500 
L 594 3500 
L 594 4494 
L 1172 4494 
z
" id="DejaVuSans-74" transform="scale(0.015625)"/>
       <path d="M 3597 1894 
L 3597 1613 
L 953 1613 
Q 991 1019 1311 708 
Q 1631 397 2203 397 
Q 2534 397 2845 478 
Q 3156 559 3463 722 
L 3463 178 
Q 3153 47 2828 -22 
Q 2503 -91 2169 -91 
Q 1331 -91 842 396 
Q 353 884 353 1716 
Q 353 2575 817 3079 
Q 1281 3584 2069 3584 
Q 2775 3584 3186 3129 
Q 3597 2675 3597 1894 
z
M 3022 2063 
Q 3016 2534 2758 2815 
Q 2500 3097 2075 3097 
Q 1594 3097 1305 2825 
Q 1016 2553 972 2059 
L 3022 2063 
z
" id="DejaVuSans-65" transform="scale(0.015625)"/>
       <path d="M 2194 1759 
Q 1497 1759 1228 1600 
Q 959 1441 959 1056 
Q 959 750 1161 570 
Q 1363 391 1709 391 
Q 2188 391 2477 730 
Q 2766 1069 2766 1631 
L 2766 1759 
L 2194 1759 
z
M 3341 1997 
L 3341 0 
L 2766 0 
L 2766 531 
Q 2569 213 2275 61 
Q 1981 -91 1556 -91 
Q 1019 -91 701 211 
Q 384 513 384 1019 
Q 384 1609 779 1909 
Q 1175 2209 1959 2209 
L 2766 2209 
L 2766 2266 
Q 2766 2663 2505 2880 
Q 2244 3097 1772 3097 
Q 1472 3097 1187 3025 
Q 903 2953 641 2809 
L 641 3341 
Q 956 3463 1253 3523 
Q 1550 3584 1831 3584 
Q 2591 3584 2966 3190 
Q 3341 2797 3341 1997 
z
" id="DejaVuSans-61" transform="scale(0.015625)"/>
       <path d="M 603 3500 
L 1178 3500 
L 1178 0 
L 603 0 
L 603 3500 
z
M 603 4863 
L 1178 4863 
L 1178 4134 
L 603 4134 
L 603 4863 
z
" id="DejaVuSans-69" transform="scale(0.015625)"/>
       <path d="M 3513 2113 
L 3513 0 
L 2938 0 
L 2938 2094 
Q 2938 2591 2744 2837 
Q 2550 3084 2163 3084 
Q 1697 3084 1428 2787 
Q 1159 2491 1159 1978 
L 1159 0 
L 581 0 
L 581 3500 
L 1159 3500 
L 1159 2956 
Q 1366 3272 1645 3428 
Q 1925 3584 2291 3584 
Q 2894 3584 3203 3211 
Q 3513 2838 3513 2113 
z
" id="DejaVuSans-6e" transform="scale(0.015625)"/>
      </defs>
      <use xlink:href="#DejaVuSans-49"/>
      <use x="29.492188" xlink:href="#DejaVuSans-74"/>
      <use x="68.701172" xlink:href="#DejaVuSans-65"/>
      <use x="130.224609" xlink:href="#DejaVuSans-72"/>
      <use x="171.337891" xlink:href="#DejaVuSans-61"/>
      <use x="232.617188" xlink:href="#DejaVuSans-74"/>
      <use x="271.826172" xlink:href="#DejaVuSans-69"/>
      <use x="299.609375" xlink:href="#DejaVuSans-6f"/>
      <use x="360.791016" xlink:href="#DejaVuSans-6e"/>
     </g>
    </g>
   </g>
   <g id="PolyCollection_1">
    <defs>
     <path d="M 73.832727 -260.133721 
L 73.832727 -143.396751 
L 75.464157 -114.030214 
L 77.095587 -171.6388 
L 78.727017 -147.945021 
L 80.358447 -63.004749 
L 81.989877 -160.10696 
L 83.621307 -122.306431 
L 85.252736 -115.66519 
L 86.884166 -127.0265 
L 88.515596 -128.587397 
L 90.147026 -138.384803 
L 91.778456 -125.798217 
L 93.409886 -143.807519 
L 95.041316 -143.143552 
L 96.672746 -180.080176 
L 98.304175 -158.464969 
L 99.935605 -163.501965 
L 101.567035 -112.194537 
L 103.198465 -144.9566 
L 104.829895 -117.561404 
L 106.461325 -130.130574 
L 108.092755 -109.093223 
L 109.724185 -92.713564 
L 111.355614 -85.427146 
L 112.987044 -97.265811 
L 114.618474 -132.102463 
L 116.249904 -86.403015 
L 117.881334 -58.075373 
L 119.512764 -109.10449 
L 121.144194 -148.417964 
L 122.775624 -108.363254 
L 124.407053 -154.013525 
L 126.038483 -96.108332 
L 127.669913 -100.644535 
L 129.301343 -161.703833 
L 130.932773 -150.556422 
L 132.564203 -124.294436 
L 134.195633 -83.787125 
L 135.827063 -147.848267 
L 137.458492 -145.801119 
L 139.089922 -178.845932 
L 140.721352 -140.821672 
L 142.352782 -161.563414 
L 143.984212 -95.734418 
L 145.615642 -154.483687 
L 147.247072 -88.217949 
L 148.878502 -148.017826 
L 150.509931 -105.65183 
L 152.141361 -211.336931 
L 153.772791 -149.594135 
L 155.404221 -135.902313 
L 157.035651 -172.495157 
L 158.667081 -101.311332 
L 160.298511 -67.229652 
L 161.929941 -185.542548 
L 163.56137 -193.759624 
L 165.1928 -167.557733 
L 166.82423 -104.387477 
L 168.45566 -66.901194 
L 170.08709 -136.708202 
L 171.71852 -160.252143 
L 173.34995 -164.511767 
L 174.98138 -148.964855 
L 176.61281 -184.56768 
L 178.244239 -136.595678 
L 179.875669 -126.423271 
L 181.507099 -162.407343 
L 183.138529 -131.139768 
L 184.769959 -77.245305 
L 186.401389 -127.629892 
L 188.032819 -106.134895 
L 189.664249 -149.276264 
L 191.295678 -114.421456 
L 192.927108 -175.216045 
L 194.558538 -145.716218 
L 196.189968 -167.402117 
L 197.821398 -158.221971 
L 199.452828 -162.749567 
L 201.084258 -104.490372 
L 202.715688 -147.670128 
L 204.347117 -146.404133 
L 205.978547 -67.527246 
L 207.609977 -110.420966 
L 209.241407 -157.967815 
L 210.872837 -159.81124 
L 212.504267 -148.637029 
L 214.135697 -151.480932 
L 215.767127 -164.099738 
L 217.398556 -110.533524 
L 219.029986 -156.262062 
L 220.661416 -157.963842 
L 222.292846 -120.720394 
L 223.924276 -126.639623 
L 225.555706 -154.850995 
L 227.187136 -94.445958 
L 228.818566 -170.777975 
L 230.449995 -126.051302 
L 232.081425 -163.447709 
L 233.712855 -143.62801 
L 235.344285 -160.067932 
L 236.975715 -69.663104 
L 238.607145 -153.826853 
L 240.238575 -236.771658 
L 241.870005 -156.784506 
L 243.501434 -142.165616 
L 245.132864 -158.600544 
L 246.764294 -153.082468 
L 248.395724 -105.858441 
L 250.027154 -157.224309 
L 251.658584 -144.568808 
L 253.290014 -84.810731 
L 254.921444 -84.938518 
L 256.552873 -132.184578 
L 258.184303 -133.259853 
L 259.815733 -103.309435 
L 261.447163 -98.346848 
L 263.078593 -50.112 
L 264.710023 -129.751536 
L 266.341453 -83.633665 
L 267.972883 -113.657037 
L 269.604312 -101.980968 
L 271.235742 -104.229557 
L 272.867172 -156.520557 
L 274.498602 -98.332105 
L 276.130032 -144.070932 
L 277.761462 -65.624024 
L 279.392892 -91.970709 
L 281.024322 -147.435137 
L 282.655751 -89.581753 
L 284.287181 -147.607512 
L 285.918611 -149.52344 
L 287.550041 -99.32265 
L 289.181471 -93.044537 
L 290.812901 -116.07343 
L 292.444331 -144.470161 
L 294.075761 -103.238836 
L 295.70719 -157.003604 
L 297.33862 -161.619141 
L 298.97005 -144.815444 
L 300.60148 -175.940244 
L 302.23291 -116.645624 
L 303.86434 -102.760571 
L 305.49577 -193.76492 
L 307.1272 -127.380521 
L 308.75863 -114.618468 
L 310.390059 -119.29871 
L 312.021489 -156.612427 
L 313.652919 -114.983734 
L 315.284349 -124.009741 
L 316.915779 -149.211782 
L 318.547209 -142.902907 
L 320.178639 -103.650904 
L 321.810069 -123.041373 
L 323.441498 -143.114174 
L 325.072928 -94.6337 
L 326.704358 -132.979225 
L 328.335788 -167.011849 
L 329.967218 -144.568586 
L 331.598648 -85.985811 
L 333.230078 -199.387632 
L 334.861508 -148.182724 
L 336.492937 -83.266896 
L 338.124367 -149.515945 
L 339.755797 -141.94932 
L 341.387227 -176.176669 
L 343.018657 -124.010046 
L 344.650087 -135.159322 
L 346.281517 -165.073304 
L 347.912947 -118.226619 
L 349.544376 -102.174885 
L 351.175806 -164.140398 
L 352.807236 -90.59699 
L 354.438666 -129.863476 
L 356.070096 -167.008469 
L 357.701526 -97.074386 
L 359.332956 -158.434102 
L 360.964386 -106.885325 
L 362.595815 -172.432745 
L 364.227245 -95.240287 
L 365.858675 -146.01771 
L 367.490105 -126.267873 
L 369.121535 -52.020974 
L 370.752965 -139.639224 
L 372.384395 -170.67213 
L 374.015825 -103.937614 
L 375.647254 -132.5826 
L 377.278684 -160.102616 
L 378.910114 -148.476779 
L 380.541544 -156.944228 
L 382.172974 -87.021886 
L 383.804404 -155.628132 
L 385.435834 -131.240412 
L 387.067264 -134.5399 
L 388.698693 -145.027596 
L 390.330123 -120.802227 
L 391.961553 -118.510909 
L 393.592983 -173.55348 
L 395.224413 -164.325902 
L 396.855843 -142.959948 
L 398.487273 -150.706463 
L 398.487273 -231.564663 
L 398.487273 -231.564663 
L 396.855843 -236.59716 
L 395.224413 -253.101043 
L 393.592983 -253.954099 
L 391.961553 -217.602994 
L 390.330123 -175.20534 
L 388.698693 -219.318111 
L 387.067264 -233.427453 
L 385.435834 -235.307232 
L 383.804404 -241.132441 
L 382.172974 -236.822424 
L 380.541544 -229.191105 
L 378.910114 -270.74926 
L 377.278684 -219.340451 
L 375.647254 -243.126232 
L 374.015825 -222.829643 
L 372.384395 -252.821939 
L 370.752965 -250.815256 
L 369.121535 -227.318578 
L 367.490105 -196.00014 
L 365.858675 -215.071168 
L 364.227245 -215.08878 
L 362.595815 -263.163059 
L 360.964386 -210.816955 
L 359.332956 -220.998344 
L 357.701526 -243.914924 
L 356.070096 -254.820489 
L 354.438666 -228.272872 
L 352.807236 -251.445698 
L 351.175806 -246.01296 
L 349.544376 -207.441476 
L 347.912947 -250.019551 
L 346.281517 -245.375184 
L 344.650087 -226.802799 
L 343.018657 -197.694411 
L 341.387227 -221.319039 
L 339.755797 -246.200352 
L 338.124367 -237.153335 
L 336.492937 -234.589438 
L 334.861508 -237.135679 
L 333.230078 -259.776452 
L 331.598648 -221.331777 
L 329.967218 -244.974293 
L 328.335788 -245.802652 
L 326.704358 -261.525939 
L 325.072928 -223.644833 
L 323.441498 -278.185077 
L 321.810069 -229.579794 
L 320.178639 -208.888224 
L 318.547209 -207.690281 
L 316.915779 -276.320771 
L 315.284349 -216.303461 
L 313.652919 -237.741158 
L 312.021489 -213.52067 
L 310.390059 -237.097188 
L 308.75863 -242.720664 
L 307.1272 -255.157082 
L 305.49577 -238.485764 
L 303.86434 -251.306373 
L 302.23291 -223.550634 
L 300.60148 -271.404819 
L 298.97005 -236.407997 
L 297.33862 -237.348475 
L 295.70719 -243.634968 
L 294.075761 -207.100661 
L 292.444331 -262.057004 
L 290.812901 -267.867735 
L 289.181471 -223.787135 
L 287.550041 -230.102222 
L 285.918611 -208.621427 
L 284.287181 -221.577078 
L 282.655751 -228.808121 
L 281.024322 -256.051667 
L 279.392892 -260.152282 
L 277.761462 -231.662698 
L 276.130032 -292.032 
L 274.498602 -212.274353 
L 272.867172 -248.258174 
L 271.235742 -230.802735 
L 269.604312 -226.968078 
L 267.972883 -244.84195 
L 266.341453 -215.238243 
L 264.710023 -214.232482 
L 263.078593 -272.56372 
L 261.447163 -223.590478 
L 259.815733 -268.341455 
L 258.184303 -218.434163 
L 256.552873 -241.885046 
L 254.921444 -233.219633 
L 253.290014 -250.268311 
L 251.658584 -258.056175 
L 250.027154 -221.915949 
L 248.395724 -228.3815 
L 246.764294 -252.486221 
L 245.132864 -221.051961 
L 243.501434 -234.590902 
L 241.870005 -275.529864 
L 240.238575 -252.89114 
L 238.607145 -269.328722 
L 236.975715 -204.815584 
L 235.344285 -228.282199 
L 233.712855 -266.112088 
L 232.081425 -232.107318 
L 230.449995 -271.589888 
L 228.818566 -219.14802 
L 227.187136 -204.833263 
L 225.555706 -189.226586 
L 223.924276 -268.033106 
L 222.292846 -226.538665 
L 220.661416 -254.668881 
L 219.029986 -265.385272 
L 217.398556 -242.353738 
L 215.767127 -251.765402 
L 214.135697 -272.115334 
L 212.504267 -220.06137 
L 210.872837 -200.646154 
L 209.241407 -212.849603 
L 207.609977 -228.915472 
L 205.978547 -290.853649 
L 204.347117 -258.256928 
L 202.715688 -229.483144 
L 201.084258 -224.270376 
L 199.452828 -232.855661 
L 197.821398 -256.151967 
L 196.189968 -225.5668 
L 194.558538 -251.975632 
L 192.927108 -202.83687 
L 191.295678 -281.721655 
L 189.664249 -250.283983 
L 188.032819 -177.993021 
L 186.401389 -272.731124 
L 184.769959 -214.777864 
L 183.138529 -216.45493 
L 181.507099 -227.085947 
L 179.875669 -250.362894 
L 178.244239 -218.044183 
L 176.61281 -241.609117 
L 174.98138 -254.970967 
L 173.34995 -261.528716 
L 171.71852 -235.480001 
L 170.08709 -239.595591 
L 168.45566 -217.957233 
L 166.82423 -235.661808 
L 165.1928 -262.989215 
L 163.56137 -259.861542 
L 161.929941 -259.314477 
L 160.298511 -256.485412 
L 158.667081 -264.564624 
L 157.035651 -233.623372 
L 155.404221 -224.203445 
L 153.772791 -234.486439 
L 152.141361 -276.740183 
L 150.509931 -245.978347 
L 148.878502 -199.429632 
L 147.247072 -236.527595 
L 145.615642 -253.719287 
L 143.984212 -216.205319 
L 142.352782 -252.167768 
L 140.721352 -195.706102 
L 139.089922 -226.541475 
L 137.458492 -228.851699 
L 135.827063 -219.036329 
L 134.195633 -208.603126 
L 132.564203 -227.781054 
L 130.932773 -270.703135 
L 129.301343 -260.691471 
L 127.669913 -235.942927 
L 126.038483 -242.630407 
L 124.407053 -222.922402 
L 122.775624 -237.847329 
L 121.144194 -205.713584 
L 119.512764 -240.502446 
L 117.881334 -195.418088 
L 116.249904 -182.939711 
L 114.618474 -211.585011 
L 112.987044 -190.816424 
L 111.355614 -266.391113 
L 109.724185 -269.519733 
L 108.092755 -222.673695 
L 106.461325 -206.735081 
L 104.829895 -186.689333 
L 103.198465 -273.585653 
L 101.567035 -271.31973 
L 99.935605 -239.783004 
L 98.304175 -253.736577 
L 96.672746 -268.153832 
L 95.041316 -244.477138 
L 93.409886 -211.511429 
L 91.778456 -262.740722 
L 90.147026 -222.936244 
L 88.515596 -210.010113 
L 86.884166 -218.722495 
L 85.252736 -261.700882 
L 83.621307 -247.958433 
L 81.989877 -222.196105 
L 80.358447 -253.926269 
L 78.727017 -195.215305 
L 77.095587 -225.681739 
L 75.464157 -181.717714 
L 73.832727 -260.133721 
z
" id="m12502fb3c8" style="stroke:#ffffff;stroke-opacity:0.2;"/>
    </defs>
    <g clip-path="url(#pc6d88cea9d)">
     <use style="fill:#1f77b4;fill-opacity:0.2;stroke:#ffffff;stroke-opacity:0.2;" x="0" xlink:href="#m12502fb3c8" y="345.6"/>
    </g>
   </g>
   <g id="LineCollection_1">
    <path clip-path="url(#pc6d88cea9d)" d="M 398.487273 295.488 
L 398.487273 53.568 
" style="fill:none;stroke:#1f77b4;stroke-dasharray:5.55,2.4;stroke-dashoffset:0;stroke-width:1.5;"/>
   </g>
   <g id="line2d_14">
    <path clip-path="url(#pc6d88cea9d)" d="M 73.832727 143.834764 
L 75.464157 197.726036 
L 77.095587 146.939731 
L 78.727017 174.019837 
L 80.358447 187.134491 
L 81.989877 154.448467 
L 83.621307 160.467568 
L 85.252736 156.916964 
L 86.884166 172.725502 
L 88.515596 176.301245 
L 90.147026 164.939476 
L 91.778456 151.330531 
L 93.409886 167.940526 
L 95.041316 151.789655 
L 96.672746 121.482996 
L 98.304175 139.499227 
L 99.935605 143.957516 
L 101.567035 153.842867 
L 103.198465 136.328874 
L 104.829895 193.474631 
L 106.461325 177.167172 
L 108.092755 179.716541 
L 109.724185 164.483351 
L 111.355614 169.690871 
L 112.987044 201.558883 
L 114.618474 173.756263 
L 116.249904 210.928637 
L 117.881334 218.853269 
L 119.512764 170.796532 
L 121.144194 168.534226 
L 122.775624 172.494708 
L 124.407053 157.132037 
L 126.038483 176.23063 
L 127.669913 177.306269 
L 129.301343 134.402348 
L 130.932773 134.970222 
L 132.564203 169.562255 
L 134.195633 199.404874 
L 135.827063 162.157702 
L 137.458492 158.273591 
L 139.089922 142.906296 
L 140.721352 177.336113 
L 142.352782 138.734409 
L 143.984212 189.630132 
L 145.615642 141.498513 
L 147.247072 183.227228 
L 148.878502 171.876271 
L 150.509931 169.784912 
L 152.141361 101.561443 
L 153.772791 153.559713 
L 155.404221 165.547121 
L 157.035651 142.540735 
L 160.298511 183.742468 
L 161.929941 123.171487 
L 163.56137 118.789417 
L 165.1928 130.326526 
L 166.82423 175.575357 
L 168.45566 203.170787 
L 170.08709 157.448104 
L 171.71852 147.733928 
L 173.34995 132.579758 
L 174.98138 143.632089 
L 176.61281 132.511601 
L 178.244239 168.28007 
L 179.875669 157.206918 
L 181.507099 150.853355 
L 183.138529 171.802651 
L 184.769959 199.588416 
L 186.401389 145.419492 
L 188.032819 203.536042 
L 189.664249 145.819877 
L 191.295678 147.528445 
L 192.927108 156.573542 
L 194.558538 146.754075 
L 196.189968 149.115541 
L 197.821398 138.413031 
L 199.452828 147.797386 
L 201.084258 181.219626 
L 202.715688 157.023364 
L 204.347117 143.26947 
L 205.978547 166.409552 
L 207.609977 175.931781 
L 209.241407 160.191291 
L 210.872837 165.371303 
L 212.504267 161.250801 
L 214.135697 133.801867 
L 215.767127 137.66743 
L 217.398556 169.156369 
L 219.029986 134.776333 
L 220.661416 139.283638 
L 222.292846 171.970471 
L 223.924276 148.263635 
L 225.555706 173.56121 
L 227.187136 195.96039 
L 228.818566 150.637002 
L 230.449995 146.779405 
L 232.081425 147.822487 
L 233.712855 140.729951 
L 235.344285 151.424934 
L 236.975715 208.360656 
L 238.607145 134.022212 
L 240.238575 100.768601 
L 243.501434 157.221741 
L 245.132864 155.773748 
L 246.764294 142.815656 
L 248.395724 178.480029 
L 250.027154 156.029871 
L 251.658584 144.287508 
L 253.290014 178.060479 
L 254.921444 186.520925 
L 256.552873 158.565188 
L 258.184303 169.752992 
L 259.815733 159.774555 
L 261.447163 184.631337 
L 263.078593 184.26214 
L 264.710023 173.607991 
L 266.341453 196.164046 
L 267.972883 166.350507 
L 269.604312 181.125477 
L 271.235742 178.083854 
L 272.867172 143.210634 
L 274.498602 190.296771 
L 276.130032 127.548534 
L 277.761462 196.956639 
L 281.024322 143.856598 
L 282.655751 186.405063 
L 284.287181 161.007705 
L 285.918611 166.527566 
L 287.550041 180.887564 
L 289.181471 187.184164 
L 290.812901 153.629418 
L 292.444331 142.336417 
L 294.075761 190.430251 
L 295.70719 145.280714 
L 297.33862 146.116192 
L 298.97005 154.98828 
L 300.60148 121.927468 
L 302.23291 175.501871 
L 303.86434 168.566528 
L 305.49577 129.474658 
L 307.1272 154.331198 
L 308.75863 166.930434 
L 310.390059 167.402051 
L 312.021489 160.533452 
L 313.652919 169.237554 
L 315.284349 175.443399 
L 316.915779 132.833724 
L 318.547209 170.303406 
L 320.178639 189.330436 
L 321.810069 169.289417 
L 323.441498 134.950374 
L 325.072928 186.460734 
L 326.704358 148.347418 
L 328.335788 139.19275 
L 329.967218 150.82856 
L 331.598648 191.941206 
L 333.230078 116.017958 
L 334.861508 152.940798 
L 336.492937 186.671833 
L 338.124367 152.26536 
L 339.755797 151.525164 
L 341.387227 146.852146 
L 343.018657 184.747772 
L 344.650087 164.61894 
L 346.281517 140.375756 
L 347.912947 161.476915 
L 349.544376 190.79182 
L 351.175806 140.523321 
L 352.807236 174.578656 
L 354.438666 166.531826 
L 356.070096 134.685521 
L 357.701526 175.105345 
L 359.332956 155.883777 
L 360.964386 186.74886 
L 362.595815 127.802098 
L 364.227245 190.435466 
L 365.858675 165.055561 
L 367.490105 184.465994 
L 369.121535 205.930224 
L 370.752965 150.37276 
L 372.384395 133.852966 
L 374.015825 182.216372 
L 375.647254 157.745584 
L 377.278684 155.878467 
L 378.910114 135.98698 
L 380.541544 152.532334 
L 382.172974 183.677845 
L 383.804404 147.219713 
L 385.435834 162.326178 
L 387.067264 161.616324 
L 388.698693 163.427146 
L 390.330123 197.596216 
L 391.961553 177.543048 
L 393.592983 131.84621 
L 395.224413 136.886527 
L 396.855843 155.821446 
L 398.487273 154.464437 
L 398.487273 154.464437 
" style="fill:none;stroke:#1f77b4;stroke-linecap:round;stroke-width:1.5;"/>
   </g>
   <g id="patch_3">
    <path d="M 57.6 307.584 
L 57.6 41.472 
" style="fill:none;stroke:#cccccc;stroke-linecap:square;stroke-linejoin:miter;stroke-width:0.8;"/>
   </g>
   <g id="patch_4">
    <path d="M 414.72 307.584 
L 414.72 41.472 
" style="fill:none;stroke:#cccccc;stroke-linecap:square;stroke-linejoin:miter;stroke-width:0.8;"/>
   </g>
   <g id="patch_5">
    <path d="M 57.6 307.584 
L 414.72 307.584 
" style="fill:none;stroke:#cccccc;stroke-linecap:square;stroke-linejoin:miter;stroke-width:0.8;"/>
   </g>
   <g id="patch_6">
    <path d="M 57.6 41.472 
L 414.72 41.472 
" style="fill:none;stroke:#cccccc;stroke-linecap:square;stroke-linejoin:miter;stroke-width:0.8;"/>
   </g>
   <g id="text_16">
    <!-- Model performance vs. # of iterations -->
    <g style="fill:#262626;" transform="translate(122.314688 35.472)scale(0.12 -0.12)">
     <defs>
      <path d="M 628 4666 
L 1569 4666 
L 2759 1491 
L 3956 4666 
L 4897 4666 
L 4897 0 
L 4281 0 
L 4281 4097 
L 3078 897 
L 2444 897 
L 1241 4097 
L 1241 0 
L 628 0 
L 628 4666 
z
" id="DejaVuSans-4d" transform="scale(0.015625)"/>
      <path d="M 2906 2969 
L 2906 4863 
L 3481 4863 
L 3481 0 
L 2906 0 
L 2906 525 
Q 2725 213 2448 61 
Q 2172 -91 1784 -91 
Q 1150 -91 751 415 
Q 353 922 353 1747 
Q 353 2572 751 3078 
Q 1150 3584 1784 3584 
Q 2172 3584 2448 3432 
Q 2725 3281 2906 2969 
z
M 947 1747 
Q 947 1113 1208 752 
Q 1469 391 1925 391 
Q 2381 391 2643 752 
Q 2906 1113 2906 1747 
Q 2906 2381 2643 2742 
Q 2381 3103 1925 3103 
Q 1469 3103 1208 2742 
Q 947 2381 947 1747 
z
" id="DejaVuSans-64" transform="scale(0.015625)"/>
      <path d="M 603 4863 
L 1178 4863 
L 1178 0 
L 603 0 
L 603 4863 
z
" id="DejaVuSans-6c" transform="scale(0.015625)"/>
      <path id="DejaVuSans-20" transform="scale(0.015625)"/>
      <path d="M 1159 525 
L 1159 -1331 
L 581 -1331 
L 581 3500 
L 1159 3500 
L 1159 2969 
Q 1341 3281 1617 3432 
Q 1894 3584 2278 3584 
Q 2916 3584 3314 3078 
Q 3713 2572 3713 1747 
Q 3713 922 3314 415 
Q 2916 -91 2278 -91 
Q 1894 -91 1617 61 
Q 1341 213 1159 525 
z
M 3116 1747 
Q 3116 2381 2855 2742 
Q 2594 3103 2138 3103 
Q 1681 3103 1420 2742 
Q 1159 2381 1159 1747 
Q 1159 1113 1420 752 
Q 1681 391 2138 391 
Q 2594 391 2855 752 
Q 3116 1113 3116 1747 
z
" id="DejaVuSans-70" transform="scale(0.015625)"/>
      <path d="M 2375 4863 
L 2375 4384 
L 1825 4384 
Q 1516 4384 1395 4259 
Q 1275 4134 1275 3809 
L 1275 3500 
L 2222 3500 
L 2222 3053 
L 1275 3053 
L 1275 0 
L 697 0 
L 697 3053 
L 147 3053 
L 147 3500 
L 697 3500 
L 697 3744 
Q 697 4328 969 4595 
Q 1241 4863 1831 4863 
L 2375 4863 
z
" id="DejaVuSans-66" transform="scale(0.015625)"/>
      <path d="M 3328 2828 
Q 3544 3216 3844 3400 
Q 4144 3584 4550 3584 
Q 5097 3584 5394 3201 
Q 5691 2819 5691 2113 
L 5691 0 
L 5113 0 
L 5113 2094 
Q 5113 2597 4934 2840 
Q 4756 3084 4391 3084 
Q 3944 3084 3684 2787 
Q 3425 2491 3425 1978 
L 3425 0 
L 2847 0 
L 2847 2094 
Q 2847 2600 2669 2842 
Q 2491 3084 2119 3084 
Q 1678 3084 1418 2786 
Q 1159 2488 1159 1978 
L 1159 0 
L 581 0 
L 581 3500 
L 1159 3500 
L 1159 2956 
Q 1356 3278 1631 3431 
Q 1906 3584 2284 3584 
Q 2666 3584 2933 3390 
Q 3200 3197 3328 2828 
z
" id="DejaVuSans-6d" transform="scale(0.015625)"/>
      <path d="M 191 3500 
L 800 3500 
L 1894 563 
L 2988 3500 
L 3597 3500 
L 2284 0 
L 1503 0 
L 191 3500 
z
" id="DejaVuSans-76" transform="scale(0.015625)"/>
      <path d="M 2834 3397 
L 2834 2853 
Q 2591 2978 2328 3040 
Q 2066 3103 1784 3103 
Q 1356 3103 1142 2972 
Q 928 2841 928 2578 
Q 928 2378 1081 2264 
Q 1234 2150 1697 2047 
L 1894 2003 
Q 2506 1872 2764 1633 
Q 3022 1394 3022 966 
Q 3022 478 2636 193 
Q 2250 -91 1575 -91 
Q 1294 -91 989 -36 
Q 684 19 347 128 
L 347 722 
Q 666 556 975 473 
Q 1284 391 1588 391 
Q 1994 391 2212 530 
Q 2431 669 2431 922 
Q 2431 1156 2273 1281 
Q 2116 1406 1581 1522 
L 1381 1569 
Q 847 1681 609 1914 
Q 372 2147 372 2553 
Q 372 3047 722 3315 
Q 1072 3584 1716 3584 
Q 2034 3584 2315 3537 
Q 2597 3491 2834 3397 
z
" id="DejaVuSans-73" transform="scale(0.015625)"/>
      <path d="M 3272 2816 
L 2363 2816 
L 2100 1772 
L 3016 1772 
L 3272 2816 
z
M 2803 4594 
L 2478 3297 
L 3391 3297 
L 3719 4594 
L 4219 4594 
L 3897 3297 
L 4872 3297 
L 4872 2816 
L 3775 2816 
L 3519 1772 
L 4513 1772 
L 4513 1294 
L 3397 1294 
L 3072 0 
L 2572 0 
L 2894 1294 
L 1978 1294 
L 1656 0 
L 1153 0 
L 1478 1294 
L 494 1294 
L 494 1772 
L 1594 1772 
L 1856 2816 
L 850 2816 
L 850 3297 
L 1978 3297 
L 2297 4594 
L 2803 4594 
z
" id="DejaVuSans-23" transform="scale(0.015625)"/>
     </defs>
     <use xlink:href="#DejaVuSans-4d"/>
     <use x="86.279297" xlink:href="#DejaVuSans-6f"/>
     <use x="147.460938" xlink:href="#DejaVuSans-64"/>
     <use x="210.9375" xlink:href="#DejaVuSans-65"/>
     <use x="272.460938" xlink:href="#DejaVuSans-6c"/>
     <use x="300.244141" xlink:href="#DejaVuSans-20"/>
     <use x="332.03125" xlink:href="#DejaVuSans-70"/>
     <use x="395.507812" xlink:href="#DejaVuSans-65"/>
     <use x="457.03125" xlink:href="#DejaVuSans-72"/>
     <use x="498.144531" xlink:href="#DejaVuSans-66"/>
     <use x="533.349609" xlink:href="#DejaVuSans-6f"/>
     <use x="594.53125" xlink:href="#DejaVuSans-72"/>
     <use x="633.894531" xlink:href="#DejaVuSans-6d"/>
     <use x="731.306641" xlink:href="#DejaVuSans-61"/>
     <use x="792.585938" xlink:href="#DejaVuSans-6e"/>
     <use x="855.964844" xlink:href="#DejaVuSans-63"/>
     <use x="910.945312" xlink:href="#DejaVuSans-65"/>
     <use x="972.46875" xlink:href="#DejaVuSans-20"/>
     <use x="1004.255859" xlink:href="#DejaVuSans-76"/>
     <use x="1063.435547" xlink:href="#DejaVuSans-73"/>
     <use x="1115.535156" xlink:href="#DejaVuSans-2e"/>
     <use x="1147.322266" xlink:href="#DejaVuSans-20"/>
     <use x="1179.109375" xlink:href="#DejaVuSans-23"/>
     <use x="1262.898438" xlink:href="#DejaVuSans-20"/>
     <use x="1294.685547" xlink:href="#DejaVuSans-6f"/>
     <use x="1355.867188" xlink:href="#DejaVuSans-66"/>
     <use x="1391.072266" xlink:href="#DejaVuSans-20"/>
     <use x="1422.859375" xlink:href="#DejaVuSans-69"/>
     <use x="1450.642578" xlink:href="#DejaVuSans-74"/>
     <use x="1489.851562" xlink:href="#DejaVuSans-65"/>
     <use x="1551.375" xlink:href="#DejaVuSans-72"/>
     <use x="1592.488281" xlink:href="#DejaVuSans-61"/>
     <use x="1653.767578" xlink:href="#DejaVuSans-74"/>
     <use x="1692.976562" xlink:href="#DejaVuSans-69"/>
     <use x="1720.759766" xlink:href="#DejaVuSans-6f"/>
     <use x="1781.941406" xlink:href="#DejaVuSans-6e"/>
     <use x="1845.320312" xlink:href="#DejaVuSans-73"/>
    </g>
   </g>
  </g>
 </g>
 <defs>
  <clipPath id="pc6d88cea9d">
   <rect height="266.112" width="357.12" x="57.6" y="41.472"/>
  </clipPath>
 </defs>
</svg>
