<?xml version="1.0" encoding="utf-8" standalone="no"?>
<!DOCTYPE svg PUBLIC "-//W3C//DTD SVG 1.1//EN"
  "http://www.w3.org/Graphics/SVG/1.1/DTD/svg11.dtd">
<svg height="345.6pt" version="1.1" viewBox="0 0 460.8 345.6" width="460.8pt" xmlns="http://www.w3.org/2000/svg" xmlns:xlink="http://www.w3.org/1999/xlink">
 <metadata>
  <rdf:RDF xmlns:cc="http://creativecommons.org/ns#" xmlns:dc="http://purl.org/dc/elements/1.1/" xmlns:rdf="http://www.w3.org/1999/02/22-rdf-syntax-ns#">
   <cc:Work>
    <dc:type rdf:resource="http://purl.org/dc/dcmitype/StillImage"/>
    <dc:date>2021-08-18T06:33:06.501623</dc:date>
    <dc:format>image/svg+xml</dc:format>
    <dc:creator>
     <cc:Agent>
      <dc:title>Matplotlib v3.4.2, https://matplotlib.org/</dc:title>
     </cc:Agent>
    </dc:creator>
   </cc:Work>
  </rdf:RDF>
 </metadata>
 <defs>
  <style type="text/css">*{stroke-linecap:butt;stroke-linejoin:round;}</style>
 </defs>
 <g id="figure_1">
  <g id="patch_1">
   <path d="M 0 345.6 
L 460.8 345.6 
L 460.8 0 
L 0 0 
z
" style="fill:#ffffff;"/>
  </g>
  <g id="axes_1">
   <g id="patch_2">
    <path d="M 57.6 307.584 
L 414.72 307.584 
L 414.72 41.472 
L 57.6 41.472 
z
" style="fill:#ffffff;"/>
   </g>
   <g id="matplotlib.axis_1">
    <g id="xtick_1">
     <g id="line2d_1">
      <path clip-path="url(#pb2b83e615e)" d="M 72.201297 307.584 
L 72.201297 41.472 
" style="fill:none;stroke:#cccccc;stroke-linecap:round;stroke-width:0.8;"/>
     </g>
     <g id="text_1">
      <!-- 0 -->
      <g style="fill:#262626;" transform="translate(69.020047 322.182437)scale(0.1 -0.1)">
       <defs>
        <path d="M 2034 4250 
Q 1547 4250 1301 3770 
Q 1056 3291 1056 2328 
Q 1056 1369 1301 889 
Q 1547 409 2034 409 
Q 2525 409 2770 889 
Q 3016 1369 3016 2328 
Q 3016 3291 2770 3770 
Q 2525 4250 2034 4250 
z
M 2034 4750 
Q 2819 4750 3233 4129 
Q 3647 3509 3647 2328 
Q 3647 1150 3233 529 
Q 2819 -91 2034 -91 
Q 1250 -91 836 529 
Q 422 1150 422 2328 
Q 422 3509 836 4129 
Q 1250 4750 2034 4750 
z
" id="DejaVuSans-30" transform="scale(0.015625)"/>
       </defs>
       <use xlink:href="#DejaVuSans-30"/>
      </g>
     </g>
    </g>
    <g id="xtick_2">
     <g id="line2d_2">
      <path clip-path="url(#pb2b83e615e)" d="M 112.987044 307.584 
L 112.987044 41.472 
" style="fill:none;stroke:#cccccc;stroke-linecap:round;stroke-width:0.8;"/>
     </g>
     <g id="text_2">
      <!-- 25 -->
      <g style="fill:#262626;" transform="translate(106.624544 322.182437)scale(0.1 -0.1)">
       <defs>
        <path d="M 1228 531 
L 3431 531 
L 3431 0 
L 469 0 
L 469 531 
Q 828 903 1448 1529 
Q 2069 2156 2228 2338 
Q 2531 2678 2651 2914 
Q 2772 3150 2772 3378 
Q 2772 3750 2511 3984 
Q 2250 4219 1831 4219 
Q 1534 4219 1204 4116 
Q 875 4013 500 3803 
L 500 4441 
Q 881 4594 1212 4672 
Q 1544 4750 1819 4750 
Q 2544 4750 2975 4387 
Q 3406 4025 3406 3419 
Q 3406 3131 3298 2873 
Q 3191 2616 2906 2266 
Q 2828 2175 2409 1742 
Q 1991 1309 1228 531 
z
" id="DejaVuSans-32" transform="scale(0.015625)"/>
        <path d="M 691 4666 
L 3169 4666 
L 3169 4134 
L 1269 4134 
L 1269 2991 
Q 1406 3038 1543 3061 
Q 1681 3084 1819 3084 
Q 2600 3084 3056 2656 
Q 3513 2228 3513 1497 
Q 3513 744 3044 326 
Q 2575 -91 1722 -91 
Q 1428 -91 1123 -41 
Q 819 9 494 109 
L 494 744 
Q 775 591 1075 516 
Q 1375 441 1709 441 
Q 2250 441 2565 725 
Q 2881 1009 2881 1497 
Q 2881 1984 2565 2268 
Q 2250 2553 1709 2553 
Q 1456 2553 1204 2497 
Q 953 2441 691 2322 
L 691 4666 
z
" id="DejaVuSans-35" transform="scale(0.015625)"/>
       </defs>
       <use xlink:href="#DejaVuSans-32"/>
       <use x="63.623047" xlink:href="#DejaVuSans-35"/>
      </g>
     </g>
    </g>
    <g id="xtick_3">
     <g id="line2d_3">
      <path clip-path="url(#pb2b83e615e)" d="M 153.772791 307.584 
L 153.772791 41.472 
" style="fill:none;stroke:#cccccc;stroke-linecap:round;stroke-width:0.8;"/>
     </g>
     <g id="text_3">
      <!-- 50 -->
      <g style="fill:#262626;" transform="translate(147.410291 322.182437)scale(0.1 -0.1)">
       <use xlink:href="#DejaVuSans-35"/>
       <use x="63.623047" xlink:href="#DejaVuSans-30"/>
      </g>
     </g>
    </g>
    <g id="xtick_4">
     <g id="line2d_4">
      <path clip-path="url(#pb2b83e615e)" d="M 194.558538 307.584 
L 194.558538 41.472 
" style="fill:none;stroke:#cccccc;stroke-linecap:round;stroke-width:0.8;"/>
     </g>
     <g id="text_4">
      <!-- 75 -->
      <g style="fill:#262626;" transform="translate(188.196038 322.182437)scale(0.1 -0.1)">
       <defs>
        <path d="M 525 4666 
L 3525 4666 
L 3525 4397 
L 1831 0 
L 1172 0 
L 2766 4134 
L 525 4134 
L 525 4666 
z
" id="DejaVuSans-37" transform="scale(0.015625)"/>
       </defs>
       <use xlink:href="#DejaVuSans-37"/>
       <use x="63.623047" xlink:href="#DejaVuSans-35"/>
      </g>
     </g>
    </g>
    <g id="xtick_5">
     <g id="line2d_5">
      <path clip-path="url(#pb2b83e615e)" d="M 235.344285 307.584 
L 235.344285 41.472 
" style="fill:none;stroke:#cccccc;stroke-linecap:round;stroke-width:0.8;"/>
     </g>
     <g id="text_5">
      <!-- 100 -->
      <g style="fill:#262626;" transform="translate(225.800535 322.182437)scale(0.1 -0.1)">
       <defs>
        <path d="M 794 531 
L 1825 531 
L 1825 4091 
L 703 3866 
L 703 4441 
L 1819 4666 
L 2450 4666 
L 2450 531 
L 3481 531 
L 3481 0 
L 794 0 
L 794 531 
z
" id="DejaVuSans-31" transform="scale(0.015625)"/>
       </defs>
       <use xlink:href="#DejaVuSans-31"/>
       <use x="63.623047" xlink:href="#DejaVuSans-30"/>
       <use x="127.246094" xlink:href="#DejaVuSans-30"/>
      </g>
     </g>
    </g>
    <g id="xtick_6">
     <g id="line2d_6">
      <path clip-path="url(#pb2b83e615e)" d="M 276.130032 307.584 
L 276.130032 41.472 
" style="fill:none;stroke:#cccccc;stroke-linecap:round;stroke-width:0.8;"/>
     </g>
     <g id="text_6">
      <!-- 125 -->
      <g style="fill:#262626;" transform="translate(266.586282 322.182437)scale(0.1 -0.1)">
       <use xlink:href="#DejaVuSans-31"/>
       <use x="63.623047" xlink:href="#DejaVuSans-32"/>
       <use x="127.246094" xlink:href="#DejaVuSans-35"/>
      </g>
     </g>
    </g>
    <g id="xtick_7">
     <g id="line2d_7">
      <path clip-path="url(#pb2b83e615e)" d="M 316.915779 307.584 
L 316.915779 41.472 
" style="fill:none;stroke:#cccccc;stroke-linecap:round;stroke-width:0.8;"/>
     </g>
     <g id="text_7">
      <!-- 150 -->
      <g style="fill:#262626;" transform="translate(307.372029 322.182437)scale(0.1 -0.1)">
       <use xlink:href="#DejaVuSans-31"/>
       <use x="63.623047" xlink:href="#DejaVuSans-35"/>
       <use x="127.246094" xlink:href="#DejaVuSans-30"/>
      </g>
     </g>
    </g>
    <g id="xtick_8">
     <g id="line2d_8">
      <path clip-path="url(#pb2b83e615e)" d="M 357.701526 307.584 
L 357.701526 41.472 
" style="fill:none;stroke:#cccccc;stroke-linecap:round;stroke-width:0.8;"/>
     </g>
     <g id="text_8">
      <!-- 175 -->
      <g style="fill:#262626;" transform="translate(348.157776 322.182437)scale(0.1 -0.1)">
       <use xlink:href="#DejaVuSans-31"/>
       <use x="63.623047" xlink:href="#DejaVuSans-37"/>
       <use x="127.246094" xlink:href="#DejaVuSans-35"/>
      </g>
     </g>
    </g>
    <g id="xtick_9">
     <g id="line2d_9">
      <path clip-path="url(#pb2b83e615e)" d="M 398.487273 307.584 
L 398.487273 41.472 
" style="fill:none;stroke:#cccccc;stroke-linecap:round;stroke-width:0.8;"/>
     </g>
     <g id="text_9">
      <!-- 200 -->
      <g style="fill:#262626;" transform="translate(388.943523 322.182437)scale(0.1 -0.1)">
       <use xlink:href="#DejaVuSans-32"/>
       <use x="63.623047" xlink:href="#DejaVuSans-30"/>
       <use x="127.246094" xlink:href="#DejaVuSans-30"/>
      </g>
     </g>
    </g>
    <g id="text_10">
     <!-- Auroc -->
     <g style="fill:#262626;" transform="translate(221.819375 335.860562)scale(0.1 -0.1)">
      <defs>
       <path d="M 2188 4044 
L 1331 1722 
L 3047 1722 
L 2188 4044 
z
M 1831 4666 
L 2547 4666 
L 4325 0 
L 3669 0 
L 3244 1197 
L 1141 1197 
L 716 0 
L 50 0 
L 1831 4666 
z
" id="DejaVuSans-41" transform="scale(0.015625)"/>
       <path d="M 544 1381 
L 544 3500 
L 1119 3500 
L 1119 1403 
Q 1119 906 1312 657 
Q 1506 409 1894 409 
Q 2359 409 2629 706 
Q 2900 1003 2900 1516 
L 2900 3500 
L 3475 3500 
L 3475 0 
L 2900 0 
L 2900 538 
Q 2691 219 2414 64 
Q 2138 -91 1772 -91 
Q 1169 -91 856 284 
Q 544 659 544 1381 
z
M 1991 3584 
L 1991 3584 
z
" id="DejaVuSans-75" transform="scale(0.015625)"/>
       <path d="M 2631 2963 
Q 2534 3019 2420 3045 
Q 2306 3072 2169 3072 
Q 1681 3072 1420 2755 
Q 1159 2438 1159 1844 
L 1159 0 
L 581 0 
L 581 3500 
L 1159 3500 
L 1159 2956 
Q 1341 3275 1631 3429 
Q 1922 3584 2338 3584 
Q 2397 3584 2469 3576 
Q 2541 3569 2628 3553 
L 2631 2963 
z
" id="DejaVuSans-72" transform="scale(0.015625)"/>
       <path d="M 1959 3097 
Q 1497 3097 1228 2736 
Q 959 2375 959 1747 
Q 959 1119 1226 758 
Q 1494 397 1959 397 
Q 2419 397 2687 759 
Q 2956 1122 2956 1747 
Q 2956 2369 2687 2733 
Q 2419 3097 1959 3097 
z
M 1959 3584 
Q 2709 3584 3137 3096 
Q 3566 2609 3566 1747 
Q 3566 888 3137 398 
Q 2709 -91 1959 -91 
Q 1206 -91 779 398 
Q 353 888 353 1747 
Q 353 2609 779 3096 
Q 1206 3584 1959 3584 
z
" id="DejaVuSans-6f" transform="scale(0.015625)"/>
       <path d="M 3122 3366 
L 3122 2828 
Q 2878 2963 2633 3030 
Q 2388 3097 2138 3097 
Q 1578 3097 1268 2742 
Q 959 2388 959 1747 
Q 959 1106 1268 751 
Q 1578 397 2138 397 
Q 2388 397 2633 464 
Q 2878 531 3122 666 
L 3122 134 
Q 2881 22 2623 -34 
Q 2366 -91 2075 -91 
Q 1284 -91 818 406 
Q 353 903 353 1747 
Q 353 2603 823 3093 
Q 1294 3584 2113 3584 
Q 2378 3584 2631 3529 
Q 2884 3475 3122 3366 
z
" id="DejaVuSans-63" transform="scale(0.015625)"/>
      </defs>
      <use xlink:href="#DejaVuSans-41"/>
      <use x="68.408203" xlink:href="#DejaVuSans-75"/>
      <use x="131.787109" xlink:href="#DejaVuSans-72"/>
      <use x="170.650391" xlink:href="#DejaVuSans-6f"/>
      <use x="231.832031" xlink:href="#DejaVuSans-63"/>
     </g>
    </g>
   </g>
   <g id="matplotlib.axis_2">
    <g id="ytick_1">
     <g id="line2d_10">
      <path clip-path="url(#pb2b83e615e)" d="M 57.6 265.565093 
L 414.72 265.565093 
" style="fill:none;stroke:#cccccc;stroke-linecap:round;stroke-width:0.8;"/>
     </g>
     <g id="text_11">
      <!-- 0.45 -->
      <g style="fill:#262626;" transform="translate(28.334375 269.364312)scale(0.1 -0.1)">
       <defs>
        <path d="M 684 794 
L 1344 794 
L 1344 0 
L 684 0 
L 684 794 
z
" id="DejaVuSans-2e" transform="scale(0.015625)"/>
        <path d="M 2419 4116 
L 825 1625 
L 2419 1625 
L 2419 4116 
z
M 2253 4666 
L 3047 4666 
L 3047 1625 
L 3713 1625 
L 3713 1100 
L 3047 1100 
L 3047 0 
L 2419 0 
L 2419 1100 
L 313 1100 
L 313 1709 
L 2253 4666 
z
" id="DejaVuSans-34" transform="scale(0.015625)"/>
       </defs>
       <use xlink:href="#DejaVuSans-30"/>
       <use x="63.623047" xlink:href="#DejaVuSans-2e"/>
       <use x="95.410156" xlink:href="#DejaVuSans-34"/>
       <use x="159.033203" xlink:href="#DejaVuSans-35"/>
      </g>
     </g>
    </g>
    <g id="ytick_2">
     <g id="line2d_11">
      <path clip-path="url(#pb2b83e615e)" d="M 57.6 223.448371 
L 414.72 223.448371 
" style="fill:none;stroke:#cccccc;stroke-linecap:round;stroke-width:0.8;"/>
     </g>
     <g id="text_12">
      <!-- 0.50 -->
      <g style="fill:#262626;" transform="translate(28.334375 227.247589)scale(0.1 -0.1)">
       <use xlink:href="#DejaVuSans-30"/>
       <use x="63.623047" xlink:href="#DejaVuSans-2e"/>
       <use x="95.410156" xlink:href="#DejaVuSans-35"/>
       <use x="159.033203" xlink:href="#DejaVuSans-30"/>
      </g>
     </g>
    </g>
    <g id="ytick_3">
     <g id="line2d_12">
      <path clip-path="url(#pb2b83e615e)" d="M 57.6 181.331649 
L 414.72 181.331649 
" style="fill:none;stroke:#cccccc;stroke-linecap:round;stroke-width:0.8;"/>
     </g>
     <g id="text_13">
      <!-- 0.55 -->
      <g style="fill:#262626;" transform="translate(28.334375 185.130867)scale(0.1 -0.1)">
       <use xlink:href="#DejaVuSans-30"/>
       <use x="63.623047" xlink:href="#DejaVuSans-2e"/>
       <use x="95.410156" xlink:href="#DejaVuSans-35"/>
       <use x="159.033203" xlink:href="#DejaVuSans-35"/>
      </g>
     </g>
    </g>
    <g id="ytick_4">
     <g id="line2d_13">
      <path clip-path="url(#pb2b83e615e)" d="M 57.6 139.214927 
L 414.72 139.214927 
" style="fill:none;stroke:#cccccc;stroke-linecap:round;stroke-width:0.8;"/>
     </g>
     <g id="text_14">
      <!-- 0.60 -->
      <g style="fill:#262626;" transform="translate(28.334375 143.014145)scale(0.1 -0.1)">
       <defs>
        <path d="M 2113 2584 
Q 1688 2584 1439 2293 
Q 1191 2003 1191 1497 
Q 1191 994 1439 701 
Q 1688 409 2113 409 
Q 2538 409 2786 701 
Q 3034 994 3034 1497 
Q 3034 2003 2786 2293 
Q 2538 2584 2113 2584 
z
M 3366 4563 
L 3366 3988 
Q 3128 4100 2886 4159 
Q 2644 4219 2406 4219 
Q 1781 4219 1451 3797 
Q 1122 3375 1075 2522 
Q 1259 2794 1537 2939 
Q 1816 3084 2150 3084 
Q 2853 3084 3261 2657 
Q 3669 2231 3669 1497 
Q 3669 778 3244 343 
Q 2819 -91 2113 -91 
Q 1303 -91 875 529 
Q 447 1150 447 2328 
Q 447 3434 972 4092 
Q 1497 4750 2381 4750 
Q 2619 4750 2861 4703 
Q 3103 4656 3366 4563 
z
" id="DejaVuSans-36" transform="scale(0.015625)"/>
       </defs>
       <use xlink:href="#DejaVuSans-30"/>
       <use x="63.623047" xlink:href="#DejaVuSans-2e"/>
       <use x="95.410156" xlink:href="#DejaVuSans-36"/>
       <use x="159.033203" xlink:href="#DejaVuSans-30"/>
      </g>
     </g>
    </g>
    <g id="ytick_5">
     <g id="line2d_14">
      <path clip-path="url(#pb2b83e615e)" d="M 57.6 97.098204 
L 414.72 97.098204 
" style="fill:none;stroke:#cccccc;stroke-linecap:round;stroke-width:0.8;"/>
     </g>
     <g id="text_15">
      <!-- 0.65 -->
      <g style="fill:#262626;" transform="translate(28.334375 100.897423)scale(0.1 -0.1)">
       <use xlink:href="#DejaVuSans-30"/>
       <use x="63.623047" xlink:href="#DejaVuSans-2e"/>
       <use x="95.410156" xlink:href="#DejaVuSans-36"/>
       <use x="159.033203" xlink:href="#DejaVuSans-35"/>
      </g>
     </g>
    </g>
    <g id="ytick_6">
     <g id="line2d_15">
      <path clip-path="url(#pb2b83e615e)" d="M 57.6 54.981482 
L 414.72 54.981482 
" style="fill:none;stroke:#cccccc;stroke-linecap:round;stroke-width:0.8;"/>
     </g>
     <g id="text_16">
      <!-- 0.70 -->
      <g style="fill:#262626;" transform="translate(28.334375 58.780701)scale(0.1 -0.1)">
       <use xlink:href="#DejaVuSans-30"/>
       <use x="63.623047" xlink:href="#DejaVuSans-2e"/>
       <use x="95.410156" xlink:href="#DejaVuSans-37"/>
       <use x="159.033203" xlink:href="#DejaVuSans-30"/>
      </g>
     </g>
    </g>
    <g id="text_17">
     <!-- Iteration -->
     <g style="fill:#262626;" transform="translate(22.254687 195.736594)rotate(-90)scale(0.1 -0.1)">
      <defs>
       <path d="M 628 4666 
L 1259 4666 
L 1259 0 
L 628 0 
L 628 4666 
z
" id="DejaVuSans-49" transform="scale(0.015625)"/>
       <path d="M 1172 4494 
L 1172 3500 
L 2356 3500 
L 2356 3053 
L 1172 3053 
L 1172 1153 
Q 1172 725 1289 603 
Q 1406 481 1766 481 
L 2356 481 
L 2356 0 
L 1766 0 
Q 1100 0 847 248 
Q 594 497 594 1153 
L 594 3053 
L 172 3053 
L 172 3500 
L 594 3500 
L 594 4494 
L 1172 4494 
z
" id="DejaVuSans-74" transform="scale(0.015625)"/>
       <path d="M 3597 1894 
L 3597 1613 
L 953 1613 
Q 991 1019 1311 708 
Q 1631 397 2203 397 
Q 2534 397 2845 478 
Q 3156 559 3463 722 
L 3463 178 
Q 3153 47 2828 -22 
Q 2503 -91 2169 -91 
Q 1331 -91 842 396 
Q 353 884 353 1716 
Q 353 2575 817 3079 
Q 1281 3584 2069 3584 
Q 2775 3584 3186 3129 
Q 3597 2675 3597 1894 
z
M 3022 2063 
Q 3016 2534 2758 2815 
Q 2500 3097 2075 3097 
Q 1594 3097 1305 2825 
Q 1016 2553 972 2059 
L 3022 2063 
z
" id="DejaVuSans-65" transform="scale(0.015625)"/>
       <path d="M 2194 1759 
Q 1497 1759 1228 1600 
Q 959 1441 959 1056 
Q 959 750 1161 570 
Q 1363 391 1709 391 
Q 2188 391 2477 730 
Q 2766 1069 2766 1631 
L 2766 1759 
L 2194 1759 
z
M 3341 1997 
L 3341 0 
L 2766 0 
L 2766 531 
Q 2569 213 2275 61 
Q 1981 -91 1556 -91 
Q 1019 -91 701 211 
Q 384 513 384 1019 
Q 384 1609 779 1909 
Q 1175 2209 1959 2209 
L 2766 2209 
L 2766 2266 
Q 2766 2663 2505 2880 
Q 2244 3097 1772 3097 
Q 1472 3097 1187 3025 
Q 903 2953 641 2809 
L 641 3341 
Q 956 3463 1253 3523 
Q 1550 3584 1831 3584 
Q 2591 3584 2966 3190 
Q 3341 2797 3341 1997 
z
" id="DejaVuSans-61" transform="scale(0.015625)"/>
       <path d="M 603 3500 
L 1178 3500 
L 1178 0 
L 603 0 
L 603 3500 
z
M 603 4863 
L 1178 4863 
L 1178 4134 
L 603 4134 
L 603 4863 
z
" id="DejaVuSans-69" transform="scale(0.015625)"/>
       <path d="M 3513 2113 
L 3513 0 
L 2938 0 
L 2938 2094 
Q 2938 2591 2744 2837 
Q 2550 3084 2163 3084 
Q 1697 3084 1428 2787 
Q 1159 2491 1159 1978 
L 1159 0 
L 581 0 
L 581 3500 
L 1159 3500 
L 1159 2956 
Q 1366 3272 1645 3428 
Q 1925 3584 2291 3584 
Q 2894 3584 3203 3211 
Q 3513 2838 3513 2113 
z
" id="DejaVuSans-6e" transform="scale(0.015625)"/>
      </defs>
      <use xlink:href="#DejaVuSans-49"/>
      <use x="29.492188" xlink:href="#DejaVuSans-74"/>
      <use x="68.701172" xlink:href="#DejaVuSans-65"/>
      <use x="130.224609" xlink:href="#DejaVuSans-72"/>
      <use x="171.337891" xlink:href="#DejaVuSans-61"/>
      <use x="232.617188" xlink:href="#DejaVuSans-74"/>
      <use x="271.826172" xlink:href="#DejaVuSans-69"/>
      <use x="299.609375" xlink:href="#DejaVuSans-6f"/>
      <use x="360.791016" xlink:href="#DejaVuSans-6e"/>
     </g>
    </g>
   </g>
   <g id="PolyCollection_1">
    <defs>
     <path d="M 73.832727 -249.312163 
L 73.832727 -146.27376 
L 75.464157 -134.676587 
L 77.095587 -149.470613 
L 78.727017 -135.01901 
L 80.358447 -144.888905 
L 81.989877 -148.255858 
L 83.621307 -118.491043 
L 85.252736 -50.112 
L 86.884166 -199.12857 
L 88.515596 -196.865489 
L 90.147026 -157.601031 
L 91.778456 -135.8433 
L 93.409886 -107.448899 
L 95.041316 -126.651667 
L 96.672746 -132.201881 
L 98.304175 -196.018748 
L 99.935605 -170.971652 
L 101.567035 -138.91904 
L 103.198465 -75.241568 
L 104.829895 -209.769548 
L 106.461325 -149.840282 
L 108.092755 -182.245319 
L 109.724185 -131.217269 
L 111.355614 -151.635808 
L 112.987044 -132.365569 
L 114.618474 -170.985306 
L 116.249904 -114.505889 
L 117.881334 -195.39828 
L 119.512764 -136.731289 
L 121.144194 -131.207862 
L 122.775624 -195.596697 
L 124.407053 -159.579229 
L 126.038483 -113.671332 
L 127.669913 -155.06036 
L 129.301343 -183.459936 
L 130.932773 -161.302898 
L 132.564203 -163.204686 
L 134.195633 -124.426195 
L 135.827063 -141.291165 
L 137.458492 -153.325021 
L 139.089922 -147.683442 
L 140.721352 -124.054217 
L 142.352782 -140.188919 
L 143.984212 -132.071199 
L 145.615642 -120.374405 
L 147.247072 -155.292349 
L 148.878502 -138.574444 
L 150.509931 -169.156271 
L 152.141361 -191.503968 
L 153.772791 -118.036122 
L 155.404221 -183.767057 
L 157.035651 -139.367547 
L 158.667081 -160.273369 
L 160.298511 -99.386233 
L 161.929941 -93.806972 
L 163.56137 -139.713597 
L 165.1928 -128.80678 
L 166.82423 -114.696873 
L 168.45566 -149.056161 
L 170.08709 -129.494089 
L 171.71852 -148.406112 
L 173.34995 -130.23972 
L 174.98138 -171.142641 
L 176.61281 -87.836504 
L 178.244239 -121.011089 
L 179.875669 -121.344633 
L 181.507099 -119.218023 
L 183.138529 -183.343855 
L 184.769959 -145.167591 
L 186.401389 -111.441676 
L 188.032819 -167.567406 
L 189.664249 -130.516516 
L 191.295678 -125.311354 
L 192.927108 -144.160298 
L 194.558538 -119.142813 
L 196.189968 -130.9263 
L 197.821398 -156.707731 
L 199.452828 -112.565214 
L 201.084258 -125.316292 
L 202.715688 -90.866144 
L 204.347117 -176.70372 
L 205.978547 -113.848277 
L 207.609977 -127.197023 
L 209.241407 -106.737819 
L 210.872837 -151.358544 
L 212.504267 -192.052278 
L 214.135697 -131.789527 
L 215.767127 -131.832197 
L 217.398556 -142.514836 
L 219.029986 -151.75122 
L 220.661416 -141.922665 
L 222.292846 -142.380427 
L 223.924276 -185.042085 
L 225.555706 -104.083939 
L 227.187136 -117.276802 
L 228.818566 -139.302912 
L 230.449995 -169.039239 
L 232.081425 -131.580564 
L 233.712855 -151.488568 
L 235.344285 -164.171483 
L 236.975715 -161.60788 
L 238.607145 -117.546262 
L 240.238575 -172.843742 
L 241.870005 -146.055193 
L 243.501434 -99.294549 
L 245.132864 -142.985404 
L 246.764294 -168.447933 
L 248.395724 -168.376703 
L 250.027154 -189.493855 
L 251.658584 -87.895834 
L 253.290014 -104.481506 
L 254.921444 -119.335056 
L 256.552873 -108.138152 
L 258.184303 -125.687413 
L 259.815733 -81.599163 
L 261.447163 -168.344772 
L 263.078593 -169.475697 
L 264.710023 -161.230802 
L 266.341453 -77.82704 
L 267.972883 -180.136665 
L 269.604312 -86.734142 
L 271.235742 -143.434806 
L 272.867172 -100.251504 
L 274.498602 -119.997412 
L 276.130032 -107.433563 
L 277.761462 -156.881338 
L 279.392892 -154.86345 
L 281.024322 -125.594364 
L 282.655751 -169.329174 
L 284.287181 -131.756134 
L 285.918611 -153.477606 
L 287.550041 -115.517594 
L 289.181471 -180.977957 
L 290.812901 -136.790182 
L 292.444331 -122.887554 
L 294.075761 -127.498844 
L 295.70719 -82.557093 
L 297.33862 -151.753424 
L 298.97005 -109.866172 
L 300.60148 -142.570249 
L 302.23291 -156.812828 
L 303.86434 -147.691021 
L 305.49577 -188.476741 
L 307.1272 -180.960914 
L 308.75863 -174.583337 
L 310.390059 -126.772663 
L 312.021489 -167.162459 
L 313.652919 -174.959726 
L 315.284349 -165.657911 
L 316.915779 -157.745341 
L 318.547209 -172.636292 
L 320.178639 -96.73895 
L 321.810069 -176.221753 
L 323.441498 -185.413164 
L 325.072928 -150.612353 
L 326.704358 -147.783911 
L 328.335788 -91.5697 
L 329.967218 -133.531508 
L 331.598648 -150.198565 
L 333.230078 -77.958151 
L 334.861508 -137.202313 
L 336.492937 -126.263973 
L 338.124367 -127.270425 
L 339.755797 -195.033938 
L 341.387227 -106.339709 
L 343.018657 -197.583499 
L 344.650087 -144.36983 
L 346.281517 -157.713411 
L 347.912947 -148.823947 
L 349.544376 -161.333736 
L 351.175806 -144.661577 
L 352.807236 -198.587452 
L 354.438666 -133.735795 
L 356.070096 -194.158474 
L 357.701526 -94.765083 
L 359.332956 -174.158418 
L 360.964386 -98.309735 
L 362.595815 -189.633037 
L 364.227245 -121.342099 
L 365.858675 -158.234578 
L 367.490105 -147.560008 
L 369.121535 -112.425241 
L 370.752965 -98.614989 
L 372.384395 -190.068718 
L 374.015825 -146.14942 
L 375.647254 -161.010234 
L 377.278684 -132.007161 
L 378.910114 -152.495501 
L 380.541544 -82.381506 
L 382.172974 -173.305222 
L 383.804404 -124.45218 
L 385.435834 -136.428181 
L 387.067264 -140.120005 
L 388.698693 -166.81266 
L 390.330123 -166.249568 
L 391.961553 -120.233099 
L 393.592983 -123.148437 
L 395.224413 -88.844479 
L 396.855843 -145.206293 
L 398.487273 -168.073081 
L 398.487273 -245.75459 
L 398.487273 -245.75459 
L 396.855843 -219.169425 
L 395.224413 -235.689003 
L 393.592983 -208.453103 
L 391.961553 -203.657715 
L 390.330123 -209.270069 
L 388.698693 -276.19211 
L 387.067264 -206.090175 
L 385.435834 -215.370599 
L 383.804404 -230.120633 
L 382.172974 -280.077625 
L 380.541544 -219.793073 
L 378.910114 -251.244721 
L 377.278684 -254.811683 
L 375.647254 -253.629311 
L 374.015825 -254.808287 
L 372.384395 -276.257085 
L 370.752965 -128.818419 
L 369.121535 -239.011146 
L 367.490105 -207.498432 
L 365.858675 -263.908 
L 364.227245 -227.582047 
L 362.595815 -238.492703 
L 360.964386 -253.425176 
L 359.332956 -270.892618 
L 357.701526 -231.790861 
L 356.070096 -265.796333 
L 354.438666 -223.760899 
L 352.807236 -265.451816 
L 351.175806 -188.945228 
L 349.544376 -246.461059 
L 347.912947 -256.397019 
L 346.281517 -228.729354 
L 344.650087 -246.512652 
L 343.018657 -252.306728 
L 341.387227 -268.395428 
L 339.755797 -237.649489 
L 338.124367 -226.381726 
L 336.492937 -254.002854 
L 334.861508 -216.019718 
L 333.230078 -188.908836 
L 331.598648 -275.37481 
L 329.967218 -228.426368 
L 328.335788 -186.962746 
L 326.704358 -230.934618 
L 325.072928 -244.975267 
L 323.441498 -276.810398 
L 321.810069 -220.803797 
L 320.178639 -186.516589 
L 318.547209 -198.878722 
L 316.915779 -210.284072 
L 315.284349 -282.173184 
L 313.652919 -252.097201 
L 312.021489 -262.626683 
L 310.390059 -253.239683 
L 308.75863 -220.109297 
L 307.1272 -287.121288 
L 305.49577 -237.697133 
L 303.86434 -225.921378 
L 302.23291 -231.586716 
L 300.60148 -241.422389 
L 298.97005 -186.776365 
L 297.33862 -274.059109 
L 295.70719 -272.546793 
L 294.075761 -219.910226 
L 292.444331 -193.425245 
L 290.812901 -237.380252 
L 289.181471 -283.963841 
L 287.550041 -223.782388 
L 285.918611 -261.480757 
L 284.287181 -236.637836 
L 282.655751 -249.239428 
L 281.024322 -193.021172 
L 279.392892 -278.298878 
L 277.761462 -199.19351 
L 276.130032 -212.452803 
L 274.498602 -246.755732 
L 272.867172 -173.093629 
L 271.235742 -229.975047 
L 269.604312 -162.110253 
L 267.972883 -222.349571 
L 266.341453 -235.601826 
L 264.710023 -219.635178 
L 263.078593 -246.087434 
L 261.447163 -244.62172 
L 259.815733 -185.548158 
L 258.184303 -211.763759 
L 256.552873 -218.690171 
L 254.921444 -207.259197 
L 253.290014 -225.657654 
L 251.658584 -258.693466 
L 250.027154 -252.139017 
L 248.395724 -245.070035 
L 246.764294 -255.126845 
L 245.132864 -219.783645 
L 243.501434 -231.699357 
L 241.870005 -235.117675 
L 240.238575 -223.507147 
L 238.607145 -275.412842 
L 236.975715 -187.807742 
L 235.344285 -235.254596 
L 233.712855 -260.343196 
L 232.081425 -237.354187 
L 230.449995 -230.479485 
L 228.818566 -214.362458 
L 227.187136 -226.689832 
L 225.555706 -210.830292 
L 223.924276 -251.357796 
L 222.292846 -279.341095 
L 220.661416 -264.229784 
L 219.029986 -180.013209 
L 217.398556 -245.414112 
L 215.767127 -284.693765 
L 214.135697 -238.483257 
L 212.504267 -211.73567 
L 210.872837 -215.046712 
L 209.241407 -258.171896 
L 207.609977 -221.492703 
L 205.978547 -268.053118 
L 204.347117 -226.270834 
L 202.715688 -255.272271 
L 201.084258 -208.009887 
L 199.452828 -228.883739 
L 197.821398 -242.856087 
L 196.189968 -237.324491 
L 194.558538 -251.249111 
L 192.927108 -260.218557 
L 191.295678 -189.869817 
L 189.664249 -248.461408 
L 188.032819 -226.745698 
L 186.401389 -218.101491 
L 184.769959 -216.819822 
L 183.138529 -244.96852 
L 181.507099 -216.439727 
L 179.875669 -236.686467 
L 178.244239 -259.109518 
L 176.61281 -226.247722 
L 174.98138 -234.921548 
L 173.34995 -236.010543 
L 171.71852 -240.042328 
L 170.08709 -216.848508 
L 168.45566 -210.380877 
L 166.82423 -196.578226 
L 165.1928 -200.527994 
L 163.56137 -235.302575 
L 161.929941 -231.362159 
L 160.298511 -258.507829 
L 158.667081 -273.950051 
L 157.035651 -256.657505 
L 155.404221 -231.457545 
L 153.772791 -258.92326 
L 152.141361 -229.897449 
L 150.509931 -234.86411 
L 148.878502 -275.520225 
L 147.247072 -232.697135 
L 145.615642 -246.212223 
L 143.984212 -222.735567 
L 142.352782 -244.95114 
L 140.721352 -203.785366 
L 139.089922 -212.53915 
L 137.458492 -263.012903 
L 135.827063 -235.73542 
L 134.195633 -255.172288 
L 132.564203 -227.768454 
L 130.932773 -252.833591 
L 129.301343 -269.842899 
L 127.669913 -224.090806 
L 126.038483 -224.146151 
L 124.407053 -279.365997 
L 122.775624 -225.867653 
L 121.144194 -232.256259 
L 119.512764 -243.176947 
L 117.881334 -260.446741 
L 116.249904 -178.625078 
L 114.618474 -245.926912 
L 112.987044 -215.650432 
L 111.355614 -246.300753 
L 109.724185 -235.586174 
L 108.092755 -222.136108 
L 106.461325 -248.510668 
L 104.829895 -292.032 
L 103.198465 -217.521276 
L 101.567035 -208.308365 
L 99.935605 -211.510355 
L 98.304175 -267.248418 
L 96.672746 -232.900025 
L 95.041316 -225.798437 
L 93.409886 -236.941305 
L 91.778456 -241.175155 
L 90.147026 -222.970169 
L 88.515596 -285.85331 
L 86.884166 -228.493353 
L 85.252736 -223.079309 
L 83.621307 -239.999013 
L 81.989877 -272.603081 
L 80.358447 -227.696441 
L 78.727017 -277.879635 
L 77.095587 -225.03022 
L 75.464157 -183.052502 
L 73.832727 -249.312163 
z
" id="m2db21d31b4" style="stroke:#ffffff;stroke-opacity:0.2;"/>
    </defs>
    <g clip-path="url(#pb2b83e615e)">
     <use style="fill:#1f77b4;fill-opacity:0.2;stroke:#ffffff;stroke-opacity:0.2;" x="0" xlink:href="#m2db21d31b4" y="345.6"/>
    </g>
   </g>
   <g id="line2d_16">
    <path clip-path="url(#pb2b83e615e)" d="M 73.832727 147.807038 
L 75.464157 186.735455 
L 77.095587 158.349584 
L 78.727017 139.150677 
L 80.358447 159.307327 
L 81.989877 135.17053 
L 83.621307 166.354972 
L 85.252736 209.004345 
L 86.884166 131.789039 
L 88.515596 104.2406 
L 90.147026 155.3144 
L 91.778456 157.090773 
L 93.409886 173.404898 
L 95.041316 169.374948 
L 96.672746 163.049047 
L 98.304175 113.966417 
L 99.935605 154.358996 
L 101.567035 171.986297 
L 103.198465 199.218578 
L 104.829895 94.699226 
L 106.461325 146.424525 
L 108.092755 143.409286 
L 109.724185 162.198278 
L 111.355614 146.631719 
L 112.987044 171.591999 
L 114.618474 137.143891 
L 116.249904 199.034516 
L 117.881334 117.677489 
L 119.512764 155.645882 
L 121.144194 163.867939 
L 122.775624 134.867825 
L 124.407053 126.127387 
L 126.038483 176.691258 
L 127.669913 156.024417 
L 129.301343 118.948583 
L 130.932773 138.531756 
L 132.564203 150.11343 
L 134.195633 155.800758 
L 135.827063 157.086708 
L 137.458492 137.431038 
L 139.089922 165.488704 
L 140.721352 181.680209 
L 142.352782 153.029971 
L 143.984212 168.196617 
L 145.615642 162.306686 
L 147.247072 151.605258 
L 148.878502 138.552665 
L 150.509931 143.58981 
L 152.141361 134.899292 
L 153.772791 157.120309 
L 155.404221 137.987699 
L 157.035651 147.587474 
L 158.667081 128.48829 
L 160.298511 166.652969 
L 161.929941 183.015434 
L 163.56137 158.091914 
L 165.1928 180.932613 
L 166.82423 189.96245 
L 168.45566 165.881481 
L 170.08709 172.428701 
L 171.71852 151.37578 
L 173.34995 162.474869 
L 174.98138 142.567905 
L 176.61281 188.557887 
L 178.244239 155.539696 
L 181.507099 177.771125 
L 183.138529 131.443813 
L 184.769959 164.606293 
L 186.401389 180.828417 
L 188.032819 148.443448 
L 189.664249 156.111038 
L 191.295678 188.009415 
L 192.927108 143.410573 
L 194.558538 160.404038 
L 196.189968 161.474605 
L 197.821398 145.818091 
L 199.452828 174.875523 
L 201.084258 178.93691 
L 202.715688 172.530793 
L 204.347117 144.112723 
L 205.978547 154.649302 
L 207.609977 171.255137 
L 209.241407 163.145143 
L 210.872837 162.397372 
L 212.504267 143.706026 
L 214.135697 160.463608 
L 215.767127 137.337019 
L 217.398556 151.635526 
L 219.029986 179.717785 
L 220.661416 142.523776 
L 223.924276 127.40006 
L 225.555706 188.142885 
L 227.187136 173.616683 
L 228.818566 168.767315 
L 230.449995 145.840638 
L 232.081425 161.132625 
L 233.712855 139.684118 
L 235.344285 145.886961 
L 236.975715 170.892189 
L 238.607145 149.120448 
L 240.238575 147.424555 
L 241.870005 155.013566 
L 243.501434 180.103047 
L 245.132864 164.215476 
L 246.764294 133.812611 
L 248.395724 138.876631 
L 250.027154 124.783564 
L 251.658584 172.30535 
L 253.290014 180.53042 
L 254.921444 182.302873 
L 256.552873 182.185839 
L 258.184303 176.874414 
L 259.815733 212.02634 
L 261.447163 139.116754 
L 263.078593 137.818435 
L 264.710023 155.16701 
L 266.341453 188.885567 
L 267.972883 144.356882 
L 269.604312 221.177803 
L 271.235742 158.895073 
L 272.867172 208.927433 
L 274.498602 162.223428 
L 276.130032 185.656817 
L 277.761462 167.562576 
L 279.392892 129.018836 
L 281.024322 186.292232 
L 282.655751 136.315699 
L 284.287181 161.403015 
L 285.918611 138.120818 
L 287.550041 175.950009 
L 289.181471 113.129101 
L 290.812901 158.514783 
L 292.444331 187.4436 
L 294.075761 171.895465 
L 295.70719 168.048057 
L 297.33862 132.693733 
L 298.97005 197.278731 
L 300.60148 153.603681 
L 302.23291 151.400228 
L 303.86434 158.793801 
L 305.49577 132.513063 
L 307.1272 111.558899 
L 308.75863 148.253683 
L 310.390059 155.593827 
L 312.021489 130.705429 
L 313.652919 132.071536 
L 315.284349 121.684453 
L 316.915779 161.585293 
L 318.547209 159.842493 
L 320.178639 203.972231 
L 321.810069 147.087225 
L 323.441498 114.488219 
L 325.072928 147.80619 
L 326.704358 156.240735 
L 328.335788 206.333777 
L 329.967218 164.621062 
L 331.598648 132.813312 
L 333.230078 212.166506 
L 334.861508 168.988985 
L 336.492937 155.466586 
L 338.124367 168.773924 
L 339.755797 129.258286 
L 341.387227 158.232432 
L 343.018657 120.654886 
L 344.650087 150.158759 
L 346.281517 152.378617 
L 347.912947 142.989517 
L 349.544376 141.702602 
L 351.175806 178.796597 
L 352.807236 113.580366 
L 354.438666 166.851653 
L 356.070096 115.622596 
L 357.701526 182.322028 
L 359.332956 123.074482 
L 360.964386 169.732545 
L 362.595815 131.53713 
L 364.227245 171.137927 
L 365.858675 134.528711 
L 367.490105 168.07078 
L 369.121535 169.881806 
L 370.752965 231.883296 
L 372.384395 112.437098 
L 374.015825 145.121146 
L 375.647254 138.280228 
L 377.278684 152.190578 
L 378.910114 143.729889 
L 380.541544 194.51271 
L 382.172974 118.908577 
L 383.804404 168.313593 
L 385.435834 169.70061 
L 387.067264 172.49491 
L 388.698693 124.097615 
L 390.330123 157.840181 
L 391.961553 183.654593 
L 393.592983 179.79923 
L 395.224413 183.333259 
L 396.855843 163.412141 
L 398.487273 138.686165 
L 398.487273 138.686165 
" style="fill:none;stroke:#1f77b4;stroke-linecap:round;stroke-width:1.5;"/>
   </g>
   <g id="patch_3">
    <path d="M 57.6 307.584 
L 57.6 41.472 
" style="fill:none;stroke:#cccccc;stroke-linecap:square;stroke-linejoin:miter;stroke-width:0.8;"/>
   </g>
   <g id="patch_4">
    <path d="M 414.72 307.584 
L 414.72 41.472 
" style="fill:none;stroke:#cccccc;stroke-linecap:square;stroke-linejoin:miter;stroke-width:0.8;"/>
   </g>
   <g id="patch_5">
    <path d="M 57.6 307.584 
L 414.72 307.584 
" style="fill:none;stroke:#cccccc;stroke-linecap:square;stroke-linejoin:miter;stroke-width:0.8;"/>
   </g>
   <g id="patch_6">
    <path d="M 57.6 41.472 
L 414.72 41.472 
" style="fill:none;stroke:#cccccc;stroke-linecap:square;stroke-linejoin:miter;stroke-width:0.8;"/>
   </g>
   <g id="text_18">
    <!-- Model performance vs. # of iterations -->
    <g style="fill:#262626;" transform="translate(122.314688 35.472)scale(0.12 -0.12)">
     <defs>
      <path d="M 628 4666 
L 1569 4666 
L 2759 1491 
L 3956 4666 
L 4897 4666 
L 4897 0 
L 4281 0 
L 4281 4097 
L 3078 897 
L 2444 897 
L 1241 4097 
L 1241 0 
L 628 0 
L 628 4666 
z
" id="DejaVuSans-4d" transform="scale(0.015625)"/>
      <path d="M 2906 2969 
L 2906 4863 
L 3481 4863 
L 3481 0 
L 2906 0 
L 2906 525 
Q 2725 213 2448 61 
Q 2172 -91 1784 -91 
Q 1150 -91 751 415 
Q 353 922 353 1747 
Q 353 2572 751 3078 
Q 1150 3584 1784 3584 
Q 2172 3584 2448 3432 
Q 2725 3281 2906 2969 
z
M 947 1747 
Q 947 1113 1208 752 
Q 1469 391 1925 391 
Q 2381 391 2643 752 
Q 2906 1113 2906 1747 
Q 2906 2381 2643 2742 
Q 2381 3103 1925 3103 
Q 1469 3103 1208 2742 
Q 947 2381 947 1747 
z
" id="DejaVuSans-64" transform="scale(0.015625)"/>
      <path d="M 603 4863 
L 1178 4863 
L 1178 0 
L 603 0 
L 603 4863 
z
" id="DejaVuSans-6c" transform="scale(0.015625)"/>
      <path id="DejaVuSans-20" transform="scale(0.015625)"/>
      <path d="M 1159 525 
L 1159 -1331 
L 581 -1331 
L 581 3500 
L 1159 3500 
L 1159 2969 
Q 1341 3281 1617 3432 
Q 1894 3584 2278 3584 
Q 2916 3584 3314 3078 
Q 3713 2572 3713 1747 
Q 3713 922 3314 415 
Q 2916 -91 2278 -91 
Q 1894 -91 1617 61 
Q 1341 213 1159 525 
z
M 3116 1747 
Q 3116 2381 2855 2742 
Q 2594 3103 2138 3103 
Q 1681 3103 1420 2742 
Q 1159 2381 1159 1747 
Q 1159 1113 1420 752 
Q 1681 391 2138 391 
Q 2594 391 2855 752 
Q 3116 1113 3116 1747 
z
" id="DejaVuSans-70" transform="scale(0.015625)"/>
      <path d="M 2375 4863 
L 2375 4384 
L 1825 4384 
Q 1516 4384 1395 4259 
Q 1275 4134 1275 3809 
L 1275 3500 
L 2222 3500 
L 2222 3053 
L 1275 3053 
L 1275 0 
L 697 0 
L 697 3053 
L 147 3053 
L 147 3500 
L 697 3500 
L 697 3744 
Q 697 4328 969 4595 
Q 1241 4863 1831 4863 
L 2375 4863 
z
" id="DejaVuSans-66" transform="scale(0.015625)"/>
      <path d="M 3328 2828 
Q 3544 3216 3844 3400 
Q 4144 3584 4550 3584 
Q 5097 3584 5394 3201 
Q 5691 2819 5691 2113 
L 5691 0 
L 5113 0 
L 5113 2094 
Q 5113 2597 4934 2840 
Q 4756 3084 4391 3084 
Q 3944 3084 3684 2787 
Q 3425 2491 3425 1978 
L 3425 0 
L 2847 0 
L 2847 2094 
Q 2847 2600 2669 2842 
Q 2491 3084 2119 3084 
Q 1678 3084 1418 2786 
Q 1159 2488 1159 1978 
L 1159 0 
L 581 0 
L 581 3500 
L 1159 3500 
L 1159 2956 
Q 1356 3278 1631 3431 
Q 1906 3584 2284 3584 
Q 2666 3584 2933 3390 
Q 3200 3197 3328 2828 
z
" id="DejaVuSans-6d" transform="scale(0.015625)"/>
      <path d="M 191 3500 
L 800 3500 
L 1894 563 
L 2988 3500 
L 3597 3500 
L 2284 0 
L 1503 0 
L 191 3500 
z
" id="DejaVuSans-76" transform="scale(0.015625)"/>
      <path d="M 2834 3397 
L 2834 2853 
Q 2591 2978 2328 3040 
Q 2066 3103 1784 3103 
Q 1356 3103 1142 2972 
Q 928 2841 928 2578 
Q 928 2378 1081 2264 
Q 1234 2150 1697 2047 
L 1894 2003 
Q 2506 1872 2764 1633 
Q 3022 1394 3022 966 
Q 3022 478 2636 193 
Q 2250 -91 1575 -91 
Q 1294 -91 989 -36 
Q 684 19 347 128 
L 347 722 
Q 666 556 975 473 
Q 1284 391 1588 391 
Q 1994 391 2212 530 
Q 2431 669 2431 922 
Q 2431 1156 2273 1281 
Q 2116 1406 1581 1522 
L 1381 1569 
Q 847 1681 609 1914 
Q 372 2147 372 2553 
Q 372 3047 722 3315 
Q 1072 3584 1716 3584 
Q 2034 3584 2315 3537 
Q 2597 3491 2834 3397 
z
" id="DejaVuSans-73" transform="scale(0.015625)"/>
      <path d="M 3272 2816 
L 2363 2816 
L 2100 1772 
L 3016 1772 
L 3272 2816 
z
M 2803 4594 
L 2478 3297 
L 3391 3297 
L 3719 4594 
L 4219 4594 
L 3897 3297 
L 4872 3297 
L 4872 2816 
L 3775 2816 
L 3519 1772 
L 4513 1772 
L 4513 1294 
L 3397 1294 
L 3072 0 
L 2572 0 
L 2894 1294 
L 1978 1294 
L 1656 0 
L 1153 0 
L 1478 1294 
L 494 1294 
L 494 1772 
L 1594 1772 
L 1856 2816 
L 850 2816 
L 850 3297 
L 1978 3297 
L 2297 4594 
L 2803 4594 
z
" id="DejaVuSans-23" transform="scale(0.015625)"/>
     </defs>
     <use xlink:href="#DejaVuSans-4d"/>
     <use x="86.279297" xlink:href="#DejaVuSans-6f"/>
     <use x="147.460938" xlink:href="#DejaVuSans-64"/>
     <use x="210.9375" xlink:href="#DejaVuSans-65"/>
     <use x="272.460938" xlink:href="#DejaVuSans-6c"/>
     <use x="300.244141" xlink:href="#DejaVuSans-20"/>
     <use x="332.03125" xlink:href="#DejaVuSans-70"/>
     <use x="395.507812" xlink:href="#DejaVuSans-65"/>
     <use x="457.03125" xlink:href="#DejaVuSans-72"/>
     <use x="498.144531" xlink:href="#DejaVuSans-66"/>
     <use x="533.349609" xlink:href="#DejaVuSans-6f"/>
     <use x="594.53125" xlink:href="#DejaVuSans-72"/>
     <use x="633.894531" xlink:href="#DejaVuSans-6d"/>
     <use x="731.306641" xlink:href="#DejaVuSans-61"/>
     <use x="792.585938" xlink:href="#DejaVuSans-6e"/>
     <use x="855.964844" xlink:href="#DejaVuSans-63"/>
     <use x="910.945312" xlink:href="#DejaVuSans-65"/>
     <use x="972.46875" xlink:href="#DejaVuSans-20"/>
     <use x="1004.255859" xlink:href="#DejaVuSans-76"/>
     <use x="1063.435547" xlink:href="#DejaVuSans-73"/>
     <use x="1115.535156" xlink:href="#DejaVuSans-2e"/>
     <use x="1147.322266" xlink:href="#DejaVuSans-20"/>
     <use x="1179.109375" xlink:href="#DejaVuSans-23"/>
     <use x="1262.898438" xlink:href="#DejaVuSans-20"/>
     <use x="1294.685547" xlink:href="#DejaVuSans-6f"/>
     <use x="1355.867188" xlink:href="#DejaVuSans-66"/>
     <use x="1391.072266" xlink:href="#DejaVuSans-20"/>
     <use x="1422.859375" xlink:href="#DejaVuSans-69"/>
     <use x="1450.642578" xlink:href="#DejaVuSans-74"/>
     <use x="1489.851562" xlink:href="#DejaVuSans-65"/>
     <use x="1551.375" xlink:href="#DejaVuSans-72"/>
     <use x="1592.488281" xlink:href="#DejaVuSans-61"/>
     <use x="1653.767578" xlink:href="#DejaVuSans-74"/>
     <use x="1692.976562" xlink:href="#DejaVuSans-69"/>
     <use x="1720.759766" xlink:href="#DejaVuSans-6f"/>
     <use x="1781.941406" xlink:href="#DejaVuSans-6e"/>
     <use x="1845.320312" xlink:href="#DejaVuSans-73"/>
    </g>
   </g>
  </g>
 </g>
 <defs>
  <clipPath id="pb2b83e615e">
   <rect height="266.112" width="357.12" x="57.6" y="41.472"/>
  </clipPath>
 </defs>
</svg>
