<?xml version="1.0" encoding="utf-8" standalone="no"?>
<!DOCTYPE svg PUBLIC "-//W3C//DTD SVG 1.1//EN"
  "http://www.w3.org/Graphics/SVG/1.1/DTD/svg11.dtd">
<svg xmlns:xlink="http://www.w3.org/1999/xlink" width="460.8pt" height="345.6pt" viewBox="0 0 460.8 345.6" xmlns="http://www.w3.org/2000/svg" version="1.1">
 <metadata>
  <rdf:RDF xmlns:dc="http://purl.org/dc/elements/1.1/" xmlns:cc="http://creativecommons.org/ns#" xmlns:rdf="http://www.w3.org/1999/02/22-rdf-syntax-ns#">
   <cc:Work>
    <dc:type rdf:resource="http://purl.org/dc/dcmitype/StillImage"/>
    <dc:date>2022-10-31T14:09:59.643236</dc:date>
    <dc:format>image/svg+xml</dc:format>
    <dc:creator>
     <cc:Agent>
      <dc:title>Matplotlib v3.5.2, https://matplotlib.org/</dc:title>
     </cc:Agent>
    </dc:creator>
   </cc:Work>
  </rdf:RDF>
 </metadata>
 <defs>
  <style type="text/css">*{stroke-linejoin: round; stroke-linecap: butt}</style>
 </defs>
 <g id="figure_1">
  <g id="patch_1">
   <path d="M 0 345.6 
L 460.8 345.6 
L 460.8 0 
L 0 0 
z
" style="fill: #ffffff"/>
  </g>
  <g id="axes_1">
   <g id="patch_2">
    <path d="M 57.6 307.584 
L 414.72 307.584 
L 414.72 41.472 
L 57.6 41.472 
z
" style="fill: #ffffff"/>
   </g>
   <g id="matplotlib.axis_1">
    <g id="xtick_1">
     <g id="line2d_1">
      <path d="M 72.201297 307.584 
L 72.201297 41.472 
" clip-path="url(#p18ce90095e)" style="fill: none; stroke: #cccccc; stroke-width: 0.8; stroke-linecap: round"/>
     </g>
     <g id="text_1">
      <!-- 0 -->
      <g style="fill: #262626" transform="translate(69.020047 322.182437)scale(0.1 -0.1)">
       <defs>
        <path id="DejaVuSans-30" d="M 2034 4250 
Q 1547 4250 1301 3770 
Q 1056 3291 1056 2328 
Q 1056 1369 1301 889 
Q 1547 409 2034 409 
Q 2525 409 2770 889 
Q 3016 1369 3016 2328 
Q 3016 3291 2770 3770 
Q 2525 4250 2034 4250 
z
M 2034 4750 
Q 2819 4750 3233 4129 
Q 3647 3509 3647 2328 
Q 3647 1150 3233 529 
Q 2819 -91 2034 -91 
Q 1250 -91 836 529 
Q 422 1150 422 2328 
Q 422 3509 836 4129 
Q 1250 4750 2034 4750 
z
" transform="scale(0.015625)"/>
       </defs>
       <use xlink:href="#DejaVuSans-30"/>
      </g>
     </g>
    </g>
    <g id="xtick_2">
     <g id="line2d_2">
      <path d="M 112.987044 307.584 
L 112.987044 41.472 
" clip-path="url(#p18ce90095e)" style="fill: none; stroke: #cccccc; stroke-width: 0.8; stroke-linecap: round"/>
     </g>
     <g id="text_2">
      <!-- 25 -->
      <g style="fill: #262626" transform="translate(106.624544 322.182437)scale(0.1 -0.1)">
       <defs>
        <path id="DejaVuSans-32" d="M 1228 531 
L 3431 531 
L 3431 0 
L 469 0 
L 469 531 
Q 828 903 1448 1529 
Q 2069 2156 2228 2338 
Q 2531 2678 2651 2914 
Q 2772 3150 2772 3378 
Q 2772 3750 2511 3984 
Q 2250 4219 1831 4219 
Q 1534 4219 1204 4116 
Q 875 4013 500 3803 
L 500 4441 
Q 881 4594 1212 4672 
Q 1544 4750 1819 4750 
Q 2544 4750 2975 4387 
Q 3406 4025 3406 3419 
Q 3406 3131 3298 2873 
Q 3191 2616 2906 2266 
Q 2828 2175 2409 1742 
Q 1991 1309 1228 531 
z
" transform="scale(0.015625)"/>
        <path id="DejaVuSans-35" d="M 691 4666 
L 3169 4666 
L 3169 4134 
L 1269 4134 
L 1269 2991 
Q 1406 3038 1543 3061 
Q 1681 3084 1819 3084 
Q 2600 3084 3056 2656 
Q 3513 2228 3513 1497 
Q 3513 744 3044 326 
Q 2575 -91 1722 -91 
Q 1428 -91 1123 -41 
Q 819 9 494 109 
L 494 744 
Q 775 591 1075 516 
Q 1375 441 1709 441 
Q 2250 441 2565 725 
Q 2881 1009 2881 1497 
Q 2881 1984 2565 2268 
Q 2250 2553 1709 2553 
Q 1456 2553 1204 2497 
Q 953 2441 691 2322 
L 691 4666 
z
" transform="scale(0.015625)"/>
       </defs>
       <use xlink:href="#DejaVuSans-32"/>
       <use xlink:href="#DejaVuSans-35" x="63.623047"/>
      </g>
     </g>
    </g>
    <g id="xtick_3">
     <g id="line2d_3">
      <path d="M 153.772791 307.584 
L 153.772791 41.472 
" clip-path="url(#p18ce90095e)" style="fill: none; stroke: #cccccc; stroke-width: 0.8; stroke-linecap: round"/>
     </g>
     <g id="text_3">
      <!-- 50 -->
      <g style="fill: #262626" transform="translate(147.410291 322.182437)scale(0.1 -0.1)">
       <use xlink:href="#DejaVuSans-35"/>
       <use xlink:href="#DejaVuSans-30" x="63.623047"/>
      </g>
     </g>
    </g>
    <g id="xtick_4">
     <g id="line2d_4">
      <path d="M 194.558538 307.584 
L 194.558538 41.472 
" clip-path="url(#p18ce90095e)" style="fill: none; stroke: #cccccc; stroke-width: 0.8; stroke-linecap: round"/>
     </g>
     <g id="text_4">
      <!-- 75 -->
      <g style="fill: #262626" transform="translate(188.196038 322.182437)scale(0.1 -0.1)">
       <defs>
        <path id="DejaVuSans-37" d="M 525 4666 
L 3525 4666 
L 3525 4397 
L 1831 0 
L 1172 0 
L 2766 4134 
L 525 4134 
L 525 4666 
z
" transform="scale(0.015625)"/>
       </defs>
       <use xlink:href="#DejaVuSans-37"/>
       <use xlink:href="#DejaVuSans-35" x="63.623047"/>
      </g>
     </g>
    </g>
    <g id="xtick_5">
     <g id="line2d_5">
      <path d="M 235.344285 307.584 
L 235.344285 41.472 
" clip-path="url(#p18ce90095e)" style="fill: none; stroke: #cccccc; stroke-width: 0.8; stroke-linecap: round"/>
     </g>
     <g id="text_5">
      <!-- 100 -->
      <g style="fill: #262626" transform="translate(225.800535 322.182437)scale(0.1 -0.1)">
       <defs>
        <path id="DejaVuSans-31" d="M 794 531 
L 1825 531 
L 1825 4091 
L 703 3866 
L 703 4441 
L 1819 4666 
L 2450 4666 
L 2450 531 
L 3481 531 
L 3481 0 
L 794 0 
L 794 531 
z
" transform="scale(0.015625)"/>
       </defs>
       <use xlink:href="#DejaVuSans-31"/>
       <use xlink:href="#DejaVuSans-30" x="63.623047"/>
       <use xlink:href="#DejaVuSans-30" x="127.246094"/>
      </g>
     </g>
    </g>
    <g id="xtick_6">
     <g id="line2d_6">
      <path d="M 276.130032 307.584 
L 276.130032 41.472 
" clip-path="url(#p18ce90095e)" style="fill: none; stroke: #cccccc; stroke-width: 0.8; stroke-linecap: round"/>
     </g>
     <g id="text_6">
      <!-- 125 -->
      <g style="fill: #262626" transform="translate(266.586282 322.182437)scale(0.1 -0.1)">
       <use xlink:href="#DejaVuSans-31"/>
       <use xlink:href="#DejaVuSans-32" x="63.623047"/>
       <use xlink:href="#DejaVuSans-35" x="127.246094"/>
      </g>
     </g>
    </g>
    <g id="xtick_7">
     <g id="line2d_7">
      <path d="M 316.915779 307.584 
L 316.915779 41.472 
" clip-path="url(#p18ce90095e)" style="fill: none; stroke: #cccccc; stroke-width: 0.8; stroke-linecap: round"/>
     </g>
     <g id="text_7">
      <!-- 150 -->
      <g style="fill: #262626" transform="translate(307.372029 322.182437)scale(0.1 -0.1)">
       <use xlink:href="#DejaVuSans-31"/>
       <use xlink:href="#DejaVuSans-35" x="63.623047"/>
       <use xlink:href="#DejaVuSans-30" x="127.246094"/>
      </g>
     </g>
    </g>
    <g id="xtick_8">
     <g id="line2d_8">
      <path d="M 357.701526 307.584 
L 357.701526 41.472 
" clip-path="url(#p18ce90095e)" style="fill: none; stroke: #cccccc; stroke-width: 0.8; stroke-linecap: round"/>
     </g>
     <g id="text_8">
      <!-- 175 -->
      <g style="fill: #262626" transform="translate(348.157776 322.182437)scale(0.1 -0.1)">
       <use xlink:href="#DejaVuSans-31"/>
       <use xlink:href="#DejaVuSans-37" x="63.623047"/>
       <use xlink:href="#DejaVuSans-35" x="127.246094"/>
      </g>
     </g>
    </g>
    <g id="xtick_9">
     <g id="line2d_9">
      <path d="M 398.487273 307.584 
L 398.487273 41.472 
" clip-path="url(#p18ce90095e)" style="fill: none; stroke: #cccccc; stroke-width: 0.8; stroke-linecap: round"/>
     </g>
     <g id="text_9">
      <!-- 200 -->
      <g style="fill: #262626" transform="translate(388.943523 322.182437)scale(0.1 -0.1)">
       <use xlink:href="#DejaVuSans-32"/>
       <use xlink:href="#DejaVuSans-30" x="63.623047"/>
       <use xlink:href="#DejaVuSans-30" x="127.246094"/>
      </g>
     </g>
    </g>
    <g id="text_10">
     <!-- Iteration -->
     <g style="fill: #262626" transform="translate(214.951406 335.860562)scale(0.1 -0.1)">
      <defs>
       <path id="DejaVuSans-49" d="M 628 4666 
L 1259 4666 
L 1259 0 
L 628 0 
L 628 4666 
z
" transform="scale(0.015625)"/>
       <path id="DejaVuSans-74" d="M 1172 4494 
L 1172 3500 
L 2356 3500 
L 2356 3053 
L 1172 3053 
L 1172 1153 
Q 1172 725 1289 603 
Q 1406 481 1766 481 
L 2356 481 
L 2356 0 
L 1766 0 
Q 1100 0 847 248 
Q 594 497 594 1153 
L 594 3053 
L 172 3053 
L 172 3500 
L 594 3500 
L 594 4494 
L 1172 4494 
z
" transform="scale(0.015625)"/>
       <path id="DejaVuSans-65" d="M 3597 1894 
L 3597 1613 
L 953 1613 
Q 991 1019 1311 708 
Q 1631 397 2203 397 
Q 2534 397 2845 478 
Q 3156 559 3463 722 
L 3463 178 
Q 3153 47 2828 -22 
Q 2503 -91 2169 -91 
Q 1331 -91 842 396 
Q 353 884 353 1716 
Q 353 2575 817 3079 
Q 1281 3584 2069 3584 
Q 2775 3584 3186 3129 
Q 3597 2675 3597 1894 
z
M 3022 2063 
Q 3016 2534 2758 2815 
Q 2500 3097 2075 3097 
Q 1594 3097 1305 2825 
Q 1016 2553 972 2059 
L 3022 2063 
z
" transform="scale(0.015625)"/>
       <path id="DejaVuSans-72" d="M 2631 2963 
Q 2534 3019 2420 3045 
Q 2306 3072 2169 3072 
Q 1681 3072 1420 2755 
Q 1159 2438 1159 1844 
L 1159 0 
L 581 0 
L 581 3500 
L 1159 3500 
L 1159 2956 
Q 1341 3275 1631 3429 
Q 1922 3584 2338 3584 
Q 2397 3584 2469 3576 
Q 2541 3569 2628 3553 
L 2631 2963 
z
" transform="scale(0.015625)"/>
       <path id="DejaVuSans-61" d="M 2194 1759 
Q 1497 1759 1228 1600 
Q 959 1441 959 1056 
Q 959 750 1161 570 
Q 1363 391 1709 391 
Q 2188 391 2477 730 
Q 2766 1069 2766 1631 
L 2766 1759 
L 2194 1759 
z
M 3341 1997 
L 3341 0 
L 2766 0 
L 2766 531 
Q 2569 213 2275 61 
Q 1981 -91 1556 -91 
Q 1019 -91 701 211 
Q 384 513 384 1019 
Q 384 1609 779 1909 
Q 1175 2209 1959 2209 
L 2766 2209 
L 2766 2266 
Q 2766 2663 2505 2880 
Q 2244 3097 1772 3097 
Q 1472 3097 1187 3025 
Q 903 2953 641 2809 
L 641 3341 
Q 956 3463 1253 3523 
Q 1550 3584 1831 3584 
Q 2591 3584 2966 3190 
Q 3341 2797 3341 1997 
z
" transform="scale(0.015625)"/>
       <path id="DejaVuSans-69" d="M 603 3500 
L 1178 3500 
L 1178 0 
L 603 0 
L 603 3500 
z
M 603 4863 
L 1178 4863 
L 1178 4134 
L 603 4134 
L 603 4863 
z
" transform="scale(0.015625)"/>
       <path id="DejaVuSans-6f" d="M 1959 3097 
Q 1497 3097 1228 2736 
Q 959 2375 959 1747 
Q 959 1119 1226 758 
Q 1494 397 1959 397 
Q 2419 397 2687 759 
Q 2956 1122 2956 1747 
Q 2956 2369 2687 2733 
Q 2419 3097 1959 3097 
z
M 1959 3584 
Q 2709 3584 3137 3096 
Q 3566 2609 3566 1747 
Q 3566 888 3137 398 
Q 2709 -91 1959 -91 
Q 1206 -91 779 398 
Q 353 888 353 1747 
Q 353 2609 779 3096 
Q 1206 3584 1959 3584 
z
" transform="scale(0.015625)"/>
       <path id="DejaVuSans-6e" d="M 3513 2113 
L 3513 0 
L 2938 0 
L 2938 2094 
Q 2938 2591 2744 2837 
Q 2550 3084 2163 3084 
Q 1697 3084 1428 2787 
Q 1159 2491 1159 1978 
L 1159 0 
L 581 0 
L 581 3500 
L 1159 3500 
L 1159 2956 
Q 1366 3272 1645 3428 
Q 1925 3584 2291 3584 
Q 2894 3584 3203 3211 
Q 3513 2838 3513 2113 
z
" transform="scale(0.015625)"/>
      </defs>
      <use xlink:href="#DejaVuSans-49"/>
      <use xlink:href="#DejaVuSans-74" x="29.492188"/>
      <use xlink:href="#DejaVuSans-65" x="68.701172"/>
      <use xlink:href="#DejaVuSans-72" x="130.224609"/>
      <use xlink:href="#DejaVuSans-61" x="171.337891"/>
      <use xlink:href="#DejaVuSans-74" x="232.617188"/>
      <use xlink:href="#DejaVuSans-69" x="271.826172"/>
      <use xlink:href="#DejaVuSans-6f" x="299.609375"/>
      <use xlink:href="#DejaVuSans-6e" x="360.791016"/>
     </g>
    </g>
   </g>
   <g id="matplotlib.axis_2">
    <g id="ytick_1">
     <g id="line2d_10">
      <path d="M 57.6 283.460149 
L 414.72 283.460149 
" clip-path="url(#p18ce90095e)" style="fill: none; stroke: #cccccc; stroke-width: 0.8; stroke-linecap: round"/>
     </g>
     <g id="text_11">
      <!-- 0.45 -->
      <g style="fill: #262626" transform="translate(28.334375 287.259368)scale(0.1 -0.1)">
       <defs>
        <path id="DejaVuSans-2e" d="M 684 794 
L 1344 794 
L 1344 0 
L 684 0 
L 684 794 
z
" transform="scale(0.015625)"/>
        <path id="DejaVuSans-34" d="M 2419 4116 
L 825 1625 
L 2419 1625 
L 2419 4116 
z
M 2253 4666 
L 3047 4666 
L 3047 1625 
L 3713 1625 
L 3713 1100 
L 3047 1100 
L 3047 0 
L 2419 0 
L 2419 1100 
L 313 1100 
L 313 1709 
L 2253 4666 
z
" transform="scale(0.015625)"/>
       </defs>
       <use xlink:href="#DejaVuSans-30"/>
       <use xlink:href="#DejaVuSans-2e" x="63.623047"/>
       <use xlink:href="#DejaVuSans-34" x="95.410156"/>
       <use xlink:href="#DejaVuSans-35" x="159.033203"/>
      </g>
     </g>
    </g>
    <g id="ytick_2">
     <g id="line2d_11">
      <path d="M 57.6 238.34638 
L 414.72 238.34638 
" clip-path="url(#p18ce90095e)" style="fill: none; stroke: #cccccc; stroke-width: 0.8; stroke-linecap: round"/>
     </g>
     <g id="text_12">
      <!-- 0.50 -->
      <g style="fill: #262626" transform="translate(28.334375 242.145599)scale(0.1 -0.1)">
       <use xlink:href="#DejaVuSans-30"/>
       <use xlink:href="#DejaVuSans-2e" x="63.623047"/>
       <use xlink:href="#DejaVuSans-35" x="95.410156"/>
       <use xlink:href="#DejaVuSans-30" x="159.033203"/>
      </g>
     </g>
    </g>
    <g id="ytick_3">
     <g id="line2d_12">
      <path d="M 57.6 193.232611 
L 414.72 193.232611 
" clip-path="url(#p18ce90095e)" style="fill: none; stroke: #cccccc; stroke-width: 0.8; stroke-linecap: round"/>
     </g>
     <g id="text_13">
      <!-- 0.55 -->
      <g style="fill: #262626" transform="translate(28.334375 197.031829)scale(0.1 -0.1)">
       <use xlink:href="#DejaVuSans-30"/>
       <use xlink:href="#DejaVuSans-2e" x="63.623047"/>
       <use xlink:href="#DejaVuSans-35" x="95.410156"/>
       <use xlink:href="#DejaVuSans-35" x="159.033203"/>
      </g>
     </g>
    </g>
    <g id="ytick_4">
     <g id="line2d_13">
      <path d="M 57.6 148.118841 
L 414.72 148.118841 
" clip-path="url(#p18ce90095e)" style="fill: none; stroke: #cccccc; stroke-width: 0.8; stroke-linecap: round"/>
     </g>
     <g id="text_14">
      <!-- 0.60 -->
      <g style="fill: #262626" transform="translate(28.334375 151.91806)scale(0.1 -0.1)">
       <defs>
        <path id="DejaVuSans-36" d="M 2113 2584 
Q 1688 2584 1439 2293 
Q 1191 2003 1191 1497 
Q 1191 994 1439 701 
Q 1688 409 2113 409 
Q 2538 409 2786 701 
Q 3034 994 3034 1497 
Q 3034 2003 2786 2293 
Q 2538 2584 2113 2584 
z
M 3366 4563 
L 3366 3988 
Q 3128 4100 2886 4159 
Q 2644 4219 2406 4219 
Q 1781 4219 1451 3797 
Q 1122 3375 1075 2522 
Q 1259 2794 1537 2939 
Q 1816 3084 2150 3084 
Q 2853 3084 3261 2657 
Q 3669 2231 3669 1497 
Q 3669 778 3244 343 
Q 2819 -91 2113 -91 
Q 1303 -91 875 529 
Q 447 1150 447 2328 
Q 447 3434 972 4092 
Q 1497 4750 2381 4750 
Q 2619 4750 2861 4703 
Q 3103 4656 3366 4563 
z
" transform="scale(0.015625)"/>
       </defs>
       <use xlink:href="#DejaVuSans-30"/>
       <use xlink:href="#DejaVuSans-2e" x="63.623047"/>
       <use xlink:href="#DejaVuSans-36" x="95.410156"/>
       <use xlink:href="#DejaVuSans-30" x="159.033203"/>
      </g>
     </g>
    </g>
    <g id="ytick_5">
     <g id="line2d_14">
      <path d="M 57.6 103.005072 
L 414.72 103.005072 
" clip-path="url(#p18ce90095e)" style="fill: none; stroke: #cccccc; stroke-width: 0.8; stroke-linecap: round"/>
     </g>
     <g id="text_15">
      <!-- 0.65 -->
      <g style="fill: #262626" transform="translate(28.334375 106.804291)scale(0.1 -0.1)">
       <use xlink:href="#DejaVuSans-30"/>
       <use xlink:href="#DejaVuSans-2e" x="63.623047"/>
       <use xlink:href="#DejaVuSans-36" x="95.410156"/>
       <use xlink:href="#DejaVuSans-35" x="159.033203"/>
      </g>
     </g>
    </g>
    <g id="ytick_6">
     <g id="line2d_15">
      <path d="M 57.6 57.891303 
L 414.72 57.891303 
" clip-path="url(#p18ce90095e)" style="fill: none; stroke: #cccccc; stroke-width: 0.8; stroke-linecap: round"/>
     </g>
     <g id="text_16">
      <!-- 0.70 -->
      <g style="fill: #262626" transform="translate(28.334375 61.690521)scale(0.1 -0.1)">
       <use xlink:href="#DejaVuSans-30"/>
       <use xlink:href="#DejaVuSans-2e" x="63.623047"/>
       <use xlink:href="#DejaVuSans-37" x="95.410156"/>
       <use xlink:href="#DejaVuSans-30" x="159.033203"/>
      </g>
     </g>
    </g>
    <g id="text_17">
     <!-- Auroc -->
     <g style="fill: #262626" transform="translate(22.254688 188.868625)rotate(-90)scale(0.1 -0.1)">
      <defs>
       <path id="DejaVuSans-41" d="M 2188 4044 
L 1331 1722 
L 3047 1722 
L 2188 4044 
z
M 1831 4666 
L 2547 4666 
L 4325 0 
L 3669 0 
L 3244 1197 
L 1141 1197 
L 716 0 
L 50 0 
L 1831 4666 
z
" transform="scale(0.015625)"/>
       <path id="DejaVuSans-75" d="M 544 1381 
L 544 3500 
L 1119 3500 
L 1119 1403 
Q 1119 906 1312 657 
Q 1506 409 1894 409 
Q 2359 409 2629 706 
Q 2900 1003 2900 1516 
L 2900 3500 
L 3475 3500 
L 3475 0 
L 2900 0 
L 2900 538 
Q 2691 219 2414 64 
Q 2138 -91 1772 -91 
Q 1169 -91 856 284 
Q 544 659 544 1381 
z
M 1991 3584 
L 1991 3584 
z
" transform="scale(0.015625)"/>
       <path id="DejaVuSans-63" d="M 3122 3366 
L 3122 2828 
Q 2878 2963 2633 3030 
Q 2388 3097 2138 3097 
Q 1578 3097 1268 2742 
Q 959 2388 959 1747 
Q 959 1106 1268 751 
Q 1578 397 2138 397 
Q 2388 397 2633 464 
Q 2878 531 3122 666 
L 3122 134 
Q 2881 22 2623 -34 
Q 2366 -91 2075 -91 
Q 1284 -91 818 406 
Q 353 903 353 1747 
Q 353 2603 823 3093 
Q 1294 3584 2113 3584 
Q 2378 3584 2631 3529 
Q 2884 3475 3122 3366 
z
" transform="scale(0.015625)"/>
      </defs>
      <use xlink:href="#DejaVuSans-41"/>
      <use xlink:href="#DejaVuSans-75" x="68.408203"/>
      <use xlink:href="#DejaVuSans-72" x="131.787109"/>
      <use xlink:href="#DejaVuSans-6f" x="170.650391"/>
      <use xlink:href="#DejaVuSans-63" x="231.832031"/>
     </g>
    </g>
   </g>
   <g id="PolyCollection_1">
    <defs>
     <path id="m18efee93c6" d="M 73.832727 -196.649022 
L 73.832727 -91.229924 
L 75.464157 -142.31699 
L 77.095587 -116.459201 
L 78.727017 -110.592122 
L 80.358447 -119.276525 
L 81.989877 -138.63035 
L 83.621307 -102.399806 
L 85.252736 -153.951288 
L 86.884166 -108.30799 
L 88.515596 -97.135469 
L 90.147026 -132.545188 
L 91.778456 -142.7016 
L 93.409886 -125.046666 
L 95.041316 -141.265707 
L 96.672746 -118.072966 
L 98.304175 -154.501363 
L 99.935605 -141.317866 
L 101.567035 -131.266616 
L 103.198465 -129.417385 
L 104.829895 -140.360279 
L 106.461325 -138.610244 
L 108.092755 -120.874251 
L 109.724185 -104.876767 
L 111.355614 -124.176016 
L 112.987044 -109.600372 
L 114.618474 -82.551175 
L 116.249904 -80.439634 
L 117.881334 -113.842575 
L 119.512764 -120.563523 
L 121.144194 -109.905994 
L 122.775624 -141.180575 
L 124.407053 -93.373018 
L 126.038483 -93.707116 
L 127.669913 -160.330025 
L 129.301343 -164.074712 
L 130.932773 -117.535193 
L 132.564203 -129.301454 
L 134.195633 -133.144287 
L 135.827063 -141.078805 
L 137.458492 -130.802703 
L 139.089922 -128.365882 
L 140.721352 -115.151333 
L 142.352782 -168.028236 
L 143.984212 -152.368774 
L 145.615642 -100.168665 
L 147.247072 -119.259119 
L 148.878502 -106.864844 
L 150.509931 -109.800238 
L 152.141361 -118.879773 
L 153.772791 -115.269104 
L 155.404221 -148.589228 
L 157.035651 -123.09963 
L 158.667081 -124.883289 
L 160.298511 -84.134336 
L 161.929941 -141.348755 
L 163.56137 -153.506011 
L 165.1928 -153.459472 
L 166.82423 -138.508913 
L 168.45566 -150.909176 
L 170.08709 -109.949586 
L 171.71852 -136.31583 
L 173.34995 -107.753643 
L 174.98138 -141.410289 
L 176.61281 -138.719511 
L 178.244239 -127.030508 
L 179.875669 -110.203339 
L 181.507099 -133.199336 
L 183.138529 -155.695719 
L 184.769959 -116.502133 
L 186.401389 -109.019805 
L 188.032819 -122.937739 
L 189.664249 -101.992469 
L 191.295678 -130.01394 
L 192.927108 -135.493244 
L 194.558538 -138.489202 
L 196.189968 -115.606897 
L 197.821398 -165.054366 
L 199.452828 -100.320896 
L 201.084258 -91.192167 
L 202.715688 -110.395377 
L 204.347117 -154.605365 
L 205.978547 -153.152593 
L 207.609977 -145.299817 
L 209.241407 -127.512133 
L 210.872837 -143.131886 
L 212.504267 -129.064927 
L 214.135697 -110.114921 
L 215.767127 -158.022702 
L 217.398556 -136.370292 
L 219.029986 -155.346526 
L 220.661416 -152.542091 
L 222.292846 -124.798465 
L 223.924276 -83.430168 
L 225.555706 -106.192432 
L 227.187136 -126.912526 
L 228.818566 -145.107917 
L 230.449995 -108.42067 
L 232.081425 -129.33593 
L 233.712855 -124.219323 
L 235.344285 -145.687099 
L 236.975715 -133.910477 
L 238.607145 -134.776911 
L 240.238575 -103.400528 
L 241.870005 -110.863958 
L 243.501434 -153.64936 
L 245.132864 -113.154652 
L 246.764294 -136.417432 
L 248.395724 -135.465644 
L 250.027154 -108.473337 
L 251.658584 -134.94989 
L 253.290014 -134.026716 
L 254.921444 -132.533293 
L 256.552873 -104.82699 
L 258.184303 -103.547579 
L 259.815733 -115.656437 
L 261.447163 -89.822697 
L 263.078593 -131.90312 
L 264.710023 -122.561209 
L 266.341453 -130.576528 
L 267.972883 -122.590743 
L 269.604312 -113.412541 
L 271.235742 -135.654201 
L 272.867172 -153.221333 
L 274.498602 -121.647005 
L 276.130032 -130.419405 
L 277.761462 -97.864126 
L 279.392892 -109.141329 
L 281.024322 -136.418594 
L 282.655751 -99.540075 
L 284.287181 -111.808267 
L 285.918611 -118.149442 
L 287.550041 -109.168847 
L 289.181471 -98.59601 
L 290.812901 -118.99985 
L 292.444331 -127.054242 
L 294.075761 -163.275971 
L 295.70719 -132.477152 
L 297.33862 -111.311841 
L 298.97005 -141.990677 
L 300.60148 -158.377523 
L 302.23291 -129.142157 
L 303.86434 -139.897126 
L 305.49577 -133.355568 
L 307.1272 -137.313061 
L 308.75863 -96.903894 
L 310.390059 -151.045326 
L 312.021489 -98.740463 
L 313.652919 -128.006149 
L 315.284349 -102.902157 
L 316.915779 -151.879994 
L 318.547209 -133.869707 
L 320.178639 -140.098275 
L 321.810069 -68.533775 
L 323.441498 -130.193838 
L 325.072928 -103.454786 
L 326.704358 -138.443872 
L 328.335788 -98.400488 
L 329.967218 -130.085274 
L 331.598648 -131.651266 
L 333.230078 -155.583282 
L 334.861508 -141.963316 
L 336.492937 -160.251301 
L 338.124367 -132.49429 
L 339.755797 -75.033834 
L 341.387227 -141.365202 
L 343.018657 -146.413095 
L 344.650087 -144.426145 
L 346.281517 -122.347345 
L 347.912947 -76.191777 
L 349.544376 -142.513666 
L 351.175806 -124.648382 
L 352.807236 -153.354818 
L 354.438666 -130.397223 
L 356.070096 -128.987668 
L 357.701526 -159.221453 
L 359.332956 -127.621668 
L 360.964386 -77.364031 
L 362.595815 -104.948037 
L 364.227245 -129.3882 
L 365.858675 -50.112 
L 367.490105 -140.861338 
L 369.121535 -151.99165 
L 370.752965 -137.521019 
L 372.384395 -112.752624 
L 374.015825 -100.621515 
L 375.647254 -130.631331 
L 377.278684 -107.700627 
L 378.910114 -106.715486 
L 380.541544 -131.730626 
L 382.172974 -100.546336 
L 383.804404 -122.331973 
L 385.435834 -123.769936 
L 387.067264 -90.031521 
L 388.698693 -140.508886 
L 390.330123 -92.602929 
L 391.961553 -114.194035 
L 393.592983 -95.572801 
L 395.224413 -144.973504 
L 396.855843 -155.583128 
L 398.487273 -139.049189 
L 398.487273 -164.52149 
L 398.487273 -164.52149 
L 396.855843 -232.874123 
L 395.224413 -228.110613 
L 393.592983 -238.293186 
L 391.961553 -220.191643 
L 390.330123 -242.465652 
L 388.698693 -224.129648 
L 387.067264 -249.972153 
L 385.435834 -233.50775 
L 383.804404 -207.790177 
L 382.172974 -228.688568 
L 380.541544 -187.241753 
L 378.910114 -234.444904 
L 377.278684 -197.771722 
L 375.647254 -240.758185 
L 374.015825 -239.503447 
L 372.384395 -220.769802 
L 370.752965 -245.85199 
L 369.121535 -188.32078 
L 367.490105 -283.231133 
L 365.858675 -222.134009 
L 364.227245 -215.263431 
L 362.595815 -201.617923 
L 360.964386 -206.266152 
L 359.332956 -240.414241 
L 357.701526 -199.528034 
L 356.070096 -199.099397 
L 354.438666 -216.192639 
L 352.807236 -222.049059 
L 351.175806 -280.443044 
L 349.544376 -242.946284 
L 347.912947 -258.265092 
L 346.281517 -260.815784 
L 344.650087 -255.040694 
L 343.018657 -244.841772 
L 341.387227 -214.625516 
L 339.755797 -235.421771 
L 338.124367 -185.314429 
L 336.492937 -205.504662 
L 334.861508 -254.401984 
L 333.230078 -238.324095 
L 331.598648 -200.348208 
L 329.967218 -212.280874 
L 328.335788 -250.548421 
L 326.704358 -237.795572 
L 325.072928 -195.064259 
L 323.441498 -216.311386 
L 321.810069 -220.006541 
L 320.178639 -226.381987 
L 318.547209 -253.757866 
L 316.915779 -283.570811 
L 315.284349 -220.943352 
L 313.652919 -225.131407 
L 312.021489 -226.801757 
L 310.390059 -249.924954 
L 308.75863 -265.946173 
L 307.1272 -219.164654 
L 305.49577 -253.85989 
L 303.86434 -231.691987 
L 302.23291 -176.046572 
L 300.60148 -253.046969 
L 298.97005 -211.041411 
L 297.33862 -221.30743 
L 295.70719 -210.581127 
L 294.075761 -213.593906 
L 292.444331 -181.830247 
L 290.812901 -221.073169 
L 289.181471 -205.829748 
L 287.550041 -230.130567 
L 285.918611 -217.921608 
L 284.287181 -213.785896 
L 282.655751 -240.253718 
L 281.024322 -224.637469 
L 279.392892 -242.918084 
L 277.761462 -214.514418 
L 276.130032 -212.658122 
L 274.498602 -239.057851 
L 272.867172 -200.51976 
L 271.235742 -210.507726 
L 269.604312 -215.594905 
L 267.972883 -256.546687 
L 266.341453 -220.126308 
L 264.710023 -191.137086 
L 263.078593 -208.209449 
L 261.447163 -179.609963 
L 259.815733 -244.312783 
L 258.184303 -224.672199 
L 256.552873 -233.94535 
L 254.921444 -229.622798 
L 253.290014 -172.850373 
L 251.658584 -236.554058 
L 250.027154 -194.029483 
L 248.395724 -187.522414 
L 246.764294 -186.150864 
L 245.132864 -256.217532 
L 243.501434 -194.228261 
L 241.870005 -213.793652 
L 240.238575 -234.012598 
L 238.607145 -217.785055 
L 236.975715 -244.061536 
L 235.344285 -234.363681 
L 233.712855 -210.846885 
L 232.081425 -250.345449 
L 230.449995 -187.696087 
L 228.818566 -241.286212 
L 227.187136 -240.099293 
L 225.555706 -237.57749 
L 223.924276 -247.143384 
L 222.292846 -242.71995 
L 220.661416 -228.219277 
L 219.029986 -238.595656 
L 217.398556 -260.619377 
L 215.767127 -224.295631 
L 214.135697 -212.274344 
L 212.504267 -292.032 
L 210.872837 -240.367684 
L 209.241407 -230.395195 
L 207.609977 -194.447835 
L 205.978547 -220.213913 
L 204.347117 -223.552007 
L 202.715688 -248.864045 
L 201.084258 -221.547866 
L 199.452828 -214.795851 
L 197.821398 -221.101934 
L 196.189968 -225.640767 
L 194.558538 -261.02958 
L 192.927108 -193.344311 
L 191.295678 -185.474843 
L 189.664249 -253.649415 
L 188.032819 -209.562706 
L 186.401389 -217.159439 
L 184.769959 -210.143541 
L 183.138529 -250.878318 
L 181.507099 -224.21915 
L 179.875669 -204.449086 
L 178.244239 -238.863618 
L 176.61281 -201.831803 
L 174.98138 -224.446924 
L 173.34995 -145.054159 
L 171.71852 -233.440256 
L 170.08709 -220.278032 
L 168.45566 -210.693474 
L 166.82423 -231.353696 
L 165.1928 -236.856997 
L 163.56137 -231.601149 
L 161.929941 -219.405144 
L 160.298511 -228.940294 
L 158.667081 -252.947924 
L 157.035651 -244.509399 
L 155.404221 -227.108639 
L 153.772791 -222.503667 
L 152.141361 -226.139677 
L 150.509931 -210.865687 
L 148.878502 -237.741964 
L 147.247072 -229.88306 
L 145.615642 -220.754073 
L 143.984212 -221.898426 
L 142.352782 -235.861387 
L 140.721352 -228.489128 
L 139.089922 -216.364323 
L 137.458492 -221.443651 
L 135.827063 -213.117909 
L 134.195633 -214.893382 
L 132.564203 -200.32658 
L 130.932773 -235.5375 
L 129.301343 -248.510715 
L 127.669913 -259.074147 
L 126.038483 -234.305155 
L 124.407053 -194.51621 
L 122.775624 -217.905617 
L 121.144194 -223.106496 
L 119.512764 -191.700324 
L 117.881334 -219.703581 
L 116.249904 -275.785221 
L 114.618474 -212.529801 
L 112.987044 -231.37044 
L 111.355614 -253.934687 
L 109.724185 -234.506494 
L 108.092755 -201.844864 
L 106.461325 -253.47729 
L 104.829895 -246.61313 
L 103.198465 -232.122511 
L 101.567035 -210.612008 
L 99.935605 -258.427407 
L 98.304175 -207.850106 
L 96.672746 -174.670848 
L 95.041316 -206.106989 
L 93.409886 -249.446235 
L 91.778456 -251.580188 
L 90.147026 -223.301567 
L 88.515596 -188.653635 
L 86.884166 -209.367137 
L 85.252736 -225.275263 
L 83.621307 -239.356212 
L 81.989877 -196.386288 
L 80.358447 -237.733274 
L 78.727017 -239.167833 
L 77.095587 -194.787148 
L 75.464157 -186.347334 
L 73.832727 -196.649022 
z
" style="stroke: #ffffff; stroke-opacity: 0.2"/>
    </defs>
    <g clip-path="url(#p18ce90095e)">
     <use xlink:href="#m18efee93c6" x="0" y="345.6" style="fill: #1f77b4; fill-opacity: 0.2; stroke: #ffffff; stroke-opacity: 0.2"/>
    </g>
   </g>
   <g id="line2d_16">
    <path d="M 73.832727 201.660527 
L 75.464157 181.267838 
L 77.095587 189.976826 
L 78.727017 170.720022 
L 80.358447 167.095101 
L 81.989877 178.091681 
L 83.621307 174.721991 
L 85.252736 155.986725 
L 86.884166 186.762437 
L 88.515596 202.705448 
L 90.147026 167.676623 
L 91.778456 148.459106 
L 93.409886 158.35355 
L 95.041316 171.913652 
L 96.672746 199.228093 
L 98.304175 164.424265 
L 99.935605 145.727363 
L 101.567035 174.660688 
L 103.198465 164.830052 
L 104.829895 152.113295 
L 106.461325 149.556233 
L 108.092755 184.240442 
L 109.724185 175.90837 
L 111.355614 156.544649 
L 112.987044 175.114594 
L 114.618474 198.059512 
L 116.249904 167.487572 
L 119.512764 189.468076 
L 121.144194 179.093755 
L 122.775624 166.056904 
L 124.407053 201.655386 
L 126.038483 181.593865 
L 127.669913 135.897914 
L 129.301343 139.307286 
L 130.932773 169.063654 
L 132.564203 180.785983 
L 134.195633 171.581165 
L 135.827063 168.501643 
L 137.458492 169.476823 
L 139.089922 173.234898 
L 140.721352 173.77977 
L 142.352782 143.655189 
L 143.984212 158.4664 
L 145.615642 185.138631 
L 147.247072 171.028911 
L 148.878502 173.296596 
L 150.509931 185.267038 
L 152.141361 173.090275 
L 153.772791 176.713615 
L 155.404221 157.751066 
L 157.035651 161.795485 
L 158.667081 156.684393 
L 160.298511 189.062685 
L 161.929941 165.223051 
L 163.56137 153.04642 
L 165.1928 150.441765 
L 166.82423 160.668696 
L 168.45566 164.798675 
L 170.08709 180.486191 
L 171.71852 160.721957 
L 173.34995 219.196099 
L 174.98138 162.671394 
L 176.61281 175.324343 
L 178.244239 162.652937 
L 179.875669 188.273787 
L 181.507099 166.890757 
L 183.138529 142.312981 
L 184.769959 182.277163 
L 186.401389 182.510378 
L 188.032819 179.349778 
L 189.664249 167.779058 
L 191.295678 187.855608 
L 192.927108 181.181223 
L 194.558538 145.840609 
L 196.189968 174.976168 
L 197.821398 152.52185 
L 199.452828 188.041627 
L 201.084258 189.229983 
L 202.715688 165.970289 
L 204.347117 156.521314 
L 205.978547 158.916747 
L 207.609977 175.726174 
L 209.241407 166.646336 
L 210.872837 153.850215 
L 212.504267 135.051537 
L 214.135697 184.405367 
L 215.767127 154.440833 
L 217.398556 147.105166 
L 219.029986 148.628909 
L 222.292846 161.840792 
L 223.924276 180.313224 
L 225.555706 173.715039 
L 227.187136 162.09409 
L 228.818566 152.402936 
L 230.449995 197.541622 
L 232.081425 155.75931 
L 233.712855 178.066896 
L 235.344285 155.57461 
L 236.975715 156.613994 
L 238.607145 169.319017 
L 240.238575 176.893437 
L 241.870005 183.271195 
L 243.501434 171.661189 
L 245.132864 160.913908 
L 246.764294 184.315852 
L 248.395724 184.105971 
L 250.027154 194.34859 
L 251.658584 159.848026 
L 253.290014 192.161455 
L 254.921444 164.521955 
L 256.552873 176.21383 
L 258.184303 181.490111 
L 259.815733 165.61539 
L 261.447163 210.88367 
L 263.078593 175.543715 
L 264.710023 188.750853 
L 266.341453 170.248582 
L 267.972883 156.031285 
L 269.604312 181.096277 
L 271.235742 172.519036 
L 272.867172 168.729453 
L 274.498602 165.247572 
L 276.130032 174.061236 
L 277.761462 189.410728 
L 279.392892 169.570294 
L 281.024322 165.071968 
L 282.655751 175.703103 
L 284.287181 182.802919 
L 285.918611 177.564475 
L 287.550041 175.950293 
L 289.181471 193.387121 
L 290.812901 175.563491 
L 292.444331 191.157755 
L 294.075761 157.165062 
L 295.70719 174.07086 
L 297.33862 179.290364 
L 298.97005 169.083956 
L 300.60148 139.887754 
L 302.23291 193.005636 
L 303.86434 159.805443 
L 305.49577 151.992271 
L 307.1272 167.361143 
L 308.75863 164.174966 
L 310.390059 145.11486 
L 312.021489 182.82889 
L 313.652919 169.031222 
L 315.284349 183.677245 
L 316.915779 127.874598 
L 318.547209 151.786214 
L 320.178639 162.359869 
L 321.810069 201.329842 
L 323.441498 172.347388 
L 325.072928 196.340477 
L 326.704358 157.480278 
L 328.335788 171.125545 
L 329.967218 174.416926 
L 331.598648 179.600263 
L 333.230078 148.646311 
L 334.861508 147.41735 
L 336.492937 162.722018 
L 338.124367 186.69564 
L 339.755797 190.372197 
L 341.387227 167.604641 
L 343.018657 149.972566 
L 344.650087 145.866581 
L 346.281517 154.018436 
L 347.912947 178.371566 
L 349.544376 152.870025 
L 351.175806 143.054287 
L 354.438666 172.305069 
L 356.070096 181.556468 
L 357.701526 166.225257 
L 359.332956 161.582045 
L 360.964386 203.784909 
L 362.595815 192.31702 
L 364.227245 173.274184 
L 365.858675 209.476995 
L 367.490105 133.553765 
L 369.121535 175.443785 
L 370.752965 153.913495 
L 372.384395 178.838787 
L 374.015825 175.537519 
L 375.647254 159.905242 
L 377.278684 192.863826 
L 378.910114 175.019805 
L 380.541544 186.113811 
L 382.172974 180.982548 
L 383.804404 180.538925 
L 385.435834 166.961157 
L 387.067264 175.598163 
L 388.698693 163.280733 
L 390.330123 178.06571 
L 393.592983 178.667007 
L 395.224413 159.057942 
L 396.855843 151.371375 
L 398.487273 193.81466 
L 398.487273 193.81466 
" clip-path="url(#p18ce90095e)" style="fill: none; stroke: #1f77b4; stroke-width: 1.5; stroke-linecap: round"/>
   </g>
   <g id="LineCollection_1">
    <path d="M 398.487273 295.488 
L 398.487273 53.568 
" clip-path="url(#p18ce90095e)" style="fill: none; stroke-dasharray: 5.55,2.4; stroke-dashoffset: 0; stroke: #1f77b4; stroke-width: 1.5"/>
   </g>
   <g id="patch_3">
    <path d="M 57.6 307.584 
L 57.6 41.472 
" style="fill: none; stroke: #cccccc; stroke-width: 0.8; stroke-linejoin: miter; stroke-linecap: square"/>
   </g>
   <g id="patch_4">
    <path d="M 414.72 307.584 
L 414.72 41.472 
" style="fill: none; stroke: #cccccc; stroke-width: 0.8; stroke-linejoin: miter; stroke-linecap: square"/>
   </g>
   <g id="patch_5">
    <path d="M 57.6 307.584 
L 414.72 307.584 
" style="fill: none; stroke: #cccccc; stroke-width: 0.8; stroke-linejoin: miter; stroke-linecap: square"/>
   </g>
   <g id="patch_6">
    <path d="M 57.6 41.472 
L 414.72 41.472 
" style="fill: none; stroke: #cccccc; stroke-width: 0.8; stroke-linejoin: miter; stroke-linecap: square"/>
   </g>
   <g id="text_18">
    <!-- Model performance vs. # of iterations -->
    <g style="fill: #262626" transform="translate(122.314688 35.472)scale(0.12 -0.12)">
     <defs>
      <path id="DejaVuSans-4d" d="M 628 4666 
L 1569 4666 
L 2759 1491 
L 3956 4666 
L 4897 4666 
L 4897 0 
L 4281 0 
L 4281 4097 
L 3078 897 
L 2444 897 
L 1241 4097 
L 1241 0 
L 628 0 
L 628 4666 
z
" transform="scale(0.015625)"/>
      <path id="DejaVuSans-64" d="M 2906 2969 
L 2906 4863 
L 3481 4863 
L 3481 0 
L 2906 0 
L 2906 525 
Q 2725 213 2448 61 
Q 2172 -91 1784 -91 
Q 1150 -91 751 415 
Q 353 922 353 1747 
Q 353 2572 751 3078 
Q 1150 3584 1784 3584 
Q 2172 3584 2448 3432 
Q 2725 3281 2906 2969 
z
M 947 1747 
Q 947 1113 1208 752 
Q 1469 391 1925 391 
Q 2381 391 2643 752 
Q 2906 1113 2906 1747 
Q 2906 2381 2643 2742 
Q 2381 3103 1925 3103 
Q 1469 3103 1208 2742 
Q 947 2381 947 1747 
z
" transform="scale(0.015625)"/>
      <path id="DejaVuSans-6c" d="M 603 4863 
L 1178 4863 
L 1178 0 
L 603 0 
L 603 4863 
z
" transform="scale(0.015625)"/>
      <path id="DejaVuSans-20" transform="scale(0.015625)"/>
      <path id="DejaVuSans-70" d="M 1159 525 
L 1159 -1331 
L 581 -1331 
L 581 3500 
L 1159 3500 
L 1159 2969 
Q 1341 3281 1617 3432 
Q 1894 3584 2278 3584 
Q 2916 3584 3314 3078 
Q 3713 2572 3713 1747 
Q 3713 922 3314 415 
Q 2916 -91 2278 -91 
Q 1894 -91 1617 61 
Q 1341 213 1159 525 
z
M 3116 1747 
Q 3116 2381 2855 2742 
Q 2594 3103 2138 3103 
Q 1681 3103 1420 2742 
Q 1159 2381 1159 1747 
Q 1159 1113 1420 752 
Q 1681 391 2138 391 
Q 2594 391 2855 752 
Q 3116 1113 3116 1747 
z
" transform="scale(0.015625)"/>
      <path id="DejaVuSans-66" d="M 2375 4863 
L 2375 4384 
L 1825 4384 
Q 1516 4384 1395 4259 
Q 1275 4134 1275 3809 
L 1275 3500 
L 2222 3500 
L 2222 3053 
L 1275 3053 
L 1275 0 
L 697 0 
L 697 3053 
L 147 3053 
L 147 3500 
L 697 3500 
L 697 3744 
Q 697 4328 969 4595 
Q 1241 4863 1831 4863 
L 2375 4863 
z
" transform="scale(0.015625)"/>
      <path id="DejaVuSans-6d" d="M 3328 2828 
Q 3544 3216 3844 3400 
Q 4144 3584 4550 3584 
Q 5097 3584 5394 3201 
Q 5691 2819 5691 2113 
L 5691 0 
L 5113 0 
L 5113 2094 
Q 5113 2597 4934 2840 
Q 4756 3084 4391 3084 
Q 3944 3084 3684 2787 
Q 3425 2491 3425 1978 
L 3425 0 
L 2847 0 
L 2847 2094 
Q 2847 2600 2669 2842 
Q 2491 3084 2119 3084 
Q 1678 3084 1418 2786 
Q 1159 2488 1159 1978 
L 1159 0 
L 581 0 
L 581 3500 
L 1159 3500 
L 1159 2956 
Q 1356 3278 1631 3431 
Q 1906 3584 2284 3584 
Q 2666 3584 2933 3390 
Q 3200 3197 3328 2828 
z
" transform="scale(0.015625)"/>
      <path id="DejaVuSans-76" d="M 191 3500 
L 800 3500 
L 1894 563 
L 2988 3500 
L 3597 3500 
L 2284 0 
L 1503 0 
L 191 3500 
z
" transform="scale(0.015625)"/>
      <path id="DejaVuSans-73" d="M 2834 3397 
L 2834 2853 
Q 2591 2978 2328 3040 
Q 2066 3103 1784 3103 
Q 1356 3103 1142 2972 
Q 928 2841 928 2578 
Q 928 2378 1081 2264 
Q 1234 2150 1697 2047 
L 1894 2003 
Q 2506 1872 2764 1633 
Q 3022 1394 3022 966 
Q 3022 478 2636 193 
Q 2250 -91 1575 -91 
Q 1294 -91 989 -36 
Q 684 19 347 128 
L 347 722 
Q 666 556 975 473 
Q 1284 391 1588 391 
Q 1994 391 2212 530 
Q 2431 669 2431 922 
Q 2431 1156 2273 1281 
Q 2116 1406 1581 1522 
L 1381 1569 
Q 847 1681 609 1914 
Q 372 2147 372 2553 
Q 372 3047 722 3315 
Q 1072 3584 1716 3584 
Q 2034 3584 2315 3537 
Q 2597 3491 2834 3397 
z
" transform="scale(0.015625)"/>
      <path id="DejaVuSans-23" d="M 3272 2816 
L 2363 2816 
L 2100 1772 
L 3016 1772 
L 3272 2816 
z
M 2803 4594 
L 2478 3297 
L 3391 3297 
L 3719 4594 
L 4219 4594 
L 3897 3297 
L 4872 3297 
L 4872 2816 
L 3775 2816 
L 3519 1772 
L 4513 1772 
L 4513 1294 
L 3397 1294 
L 3072 0 
L 2572 0 
L 2894 1294 
L 1978 1294 
L 1656 0 
L 1153 0 
L 1478 1294 
L 494 1294 
L 494 1772 
L 1594 1772 
L 1856 2816 
L 850 2816 
L 850 3297 
L 1978 3297 
L 2297 4594 
L 2803 4594 
z
" transform="scale(0.015625)"/>
     </defs>
     <use xlink:href="#DejaVuSans-4d"/>
     <use xlink:href="#DejaVuSans-6f" x="86.279297"/>
     <use xlink:href="#DejaVuSans-64" x="147.460938"/>
     <use xlink:href="#DejaVuSans-65" x="210.9375"/>
     <use xlink:href="#DejaVuSans-6c" x="272.460938"/>
     <use xlink:href="#DejaVuSans-20" x="300.244141"/>
     <use xlink:href="#DejaVuSans-70" x="332.03125"/>
     <use xlink:href="#DejaVuSans-65" x="395.507812"/>
     <use xlink:href="#DejaVuSans-72" x="457.03125"/>
     <use xlink:href="#DejaVuSans-66" x="498.144531"/>
     <use xlink:href="#DejaVuSans-6f" x="533.349609"/>
     <use xlink:href="#DejaVuSans-72" x="594.53125"/>
     <use xlink:href="#DejaVuSans-6d" x="633.894531"/>
     <use xlink:href="#DejaVuSans-61" x="731.306641"/>
     <use xlink:href="#DejaVuSans-6e" x="792.585938"/>
     <use xlink:href="#DejaVuSans-63" x="855.964844"/>
     <use xlink:href="#DejaVuSans-65" x="910.945312"/>
     <use xlink:href="#DejaVuSans-20" x="972.46875"/>
     <use xlink:href="#DejaVuSans-76" x="1004.255859"/>
     <use xlink:href="#DejaVuSans-73" x="1063.435547"/>
     <use xlink:href="#DejaVuSans-2e" x="1115.535156"/>
     <use xlink:href="#DejaVuSans-20" x="1147.322266"/>
     <use xlink:href="#DejaVuSans-23" x="1179.109375"/>
     <use xlink:href="#DejaVuSans-20" x="1262.898438"/>
     <use xlink:href="#DejaVuSans-6f" x="1294.685547"/>
     <use xlink:href="#DejaVuSans-66" x="1355.867188"/>
     <use xlink:href="#DejaVuSans-20" x="1391.072266"/>
     <use xlink:href="#DejaVuSans-69" x="1422.859375"/>
     <use xlink:href="#DejaVuSans-74" x="1450.642578"/>
     <use xlink:href="#DejaVuSans-65" x="1489.851562"/>
     <use xlink:href="#DejaVuSans-72" x="1551.375"/>
     <use xlink:href="#DejaVuSans-61" x="1592.488281"/>
     <use xlink:href="#DejaVuSans-74" x="1653.767578"/>
     <use xlink:href="#DejaVuSans-69" x="1692.976562"/>
     <use xlink:href="#DejaVuSans-6f" x="1720.759766"/>
     <use xlink:href="#DejaVuSans-6e" x="1781.941406"/>
     <use xlink:href="#DejaVuSans-73" x="1845.320312"/>
    </g>
   </g>
  </g>
 </g>
 <defs>
  <clipPath id="p18ce90095e">
   <rect x="57.6" y="41.472" width="357.12" height="266.112"/>
  </clipPath>
 </defs>
</svg>
