<?xml version="1.0" encoding="utf-8" standalone="no"?>
<!DOCTYPE svg PUBLIC "-//W3C//DTD SVG 1.1//EN"
  "http://www.w3.org/Graphics/SVG/1.1/DTD/svg11.dtd">
<svg xmlns:xlink="http://www.w3.org/1999/xlink" width="460.8pt" height="345.6pt" viewBox="0 0 460.8 345.6" xmlns="http://www.w3.org/2000/svg" version="1.1">
 <metadata>
  <rdf:RDF xmlns:dc="http://purl.org/dc/elements/1.1/" xmlns:cc="http://creativecommons.org/ns#" xmlns:rdf="http://www.w3.org/1999/02/22-rdf-syntax-ns#">
   <cc:Work>
    <dc:type rdf:resource="http://purl.org/dc/dcmitype/StillImage"/>
    <dc:date>2022-05-28T01:21:42.470512</dc:date>
    <dc:format>image/svg+xml</dc:format>
    <dc:creator>
     <cc:Agent>
      <dc:title>Matplotlib v3.5.2, https://matplotlib.org/</dc:title>
     </cc:Agent>
    </dc:creator>
   </cc:Work>
  </rdf:RDF>
 </metadata>
 <defs>
  <style type="text/css">*{stroke-linejoin: round; stroke-linecap: butt}</style>
 </defs>
 <g id="figure_1">
  <g id="patch_1">
   <path d="M 0 345.6 
L 460.8 345.6 
L 460.8 0 
L 0 0 
z
" style="fill: #ffffff"/>
  </g>
  <g id="axes_1">
   <g id="patch_2">
    <path d="M 57.6 307.584 
L 414.72 307.584 
L 414.72 41.472 
L 57.6 41.472 
z
" style="fill: #ffffff"/>
   </g>
   <g id="matplotlib.axis_1">
    <g id="xtick_1">
     <g id="line2d_1">
      <path d="M 72.201297 307.584 
L 72.201297 41.472 
" clip-path="url(#p7588bd0fe7)" style="fill: none; stroke: #cccccc; stroke-width: 0.8; stroke-linecap: round"/>
     </g>
     <g id="text_1">
      <!-- 0 -->
      <g style="fill: #262626" transform="translate(69.020047 322.182437)scale(0.1 -0.1)">
       <defs>
        <path id="DejaVuSans-30" d="M 2034 4250 
Q 1547 4250 1301 3770 
Q 1056 3291 1056 2328 
Q 1056 1369 1301 889 
Q 1547 409 2034 409 
Q 2525 409 2770 889 
Q 3016 1369 3016 2328 
Q 3016 3291 2770 3770 
Q 2525 4250 2034 4250 
z
M 2034 4750 
Q 2819 4750 3233 4129 
Q 3647 3509 3647 2328 
Q 3647 1150 3233 529 
Q 2819 -91 2034 -91 
Q 1250 -91 836 529 
Q 422 1150 422 2328 
Q 422 3509 836 4129 
Q 1250 4750 2034 4750 
z
" transform="scale(0.015625)"/>
       </defs>
       <use xlink:href="#DejaVuSans-30"/>
      </g>
     </g>
    </g>
    <g id="xtick_2">
     <g id="line2d_2">
      <path d="M 112.987044 307.584 
L 112.987044 41.472 
" clip-path="url(#p7588bd0fe7)" style="fill: none; stroke: #cccccc; stroke-width: 0.8; stroke-linecap: round"/>
     </g>
     <g id="text_2">
      <!-- 25 -->
      <g style="fill: #262626" transform="translate(106.624544 322.182437)scale(0.1 -0.1)">
       <defs>
        <path id="DejaVuSans-32" d="M 1228 531 
L 3431 531 
L 3431 0 
L 469 0 
L 469 531 
Q 828 903 1448 1529 
Q 2069 2156 2228 2338 
Q 2531 2678 2651 2914 
Q 2772 3150 2772 3378 
Q 2772 3750 2511 3984 
Q 2250 4219 1831 4219 
Q 1534 4219 1204 4116 
Q 875 4013 500 3803 
L 500 4441 
Q 881 4594 1212 4672 
Q 1544 4750 1819 4750 
Q 2544 4750 2975 4387 
Q 3406 4025 3406 3419 
Q 3406 3131 3298 2873 
Q 3191 2616 2906 2266 
Q 2828 2175 2409 1742 
Q 1991 1309 1228 531 
z
" transform="scale(0.015625)"/>
        <path id="DejaVuSans-35" d="M 691 4666 
L 3169 4666 
L 3169 4134 
L 1269 4134 
L 1269 2991 
Q 1406 3038 1543 3061 
Q 1681 3084 1819 3084 
Q 2600 3084 3056 2656 
Q 3513 2228 3513 1497 
Q 3513 744 3044 326 
Q 2575 -91 1722 -91 
Q 1428 -91 1123 -41 
Q 819 9 494 109 
L 494 744 
Q 775 591 1075 516 
Q 1375 441 1709 441 
Q 2250 441 2565 725 
Q 2881 1009 2881 1497 
Q 2881 1984 2565 2268 
Q 2250 2553 1709 2553 
Q 1456 2553 1204 2497 
Q 953 2441 691 2322 
L 691 4666 
z
" transform="scale(0.015625)"/>
       </defs>
       <use xlink:href="#DejaVuSans-32"/>
       <use xlink:href="#DejaVuSans-35" x="63.623047"/>
      </g>
     </g>
    </g>
    <g id="xtick_3">
     <g id="line2d_3">
      <path d="M 153.772791 307.584 
L 153.772791 41.472 
" clip-path="url(#p7588bd0fe7)" style="fill: none; stroke: #cccccc; stroke-width: 0.8; stroke-linecap: round"/>
     </g>
     <g id="text_3">
      <!-- 50 -->
      <g style="fill: #262626" transform="translate(147.410291 322.182437)scale(0.1 -0.1)">
       <use xlink:href="#DejaVuSans-35"/>
       <use xlink:href="#DejaVuSans-30" x="63.623047"/>
      </g>
     </g>
    </g>
    <g id="xtick_4">
     <g id="line2d_4">
      <path d="M 194.558538 307.584 
L 194.558538 41.472 
" clip-path="url(#p7588bd0fe7)" style="fill: none; stroke: #cccccc; stroke-width: 0.8; stroke-linecap: round"/>
     </g>
     <g id="text_4">
      <!-- 75 -->
      <g style="fill: #262626" transform="translate(188.196038 322.182437)scale(0.1 -0.1)">
       <defs>
        <path id="DejaVuSans-37" d="M 525 4666 
L 3525 4666 
L 3525 4397 
L 1831 0 
L 1172 0 
L 2766 4134 
L 525 4134 
L 525 4666 
z
" transform="scale(0.015625)"/>
       </defs>
       <use xlink:href="#DejaVuSans-37"/>
       <use xlink:href="#DejaVuSans-35" x="63.623047"/>
      </g>
     </g>
    </g>
    <g id="xtick_5">
     <g id="line2d_5">
      <path d="M 235.344285 307.584 
L 235.344285 41.472 
" clip-path="url(#p7588bd0fe7)" style="fill: none; stroke: #cccccc; stroke-width: 0.8; stroke-linecap: round"/>
     </g>
     <g id="text_5">
      <!-- 100 -->
      <g style="fill: #262626" transform="translate(225.800535 322.182437)scale(0.1 -0.1)">
       <defs>
        <path id="DejaVuSans-31" d="M 794 531 
L 1825 531 
L 1825 4091 
L 703 3866 
L 703 4441 
L 1819 4666 
L 2450 4666 
L 2450 531 
L 3481 531 
L 3481 0 
L 794 0 
L 794 531 
z
" transform="scale(0.015625)"/>
       </defs>
       <use xlink:href="#DejaVuSans-31"/>
       <use xlink:href="#DejaVuSans-30" x="63.623047"/>
       <use xlink:href="#DejaVuSans-30" x="127.246094"/>
      </g>
     </g>
    </g>
    <g id="xtick_6">
     <g id="line2d_6">
      <path d="M 276.130032 307.584 
L 276.130032 41.472 
" clip-path="url(#p7588bd0fe7)" style="fill: none; stroke: #cccccc; stroke-width: 0.8; stroke-linecap: round"/>
     </g>
     <g id="text_6">
      <!-- 125 -->
      <g style="fill: #262626" transform="translate(266.586282 322.182437)scale(0.1 -0.1)">
       <use xlink:href="#DejaVuSans-31"/>
       <use xlink:href="#DejaVuSans-32" x="63.623047"/>
       <use xlink:href="#DejaVuSans-35" x="127.246094"/>
      </g>
     </g>
    </g>
    <g id="xtick_7">
     <g id="line2d_7">
      <path d="M 316.915779 307.584 
L 316.915779 41.472 
" clip-path="url(#p7588bd0fe7)" style="fill: none; stroke: #cccccc; stroke-width: 0.8; stroke-linecap: round"/>
     </g>
     <g id="text_7">
      <!-- 150 -->
      <g style="fill: #262626" transform="translate(307.372029 322.182437)scale(0.1 -0.1)">
       <use xlink:href="#DejaVuSans-31"/>
       <use xlink:href="#DejaVuSans-35" x="63.623047"/>
       <use xlink:href="#DejaVuSans-30" x="127.246094"/>
      </g>
     </g>
    </g>
    <g id="xtick_8">
     <g id="line2d_8">
      <path d="M 357.701526 307.584 
L 357.701526 41.472 
" clip-path="url(#p7588bd0fe7)" style="fill: none; stroke: #cccccc; stroke-width: 0.8; stroke-linecap: round"/>
     </g>
     <g id="text_8">
      <!-- 175 -->
      <g style="fill: #262626" transform="translate(348.157776 322.182437)scale(0.1 -0.1)">
       <use xlink:href="#DejaVuSans-31"/>
       <use xlink:href="#DejaVuSans-37" x="63.623047"/>
       <use xlink:href="#DejaVuSans-35" x="127.246094"/>
      </g>
     </g>
    </g>
    <g id="xtick_9">
     <g id="line2d_9">
      <path d="M 398.487273 307.584 
L 398.487273 41.472 
" clip-path="url(#p7588bd0fe7)" style="fill: none; stroke: #cccccc; stroke-width: 0.8; stroke-linecap: round"/>
     </g>
     <g id="text_9">
      <!-- 200 -->
      <g style="fill: #262626" transform="translate(388.943523 322.182437)scale(0.1 -0.1)">
       <use xlink:href="#DejaVuSans-32"/>
       <use xlink:href="#DejaVuSans-30" x="63.623047"/>
       <use xlink:href="#DejaVuSans-30" x="127.246094"/>
      </g>
     </g>
    </g>
    <g id="text_10">
     <!-- Iteration -->
     <g style="fill: #262626" transform="translate(214.951406 335.860562)scale(0.1 -0.1)">
      <defs>
       <path id="DejaVuSans-49" d="M 628 4666 
L 1259 4666 
L 1259 0 
L 628 0 
L 628 4666 
z
" transform="scale(0.015625)"/>
       <path id="DejaVuSans-74" d="M 1172 4494 
L 1172 3500 
L 2356 3500 
L 2356 3053 
L 1172 3053 
L 1172 1153 
Q 1172 725 1289 603 
Q 1406 481 1766 481 
L 2356 481 
L 2356 0 
L 1766 0 
Q 1100 0 847 248 
Q 594 497 594 1153 
L 594 3053 
L 172 3053 
L 172 3500 
L 594 3500 
L 594 4494 
L 1172 4494 
z
" transform="scale(0.015625)"/>
       <path id="DejaVuSans-65" d="M 3597 1894 
L 3597 1613 
L 953 1613 
Q 991 1019 1311 708 
Q 1631 397 2203 397 
Q 2534 397 2845 478 
Q 3156 559 3463 722 
L 3463 178 
Q 3153 47 2828 -22 
Q 2503 -91 2169 -91 
Q 1331 -91 842 396 
Q 353 884 353 1716 
Q 353 2575 817 3079 
Q 1281 3584 2069 3584 
Q 2775 3584 3186 3129 
Q 3597 2675 3597 1894 
z
M 3022 2063 
Q 3016 2534 2758 2815 
Q 2500 3097 2075 3097 
Q 1594 3097 1305 2825 
Q 1016 2553 972 2059 
L 3022 2063 
z
" transform="scale(0.015625)"/>
       <path id="DejaVuSans-72" d="M 2631 2963 
Q 2534 3019 2420 3045 
Q 2306 3072 2169 3072 
Q 1681 3072 1420 2755 
Q 1159 2438 1159 1844 
L 1159 0 
L 581 0 
L 581 3500 
L 1159 3500 
L 1159 2956 
Q 1341 3275 1631 3429 
Q 1922 3584 2338 3584 
Q 2397 3584 2469 3576 
Q 2541 3569 2628 3553 
L 2631 2963 
z
" transform="scale(0.015625)"/>
       <path id="DejaVuSans-61" d="M 2194 1759 
Q 1497 1759 1228 1600 
Q 959 1441 959 1056 
Q 959 750 1161 570 
Q 1363 391 1709 391 
Q 2188 391 2477 730 
Q 2766 1069 2766 1631 
L 2766 1759 
L 2194 1759 
z
M 3341 1997 
L 3341 0 
L 2766 0 
L 2766 531 
Q 2569 213 2275 61 
Q 1981 -91 1556 -91 
Q 1019 -91 701 211 
Q 384 513 384 1019 
Q 384 1609 779 1909 
Q 1175 2209 1959 2209 
L 2766 2209 
L 2766 2266 
Q 2766 2663 2505 2880 
Q 2244 3097 1772 3097 
Q 1472 3097 1187 3025 
Q 903 2953 641 2809 
L 641 3341 
Q 956 3463 1253 3523 
Q 1550 3584 1831 3584 
Q 2591 3584 2966 3190 
Q 3341 2797 3341 1997 
z
" transform="scale(0.015625)"/>
       <path id="DejaVuSans-69" d="M 603 3500 
L 1178 3500 
L 1178 0 
L 603 0 
L 603 3500 
z
M 603 4863 
L 1178 4863 
L 1178 4134 
L 603 4134 
L 603 4863 
z
" transform="scale(0.015625)"/>
       <path id="DejaVuSans-6f" d="M 1959 3097 
Q 1497 3097 1228 2736 
Q 959 2375 959 1747 
Q 959 1119 1226 758 
Q 1494 397 1959 397 
Q 2419 397 2687 759 
Q 2956 1122 2956 1747 
Q 2956 2369 2687 2733 
Q 2419 3097 1959 3097 
z
M 1959 3584 
Q 2709 3584 3137 3096 
Q 3566 2609 3566 1747 
Q 3566 888 3137 398 
Q 2709 -91 1959 -91 
Q 1206 -91 779 398 
Q 353 888 353 1747 
Q 353 2609 779 3096 
Q 1206 3584 1959 3584 
z
" transform="scale(0.015625)"/>
       <path id="DejaVuSans-6e" d="M 3513 2113 
L 3513 0 
L 2938 0 
L 2938 2094 
Q 2938 2591 2744 2837 
Q 2550 3084 2163 3084 
Q 1697 3084 1428 2787 
Q 1159 2491 1159 1978 
L 1159 0 
L 581 0 
L 581 3500 
L 1159 3500 
L 1159 2956 
Q 1366 3272 1645 3428 
Q 1925 3584 2291 3584 
Q 2894 3584 3203 3211 
Q 3513 2838 3513 2113 
z
" transform="scale(0.015625)"/>
      </defs>
      <use xlink:href="#DejaVuSans-49"/>
      <use xlink:href="#DejaVuSans-74" x="29.492188"/>
      <use xlink:href="#DejaVuSans-65" x="68.701172"/>
      <use xlink:href="#DejaVuSans-72" x="130.224609"/>
      <use xlink:href="#DejaVuSans-61" x="171.337891"/>
      <use xlink:href="#DejaVuSans-74" x="232.617188"/>
      <use xlink:href="#DejaVuSans-69" x="271.826172"/>
      <use xlink:href="#DejaVuSans-6f" x="299.609375"/>
      <use xlink:href="#DejaVuSans-6e" x="360.791016"/>
     </g>
    </g>
   </g>
   <g id="matplotlib.axis_2">
    <g id="ytick_1">
     <g id="line2d_10">
      <path d="M 57.6 296.644471 
L 414.72 296.644471 
" clip-path="url(#p7588bd0fe7)" style="fill: none; stroke: #cccccc; stroke-width: 0.8; stroke-linecap: round"/>
     </g>
     <g id="text_11">
      <!-- 0.4 -->
      <g style="fill: #262626" transform="translate(34.696875 300.44369)scale(0.1 -0.1)">
       <defs>
        <path id="DejaVuSans-2e" d="M 684 794 
L 1344 794 
L 1344 0 
L 684 0 
L 684 794 
z
" transform="scale(0.015625)"/>
        <path id="DejaVuSans-34" d="M 2419 4116 
L 825 1625 
L 2419 1625 
L 2419 4116 
z
M 2253 4666 
L 3047 4666 
L 3047 1625 
L 3713 1625 
L 3713 1100 
L 3047 1100 
L 3047 0 
L 2419 0 
L 2419 1100 
L 313 1100 
L 313 1709 
L 2253 4666 
z
" transform="scale(0.015625)"/>
       </defs>
       <use xlink:href="#DejaVuSans-30"/>
       <use xlink:href="#DejaVuSans-2e" x="63.623047"/>
       <use xlink:href="#DejaVuSans-34" x="95.410156"/>
      </g>
     </g>
    </g>
    <g id="ytick_2">
     <g id="line2d_11">
      <path d="M 57.6 239.207804 
L 414.72 239.207804 
" clip-path="url(#p7588bd0fe7)" style="fill: none; stroke: #cccccc; stroke-width: 0.8; stroke-linecap: round"/>
     </g>
     <g id="text_12">
      <!-- 0.5 -->
      <g style="fill: #262626" transform="translate(34.696875 243.007023)scale(0.1 -0.1)">
       <use xlink:href="#DejaVuSans-30"/>
       <use xlink:href="#DejaVuSans-2e" x="63.623047"/>
       <use xlink:href="#DejaVuSans-35" x="95.410156"/>
      </g>
     </g>
    </g>
    <g id="ytick_3">
     <g id="line2d_12">
      <path d="M 57.6 181.771137 
L 414.72 181.771137 
" clip-path="url(#p7588bd0fe7)" style="fill: none; stroke: #cccccc; stroke-width: 0.8; stroke-linecap: round"/>
     </g>
     <g id="text_13">
      <!-- 0.6 -->
      <g style="fill: #262626" transform="translate(34.696875 185.570356)scale(0.1 -0.1)">
       <defs>
        <path id="DejaVuSans-36" d="M 2113 2584 
Q 1688 2584 1439 2293 
Q 1191 2003 1191 1497 
Q 1191 994 1439 701 
Q 1688 409 2113 409 
Q 2538 409 2786 701 
Q 3034 994 3034 1497 
Q 3034 2003 2786 2293 
Q 2538 2584 2113 2584 
z
M 3366 4563 
L 3366 3988 
Q 3128 4100 2886 4159 
Q 2644 4219 2406 4219 
Q 1781 4219 1451 3797 
Q 1122 3375 1075 2522 
Q 1259 2794 1537 2939 
Q 1816 3084 2150 3084 
Q 2853 3084 3261 2657 
Q 3669 2231 3669 1497 
Q 3669 778 3244 343 
Q 2819 -91 2113 -91 
Q 1303 -91 875 529 
Q 447 1150 447 2328 
Q 447 3434 972 4092 
Q 1497 4750 2381 4750 
Q 2619 4750 2861 4703 
Q 3103 4656 3366 4563 
z
" transform="scale(0.015625)"/>
       </defs>
       <use xlink:href="#DejaVuSans-30"/>
       <use xlink:href="#DejaVuSans-2e" x="63.623047"/>
       <use xlink:href="#DejaVuSans-36" x="95.410156"/>
      </g>
     </g>
    </g>
    <g id="ytick_4">
     <g id="line2d_13">
      <path d="M 57.6 124.33447 
L 414.72 124.33447 
" clip-path="url(#p7588bd0fe7)" style="fill: none; stroke: #cccccc; stroke-width: 0.8; stroke-linecap: round"/>
     </g>
     <g id="text_14">
      <!-- 0.7 -->
      <g style="fill: #262626" transform="translate(34.696875 128.133689)scale(0.1 -0.1)">
       <use xlink:href="#DejaVuSans-30"/>
       <use xlink:href="#DejaVuSans-2e" x="63.623047"/>
       <use xlink:href="#DejaVuSans-37" x="95.410156"/>
      </g>
     </g>
    </g>
    <g id="ytick_5">
     <g id="line2d_14">
      <path d="M 57.6 66.897803 
L 414.72 66.897803 
" clip-path="url(#p7588bd0fe7)" style="fill: none; stroke: #cccccc; stroke-width: 0.8; stroke-linecap: round"/>
     </g>
     <g id="text_15">
      <!-- 0.8 -->
      <g style="fill: #262626" transform="translate(34.696875 70.697022)scale(0.1 -0.1)">
       <defs>
        <path id="DejaVuSans-38" d="M 2034 2216 
Q 1584 2216 1326 1975 
Q 1069 1734 1069 1313 
Q 1069 891 1326 650 
Q 1584 409 2034 409 
Q 2484 409 2743 651 
Q 3003 894 3003 1313 
Q 3003 1734 2745 1975 
Q 2488 2216 2034 2216 
z
M 1403 2484 
Q 997 2584 770 2862 
Q 544 3141 544 3541 
Q 544 4100 942 4425 
Q 1341 4750 2034 4750 
Q 2731 4750 3128 4425 
Q 3525 4100 3525 3541 
Q 3525 3141 3298 2862 
Q 3072 2584 2669 2484 
Q 3125 2378 3379 2068 
Q 3634 1759 3634 1313 
Q 3634 634 3220 271 
Q 2806 -91 2034 -91 
Q 1263 -91 848 271 
Q 434 634 434 1313 
Q 434 1759 690 2068 
Q 947 2378 1403 2484 
z
M 1172 3481 
Q 1172 3119 1398 2916 
Q 1625 2713 2034 2713 
Q 2441 2713 2670 2916 
Q 2900 3119 2900 3481 
Q 2900 3844 2670 4047 
Q 2441 4250 2034 4250 
Q 1625 4250 1398 4047 
Q 1172 3844 1172 3481 
z
" transform="scale(0.015625)"/>
       </defs>
       <use xlink:href="#DejaVuSans-30"/>
       <use xlink:href="#DejaVuSans-2e" x="63.623047"/>
       <use xlink:href="#DejaVuSans-38" x="95.410156"/>
      </g>
     </g>
    </g>
    <g id="text_16">
     <!-- Auroc -->
     <g style="fill: #262626" transform="translate(28.617188 188.868625)rotate(-90)scale(0.1 -0.1)">
      <defs>
       <path id="DejaVuSans-41" d="M 2188 4044 
L 1331 1722 
L 3047 1722 
L 2188 4044 
z
M 1831 4666 
L 2547 4666 
L 4325 0 
L 3669 0 
L 3244 1197 
L 1141 1197 
L 716 0 
L 50 0 
L 1831 4666 
z
" transform="scale(0.015625)"/>
       <path id="DejaVuSans-75" d="M 544 1381 
L 544 3500 
L 1119 3500 
L 1119 1403 
Q 1119 906 1312 657 
Q 1506 409 1894 409 
Q 2359 409 2629 706 
Q 2900 1003 2900 1516 
L 2900 3500 
L 3475 3500 
L 3475 0 
L 2900 0 
L 2900 538 
Q 2691 219 2414 64 
Q 2138 -91 1772 -91 
Q 1169 -91 856 284 
Q 544 659 544 1381 
z
M 1991 3584 
L 1991 3584 
z
" transform="scale(0.015625)"/>
       <path id="DejaVuSans-63" d="M 3122 3366 
L 3122 2828 
Q 2878 2963 2633 3030 
Q 2388 3097 2138 3097 
Q 1578 3097 1268 2742 
Q 959 2388 959 1747 
Q 959 1106 1268 751 
Q 1578 397 2138 397 
Q 2388 397 2633 464 
Q 2878 531 3122 666 
L 3122 134 
Q 2881 22 2623 -34 
Q 2366 -91 2075 -91 
Q 1284 -91 818 406 
Q 353 903 353 1747 
Q 353 2603 823 3093 
Q 1294 3584 2113 3584 
Q 2378 3584 2631 3529 
Q 2884 3475 3122 3366 
z
" transform="scale(0.015625)"/>
      </defs>
      <use xlink:href="#DejaVuSans-41"/>
      <use xlink:href="#DejaVuSans-75" x="68.408203"/>
      <use xlink:href="#DejaVuSans-72" x="131.787109"/>
      <use xlink:href="#DejaVuSans-6f" x="170.650391"/>
      <use xlink:href="#DejaVuSans-63" x="231.832031"/>
     </g>
    </g>
   </g>
   <g id="PolyCollection_1">
    <defs>
     <path id="m465521afbb" d="M 73.832727 -230.619833 
L 73.832727 -165.216921 
L 75.464157 -198.508282 
L 77.095587 -152.216477 
L 78.727017 -87.001598 
L 80.358447 -128.830725 
L 81.989877 -189.350732 
L 83.621307 -136.98768 
L 85.252736 -150.089098 
L 86.884166 -128.201789 
L 88.515596 -147.351548 
L 90.147026 -237.428481 
L 91.778456 -210.708348 
L 93.409886 -130.776751 
L 95.041316 -205.827379 
L 96.672746 -199.495225 
L 98.304175 -182.784106 
L 99.935605 -106.453897 
L 101.567035 -82.699675 
L 103.198465 -172.186702 
L 104.829895 -253.838874 
L 106.461325 -183.970425 
L 108.092755 -145.59864 
L 109.724185 -154.246534 
L 111.355614 -182.623446 
L 112.987044 -166.539141 
L 114.618474 -161.530678 
L 116.249904 -175.700516 
L 117.881334 -235.05127 
L 119.512764 -136.829858 
L 121.144194 -130.146234 
L 122.775624 -91.364184 
L 124.407053 -106.328159 
L 126.038483 -136.172134 
L 127.669913 -176.044474 
L 129.301343 -150.797903 
L 130.932773 -112.067056 
L 132.564203 -95.184553 
L 134.195633 -204.381613 
L 135.827063 -130.329591 
L 137.458492 -149.353908 
L 139.089922 -121.665838 
L 140.721352 -173.299969 
L 142.352782 -210.241534 
L 143.984212 -116.460103 
L 145.615642 -154.062661 
L 147.247072 -206.555102 
L 148.878502 -100.388926 
L 150.509931 -124.52666 
L 152.141361 -148.339789 
L 153.772791 -164.249763 
L 155.404221 -192.341301 
L 157.035651 -208.574691 
L 158.667081 -163.918711 
L 160.298511 -174.915899 
L 161.929941 -138.998651 
L 163.56137 -131.176608 
L 165.1928 -182.743824 
L 166.82423 -50.112 
L 168.45566 -70.621525 
L 170.08709 -168.590595 
L 171.71852 -176.509081 
L 173.34995 -140.352187 
L 174.98138 -206.8807 
L 176.61281 -188.22801 
L 178.244239 -89.404641 
L 179.875669 -143.96116 
L 181.507099 -136.39117 
L 183.138529 -181.182186 
L 184.769959 -192.405696 
L 186.401389 -186.863305 
L 188.032819 -67.360574 
L 189.664249 -112.293427 
L 191.295678 -158.356823 
L 192.927108 -228.369172 
L 194.558538 -128.232507 
L 196.189968 -154.948849 
L 197.821398 -187.242584 
L 199.452828 -205.247796 
L 201.084258 -119.587878 
L 202.715688 -169.544941 
L 204.347117 -152.14075 
L 205.978547 -202.599587 
L 207.609977 -103.871013 
L 209.241407 -106.612543 
L 210.872837 -158.782873 
L 212.504267 -221.932158 
L 214.135697 -129.453932 
L 215.767127 -137.577934 
L 217.398556 -176.503668 
L 219.029986 -133.139472 
L 220.661416 -165.618505 
L 222.292846 -177.268067 
L 223.924276 -125.003114 
L 225.555706 -193.297093 
L 227.187136 -145.268668 
L 228.818566 -196.25225 
L 230.449995 -155.725079 
L 232.081425 -133.533777 
L 233.712855 -206.767468 
L 235.344285 -142.30499 
L 236.975715 -107.114235 
L 238.607145 -212.454326 
L 240.238575 -139.6803 
L 241.870005 -133.08259 
L 243.501434 -178.260997 
L 245.132864 -210.190409 
L 246.764294 -193.313484 
L 248.395724 -177.703618 
L 250.027154 -120.229133 
L 251.658584 -102.992522 
L 253.290014 -162.295218 
L 254.921444 -163.525168 
L 256.552873 -157.668355 
L 258.184303 -125.74879 
L 259.815733 -146.737385 
L 261.447163 -167.434358 
L 263.078593 -109.729296 
L 264.710023 -122.565757 
L 266.341453 -147.133819 
L 267.972883 -109.830282 
L 269.604312 -151.186396 
L 271.235742 -162.582619 
L 272.867172 -137.519321 
L 274.498602 -123.006251 
L 276.130032 -143.913686 
L 277.761462 -94.242962 
L 279.392892 -156.535081 
L 281.024322 -148.996923 
L 282.655751 -168.571877 
L 284.287181 -109.804072 
L 285.918611 -178.680477 
L 287.550041 -172.889544 
L 289.181471 -205.631003 
L 290.812901 -236.402434 
L 292.444331 -177.682214 
L 294.075761 -206.879728 
L 295.70719 -92.086054 
L 297.33862 -191.554769 
L 298.97005 -220.720803 
L 300.60148 -153.547708 
L 302.23291 -126.166176 
L 303.86434 -137.00817 
L 305.49577 -129.113283 
L 307.1272 -210.661641 
L 308.75863 -57.107568 
L 310.390059 -218.218968 
L 312.021489 -145.674499 
L 313.652919 -170.433337 
L 315.284349 -175.641797 
L 316.915779 -172.039392 
L 318.547209 -136.853164 
L 320.178639 -210.275815 
L 321.810069 -207.422029 
L 323.441498 -145.432235 
L 325.072928 -236.579924 
L 326.704358 -217.100599 
L 328.335788 -157.809162 
L 329.967218 -178.39501 
L 331.598648 -111.932844 
L 333.230078 -158.639057 
L 334.861508 -232.40644 
L 336.492937 -184.475093 
L 338.124367 -156.95732 
L 339.755797 -148.236408 
L 341.387227 -140.238314 
L 343.018657 -231.90583 
L 344.650087 -141.121957 
L 346.281517 -195.684806 
L 347.912947 -146.147732 
L 349.544376 -186.575236 
L 351.175806 -198.876821 
L 352.807236 -144.093592 
L 354.438666 -200.145531 
L 356.070096 -225.614305 
L 357.701526 -97.223606 
L 359.332956 -106.551772 
L 360.964386 -117.44343 
L 362.595815 -205.142807 
L 364.227245 -112.787982 
L 365.858675 -167.742705 
L 367.490105 -154.235138 
L 369.121535 -150.907125 
L 370.752965 -113.016005 
L 372.384395 -185.852928 
L 374.015825 -119.518417 
L 375.647254 -197.949823 
L 377.278684 -188.114283 
L 378.910114 -225.266919 
L 380.541544 -172.791267 
L 382.172974 -163.552777 
L 383.804404 -143.091001 
L 385.435834 -107.391964 
L 387.067264 -152.546631 
L 388.698693 -151.5463 
L 390.330123 -162.485866 
L 391.961553 -195.300823 
L 393.592983 -151.757973 
L 395.224413 -142.699364 
L 396.855843 -216.969626 
L 398.487273 -91.947551 
L 398.487273 -206.741251 
L 398.487273 -206.741251 
L 396.855843 -248.069561 
L 395.224413 -258.541743 
L 393.592983 -249.391397 
L 391.961553 -215.484079 
L 390.330123 -251.894224 
L 388.698693 -246.871203 
L 387.067264 -248.104532 
L 385.435834 -214.428621 
L 383.804404 -231.195698 
L 382.172974 -255.403547 
L 380.541544 -222.212754 
L 378.910114 -263.869974 
L 377.278684 -236.257044 
L 375.647254 -241.850381 
L 374.015825 -253.242399 
L 372.384395 -253.699695 
L 370.752965 -260.806914 
L 369.121535 -243.24864 
L 367.490105 -203.465816 
L 365.858675 -236.726435 
L 364.227245 -225.274986 
L 362.595815 -267.853593 
L 360.964386 -219.564848 
L 359.332956 -208.101193 
L 357.701526 -227.756693 
L 356.070096 -269.54609 
L 354.438666 -248.307451 
L 352.807236 -238.637526 
L 351.175806 -267.117309 
L 349.544376 -248.25359 
L 347.912947 -233.560675 
L 346.281517 -263.138323 
L 344.650087 -263.505064 
L 343.018657 -261.723911 
L 341.387227 -257.723916 
L 339.755797 -246.481623 
L 338.124367 -259.10572 
L 336.492937 -244.258364 
L 334.861508 -257.070829 
L 333.230078 -268.627939 
L 331.598648 -242.074448 
L 329.967218 -231.54852 
L 328.335788 -214.081309 
L 326.704358 -242.222936 
L 325.072928 -292.032 
L 323.441498 -245.313075 
L 321.810069 -256.652749 
L 320.178639 -241.633977 
L 318.547209 -226.684344 
L 316.915779 -246.951447 
L 315.284349 -253.852465 
L 313.652919 -235.846108 
L 312.021489 -271.512066 
L 310.390059 -250.287547 
L 308.75863 -226.372333 
L 307.1272 -234.000285 
L 305.49577 -225.708251 
L 303.86434 -250.944114 
L 302.23291 -208.918146 
L 300.60148 -242.107952 
L 298.97005 -260.608008 
L 297.33862 -225.747423 
L 295.70719 -242.520488 
L 294.075761 -254.044386 
L 292.444331 -252.03746 
L 290.812901 -267.232567 
L 289.181471 -250.989592 
L 287.550041 -286.284362 
L 285.918611 -241.009487 
L 284.287181 -268.781189 
L 282.655751 -244.199353 
L 281.024322 -260.708902 
L 279.392892 -266.30082 
L 277.761462 -255.165707 
L 276.130032 -243.021031 
L 274.498602 -254.06159 
L 272.867172 -252.048632 
L 271.235742 -274.813492 
L 269.604312 -242.573372 
L 267.972883 -238.694692 
L 266.341453 -254.433313 
L 264.710023 -271.680241 
L 263.078593 -182.42549 
L 261.447163 -244.808382 
L 259.815733 -247.5395 
L 258.184303 -228.83845 
L 256.552873 -273.288068 
L 254.921444 -226.803359 
L 253.290014 -268.226931 
L 251.658584 -240.811897 
L 250.027154 -218.033461 
L 248.395724 -244.433735 
L 246.764294 -221.596888 
L 245.132864 -268.690354 
L 243.501434 -226.656834 
L 241.870005 -257.411237 
L 240.238575 -245.988675 
L 238.607145 -238.144154 
L 236.975715 -218.516678 
L 235.344285 -261.516469 
L 233.712855 -248.459779 
L 232.081425 -227.301065 
L 230.449995 -268.891522 
L 228.818566 -246.14752 
L 227.187136 -249.76297 
L 225.555706 -260.067796 
L 223.924276 -183.760145 
L 222.292846 -237.385017 
L 220.661416 -255.401427 
L 219.029986 -265.501578 
L 217.398556 -251.761985 
L 215.767127 -251.608072 
L 214.135697 -221.273976 
L 212.504267 -259.301304 
L 210.872837 -264.537653 
L 209.241407 -229.739402 
L 207.609977 -237.623248 
L 205.978547 -258.270897 
L 204.347117 -251.969943 
L 202.715688 -241.994302 
L 201.084258 -231.000219 
L 199.452828 -269.582379 
L 197.821398 -233.763732 
L 196.189968 -262.001537 
L 194.558538 -214.444086 
L 192.927108 -274.633193 
L 191.295678 -256.754781 
L 189.664249 -258.794138 
L 188.032819 -222.142314 
L 186.401389 -226.350406 
L 184.769959 -249.078729 
L 183.138529 -229.736229 
L 181.507099 -232.385484 
L 179.875669 -239.888783 
L 178.244239 -254.708805 
L 176.61281 -266.711728 
L 174.98138 -230.290188 
L 173.34995 -270.635579 
L 171.71852 -264.467376 
L 170.08709 -219.636702 
L 168.45566 -251.989007 
L 166.82423 -196.070174 
L 165.1928 -258.242007 
L 163.56137 -245.086487 
L 161.929941 -258.871864 
L 160.298511 -222.845859 
L 158.667081 -255.422645 
L 157.035651 -250.872337 
L 155.404221 -264.319693 
L 153.772791 -248.552413 
L 152.141361 -222.373701 
L 150.509931 -256.322487 
L 148.878502 -174.945084 
L 147.247072 -254.159486 
L 145.615642 -235.2321 
L 143.984212 -219.504492 
L 142.352782 -265.932703 
L 140.721352 -245.7048 
L 139.089922 -270.802061 
L 137.458492 -253.518665 
L 135.827063 -220.250573 
L 134.195633 -256.624032 
L 132.564203 -248.885349 
L 130.932773 -228.120555 
L 129.301343 -243.65802 
L 127.669913 -256.898141 
L 126.038483 -238.126251 
L 124.407053 -236.609849 
L 122.775624 -232.900715 
L 121.144194 -265.919506 
L 119.512764 -242.093008 
L 117.881334 -244.589275 
L 116.249904 -249.893572 
L 114.618474 -258.630765 
L 112.987044 -277.494259 
L 111.355614 -244.464637 
L 109.724185 -283.802648 
L 108.092755 -260.835556 
L 106.461325 -224.88522 
L 104.829895 -276.693945 
L 103.198465 -271.307449 
L 101.567035 -215.70657 
L 99.935605 -269.333644 
L 98.304175 -249.375077 
L 96.672746 -268.477161 
L 95.041316 -244.951455 
L 93.409886 -257.058948 
L 91.778456 -257.911198 
L 90.147026 -257.223321 
L 88.515596 -216.852156 
L 86.884166 -259.168841 
L 85.252736 -258.300606 
L 83.621307 -264.483267 
L 81.989877 -247.926123 
L 80.358447 -224.973579 
L 78.727017 -210.713707 
L 77.095587 -209.800461 
L 75.464157 -264.226152 
L 73.832727 -230.619833 
z
" style="stroke: #ffffff; stroke-opacity: 0.2"/>
    </defs>
    <g clip-path="url(#p7588bd0fe7)">
     <use xlink:href="#m465521afbb" x="0" y="345.6" style="fill: #1f77b4; fill-opacity: 0.2; stroke: #ffffff; stroke-opacity: 0.2"/>
    </g>
   </g>
   <g id="line2d_15">
    <path d="M 73.832727 147.681623 
L 75.464157 114.232783 
L 77.095587 164.591531 
L 78.727017 196.742348 
L 80.358447 168.697848 
L 81.989877 126.961573 
L 83.621307 144.864526 
L 85.252736 141.405148 
L 86.884166 151.914685 
L 88.515596 163.498148 
L 90.147026 98.274099 
L 91.778456 111.290227 
L 93.409886 151.682151 
L 95.041316 120.210583 
L 96.672746 111.613807 
L 98.304175 129.520408 
L 99.935605 157.706229 
L 101.567035 196.396877 
L 103.198465 123.852924 
L 104.829895 80.33359 
L 106.461325 141.172178 
L 108.092755 142.382902 
L 109.724185 126.575409 
L 111.355614 132.055959 
L 112.987044 123.5833 
L 114.618474 135.519278 
L 116.249904 132.802956 
L 117.881334 105.779727 
L 119.512764 156.138567 
L 121.144194 147.56713 
L 122.775624 183.467551 
L 124.407053 174.130996 
L 126.038483 158.450807 
L 127.669913 129.128693 
L 129.301343 148.372038 
L 130.932773 175.506195 
L 132.564203 173.565049 
L 134.195633 115.097177 
L 135.827063 170.309918 
L 137.458492 144.163714 
L 139.089922 149.366051 
L 140.721352 136.097615 
L 142.352782 107.512882 
L 143.984212 177.617702 
L 145.615642 150.952619 
L 147.247072 115.242706 
L 148.878502 207.932995 
L 150.509931 155.175426 
L 152.141361 160.243255 
L 155.404221 117.269503 
L 157.035651 115.876486 
L 158.667081 135.929322 
L 160.298511 146.719121 
L 161.929941 146.664742 
L 163.56137 157.468452 
L 165.1928 125.107084 
L 166.82423 222.508913 
L 168.45566 184.294734 
L 170.08709 151.486352 
L 171.71852 125.111771 
L 173.34995 140.106117 
L 174.98138 127.014556 
L 176.61281 118.130131 
L 178.244239 173.543277 
L 179.875669 153.675029 
L 181.507099 161.211673 
L 183.138529 140.140793 
L 184.769959 124.857787 
L 186.401389 138.993145 
L 188.032819 200.848556 
L 189.664249 160.056217 
L 191.295678 138.044198 
L 192.927108 94.098818 
L 194.558538 174.261703 
L 196.189968 137.124807 
L 197.821398 135.096842 
L 199.452828 108.184912 
L 201.084258 170.305951 
L 202.715688 139.830379 
L 204.347117 143.544654 
L 205.978547 115.164758 
L 207.609977 174.85287 
L 209.241407 177.424028 
L 210.872837 133.939737 
L 212.504267 104.983269 
L 214.135697 170.236046 
L 217.398556 131.467174 
L 219.029986 146.279475 
L 220.661416 135.090034 
L 222.292846 138.273458 
L 223.924276 191.21837 
L 225.555706 118.917556 
L 227.187136 148.084181 
L 228.818566 124.400115 
L 230.449995 133.2917 
L 232.081425 165.182579 
L 233.712855 117.986376 
L 235.344285 143.689271 
L 236.975715 182.784543 
L 238.607145 120.30076 
L 240.238575 152.765513 
L 241.870005 150.353087 
L 243.501434 143.141085 
L 245.132864 106.159619 
L 246.764294 138.144814 
L 248.395724 134.531323 
L 250.027154 176.468703 
L 251.658584 173.697791 
L 253.290014 130.338925 
L 254.921444 150.435736 
L 256.552873 130.121789 
L 258.184303 168.30638 
L 259.815733 148.461557 
L 261.447163 139.47863 
L 263.078593 199.522607 
L 264.710023 148.477001 
L 266.341453 144.816434 
L 267.972883 171.337513 
L 271.235742 126.901945 
L 272.867172 150.816024 
L 274.498602 157.066079 
L 276.130032 152.132642 
L 277.761462 170.895666 
L 279.392892 134.18205 
L 281.024322 140.747087 
L 282.655751 139.214385 
L 284.287181 156.307369 
L 287.550041 116.013047 
L 289.181471 117.289702 
L 290.812901 93.782499 
L 292.444331 130.740163 
L 294.075761 115.137943 
L 295.70719 178.296729 
L 297.33862 136.948904 
L 298.97005 104.935595 
L 300.60148 147.77217 
L 302.23291 178.057839 
L 303.86434 151.623858 
L 305.49577 168.189233 
L 307.1272 123.269037 
L 308.75863 203.86005 
L 310.390059 111.346743 
L 312.021489 137.006718 
L 313.652919 142.460277 
L 315.284349 130.852869 
L 316.915779 136.10458 
L 318.547209 163.831246 
L 320.178639 119.645104 
L 321.810069 113.562611 
L 323.441498 150.227345 
L 325.072928 81.294038 
L 326.704358 115.938232 
L 328.335788 159.654764 
L 329.967218 140.628235 
L 331.598648 168.596354 
L 333.230078 131.966502 
L 334.861508 100.861365 
L 336.492937 131.233271 
L 338.124367 137.56848 
L 339.755797 148.240984 
L 341.387227 146.618885 
L 343.018657 98.785129 
L 344.650087 143.286489 
L 346.281517 116.188435 
L 347.912947 155.745796 
L 349.544376 128.185587 
L 351.175806 112.602935 
L 352.807236 154.234441 
L 354.438666 121.373509 
L 356.070096 98.019803 
L 357.701526 183.109851 
L 359.332956 188.273517 
L 360.964386 177.095861 
L 362.595815 109.1018 
L 364.227245 176.568516 
L 365.858675 143.36543 
L 367.490105 166.749523 
L 369.121535 148.522117 
L 370.752965 158.688541 
L 372.384395 125.823689 
L 374.015825 159.219592 
L 375.647254 125.699898 
L 377.278684 133.414337 
L 378.910114 101.031553 
L 380.541544 148.097989 
L 382.172974 136.121838 
L 383.804404 158.456651 
L 385.435834 184.689707 
L 387.067264 145.274418 
L 388.698693 146.391248 
L 390.330123 138.409955 
L 391.961553 140.207549 
L 393.592983 145.025315 
L 395.224413 144.979447 
L 396.855843 113.080407 
L 398.487273 196.255599 
L 398.487273 196.255599 
" clip-path="url(#p7588bd0fe7)" style="fill: none; stroke: #1f77b4; stroke-width: 1.5; stroke-linecap: round"/>
   </g>
   <g id="LineCollection_1">
    <path d="M 398.487273 295.488 
L 398.487273 53.568 
" clip-path="url(#p7588bd0fe7)" style="fill: none; stroke-dasharray: 5.55,2.4; stroke-dashoffset: 0; stroke: #1f77b4; stroke-width: 1.5"/>
   </g>
   <g id="patch_3">
    <path d="M 57.6 307.584 
L 57.6 41.472 
" style="fill: none; stroke: #cccccc; stroke-width: 0.8; stroke-linejoin: miter; stroke-linecap: square"/>
   </g>
   <g id="patch_4">
    <path d="M 414.72 307.584 
L 414.72 41.472 
" style="fill: none; stroke: #cccccc; stroke-width: 0.8; stroke-linejoin: miter; stroke-linecap: square"/>
   </g>
   <g id="patch_5">
    <path d="M 57.6 307.584 
L 414.72 307.584 
" style="fill: none; stroke: #cccccc; stroke-width: 0.8; stroke-linejoin: miter; stroke-linecap: square"/>
   </g>
   <g id="patch_6">
    <path d="M 57.6 41.472 
L 414.72 41.472 
" style="fill: none; stroke: #cccccc; stroke-width: 0.8; stroke-linejoin: miter; stroke-linecap: square"/>
   </g>
   <g id="text_17">
    <!-- Model performance vs. # of iterations -->
    <g style="fill: #262626" transform="translate(122.314688 35.472)scale(0.12 -0.12)">
     <defs>
      <path id="DejaVuSans-4d" d="M 628 4666 
L 1569 4666 
L 2759 1491 
L 3956 4666 
L 4897 4666 
L 4897 0 
L 4281 0 
L 4281 4097 
L 3078 897 
L 2444 897 
L 1241 4097 
L 1241 0 
L 628 0 
L 628 4666 
z
" transform="scale(0.015625)"/>
      <path id="DejaVuSans-64" d="M 2906 2969 
L 2906 4863 
L 3481 4863 
L 3481 0 
L 2906 0 
L 2906 525 
Q 2725 213 2448 61 
Q 2172 -91 1784 -91 
Q 1150 -91 751 415 
Q 353 922 353 1747 
Q 353 2572 751 3078 
Q 1150 3584 1784 3584 
Q 2172 3584 2448 3432 
Q 2725 3281 2906 2969 
z
M 947 1747 
Q 947 1113 1208 752 
Q 1469 391 1925 391 
Q 2381 391 2643 752 
Q 2906 1113 2906 1747 
Q 2906 2381 2643 2742 
Q 2381 3103 1925 3103 
Q 1469 3103 1208 2742 
Q 947 2381 947 1747 
z
" transform="scale(0.015625)"/>
      <path id="DejaVuSans-6c" d="M 603 4863 
L 1178 4863 
L 1178 0 
L 603 0 
L 603 4863 
z
" transform="scale(0.015625)"/>
      <path id="DejaVuSans-20" transform="scale(0.015625)"/>
      <path id="DejaVuSans-70" d="M 1159 525 
L 1159 -1331 
L 581 -1331 
L 581 3500 
L 1159 3500 
L 1159 2969 
Q 1341 3281 1617 3432 
Q 1894 3584 2278 3584 
Q 2916 3584 3314 3078 
Q 3713 2572 3713 1747 
Q 3713 922 3314 415 
Q 2916 -91 2278 -91 
Q 1894 -91 1617 61 
Q 1341 213 1159 525 
z
M 3116 1747 
Q 3116 2381 2855 2742 
Q 2594 3103 2138 3103 
Q 1681 3103 1420 2742 
Q 1159 2381 1159 1747 
Q 1159 1113 1420 752 
Q 1681 391 2138 391 
Q 2594 391 2855 752 
Q 3116 1113 3116 1747 
z
" transform="scale(0.015625)"/>
      <path id="DejaVuSans-66" d="M 2375 4863 
L 2375 4384 
L 1825 4384 
Q 1516 4384 1395 4259 
Q 1275 4134 1275 3809 
L 1275 3500 
L 2222 3500 
L 2222 3053 
L 1275 3053 
L 1275 0 
L 697 0 
L 697 3053 
L 147 3053 
L 147 3500 
L 697 3500 
L 697 3744 
Q 697 4328 969 4595 
Q 1241 4863 1831 4863 
L 2375 4863 
z
" transform="scale(0.015625)"/>
      <path id="DejaVuSans-6d" d="M 3328 2828 
Q 3544 3216 3844 3400 
Q 4144 3584 4550 3584 
Q 5097 3584 5394 3201 
Q 5691 2819 5691 2113 
L 5691 0 
L 5113 0 
L 5113 2094 
Q 5113 2597 4934 2840 
Q 4756 3084 4391 3084 
Q 3944 3084 3684 2787 
Q 3425 2491 3425 1978 
L 3425 0 
L 2847 0 
L 2847 2094 
Q 2847 2600 2669 2842 
Q 2491 3084 2119 3084 
Q 1678 3084 1418 2786 
Q 1159 2488 1159 1978 
L 1159 0 
L 581 0 
L 581 3500 
L 1159 3500 
L 1159 2956 
Q 1356 3278 1631 3431 
Q 1906 3584 2284 3584 
Q 2666 3584 2933 3390 
Q 3200 3197 3328 2828 
z
" transform="scale(0.015625)"/>
      <path id="DejaVuSans-76" d="M 191 3500 
L 800 3500 
L 1894 563 
L 2988 3500 
L 3597 3500 
L 2284 0 
L 1503 0 
L 191 3500 
z
" transform="scale(0.015625)"/>
      <path id="DejaVuSans-73" d="M 2834 3397 
L 2834 2853 
Q 2591 2978 2328 3040 
Q 2066 3103 1784 3103 
Q 1356 3103 1142 2972 
Q 928 2841 928 2578 
Q 928 2378 1081 2264 
Q 1234 2150 1697 2047 
L 1894 2003 
Q 2506 1872 2764 1633 
Q 3022 1394 3022 966 
Q 3022 478 2636 193 
Q 2250 -91 1575 -91 
Q 1294 -91 989 -36 
Q 684 19 347 128 
L 347 722 
Q 666 556 975 473 
Q 1284 391 1588 391 
Q 1994 391 2212 530 
Q 2431 669 2431 922 
Q 2431 1156 2273 1281 
Q 2116 1406 1581 1522 
L 1381 1569 
Q 847 1681 609 1914 
Q 372 2147 372 2553 
Q 372 3047 722 3315 
Q 1072 3584 1716 3584 
Q 2034 3584 2315 3537 
Q 2597 3491 2834 3397 
z
" transform="scale(0.015625)"/>
      <path id="DejaVuSans-23" d="M 3272 2816 
L 2363 2816 
L 2100 1772 
L 3016 1772 
L 3272 2816 
z
M 2803 4594 
L 2478 3297 
L 3391 3297 
L 3719 4594 
L 4219 4594 
L 3897 3297 
L 4872 3297 
L 4872 2816 
L 3775 2816 
L 3519 1772 
L 4513 1772 
L 4513 1294 
L 3397 1294 
L 3072 0 
L 2572 0 
L 2894 1294 
L 1978 1294 
L 1656 0 
L 1153 0 
L 1478 1294 
L 494 1294 
L 494 1772 
L 1594 1772 
L 1856 2816 
L 850 2816 
L 850 3297 
L 1978 3297 
L 2297 4594 
L 2803 4594 
z
" transform="scale(0.015625)"/>
     </defs>
     <use xlink:href="#DejaVuSans-4d"/>
     <use xlink:href="#DejaVuSans-6f" x="86.279297"/>
     <use xlink:href="#DejaVuSans-64" x="147.460938"/>
     <use xlink:href="#DejaVuSans-65" x="210.9375"/>
     <use xlink:href="#DejaVuSans-6c" x="272.460938"/>
     <use xlink:href="#DejaVuSans-20" x="300.244141"/>
     <use xlink:href="#DejaVuSans-70" x="332.03125"/>
     <use xlink:href="#DejaVuSans-65" x="395.507812"/>
     <use xlink:href="#DejaVuSans-72" x="457.03125"/>
     <use xlink:href="#DejaVuSans-66" x="498.144531"/>
     <use xlink:href="#DejaVuSans-6f" x="533.349609"/>
     <use xlink:href="#DejaVuSans-72" x="594.53125"/>
     <use xlink:href="#DejaVuSans-6d" x="633.894531"/>
     <use xlink:href="#DejaVuSans-61" x="731.306641"/>
     <use xlink:href="#DejaVuSans-6e" x="792.585938"/>
     <use xlink:href="#DejaVuSans-63" x="855.964844"/>
     <use xlink:href="#DejaVuSans-65" x="910.945312"/>
     <use xlink:href="#DejaVuSans-20" x="972.46875"/>
     <use xlink:href="#DejaVuSans-76" x="1004.255859"/>
     <use xlink:href="#DejaVuSans-73" x="1063.435547"/>
     <use xlink:href="#DejaVuSans-2e" x="1115.535156"/>
     <use xlink:href="#DejaVuSans-20" x="1147.322266"/>
     <use xlink:href="#DejaVuSans-23" x="1179.109375"/>
     <use xlink:href="#DejaVuSans-20" x="1262.898438"/>
     <use xlink:href="#DejaVuSans-6f" x="1294.685547"/>
     <use xlink:href="#DejaVuSans-66" x="1355.867188"/>
     <use xlink:href="#DejaVuSans-20" x="1391.072266"/>
     <use xlink:href="#DejaVuSans-69" x="1422.859375"/>
     <use xlink:href="#DejaVuSans-74" x="1450.642578"/>
     <use xlink:href="#DejaVuSans-65" x="1489.851562"/>
     <use xlink:href="#DejaVuSans-72" x="1551.375"/>
     <use xlink:href="#DejaVuSans-61" x="1592.488281"/>
     <use xlink:href="#DejaVuSans-74" x="1653.767578"/>
     <use xlink:href="#DejaVuSans-69" x="1692.976562"/>
     <use xlink:href="#DejaVuSans-6f" x="1720.759766"/>
     <use xlink:href="#DejaVuSans-6e" x="1781.941406"/>
     <use xlink:href="#DejaVuSans-73" x="1845.320312"/>
    </g>
   </g>
  </g>
 </g>
 <defs>
  <clipPath id="p7588bd0fe7">
   <rect x="57.6" y="41.472" width="357.12" height="266.112"/>
  </clipPath>
 </defs>
</svg>
