<?xml version="1.0" encoding="utf-8" standalone="no"?>
<!DOCTYPE svg PUBLIC "-//W3C//DTD SVG 1.1//EN"
  "http://www.w3.org/Graphics/SVG/1.1/DTD/svg11.dtd">
<svg xmlns:xlink="http://www.w3.org/1999/xlink" width="460.8pt" height="345.6pt" viewBox="0 0 460.8 345.6" xmlns="http://www.w3.org/2000/svg" version="1.1">
 <metadata>
  <rdf:RDF xmlns:dc="http://purl.org/dc/elements/1.1/" xmlns:cc="http://creativecommons.org/ns#" xmlns:rdf="http://www.w3.org/1999/02/22-rdf-syntax-ns#">
   <cc:Work>
    <dc:type rdf:resource="http://purl.org/dc/dcmitype/StillImage"/>
    <dc:date>2022-10-28T22:12:35.888410</dc:date>
    <dc:format>image/svg+xml</dc:format>
    <dc:creator>
     <cc:Agent>
      <dc:title>Matplotlib v3.5.2, https://matplotlib.org/</dc:title>
     </cc:Agent>
    </dc:creator>
   </cc:Work>
  </rdf:RDF>
 </metadata>
 <defs>
  <style type="text/css">*{stroke-linejoin: round; stroke-linecap: butt}</style>
 </defs>
 <g id="figure_1">
  <g id="patch_1">
   <path d="M 0 345.6 
L 460.8 345.6 
L 460.8 0 
L 0 0 
z
" style="fill: #ffffff"/>
  </g>
  <g id="axes_1">
   <g id="patch_2">
    <path d="M 57.6 307.584 
L 414.72 307.584 
L 414.72 41.472 
L 57.6 41.472 
z
" style="fill: #ffffff"/>
   </g>
   <g id="matplotlib.axis_1">
    <g id="xtick_1">
     <g id="line2d_1">
      <path d="M 72.201297 307.584 
L 72.201297 41.472 
" clip-path="url(#pb3f13b2225)" style="fill: none; stroke: #cccccc; stroke-width: 0.8; stroke-linecap: round"/>
     </g>
     <g id="text_1">
      <!-- 0 -->
      <g style="fill: #262626" transform="translate(69.020047 322.182437)scale(0.1 -0.1)">
       <defs>
        <path id="DejaVuSans-30" d="M 2034 4250 
Q 1547 4250 1301 3770 
Q 1056 3291 1056 2328 
Q 1056 1369 1301 889 
Q 1547 409 2034 409 
Q 2525 409 2770 889 
Q 3016 1369 3016 2328 
Q 3016 3291 2770 3770 
Q 2525 4250 2034 4250 
z
M 2034 4750 
Q 2819 4750 3233 4129 
Q 3647 3509 3647 2328 
Q 3647 1150 3233 529 
Q 2819 -91 2034 -91 
Q 1250 -91 836 529 
Q 422 1150 422 2328 
Q 422 3509 836 4129 
Q 1250 4750 2034 4750 
z
" transform="scale(0.015625)"/>
       </defs>
       <use xlink:href="#DejaVuSans-30"/>
      </g>
     </g>
    </g>
    <g id="xtick_2">
     <g id="line2d_2">
      <path d="M 112.987044 307.584 
L 112.987044 41.472 
" clip-path="url(#pb3f13b2225)" style="fill: none; stroke: #cccccc; stroke-width: 0.8; stroke-linecap: round"/>
     </g>
     <g id="text_2">
      <!-- 25 -->
      <g style="fill: #262626" transform="translate(106.624544 322.182437)scale(0.1 -0.1)">
       <defs>
        <path id="DejaVuSans-32" d="M 1228 531 
L 3431 531 
L 3431 0 
L 469 0 
L 469 531 
Q 828 903 1448 1529 
Q 2069 2156 2228 2338 
Q 2531 2678 2651 2914 
Q 2772 3150 2772 3378 
Q 2772 3750 2511 3984 
Q 2250 4219 1831 4219 
Q 1534 4219 1204 4116 
Q 875 4013 500 3803 
L 500 4441 
Q 881 4594 1212 4672 
Q 1544 4750 1819 4750 
Q 2544 4750 2975 4387 
Q 3406 4025 3406 3419 
Q 3406 3131 3298 2873 
Q 3191 2616 2906 2266 
Q 2828 2175 2409 1742 
Q 1991 1309 1228 531 
z
" transform="scale(0.015625)"/>
        <path id="DejaVuSans-35" d="M 691 4666 
L 3169 4666 
L 3169 4134 
L 1269 4134 
L 1269 2991 
Q 1406 3038 1543 3061 
Q 1681 3084 1819 3084 
Q 2600 3084 3056 2656 
Q 3513 2228 3513 1497 
Q 3513 744 3044 326 
Q 2575 -91 1722 -91 
Q 1428 -91 1123 -41 
Q 819 9 494 109 
L 494 744 
Q 775 591 1075 516 
Q 1375 441 1709 441 
Q 2250 441 2565 725 
Q 2881 1009 2881 1497 
Q 2881 1984 2565 2268 
Q 2250 2553 1709 2553 
Q 1456 2553 1204 2497 
Q 953 2441 691 2322 
L 691 4666 
z
" transform="scale(0.015625)"/>
       </defs>
       <use xlink:href="#DejaVuSans-32"/>
       <use xlink:href="#DejaVuSans-35" x="63.623047"/>
      </g>
     </g>
    </g>
    <g id="xtick_3">
     <g id="line2d_3">
      <path d="M 153.772791 307.584 
L 153.772791 41.472 
" clip-path="url(#pb3f13b2225)" style="fill: none; stroke: #cccccc; stroke-width: 0.8; stroke-linecap: round"/>
     </g>
     <g id="text_3">
      <!-- 50 -->
      <g style="fill: #262626" transform="translate(147.410291 322.182437)scale(0.1 -0.1)">
       <use xlink:href="#DejaVuSans-35"/>
       <use xlink:href="#DejaVuSans-30" x="63.623047"/>
      </g>
     </g>
    </g>
    <g id="xtick_4">
     <g id="line2d_4">
      <path d="M 194.558538 307.584 
L 194.558538 41.472 
" clip-path="url(#pb3f13b2225)" style="fill: none; stroke: #cccccc; stroke-width: 0.8; stroke-linecap: round"/>
     </g>
     <g id="text_4">
      <!-- 75 -->
      <g style="fill: #262626" transform="translate(188.196038 322.182437)scale(0.1 -0.1)">
       <defs>
        <path id="DejaVuSans-37" d="M 525 4666 
L 3525 4666 
L 3525 4397 
L 1831 0 
L 1172 0 
L 2766 4134 
L 525 4134 
L 525 4666 
z
" transform="scale(0.015625)"/>
       </defs>
       <use xlink:href="#DejaVuSans-37"/>
       <use xlink:href="#DejaVuSans-35" x="63.623047"/>
      </g>
     </g>
    </g>
    <g id="xtick_5">
     <g id="line2d_5">
      <path d="M 235.344285 307.584 
L 235.344285 41.472 
" clip-path="url(#pb3f13b2225)" style="fill: none; stroke: #cccccc; stroke-width: 0.8; stroke-linecap: round"/>
     </g>
     <g id="text_5">
      <!-- 100 -->
      <g style="fill: #262626" transform="translate(225.800535 322.182437)scale(0.1 -0.1)">
       <defs>
        <path id="DejaVuSans-31" d="M 794 531 
L 1825 531 
L 1825 4091 
L 703 3866 
L 703 4441 
L 1819 4666 
L 2450 4666 
L 2450 531 
L 3481 531 
L 3481 0 
L 794 0 
L 794 531 
z
" transform="scale(0.015625)"/>
       </defs>
       <use xlink:href="#DejaVuSans-31"/>
       <use xlink:href="#DejaVuSans-30" x="63.623047"/>
       <use xlink:href="#DejaVuSans-30" x="127.246094"/>
      </g>
     </g>
    </g>
    <g id="xtick_6">
     <g id="line2d_6">
      <path d="M 276.130032 307.584 
L 276.130032 41.472 
" clip-path="url(#pb3f13b2225)" style="fill: none; stroke: #cccccc; stroke-width: 0.8; stroke-linecap: round"/>
     </g>
     <g id="text_6">
      <!-- 125 -->
      <g style="fill: #262626" transform="translate(266.586282 322.182437)scale(0.1 -0.1)">
       <use xlink:href="#DejaVuSans-31"/>
       <use xlink:href="#DejaVuSans-32" x="63.623047"/>
       <use xlink:href="#DejaVuSans-35" x="127.246094"/>
      </g>
     </g>
    </g>
    <g id="xtick_7">
     <g id="line2d_7">
      <path d="M 316.915779 307.584 
L 316.915779 41.472 
" clip-path="url(#pb3f13b2225)" style="fill: none; stroke: #cccccc; stroke-width: 0.8; stroke-linecap: round"/>
     </g>
     <g id="text_7">
      <!-- 150 -->
      <g style="fill: #262626" transform="translate(307.372029 322.182437)scale(0.1 -0.1)">
       <use xlink:href="#DejaVuSans-31"/>
       <use xlink:href="#DejaVuSans-35" x="63.623047"/>
       <use xlink:href="#DejaVuSans-30" x="127.246094"/>
      </g>
     </g>
    </g>
    <g id="xtick_8">
     <g id="line2d_8">
      <path d="M 357.701526 307.584 
L 357.701526 41.472 
" clip-path="url(#pb3f13b2225)" style="fill: none; stroke: #cccccc; stroke-width: 0.8; stroke-linecap: round"/>
     </g>
     <g id="text_8">
      <!-- 175 -->
      <g style="fill: #262626" transform="translate(348.157776 322.182437)scale(0.1 -0.1)">
       <use xlink:href="#DejaVuSans-31"/>
       <use xlink:href="#DejaVuSans-37" x="63.623047"/>
       <use xlink:href="#DejaVuSans-35" x="127.246094"/>
      </g>
     </g>
    </g>
    <g id="xtick_9">
     <g id="line2d_9">
      <path d="M 398.487273 307.584 
L 398.487273 41.472 
" clip-path="url(#pb3f13b2225)" style="fill: none; stroke: #cccccc; stroke-width: 0.8; stroke-linecap: round"/>
     </g>
     <g id="text_9">
      <!-- 200 -->
      <g style="fill: #262626" transform="translate(388.943523 322.182437)scale(0.1 -0.1)">
       <use xlink:href="#DejaVuSans-32"/>
       <use xlink:href="#DejaVuSans-30" x="63.623047"/>
       <use xlink:href="#DejaVuSans-30" x="127.246094"/>
      </g>
     </g>
    </g>
    <g id="text_10">
     <!-- Iteration -->
     <g style="fill: #262626" transform="translate(214.951406 335.860562)scale(0.1 -0.1)">
      <defs>
       <path id="DejaVuSans-49" d="M 628 4666 
L 1259 4666 
L 1259 0 
L 628 0 
L 628 4666 
z
" transform="scale(0.015625)"/>
       <path id="DejaVuSans-74" d="M 1172 4494 
L 1172 3500 
L 2356 3500 
L 2356 3053 
L 1172 3053 
L 1172 1153 
Q 1172 725 1289 603 
Q 1406 481 1766 481 
L 2356 481 
L 2356 0 
L 1766 0 
Q 1100 0 847 248 
Q 594 497 594 1153 
L 594 3053 
L 172 3053 
L 172 3500 
L 594 3500 
L 594 4494 
L 1172 4494 
z
" transform="scale(0.015625)"/>
       <path id="DejaVuSans-65" d="M 3597 1894 
L 3597 1613 
L 953 1613 
Q 991 1019 1311 708 
Q 1631 397 2203 397 
Q 2534 397 2845 478 
Q 3156 559 3463 722 
L 3463 178 
Q 3153 47 2828 -22 
Q 2503 -91 2169 -91 
Q 1331 -91 842 396 
Q 353 884 353 1716 
Q 353 2575 817 3079 
Q 1281 3584 2069 3584 
Q 2775 3584 3186 3129 
Q 3597 2675 3597 1894 
z
M 3022 2063 
Q 3016 2534 2758 2815 
Q 2500 3097 2075 3097 
Q 1594 3097 1305 2825 
Q 1016 2553 972 2059 
L 3022 2063 
z
" transform="scale(0.015625)"/>
       <path id="DejaVuSans-72" d="M 2631 2963 
Q 2534 3019 2420 3045 
Q 2306 3072 2169 3072 
Q 1681 3072 1420 2755 
Q 1159 2438 1159 1844 
L 1159 0 
L 581 0 
L 581 3500 
L 1159 3500 
L 1159 2956 
Q 1341 3275 1631 3429 
Q 1922 3584 2338 3584 
Q 2397 3584 2469 3576 
Q 2541 3569 2628 3553 
L 2631 2963 
z
" transform="scale(0.015625)"/>
       <path id="DejaVuSans-61" d="M 2194 1759 
Q 1497 1759 1228 1600 
Q 959 1441 959 1056 
Q 959 750 1161 570 
Q 1363 391 1709 391 
Q 2188 391 2477 730 
Q 2766 1069 2766 1631 
L 2766 1759 
L 2194 1759 
z
M 3341 1997 
L 3341 0 
L 2766 0 
L 2766 531 
Q 2569 213 2275 61 
Q 1981 -91 1556 -91 
Q 1019 -91 701 211 
Q 384 513 384 1019 
Q 384 1609 779 1909 
Q 1175 2209 1959 2209 
L 2766 2209 
L 2766 2266 
Q 2766 2663 2505 2880 
Q 2244 3097 1772 3097 
Q 1472 3097 1187 3025 
Q 903 2953 641 2809 
L 641 3341 
Q 956 3463 1253 3523 
Q 1550 3584 1831 3584 
Q 2591 3584 2966 3190 
Q 3341 2797 3341 1997 
z
" transform="scale(0.015625)"/>
       <path id="DejaVuSans-69" d="M 603 3500 
L 1178 3500 
L 1178 0 
L 603 0 
L 603 3500 
z
M 603 4863 
L 1178 4863 
L 1178 4134 
L 603 4134 
L 603 4863 
z
" transform="scale(0.015625)"/>
       <path id="DejaVuSans-6f" d="M 1959 3097 
Q 1497 3097 1228 2736 
Q 959 2375 959 1747 
Q 959 1119 1226 758 
Q 1494 397 1959 397 
Q 2419 397 2687 759 
Q 2956 1122 2956 1747 
Q 2956 2369 2687 2733 
Q 2419 3097 1959 3097 
z
M 1959 3584 
Q 2709 3584 3137 3096 
Q 3566 2609 3566 1747 
Q 3566 888 3137 398 
Q 2709 -91 1959 -91 
Q 1206 -91 779 398 
Q 353 888 353 1747 
Q 353 2609 779 3096 
Q 1206 3584 1959 3584 
z
" transform="scale(0.015625)"/>
       <path id="DejaVuSans-6e" d="M 3513 2113 
L 3513 0 
L 2938 0 
L 2938 2094 
Q 2938 2591 2744 2837 
Q 2550 3084 2163 3084 
Q 1697 3084 1428 2787 
Q 1159 2491 1159 1978 
L 1159 0 
L 581 0 
L 581 3500 
L 1159 3500 
L 1159 2956 
Q 1366 3272 1645 3428 
Q 1925 3584 2291 3584 
Q 2894 3584 3203 3211 
Q 3513 2838 3513 2113 
z
" transform="scale(0.015625)"/>
      </defs>
      <use xlink:href="#DejaVuSans-49"/>
      <use xlink:href="#DejaVuSans-74" x="29.492188"/>
      <use xlink:href="#DejaVuSans-65" x="68.701172"/>
      <use xlink:href="#DejaVuSans-72" x="130.224609"/>
      <use xlink:href="#DejaVuSans-61" x="171.337891"/>
      <use xlink:href="#DejaVuSans-74" x="232.617188"/>
      <use xlink:href="#DejaVuSans-69" x="271.826172"/>
      <use xlink:href="#DejaVuSans-6f" x="299.609375"/>
      <use xlink:href="#DejaVuSans-6e" x="360.791016"/>
     </g>
    </g>
   </g>
   <g id="matplotlib.axis_2">
    <g id="ytick_1">
     <g id="line2d_10">
      <path d="M 57.6 254.5728 
L 414.72 254.5728 
" clip-path="url(#pb3f13b2225)" style="fill: none; stroke: #cccccc; stroke-width: 0.8; stroke-linecap: round"/>
     </g>
     <g id="text_11">
      <!-- 0.50 -->
      <g style="fill: #262626" transform="translate(28.334375 258.372019)scale(0.1 -0.1)">
       <defs>
        <path id="DejaVuSans-2e" d="M 684 794 
L 1344 794 
L 1344 0 
L 684 0 
L 684 794 
z
" transform="scale(0.015625)"/>
       </defs>
       <use xlink:href="#DejaVuSans-30"/>
       <use xlink:href="#DejaVuSans-2e" x="63.623047"/>
       <use xlink:href="#DejaVuSans-35" x="95.410156"/>
       <use xlink:href="#DejaVuSans-30" x="159.033203"/>
      </g>
     </g>
    </g>
    <g id="ytick_2">
     <g id="line2d_11">
      <path d="M 57.6 200.321821 
L 414.72 200.321821 
" clip-path="url(#pb3f13b2225)" style="fill: none; stroke: #cccccc; stroke-width: 0.8; stroke-linecap: round"/>
     </g>
     <g id="text_12">
      <!-- 0.55 -->
      <g style="fill: #262626" transform="translate(28.334375 204.12104)scale(0.1 -0.1)">
       <use xlink:href="#DejaVuSans-30"/>
       <use xlink:href="#DejaVuSans-2e" x="63.623047"/>
       <use xlink:href="#DejaVuSans-35" x="95.410156"/>
       <use xlink:href="#DejaVuSans-35" x="159.033203"/>
      </g>
     </g>
    </g>
    <g id="ytick_3">
     <g id="line2d_12">
      <path d="M 57.6 146.070843 
L 414.72 146.070843 
" clip-path="url(#pb3f13b2225)" style="fill: none; stroke: #cccccc; stroke-width: 0.8; stroke-linecap: round"/>
     </g>
     <g id="text_13">
      <!-- 0.60 -->
      <g style="fill: #262626" transform="translate(28.334375 149.870061)scale(0.1 -0.1)">
       <defs>
        <path id="DejaVuSans-36" d="M 2113 2584 
Q 1688 2584 1439 2293 
Q 1191 2003 1191 1497 
Q 1191 994 1439 701 
Q 1688 409 2113 409 
Q 2538 409 2786 701 
Q 3034 994 3034 1497 
Q 3034 2003 2786 2293 
Q 2538 2584 2113 2584 
z
M 3366 4563 
L 3366 3988 
Q 3128 4100 2886 4159 
Q 2644 4219 2406 4219 
Q 1781 4219 1451 3797 
Q 1122 3375 1075 2522 
Q 1259 2794 1537 2939 
Q 1816 3084 2150 3084 
Q 2853 3084 3261 2657 
Q 3669 2231 3669 1497 
Q 3669 778 3244 343 
Q 2819 -91 2113 -91 
Q 1303 -91 875 529 
Q 447 1150 447 2328 
Q 447 3434 972 4092 
Q 1497 4750 2381 4750 
Q 2619 4750 2861 4703 
Q 3103 4656 3366 4563 
z
" transform="scale(0.015625)"/>
       </defs>
       <use xlink:href="#DejaVuSans-30"/>
       <use xlink:href="#DejaVuSans-2e" x="63.623047"/>
       <use xlink:href="#DejaVuSans-36" x="95.410156"/>
       <use xlink:href="#DejaVuSans-30" x="159.033203"/>
      </g>
     </g>
    </g>
    <g id="ytick_4">
     <g id="line2d_13">
      <path d="M 57.6 91.819864 
L 414.72 91.819864 
" clip-path="url(#pb3f13b2225)" style="fill: none; stroke: #cccccc; stroke-width: 0.8; stroke-linecap: round"/>
     </g>
     <g id="text_14">
      <!-- 0.65 -->
      <g style="fill: #262626" transform="translate(28.334375 95.619083)scale(0.1 -0.1)">
       <use xlink:href="#DejaVuSans-30"/>
       <use xlink:href="#DejaVuSans-2e" x="63.623047"/>
       <use xlink:href="#DejaVuSans-36" x="95.410156"/>
       <use xlink:href="#DejaVuSans-35" x="159.033203"/>
      </g>
     </g>
    </g>
    <g id="text_15">
     <!-- Auroc -->
     <g style="fill: #262626" transform="translate(22.254688 188.868625)rotate(-90)scale(0.1 -0.1)">
      <defs>
       <path id="DejaVuSans-41" d="M 2188 4044 
L 1331 1722 
L 3047 1722 
L 2188 4044 
z
M 1831 4666 
L 2547 4666 
L 4325 0 
L 3669 0 
L 3244 1197 
L 1141 1197 
L 716 0 
L 50 0 
L 1831 4666 
z
" transform="scale(0.015625)"/>
       <path id="DejaVuSans-75" d="M 544 1381 
L 544 3500 
L 1119 3500 
L 1119 1403 
Q 1119 906 1312 657 
Q 1506 409 1894 409 
Q 2359 409 2629 706 
Q 2900 1003 2900 1516 
L 2900 3500 
L 3475 3500 
L 3475 0 
L 2900 0 
L 2900 538 
Q 2691 219 2414 64 
Q 2138 -91 1772 -91 
Q 1169 -91 856 284 
Q 544 659 544 1381 
z
M 1991 3584 
L 1991 3584 
z
" transform="scale(0.015625)"/>
       <path id="DejaVuSans-63" d="M 3122 3366 
L 3122 2828 
Q 2878 2963 2633 3030 
Q 2388 3097 2138 3097 
Q 1578 3097 1268 2742 
Q 959 2388 959 1747 
Q 959 1106 1268 751 
Q 1578 397 2138 397 
Q 2388 397 2633 464 
Q 2878 531 3122 666 
L 3122 134 
Q 2881 22 2623 -34 
Q 2366 -91 2075 -91 
Q 1284 -91 818 406 
Q 353 903 353 1747 
Q 353 2603 823 3093 
Q 1294 3584 2113 3584 
Q 2378 3584 2631 3529 
Q 2884 3475 3122 3366 
z
" transform="scale(0.015625)"/>
      </defs>
      <use xlink:href="#DejaVuSans-41"/>
      <use xlink:href="#DejaVuSans-75" x="68.408203"/>
      <use xlink:href="#DejaVuSans-72" x="131.787109"/>
      <use xlink:href="#DejaVuSans-6f" x="170.650391"/>
      <use xlink:href="#DejaVuSans-63" x="231.832031"/>
     </g>
    </g>
   </g>
   <g id="PolyCollection_1">
    <defs>
     <path id="m0778171cd1" d="M 73.832727 -232.606813 
L 73.832727 -178.531836 
L 75.464157 -193.658689 
L 77.095587 -135.122799 
L 78.727017 -126.017934 
L 80.358447 -50.112 
L 81.989877 -163.270378 
L 83.621307 -184.774552 
L 85.252736 -153.877095 
L 86.884166 -151.090162 
L 88.515596 -182.18427 
L 90.147026 -145.12689 
L 91.778456 -195.961999 
L 93.409886 -184.65007 
L 95.041316 -111.260047 
L 96.672746 -172.972383 
L 98.304175 -116.111905 
L 99.935605 -130.79716 
L 101.567035 -141.823523 
L 103.198465 -129.927117 
L 104.829895 -132.503597 
L 106.461325 -163.992409 
L 108.092755 -183.012589 
L 109.724185 -170.406731 
L 111.355614 -198.47327 
L 112.987044 -173.660329 
L 114.618474 -157.711873 
L 116.249904 -162.55603 
L 117.881334 -147.117786 
L 119.512764 -184.883143 
L 121.144194 -145.84726 
L 122.775624 -163.424856 
L 124.407053 -152.115092 
L 126.038483 -161.614743 
L 127.669913 -143.449008 
L 129.301343 -157.934437 
L 130.932773 -174.845722 
L 132.564203 -126.989623 
L 134.195633 -157.354512 
L 135.827063 -160.096583 
L 137.458492 -125.838165 
L 139.089922 -130.248751 
L 140.721352 -158.932113 
L 142.352782 -178.637876 
L 143.984212 -129.470505 
L 145.615642 -186.265146 
L 147.247072 -164.20393 
L 148.878502 -158.485811 
L 150.509931 -70.095407 
L 152.141361 -189.861918 
L 153.772791 -159.254985 
L 155.404221 -174.125582 
L 157.035651 -169.200262 
L 158.667081 -127.395491 
L 160.298511 -154.440953 
L 161.929941 -135.677632 
L 163.56137 -143.515396 
L 165.1928 -167.355288 
L 166.82423 -108.346956 
L 168.45566 -171.921057 
L 170.08709 -116.623275 
L 171.71852 -61.081671 
L 173.34995 -136.680763 
L 174.98138 -177.402049 
L 176.61281 -141.012069 
L 178.244239 -93.217123 
L 179.875669 -164.88759 
L 181.507099 -162.784151 
L 183.138529 -162.325861 
L 184.769959 -146.489509 
L 186.401389 -169.210938 
L 188.032819 -148.996145 
L 189.664249 -114.5445 
L 191.295678 -153.398106 
L 192.927108 -138.894343 
L 194.558538 -195.283987 
L 196.189968 -180.283823 
L 197.821398 -166.180595 
L 199.452828 -139.714561 
L 201.084258 -157.624657 
L 202.715688 -120.604771 
L 204.347117 -148.29058 
L 205.978547 -180.048584 
L 207.609977 -112.20746 
L 209.241407 -169.357354 
L 210.872837 -177.082679 
L 212.504267 -138.380372 
L 214.135697 -112.143903 
L 215.767127 -125.122895 
L 217.398556 -181.330474 
L 219.029986 -119.761651 
L 220.661416 -111.530016 
L 222.292846 -185.702606 
L 223.924276 -163.10836 
L 225.555706 -153.227177 
L 227.187136 -146.370873 
L 228.818566 -88.657504 
L 230.449995 -143.954245 
L 232.081425 -214.858412 
L 233.712855 -158.833703 
L 235.344285 -139.652705 
L 236.975715 -123.442214 
L 238.607145 -157.520513 
L 240.238575 -147.429566 
L 241.870005 -129.096458 
L 243.501434 -139.344675 
L 245.132864 -119.002564 
L 246.764294 -148.309085 
L 248.395724 -156.777182 
L 250.027154 -161.762984 
L 251.658584 -130.216899 
L 253.290014 -172.593368 
L 254.921444 -158.528143 
L 256.552873 -137.389273 
L 258.184303 -154.865062 
L 259.815733 -188.651869 
L 261.447163 -163.628816 
L 263.078593 -113.293401 
L 264.710023 -167.169458 
L 266.341453 -95.802202 
L 267.972883 -178.777148 
L 269.604312 -157.313177 
L 271.235742 -146.289224 
L 272.867172 -192.501983 
L 274.498602 -62.832047 
L 276.130032 -195.023865 
L 277.761462 -128.915221 
L 279.392892 -167.96219 
L 281.024322 -153.483329 
L 282.655751 -166.57934 
L 284.287181 -149.955088 
L 285.918611 -172.171673 
L 287.550041 -165.10741 
L 289.181471 -126.840148 
L 290.812901 -141.982283 
L 292.444331 -171.409598 
L 294.075761 -166.991143 
L 295.70719 -159.527178 
L 297.33862 -118.925038 
L 298.97005 -191.004636 
L 300.60148 -112.019861 
L 302.23291 -126.752942 
L 303.86434 -167.751096 
L 305.49577 -150.533811 
L 307.1272 -151.643175 
L 308.75863 -133.738004 
L 310.390059 -182.446208 
L 312.021489 -164.458935 
L 313.652919 -159.082883 
L 315.284349 -159.199588 
L 316.915779 -154.647364 
L 318.547209 -124.659691 
L 320.178639 -147.642638 
L 321.810069 -189.666996 
L 323.441498 -132.169614 
L 325.072928 -193.75848 
L 326.704358 -128.603334 
L 328.335788 -163.224366 
L 329.967218 -171.059612 
L 331.598648 -118.168666 
L 333.230078 -157.111036 
L 334.861508 -124.786651 
L 336.492937 -122.836005 
L 338.124367 -158.708997 
L 339.755797 -175.520667 
L 341.387227 -138.971447 
L 343.018657 -169.689175 
L 344.650087 -160.697066 
L 346.281517 -146.106408 
L 347.912947 -168.855254 
L 349.544376 -158.500299 
L 351.175806 -148.118752 
L 352.807236 -124.41568 
L 354.438666 -171.201854 
L 356.070096 -139.217245 
L 357.701526 -121.938499 
L 359.332956 -143.240048 
L 360.964386 -113.648782 
L 362.595815 -175.837718 
L 364.227245 -134.398081 
L 365.858675 -187.360633 
L 367.490105 -183.73532 
L 369.121535 -187.377665 
L 370.752965 -103.872299 
L 372.384395 -188.414727 
L 374.015825 -190.352221 
L 375.647254 -188.838858 
L 377.278684 -174.511724 
L 378.910114 -131.161209 
L 380.541544 -119.386944 
L 382.172974 -139.690626 
L 383.804404 -143.735965 
L 385.435834 -158.277399 
L 387.067264 -141.042256 
L 388.698693 -139.350381 
L 390.330123 -144.830186 
L 391.961553 -179.362095 
L 393.592983 -147.213094 
L 395.224413 -169.556003 
L 396.855843 -160.897605 
L 398.487273 -142.495055 
L 398.487273 -229.84125 
L 398.487273 -229.84125 
L 396.855843 -251.546068 
L 395.224413 -239.925109 
L 393.592983 -231.347544 
L 391.961553 -220.351293 
L 390.330123 -251.882971 
L 388.698693 -205.206302 
L 387.067264 -248.255117 
L 385.435834 -226.670229 
L 383.804404 -244.575029 
L 382.172974 -240.847928 
L 380.541544 -260.873044 
L 378.910114 -221.885482 
L 377.278684 -232.355157 
L 375.647254 -253.703037 
L 374.015825 -267.341097 
L 372.384395 -243.715259 
L 370.752965 -276.594307 
L 369.121535 -253.389955 
L 367.490105 -236.229763 
L 365.858675 -239.222469 
L 364.227245 -244.497439 
L 362.595815 -250.767646 
L 360.964386 -191.843791 
L 359.332956 -233.605293 
L 357.701526 -225.257553 
L 356.070096 -272.140075 
L 354.438666 -221.925686 
L 352.807236 -254.714221 
L 351.175806 -249.385127 
L 349.544376 -252.879962 
L 347.912947 -242.017786 
L 346.281517 -234.061101 
L 344.650087 -234.123459 
L 343.018657 -249.444428 
L 341.387227 -230.6058 
L 339.755797 -257.850531 
L 338.124367 -238.650909 
L 336.492937 -231.925041 
L 334.861508 -265.541701 
L 333.230078 -223.137086 
L 331.598648 -238.014168 
L 329.967218 -227.56215 
L 328.335788 -253.110237 
L 326.704358 -223.288935 
L 325.072928 -263.64561 
L 323.441498 -232.025728 
L 321.810069 -233.03757 
L 320.178639 -216.38274 
L 318.547209 -246.38432 
L 316.915779 -227.815014 
L 315.284349 -220.493548 
L 313.652919 -209.619588 
L 312.021489 -224.527437 
L 310.390059 -263.304873 
L 308.75863 -292.032 
L 307.1272 -218.856812 
L 305.49577 -237.054192 
L 303.86434 -253.727401 
L 302.23291 -206.430428 
L 300.60148 -223.178681 
L 298.97005 -241.360445 
L 297.33862 -229.773315 
L 295.70719 -223.418501 
L 294.075761 -232.109098 
L 292.444331 -220.213458 
L 290.812901 -243.959295 
L 289.181471 -232.396634 
L 287.550041 -218.24024 
L 285.918611 -256.027115 
L 284.287181 -229.687043 
L 282.655751 -250.736216 
L 281.024322 -212.49597 
L 279.392892 -265.787286 
L 277.761462 -238.308907 
L 276.130032 -208.330176 
L 274.498602 -219.554807 
L 272.867172 -265.752422 
L 271.235742 -216.556456 
L 269.604312 -261.910795 
L 267.972883 -262.129135 
L 266.341453 -223.894201 
L 264.710023 -211.460718 
L 263.078593 -217.28361 
L 261.447163 -248.737145 
L 259.815733 -237.451323 
L 258.184303 -231.400148 
L 256.552873 -203.631567 
L 254.921444 -212.12128 
L 253.290014 -232.529712 
L 251.658584 -192.2525 
L 250.027154 -207.06632 
L 248.395724 -278.019396 
L 246.764294 -220.221311 
L 245.132864 -260.168058 
L 243.501434 -259.218172 
L 241.870005 -219.152195 
L 240.238575 -220.316662 
L 238.607145 -233.997896 
L 236.975715 -252.921609 
L 235.344285 -239.339425 
L 233.712855 -237.485732 
L 232.081425 -229.299283 
L 230.449995 -253.384567 
L 228.818566 -236.033121 
L 227.187136 -272.490605 
L 225.555706 -239.576744 
L 223.924276 -259.287617 
L 222.292846 -225.954828 
L 220.661416 -265.45317 
L 219.029986 -245.387486 
L 217.398556 -242.170955 
L 215.767127 -213.803315 
L 214.135697 -213.801394 
L 212.504267 -210.954396 
L 210.872837 -224.123556 
L 209.241407 -232.143946 
L 207.609977 -218.476722 
L 205.978547 -250.361521 
L 204.347117 -250.878483 
L 202.715688 -250.848345 
L 201.084258 -279.750177 
L 199.452828 -259.64884 
L 197.821398 -222.083388 
L 196.189968 -232.871354 
L 194.558538 -238.191706 
L 192.927108 -230.902316 
L 191.295678 -242.207904 
L 189.664249 -209.296713 
L 188.032819 -288.347575 
L 186.401389 -213.900411 
L 184.769959 -241.498356 
L 183.138529 -222.060038 
L 181.507099 -233.380688 
L 179.875669 -209.245629 
L 178.244239 -195.347367 
L 176.61281 -255.824682 
L 174.98138 -193.475577 
L 173.34995 -238.591509 
L 171.71852 -290.948958 
L 170.08709 -237.037581 
L 168.45566 -247.607737 
L 166.82423 -165.170797 
L 165.1928 -249.697674 
L 163.56137 -223.660289 
L 161.929941 -234.635176 
L 160.298511 -219.3555 
L 158.667081 -265.178797 
L 157.035651 -258.143275 
L 155.404221 -262.401385 
L 153.772791 -214.618276 
L 152.141361 -283.283725 
L 150.509931 -285.301602 
L 148.878502 -189.046958 
L 147.247072 -208.978998 
L 145.615642 -230.066518 
L 143.984212 -250.339595 
L 142.352782 -236.424135 
L 140.721352 -277.290635 
L 139.089922 -204.883794 
L 137.458492 -214.601609 
L 135.827063 -222.690808 
L 134.195633 -218.42208 
L 132.564203 -235.899226 
L 130.932773 -224.680788 
L 129.301343 -258.232724 
L 127.669913 -271.124316 
L 126.038483 -233.620486 
L 124.407053 -213.494819 
L 122.775624 -276.897171 
L 121.144194 -197.412648 
L 119.512764 -279.5325 
L 117.881334 -248.178279 
L 116.249904 -212.423286 
L 114.618474 -254.847522 
L 112.987044 -213.386399 
L 111.355614 -247.821571 
L 109.724185 -259.409702 
L 108.092755 -271.577922 
L 106.461325 -222.128514 
L 104.829895 -221.7133 
L 103.198465 -203.448631 
L 101.567035 -250.887166 
L 99.935605 -214.293037 
L 98.304175 -237.54202 
L 96.672746 -251.878445 
L 95.041316 -173.288916 
L 93.409886 -253.599075 
L 91.778456 -272.432907 
L 90.147026 -193.00065 
L 88.515596 -240.564294 
L 86.884166 -262.647688 
L 85.252736 -209.550241 
L 83.621307 -249.061375 
L 81.989877 -226.30349 
L 80.358447 -244.437183 
L 78.727017 -218.181303 
L 77.095587 -255.862133 
L 75.464157 -238.399084 
L 73.832727 -232.606813 
z
" style="stroke: #ffffff; stroke-opacity: 0.2"/>
    </defs>
    <g clip-path="url(#pb3f13b2225)">
     <use xlink:href="#m0778171cd1" x="0" y="345.6" style="fill: #1f77b4; fill-opacity: 0.2; stroke: #ffffff; stroke-opacity: 0.2"/>
    </g>
   </g>
   <g id="line2d_14">
    <path d="M 73.832727 140.030676 
L 75.464157 129.571114 
L 77.095587 150.107534 
L 80.358447 198.325409 
L 81.989877 150.813066 
L 83.621307 128.682036 
L 85.252736 163.886332 
L 86.884166 138.731075 
L 88.515596 134.225718 
L 90.147026 176.53623 
L 91.778456 111.402547 
L 93.409886 126.475427 
L 95.041316 203.325518 
L 96.672746 133.174586 
L 98.304175 168.773038 
L 99.935605 173.054901 
L 101.567035 149.244656 
L 103.198465 178.912126 
L 104.829895 168.491552 
L 106.461325 152.539539 
L 108.092755 118.304744 
L 109.724185 130.691784 
L 111.355614 122.45258 
L 112.987044 152.076636 
L 114.618474 139.320303 
L 116.249904 158.110342 
L 117.881334 147.951967 
L 119.512764 113.392179 
L 121.144194 173.970046 
L 122.775624 125.438986 
L 124.407053 162.795045 
L 126.038483 147.982385 
L 127.669913 138.313338 
L 129.301343 137.516419 
L 130.932773 145.836745 
L 132.564203 164.155576 
L 134.195633 157.711704 
L 135.827063 154.206305 
L 137.458492 175.380113 
L 139.089922 178.033728 
L 140.721352 127.488626 
L 142.352782 138.068995 
L 143.984212 155.69495 
L 145.615642 137.434168 
L 147.247072 159.008536 
L 148.878502 171.833616 
L 150.509931 167.901495 
L 152.141361 109.027178 
L 153.772791 158.663369 
L 155.404221 127.336516 
L 157.035651 131.928231 
L 158.667081 149.312856 
L 160.298511 158.701774 
L 161.929941 160.443596 
L 163.56137 162.012158 
L 165.1928 137.073519 
L 166.82423 208.841124 
L 168.45566 135.835603 
L 170.08709 168.769572 
L 171.71852 169.584685 
L 173.34995 157.963864 
L 174.98138 160.161187 
L 176.61281 147.181624 
L 178.244239 201.317755 
L 179.875669 158.533391 
L 181.507099 147.517581 
L 183.138529 153.40705 
L 184.769959 151.606067 
L 186.401389 154.044325 
L 188.032819 126.92814 
L 189.664249 183.679394 
L 191.295678 147.796995 
L 192.927108 160.701671 
L 194.558538 128.862153 
L 196.189968 139.022412 
L 197.821398 151.468008 
L 199.452828 145.9183 
L 201.084258 126.912583 
L 202.715688 159.873442 
L 204.347117 146.015468 
L 205.978547 130.394947 
L 207.609977 180.257909 
L 209.241407 144.84935 
L 210.872837 144.996883 
L 212.504267 170.932616 
L 214.135697 182.627351 
L 215.767127 176.136895 
L 217.398556 133.849286 
L 219.029986 163.025432 
L 220.661416 157.108407 
L 222.292846 139.771283 
L 223.924276 134.402011 
L 225.555706 149.198039 
L 227.187136 136.169261 
L 228.818566 183.254688 
L 230.449995 146.930594 
L 232.081425 123.521153 
L 233.712855 147.440283 
L 235.344285 156.103935 
L 236.975715 157.418088 
L 238.607145 149.840795 
L 240.238575 161.726886 
L 241.870005 171.475673 
L 243.501434 146.318577 
L 245.132864 156.014689 
L 246.764294 161.334802 
L 248.395724 128.201711 
L 250.027154 161.185348 
L 251.658584 184.3653 
L 253.290014 143.03846 
L 254.921444 160.275289 
L 256.552873 175.08958 
L 258.184303 152.467395 
L 259.815733 132.548404 
L 261.447163 139.417019 
L 263.078593 180.311494 
L 264.710023 156.284912 
L 266.341453 185.751798 
L 267.972883 125.146859 
L 269.604312 135.988014 
L 271.235742 164.17716 
L 272.867172 116.472797 
L 274.498602 204.406573 
L 276.130032 143.922979 
L 277.761462 161.987936 
L 279.392892 128.725262 
L 281.024322 162.610351 
L 282.655751 136.942222 
L 284.287181 155.778934 
L 285.918611 131.500606 
L 287.550041 153.926175 
L 289.181471 165.981609 
L 290.812901 152.629211 
L 292.444331 149.788472 
L 294.075761 146.049879 
L 295.70719 154.127161 
L 297.33862 171.250824 
L 298.97005 129.417459 
L 300.60148 178.000729 
L 302.23291 179.008315 
L 303.86434 134.860752 
L 305.49577 151.805999 
L 307.1272 160.350006 
L 308.75863 132.714998 
L 310.390059 122.72446 
L 312.021489 151.106814 
L 313.652919 161.248765 
L 315.284349 155.753432 
L 316.915779 154.368811 
L 318.547209 160.077994 
L 320.178639 163.587311 
L 321.810069 134.247717 
L 323.441498 163.502329 
L 325.072928 116.897955 
L 326.704358 169.653866 
L 328.335788 137.432699 
L 329.967218 146.289119 
L 331.598648 167.508583 
L 333.230078 155.475939 
L 334.861508 150.435824 
L 336.492937 168.219477 
L 338.124367 146.920047 
L 339.755797 128.914401 
L 341.387227 160.811377 
L 343.018657 136.033199 
L 344.650087 148.189738 
L 346.281517 155.516245 
L 347.912947 140.16348 
L 349.544376 139.909869 
L 351.175806 146.84806 
L 352.807236 156.03505 
L 354.438666 149.03623 
L 356.070096 139.92134 
L 357.701526 172.001974 
L 359.332956 157.17733 
L 360.964386 192.853714 
L 362.595815 132.297318 
L 364.227245 156.15224 
L 365.858675 132.308449 
L 367.490105 135.617458 
L 369.121535 125.21619 
L 370.752965 155.366697 
L 372.384395 129.535007 
L 374.015825 116.753341 
L 375.647254 124.329052 
L 377.278684 142.16656 
L 378.910114 169.076655 
L 380.541544 155.470006 
L 382.172974 155.330723 
L 383.804404 151.444503 
L 385.435834 153.126186 
L 387.067264 150.951314 
L 388.698693 173.321659 
L 390.330123 147.243421 
L 391.961553 145.743306 
L 393.592983 156.319681 
L 395.224413 140.859444 
L 396.855843 139.378163 
L 398.487273 159.431848 
L 398.487273 159.431848 
" clip-path="url(#pb3f13b2225)" style="fill: none; stroke: #1f77b4; stroke-width: 1.5; stroke-linecap: round"/>
   </g>
   <g id="LineCollection_1">
    <path d="M 398.487273 295.488 
L 398.487273 53.568 
" clip-path="url(#pb3f13b2225)" style="fill: none; stroke-dasharray: 5.55,2.4; stroke-dashoffset: 0; stroke: #1f77b4; stroke-width: 1.5"/>
   </g>
   <g id="patch_3">
    <path d="M 57.6 307.584 
L 57.6 41.472 
" style="fill: none; stroke: #cccccc; stroke-width: 0.8; stroke-linejoin: miter; stroke-linecap: square"/>
   </g>
   <g id="patch_4">
    <path d="M 414.72 307.584 
L 414.72 41.472 
" style="fill: none; stroke: #cccccc; stroke-width: 0.8; stroke-linejoin: miter; stroke-linecap: square"/>
   </g>
   <g id="patch_5">
    <path d="M 57.6 307.584 
L 414.72 307.584 
" style="fill: none; stroke: #cccccc; stroke-width: 0.8; stroke-linejoin: miter; stroke-linecap: square"/>
   </g>
   <g id="patch_6">
    <path d="M 57.6 41.472 
L 414.72 41.472 
" style="fill: none; stroke: #cccccc; stroke-width: 0.8; stroke-linejoin: miter; stroke-linecap: square"/>
   </g>
   <g id="text_16">
    <!-- Model performance vs. # of iterations -->
    <g style="fill: #262626" transform="translate(122.314688 35.472)scale(0.12 -0.12)">
     <defs>
      <path id="DejaVuSans-4d" d="M 628 4666 
L 1569 4666 
L 2759 1491 
L 3956 4666 
L 4897 4666 
L 4897 0 
L 4281 0 
L 4281 4097 
L 3078 897 
L 2444 897 
L 1241 4097 
L 1241 0 
L 628 0 
L 628 4666 
z
" transform="scale(0.015625)"/>
      <path id="DejaVuSans-64" d="M 2906 2969 
L 2906 4863 
L 3481 4863 
L 3481 0 
L 2906 0 
L 2906 525 
Q 2725 213 2448 61 
Q 2172 -91 1784 -91 
Q 1150 -91 751 415 
Q 353 922 353 1747 
Q 353 2572 751 3078 
Q 1150 3584 1784 3584 
Q 2172 3584 2448 3432 
Q 2725 3281 2906 2969 
z
M 947 1747 
Q 947 1113 1208 752 
Q 1469 391 1925 391 
Q 2381 391 2643 752 
Q 2906 1113 2906 1747 
Q 2906 2381 2643 2742 
Q 2381 3103 1925 3103 
Q 1469 3103 1208 2742 
Q 947 2381 947 1747 
z
" transform="scale(0.015625)"/>
      <path id="DejaVuSans-6c" d="M 603 4863 
L 1178 4863 
L 1178 0 
L 603 0 
L 603 4863 
z
" transform="scale(0.015625)"/>
      <path id="DejaVuSans-20" transform="scale(0.015625)"/>
      <path id="DejaVuSans-70" d="M 1159 525 
L 1159 -1331 
L 581 -1331 
L 581 3500 
L 1159 3500 
L 1159 2969 
Q 1341 3281 1617 3432 
Q 1894 3584 2278 3584 
Q 2916 3584 3314 3078 
Q 3713 2572 3713 1747 
Q 3713 922 3314 415 
Q 2916 -91 2278 -91 
Q 1894 -91 1617 61 
Q 1341 213 1159 525 
z
M 3116 1747 
Q 3116 2381 2855 2742 
Q 2594 3103 2138 3103 
Q 1681 3103 1420 2742 
Q 1159 2381 1159 1747 
Q 1159 1113 1420 752 
Q 1681 391 2138 391 
Q 2594 391 2855 752 
Q 3116 1113 3116 1747 
z
" transform="scale(0.015625)"/>
      <path id="DejaVuSans-66" d="M 2375 4863 
L 2375 4384 
L 1825 4384 
Q 1516 4384 1395 4259 
Q 1275 4134 1275 3809 
L 1275 3500 
L 2222 3500 
L 2222 3053 
L 1275 3053 
L 1275 0 
L 697 0 
L 697 3053 
L 147 3053 
L 147 3500 
L 697 3500 
L 697 3744 
Q 697 4328 969 4595 
Q 1241 4863 1831 4863 
L 2375 4863 
z
" transform="scale(0.015625)"/>
      <path id="DejaVuSans-6d" d="M 3328 2828 
Q 3544 3216 3844 3400 
Q 4144 3584 4550 3584 
Q 5097 3584 5394 3201 
Q 5691 2819 5691 2113 
L 5691 0 
L 5113 0 
L 5113 2094 
Q 5113 2597 4934 2840 
Q 4756 3084 4391 3084 
Q 3944 3084 3684 2787 
Q 3425 2491 3425 1978 
L 3425 0 
L 2847 0 
L 2847 2094 
Q 2847 2600 2669 2842 
Q 2491 3084 2119 3084 
Q 1678 3084 1418 2786 
Q 1159 2488 1159 1978 
L 1159 0 
L 581 0 
L 581 3500 
L 1159 3500 
L 1159 2956 
Q 1356 3278 1631 3431 
Q 1906 3584 2284 3584 
Q 2666 3584 2933 3390 
Q 3200 3197 3328 2828 
z
" transform="scale(0.015625)"/>
      <path id="DejaVuSans-76" d="M 191 3500 
L 800 3500 
L 1894 563 
L 2988 3500 
L 3597 3500 
L 2284 0 
L 1503 0 
L 191 3500 
z
" transform="scale(0.015625)"/>
      <path id="DejaVuSans-73" d="M 2834 3397 
L 2834 2853 
Q 2591 2978 2328 3040 
Q 2066 3103 1784 3103 
Q 1356 3103 1142 2972 
Q 928 2841 928 2578 
Q 928 2378 1081 2264 
Q 1234 2150 1697 2047 
L 1894 2003 
Q 2506 1872 2764 1633 
Q 3022 1394 3022 966 
Q 3022 478 2636 193 
Q 2250 -91 1575 -91 
Q 1294 -91 989 -36 
Q 684 19 347 128 
L 347 722 
Q 666 556 975 473 
Q 1284 391 1588 391 
Q 1994 391 2212 530 
Q 2431 669 2431 922 
Q 2431 1156 2273 1281 
Q 2116 1406 1581 1522 
L 1381 1569 
Q 847 1681 609 1914 
Q 372 2147 372 2553 
Q 372 3047 722 3315 
Q 1072 3584 1716 3584 
Q 2034 3584 2315 3537 
Q 2597 3491 2834 3397 
z
" transform="scale(0.015625)"/>
      <path id="DejaVuSans-23" d="M 3272 2816 
L 2363 2816 
L 2100 1772 
L 3016 1772 
L 3272 2816 
z
M 2803 4594 
L 2478 3297 
L 3391 3297 
L 3719 4594 
L 4219 4594 
L 3897 3297 
L 4872 3297 
L 4872 2816 
L 3775 2816 
L 3519 1772 
L 4513 1772 
L 4513 1294 
L 3397 1294 
L 3072 0 
L 2572 0 
L 2894 1294 
L 1978 1294 
L 1656 0 
L 1153 0 
L 1478 1294 
L 494 1294 
L 494 1772 
L 1594 1772 
L 1856 2816 
L 850 2816 
L 850 3297 
L 1978 3297 
L 2297 4594 
L 2803 4594 
z
" transform="scale(0.015625)"/>
     </defs>
     <use xlink:href="#DejaVuSans-4d"/>
     <use xlink:href="#DejaVuSans-6f" x="86.279297"/>
     <use xlink:href="#DejaVuSans-64" x="147.460938"/>
     <use xlink:href="#DejaVuSans-65" x="210.9375"/>
     <use xlink:href="#DejaVuSans-6c" x="272.460938"/>
     <use xlink:href="#DejaVuSans-20" x="300.244141"/>
     <use xlink:href="#DejaVuSans-70" x="332.03125"/>
     <use xlink:href="#DejaVuSans-65" x="395.507812"/>
     <use xlink:href="#DejaVuSans-72" x="457.03125"/>
     <use xlink:href="#DejaVuSans-66" x="498.144531"/>
     <use xlink:href="#DejaVuSans-6f" x="533.349609"/>
     <use xlink:href="#DejaVuSans-72" x="594.53125"/>
     <use xlink:href="#DejaVuSans-6d" x="633.894531"/>
     <use xlink:href="#DejaVuSans-61" x="731.306641"/>
     <use xlink:href="#DejaVuSans-6e" x="792.585938"/>
     <use xlink:href="#DejaVuSans-63" x="855.964844"/>
     <use xlink:href="#DejaVuSans-65" x="910.945312"/>
     <use xlink:href="#DejaVuSans-20" x="972.46875"/>
     <use xlink:href="#DejaVuSans-76" x="1004.255859"/>
     <use xlink:href="#DejaVuSans-73" x="1063.435547"/>
     <use xlink:href="#DejaVuSans-2e" x="1115.535156"/>
     <use xlink:href="#DejaVuSans-20" x="1147.322266"/>
     <use xlink:href="#DejaVuSans-23" x="1179.109375"/>
     <use xlink:href="#DejaVuSans-20" x="1262.898438"/>
     <use xlink:href="#DejaVuSans-6f" x="1294.685547"/>
     <use xlink:href="#DejaVuSans-66" x="1355.867188"/>
     <use xlink:href="#DejaVuSans-20" x="1391.072266"/>
     <use xlink:href="#DejaVuSans-69" x="1422.859375"/>
     <use xlink:href="#DejaVuSans-74" x="1450.642578"/>
     <use xlink:href="#DejaVuSans-65" x="1489.851562"/>
     <use xlink:href="#DejaVuSans-72" x="1551.375"/>
     <use xlink:href="#DejaVuSans-61" x="1592.488281"/>
     <use xlink:href="#DejaVuSans-74" x="1653.767578"/>
     <use xlink:href="#DejaVuSans-69" x="1692.976562"/>
     <use xlink:href="#DejaVuSans-6f" x="1720.759766"/>
     <use xlink:href="#DejaVuSans-6e" x="1781.941406"/>
     <use xlink:href="#DejaVuSans-73" x="1845.320312"/>
    </g>
   </g>
  </g>
 </g>
 <defs>
  <clipPath id="pb3f13b2225">
   <rect x="57.6" y="41.472" width="357.12" height="266.112"/>
  </clipPath>
 </defs>
</svg>
