<?xml version="1.0" encoding="utf-8" standalone="no"?>
<!DOCTYPE svg PUBLIC "-//W3C//DTD SVG 1.1//EN"
  "http://www.w3.org/Graphics/SVG/1.1/DTD/svg11.dtd">
<svg height="345.6pt" version="1.1" viewBox="0 0 460.8 345.6" width="460.8pt" xmlns="http://www.w3.org/2000/svg" xmlns:xlink="http://www.w3.org/1999/xlink">
 <metadata>
  <rdf:RDF xmlns:cc="http://creativecommons.org/ns#" xmlns:dc="http://purl.org/dc/elements/1.1/" xmlns:rdf="http://www.w3.org/1999/02/22-rdf-syntax-ns#">
   <cc:Work>
    <dc:type rdf:resource="http://purl.org/dc/dcmitype/StillImage"/>
    <dc:date>2021-07-29T08:59:26.549256</dc:date>
    <dc:format>image/svg+xml</dc:format>
    <dc:creator>
     <cc:Agent>
      <dc:title>Matplotlib v3.4.2, https://matplotlib.org/</dc:title>
     </cc:Agent>
    </dc:creator>
   </cc:Work>
  </rdf:RDF>
 </metadata>
 <defs>
  <style type="text/css">*{stroke-linecap:butt;stroke-linejoin:round;}</style>
 </defs>
 <g id="figure_1">
  <g id="patch_1">
   <path d="M 0 345.6 
L 460.8 345.6 
L 460.8 0 
L 0 0 
z
" style="fill:#ffffff;"/>
  </g>
  <g id="axes_1">
   <g id="patch_2">
    <path d="M 57.6 307.584 
L 414.72 307.584 
L 414.72 41.472 
L 57.6 41.472 
z
" style="fill:#ffffff;"/>
   </g>
   <g id="matplotlib.axis_1">
    <g id="xtick_1">
     <g id="line2d_1">
      <path clip-path="url(#p038774ca11)" d="M 72.201297 307.584 
L 72.201297 41.472 
" style="fill:none;stroke:#cccccc;stroke-linecap:round;stroke-width:0.8;"/>
     </g>
     <g id="text_1">
      <!-- 0 -->
      <g style="fill:#262626;" transform="translate(69.020047 322.182437)scale(0.1 -0.1)">
       <defs>
        <path d="M 2034 4250 
Q 1547 4250 1301 3770 
Q 1056 3291 1056 2328 
Q 1056 1369 1301 889 
Q 1547 409 2034 409 
Q 2525 409 2770 889 
Q 3016 1369 3016 2328 
Q 3016 3291 2770 3770 
Q 2525 4250 2034 4250 
z
M 2034 4750 
Q 2819 4750 3233 4129 
Q 3647 3509 3647 2328 
Q 3647 1150 3233 529 
Q 2819 -91 2034 -91 
Q 1250 -91 836 529 
Q 422 1150 422 2328 
Q 422 3509 836 4129 
Q 1250 4750 2034 4750 
z
" id="DejaVuSans-30" transform="scale(0.015625)"/>
       </defs>
       <use xlink:href="#DejaVuSans-30"/>
      </g>
     </g>
    </g>
    <g id="xtick_2">
     <g id="line2d_2">
      <path clip-path="url(#p038774ca11)" d="M 112.987044 307.584 
L 112.987044 41.472 
" style="fill:none;stroke:#cccccc;stroke-linecap:round;stroke-width:0.8;"/>
     </g>
     <g id="text_2">
      <!-- 25 -->
      <g style="fill:#262626;" transform="translate(106.624544 322.182437)scale(0.1 -0.1)">
       <defs>
        <path d="M 1228 531 
L 3431 531 
L 3431 0 
L 469 0 
L 469 531 
Q 828 903 1448 1529 
Q 2069 2156 2228 2338 
Q 2531 2678 2651 2914 
Q 2772 3150 2772 3378 
Q 2772 3750 2511 3984 
Q 2250 4219 1831 4219 
Q 1534 4219 1204 4116 
Q 875 4013 500 3803 
L 500 4441 
Q 881 4594 1212 4672 
Q 1544 4750 1819 4750 
Q 2544 4750 2975 4387 
Q 3406 4025 3406 3419 
Q 3406 3131 3298 2873 
Q 3191 2616 2906 2266 
Q 2828 2175 2409 1742 
Q 1991 1309 1228 531 
z
" id="DejaVuSans-32" transform="scale(0.015625)"/>
        <path d="M 691 4666 
L 3169 4666 
L 3169 4134 
L 1269 4134 
L 1269 2991 
Q 1406 3038 1543 3061 
Q 1681 3084 1819 3084 
Q 2600 3084 3056 2656 
Q 3513 2228 3513 1497 
Q 3513 744 3044 326 
Q 2575 -91 1722 -91 
Q 1428 -91 1123 -41 
Q 819 9 494 109 
L 494 744 
Q 775 591 1075 516 
Q 1375 441 1709 441 
Q 2250 441 2565 725 
Q 2881 1009 2881 1497 
Q 2881 1984 2565 2268 
Q 2250 2553 1709 2553 
Q 1456 2553 1204 2497 
Q 953 2441 691 2322 
L 691 4666 
z
" id="DejaVuSans-35" transform="scale(0.015625)"/>
       </defs>
       <use xlink:href="#DejaVuSans-32"/>
       <use x="63.623047" xlink:href="#DejaVuSans-35"/>
      </g>
     </g>
    </g>
    <g id="xtick_3">
     <g id="line2d_3">
      <path clip-path="url(#p038774ca11)" d="M 153.772791 307.584 
L 153.772791 41.472 
" style="fill:none;stroke:#cccccc;stroke-linecap:round;stroke-width:0.8;"/>
     </g>
     <g id="text_3">
      <!-- 50 -->
      <g style="fill:#262626;" transform="translate(147.410291 322.182437)scale(0.1 -0.1)">
       <use xlink:href="#DejaVuSans-35"/>
       <use x="63.623047" xlink:href="#DejaVuSans-30"/>
      </g>
     </g>
    </g>
    <g id="xtick_4">
     <g id="line2d_4">
      <path clip-path="url(#p038774ca11)" d="M 194.558538 307.584 
L 194.558538 41.472 
" style="fill:none;stroke:#cccccc;stroke-linecap:round;stroke-width:0.8;"/>
     </g>
     <g id="text_4">
      <!-- 75 -->
      <g style="fill:#262626;" transform="translate(188.196038 322.182437)scale(0.1 -0.1)">
       <defs>
        <path d="M 525 4666 
L 3525 4666 
L 3525 4397 
L 1831 0 
L 1172 0 
L 2766 4134 
L 525 4134 
L 525 4666 
z
" id="DejaVuSans-37" transform="scale(0.015625)"/>
       </defs>
       <use xlink:href="#DejaVuSans-37"/>
       <use x="63.623047" xlink:href="#DejaVuSans-35"/>
      </g>
     </g>
    </g>
    <g id="xtick_5">
     <g id="line2d_5">
      <path clip-path="url(#p038774ca11)" d="M 235.344285 307.584 
L 235.344285 41.472 
" style="fill:none;stroke:#cccccc;stroke-linecap:round;stroke-width:0.8;"/>
     </g>
     <g id="text_5">
      <!-- 100 -->
      <g style="fill:#262626;" transform="translate(225.800535 322.182437)scale(0.1 -0.1)">
       <defs>
        <path d="M 794 531 
L 1825 531 
L 1825 4091 
L 703 3866 
L 703 4441 
L 1819 4666 
L 2450 4666 
L 2450 531 
L 3481 531 
L 3481 0 
L 794 0 
L 794 531 
z
" id="DejaVuSans-31" transform="scale(0.015625)"/>
       </defs>
       <use xlink:href="#DejaVuSans-31"/>
       <use x="63.623047" xlink:href="#DejaVuSans-30"/>
       <use x="127.246094" xlink:href="#DejaVuSans-30"/>
      </g>
     </g>
    </g>
    <g id="xtick_6">
     <g id="line2d_6">
      <path clip-path="url(#p038774ca11)" d="M 276.130032 307.584 
L 276.130032 41.472 
" style="fill:none;stroke:#cccccc;stroke-linecap:round;stroke-width:0.8;"/>
     </g>
     <g id="text_6">
      <!-- 125 -->
      <g style="fill:#262626;" transform="translate(266.586282 322.182437)scale(0.1 -0.1)">
       <use xlink:href="#DejaVuSans-31"/>
       <use x="63.623047" xlink:href="#DejaVuSans-32"/>
       <use x="127.246094" xlink:href="#DejaVuSans-35"/>
      </g>
     </g>
    </g>
    <g id="xtick_7">
     <g id="line2d_7">
      <path clip-path="url(#p038774ca11)" d="M 316.915779 307.584 
L 316.915779 41.472 
" style="fill:none;stroke:#cccccc;stroke-linecap:round;stroke-width:0.8;"/>
     </g>
     <g id="text_7">
      <!-- 150 -->
      <g style="fill:#262626;" transform="translate(307.372029 322.182437)scale(0.1 -0.1)">
       <use xlink:href="#DejaVuSans-31"/>
       <use x="63.623047" xlink:href="#DejaVuSans-35"/>
       <use x="127.246094" xlink:href="#DejaVuSans-30"/>
      </g>
     </g>
    </g>
    <g id="xtick_8">
     <g id="line2d_8">
      <path clip-path="url(#p038774ca11)" d="M 357.701526 307.584 
L 357.701526 41.472 
" style="fill:none;stroke:#cccccc;stroke-linecap:round;stroke-width:0.8;"/>
     </g>
     <g id="text_8">
      <!-- 175 -->
      <g style="fill:#262626;" transform="translate(348.157776 322.182437)scale(0.1 -0.1)">
       <use xlink:href="#DejaVuSans-31"/>
       <use x="63.623047" xlink:href="#DejaVuSans-37"/>
       <use x="127.246094" xlink:href="#DejaVuSans-35"/>
      </g>
     </g>
    </g>
    <g id="xtick_9">
     <g id="line2d_9">
      <path clip-path="url(#p038774ca11)" d="M 398.487273 307.584 
L 398.487273 41.472 
" style="fill:none;stroke:#cccccc;stroke-linecap:round;stroke-width:0.8;"/>
     </g>
     <g id="text_9">
      <!-- 200 -->
      <g style="fill:#262626;" transform="translate(388.943523 322.182437)scale(0.1 -0.1)">
       <use xlink:href="#DejaVuSans-32"/>
       <use x="63.623047" xlink:href="#DejaVuSans-30"/>
       <use x="127.246094" xlink:href="#DejaVuSans-30"/>
      </g>
     </g>
    </g>
    <g id="text_10">
     <!-- Auroc -->
     <g style="fill:#262626;" transform="translate(221.819375 335.860562)scale(0.1 -0.1)">
      <defs>
       <path d="M 2188 4044 
L 1331 1722 
L 3047 1722 
L 2188 4044 
z
M 1831 4666 
L 2547 4666 
L 4325 0 
L 3669 0 
L 3244 1197 
L 1141 1197 
L 716 0 
L 50 0 
L 1831 4666 
z
" id="DejaVuSans-41" transform="scale(0.015625)"/>
       <path d="M 544 1381 
L 544 3500 
L 1119 3500 
L 1119 1403 
Q 1119 906 1312 657 
Q 1506 409 1894 409 
Q 2359 409 2629 706 
Q 2900 1003 2900 1516 
L 2900 3500 
L 3475 3500 
L 3475 0 
L 2900 0 
L 2900 538 
Q 2691 219 2414 64 
Q 2138 -91 1772 -91 
Q 1169 -91 856 284 
Q 544 659 544 1381 
z
M 1991 3584 
L 1991 3584 
z
" id="DejaVuSans-75" transform="scale(0.015625)"/>
       <path d="M 2631 2963 
Q 2534 3019 2420 3045 
Q 2306 3072 2169 3072 
Q 1681 3072 1420 2755 
Q 1159 2438 1159 1844 
L 1159 0 
L 581 0 
L 581 3500 
L 1159 3500 
L 1159 2956 
Q 1341 3275 1631 3429 
Q 1922 3584 2338 3584 
Q 2397 3584 2469 3576 
Q 2541 3569 2628 3553 
L 2631 2963 
z
" id="DejaVuSans-72" transform="scale(0.015625)"/>
       <path d="M 1959 3097 
Q 1497 3097 1228 2736 
Q 959 2375 959 1747 
Q 959 1119 1226 758 
Q 1494 397 1959 397 
Q 2419 397 2687 759 
Q 2956 1122 2956 1747 
Q 2956 2369 2687 2733 
Q 2419 3097 1959 3097 
z
M 1959 3584 
Q 2709 3584 3137 3096 
Q 3566 2609 3566 1747 
Q 3566 888 3137 398 
Q 2709 -91 1959 -91 
Q 1206 -91 779 398 
Q 353 888 353 1747 
Q 353 2609 779 3096 
Q 1206 3584 1959 3584 
z
" id="DejaVuSans-6f" transform="scale(0.015625)"/>
       <path d="M 3122 3366 
L 3122 2828 
Q 2878 2963 2633 3030 
Q 2388 3097 2138 3097 
Q 1578 3097 1268 2742 
Q 959 2388 959 1747 
Q 959 1106 1268 751 
Q 1578 397 2138 397 
Q 2388 397 2633 464 
Q 2878 531 3122 666 
L 3122 134 
Q 2881 22 2623 -34 
Q 2366 -91 2075 -91 
Q 1284 -91 818 406 
Q 353 903 353 1747 
Q 353 2603 823 3093 
Q 1294 3584 2113 3584 
Q 2378 3584 2631 3529 
Q 2884 3475 3122 3366 
z
" id="DejaVuSans-63" transform="scale(0.015625)"/>
      </defs>
      <use xlink:href="#DejaVuSans-41"/>
      <use x="68.408203" xlink:href="#DejaVuSans-75"/>
      <use x="131.787109" xlink:href="#DejaVuSans-72"/>
      <use x="170.650391" xlink:href="#DejaVuSans-6f"/>
      <use x="231.832031" xlink:href="#DejaVuSans-63"/>
     </g>
    </g>
   </g>
   <g id="matplotlib.axis_2">
    <g id="ytick_1">
     <g id="line2d_10">
      <path clip-path="url(#p038774ca11)" d="M 57.6 286.831953 
L 414.72 286.831953 
" style="fill:none;stroke:#cccccc;stroke-linecap:round;stroke-width:0.8;"/>
     </g>
     <g id="text_11">
      <!-- 0.45 -->
      <g style="fill:#262626;" transform="translate(28.334375 290.631172)scale(0.1 -0.1)">
       <defs>
        <path d="M 684 794 
L 1344 794 
L 1344 0 
L 684 0 
L 684 794 
z
" id="DejaVuSans-2e" transform="scale(0.015625)"/>
        <path d="M 2419 4116 
L 825 1625 
L 2419 1625 
L 2419 4116 
z
M 2253 4666 
L 3047 4666 
L 3047 1625 
L 3713 1625 
L 3713 1100 
L 3047 1100 
L 3047 0 
L 2419 0 
L 2419 1100 
L 313 1100 
L 313 1709 
L 2253 4666 
z
" id="DejaVuSans-34" transform="scale(0.015625)"/>
       </defs>
       <use xlink:href="#DejaVuSans-30"/>
       <use x="63.623047" xlink:href="#DejaVuSans-2e"/>
       <use x="95.410156" xlink:href="#DejaVuSans-34"/>
       <use x="159.033203" xlink:href="#DejaVuSans-35"/>
      </g>
     </g>
    </g>
    <g id="ytick_2">
     <g id="line2d_11">
      <path clip-path="url(#p038774ca11)" d="M 57.6 240.164458 
L 414.72 240.164458 
" style="fill:none;stroke:#cccccc;stroke-linecap:round;stroke-width:0.8;"/>
     </g>
     <g id="text_12">
      <!-- 0.50 -->
      <g style="fill:#262626;" transform="translate(28.334375 243.963677)scale(0.1 -0.1)">
       <use xlink:href="#DejaVuSans-30"/>
       <use x="63.623047" xlink:href="#DejaVuSans-2e"/>
       <use x="95.410156" xlink:href="#DejaVuSans-35"/>
       <use x="159.033203" xlink:href="#DejaVuSans-30"/>
      </g>
     </g>
    </g>
    <g id="ytick_3">
     <g id="line2d_12">
      <path clip-path="url(#p038774ca11)" d="M 57.6 193.496962 
L 414.72 193.496962 
" style="fill:none;stroke:#cccccc;stroke-linecap:round;stroke-width:0.8;"/>
     </g>
     <g id="text_13">
      <!-- 0.55 -->
      <g style="fill:#262626;" transform="translate(28.334375 197.296181)scale(0.1 -0.1)">
       <use xlink:href="#DejaVuSans-30"/>
       <use x="63.623047" xlink:href="#DejaVuSans-2e"/>
       <use x="95.410156" xlink:href="#DejaVuSans-35"/>
       <use x="159.033203" xlink:href="#DejaVuSans-35"/>
      </g>
     </g>
    </g>
    <g id="ytick_4">
     <g id="line2d_13">
      <path clip-path="url(#p038774ca11)" d="M 57.6 146.829467 
L 414.72 146.829467 
" style="fill:none;stroke:#cccccc;stroke-linecap:round;stroke-width:0.8;"/>
     </g>
     <g id="text_14">
      <!-- 0.60 -->
      <g style="fill:#262626;" transform="translate(28.334375 150.628685)scale(0.1 -0.1)">
       <defs>
        <path d="M 2113 2584 
Q 1688 2584 1439 2293 
Q 1191 2003 1191 1497 
Q 1191 994 1439 701 
Q 1688 409 2113 409 
Q 2538 409 2786 701 
Q 3034 994 3034 1497 
Q 3034 2003 2786 2293 
Q 2538 2584 2113 2584 
z
M 3366 4563 
L 3366 3988 
Q 3128 4100 2886 4159 
Q 2644 4219 2406 4219 
Q 1781 4219 1451 3797 
Q 1122 3375 1075 2522 
Q 1259 2794 1537 2939 
Q 1816 3084 2150 3084 
Q 2853 3084 3261 2657 
Q 3669 2231 3669 1497 
Q 3669 778 3244 343 
Q 2819 -91 2113 -91 
Q 1303 -91 875 529 
Q 447 1150 447 2328 
Q 447 3434 972 4092 
Q 1497 4750 2381 4750 
Q 2619 4750 2861 4703 
Q 3103 4656 3366 4563 
z
" id="DejaVuSans-36" transform="scale(0.015625)"/>
       </defs>
       <use xlink:href="#DejaVuSans-30"/>
       <use x="63.623047" xlink:href="#DejaVuSans-2e"/>
       <use x="95.410156" xlink:href="#DejaVuSans-36"/>
       <use x="159.033203" xlink:href="#DejaVuSans-30"/>
      </g>
     </g>
    </g>
    <g id="ytick_5">
     <g id="line2d_14">
      <path clip-path="url(#p038774ca11)" d="M 57.6 100.161971 
L 414.72 100.161971 
" style="fill:none;stroke:#cccccc;stroke-linecap:round;stroke-width:0.8;"/>
     </g>
     <g id="text_15">
      <!-- 0.65 -->
      <g style="fill:#262626;" transform="translate(28.334375 103.96119)scale(0.1 -0.1)">
       <use xlink:href="#DejaVuSans-30"/>
       <use x="63.623047" xlink:href="#DejaVuSans-2e"/>
       <use x="95.410156" xlink:href="#DejaVuSans-36"/>
       <use x="159.033203" xlink:href="#DejaVuSans-35"/>
      </g>
     </g>
    </g>
    <g id="ytick_6">
     <g id="line2d_15">
      <path clip-path="url(#p038774ca11)" d="M 57.6 53.494476 
L 414.72 53.494476 
" style="fill:none;stroke:#cccccc;stroke-linecap:round;stroke-width:0.8;"/>
     </g>
     <g id="text_16">
      <!-- 0.70 -->
      <g style="fill:#262626;" transform="translate(28.334375 57.293694)scale(0.1 -0.1)">
       <use xlink:href="#DejaVuSans-30"/>
       <use x="63.623047" xlink:href="#DejaVuSans-2e"/>
       <use x="95.410156" xlink:href="#DejaVuSans-37"/>
       <use x="159.033203" xlink:href="#DejaVuSans-30"/>
      </g>
     </g>
    </g>
    <g id="text_17">
     <!-- Iteration -->
     <g style="fill:#262626;" transform="translate(22.254687 195.736594)rotate(-90)scale(0.1 -0.1)">
      <defs>
       <path d="M 628 4666 
L 1259 4666 
L 1259 0 
L 628 0 
L 628 4666 
z
" id="DejaVuSans-49" transform="scale(0.015625)"/>
       <path d="M 1172 4494 
L 1172 3500 
L 2356 3500 
L 2356 3053 
L 1172 3053 
L 1172 1153 
Q 1172 725 1289 603 
Q 1406 481 1766 481 
L 2356 481 
L 2356 0 
L 1766 0 
Q 1100 0 847 248 
Q 594 497 594 1153 
L 594 3053 
L 172 3053 
L 172 3500 
L 594 3500 
L 594 4494 
L 1172 4494 
z
" id="DejaVuSans-74" transform="scale(0.015625)"/>
       <path d="M 3597 1894 
L 3597 1613 
L 953 1613 
Q 991 1019 1311 708 
Q 1631 397 2203 397 
Q 2534 397 2845 478 
Q 3156 559 3463 722 
L 3463 178 
Q 3153 47 2828 -22 
Q 2503 -91 2169 -91 
Q 1331 -91 842 396 
Q 353 884 353 1716 
Q 353 2575 817 3079 
Q 1281 3584 2069 3584 
Q 2775 3584 3186 3129 
Q 3597 2675 3597 1894 
z
M 3022 2063 
Q 3016 2534 2758 2815 
Q 2500 3097 2075 3097 
Q 1594 3097 1305 2825 
Q 1016 2553 972 2059 
L 3022 2063 
z
" id="DejaVuSans-65" transform="scale(0.015625)"/>
       <path d="M 2194 1759 
Q 1497 1759 1228 1600 
Q 959 1441 959 1056 
Q 959 750 1161 570 
Q 1363 391 1709 391 
Q 2188 391 2477 730 
Q 2766 1069 2766 1631 
L 2766 1759 
L 2194 1759 
z
M 3341 1997 
L 3341 0 
L 2766 0 
L 2766 531 
Q 2569 213 2275 61 
Q 1981 -91 1556 -91 
Q 1019 -91 701 211 
Q 384 513 384 1019 
Q 384 1609 779 1909 
Q 1175 2209 1959 2209 
L 2766 2209 
L 2766 2266 
Q 2766 2663 2505 2880 
Q 2244 3097 1772 3097 
Q 1472 3097 1187 3025 
Q 903 2953 641 2809 
L 641 3341 
Q 956 3463 1253 3523 
Q 1550 3584 1831 3584 
Q 2591 3584 2966 3190 
Q 3341 2797 3341 1997 
z
" id="DejaVuSans-61" transform="scale(0.015625)"/>
       <path d="M 603 3500 
L 1178 3500 
L 1178 0 
L 603 0 
L 603 3500 
z
M 603 4863 
L 1178 4863 
L 1178 4134 
L 603 4134 
L 603 4863 
z
" id="DejaVuSans-69" transform="scale(0.015625)"/>
       <path d="M 3513 2113 
L 3513 0 
L 2938 0 
L 2938 2094 
Q 2938 2591 2744 2837 
Q 2550 3084 2163 3084 
Q 1697 3084 1428 2787 
Q 1159 2491 1159 1978 
L 1159 0 
L 581 0 
L 581 3500 
L 1159 3500 
L 1159 2956 
Q 1366 3272 1645 3428 
Q 1925 3584 2291 3584 
Q 2894 3584 3203 3211 
Q 3513 2838 3513 2113 
z
" id="DejaVuSans-6e" transform="scale(0.015625)"/>
      </defs>
      <use xlink:href="#DejaVuSans-49"/>
      <use x="29.492188" xlink:href="#DejaVuSans-74"/>
      <use x="68.701172" xlink:href="#DejaVuSans-65"/>
      <use x="130.224609" xlink:href="#DejaVuSans-72"/>
      <use x="171.337891" xlink:href="#DejaVuSans-61"/>
      <use x="232.617188" xlink:href="#DejaVuSans-74"/>
      <use x="271.826172" xlink:href="#DejaVuSans-69"/>
      <use x="299.609375" xlink:href="#DejaVuSans-6f"/>
      <use x="360.791016" xlink:href="#DejaVuSans-6e"/>
     </g>
    </g>
   </g>
   <g id="PolyCollection_1">
    <defs>
     <path d="M 73.832727 -223.536569 
L 73.832727 -117.134105 
L 75.464157 -113.126489 
L 77.095587 -131.71925 
L 78.727017 -172.24215 
L 80.358447 -138.656743 
L 81.989877 -174.600557 
L 83.621307 -93.802896 
L 85.252736 -149.725464 
L 86.884166 -126.495104 
L 88.515596 -144.857343 
L 90.147026 -109.191827 
L 91.778456 -73.146757 
L 93.409886 -131.345633 
L 95.041316 -97.555812 
L 96.672746 -135.265137 
L 98.304175 -144.86155 
L 99.935605 -166.79578 
L 101.567035 -103.473628 
L 103.198465 -93.914857 
L 104.829895 -110.046325 
L 106.461325 -152.553984 
L 108.092755 -126.003721 
L 109.724185 -133.022554 
L 111.355614 -169.790639 
L 112.987044 -166.180554 
L 114.618474 -126.404366 
L 116.249904 -162.002946 
L 117.881334 -174.077633 
L 119.512764 -132.514111 
L 121.144194 -173.357007 
L 122.775624 -124.585676 
L 124.407053 -159.19063 
L 126.038483 -98.605886 
L 127.669913 -156.457243 
L 129.301343 -140.971376 
L 130.932773 -155.646612 
L 132.564203 -167.598262 
L 134.195633 -112.988509 
L 135.827063 -145.017794 
L 137.458492 -172.324963 
L 139.089922 -141.601195 
L 140.721352 -125.300562 
L 142.352782 -126.170729 
L 143.984212 -144.682747 
L 145.615642 -116.244703 
L 147.247072 -170.948356 
L 148.878502 -161.177702 
L 150.509931 -135.987248 
L 152.141361 -140.146553 
L 153.772791 -149.711506 
L 155.404221 -100.165119 
L 157.035651 -115.991353 
L 158.667081 -130.379591 
L 160.298511 -133.769883 
L 161.929941 -102.93695 
L 163.56137 -168.934583 
L 165.1928 -180.883139 
L 166.82423 -170.334456 
L 168.45566 -102.598756 
L 170.08709 -86.718308 
L 171.71852 -97.033415 
L 173.34995 -164.174672 
L 174.98138 -148.761587 
L 176.61281 -129.920768 
L 178.244239 -143.049169 
L 179.875669 -100.742434 
L 181.507099 -118.485423 
L 183.138529 -87.489708 
L 184.769959 -131.876375 
L 186.401389 -123.94461 
L 188.032819 -167.224345 
L 189.664249 -141.958903 
L 191.295678 -136.432705 
L 192.927108 -107.232902 
L 194.558538 -170.816927 
L 196.189968 -127.009007 
L 197.821398 -109.785119 
L 199.452828 -163.311192 
L 201.084258 -170.834033 
L 202.715688 -123.728643 
L 204.347117 -118.073392 
L 205.978547 -83.538893 
L 207.609977 -148.613585 
L 209.241407 -135.145978 
L 210.872837 -179.409876 
L 212.504267 -170.181605 
L 214.135697 -128.525065 
L 215.767127 -111.696949 
L 217.398556 -110.960975 
L 219.029986 -155.911318 
L 220.661416 -126.277073 
L 222.292846 -151.548754 
L 223.924276 -131.728667 
L 225.555706 -153.974588 
L 227.187136 -66.191204 
L 228.818566 -152.056613 
L 230.449995 -146.00416 
L 232.081425 -124.067522 
L 233.712855 -115.479425 
L 235.344285 -165.819996 
L 236.975715 -112.235176 
L 238.607145 -154.146712 
L 240.238575 -149.021506 
L 241.870005 -88.962303 
L 243.501434 -125.08515 
L 245.132864 -145.650519 
L 246.764294 -120.567092 
L 248.395724 -143.409214 
L 250.027154 -136.163475 
L 251.658584 -107.045416 
L 253.290014 -111.82485 
L 254.921444 -139.43619 
L 256.552873 -163.720517 
L 258.184303 -162.076187 
L 259.815733 -120.588182 
L 261.447163 -164.424763 
L 263.078593 -130.136735 
L 264.710023 -193.560329 
L 266.341453 -148.008152 
L 267.972883 -73.066279 
L 269.604312 -75.688748 
L 271.235742 -174.265376 
L 272.867172 -149.947923 
L 274.498602 -108.53367 
L 276.130032 -115.514561 
L 277.761462 -157.491096 
L 279.392892 -158.162087 
L 281.024322 -141.202104 
L 282.655751 -154.943373 
L 284.287181 -92.509461 
L 285.918611 -78.811007 
L 287.550041 -145.241006 
L 289.181471 -142.345489 
L 290.812901 -150.67877 
L 292.444331 -129.456277 
L 294.075761 -129.48087 
L 295.70719 -133.368163 
L 297.33862 -96.409445 
L 298.97005 -141.957482 
L 300.60148 -132.062309 
L 302.23291 -145.907188 
L 303.86434 -127.386296 
L 305.49577 -141.245352 
L 307.1272 -152.623041 
L 308.75863 -113.386097 
L 310.390059 -153.315494 
L 312.021489 -146.112497 
L 313.652919 -143.168955 
L 315.284349 -138.127378 
L 316.915779 -129.570003 
L 318.547209 -76.463803 
L 320.178639 -106.580928 
L 321.810069 -162.492425 
L 323.441498 -82.237549 
L 325.072928 -100.708463 
L 326.704358 -176.950295 
L 328.335788 -146.459847 
L 329.967218 -153.285161 
L 331.598648 -130.511057 
L 333.230078 -124.642037 
L 334.861508 -165.322595 
L 336.492937 -143.414475 
L 338.124367 -146.814057 
L 339.755797 -94.315137 
L 341.387227 -124.830791 
L 343.018657 -169.591131 
L 344.650087 -132.675465 
L 346.281517 -138.483977 
L 347.912947 -192.510638 
L 349.544376 -83.563459 
L 351.175806 -131.214225 
L 352.807236 -141.269999 
L 354.438666 -159.682436 
L 356.070096 -162.066119 
L 357.701526 -128.495313 
L 359.332956 -141.836401 
L 360.964386 -50.112 
L 362.595815 -180.422022 
L 364.227245 -176.777913 
L 365.858675 -124.82267 
L 367.490105 -132.671409 
L 369.121535 -129.145061 
L 370.752965 -109.037105 
L 372.384395 -161.550176 
L 374.015825 -121.462103 
L 375.647254 -54.754776 
L 377.278684 -80.4883 
L 378.910114 -169.294024 
L 380.541544 -104.957402 
L 382.172974 -161.954398 
L 383.804404 -125.858226 
L 385.435834 -62.71749 
L 387.067264 -108.73599 
L 388.698693 -137.23703 
L 390.330123 -103.034894 
L 391.961553 -112.412949 
L 393.592983 -130.128642 
L 395.224413 -125.711605 
L 396.855843 -126.306979 
L 398.487273 -164.93307 
L 398.487273 -201.484602 
L 398.487273 -201.484602 
L 396.855843 -239.393012 
L 395.224413 -226.592535 
L 393.592983 -243.217639 
L 391.961553 -211.897887 
L 390.330123 -205.84156 
L 388.698693 -261.514971 
L 387.067264 -231.924898 
L 385.435834 -244.103583 
L 383.804404 -241.514844 
L 382.172974 -288.481034 
L 380.541544 -209.39778 
L 378.910114 -227.079076 
L 377.278684 -211.095018 
L 375.647254 -226.051448 
L 374.015825 -191.864643 
L 372.384395 -253.812535 
L 370.752965 -233.788106 
L 369.121535 -237.653488 
L 367.490105 -200.660228 
L 365.858675 -215.832062 
L 364.227245 -211.694589 
L 362.595815 -231.894201 
L 360.964386 -154.504153 
L 359.332956 -199.448068 
L 357.701526 -208.795048 
L 356.070096 -263.818084 
L 354.438666 -254.610298 
L 352.807236 -243.974034 
L 351.175806 -201.694994 
L 349.544376 -210.720338 
L 347.912947 -269.317692 
L 346.281517 -218.454508 
L 344.650087 -199.572002 
L 343.018657 -211.679208 
L 341.387227 -242.204176 
L 339.755797 -185.778265 
L 338.124367 -247.409624 
L 336.492937 -215.108692 
L 334.861508 -237.62591 
L 333.230078 -205.492953 
L 331.598648 -231.343235 
L 329.967218 -239.561678 
L 328.335788 -261.974968 
L 326.704358 -277.572957 
L 325.072928 -191.86836 
L 323.441498 -251.292335 
L 321.810069 -205.701696 
L 320.178639 -251.734855 
L 318.547209 -216.439263 
L 316.915779 -253.646451 
L 315.284349 -206.355425 
L 313.652919 -230.794427 
L 312.021489 -242.146722 
L 310.390059 -208.142498 
L 308.75863 -212.838515 
L 307.1272 -232.439142 
L 305.49577 -188.626842 
L 303.86434 -235.959419 
L 302.23291 -252.632957 
L 300.60148 -231.478024 
L 298.97005 -195.068333 
L 297.33862 -260.462418 
L 295.70719 -190.590572 
L 294.075761 -206.502965 
L 292.444331 -241.076177 
L 290.812901 -198.656587 
L 289.181471 -228.961548 
L 287.550041 -249.978578 
L 285.918611 -213.014368 
L 284.287181 -201.672004 
L 282.655751 -245.275425 
L 281.024322 -220.742854 
L 279.392892 -209.106902 
L 277.761462 -238.705467 
L 276.130032 -222.248703 
L 274.498602 -215.865823 
L 272.867172 -216.959243 
L 271.235742 -224.773853 
L 269.604312 -235.482358 
L 267.972883 -233.077551 
L 266.341453 -215.101986 
L 264.710023 -287.286323 
L 263.078593 -225.335667 
L 261.447163 -205.668552 
L 259.815733 -223.347383 
L 258.184303 -235.608948 
L 256.552873 -206.342274 
L 254.921444 -221.465102 
L 253.290014 -255.124182 
L 251.658584 -162.904712 
L 250.027154 -256.137746 
L 248.395724 -231.197515 
L 246.764294 -222.621498 
L 245.132864 -217.738812 
L 243.501434 -190.376497 
L 241.870005 -212.112774 
L 240.238575 -265.473104 
L 238.607145 -291.294366 
L 236.975715 -202.877026 
L 235.344285 -237.515801 
L 233.712855 -203.4788 
L 232.081425 -202.949431 
L 230.449995 -216.189984 
L 228.818566 -216.49784 
L 227.187136 -213.266951 
L 225.555706 -204.446248 
L 223.924276 -213.761249 
L 222.292846 -203.883662 
L 220.661416 -162.957868 
L 219.029986 -232.320164 
L 217.398556 -234.718051 
L 215.767127 -214.925195 
L 214.135697 -220.541403 
L 212.504267 -256.765577 
L 210.872837 -209.398849 
L 209.241407 -278.178461 
L 207.609977 -244.375765 
L 205.978547 -268.912037 
L 204.347117 -192.70608 
L 202.715688 -233.731092 
L 201.084258 -246.033516 
L 199.452828 -279.897579 
L 197.821398 -208.582382 
L 196.189968 -203.895122 
L 194.558538 -252.456751 
L 192.927108 -182.846614 
L 191.295678 -236.327195 
L 189.664249 -250.467009 
L 188.032819 -225.214139 
L 186.401389 -197.548574 
L 184.769959 -250.822524 
L 183.138529 -202.276138 
L 181.507099 -214.55769 
L 179.875669 -197.520177 
L 178.244239 -211.901464 
L 176.61281 -209.722701 
L 174.98138 -218.845439 
L 173.34995 -239.740702 
L 171.71852 -166.159327 
L 170.08709 -234.049676 
L 168.45566 -231.694371 
L 166.82423 -248.918995 
L 165.1928 -275.991537 
L 163.56137 -238.790262 
L 161.929941 -222.926294 
L 160.298511 -215.712393 
L 158.667081 -223.62919 
L 157.035651 -202.877632 
L 155.404221 -232.835415 
L 153.772791 -251.220503 
L 152.141361 -201.934276 
L 150.509931 -227.53468 
L 148.878502 -209.914497 
L 147.247072 -216.377824 
L 145.615642 -203.215978 
L 143.984212 -196.660698 
L 142.352782 -208.783438 
L 140.721352 -274.807155 
L 139.089922 -213.319821 
L 137.458492 -232.551317 
L 135.827063 -192.6677 
L 134.195633 -220.243584 
L 132.564203 -268.410549 
L 130.932773 -236.935227 
L 129.301343 -202.509627 
L 127.669913 -242.972584 
L 126.038483 -216.18798 
L 124.407053 -238.968704 
L 122.775624 -207.483116 
L 121.144194 -264.285741 
L 119.512764 -206.784063 
L 117.881334 -225.543118 
L 116.249904 -223.878408 
L 114.618474 -244.208579 
L 112.987044 -251.602018 
L 111.355614 -217.004376 
L 109.724185 -206.08975 
L 108.092755 -215.46072 
L 106.461325 -211.298464 
L 104.829895 -205.044555 
L 103.198465 -193.526072 
L 101.567035 -238.194569 
L 99.935605 -207.110182 
L 98.304175 -245.429915 
L 96.672746 -214.256347 
L 95.041316 -193.245664 
L 93.409886 -262.966705 
L 91.778456 -230.421091 
L 90.147026 -239.365706 
L 88.515596 -194.074731 
L 86.884166 -187.023343 
L 85.252736 -292.032 
L 83.621307 -230.513254 
L 81.989877 -222.026006 
L 80.358447 -179.679716 
L 78.727017 -228.950905 
L 77.095587 -193.270902 
L 75.464157 -204.754046 
L 73.832727 -223.536569 
z
" id="m7e5df7f348" style="stroke:#ffffff;stroke-opacity:0.2;"/>
    </defs>
    <g clip-path="url(#p038774ca11)">
     <use style="fill:#1f77b4;fill-opacity:0.2;stroke:#ffffff;stroke-opacity:0.2;" x="0" xlink:href="#m7e5df7f348" y="345.6"/>
    </g>
   </g>
   <g id="line2d_16">
    <path clip-path="url(#p038774ca11)" d="M 73.832727 175.264663 
L 75.464157 186.659733 
L 77.095587 183.104924 
L 78.727017 145.003473 
L 80.358447 186.431771 
L 81.989877 147.286719 
L 83.621307 183.441925 
L 85.252736 124.721268 
L 86.884166 188.840776 
L 88.515596 176.133963 
L 90.147026 171.321234 
L 91.778456 193.816076 
L 93.409886 148.443831 
L 95.041316 200.199262 
L 96.672746 170.839258 
L 98.304175 150.454268 
L 99.935605 158.647019 
L 101.567035 174.765901 
L 103.198465 201.879536 
L 104.829895 188.05456 
L 106.461325 163.673776 
L 108.092755 174.867779 
L 109.724185 176.043848 
L 111.355614 152.202492 
L 112.987044 136.708714 
L 114.618474 160.293528 
L 116.249904 152.659323 
L 117.881334 145.789625 
L 119.512764 175.950913 
L 121.144194 126.778626 
L 122.775624 179.565604 
L 124.407053 146.520333 
L 126.038483 188.203067 
L 127.669913 145.885087 
L 129.301343 173.859499 
L 130.932773 149.30908 
L 132.564203 127.595594 
L 134.195633 178.983954 
L 135.827063 176.757253 
L 137.458492 143.16186 
L 139.089922 168.139492 
L 140.721352 145.546141 
L 142.352782 178.122917 
L 143.984212 174.928278 
L 145.615642 185.86966 
L 147.247072 151.93691 
L 148.878502 160.0539 
L 150.509931 163.839036 
L 152.141361 174.559586 
L 153.772791 145.133996 
L 155.404221 179.099733 
L 157.035651 186.165508 
L 158.667081 168.595609 
L 160.298511 170.858862 
L 161.929941 182.668378 
L 163.56137 141.737578 
L 165.1928 117.162662 
L 166.82423 135.973274 
L 168.45566 178.453437 
L 170.08709 185.216008 
L 171.71852 214.003629 
L 173.34995 143.642313 
L 174.98138 161.796487 
L 176.61281 175.778265 
L 178.244239 168.124683 
L 179.875669 196.468695 
L 181.507099 179.078444 
L 183.138529 200.717077 
L 184.769959 154.250551 
L 186.401389 184.853408 
L 188.032819 149.380758 
L 189.664249 149.387044 
L 191.295678 159.22005 
L 192.927108 200.560242 
L 194.558538 133.963161 
L 196.189968 180.147935 
L 197.821398 186.416249 
L 199.452828 123.995614 
L 201.084258 137.166225 
L 202.715688 166.870132 
L 204.347117 190.210264 
L 207.609977 149.105325 
L 209.241407 138.937781 
L 210.872837 151.195637 
L 212.504267 132.126409 
L 214.135697 171.066766 
L 215.767127 182.288928 
L 217.398556 172.760487 
L 219.029986 151.484259 
L 220.661416 200.98253 
L 222.292846 167.883792 
L 223.924276 172.855042 
L 225.555706 166.389582 
L 227.187136 205.870922 
L 228.818566 161.322774 
L 230.449995 164.502928 
L 232.081425 182.091523 
L 233.712855 186.120888 
L 235.344285 143.932102 
L 236.975715 188.043899 
L 238.607145 122.879461 
L 240.238575 138.352695 
L 241.870005 195.062461 
L 243.501434 187.869177 
L 245.132864 163.905335 
L 246.764294 174.005705 
L 248.395724 158.296635 
L 250.027154 149.449389 
L 251.658584 210.624936 
L 253.290014 162.125484 
L 254.921444 165.149354 
L 256.552873 160.568605 
L 258.184303 146.757433 
L 259.815733 173.632218 
L 261.447163 160.553342 
L 263.078593 167.863799 
L 264.710023 105.176674 
L 266.341453 164.044931 
L 267.972883 192.528085 
L 269.604312 190.014447 
L 271.235742 146.080385 
L 272.867172 162.146417 
L 274.498602 183.400253 
L 276.130032 176.718368 
L 277.761462 147.501719 
L 279.392892 161.965506 
L 281.024322 164.627521 
L 282.655751 145.490601 
L 284.287181 198.509267 
L 285.918611 199.687312 
L 287.550041 147.990208 
L 289.181471 159.946481 
L 290.812901 170.932322 
L 292.444331 160.333773 
L 294.075761 177.608083 
L 295.70719 183.620633 
L 297.33862 167.164069 
L 298.97005 177.087092 
L 300.60148 163.829833 
L 302.23291 146.329928 
L 305.49577 180.663903 
L 307.1272 153.068909 
L 308.75863 182.487694 
L 310.390059 164.871004 
L 312.021489 151.47039 
L 313.652919 158.618309 
L 315.284349 173.358599 
L 316.915779 153.991773 
L 318.547209 199.148467 
L 320.178639 166.442109 
L 321.810069 161.50294 
L 323.441498 178.835058 
L 325.072928 199.311589 
L 326.704358 118.338374 
L 328.335788 141.382593 
L 329.967218 149.176581 
L 333.230078 180.532505 
L 334.861508 144.125747 
L 336.492937 166.338416 
L 338.124367 148.488159 
L 339.755797 205.553299 
L 341.387227 162.082516 
L 343.018657 154.96483 
L 344.650087 179.476267 
L 346.281517 167.130757 
L 347.912947 114.685835 
L 349.544376 198.458102 
L 351.175806 179.14539 
L 352.807236 152.977983 
L 354.438666 138.453633 
L 356.070096 132.657898 
L 357.701526 176.95482 
L 359.332956 174.957765 
L 360.964386 243.291923 
L 362.595815 139.441889 
L 364.227245 151.363749 
L 365.858675 175.272634 
L 367.490105 178.934181 
L 369.121535 162.200726 
L 370.752965 174.187394 
L 372.384395 137.918645 
L 374.015825 188.936627 
L 375.647254 205.196888 
L 377.278684 199.808341 
L 378.910114 147.41345 
L 380.541544 188.422409 
L 382.172974 120.382284 
L 383.804404 161.913465 
L 385.435834 192.189464 
L 387.067264 175.269556 
L 388.698693 146.223999 
L 390.330123 191.161773 
L 391.961553 183.444582 
L 393.592983 158.926859 
L 395.224413 169.44793 
L 396.855843 162.750005 
L 398.487273 162.391164 
L 398.487273 162.391164 
" style="fill:none;stroke:#1f77b4;stroke-linecap:round;stroke-width:1.5;"/>
   </g>
   <g id="patch_3">
    <path d="M 57.6 307.584 
L 57.6 41.472 
" style="fill:none;stroke:#cccccc;stroke-linecap:square;stroke-linejoin:miter;stroke-width:0.8;"/>
   </g>
   <g id="patch_4">
    <path d="M 414.72 307.584 
L 414.72 41.472 
" style="fill:none;stroke:#cccccc;stroke-linecap:square;stroke-linejoin:miter;stroke-width:0.8;"/>
   </g>
   <g id="patch_5">
    <path d="M 57.6 307.584 
L 414.72 307.584 
" style="fill:none;stroke:#cccccc;stroke-linecap:square;stroke-linejoin:miter;stroke-width:0.8;"/>
   </g>
   <g id="patch_6">
    <path d="M 57.6 41.472 
L 414.72 41.472 
" style="fill:none;stroke:#cccccc;stroke-linecap:square;stroke-linejoin:miter;stroke-width:0.8;"/>
   </g>
   <g id="text_18">
    <!-- Model performance vs. # of iterations -->
    <g style="fill:#262626;" transform="translate(122.314688 35.472)scale(0.12 -0.12)">
     <defs>
      <path d="M 628 4666 
L 1569 4666 
L 2759 1491 
L 3956 4666 
L 4897 4666 
L 4897 0 
L 4281 0 
L 4281 4097 
L 3078 897 
L 2444 897 
L 1241 4097 
L 1241 0 
L 628 0 
L 628 4666 
z
" id="DejaVuSans-4d" transform="scale(0.015625)"/>
      <path d="M 2906 2969 
L 2906 4863 
L 3481 4863 
L 3481 0 
L 2906 0 
L 2906 525 
Q 2725 213 2448 61 
Q 2172 -91 1784 -91 
Q 1150 -91 751 415 
Q 353 922 353 1747 
Q 353 2572 751 3078 
Q 1150 3584 1784 3584 
Q 2172 3584 2448 3432 
Q 2725 3281 2906 2969 
z
M 947 1747 
Q 947 1113 1208 752 
Q 1469 391 1925 391 
Q 2381 391 2643 752 
Q 2906 1113 2906 1747 
Q 2906 2381 2643 2742 
Q 2381 3103 1925 3103 
Q 1469 3103 1208 2742 
Q 947 2381 947 1747 
z
" id="DejaVuSans-64" transform="scale(0.015625)"/>
      <path d="M 603 4863 
L 1178 4863 
L 1178 0 
L 603 0 
L 603 4863 
z
" id="DejaVuSans-6c" transform="scale(0.015625)"/>
      <path id="DejaVuSans-20" transform="scale(0.015625)"/>
      <path d="M 1159 525 
L 1159 -1331 
L 581 -1331 
L 581 3500 
L 1159 3500 
L 1159 2969 
Q 1341 3281 1617 3432 
Q 1894 3584 2278 3584 
Q 2916 3584 3314 3078 
Q 3713 2572 3713 1747 
Q 3713 922 3314 415 
Q 2916 -91 2278 -91 
Q 1894 -91 1617 61 
Q 1341 213 1159 525 
z
M 3116 1747 
Q 3116 2381 2855 2742 
Q 2594 3103 2138 3103 
Q 1681 3103 1420 2742 
Q 1159 2381 1159 1747 
Q 1159 1113 1420 752 
Q 1681 391 2138 391 
Q 2594 391 2855 752 
Q 3116 1113 3116 1747 
z
" id="DejaVuSans-70" transform="scale(0.015625)"/>
      <path d="M 2375 4863 
L 2375 4384 
L 1825 4384 
Q 1516 4384 1395 4259 
Q 1275 4134 1275 3809 
L 1275 3500 
L 2222 3500 
L 2222 3053 
L 1275 3053 
L 1275 0 
L 697 0 
L 697 3053 
L 147 3053 
L 147 3500 
L 697 3500 
L 697 3744 
Q 697 4328 969 4595 
Q 1241 4863 1831 4863 
L 2375 4863 
z
" id="DejaVuSans-66" transform="scale(0.015625)"/>
      <path d="M 3328 2828 
Q 3544 3216 3844 3400 
Q 4144 3584 4550 3584 
Q 5097 3584 5394 3201 
Q 5691 2819 5691 2113 
L 5691 0 
L 5113 0 
L 5113 2094 
Q 5113 2597 4934 2840 
Q 4756 3084 4391 3084 
Q 3944 3084 3684 2787 
Q 3425 2491 3425 1978 
L 3425 0 
L 2847 0 
L 2847 2094 
Q 2847 2600 2669 2842 
Q 2491 3084 2119 3084 
Q 1678 3084 1418 2786 
Q 1159 2488 1159 1978 
L 1159 0 
L 581 0 
L 581 3500 
L 1159 3500 
L 1159 2956 
Q 1356 3278 1631 3431 
Q 1906 3584 2284 3584 
Q 2666 3584 2933 3390 
Q 3200 3197 3328 2828 
z
" id="DejaVuSans-6d" transform="scale(0.015625)"/>
      <path d="M 191 3500 
L 800 3500 
L 1894 563 
L 2988 3500 
L 3597 3500 
L 2284 0 
L 1503 0 
L 191 3500 
z
" id="DejaVuSans-76" transform="scale(0.015625)"/>
      <path d="M 2834 3397 
L 2834 2853 
Q 2591 2978 2328 3040 
Q 2066 3103 1784 3103 
Q 1356 3103 1142 2972 
Q 928 2841 928 2578 
Q 928 2378 1081 2264 
Q 1234 2150 1697 2047 
L 1894 2003 
Q 2506 1872 2764 1633 
Q 3022 1394 3022 966 
Q 3022 478 2636 193 
Q 2250 -91 1575 -91 
Q 1294 -91 989 -36 
Q 684 19 347 128 
L 347 722 
Q 666 556 975 473 
Q 1284 391 1588 391 
Q 1994 391 2212 530 
Q 2431 669 2431 922 
Q 2431 1156 2273 1281 
Q 2116 1406 1581 1522 
L 1381 1569 
Q 847 1681 609 1914 
Q 372 2147 372 2553 
Q 372 3047 722 3315 
Q 1072 3584 1716 3584 
Q 2034 3584 2315 3537 
Q 2597 3491 2834 3397 
z
" id="DejaVuSans-73" transform="scale(0.015625)"/>
      <path d="M 3272 2816 
L 2363 2816 
L 2100 1772 
L 3016 1772 
L 3272 2816 
z
M 2803 4594 
L 2478 3297 
L 3391 3297 
L 3719 4594 
L 4219 4594 
L 3897 3297 
L 4872 3297 
L 4872 2816 
L 3775 2816 
L 3519 1772 
L 4513 1772 
L 4513 1294 
L 3397 1294 
L 3072 0 
L 2572 0 
L 2894 1294 
L 1978 1294 
L 1656 0 
L 1153 0 
L 1478 1294 
L 494 1294 
L 494 1772 
L 1594 1772 
L 1856 2816 
L 850 2816 
L 850 3297 
L 1978 3297 
L 2297 4594 
L 2803 4594 
z
" id="DejaVuSans-23" transform="scale(0.015625)"/>
     </defs>
     <use xlink:href="#DejaVuSans-4d"/>
     <use x="86.279297" xlink:href="#DejaVuSans-6f"/>
     <use x="147.460938" xlink:href="#DejaVuSans-64"/>
     <use x="210.9375" xlink:href="#DejaVuSans-65"/>
     <use x="272.460938" xlink:href="#DejaVuSans-6c"/>
     <use x="300.244141" xlink:href="#DejaVuSans-20"/>
     <use x="332.03125" xlink:href="#DejaVuSans-70"/>
     <use x="395.507812" xlink:href="#DejaVuSans-65"/>
     <use x="457.03125" xlink:href="#DejaVuSans-72"/>
     <use x="498.144531" xlink:href="#DejaVuSans-66"/>
     <use x="533.349609" xlink:href="#DejaVuSans-6f"/>
     <use x="594.53125" xlink:href="#DejaVuSans-72"/>
     <use x="633.894531" xlink:href="#DejaVuSans-6d"/>
     <use x="731.306641" xlink:href="#DejaVuSans-61"/>
     <use x="792.585938" xlink:href="#DejaVuSans-6e"/>
     <use x="855.964844" xlink:href="#DejaVuSans-63"/>
     <use x="910.945312" xlink:href="#DejaVuSans-65"/>
     <use x="972.46875" xlink:href="#DejaVuSans-20"/>
     <use x="1004.255859" xlink:href="#DejaVuSans-76"/>
     <use x="1063.435547" xlink:href="#DejaVuSans-73"/>
     <use x="1115.535156" xlink:href="#DejaVuSans-2e"/>
     <use x="1147.322266" xlink:href="#DejaVuSans-20"/>
     <use x="1179.109375" xlink:href="#DejaVuSans-23"/>
     <use x="1262.898438" xlink:href="#DejaVuSans-20"/>
     <use x="1294.685547" xlink:href="#DejaVuSans-6f"/>
     <use x="1355.867188" xlink:href="#DejaVuSans-66"/>
     <use x="1391.072266" xlink:href="#DejaVuSans-20"/>
     <use x="1422.859375" xlink:href="#DejaVuSans-69"/>
     <use x="1450.642578" xlink:href="#DejaVuSans-74"/>
     <use x="1489.851562" xlink:href="#DejaVuSans-65"/>
     <use x="1551.375" xlink:href="#DejaVuSans-72"/>
     <use x="1592.488281" xlink:href="#DejaVuSans-61"/>
     <use x="1653.767578" xlink:href="#DejaVuSans-74"/>
     <use x="1692.976562" xlink:href="#DejaVuSans-69"/>
     <use x="1720.759766" xlink:href="#DejaVuSans-6f"/>
     <use x="1781.941406" xlink:href="#DejaVuSans-6e"/>
     <use x="1845.320312" xlink:href="#DejaVuSans-73"/>
    </g>
   </g>
  </g>
 </g>
 <defs>
  <clipPath id="p038774ca11">
   <rect height="266.112" width="357.12" x="57.6" y="41.472"/>
  </clipPath>
 </defs>
</svg>
