<?xml version="1.0" encoding="utf-8" standalone="no"?>
<!DOCTYPE svg PUBLIC "-//W3C//DTD SVG 1.1//EN"
  "http://www.w3.org/Graphics/SVG/1.1/DTD/svg11.dtd">
<svg height="345.6pt" version="1.1" viewBox="0 0 460.8 345.6" width="460.8pt" xmlns="http://www.w3.org/2000/svg" xmlns:xlink="http://www.w3.org/1999/xlink">
 <metadata>
  <rdf:RDF xmlns:cc="http://creativecommons.org/ns#" xmlns:dc="http://purl.org/dc/elements/1.1/" xmlns:rdf="http://www.w3.org/1999/02/22-rdf-syntax-ns#">
   <cc:Work>
    <dc:type rdf:resource="http://purl.org/dc/dcmitype/StillImage"/>
    <dc:date>2022-03-13T16:05:39.538792</dc:date>
    <dc:format>image/svg+xml</dc:format>
    <dc:creator>
     <cc:Agent>
      <dc:title>Matplotlib v3.4.3, https://matplotlib.org/</dc:title>
     </cc:Agent>
    </dc:creator>
   </cc:Work>
  </rdf:RDF>
 </metadata>
 <defs>
  <style type="text/css">*{stroke-linecap:butt;stroke-linejoin:round;}</style>
 </defs>
 <g id="figure_1">
  <g id="patch_1">
   <path d="M 0 345.6 
L 460.8 345.6 
L 460.8 0 
L 0 0 
z
" style="fill:#ffffff;"/>
  </g>
  <g id="axes_1">
   <g id="patch_2">
    <path d="M 57.6 307.584 
L 414.72 307.584 
L 414.72 41.472 
L 57.6 41.472 
z
" style="fill:#ffffff;"/>
   </g>
   <g id="matplotlib.axis_1">
    <g id="xtick_1">
     <g id="line2d_1">
      <path clip-path="url(#p1206670fab)" d="M 72.201297 307.584 
L 72.201297 41.472 
" style="fill:none;stroke:#cccccc;stroke-linecap:round;stroke-width:0.8;"/>
     </g>
     <g id="text_1">
      <!-- 0 -->
      <g style="fill:#262626;" transform="translate(69.020047 322.182437)scale(0.1 -0.1)">
       <defs>
        <path d="M 2034 4250 
Q 1547 4250 1301 3770 
Q 1056 3291 1056 2328 
Q 1056 1369 1301 889 
Q 1547 409 2034 409 
Q 2525 409 2770 889 
Q 3016 1369 3016 2328 
Q 3016 3291 2770 3770 
Q 2525 4250 2034 4250 
z
M 2034 4750 
Q 2819 4750 3233 4129 
Q 3647 3509 3647 2328 
Q 3647 1150 3233 529 
Q 2819 -91 2034 -91 
Q 1250 -91 836 529 
Q 422 1150 422 2328 
Q 422 3509 836 4129 
Q 1250 4750 2034 4750 
z
" id="DejaVuSans-30" transform="scale(0.015625)"/>
       </defs>
       <use xlink:href="#DejaVuSans-30"/>
      </g>
     </g>
    </g>
    <g id="xtick_2">
     <g id="line2d_2">
      <path clip-path="url(#p1206670fab)" d="M 112.987044 307.584 
L 112.987044 41.472 
" style="fill:none;stroke:#cccccc;stroke-linecap:round;stroke-width:0.8;"/>
     </g>
     <g id="text_2">
      <!-- 25 -->
      <g style="fill:#262626;" transform="translate(106.624544 322.182437)scale(0.1 -0.1)">
       <defs>
        <path d="M 1228 531 
L 3431 531 
L 3431 0 
L 469 0 
L 469 531 
Q 828 903 1448 1529 
Q 2069 2156 2228 2338 
Q 2531 2678 2651 2914 
Q 2772 3150 2772 3378 
Q 2772 3750 2511 3984 
Q 2250 4219 1831 4219 
Q 1534 4219 1204 4116 
Q 875 4013 500 3803 
L 500 4441 
Q 881 4594 1212 4672 
Q 1544 4750 1819 4750 
Q 2544 4750 2975 4387 
Q 3406 4025 3406 3419 
Q 3406 3131 3298 2873 
Q 3191 2616 2906 2266 
Q 2828 2175 2409 1742 
Q 1991 1309 1228 531 
z
" id="DejaVuSans-32" transform="scale(0.015625)"/>
        <path d="M 691 4666 
L 3169 4666 
L 3169 4134 
L 1269 4134 
L 1269 2991 
Q 1406 3038 1543 3061 
Q 1681 3084 1819 3084 
Q 2600 3084 3056 2656 
Q 3513 2228 3513 1497 
Q 3513 744 3044 326 
Q 2575 -91 1722 -91 
Q 1428 -91 1123 -41 
Q 819 9 494 109 
L 494 744 
Q 775 591 1075 516 
Q 1375 441 1709 441 
Q 2250 441 2565 725 
Q 2881 1009 2881 1497 
Q 2881 1984 2565 2268 
Q 2250 2553 1709 2553 
Q 1456 2553 1204 2497 
Q 953 2441 691 2322 
L 691 4666 
z
" id="DejaVuSans-35" transform="scale(0.015625)"/>
       </defs>
       <use xlink:href="#DejaVuSans-32"/>
       <use x="63.623047" xlink:href="#DejaVuSans-35"/>
      </g>
     </g>
    </g>
    <g id="xtick_3">
     <g id="line2d_3">
      <path clip-path="url(#p1206670fab)" d="M 153.772791 307.584 
L 153.772791 41.472 
" style="fill:none;stroke:#cccccc;stroke-linecap:round;stroke-width:0.8;"/>
     </g>
     <g id="text_3">
      <!-- 50 -->
      <g style="fill:#262626;" transform="translate(147.410291 322.182437)scale(0.1 -0.1)">
       <use xlink:href="#DejaVuSans-35"/>
       <use x="63.623047" xlink:href="#DejaVuSans-30"/>
      </g>
     </g>
    </g>
    <g id="xtick_4">
     <g id="line2d_4">
      <path clip-path="url(#p1206670fab)" d="M 194.558538 307.584 
L 194.558538 41.472 
" style="fill:none;stroke:#cccccc;stroke-linecap:round;stroke-width:0.8;"/>
     </g>
     <g id="text_4">
      <!-- 75 -->
      <g style="fill:#262626;" transform="translate(188.196038 322.182437)scale(0.1 -0.1)">
       <defs>
        <path d="M 525 4666 
L 3525 4666 
L 3525 4397 
L 1831 0 
L 1172 0 
L 2766 4134 
L 525 4134 
L 525 4666 
z
" id="DejaVuSans-37" transform="scale(0.015625)"/>
       </defs>
       <use xlink:href="#DejaVuSans-37"/>
       <use x="63.623047" xlink:href="#DejaVuSans-35"/>
      </g>
     </g>
    </g>
    <g id="xtick_5">
     <g id="line2d_5">
      <path clip-path="url(#p1206670fab)" d="M 235.344285 307.584 
L 235.344285 41.472 
" style="fill:none;stroke:#cccccc;stroke-linecap:round;stroke-width:0.8;"/>
     </g>
     <g id="text_5">
      <!-- 100 -->
      <g style="fill:#262626;" transform="translate(225.800535 322.182437)scale(0.1 -0.1)">
       <defs>
        <path d="M 794 531 
L 1825 531 
L 1825 4091 
L 703 3866 
L 703 4441 
L 1819 4666 
L 2450 4666 
L 2450 531 
L 3481 531 
L 3481 0 
L 794 0 
L 794 531 
z
" id="DejaVuSans-31" transform="scale(0.015625)"/>
       </defs>
       <use xlink:href="#DejaVuSans-31"/>
       <use x="63.623047" xlink:href="#DejaVuSans-30"/>
       <use x="127.246094" xlink:href="#DejaVuSans-30"/>
      </g>
     </g>
    </g>
    <g id="xtick_6">
     <g id="line2d_6">
      <path clip-path="url(#p1206670fab)" d="M 276.130032 307.584 
L 276.130032 41.472 
" style="fill:none;stroke:#cccccc;stroke-linecap:round;stroke-width:0.8;"/>
     </g>
     <g id="text_6">
      <!-- 125 -->
      <g style="fill:#262626;" transform="translate(266.586282 322.182437)scale(0.1 -0.1)">
       <use xlink:href="#DejaVuSans-31"/>
       <use x="63.623047" xlink:href="#DejaVuSans-32"/>
       <use x="127.246094" xlink:href="#DejaVuSans-35"/>
      </g>
     </g>
    </g>
    <g id="xtick_7">
     <g id="line2d_7">
      <path clip-path="url(#p1206670fab)" d="M 316.915779 307.584 
L 316.915779 41.472 
" style="fill:none;stroke:#cccccc;stroke-linecap:round;stroke-width:0.8;"/>
     </g>
     <g id="text_7">
      <!-- 150 -->
      <g style="fill:#262626;" transform="translate(307.372029 322.182437)scale(0.1 -0.1)">
       <use xlink:href="#DejaVuSans-31"/>
       <use x="63.623047" xlink:href="#DejaVuSans-35"/>
       <use x="127.246094" xlink:href="#DejaVuSans-30"/>
      </g>
     </g>
    </g>
    <g id="xtick_8">
     <g id="line2d_8">
      <path clip-path="url(#p1206670fab)" d="M 357.701526 307.584 
L 357.701526 41.472 
" style="fill:none;stroke:#cccccc;stroke-linecap:round;stroke-width:0.8;"/>
     </g>
     <g id="text_8">
      <!-- 175 -->
      <g style="fill:#262626;" transform="translate(348.157776 322.182437)scale(0.1 -0.1)">
       <use xlink:href="#DejaVuSans-31"/>
       <use x="63.623047" xlink:href="#DejaVuSans-37"/>
       <use x="127.246094" xlink:href="#DejaVuSans-35"/>
      </g>
     </g>
    </g>
    <g id="xtick_9">
     <g id="line2d_9">
      <path clip-path="url(#p1206670fab)" d="M 398.487273 307.584 
L 398.487273 41.472 
" style="fill:none;stroke:#cccccc;stroke-linecap:round;stroke-width:0.8;"/>
     </g>
     <g id="text_9">
      <!-- 200 -->
      <g style="fill:#262626;" transform="translate(388.943523 322.182437)scale(0.1 -0.1)">
       <use xlink:href="#DejaVuSans-32"/>
       <use x="63.623047" xlink:href="#DejaVuSans-30"/>
       <use x="127.246094" xlink:href="#DejaVuSans-30"/>
      </g>
     </g>
    </g>
    <g id="text_10">
     <!-- Auroc -->
     <g style="fill:#262626;" transform="translate(221.819375 335.860562)scale(0.1 -0.1)">
      <defs>
       <path d="M 2188 4044 
L 1331 1722 
L 3047 1722 
L 2188 4044 
z
M 1831 4666 
L 2547 4666 
L 4325 0 
L 3669 0 
L 3244 1197 
L 1141 1197 
L 716 0 
L 50 0 
L 1831 4666 
z
" id="DejaVuSans-41" transform="scale(0.015625)"/>
       <path d="M 544 1381 
L 544 3500 
L 1119 3500 
L 1119 1403 
Q 1119 906 1312 657 
Q 1506 409 1894 409 
Q 2359 409 2629 706 
Q 2900 1003 2900 1516 
L 2900 3500 
L 3475 3500 
L 3475 0 
L 2900 0 
L 2900 538 
Q 2691 219 2414 64 
Q 2138 -91 1772 -91 
Q 1169 -91 856 284 
Q 544 659 544 1381 
z
M 1991 3584 
L 1991 3584 
z
" id="DejaVuSans-75" transform="scale(0.015625)"/>
       <path d="M 2631 2963 
Q 2534 3019 2420 3045 
Q 2306 3072 2169 3072 
Q 1681 3072 1420 2755 
Q 1159 2438 1159 1844 
L 1159 0 
L 581 0 
L 581 3500 
L 1159 3500 
L 1159 2956 
Q 1341 3275 1631 3429 
Q 1922 3584 2338 3584 
Q 2397 3584 2469 3576 
Q 2541 3569 2628 3553 
L 2631 2963 
z
" id="DejaVuSans-72" transform="scale(0.015625)"/>
       <path d="M 1959 3097 
Q 1497 3097 1228 2736 
Q 959 2375 959 1747 
Q 959 1119 1226 758 
Q 1494 397 1959 397 
Q 2419 397 2687 759 
Q 2956 1122 2956 1747 
Q 2956 2369 2687 2733 
Q 2419 3097 1959 3097 
z
M 1959 3584 
Q 2709 3584 3137 3096 
Q 3566 2609 3566 1747 
Q 3566 888 3137 398 
Q 2709 -91 1959 -91 
Q 1206 -91 779 398 
Q 353 888 353 1747 
Q 353 2609 779 3096 
Q 1206 3584 1959 3584 
z
" id="DejaVuSans-6f" transform="scale(0.015625)"/>
       <path d="M 3122 3366 
L 3122 2828 
Q 2878 2963 2633 3030 
Q 2388 3097 2138 3097 
Q 1578 3097 1268 2742 
Q 959 2388 959 1747 
Q 959 1106 1268 751 
Q 1578 397 2138 397 
Q 2388 397 2633 464 
Q 2878 531 3122 666 
L 3122 134 
Q 2881 22 2623 -34 
Q 2366 -91 2075 -91 
Q 1284 -91 818 406 
Q 353 903 353 1747 
Q 353 2603 823 3093 
Q 1294 3584 2113 3584 
Q 2378 3584 2631 3529 
Q 2884 3475 3122 3366 
z
" id="DejaVuSans-63" transform="scale(0.015625)"/>
      </defs>
      <use xlink:href="#DejaVuSans-41"/>
      <use x="68.408203" xlink:href="#DejaVuSans-75"/>
      <use x="131.787109" xlink:href="#DejaVuSans-72"/>
      <use x="170.650391" xlink:href="#DejaVuSans-6f"/>
      <use x="231.832031" xlink:href="#DejaVuSans-63"/>
     </g>
    </g>
   </g>
   <g id="matplotlib.axis_2">
    <g id="ytick_1">
     <g id="line2d_10">
      <path clip-path="url(#p1206670fab)" d="M 57.6 289.423837 
L 414.72 289.423837 
" style="fill:none;stroke:#cccccc;stroke-linecap:round;stroke-width:0.8;"/>
     </g>
     <g id="text_11">
      <!-- 0.55 -->
      <g style="fill:#262626;" transform="translate(28.334375 293.223055)scale(0.1 -0.1)">
       <defs>
        <path d="M 684 794 
L 1344 794 
L 1344 0 
L 684 0 
L 684 794 
z
" id="DejaVuSans-2e" transform="scale(0.015625)"/>
       </defs>
       <use xlink:href="#DejaVuSans-30"/>
       <use x="63.623047" xlink:href="#DejaVuSans-2e"/>
       <use x="95.410156" xlink:href="#DejaVuSans-35"/>
       <use x="159.033203" xlink:href="#DejaVuSans-35"/>
      </g>
     </g>
    </g>
    <g id="ytick_2">
     <g id="line2d_11">
      <path clip-path="url(#p1206670fab)" d="M 57.6 251.907546 
L 414.72 251.907546 
" style="fill:none;stroke:#cccccc;stroke-linecap:round;stroke-width:0.8;"/>
     </g>
     <g id="text_12">
      <!-- 0.60 -->
      <g style="fill:#262626;" transform="translate(28.334375 255.706765)scale(0.1 -0.1)">
       <defs>
        <path d="M 2113 2584 
Q 1688 2584 1439 2293 
Q 1191 2003 1191 1497 
Q 1191 994 1439 701 
Q 1688 409 2113 409 
Q 2538 409 2786 701 
Q 3034 994 3034 1497 
Q 3034 2003 2786 2293 
Q 2538 2584 2113 2584 
z
M 3366 4563 
L 3366 3988 
Q 3128 4100 2886 4159 
Q 2644 4219 2406 4219 
Q 1781 4219 1451 3797 
Q 1122 3375 1075 2522 
Q 1259 2794 1537 2939 
Q 1816 3084 2150 3084 
Q 2853 3084 3261 2657 
Q 3669 2231 3669 1497 
Q 3669 778 3244 343 
Q 2819 -91 2113 -91 
Q 1303 -91 875 529 
Q 447 1150 447 2328 
Q 447 3434 972 4092 
Q 1497 4750 2381 4750 
Q 2619 4750 2861 4703 
Q 3103 4656 3366 4563 
z
" id="DejaVuSans-36" transform="scale(0.015625)"/>
       </defs>
       <use xlink:href="#DejaVuSans-30"/>
       <use x="63.623047" xlink:href="#DejaVuSans-2e"/>
       <use x="95.410156" xlink:href="#DejaVuSans-36"/>
       <use x="159.033203" xlink:href="#DejaVuSans-30"/>
      </g>
     </g>
    </g>
    <g id="ytick_3">
     <g id="line2d_12">
      <path clip-path="url(#p1206670fab)" d="M 57.6 214.391255 
L 414.72 214.391255 
" style="fill:none;stroke:#cccccc;stroke-linecap:round;stroke-width:0.8;"/>
     </g>
     <g id="text_13">
      <!-- 0.65 -->
      <g style="fill:#262626;" transform="translate(28.334375 218.190474)scale(0.1 -0.1)">
       <use xlink:href="#DejaVuSans-30"/>
       <use x="63.623047" xlink:href="#DejaVuSans-2e"/>
       <use x="95.410156" xlink:href="#DejaVuSans-36"/>
       <use x="159.033203" xlink:href="#DejaVuSans-35"/>
      </g>
     </g>
    </g>
    <g id="ytick_4">
     <g id="line2d_13">
      <path clip-path="url(#p1206670fab)" d="M 57.6 176.874965 
L 414.72 176.874965 
" style="fill:none;stroke:#cccccc;stroke-linecap:round;stroke-width:0.8;"/>
     </g>
     <g id="text_14">
      <!-- 0.70 -->
      <g style="fill:#262626;" transform="translate(28.334375 180.674184)scale(0.1 -0.1)">
       <use xlink:href="#DejaVuSans-30"/>
       <use x="63.623047" xlink:href="#DejaVuSans-2e"/>
       <use x="95.410156" xlink:href="#DejaVuSans-37"/>
       <use x="159.033203" xlink:href="#DejaVuSans-30"/>
      </g>
     </g>
    </g>
    <g id="ytick_5">
     <g id="line2d_14">
      <path clip-path="url(#p1206670fab)" d="M 57.6 139.358674 
L 414.72 139.358674 
" style="fill:none;stroke:#cccccc;stroke-linecap:round;stroke-width:0.8;"/>
     </g>
     <g id="text_15">
      <!-- 0.75 -->
      <g style="fill:#262626;" transform="translate(28.334375 143.157893)scale(0.1 -0.1)">
       <use xlink:href="#DejaVuSans-30"/>
       <use x="63.623047" xlink:href="#DejaVuSans-2e"/>
       <use x="95.410156" xlink:href="#DejaVuSans-37"/>
       <use x="159.033203" xlink:href="#DejaVuSans-35"/>
      </g>
     </g>
    </g>
    <g id="ytick_6">
     <g id="line2d_15">
      <path clip-path="url(#p1206670fab)" d="M 57.6 101.842383 
L 414.72 101.842383 
" style="fill:none;stroke:#cccccc;stroke-linecap:round;stroke-width:0.8;"/>
     </g>
     <g id="text_16">
      <!-- 0.80 -->
      <g style="fill:#262626;" transform="translate(28.334375 105.641602)scale(0.1 -0.1)">
       <defs>
        <path d="M 2034 2216 
Q 1584 2216 1326 1975 
Q 1069 1734 1069 1313 
Q 1069 891 1326 650 
Q 1584 409 2034 409 
Q 2484 409 2743 651 
Q 3003 894 3003 1313 
Q 3003 1734 2745 1975 
Q 2488 2216 2034 2216 
z
M 1403 2484 
Q 997 2584 770 2862 
Q 544 3141 544 3541 
Q 544 4100 942 4425 
Q 1341 4750 2034 4750 
Q 2731 4750 3128 4425 
Q 3525 4100 3525 3541 
Q 3525 3141 3298 2862 
Q 3072 2584 2669 2484 
Q 3125 2378 3379 2068 
Q 3634 1759 3634 1313 
Q 3634 634 3220 271 
Q 2806 -91 2034 -91 
Q 1263 -91 848 271 
Q 434 634 434 1313 
Q 434 1759 690 2068 
Q 947 2378 1403 2484 
z
M 1172 3481 
Q 1172 3119 1398 2916 
Q 1625 2713 2034 2713 
Q 2441 2713 2670 2916 
Q 2900 3119 2900 3481 
Q 2900 3844 2670 4047 
Q 2441 4250 2034 4250 
Q 1625 4250 1398 4047 
Q 1172 3844 1172 3481 
z
" id="DejaVuSans-38" transform="scale(0.015625)"/>
       </defs>
       <use xlink:href="#DejaVuSans-30"/>
       <use x="63.623047" xlink:href="#DejaVuSans-2e"/>
       <use x="95.410156" xlink:href="#DejaVuSans-38"/>
       <use x="159.033203" xlink:href="#DejaVuSans-30"/>
      </g>
     </g>
    </g>
    <g id="ytick_7">
     <g id="line2d_16">
      <path clip-path="url(#p1206670fab)" d="M 57.6 64.326093 
L 414.72 64.326093 
" style="fill:none;stroke:#cccccc;stroke-linecap:round;stroke-width:0.8;"/>
     </g>
     <g id="text_17">
      <!-- 0.85 -->
      <g style="fill:#262626;" transform="translate(28.334375 68.125312)scale(0.1 -0.1)">
       <use xlink:href="#DejaVuSans-30"/>
       <use x="63.623047" xlink:href="#DejaVuSans-2e"/>
       <use x="95.410156" xlink:href="#DejaVuSans-38"/>
       <use x="159.033203" xlink:href="#DejaVuSans-35"/>
      </g>
     </g>
    </g>
    <g id="text_18">
     <!-- Iteration -->
     <g style="fill:#262626;" transform="translate(22.254687 195.736594)rotate(-90)scale(0.1 -0.1)">
      <defs>
       <path d="M 628 4666 
L 1259 4666 
L 1259 0 
L 628 0 
L 628 4666 
z
" id="DejaVuSans-49" transform="scale(0.015625)"/>
       <path d="M 1172 4494 
L 1172 3500 
L 2356 3500 
L 2356 3053 
L 1172 3053 
L 1172 1153 
Q 1172 725 1289 603 
Q 1406 481 1766 481 
L 2356 481 
L 2356 0 
L 1766 0 
Q 1100 0 847 248 
Q 594 497 594 1153 
L 594 3053 
L 172 3053 
L 172 3500 
L 594 3500 
L 594 4494 
L 1172 4494 
z
" id="DejaVuSans-74" transform="scale(0.015625)"/>
       <path d="M 3597 1894 
L 3597 1613 
L 953 1613 
Q 991 1019 1311 708 
Q 1631 397 2203 397 
Q 2534 397 2845 478 
Q 3156 559 3463 722 
L 3463 178 
Q 3153 47 2828 -22 
Q 2503 -91 2169 -91 
Q 1331 -91 842 396 
Q 353 884 353 1716 
Q 353 2575 817 3079 
Q 1281 3584 2069 3584 
Q 2775 3584 3186 3129 
Q 3597 2675 3597 1894 
z
M 3022 2063 
Q 3016 2534 2758 2815 
Q 2500 3097 2075 3097 
Q 1594 3097 1305 2825 
Q 1016 2553 972 2059 
L 3022 2063 
z
" id="DejaVuSans-65" transform="scale(0.015625)"/>
       <path d="M 2194 1759 
Q 1497 1759 1228 1600 
Q 959 1441 959 1056 
Q 959 750 1161 570 
Q 1363 391 1709 391 
Q 2188 391 2477 730 
Q 2766 1069 2766 1631 
L 2766 1759 
L 2194 1759 
z
M 3341 1997 
L 3341 0 
L 2766 0 
L 2766 531 
Q 2569 213 2275 61 
Q 1981 -91 1556 -91 
Q 1019 -91 701 211 
Q 384 513 384 1019 
Q 384 1609 779 1909 
Q 1175 2209 1959 2209 
L 2766 2209 
L 2766 2266 
Q 2766 2663 2505 2880 
Q 2244 3097 1772 3097 
Q 1472 3097 1187 3025 
Q 903 2953 641 2809 
L 641 3341 
Q 956 3463 1253 3523 
Q 1550 3584 1831 3584 
Q 2591 3584 2966 3190 
Q 3341 2797 3341 1997 
z
" id="DejaVuSans-61" transform="scale(0.015625)"/>
       <path d="M 603 3500 
L 1178 3500 
L 1178 0 
L 603 0 
L 603 3500 
z
M 603 4863 
L 1178 4863 
L 1178 4134 
L 603 4134 
L 603 4863 
z
" id="DejaVuSans-69" transform="scale(0.015625)"/>
       <path d="M 3513 2113 
L 3513 0 
L 2938 0 
L 2938 2094 
Q 2938 2591 2744 2837 
Q 2550 3084 2163 3084 
Q 1697 3084 1428 2787 
Q 1159 2491 1159 1978 
L 1159 0 
L 581 0 
L 581 3500 
L 1159 3500 
L 1159 2956 
Q 1366 3272 1645 3428 
Q 1925 3584 2291 3584 
Q 2894 3584 3203 3211 
Q 3513 2838 3513 2113 
z
" id="DejaVuSans-6e" transform="scale(0.015625)"/>
      </defs>
      <use xlink:href="#DejaVuSans-49"/>
      <use x="29.492188" xlink:href="#DejaVuSans-74"/>
      <use x="68.701172" xlink:href="#DejaVuSans-65"/>
      <use x="130.224609" xlink:href="#DejaVuSans-72"/>
      <use x="171.337891" xlink:href="#DejaVuSans-61"/>
      <use x="232.617188" xlink:href="#DejaVuSans-74"/>
      <use x="271.826172" xlink:href="#DejaVuSans-69"/>
      <use x="299.609375" xlink:href="#DejaVuSans-6f"/>
      <use x="360.791016" xlink:href="#DejaVuSans-6e"/>
     </g>
    </g>
   </g>
   <g id="PolyCollection_1">
    <defs>
     <path d="M 73.832727 -237.512901 
L 73.832727 -119.115429 
L 75.464157 -185.65166 
L 77.095587 -147.12834 
L 78.727017 -145.961805 
L 80.358447 -139.157227 
L 81.989877 -76.481935 
L 83.621307 -137.354518 
L 85.252736 -169.019384 
L 86.884166 -97.64685 
L 88.515596 -96.202612 
L 90.147026 -64.483314 
L 91.778456 -142.953344 
L 93.409886 -135.374178 
L 95.041316 -138.826777 
L 96.672746 -95.260553 
L 98.304175 -161.117163 
L 99.935605 -130.955941 
L 101.567035 -127.250449 
L 103.198465 -124.718062 
L 104.829895 -135.23302 
L 106.461325 -97.419569 
L 108.092755 -169.328818 
L 109.724185 -154.0443 
L 111.355614 -121.320269 
L 112.987044 -170.322352 
L 114.618474 -172.17295 
L 116.249904 -189.664203 
L 117.881334 -125.151132 
L 119.512764 -141.517468 
L 121.144194 -139.788441 
L 122.775624 -198.390437 
L 124.407053 -209.853571 
L 126.038483 -160.637411 
L 127.669913 -170.199423 
L 129.301343 -148.948312 
L 130.932773 -162.741492 
L 132.564203 -217.811297 
L 134.195633 -101.341819 
L 135.827063 -63.482501 
L 137.458492 -148.46353 
L 139.089922 -81.302725 
L 140.721352 -156.077593 
L 142.352782 -175.784141 
L 143.984212 -127.954461 
L 145.615642 -148.892786 
L 147.247072 -191.837293 
L 148.878502 -138.589751 
L 150.509931 -184.974381 
L 152.141361 -118.7253 
L 153.772791 -170.798927 
L 155.404221 -178.69282 
L 157.035651 -168.934226 
L 158.667081 -126.409731 
L 160.298511 -121.057155 
L 161.929941 -167.808306 
L 163.56137 -90.754283 
L 165.1928 -88.962811 
L 166.82423 -172.027193 
L 168.45566 -151.34669 
L 170.08709 -96.976249 
L 171.71852 -64.068307 
L 173.34995 -153.062022 
L 174.98138 -188.739525 
L 176.61281 -149.880556 
L 178.244239 -190.060654 
L 179.875669 -136.024679 
L 181.507099 -115.636181 
L 183.138529 -157.460394 
L 184.769959 -167.735469 
L 186.401389 -75.683423 
L 188.032819 -156.548082 
L 189.664249 -154.848292 
L 191.295678 -140.56971 
L 192.927108 -123.674759 
L 194.558538 -108.932862 
L 196.189968 -129.162684 
L 197.821398 -97.946888 
L 199.452828 -157.028178 
L 201.084258 -151.598374 
L 202.715688 -88.612327 
L 204.347117 -99.678242 
L 205.978547 -103.484951 
L 207.609977 -131.619194 
L 209.241407 -161.240758 
L 210.872837 -119.936877 
L 212.504267 -139.821819 
L 214.135697 -151.03678 
L 215.767127 -62.737957 
L 217.398556 -219.365463 
L 219.029986 -119.114065 
L 220.661416 -185.269171 
L 222.292846 -151.064424 
L 223.924276 -51.165007 
L 225.555706 -164.192528 
L 227.187136 -157.764139 
L 228.818566 -84.377226 
L 230.449995 -170.727357 
L 232.081425 -50.112 
L 233.712855 -98.939673 
L 235.344285 -124.236274 
L 236.975715 -93.405521 
L 238.607145 -138.802837 
L 240.238575 -125.99101 
L 241.870005 -127.350699 
L 243.501434 -144.900649 
L 245.132864 -129.543375 
L 246.764294 -61.482655 
L 248.395724 -173.167658 
L 250.027154 -142.173364 
L 251.658584 -164.711304 
L 253.290014 -163.17598 
L 254.921444 -181.779806 
L 256.552873 -106.19857 
L 258.184303 -197.30371 
L 259.815733 -160.032059 
L 261.447163 -165.591938 
L 263.078593 -149.789928 
L 264.710023 -88.148602 
L 266.341453 -177.064605 
L 267.972883 -189.577997 
L 269.604312 -109.891625 
L 271.235742 -153.784159 
L 272.867172 -214.052051 
L 274.498602 -147.303463 
L 276.130032 -119.456407 
L 277.761462 -122.64968 
L 279.392892 -141.857617 
L 281.024322 -77.97333 
L 282.655751 -118.451164 
L 284.287181 -100.989846 
L 285.918611 -117.352276 
L 287.550041 -202.97319 
L 289.181471 -183.339861 
L 290.812901 -80.634493 
L 292.444331 -163.303901 
L 294.075761 -210.407066 
L 295.70719 -110.975583 
L 297.33862 -146.180974 
L 298.97005 -94.188127 
L 300.60148 -146.487727 
L 302.23291 -134.075754 
L 303.86434 -110.697499 
L 305.49577 -153.819233 
L 307.1272 -138.530283 
L 308.75863 -193.434344 
L 310.390059 -173.319726 
L 312.021489 -148.966683 
L 313.652919 -122.062537 
L 315.284349 -161.370766 
L 316.915779 -136.621205 
L 318.547209 -159.738364 
L 320.178639 -183.596416 
L 321.810069 -77.784268 
L 323.441498 -158.923936 
L 325.072928 -92.902288 
L 326.704358 -116.142279 
L 328.335788 -132.205602 
L 329.967218 -161.554771 
L 331.598648 -194.610297 
L 333.230078 -70.301632 
L 334.861508 -81.6938 
L 336.492937 -81.68799 
L 338.124367 -137.150233 
L 339.755797 -98.324937 
L 341.387227 -168.588147 
L 343.018657 -141.968137 
L 344.650087 -101.04832 
L 346.281517 -64.095295 
L 347.912947 -137.392644 
L 349.544376 -107.748724 
L 351.175806 -154.614004 
L 352.807236 -165.71991 
L 354.438666 -126.325 
L 356.070096 -119.633493 
L 357.701526 -143.529036 
L 359.332956 -140.989692 
L 360.964386 -160.203761 
L 362.595815 -113.441883 
L 364.227245 -162.986814 
L 365.858675 -133.373157 
L 367.490105 -96.628005 
L 369.121535 -189.014833 
L 370.752965 -113.55945 
L 372.384395 -129.574109 
L 374.015825 -195.275404 
L 375.647254 -173.861949 
L 377.278684 -115.041266 
L 378.910114 -189.626772 
L 380.541544 -155.966265 
L 382.172974 -116.995799 
L 383.804404 -109.771447 
L 385.435834 -171.796821 
L 387.067264 -205.264432 
L 388.698693 -127.45762 
L 390.330123 -141.43246 
L 391.961553 -120.808715 
L 393.592983 -79.130918 
L 395.224413 -75.112141 
L 396.855843 -121.300991 
L 398.487273 -133.418198 
L 398.487273 -247.528678 
L 398.487273 -247.528678 
L 396.855843 -227.897883 
L 395.224413 -235.914329 
L 393.592983 -224.474643 
L 391.961553 -222.105471 
L 390.330123 -239.010689 
L 388.698693 -292.032 
L 387.067264 -268.015038 
L 385.435834 -233.670026 
L 383.804404 -270.002079 
L 382.172974 -213.564289 
L 380.541544 -234.11958 
L 378.910114 -231.062889 
L 377.278684 -256.809406 
L 375.647254 -260.685607 
L 374.015825 -255.718791 
L 372.384395 -261.120011 
L 370.752965 -233.668957 
L 369.121535 -256.229927 
L 367.490105 -205.606417 
L 365.858675 -271.22926 
L 364.227245 -240.14548 
L 362.595815 -203.027975 
L 360.964386 -254.934873 
L 359.332956 -234.747768 
L 357.701526 -276.320487 
L 356.070096 -255.987709 
L 354.438666 -230.261474 
L 352.807236 -265.6315 
L 351.175806 -235.581845 
L 349.544376 -222.965115 
L 347.912947 -252.276532 
L 346.281517 -229.758694 
L 344.650087 -224.575162 
L 343.018657 -193.833114 
L 341.387227 -250.603027 
L 339.755797 -203.188879 
L 338.124367 -257.053572 
L 336.492937 -242.111247 
L 334.861508 -201.431128 
L 333.230078 -262.991895 
L 331.598648 -259.724012 
L 329.967218 -266.701769 
L 328.335788 -243.266358 
L 326.704358 -192.43058 
L 325.072928 -212.778835 
L 323.441498 -266.442759 
L 321.810069 -239.01531 
L 320.178639 -267.495819 
L 318.547209 -232.236928 
L 316.915779 -246.370759 
L 315.284349 -224.947931 
L 313.652919 -256.125008 
L 312.021489 -225.643975 
L 310.390059 -272.844921 
L 308.75863 -266.015415 
L 307.1272 -237.08761 
L 305.49577 -237.824229 
L 303.86434 -207.50431 
L 302.23291 -243.534244 
L 300.60148 -266.476941 
L 298.97005 -260.701162 
L 297.33862 -225.26423 
L 295.70719 -184.017064 
L 294.075761 -250.086256 
L 292.444331 -241.736567 
L 290.812901 -248.460708 
L 289.181471 -259.481798 
L 287.550041 -270.472395 
L 285.918611 -248.219889 
L 284.287181 -235.885987 
L 282.655751 -236.357067 
L 281.024322 -229.885322 
L 279.392892 -268.891302 
L 277.761462 -244.558469 
L 276.130032 -229.991786 
L 274.498602 -266.823936 
L 272.867172 -265.676296 
L 271.235742 -251.906114 
L 269.604312 -159.424102 
L 267.972883 -234.201916 
L 266.341453 -251.4926 
L 264.710023 -232.971125 
L 263.078593 -227.321507 
L 261.447163 -237.505227 
L 259.815733 -241.152567 
L 258.184303 -236.440582 
L 256.552873 -239.298795 
L 254.921444 -248.761468 
L 253.290014 -218.967628 
L 251.658584 -258.077303 
L 250.027154 -241.222832 
L 248.395724 -246.987294 
L 246.764294 -245.99293 
L 245.132864 -212.309138 
L 243.501434 -245.491715 
L 241.870005 -278.253062 
L 240.238575 -242.34245 
L 238.607145 -232.218534 
L 236.975715 -217.698261 
L 235.344285 -230.769018 
L 233.712855 -213.452408 
L 232.081425 -195.680481 
L 230.449995 -245.694485 
L 228.818566 -232.966371 
L 227.187136 -244.106984 
L 225.555706 -227.367149 
L 223.924276 -202.301701 
L 222.292846 -267.577276 
L 220.661416 -235.932544 
L 219.029986 -234.299936 
L 217.398556 -264.510882 
L 215.767127 -214.909838 
L 214.135697 -228.412154 
L 212.504267 -269.218496 
L 210.872837 -255.137652 
L 209.241407 -206.536574 
L 207.609977 -249.081928 
L 205.978547 -187.054705 
L 204.347117 -218.915144 
L 202.715688 -201.632847 
L 201.084258 -219.807082 
L 199.452828 -246.742319 
L 197.821398 -251.245368 
L 196.189968 -230.419093 
L 194.558538 -212.700556 
L 192.927108 -209.518365 
L 191.295678 -254.073783 
L 189.664249 -222.81978 
L 188.032819 -215.214805 
L 186.401389 -256.796768 
L 184.769959 -247.416911 
L 183.138529 -235.606681 
L 181.507099 -246.4103 
L 179.875669 -238.405791 
L 178.244239 -211.919745 
L 176.61281 -257.513702 
L 174.98138 -240.084307 
L 173.34995 -269.806042 
L 171.71852 -213.556651 
L 170.08709 -263.115764 
L 168.45566 -235.516026 
L 166.82423 -262.927104 
L 165.1928 -228.019865 
L 163.56137 -248.435338 
L 161.929941 -239.848507 
L 160.298511 -243.441846 
L 158.667081 -258.951225 
L 157.035651 -227.15317 
L 155.404221 -243.668171 
L 153.772791 -217.460345 
L 152.141361 -252.538588 
L 150.509931 -268.292728 
L 148.878502 -228.695201 
L 147.247072 -242.753574 
L 145.615642 -255.636392 
L 143.984212 -266.279563 
L 142.352782 -247.213818 
L 140.721352 -272.33357 
L 139.089922 -204.712085 
L 137.458492 -191.490772 
L 135.827063 -231.690188 
L 134.195633 -254.759548 
L 132.564203 -253.960413 
L 130.932773 -239.93475 
L 129.301343 -244.818205 
L 127.669913 -225.499888 
L 126.038483 -246.963 
L 124.407053 -253.229585 
L 122.775624 -267.158659 
L 121.144194 -207.95682 
L 119.512764 -220.339733 
L 117.881334 -208.141523 
L 116.249904 -277.737175 
L 114.618474 -222.669895 
L 112.987044 -224.968144 
L 111.355614 -231.696264 
L 109.724185 -240.146122 
L 108.092755 -231.152875 
L 106.461325 -267.95928 
L 104.829895 -254.084544 
L 103.198465 -231.557238 
L 101.567035 -247.278824 
L 99.935605 -230.706053 
L 98.304175 -283.079089 
L 96.672746 -213.6645 
L 95.041316 -213.849418 
L 93.409886 -244.745469 
L 91.778456 -254.837093 
L 90.147026 -229.934985 
L 88.515596 -200.913199 
L 86.884166 -244.723462 
L 85.252736 -251.351321 
L 83.621307 -220.688915 
L 81.989877 -235.850471 
L 80.358447 -235.628237 
L 78.727017 -252.922088 
L 77.095587 -236.196218 
L 75.464157 -231.488171 
L 73.832727 -237.512901 
z
" id="m5225b890d4" style="stroke:#ffffff;stroke-opacity:0.2;"/>
    </defs>
    <g clip-path="url(#p1206670fab)">
     <use style="fill:#1f77b4;fill-opacity:0.2;stroke:#ffffff;stroke-opacity:0.2;" x="0" xlink:href="#m5225b890d4" y="345.6"/>
    </g>
   </g>
   <g id="LineCollection_1">
    <path clip-path="url(#p1206670fab)" d="M 398.487273 295.488 
L 398.487273 53.568 
" style="fill:none;stroke:#1f77b4;stroke-dasharray:5.55,2.4;stroke-dashoffset:0;stroke-width:1.5;"/>
   </g>
   <g id="line2d_17">
    <path clip-path="url(#p1206670fab)" d="M 73.832727 167.285835 
L 75.464157 137.030085 
L 77.095587 153.937721 
L 78.727017 146.158053 
L 80.358447 158.207268 
L 81.989877 189.433797 
L 83.621307 166.578283 
L 85.252736 135.414648 
L 86.884166 174.414844 
L 88.515596 197.042095 
L 90.147026 198.39085 
L 91.778456 146.704781 
L 93.409886 155.540176 
L 95.041316 169.261903 
L 96.672746 191.137474 
L 98.304175 123.501874 
L 99.935605 164.769003 
L 101.567035 158.335363 
L 103.198465 167.46235 
L 104.829895 150.941218 
L 106.461325 162.910575 
L 108.092755 145.359153 
L 109.724185 148.504789 
L 111.355614 169.091733 
L 112.987044 147.954752 
L 114.618474 148.178578 
L 116.249904 111.899311 
L 117.881334 178.953673 
L 119.512764 164.671399 
L 121.144194 171.727369 
L 122.775624 112.825452 
L 124.407053 114.058422 
L 126.038483 141.799794 
L 127.669913 147.750345 
L 129.301343 148.716742 
L 130.932773 144.261879 
L 132.564203 109.714145 
L 134.195633 167.549317 
L 135.827063 198.013656 
L 137.458492 175.622849 
L 139.089922 202.592595 
L 140.721352 131.394418 
L 142.352782 134.101021 
L 143.984212 148.482988 
L 145.615642 143.335411 
L 147.247072 128.304567 
L 148.878502 161.957524 
L 150.509931 118.966445 
L 152.141361 159.968056 
L 153.772791 151.470364 
L 155.404221 134.419504 
L 157.035651 147.556302 
L 158.667081 152.919522 
L 160.298511 163.350499 
L 161.929941 141.771593 
L 163.56137 176.005189 
L 165.1928 187.108662 
L 166.82423 128.122851 
L 168.45566 152.168642 
L 170.08709 165.553993 
L 171.71852 206.787521 
L 173.34995 134.165968 
L 174.98138 131.188084 
L 176.61281 141.902871 
L 178.244239 144.6098 
L 179.875669 158.384765 
L 181.507099 164.57676 
L 183.138529 149.066463 
L 184.769959 138.02381 
L 186.401389 179.359905 
L 188.032819 159.718556 
L 189.664249 156.765964 
L 191.295678 148.278254 
L 192.927108 179.003438 
L 194.558538 184.783291 
L 196.189968 165.809111 
L 197.821398 171.003872 
L 199.452828 143.714751 
L 201.084258 159.897272 
L 202.715688 200.477413 
L 204.347117 186.303307 
L 205.978547 200.330172 
L 207.609977 155.249439 
L 209.241407 161.711334 
L 210.872837 158.062736 
L 212.504267 141.079842 
L 214.135697 155.875533 
L 215.767127 206.776103 
L 217.398556 103.661828 
L 219.029986 168.892999 
L 220.661416 134.999142 
L 222.292846 136.27915 
L 223.924276 218.866646 
L 225.555706 149.820161 
L 227.187136 144.664438 
L 228.818566 186.928202 
L 230.449995 137.389079 
L 232.081425 222.70376 
L 233.712855 189.403959 
L 235.344285 168.097354 
L 236.975715 190.048109 
L 238.607145 160.089315 
L 240.238575 161.43327 
L 241.870005 142.79812 
L 243.501434 150.403818 
L 245.132864 174.673744 
L 246.764294 191.862208 
L 248.395724 135.522524 
L 250.027154 153.901902 
L 251.658584 134.205697 
L 253.290014 154.528196 
L 254.921444 130.329363 
L 256.552873 172.851317 
L 258.184303 128.727854 
L 259.815733 145.007687 
L 261.447163 144.051417 
L 263.078593 157.044283 
L 264.710023 185.040137 
L 266.341453 131.321398 
L 267.972883 133.710043 
L 269.604312 210.942137 
L 271.235742 142.754864 
L 272.867172 105.735827 
L 276.130032 170.875904 
L 277.761462 161.995926 
L 279.392892 140.22554 
L 281.024322 191.670674 
L 282.655751 168.195884 
L 284.287181 177.162084 
L 285.918611 162.813917 
L 287.550041 108.877207 
L 289.181471 124.18917 
L 290.812901 181.052399 
L 292.444331 143.079766 
L 294.075761 115.353339 
L 295.70719 198.103677 
L 297.33862 159.877398 
L 298.97005 168.155356 
L 300.60148 139.117666 
L 302.23291 156.795001 
L 303.86434 186.499096 
L 305.49577 149.778269 
L 307.1272 157.791054 
L 308.75863 115.875121 
L 310.390059 122.517677 
L 312.021489 158.294671 
L 313.652919 156.506228 
L 315.284349 152.440651 
L 316.915779 154.104018 
L 318.547209 149.612354 
L 320.178639 120.053883 
L 321.810069 187.200211 
L 323.441498 132.916652 
L 325.072928 192.759438 
L 326.704358 191.313571 
L 328.335788 157.86402 
L 329.967218 131.47173 
L 331.598648 118.432845 
L 333.230078 178.953236 
L 334.861508 204.037536 
L 336.492937 183.700381 
L 338.124367 148.498098 
L 339.755797 194.843092 
L 341.387227 136.004413 
L 343.018657 177.699375 
L 344.650087 182.788259 
L 346.281517 198.673006 
L 347.912947 150.765412 
L 349.544376 180.243081 
L 351.175806 150.502076 
L 352.807236 129.924295 
L 354.438666 167.306763 
L 356.070096 157.789399 
L 357.701526 135.675238 
L 359.332956 157.73127 
L 360.964386 138.030683 
L 362.595815 187.365071 
L 364.227245 144.033853 
L 365.858675 143.298791 
L 367.490105 194.482789 
L 369.121535 122.97762 
L 370.752965 171.985797 
L 372.384395 150.25294 
L 374.015825 120.102903 
L 375.647254 128.326222 
L 377.278684 159.674664 
L 378.910114 135.255169 
L 380.541544 150.557078 
L 382.172974 180.319956 
L 383.804404 155.713237 
L 385.435834 142.866577 
L 387.067264 108.960265 
L 388.698693 135.85519 
L 393.592983 193.79722 
L 395.224413 190.086765 
L 396.855843 171.000563 
L 398.487273 155.126562 
L 398.487273 155.126562 
" style="fill:none;stroke:#1f77b4;stroke-linecap:round;stroke-width:1.5;"/>
   </g>
   <g id="patch_3">
    <path d="M 57.6 307.584 
L 57.6 41.472 
" style="fill:none;stroke:#cccccc;stroke-linecap:square;stroke-linejoin:miter;stroke-width:0.8;"/>
   </g>
   <g id="patch_4">
    <path d="M 414.72 307.584 
L 414.72 41.472 
" style="fill:none;stroke:#cccccc;stroke-linecap:square;stroke-linejoin:miter;stroke-width:0.8;"/>
   </g>
   <g id="patch_5">
    <path d="M 57.6 307.584 
L 414.72 307.584 
" style="fill:none;stroke:#cccccc;stroke-linecap:square;stroke-linejoin:miter;stroke-width:0.8;"/>
   </g>
   <g id="patch_6">
    <path d="M 57.6 41.472 
L 414.72 41.472 
" style="fill:none;stroke:#cccccc;stroke-linecap:square;stroke-linejoin:miter;stroke-width:0.8;"/>
   </g>
   <g id="text_19">
    <!-- Model performance vs. # of iterations -->
    <g style="fill:#262626;" transform="translate(122.314688 35.472)scale(0.12 -0.12)">
     <defs>
      <path d="M 628 4666 
L 1569 4666 
L 2759 1491 
L 3956 4666 
L 4897 4666 
L 4897 0 
L 4281 0 
L 4281 4097 
L 3078 897 
L 2444 897 
L 1241 4097 
L 1241 0 
L 628 0 
L 628 4666 
z
" id="DejaVuSans-4d" transform="scale(0.015625)"/>
      <path d="M 2906 2969 
L 2906 4863 
L 3481 4863 
L 3481 0 
L 2906 0 
L 2906 525 
Q 2725 213 2448 61 
Q 2172 -91 1784 -91 
Q 1150 -91 751 415 
Q 353 922 353 1747 
Q 353 2572 751 3078 
Q 1150 3584 1784 3584 
Q 2172 3584 2448 3432 
Q 2725 3281 2906 2969 
z
M 947 1747 
Q 947 1113 1208 752 
Q 1469 391 1925 391 
Q 2381 391 2643 752 
Q 2906 1113 2906 1747 
Q 2906 2381 2643 2742 
Q 2381 3103 1925 3103 
Q 1469 3103 1208 2742 
Q 947 2381 947 1747 
z
" id="DejaVuSans-64" transform="scale(0.015625)"/>
      <path d="M 603 4863 
L 1178 4863 
L 1178 0 
L 603 0 
L 603 4863 
z
" id="DejaVuSans-6c" transform="scale(0.015625)"/>
      <path id="DejaVuSans-20" transform="scale(0.015625)"/>
      <path d="M 1159 525 
L 1159 -1331 
L 581 -1331 
L 581 3500 
L 1159 3500 
L 1159 2969 
Q 1341 3281 1617 3432 
Q 1894 3584 2278 3584 
Q 2916 3584 3314 3078 
Q 3713 2572 3713 1747 
Q 3713 922 3314 415 
Q 2916 -91 2278 -91 
Q 1894 -91 1617 61 
Q 1341 213 1159 525 
z
M 3116 1747 
Q 3116 2381 2855 2742 
Q 2594 3103 2138 3103 
Q 1681 3103 1420 2742 
Q 1159 2381 1159 1747 
Q 1159 1113 1420 752 
Q 1681 391 2138 391 
Q 2594 391 2855 752 
Q 3116 1113 3116 1747 
z
" id="DejaVuSans-70" transform="scale(0.015625)"/>
      <path d="M 2375 4863 
L 2375 4384 
L 1825 4384 
Q 1516 4384 1395 4259 
Q 1275 4134 1275 3809 
L 1275 3500 
L 2222 3500 
L 2222 3053 
L 1275 3053 
L 1275 0 
L 697 0 
L 697 3053 
L 147 3053 
L 147 3500 
L 697 3500 
L 697 3744 
Q 697 4328 969 4595 
Q 1241 4863 1831 4863 
L 2375 4863 
z
" id="DejaVuSans-66" transform="scale(0.015625)"/>
      <path d="M 3328 2828 
Q 3544 3216 3844 3400 
Q 4144 3584 4550 3584 
Q 5097 3584 5394 3201 
Q 5691 2819 5691 2113 
L 5691 0 
L 5113 0 
L 5113 2094 
Q 5113 2597 4934 2840 
Q 4756 3084 4391 3084 
Q 3944 3084 3684 2787 
Q 3425 2491 3425 1978 
L 3425 0 
L 2847 0 
L 2847 2094 
Q 2847 2600 2669 2842 
Q 2491 3084 2119 3084 
Q 1678 3084 1418 2786 
Q 1159 2488 1159 1978 
L 1159 0 
L 581 0 
L 581 3500 
L 1159 3500 
L 1159 2956 
Q 1356 3278 1631 3431 
Q 1906 3584 2284 3584 
Q 2666 3584 2933 3390 
Q 3200 3197 3328 2828 
z
" id="DejaVuSans-6d" transform="scale(0.015625)"/>
      <path d="M 191 3500 
L 800 3500 
L 1894 563 
L 2988 3500 
L 3597 3500 
L 2284 0 
L 1503 0 
L 191 3500 
z
" id="DejaVuSans-76" transform="scale(0.015625)"/>
      <path d="M 2834 3397 
L 2834 2853 
Q 2591 2978 2328 3040 
Q 2066 3103 1784 3103 
Q 1356 3103 1142 2972 
Q 928 2841 928 2578 
Q 928 2378 1081 2264 
Q 1234 2150 1697 2047 
L 1894 2003 
Q 2506 1872 2764 1633 
Q 3022 1394 3022 966 
Q 3022 478 2636 193 
Q 2250 -91 1575 -91 
Q 1294 -91 989 -36 
Q 684 19 347 128 
L 347 722 
Q 666 556 975 473 
Q 1284 391 1588 391 
Q 1994 391 2212 530 
Q 2431 669 2431 922 
Q 2431 1156 2273 1281 
Q 2116 1406 1581 1522 
L 1381 1569 
Q 847 1681 609 1914 
Q 372 2147 372 2553 
Q 372 3047 722 3315 
Q 1072 3584 1716 3584 
Q 2034 3584 2315 3537 
Q 2597 3491 2834 3397 
z
" id="DejaVuSans-73" transform="scale(0.015625)"/>
      <path d="M 3272 2816 
L 2363 2816 
L 2100 1772 
L 3016 1772 
L 3272 2816 
z
M 2803 4594 
L 2478 3297 
L 3391 3297 
L 3719 4594 
L 4219 4594 
L 3897 3297 
L 4872 3297 
L 4872 2816 
L 3775 2816 
L 3519 1772 
L 4513 1772 
L 4513 1294 
L 3397 1294 
L 3072 0 
L 2572 0 
L 2894 1294 
L 1978 1294 
L 1656 0 
L 1153 0 
L 1478 1294 
L 494 1294 
L 494 1772 
L 1594 1772 
L 1856 2816 
L 850 2816 
L 850 3297 
L 1978 3297 
L 2297 4594 
L 2803 4594 
z
" id="DejaVuSans-23" transform="scale(0.015625)"/>
     </defs>
     <use xlink:href="#DejaVuSans-4d"/>
     <use x="86.279297" xlink:href="#DejaVuSans-6f"/>
     <use x="147.460938" xlink:href="#DejaVuSans-64"/>
     <use x="210.9375" xlink:href="#DejaVuSans-65"/>
     <use x="272.460938" xlink:href="#DejaVuSans-6c"/>
     <use x="300.244141" xlink:href="#DejaVuSans-20"/>
     <use x="332.03125" xlink:href="#DejaVuSans-70"/>
     <use x="395.507812" xlink:href="#DejaVuSans-65"/>
     <use x="457.03125" xlink:href="#DejaVuSans-72"/>
     <use x="498.144531" xlink:href="#DejaVuSans-66"/>
     <use x="533.349609" xlink:href="#DejaVuSans-6f"/>
     <use x="594.53125" xlink:href="#DejaVuSans-72"/>
     <use x="633.894531" xlink:href="#DejaVuSans-6d"/>
     <use x="731.306641" xlink:href="#DejaVuSans-61"/>
     <use x="792.585938" xlink:href="#DejaVuSans-6e"/>
     <use x="855.964844" xlink:href="#DejaVuSans-63"/>
     <use x="910.945312" xlink:href="#DejaVuSans-65"/>
     <use x="972.46875" xlink:href="#DejaVuSans-20"/>
     <use x="1004.255859" xlink:href="#DejaVuSans-76"/>
     <use x="1063.435547" xlink:href="#DejaVuSans-73"/>
     <use x="1115.535156" xlink:href="#DejaVuSans-2e"/>
     <use x="1147.322266" xlink:href="#DejaVuSans-20"/>
     <use x="1179.109375" xlink:href="#DejaVuSans-23"/>
     <use x="1262.898438" xlink:href="#DejaVuSans-20"/>
     <use x="1294.685547" xlink:href="#DejaVuSans-6f"/>
     <use x="1355.867188" xlink:href="#DejaVuSans-66"/>
     <use x="1391.072266" xlink:href="#DejaVuSans-20"/>
     <use x="1422.859375" xlink:href="#DejaVuSans-69"/>
     <use x="1450.642578" xlink:href="#DejaVuSans-74"/>
     <use x="1489.851562" xlink:href="#DejaVuSans-65"/>
     <use x="1551.375" xlink:href="#DejaVuSans-72"/>
     <use x="1592.488281" xlink:href="#DejaVuSans-61"/>
     <use x="1653.767578" xlink:href="#DejaVuSans-74"/>
     <use x="1692.976562" xlink:href="#DejaVuSans-69"/>
     <use x="1720.759766" xlink:href="#DejaVuSans-6f"/>
     <use x="1781.941406" xlink:href="#DejaVuSans-6e"/>
     <use x="1845.320312" xlink:href="#DejaVuSans-73"/>
    </g>
   </g>
  </g>
 </g>
 <defs>
  <clipPath id="p1206670fab">
   <rect height="266.112" width="357.12" x="57.6" y="41.472"/>
  </clipPath>
 </defs>
</svg>
