<?xml version="1.0" encoding="utf-8" standalone="no"?>
<!DOCTYPE svg PUBLIC "-//W3C//DTD SVG 1.1//EN"
  "http://www.w3.org/Graphics/SVG/1.1/DTD/svg11.dtd">
<svg xmlns:xlink="http://www.w3.org/1999/xlink" width="460.8pt" height="345.6pt" viewBox="0 0 460.8 345.6" xmlns="http://www.w3.org/2000/svg" version="1.1">
 <metadata>
  <rdf:RDF xmlns:dc="http://purl.org/dc/elements/1.1/" xmlns:cc="http://creativecommons.org/ns#" xmlns:rdf="http://www.w3.org/1999/02/22-rdf-syntax-ns#">
   <cc:Work>
    <dc:type rdf:resource="http://purl.org/dc/dcmitype/StillImage"/>
    <dc:date>2022-10-30T02:19:40.731735</dc:date>
    <dc:format>image/svg+xml</dc:format>
    <dc:creator>
     <cc:Agent>
      <dc:title>Matplotlib v3.5.2, https://matplotlib.org/</dc:title>
     </cc:Agent>
    </dc:creator>
   </cc:Work>
  </rdf:RDF>
 </metadata>
 <defs>
  <style type="text/css">*{stroke-linejoin: round; stroke-linecap: butt}</style>
 </defs>
 <g id="figure_1">
  <g id="patch_1">
   <path d="M 0 345.6 
L 460.8 345.6 
L 460.8 0 
L 0 0 
z
" style="fill: #ffffff"/>
  </g>
  <g id="axes_1">
   <g id="patch_2">
    <path d="M 57.6 307.584 
L 414.72 307.584 
L 414.72 41.472 
L 57.6 41.472 
z
" style="fill: #ffffff"/>
   </g>
   <g id="matplotlib.axis_1">
    <g id="xtick_1">
     <g id="line2d_1">
      <path d="M 72.201297 307.584 
L 72.201297 41.472 
" clip-path="url(#pac4187af56)" style="fill: none; stroke: #cccccc; stroke-width: 0.8; stroke-linecap: round"/>
     </g>
     <g id="text_1">
      <!-- 0 -->
      <g style="fill: #262626" transform="translate(69.020047 322.182437)scale(0.1 -0.1)">
       <defs>
        <path id="DejaVuSans-30" d="M 2034 4250 
Q 1547 4250 1301 3770 
Q 1056 3291 1056 2328 
Q 1056 1369 1301 889 
Q 1547 409 2034 409 
Q 2525 409 2770 889 
Q 3016 1369 3016 2328 
Q 3016 3291 2770 3770 
Q 2525 4250 2034 4250 
z
M 2034 4750 
Q 2819 4750 3233 4129 
Q 3647 3509 3647 2328 
Q 3647 1150 3233 529 
Q 2819 -91 2034 -91 
Q 1250 -91 836 529 
Q 422 1150 422 2328 
Q 422 3509 836 4129 
Q 1250 4750 2034 4750 
z
" transform="scale(0.015625)"/>
       </defs>
       <use xlink:href="#DejaVuSans-30"/>
      </g>
     </g>
    </g>
    <g id="xtick_2">
     <g id="line2d_2">
      <path d="M 112.987044 307.584 
L 112.987044 41.472 
" clip-path="url(#pac4187af56)" style="fill: none; stroke: #cccccc; stroke-width: 0.8; stroke-linecap: round"/>
     </g>
     <g id="text_2">
      <!-- 25 -->
      <g style="fill: #262626" transform="translate(106.624544 322.182437)scale(0.1 -0.1)">
       <defs>
        <path id="DejaVuSans-32" d="M 1228 531 
L 3431 531 
L 3431 0 
L 469 0 
L 469 531 
Q 828 903 1448 1529 
Q 2069 2156 2228 2338 
Q 2531 2678 2651 2914 
Q 2772 3150 2772 3378 
Q 2772 3750 2511 3984 
Q 2250 4219 1831 4219 
Q 1534 4219 1204 4116 
Q 875 4013 500 3803 
L 500 4441 
Q 881 4594 1212 4672 
Q 1544 4750 1819 4750 
Q 2544 4750 2975 4387 
Q 3406 4025 3406 3419 
Q 3406 3131 3298 2873 
Q 3191 2616 2906 2266 
Q 2828 2175 2409 1742 
Q 1991 1309 1228 531 
z
" transform="scale(0.015625)"/>
        <path id="DejaVuSans-35" d="M 691 4666 
L 3169 4666 
L 3169 4134 
L 1269 4134 
L 1269 2991 
Q 1406 3038 1543 3061 
Q 1681 3084 1819 3084 
Q 2600 3084 3056 2656 
Q 3513 2228 3513 1497 
Q 3513 744 3044 326 
Q 2575 -91 1722 -91 
Q 1428 -91 1123 -41 
Q 819 9 494 109 
L 494 744 
Q 775 591 1075 516 
Q 1375 441 1709 441 
Q 2250 441 2565 725 
Q 2881 1009 2881 1497 
Q 2881 1984 2565 2268 
Q 2250 2553 1709 2553 
Q 1456 2553 1204 2497 
Q 953 2441 691 2322 
L 691 4666 
z
" transform="scale(0.015625)"/>
       </defs>
       <use xlink:href="#DejaVuSans-32"/>
       <use xlink:href="#DejaVuSans-35" x="63.623047"/>
      </g>
     </g>
    </g>
    <g id="xtick_3">
     <g id="line2d_3">
      <path d="M 153.772791 307.584 
L 153.772791 41.472 
" clip-path="url(#pac4187af56)" style="fill: none; stroke: #cccccc; stroke-width: 0.8; stroke-linecap: round"/>
     </g>
     <g id="text_3">
      <!-- 50 -->
      <g style="fill: #262626" transform="translate(147.410291 322.182437)scale(0.1 -0.1)">
       <use xlink:href="#DejaVuSans-35"/>
       <use xlink:href="#DejaVuSans-30" x="63.623047"/>
      </g>
     </g>
    </g>
    <g id="xtick_4">
     <g id="line2d_4">
      <path d="M 194.558538 307.584 
L 194.558538 41.472 
" clip-path="url(#pac4187af56)" style="fill: none; stroke: #cccccc; stroke-width: 0.8; stroke-linecap: round"/>
     </g>
     <g id="text_4">
      <!-- 75 -->
      <g style="fill: #262626" transform="translate(188.196038 322.182437)scale(0.1 -0.1)">
       <defs>
        <path id="DejaVuSans-37" d="M 525 4666 
L 3525 4666 
L 3525 4397 
L 1831 0 
L 1172 0 
L 2766 4134 
L 525 4134 
L 525 4666 
z
" transform="scale(0.015625)"/>
       </defs>
       <use xlink:href="#DejaVuSans-37"/>
       <use xlink:href="#DejaVuSans-35" x="63.623047"/>
      </g>
     </g>
    </g>
    <g id="xtick_5">
     <g id="line2d_5">
      <path d="M 235.344285 307.584 
L 235.344285 41.472 
" clip-path="url(#pac4187af56)" style="fill: none; stroke: #cccccc; stroke-width: 0.8; stroke-linecap: round"/>
     </g>
     <g id="text_5">
      <!-- 100 -->
      <g style="fill: #262626" transform="translate(225.800535 322.182437)scale(0.1 -0.1)">
       <defs>
        <path id="DejaVuSans-31" d="M 794 531 
L 1825 531 
L 1825 4091 
L 703 3866 
L 703 4441 
L 1819 4666 
L 2450 4666 
L 2450 531 
L 3481 531 
L 3481 0 
L 794 0 
L 794 531 
z
" transform="scale(0.015625)"/>
       </defs>
       <use xlink:href="#DejaVuSans-31"/>
       <use xlink:href="#DejaVuSans-30" x="63.623047"/>
       <use xlink:href="#DejaVuSans-30" x="127.246094"/>
      </g>
     </g>
    </g>
    <g id="xtick_6">
     <g id="line2d_6">
      <path d="M 276.130032 307.584 
L 276.130032 41.472 
" clip-path="url(#pac4187af56)" style="fill: none; stroke: #cccccc; stroke-width: 0.8; stroke-linecap: round"/>
     </g>
     <g id="text_6">
      <!-- 125 -->
      <g style="fill: #262626" transform="translate(266.586282 322.182437)scale(0.1 -0.1)">
       <use xlink:href="#DejaVuSans-31"/>
       <use xlink:href="#DejaVuSans-32" x="63.623047"/>
       <use xlink:href="#DejaVuSans-35" x="127.246094"/>
      </g>
     </g>
    </g>
    <g id="xtick_7">
     <g id="line2d_7">
      <path d="M 316.915779 307.584 
L 316.915779 41.472 
" clip-path="url(#pac4187af56)" style="fill: none; stroke: #cccccc; stroke-width: 0.8; stroke-linecap: round"/>
     </g>
     <g id="text_7">
      <!-- 150 -->
      <g style="fill: #262626" transform="translate(307.372029 322.182437)scale(0.1 -0.1)">
       <use xlink:href="#DejaVuSans-31"/>
       <use xlink:href="#DejaVuSans-35" x="63.623047"/>
       <use xlink:href="#DejaVuSans-30" x="127.246094"/>
      </g>
     </g>
    </g>
    <g id="xtick_8">
     <g id="line2d_8">
      <path d="M 357.701526 307.584 
L 357.701526 41.472 
" clip-path="url(#pac4187af56)" style="fill: none; stroke: #cccccc; stroke-width: 0.8; stroke-linecap: round"/>
     </g>
     <g id="text_8">
      <!-- 175 -->
      <g style="fill: #262626" transform="translate(348.157776 322.182437)scale(0.1 -0.1)">
       <use xlink:href="#DejaVuSans-31"/>
       <use xlink:href="#DejaVuSans-37" x="63.623047"/>
       <use xlink:href="#DejaVuSans-35" x="127.246094"/>
      </g>
     </g>
    </g>
    <g id="xtick_9">
     <g id="line2d_9">
      <path d="M 398.487273 307.584 
L 398.487273 41.472 
" clip-path="url(#pac4187af56)" style="fill: none; stroke: #cccccc; stroke-width: 0.8; stroke-linecap: round"/>
     </g>
     <g id="text_9">
      <!-- 200 -->
      <g style="fill: #262626" transform="translate(388.943523 322.182437)scale(0.1 -0.1)">
       <use xlink:href="#DejaVuSans-32"/>
       <use xlink:href="#DejaVuSans-30" x="63.623047"/>
       <use xlink:href="#DejaVuSans-30" x="127.246094"/>
      </g>
     </g>
    </g>
    <g id="text_10">
     <!-- Iteration -->
     <g style="fill: #262626" transform="translate(214.951406 335.860562)scale(0.1 -0.1)">
      <defs>
       <path id="DejaVuSans-49" d="M 628 4666 
L 1259 4666 
L 1259 0 
L 628 0 
L 628 4666 
z
" transform="scale(0.015625)"/>
       <path id="DejaVuSans-74" d="M 1172 4494 
L 1172 3500 
L 2356 3500 
L 2356 3053 
L 1172 3053 
L 1172 1153 
Q 1172 725 1289 603 
Q 1406 481 1766 481 
L 2356 481 
L 2356 0 
L 1766 0 
Q 1100 0 847 248 
Q 594 497 594 1153 
L 594 3053 
L 172 3053 
L 172 3500 
L 594 3500 
L 594 4494 
L 1172 4494 
z
" transform="scale(0.015625)"/>
       <path id="DejaVuSans-65" d="M 3597 1894 
L 3597 1613 
L 953 1613 
Q 991 1019 1311 708 
Q 1631 397 2203 397 
Q 2534 397 2845 478 
Q 3156 559 3463 722 
L 3463 178 
Q 3153 47 2828 -22 
Q 2503 -91 2169 -91 
Q 1331 -91 842 396 
Q 353 884 353 1716 
Q 353 2575 817 3079 
Q 1281 3584 2069 3584 
Q 2775 3584 3186 3129 
Q 3597 2675 3597 1894 
z
M 3022 2063 
Q 3016 2534 2758 2815 
Q 2500 3097 2075 3097 
Q 1594 3097 1305 2825 
Q 1016 2553 972 2059 
L 3022 2063 
z
" transform="scale(0.015625)"/>
       <path id="DejaVuSans-72" d="M 2631 2963 
Q 2534 3019 2420 3045 
Q 2306 3072 2169 3072 
Q 1681 3072 1420 2755 
Q 1159 2438 1159 1844 
L 1159 0 
L 581 0 
L 581 3500 
L 1159 3500 
L 1159 2956 
Q 1341 3275 1631 3429 
Q 1922 3584 2338 3584 
Q 2397 3584 2469 3576 
Q 2541 3569 2628 3553 
L 2631 2963 
z
" transform="scale(0.015625)"/>
       <path id="DejaVuSans-61" d="M 2194 1759 
Q 1497 1759 1228 1600 
Q 959 1441 959 1056 
Q 959 750 1161 570 
Q 1363 391 1709 391 
Q 2188 391 2477 730 
Q 2766 1069 2766 1631 
L 2766 1759 
L 2194 1759 
z
M 3341 1997 
L 3341 0 
L 2766 0 
L 2766 531 
Q 2569 213 2275 61 
Q 1981 -91 1556 -91 
Q 1019 -91 701 211 
Q 384 513 384 1019 
Q 384 1609 779 1909 
Q 1175 2209 1959 2209 
L 2766 2209 
L 2766 2266 
Q 2766 2663 2505 2880 
Q 2244 3097 1772 3097 
Q 1472 3097 1187 3025 
Q 903 2953 641 2809 
L 641 3341 
Q 956 3463 1253 3523 
Q 1550 3584 1831 3584 
Q 2591 3584 2966 3190 
Q 3341 2797 3341 1997 
z
" transform="scale(0.015625)"/>
       <path id="DejaVuSans-69" d="M 603 3500 
L 1178 3500 
L 1178 0 
L 603 0 
L 603 3500 
z
M 603 4863 
L 1178 4863 
L 1178 4134 
L 603 4134 
L 603 4863 
z
" transform="scale(0.015625)"/>
       <path id="DejaVuSans-6f" d="M 1959 3097 
Q 1497 3097 1228 2736 
Q 959 2375 959 1747 
Q 959 1119 1226 758 
Q 1494 397 1959 397 
Q 2419 397 2687 759 
Q 2956 1122 2956 1747 
Q 2956 2369 2687 2733 
Q 2419 3097 1959 3097 
z
M 1959 3584 
Q 2709 3584 3137 3096 
Q 3566 2609 3566 1747 
Q 3566 888 3137 398 
Q 2709 -91 1959 -91 
Q 1206 -91 779 398 
Q 353 888 353 1747 
Q 353 2609 779 3096 
Q 1206 3584 1959 3584 
z
" transform="scale(0.015625)"/>
       <path id="DejaVuSans-6e" d="M 3513 2113 
L 3513 0 
L 2938 0 
L 2938 2094 
Q 2938 2591 2744 2837 
Q 2550 3084 2163 3084 
Q 1697 3084 1428 2787 
Q 1159 2491 1159 1978 
L 1159 0 
L 581 0 
L 581 3500 
L 1159 3500 
L 1159 2956 
Q 1366 3272 1645 3428 
Q 1925 3584 2291 3584 
Q 2894 3584 3203 3211 
Q 3513 2838 3513 2113 
z
" transform="scale(0.015625)"/>
      </defs>
      <use xlink:href="#DejaVuSans-49"/>
      <use xlink:href="#DejaVuSans-74" x="29.492188"/>
      <use xlink:href="#DejaVuSans-65" x="68.701172"/>
      <use xlink:href="#DejaVuSans-72" x="130.224609"/>
      <use xlink:href="#DejaVuSans-61" x="171.337891"/>
      <use xlink:href="#DejaVuSans-74" x="232.617188"/>
      <use xlink:href="#DejaVuSans-69" x="271.826172"/>
      <use xlink:href="#DejaVuSans-6f" x="299.609375"/>
      <use xlink:href="#DejaVuSans-6e" x="360.791016"/>
     </g>
    </g>
   </g>
   <g id="matplotlib.axis_2">
    <g id="ytick_1">
     <g id="line2d_10">
      <path d="M 57.6 305.982012 
L 414.72 305.982012 
" clip-path="url(#pac4187af56)" style="fill: none; stroke: #cccccc; stroke-width: 0.8; stroke-linecap: round"/>
     </g>
     <g id="text_11">
      <!-- 0.475 -->
      <g style="fill: #262626" transform="translate(21.971875 309.781231)scale(0.1 -0.1)">
       <defs>
        <path id="DejaVuSans-2e" d="M 684 794 
L 1344 794 
L 1344 0 
L 684 0 
L 684 794 
z
" transform="scale(0.015625)"/>
        <path id="DejaVuSans-34" d="M 2419 4116 
L 825 1625 
L 2419 1625 
L 2419 4116 
z
M 2253 4666 
L 3047 4666 
L 3047 1625 
L 3713 1625 
L 3713 1100 
L 3047 1100 
L 3047 0 
L 2419 0 
L 2419 1100 
L 313 1100 
L 313 1709 
L 2253 4666 
z
" transform="scale(0.015625)"/>
       </defs>
       <use xlink:href="#DejaVuSans-30"/>
       <use xlink:href="#DejaVuSans-2e" x="63.623047"/>
       <use xlink:href="#DejaVuSans-34" x="95.410156"/>
       <use xlink:href="#DejaVuSans-37" x="159.033203"/>
       <use xlink:href="#DejaVuSans-35" x="222.65625"/>
      </g>
     </g>
    </g>
    <g id="ytick_2">
     <g id="line2d_11">
      <path d="M 57.6 275.491132 
L 414.72 275.491132 
" clip-path="url(#pac4187af56)" style="fill: none; stroke: #cccccc; stroke-width: 0.8; stroke-linecap: round"/>
     </g>
     <g id="text_12">
      <!-- 0.500 -->
      <g style="fill: #262626" transform="translate(21.971875 279.290351)scale(0.1 -0.1)">
       <use xlink:href="#DejaVuSans-30"/>
       <use xlink:href="#DejaVuSans-2e" x="63.623047"/>
       <use xlink:href="#DejaVuSans-35" x="95.410156"/>
       <use xlink:href="#DejaVuSans-30" x="159.033203"/>
       <use xlink:href="#DejaVuSans-30" x="222.65625"/>
      </g>
     </g>
    </g>
    <g id="ytick_3">
     <g id="line2d_12">
      <path d="M 57.6 245.000253 
L 414.72 245.000253 
" clip-path="url(#pac4187af56)" style="fill: none; stroke: #cccccc; stroke-width: 0.8; stroke-linecap: round"/>
     </g>
     <g id="text_13">
      <!-- 0.525 -->
      <g style="fill: #262626" transform="translate(21.971875 248.799472)scale(0.1 -0.1)">
       <use xlink:href="#DejaVuSans-30"/>
       <use xlink:href="#DejaVuSans-2e" x="63.623047"/>
       <use xlink:href="#DejaVuSans-35" x="95.410156"/>
       <use xlink:href="#DejaVuSans-32" x="159.033203"/>
       <use xlink:href="#DejaVuSans-35" x="222.65625"/>
      </g>
     </g>
    </g>
    <g id="ytick_4">
     <g id="line2d_13">
      <path d="M 57.6 214.509374 
L 414.72 214.509374 
" clip-path="url(#pac4187af56)" style="fill: none; stroke: #cccccc; stroke-width: 0.8; stroke-linecap: round"/>
     </g>
     <g id="text_14">
      <!-- 0.550 -->
      <g style="fill: #262626" transform="translate(21.971875 218.308592)scale(0.1 -0.1)">
       <use xlink:href="#DejaVuSans-30"/>
       <use xlink:href="#DejaVuSans-2e" x="63.623047"/>
       <use xlink:href="#DejaVuSans-35" x="95.410156"/>
       <use xlink:href="#DejaVuSans-35" x="159.033203"/>
       <use xlink:href="#DejaVuSans-30" x="222.65625"/>
      </g>
     </g>
    </g>
    <g id="ytick_5">
     <g id="line2d_14">
      <path d="M 57.6 184.018494 
L 414.72 184.018494 
" clip-path="url(#pac4187af56)" style="fill: none; stroke: #cccccc; stroke-width: 0.8; stroke-linecap: round"/>
     </g>
     <g id="text_15">
      <!-- 0.575 -->
      <g style="fill: #262626" transform="translate(21.971875 187.817713)scale(0.1 -0.1)">
       <use xlink:href="#DejaVuSans-30"/>
       <use xlink:href="#DejaVuSans-2e" x="63.623047"/>
       <use xlink:href="#DejaVuSans-35" x="95.410156"/>
       <use xlink:href="#DejaVuSans-37" x="159.033203"/>
       <use xlink:href="#DejaVuSans-35" x="222.65625"/>
      </g>
     </g>
    </g>
    <g id="ytick_6">
     <g id="line2d_15">
      <path d="M 57.6 153.527615 
L 414.72 153.527615 
" clip-path="url(#pac4187af56)" style="fill: none; stroke: #cccccc; stroke-width: 0.8; stroke-linecap: round"/>
     </g>
     <g id="text_16">
      <!-- 0.600 -->
      <g style="fill: #262626" transform="translate(21.971875 157.326833)scale(0.1 -0.1)">
       <defs>
        <path id="DejaVuSans-36" d="M 2113 2584 
Q 1688 2584 1439 2293 
Q 1191 2003 1191 1497 
Q 1191 994 1439 701 
Q 1688 409 2113 409 
Q 2538 409 2786 701 
Q 3034 994 3034 1497 
Q 3034 2003 2786 2293 
Q 2538 2584 2113 2584 
z
M 3366 4563 
L 3366 3988 
Q 3128 4100 2886 4159 
Q 2644 4219 2406 4219 
Q 1781 4219 1451 3797 
Q 1122 3375 1075 2522 
Q 1259 2794 1537 2939 
Q 1816 3084 2150 3084 
Q 2853 3084 3261 2657 
Q 3669 2231 3669 1497 
Q 3669 778 3244 343 
Q 2819 -91 2113 -91 
Q 1303 -91 875 529 
Q 447 1150 447 2328 
Q 447 3434 972 4092 
Q 1497 4750 2381 4750 
Q 2619 4750 2861 4703 
Q 3103 4656 3366 4563 
z
" transform="scale(0.015625)"/>
       </defs>
       <use xlink:href="#DejaVuSans-30"/>
       <use xlink:href="#DejaVuSans-2e" x="63.623047"/>
       <use xlink:href="#DejaVuSans-36" x="95.410156"/>
       <use xlink:href="#DejaVuSans-30" x="159.033203"/>
       <use xlink:href="#DejaVuSans-30" x="222.65625"/>
      </g>
     </g>
    </g>
    <g id="ytick_7">
     <g id="line2d_16">
      <path d="M 57.6 123.036735 
L 414.72 123.036735 
" clip-path="url(#pac4187af56)" style="fill: none; stroke: #cccccc; stroke-width: 0.8; stroke-linecap: round"/>
     </g>
     <g id="text_17">
      <!-- 0.625 -->
      <g style="fill: #262626" transform="translate(21.971875 126.835954)scale(0.1 -0.1)">
       <use xlink:href="#DejaVuSans-30"/>
       <use xlink:href="#DejaVuSans-2e" x="63.623047"/>
       <use xlink:href="#DejaVuSans-36" x="95.410156"/>
       <use xlink:href="#DejaVuSans-32" x="159.033203"/>
       <use xlink:href="#DejaVuSans-35" x="222.65625"/>
      </g>
     </g>
    </g>
    <g id="ytick_8">
     <g id="line2d_17">
      <path d="M 57.6 92.545856 
L 414.72 92.545856 
" clip-path="url(#pac4187af56)" style="fill: none; stroke: #cccccc; stroke-width: 0.8; stroke-linecap: round"/>
     </g>
     <g id="text_18">
      <!-- 0.650 -->
      <g style="fill: #262626" transform="translate(21.971875 96.345075)scale(0.1 -0.1)">
       <use xlink:href="#DejaVuSans-30"/>
       <use xlink:href="#DejaVuSans-2e" x="63.623047"/>
       <use xlink:href="#DejaVuSans-36" x="95.410156"/>
       <use xlink:href="#DejaVuSans-35" x="159.033203"/>
       <use xlink:href="#DejaVuSans-30" x="222.65625"/>
      </g>
     </g>
    </g>
    <g id="ytick_9">
     <g id="line2d_18">
      <path d="M 57.6 62.054976 
L 414.72 62.054976 
" clip-path="url(#pac4187af56)" style="fill: none; stroke: #cccccc; stroke-width: 0.8; stroke-linecap: round"/>
     </g>
     <g id="text_19">
      <!-- 0.675 -->
      <g style="fill: #262626" transform="translate(21.971875 65.854195)scale(0.1 -0.1)">
       <use xlink:href="#DejaVuSans-30"/>
       <use xlink:href="#DejaVuSans-2e" x="63.623047"/>
       <use xlink:href="#DejaVuSans-36" x="95.410156"/>
       <use xlink:href="#DejaVuSans-37" x="159.033203"/>
       <use xlink:href="#DejaVuSans-35" x="222.65625"/>
      </g>
     </g>
    </g>
    <g id="text_20">
     <!-- Auroc -->
     <g style="fill: #262626" transform="translate(15.892188 188.868625)rotate(-90)scale(0.1 -0.1)">
      <defs>
       <path id="DejaVuSans-41" d="M 2188 4044 
L 1331 1722 
L 3047 1722 
L 2188 4044 
z
M 1831 4666 
L 2547 4666 
L 4325 0 
L 3669 0 
L 3244 1197 
L 1141 1197 
L 716 0 
L 50 0 
L 1831 4666 
z
" transform="scale(0.015625)"/>
       <path id="DejaVuSans-75" d="M 544 1381 
L 544 3500 
L 1119 3500 
L 1119 1403 
Q 1119 906 1312 657 
Q 1506 409 1894 409 
Q 2359 409 2629 706 
Q 2900 1003 2900 1516 
L 2900 3500 
L 3475 3500 
L 3475 0 
L 2900 0 
L 2900 538 
Q 2691 219 2414 64 
Q 2138 -91 1772 -91 
Q 1169 -91 856 284 
Q 544 659 544 1381 
z
M 1991 3584 
L 1991 3584 
z
" transform="scale(0.015625)"/>
       <path id="DejaVuSans-63" d="M 3122 3366 
L 3122 2828 
Q 2878 2963 2633 3030 
Q 2388 3097 2138 3097 
Q 1578 3097 1268 2742 
Q 959 2388 959 1747 
Q 959 1106 1268 751 
Q 1578 397 2138 397 
Q 2388 397 2633 464 
Q 2878 531 3122 666 
L 3122 134 
Q 2881 22 2623 -34 
Q 2366 -91 2075 -91 
Q 1284 -91 818 406 
Q 353 903 353 1747 
Q 353 2603 823 3093 
Q 1294 3584 2113 3584 
Q 2378 3584 2631 3529 
Q 2884 3475 3122 3366 
z
" transform="scale(0.015625)"/>
      </defs>
      <use xlink:href="#DejaVuSans-41"/>
      <use xlink:href="#DejaVuSans-75" x="68.408203"/>
      <use xlink:href="#DejaVuSans-72" x="131.787109"/>
      <use xlink:href="#DejaVuSans-6f" x="170.650391"/>
      <use xlink:href="#DejaVuSans-63" x="231.832031"/>
     </g>
    </g>
   </g>
   <g id="PolyCollection_1">
    <defs>
     <path id="m44156e9e8c" d="M 73.832727 -230.133537 
L 73.832727 -170.216635 
L 75.464157 -180.284215 
L 77.095587 -177.236802 
L 78.727017 -140.467426 
L 80.358447 -155.571284 
L 81.989877 -157.68798 
L 83.621307 -114.459759 
L 85.252736 -162.680974 
L 86.884166 -150.038234 
L 88.515596 -136.906726 
L 90.147026 -88.25305 
L 91.778456 -149.330509 
L 93.409886 -160.338785 
L 95.041316 -192.993012 
L 96.672746 -169.584687 
L 98.304175 -180.464879 
L 99.935605 -91.35241 
L 101.567035 -161.412705 
L 103.198465 -182.176253 
L 104.829895 -167.38439 
L 106.461325 -137.308081 
L 108.092755 -173.640032 
L 109.724185 -184.32162 
L 111.355614 -151.176367 
L 112.987044 -149.760061 
L 114.618474 -169.714128 
L 116.249904 -123.014365 
L 117.881334 -159.007641 
L 119.512764 -119.946091 
L 121.144194 -185.212687 
L 122.775624 -148.780406 
L 124.407053 -116.803568 
L 126.038483 -118.293544 
L 127.669913 -161.02617 
L 129.301343 -150.762168 
L 130.932773 -134.792008 
L 132.564203 -184.542732 
L 134.195633 -139.530898 
L 135.827063 -156.180146 
L 137.458492 -109.632863 
L 139.089922 -177.677197 
L 140.721352 -158.486098 
L 142.352782 -159.741682 
L 143.984212 -172.781134 
L 145.615642 -171.882761 
L 147.247072 -141.307348 
L 148.878502 -127.113645 
L 150.509931 -189.655527 
L 152.141361 -147.502859 
L 153.772791 -163.62344 
L 155.404221 -143.390503 
L 157.035651 -156.03893 
L 158.667081 -144.091813 
L 160.298511 -136.387527 
L 161.929941 -109.00743 
L 163.56137 -125.563568 
L 165.1928 -148.215802 
L 166.82423 -147.533246 
L 168.45566 -174.872861 
L 170.08709 -138.488827 
L 171.71852 -165.511942 
L 173.34995 -172.780667 
L 174.98138 -50.112 
L 176.61281 -149.962952 
L 178.244239 -136.570871 
L 179.875669 -130.14299 
L 181.507099 -170.21122 
L 183.138529 -157.858251 
L 184.769959 -110.424238 
L 186.401389 -151.768919 
L 188.032819 -130.71512 
L 189.664249 -167.981338 
L 191.295678 -102.181249 
L 192.927108 -151.598866 
L 194.558538 -175.747837 
L 196.189968 -125.836465 
L 197.821398 -83.589694 
L 199.452828 -149.532654 
L 201.084258 -135.211564 
L 202.715688 -147.050496 
L 204.347117 -83.071041 
L 205.978547 -132.821768 
L 207.609977 -100.891495 
L 209.241407 -156.805143 
L 210.872837 -146.429174 
L 212.504267 -158.479086 
L 214.135697 -118.506133 
L 215.767127 -133.366492 
L 217.398556 -200.484752 
L 219.029986 -65.774228 
L 220.661416 -164.432039 
L 222.292846 -51.353256 
L 223.924276 -193.666146 
L 225.555706 -54.666705 
L 227.187136 -120.143455 
L 228.818566 -141.151833 
L 230.449995 -143.215442 
L 232.081425 -116.186738 
L 233.712855 -178.203935 
L 235.344285 -117.509909 
L 236.975715 -77.095248 
L 238.607145 -194.6106 
L 240.238575 -131.0434 
L 241.870005 -130.416589 
L 243.501434 -135.754939 
L 245.132864 -149.413816 
L 246.764294 -157.097225 
L 248.395724 -125.310612 
L 250.027154 -115.120399 
L 251.658584 -171.959402 
L 253.290014 -177.492131 
L 254.921444 -142.613167 
L 256.552873 -113.41739 
L 258.184303 -164.099467 
L 259.815733 -151.325549 
L 261.447163 -164.16148 
L 263.078593 -183.991969 
L 264.710023 -73.455293 
L 266.341453 -95.859994 
L 267.972883 -113.861698 
L 269.604312 -124.590138 
L 271.235742 -156.619553 
L 272.867172 -136.380488 
L 274.498602 -127.767782 
L 276.130032 -131.578418 
L 277.761462 -132.424993 
L 279.392892 -145.041986 
L 281.024322 -101.573859 
L 282.655751 -181.644642 
L 284.287181 -117.228329 
L 285.918611 -163.664404 
L 287.550041 -146.275037 
L 289.181471 -166.620184 
L 290.812901 -140.911771 
L 292.444331 -124.718135 
L 294.075761 -152.429387 
L 295.70719 -159.62275 
L 297.33862 -112.998489 
L 298.97005 -149.398835 
L 300.60148 -131.241867 
L 302.23291 -132.612756 
L 303.86434 -108.768413 
L 305.49577 -172.252168 
L 307.1272 -143.038491 
L 308.75863 -117.435526 
L 310.390059 -116.835268 
L 312.021489 -142.813409 
L 313.652919 -146.333882 
L 315.284349 -79.967451 
L 316.915779 -147.176797 
L 318.547209 -156.010457 
L 320.178639 -162.118382 
L 321.810069 -108.449933 
L 323.441498 -178.156309 
L 325.072928 -150.757451 
L 326.704358 -137.920167 
L 328.335788 -181.23578 
L 329.967218 -124.674226 
L 331.598648 -156.484234 
L 333.230078 -190.485975 
L 334.861508 -160.747854 
L 336.492937 -62.805284 
L 338.124367 -138.215286 
L 339.755797 -93.290366 
L 341.387227 -113.821184 
L 343.018657 -77.914307 
L 344.650087 -125.880025 
L 346.281517 -154.565839 
L 347.912947 -158.984272 
L 349.544376 -102.653706 
L 351.175806 -155.97377 
L 352.807236 -153.194358 
L 354.438666 -145.83638 
L 356.070096 -167.051256 
L 357.701526 -167.226435 
L 359.332956 -152.76261 
L 360.964386 -147.883673 
L 362.595815 -119.162257 
L 364.227245 -113.406672 
L 365.858675 -171.173329 
L 367.490105 -74.572443 
L 369.121535 -158.796315 
L 370.752965 -160.202541 
L 372.384395 -176.894937 
L 374.015825 -130.790195 
L 375.647254 -118.106254 
L 377.278684 -114.350226 
L 378.910114 -148.708461 
L 380.541544 -168.887241 
L 382.172974 -163.073454 
L 383.804404 -166.469815 
L 385.435834 -132.363348 
L 387.067264 -135.125989 
L 388.698693 -157.454727 
L 390.330123 -153.611942 
L 391.961553 -158.228278 
L 393.592983 -163.429815 
L 395.224413 -151.896835 
L 396.855843 -189.666714 
L 398.487273 -107.825749 
L 398.487273 -236.447652 
L 398.487273 -236.447652 
L 396.855843 -276.332109 
L 395.224413 -255.440931 
L 393.592983 -233.258521 
L 391.961553 -272.683486 
L 390.330123 -272.229823 
L 388.698693 -256.326057 
L 387.067264 -221.271484 
L 385.435834 -247.351906 
L 383.804404 -258.228558 
L 382.172974 -213.59178 
L 380.541544 -247.479101 
L 378.910114 -249.631809 
L 377.278684 -256.452641 
L 375.647254 -205.282531 
L 374.015825 -256.504948 
L 372.384395 -252.796836 
L 370.752965 -251.958151 
L 369.121535 -243.641078 
L 367.490105 -200.87561 
L 365.858675 -219.398751 
L 364.227245 -193.219604 
L 362.595815 -232.616383 
L 360.964386 -247.765097 
L 359.332956 -234.27369 
L 357.701526 -224.87563 
L 356.070096 -240.99978 
L 354.438666 -262.070435 
L 352.807236 -285.833869 
L 351.175806 -237.604588 
L 349.544376 -269.929987 
L 347.912947 -208.465907 
L 346.281517 -227.491287 
L 344.650087 -284.550075 
L 343.018657 -291.266563 
L 341.387227 -194.21135 
L 339.755797 -229.683795 
L 338.124367 -255.5186 
L 336.492937 -192.389941 
L 334.861508 -229.895235 
L 333.230078 -220.166921 
L 331.598648 -209.124144 
L 329.967218 -222.135191 
L 328.335788 -243.423595 
L 326.704358 -205.779738 
L 325.072928 -222.867164 
L 323.441498 -233.678892 
L 321.810069 -255.570958 
L 320.178639 -216.004727 
L 318.547209 -255.567933 
L 316.915779 -194.068688 
L 315.284349 -232.007103 
L 313.652919 -220.266385 
L 312.021489 -246.450014 
L 310.390059 -236.244322 
L 308.75863 -232.091347 
L 307.1272 -224.573184 
L 305.49577 -254.203276 
L 303.86434 -226.808595 
L 302.23291 -228.831428 
L 300.60148 -235.876934 
L 298.97005 -207.084425 
L 297.33862 -237.220949 
L 295.70719 -229.214065 
L 294.075761 -225.47214 
L 292.444331 -260.144945 
L 290.812901 -276.207262 
L 289.181471 -201.118987 
L 287.550041 -236.102034 
L 285.918611 -280.62877 
L 284.287181 -231.738684 
L 282.655751 -273.647334 
L 281.024322 -194.936426 
L 279.392892 -233.536142 
L 277.761462 -235.857907 
L 276.130032 -221.301864 
L 274.498602 -260.768227 
L 272.867172 -216.884143 
L 271.235742 -226.470154 
L 269.604312 -206.745525 
L 267.972883 -234.285678 
L 266.341453 -204.04871 
L 264.710023 -270.253123 
L 263.078593 -239.206778 
L 261.447163 -234.484677 
L 259.815733 -250.380281 
L 258.184303 -234.796302 
L 256.552873 -219.026817 
L 254.921444 -274.082139 
L 253.290014 -247.1061 
L 251.658584 -188.611963 
L 250.027154 -267.47131 
L 248.395724 -226.855892 
L 246.764294 -272.486404 
L 245.132864 -258.969995 
L 243.501434 -269.872714 
L 241.870005 -218.621433 
L 240.238575 -257.953472 
L 238.607145 -258.165897 
L 236.975715 -250.130575 
L 235.344285 -247.591538 
L 233.712855 -224.542012 
L 232.081425 -251.412658 
L 230.449995 -198.344695 
L 228.818566 -266.708659 
L 227.187136 -267.596377 
L 225.555706 -258.497889 
L 223.924276 -252.275955 
L 222.292846 -225.079798 
L 220.661416 -232.39188 
L 219.029986 -210.011625 
L 217.398556 -242.922772 
L 215.767127 -214.402506 
L 214.135697 -275.635644 
L 212.504267 -242.893038 
L 210.872837 -219.278203 
L 209.241407 -236.129981 
L 207.609977 -197.882074 
L 205.978547 -237.388761 
L 204.347117 -249.590852 
L 202.715688 -219.352621 
L 201.084258 -250.90915 
L 199.452828 -234.357845 
L 197.821398 -245.093552 
L 196.189968 -292.032 
L 194.558538 -242.795832 
L 192.927108 -259.880822 
L 191.295678 -181.423945 
L 189.664249 -251.243251 
L 188.032819 -229.266447 
L 186.401389 -186.316793 
L 184.769959 -266.374335 
L 183.138529 -195.477728 
L 181.507099 -208.740078 
L 179.875669 -250.109852 
L 178.244239 -240.590032 
L 176.61281 -186.943164 
L 174.98138 -172.755049 
L 173.34995 -261.940329 
L 171.71852 -233.70229 
L 170.08709 -235.074348 
L 168.45566 -233.574676 
L 166.82423 -241.459688 
L 165.1928 -249.047384 
L 163.56137 -240.596542 
L 161.929941 -182.547055 
L 160.298511 -267.770776 
L 158.667081 -242.878474 
L 157.035651 -209.963494 
L 155.404221 -255.340636 
L 153.772791 -258.851071 
L 152.141361 -248.303596 
L 150.509931 -231.915254 
L 148.878502 -237.749071 
L 147.247072 -236.528759 
L 145.615642 -250.481742 
L 143.984212 -234.245622 
L 142.352782 -219.192298 
L 140.721352 -221.443285 
L 139.089922 -253.258661 
L 137.458492 -213.664462 
L 135.827063 -264.937479 
L 134.195633 -203.5306 
L 132.564203 -237.537098 
L 130.932773 -247.039938 
L 129.301343 -254.542872 
L 127.669913 -231.724041 
L 126.038483 -222.437557 
L 124.407053 -227.098949 
L 122.775624 -255.009384 
L 121.144194 -270.135479 
L 119.512764 -225.438183 
L 117.881334 -247.624222 
L 116.249904 -210.307615 
L 114.618474 -256.77989 
L 112.987044 -259.039602 
L 111.355614 -220.126361 
L 109.724185 -220.2107 
L 108.092755 -224.191061 
L 106.461325 -228.761246 
L 104.829895 -208.779925 
L 103.198465 -249.609812 
L 101.567035 -243.989005 
L 99.935605 -207.773962 
L 98.304175 -238.033525 
L 96.672746 -267.193637 
L 95.041316 -211.708342 
L 93.409886 -247.147732 
L 91.778456 -211.888791 
L 90.147026 -204.836374 
L 88.515596 -214.972394 
L 86.884166 -245.513316 
L 85.252736 -267.800753 
L 83.621307 -210.695667 
L 81.989877 -227.689146 
L 80.358447 -226.914821 
L 78.727017 -228.597086 
L 77.095587 -241.217438 
L 75.464157 -236.610611 
L 73.832727 -230.133537 
z
" style="stroke: #ffffff; stroke-opacity: 0.2"/>
    </defs>
    <g clip-path="url(#pac4187af56)">
     <use xlink:href="#m44156e9e8c" x="0" y="345.6" style="fill: #1f77b4; fill-opacity: 0.2; stroke: #ffffff; stroke-opacity: 0.2"/>
    </g>
   </g>
   <g id="line2d_19">
    <path d="M 73.832727 145.424914 
L 75.464157 137.152587 
L 77.095587 136.37288 
L 78.727017 161.067744 
L 80.358447 154.356948 
L 81.989877 152.911437 
L 83.621307 183.022287 
L 85.252736 130.359136 
L 86.884166 147.824225 
L 88.515596 169.66044 
L 90.147026 199.055288 
L 91.778456 164.99035 
L 93.409886 141.856741 
L 95.041316 143.249323 
L 96.672746 127.210838 
L 98.304175 136.350798 
L 99.935605 196.036814 
L 101.567035 142.899145 
L 103.198465 129.706967 
L 104.829895 157.517843 
L 106.461325 162.565337 
L 108.092755 146.684453 
L 109.724185 143.33384 
L 111.355614 159.948636 
L 112.987044 141.200169 
L 114.618474 132.352991 
L 116.249904 178.93901 
L 117.881334 142.284069 
L 119.512764 172.907863 
L 121.144194 117.925917 
L 122.775624 143.705105 
L 124.407053 173.648741 
L 126.038483 175.23445 
L 127.669913 149.224894 
L 129.301343 142.94748 
L 130.932773 154.684027 
L 132.564203 134.560085 
L 134.195633 174.069251 
L 135.827063 135.041188 
L 137.458492 183.951338 
L 139.089922 130.132071 
L 140.721352 155.635309 
L 142.352782 156.13301 
L 143.984212 142.086622 
L 145.615642 134.417749 
L 147.247072 156.681947 
L 148.878502 163.168642 
L 150.509931 134.81461 
L 152.141361 147.696772 
L 153.772791 134.362745 
L 155.404221 146.23443 
L 157.035651 162.598788 
L 158.667081 152.114857 
L 160.298511 143.520848 
L 161.929941 199.822758 
L 163.56137 162.519945 
L 165.1928 146.968407 
L 166.82423 151.103533 
L 168.45566 141.376231 
L 170.08709 158.818413 
L 171.71852 145.992884 
L 173.34995 128.239502 
L 174.98138 234.166476 
L 176.61281 177.146942 
L 178.244239 157.019549 
L 179.875669 155.473579 
L 181.507099 156.124351 
L 183.138529 168.932011 
L 184.769959 157.200714 
L 186.401389 176.557144 
L 188.032819 165.609217 
L 189.664249 135.987706 
L 191.295678 203.797403 
L 192.927108 139.860156 
L 194.558538 136.328166 
L 196.189968 136.665768 
L 197.821398 181.258377 
L 199.452828 153.65475 
L 201.084258 152.539643 
L 202.715688 162.398441 
L 204.347117 179.269053 
L 205.978547 160.494736 
L 207.609977 196.213216 
L 209.241407 149.132438 
L 210.872837 162.746311 
L 212.504267 144.913938 
L 214.135697 148.529112 
L 215.767127 171.715501 
L 217.398556 123.896238 
L 219.029986 207.707073 
L 220.661416 147.188041 
L 222.292846 207.383473 
L 223.924276 122.62895 
L 225.555706 189.017703 
L 227.187136 151.730084 
L 228.818566 141.669754 
L 230.449995 174.819932 
L 232.081425 161.800302 
L 233.712855 144.227026 
L 236.975715 181.987089 
L 238.607145 119.211751 
L 240.238575 151.101564 
L 241.870005 171.080989 
L 243.501434 142.786174 
L 245.132864 141.408095 
L 246.764294 130.808185 
L 248.395724 169.516748 
L 250.027154 154.304146 
L 251.658584 165.314318 
L 253.290014 133.300884 
L 254.921444 137.252347 
L 256.552873 179.377897 
L 258.184303 146.152115 
L 259.815733 144.747085 
L 261.447163 146.276922 
L 263.078593 134.000626 
L 264.710023 173.745792 
L 266.341453 195.645648 
L 267.972883 171.526312 
L 269.604312 179.932168 
L 271.235742 154.055147 
L 272.867172 168.967685 
L 274.498602 151.331995 
L 276.130032 169.159859 
L 277.761462 161.45855 
L 279.392892 156.310936 
L 281.024322 197.344858 
L 282.655751 117.954012 
L 284.287181 171.116494 
L 285.918611 123.453413 
L 287.550041 154.411464 
L 289.181471 161.730415 
L 290.812901 137.040483 
L 292.444331 153.16846 
L 294.075761 156.649236 
L 295.70719 151.181592 
L 297.33862 170.490281 
L 298.97005 167.35837 
L 300.60148 162.040599 
L 302.23291 164.877908 
L 303.86434 177.811496 
L 305.49577 132.372278 
L 307.1272 161.794162 
L 308.75863 170.836563 
L 310.390059 169.060205 
L 312.021489 150.968289 
L 313.652919 162.299866 
L 315.284349 189.612723 
L 316.915779 174.977258 
L 318.547209 139.810805 
L 320.178639 156.538446 
L 321.810069 163.589554 
L 323.441498 139.682399 
L 325.072928 158.787693 
L 326.704358 173.750047 
L 328.335788 133.270313 
L 329.967218 172.195291 
L 331.598648 162.795811 
L 333.230078 140.273552 
L 334.861508 150.278455 
L 336.492937 218.002387 
L 338.124367 148.733057 
L 339.755797 184.112919 
L 341.387227 191.583733 
L 343.018657 161.009565 
L 344.650087 140.38495 
L 346.281517 154.571437 
L 347.912947 161.874911 
L 349.544376 159.308153 
L 351.175806 148.810821 
L 352.807236 126.085887 
L 354.438666 141.646592 
L 356.070096 141.574482 
L 357.701526 149.548968 
L 359.332956 152.08185 
L 360.964386 147.775615 
L 364.227245 192.286862 
L 365.858675 150.31396 
L 367.490105 207.875973 
L 369.121535 144.381304 
L 370.752965 139.519654 
L 372.384395 130.754113 
L 374.015825 151.952428 
L 375.647254 183.905607 
L 377.278684 160.198566 
L 378.910114 146.429865 
L 380.541544 137.416829 
L 382.172974 157.267383 
L 383.804404 133.250814 
L 385.435834 155.742373 
L 387.067264 167.401263 
L 388.698693 138.709608 
L 390.330123 132.679118 
L 391.961553 130.144118 
L 393.592983 147.255832 
L 395.224413 141.931117 
L 396.855843 112.600588 
L 398.487273 173.463299 
L 398.487273 173.463299 
" clip-path="url(#pac4187af56)" style="fill: none; stroke: #1f77b4; stroke-width: 1.5; stroke-linecap: round"/>
   </g>
   <g id="LineCollection_1">
    <path d="M 398.487273 295.488 
L 398.487273 53.568 
" clip-path="url(#pac4187af56)" style="fill: none; stroke-dasharray: 5.55,2.4; stroke-dashoffset: 0; stroke: #1f77b4; stroke-width: 1.5"/>
   </g>
   <g id="patch_3">
    <path d="M 57.6 307.584 
L 57.6 41.472 
" style="fill: none; stroke: #cccccc; stroke-width: 0.8; stroke-linejoin: miter; stroke-linecap: square"/>
   </g>
   <g id="patch_4">
    <path d="M 414.72 307.584 
L 414.72 41.472 
" style="fill: none; stroke: #cccccc; stroke-width: 0.8; stroke-linejoin: miter; stroke-linecap: square"/>
   </g>
   <g id="patch_5">
    <path d="M 57.6 307.584 
L 414.72 307.584 
" style="fill: none; stroke: #cccccc; stroke-width: 0.8; stroke-linejoin: miter; stroke-linecap: square"/>
   </g>
   <g id="patch_6">
    <path d="M 57.6 41.472 
L 414.72 41.472 
" style="fill: none; stroke: #cccccc; stroke-width: 0.8; stroke-linejoin: miter; stroke-linecap: square"/>
   </g>
   <g id="text_21">
    <!-- Model performance vs. # of iterations -->
    <g style="fill: #262626" transform="translate(122.314688 35.472)scale(0.12 -0.12)">
     <defs>
      <path id="DejaVuSans-4d" d="M 628 4666 
L 1569 4666 
L 2759 1491 
L 3956 4666 
L 4897 4666 
L 4897 0 
L 4281 0 
L 4281 4097 
L 3078 897 
L 2444 897 
L 1241 4097 
L 1241 0 
L 628 0 
L 628 4666 
z
" transform="scale(0.015625)"/>
      <path id="DejaVuSans-64" d="M 2906 2969 
L 2906 4863 
L 3481 4863 
L 3481 0 
L 2906 0 
L 2906 525 
Q 2725 213 2448 61 
Q 2172 -91 1784 -91 
Q 1150 -91 751 415 
Q 353 922 353 1747 
Q 353 2572 751 3078 
Q 1150 3584 1784 3584 
Q 2172 3584 2448 3432 
Q 2725 3281 2906 2969 
z
M 947 1747 
Q 947 1113 1208 752 
Q 1469 391 1925 391 
Q 2381 391 2643 752 
Q 2906 1113 2906 1747 
Q 2906 2381 2643 2742 
Q 2381 3103 1925 3103 
Q 1469 3103 1208 2742 
Q 947 2381 947 1747 
z
" transform="scale(0.015625)"/>
      <path id="DejaVuSans-6c" d="M 603 4863 
L 1178 4863 
L 1178 0 
L 603 0 
L 603 4863 
z
" transform="scale(0.015625)"/>
      <path id="DejaVuSans-20" transform="scale(0.015625)"/>
      <path id="DejaVuSans-70" d="M 1159 525 
L 1159 -1331 
L 581 -1331 
L 581 3500 
L 1159 3500 
L 1159 2969 
Q 1341 3281 1617 3432 
Q 1894 3584 2278 3584 
Q 2916 3584 3314 3078 
Q 3713 2572 3713 1747 
Q 3713 922 3314 415 
Q 2916 -91 2278 -91 
Q 1894 -91 1617 61 
Q 1341 213 1159 525 
z
M 3116 1747 
Q 3116 2381 2855 2742 
Q 2594 3103 2138 3103 
Q 1681 3103 1420 2742 
Q 1159 2381 1159 1747 
Q 1159 1113 1420 752 
Q 1681 391 2138 391 
Q 2594 391 2855 752 
Q 3116 1113 3116 1747 
z
" transform="scale(0.015625)"/>
      <path id="DejaVuSans-66" d="M 2375 4863 
L 2375 4384 
L 1825 4384 
Q 1516 4384 1395 4259 
Q 1275 4134 1275 3809 
L 1275 3500 
L 2222 3500 
L 2222 3053 
L 1275 3053 
L 1275 0 
L 697 0 
L 697 3053 
L 147 3053 
L 147 3500 
L 697 3500 
L 697 3744 
Q 697 4328 969 4595 
Q 1241 4863 1831 4863 
L 2375 4863 
z
" transform="scale(0.015625)"/>
      <path id="DejaVuSans-6d" d="M 3328 2828 
Q 3544 3216 3844 3400 
Q 4144 3584 4550 3584 
Q 5097 3584 5394 3201 
Q 5691 2819 5691 2113 
L 5691 0 
L 5113 0 
L 5113 2094 
Q 5113 2597 4934 2840 
Q 4756 3084 4391 3084 
Q 3944 3084 3684 2787 
Q 3425 2491 3425 1978 
L 3425 0 
L 2847 0 
L 2847 2094 
Q 2847 2600 2669 2842 
Q 2491 3084 2119 3084 
Q 1678 3084 1418 2786 
Q 1159 2488 1159 1978 
L 1159 0 
L 581 0 
L 581 3500 
L 1159 3500 
L 1159 2956 
Q 1356 3278 1631 3431 
Q 1906 3584 2284 3584 
Q 2666 3584 2933 3390 
Q 3200 3197 3328 2828 
z
" transform="scale(0.015625)"/>
      <path id="DejaVuSans-76" d="M 191 3500 
L 800 3500 
L 1894 563 
L 2988 3500 
L 3597 3500 
L 2284 0 
L 1503 0 
L 191 3500 
z
" transform="scale(0.015625)"/>
      <path id="DejaVuSans-73" d="M 2834 3397 
L 2834 2853 
Q 2591 2978 2328 3040 
Q 2066 3103 1784 3103 
Q 1356 3103 1142 2972 
Q 928 2841 928 2578 
Q 928 2378 1081 2264 
Q 1234 2150 1697 2047 
L 1894 2003 
Q 2506 1872 2764 1633 
Q 3022 1394 3022 966 
Q 3022 478 2636 193 
Q 2250 -91 1575 -91 
Q 1294 -91 989 -36 
Q 684 19 347 128 
L 347 722 
Q 666 556 975 473 
Q 1284 391 1588 391 
Q 1994 391 2212 530 
Q 2431 669 2431 922 
Q 2431 1156 2273 1281 
Q 2116 1406 1581 1522 
L 1381 1569 
Q 847 1681 609 1914 
Q 372 2147 372 2553 
Q 372 3047 722 3315 
Q 1072 3584 1716 3584 
Q 2034 3584 2315 3537 
Q 2597 3491 2834 3397 
z
" transform="scale(0.015625)"/>
      <path id="DejaVuSans-23" d="M 3272 2816 
L 2363 2816 
L 2100 1772 
L 3016 1772 
L 3272 2816 
z
M 2803 4594 
L 2478 3297 
L 3391 3297 
L 3719 4594 
L 4219 4594 
L 3897 3297 
L 4872 3297 
L 4872 2816 
L 3775 2816 
L 3519 1772 
L 4513 1772 
L 4513 1294 
L 3397 1294 
L 3072 0 
L 2572 0 
L 2894 1294 
L 1978 1294 
L 1656 0 
L 1153 0 
L 1478 1294 
L 494 1294 
L 494 1772 
L 1594 1772 
L 1856 2816 
L 850 2816 
L 850 3297 
L 1978 3297 
L 2297 4594 
L 2803 4594 
z
" transform="scale(0.015625)"/>
     </defs>
     <use xlink:href="#DejaVuSans-4d"/>
     <use xlink:href="#DejaVuSans-6f" x="86.279297"/>
     <use xlink:href="#DejaVuSans-64" x="147.460938"/>
     <use xlink:href="#DejaVuSans-65" x="210.9375"/>
     <use xlink:href="#DejaVuSans-6c" x="272.460938"/>
     <use xlink:href="#DejaVuSans-20" x="300.244141"/>
     <use xlink:href="#DejaVuSans-70" x="332.03125"/>
     <use xlink:href="#DejaVuSans-65" x="395.507812"/>
     <use xlink:href="#DejaVuSans-72" x="457.03125"/>
     <use xlink:href="#DejaVuSans-66" x="498.144531"/>
     <use xlink:href="#DejaVuSans-6f" x="533.349609"/>
     <use xlink:href="#DejaVuSans-72" x="594.53125"/>
     <use xlink:href="#DejaVuSans-6d" x="633.894531"/>
     <use xlink:href="#DejaVuSans-61" x="731.306641"/>
     <use xlink:href="#DejaVuSans-6e" x="792.585938"/>
     <use xlink:href="#DejaVuSans-63" x="855.964844"/>
     <use xlink:href="#DejaVuSans-65" x="910.945312"/>
     <use xlink:href="#DejaVuSans-20" x="972.46875"/>
     <use xlink:href="#DejaVuSans-76" x="1004.255859"/>
     <use xlink:href="#DejaVuSans-73" x="1063.435547"/>
     <use xlink:href="#DejaVuSans-2e" x="1115.535156"/>
     <use xlink:href="#DejaVuSans-20" x="1147.322266"/>
     <use xlink:href="#DejaVuSans-23" x="1179.109375"/>
     <use xlink:href="#DejaVuSans-20" x="1262.898438"/>
     <use xlink:href="#DejaVuSans-6f" x="1294.685547"/>
     <use xlink:href="#DejaVuSans-66" x="1355.867188"/>
     <use xlink:href="#DejaVuSans-20" x="1391.072266"/>
     <use xlink:href="#DejaVuSans-69" x="1422.859375"/>
     <use xlink:href="#DejaVuSans-74" x="1450.642578"/>
     <use xlink:href="#DejaVuSans-65" x="1489.851562"/>
     <use xlink:href="#DejaVuSans-72" x="1551.375"/>
     <use xlink:href="#DejaVuSans-61" x="1592.488281"/>
     <use xlink:href="#DejaVuSans-74" x="1653.767578"/>
     <use xlink:href="#DejaVuSans-69" x="1692.976562"/>
     <use xlink:href="#DejaVuSans-6f" x="1720.759766"/>
     <use xlink:href="#DejaVuSans-6e" x="1781.941406"/>
     <use xlink:href="#DejaVuSans-73" x="1845.320312"/>
    </g>
   </g>
  </g>
 </g>
 <defs>
  <clipPath id="pac4187af56">
   <rect x="57.6" y="41.472" width="357.12" height="266.112"/>
  </clipPath>
 </defs>
</svg>
