<?xml version="1.0" encoding="utf-8" standalone="no"?>
<!DOCTYPE svg PUBLIC "-//W3C//DTD SVG 1.1//EN"
  "http://www.w3.org/Graphics/SVG/1.1/DTD/svg11.dtd">
<svg xmlns:xlink="http://www.w3.org/1999/xlink" width="460.8pt" height="345.6pt" viewBox="0 0 460.8 345.6" xmlns="http://www.w3.org/2000/svg" version="1.1">
 <metadata>
  <rdf:RDF xmlns:dc="http://purl.org/dc/elements/1.1/" xmlns:cc="http://creativecommons.org/ns#" xmlns:rdf="http://www.w3.org/1999/02/22-rdf-syntax-ns#">
   <cc:Work>
    <dc:type rdf:resource="http://purl.org/dc/dcmitype/StillImage"/>
    <dc:date>2022-05-21T22:35:30.208958</dc:date>
    <dc:format>image/svg+xml</dc:format>
    <dc:creator>
     <cc:Agent>
      <dc:title>Matplotlib v3.5.1, https://matplotlib.org/</dc:title>
     </cc:Agent>
    </dc:creator>
   </cc:Work>
  </rdf:RDF>
 </metadata>
 <defs>
  <style type="text/css">*{stroke-linejoin: round; stroke-linecap: butt}</style>
 </defs>
 <g id="figure_1">
  <g id="patch_1">
   <path d="M 0 345.6 
L 460.8 345.6 
L 460.8 0 
L 0 0 
z
" style="fill: #ffffff"/>
  </g>
  <g id="axes_1">
   <g id="patch_2">
    <path d="M 57.6 307.584 
L 414.72 307.584 
L 414.72 41.472 
L 57.6 41.472 
z
" style="fill: #ffffff"/>
   </g>
   <g id="matplotlib.axis_1">
    <g id="xtick_1">
     <g id="line2d_1">
      <path d="M 72.201297 307.584 
L 72.201297 41.472 
" clip-path="url(#p70787e07e1)" style="fill: none; stroke: #cccccc; stroke-width: 0.8; stroke-linecap: round"/>
     </g>
     <g id="text_1">
      <!-- 0 -->
      <g style="fill: #262626" transform="translate(69.020047 322.182437)scale(0.1 -0.1)">
       <defs>
        <path id="DejaVuSans-30" d="M 2034 4250 
Q 1547 4250 1301 3770 
Q 1056 3291 1056 2328 
Q 1056 1369 1301 889 
Q 1547 409 2034 409 
Q 2525 409 2770 889 
Q 3016 1369 3016 2328 
Q 3016 3291 2770 3770 
Q 2525 4250 2034 4250 
z
M 2034 4750 
Q 2819 4750 3233 4129 
Q 3647 3509 3647 2328 
Q 3647 1150 3233 529 
Q 2819 -91 2034 -91 
Q 1250 -91 836 529 
Q 422 1150 422 2328 
Q 422 3509 836 4129 
Q 1250 4750 2034 4750 
z
" transform="scale(0.015625)"/>
       </defs>
       <use xlink:href="#DejaVuSans-30"/>
      </g>
     </g>
    </g>
    <g id="xtick_2">
     <g id="line2d_2">
      <path d="M 112.987044 307.584 
L 112.987044 41.472 
" clip-path="url(#p70787e07e1)" style="fill: none; stroke: #cccccc; stroke-width: 0.8; stroke-linecap: round"/>
     </g>
     <g id="text_2">
      <!-- 25 -->
      <g style="fill: #262626" transform="translate(106.624544 322.182437)scale(0.1 -0.1)">
       <defs>
        <path id="DejaVuSans-32" d="M 1228 531 
L 3431 531 
L 3431 0 
L 469 0 
L 469 531 
Q 828 903 1448 1529 
Q 2069 2156 2228 2338 
Q 2531 2678 2651 2914 
Q 2772 3150 2772 3378 
Q 2772 3750 2511 3984 
Q 2250 4219 1831 4219 
Q 1534 4219 1204 4116 
Q 875 4013 500 3803 
L 500 4441 
Q 881 4594 1212 4672 
Q 1544 4750 1819 4750 
Q 2544 4750 2975 4387 
Q 3406 4025 3406 3419 
Q 3406 3131 3298 2873 
Q 3191 2616 2906 2266 
Q 2828 2175 2409 1742 
Q 1991 1309 1228 531 
z
" transform="scale(0.015625)"/>
        <path id="DejaVuSans-35" d="M 691 4666 
L 3169 4666 
L 3169 4134 
L 1269 4134 
L 1269 2991 
Q 1406 3038 1543 3061 
Q 1681 3084 1819 3084 
Q 2600 3084 3056 2656 
Q 3513 2228 3513 1497 
Q 3513 744 3044 326 
Q 2575 -91 1722 -91 
Q 1428 -91 1123 -41 
Q 819 9 494 109 
L 494 744 
Q 775 591 1075 516 
Q 1375 441 1709 441 
Q 2250 441 2565 725 
Q 2881 1009 2881 1497 
Q 2881 1984 2565 2268 
Q 2250 2553 1709 2553 
Q 1456 2553 1204 2497 
Q 953 2441 691 2322 
L 691 4666 
z
" transform="scale(0.015625)"/>
       </defs>
       <use xlink:href="#DejaVuSans-32"/>
       <use xlink:href="#DejaVuSans-35" x="63.623047"/>
      </g>
     </g>
    </g>
    <g id="xtick_3">
     <g id="line2d_3">
      <path d="M 153.772791 307.584 
L 153.772791 41.472 
" clip-path="url(#p70787e07e1)" style="fill: none; stroke: #cccccc; stroke-width: 0.8; stroke-linecap: round"/>
     </g>
     <g id="text_3">
      <!-- 50 -->
      <g style="fill: #262626" transform="translate(147.410291 322.182437)scale(0.1 -0.1)">
       <use xlink:href="#DejaVuSans-35"/>
       <use xlink:href="#DejaVuSans-30" x="63.623047"/>
      </g>
     </g>
    </g>
    <g id="xtick_4">
     <g id="line2d_4">
      <path d="M 194.558538 307.584 
L 194.558538 41.472 
" clip-path="url(#p70787e07e1)" style="fill: none; stroke: #cccccc; stroke-width: 0.8; stroke-linecap: round"/>
     </g>
     <g id="text_4">
      <!-- 75 -->
      <g style="fill: #262626" transform="translate(188.196038 322.182437)scale(0.1 -0.1)">
       <defs>
        <path id="DejaVuSans-37" d="M 525 4666 
L 3525 4666 
L 3525 4397 
L 1831 0 
L 1172 0 
L 2766 4134 
L 525 4134 
L 525 4666 
z
" transform="scale(0.015625)"/>
       </defs>
       <use xlink:href="#DejaVuSans-37"/>
       <use xlink:href="#DejaVuSans-35" x="63.623047"/>
      </g>
     </g>
    </g>
    <g id="xtick_5">
     <g id="line2d_5">
      <path d="M 235.344285 307.584 
L 235.344285 41.472 
" clip-path="url(#p70787e07e1)" style="fill: none; stroke: #cccccc; stroke-width: 0.8; stroke-linecap: round"/>
     </g>
     <g id="text_5">
      <!-- 100 -->
      <g style="fill: #262626" transform="translate(225.800535 322.182437)scale(0.1 -0.1)">
       <defs>
        <path id="DejaVuSans-31" d="M 794 531 
L 1825 531 
L 1825 4091 
L 703 3866 
L 703 4441 
L 1819 4666 
L 2450 4666 
L 2450 531 
L 3481 531 
L 3481 0 
L 794 0 
L 794 531 
z
" transform="scale(0.015625)"/>
       </defs>
       <use xlink:href="#DejaVuSans-31"/>
       <use xlink:href="#DejaVuSans-30" x="63.623047"/>
       <use xlink:href="#DejaVuSans-30" x="127.246094"/>
      </g>
     </g>
    </g>
    <g id="xtick_6">
     <g id="line2d_6">
      <path d="M 276.130032 307.584 
L 276.130032 41.472 
" clip-path="url(#p70787e07e1)" style="fill: none; stroke: #cccccc; stroke-width: 0.8; stroke-linecap: round"/>
     </g>
     <g id="text_6">
      <!-- 125 -->
      <g style="fill: #262626" transform="translate(266.586282 322.182437)scale(0.1 -0.1)">
       <use xlink:href="#DejaVuSans-31"/>
       <use xlink:href="#DejaVuSans-32" x="63.623047"/>
       <use xlink:href="#DejaVuSans-35" x="127.246094"/>
      </g>
     </g>
    </g>
    <g id="xtick_7">
     <g id="line2d_7">
      <path d="M 316.915779 307.584 
L 316.915779 41.472 
" clip-path="url(#p70787e07e1)" style="fill: none; stroke: #cccccc; stroke-width: 0.8; stroke-linecap: round"/>
     </g>
     <g id="text_7">
      <!-- 150 -->
      <g style="fill: #262626" transform="translate(307.372029 322.182437)scale(0.1 -0.1)">
       <use xlink:href="#DejaVuSans-31"/>
       <use xlink:href="#DejaVuSans-35" x="63.623047"/>
       <use xlink:href="#DejaVuSans-30" x="127.246094"/>
      </g>
     </g>
    </g>
    <g id="xtick_8">
     <g id="line2d_8">
      <path d="M 357.701526 307.584 
L 357.701526 41.472 
" clip-path="url(#p70787e07e1)" style="fill: none; stroke: #cccccc; stroke-width: 0.8; stroke-linecap: round"/>
     </g>
     <g id="text_8">
      <!-- 175 -->
      <g style="fill: #262626" transform="translate(348.157776 322.182437)scale(0.1 -0.1)">
       <use xlink:href="#DejaVuSans-31"/>
       <use xlink:href="#DejaVuSans-37" x="63.623047"/>
       <use xlink:href="#DejaVuSans-35" x="127.246094"/>
      </g>
     </g>
    </g>
    <g id="xtick_9">
     <g id="line2d_9">
      <path d="M 398.487273 307.584 
L 398.487273 41.472 
" clip-path="url(#p70787e07e1)" style="fill: none; stroke: #cccccc; stroke-width: 0.8; stroke-linecap: round"/>
     </g>
     <g id="text_9">
      <!-- 200 -->
      <g style="fill: #262626" transform="translate(388.943523 322.182437)scale(0.1 -0.1)">
       <use xlink:href="#DejaVuSans-32"/>
       <use xlink:href="#DejaVuSans-30" x="63.623047"/>
       <use xlink:href="#DejaVuSans-30" x="127.246094"/>
      </g>
     </g>
    </g>
    <g id="text_10">
     <!-- Iteration -->
     <g style="fill: #262626" transform="translate(214.951406 335.860562)scale(0.1 -0.1)">
      <defs>
       <path id="DejaVuSans-49" d="M 628 4666 
L 1259 4666 
L 1259 0 
L 628 0 
L 628 4666 
z
" transform="scale(0.015625)"/>
       <path id="DejaVuSans-74" d="M 1172 4494 
L 1172 3500 
L 2356 3500 
L 2356 3053 
L 1172 3053 
L 1172 1153 
Q 1172 725 1289 603 
Q 1406 481 1766 481 
L 2356 481 
L 2356 0 
L 1766 0 
Q 1100 0 847 248 
Q 594 497 594 1153 
L 594 3053 
L 172 3053 
L 172 3500 
L 594 3500 
L 594 4494 
L 1172 4494 
z
" transform="scale(0.015625)"/>
       <path id="DejaVuSans-65" d="M 3597 1894 
L 3597 1613 
L 953 1613 
Q 991 1019 1311 708 
Q 1631 397 2203 397 
Q 2534 397 2845 478 
Q 3156 559 3463 722 
L 3463 178 
Q 3153 47 2828 -22 
Q 2503 -91 2169 -91 
Q 1331 -91 842 396 
Q 353 884 353 1716 
Q 353 2575 817 3079 
Q 1281 3584 2069 3584 
Q 2775 3584 3186 3129 
Q 3597 2675 3597 1894 
z
M 3022 2063 
Q 3016 2534 2758 2815 
Q 2500 3097 2075 3097 
Q 1594 3097 1305 2825 
Q 1016 2553 972 2059 
L 3022 2063 
z
" transform="scale(0.015625)"/>
       <path id="DejaVuSans-72" d="M 2631 2963 
Q 2534 3019 2420 3045 
Q 2306 3072 2169 3072 
Q 1681 3072 1420 2755 
Q 1159 2438 1159 1844 
L 1159 0 
L 581 0 
L 581 3500 
L 1159 3500 
L 1159 2956 
Q 1341 3275 1631 3429 
Q 1922 3584 2338 3584 
Q 2397 3584 2469 3576 
Q 2541 3569 2628 3553 
L 2631 2963 
z
" transform="scale(0.015625)"/>
       <path id="DejaVuSans-61" d="M 2194 1759 
Q 1497 1759 1228 1600 
Q 959 1441 959 1056 
Q 959 750 1161 570 
Q 1363 391 1709 391 
Q 2188 391 2477 730 
Q 2766 1069 2766 1631 
L 2766 1759 
L 2194 1759 
z
M 3341 1997 
L 3341 0 
L 2766 0 
L 2766 531 
Q 2569 213 2275 61 
Q 1981 -91 1556 -91 
Q 1019 -91 701 211 
Q 384 513 384 1019 
Q 384 1609 779 1909 
Q 1175 2209 1959 2209 
L 2766 2209 
L 2766 2266 
Q 2766 2663 2505 2880 
Q 2244 3097 1772 3097 
Q 1472 3097 1187 3025 
Q 903 2953 641 2809 
L 641 3341 
Q 956 3463 1253 3523 
Q 1550 3584 1831 3584 
Q 2591 3584 2966 3190 
Q 3341 2797 3341 1997 
z
" transform="scale(0.015625)"/>
       <path id="DejaVuSans-69" d="M 603 3500 
L 1178 3500 
L 1178 0 
L 603 0 
L 603 3500 
z
M 603 4863 
L 1178 4863 
L 1178 4134 
L 603 4134 
L 603 4863 
z
" transform="scale(0.015625)"/>
       <path id="DejaVuSans-6f" d="M 1959 3097 
Q 1497 3097 1228 2736 
Q 959 2375 959 1747 
Q 959 1119 1226 758 
Q 1494 397 1959 397 
Q 2419 397 2687 759 
Q 2956 1122 2956 1747 
Q 2956 2369 2687 2733 
Q 2419 3097 1959 3097 
z
M 1959 3584 
Q 2709 3584 3137 3096 
Q 3566 2609 3566 1747 
Q 3566 888 3137 398 
Q 2709 -91 1959 -91 
Q 1206 -91 779 398 
Q 353 888 353 1747 
Q 353 2609 779 3096 
Q 1206 3584 1959 3584 
z
" transform="scale(0.015625)"/>
       <path id="DejaVuSans-6e" d="M 3513 2113 
L 3513 0 
L 2938 0 
L 2938 2094 
Q 2938 2591 2744 2837 
Q 2550 3084 2163 3084 
Q 1697 3084 1428 2787 
Q 1159 2491 1159 1978 
L 1159 0 
L 581 0 
L 581 3500 
L 1159 3500 
L 1159 2956 
Q 1366 3272 1645 3428 
Q 1925 3584 2291 3584 
Q 2894 3584 3203 3211 
Q 3513 2838 3513 2113 
z
" transform="scale(0.015625)"/>
      </defs>
      <use xlink:href="#DejaVuSans-49"/>
      <use xlink:href="#DejaVuSans-74" x="29.492188"/>
      <use xlink:href="#DejaVuSans-65" x="68.701172"/>
      <use xlink:href="#DejaVuSans-72" x="130.224609"/>
      <use xlink:href="#DejaVuSans-61" x="171.337891"/>
      <use xlink:href="#DejaVuSans-74" x="232.617188"/>
      <use xlink:href="#DejaVuSans-69" x="271.826172"/>
      <use xlink:href="#DejaVuSans-6f" x="299.609375"/>
      <use xlink:href="#DejaVuSans-6e" x="360.791016"/>
     </g>
    </g>
   </g>
   <g id="matplotlib.axis_2">
    <g id="ytick_1">
     <g id="line2d_10">
      <path d="M 57.6 298.917094 
L 414.72 298.917094 
" clip-path="url(#p70787e07e1)" style="fill: none; stroke: #cccccc; stroke-width: 0.8; stroke-linecap: round"/>
     </g>
     <g id="text_11">
      <!-- 0.500 -->
      <g style="fill: #262626" transform="translate(21.971875 302.716313)scale(0.1 -0.1)">
       <defs>
        <path id="DejaVuSans-2e" d="M 684 794 
L 1344 794 
L 1344 0 
L 684 0 
L 684 794 
z
" transform="scale(0.015625)"/>
       </defs>
       <use xlink:href="#DejaVuSans-30"/>
       <use xlink:href="#DejaVuSans-2e" x="63.623047"/>
       <use xlink:href="#DejaVuSans-35" x="95.410156"/>
       <use xlink:href="#DejaVuSans-30" x="159.033203"/>
       <use xlink:href="#DejaVuSans-30" x="222.65625"/>
      </g>
     </g>
    </g>
    <g id="ytick_2">
     <g id="line2d_11">
      <path d="M 57.6 266.622674 
L 414.72 266.622674 
" clip-path="url(#p70787e07e1)" style="fill: none; stroke: #cccccc; stroke-width: 0.8; stroke-linecap: round"/>
     </g>
     <g id="text_12">
      <!-- 0.525 -->
      <g style="fill: #262626" transform="translate(21.971875 270.421893)scale(0.1 -0.1)">
       <use xlink:href="#DejaVuSans-30"/>
       <use xlink:href="#DejaVuSans-2e" x="63.623047"/>
       <use xlink:href="#DejaVuSans-35" x="95.410156"/>
       <use xlink:href="#DejaVuSans-32" x="159.033203"/>
       <use xlink:href="#DejaVuSans-35" x="222.65625"/>
      </g>
     </g>
    </g>
    <g id="ytick_3">
     <g id="line2d_12">
      <path d="M 57.6 234.328255 
L 414.72 234.328255 
" clip-path="url(#p70787e07e1)" style="fill: none; stroke: #cccccc; stroke-width: 0.8; stroke-linecap: round"/>
     </g>
     <g id="text_13">
      <!-- 0.550 -->
      <g style="fill: #262626" transform="translate(21.971875 238.127474)scale(0.1 -0.1)">
       <use xlink:href="#DejaVuSans-30"/>
       <use xlink:href="#DejaVuSans-2e" x="63.623047"/>
       <use xlink:href="#DejaVuSans-35" x="95.410156"/>
       <use xlink:href="#DejaVuSans-35" x="159.033203"/>
       <use xlink:href="#DejaVuSans-30" x="222.65625"/>
      </g>
     </g>
    </g>
    <g id="ytick_4">
     <g id="line2d_13">
      <path d="M 57.6 202.033835 
L 414.72 202.033835 
" clip-path="url(#p70787e07e1)" style="fill: none; stroke: #cccccc; stroke-width: 0.8; stroke-linecap: round"/>
     </g>
     <g id="text_14">
      <!-- 0.575 -->
      <g style="fill: #262626" transform="translate(21.971875 205.833054)scale(0.1 -0.1)">
       <use xlink:href="#DejaVuSans-30"/>
       <use xlink:href="#DejaVuSans-2e" x="63.623047"/>
       <use xlink:href="#DejaVuSans-35" x="95.410156"/>
       <use xlink:href="#DejaVuSans-37" x="159.033203"/>
       <use xlink:href="#DejaVuSans-35" x="222.65625"/>
      </g>
     </g>
    </g>
    <g id="ytick_5">
     <g id="line2d_14">
      <path d="M 57.6 169.739416 
L 414.72 169.739416 
" clip-path="url(#p70787e07e1)" style="fill: none; stroke: #cccccc; stroke-width: 0.8; stroke-linecap: round"/>
     </g>
     <g id="text_15">
      <!-- 0.600 -->
      <g style="fill: #262626" transform="translate(21.971875 173.538634)scale(0.1 -0.1)">
       <defs>
        <path id="DejaVuSans-36" d="M 2113 2584 
Q 1688 2584 1439 2293 
Q 1191 2003 1191 1497 
Q 1191 994 1439 701 
Q 1688 409 2113 409 
Q 2538 409 2786 701 
Q 3034 994 3034 1497 
Q 3034 2003 2786 2293 
Q 2538 2584 2113 2584 
z
M 3366 4563 
L 3366 3988 
Q 3128 4100 2886 4159 
Q 2644 4219 2406 4219 
Q 1781 4219 1451 3797 
Q 1122 3375 1075 2522 
Q 1259 2794 1537 2939 
Q 1816 3084 2150 3084 
Q 2853 3084 3261 2657 
Q 3669 2231 3669 1497 
Q 3669 778 3244 343 
Q 2819 -91 2113 -91 
Q 1303 -91 875 529 
Q 447 1150 447 2328 
Q 447 3434 972 4092 
Q 1497 4750 2381 4750 
Q 2619 4750 2861 4703 
Q 3103 4656 3366 4563 
z
" transform="scale(0.015625)"/>
       </defs>
       <use xlink:href="#DejaVuSans-30"/>
       <use xlink:href="#DejaVuSans-2e" x="63.623047"/>
       <use xlink:href="#DejaVuSans-36" x="95.410156"/>
       <use xlink:href="#DejaVuSans-30" x="159.033203"/>
       <use xlink:href="#DejaVuSans-30" x="222.65625"/>
      </g>
     </g>
    </g>
    <g id="ytick_6">
     <g id="line2d_15">
      <path d="M 57.6 137.444996 
L 414.72 137.444996 
" clip-path="url(#p70787e07e1)" style="fill: none; stroke: #cccccc; stroke-width: 0.8; stroke-linecap: round"/>
     </g>
     <g id="text_16">
      <!-- 0.625 -->
      <g style="fill: #262626" transform="translate(21.971875 141.244215)scale(0.1 -0.1)">
       <use xlink:href="#DejaVuSans-30"/>
       <use xlink:href="#DejaVuSans-2e" x="63.623047"/>
       <use xlink:href="#DejaVuSans-36" x="95.410156"/>
       <use xlink:href="#DejaVuSans-32" x="159.033203"/>
       <use xlink:href="#DejaVuSans-35" x="222.65625"/>
      </g>
     </g>
    </g>
    <g id="ytick_7">
     <g id="line2d_16">
      <path d="M 57.6 105.150576 
L 414.72 105.150576 
" clip-path="url(#p70787e07e1)" style="fill: none; stroke: #cccccc; stroke-width: 0.8; stroke-linecap: round"/>
     </g>
     <g id="text_17">
      <!-- 0.650 -->
      <g style="fill: #262626" transform="translate(21.971875 108.949795)scale(0.1 -0.1)">
       <use xlink:href="#DejaVuSans-30"/>
       <use xlink:href="#DejaVuSans-2e" x="63.623047"/>
       <use xlink:href="#DejaVuSans-36" x="95.410156"/>
       <use xlink:href="#DejaVuSans-35" x="159.033203"/>
       <use xlink:href="#DejaVuSans-30" x="222.65625"/>
      </g>
     </g>
    </g>
    <g id="ytick_8">
     <g id="line2d_17">
      <path d="M 57.6 72.856157 
L 414.72 72.856157 
" clip-path="url(#p70787e07e1)" style="fill: none; stroke: #cccccc; stroke-width: 0.8; stroke-linecap: round"/>
     </g>
     <g id="text_18">
      <!-- 0.675 -->
      <g style="fill: #262626" transform="translate(21.971875 76.655375)scale(0.1 -0.1)">
       <use xlink:href="#DejaVuSans-30"/>
       <use xlink:href="#DejaVuSans-2e" x="63.623047"/>
       <use xlink:href="#DejaVuSans-36" x="95.410156"/>
       <use xlink:href="#DejaVuSans-37" x="159.033203"/>
       <use xlink:href="#DejaVuSans-35" x="222.65625"/>
      </g>
     </g>
    </g>
    <g id="text_19">
     <!-- Auroc -->
     <g style="fill: #262626" transform="translate(15.892188 188.868625)rotate(-90)scale(0.1 -0.1)">
      <defs>
       <path id="DejaVuSans-41" d="M 2188 4044 
L 1331 1722 
L 3047 1722 
L 2188 4044 
z
M 1831 4666 
L 2547 4666 
L 4325 0 
L 3669 0 
L 3244 1197 
L 1141 1197 
L 716 0 
L 50 0 
L 1831 4666 
z
" transform="scale(0.015625)"/>
       <path id="DejaVuSans-75" d="M 544 1381 
L 544 3500 
L 1119 3500 
L 1119 1403 
Q 1119 906 1312 657 
Q 1506 409 1894 409 
Q 2359 409 2629 706 
Q 2900 1003 2900 1516 
L 2900 3500 
L 3475 3500 
L 3475 0 
L 2900 0 
L 2900 538 
Q 2691 219 2414 64 
Q 2138 -91 1772 -91 
Q 1169 -91 856 284 
Q 544 659 544 1381 
z
M 1991 3584 
L 1991 3584 
z
" transform="scale(0.015625)"/>
       <path id="DejaVuSans-63" d="M 3122 3366 
L 3122 2828 
Q 2878 2963 2633 3030 
Q 2388 3097 2138 3097 
Q 1578 3097 1268 2742 
Q 959 2388 959 1747 
Q 959 1106 1268 751 
Q 1578 397 2138 397 
Q 2388 397 2633 464 
Q 2878 531 3122 666 
L 3122 134 
Q 2881 22 2623 -34 
Q 2366 -91 2075 -91 
Q 1284 -91 818 406 
Q 353 903 353 1747 
Q 353 2603 823 3093 
Q 1294 3584 2113 3584 
Q 2378 3584 2631 3529 
Q 2884 3475 3122 3366 
z
" transform="scale(0.015625)"/>
      </defs>
      <use xlink:href="#DejaVuSans-41"/>
      <use xlink:href="#DejaVuSans-75" x="68.408203"/>
      <use xlink:href="#DejaVuSans-72" x="131.787109"/>
      <use xlink:href="#DejaVuSans-6f" x="170.650391"/>
      <use xlink:href="#DejaVuSans-63" x="231.832031"/>
     </g>
    </g>
   </g>
   <g id="PolyCollection_1">
    <defs>
     <path id="m37e087b63e" d="M 73.832727 -236.330324 
L 73.832727 -133.273797 
L 75.464157 -128.553845 
L 77.095587 -159.20628 
L 78.727017 -100.184897 
L 80.358447 -147.577234 
L 81.989877 -135.524331 
L 83.621307 -96.205622 
L 85.252736 -134.876874 
L 86.884166 -112.078331 
L 88.515596 -137.026207 
L 90.147026 -99.054536 
L 91.778456 -120.635796 
L 93.409886 -134.333347 
L 95.041316 -135.368713 
L 96.672746 -138.683347 
L 98.304175 -148.860441 
L 99.935605 -145.347408 
L 101.567035 -95.204979 
L 103.198465 -153.178741 
L 104.829895 -98.284749 
L 106.461325 -68.607425 
L 108.092755 -111.84993 
L 109.724185 -164.385144 
L 111.355614 -171.28327 
L 112.987044 -156.466402 
L 114.618474 -137.974441 
L 116.249904 -91.382167 
L 117.881334 -148.104458 
L 119.512764 -155.189395 
L 121.144194 -122.447382 
L 122.775624 -180.344345 
L 124.407053 -166.995974 
L 126.038483 -145.345436 
L 127.669913 -117.417802 
L 129.301343 -168.329342 
L 130.932773 -151.823443 
L 132.564203 -70.249425 
L 134.195633 -156.84225 
L 135.827063 -95.087448 
L 137.458492 -126.848241 
L 139.089922 -156.506944 
L 140.721352 -143.531648 
L 142.352782 -177.788182 
L 143.984212 -137.157134 
L 145.615642 -114.644551 
L 147.247072 -155.210713 
L 148.878502 -54.77717 
L 150.509931 -144.512993 
L 152.141361 -162.833381 
L 153.772791 -154.865275 
L 155.404221 -83.510477 
L 157.035651 -125.253525 
L 158.667081 -132.523521 
L 160.298511 -132.835494 
L 161.929941 -62.966812 
L 163.56137 -114.080151 
L 165.1928 -149.535428 
L 166.82423 -161.040185 
L 168.45566 -131.414327 
L 170.08709 -154.265104 
L 171.71852 -92.984574 
L 173.34995 -104.842904 
L 174.98138 -91.924002 
L 176.61281 -85.669334 
L 178.244239 -104.842772 
L 179.875669 -112.784787 
L 181.507099 -145.718004 
L 183.138529 -169.389654 
L 184.769959 -119.766088 
L 186.401389 -118.668385 
L 188.032819 -158.509121 
L 189.664249 -136.182291 
L 191.295678 -148.748347 
L 192.927108 -143.343557 
L 194.558538 -163.253503 
L 196.189968 -168.185071 
L 197.821398 -58.131707 
L 199.452828 -72.024368 
L 201.084258 -150.345448 
L 202.715688 -162.950917 
L 204.347117 -128.927423 
L 205.978547 -118.226755 
L 207.609977 -171.083467 
L 209.241407 -126.469597 
L 210.872837 -186.949321 
L 212.504267 -127.594292 
L 214.135697 -90.931524 
L 215.767127 -177.065502 
L 217.398556 -139.499 
L 219.029986 -124.287196 
L 220.661416 -114.230785 
L 222.292846 -103.07127 
L 223.924276 -55.182177 
L 225.555706 -134.593893 
L 227.187136 -88.725381 
L 228.818566 -102.556033 
L 230.449995 -159.945821 
L 232.081425 -111.964465 
L 233.712855 -126.095447 
L 235.344285 -65.587527 
L 236.975715 -135.737756 
L 238.607145 -77.10627 
L 240.238575 -65.35056 
L 241.870005 -86.792438 
L 243.501434 -159.115497 
L 245.132864 -105.311223 
L 246.764294 -99.310352 
L 248.395724 -144.356193 
L 250.027154 -136.416637 
L 251.658584 -122.648856 
L 253.290014 -138.078265 
L 254.921444 -164.663211 
L 256.552873 -153.213937 
L 258.184303 -104.244307 
L 259.815733 -132.698655 
L 261.447163 -144.07979 
L 263.078593 -104.389968 
L 264.710023 -110.752244 
L 266.341453 -133.214177 
L 267.972883 -83.1792 
L 269.604312 -101.47607 
L 271.235742 -95.447656 
L 272.867172 -150.461461 
L 274.498602 -152.208687 
L 276.130032 -113.857208 
L 277.761462 -157.565847 
L 279.392892 -129.311572 
L 281.024322 -112.172768 
L 282.655751 -148.898206 
L 284.287181 -167.411722 
L 285.918611 -166.869847 
L 287.550041 -114.74713 
L 289.181471 -167.839884 
L 290.812901 -138.916324 
L 292.444331 -107.532527 
L 294.075761 -123.656303 
L 295.70719 -143.760301 
L 297.33862 -144.923213 
L 298.97005 -140.396377 
L 300.60148 -151.967786 
L 302.23291 -92.24869 
L 303.86434 -167.61819 
L 305.49577 -153.124353 
L 307.1272 -88.647372 
L 308.75863 -99.8617 
L 310.390059 -120.854619 
L 312.021489 -154.825482 
L 313.652919 -194.352412 
L 315.284349 -112.125773 
L 316.915779 -184.655155 
L 318.547209 -107.231592 
L 320.178639 -155.968991 
L 321.810069 -144.589876 
L 323.441498 -163.403948 
L 325.072928 -114.913185 
L 326.704358 -139.626458 
L 328.335788 -137.862704 
L 329.967218 -111.99337 
L 331.598648 -61.803021 
L 333.230078 -93.935769 
L 334.861508 -126.754229 
L 336.492937 -138.974187 
L 338.124367 -153.740885 
L 339.755797 -142.57235 
L 341.387227 -126.661539 
L 343.018657 -124.015114 
L 344.650087 -94.92607 
L 346.281517 -155.34407 
L 347.912947 -122.742355 
L 349.544376 -119.388633 
L 351.175806 -140.20529 
L 352.807236 -164.651443 
L 354.438666 -128.076944 
L 356.070096 -157.958423 
L 357.701526 -143.437378 
L 359.332956 -127.437618 
L 360.964386 -103.585742 
L 362.595815 -130.869985 
L 364.227245 -168.8828 
L 365.858675 -128.004724 
L 367.490105 -146.634912 
L 369.121535 -168.049198 
L 370.752965 -131.210271 
L 372.384395 -149.856355 
L 374.015825 -148.196252 
L 375.647254 -133.386227 
L 377.278684 -153.904237 
L 378.910114 -124.620265 
L 380.541544 -140.560637 
L 382.172974 -139.901837 
L 383.804404 -124.17727 
L 385.435834 -117.170538 
L 387.067264 -154.053747 
L 388.698693 -85.35304 
L 390.330123 -156.631894 
L 391.961553 -114.186475 
L 393.592983 -50.112 
L 395.224413 -131.359722 
L 396.855843 -132.877013 
L 398.487273 -105.373542 
L 398.487273 -240.878668 
L 398.487273 -240.878668 
L 396.855843 -205.2617 
L 395.224413 -229.844056 
L 393.592983 -235.46205 
L 391.961553 -201.329999 
L 390.330123 -267.871889 
L 388.698693 -150.357303 
L 387.067264 -254.678784 
L 385.435834 -183.619503 
L 383.804404 -232.960073 
L 382.172974 -214.387718 
L 380.541544 -263.805517 
L 378.910114 -259.101706 
L 377.278684 -244.46806 
L 375.647254 -171.398537 
L 374.015825 -234.119517 
L 372.384395 -205.575607 
L 370.752965 -220.159157 
L 369.121535 -240.142873 
L 367.490105 -219.054898 
L 365.858675 -228.531659 
L 364.227245 -265.161804 
L 362.595815 -187.325873 
L 360.964386 -244.154471 
L 359.332956 -281.614185 
L 357.701526 -237.852499 
L 356.070096 -221.215626 
L 354.438666 -248.297843 
L 352.807236 -223.757162 
L 351.175806 -268.175814 
L 349.544376 -218.443007 
L 347.912947 -243.489619 
L 346.281517 -239.5349 
L 344.650087 -262.452015 
L 343.018657 -230.054194 
L 341.387227 -232.384614 
L 339.755797 -198.821995 
L 338.124367 -186.473381 
L 336.492937 -213.740045 
L 334.861508 -186.629375 
L 333.230078 -250.113384 
L 331.598648 -221.186273 
L 329.967218 -205.940038 
L 328.335788 -201.78675 
L 326.704358 -215.602254 
L 325.072928 -235.730247 
L 323.441498 -231.1475 
L 321.810069 -240.342535 
L 320.178639 -243.671779 
L 318.547209 -217.510423 
L 316.915779 -262.282012 
L 315.284349 -200.010077 
L 313.652919 -225.463256 
L 312.021489 -247.521089 
L 310.390059 -209.148845 
L 308.75863 -220.461197 
L 307.1272 -215.981367 
L 305.49577 -240.732806 
L 303.86434 -236.464885 
L 302.23291 -250.177602 
L 300.60148 -224.867453 
L 298.97005 -248.285037 
L 297.33862 -207.634905 
L 295.70719 -243.273496 
L 294.075761 -254.079299 
L 292.444331 -225.600952 
L 290.812901 -204.778442 
L 289.181471 -257.466046 
L 287.550041 -266.660247 
L 285.918611 -217.024069 
L 284.287181 -274.555462 
L 282.655751 -220.448758 
L 281.024322 -217.373025 
L 279.392892 -195.392547 
L 277.761462 -241.716814 
L 276.130032 -212.201717 
L 274.498602 -238.03594 
L 272.867172 -227.627093 
L 271.235742 -230.35178 
L 269.604312 -257.787056 
L 267.972883 -200.513352 
L 266.341453 -248.185666 
L 264.710023 -203.136077 
L 263.078593 -234.109097 
L 261.447163 -232.634315 
L 259.815733 -209.049853 
L 258.184303 -171.872428 
L 256.552873 -249.265069 
L 254.921444 -213.290217 
L 253.290014 -222.554242 
L 251.658584 -205.185906 
L 250.027154 -202.461525 
L 248.395724 -207.202134 
L 246.764294 -244.965193 
L 245.132864 -261.24527 
L 243.501434 -240.658158 
L 241.870005 -186.502566 
L 240.238575 -219.122253 
L 238.607145 -219.068085 
L 236.975715 -255.168376 
L 235.344285 -206.245753 
L 233.712855 -202.82167 
L 232.081425 -198.318141 
L 230.449995 -209.647851 
L 228.818566 -261.553969 
L 227.187136 -164.660179 
L 225.555706 -211.048073 
L 223.924276 -237.536165 
L 222.292846 -189.753272 
L 220.661416 -252.317141 
L 219.029986 -225.921931 
L 217.398556 -250.380567 
L 215.767127 -246.716142 
L 214.135697 -256.037577 
L 212.504267 -248.102666 
L 210.872837 -267.629455 
L 209.241407 -222.354721 
L 207.609977 -254.921729 
L 205.978547 -212.976342 
L 204.347117 -255.196562 
L 202.715688 -233.618231 
L 201.084258 -255.000136 
L 199.452828 -202.610462 
L 197.821398 -254.039094 
L 196.189968 -262.872762 
L 194.558538 -245.641871 
L 192.927108 -194.792914 
L 191.295678 -241.613872 
L 189.664249 -263.684244 
L 188.032819 -236.952197 
L 186.401389 -204.329501 
L 184.769959 -268.917658 
L 183.138529 -231.726428 
L 181.507099 -230.752802 
L 179.875669 -256.025439 
L 178.244239 -243.325827 
L 176.61281 -186.546184 
L 174.98138 -210.481545 
L 173.34995 -234.613525 
L 171.71852 -205.803239 
L 170.08709 -251.060837 
L 168.45566 -261.147943 
L 166.82423 -217.655249 
L 165.1928 -207.013915 
L 163.56137 -198.262268 
L 161.929941 -226.222729 
L 160.298511 -220.885167 
L 158.667081 -197.534299 
L 157.035651 -237.061401 
L 155.404221 -236.609977 
L 153.772791 -249.438003 
L 152.141361 -239.567679 
L 150.509931 -262.764184 
L 148.878502 -255.59552 
L 147.247072 -217.654109 
L 145.615642 -250.510179 
L 143.984212 -168.350621 
L 142.352782 -245.62562 
L 140.721352 -236.076034 
L 139.089922 -233.816078 
L 137.458492 -254.739469 
L 135.827063 -217.819066 
L 134.195633 -232.535515 
L 132.564203 -208.397531 
L 130.932773 -238.747991 
L 129.301343 -247.076445 
L 127.669913 -229.443844 
L 126.038483 -215.980866 
L 124.407053 -198.176606 
L 122.775624 -265.033108 
L 121.144194 -228.938998 
L 119.512764 -247.546005 
L 117.881334 -244.185586 
L 116.249904 -241.337457 
L 114.618474 -260.42723 
L 112.987044 -210.586151 
L 111.355614 -236.804261 
L 109.724185 -248.868714 
L 108.092755 -227.54452 
L 106.461325 -219.087565 
L 104.829895 -194.603655 
L 103.198465 -271.86012 
L 101.567035 -222.351798 
L 99.935605 -231.256551 
L 98.304175 -181.48409 
L 96.672746 -235.28612 
L 95.041316 -249.486695 
L 93.409886 -244.203819 
L 91.778456 -246.453667 
L 90.147026 -226.583134 
L 88.515596 -249.555122 
L 86.884166 -245.296794 
L 85.252736 -270.107641 
L 83.621307 -217.913799 
L 81.989877 -227.489233 
L 80.358447 -251.676096 
L 78.727017 -292.032 
L 77.095587 -198.786579 
L 75.464157 -245.851677 
L 73.832727 -236.330324 
z
" style="stroke: #ffffff; stroke-opacity: 0.2"/>
    </defs>
    <g clip-path="url(#p70787e07e1)">
     <use xlink:href="#m37e087b63e" x="0" y="345.6" style="fill: #1f77b4; fill-opacity: 0.2; stroke: #ffffff; stroke-opacity: 0.2"/>
    </g>
   </g>
   <g id="line2d_18">
    <path d="M 73.832727 160.797939 
L 75.464157 158.397239 
L 77.095587 166.603571 
L 78.727017 149.491551 
L 80.358447 145.973335 
L 81.989877 164.093218 
L 83.621307 188.540289 
L 85.252736 143.107743 
L 86.884166 166.912437 
L 88.515596 152.309336 
L 90.147026 182.781165 
L 91.778456 162.055269 
L 93.409886 156.331417 
L 95.041316 153.172296 
L 96.672746 158.615266 
L 98.304175 180.427734 
L 99.935605 157.298021 
L 101.567035 186.821611 
L 103.198465 133.080569 
L 104.829895 199.155798 
L 106.461325 201.752505 
L 108.092755 175.902775 
L 109.724185 138.973071 
L 111.355614 141.556234 
L 112.987044 162.073723 
L 114.618474 146.399164 
L 116.249904 179.240188 
L 117.881334 149.454978 
L 119.512764 144.2323 
L 121.144194 169.90681 
L 122.775624 122.911274 
L 124.407053 163.01371 
L 126.038483 164.936849 
L 127.669913 172.169177 
L 129.301343 137.897106 
L 130.932773 150.314283 
L 132.564203 206.276522 
L 134.195633 150.911117 
L 135.827063 189.146743 
L 137.458492 154.806145 
L 139.089922 150.438489 
L 140.721352 155.796159 
L 142.352782 133.893099 
L 143.984212 192.846122 
L 145.615642 163.022635 
L 147.247072 159.167589 
L 148.878502 190.413655 
L 150.509931 141.961411 
L 152.141361 144.39947 
L 153.772791 143.448361 
L 155.404221 185.539773 
L 157.035651 164.442537 
L 158.667081 180.57109 
L 160.298511 168.739669 
L 161.929941 201.005229 
L 163.56137 189.428791 
L 165.1928 167.325328 
L 166.82423 156.252283 
L 168.45566 149.318865 
L 170.08709 142.93703 
L 171.71852 196.206094 
L 173.34995 175.871785 
L 174.98138 194.397227 
L 176.61281 209.492241 
L 178.244239 171.515701 
L 179.875669 161.194887 
L 181.507099 157.364597 
L 183.138529 145.041959 
L 184.769959 151.258127 
L 186.401389 184.101057 
L 188.032819 147.869341 
L 189.664249 145.666733 
L 191.295678 150.418891 
L 192.927108 176.531765 
L 194.558538 141.152313 
L 196.189968 130.071083 
L 197.821398 189.514599 
L 199.452828 208.282585 
L 201.084258 142.927208 
L 202.715688 147.315426 
L 204.347117 153.538007 
L 205.978547 179.998452 
L 207.609977 132.597402 
L 209.241407 171.187841 
L 210.872837 118.310612 
L 212.504267 157.751521 
L 214.135697 172.11545 
L 215.767127 133.709178 
L 217.398556 150.660217 
L 219.029986 170.495437 
L 220.661416 162.326037 
L 222.292846 199.187729 
L 223.924276 199.240829 
L 225.555706 172.779017 
L 227.187136 218.90722 
L 228.818566 163.544999 
L 230.449995 160.803164 
L 232.081425 190.458697 
L 233.712855 181.141441 
L 235.344285 209.68336 
L 236.975715 150.146934 
L 238.607145 197.512823 
L 241.870005 208.952498 
L 243.501434 145.713173 
L 245.132864 162.321754 
L 246.764294 173.462228 
L 248.395724 169.820837 
L 250.027154 176.160919 
L 251.658584 181.682619 
L 253.290014 165.283746 
L 254.921444 156.623286 
L 256.552873 144.360497 
L 258.184303 207.541633 
L 259.815733 174.725746 
L 261.447163 157.242948 
L 263.078593 176.350468 
L 264.710023 188.65584 
L 266.341453 154.900078 
L 267.972883 203.753724 
L 269.604312 165.968437 
L 271.235742 182.700282 
L 272.867172 156.555723 
L 274.498602 150.477686 
L 276.130032 182.570538 
L 277.761462 145.958669 
L 279.392892 183.24794 
L 281.024322 180.827103 
L 282.655751 160.926518 
L 284.287181 124.616408 
L 285.918611 153.653042 
L 287.550041 154.896311 
L 289.181471 132.947035 
L 290.812901 173.752617 
L 292.444331 179.033261 
L 294.075761 156.732199 
L 295.70719 152.083101 
L 297.33862 169.320941 
L 298.97005 151.259293 
L 300.60148 157.182381 
L 302.23291 174.386854 
L 303.86434 143.558462 
L 305.49577 148.67142 
L 307.1272 193.28563 
L 308.75863 185.438551 
L 310.390059 180.598268 
L 312.021489 144.426715 
L 313.652919 135.692166 
L 315.284349 189.532075 
L 316.915779 122.131416 
L 318.547209 183.228992 
L 320.178639 145.779615 
L 321.810069 153.133794 
L 323.441498 148.324276 
L 325.072928 170.278284 
L 326.704358 167.985644 
L 328.335788 175.775273 
L 329.967218 186.633296 
L 331.598648 204.105353 
L 333.230078 173.575423 
L 334.861508 188.908198 
L 336.492937 169.242884 
L 338.124367 175.492867 
L 339.755797 174.902827 
L 341.387227 166.076924 
L 343.018657 168.565346 
L 344.650087 166.910957 
L 346.281517 148.160515 
L 349.544376 176.68418 
L 351.175806 141.409448 
L 352.807236 151.395697 
L 354.438666 157.412607 
L 356.070096 156.012975 
L 357.701526 154.955062 
L 359.332956 141.074099 
L 360.964386 171.729893 
L 362.595815 186.502071 
L 364.227245 128.577698 
L 365.858675 167.331809 
L 367.490105 162.755095 
L 369.121535 141.503964 
L 370.752965 169.915286 
L 372.384395 167.884019 
L 374.015825 154.442116 
L 375.647254 193.207618 
L 377.278684 146.413852 
L 378.910114 153.739015 
L 380.541544 143.416923 
L 382.172974 168.455223 
L 383.804404 167.031329 
L 385.435834 195.20498 
L 387.067264 141.233734 
L 388.698693 227.744829 
L 390.330123 133.348109 
L 391.961553 187.841763 
L 393.592983 202.812975 
L 395.224413 164.998111 
L 396.855843 176.530644 
L 398.487273 172.473895 
L 398.487273 172.473895 
" clip-path="url(#p70787e07e1)" style="fill: none; stroke: #1f77b4; stroke-width: 1.5; stroke-linecap: round"/>
   </g>
   <g id="LineCollection_1">
    <path d="M 398.487273 295.488 
L 398.487273 53.568 
" clip-path="url(#p70787e07e1)" style="fill: none; stroke-dasharray: 5.55,2.4; stroke-dashoffset: 0; stroke: #1f77b4; stroke-width: 1.5"/>
   </g>
   <g id="patch_3">
    <path d="M 57.6 307.584 
L 57.6 41.472 
" style="fill: none; stroke: #cccccc; stroke-width: 0.8; stroke-linejoin: miter; stroke-linecap: square"/>
   </g>
   <g id="patch_4">
    <path d="M 414.72 307.584 
L 414.72 41.472 
" style="fill: none; stroke: #cccccc; stroke-width: 0.8; stroke-linejoin: miter; stroke-linecap: square"/>
   </g>
   <g id="patch_5">
    <path d="M 57.6 307.584 
L 414.72 307.584 
" style="fill: none; stroke: #cccccc; stroke-width: 0.8; stroke-linejoin: miter; stroke-linecap: square"/>
   </g>
   <g id="patch_6">
    <path d="M 57.6 41.472 
L 414.72 41.472 
" style="fill: none; stroke: #cccccc; stroke-width: 0.8; stroke-linejoin: miter; stroke-linecap: square"/>
   </g>
   <g id="text_20">
    <!-- Model performance vs. # of iterations -->
    <g style="fill: #262626" transform="translate(122.314688 35.472)scale(0.12 -0.12)">
     <defs>
      <path id="DejaVuSans-4d" d="M 628 4666 
L 1569 4666 
L 2759 1491 
L 3956 4666 
L 4897 4666 
L 4897 0 
L 4281 0 
L 4281 4097 
L 3078 897 
L 2444 897 
L 1241 4097 
L 1241 0 
L 628 0 
L 628 4666 
z
" transform="scale(0.015625)"/>
      <path id="DejaVuSans-64" d="M 2906 2969 
L 2906 4863 
L 3481 4863 
L 3481 0 
L 2906 0 
L 2906 525 
Q 2725 213 2448 61 
Q 2172 -91 1784 -91 
Q 1150 -91 751 415 
Q 353 922 353 1747 
Q 353 2572 751 3078 
Q 1150 3584 1784 3584 
Q 2172 3584 2448 3432 
Q 2725 3281 2906 2969 
z
M 947 1747 
Q 947 1113 1208 752 
Q 1469 391 1925 391 
Q 2381 391 2643 752 
Q 2906 1113 2906 1747 
Q 2906 2381 2643 2742 
Q 2381 3103 1925 3103 
Q 1469 3103 1208 2742 
Q 947 2381 947 1747 
z
" transform="scale(0.015625)"/>
      <path id="DejaVuSans-6c" d="M 603 4863 
L 1178 4863 
L 1178 0 
L 603 0 
L 603 4863 
z
" transform="scale(0.015625)"/>
      <path id="DejaVuSans-20" transform="scale(0.015625)"/>
      <path id="DejaVuSans-70" d="M 1159 525 
L 1159 -1331 
L 581 -1331 
L 581 3500 
L 1159 3500 
L 1159 2969 
Q 1341 3281 1617 3432 
Q 1894 3584 2278 3584 
Q 2916 3584 3314 3078 
Q 3713 2572 3713 1747 
Q 3713 922 3314 415 
Q 2916 -91 2278 -91 
Q 1894 -91 1617 61 
Q 1341 213 1159 525 
z
M 3116 1747 
Q 3116 2381 2855 2742 
Q 2594 3103 2138 3103 
Q 1681 3103 1420 2742 
Q 1159 2381 1159 1747 
Q 1159 1113 1420 752 
Q 1681 391 2138 391 
Q 2594 391 2855 752 
Q 3116 1113 3116 1747 
z
" transform="scale(0.015625)"/>
      <path id="DejaVuSans-66" d="M 2375 4863 
L 2375 4384 
L 1825 4384 
Q 1516 4384 1395 4259 
Q 1275 4134 1275 3809 
L 1275 3500 
L 2222 3500 
L 2222 3053 
L 1275 3053 
L 1275 0 
L 697 0 
L 697 3053 
L 147 3053 
L 147 3500 
L 697 3500 
L 697 3744 
Q 697 4328 969 4595 
Q 1241 4863 1831 4863 
L 2375 4863 
z
" transform="scale(0.015625)"/>
      <path id="DejaVuSans-6d" d="M 3328 2828 
Q 3544 3216 3844 3400 
Q 4144 3584 4550 3584 
Q 5097 3584 5394 3201 
Q 5691 2819 5691 2113 
L 5691 0 
L 5113 0 
L 5113 2094 
Q 5113 2597 4934 2840 
Q 4756 3084 4391 3084 
Q 3944 3084 3684 2787 
Q 3425 2491 3425 1978 
L 3425 0 
L 2847 0 
L 2847 2094 
Q 2847 2600 2669 2842 
Q 2491 3084 2119 3084 
Q 1678 3084 1418 2786 
Q 1159 2488 1159 1978 
L 1159 0 
L 581 0 
L 581 3500 
L 1159 3500 
L 1159 2956 
Q 1356 3278 1631 3431 
Q 1906 3584 2284 3584 
Q 2666 3584 2933 3390 
Q 3200 3197 3328 2828 
z
" transform="scale(0.015625)"/>
      <path id="DejaVuSans-76" d="M 191 3500 
L 800 3500 
L 1894 563 
L 2988 3500 
L 3597 3500 
L 2284 0 
L 1503 0 
L 191 3500 
z
" transform="scale(0.015625)"/>
      <path id="DejaVuSans-73" d="M 2834 3397 
L 2834 2853 
Q 2591 2978 2328 3040 
Q 2066 3103 1784 3103 
Q 1356 3103 1142 2972 
Q 928 2841 928 2578 
Q 928 2378 1081 2264 
Q 1234 2150 1697 2047 
L 1894 2003 
Q 2506 1872 2764 1633 
Q 3022 1394 3022 966 
Q 3022 478 2636 193 
Q 2250 -91 1575 -91 
Q 1294 -91 989 -36 
Q 684 19 347 128 
L 347 722 
Q 666 556 975 473 
Q 1284 391 1588 391 
Q 1994 391 2212 530 
Q 2431 669 2431 922 
Q 2431 1156 2273 1281 
Q 2116 1406 1581 1522 
L 1381 1569 
Q 847 1681 609 1914 
Q 372 2147 372 2553 
Q 372 3047 722 3315 
Q 1072 3584 1716 3584 
Q 2034 3584 2315 3537 
Q 2597 3491 2834 3397 
z
" transform="scale(0.015625)"/>
      <path id="DejaVuSans-23" d="M 3272 2816 
L 2363 2816 
L 2100 1772 
L 3016 1772 
L 3272 2816 
z
M 2803 4594 
L 2478 3297 
L 3391 3297 
L 3719 4594 
L 4219 4594 
L 3897 3297 
L 4872 3297 
L 4872 2816 
L 3775 2816 
L 3519 1772 
L 4513 1772 
L 4513 1294 
L 3397 1294 
L 3072 0 
L 2572 0 
L 2894 1294 
L 1978 1294 
L 1656 0 
L 1153 0 
L 1478 1294 
L 494 1294 
L 494 1772 
L 1594 1772 
L 1856 2816 
L 850 2816 
L 850 3297 
L 1978 3297 
L 2297 4594 
L 2803 4594 
z
" transform="scale(0.015625)"/>
     </defs>
     <use xlink:href="#DejaVuSans-4d"/>
     <use xlink:href="#DejaVuSans-6f" x="86.279297"/>
     <use xlink:href="#DejaVuSans-64" x="147.460938"/>
     <use xlink:href="#DejaVuSans-65" x="210.9375"/>
     <use xlink:href="#DejaVuSans-6c" x="272.460938"/>
     <use xlink:href="#DejaVuSans-20" x="300.244141"/>
     <use xlink:href="#DejaVuSans-70" x="332.03125"/>
     <use xlink:href="#DejaVuSans-65" x="395.507812"/>
     <use xlink:href="#DejaVuSans-72" x="457.03125"/>
     <use xlink:href="#DejaVuSans-66" x="498.144531"/>
     <use xlink:href="#DejaVuSans-6f" x="533.349609"/>
     <use xlink:href="#DejaVuSans-72" x="594.53125"/>
     <use xlink:href="#DejaVuSans-6d" x="633.894531"/>
     <use xlink:href="#DejaVuSans-61" x="731.306641"/>
     <use xlink:href="#DejaVuSans-6e" x="792.585938"/>
     <use xlink:href="#DejaVuSans-63" x="855.964844"/>
     <use xlink:href="#DejaVuSans-65" x="910.945312"/>
     <use xlink:href="#DejaVuSans-20" x="972.46875"/>
     <use xlink:href="#DejaVuSans-76" x="1004.255859"/>
     <use xlink:href="#DejaVuSans-73" x="1063.435547"/>
     <use xlink:href="#DejaVuSans-2e" x="1115.535156"/>
     <use xlink:href="#DejaVuSans-20" x="1147.322266"/>
     <use xlink:href="#DejaVuSans-23" x="1179.109375"/>
     <use xlink:href="#DejaVuSans-20" x="1262.898438"/>
     <use xlink:href="#DejaVuSans-6f" x="1294.685547"/>
     <use xlink:href="#DejaVuSans-66" x="1355.867188"/>
     <use xlink:href="#DejaVuSans-20" x="1391.072266"/>
     <use xlink:href="#DejaVuSans-69" x="1422.859375"/>
     <use xlink:href="#DejaVuSans-74" x="1450.642578"/>
     <use xlink:href="#DejaVuSans-65" x="1489.851562"/>
     <use xlink:href="#DejaVuSans-72" x="1551.375"/>
     <use xlink:href="#DejaVuSans-61" x="1592.488281"/>
     <use xlink:href="#DejaVuSans-74" x="1653.767578"/>
     <use xlink:href="#DejaVuSans-69" x="1692.976562"/>
     <use xlink:href="#DejaVuSans-6f" x="1720.759766"/>
     <use xlink:href="#DejaVuSans-6e" x="1781.941406"/>
     <use xlink:href="#DejaVuSans-73" x="1845.320312"/>
    </g>
   </g>
  </g>
 </g>
 <defs>
  <clipPath id="p70787e07e1">
   <rect x="57.6" y="41.472" width="357.12" height="266.112"/>
  </clipPath>
 </defs>
</svg>
