<?xml version="1.0" encoding="utf-8" standalone="no"?>
<!DOCTYPE svg PUBLIC "-//W3C//DTD SVG 1.1//EN"
  "http://www.w3.org/Graphics/SVG/1.1/DTD/svg11.dtd">
<svg height="345.6pt" version="1.1" viewBox="0 0 460.8 345.6" width="460.8pt" xmlns="http://www.w3.org/2000/svg" xmlns:xlink="http://www.w3.org/1999/xlink">
 <metadata>
  <rdf:RDF xmlns:cc="http://creativecommons.org/ns#" xmlns:dc="http://purl.org/dc/elements/1.1/" xmlns:rdf="http://www.w3.org/1999/02/22-rdf-syntax-ns#">
   <cc:Work>
    <dc:type rdf:resource="http://purl.org/dc/dcmitype/StillImage"/>
    <dc:date>2022-01-29T07:41:36.871315</dc:date>
    <dc:format>image/svg+xml</dc:format>
    <dc:creator>
     <cc:Agent>
      <dc:title>Matplotlib v3.4.3, https://matplotlib.org/</dc:title>
     </cc:Agent>
    </dc:creator>
   </cc:Work>
  </rdf:RDF>
 </metadata>
 <defs>
  <style type="text/css">*{stroke-linecap:butt;stroke-linejoin:round;}</style>
 </defs>
 <g id="figure_1">
  <g id="patch_1">
   <path d="M 0 345.6 
L 460.8 345.6 
L 460.8 0 
L 0 0 
z
" style="fill:#ffffff;"/>
  </g>
  <g id="axes_1">
   <g id="patch_2">
    <path d="M 57.6 307.584 
L 414.72 307.584 
L 414.72 41.472 
L 57.6 41.472 
z
" style="fill:#ffffff;"/>
   </g>
   <g id="matplotlib.axis_1">
    <g id="xtick_1">
     <g id="line2d_1">
      <path clip-path="url(#pba67625b32)" d="M 72.201297 307.584 
L 72.201297 41.472 
" style="fill:none;stroke:#cccccc;stroke-linecap:round;stroke-width:0.8;"/>
     </g>
     <g id="text_1">
      <!-- 0 -->
      <g style="fill:#262626;" transform="translate(69.020047 322.182437)scale(0.1 -0.1)">
       <defs>
        <path d="M 2034 4250 
Q 1547 4250 1301 3770 
Q 1056 3291 1056 2328 
Q 1056 1369 1301 889 
Q 1547 409 2034 409 
Q 2525 409 2770 889 
Q 3016 1369 3016 2328 
Q 3016 3291 2770 3770 
Q 2525 4250 2034 4250 
z
M 2034 4750 
Q 2819 4750 3233 4129 
Q 3647 3509 3647 2328 
Q 3647 1150 3233 529 
Q 2819 -91 2034 -91 
Q 1250 -91 836 529 
Q 422 1150 422 2328 
Q 422 3509 836 4129 
Q 1250 4750 2034 4750 
z
" id="DejaVuSans-30" transform="scale(0.015625)"/>
       </defs>
       <use xlink:href="#DejaVuSans-30"/>
      </g>
     </g>
    </g>
    <g id="xtick_2">
     <g id="line2d_2">
      <path clip-path="url(#pba67625b32)" d="M 112.987044 307.584 
L 112.987044 41.472 
" style="fill:none;stroke:#cccccc;stroke-linecap:round;stroke-width:0.8;"/>
     </g>
     <g id="text_2">
      <!-- 25 -->
      <g style="fill:#262626;" transform="translate(106.624544 322.182437)scale(0.1 -0.1)">
       <defs>
        <path d="M 1228 531 
L 3431 531 
L 3431 0 
L 469 0 
L 469 531 
Q 828 903 1448 1529 
Q 2069 2156 2228 2338 
Q 2531 2678 2651 2914 
Q 2772 3150 2772 3378 
Q 2772 3750 2511 3984 
Q 2250 4219 1831 4219 
Q 1534 4219 1204 4116 
Q 875 4013 500 3803 
L 500 4441 
Q 881 4594 1212 4672 
Q 1544 4750 1819 4750 
Q 2544 4750 2975 4387 
Q 3406 4025 3406 3419 
Q 3406 3131 3298 2873 
Q 3191 2616 2906 2266 
Q 2828 2175 2409 1742 
Q 1991 1309 1228 531 
z
" id="DejaVuSans-32" transform="scale(0.015625)"/>
        <path d="M 691 4666 
L 3169 4666 
L 3169 4134 
L 1269 4134 
L 1269 2991 
Q 1406 3038 1543 3061 
Q 1681 3084 1819 3084 
Q 2600 3084 3056 2656 
Q 3513 2228 3513 1497 
Q 3513 744 3044 326 
Q 2575 -91 1722 -91 
Q 1428 -91 1123 -41 
Q 819 9 494 109 
L 494 744 
Q 775 591 1075 516 
Q 1375 441 1709 441 
Q 2250 441 2565 725 
Q 2881 1009 2881 1497 
Q 2881 1984 2565 2268 
Q 2250 2553 1709 2553 
Q 1456 2553 1204 2497 
Q 953 2441 691 2322 
L 691 4666 
z
" id="DejaVuSans-35" transform="scale(0.015625)"/>
       </defs>
       <use xlink:href="#DejaVuSans-32"/>
       <use x="63.623047" xlink:href="#DejaVuSans-35"/>
      </g>
     </g>
    </g>
    <g id="xtick_3">
     <g id="line2d_3">
      <path clip-path="url(#pba67625b32)" d="M 153.772791 307.584 
L 153.772791 41.472 
" style="fill:none;stroke:#cccccc;stroke-linecap:round;stroke-width:0.8;"/>
     </g>
     <g id="text_3">
      <!-- 50 -->
      <g style="fill:#262626;" transform="translate(147.410291 322.182437)scale(0.1 -0.1)">
       <use xlink:href="#DejaVuSans-35"/>
       <use x="63.623047" xlink:href="#DejaVuSans-30"/>
      </g>
     </g>
    </g>
    <g id="xtick_4">
     <g id="line2d_4">
      <path clip-path="url(#pba67625b32)" d="M 194.558538 307.584 
L 194.558538 41.472 
" style="fill:none;stroke:#cccccc;stroke-linecap:round;stroke-width:0.8;"/>
     </g>
     <g id="text_4">
      <!-- 75 -->
      <g style="fill:#262626;" transform="translate(188.196038 322.182437)scale(0.1 -0.1)">
       <defs>
        <path d="M 525 4666 
L 3525 4666 
L 3525 4397 
L 1831 0 
L 1172 0 
L 2766 4134 
L 525 4134 
L 525 4666 
z
" id="DejaVuSans-37" transform="scale(0.015625)"/>
       </defs>
       <use xlink:href="#DejaVuSans-37"/>
       <use x="63.623047" xlink:href="#DejaVuSans-35"/>
      </g>
     </g>
    </g>
    <g id="xtick_5">
     <g id="line2d_5">
      <path clip-path="url(#pba67625b32)" d="M 235.344285 307.584 
L 235.344285 41.472 
" style="fill:none;stroke:#cccccc;stroke-linecap:round;stroke-width:0.8;"/>
     </g>
     <g id="text_5">
      <!-- 100 -->
      <g style="fill:#262626;" transform="translate(225.800535 322.182437)scale(0.1 -0.1)">
       <defs>
        <path d="M 794 531 
L 1825 531 
L 1825 4091 
L 703 3866 
L 703 4441 
L 1819 4666 
L 2450 4666 
L 2450 531 
L 3481 531 
L 3481 0 
L 794 0 
L 794 531 
z
" id="DejaVuSans-31" transform="scale(0.015625)"/>
       </defs>
       <use xlink:href="#DejaVuSans-31"/>
       <use x="63.623047" xlink:href="#DejaVuSans-30"/>
       <use x="127.246094" xlink:href="#DejaVuSans-30"/>
      </g>
     </g>
    </g>
    <g id="xtick_6">
     <g id="line2d_6">
      <path clip-path="url(#pba67625b32)" d="M 276.130032 307.584 
L 276.130032 41.472 
" style="fill:none;stroke:#cccccc;stroke-linecap:round;stroke-width:0.8;"/>
     </g>
     <g id="text_6">
      <!-- 125 -->
      <g style="fill:#262626;" transform="translate(266.586282 322.182437)scale(0.1 -0.1)">
       <use xlink:href="#DejaVuSans-31"/>
       <use x="63.623047" xlink:href="#DejaVuSans-32"/>
       <use x="127.246094" xlink:href="#DejaVuSans-35"/>
      </g>
     </g>
    </g>
    <g id="xtick_7">
     <g id="line2d_7">
      <path clip-path="url(#pba67625b32)" d="M 316.915779 307.584 
L 316.915779 41.472 
" style="fill:none;stroke:#cccccc;stroke-linecap:round;stroke-width:0.8;"/>
     </g>
     <g id="text_7">
      <!-- 150 -->
      <g style="fill:#262626;" transform="translate(307.372029 322.182437)scale(0.1 -0.1)">
       <use xlink:href="#DejaVuSans-31"/>
       <use x="63.623047" xlink:href="#DejaVuSans-35"/>
       <use x="127.246094" xlink:href="#DejaVuSans-30"/>
      </g>
     </g>
    </g>
    <g id="xtick_8">
     <g id="line2d_8">
      <path clip-path="url(#pba67625b32)" d="M 357.701526 307.584 
L 357.701526 41.472 
" style="fill:none;stroke:#cccccc;stroke-linecap:round;stroke-width:0.8;"/>
     </g>
     <g id="text_8">
      <!-- 175 -->
      <g style="fill:#262626;" transform="translate(348.157776 322.182437)scale(0.1 -0.1)">
       <use xlink:href="#DejaVuSans-31"/>
       <use x="63.623047" xlink:href="#DejaVuSans-37"/>
       <use x="127.246094" xlink:href="#DejaVuSans-35"/>
      </g>
     </g>
    </g>
    <g id="xtick_9">
     <g id="line2d_9">
      <path clip-path="url(#pba67625b32)" d="M 398.487273 307.584 
L 398.487273 41.472 
" style="fill:none;stroke:#cccccc;stroke-linecap:round;stroke-width:0.8;"/>
     </g>
     <g id="text_9">
      <!-- 200 -->
      <g style="fill:#262626;" transform="translate(388.943523 322.182437)scale(0.1 -0.1)">
       <use xlink:href="#DejaVuSans-32"/>
       <use x="63.623047" xlink:href="#DejaVuSans-30"/>
       <use x="127.246094" xlink:href="#DejaVuSans-30"/>
      </g>
     </g>
    </g>
    <g id="text_10">
     <!-- Auroc -->
     <g style="fill:#262626;" transform="translate(221.819375 335.860562)scale(0.1 -0.1)">
      <defs>
       <path d="M 2188 4044 
L 1331 1722 
L 3047 1722 
L 2188 4044 
z
M 1831 4666 
L 2547 4666 
L 4325 0 
L 3669 0 
L 3244 1197 
L 1141 1197 
L 716 0 
L 50 0 
L 1831 4666 
z
" id="DejaVuSans-41" transform="scale(0.015625)"/>
       <path d="M 544 1381 
L 544 3500 
L 1119 3500 
L 1119 1403 
Q 1119 906 1312 657 
Q 1506 409 1894 409 
Q 2359 409 2629 706 
Q 2900 1003 2900 1516 
L 2900 3500 
L 3475 3500 
L 3475 0 
L 2900 0 
L 2900 538 
Q 2691 219 2414 64 
Q 2138 -91 1772 -91 
Q 1169 -91 856 284 
Q 544 659 544 1381 
z
M 1991 3584 
L 1991 3584 
z
" id="DejaVuSans-75" transform="scale(0.015625)"/>
       <path d="M 2631 2963 
Q 2534 3019 2420 3045 
Q 2306 3072 2169 3072 
Q 1681 3072 1420 2755 
Q 1159 2438 1159 1844 
L 1159 0 
L 581 0 
L 581 3500 
L 1159 3500 
L 1159 2956 
Q 1341 3275 1631 3429 
Q 1922 3584 2338 3584 
Q 2397 3584 2469 3576 
Q 2541 3569 2628 3553 
L 2631 2963 
z
" id="DejaVuSans-72" transform="scale(0.015625)"/>
       <path d="M 1959 3097 
Q 1497 3097 1228 2736 
Q 959 2375 959 1747 
Q 959 1119 1226 758 
Q 1494 397 1959 397 
Q 2419 397 2687 759 
Q 2956 1122 2956 1747 
Q 2956 2369 2687 2733 
Q 2419 3097 1959 3097 
z
M 1959 3584 
Q 2709 3584 3137 3096 
Q 3566 2609 3566 1747 
Q 3566 888 3137 398 
Q 2709 -91 1959 -91 
Q 1206 -91 779 398 
Q 353 888 353 1747 
Q 353 2609 779 3096 
Q 1206 3584 1959 3584 
z
" id="DejaVuSans-6f" transform="scale(0.015625)"/>
       <path d="M 3122 3366 
L 3122 2828 
Q 2878 2963 2633 3030 
Q 2388 3097 2138 3097 
Q 1578 3097 1268 2742 
Q 959 2388 959 1747 
Q 959 1106 1268 751 
Q 1578 397 2138 397 
Q 2388 397 2633 464 
Q 2878 531 3122 666 
L 3122 134 
Q 2881 22 2623 -34 
Q 2366 -91 2075 -91 
Q 1284 -91 818 406 
Q 353 903 353 1747 
Q 353 2603 823 3093 
Q 1294 3584 2113 3584 
Q 2378 3584 2631 3529 
Q 2884 3475 3122 3366 
z
" id="DejaVuSans-63" transform="scale(0.015625)"/>
      </defs>
      <use xlink:href="#DejaVuSans-41"/>
      <use x="68.408203" xlink:href="#DejaVuSans-75"/>
      <use x="131.787109" xlink:href="#DejaVuSans-72"/>
      <use x="170.650391" xlink:href="#DejaVuSans-6f"/>
      <use x="231.832031" xlink:href="#DejaVuSans-63"/>
     </g>
    </g>
   </g>
   <g id="matplotlib.axis_2">
    <g id="ytick_1">
     <g id="line2d_10">
      <path clip-path="url(#pba67625b32)" d="M 57.6 288.649105 
L 414.72 288.649105 
" style="fill:none;stroke:#cccccc;stroke-linecap:round;stroke-width:0.8;"/>
     </g>
     <g id="text_11">
      <!-- 0.550 -->
      <g style="fill:#262626;" transform="translate(21.971875 292.448324)scale(0.1 -0.1)">
       <defs>
        <path d="M 684 794 
L 1344 794 
L 1344 0 
L 684 0 
L 684 794 
z
" id="DejaVuSans-2e" transform="scale(0.015625)"/>
       </defs>
       <use xlink:href="#DejaVuSans-30"/>
       <use x="63.623047" xlink:href="#DejaVuSans-2e"/>
       <use x="95.410156" xlink:href="#DejaVuSans-35"/>
       <use x="159.033203" xlink:href="#DejaVuSans-35"/>
       <use x="222.65625" xlink:href="#DejaVuSans-30"/>
      </g>
     </g>
    </g>
    <g id="ytick_2">
     <g id="line2d_11">
      <path clip-path="url(#pba67625b32)" d="M 57.6 258.413809 
L 414.72 258.413809 
" style="fill:none;stroke:#cccccc;stroke-linecap:round;stroke-width:0.8;"/>
     </g>
     <g id="text_12">
      <!-- 0.575 -->
      <g style="fill:#262626;" transform="translate(21.971875 262.213028)scale(0.1 -0.1)">
       <use xlink:href="#DejaVuSans-30"/>
       <use x="63.623047" xlink:href="#DejaVuSans-2e"/>
       <use x="95.410156" xlink:href="#DejaVuSans-35"/>
       <use x="159.033203" xlink:href="#DejaVuSans-37"/>
       <use x="222.65625" xlink:href="#DejaVuSans-35"/>
      </g>
     </g>
    </g>
    <g id="ytick_3">
     <g id="line2d_12">
      <path clip-path="url(#pba67625b32)" d="M 57.6 228.178513 
L 414.72 228.178513 
" style="fill:none;stroke:#cccccc;stroke-linecap:round;stroke-width:0.8;"/>
     </g>
     <g id="text_13">
      <!-- 0.600 -->
      <g style="fill:#262626;" transform="translate(21.971875 231.977732)scale(0.1 -0.1)">
       <defs>
        <path d="M 2113 2584 
Q 1688 2584 1439 2293 
Q 1191 2003 1191 1497 
Q 1191 994 1439 701 
Q 1688 409 2113 409 
Q 2538 409 2786 701 
Q 3034 994 3034 1497 
Q 3034 2003 2786 2293 
Q 2538 2584 2113 2584 
z
M 3366 4563 
L 3366 3988 
Q 3128 4100 2886 4159 
Q 2644 4219 2406 4219 
Q 1781 4219 1451 3797 
Q 1122 3375 1075 2522 
Q 1259 2794 1537 2939 
Q 1816 3084 2150 3084 
Q 2853 3084 3261 2657 
Q 3669 2231 3669 1497 
Q 3669 778 3244 343 
Q 2819 -91 2113 -91 
Q 1303 -91 875 529 
Q 447 1150 447 2328 
Q 447 3434 972 4092 
Q 1497 4750 2381 4750 
Q 2619 4750 2861 4703 
Q 3103 4656 3366 4563 
z
" id="DejaVuSans-36" transform="scale(0.015625)"/>
       </defs>
       <use xlink:href="#DejaVuSans-30"/>
       <use x="63.623047" xlink:href="#DejaVuSans-2e"/>
       <use x="95.410156" xlink:href="#DejaVuSans-36"/>
       <use x="159.033203" xlink:href="#DejaVuSans-30"/>
       <use x="222.65625" xlink:href="#DejaVuSans-30"/>
      </g>
     </g>
    </g>
    <g id="ytick_4">
     <g id="line2d_13">
      <path clip-path="url(#pba67625b32)" d="M 57.6 197.943217 
L 414.72 197.943217 
" style="fill:none;stroke:#cccccc;stroke-linecap:round;stroke-width:0.8;"/>
     </g>
     <g id="text_14">
      <!-- 0.625 -->
      <g style="fill:#262626;" transform="translate(21.971875 201.742436)scale(0.1 -0.1)">
       <use xlink:href="#DejaVuSans-30"/>
       <use x="63.623047" xlink:href="#DejaVuSans-2e"/>
       <use x="95.410156" xlink:href="#DejaVuSans-36"/>
       <use x="159.033203" xlink:href="#DejaVuSans-32"/>
       <use x="222.65625" xlink:href="#DejaVuSans-35"/>
      </g>
     </g>
    </g>
    <g id="ytick_5">
     <g id="line2d_14">
      <path clip-path="url(#pba67625b32)" d="M 57.6 167.707921 
L 414.72 167.707921 
" style="fill:none;stroke:#cccccc;stroke-linecap:round;stroke-width:0.8;"/>
     </g>
     <g id="text_15">
      <!-- 0.650 -->
      <g style="fill:#262626;" transform="translate(21.971875 171.507139)scale(0.1 -0.1)">
       <use xlink:href="#DejaVuSans-30"/>
       <use x="63.623047" xlink:href="#DejaVuSans-2e"/>
       <use x="95.410156" xlink:href="#DejaVuSans-36"/>
       <use x="159.033203" xlink:href="#DejaVuSans-35"/>
       <use x="222.65625" xlink:href="#DejaVuSans-30"/>
      </g>
     </g>
    </g>
    <g id="ytick_6">
     <g id="line2d_15">
      <path clip-path="url(#pba67625b32)" d="M 57.6 137.472624 
L 414.72 137.472624 
" style="fill:none;stroke:#cccccc;stroke-linecap:round;stroke-width:0.8;"/>
     </g>
     <g id="text_16">
      <!-- 0.675 -->
      <g style="fill:#262626;" transform="translate(21.971875 141.271843)scale(0.1 -0.1)">
       <use xlink:href="#DejaVuSans-30"/>
       <use x="63.623047" xlink:href="#DejaVuSans-2e"/>
       <use x="95.410156" xlink:href="#DejaVuSans-36"/>
       <use x="159.033203" xlink:href="#DejaVuSans-37"/>
       <use x="222.65625" xlink:href="#DejaVuSans-35"/>
      </g>
     </g>
    </g>
    <g id="ytick_7">
     <g id="line2d_16">
      <path clip-path="url(#pba67625b32)" d="M 57.6 107.237328 
L 414.72 107.237328 
" style="fill:none;stroke:#cccccc;stroke-linecap:round;stroke-width:0.8;"/>
     </g>
     <g id="text_17">
      <!-- 0.700 -->
      <g style="fill:#262626;" transform="translate(21.971875 111.036547)scale(0.1 -0.1)">
       <use xlink:href="#DejaVuSans-30"/>
       <use x="63.623047" xlink:href="#DejaVuSans-2e"/>
       <use x="95.410156" xlink:href="#DejaVuSans-37"/>
       <use x="159.033203" xlink:href="#DejaVuSans-30"/>
       <use x="222.65625" xlink:href="#DejaVuSans-30"/>
      </g>
     </g>
    </g>
    <g id="ytick_8">
     <g id="line2d_17">
      <path clip-path="url(#pba67625b32)" d="M 57.6 77.002032 
L 414.72 77.002032 
" style="fill:none;stroke:#cccccc;stroke-linecap:round;stroke-width:0.8;"/>
     </g>
     <g id="text_18">
      <!-- 0.725 -->
      <g style="fill:#262626;" transform="translate(21.971875 80.801251)scale(0.1 -0.1)">
       <use xlink:href="#DejaVuSans-30"/>
       <use x="63.623047" xlink:href="#DejaVuSans-2e"/>
       <use x="95.410156" xlink:href="#DejaVuSans-37"/>
       <use x="159.033203" xlink:href="#DejaVuSans-32"/>
       <use x="222.65625" xlink:href="#DejaVuSans-35"/>
      </g>
     </g>
    </g>
    <g id="ytick_9">
     <g id="line2d_18">
      <path clip-path="url(#pba67625b32)" d="M 57.6 46.766736 
L 414.72 46.766736 
" style="fill:none;stroke:#cccccc;stroke-linecap:round;stroke-width:0.8;"/>
     </g>
     <g id="text_19">
      <!-- 0.750 -->
      <g style="fill:#262626;" transform="translate(21.971875 50.565955)scale(0.1 -0.1)">
       <use xlink:href="#DejaVuSans-30"/>
       <use x="63.623047" xlink:href="#DejaVuSans-2e"/>
       <use x="95.410156" xlink:href="#DejaVuSans-37"/>
       <use x="159.033203" xlink:href="#DejaVuSans-35"/>
       <use x="222.65625" xlink:href="#DejaVuSans-30"/>
      </g>
     </g>
    </g>
    <g id="text_20">
     <!-- Iteration -->
     <g style="fill:#262626;" transform="translate(15.892187 195.736594)rotate(-90)scale(0.1 -0.1)">
      <defs>
       <path d="M 628 4666 
L 1259 4666 
L 1259 0 
L 628 0 
L 628 4666 
z
" id="DejaVuSans-49" transform="scale(0.015625)"/>
       <path d="M 1172 4494 
L 1172 3500 
L 2356 3500 
L 2356 3053 
L 1172 3053 
L 1172 1153 
Q 1172 725 1289 603 
Q 1406 481 1766 481 
L 2356 481 
L 2356 0 
L 1766 0 
Q 1100 0 847 248 
Q 594 497 594 1153 
L 594 3053 
L 172 3053 
L 172 3500 
L 594 3500 
L 594 4494 
L 1172 4494 
z
" id="DejaVuSans-74" transform="scale(0.015625)"/>
       <path d="M 3597 1894 
L 3597 1613 
L 953 1613 
Q 991 1019 1311 708 
Q 1631 397 2203 397 
Q 2534 397 2845 478 
Q 3156 559 3463 722 
L 3463 178 
Q 3153 47 2828 -22 
Q 2503 -91 2169 -91 
Q 1331 -91 842 396 
Q 353 884 353 1716 
Q 353 2575 817 3079 
Q 1281 3584 2069 3584 
Q 2775 3584 3186 3129 
Q 3597 2675 3597 1894 
z
M 3022 2063 
Q 3016 2534 2758 2815 
Q 2500 3097 2075 3097 
Q 1594 3097 1305 2825 
Q 1016 2553 972 2059 
L 3022 2063 
z
" id="DejaVuSans-65" transform="scale(0.015625)"/>
       <path d="M 2194 1759 
Q 1497 1759 1228 1600 
Q 959 1441 959 1056 
Q 959 750 1161 570 
Q 1363 391 1709 391 
Q 2188 391 2477 730 
Q 2766 1069 2766 1631 
L 2766 1759 
L 2194 1759 
z
M 3341 1997 
L 3341 0 
L 2766 0 
L 2766 531 
Q 2569 213 2275 61 
Q 1981 -91 1556 -91 
Q 1019 -91 701 211 
Q 384 513 384 1019 
Q 384 1609 779 1909 
Q 1175 2209 1959 2209 
L 2766 2209 
L 2766 2266 
Q 2766 2663 2505 2880 
Q 2244 3097 1772 3097 
Q 1472 3097 1187 3025 
Q 903 2953 641 2809 
L 641 3341 
Q 956 3463 1253 3523 
Q 1550 3584 1831 3584 
Q 2591 3584 2966 3190 
Q 3341 2797 3341 1997 
z
" id="DejaVuSans-61" transform="scale(0.015625)"/>
       <path d="M 603 3500 
L 1178 3500 
L 1178 0 
L 603 0 
L 603 3500 
z
M 603 4863 
L 1178 4863 
L 1178 4134 
L 603 4134 
L 603 4863 
z
" id="DejaVuSans-69" transform="scale(0.015625)"/>
       <path d="M 3513 2113 
L 3513 0 
L 2938 0 
L 2938 2094 
Q 2938 2591 2744 2837 
Q 2550 3084 2163 3084 
Q 1697 3084 1428 2787 
Q 1159 2491 1159 1978 
L 1159 0 
L 581 0 
L 581 3500 
L 1159 3500 
L 1159 2956 
Q 1366 3272 1645 3428 
Q 1925 3584 2291 3584 
Q 2894 3584 3203 3211 
Q 3513 2838 3513 2113 
z
" id="DejaVuSans-6e" transform="scale(0.015625)"/>
      </defs>
      <use xlink:href="#DejaVuSans-49"/>
      <use x="29.492188" xlink:href="#DejaVuSans-74"/>
      <use x="68.701172" xlink:href="#DejaVuSans-65"/>
      <use x="130.224609" xlink:href="#DejaVuSans-72"/>
      <use x="171.337891" xlink:href="#DejaVuSans-61"/>
      <use x="232.617188" xlink:href="#DejaVuSans-74"/>
      <use x="271.826172" xlink:href="#DejaVuSans-69"/>
      <use x="299.609375" xlink:href="#DejaVuSans-6f"/>
      <use x="360.791016" xlink:href="#DejaVuSans-6e"/>
     </g>
    </g>
   </g>
   <g id="PolyCollection_1">
    <defs>
     <path d="M 73.832727 -186.590453 
L 73.832727 -106.506371 
L 75.464157 -126.73948 
L 77.095587 -95.655437 
L 78.727017 -115.627033 
L 80.358447 -120.202928 
L 81.989877 -138.747926 
L 83.621307 -132.087875 
L 85.252736 -101.519938 
L 86.884166 -116.345634 
L 88.515596 -102.987914 
L 90.147026 -93.704901 
L 91.778456 -166.898794 
L 93.409886 -134.584076 
L 95.041316 -145.850049 
L 96.672746 -144.693812 
L 98.304175 -127.312182 
L 99.935605 -145.500322 
L 101.567035 -77.177276 
L 103.198465 -164.247321 
L 104.829895 -139.381311 
L 106.461325 -132.811425 
L 108.092755 -126.680785 
L 109.724185 -139.95808 
L 111.355614 -156.233122 
L 112.987044 -108.275763 
L 114.618474 -119.332907 
L 116.249904 -106.058905 
L 117.881334 -155.51215 
L 119.512764 -157.357684 
L 121.144194 -71.057288 
L 122.775624 -172.76178 
L 124.407053 -157.382088 
L 126.038483 -123.982247 
L 127.669913 -177.311451 
L 129.301343 -118.384275 
L 130.932773 -159.362291 
L 132.564203 -137.270959 
L 134.195633 -66.69654 
L 135.827063 -150.828391 
L 137.458492 -142.433809 
L 139.089922 -142.166201 
L 140.721352 -114.292709 
L 142.352782 -114.203934 
L 143.984212 -93.651587 
L 145.615642 -115.542357 
L 147.247072 -147.525165 
L 148.878502 -104.97505 
L 150.509931 -130.854169 
L 152.141361 -131.704431 
L 153.772791 -129.289048 
L 155.404221 -113.312835 
L 157.035651 -169.09983 
L 158.667081 -167.103671 
L 160.298511 -157.157875 
L 161.929941 -122.346435 
L 163.56137 -90.592771 
L 165.1928 -131.83602 
L 166.82423 -130.553899 
L 168.45566 -140.230703 
L 170.08709 -136.333679 
L 171.71852 -84.375841 
L 173.34995 -116.935238 
L 174.98138 -113.35821 
L 176.61281 -124.44907 
L 178.244239 -117.014408 
L 179.875669 -131.985289 
L 181.507099 -118.638664 
L 183.138529 -118.142968 
L 184.769959 -103.96199 
L 186.401389 -73.793483 
L 188.032819 -168.187063 
L 189.664249 -100.067836 
L 191.295678 -128.656677 
L 192.927108 -131.986041 
L 194.558538 -97.173042 
L 196.189968 -131.6025 
L 197.821398 -129.983707 
L 199.452828 -109.273041 
L 201.084258 -120.39657 
L 202.715688 -71.567272 
L 204.347117 -151.071751 
L 205.978547 -69.081682 
L 207.609977 -179.01313 
L 209.241407 -165.282962 
L 210.872837 -183.545899 
L 212.504267 -117.64908 
L 214.135697 -169.077585 
L 215.767127 -91.460691 
L 217.398556 -109.794371 
L 219.029986 -137.288455 
L 220.661416 -107.313897 
L 222.292846 -143.003552 
L 223.924276 -109.538928 
L 225.555706 -148.271991 
L 227.187136 -143.955486 
L 228.818566 -157.314744 
L 230.449995 -175.847019 
L 232.081425 -128.026527 
L 233.712855 -140.304263 
L 235.344285 -123.350356 
L 236.975715 -109.469661 
L 238.607145 -146.485946 
L 240.238575 -117.180943 
L 241.870005 -108.378253 
L 243.501434 -77.338124 
L 245.132864 -151.000361 
L 246.764294 -102.518249 
L 248.395724 -117.50237 
L 250.027154 -91.105635 
L 251.658584 -141.430745 
L 253.290014 -108.769275 
L 254.921444 -124.239794 
L 256.552873 -113.470453 
L 258.184303 -100.393822 
L 259.815733 -134.531274 
L 261.447163 -85.789114 
L 263.078593 -96.212187 
L 264.710023 -138.731932 
L 266.341453 -160.625382 
L 267.972883 -92.493389 
L 269.604312 -116.985456 
L 271.235742 -151.214462 
L 272.867172 -130.151338 
L 274.498602 -112.515882 
L 276.130032 -102.368364 
L 277.761462 -142.327638 
L 279.392892 -133.576652 
L 281.024322 -72.967324 
L 282.655751 -135.828263 
L 284.287181 -179.271537 
L 285.918611 -126.394307 
L 287.550041 -141.534612 
L 289.181471 -113.865328 
L 290.812901 -111.875172 
L 292.444331 -111.562396 
L 294.075761 -113.598041 
L 295.70719 -140.743348 
L 297.33862 -171.423377 
L 298.97005 -112.005459 
L 300.60148 -141.766345 
L 302.23291 -138.84232 
L 303.86434 -96.858704 
L 305.49577 -133.357621 
L 307.1272 -144.952192 
L 308.75863 -171.290658 
L 310.390059 -148.458521 
L 312.021489 -117.80772 
L 313.652919 -135.71937 
L 315.284349 -124.461788 
L 316.915779 -84.427429 
L 318.547209 -129.837435 
L 320.178639 -122.990406 
L 321.810069 -120.060733 
L 323.441498 -96.639946 
L 325.072928 -163.631947 
L 326.704358 -126.545205 
L 328.335788 -90.184183 
L 329.967218 -58.461549 
L 331.598648 -130.285504 
L 333.230078 -187.484061 
L 334.861508 -119.770614 
L 336.492937 -160.159496 
L 338.124367 -89.360039 
L 339.755797 -163.678535 
L 341.387227 -130.169149 
L 343.018657 -97.955425 
L 344.650087 -126.426261 
L 346.281517 -144.160618 
L 347.912947 -141.469308 
L 349.544376 -145.906167 
L 351.175806 -146.528974 
L 352.807236 -88.213747 
L 354.438666 -154.823061 
L 356.070096 -157.7544 
L 357.701526 -150.29113 
L 359.332956 -109.950802 
L 360.964386 -112.728456 
L 362.595815 -143.757969 
L 364.227245 -118.941127 
L 365.858675 -121.549285 
L 367.490105 -82.32385 
L 369.121535 -134.676497 
L 370.752965 -178.39112 
L 372.384395 -129.484475 
L 374.015825 -103.845109 
L 375.647254 -143.872693 
L 377.278684 -127.127752 
L 378.910114 -111.817803 
L 380.541544 -159.418704 
L 382.172974 -114.692934 
L 383.804404 -102.712264 
L 385.435834 -118.369431 
L 387.067264 -146.427143 
L 388.698693 -151.619764 
L 390.330123 -168.0981 
L 391.961553 -154.622942 
L 393.592983 -88.190821 
L 395.224413 -84.936125 
L 396.855843 -50.112 
L 398.487273 -165.808688 
L 398.487273 -201.511378 
L 398.487273 -201.511378 
L 396.855843 -206.493446 
L 395.224413 -176.854791 
L 393.592983 -232.375592 
L 391.961553 -200.145984 
L 390.330123 -216.109672 
L 388.698693 -237.796084 
L 387.067264 -192.938398 
L 385.435834 -203.76875 
L 383.804404 -196.832514 
L 382.172974 -221.625477 
L 380.541544 -221.369171 
L 378.910114 -246.967717 
L 377.278684 -238.165735 
L 375.647254 -253.812862 
L 374.015825 -249.900671 
L 372.384395 -233.363417 
L 370.752965 -239.668523 
L 369.121535 -231.11977 
L 367.490105 -214.944215 
L 365.858675 -208.361698 
L 364.227245 -203.846439 
L 362.595815 -262.288872 
L 360.964386 -193.142892 
L 359.332956 -253.779567 
L 357.701526 -170.930659 
L 356.070096 -239.097298 
L 354.438666 -203.383734 
L 352.807236 -213.023541 
L 351.175806 -237.190755 
L 349.544376 -263.342504 
L 347.912947 -225.147062 
L 346.281517 -216.731655 
L 344.650087 -215.684206 
L 343.018657 -240.070436 
L 341.387227 -236.64266 
L 339.755797 -260.862507 
L 338.124367 -230.17379 
L 336.492937 -256.26986 
L 334.861508 -249.373928 
L 333.230078 -232.793103 
L 331.598648 -201.048056 
L 329.967218 -192.787517 
L 328.335788 -236.79281 
L 326.704358 -203.952704 
L 325.072928 -245.109546 
L 323.441498 -202.561131 
L 321.810069 -271.651349 
L 320.178639 -224.68841 
L 318.547209 -292.032 
L 316.915779 -230.981547 
L 315.284349 -252.304827 
L 313.652919 -228.12793 
L 312.021489 -189.694812 
L 310.390059 -247.382973 
L 308.75863 -241.691411 
L 307.1272 -180.053153 
L 305.49577 -219.366829 
L 303.86434 -216.202321 
L 302.23291 -222.747915 
L 300.60148 -262.176947 
L 298.97005 -280.499816 
L 297.33862 -288.558474 
L 295.70719 -252.75639 
L 294.075761 -242.305024 
L 292.444331 -201.775012 
L 290.812901 -231.427834 
L 289.181471 -244.035088 
L 287.550041 -259.213407 
L 285.918611 -247.908389 
L 284.287181 -244.18106 
L 282.655751 -263.538815 
L 281.024322 -205.681975 
L 279.392892 -195.574807 
L 277.761462 -216.567102 
L 276.130032 -200.840594 
L 274.498602 -241.207804 
L 272.867172 -232.630529 
L 271.235742 -252.728435 
L 269.604312 -257.648243 
L 267.972883 -238.794158 
L 266.341453 -250.916458 
L 264.710023 -215.573544 
L 263.078593 -224.043107 
L 261.447163 -230.924259 
L 259.815733 -238.619749 
L 258.184303 -218.379864 
L 256.552873 -241.743844 
L 254.921444 -247.665232 
L 253.290014 -201.642995 
L 251.658584 -230.795674 
L 250.027154 -217.973683 
L 248.395724 -256.137593 
L 246.764294 -178.226345 
L 245.132864 -220.597614 
L 243.501434 -229.043415 
L 241.870005 -209.146531 
L 240.238575 -209.172432 
L 238.607145 -225.308461 
L 236.975715 -196.683698 
L 235.344285 -248.665845 
L 233.712855 -217.592555 
L 232.081425 -235.285178 
L 230.449995 -245.551459 
L 228.818566 -233.345424 
L 227.187136 -288.978109 
L 225.555706 -241.097513 
L 223.924276 -170.374809 
L 222.292846 -207.203447 
L 220.661416 -235.802319 
L 219.029986 -210.669723 
L 217.398556 -261.189212 
L 215.767127 -189.200386 
L 214.135697 -217.477891 
L 212.504267 -207.777577 
L 210.872837 -248.203752 
L 209.241407 -219.998764 
L 207.609977 -213.612974 
L 205.978547 -194.289897 
L 204.347117 -226.57308 
L 202.715688 -199.691315 
L 201.084258 -202.901848 
L 199.452828 -190.143284 
L 197.821398 -215.58464 
L 196.189968 -229.942105 
L 194.558538 -227.900486 
L 192.927108 -216.602707 
L 191.295678 -265.410446 
L 189.664249 -241.48144 
L 188.032819 -236.872214 
L 186.401389 -222.720739 
L 184.769959 -228.152686 
L 183.138529 -225.473593 
L 181.507099 -243.253262 
L 179.875669 -258.516954 
L 178.244239 -220.909793 
L 176.61281 -239.657686 
L 174.98138 -254.168124 
L 173.34995 -208.784791 
L 171.71852 -258.014895 
L 170.08709 -206.06907 
L 168.45566 -206.194908 
L 166.82423 -235.431324 
L 165.1928 -244.799152 
L 163.56137 -241.70989 
L 161.929941 -245.12626 
L 160.298511 -272.270331 
L 158.667081 -215.25657 
L 157.035651 -275.079546 
L 155.404221 -189.822696 
L 153.772791 -215.98645 
L 152.141361 -253.792831 
L 150.509931 -252.294652 
L 148.878502 -192.389475 
L 147.247072 -256.823902 
L 145.615642 -206.661786 
L 143.984212 -223.320645 
L 142.352782 -207.983967 
L 140.721352 -264.523016 
L 139.089922 -268.739869 
L 137.458492 -238.286343 
L 135.827063 -250.199011 
L 134.195633 -259.551 
L 132.564203 -243.248499 
L 130.932773 -213.114583 
L 129.301343 -275.481417 
L 127.669913 -235.652422 
L 126.038483 -202.269852 
L 124.407053 -238.081748 
L 122.775624 -228.618762 
L 121.144194 -205.776707 
L 119.512764 -206.102464 
L 117.881334 -256.746468 
L 116.249904 -194.8798 
L 114.618474 -210.339762 
L 112.987044 -222.175534 
L 111.355614 -214.888193 
L 109.724185 -246.329493 
L 108.092755 -208.274763 
L 106.461325 -228.922778 
L 104.829895 -238.125574 
L 103.198465 -261.617671 
L 101.567035 -245.920567 
L 99.935605 -210.524254 
L 98.304175 -213.030405 
L 96.672746 -279.258243 
L 95.041316 -233.803869 
L 93.409886 -220.708997 
L 91.778456 -206.960507 
L 90.147026 -234.604521 
L 88.515596 -202.470238 
L 86.884166 -216.913614 
L 85.252736 -187.295677 
L 83.621307 -273.638962 
L 81.989877 -212.658938 
L 80.358447 -222.330548 
L 78.727017 -237.564796 
L 77.095587 -260.996323 
L 75.464157 -246.861442 
L 73.832727 -186.590453 
z
" id="m024c2d57a7" style="stroke:#ffffff;stroke-opacity:0.2;"/>
    </defs>
    <g clip-path="url(#pba67625b32)">
     <use style="fill:#1f77b4;fill-opacity:0.2;stroke:#ffffff;stroke-opacity:0.2;" x="0" xlink:href="#m024c2d57a7" y="345.6"/>
    </g>
   </g>
   <g id="LineCollection_1">
    <path clip-path="url(#pba67625b32)" d="M 398.487273 295.488 
L 398.487273 53.568 
" style="fill:none;stroke:#1f77b4;stroke-dasharray:5.55,2.4;stroke-dashoffset:0;stroke-width:1.5;"/>
   </g>
   <g id="line2d_19">
    <path clip-path="url(#pba67625b32)" d="M 73.832727 199.051588 
L 75.464157 158.799539 
L 77.095587 167.27412 
L 78.727017 169.004085 
L 80.358447 174.333262 
L 81.989877 169.896568 
L 83.621307 142.736582 
L 85.252736 201.192192 
L 86.884166 178.970376 
L 88.515596 192.870924 
L 90.147026 181.445289 
L 91.778456 158.67035 
L 93.409886 167.953464 
L 95.041316 155.773041 
L 96.672746 133.623973 
L 98.304175 175.428707 
L 99.935605 167.587712 
L 101.567035 184.051079 
L 103.198465 132.667504 
L 104.829895 156.846557 
L 106.461325 164.732898 
L 108.092755 178.122226 
L 109.724185 152.456214 
L 111.355614 160.039342 
L 112.987044 180.374352 
L 114.618474 180.763665 
L 116.249904 195.130648 
L 117.881334 139.470691 
L 119.512764 163.869926 
L 121.144194 207.183002 
L 122.775624 144.909729 
L 124.407053 147.868082 
L 126.038483 182.47395 
L 127.669913 139.118064 
L 129.301343 148.667154 
L 130.932773 159.361563 
L 132.564203 155.340271 
L 134.195633 182.47623 
L 135.827063 145.086299 
L 137.458492 155.239924 
L 139.089922 140.146965 
L 140.721352 156.192137 
L 142.352782 184.50605 
L 143.984212 187.113884 
L 145.615642 184.497929 
L 147.247072 143.425467 
L 148.878502 196.917738 
L 150.509931 154.025589 
L 152.141361 152.851369 
L 155.404221 194.032234 
L 157.035651 123.510312 
L 158.667081 154.41988 
L 160.298511 130.885897 
L 161.929941 161.863653 
L 163.56137 179.448669 
L 165.1928 157.282414 
L 166.82423 162.607388 
L 168.45566 172.387194 
L 170.08709 174.398625 
L 171.71852 174.404632 
L 173.34995 182.739985 
L 174.98138 161.836833 
L 176.61281 163.546622 
L 178.244239 176.637899 
L 179.875669 150.348879 
L 181.507099 164.654037 
L 183.138529 173.791719 
L 184.769959 179.542662 
L 186.401389 197.342889 
L 188.032819 143.070362 
L 189.664249 174.825362 
L 191.295678 148.566439 
L 192.927108 171.305626 
L 194.558538 183.063236 
L 196.189968 164.827697 
L 197.821398 172.815827 
L 199.452828 195.891837 
L 201.084258 183.950791 
L 202.715688 209.970706 
L 204.347117 156.777584 
L 205.978547 213.914211 
L 207.609977 149.286948 
L 209.241407 152.959137 
L 210.872837 129.725174 
L 212.504267 182.886671 
L 214.135697 152.322262 
L 215.767127 205.269462 
L 217.398556 160.108208 
L 219.029986 171.620911 
L 220.661416 174.041892 
L 222.292846 170.4965 
L 223.924276 205.643131 
L 225.555706 150.915248 
L 227.187136 129.133202 
L 228.818566 150.269916 
L 230.449995 134.900761 
L 232.081425 163.944147 
L 233.712855 166.651591 
L 235.344285 159.5919 
L 236.975715 192.523321 
L 238.607145 159.702797 
L 240.238575 182.423312 
L 241.870005 186.837608 
L 243.501434 192.409231 
L 245.132864 159.801013 
L 246.764294 205.227703 
L 248.395724 158.780019 
L 250.027154 191.060341 
L 251.658584 159.48679 
L 253.290014 190.393865 
L 254.921444 159.647487 
L 256.552873 167.992851 
L 258.184303 186.213157 
L 259.815733 159.024489 
L 261.447163 187.243313 
L 263.078593 185.472353 
L 264.710023 168.447262 
L 266.341453 139.82908 
L 267.972883 179.956227 
L 269.604312 158.28315 
L 271.235742 143.628552 
L 272.867172 164.209067 
L 274.498602 168.738157 
L 276.130032 193.995521 
L 277.761462 166.15263 
L 279.392892 181.024271 
L 281.024322 206.275351 
L 282.655751 145.916461 
L 284.287181 133.873702 
L 285.918611 158.448652 
L 287.550041 145.225991 
L 289.181471 166.649792 
L 290.812901 173.948497 
L 292.444331 188.931296 
L 294.075761 167.648468 
L 295.70719 148.850131 
L 297.33862 115.609074 
L 298.97005 149.347362 
L 300.60148 143.628354 
L 302.23291 164.804883 
L 303.86434 189.069487 
L 305.49577 169.237775 
L 307.1272 183.097328 
L 308.75863 139.108965 
L 310.390059 147.679253 
L 312.021489 191.848734 
L 313.652919 163.67635 
L 315.284349 157.216693 
L 316.915779 187.895512 
L 318.547209 134.665282 
L 320.178639 171.760592 
L 321.810069 149.743959 
L 323.441498 195.999461 
L 325.072928 141.229254 
L 326.704358 180.351046 
L 328.335788 182.111504 
L 329.967218 219.975467 
L 331.598648 179.93322 
L 333.230078 135.461418 
L 334.861508 161.027729 
L 336.492937 137.385322 
L 338.124367 185.833086 
L 339.755797 133.329479 
L 341.387227 162.194096 
L 343.018657 176.587069 
L 344.650087 174.544767 
L 346.281517 165.153864 
L 347.912947 162.291815 
L 349.544376 140.975664 
L 351.175806 153.740135 
L 352.807236 194.981356 
L 354.438666 166.496603 
L 356.070096 147.174151 
L 357.701526 184.989105 
L 359.332956 163.734815 
L 360.964386 192.664326 
L 362.595815 142.576579 
L 364.227245 184.206217 
L 365.858675 180.644509 
L 367.490105 196.965968 
L 369.121535 162.701867 
L 370.752965 136.570179 
L 372.384395 164.176054 
L 374.015825 168.72711 
L 375.647254 146.757222 
L 377.278684 162.953256 
L 378.910114 166.20724 
L 380.541544 155.206062 
L 382.172974 177.440794 
L 383.804404 195.827611 
L 385.435834 184.530909 
L 387.067264 175.91723 
L 388.698693 150.892076 
L 390.330123 153.496114 
L 391.961553 168.215537 
L 393.592983 185.316793 
L 395.224413 214.704542 
L 396.855843 217.297277 
L 398.487273 161.939967 
L 398.487273 161.939967 
" style="fill:none;stroke:#1f77b4;stroke-linecap:round;stroke-width:1.5;"/>
   </g>
   <g id="patch_3">
    <path d="M 57.6 307.584 
L 57.6 41.472 
" style="fill:none;stroke:#cccccc;stroke-linecap:square;stroke-linejoin:miter;stroke-width:0.8;"/>
   </g>
   <g id="patch_4">
    <path d="M 414.72 307.584 
L 414.72 41.472 
" style="fill:none;stroke:#cccccc;stroke-linecap:square;stroke-linejoin:miter;stroke-width:0.8;"/>
   </g>
   <g id="patch_5">
    <path d="M 57.6 307.584 
L 414.72 307.584 
" style="fill:none;stroke:#cccccc;stroke-linecap:square;stroke-linejoin:miter;stroke-width:0.8;"/>
   </g>
   <g id="patch_6">
    <path d="M 57.6 41.472 
L 414.72 41.472 
" style="fill:none;stroke:#cccccc;stroke-linecap:square;stroke-linejoin:miter;stroke-width:0.8;"/>
   </g>
   <g id="text_21">
    <!-- Model performance vs. # of iterations -->
    <g style="fill:#262626;" transform="translate(122.314688 35.472)scale(0.12 -0.12)">
     <defs>
      <path d="M 628 4666 
L 1569 4666 
L 2759 1491 
L 3956 4666 
L 4897 4666 
L 4897 0 
L 4281 0 
L 4281 4097 
L 3078 897 
L 2444 897 
L 1241 4097 
L 1241 0 
L 628 0 
L 628 4666 
z
" id="DejaVuSans-4d" transform="scale(0.015625)"/>
      <path d="M 2906 2969 
L 2906 4863 
L 3481 4863 
L 3481 0 
L 2906 0 
L 2906 525 
Q 2725 213 2448 61 
Q 2172 -91 1784 -91 
Q 1150 -91 751 415 
Q 353 922 353 1747 
Q 353 2572 751 3078 
Q 1150 3584 1784 3584 
Q 2172 3584 2448 3432 
Q 2725 3281 2906 2969 
z
M 947 1747 
Q 947 1113 1208 752 
Q 1469 391 1925 391 
Q 2381 391 2643 752 
Q 2906 1113 2906 1747 
Q 2906 2381 2643 2742 
Q 2381 3103 1925 3103 
Q 1469 3103 1208 2742 
Q 947 2381 947 1747 
z
" id="DejaVuSans-64" transform="scale(0.015625)"/>
      <path d="M 603 4863 
L 1178 4863 
L 1178 0 
L 603 0 
L 603 4863 
z
" id="DejaVuSans-6c" transform="scale(0.015625)"/>
      <path id="DejaVuSans-20" transform="scale(0.015625)"/>
      <path d="M 1159 525 
L 1159 -1331 
L 581 -1331 
L 581 3500 
L 1159 3500 
L 1159 2969 
Q 1341 3281 1617 3432 
Q 1894 3584 2278 3584 
Q 2916 3584 3314 3078 
Q 3713 2572 3713 1747 
Q 3713 922 3314 415 
Q 2916 -91 2278 -91 
Q 1894 -91 1617 61 
Q 1341 213 1159 525 
z
M 3116 1747 
Q 3116 2381 2855 2742 
Q 2594 3103 2138 3103 
Q 1681 3103 1420 2742 
Q 1159 2381 1159 1747 
Q 1159 1113 1420 752 
Q 1681 391 2138 391 
Q 2594 391 2855 752 
Q 3116 1113 3116 1747 
z
" id="DejaVuSans-70" transform="scale(0.015625)"/>
      <path d="M 2375 4863 
L 2375 4384 
L 1825 4384 
Q 1516 4384 1395 4259 
Q 1275 4134 1275 3809 
L 1275 3500 
L 2222 3500 
L 2222 3053 
L 1275 3053 
L 1275 0 
L 697 0 
L 697 3053 
L 147 3053 
L 147 3500 
L 697 3500 
L 697 3744 
Q 697 4328 969 4595 
Q 1241 4863 1831 4863 
L 2375 4863 
z
" id="DejaVuSans-66" transform="scale(0.015625)"/>
      <path d="M 3328 2828 
Q 3544 3216 3844 3400 
Q 4144 3584 4550 3584 
Q 5097 3584 5394 3201 
Q 5691 2819 5691 2113 
L 5691 0 
L 5113 0 
L 5113 2094 
Q 5113 2597 4934 2840 
Q 4756 3084 4391 3084 
Q 3944 3084 3684 2787 
Q 3425 2491 3425 1978 
L 3425 0 
L 2847 0 
L 2847 2094 
Q 2847 2600 2669 2842 
Q 2491 3084 2119 3084 
Q 1678 3084 1418 2786 
Q 1159 2488 1159 1978 
L 1159 0 
L 581 0 
L 581 3500 
L 1159 3500 
L 1159 2956 
Q 1356 3278 1631 3431 
Q 1906 3584 2284 3584 
Q 2666 3584 2933 3390 
Q 3200 3197 3328 2828 
z
" id="DejaVuSans-6d" transform="scale(0.015625)"/>
      <path d="M 191 3500 
L 800 3500 
L 1894 563 
L 2988 3500 
L 3597 3500 
L 2284 0 
L 1503 0 
L 191 3500 
z
" id="DejaVuSans-76" transform="scale(0.015625)"/>
      <path d="M 2834 3397 
L 2834 2853 
Q 2591 2978 2328 3040 
Q 2066 3103 1784 3103 
Q 1356 3103 1142 2972 
Q 928 2841 928 2578 
Q 928 2378 1081 2264 
Q 1234 2150 1697 2047 
L 1894 2003 
Q 2506 1872 2764 1633 
Q 3022 1394 3022 966 
Q 3022 478 2636 193 
Q 2250 -91 1575 -91 
Q 1294 -91 989 -36 
Q 684 19 347 128 
L 347 722 
Q 666 556 975 473 
Q 1284 391 1588 391 
Q 1994 391 2212 530 
Q 2431 669 2431 922 
Q 2431 1156 2273 1281 
Q 2116 1406 1581 1522 
L 1381 1569 
Q 847 1681 609 1914 
Q 372 2147 372 2553 
Q 372 3047 722 3315 
Q 1072 3584 1716 3584 
Q 2034 3584 2315 3537 
Q 2597 3491 2834 3397 
z
" id="DejaVuSans-73" transform="scale(0.015625)"/>
      <path d="M 3272 2816 
L 2363 2816 
L 2100 1772 
L 3016 1772 
L 3272 2816 
z
M 2803 4594 
L 2478 3297 
L 3391 3297 
L 3719 4594 
L 4219 4594 
L 3897 3297 
L 4872 3297 
L 4872 2816 
L 3775 2816 
L 3519 1772 
L 4513 1772 
L 4513 1294 
L 3397 1294 
L 3072 0 
L 2572 0 
L 2894 1294 
L 1978 1294 
L 1656 0 
L 1153 0 
L 1478 1294 
L 494 1294 
L 494 1772 
L 1594 1772 
L 1856 2816 
L 850 2816 
L 850 3297 
L 1978 3297 
L 2297 4594 
L 2803 4594 
z
" id="DejaVuSans-23" transform="scale(0.015625)"/>
     </defs>
     <use xlink:href="#DejaVuSans-4d"/>
     <use x="86.279297" xlink:href="#DejaVuSans-6f"/>
     <use x="147.460938" xlink:href="#DejaVuSans-64"/>
     <use x="210.9375" xlink:href="#DejaVuSans-65"/>
     <use x="272.460938" xlink:href="#DejaVuSans-6c"/>
     <use x="300.244141" xlink:href="#DejaVuSans-20"/>
     <use x="332.03125" xlink:href="#DejaVuSans-70"/>
     <use x="395.507812" xlink:href="#DejaVuSans-65"/>
     <use x="457.03125" xlink:href="#DejaVuSans-72"/>
     <use x="498.144531" xlink:href="#DejaVuSans-66"/>
     <use x="533.349609" xlink:href="#DejaVuSans-6f"/>
     <use x="594.53125" xlink:href="#DejaVuSans-72"/>
     <use x="633.894531" xlink:href="#DejaVuSans-6d"/>
     <use x="731.306641" xlink:href="#DejaVuSans-61"/>
     <use x="792.585938" xlink:href="#DejaVuSans-6e"/>
     <use x="855.964844" xlink:href="#DejaVuSans-63"/>
     <use x="910.945312" xlink:href="#DejaVuSans-65"/>
     <use x="972.46875" xlink:href="#DejaVuSans-20"/>
     <use x="1004.255859" xlink:href="#DejaVuSans-76"/>
     <use x="1063.435547" xlink:href="#DejaVuSans-73"/>
     <use x="1115.535156" xlink:href="#DejaVuSans-2e"/>
     <use x="1147.322266" xlink:href="#DejaVuSans-20"/>
     <use x="1179.109375" xlink:href="#DejaVuSans-23"/>
     <use x="1262.898438" xlink:href="#DejaVuSans-20"/>
     <use x="1294.685547" xlink:href="#DejaVuSans-6f"/>
     <use x="1355.867188" xlink:href="#DejaVuSans-66"/>
     <use x="1391.072266" xlink:href="#DejaVuSans-20"/>
     <use x="1422.859375" xlink:href="#DejaVuSans-69"/>
     <use x="1450.642578" xlink:href="#DejaVuSans-74"/>
     <use x="1489.851562" xlink:href="#DejaVuSans-65"/>
     <use x="1551.375" xlink:href="#DejaVuSans-72"/>
     <use x="1592.488281" xlink:href="#DejaVuSans-61"/>
     <use x="1653.767578" xlink:href="#DejaVuSans-74"/>
     <use x="1692.976562" xlink:href="#DejaVuSans-69"/>
     <use x="1720.759766" xlink:href="#DejaVuSans-6f"/>
     <use x="1781.941406" xlink:href="#DejaVuSans-6e"/>
     <use x="1845.320312" xlink:href="#DejaVuSans-73"/>
    </g>
   </g>
  </g>
 </g>
 <defs>
  <clipPath id="pba67625b32">
   <rect height="266.112" width="357.12" x="57.6" y="41.472"/>
  </clipPath>
 </defs>
</svg>
