<?xml version="1.0" encoding="utf-8" standalone="no"?>
<!DOCTYPE svg PUBLIC "-//W3C//DTD SVG 1.1//EN"
  "http://www.w3.org/Graphics/SVG/1.1/DTD/svg11.dtd">
<svg height="345.6pt" version="1.1" viewBox="0 0 460.8 345.6" width="460.8pt" xmlns="http://www.w3.org/2000/svg" xmlns:xlink="http://www.w3.org/1999/xlink">
 <metadata>
  <rdf:RDF xmlns:cc="http://creativecommons.org/ns#" xmlns:dc="http://purl.org/dc/elements/1.1/" xmlns:rdf="http://www.w3.org/1999/02/22-rdf-syntax-ns#">
   <cc:Work>
    <dc:type rdf:resource="http://purl.org/dc/dcmitype/StillImage"/>
    <dc:date>2022-01-15T16:01:35.604276</dc:date>
    <dc:format>image/svg+xml</dc:format>
    <dc:creator>
     <cc:Agent>
      <dc:title>Matplotlib v3.4.3, https://matplotlib.org/</dc:title>
     </cc:Agent>
    </dc:creator>
   </cc:Work>
  </rdf:RDF>
 </metadata>
 <defs>
  <style type="text/css">*{stroke-linecap:butt;stroke-linejoin:round;}</style>
 </defs>
 <g id="figure_1">
  <g id="patch_1">
   <path d="M 0 345.6 
L 460.8 345.6 
L 460.8 0 
L 0 0 
z
" style="fill:#ffffff;"/>
  </g>
  <g id="axes_1">
   <g id="patch_2">
    <path d="M 57.6 307.584 
L 414.72 307.584 
L 414.72 41.472 
L 57.6 41.472 
z
" style="fill:#ffffff;"/>
   </g>
   <g id="matplotlib.axis_1">
    <g id="xtick_1">
     <g id="line2d_1">
      <path clip-path="url(#padcd7f8752)" d="M 72.201297 307.584 
L 72.201297 41.472 
" style="fill:none;stroke:#cccccc;stroke-linecap:round;stroke-width:0.8;"/>
     </g>
     <g id="text_1">
      <!-- 0 -->
      <g style="fill:#262626;" transform="translate(69.020047 322.182437)scale(0.1 -0.1)">
       <defs>
        <path d="M 2034 4250 
Q 1547 4250 1301 3770 
Q 1056 3291 1056 2328 
Q 1056 1369 1301 889 
Q 1547 409 2034 409 
Q 2525 409 2770 889 
Q 3016 1369 3016 2328 
Q 3016 3291 2770 3770 
Q 2525 4250 2034 4250 
z
M 2034 4750 
Q 2819 4750 3233 4129 
Q 3647 3509 3647 2328 
Q 3647 1150 3233 529 
Q 2819 -91 2034 -91 
Q 1250 -91 836 529 
Q 422 1150 422 2328 
Q 422 3509 836 4129 
Q 1250 4750 2034 4750 
z
" id="DejaVuSans-30" transform="scale(0.015625)"/>
       </defs>
       <use xlink:href="#DejaVuSans-30"/>
      </g>
     </g>
    </g>
    <g id="xtick_2">
     <g id="line2d_2">
      <path clip-path="url(#padcd7f8752)" d="M 112.987044 307.584 
L 112.987044 41.472 
" style="fill:none;stroke:#cccccc;stroke-linecap:round;stroke-width:0.8;"/>
     </g>
     <g id="text_2">
      <!-- 25 -->
      <g style="fill:#262626;" transform="translate(106.624544 322.182437)scale(0.1 -0.1)">
       <defs>
        <path d="M 1228 531 
L 3431 531 
L 3431 0 
L 469 0 
L 469 531 
Q 828 903 1448 1529 
Q 2069 2156 2228 2338 
Q 2531 2678 2651 2914 
Q 2772 3150 2772 3378 
Q 2772 3750 2511 3984 
Q 2250 4219 1831 4219 
Q 1534 4219 1204 4116 
Q 875 4013 500 3803 
L 500 4441 
Q 881 4594 1212 4672 
Q 1544 4750 1819 4750 
Q 2544 4750 2975 4387 
Q 3406 4025 3406 3419 
Q 3406 3131 3298 2873 
Q 3191 2616 2906 2266 
Q 2828 2175 2409 1742 
Q 1991 1309 1228 531 
z
" id="DejaVuSans-32" transform="scale(0.015625)"/>
        <path d="M 691 4666 
L 3169 4666 
L 3169 4134 
L 1269 4134 
L 1269 2991 
Q 1406 3038 1543 3061 
Q 1681 3084 1819 3084 
Q 2600 3084 3056 2656 
Q 3513 2228 3513 1497 
Q 3513 744 3044 326 
Q 2575 -91 1722 -91 
Q 1428 -91 1123 -41 
Q 819 9 494 109 
L 494 744 
Q 775 591 1075 516 
Q 1375 441 1709 441 
Q 2250 441 2565 725 
Q 2881 1009 2881 1497 
Q 2881 1984 2565 2268 
Q 2250 2553 1709 2553 
Q 1456 2553 1204 2497 
Q 953 2441 691 2322 
L 691 4666 
z
" id="DejaVuSans-35" transform="scale(0.015625)"/>
       </defs>
       <use xlink:href="#DejaVuSans-32"/>
       <use x="63.623047" xlink:href="#DejaVuSans-35"/>
      </g>
     </g>
    </g>
    <g id="xtick_3">
     <g id="line2d_3">
      <path clip-path="url(#padcd7f8752)" d="M 153.772791 307.584 
L 153.772791 41.472 
" style="fill:none;stroke:#cccccc;stroke-linecap:round;stroke-width:0.8;"/>
     </g>
     <g id="text_3">
      <!-- 50 -->
      <g style="fill:#262626;" transform="translate(147.410291 322.182437)scale(0.1 -0.1)">
       <use xlink:href="#DejaVuSans-35"/>
       <use x="63.623047" xlink:href="#DejaVuSans-30"/>
      </g>
     </g>
    </g>
    <g id="xtick_4">
     <g id="line2d_4">
      <path clip-path="url(#padcd7f8752)" d="M 194.558538 307.584 
L 194.558538 41.472 
" style="fill:none;stroke:#cccccc;stroke-linecap:round;stroke-width:0.8;"/>
     </g>
     <g id="text_4">
      <!-- 75 -->
      <g style="fill:#262626;" transform="translate(188.196038 322.182437)scale(0.1 -0.1)">
       <defs>
        <path d="M 525 4666 
L 3525 4666 
L 3525 4397 
L 1831 0 
L 1172 0 
L 2766 4134 
L 525 4134 
L 525 4666 
z
" id="DejaVuSans-37" transform="scale(0.015625)"/>
       </defs>
       <use xlink:href="#DejaVuSans-37"/>
       <use x="63.623047" xlink:href="#DejaVuSans-35"/>
      </g>
     </g>
    </g>
    <g id="xtick_5">
     <g id="line2d_5">
      <path clip-path="url(#padcd7f8752)" d="M 235.344285 307.584 
L 235.344285 41.472 
" style="fill:none;stroke:#cccccc;stroke-linecap:round;stroke-width:0.8;"/>
     </g>
     <g id="text_5">
      <!-- 100 -->
      <g style="fill:#262626;" transform="translate(225.800535 322.182437)scale(0.1 -0.1)">
       <defs>
        <path d="M 794 531 
L 1825 531 
L 1825 4091 
L 703 3866 
L 703 4441 
L 1819 4666 
L 2450 4666 
L 2450 531 
L 3481 531 
L 3481 0 
L 794 0 
L 794 531 
z
" id="DejaVuSans-31" transform="scale(0.015625)"/>
       </defs>
       <use xlink:href="#DejaVuSans-31"/>
       <use x="63.623047" xlink:href="#DejaVuSans-30"/>
       <use x="127.246094" xlink:href="#DejaVuSans-30"/>
      </g>
     </g>
    </g>
    <g id="xtick_6">
     <g id="line2d_6">
      <path clip-path="url(#padcd7f8752)" d="M 276.130032 307.584 
L 276.130032 41.472 
" style="fill:none;stroke:#cccccc;stroke-linecap:round;stroke-width:0.8;"/>
     </g>
     <g id="text_6">
      <!-- 125 -->
      <g style="fill:#262626;" transform="translate(266.586282 322.182437)scale(0.1 -0.1)">
       <use xlink:href="#DejaVuSans-31"/>
       <use x="63.623047" xlink:href="#DejaVuSans-32"/>
       <use x="127.246094" xlink:href="#DejaVuSans-35"/>
      </g>
     </g>
    </g>
    <g id="xtick_7">
     <g id="line2d_7">
      <path clip-path="url(#padcd7f8752)" d="M 316.915779 307.584 
L 316.915779 41.472 
" style="fill:none;stroke:#cccccc;stroke-linecap:round;stroke-width:0.8;"/>
     </g>
     <g id="text_7">
      <!-- 150 -->
      <g style="fill:#262626;" transform="translate(307.372029 322.182437)scale(0.1 -0.1)">
       <use xlink:href="#DejaVuSans-31"/>
       <use x="63.623047" xlink:href="#DejaVuSans-35"/>
       <use x="127.246094" xlink:href="#DejaVuSans-30"/>
      </g>
     </g>
    </g>
    <g id="xtick_8">
     <g id="line2d_8">
      <path clip-path="url(#padcd7f8752)" d="M 357.701526 307.584 
L 357.701526 41.472 
" style="fill:none;stroke:#cccccc;stroke-linecap:round;stroke-width:0.8;"/>
     </g>
     <g id="text_8">
      <!-- 175 -->
      <g style="fill:#262626;" transform="translate(348.157776 322.182437)scale(0.1 -0.1)">
       <use xlink:href="#DejaVuSans-31"/>
       <use x="63.623047" xlink:href="#DejaVuSans-37"/>
       <use x="127.246094" xlink:href="#DejaVuSans-35"/>
      </g>
     </g>
    </g>
    <g id="xtick_9">
     <g id="line2d_9">
      <path clip-path="url(#padcd7f8752)" d="M 398.487273 307.584 
L 398.487273 41.472 
" style="fill:none;stroke:#cccccc;stroke-linecap:round;stroke-width:0.8;"/>
     </g>
     <g id="text_9">
      <!-- 200 -->
      <g style="fill:#262626;" transform="translate(388.943523 322.182437)scale(0.1 -0.1)">
       <use xlink:href="#DejaVuSans-32"/>
       <use x="63.623047" xlink:href="#DejaVuSans-30"/>
       <use x="127.246094" xlink:href="#DejaVuSans-30"/>
      </g>
     </g>
    </g>
    <g id="text_10">
     <!-- Auroc -->
     <g style="fill:#262626;" transform="translate(221.819375 335.860562)scale(0.1 -0.1)">
      <defs>
       <path d="M 2188 4044 
L 1331 1722 
L 3047 1722 
L 2188 4044 
z
M 1831 4666 
L 2547 4666 
L 4325 0 
L 3669 0 
L 3244 1197 
L 1141 1197 
L 716 0 
L 50 0 
L 1831 4666 
z
" id="DejaVuSans-41" transform="scale(0.015625)"/>
       <path d="M 544 1381 
L 544 3500 
L 1119 3500 
L 1119 1403 
Q 1119 906 1312 657 
Q 1506 409 1894 409 
Q 2359 409 2629 706 
Q 2900 1003 2900 1516 
L 2900 3500 
L 3475 3500 
L 3475 0 
L 2900 0 
L 2900 538 
Q 2691 219 2414 64 
Q 2138 -91 1772 -91 
Q 1169 -91 856 284 
Q 544 659 544 1381 
z
M 1991 3584 
L 1991 3584 
z
" id="DejaVuSans-75" transform="scale(0.015625)"/>
       <path d="M 2631 2963 
Q 2534 3019 2420 3045 
Q 2306 3072 2169 3072 
Q 1681 3072 1420 2755 
Q 1159 2438 1159 1844 
L 1159 0 
L 581 0 
L 581 3500 
L 1159 3500 
L 1159 2956 
Q 1341 3275 1631 3429 
Q 1922 3584 2338 3584 
Q 2397 3584 2469 3576 
Q 2541 3569 2628 3553 
L 2631 2963 
z
" id="DejaVuSans-72" transform="scale(0.015625)"/>
       <path d="M 1959 3097 
Q 1497 3097 1228 2736 
Q 959 2375 959 1747 
Q 959 1119 1226 758 
Q 1494 397 1959 397 
Q 2419 397 2687 759 
Q 2956 1122 2956 1747 
Q 2956 2369 2687 2733 
Q 2419 3097 1959 3097 
z
M 1959 3584 
Q 2709 3584 3137 3096 
Q 3566 2609 3566 1747 
Q 3566 888 3137 398 
Q 2709 -91 1959 -91 
Q 1206 -91 779 398 
Q 353 888 353 1747 
Q 353 2609 779 3096 
Q 1206 3584 1959 3584 
z
" id="DejaVuSans-6f" transform="scale(0.015625)"/>
       <path d="M 3122 3366 
L 3122 2828 
Q 2878 2963 2633 3030 
Q 2388 3097 2138 3097 
Q 1578 3097 1268 2742 
Q 959 2388 959 1747 
Q 959 1106 1268 751 
Q 1578 397 2138 397 
Q 2388 397 2633 464 
Q 2878 531 3122 666 
L 3122 134 
Q 2881 22 2623 -34 
Q 2366 -91 2075 -91 
Q 1284 -91 818 406 
Q 353 903 353 1747 
Q 353 2603 823 3093 
Q 1294 3584 2113 3584 
Q 2378 3584 2631 3529 
Q 2884 3475 3122 3366 
z
" id="DejaVuSans-63" transform="scale(0.015625)"/>
      </defs>
      <use xlink:href="#DejaVuSans-41"/>
      <use x="68.408203" xlink:href="#DejaVuSans-75"/>
      <use x="131.787109" xlink:href="#DejaVuSans-72"/>
      <use x="170.650391" xlink:href="#DejaVuSans-6f"/>
      <use x="231.832031" xlink:href="#DejaVuSans-63"/>
     </g>
    </g>
   </g>
   <g id="matplotlib.axis_2">
    <g id="ytick_1">
     <g id="line2d_10">
      <path clip-path="url(#padcd7f8752)" d="M 57.6 270.078276 
L 414.72 270.078276 
" style="fill:none;stroke:#cccccc;stroke-linecap:round;stroke-width:0.8;"/>
     </g>
     <g id="text_11">
      <!-- 0.55 -->
      <g style="fill:#262626;" transform="translate(28.334375 273.877495)scale(0.1 -0.1)">
       <defs>
        <path d="M 684 794 
L 1344 794 
L 1344 0 
L 684 0 
L 684 794 
z
" id="DejaVuSans-2e" transform="scale(0.015625)"/>
       </defs>
       <use xlink:href="#DejaVuSans-30"/>
       <use x="63.623047" xlink:href="#DejaVuSans-2e"/>
       <use x="95.410156" xlink:href="#DejaVuSans-35"/>
       <use x="159.033203" xlink:href="#DejaVuSans-35"/>
      </g>
     </g>
    </g>
    <g id="ytick_2">
     <g id="line2d_11">
      <path clip-path="url(#padcd7f8752)" d="M 57.6 212.413909 
L 414.72 212.413909 
" style="fill:none;stroke:#cccccc;stroke-linecap:round;stroke-width:0.8;"/>
     </g>
     <g id="text_12">
      <!-- 0.60 -->
      <g style="fill:#262626;" transform="translate(28.334375 216.213128)scale(0.1 -0.1)">
       <defs>
        <path d="M 2113 2584 
Q 1688 2584 1439 2293 
Q 1191 2003 1191 1497 
Q 1191 994 1439 701 
Q 1688 409 2113 409 
Q 2538 409 2786 701 
Q 3034 994 3034 1497 
Q 3034 2003 2786 2293 
Q 2538 2584 2113 2584 
z
M 3366 4563 
L 3366 3988 
Q 3128 4100 2886 4159 
Q 2644 4219 2406 4219 
Q 1781 4219 1451 3797 
Q 1122 3375 1075 2522 
Q 1259 2794 1537 2939 
Q 1816 3084 2150 3084 
Q 2853 3084 3261 2657 
Q 3669 2231 3669 1497 
Q 3669 778 3244 343 
Q 2819 -91 2113 -91 
Q 1303 -91 875 529 
Q 447 1150 447 2328 
Q 447 3434 972 4092 
Q 1497 4750 2381 4750 
Q 2619 4750 2861 4703 
Q 3103 4656 3366 4563 
z
" id="DejaVuSans-36" transform="scale(0.015625)"/>
       </defs>
       <use xlink:href="#DejaVuSans-30"/>
       <use x="63.623047" xlink:href="#DejaVuSans-2e"/>
       <use x="95.410156" xlink:href="#DejaVuSans-36"/>
       <use x="159.033203" xlink:href="#DejaVuSans-30"/>
      </g>
     </g>
    </g>
    <g id="ytick_3">
     <g id="line2d_12">
      <path clip-path="url(#padcd7f8752)" d="M 57.6 154.749542 
L 414.72 154.749542 
" style="fill:none;stroke:#cccccc;stroke-linecap:round;stroke-width:0.8;"/>
     </g>
     <g id="text_13">
      <!-- 0.65 -->
      <g style="fill:#262626;" transform="translate(28.334375 158.548761)scale(0.1 -0.1)">
       <use xlink:href="#DejaVuSans-30"/>
       <use x="63.623047" xlink:href="#DejaVuSans-2e"/>
       <use x="95.410156" xlink:href="#DejaVuSans-36"/>
       <use x="159.033203" xlink:href="#DejaVuSans-35"/>
      </g>
     </g>
    </g>
    <g id="ytick_4">
     <g id="line2d_13">
      <path clip-path="url(#padcd7f8752)" d="M 57.6 97.085176 
L 414.72 97.085176 
" style="fill:none;stroke:#cccccc;stroke-linecap:round;stroke-width:0.8;"/>
     </g>
     <g id="text_14">
      <!-- 0.70 -->
      <g style="fill:#262626;" transform="translate(28.334375 100.884394)scale(0.1 -0.1)">
       <use xlink:href="#DejaVuSans-30"/>
       <use x="63.623047" xlink:href="#DejaVuSans-2e"/>
       <use x="95.410156" xlink:href="#DejaVuSans-37"/>
       <use x="159.033203" xlink:href="#DejaVuSans-30"/>
      </g>
     </g>
    </g>
    <g id="text_15">
     <!-- Iteration -->
     <g style="fill:#262626;" transform="translate(22.254687 195.736594)rotate(-90)scale(0.1 -0.1)">
      <defs>
       <path d="M 628 4666 
L 1259 4666 
L 1259 0 
L 628 0 
L 628 4666 
z
" id="DejaVuSans-49" transform="scale(0.015625)"/>
       <path d="M 1172 4494 
L 1172 3500 
L 2356 3500 
L 2356 3053 
L 1172 3053 
L 1172 1153 
Q 1172 725 1289 603 
Q 1406 481 1766 481 
L 2356 481 
L 2356 0 
L 1766 0 
Q 1100 0 847 248 
Q 594 497 594 1153 
L 594 3053 
L 172 3053 
L 172 3500 
L 594 3500 
L 594 4494 
L 1172 4494 
z
" id="DejaVuSans-74" transform="scale(0.015625)"/>
       <path d="M 3597 1894 
L 3597 1613 
L 953 1613 
Q 991 1019 1311 708 
Q 1631 397 2203 397 
Q 2534 397 2845 478 
Q 3156 559 3463 722 
L 3463 178 
Q 3153 47 2828 -22 
Q 2503 -91 2169 -91 
Q 1331 -91 842 396 
Q 353 884 353 1716 
Q 353 2575 817 3079 
Q 1281 3584 2069 3584 
Q 2775 3584 3186 3129 
Q 3597 2675 3597 1894 
z
M 3022 2063 
Q 3016 2534 2758 2815 
Q 2500 3097 2075 3097 
Q 1594 3097 1305 2825 
Q 1016 2553 972 2059 
L 3022 2063 
z
" id="DejaVuSans-65" transform="scale(0.015625)"/>
       <path d="M 2194 1759 
Q 1497 1759 1228 1600 
Q 959 1441 959 1056 
Q 959 750 1161 570 
Q 1363 391 1709 391 
Q 2188 391 2477 730 
Q 2766 1069 2766 1631 
L 2766 1759 
L 2194 1759 
z
M 3341 1997 
L 3341 0 
L 2766 0 
L 2766 531 
Q 2569 213 2275 61 
Q 1981 -91 1556 -91 
Q 1019 -91 701 211 
Q 384 513 384 1019 
Q 384 1609 779 1909 
Q 1175 2209 1959 2209 
L 2766 2209 
L 2766 2266 
Q 2766 2663 2505 2880 
Q 2244 3097 1772 3097 
Q 1472 3097 1187 3025 
Q 903 2953 641 2809 
L 641 3341 
Q 956 3463 1253 3523 
Q 1550 3584 1831 3584 
Q 2591 3584 2966 3190 
Q 3341 2797 3341 1997 
z
" id="DejaVuSans-61" transform="scale(0.015625)"/>
       <path d="M 603 3500 
L 1178 3500 
L 1178 0 
L 603 0 
L 603 3500 
z
M 603 4863 
L 1178 4863 
L 1178 4134 
L 603 4134 
L 603 4863 
z
" id="DejaVuSans-69" transform="scale(0.015625)"/>
       <path d="M 3513 2113 
L 3513 0 
L 2938 0 
L 2938 2094 
Q 2938 2591 2744 2837 
Q 2550 3084 2163 3084 
Q 1697 3084 1428 2787 
Q 1159 2491 1159 1978 
L 1159 0 
L 581 0 
L 581 3500 
L 1159 3500 
L 1159 2956 
Q 1366 3272 1645 3428 
Q 1925 3584 2291 3584 
Q 2894 3584 3203 3211 
Q 3513 2838 3513 2113 
z
" id="DejaVuSans-6e" transform="scale(0.015625)"/>
      </defs>
      <use xlink:href="#DejaVuSans-49"/>
      <use x="29.492188" xlink:href="#DejaVuSans-74"/>
      <use x="68.701172" xlink:href="#DejaVuSans-65"/>
      <use x="130.224609" xlink:href="#DejaVuSans-72"/>
      <use x="171.337891" xlink:href="#DejaVuSans-61"/>
      <use x="232.617188" xlink:href="#DejaVuSans-74"/>
      <use x="271.826172" xlink:href="#DejaVuSans-69"/>
      <use x="299.609375" xlink:href="#DejaVuSans-6f"/>
      <use x="360.791016" xlink:href="#DejaVuSans-6e"/>
     </g>
    </g>
   </g>
   <g id="PolyCollection_1">
    <defs>
     <path d="M 73.832727 -210.291325 
L 73.832727 -137.018867 
L 75.464157 -114.079521 
L 77.095587 -94.920479 
L 78.727017 -171.29603 
L 80.358447 -126.253768 
L 81.989877 -94.60963 
L 83.621307 -86.852144 
L 85.252736 -104.444492 
L 86.884166 -184.892507 
L 88.515596 -192.520459 
L 90.147026 -118.896321 
L 91.778456 -143.312734 
L 93.409886 -109.271197 
L 95.041316 -97.609116 
L 96.672746 -75.314016 
L 98.304175 -101.602773 
L 99.935605 -105.23207 
L 101.567035 -134.058829 
L 103.198465 -122.068809 
L 104.829895 -160.561292 
L 106.461325 -126.072428 
L 108.092755 -108.936159 
L 109.724185 -141.394946 
L 111.355614 -50.112 
L 112.987044 -165.823111 
L 114.618474 -177.14236 
L 116.249904 -164.0044 
L 117.881334 -139.486055 
L 119.512764 -147.09257 
L 121.144194 -180.617991 
L 122.775624 -132.622766 
L 124.407053 -139.455491 
L 126.038483 -158.930101 
L 127.669913 -162.279086 
L 129.301343 -124.656196 
L 130.932773 -119.424741 
L 132.564203 -160.856785 
L 134.195633 -146.615191 
L 135.827063 -148.503236 
L 137.458492 -161.715523 
L 139.089922 -154.448652 
L 140.721352 -122.940045 
L 142.352782 -81.108784 
L 143.984212 -142.730103 
L 145.615642 -125.480891 
L 147.247072 -171.026735 
L 148.878502 -168.615858 
L 150.509931 -117.553747 
L 152.141361 -105.944659 
L 153.772791 -148.485017 
L 155.404221 -130.195105 
L 157.035651 -136.658888 
L 158.667081 -108.915695 
L 160.298511 -179.931449 
L 161.929941 -160.675987 
L 163.56137 -155.952392 
L 165.1928 -119.31117 
L 166.82423 -172.06963 
L 168.45566 -120.054554 
L 170.08709 -160.714426 
L 171.71852 -124.690917 
L 173.34995 -147.488893 
L 174.98138 -158.978999 
L 176.61281 -149.53149 
L 178.244239 -101.535331 
L 179.875669 -86.808348 
L 181.507099 -164.749253 
L 183.138529 -70.944368 
L 184.769959 -186.693919 
L 186.401389 -152.70435 
L 188.032819 -114.008027 
L 189.664249 -131.808113 
L 191.295678 -177.67803 
L 192.927108 -86.846667 
L 194.558538 -115.038114 
L 196.189968 -186.417373 
L 197.821398 -90.216755 
L 199.452828 -87.198366 
L 201.084258 -116.890132 
L 202.715688 -156.153815 
L 204.347117 -151.69408 
L 205.978547 -126.9462 
L 207.609977 -154.987368 
L 209.241407 -164.152246 
L 210.872837 -131.210546 
L 212.504267 -135.563541 
L 214.135697 -153.189844 
L 215.767127 -165.213805 
L 217.398556 -128.356781 
L 219.029986 -85.860378 
L 220.661416 -165.268671 
L 222.292846 -132.900461 
L 223.924276 -122.780358 
L 225.555706 -156.445333 
L 227.187136 -136.937591 
L 228.818566 -163.852788 
L 230.449995 -161.844403 
L 232.081425 -77.484987 
L 233.712855 -146.786565 
L 235.344285 -115.262055 
L 236.975715 -155.506624 
L 238.607145 -117.913135 
L 240.238575 -148.890192 
L 241.870005 -138.950674 
L 243.501434 -187.300996 
L 245.132864 -173.074669 
L 246.764294 -141.138846 
L 248.395724 -136.514971 
L 250.027154 -116.762192 
L 251.658584 -144.080882 
L 253.290014 -126.144234 
L 254.921444 -136.889921 
L 256.552873 -80.713405 
L 258.184303 -139.762806 
L 259.815733 -171.574804 
L 261.447163 -147.413109 
L 263.078593 -183.50485 
L 264.710023 -173.233828 
L 266.341453 -122.2341 
L 267.972883 -152.922181 
L 269.604312 -128.278659 
L 271.235742 -140.80563 
L 272.867172 -135.923854 
L 274.498602 -123.16984 
L 276.130032 -100.020819 
L 277.761462 -144.112534 
L 279.392892 -152.549699 
L 281.024322 -180.078006 
L 282.655751 -145.653514 
L 284.287181 -120.015053 
L 285.918611 -112.242677 
L 287.550041 -136.002725 
L 289.181471 -175.927928 
L 290.812901 -162.744912 
L 292.444331 -121.439134 
L 294.075761 -118.88143 
L 295.70719 -117.997284 
L 297.33862 -128.618487 
L 298.97005 -107.838712 
L 300.60148 -146.159676 
L 302.23291 -130.379056 
L 303.86434 -123.707516 
L 305.49577 -167.292582 
L 307.1272 -161.563351 
L 308.75863 -121.425489 
L 310.390059 -180.344808 
L 312.021489 -128.521636 
L 313.652919 -171.777804 
L 315.284349 -154.479285 
L 316.915779 -129.847884 
L 318.547209 -143.654157 
L 320.178639 -111.224332 
L 321.810069 -120.699714 
L 323.441498 -154.110511 
L 325.072928 -143.902362 
L 326.704358 -62.154351 
L 328.335788 -164.773376 
L 329.967218 -152.994432 
L 331.598648 -108.25032 
L 333.230078 -120.487178 
L 334.861508 -74.685538 
L 336.492937 -130.720792 
L 338.124367 -103.438324 
L 339.755797 -110.176906 
L 341.387227 -172.117953 
L 343.018657 -180.474595 
L 344.650087 -130.085398 
L 346.281517 -112.998523 
L 347.912947 -127.09422 
L 349.544376 -174.037384 
L 351.175806 -155.12665 
L 352.807236 -139.271457 
L 354.438666 -133.563108 
L 356.070096 -174.770451 
L 357.701526 -118.082927 
L 359.332956 -110.863467 
L 360.964386 -95.250902 
L 362.595815 -171.875032 
L 364.227245 -142.896315 
L 365.858675 -161.260047 
L 367.490105 -147.804395 
L 369.121535 -147.611298 
L 370.752965 -143.662422 
L 372.384395 -93.204078 
L 374.015825 -156.399031 
L 375.647254 -186.336702 
L 377.278684 -154.140806 
L 378.910114 -119.817678 
L 380.541544 -139.638064 
L 382.172974 -137.263932 
L 383.804404 -195.67026 
L 385.435834 -145.802433 
L 387.067264 -148.755941 
L 388.698693 -135.629351 
L 390.330123 -87.033884 
L 391.961553 -126.947533 
L 393.592983 -134.30468 
L 395.224413 -167.302786 
L 396.855843 -115.057531 
L 398.487273 -68.61113 
L 398.487273 -222.633876 
L 398.487273 -222.633876 
L 396.855843 -241.527492 
L 395.224413 -227.514848 
L 393.592983 -246.12121 
L 391.961553 -203.322374 
L 390.330123 -209.810302 
L 388.698693 -245.969418 
L 387.067264 -223.787676 
L 385.435834 -205.839235 
L 383.804404 -231.926921 
L 382.172974 -235.808509 
L 380.541544 -204.232377 
L 378.910114 -214.390275 
L 377.278684 -227.075397 
L 375.647254 -223.929602 
L 374.015825 -252.077883 
L 372.384395 -255.323615 
L 370.752965 -205.147819 
L 369.121535 -257.761946 
L 367.490105 -251.351753 
L 365.858675 -279.738621 
L 364.227245 -243.438594 
L 362.595815 -263.60209 
L 360.964386 -226.58465 
L 359.332956 -236.142864 
L 357.701526 -233.241041 
L 356.070096 -190.99473 
L 354.438666 -248.514915 
L 352.807236 -248.663031 
L 351.175806 -226.54006 
L 349.544376 -228.710383 
L 347.912947 -241.351243 
L 346.281517 -230.109027 
L 344.650087 -218.474473 
L 343.018657 -223.098852 
L 341.387227 -228.812422 
L 339.755797 -255.040766 
L 338.124367 -193.887998 
L 336.492937 -213.874873 
L 334.861508 -248.288454 
L 333.230078 -234.520547 
L 331.598648 -244.019304 
L 329.967218 -179.821656 
L 328.335788 -272.920385 
L 326.704358 -235.706131 
L 325.072928 -226.658795 
L 323.441498 -240.288906 
L 321.810069 -228.295359 
L 320.178639 -182.248961 
L 318.547209 -260.707282 
L 316.915779 -196.915319 
L 315.284349 -238.484012 
L 313.652919 -247.450406 
L 312.021489 -216.994686 
L 310.390059 -223.920127 
L 308.75863 -233.874549 
L 307.1272 -226.013692 
L 305.49577 -245.701506 
L 303.86434 -216.846186 
L 302.23291 -208.852066 
L 300.60148 -232.164348 
L 298.97005 -286.996212 
L 297.33862 -233.531797 
L 295.70719 -234.464637 
L 294.075761 -236.770584 
L 292.444331 -204.978702 
L 290.812901 -225.69782 
L 289.181471 -243.781124 
L 287.550041 -227.317445 
L 285.918611 -253.901293 
L 284.287181 -209.877827 
L 282.655751 -241.147564 
L 281.024322 -263.943153 
L 279.392892 -237.448579 
L 277.761462 -255.028451 
L 276.130032 -237.224319 
L 274.498602 -216.408532 
L 272.867172 -227.467688 
L 271.235742 -245.164035 
L 269.604312 -266.283748 
L 267.972883 -247.309568 
L 266.341453 -216.561178 
L 264.710023 -256.660213 
L 263.078593 -222.14085 
L 261.447163 -241.286357 
L 259.815733 -211.285906 
L 258.184303 -273.555153 
L 256.552873 -213.653885 
L 254.921444 -230.418527 
L 253.290014 -219.708402 
L 251.658584 -239.576883 
L 250.027154 -205.177573 
L 248.395724 -209.1037 
L 246.764294 -247.164063 
L 245.132864 -279.216563 
L 243.501434 -245.587421 
L 241.870005 -260.778044 
L 240.238575 -232.005572 
L 238.607145 -204.500506 
L 236.975715 -209.87194 
L 235.344285 -242.681605 
L 233.712855 -225.24727 
L 232.081425 -197.763106 
L 230.449995 -233.978895 
L 228.818566 -220.920607 
L 227.187136 -256.279863 
L 225.555706 -229.661558 
L 223.924276 -249.625045 
L 222.292846 -267.124685 
L 220.661416 -194.517809 
L 219.029986 -234.374973 
L 217.398556 -228.82518 
L 215.767127 -213.996844 
L 214.135697 -248.575762 
L 212.504267 -182.405714 
L 210.872837 -245.69031 
L 209.241407 -202.449654 
L 207.609977 -198.516763 
L 205.978547 -233.152533 
L 204.347117 -239.786652 
L 202.715688 -253.216272 
L 201.084258 -217.580634 
L 199.452828 -194.533313 
L 197.821398 -226.224223 
L 196.189968 -232.406165 
L 194.558538 -189.969652 
L 192.927108 -226.52509 
L 191.295678 -242.395045 
L 189.664249 -263.009633 
L 188.032819 -292.032 
L 186.401389 -225.421187 
L 184.769959 -237.053187 
L 183.138529 -259.540879 
L 181.507099 -249.666761 
L 179.875669 -206.285028 
L 178.244239 -236.169428 
L 176.61281 -228.239688 
L 174.98138 -266.092713 
L 173.34995 -231.376379 
L 171.71852 -228.960614 
L 170.08709 -206.033142 
L 168.45566 -263.749357 
L 166.82423 -250.168058 
L 165.1928 -264.702103 
L 163.56137 -220.184606 
L 161.929941 -261.051044 
L 160.298511 -247.398204 
L 158.667081 -242.373743 
L 157.035651 -235.043276 
L 155.404221 -261.757284 
L 153.772791 -227.341002 
L 152.141361 -281.922713 
L 150.509931 -260.795847 
L 148.878502 -229.273309 
L 147.247072 -201.780367 
L 145.615642 -218.91311 
L 143.984212 -278.461545 
L 142.352782 -249.743794 
L 140.721352 -228.663896 
L 139.089922 -240.395987 
L 137.458492 -260.63151 
L 135.827063 -254.738866 
L 134.195633 -205.198753 
L 132.564203 -238.509825 
L 130.932773 -257.735833 
L 129.301343 -224.313052 
L 127.669913 -267.813096 
L 126.038483 -253.909206 
L 124.407053 -283.046019 
L 122.775624 -196.166083 
L 121.144194 -237.595747 
L 119.512764 -202.456734 
L 117.881334 -262.90995 
L 116.249904 -245.50836 
L 114.618474 -230.603129 
L 112.987044 -219.43299 
L 111.355614 -234.980888 
L 109.724185 -217.652665 
L 108.092755 -213.534639 
L 106.461325 -211.767643 
L 104.829895 -203.140873 
L 103.198465 -210.977985 
L 101.567035 -245.854102 
L 99.935605 -261.458585 
L 98.304175 -202.703673 
L 96.672746 -243.770136 
L 95.041316 -217.34893 
L 93.409886 -269.58268 
L 91.778456 -248.465861 
L 90.147026 -211.729309 
L 88.515596 -251.803177 
L 86.884166 -250.814436 
L 85.252736 -267.413685 
L 83.621307 -230.265088 
L 81.989877 -210.577815 
L 80.358447 -219.650068 
L 78.727017 -271.094503 
L 77.095587 -266.076375 
L 75.464157 -202.779021 
L 73.832727 -210.291325 
z
" id="m41305e2172" style="stroke:#ffffff;stroke-opacity:0.2;"/>
    </defs>
    <g clip-path="url(#padcd7f8752)">
     <use style="fill:#1f77b4;fill-opacity:0.2;stroke:#ffffff;stroke-opacity:0.2;" x="0" xlink:href="#m41305e2172" y="345.6"/>
    </g>
   </g>
   <g id="LineCollection_1">
    <path clip-path="url(#padcd7f8752)" d="M 398.487273 295.488 
L 398.487273 53.568 
" style="fill:none;stroke:#1f77b4;stroke-dasharray:5.55,2.4;stroke-dashoffset:0;stroke-width:1.5;"/>
   </g>
   <g id="line2d_14">
    <path clip-path="url(#padcd7f8752)" d="M 73.832727 171.944904 
L 75.464157 187.170729 
L 77.095587 165.101573 
L 78.727017 124.404734 
L 80.358447 172.648082 
L 81.989877 193.006278 
L 83.621307 187.041384 
L 85.252736 159.670911 
L 86.884166 127.746529 
L 88.515596 123.438182 
L 90.147026 180.287185 
L 91.778456 149.710702 
L 93.409886 156.173061 
L 95.041316 188.120977 
L 96.672746 186.057924 
L 98.304175 193.446777 
L 99.935605 162.254673 
L 101.567035 155.643535 
L 103.198465 179.076603 
L 104.829895 163.748918 
L 106.461325 176.679965 
L 108.092755 184.364601 
L 109.724185 166.076194 
L 111.355614 203.053556 
L 112.987044 152.97195 
L 114.618474 141.727256 
L 116.249904 140.84362 
L 117.881334 144.401997 
L 119.512764 170.825348 
L 121.144194 136.493131 
L 122.775624 181.205576 
L 124.407053 134.349245 
L 126.038483 139.180347 
L 127.669913 130.553909 
L 129.301343 171.115376 
L 130.932773 157.019713 
L 132.564203 145.916695 
L 134.195633 169.693028 
L 135.827063 143.978949 
L 137.458492 134.426483 
L 139.089922 148.17768 
L 140.721352 169.79803 
L 142.352782 180.173711 
L 143.984212 135.004176 
L 145.615642 173.403 
L 147.247072 159.196449 
L 148.878502 146.655417 
L 150.509931 156.425203 
L 152.141361 151.666314 
L 153.772791 157.68699 
L 155.404221 149.623806 
L 158.667081 169.955281 
L 160.298511 131.935174 
L 161.929941 134.736485 
L 163.56137 157.531501 
L 165.1928 153.593363 
L 166.82423 134.481156 
L 168.45566 153.698044 
L 170.08709 162.226216 
L 171.71852 168.774235 
L 173.34995 156.167364 
L 174.98138 133.064144 
L 176.61281 156.714411 
L 178.244239 176.747621 
L 179.875669 199.053312 
L 181.507099 138.391993 
L 183.138529 180.357377 
L 184.769959 133.726447 
L 186.401389 156.537231 
L 188.032819 142.579986 
L 189.664249 148.191127 
L 191.295678 135.563463 
L 192.927108 188.914122 
L 194.558538 193.096117 
L 196.189968 136.188231 
L 197.821398 187.379511 
L 199.452828 204.734161 
L 201.084258 178.364617 
L 202.715688 140.914957 
L 204.347117 149.859634 
L 205.978547 165.550634 
L 207.609977 168.847934 
L 209.241407 162.29905 
L 210.872837 157.149572 
L 212.504267 186.615373 
L 214.135697 144.717197 
L 217.398556 167.00902 
L 219.029986 185.482324 
L 222.292846 145.587427 
L 223.924276 159.397299 
L 225.555706 152.546554 
L 227.187136 148.991273 
L 228.818566 153.213302 
L 230.449995 147.688351 
L 232.081425 207.975953 
L 233.712855 159.583083 
L 235.344285 166.62817 
L 236.975715 162.910718 
L 238.607145 184.39318 
L 240.238575 155.152118 
L 241.870005 145.735641 
L 243.501434 129.155791 
L 245.132864 119.454384 
L 246.764294 151.448546 
L 248.395724 172.790665 
L 250.027154 184.630118 
L 251.658584 153.771118 
L 253.290014 172.673682 
L 254.921444 161.945776 
L 256.552873 198.416355 
L 258.184303 138.94102 
L 259.815733 154.169645 
L 261.447163 151.250267 
L 263.078593 142.77715 
L 264.710023 130.652979 
L 266.341453 176.202361 
L 267.972883 145.484126 
L 269.604312 148.318797 
L 271.235742 152.615168 
L 274.498602 175.810814 
L 276.130032 176.977431 
L 277.761462 146.029508 
L 279.392892 150.600861 
L 281.024322 123.58942 
L 284.287181 180.65356 
L 285.918611 162.528015 
L 287.550041 163.939915 
L 289.181471 135.745474 
L 290.812901 151.378634 
L 292.444331 182.391082 
L 294.075761 167.773993 
L 295.70719 169.36904 
L 297.33862 164.524858 
L 298.97005 148.182538 
L 300.60148 156.437988 
L 302.23291 175.984439 
L 303.86434 175.323149 
L 305.49577 139.102956 
L 307.1272 151.811478 
L 308.75863 167.949981 
L 310.390059 143.467533 
L 312.021489 172.841839 
L 313.652919 135.985895 
L 315.284349 149.118351 
L 316.915779 182.218399 
L 318.547209 143.41928 
L 320.178639 198.863353 
L 321.810069 171.102464 
L 323.441498 148.400291 
L 325.072928 160.319421 
L 326.704358 196.669759 
L 328.335788 126.75312 
L 329.967218 179.191956 
L 331.598648 169.465188 
L 333.230078 168.096138 
L 334.861508 184.113004 
L 336.492937 173.302168 
L 338.124367 196.936839 
L 339.755797 162.991164 
L 341.387227 145.134813 
L 343.018657 143.813277 
L 344.650087 171.320064 
L 346.281517 174.046225 
L 347.912947 161.377269 
L 349.544376 144.226116 
L 351.175806 154.766645 
L 352.807236 151.632756 
L 354.438666 154.560989 
L 356.070096 162.717409 
L 357.701526 169.938016 
L 359.332956 172.096835 
L 360.964386 184.682224 
L 362.595815 127.861439 
L 364.227245 152.432545 
L 365.858675 125.100666 
L 367.490105 146.021926 
L 369.121535 142.913378 
L 370.752965 171.194879 
L 372.384395 171.336154 
L 374.015825 141.361543 
L 375.647254 140.466848 
L 377.278684 154.991898 
L 378.910114 178.496024 
L 380.541544 173.66478 
L 382.172974 159.06378 
L 383.804404 131.80141 
L 385.435834 169.779166 
L 387.067264 159.328192 
L 388.698693 154.800615 
L 390.330123 197.177907 
L 391.961553 180.465047 
L 393.592983 155.387055 
L 395.224413 148.191183 
L 396.855843 167.307489 
L 398.487273 199.977497 
L 398.487273 199.977497 
" style="fill:none;stroke:#1f77b4;stroke-linecap:round;stroke-width:1.5;"/>
   </g>
   <g id="patch_3">
    <path d="M 57.6 307.584 
L 57.6 41.472 
" style="fill:none;stroke:#cccccc;stroke-linecap:square;stroke-linejoin:miter;stroke-width:0.8;"/>
   </g>
   <g id="patch_4">
    <path d="M 414.72 307.584 
L 414.72 41.472 
" style="fill:none;stroke:#cccccc;stroke-linecap:square;stroke-linejoin:miter;stroke-width:0.8;"/>
   </g>
   <g id="patch_5">
    <path d="M 57.6 307.584 
L 414.72 307.584 
" style="fill:none;stroke:#cccccc;stroke-linecap:square;stroke-linejoin:miter;stroke-width:0.8;"/>
   </g>
   <g id="patch_6">
    <path d="M 57.6 41.472 
L 414.72 41.472 
" style="fill:none;stroke:#cccccc;stroke-linecap:square;stroke-linejoin:miter;stroke-width:0.8;"/>
   </g>
   <g id="text_16">
    <!-- Model performance vs. # of iterations -->
    <g style="fill:#262626;" transform="translate(122.314688 35.472)scale(0.12 -0.12)">
     <defs>
      <path d="M 628 4666 
L 1569 4666 
L 2759 1491 
L 3956 4666 
L 4897 4666 
L 4897 0 
L 4281 0 
L 4281 4097 
L 3078 897 
L 2444 897 
L 1241 4097 
L 1241 0 
L 628 0 
L 628 4666 
z
" id="DejaVuSans-4d" transform="scale(0.015625)"/>
      <path d="M 2906 2969 
L 2906 4863 
L 3481 4863 
L 3481 0 
L 2906 0 
L 2906 525 
Q 2725 213 2448 61 
Q 2172 -91 1784 -91 
Q 1150 -91 751 415 
Q 353 922 353 1747 
Q 353 2572 751 3078 
Q 1150 3584 1784 3584 
Q 2172 3584 2448 3432 
Q 2725 3281 2906 2969 
z
M 947 1747 
Q 947 1113 1208 752 
Q 1469 391 1925 391 
Q 2381 391 2643 752 
Q 2906 1113 2906 1747 
Q 2906 2381 2643 2742 
Q 2381 3103 1925 3103 
Q 1469 3103 1208 2742 
Q 947 2381 947 1747 
z
" id="DejaVuSans-64" transform="scale(0.015625)"/>
      <path d="M 603 4863 
L 1178 4863 
L 1178 0 
L 603 0 
L 603 4863 
z
" id="DejaVuSans-6c" transform="scale(0.015625)"/>
      <path id="DejaVuSans-20" transform="scale(0.015625)"/>
      <path d="M 1159 525 
L 1159 -1331 
L 581 -1331 
L 581 3500 
L 1159 3500 
L 1159 2969 
Q 1341 3281 1617 3432 
Q 1894 3584 2278 3584 
Q 2916 3584 3314 3078 
Q 3713 2572 3713 1747 
Q 3713 922 3314 415 
Q 2916 -91 2278 -91 
Q 1894 -91 1617 61 
Q 1341 213 1159 525 
z
M 3116 1747 
Q 3116 2381 2855 2742 
Q 2594 3103 2138 3103 
Q 1681 3103 1420 2742 
Q 1159 2381 1159 1747 
Q 1159 1113 1420 752 
Q 1681 391 2138 391 
Q 2594 391 2855 752 
Q 3116 1113 3116 1747 
z
" id="DejaVuSans-70" transform="scale(0.015625)"/>
      <path d="M 2375 4863 
L 2375 4384 
L 1825 4384 
Q 1516 4384 1395 4259 
Q 1275 4134 1275 3809 
L 1275 3500 
L 2222 3500 
L 2222 3053 
L 1275 3053 
L 1275 0 
L 697 0 
L 697 3053 
L 147 3053 
L 147 3500 
L 697 3500 
L 697 3744 
Q 697 4328 969 4595 
Q 1241 4863 1831 4863 
L 2375 4863 
z
" id="DejaVuSans-66" transform="scale(0.015625)"/>
      <path d="M 3328 2828 
Q 3544 3216 3844 3400 
Q 4144 3584 4550 3584 
Q 5097 3584 5394 3201 
Q 5691 2819 5691 2113 
L 5691 0 
L 5113 0 
L 5113 2094 
Q 5113 2597 4934 2840 
Q 4756 3084 4391 3084 
Q 3944 3084 3684 2787 
Q 3425 2491 3425 1978 
L 3425 0 
L 2847 0 
L 2847 2094 
Q 2847 2600 2669 2842 
Q 2491 3084 2119 3084 
Q 1678 3084 1418 2786 
Q 1159 2488 1159 1978 
L 1159 0 
L 581 0 
L 581 3500 
L 1159 3500 
L 1159 2956 
Q 1356 3278 1631 3431 
Q 1906 3584 2284 3584 
Q 2666 3584 2933 3390 
Q 3200 3197 3328 2828 
z
" id="DejaVuSans-6d" transform="scale(0.015625)"/>
      <path d="M 191 3500 
L 800 3500 
L 1894 563 
L 2988 3500 
L 3597 3500 
L 2284 0 
L 1503 0 
L 191 3500 
z
" id="DejaVuSans-76" transform="scale(0.015625)"/>
      <path d="M 2834 3397 
L 2834 2853 
Q 2591 2978 2328 3040 
Q 2066 3103 1784 3103 
Q 1356 3103 1142 2972 
Q 928 2841 928 2578 
Q 928 2378 1081 2264 
Q 1234 2150 1697 2047 
L 1894 2003 
Q 2506 1872 2764 1633 
Q 3022 1394 3022 966 
Q 3022 478 2636 193 
Q 2250 -91 1575 -91 
Q 1294 -91 989 -36 
Q 684 19 347 128 
L 347 722 
Q 666 556 975 473 
Q 1284 391 1588 391 
Q 1994 391 2212 530 
Q 2431 669 2431 922 
Q 2431 1156 2273 1281 
Q 2116 1406 1581 1522 
L 1381 1569 
Q 847 1681 609 1914 
Q 372 2147 372 2553 
Q 372 3047 722 3315 
Q 1072 3584 1716 3584 
Q 2034 3584 2315 3537 
Q 2597 3491 2834 3397 
z
" id="DejaVuSans-73" transform="scale(0.015625)"/>
      <path d="M 3272 2816 
L 2363 2816 
L 2100 1772 
L 3016 1772 
L 3272 2816 
z
M 2803 4594 
L 2478 3297 
L 3391 3297 
L 3719 4594 
L 4219 4594 
L 3897 3297 
L 4872 3297 
L 4872 2816 
L 3775 2816 
L 3519 1772 
L 4513 1772 
L 4513 1294 
L 3397 1294 
L 3072 0 
L 2572 0 
L 2894 1294 
L 1978 1294 
L 1656 0 
L 1153 0 
L 1478 1294 
L 494 1294 
L 494 1772 
L 1594 1772 
L 1856 2816 
L 850 2816 
L 850 3297 
L 1978 3297 
L 2297 4594 
L 2803 4594 
z
" id="DejaVuSans-23" transform="scale(0.015625)"/>
     </defs>
     <use xlink:href="#DejaVuSans-4d"/>
     <use x="86.279297" xlink:href="#DejaVuSans-6f"/>
     <use x="147.460938" xlink:href="#DejaVuSans-64"/>
     <use x="210.9375" xlink:href="#DejaVuSans-65"/>
     <use x="272.460938" xlink:href="#DejaVuSans-6c"/>
     <use x="300.244141" xlink:href="#DejaVuSans-20"/>
     <use x="332.03125" xlink:href="#DejaVuSans-70"/>
     <use x="395.507812" xlink:href="#DejaVuSans-65"/>
     <use x="457.03125" xlink:href="#DejaVuSans-72"/>
     <use x="498.144531" xlink:href="#DejaVuSans-66"/>
     <use x="533.349609" xlink:href="#DejaVuSans-6f"/>
     <use x="594.53125" xlink:href="#DejaVuSans-72"/>
     <use x="633.894531" xlink:href="#DejaVuSans-6d"/>
     <use x="731.306641" xlink:href="#DejaVuSans-61"/>
     <use x="792.585938" xlink:href="#DejaVuSans-6e"/>
     <use x="855.964844" xlink:href="#DejaVuSans-63"/>
     <use x="910.945312" xlink:href="#DejaVuSans-65"/>
     <use x="972.46875" xlink:href="#DejaVuSans-20"/>
     <use x="1004.255859" xlink:href="#DejaVuSans-76"/>
     <use x="1063.435547" xlink:href="#DejaVuSans-73"/>
     <use x="1115.535156" xlink:href="#DejaVuSans-2e"/>
     <use x="1147.322266" xlink:href="#DejaVuSans-20"/>
     <use x="1179.109375" xlink:href="#DejaVuSans-23"/>
     <use x="1262.898438" xlink:href="#DejaVuSans-20"/>
     <use x="1294.685547" xlink:href="#DejaVuSans-6f"/>
     <use x="1355.867188" xlink:href="#DejaVuSans-66"/>
     <use x="1391.072266" xlink:href="#DejaVuSans-20"/>
     <use x="1422.859375" xlink:href="#DejaVuSans-69"/>
     <use x="1450.642578" xlink:href="#DejaVuSans-74"/>
     <use x="1489.851562" xlink:href="#DejaVuSans-65"/>
     <use x="1551.375" xlink:href="#DejaVuSans-72"/>
     <use x="1592.488281" xlink:href="#DejaVuSans-61"/>
     <use x="1653.767578" xlink:href="#DejaVuSans-74"/>
     <use x="1692.976562" xlink:href="#DejaVuSans-69"/>
     <use x="1720.759766" xlink:href="#DejaVuSans-6f"/>
     <use x="1781.941406" xlink:href="#DejaVuSans-6e"/>
     <use x="1845.320312" xlink:href="#DejaVuSans-73"/>
    </g>
   </g>
  </g>
 </g>
 <defs>
  <clipPath id="padcd7f8752">
   <rect height="266.112" width="357.12" x="57.6" y="41.472"/>
  </clipPath>
 </defs>
</svg>
