<?xml version="1.0" encoding="utf-8" standalone="no"?>
<!DOCTYPE svg PUBLIC "-//W3C//DTD SVG 1.1//EN"
  "http://www.w3.org/Graphics/SVG/1.1/DTD/svg11.dtd">
<svg xmlns:xlink="http://www.w3.org/1999/xlink" width="460.8pt" height="345.6pt" viewBox="0 0 460.8 345.6" xmlns="http://www.w3.org/2000/svg" version="1.1">
 <metadata>
  <rdf:RDF xmlns:dc="http://purl.org/dc/elements/1.1/" xmlns:cc="http://creativecommons.org/ns#" xmlns:rdf="http://www.w3.org/1999/02/22-rdf-syntax-ns#">
   <cc:Work>
    <dc:type rdf:resource="http://purl.org/dc/dcmitype/StillImage"/>
    <dc:date>2022-10-20T17:03:20.951270</dc:date>
    <dc:format>image/svg+xml</dc:format>
    <dc:creator>
     <cc:Agent>
      <dc:title>Matplotlib v3.5.2, https://matplotlib.org/</dc:title>
     </cc:Agent>
    </dc:creator>
   </cc:Work>
  </rdf:RDF>
 </metadata>
 <defs>
  <style type="text/css">*{stroke-linejoin: round; stroke-linecap: butt}</style>
 </defs>
 <g id="figure_1">
  <g id="patch_1">
   <path d="M 0 345.6 
L 460.8 345.6 
L 460.8 0 
L 0 0 
z
" style="fill: #ffffff"/>
  </g>
  <g id="axes_1">
   <g id="patch_2">
    <path d="M 57.6 307.584 
L 414.72 307.584 
L 414.72 41.472 
L 57.6 41.472 
z
" style="fill: #ffffff"/>
   </g>
   <g id="matplotlib.axis_1">
    <g id="xtick_1">
     <g id="line2d_1">
      <path d="M 72.201297 307.584 
L 72.201297 41.472 
" clip-path="url(#p5bc1252358)" style="fill: none; stroke: #cccccc; stroke-width: 0.8; stroke-linecap: round"/>
     </g>
     <g id="text_1">
      <!-- 0 -->
      <g style="fill: #262626" transform="translate(69.020047 322.182437)scale(0.1 -0.1)">
       <defs>
        <path id="DejaVuSans-30" d="M 2034 4250 
Q 1547 4250 1301 3770 
Q 1056 3291 1056 2328 
Q 1056 1369 1301 889 
Q 1547 409 2034 409 
Q 2525 409 2770 889 
Q 3016 1369 3016 2328 
Q 3016 3291 2770 3770 
Q 2525 4250 2034 4250 
z
M 2034 4750 
Q 2819 4750 3233 4129 
Q 3647 3509 3647 2328 
Q 3647 1150 3233 529 
Q 2819 -91 2034 -91 
Q 1250 -91 836 529 
Q 422 1150 422 2328 
Q 422 3509 836 4129 
Q 1250 4750 2034 4750 
z
" transform="scale(0.015625)"/>
       </defs>
       <use xlink:href="#DejaVuSans-30"/>
      </g>
     </g>
    </g>
    <g id="xtick_2">
     <g id="line2d_2">
      <path d="M 112.987044 307.584 
L 112.987044 41.472 
" clip-path="url(#p5bc1252358)" style="fill: none; stroke: #cccccc; stroke-width: 0.8; stroke-linecap: round"/>
     </g>
     <g id="text_2">
      <!-- 25 -->
      <g style="fill: #262626" transform="translate(106.624544 322.182437)scale(0.1 -0.1)">
       <defs>
        <path id="DejaVuSans-32" d="M 1228 531 
L 3431 531 
L 3431 0 
L 469 0 
L 469 531 
Q 828 903 1448 1529 
Q 2069 2156 2228 2338 
Q 2531 2678 2651 2914 
Q 2772 3150 2772 3378 
Q 2772 3750 2511 3984 
Q 2250 4219 1831 4219 
Q 1534 4219 1204 4116 
Q 875 4013 500 3803 
L 500 4441 
Q 881 4594 1212 4672 
Q 1544 4750 1819 4750 
Q 2544 4750 2975 4387 
Q 3406 4025 3406 3419 
Q 3406 3131 3298 2873 
Q 3191 2616 2906 2266 
Q 2828 2175 2409 1742 
Q 1991 1309 1228 531 
z
" transform="scale(0.015625)"/>
        <path id="DejaVuSans-35" d="M 691 4666 
L 3169 4666 
L 3169 4134 
L 1269 4134 
L 1269 2991 
Q 1406 3038 1543 3061 
Q 1681 3084 1819 3084 
Q 2600 3084 3056 2656 
Q 3513 2228 3513 1497 
Q 3513 744 3044 326 
Q 2575 -91 1722 -91 
Q 1428 -91 1123 -41 
Q 819 9 494 109 
L 494 744 
Q 775 591 1075 516 
Q 1375 441 1709 441 
Q 2250 441 2565 725 
Q 2881 1009 2881 1497 
Q 2881 1984 2565 2268 
Q 2250 2553 1709 2553 
Q 1456 2553 1204 2497 
Q 953 2441 691 2322 
L 691 4666 
z
" transform="scale(0.015625)"/>
       </defs>
       <use xlink:href="#DejaVuSans-32"/>
       <use xlink:href="#DejaVuSans-35" x="63.623047"/>
      </g>
     </g>
    </g>
    <g id="xtick_3">
     <g id="line2d_3">
      <path d="M 153.772791 307.584 
L 153.772791 41.472 
" clip-path="url(#p5bc1252358)" style="fill: none; stroke: #cccccc; stroke-width: 0.8; stroke-linecap: round"/>
     </g>
     <g id="text_3">
      <!-- 50 -->
      <g style="fill: #262626" transform="translate(147.410291 322.182437)scale(0.1 -0.1)">
       <use xlink:href="#DejaVuSans-35"/>
       <use xlink:href="#DejaVuSans-30" x="63.623047"/>
      </g>
     </g>
    </g>
    <g id="xtick_4">
     <g id="line2d_4">
      <path d="M 194.558538 307.584 
L 194.558538 41.472 
" clip-path="url(#p5bc1252358)" style="fill: none; stroke: #cccccc; stroke-width: 0.8; stroke-linecap: round"/>
     </g>
     <g id="text_4">
      <!-- 75 -->
      <g style="fill: #262626" transform="translate(188.196038 322.182437)scale(0.1 -0.1)">
       <defs>
        <path id="DejaVuSans-37" d="M 525 4666 
L 3525 4666 
L 3525 4397 
L 1831 0 
L 1172 0 
L 2766 4134 
L 525 4134 
L 525 4666 
z
" transform="scale(0.015625)"/>
       </defs>
       <use xlink:href="#DejaVuSans-37"/>
       <use xlink:href="#DejaVuSans-35" x="63.623047"/>
      </g>
     </g>
    </g>
    <g id="xtick_5">
     <g id="line2d_5">
      <path d="M 235.344285 307.584 
L 235.344285 41.472 
" clip-path="url(#p5bc1252358)" style="fill: none; stroke: #cccccc; stroke-width: 0.8; stroke-linecap: round"/>
     </g>
     <g id="text_5">
      <!-- 100 -->
      <g style="fill: #262626" transform="translate(225.800535 322.182437)scale(0.1 -0.1)">
       <defs>
        <path id="DejaVuSans-31" d="M 794 531 
L 1825 531 
L 1825 4091 
L 703 3866 
L 703 4441 
L 1819 4666 
L 2450 4666 
L 2450 531 
L 3481 531 
L 3481 0 
L 794 0 
L 794 531 
z
" transform="scale(0.015625)"/>
       </defs>
       <use xlink:href="#DejaVuSans-31"/>
       <use xlink:href="#DejaVuSans-30" x="63.623047"/>
       <use xlink:href="#DejaVuSans-30" x="127.246094"/>
      </g>
     </g>
    </g>
    <g id="xtick_6">
     <g id="line2d_6">
      <path d="M 276.130032 307.584 
L 276.130032 41.472 
" clip-path="url(#p5bc1252358)" style="fill: none; stroke: #cccccc; stroke-width: 0.8; stroke-linecap: round"/>
     </g>
     <g id="text_6">
      <!-- 125 -->
      <g style="fill: #262626" transform="translate(266.586282 322.182437)scale(0.1 -0.1)">
       <use xlink:href="#DejaVuSans-31"/>
       <use xlink:href="#DejaVuSans-32" x="63.623047"/>
       <use xlink:href="#DejaVuSans-35" x="127.246094"/>
      </g>
     </g>
    </g>
    <g id="xtick_7">
     <g id="line2d_7">
      <path d="M 316.915779 307.584 
L 316.915779 41.472 
" clip-path="url(#p5bc1252358)" style="fill: none; stroke: #cccccc; stroke-width: 0.8; stroke-linecap: round"/>
     </g>
     <g id="text_7">
      <!-- 150 -->
      <g style="fill: #262626" transform="translate(307.372029 322.182437)scale(0.1 -0.1)">
       <use xlink:href="#DejaVuSans-31"/>
       <use xlink:href="#DejaVuSans-35" x="63.623047"/>
       <use xlink:href="#DejaVuSans-30" x="127.246094"/>
      </g>
     </g>
    </g>
    <g id="xtick_8">
     <g id="line2d_8">
      <path d="M 357.701526 307.584 
L 357.701526 41.472 
" clip-path="url(#p5bc1252358)" style="fill: none; stroke: #cccccc; stroke-width: 0.8; stroke-linecap: round"/>
     </g>
     <g id="text_8">
      <!-- 175 -->
      <g style="fill: #262626" transform="translate(348.157776 322.182437)scale(0.1 -0.1)">
       <use xlink:href="#DejaVuSans-31"/>
       <use xlink:href="#DejaVuSans-37" x="63.623047"/>
       <use xlink:href="#DejaVuSans-35" x="127.246094"/>
      </g>
     </g>
    </g>
    <g id="xtick_9">
     <g id="line2d_9">
      <path d="M 398.487273 307.584 
L 398.487273 41.472 
" clip-path="url(#p5bc1252358)" style="fill: none; stroke: #cccccc; stroke-width: 0.8; stroke-linecap: round"/>
     </g>
     <g id="text_9">
      <!-- 200 -->
      <g style="fill: #262626" transform="translate(388.943523 322.182437)scale(0.1 -0.1)">
       <use xlink:href="#DejaVuSans-32"/>
       <use xlink:href="#DejaVuSans-30" x="63.623047"/>
       <use xlink:href="#DejaVuSans-30" x="127.246094"/>
      </g>
     </g>
    </g>
    <g id="text_10">
     <!-- Iteration -->
     <g style="fill: #262626" transform="translate(214.951406 335.860562)scale(0.1 -0.1)">
      <defs>
       <path id="DejaVuSans-49" d="M 628 4666 
L 1259 4666 
L 1259 0 
L 628 0 
L 628 4666 
z
" transform="scale(0.015625)"/>
       <path id="DejaVuSans-74" d="M 1172 4494 
L 1172 3500 
L 2356 3500 
L 2356 3053 
L 1172 3053 
L 1172 1153 
Q 1172 725 1289 603 
Q 1406 481 1766 481 
L 2356 481 
L 2356 0 
L 1766 0 
Q 1100 0 847 248 
Q 594 497 594 1153 
L 594 3053 
L 172 3053 
L 172 3500 
L 594 3500 
L 594 4494 
L 1172 4494 
z
" transform="scale(0.015625)"/>
       <path id="DejaVuSans-65" d="M 3597 1894 
L 3597 1613 
L 953 1613 
Q 991 1019 1311 708 
Q 1631 397 2203 397 
Q 2534 397 2845 478 
Q 3156 559 3463 722 
L 3463 178 
Q 3153 47 2828 -22 
Q 2503 -91 2169 -91 
Q 1331 -91 842 396 
Q 353 884 353 1716 
Q 353 2575 817 3079 
Q 1281 3584 2069 3584 
Q 2775 3584 3186 3129 
Q 3597 2675 3597 1894 
z
M 3022 2063 
Q 3016 2534 2758 2815 
Q 2500 3097 2075 3097 
Q 1594 3097 1305 2825 
Q 1016 2553 972 2059 
L 3022 2063 
z
" transform="scale(0.015625)"/>
       <path id="DejaVuSans-72" d="M 2631 2963 
Q 2534 3019 2420 3045 
Q 2306 3072 2169 3072 
Q 1681 3072 1420 2755 
Q 1159 2438 1159 1844 
L 1159 0 
L 581 0 
L 581 3500 
L 1159 3500 
L 1159 2956 
Q 1341 3275 1631 3429 
Q 1922 3584 2338 3584 
Q 2397 3584 2469 3576 
Q 2541 3569 2628 3553 
L 2631 2963 
z
" transform="scale(0.015625)"/>
       <path id="DejaVuSans-61" d="M 2194 1759 
Q 1497 1759 1228 1600 
Q 959 1441 959 1056 
Q 959 750 1161 570 
Q 1363 391 1709 391 
Q 2188 391 2477 730 
Q 2766 1069 2766 1631 
L 2766 1759 
L 2194 1759 
z
M 3341 1997 
L 3341 0 
L 2766 0 
L 2766 531 
Q 2569 213 2275 61 
Q 1981 -91 1556 -91 
Q 1019 -91 701 211 
Q 384 513 384 1019 
Q 384 1609 779 1909 
Q 1175 2209 1959 2209 
L 2766 2209 
L 2766 2266 
Q 2766 2663 2505 2880 
Q 2244 3097 1772 3097 
Q 1472 3097 1187 3025 
Q 903 2953 641 2809 
L 641 3341 
Q 956 3463 1253 3523 
Q 1550 3584 1831 3584 
Q 2591 3584 2966 3190 
Q 3341 2797 3341 1997 
z
" transform="scale(0.015625)"/>
       <path id="DejaVuSans-69" d="M 603 3500 
L 1178 3500 
L 1178 0 
L 603 0 
L 603 3500 
z
M 603 4863 
L 1178 4863 
L 1178 4134 
L 603 4134 
L 603 4863 
z
" transform="scale(0.015625)"/>
       <path id="DejaVuSans-6f" d="M 1959 3097 
Q 1497 3097 1228 2736 
Q 959 2375 959 1747 
Q 959 1119 1226 758 
Q 1494 397 1959 397 
Q 2419 397 2687 759 
Q 2956 1122 2956 1747 
Q 2956 2369 2687 2733 
Q 2419 3097 1959 3097 
z
M 1959 3584 
Q 2709 3584 3137 3096 
Q 3566 2609 3566 1747 
Q 3566 888 3137 398 
Q 2709 -91 1959 -91 
Q 1206 -91 779 398 
Q 353 888 353 1747 
Q 353 2609 779 3096 
Q 1206 3584 1959 3584 
z
" transform="scale(0.015625)"/>
       <path id="DejaVuSans-6e" d="M 3513 2113 
L 3513 0 
L 2938 0 
L 2938 2094 
Q 2938 2591 2744 2837 
Q 2550 3084 2163 3084 
Q 1697 3084 1428 2787 
Q 1159 2491 1159 1978 
L 1159 0 
L 581 0 
L 581 3500 
L 1159 3500 
L 1159 2956 
Q 1366 3272 1645 3428 
Q 1925 3584 2291 3584 
Q 2894 3584 3203 3211 
Q 3513 2838 3513 2113 
z
" transform="scale(0.015625)"/>
      </defs>
      <use xlink:href="#DejaVuSans-49"/>
      <use xlink:href="#DejaVuSans-74" x="29.492188"/>
      <use xlink:href="#DejaVuSans-65" x="68.701172"/>
      <use xlink:href="#DejaVuSans-72" x="130.224609"/>
      <use xlink:href="#DejaVuSans-61" x="171.337891"/>
      <use xlink:href="#DejaVuSans-74" x="232.617188"/>
      <use xlink:href="#DejaVuSans-69" x="271.826172"/>
      <use xlink:href="#DejaVuSans-6f" x="299.609375"/>
      <use xlink:href="#DejaVuSans-6e" x="360.791016"/>
     </g>
    </g>
   </g>
   <g id="matplotlib.axis_2">
    <g id="ytick_1">
     <g id="line2d_10">
      <path d="M 57.6 285.987775 
L 414.72 285.987775 
" clip-path="url(#p5bc1252358)" style="fill: none; stroke: #cccccc; stroke-width: 0.8; stroke-linecap: round"/>
     </g>
     <g id="text_11">
      <!-- 0.50 -->
      <g style="fill: #262626" transform="translate(28.334375 289.786994)scale(0.1 -0.1)">
       <defs>
        <path id="DejaVuSans-2e" d="M 684 794 
L 1344 794 
L 1344 0 
L 684 0 
L 684 794 
z
" transform="scale(0.015625)"/>
       </defs>
       <use xlink:href="#DejaVuSans-30"/>
       <use xlink:href="#DejaVuSans-2e" x="63.623047"/>
       <use xlink:href="#DejaVuSans-35" x="95.410156"/>
       <use xlink:href="#DejaVuSans-30" x="159.033203"/>
      </g>
     </g>
    </g>
    <g id="ytick_2">
     <g id="line2d_11">
      <path d="M 57.6 230.1693 
L 414.72 230.1693 
" clip-path="url(#p5bc1252358)" style="fill: none; stroke: #cccccc; stroke-width: 0.8; stroke-linecap: round"/>
     </g>
     <g id="text_12">
      <!-- 0.55 -->
      <g style="fill: #262626" transform="translate(28.334375 233.968519)scale(0.1 -0.1)">
       <use xlink:href="#DejaVuSans-30"/>
       <use xlink:href="#DejaVuSans-2e" x="63.623047"/>
       <use xlink:href="#DejaVuSans-35" x="95.410156"/>
       <use xlink:href="#DejaVuSans-35" x="159.033203"/>
      </g>
     </g>
    </g>
    <g id="ytick_3">
     <g id="line2d_12">
      <path d="M 57.6 174.350825 
L 414.72 174.350825 
" clip-path="url(#p5bc1252358)" style="fill: none; stroke: #cccccc; stroke-width: 0.8; stroke-linecap: round"/>
     </g>
     <g id="text_13">
      <!-- 0.60 -->
      <g style="fill: #262626" transform="translate(28.334375 178.150044)scale(0.1 -0.1)">
       <defs>
        <path id="DejaVuSans-36" d="M 2113 2584 
Q 1688 2584 1439 2293 
Q 1191 2003 1191 1497 
Q 1191 994 1439 701 
Q 1688 409 2113 409 
Q 2538 409 2786 701 
Q 3034 994 3034 1497 
Q 3034 2003 2786 2293 
Q 2538 2584 2113 2584 
z
M 3366 4563 
L 3366 3988 
Q 3128 4100 2886 4159 
Q 2644 4219 2406 4219 
Q 1781 4219 1451 3797 
Q 1122 3375 1075 2522 
Q 1259 2794 1537 2939 
Q 1816 3084 2150 3084 
Q 2853 3084 3261 2657 
Q 3669 2231 3669 1497 
Q 3669 778 3244 343 
Q 2819 -91 2113 -91 
Q 1303 -91 875 529 
Q 447 1150 447 2328 
Q 447 3434 972 4092 
Q 1497 4750 2381 4750 
Q 2619 4750 2861 4703 
Q 3103 4656 3366 4563 
z
" transform="scale(0.015625)"/>
       </defs>
       <use xlink:href="#DejaVuSans-30"/>
       <use xlink:href="#DejaVuSans-2e" x="63.623047"/>
       <use xlink:href="#DejaVuSans-36" x="95.410156"/>
       <use xlink:href="#DejaVuSans-30" x="159.033203"/>
      </g>
     </g>
    </g>
    <g id="ytick_4">
     <g id="line2d_13">
      <path d="M 57.6 118.53235 
L 414.72 118.53235 
" clip-path="url(#p5bc1252358)" style="fill: none; stroke: #cccccc; stroke-width: 0.8; stroke-linecap: round"/>
     </g>
     <g id="text_14">
      <!-- 0.65 -->
      <g style="fill: #262626" transform="translate(28.334375 122.331569)scale(0.1 -0.1)">
       <use xlink:href="#DejaVuSans-30"/>
       <use xlink:href="#DejaVuSans-2e" x="63.623047"/>
       <use xlink:href="#DejaVuSans-36" x="95.410156"/>
       <use xlink:href="#DejaVuSans-35" x="159.033203"/>
      </g>
     </g>
    </g>
    <g id="ytick_5">
     <g id="line2d_14">
      <path d="M 57.6 62.713875 
L 414.72 62.713875 
" clip-path="url(#p5bc1252358)" style="fill: none; stroke: #cccccc; stroke-width: 0.8; stroke-linecap: round"/>
     </g>
     <g id="text_15">
      <!-- 0.70 -->
      <g style="fill: #262626" transform="translate(28.334375 66.513094)scale(0.1 -0.1)">
       <use xlink:href="#DejaVuSans-30"/>
       <use xlink:href="#DejaVuSans-2e" x="63.623047"/>
       <use xlink:href="#DejaVuSans-37" x="95.410156"/>
       <use xlink:href="#DejaVuSans-30" x="159.033203"/>
      </g>
     </g>
    </g>
    <g id="text_16">
     <!-- Auroc -->
     <g style="fill: #262626" transform="translate(22.254688 188.868625)rotate(-90)scale(0.1 -0.1)">
      <defs>
       <path id="DejaVuSans-41" d="M 2188 4044 
L 1331 1722 
L 3047 1722 
L 2188 4044 
z
M 1831 4666 
L 2547 4666 
L 4325 0 
L 3669 0 
L 3244 1197 
L 1141 1197 
L 716 0 
L 50 0 
L 1831 4666 
z
" transform="scale(0.015625)"/>
       <path id="DejaVuSans-75" d="M 544 1381 
L 544 3500 
L 1119 3500 
L 1119 1403 
Q 1119 906 1312 657 
Q 1506 409 1894 409 
Q 2359 409 2629 706 
Q 2900 1003 2900 1516 
L 2900 3500 
L 3475 3500 
L 3475 0 
L 2900 0 
L 2900 538 
Q 2691 219 2414 64 
Q 2138 -91 1772 -91 
Q 1169 -91 856 284 
Q 544 659 544 1381 
z
M 1991 3584 
L 1991 3584 
z
" transform="scale(0.015625)"/>
       <path id="DejaVuSans-63" d="M 3122 3366 
L 3122 2828 
Q 2878 2963 2633 3030 
Q 2388 3097 2138 3097 
Q 1578 3097 1268 2742 
Q 959 2388 959 1747 
Q 959 1106 1268 751 
Q 1578 397 2138 397 
Q 2388 397 2633 464 
Q 2878 531 3122 666 
L 3122 134 
Q 2881 22 2623 -34 
Q 2366 -91 2075 -91 
Q 1284 -91 818 406 
Q 353 903 353 1747 
Q 353 2603 823 3093 
Q 1294 3584 2113 3584 
Q 2378 3584 2631 3529 
Q 2884 3475 3122 3366 
z
" transform="scale(0.015625)"/>
      </defs>
      <use xlink:href="#DejaVuSans-41"/>
      <use xlink:href="#DejaVuSans-75" x="68.408203"/>
      <use xlink:href="#DejaVuSans-72" x="131.787109"/>
      <use xlink:href="#DejaVuSans-6f" x="170.650391"/>
      <use xlink:href="#DejaVuSans-63" x="231.832031"/>
     </g>
    </g>
   </g>
   <g id="PolyCollection_1">
    <defs>
     <path id="mb5d830ae19" d="M 73.832727 -234.475583 
L 73.832727 -134.178142 
L 75.464157 -137.793524 
L 77.095587 -168.888728 
L 78.727017 -201.951505 
L 80.358447 -191.082546 
L 81.989877 -128.829646 
L 83.621307 -175.508286 
L 85.252736 -173.699944 
L 86.884166 -109.165262 
L 88.515596 -155.096203 
L 90.147026 -131.082032 
L 91.778456 -147.102255 
L 93.409886 -160.29051 
L 95.041316 -66.959092 
L 96.672746 -135.582173 
L 98.304175 -205.877492 
L 99.935605 -198.38219 
L 101.567035 -92.87246 
L 103.198465 -150.910894 
L 104.829895 -160.5168 
L 106.461325 -132.554173 
L 108.092755 -155.30876 
L 109.724185 -147.938629 
L 111.355614 -196.121421 
L 112.987044 -199.036125 
L 114.618474 -175.137121 
L 116.249904 -143.89383 
L 117.881334 -82.216646 
L 119.512764 -102.395667 
L 121.144194 -192.905216 
L 122.775624 -205.174263 
L 124.407053 -176.14487 
L 126.038483 -164.69604 
L 127.669913 -142.648597 
L 129.301343 -151.050172 
L 130.932773 -160.4221 
L 132.564203 -176.232265 
L 134.195633 -161.925336 
L 135.827063 -187.388042 
L 137.458492 -223.772806 
L 139.089922 -191.047279 
L 140.721352 -187.050884 
L 142.352782 -179.216315 
L 143.984212 -194.563263 
L 145.615642 -123.001124 
L 147.247072 -165.892102 
L 148.878502 -192.734499 
L 150.509931 -162.171815 
L 152.141361 -165.097729 
L 153.772791 -164.098109 
L 155.404221 -176.541116 
L 157.035651 -113.434091 
L 158.667081 -164.702062 
L 160.298511 -141.520375 
L 161.929941 -164.021533 
L 163.56137 -150.364553 
L 165.1928 -188.302867 
L 166.82423 -163.330716 
L 168.45566 -172.431967 
L 170.08709 -110.736271 
L 171.71852 -156.000992 
L 173.34995 -99.939285 
L 174.98138 -143.569606 
L 176.61281 -86.906875 
L 178.244239 -178.799661 
L 179.875669 -116.94184 
L 181.507099 -170.660958 
L 183.138529 -90.893654 
L 184.769959 -205.617465 
L 186.401389 -202.198163 
L 188.032819 -128.980739 
L 189.664249 -133.997434 
L 191.295678 -137.831672 
L 192.927108 -191.940091 
L 194.558538 -139.242772 
L 196.189968 -226.513662 
L 197.821398 -129.923577 
L 199.452828 -147.025892 
L 201.084258 -181.210269 
L 202.715688 -148.240925 
L 204.347117 -196.589532 
L 205.978547 -159.357924 
L 207.609977 -204.816278 
L 209.241407 -95.880492 
L 210.872837 -157.045367 
L 212.504267 -160.505425 
L 214.135697 -145.118562 
L 215.767127 -132.979027 
L 217.398556 -167.2544 
L 219.029986 -129.465371 
L 220.661416 -150.103655 
L 222.292846 -187.961855 
L 223.924276 -152.386167 
L 225.555706 -100.98449 
L 227.187136 -133.126218 
L 228.818566 -121.761066 
L 230.449995 -131.60078 
L 232.081425 -173.692312 
L 233.712855 -115.707768 
L 235.344285 -172.163775 
L 236.975715 -139.221599 
L 238.607145 -113.508042 
L 240.238575 -173.017435 
L 241.870005 -113.585574 
L 243.501434 -178.683942 
L 245.132864 -160.043008 
L 246.764294 -156.436857 
L 248.395724 -167.618705 
L 250.027154 -175.436762 
L 251.658584 -128.309511 
L 253.290014 -125.850995 
L 254.921444 -99.695534 
L 256.552873 -138.698412 
L 258.184303 -91.802397 
L 259.815733 -181.798007 
L 261.447163 -131.82822 
L 263.078593 -129.874166 
L 264.710023 -168.080294 
L 266.341453 -213.619795 
L 267.972883 -168.511875 
L 269.604312 -134.023623 
L 271.235742 -162.598481 
L 272.867172 -187.150377 
L 274.498602 -179.547966 
L 276.130032 -193.492764 
L 277.761462 -183.060317 
L 279.392892 -170.526344 
L 281.024322 -143.949724 
L 282.655751 -184.427369 
L 284.287181 -50.112 
L 285.918611 -172.91531 
L 287.550041 -120.249957 
L 289.181471 -196.860492 
L 290.812901 -179.831467 
L 292.444331 -134.644391 
L 294.075761 -197.243831 
L 295.70719 -113.243754 
L 297.33862 -185.92618 
L 298.97005 -169.838048 
L 300.60148 -116.309003 
L 302.23291 -116.609672 
L 303.86434 -207.265567 
L 305.49577 -148.879031 
L 307.1272 -190.248079 
L 308.75863 -180.865352 
L 310.390059 -181.614174 
L 312.021489 -206.924767 
L 313.652919 -158.284596 
L 315.284349 -159.927842 
L 316.915779 -143.52916 
L 318.547209 -146.119771 
L 320.178639 -184.146526 
L 321.810069 -143.739157 
L 323.441498 -157.151053 
L 325.072928 -82.241238 
L 326.704358 -139.037976 
L 328.335788 -133.336521 
L 329.967218 -169.592248 
L 331.598648 -204.820968 
L 333.230078 -110.79281 
L 334.861508 -143.182737 
L 336.492937 -166.827894 
L 338.124367 -138.888391 
L 339.755797 -174.191471 
L 341.387227 -156.706485 
L 343.018657 -184.918415 
L 344.650087 -144.675268 
L 346.281517 -113.915388 
L 347.912947 -144.411516 
L 349.544376 -183.340366 
L 351.175806 -165.565202 
L 352.807236 -202.599502 
L 354.438666 -128.109249 
L 356.070096 -150.590163 
L 357.701526 -91.328871 
L 359.332956 -124.018813 
L 360.964386 -80.89123 
L 362.595815 -117.402957 
L 364.227245 -113.797485 
L 365.858675 -198.416501 
L 367.490105 -148.695256 
L 369.121535 -193.399318 
L 370.752965 -93.214722 
L 372.384395 -167.202468 
L 374.015825 -108.649704 
L 375.647254 -98.681503 
L 377.278684 -173.758117 
L 378.910114 -111.177383 
L 380.541544 -128.473895 
L 382.172974 -119.34622 
L 383.804404 -171.205691 
L 385.435834 -161.987302 
L 387.067264 -118.559929 
L 388.698693 -184.183912 
L 390.330123 -131.368162 
L 391.961553 -145.257211 
L 393.592983 -134.185967 
L 395.224413 -114.3487 
L 396.855843 -149.219781 
L 398.487273 -152.134371 
L 398.487273 -268.068401 
L 398.487273 -268.068401 
L 396.855843 -232.597915 
L 395.224413 -245.341248 
L 393.592983 -292.032 
L 391.961553 -236.351471 
L 390.330123 -226.545342 
L 388.698693 -261.867832 
L 387.067264 -267.704264 
L 385.435834 -235.216745 
L 383.804404 -223.335283 
L 382.172974 -238.509635 
L 380.541544 -248.647664 
L 378.910114 -279.657084 
L 377.278684 -267.552642 
L 375.647254 -263.199153 
L 374.015825 -224.653537 
L 372.384395 -247.27689 
L 370.752965 -262.381769 
L 369.121535 -262.063943 
L 367.490105 -205.015909 
L 365.858675 -270.157781 
L 364.227245 -248.458248 
L 362.595815 -197.808335 
L 360.964386 -191.13647 
L 359.332956 -282.272738 
L 357.701526 -225.131351 
L 356.070096 -226.423307 
L 354.438666 -231.406252 
L 352.807236 -245.724458 
L 351.175806 -235.838655 
L 349.544376 -266.605209 
L 347.912947 -237.615338 
L 346.281517 -243.787366 
L 344.650087 -200.394306 
L 343.018657 -235.832698 
L 341.387227 -251.515477 
L 339.755797 -243.653355 
L 338.124367 -262.280603 
L 336.492937 -254.655174 
L 334.861508 -245.882564 
L 333.230078 -237.830928 
L 331.598648 -266.899741 
L 329.967218 -255.140283 
L 328.335788 -225.126797 
L 326.704358 -199.72068 
L 325.072928 -257.053128 
L 323.441498 -201.573072 
L 321.810069 -245.746341 
L 320.178639 -253.616205 
L 318.547209 -229.068798 
L 316.915779 -241.917101 
L 315.284349 -218.466864 
L 313.652919 -226.706391 
L 312.021489 -268.03467 
L 310.390059 -287.092294 
L 308.75863 -220.576434 
L 307.1272 -223.667174 
L 305.49577 -241.996819 
L 303.86434 -231.948572 
L 302.23291 -192.120868 
L 300.60148 -264.552181 
L 298.97005 -246.752766 
L 297.33862 -271.06752 
L 295.70719 -248.392361 
L 294.075761 -256.747323 
L 292.444331 -238.039889 
L 290.812901 -271.254659 
L 289.181471 -267.746859 
L 287.550041 -232.053355 
L 285.918611 -234.419128 
L 284.287181 -222.065251 
L 282.655751 -263.136691 
L 281.024322 -210.221227 
L 279.392892 -254.755387 
L 277.761462 -248.132188 
L 276.130032 -224.929768 
L 274.498602 -253.568354 
L 272.867172 -246.330491 
L 271.235742 -234.186509 
L 269.604312 -247.652506 
L 267.972883 -276.550851 
L 266.341453 -278.16883 
L 264.710023 -246.509154 
L 263.078593 -219.274003 
L 261.447163 -244.340131 
L 259.815733 -247.360941 
L 258.184303 -237.755219 
L 256.552873 -252.701045 
L 254.921444 -275.685961 
L 253.290014 -251.48151 
L 251.658584 -228.992112 
L 250.027154 -225.102715 
L 248.395724 -240.318711 
L 246.764294 -282.213789 
L 245.132864 -253.828529 
L 243.501434 -206.589318 
L 241.870005 -235.364629 
L 240.238575 -273.820611 
L 238.607145 -256.29998 
L 236.975715 -230.986372 
L 235.344285 -214.431089 
L 233.712855 -246.285004 
L 232.081425 -242.358238 
L 230.449995 -230.803601 
L 228.818566 -240.92718 
L 227.187136 -198.339066 
L 225.555706 -233.537244 
L 223.924276 -236.562285 
L 222.292846 -244.592463 
L 220.661416 -248.343467 
L 219.029986 -282.261387 
L 217.398556 -253.882345 
L 215.767127 -245.85038 
L 214.135697 -260.391716 
L 212.504267 -258.444229 
L 210.872837 -238.298481 
L 209.241407 -227.645968 
L 207.609977 -263.962386 
L 205.978547 -213.323301 
L 204.347117 -247.627003 
L 202.715688 -231.603996 
L 201.084258 -234.641456 
L 199.452828 -269.969185 
L 197.821398 -221.250292 
L 196.189968 -257.677382 
L 194.558538 -216.029542 
L 192.927108 -239.734253 
L 191.295678 -249.2809 
L 189.664249 -253.785221 
L 188.032819 -253.568648 
L 186.401389 -257.217679 
L 184.769959 -264.46812 
L 183.138529 -223.364225 
L 181.507099 -246.067439 
L 179.875669 -213.972464 
L 178.244239 -251.221753 
L 176.61281 -215.181464 
L 174.98138 -228.004544 
L 173.34995 -283.348663 
L 171.71852 -229.464045 
L 170.08709 -245.137752 
L 168.45566 -223.67985 
L 166.82423 -234.914542 
L 165.1928 -232.500542 
L 163.56137 -266.983113 
L 161.929941 -249.017942 
L 160.298511 -273.035137 
L 158.667081 -274.274328 
L 157.035651 -258.387954 
L 155.404221 -228.972465 
L 153.772791 -227.81199 
L 152.141361 -221.78878 
L 150.509931 -224.71363 
L 148.878502 -269.984556 
L 147.247072 -228.85505 
L 145.615642 -192.981167 
L 143.984212 -240.916111 
L 142.352782 -260.580603 
L 140.721352 -216.88924 
L 139.089922 -243.586687 
L 137.458492 -257.231593 
L 135.827063 -263.71464 
L 134.195633 -278.814952 
L 132.564203 -249.367701 
L 130.932773 -213.037664 
L 129.301343 -278.909838 
L 127.669913 -250.578127 
L 126.038483 -240.161739 
L 124.407053 -225.910567 
L 122.775624 -227.389639 
L 121.144194 -241.480506 
L 119.512764 -258.369538 
L 117.881334 -248.461509 
L 116.249904 -240.739895 
L 114.618474 -255.677634 
L 112.987044 -269.268982 
L 111.355614 -250.159942 
L 109.724185 -244.778873 
L 108.092755 -266.216297 
L 106.461325 -258.006574 
L 104.829895 -232.537204 
L 103.198465 -267.795035 
L 101.567035 -263.270355 
L 99.935605 -251.327015 
L 98.304175 -256.301027 
L 96.672746 -210.392876 
L 95.041316 -209.289911 
L 93.409886 -220.904742 
L 91.778456 -266.760353 
L 90.147026 -233.893939 
L 88.515596 -238.056315 
L 86.884166 -203.274202 
L 85.252736 -210.736003 
L 83.621307 -275.644615 
L 81.989877 -247.635873 
L 80.358447 -248.398324 
L 78.727017 -254.820619 
L 77.095587 -271.777176 
L 75.464157 -227.104769 
L 73.832727 -234.475583 
z
" style="stroke: #ffffff; stroke-opacity: 0.2"/>
    </defs>
    <g clip-path="url(#p5bc1252358)">
     <use xlink:href="#mb5d830ae19" x="0" y="345.6" style="fill: #1f77b4; fill-opacity: 0.2; stroke: #ffffff; stroke-opacity: 0.2"/>
    </g>
   </g>
   <g id="line2d_15">
    <path d="M 73.832727 161.273138 
L 75.464157 163.150853 
L 77.095587 125.267048 
L 78.727017 117.213938 
L 80.358447 125.859565 
L 81.989877 157.36724 
L 83.621307 120.02355 
L 85.252736 153.382027 
L 86.884166 189.380268 
L 88.515596 149.023741 
L 90.147026 163.112014 
L 91.778456 138.668696 
L 93.409886 155.002374 
L 95.041316 207.475498 
L 96.672746 172.612476 
L 98.304175 114.51074 
L 99.935605 120.745397 
L 101.567035 167.528593 
L 103.198465 136.247035 
L 104.829895 149.072998 
L 106.461325 150.319626 
L 108.092755 134.837472 
L 109.724185 149.241249 
L 111.355614 122.459318 
L 112.987044 111.447446 
L 114.618474 130.192622 
L 116.249904 153.283138 
L 117.881334 180.260922 
L 119.512764 165.217397 
L 121.144194 128.407139 
L 122.775624 129.318049 
L 124.407053 144.572281 
L 126.038483 143.17111 
L 127.669913 148.986638 
L 129.301343 130.619995 
L 130.932773 158.870118 
L 132.564203 132.800017 
L 134.195633 125.229856 
L 135.827063 120.048659 
L 137.458492 105.097801 
L 139.089922 128.283017 
L 140.721352 143.629938 
L 142.352782 125.701541 
L 143.984212 127.860313 
L 145.615642 187.608855 
L 147.247072 148.226424 
L 148.878502 114.240473 
L 150.509931 152.157277 
L 152.141361 152.156746 
L 153.772791 149.64495 
L 155.404221 142.84321 
L 157.035651 159.688978 
L 158.667081 126.111805 
L 160.298511 138.322244 
L 161.929941 139.080262 
L 163.56137 136.926167 
L 165.1928 135.198296 
L 166.82423 146.477371 
L 168.45566 147.544092 
L 170.08709 167.662988 
L 171.71852 152.867481 
L 173.34995 153.956026 
L 174.98138 159.812925 
L 176.61281 194.555831 
L 178.244239 130.589293 
L 179.875669 180.142848 
L 181.507099 137.235802 
L 183.138529 188.47106 
L 184.769959 110.557207 
L 186.401389 115.892079 
L 188.032819 154.325306 
L 189.664249 151.708672 
L 191.295678 152.043714 
L 192.927108 129.762828 
L 194.558538 167.963843 
L 196.189968 103.504478 
L 197.821398 170.013065 
L 199.452828 137.102461 
L 201.084258 137.674137 
L 202.715688 155.677539 
L 204.347117 123.491733 
L 205.978547 159.259388 
L 207.609977 111.210668 
L 209.241407 183.83677 
L 210.872837 147.928076 
L 212.504267 136.125173 
L 214.135697 142.844861 
L 215.767127 156.185297 
L 217.398556 135.031628 
L 219.029986 139.736621 
L 220.661416 146.376439 
L 222.292846 129.322841 
L 223.924276 151.125774 
L 225.555706 178.339133 
L 227.187136 179.867358 
L 228.818566 164.255877 
L 230.449995 164.397809 
L 232.081425 137.574725 
L 233.712855 164.603614 
L 235.344285 152.302568 
L 236.975715 160.496015 
L 238.607145 160.695989 
L 240.238575 122.180977 
L 241.870005 171.124898 
L 243.501434 152.96337 
L 245.132864 138.664231 
L 246.764294 126.274677 
L 248.395724 141.631292 
L 250.027154 145.330261 
L 251.658584 166.949188 
L 253.290014 156.933748 
L 254.921444 157.909253 
L 256.552873 149.900272 
L 258.184303 180.821192 
L 259.815733 131.020526 
L 261.447163 157.515825 
L 263.078593 171.025916 
L 264.710023 138.305276 
L 266.341453 99.705688 
L 267.972883 123.068637 
L 269.604312 154.761935 
L 271.235742 147.207505 
L 272.867172 128.859566 
L 274.498602 129.04184 
L 276.130032 136.388734 
L 277.761462 130.003748 
L 279.392892 132.959134 
L 281.024322 168.514525 
L 282.655751 121.81797 
L 284.287181 209.511375 
L 285.918611 141.932781 
L 287.550041 169.448344 
L 289.181471 113.296325 
L 290.812901 120.056937 
L 292.444331 159.25786 
L 294.075761 118.604423 
L 295.70719 164.781943 
L 297.33862 117.10315 
L 298.97005 137.304593 
L 300.60148 155.169408 
L 302.23291 191.23473 
L 303.86434 125.992931 
L 305.49577 150.162075 
L 307.1272 138.642373 
L 308.75863 144.879107 
L 310.390059 111.246766 
L 312.021489 108.120281 
L 313.652919 153.104507 
L 315.284349 156.402647 
L 316.915779 152.87687 
L 318.547209 158.005716 
L 320.178639 126.718634 
L 321.810069 150.857251 
L 323.441498 166.237938 
L 325.072928 175.952817 
L 326.704358 176.220672 
L 328.335788 166.368341 
L 329.967218 133.233735 
L 331.598648 109.739646 
L 333.230078 171.288131 
L 334.861508 151.06735 
L 336.492937 134.858466 
L 338.124367 145.015503 
L 339.755797 136.677587 
L 341.387227 141.489019 
L 343.018657 135.224443 
L 344.650087 173.065213 
L 346.281517 166.748623 
L 347.912947 154.586573 
L 349.544376 120.627212 
L 351.175806 144.898071 
L 352.807236 121.43802 
L 354.438666 165.84225 
L 356.070096 157.093265 
L 357.701526 187.369889 
L 359.332956 142.454225 
L 360.964386 209.58615 
L 362.595815 187.994354 
L 364.227245 164.472134 
L 365.858675 111.312859 
L 367.490105 168.744417 
L 369.121535 117.868369 
L 370.752965 167.801755 
L 372.384395 138.360321 
L 374.015825 178.948379 
L 375.647254 164.659672 
L 377.278684 124.944621 
L 378.910114 150.182767 
L 380.541544 157.03922 
L 382.172974 166.672073 
L 383.804404 148.329513 
L 385.435834 146.997976 
L 387.067264 152.467904 
L 388.698693 122.574128 
L 390.330123 166.643248 
L 391.961553 154.795659 
L 393.592983 132.491016 
L 395.224413 165.755026 
L 396.855843 154.691152 
L 398.487273 135.498614 
L 398.487273 135.498614 
" clip-path="url(#p5bc1252358)" style="fill: none; stroke: #1f77b4; stroke-width: 1.5; stroke-linecap: round"/>
   </g>
   <g id="LineCollection_1">
    <path d="M 398.487273 295.488 
L 398.487273 53.568 
" clip-path="url(#p5bc1252358)" style="fill: none; stroke-dasharray: 5.55,2.4; stroke-dashoffset: 0; stroke: #1f77b4; stroke-width: 1.5"/>
   </g>
   <g id="patch_3">
    <path d="M 57.6 307.584 
L 57.6 41.472 
" style="fill: none; stroke: #cccccc; stroke-width: 0.8; stroke-linejoin: miter; stroke-linecap: square"/>
   </g>
   <g id="patch_4">
    <path d="M 414.72 307.584 
L 414.72 41.472 
" style="fill: none; stroke: #cccccc; stroke-width: 0.8; stroke-linejoin: miter; stroke-linecap: square"/>
   </g>
   <g id="patch_5">
    <path d="M 57.6 307.584 
L 414.72 307.584 
" style="fill: none; stroke: #cccccc; stroke-width: 0.8; stroke-linejoin: miter; stroke-linecap: square"/>
   </g>
   <g id="patch_6">
    <path d="M 57.6 41.472 
L 414.72 41.472 
" style="fill: none; stroke: #cccccc; stroke-width: 0.8; stroke-linejoin: miter; stroke-linecap: square"/>
   </g>
   <g id="text_17">
    <!-- Model performance vs. # of iterations -->
    <g style="fill: #262626" transform="translate(122.314688 35.472)scale(0.12 -0.12)">
     <defs>
      <path id="DejaVuSans-4d" d="M 628 4666 
L 1569 4666 
L 2759 1491 
L 3956 4666 
L 4897 4666 
L 4897 0 
L 4281 0 
L 4281 4097 
L 3078 897 
L 2444 897 
L 1241 4097 
L 1241 0 
L 628 0 
L 628 4666 
z
" transform="scale(0.015625)"/>
      <path id="DejaVuSans-64" d="M 2906 2969 
L 2906 4863 
L 3481 4863 
L 3481 0 
L 2906 0 
L 2906 525 
Q 2725 213 2448 61 
Q 2172 -91 1784 -91 
Q 1150 -91 751 415 
Q 353 922 353 1747 
Q 353 2572 751 3078 
Q 1150 3584 1784 3584 
Q 2172 3584 2448 3432 
Q 2725 3281 2906 2969 
z
M 947 1747 
Q 947 1113 1208 752 
Q 1469 391 1925 391 
Q 2381 391 2643 752 
Q 2906 1113 2906 1747 
Q 2906 2381 2643 2742 
Q 2381 3103 1925 3103 
Q 1469 3103 1208 2742 
Q 947 2381 947 1747 
z
" transform="scale(0.015625)"/>
      <path id="DejaVuSans-6c" d="M 603 4863 
L 1178 4863 
L 1178 0 
L 603 0 
L 603 4863 
z
" transform="scale(0.015625)"/>
      <path id="DejaVuSans-20" transform="scale(0.015625)"/>
      <path id="DejaVuSans-70" d="M 1159 525 
L 1159 -1331 
L 581 -1331 
L 581 3500 
L 1159 3500 
L 1159 2969 
Q 1341 3281 1617 3432 
Q 1894 3584 2278 3584 
Q 2916 3584 3314 3078 
Q 3713 2572 3713 1747 
Q 3713 922 3314 415 
Q 2916 -91 2278 -91 
Q 1894 -91 1617 61 
Q 1341 213 1159 525 
z
M 3116 1747 
Q 3116 2381 2855 2742 
Q 2594 3103 2138 3103 
Q 1681 3103 1420 2742 
Q 1159 2381 1159 1747 
Q 1159 1113 1420 752 
Q 1681 391 2138 391 
Q 2594 391 2855 752 
Q 3116 1113 3116 1747 
z
" transform="scale(0.015625)"/>
      <path id="DejaVuSans-66" d="M 2375 4863 
L 2375 4384 
L 1825 4384 
Q 1516 4384 1395 4259 
Q 1275 4134 1275 3809 
L 1275 3500 
L 2222 3500 
L 2222 3053 
L 1275 3053 
L 1275 0 
L 697 0 
L 697 3053 
L 147 3053 
L 147 3500 
L 697 3500 
L 697 3744 
Q 697 4328 969 4595 
Q 1241 4863 1831 4863 
L 2375 4863 
z
" transform="scale(0.015625)"/>
      <path id="DejaVuSans-6d" d="M 3328 2828 
Q 3544 3216 3844 3400 
Q 4144 3584 4550 3584 
Q 5097 3584 5394 3201 
Q 5691 2819 5691 2113 
L 5691 0 
L 5113 0 
L 5113 2094 
Q 5113 2597 4934 2840 
Q 4756 3084 4391 3084 
Q 3944 3084 3684 2787 
Q 3425 2491 3425 1978 
L 3425 0 
L 2847 0 
L 2847 2094 
Q 2847 2600 2669 2842 
Q 2491 3084 2119 3084 
Q 1678 3084 1418 2786 
Q 1159 2488 1159 1978 
L 1159 0 
L 581 0 
L 581 3500 
L 1159 3500 
L 1159 2956 
Q 1356 3278 1631 3431 
Q 1906 3584 2284 3584 
Q 2666 3584 2933 3390 
Q 3200 3197 3328 2828 
z
" transform="scale(0.015625)"/>
      <path id="DejaVuSans-76" d="M 191 3500 
L 800 3500 
L 1894 563 
L 2988 3500 
L 3597 3500 
L 2284 0 
L 1503 0 
L 191 3500 
z
" transform="scale(0.015625)"/>
      <path id="DejaVuSans-73" d="M 2834 3397 
L 2834 2853 
Q 2591 2978 2328 3040 
Q 2066 3103 1784 3103 
Q 1356 3103 1142 2972 
Q 928 2841 928 2578 
Q 928 2378 1081 2264 
Q 1234 2150 1697 2047 
L 1894 2003 
Q 2506 1872 2764 1633 
Q 3022 1394 3022 966 
Q 3022 478 2636 193 
Q 2250 -91 1575 -91 
Q 1294 -91 989 -36 
Q 684 19 347 128 
L 347 722 
Q 666 556 975 473 
Q 1284 391 1588 391 
Q 1994 391 2212 530 
Q 2431 669 2431 922 
Q 2431 1156 2273 1281 
Q 2116 1406 1581 1522 
L 1381 1569 
Q 847 1681 609 1914 
Q 372 2147 372 2553 
Q 372 3047 722 3315 
Q 1072 3584 1716 3584 
Q 2034 3584 2315 3537 
Q 2597 3491 2834 3397 
z
" transform="scale(0.015625)"/>
      <path id="DejaVuSans-23" d="M 3272 2816 
L 2363 2816 
L 2100 1772 
L 3016 1772 
L 3272 2816 
z
M 2803 4594 
L 2478 3297 
L 3391 3297 
L 3719 4594 
L 4219 4594 
L 3897 3297 
L 4872 3297 
L 4872 2816 
L 3775 2816 
L 3519 1772 
L 4513 1772 
L 4513 1294 
L 3397 1294 
L 3072 0 
L 2572 0 
L 2894 1294 
L 1978 1294 
L 1656 0 
L 1153 0 
L 1478 1294 
L 494 1294 
L 494 1772 
L 1594 1772 
L 1856 2816 
L 850 2816 
L 850 3297 
L 1978 3297 
L 2297 4594 
L 2803 4594 
z
" transform="scale(0.015625)"/>
     </defs>
     <use xlink:href="#DejaVuSans-4d"/>
     <use xlink:href="#DejaVuSans-6f" x="86.279297"/>
     <use xlink:href="#DejaVuSans-64" x="147.460938"/>
     <use xlink:href="#DejaVuSans-65" x="210.9375"/>
     <use xlink:href="#DejaVuSans-6c" x="272.460938"/>
     <use xlink:href="#DejaVuSans-20" x="300.244141"/>
     <use xlink:href="#DejaVuSans-70" x="332.03125"/>
     <use xlink:href="#DejaVuSans-65" x="395.507812"/>
     <use xlink:href="#DejaVuSans-72" x="457.03125"/>
     <use xlink:href="#DejaVuSans-66" x="498.144531"/>
     <use xlink:href="#DejaVuSans-6f" x="533.349609"/>
     <use xlink:href="#DejaVuSans-72" x="594.53125"/>
     <use xlink:href="#DejaVuSans-6d" x="633.894531"/>
     <use xlink:href="#DejaVuSans-61" x="731.306641"/>
     <use xlink:href="#DejaVuSans-6e" x="792.585938"/>
     <use xlink:href="#DejaVuSans-63" x="855.964844"/>
     <use xlink:href="#DejaVuSans-65" x="910.945312"/>
     <use xlink:href="#DejaVuSans-20" x="972.46875"/>
     <use xlink:href="#DejaVuSans-76" x="1004.255859"/>
     <use xlink:href="#DejaVuSans-73" x="1063.435547"/>
     <use xlink:href="#DejaVuSans-2e" x="1115.535156"/>
     <use xlink:href="#DejaVuSans-20" x="1147.322266"/>
     <use xlink:href="#DejaVuSans-23" x="1179.109375"/>
     <use xlink:href="#DejaVuSans-20" x="1262.898438"/>
     <use xlink:href="#DejaVuSans-6f" x="1294.685547"/>
     <use xlink:href="#DejaVuSans-66" x="1355.867188"/>
     <use xlink:href="#DejaVuSans-20" x="1391.072266"/>
     <use xlink:href="#DejaVuSans-69" x="1422.859375"/>
     <use xlink:href="#DejaVuSans-74" x="1450.642578"/>
     <use xlink:href="#DejaVuSans-65" x="1489.851562"/>
     <use xlink:href="#DejaVuSans-72" x="1551.375"/>
     <use xlink:href="#DejaVuSans-61" x="1592.488281"/>
     <use xlink:href="#DejaVuSans-74" x="1653.767578"/>
     <use xlink:href="#DejaVuSans-69" x="1692.976562"/>
     <use xlink:href="#DejaVuSans-6f" x="1720.759766"/>
     <use xlink:href="#DejaVuSans-6e" x="1781.941406"/>
     <use xlink:href="#DejaVuSans-73" x="1845.320312"/>
    </g>
   </g>
  </g>
 </g>
 <defs>
  <clipPath id="p5bc1252358">
   <rect x="57.6" y="41.472" width="357.12" height="266.112"/>
  </clipPath>
 </defs>
</svg>
