<?xml version="1.0" encoding="utf-8" standalone="no"?>
<!DOCTYPE svg PUBLIC "-//W3C//DTD SVG 1.1//EN"
  "http://www.w3.org/Graphics/SVG/1.1/DTD/svg11.dtd">
<svg height="345.6pt" version="1.1" viewBox="0 0 460.8 345.6" width="460.8pt" xmlns="http://www.w3.org/2000/svg" xmlns:xlink="http://www.w3.org/1999/xlink">
 <metadata>
  <rdf:RDF xmlns:cc="http://creativecommons.org/ns#" xmlns:dc="http://purl.org/dc/elements/1.1/" xmlns:rdf="http://www.w3.org/1999/02/22-rdf-syntax-ns#">
   <cc:Work>
    <dc:type rdf:resource="http://purl.org/dc/dcmitype/StillImage"/>
    <dc:date>2021-08-03T17:18:03.998319</dc:date>
    <dc:format>image/svg+xml</dc:format>
    <dc:creator>
     <cc:Agent>
      <dc:title>Matplotlib v3.4.2, https://matplotlib.org/</dc:title>
     </cc:Agent>
    </dc:creator>
   </cc:Work>
  </rdf:RDF>
 </metadata>
 <defs>
  <style type="text/css">*{stroke-linecap:butt;stroke-linejoin:round;}</style>
 </defs>
 <g id="figure_1">
  <g id="patch_1">
   <path d="M 0 345.6 
L 460.8 345.6 
L 460.8 0 
L 0 0 
z
" style="fill:#ffffff;"/>
  </g>
  <g id="axes_1">
   <g id="patch_2">
    <path d="M 57.6 307.584 
L 414.72 307.584 
L 414.72 41.472 
L 57.6 41.472 
z
" style="fill:#ffffff;"/>
   </g>
   <g id="matplotlib.axis_1">
    <g id="xtick_1">
     <g id="line2d_1">
      <path clip-path="url(#pd9a8859b04)" d="M 72.201297 307.584 
L 72.201297 41.472 
" style="fill:none;stroke:#cccccc;stroke-linecap:round;stroke-width:0.8;"/>
     </g>
     <g id="text_1">
      <!-- 0 -->
      <g style="fill:#262626;" transform="translate(69.020047 322.182437)scale(0.1 -0.1)">
       <defs>
        <path d="M 2034 4250 
Q 1547 4250 1301 3770 
Q 1056 3291 1056 2328 
Q 1056 1369 1301 889 
Q 1547 409 2034 409 
Q 2525 409 2770 889 
Q 3016 1369 3016 2328 
Q 3016 3291 2770 3770 
Q 2525 4250 2034 4250 
z
M 2034 4750 
Q 2819 4750 3233 4129 
Q 3647 3509 3647 2328 
Q 3647 1150 3233 529 
Q 2819 -91 2034 -91 
Q 1250 -91 836 529 
Q 422 1150 422 2328 
Q 422 3509 836 4129 
Q 1250 4750 2034 4750 
z
" id="DejaVuSans-30" transform="scale(0.015625)"/>
       </defs>
       <use xlink:href="#DejaVuSans-30"/>
      </g>
     </g>
    </g>
    <g id="xtick_2">
     <g id="line2d_2">
      <path clip-path="url(#pd9a8859b04)" d="M 112.987044 307.584 
L 112.987044 41.472 
" style="fill:none;stroke:#cccccc;stroke-linecap:round;stroke-width:0.8;"/>
     </g>
     <g id="text_2">
      <!-- 25 -->
      <g style="fill:#262626;" transform="translate(106.624544 322.182437)scale(0.1 -0.1)">
       <defs>
        <path d="M 1228 531 
L 3431 531 
L 3431 0 
L 469 0 
L 469 531 
Q 828 903 1448 1529 
Q 2069 2156 2228 2338 
Q 2531 2678 2651 2914 
Q 2772 3150 2772 3378 
Q 2772 3750 2511 3984 
Q 2250 4219 1831 4219 
Q 1534 4219 1204 4116 
Q 875 4013 500 3803 
L 500 4441 
Q 881 4594 1212 4672 
Q 1544 4750 1819 4750 
Q 2544 4750 2975 4387 
Q 3406 4025 3406 3419 
Q 3406 3131 3298 2873 
Q 3191 2616 2906 2266 
Q 2828 2175 2409 1742 
Q 1991 1309 1228 531 
z
" id="DejaVuSans-32" transform="scale(0.015625)"/>
        <path d="M 691 4666 
L 3169 4666 
L 3169 4134 
L 1269 4134 
L 1269 2991 
Q 1406 3038 1543 3061 
Q 1681 3084 1819 3084 
Q 2600 3084 3056 2656 
Q 3513 2228 3513 1497 
Q 3513 744 3044 326 
Q 2575 -91 1722 -91 
Q 1428 -91 1123 -41 
Q 819 9 494 109 
L 494 744 
Q 775 591 1075 516 
Q 1375 441 1709 441 
Q 2250 441 2565 725 
Q 2881 1009 2881 1497 
Q 2881 1984 2565 2268 
Q 2250 2553 1709 2553 
Q 1456 2553 1204 2497 
Q 953 2441 691 2322 
L 691 4666 
z
" id="DejaVuSans-35" transform="scale(0.015625)"/>
       </defs>
       <use xlink:href="#DejaVuSans-32"/>
       <use x="63.623047" xlink:href="#DejaVuSans-35"/>
      </g>
     </g>
    </g>
    <g id="xtick_3">
     <g id="line2d_3">
      <path clip-path="url(#pd9a8859b04)" d="M 153.772791 307.584 
L 153.772791 41.472 
" style="fill:none;stroke:#cccccc;stroke-linecap:round;stroke-width:0.8;"/>
     </g>
     <g id="text_3">
      <!-- 50 -->
      <g style="fill:#262626;" transform="translate(147.410291 322.182437)scale(0.1 -0.1)">
       <use xlink:href="#DejaVuSans-35"/>
       <use x="63.623047" xlink:href="#DejaVuSans-30"/>
      </g>
     </g>
    </g>
    <g id="xtick_4">
     <g id="line2d_4">
      <path clip-path="url(#pd9a8859b04)" d="M 194.558538 307.584 
L 194.558538 41.472 
" style="fill:none;stroke:#cccccc;stroke-linecap:round;stroke-width:0.8;"/>
     </g>
     <g id="text_4">
      <!-- 75 -->
      <g style="fill:#262626;" transform="translate(188.196038 322.182437)scale(0.1 -0.1)">
       <defs>
        <path d="M 525 4666 
L 3525 4666 
L 3525 4397 
L 1831 0 
L 1172 0 
L 2766 4134 
L 525 4134 
L 525 4666 
z
" id="DejaVuSans-37" transform="scale(0.015625)"/>
       </defs>
       <use xlink:href="#DejaVuSans-37"/>
       <use x="63.623047" xlink:href="#DejaVuSans-35"/>
      </g>
     </g>
    </g>
    <g id="xtick_5">
     <g id="line2d_5">
      <path clip-path="url(#pd9a8859b04)" d="M 235.344285 307.584 
L 235.344285 41.472 
" style="fill:none;stroke:#cccccc;stroke-linecap:round;stroke-width:0.8;"/>
     </g>
     <g id="text_5">
      <!-- 100 -->
      <g style="fill:#262626;" transform="translate(225.800535 322.182437)scale(0.1 -0.1)">
       <defs>
        <path d="M 794 531 
L 1825 531 
L 1825 4091 
L 703 3866 
L 703 4441 
L 1819 4666 
L 2450 4666 
L 2450 531 
L 3481 531 
L 3481 0 
L 794 0 
L 794 531 
z
" id="DejaVuSans-31" transform="scale(0.015625)"/>
       </defs>
       <use xlink:href="#DejaVuSans-31"/>
       <use x="63.623047" xlink:href="#DejaVuSans-30"/>
       <use x="127.246094" xlink:href="#DejaVuSans-30"/>
      </g>
     </g>
    </g>
    <g id="xtick_6">
     <g id="line2d_6">
      <path clip-path="url(#pd9a8859b04)" d="M 276.130032 307.584 
L 276.130032 41.472 
" style="fill:none;stroke:#cccccc;stroke-linecap:round;stroke-width:0.8;"/>
     </g>
     <g id="text_6">
      <!-- 125 -->
      <g style="fill:#262626;" transform="translate(266.586282 322.182437)scale(0.1 -0.1)">
       <use xlink:href="#DejaVuSans-31"/>
       <use x="63.623047" xlink:href="#DejaVuSans-32"/>
       <use x="127.246094" xlink:href="#DejaVuSans-35"/>
      </g>
     </g>
    </g>
    <g id="xtick_7">
     <g id="line2d_7">
      <path clip-path="url(#pd9a8859b04)" d="M 316.915779 307.584 
L 316.915779 41.472 
" style="fill:none;stroke:#cccccc;stroke-linecap:round;stroke-width:0.8;"/>
     </g>
     <g id="text_7">
      <!-- 150 -->
      <g style="fill:#262626;" transform="translate(307.372029 322.182437)scale(0.1 -0.1)">
       <use xlink:href="#DejaVuSans-31"/>
       <use x="63.623047" xlink:href="#DejaVuSans-35"/>
       <use x="127.246094" xlink:href="#DejaVuSans-30"/>
      </g>
     </g>
    </g>
    <g id="xtick_8">
     <g id="line2d_8">
      <path clip-path="url(#pd9a8859b04)" d="M 357.701526 307.584 
L 357.701526 41.472 
" style="fill:none;stroke:#cccccc;stroke-linecap:round;stroke-width:0.8;"/>
     </g>
     <g id="text_8">
      <!-- 175 -->
      <g style="fill:#262626;" transform="translate(348.157776 322.182437)scale(0.1 -0.1)">
       <use xlink:href="#DejaVuSans-31"/>
       <use x="63.623047" xlink:href="#DejaVuSans-37"/>
       <use x="127.246094" xlink:href="#DejaVuSans-35"/>
      </g>
     </g>
    </g>
    <g id="xtick_9">
     <g id="line2d_9">
      <path clip-path="url(#pd9a8859b04)" d="M 398.487273 307.584 
L 398.487273 41.472 
" style="fill:none;stroke:#cccccc;stroke-linecap:round;stroke-width:0.8;"/>
     </g>
     <g id="text_9">
      <!-- 200 -->
      <g style="fill:#262626;" transform="translate(388.943523 322.182437)scale(0.1 -0.1)">
       <use xlink:href="#DejaVuSans-32"/>
       <use x="63.623047" xlink:href="#DejaVuSans-30"/>
       <use x="127.246094" xlink:href="#DejaVuSans-30"/>
      </g>
     </g>
    </g>
    <g id="text_10">
     <!-- Auroc -->
     <g style="fill:#262626;" transform="translate(221.819375 335.860562)scale(0.1 -0.1)">
      <defs>
       <path d="M 2188 4044 
L 1331 1722 
L 3047 1722 
L 2188 4044 
z
M 1831 4666 
L 2547 4666 
L 4325 0 
L 3669 0 
L 3244 1197 
L 1141 1197 
L 716 0 
L 50 0 
L 1831 4666 
z
" id="DejaVuSans-41" transform="scale(0.015625)"/>
       <path d="M 544 1381 
L 544 3500 
L 1119 3500 
L 1119 1403 
Q 1119 906 1312 657 
Q 1506 409 1894 409 
Q 2359 409 2629 706 
Q 2900 1003 2900 1516 
L 2900 3500 
L 3475 3500 
L 3475 0 
L 2900 0 
L 2900 538 
Q 2691 219 2414 64 
Q 2138 -91 1772 -91 
Q 1169 -91 856 284 
Q 544 659 544 1381 
z
M 1991 3584 
L 1991 3584 
z
" id="DejaVuSans-75" transform="scale(0.015625)"/>
       <path d="M 2631 2963 
Q 2534 3019 2420 3045 
Q 2306 3072 2169 3072 
Q 1681 3072 1420 2755 
Q 1159 2438 1159 1844 
L 1159 0 
L 581 0 
L 581 3500 
L 1159 3500 
L 1159 2956 
Q 1341 3275 1631 3429 
Q 1922 3584 2338 3584 
Q 2397 3584 2469 3576 
Q 2541 3569 2628 3553 
L 2631 2963 
z
" id="DejaVuSans-72" transform="scale(0.015625)"/>
       <path d="M 1959 3097 
Q 1497 3097 1228 2736 
Q 959 2375 959 1747 
Q 959 1119 1226 758 
Q 1494 397 1959 397 
Q 2419 397 2687 759 
Q 2956 1122 2956 1747 
Q 2956 2369 2687 2733 
Q 2419 3097 1959 3097 
z
M 1959 3584 
Q 2709 3584 3137 3096 
Q 3566 2609 3566 1747 
Q 3566 888 3137 398 
Q 2709 -91 1959 -91 
Q 1206 -91 779 398 
Q 353 888 353 1747 
Q 353 2609 779 3096 
Q 1206 3584 1959 3584 
z
" id="DejaVuSans-6f" transform="scale(0.015625)"/>
       <path d="M 3122 3366 
L 3122 2828 
Q 2878 2963 2633 3030 
Q 2388 3097 2138 3097 
Q 1578 3097 1268 2742 
Q 959 2388 959 1747 
Q 959 1106 1268 751 
Q 1578 397 2138 397 
Q 2388 397 2633 464 
Q 2878 531 3122 666 
L 3122 134 
Q 2881 22 2623 -34 
Q 2366 -91 2075 -91 
Q 1284 -91 818 406 
Q 353 903 353 1747 
Q 353 2603 823 3093 
Q 1294 3584 2113 3584 
Q 2378 3584 2631 3529 
Q 2884 3475 3122 3366 
z
" id="DejaVuSans-63" transform="scale(0.015625)"/>
      </defs>
      <use xlink:href="#DejaVuSans-41"/>
      <use x="68.408203" xlink:href="#DejaVuSans-75"/>
      <use x="131.787109" xlink:href="#DejaVuSans-72"/>
      <use x="170.650391" xlink:href="#DejaVuSans-6f"/>
      <use x="231.832031" xlink:href="#DejaVuSans-63"/>
     </g>
    </g>
   </g>
   <g id="matplotlib.axis_2">
    <g id="ytick_1">
     <g id="line2d_10">
      <path clip-path="url(#pd9a8859b04)" d="M 57.6 284.892349 
L 414.72 284.892349 
" style="fill:none;stroke:#cccccc;stroke-linecap:round;stroke-width:0.8;"/>
     </g>
     <g id="text_11">
      <!-- 0.45 -->
      <g style="fill:#262626;" transform="translate(28.334375 288.691568)scale(0.1 -0.1)">
       <defs>
        <path d="M 684 794 
L 1344 794 
L 1344 0 
L 684 0 
L 684 794 
z
" id="DejaVuSans-2e" transform="scale(0.015625)"/>
        <path d="M 2419 4116 
L 825 1625 
L 2419 1625 
L 2419 4116 
z
M 2253 4666 
L 3047 4666 
L 3047 1625 
L 3713 1625 
L 3713 1100 
L 3047 1100 
L 3047 0 
L 2419 0 
L 2419 1100 
L 313 1100 
L 313 1709 
L 2253 4666 
z
" id="DejaVuSans-34" transform="scale(0.015625)"/>
       </defs>
       <use xlink:href="#DejaVuSans-30"/>
       <use x="63.623047" xlink:href="#DejaVuSans-2e"/>
       <use x="95.410156" xlink:href="#DejaVuSans-34"/>
       <use x="159.033203" xlink:href="#DejaVuSans-35"/>
      </g>
     </g>
    </g>
    <g id="ytick_2">
     <g id="line2d_11">
      <path clip-path="url(#pd9a8859b04)" d="M 57.6 244.192676 
L 414.72 244.192676 
" style="fill:none;stroke:#cccccc;stroke-linecap:round;stroke-width:0.8;"/>
     </g>
     <g id="text_12">
      <!-- 0.50 -->
      <g style="fill:#262626;" transform="translate(28.334375 247.991895)scale(0.1 -0.1)">
       <use xlink:href="#DejaVuSans-30"/>
       <use x="63.623047" xlink:href="#DejaVuSans-2e"/>
       <use x="95.410156" xlink:href="#DejaVuSans-35"/>
       <use x="159.033203" xlink:href="#DejaVuSans-30"/>
      </g>
     </g>
    </g>
    <g id="ytick_3">
     <g id="line2d_12">
      <path clip-path="url(#pd9a8859b04)" d="M 57.6 203.493003 
L 414.72 203.493003 
" style="fill:none;stroke:#cccccc;stroke-linecap:round;stroke-width:0.8;"/>
     </g>
     <g id="text_13">
      <!-- 0.55 -->
      <g style="fill:#262626;" transform="translate(28.334375 207.292222)scale(0.1 -0.1)">
       <use xlink:href="#DejaVuSans-30"/>
       <use x="63.623047" xlink:href="#DejaVuSans-2e"/>
       <use x="95.410156" xlink:href="#DejaVuSans-35"/>
       <use x="159.033203" xlink:href="#DejaVuSans-35"/>
      </g>
     </g>
    </g>
    <g id="ytick_4">
     <g id="line2d_13">
      <path clip-path="url(#pd9a8859b04)" d="M 57.6 162.79333 
L 414.72 162.79333 
" style="fill:none;stroke:#cccccc;stroke-linecap:round;stroke-width:0.8;"/>
     </g>
     <g id="text_14">
      <!-- 0.60 -->
      <g style="fill:#262626;" transform="translate(28.334375 166.592549)scale(0.1 -0.1)">
       <defs>
        <path d="M 2113 2584 
Q 1688 2584 1439 2293 
Q 1191 2003 1191 1497 
Q 1191 994 1439 701 
Q 1688 409 2113 409 
Q 2538 409 2786 701 
Q 3034 994 3034 1497 
Q 3034 2003 2786 2293 
Q 2538 2584 2113 2584 
z
M 3366 4563 
L 3366 3988 
Q 3128 4100 2886 4159 
Q 2644 4219 2406 4219 
Q 1781 4219 1451 3797 
Q 1122 3375 1075 2522 
Q 1259 2794 1537 2939 
Q 1816 3084 2150 3084 
Q 2853 3084 3261 2657 
Q 3669 2231 3669 1497 
Q 3669 778 3244 343 
Q 2819 -91 2113 -91 
Q 1303 -91 875 529 
Q 447 1150 447 2328 
Q 447 3434 972 4092 
Q 1497 4750 2381 4750 
Q 2619 4750 2861 4703 
Q 3103 4656 3366 4563 
z
" id="DejaVuSans-36" transform="scale(0.015625)"/>
       </defs>
       <use xlink:href="#DejaVuSans-30"/>
       <use x="63.623047" xlink:href="#DejaVuSans-2e"/>
       <use x="95.410156" xlink:href="#DejaVuSans-36"/>
       <use x="159.033203" xlink:href="#DejaVuSans-30"/>
      </g>
     </g>
    </g>
    <g id="ytick_5">
     <g id="line2d_14">
      <path clip-path="url(#pd9a8859b04)" d="M 57.6 122.093657 
L 414.72 122.093657 
" style="fill:none;stroke:#cccccc;stroke-linecap:round;stroke-width:0.8;"/>
     </g>
     <g id="text_15">
      <!-- 0.65 -->
      <g style="fill:#262626;" transform="translate(28.334375 125.892876)scale(0.1 -0.1)">
       <use xlink:href="#DejaVuSans-30"/>
       <use x="63.623047" xlink:href="#DejaVuSans-2e"/>
       <use x="95.410156" xlink:href="#DejaVuSans-36"/>
       <use x="159.033203" xlink:href="#DejaVuSans-35"/>
      </g>
     </g>
    </g>
    <g id="ytick_6">
     <g id="line2d_15">
      <path clip-path="url(#pd9a8859b04)" d="M 57.6 81.393984 
L 414.72 81.393984 
" style="fill:none;stroke:#cccccc;stroke-linecap:round;stroke-width:0.8;"/>
     </g>
     <g id="text_16">
      <!-- 0.70 -->
      <g style="fill:#262626;" transform="translate(28.334375 85.193203)scale(0.1 -0.1)">
       <use xlink:href="#DejaVuSans-30"/>
       <use x="63.623047" xlink:href="#DejaVuSans-2e"/>
       <use x="95.410156" xlink:href="#DejaVuSans-37"/>
       <use x="159.033203" xlink:href="#DejaVuSans-30"/>
      </g>
     </g>
    </g>
    <g id="text_17">
     <!-- Iteration -->
     <g style="fill:#262626;" transform="translate(22.254687 195.736594)rotate(-90)scale(0.1 -0.1)">
      <defs>
       <path d="M 628 4666 
L 1259 4666 
L 1259 0 
L 628 0 
L 628 4666 
z
" id="DejaVuSans-49" transform="scale(0.015625)"/>
       <path d="M 1172 4494 
L 1172 3500 
L 2356 3500 
L 2356 3053 
L 1172 3053 
L 1172 1153 
Q 1172 725 1289 603 
Q 1406 481 1766 481 
L 2356 481 
L 2356 0 
L 1766 0 
Q 1100 0 847 248 
Q 594 497 594 1153 
L 594 3053 
L 172 3053 
L 172 3500 
L 594 3500 
L 594 4494 
L 1172 4494 
z
" id="DejaVuSans-74" transform="scale(0.015625)"/>
       <path d="M 3597 1894 
L 3597 1613 
L 953 1613 
Q 991 1019 1311 708 
Q 1631 397 2203 397 
Q 2534 397 2845 478 
Q 3156 559 3463 722 
L 3463 178 
Q 3153 47 2828 -22 
Q 2503 -91 2169 -91 
Q 1331 -91 842 396 
Q 353 884 353 1716 
Q 353 2575 817 3079 
Q 1281 3584 2069 3584 
Q 2775 3584 3186 3129 
Q 3597 2675 3597 1894 
z
M 3022 2063 
Q 3016 2534 2758 2815 
Q 2500 3097 2075 3097 
Q 1594 3097 1305 2825 
Q 1016 2553 972 2059 
L 3022 2063 
z
" id="DejaVuSans-65" transform="scale(0.015625)"/>
       <path d="M 2194 1759 
Q 1497 1759 1228 1600 
Q 959 1441 959 1056 
Q 959 750 1161 570 
Q 1363 391 1709 391 
Q 2188 391 2477 730 
Q 2766 1069 2766 1631 
L 2766 1759 
L 2194 1759 
z
M 3341 1997 
L 3341 0 
L 2766 0 
L 2766 531 
Q 2569 213 2275 61 
Q 1981 -91 1556 -91 
Q 1019 -91 701 211 
Q 384 513 384 1019 
Q 384 1609 779 1909 
Q 1175 2209 1959 2209 
L 2766 2209 
L 2766 2266 
Q 2766 2663 2505 2880 
Q 2244 3097 1772 3097 
Q 1472 3097 1187 3025 
Q 903 2953 641 2809 
L 641 3341 
Q 956 3463 1253 3523 
Q 1550 3584 1831 3584 
Q 2591 3584 2966 3190 
Q 3341 2797 3341 1997 
z
" id="DejaVuSans-61" transform="scale(0.015625)"/>
       <path d="M 603 3500 
L 1178 3500 
L 1178 0 
L 603 0 
L 603 3500 
z
M 603 4863 
L 1178 4863 
L 1178 4134 
L 603 4134 
L 603 4863 
z
" id="DejaVuSans-69" transform="scale(0.015625)"/>
       <path d="M 3513 2113 
L 3513 0 
L 2938 0 
L 2938 2094 
Q 2938 2591 2744 2837 
Q 2550 3084 2163 3084 
Q 1697 3084 1428 2787 
Q 1159 2491 1159 1978 
L 1159 0 
L 581 0 
L 581 3500 
L 1159 3500 
L 1159 2956 
Q 1366 3272 1645 3428 
Q 1925 3584 2291 3584 
Q 2894 3584 3203 3211 
Q 3513 2838 3513 2113 
z
" id="DejaVuSans-6e" transform="scale(0.015625)"/>
      </defs>
      <use xlink:href="#DejaVuSans-49"/>
      <use x="29.492188" xlink:href="#DejaVuSans-74"/>
      <use x="68.701172" xlink:href="#DejaVuSans-65"/>
      <use x="130.224609" xlink:href="#DejaVuSans-72"/>
      <use x="171.337891" xlink:href="#DejaVuSans-61"/>
      <use x="232.617188" xlink:href="#DejaVuSans-74"/>
      <use x="271.826172" xlink:href="#DejaVuSans-69"/>
      <use x="299.609375" xlink:href="#DejaVuSans-6f"/>
      <use x="360.791016" xlink:href="#DejaVuSans-6e"/>
     </g>
    </g>
   </g>
   <g id="PolyCollection_1">
    <defs>
     <path d="M 73.832727 -198.6265 
L 73.832727 -132.651509 
L 75.464157 -116.378448 
L 77.095587 -109.433547 
L 78.727017 -198.587079 
L 80.358447 -93.628653 
L 81.989877 -129.405638 
L 83.621307 -125.862835 
L 85.252736 -140.109391 
L 86.884166 -172.206953 
L 88.515596 -113.259441 
L 90.147026 -124.710104 
L 91.778456 -152.023237 
L 93.409886 -126.196216 
L 95.041316 -107.478296 
L 96.672746 -112.149968 
L 98.304175 -201.306327 
L 99.935605 -127.43275 
L 101.567035 -142.827293 
L 103.198465 -114.987304 
L 104.829895 -110.978831 
L 106.461325 -143.425298 
L 108.092755 -97.272402 
L 109.724185 -128.60709 
L 111.355614 -159.085332 
L 112.987044 -105.79875 
L 114.618474 -158.244671 
L 116.249904 -136.693967 
L 117.881334 -150.303959 
L 119.512764 -115.148902 
L 121.144194 -193.523006 
L 122.775624 -90.608183 
L 124.407053 -135.167974 
L 126.038483 -89.607215 
L 127.669913 -162.86673 
L 129.301343 -144.254622 
L 130.932773 -87.583534 
L 132.564203 -110.826995 
L 134.195633 -72.6684 
L 135.827063 -50.112 
L 137.458492 -168.383032 
L 139.089922 -123.743387 
L 140.721352 -153.141234 
L 142.352782 -131.640566 
L 143.984212 -174.476249 
L 145.615642 -105.592822 
L 147.247072 -177.772345 
L 148.878502 -165.074089 
L 150.509931 -94.805635 
L 152.141361 -66.559227 
L 153.772791 -197.491257 
L 155.404221 -91.683466 
L 157.035651 -119.92296 
L 158.667081 -163.67973 
L 160.298511 -92.296519 
L 161.929941 -133.981167 
L 163.56137 -193.192467 
L 165.1928 -123.686937 
L 166.82423 -102.396471 
L 168.45566 -81.380477 
L 170.08709 -129.803449 
L 171.71852 -63.775899 
L 173.34995 -193.32022 
L 174.98138 -114.860449 
L 176.61281 -171.870191 
L 178.244239 -164.564828 
L 179.875669 -130.659569 
L 181.507099 -115.31698 
L 183.138529 -133.606731 
L 184.769959 -158.555359 
L 186.401389 -151.136321 
L 188.032819 -119.779209 
L 189.664249 -141.206506 
L 191.295678 -144.180462 
L 192.927108 -113.450483 
L 194.558538 -126.654756 
L 196.189968 -103.030586 
L 197.821398 -196.154769 
L 199.452828 -143.458571 
L 201.084258 -132.727079 
L 202.715688 -69.34874 
L 204.347117 -110.481369 
L 205.978547 -151.525221 
L 207.609977 -144.222199 
L 209.241407 -114.246278 
L 210.872837 -99.542275 
L 212.504267 -179.332256 
L 214.135697 -149.812592 
L 215.767127 -136.131142 
L 217.398556 -89.623148 
L 219.029986 -118.63538 
L 220.661416 -86.300649 
L 222.292846 -161.179597 
L 223.924276 -140.430233 
L 225.555706 -125.763171 
L 227.187136 -77.661931 
L 228.818566 -170.298659 
L 230.449995 -127.410106 
L 232.081425 -98.174245 
L 233.712855 -98.230966 
L 235.344285 -165.061899 
L 236.975715 -81.504363 
L 238.607145 -222.24592 
L 240.238575 -146.279721 
L 241.870005 -101.780219 
L 243.501434 -111.746573 
L 245.132864 -127.764439 
L 246.764294 -127.435213 
L 248.395724 -174.006715 
L 250.027154 -144.802327 
L 251.658584 -73.902645 
L 253.290014 -93.910796 
L 254.921444 -131.554414 
L 256.552873 -148.328553 
L 258.184303 -105.664102 
L 259.815733 -89.938313 
L 261.447163 -124.145997 
L 263.078593 -83.584579 
L 264.710023 -231.370521 
L 266.341453 -135.186621 
L 267.972883 -146.799007 
L 269.604312 -86.947071 
L 271.235742 -183.654497 
L 272.867172 -160.374237 
L 274.498602 -152.296279 
L 276.130032 -100.77432 
L 277.761462 -163.038574 
L 279.392892 -119.024105 
L 281.024322 -203.994467 
L 282.655751 -115.656228 
L 284.287181 -125.807777 
L 285.918611 -132.032608 
L 287.550041 -111.617899 
L 289.181471 -93.031413 
L 290.812901 -124.192181 
L 292.444331 -149.341908 
L 294.075761 -72.963113 
L 295.70719 -141.061604 
L 297.33862 -155.317335 
L 298.97005 -102.476694 
L 300.60148 -116.203861 
L 302.23291 -123.789912 
L 303.86434 -96.643165 
L 305.49577 -124.13124 
L 307.1272 -143.29761 
L 308.75863 -128.935254 
L 310.390059 -132.550609 
L 312.021489 -127.2194 
L 313.652919 -142.35546 
L 315.284349 -153.06956 
L 316.915779 -108.929138 
L 318.547209 -96.441943 
L 320.178639 -114.810884 
L 321.810069 -115.167215 
L 323.441498 -112.49937 
L 325.072928 -72.9436 
L 326.704358 -200.614623 
L 328.335788 -128.508393 
L 329.967218 -125.25376 
L 331.598648 -115.946248 
L 333.230078 -110.052962 
L 334.861508 -127.136724 
L 336.492937 -177.029553 
L 338.124367 -117.055238 
L 339.755797 -96.586874 
L 341.387227 -171.913171 
L 343.018657 -117.699329 
L 344.650087 -112.484612 
L 346.281517 -153.086994 
L 347.912947 -144.27349 
L 349.544376 -81.646845 
L 351.175806 -50.748262 
L 352.807236 -128.771417 
L 354.438666 -89.17408 
L 356.070096 -177.632743 
L 357.701526 -127.773084 
L 359.332956 -125.037086 
L 360.964386 -145.039806 
L 362.595815 -207.047759 
L 364.227245 -167.943192 
L 365.858675 -119.490749 
L 367.490105 -115.813987 
L 369.121535 -174.897539 
L 370.752965 -122.032489 
L 372.384395 -144.45818 
L 374.015825 -118.286572 
L 375.647254 -119.45131 
L 377.278684 -157.98296 
L 378.910114 -207.976665 
L 380.541544 -153.607801 
L 382.172974 -125.767074 
L 383.804404 -151.833376 
L 385.435834 -124.194597 
L 387.067264 -73.814699 
L 388.698693 -206.372091 
L 390.330123 -123.034969 
L 391.961553 -100.212249 
L 393.592983 -161.554571 
L 395.224413 -136.905365 
L 396.855843 -107.481119 
L 398.487273 -102.155582 
L 398.487273 -230.479213 
L 398.487273 -230.479213 
L 396.855843 -230.422985 
L 395.224413 -191.066419 
L 393.592983 -271.013011 
L 391.961553 -205.204542 
L 390.330123 -234.592338 
L 388.698693 -292.032 
L 387.067264 -248.597945 
L 385.435834 -251.964445 
L 383.804404 -232.000217 
L 382.172974 -224.452815 
L 380.541544 -233.199939 
L 378.910114 -272.615087 
L 377.278684 -281.476931 
L 375.647254 -241.332912 
L 374.015825 -210.48884 
L 372.384395 -272.847286 
L 370.752965 -192.247961 
L 369.121535 -252.813504 
L 367.490105 -163.739487 
L 365.858675 -158.664215 
L 364.227245 -268.773604 
L 362.595815 -264.362294 
L 360.964386 -229.201418 
L 359.332956 -265.11283 
L 357.701526 -179.1439 
L 356.070096 -272.656384 
L 354.438666 -180.539048 
L 352.807236 -267.377698 
L 351.175806 -169.488259 
L 349.544376 -231.778939 
L 347.912947 -252.014833 
L 346.281517 -211.14358 
L 344.650087 -191.603077 
L 343.018657 -229.440137 
L 341.387227 -213.712021 
L 339.755797 -190.458253 
L 338.124367 -237.054212 
L 336.492937 -273.743457 
L 334.861508 -217.857678 
L 333.230078 -221.425003 
L 331.598648 -236.602522 
L 329.967218 -248.381561 
L 328.335788 -229.286726 
L 326.704358 -258.670549 
L 325.072928 -169.988304 
L 323.441498 -255.90233 
L 321.810069 -211.858977 
L 320.178639 -248.071037 
L 318.547209 -232.54812 
L 316.915779 -223.012897 
L 315.284349 -171.659764 
L 313.652919 -282.107219 
L 312.021489 -218.598836 
L 310.390059 -262.863235 
L 308.75863 -183.156703 
L 307.1272 -258.934414 
L 305.49577 -176.694439 
L 303.86434 -227.500855 
L 302.23291 -255.441155 
L 300.60148 -218.585577 
L 298.97005 -207.875752 
L 297.33862 -240.21302 
L 295.70719 -241.455089 
L 294.075761 -214.794717 
L 292.444331 -257.728155 
L 290.812901 -281.409702 
L 289.181471 -228.533255 
L 287.550041 -264.185316 
L 285.918611 -202.711171 
L 284.287181 -215.842875 
L 282.655751 -269.039904 
L 281.024322 -256.735793 
L 279.392892 -213.79464 
L 277.761462 -238.660365 
L 276.130032 -227.462235 
L 274.498602 -269.937626 
L 272.867172 -248.080691 
L 271.235742 -231.186422 
L 269.604312 -207.677878 
L 267.972883 -255.0478 
L 266.341453 -191.885623 
L 264.710023 -277.787101 
L 263.078593 -203.895359 
L 261.447163 -260.331943 
L 259.815733 -133.965116 
L 258.184303 -220.907466 
L 256.552873 -225.318314 
L 254.921444 -255.210029 
L 253.290014 -243.400001 
L 251.658584 -201.501483 
L 250.027154 -213.06889 
L 248.395724 -245.413376 
L 246.764294 -239.246526 
L 245.132864 -226.944615 
L 243.501434 -205.910953 
L 241.870005 -198.079531 
L 240.238575 -244.980973 
L 238.607145 -275.190012 
L 236.975715 -185.922525 
L 235.344285 -268.429756 
L 233.712855 -159.504885 
L 232.081425 -211.494101 
L 230.449995 -197.933518 
L 228.818566 -263.9057 
L 227.187136 -214.619834 
L 225.555706 -265.559582 
L 223.924276 -270.359219 
L 222.292846 -246.228318 
L 220.661416 -209.170176 
L 219.029986 -227.641678 
L 217.398556 -208.200832 
L 215.767127 -236.830837 
L 214.135697 -225.503329 
L 212.504267 -231.010706 
L 210.872837 -199.641116 
L 209.241407 -255.96434 
L 207.609977 -210.50588 
L 205.978547 -269.15063 
L 204.347117 -215.294049 
L 202.715688 -236.625408 
L 201.084258 -235.488573 
L 199.452828 -262.697783 
L 197.821398 -253.705581 
L 196.189968 -263.201645 
L 194.558538 -258.853402 
L 192.927108 -182.05065 
L 191.295678 -262.668784 
L 189.664249 -263.085824 
L 188.032819 -168.198913 
L 186.401389 -238.065772 
L 184.769959 -227.858898 
L 183.138529 -220.630643 
L 181.507099 -232.110218 
L 179.875669 -220.085006 
L 178.244239 -252.633706 
L 176.61281 -207.315741 
L 174.98138 -212.315973 
L 173.34995 -268.774174 
L 171.71852 -132.732792 
L 170.08709 -257.253055 
L 168.45566 -191.874388 
L 166.82423 -253.62568 
L 165.1928 -218.81051 
L 163.56137 -268.515267 
L 161.929941 -233.451325 
L 160.298511 -209.43867 
L 158.667081 -225.077185 
L 157.035651 -286.637635 
L 155.404221 -226.168112 
L 153.772791 -253.663427 
L 152.141361 -191.411218 
L 150.509931 -199.513739 
L 148.878502 -227.422815 
L 147.247072 -225.984802 
L 145.615642 -202.648936 
L 143.984212 -233.32423 
L 142.352782 -263.394491 
L 140.721352 -270.350793 
L 139.089922 -227.207968 
L 137.458492 -278.70444 
L 135.827063 -191.823798 
L 134.195633 -236.209568 
L 132.564203 -206.678071 
L 130.932773 -230.630825 
L 129.301343 -253.709185 
L 127.669913 -287.684544 
L 126.038483 -146.01108 
L 124.407053 -285.060731 
L 122.775624 -204.050486 
L 121.144194 -289.88899 
L 119.512764 -196.735752 
L 117.881334 -208.498417 
L 116.249904 -252.023718 
L 114.618474 -228.369804 
L 112.987044 -273.950968 
L 111.355614 -256.662473 
L 109.724185 -211.283584 
L 108.092755 -183.653473 
L 106.461325 -266.214407 
L 104.829895 -183.536168 
L 103.198465 -227.279354 
L 101.567035 -272.22211 
L 99.935605 -216.428045 
L 98.304175 -280.545121 
L 96.672746 -182.737783 
L 95.041316 -255.759321 
L 93.409886 -243.705808 
L 91.778456 -247.939472 
L 90.147026 -222.480926 
L 88.515596 -231.197022 
L 86.884166 -264.796132 
L 85.252736 -290.692701 
L 83.621307 -266.70505 
L 81.989877 -206.969539 
L 80.358447 -171.064717 
L 78.727017 -270.519546 
L 77.095587 -248.499074 
L 75.464157 -188.684746 
L 73.832727 -198.6265 
z
" id="m501527c4e6" style="stroke:#ffffff;stroke-opacity:0.2;"/>
    </defs>
    <g clip-path="url(#pd9a8859b04)">
     <use style="fill:#1f77b4;fill-opacity:0.2;stroke:#ffffff;stroke-opacity:0.2;" x="0" xlink:href="#m501527c4e6" y="345.6"/>
    </g>
   </g>
   <g id="line2d_16">
    <path clip-path="url(#pd9a8859b04)" d="M 73.832727 179.960996 
L 75.464157 193.068403 
L 77.095587 166.63369 
L 78.727017 111.046688 
L 80.358447 213.253315 
L 81.989877 177.412411 
L 83.621307 149.316057 
L 85.252736 130.198954 
L 86.884166 127.098458 
L 88.515596 173.371768 
L 90.147026 172.004485 
L 91.778456 145.618646 
L 93.409886 160.648988 
L 95.041316 163.981191 
L 96.672746 198.156124 
L 98.304175 104.674276 
L 99.935605 173.669603 
L 101.567035 138.075299 
L 103.198465 174.466671 
L 104.829895 198.3425 
L 106.461325 140.780147 
L 108.092755 205.137063 
L 109.724185 175.654663 
L 111.355614 137.726097 
L 112.987044 155.725141 
L 114.618474 152.292762 
L 116.249904 151.241157 
L 117.881334 166.198812 
L 119.512764 189.657673 
L 121.144194 103.894002 
L 122.775624 198.270666 
L 124.407053 135.485647 
L 126.038483 227.790852 
L 127.669913 120.324363 
L 129.301343 146.618097 
L 130.932773 186.492821 
L 132.564203 186.847467 
L 134.195633 191.161016 
L 135.827063 224.632101 
L 137.458492 122.056264 
L 139.089922 170.124323 
L 140.721352 133.853987 
L 142.352782 148.082472 
L 143.984212 141.699761 
L 145.615642 191.479121 
L 147.247072 143.721427 
L 148.878502 149.351548 
L 150.509931 198.440313 
L 152.141361 216.614777 
L 153.772791 120.022658 
L 155.404221 186.674211 
L 157.035651 142.319702 
L 158.667081 151.221542 
L 160.298511 194.732405 
L 161.929941 161.883754 
L 163.56137 114.746133 
L 165.1928 174.351277 
L 166.82423 167.588925 
L 168.45566 208.972567 
L 170.08709 152.071748 
L 171.71852 247.345654 
L 173.34995 114.552803 
L 174.98138 182.011789 
L 176.61281 156.007034 
L 178.244239 137.000733 
L 179.875669 170.227712 
L 181.507099 171.886401 
L 183.138529 168.481313 
L 184.769959 152.392871 
L 186.401389 150.998954 
L 188.032819 201.610939 
L 189.664249 143.453835 
L 191.295678 142.175377 
L 192.927108 197.849433 
L 194.558538 152.845921 
L 196.189968 162.483884 
L 197.821398 120.669825 
L 199.452828 142.521823 
L 201.084258 161.492174 
L 202.715688 192.612926 
L 204.347117 182.712291 
L 205.978547 135.262075 
L 207.609977 168.23596 
L 209.241407 160.494691 
L 210.872837 196.008305 
L 212.504267 140.428519 
L 214.135697 157.94204 
L 215.767127 159.119011 
L 217.398556 196.68801 
L 219.029986 172.461471 
L 220.661416 197.864588 
L 222.292846 141.896043 
L 223.924276 140.205274 
L 225.555706 149.938623 
L 227.187136 199.459117 
L 228.818566 128.497821 
L 230.449995 182.928188 
L 232.081425 190.765827 
L 233.712855 216.732074 
L 235.344285 128.854172 
L 236.975715 211.886556 
L 238.607145 96.882034 
L 240.238575 149.969653 
L 241.870005 195.670125 
L 243.501434 186.771237 
L 245.132864 168.245473 
L 246.764294 162.259131 
L 248.395724 135.889954 
L 250.027154 166.664391 
L 251.658584 207.897936 
L 253.290014 176.944601 
L 254.921444 152.217779 
L 256.552873 158.776567 
L 258.184303 182.314216 
L 259.815733 233.648286 
L 261.447163 153.36103 
L 263.078593 201.860031 
L 264.710023 91.021189 
L 266.341453 182.063878 
L 267.972883 144.676597 
L 269.604312 198.287526 
L 271.235742 138.179541 
L 272.867172 141.372536 
L 274.498602 134.483047 
L 276.130032 181.481723 
L 277.761462 144.75053 
L 279.392892 179.190628 
L 281.024322 115.23487 
L 282.655751 153.251934 
L 284.287181 174.774674 
L 285.918611 178.228111 
L 287.550041 157.698393 
L 289.181471 184.817666 
L 290.812901 142.799058 
L 292.444331 142.064969 
L 294.075761 201.721085 
L 295.70719 154.341654 
L 297.33862 147.834823 
L 298.97005 190.423777 
L 300.60148 178.205281 
L 302.23291 155.984467 
L 303.86434 183.52799 
L 305.49577 195.18716 
L 307.1272 144.483988 
L 308.75863 189.554021 
L 310.390059 147.893078 
L 312.021489 172.690882 
L 313.652919 133.368661 
L 315.284349 183.235338 
L 316.915779 179.628982 
L 318.547209 181.104969 
L 320.178639 164.159039 
L 321.810069 182.086904 
L 323.441498 161.39915 
L 325.072928 224.134048 
L 326.704358 115.957414 
L 328.335788 166.702441 
L 329.967218 158.78234 
L 333.230078 179.861018 
L 334.861508 173.102799 
L 336.492937 120.213495 
L 338.124367 168.545275 
L 339.755797 202.077437 
L 341.387227 152.787404 
L 343.018657 172.030267 
L 344.650087 193.556156 
L 346.281517 163.484713 
L 347.912947 147.455838 
L 349.544376 188.887108 
L 351.175806 235.481739 
L 352.807236 147.525442 
L 354.438666 210.743436 
L 356.070096 120.455437 
L 357.701526 192.141508 
L 359.332956 150.525042 
L 360.964386 158.479388 
L 362.595815 109.894974 
L 364.227245 127.241602 
L 365.858675 206.522518 
L 367.490105 205.823263 
L 369.121535 131.744479 
L 370.752965 188.459775 
L 372.384395 136.947267 
L 374.015825 181.212294 
L 375.647254 165.207889 
L 377.278684 125.870054 
L 378.910114 105.304124 
L 380.541544 152.19613 
L 382.172974 170.490056 
L 383.804404 153.683203 
L 385.435834 157.520479 
L 387.067264 184.393678 
L 388.698693 96.397954 
L 390.330123 166.786346 
L 391.961553 192.891604 
L 393.592983 129.316209 
L 395.224413 181.614108 
L 396.855843 176.647948 
L 398.487273 179.282602 
L 398.487273 179.282602 
" style="fill:none;stroke:#1f77b4;stroke-linecap:round;stroke-width:1.5;"/>
   </g>
   <g id="patch_3">
    <path d="M 57.6 307.584 
L 57.6 41.472 
" style="fill:none;stroke:#cccccc;stroke-linecap:square;stroke-linejoin:miter;stroke-width:0.8;"/>
   </g>
   <g id="patch_4">
    <path d="M 414.72 307.584 
L 414.72 41.472 
" style="fill:none;stroke:#cccccc;stroke-linecap:square;stroke-linejoin:miter;stroke-width:0.8;"/>
   </g>
   <g id="patch_5">
    <path d="M 57.6 307.584 
L 414.72 307.584 
" style="fill:none;stroke:#cccccc;stroke-linecap:square;stroke-linejoin:miter;stroke-width:0.8;"/>
   </g>
   <g id="patch_6">
    <path d="M 57.6 41.472 
L 414.72 41.472 
" style="fill:none;stroke:#cccccc;stroke-linecap:square;stroke-linejoin:miter;stroke-width:0.8;"/>
   </g>
   <g id="text_18">
    <!-- Model performance vs. # of iterations -->
    <g style="fill:#262626;" transform="translate(122.314688 35.472)scale(0.12 -0.12)">
     <defs>
      <path d="M 628 4666 
L 1569 4666 
L 2759 1491 
L 3956 4666 
L 4897 4666 
L 4897 0 
L 4281 0 
L 4281 4097 
L 3078 897 
L 2444 897 
L 1241 4097 
L 1241 0 
L 628 0 
L 628 4666 
z
" id="DejaVuSans-4d" transform="scale(0.015625)"/>
      <path d="M 2906 2969 
L 2906 4863 
L 3481 4863 
L 3481 0 
L 2906 0 
L 2906 525 
Q 2725 213 2448 61 
Q 2172 -91 1784 -91 
Q 1150 -91 751 415 
Q 353 922 353 1747 
Q 353 2572 751 3078 
Q 1150 3584 1784 3584 
Q 2172 3584 2448 3432 
Q 2725 3281 2906 2969 
z
M 947 1747 
Q 947 1113 1208 752 
Q 1469 391 1925 391 
Q 2381 391 2643 752 
Q 2906 1113 2906 1747 
Q 2906 2381 2643 2742 
Q 2381 3103 1925 3103 
Q 1469 3103 1208 2742 
Q 947 2381 947 1747 
z
" id="DejaVuSans-64" transform="scale(0.015625)"/>
      <path d="M 603 4863 
L 1178 4863 
L 1178 0 
L 603 0 
L 603 4863 
z
" id="DejaVuSans-6c" transform="scale(0.015625)"/>
      <path id="DejaVuSans-20" transform="scale(0.015625)"/>
      <path d="M 1159 525 
L 1159 -1331 
L 581 -1331 
L 581 3500 
L 1159 3500 
L 1159 2969 
Q 1341 3281 1617 3432 
Q 1894 3584 2278 3584 
Q 2916 3584 3314 3078 
Q 3713 2572 3713 1747 
Q 3713 922 3314 415 
Q 2916 -91 2278 -91 
Q 1894 -91 1617 61 
Q 1341 213 1159 525 
z
M 3116 1747 
Q 3116 2381 2855 2742 
Q 2594 3103 2138 3103 
Q 1681 3103 1420 2742 
Q 1159 2381 1159 1747 
Q 1159 1113 1420 752 
Q 1681 391 2138 391 
Q 2594 391 2855 752 
Q 3116 1113 3116 1747 
z
" id="DejaVuSans-70" transform="scale(0.015625)"/>
      <path d="M 2375 4863 
L 2375 4384 
L 1825 4384 
Q 1516 4384 1395 4259 
Q 1275 4134 1275 3809 
L 1275 3500 
L 2222 3500 
L 2222 3053 
L 1275 3053 
L 1275 0 
L 697 0 
L 697 3053 
L 147 3053 
L 147 3500 
L 697 3500 
L 697 3744 
Q 697 4328 969 4595 
Q 1241 4863 1831 4863 
L 2375 4863 
z
" id="DejaVuSans-66" transform="scale(0.015625)"/>
      <path d="M 3328 2828 
Q 3544 3216 3844 3400 
Q 4144 3584 4550 3584 
Q 5097 3584 5394 3201 
Q 5691 2819 5691 2113 
L 5691 0 
L 5113 0 
L 5113 2094 
Q 5113 2597 4934 2840 
Q 4756 3084 4391 3084 
Q 3944 3084 3684 2787 
Q 3425 2491 3425 1978 
L 3425 0 
L 2847 0 
L 2847 2094 
Q 2847 2600 2669 2842 
Q 2491 3084 2119 3084 
Q 1678 3084 1418 2786 
Q 1159 2488 1159 1978 
L 1159 0 
L 581 0 
L 581 3500 
L 1159 3500 
L 1159 2956 
Q 1356 3278 1631 3431 
Q 1906 3584 2284 3584 
Q 2666 3584 2933 3390 
Q 3200 3197 3328 2828 
z
" id="DejaVuSans-6d" transform="scale(0.015625)"/>
      <path d="M 191 3500 
L 800 3500 
L 1894 563 
L 2988 3500 
L 3597 3500 
L 2284 0 
L 1503 0 
L 191 3500 
z
" id="DejaVuSans-76" transform="scale(0.015625)"/>
      <path d="M 2834 3397 
L 2834 2853 
Q 2591 2978 2328 3040 
Q 2066 3103 1784 3103 
Q 1356 3103 1142 2972 
Q 928 2841 928 2578 
Q 928 2378 1081 2264 
Q 1234 2150 1697 2047 
L 1894 2003 
Q 2506 1872 2764 1633 
Q 3022 1394 3022 966 
Q 3022 478 2636 193 
Q 2250 -91 1575 -91 
Q 1294 -91 989 -36 
Q 684 19 347 128 
L 347 722 
Q 666 556 975 473 
Q 1284 391 1588 391 
Q 1994 391 2212 530 
Q 2431 669 2431 922 
Q 2431 1156 2273 1281 
Q 2116 1406 1581 1522 
L 1381 1569 
Q 847 1681 609 1914 
Q 372 2147 372 2553 
Q 372 3047 722 3315 
Q 1072 3584 1716 3584 
Q 2034 3584 2315 3537 
Q 2597 3491 2834 3397 
z
" id="DejaVuSans-73" transform="scale(0.015625)"/>
      <path d="M 3272 2816 
L 2363 2816 
L 2100 1772 
L 3016 1772 
L 3272 2816 
z
M 2803 4594 
L 2478 3297 
L 3391 3297 
L 3719 4594 
L 4219 4594 
L 3897 3297 
L 4872 3297 
L 4872 2816 
L 3775 2816 
L 3519 1772 
L 4513 1772 
L 4513 1294 
L 3397 1294 
L 3072 0 
L 2572 0 
L 2894 1294 
L 1978 1294 
L 1656 0 
L 1153 0 
L 1478 1294 
L 494 1294 
L 494 1772 
L 1594 1772 
L 1856 2816 
L 850 2816 
L 850 3297 
L 1978 3297 
L 2297 4594 
L 2803 4594 
z
" id="DejaVuSans-23" transform="scale(0.015625)"/>
     </defs>
     <use xlink:href="#DejaVuSans-4d"/>
     <use x="86.279297" xlink:href="#DejaVuSans-6f"/>
     <use x="147.460938" xlink:href="#DejaVuSans-64"/>
     <use x="210.9375" xlink:href="#DejaVuSans-65"/>
     <use x="272.460938" xlink:href="#DejaVuSans-6c"/>
     <use x="300.244141" xlink:href="#DejaVuSans-20"/>
     <use x="332.03125" xlink:href="#DejaVuSans-70"/>
     <use x="395.507812" xlink:href="#DejaVuSans-65"/>
     <use x="457.03125" xlink:href="#DejaVuSans-72"/>
     <use x="498.144531" xlink:href="#DejaVuSans-66"/>
     <use x="533.349609" xlink:href="#DejaVuSans-6f"/>
     <use x="594.53125" xlink:href="#DejaVuSans-72"/>
     <use x="633.894531" xlink:href="#DejaVuSans-6d"/>
     <use x="731.306641" xlink:href="#DejaVuSans-61"/>
     <use x="792.585938" xlink:href="#DejaVuSans-6e"/>
     <use x="855.964844" xlink:href="#DejaVuSans-63"/>
     <use x="910.945312" xlink:href="#DejaVuSans-65"/>
     <use x="972.46875" xlink:href="#DejaVuSans-20"/>
     <use x="1004.255859" xlink:href="#DejaVuSans-76"/>
     <use x="1063.435547" xlink:href="#DejaVuSans-73"/>
     <use x="1115.535156" xlink:href="#DejaVuSans-2e"/>
     <use x="1147.322266" xlink:href="#DejaVuSans-20"/>
     <use x="1179.109375" xlink:href="#DejaVuSans-23"/>
     <use x="1262.898438" xlink:href="#DejaVuSans-20"/>
     <use x="1294.685547" xlink:href="#DejaVuSans-6f"/>
     <use x="1355.867188" xlink:href="#DejaVuSans-66"/>
     <use x="1391.072266" xlink:href="#DejaVuSans-20"/>
     <use x="1422.859375" xlink:href="#DejaVuSans-69"/>
     <use x="1450.642578" xlink:href="#DejaVuSans-74"/>
     <use x="1489.851562" xlink:href="#DejaVuSans-65"/>
     <use x="1551.375" xlink:href="#DejaVuSans-72"/>
     <use x="1592.488281" xlink:href="#DejaVuSans-61"/>
     <use x="1653.767578" xlink:href="#DejaVuSans-74"/>
     <use x="1692.976562" xlink:href="#DejaVuSans-69"/>
     <use x="1720.759766" xlink:href="#DejaVuSans-6f"/>
     <use x="1781.941406" xlink:href="#DejaVuSans-6e"/>
     <use x="1845.320312" xlink:href="#DejaVuSans-73"/>
    </g>
   </g>
  </g>
 </g>
 <defs>
  <clipPath id="pd9a8859b04">
   <rect height="266.112" width="357.12" x="57.6" y="41.472"/>
  </clipPath>
 </defs>
</svg>
