<?xml version="1.0" encoding="utf-8" standalone="no"?>
<!DOCTYPE svg PUBLIC "-//W3C//DTD SVG 1.1//EN"
  "http://www.w3.org/Graphics/SVG/1.1/DTD/svg11.dtd">
<svg xmlns:xlink="http://www.w3.org/1999/xlink" width="460.8pt" height="345.6pt" viewBox="0 0 460.8 345.6" xmlns="http://www.w3.org/2000/svg" version="1.1">
 <metadata>
  <rdf:RDF xmlns:dc="http://purl.org/dc/elements/1.1/" xmlns:cc="http://creativecommons.org/ns#" xmlns:rdf="http://www.w3.org/1999/02/22-rdf-syntax-ns#">
   <cc:Work>
    <dc:type rdf:resource="http://purl.org/dc/dcmitype/StillImage"/>
    <dc:date>2022-02-04T20:40:54.625776</dc:date>
    <dc:format>image/svg+xml</dc:format>
    <dc:creator>
     <cc:Agent>
      <dc:title>Matplotlib v3.5.1, https://matplotlib.org/</dc:title>
     </cc:Agent>
    </dc:creator>
   </cc:Work>
  </rdf:RDF>
 </metadata>
 <defs>
  <style type="text/css">*{stroke-linejoin: round; stroke-linecap: butt}</style>
 </defs>
 <g id="figure_1">
  <g id="patch_1">
   <path d="M 0 345.6 
L 460.8 345.6 
L 460.8 0 
L 0 0 
z
" style="fill: #ffffff"/>
  </g>
  <g id="axes_1">
   <g id="patch_2">
    <path d="M 57.6 307.584 
L 414.72 307.584 
L 414.72 41.472 
L 57.6 41.472 
z
" style="fill: #ffffff"/>
   </g>
   <g id="matplotlib.axis_1">
    <g id="xtick_1">
     <g id="line2d_1">
      <path d="M 72.201297 307.584 
L 72.201297 41.472 
" clip-path="url(#p66f5fbc05f)" style="fill: none; stroke: #cccccc; stroke-width: 0.8; stroke-linecap: round"/>
     </g>
     <g id="text_1">
      <!-- 0 -->
      <g style="fill: #262626" transform="translate(69.020047 322.182437)scale(0.1 -0.1)">
       <defs>
        <path id="DejaVuSans-30" d="M 2034 4250 
Q 1547 4250 1301 3770 
Q 1056 3291 1056 2328 
Q 1056 1369 1301 889 
Q 1547 409 2034 409 
Q 2525 409 2770 889 
Q 3016 1369 3016 2328 
Q 3016 3291 2770 3770 
Q 2525 4250 2034 4250 
z
M 2034 4750 
Q 2819 4750 3233 4129 
Q 3647 3509 3647 2328 
Q 3647 1150 3233 529 
Q 2819 -91 2034 -91 
Q 1250 -91 836 529 
Q 422 1150 422 2328 
Q 422 3509 836 4129 
Q 1250 4750 2034 4750 
z
" transform="scale(0.015625)"/>
       </defs>
       <use xlink:href="#DejaVuSans-30"/>
      </g>
     </g>
    </g>
    <g id="xtick_2">
     <g id="line2d_2">
      <path d="M 112.987044 307.584 
L 112.987044 41.472 
" clip-path="url(#p66f5fbc05f)" style="fill: none; stroke: #cccccc; stroke-width: 0.8; stroke-linecap: round"/>
     </g>
     <g id="text_2">
      <!-- 25 -->
      <g style="fill: #262626" transform="translate(106.624544 322.182437)scale(0.1 -0.1)">
       <defs>
        <path id="DejaVuSans-32" d="M 1228 531 
L 3431 531 
L 3431 0 
L 469 0 
L 469 531 
Q 828 903 1448 1529 
Q 2069 2156 2228 2338 
Q 2531 2678 2651 2914 
Q 2772 3150 2772 3378 
Q 2772 3750 2511 3984 
Q 2250 4219 1831 4219 
Q 1534 4219 1204 4116 
Q 875 4013 500 3803 
L 500 4441 
Q 881 4594 1212 4672 
Q 1544 4750 1819 4750 
Q 2544 4750 2975 4387 
Q 3406 4025 3406 3419 
Q 3406 3131 3298 2873 
Q 3191 2616 2906 2266 
Q 2828 2175 2409 1742 
Q 1991 1309 1228 531 
z
" transform="scale(0.015625)"/>
        <path id="DejaVuSans-35" d="M 691 4666 
L 3169 4666 
L 3169 4134 
L 1269 4134 
L 1269 2991 
Q 1406 3038 1543 3061 
Q 1681 3084 1819 3084 
Q 2600 3084 3056 2656 
Q 3513 2228 3513 1497 
Q 3513 744 3044 326 
Q 2575 -91 1722 -91 
Q 1428 -91 1123 -41 
Q 819 9 494 109 
L 494 744 
Q 775 591 1075 516 
Q 1375 441 1709 441 
Q 2250 441 2565 725 
Q 2881 1009 2881 1497 
Q 2881 1984 2565 2268 
Q 2250 2553 1709 2553 
Q 1456 2553 1204 2497 
Q 953 2441 691 2322 
L 691 4666 
z
" transform="scale(0.015625)"/>
       </defs>
       <use xlink:href="#DejaVuSans-32"/>
       <use xlink:href="#DejaVuSans-35" x="63.623047"/>
      </g>
     </g>
    </g>
    <g id="xtick_3">
     <g id="line2d_3">
      <path d="M 153.772791 307.584 
L 153.772791 41.472 
" clip-path="url(#p66f5fbc05f)" style="fill: none; stroke: #cccccc; stroke-width: 0.8; stroke-linecap: round"/>
     </g>
     <g id="text_3">
      <!-- 50 -->
      <g style="fill: #262626" transform="translate(147.410291 322.182437)scale(0.1 -0.1)">
       <use xlink:href="#DejaVuSans-35"/>
       <use xlink:href="#DejaVuSans-30" x="63.623047"/>
      </g>
     </g>
    </g>
    <g id="xtick_4">
     <g id="line2d_4">
      <path d="M 194.558538 307.584 
L 194.558538 41.472 
" clip-path="url(#p66f5fbc05f)" style="fill: none; stroke: #cccccc; stroke-width: 0.8; stroke-linecap: round"/>
     </g>
     <g id="text_4">
      <!-- 75 -->
      <g style="fill: #262626" transform="translate(188.196038 322.182437)scale(0.1 -0.1)">
       <defs>
        <path id="DejaVuSans-37" d="M 525 4666 
L 3525 4666 
L 3525 4397 
L 1831 0 
L 1172 0 
L 2766 4134 
L 525 4134 
L 525 4666 
z
" transform="scale(0.015625)"/>
       </defs>
       <use xlink:href="#DejaVuSans-37"/>
       <use xlink:href="#DejaVuSans-35" x="63.623047"/>
      </g>
     </g>
    </g>
    <g id="xtick_5">
     <g id="line2d_5">
      <path d="M 235.344285 307.584 
L 235.344285 41.472 
" clip-path="url(#p66f5fbc05f)" style="fill: none; stroke: #cccccc; stroke-width: 0.8; stroke-linecap: round"/>
     </g>
     <g id="text_5">
      <!-- 100 -->
      <g style="fill: #262626" transform="translate(225.800535 322.182437)scale(0.1 -0.1)">
       <defs>
        <path id="DejaVuSans-31" d="M 794 531 
L 1825 531 
L 1825 4091 
L 703 3866 
L 703 4441 
L 1819 4666 
L 2450 4666 
L 2450 531 
L 3481 531 
L 3481 0 
L 794 0 
L 794 531 
z
" transform="scale(0.015625)"/>
       </defs>
       <use xlink:href="#DejaVuSans-31"/>
       <use xlink:href="#DejaVuSans-30" x="63.623047"/>
       <use xlink:href="#DejaVuSans-30" x="127.246094"/>
      </g>
     </g>
    </g>
    <g id="xtick_6">
     <g id="line2d_6">
      <path d="M 276.130032 307.584 
L 276.130032 41.472 
" clip-path="url(#p66f5fbc05f)" style="fill: none; stroke: #cccccc; stroke-width: 0.8; stroke-linecap: round"/>
     </g>
     <g id="text_6">
      <!-- 125 -->
      <g style="fill: #262626" transform="translate(266.586282 322.182437)scale(0.1 -0.1)">
       <use xlink:href="#DejaVuSans-31"/>
       <use xlink:href="#DejaVuSans-32" x="63.623047"/>
       <use xlink:href="#DejaVuSans-35" x="127.246094"/>
      </g>
     </g>
    </g>
    <g id="xtick_7">
     <g id="line2d_7">
      <path d="M 316.915779 307.584 
L 316.915779 41.472 
" clip-path="url(#p66f5fbc05f)" style="fill: none; stroke: #cccccc; stroke-width: 0.8; stroke-linecap: round"/>
     </g>
     <g id="text_7">
      <!-- 150 -->
      <g style="fill: #262626" transform="translate(307.372029 322.182437)scale(0.1 -0.1)">
       <use xlink:href="#DejaVuSans-31"/>
       <use xlink:href="#DejaVuSans-35" x="63.623047"/>
       <use xlink:href="#DejaVuSans-30" x="127.246094"/>
      </g>
     </g>
    </g>
    <g id="xtick_8">
     <g id="line2d_8">
      <path d="M 357.701526 307.584 
L 357.701526 41.472 
" clip-path="url(#p66f5fbc05f)" style="fill: none; stroke: #cccccc; stroke-width: 0.8; stroke-linecap: round"/>
     </g>
     <g id="text_8">
      <!-- 175 -->
      <g style="fill: #262626" transform="translate(348.157776 322.182437)scale(0.1 -0.1)">
       <use xlink:href="#DejaVuSans-31"/>
       <use xlink:href="#DejaVuSans-37" x="63.623047"/>
       <use xlink:href="#DejaVuSans-35" x="127.246094"/>
      </g>
     </g>
    </g>
    <g id="xtick_9">
     <g id="line2d_9">
      <path d="M 398.487273 307.584 
L 398.487273 41.472 
" clip-path="url(#p66f5fbc05f)" style="fill: none; stroke: #cccccc; stroke-width: 0.8; stroke-linecap: round"/>
     </g>
     <g id="text_9">
      <!-- 200 -->
      <g style="fill: #262626" transform="translate(388.943523 322.182437)scale(0.1 -0.1)">
       <use xlink:href="#DejaVuSans-32"/>
       <use xlink:href="#DejaVuSans-30" x="63.623047"/>
       <use xlink:href="#DejaVuSans-30" x="127.246094"/>
      </g>
     </g>
    </g>
    <g id="text_10">
     <!-- Auroc -->
     <g style="fill: #262626" transform="translate(221.819375 335.860562)scale(0.1 -0.1)">
      <defs>
       <path id="DejaVuSans-41" d="M 2188 4044 
L 1331 1722 
L 3047 1722 
L 2188 4044 
z
M 1831 4666 
L 2547 4666 
L 4325 0 
L 3669 0 
L 3244 1197 
L 1141 1197 
L 716 0 
L 50 0 
L 1831 4666 
z
" transform="scale(0.015625)"/>
       <path id="DejaVuSans-75" d="M 544 1381 
L 544 3500 
L 1119 3500 
L 1119 1403 
Q 1119 906 1312 657 
Q 1506 409 1894 409 
Q 2359 409 2629 706 
Q 2900 1003 2900 1516 
L 2900 3500 
L 3475 3500 
L 3475 0 
L 2900 0 
L 2900 538 
Q 2691 219 2414 64 
Q 2138 -91 1772 -91 
Q 1169 -91 856 284 
Q 544 659 544 1381 
z
M 1991 3584 
L 1991 3584 
z
" transform="scale(0.015625)"/>
       <path id="DejaVuSans-72" d="M 2631 2963 
Q 2534 3019 2420 3045 
Q 2306 3072 2169 3072 
Q 1681 3072 1420 2755 
Q 1159 2438 1159 1844 
L 1159 0 
L 581 0 
L 581 3500 
L 1159 3500 
L 1159 2956 
Q 1341 3275 1631 3429 
Q 1922 3584 2338 3584 
Q 2397 3584 2469 3576 
Q 2541 3569 2628 3553 
L 2631 2963 
z
" transform="scale(0.015625)"/>
       <path id="DejaVuSans-6f" d="M 1959 3097 
Q 1497 3097 1228 2736 
Q 959 2375 959 1747 
Q 959 1119 1226 758 
Q 1494 397 1959 397 
Q 2419 397 2687 759 
Q 2956 1122 2956 1747 
Q 2956 2369 2687 2733 
Q 2419 3097 1959 3097 
z
M 1959 3584 
Q 2709 3584 3137 3096 
Q 3566 2609 3566 1747 
Q 3566 888 3137 398 
Q 2709 -91 1959 -91 
Q 1206 -91 779 398 
Q 353 888 353 1747 
Q 353 2609 779 3096 
Q 1206 3584 1959 3584 
z
" transform="scale(0.015625)"/>
       <path id="DejaVuSans-63" d="M 3122 3366 
L 3122 2828 
Q 2878 2963 2633 3030 
Q 2388 3097 2138 3097 
Q 1578 3097 1268 2742 
Q 959 2388 959 1747 
Q 959 1106 1268 751 
Q 1578 397 2138 397 
Q 2388 397 2633 464 
Q 2878 531 3122 666 
L 3122 134 
Q 2881 22 2623 -34 
Q 2366 -91 2075 -91 
Q 1284 -91 818 406 
Q 353 903 353 1747 
Q 353 2603 823 3093 
Q 1294 3584 2113 3584 
Q 2378 3584 2631 3529 
Q 2884 3475 3122 3366 
z
" transform="scale(0.015625)"/>
      </defs>
      <use xlink:href="#DejaVuSans-41"/>
      <use xlink:href="#DejaVuSans-75" x="68.408203"/>
      <use xlink:href="#DejaVuSans-72" x="131.787109"/>
      <use xlink:href="#DejaVuSans-6f" x="170.650391"/>
      <use xlink:href="#DejaVuSans-63" x="231.832031"/>
     </g>
    </g>
   </g>
   <g id="matplotlib.axis_2">
    <g id="ytick_1">
     <g id="line2d_10">
      <path d="M 57.6 301.961007 
L 414.72 301.961007 
" clip-path="url(#p66f5fbc05f)" style="fill: none; stroke: #cccccc; stroke-width: 0.8; stroke-linecap: round"/>
     </g>
     <g id="text_11">
      <!-- 0.50 -->
      <g style="fill: #262626" transform="translate(28.334375 305.760226)scale(0.1 -0.1)">
       <defs>
        <path id="DejaVuSans-2e" d="M 684 794 
L 1344 794 
L 1344 0 
L 684 0 
L 684 794 
z
" transform="scale(0.015625)"/>
       </defs>
       <use xlink:href="#DejaVuSans-30"/>
       <use xlink:href="#DejaVuSans-2e" x="63.623047"/>
       <use xlink:href="#DejaVuSans-35" x="95.410156"/>
       <use xlink:href="#DejaVuSans-30" x="159.033203"/>
      </g>
     </g>
    </g>
    <g id="ytick_2">
     <g id="line2d_11">
      <path d="M 57.6 251.212592 
L 414.72 251.212592 
" clip-path="url(#p66f5fbc05f)" style="fill: none; stroke: #cccccc; stroke-width: 0.8; stroke-linecap: round"/>
     </g>
     <g id="text_12">
      <!-- 0.55 -->
      <g style="fill: #262626" transform="translate(28.334375 255.011811)scale(0.1 -0.1)">
       <use xlink:href="#DejaVuSans-30"/>
       <use xlink:href="#DejaVuSans-2e" x="63.623047"/>
       <use xlink:href="#DejaVuSans-35" x="95.410156"/>
       <use xlink:href="#DejaVuSans-35" x="159.033203"/>
      </g>
     </g>
    </g>
    <g id="ytick_3">
     <g id="line2d_12">
      <path d="M 57.6 200.464177 
L 414.72 200.464177 
" clip-path="url(#p66f5fbc05f)" style="fill: none; stroke: #cccccc; stroke-width: 0.8; stroke-linecap: round"/>
     </g>
     <g id="text_13">
      <!-- 0.60 -->
      <g style="fill: #262626" transform="translate(28.334375 204.263396)scale(0.1 -0.1)">
       <defs>
        <path id="DejaVuSans-36" d="M 2113 2584 
Q 1688 2584 1439 2293 
Q 1191 2003 1191 1497 
Q 1191 994 1439 701 
Q 1688 409 2113 409 
Q 2538 409 2786 701 
Q 3034 994 3034 1497 
Q 3034 2003 2786 2293 
Q 2538 2584 2113 2584 
z
M 3366 4563 
L 3366 3988 
Q 3128 4100 2886 4159 
Q 2644 4219 2406 4219 
Q 1781 4219 1451 3797 
Q 1122 3375 1075 2522 
Q 1259 2794 1537 2939 
Q 1816 3084 2150 3084 
Q 2853 3084 3261 2657 
Q 3669 2231 3669 1497 
Q 3669 778 3244 343 
Q 2819 -91 2113 -91 
Q 1303 -91 875 529 
Q 447 1150 447 2328 
Q 447 3434 972 4092 
Q 1497 4750 2381 4750 
Q 2619 4750 2861 4703 
Q 3103 4656 3366 4563 
z
" transform="scale(0.015625)"/>
       </defs>
       <use xlink:href="#DejaVuSans-30"/>
       <use xlink:href="#DejaVuSans-2e" x="63.623047"/>
       <use xlink:href="#DejaVuSans-36" x="95.410156"/>
       <use xlink:href="#DejaVuSans-30" x="159.033203"/>
      </g>
     </g>
    </g>
    <g id="ytick_4">
     <g id="line2d_13">
      <path d="M 57.6 149.715761 
L 414.72 149.715761 
" clip-path="url(#p66f5fbc05f)" style="fill: none; stroke: #cccccc; stroke-width: 0.8; stroke-linecap: round"/>
     </g>
     <g id="text_14">
      <!-- 0.65 -->
      <g style="fill: #262626" transform="translate(28.334375 153.51498)scale(0.1 -0.1)">
       <use xlink:href="#DejaVuSans-30"/>
       <use xlink:href="#DejaVuSans-2e" x="63.623047"/>
       <use xlink:href="#DejaVuSans-36" x="95.410156"/>
       <use xlink:href="#DejaVuSans-35" x="159.033203"/>
      </g>
     </g>
    </g>
    <g id="ytick_5">
     <g id="line2d_14">
      <path d="M 57.6 98.967346 
L 414.72 98.967346 
" clip-path="url(#p66f5fbc05f)" style="fill: none; stroke: #cccccc; stroke-width: 0.8; stroke-linecap: round"/>
     </g>
     <g id="text_15">
      <!-- 0.70 -->
      <g style="fill: #262626" transform="translate(28.334375 102.766565)scale(0.1 -0.1)">
       <use xlink:href="#DejaVuSans-30"/>
       <use xlink:href="#DejaVuSans-2e" x="63.623047"/>
       <use xlink:href="#DejaVuSans-37" x="95.410156"/>
       <use xlink:href="#DejaVuSans-30" x="159.033203"/>
      </g>
     </g>
    </g>
    <g id="ytick_6">
     <g id="line2d_15">
      <path d="M 57.6 48.218931 
L 414.72 48.218931 
" clip-path="url(#p66f5fbc05f)" style="fill: none; stroke: #cccccc; stroke-width: 0.8; stroke-linecap: round"/>
     </g>
     <g id="text_16">
      <!-- 0.75 -->
      <g style="fill: #262626" transform="translate(28.334375 52.01815)scale(0.1 -0.1)">
       <use xlink:href="#DejaVuSans-30"/>
       <use xlink:href="#DejaVuSans-2e" x="63.623047"/>
       <use xlink:href="#DejaVuSans-37" x="95.410156"/>
       <use xlink:href="#DejaVuSans-35" x="159.033203"/>
      </g>
     </g>
    </g>
    <g id="text_17">
     <!-- Iteration -->
     <g style="fill: #262626" transform="translate(22.254687 195.736594)rotate(-90)scale(0.1 -0.1)">
      <defs>
       <path id="DejaVuSans-49" d="M 628 4666 
L 1259 4666 
L 1259 0 
L 628 0 
L 628 4666 
z
" transform="scale(0.015625)"/>
       <path id="DejaVuSans-74" d="M 1172 4494 
L 1172 3500 
L 2356 3500 
L 2356 3053 
L 1172 3053 
L 1172 1153 
Q 1172 725 1289 603 
Q 1406 481 1766 481 
L 2356 481 
L 2356 0 
L 1766 0 
Q 1100 0 847 248 
Q 594 497 594 1153 
L 594 3053 
L 172 3053 
L 172 3500 
L 594 3500 
L 594 4494 
L 1172 4494 
z
" transform="scale(0.015625)"/>
       <path id="DejaVuSans-65" d="M 3597 1894 
L 3597 1613 
L 953 1613 
Q 991 1019 1311 708 
Q 1631 397 2203 397 
Q 2534 397 2845 478 
Q 3156 559 3463 722 
L 3463 178 
Q 3153 47 2828 -22 
Q 2503 -91 2169 -91 
Q 1331 -91 842 396 
Q 353 884 353 1716 
Q 353 2575 817 3079 
Q 1281 3584 2069 3584 
Q 2775 3584 3186 3129 
Q 3597 2675 3597 1894 
z
M 3022 2063 
Q 3016 2534 2758 2815 
Q 2500 3097 2075 3097 
Q 1594 3097 1305 2825 
Q 1016 2553 972 2059 
L 3022 2063 
z
" transform="scale(0.015625)"/>
       <path id="DejaVuSans-61" d="M 2194 1759 
Q 1497 1759 1228 1600 
Q 959 1441 959 1056 
Q 959 750 1161 570 
Q 1363 391 1709 391 
Q 2188 391 2477 730 
Q 2766 1069 2766 1631 
L 2766 1759 
L 2194 1759 
z
M 3341 1997 
L 3341 0 
L 2766 0 
L 2766 531 
Q 2569 213 2275 61 
Q 1981 -91 1556 -91 
Q 1019 -91 701 211 
Q 384 513 384 1019 
Q 384 1609 779 1909 
Q 1175 2209 1959 2209 
L 2766 2209 
L 2766 2266 
Q 2766 2663 2505 2880 
Q 2244 3097 1772 3097 
Q 1472 3097 1187 3025 
Q 903 2953 641 2809 
L 641 3341 
Q 956 3463 1253 3523 
Q 1550 3584 1831 3584 
Q 2591 3584 2966 3190 
Q 3341 2797 3341 1997 
z
" transform="scale(0.015625)"/>
       <path id="DejaVuSans-69" d="M 603 3500 
L 1178 3500 
L 1178 0 
L 603 0 
L 603 3500 
z
M 603 4863 
L 1178 4863 
L 1178 4134 
L 603 4134 
L 603 4863 
z
" transform="scale(0.015625)"/>
       <path id="DejaVuSans-6e" d="M 3513 2113 
L 3513 0 
L 2938 0 
L 2938 2094 
Q 2938 2591 2744 2837 
Q 2550 3084 2163 3084 
Q 1697 3084 1428 2787 
Q 1159 2491 1159 1978 
L 1159 0 
L 581 0 
L 581 3500 
L 1159 3500 
L 1159 2956 
Q 1366 3272 1645 3428 
Q 1925 3584 2291 3584 
Q 2894 3584 3203 3211 
Q 3513 2838 3513 2113 
z
" transform="scale(0.015625)"/>
      </defs>
      <use xlink:href="#DejaVuSans-49"/>
      <use xlink:href="#DejaVuSans-74" x="29.492188"/>
      <use xlink:href="#DejaVuSans-65" x="68.701172"/>
      <use xlink:href="#DejaVuSans-72" x="130.224609"/>
      <use xlink:href="#DejaVuSans-61" x="171.337891"/>
      <use xlink:href="#DejaVuSans-74" x="232.617188"/>
      <use xlink:href="#DejaVuSans-69" x="271.826172"/>
      <use xlink:href="#DejaVuSans-6f" x="299.609375"/>
      <use xlink:href="#DejaVuSans-6e" x="360.791016"/>
     </g>
    </g>
   </g>
   <g id="PolyCollection_1">
    <defs>
     <path id="m3a37bb7f83" d="M 73.832727 -200.496486 
L 73.832727 -74.11929 
L 75.464157 -142.79349 
L 77.095587 -137.48257 
L 78.727017 -128.61595 
L 80.358447 -163.920136 
L 81.989877 -171.333294 
L 83.621307 -159.626084 
L 85.252736 -157.622784 
L 86.884166 -123.305442 
L 88.515596 -155.731628 
L 90.147026 -169.591657 
L 91.778456 -74.318681 
L 93.409886 -163.269381 
L 95.041316 -127.679192 
L 96.672746 -114.631767 
L 98.304175 -172.673007 
L 99.935605 -138.105902 
L 101.567035 -51.013746 
L 103.198465 -152.010692 
L 104.829895 -95.715336 
L 106.461325 -138.624989 
L 108.092755 -158.70894 
L 109.724185 -178.361391 
L 111.355614 -148.900827 
L 112.987044 -117.599695 
L 114.618474 -77.174463 
L 116.249904 -179.61378 
L 117.881334 -141.917888 
L 119.512764 -133.154532 
L 121.144194 -133.622231 
L 122.775624 -142.466873 
L 124.407053 -88.869205 
L 126.038483 -99.259974 
L 127.669913 -120.03237 
L 129.301343 -153.447484 
L 130.932773 -163.654843 
L 132.564203 -104.120292 
L 134.195633 -135.168714 
L 135.827063 -89.134736 
L 137.458492 -155.448341 
L 139.089922 -134.495834 
L 140.721352 -149.535097 
L 142.352782 -137.294661 
L 143.984212 -127.835879 
L 145.615642 -164.018779 
L 147.247072 -106.666281 
L 148.878502 -136.495433 
L 150.509931 -147.120444 
L 152.141361 -167.095444 
L 153.772791 -162.663719 
L 155.404221 -163.501765 
L 157.035651 -141.614129 
L 158.667081 -165.229252 
L 160.298511 -134.531723 
L 161.929941 -185.697582 
L 163.56137 -120.843984 
L 165.1928 -87.431919 
L 166.82423 -194.315733 
L 168.45566 -127.010495 
L 170.08709 -79.327658 
L 171.71852 -150.229127 
L 173.34995 -218.991798 
L 174.98138 -150.620811 
L 176.61281 -170.995026 
L 178.244239 -130.824758 
L 179.875669 -104.301139 
L 181.507099 -125.405654 
L 183.138529 -175.409993 
L 184.769959 -126.076158 
L 186.401389 -70.163457 
L 188.032819 -125.592898 
L 189.664249 -114.474112 
L 191.295678 -125.919356 
L 192.927108 -102.869182 
L 194.558538 -104.102675 
L 196.189968 -123.535654 
L 197.821398 -115.831759 
L 199.452828 -143.399175 
L 201.084258 -127.450572 
L 202.715688 -147.418803 
L 204.347117 -92.546089 
L 205.978547 -144.638848 
L 207.609977 -95.903193 
L 209.241407 -165.857836 
L 210.872837 -169.733489 
L 212.504267 -156.225644 
L 214.135697 -176.778176 
L 215.767127 -140.981363 
L 217.398556 -137.290056 
L 219.029986 -125.629243 
L 220.661416 -110.199674 
L 222.292846 -84.541638 
L 223.924276 -131.502791 
L 225.555706 -111.971088 
L 227.187136 -135.540962 
L 228.818566 -130.747825 
L 230.449995 -99.758409 
L 232.081425 -130.340227 
L 233.712855 -126.805911 
L 235.344285 -122.170562 
L 236.975715 -112.799556 
L 238.607145 -191.128182 
L 240.238575 -102.901415 
L 241.870005 -120.886222 
L 243.501434 -108.432655 
L 245.132864 -170.912104 
L 246.764294 -129.132262 
L 248.395724 -91.701474 
L 250.027154 -161.698692 
L 251.658584 -94.097272 
L 253.290014 -127.333362 
L 254.921444 -110.962065 
L 256.552873 -77.041577 
L 258.184303 -81.996827 
L 259.815733 -96.269289 
L 261.447163 -113.023608 
L 263.078593 -68.798493 
L 264.710023 -127.251206 
L 266.341453 -124.774898 
L 267.972883 -158.420142 
L 269.604312 -161.796861 
L 271.235742 -61.219831 
L 272.867172 -101.614884 
L 274.498602 -145.877796 
L 276.130032 -100.747173 
L 277.761462 -169.072705 
L 279.392892 -138.344891 
L 281.024322 -128.76259 
L 282.655751 -192.448156 
L 284.287181 -129.89166 
L 285.918611 -127.719085 
L 287.550041 -107.18128 
L 289.181471 -169.937774 
L 290.812901 -164.776798 
L 292.444331 -148.538607 
L 294.075761 -97.092964 
L 295.70719 -142.681812 
L 297.33862 -136.179752 
L 298.97005 -147.559596 
L 300.60148 -106.823886 
L 302.23291 -148.911124 
L 303.86434 -146.599248 
L 305.49577 -148.533462 
L 307.1272 -153.699643 
L 308.75863 -146.071384 
L 310.390059 -101.519171 
L 312.021489 -115.467671 
L 313.652919 -100.340783 
L 315.284349 -117.255969 
L 316.915779 -166.147658 
L 318.547209 -107.078134 
L 320.178639 -183.001216 
L 321.810069 -130.564855 
L 323.441498 -99.411477 
L 325.072928 -157.410072 
L 326.704358 -148.779992 
L 328.335788 -146.310788 
L 329.967218 -126.02374 
L 331.598648 -156.254793 
L 333.230078 -161.78517 
L 334.861508 -135.764872 
L 336.492937 -166.132224 
L 338.124367 -139.317296 
L 339.755797 -140.50801 
L 341.387227 -132.152062 
L 343.018657 -151.992729 
L 344.650087 -151.288136 
L 346.281517 -95.164558 
L 347.912947 -127.244017 
L 349.544376 -98.818373 
L 351.175806 -127.28404 
L 352.807236 -172.883372 
L 354.438666 -136.665508 
L 356.070096 -64.731055 
L 357.701526 -114.477553 
L 359.332956 -123.055677 
L 360.964386 -175.98437 
L 362.595815 -83.589547 
L 364.227245 -143.370119 
L 365.858675 -175.963273 
L 367.490105 -64.384822 
L 369.121535 -145.203779 
L 370.752965 -174.152781 
L 372.384395 -81.671944 
L 374.015825 -106.880693 
L 375.647254 -126.292532 
L 377.278684 -112.913313 
L 378.910114 -104.826735 
L 380.541544 -151.767768 
L 382.172974 -112.931479 
L 383.804404 -132.851099 
L 385.435834 -149.12507 
L 387.067264 -128.355504 
L 388.698693 -108.415516 
L 390.330123 -143.207949 
L 391.961553 -50.112 
L 393.592983 -125.88271 
L 395.224413 -102.738854 
L 396.855843 -95.570901 
L 398.487273 -158.497953 
L 398.487273 -246.444715 
L 398.487273 -246.444715 
L 396.855843 -213.085386 
L 395.224413 -255.97232 
L 393.592983 -241.691997 
L 391.961553 -219.240094 
L 390.330123 -217.56148 
L 388.698693 -246.988318 
L 387.067264 -243.3493 
L 385.435834 -251.630612 
L 383.804404 -248.6803 
L 382.172974 -254.152305 
L 380.541544 -226.152811 
L 378.910114 -233.803021 
L 377.278684 -241.020297 
L 375.647254 -187.193261 
L 374.015825 -242.141107 
L 372.384395 -220.500433 
L 370.752965 -239.885098 
L 369.121535 -214.042624 
L 367.490105 -258.412555 
L 365.858675 -236.926646 
L 364.227245 -233.469928 
L 362.595815 -205.582281 
L 360.964386 -240.385743 
L 359.332956 -250.881957 
L 357.701526 -240.86742 
L 356.070096 -163.70714 
L 354.438666 -245.187401 
L 352.807236 -257.975007 
L 351.175806 -204.697448 
L 349.544376 -175.735281 
L 347.912947 -186.821349 
L 346.281517 -166.910298 
L 344.650087 -252.375981 
L 343.018657 -229.699766 
L 341.387227 -261.725144 
L 339.755797 -281.616852 
L 338.124367 -275.11153 
L 336.492937 -238.942648 
L 334.861508 -283.862181 
L 333.230078 -224.400049 
L 331.598648 -240.271101 
L 329.967218 -253.914087 
L 328.335788 -206.982131 
L 326.704358 -229.742708 
L 325.072928 -252.01833 
L 323.441498 -219.26971 
L 321.810069 -196.159977 
L 320.178639 -234.287903 
L 318.547209 -211.576814 
L 316.915779 -270.17511 
L 315.284349 -247.057282 
L 313.652919 -239.907209 
L 312.021489 -183.669731 
L 310.390059 -192.8706 
L 308.75863 -235.63018 
L 307.1272 -240.814919 
L 305.49577 -247.035321 
L 303.86434 -264.80611 
L 302.23291 -257.608878 
L 300.60148 -212.902525 
L 298.97005 -252.162549 
L 297.33862 -191.993401 
L 295.70719 -224.090463 
L 294.075761 -240.324201 
L 292.444331 -225.737923 
L 290.812901 -241.293147 
L 289.181471 -240.734407 
L 287.550041 -224.556772 
L 285.918611 -207.557161 
L 284.287181 -226.533057 
L 282.655751 -247.941476 
L 281.024322 -230.454742 
L 279.392892 -221.442334 
L 277.761462 -229.167029 
L 276.130032 -161.664286 
L 274.498602 -233.160346 
L 272.867172 -238.795315 
L 271.235742 -208.150545 
L 269.604312 -237.374102 
L 267.972883 -222.728987 
L 266.341453 -238.188718 
L 264.710023 -238.543489 
L 263.078593 -232.569552 
L 261.447163 -197.361324 
L 259.815733 -215.544857 
L 258.184303 -234.47139 
L 256.552873 -217.666693 
L 254.921444 -248.830466 
L 253.290014 -193.232261 
L 251.658584 -201.836065 
L 250.027154 -244.915659 
L 248.395724 -209.742459 
L 246.764294 -220.548619 
L 245.132864 -255.14749 
L 243.501434 -236.428542 
L 241.870005 -221.289973 
L 240.238575 -234.337196 
L 238.607145 -249.57597 
L 236.975715 -223.319773 
L 235.344285 -244.926342 
L 233.712855 -247.18431 
L 232.081425 -283.051979 
L 230.449995 -211.87299 
L 228.818566 -248.286911 
L 227.187136 -248.60267 
L 225.555706 -235.04275 
L 223.924276 -238.471147 
L 222.292846 -227.764112 
L 220.661416 -220.869798 
L 219.029986 -246.524472 
L 217.398556 -246.510665 
L 215.767127 -252.34355 
L 214.135697 -233.660606 
L 212.504267 -221.597755 
L 210.872837 -264.034616 
L 209.241407 -268.553613 
L 207.609977 -256.18054 
L 205.978547 -238.493222 
L 204.347117 -219.843041 
L 202.715688 -274.097559 
L 201.084258 -236.54737 
L 199.452828 -260.636568 
L 197.821398 -275.583734 
L 196.189968 -245.538599 
L 194.558538 -221.36325 
L 192.927108 -212.453835 
L 191.295678 -241.199164 
L 189.664249 -225.217609 
L 188.032819 -208.168817 
L 186.401389 -197.174258 
L 184.769959 -244.041885 
L 183.138529 -259.523207 
L 181.507099 -241.692755 
L 179.875669 -225.878649 
L 178.244239 -275.432056 
L 176.61281 -274.13772 
L 174.98138 -286.589561 
L 173.34995 -260.821434 
L 171.71852 -253.681546 
L 170.08709 -210.600361 
L 168.45566 -254.084683 
L 166.82423 -251.985298 
L 165.1928 -219.362339 
L 163.56137 -238.218094 
L 161.929941 -270.688536 
L 160.298511 -247.066459 
L 158.667081 -237.998251 
L 157.035651 -208.159237 
L 155.404221 -246.555248 
L 153.772791 -233.8245 
L 152.141361 -252.631657 
L 150.509931 -264.050187 
L 148.878502 -219.324046 
L 147.247072 -214.906531 
L 145.615642 -232.443488 
L 143.984212 -251.310377 
L 142.352782 -250.428927 
L 140.721352 -241.016235 
L 139.089922 -234.078463 
L 137.458492 -245.739259 
L 135.827063 -261.230318 
L 134.195633 -258.659058 
L 132.564203 -233.035118 
L 130.932773 -268.239618 
L 129.301343 -268.858692 
L 127.669913 -267.014106 
L 126.038483 -252.453926 
L 124.407053 -219.913515 
L 122.775624 -279.307873 
L 121.144194 -201.08129 
L 119.512764 -233.674309 
L 117.881334 -223.960653 
L 116.249904 -250.54243 
L 114.618474 -163.397648 
L 112.987044 -222.485731 
L 111.355614 -215.484906 
L 109.724185 -292.032 
L 108.092755 -279.448184 
L 106.461325 -263.127917 
L 104.829895 -265.648936 
L 103.198465 -257.366163 
L 101.567035 -245.104812 
L 99.935605 -245.623269 
L 98.304175 -285.871272 
L 96.672746 -282.226751 
L 95.041316 -256.916398 
L 93.409886 -233.788983 
L 91.778456 -288.934112 
L 90.147026 -195.90877 
L 88.515596 -200.676313 
L 86.884166 -252.956646 
L 85.252736 -265.724887 
L 83.621307 -239.413214 
L 81.989877 -226.705517 
L 80.358447 -239.809295 
L 78.727017 -231.742997 
L 77.095587 -253.934715 
L 75.464157 -277.642877 
L 73.832727 -200.496486 
z
" style="stroke: #ffffff; stroke-opacity: 0.2"/>
    </defs>
    <g clip-path="url(#p66f5fbc05f)">
     <use xlink:href="#m3a37bb7f83" x="0" y="345.6" style="fill: #1f77b4; fill-opacity: 0.2; stroke: #ffffff; stroke-opacity: 0.2"/>
    </g>
   </g>
   <g id="line2d_16">
    <path d="M 73.832727 208.292112 
L 75.464157 135.381817 
L 77.095587 149.891357 
L 78.727017 165.420527 
L 80.358447 143.735285 
L 81.989877 146.580594 
L 83.621307 146.080351 
L 85.252736 133.926165 
L 86.884166 157.468956 
L 88.515596 167.39603 
L 90.147026 162.849786 
L 91.778456 163.973604 
L 93.409886 147.070818 
L 95.041316 153.302205 
L 96.672746 147.170741 
L 98.304175 116.32786 
L 99.935605 153.735415 
L 101.567035 197.540721 
L 103.198465 140.911573 
L 104.829895 164.917864 
L 106.461325 144.723547 
L 108.092755 126.521438 
L 109.724185 110.403305 
L 111.355614 163.407133 
L 112.987044 175.557287 
L 114.618474 225.313945 
L 116.249904 130.521895 
L 117.881334 162.66073 
L 119.512764 162.185579 
L 121.144194 178.24824 
L 122.775624 134.712627 
L 124.407053 191.20864 
L 126.038483 169.74305 
L 129.301343 134.446912 
L 130.932773 129.65277 
L 132.564203 177.022295 
L 134.195633 148.686114 
L 135.827063 170.417473 
L 137.458492 145.0062 
L 139.089922 161.312852 
L 140.721352 150.324334 
L 142.352782 151.738206 
L 143.984212 156.026872 
L 145.615642 147.368867 
L 147.247072 184.813594 
L 148.878502 167.690261 
L 150.509931 140.014684 
L 152.141361 135.73645 
L 153.772791 147.35589 
L 155.404221 140.571494 
L 157.035651 170.713317 
L 158.667081 143.986249 
L 160.298511 154.800909 
L 161.929941 117.406941 
L 163.56137 166.068961 
L 165.1928 192.202871 
L 166.82423 122.449484 
L 168.45566 155.052411 
L 170.08709 200.635991 
L 171.71852 143.644664 
L 173.34995 105.693384 
L 174.98138 126.994814 
L 176.61281 123.033627 
L 178.244239 142.471593 
L 179.875669 180.510106 
L 181.507099 162.050795 
L 183.138529 128.1334 
L 184.769959 160.540979 
L 186.401389 211.931143 
L 188.032819 178.719142 
L 189.664249 175.75414 
L 191.295678 162.04074 
L 192.927108 187.938491 
L 194.558538 182.867037 
L 196.189968 161.062873 
L 197.821398 149.892254 
L 199.452828 143.582129 
L 201.084258 163.601029 
L 202.715688 134.841819 
L 204.347117 189.405435 
L 205.978547 154.033965 
L 207.609977 169.558134 
L 209.241407 128.394276 
L 210.872837 128.715948 
L 212.504267 156.688301 
L 214.135697 140.380609 
L 215.767127 148.937544 
L 217.398556 153.699639 
L 219.029986 159.523143 
L 220.661416 180.065264 
L 222.292846 189.447125 
L 223.924276 160.613031 
L 225.555706 172.093081 
L 227.187136 153.528184 
L 228.818566 156.082632 
L 230.449995 189.784301 
L 232.081425 138.903897 
L 233.712855 158.604889 
L 235.344285 162.051548 
L 236.975715 177.540336 
L 238.607145 125.247924 
L 240.238575 176.980694 
L 241.870005 174.511902 
L 243.501434 173.169401 
L 245.132864 132.570203 
L 246.764294 170.75956 
L 248.395724 194.878033 
L 250.027154 142.292824 
L 251.658584 197.633331 
L 253.290014 185.317189 
L 254.921444 165.703735 
L 256.552873 198.245865 
L 258.184303 187.365891 
L 259.815733 189.692927 
L 261.447163 190.407534 
L 263.078593 194.915977 
L 264.710023 162.702653 
L 266.341453 164.118192 
L 269.604312 146.014518 
L 271.235742 210.914812 
L 272.867172 175.394901 
L 274.498602 156.080929 
L 276.130032 214.394271 
L 277.761462 146.480133 
L 279.392892 165.706387 
L 281.024322 165.991334 
L 282.655751 125.405184 
L 284.287181 167.387642 
L 285.918611 177.961877 
L 287.550041 179.730974 
L 289.181471 140.263909 
L 290.812901 142.565028 
L 292.444331 158.461735 
L 294.075761 176.891418 
L 295.70719 162.213863 
L 297.33862 181.513424 
L 298.97005 145.738928 
L 300.60148 185.736795 
L 302.23291 142.339999 
L 303.86434 139.897321 
L 305.49577 147.815608 
L 307.1272 148.342719 
L 308.75863 154.749218 
L 310.390059 198.405115 
L 312.021489 196.031299 
L 313.652919 175.476004 
L 315.284349 163.443375 
L 316.915779 127.438616 
L 318.547209 186.272526 
L 320.178639 136.95544 
L 321.810069 182.237584 
L 323.441498 186.259406 
L 325.072928 140.885799 
L 326.704358 156.33865 
L 328.335788 168.95354 
L 329.967218 155.631087 
L 331.598648 147.337053 
L 333.230078 152.50739 
L 334.861508 135.786474 
L 336.492937 143.062564 
L 338.124367 138.385587 
L 339.755797 134.537569 
L 341.387227 148.661397 
L 343.018657 154.753752 
L 344.650087 143.767941 
L 346.281517 214.562572 
L 347.912947 188.567317 
L 349.544376 208.323173 
L 351.175806 179.609256 
L 352.807236 130.170811 
L 354.438666 154.673545 
L 356.070096 231.380902 
L 357.701526 167.927513 
L 359.332956 158.631183 
L 360.964386 137.414944 
L 362.595815 201.014086 
L 364.227245 157.179976 
L 365.858675 139.15504 
L 367.490105 184.201312 
L 369.121535 165.976798 
L 370.752965 138.58106 
L 372.384395 194.513811 
L 374.015825 171.0891 
L 375.647254 188.857103 
L 377.278684 168.633195 
L 378.910114 176.285122 
L 380.541544 156.63971 
L 382.172974 162.058108 
L 383.804404 154.8343 
L 385.435834 145.222159 
L 387.067264 159.747598 
L 388.698693 167.898083 
L 390.330123 165.215285 
L 391.961553 210.923953 
L 393.592983 161.812647 
L 395.224413 166.244413 
L 396.855843 191.271856 
L 398.487273 143.128666 
L 398.487273 143.128666 
" clip-path="url(#p66f5fbc05f)" style="fill: none; stroke: #1f77b4; stroke-width: 1.5; stroke-linecap: round"/>
   </g>
   <g id="LineCollection_1">
    <path d="M 398.487273 295.488 
L 398.487273 53.568 
" clip-path="url(#p66f5fbc05f)" style="fill: none; stroke-dasharray: 5.55,2.4; stroke-dashoffset: 0; stroke: #1f77b4; stroke-width: 1.5"/>
   </g>
   <g id="patch_3">
    <path d="M 57.6 307.584 
L 57.6 41.472 
" style="fill: none; stroke: #cccccc; stroke-width: 0.8; stroke-linejoin: miter; stroke-linecap: square"/>
   </g>
   <g id="patch_4">
    <path d="M 414.72 307.584 
L 414.72 41.472 
" style="fill: none; stroke: #cccccc; stroke-width: 0.8; stroke-linejoin: miter; stroke-linecap: square"/>
   </g>
   <g id="patch_5">
    <path d="M 57.6 307.584 
L 414.72 307.584 
" style="fill: none; stroke: #cccccc; stroke-width: 0.8; stroke-linejoin: miter; stroke-linecap: square"/>
   </g>
   <g id="patch_6">
    <path d="M 57.6 41.472 
L 414.72 41.472 
" style="fill: none; stroke: #cccccc; stroke-width: 0.8; stroke-linejoin: miter; stroke-linecap: square"/>
   </g>
   <g id="text_18">
    <!-- Model performance vs. # of iterations -->
    <g style="fill: #262626" transform="translate(122.314688 35.472)scale(0.12 -0.12)">
     <defs>
      <path id="DejaVuSans-4d" d="M 628 4666 
L 1569 4666 
L 2759 1491 
L 3956 4666 
L 4897 4666 
L 4897 0 
L 4281 0 
L 4281 4097 
L 3078 897 
L 2444 897 
L 1241 4097 
L 1241 0 
L 628 0 
L 628 4666 
z
" transform="scale(0.015625)"/>
      <path id="DejaVuSans-64" d="M 2906 2969 
L 2906 4863 
L 3481 4863 
L 3481 0 
L 2906 0 
L 2906 525 
Q 2725 213 2448 61 
Q 2172 -91 1784 -91 
Q 1150 -91 751 415 
Q 353 922 353 1747 
Q 353 2572 751 3078 
Q 1150 3584 1784 3584 
Q 2172 3584 2448 3432 
Q 2725 3281 2906 2969 
z
M 947 1747 
Q 947 1113 1208 752 
Q 1469 391 1925 391 
Q 2381 391 2643 752 
Q 2906 1113 2906 1747 
Q 2906 2381 2643 2742 
Q 2381 3103 1925 3103 
Q 1469 3103 1208 2742 
Q 947 2381 947 1747 
z
" transform="scale(0.015625)"/>
      <path id="DejaVuSans-6c" d="M 603 4863 
L 1178 4863 
L 1178 0 
L 603 0 
L 603 4863 
z
" transform="scale(0.015625)"/>
      <path id="DejaVuSans-20" transform="scale(0.015625)"/>
      <path id="DejaVuSans-70" d="M 1159 525 
L 1159 -1331 
L 581 -1331 
L 581 3500 
L 1159 3500 
L 1159 2969 
Q 1341 3281 1617 3432 
Q 1894 3584 2278 3584 
Q 2916 3584 3314 3078 
Q 3713 2572 3713 1747 
Q 3713 922 3314 415 
Q 2916 -91 2278 -91 
Q 1894 -91 1617 61 
Q 1341 213 1159 525 
z
M 3116 1747 
Q 3116 2381 2855 2742 
Q 2594 3103 2138 3103 
Q 1681 3103 1420 2742 
Q 1159 2381 1159 1747 
Q 1159 1113 1420 752 
Q 1681 391 2138 391 
Q 2594 391 2855 752 
Q 3116 1113 3116 1747 
z
" transform="scale(0.015625)"/>
      <path id="DejaVuSans-66" d="M 2375 4863 
L 2375 4384 
L 1825 4384 
Q 1516 4384 1395 4259 
Q 1275 4134 1275 3809 
L 1275 3500 
L 2222 3500 
L 2222 3053 
L 1275 3053 
L 1275 0 
L 697 0 
L 697 3053 
L 147 3053 
L 147 3500 
L 697 3500 
L 697 3744 
Q 697 4328 969 4595 
Q 1241 4863 1831 4863 
L 2375 4863 
z
" transform="scale(0.015625)"/>
      <path id="DejaVuSans-6d" d="M 3328 2828 
Q 3544 3216 3844 3400 
Q 4144 3584 4550 3584 
Q 5097 3584 5394 3201 
Q 5691 2819 5691 2113 
L 5691 0 
L 5113 0 
L 5113 2094 
Q 5113 2597 4934 2840 
Q 4756 3084 4391 3084 
Q 3944 3084 3684 2787 
Q 3425 2491 3425 1978 
L 3425 0 
L 2847 0 
L 2847 2094 
Q 2847 2600 2669 2842 
Q 2491 3084 2119 3084 
Q 1678 3084 1418 2786 
Q 1159 2488 1159 1978 
L 1159 0 
L 581 0 
L 581 3500 
L 1159 3500 
L 1159 2956 
Q 1356 3278 1631 3431 
Q 1906 3584 2284 3584 
Q 2666 3584 2933 3390 
Q 3200 3197 3328 2828 
z
" transform="scale(0.015625)"/>
      <path id="DejaVuSans-76" d="M 191 3500 
L 800 3500 
L 1894 563 
L 2988 3500 
L 3597 3500 
L 2284 0 
L 1503 0 
L 191 3500 
z
" transform="scale(0.015625)"/>
      <path id="DejaVuSans-73" d="M 2834 3397 
L 2834 2853 
Q 2591 2978 2328 3040 
Q 2066 3103 1784 3103 
Q 1356 3103 1142 2972 
Q 928 2841 928 2578 
Q 928 2378 1081 2264 
Q 1234 2150 1697 2047 
L 1894 2003 
Q 2506 1872 2764 1633 
Q 3022 1394 3022 966 
Q 3022 478 2636 193 
Q 2250 -91 1575 -91 
Q 1294 -91 989 -36 
Q 684 19 347 128 
L 347 722 
Q 666 556 975 473 
Q 1284 391 1588 391 
Q 1994 391 2212 530 
Q 2431 669 2431 922 
Q 2431 1156 2273 1281 
Q 2116 1406 1581 1522 
L 1381 1569 
Q 847 1681 609 1914 
Q 372 2147 372 2553 
Q 372 3047 722 3315 
Q 1072 3584 1716 3584 
Q 2034 3584 2315 3537 
Q 2597 3491 2834 3397 
z
" transform="scale(0.015625)"/>
      <path id="DejaVuSans-23" d="M 3272 2816 
L 2363 2816 
L 2100 1772 
L 3016 1772 
L 3272 2816 
z
M 2803 4594 
L 2478 3297 
L 3391 3297 
L 3719 4594 
L 4219 4594 
L 3897 3297 
L 4872 3297 
L 4872 2816 
L 3775 2816 
L 3519 1772 
L 4513 1772 
L 4513 1294 
L 3397 1294 
L 3072 0 
L 2572 0 
L 2894 1294 
L 1978 1294 
L 1656 0 
L 1153 0 
L 1478 1294 
L 494 1294 
L 494 1772 
L 1594 1772 
L 1856 2816 
L 850 2816 
L 850 3297 
L 1978 3297 
L 2297 4594 
L 2803 4594 
z
" transform="scale(0.015625)"/>
     </defs>
     <use xlink:href="#DejaVuSans-4d"/>
     <use xlink:href="#DejaVuSans-6f" x="86.279297"/>
     <use xlink:href="#DejaVuSans-64" x="147.460938"/>
     <use xlink:href="#DejaVuSans-65" x="210.9375"/>
     <use xlink:href="#DejaVuSans-6c" x="272.460938"/>
     <use xlink:href="#DejaVuSans-20" x="300.244141"/>
     <use xlink:href="#DejaVuSans-70" x="332.03125"/>
     <use xlink:href="#DejaVuSans-65" x="395.507812"/>
     <use xlink:href="#DejaVuSans-72" x="457.03125"/>
     <use xlink:href="#DejaVuSans-66" x="498.144531"/>
     <use xlink:href="#DejaVuSans-6f" x="533.349609"/>
     <use xlink:href="#DejaVuSans-72" x="594.53125"/>
     <use xlink:href="#DejaVuSans-6d" x="633.894531"/>
     <use xlink:href="#DejaVuSans-61" x="731.306641"/>
     <use xlink:href="#DejaVuSans-6e" x="792.585938"/>
     <use xlink:href="#DejaVuSans-63" x="855.964844"/>
     <use xlink:href="#DejaVuSans-65" x="910.945312"/>
     <use xlink:href="#DejaVuSans-20" x="972.46875"/>
     <use xlink:href="#DejaVuSans-76" x="1004.255859"/>
     <use xlink:href="#DejaVuSans-73" x="1063.435547"/>
     <use xlink:href="#DejaVuSans-2e" x="1115.535156"/>
     <use xlink:href="#DejaVuSans-20" x="1147.322266"/>
     <use xlink:href="#DejaVuSans-23" x="1179.109375"/>
     <use xlink:href="#DejaVuSans-20" x="1262.898438"/>
     <use xlink:href="#DejaVuSans-6f" x="1294.685547"/>
     <use xlink:href="#DejaVuSans-66" x="1355.867188"/>
     <use xlink:href="#DejaVuSans-20" x="1391.072266"/>
     <use xlink:href="#DejaVuSans-69" x="1422.859375"/>
     <use xlink:href="#DejaVuSans-74" x="1450.642578"/>
     <use xlink:href="#DejaVuSans-65" x="1489.851562"/>
     <use xlink:href="#DejaVuSans-72" x="1551.375"/>
     <use xlink:href="#DejaVuSans-61" x="1592.488281"/>
     <use xlink:href="#DejaVuSans-74" x="1653.767578"/>
     <use xlink:href="#DejaVuSans-69" x="1692.976562"/>
     <use xlink:href="#DejaVuSans-6f" x="1720.759766"/>
     <use xlink:href="#DejaVuSans-6e" x="1781.941406"/>
     <use xlink:href="#DejaVuSans-73" x="1845.320312"/>
    </g>
   </g>
  </g>
 </g>
 <defs>
  <clipPath id="p66f5fbc05f">
   <rect x="57.6" y="41.472" width="357.12" height="266.112"/>
  </clipPath>
 </defs>
</svg>
