<?xml version="1.0" encoding="utf-8" standalone="no"?>
<!DOCTYPE svg PUBLIC "-//W3C//DTD SVG 1.1//EN"
  "http://www.w3.org/Graphics/SVG/1.1/DTD/svg11.dtd">
<svg xmlns:xlink="http://www.w3.org/1999/xlink" width="460.8pt" height="345.6pt" viewBox="0 0 460.8 345.6" xmlns="http://www.w3.org/2000/svg" version="1.1">
 <metadata>
  <rdf:RDF xmlns:dc="http://purl.org/dc/elements/1.1/" xmlns:cc="http://creativecommons.org/ns#" xmlns:rdf="http://www.w3.org/1999/02/22-rdf-syntax-ns#">
   <cc:Work>
    <dc:type rdf:resource="http://purl.org/dc/dcmitype/StillImage"/>
    <dc:date>2022-10-29T20:44:20.457112</dc:date>
    <dc:format>image/svg+xml</dc:format>
    <dc:creator>
     <cc:Agent>
      <dc:title>Matplotlib v3.5.2, https://matplotlib.org/</dc:title>
     </cc:Agent>
    </dc:creator>
   </cc:Work>
  </rdf:RDF>
 </metadata>
 <defs>
  <style type="text/css">*{stroke-linejoin: round; stroke-linecap: butt}</style>
 </defs>
 <g id="figure_1">
  <g id="patch_1">
   <path d="M 0 345.6 
L 460.8 345.6 
L 460.8 0 
L 0 0 
z
" style="fill: #ffffff"/>
  </g>
  <g id="axes_1">
   <g id="patch_2">
    <path d="M 57.6 307.584 
L 414.72 307.584 
L 414.72 41.472 
L 57.6 41.472 
z
" style="fill: #ffffff"/>
   </g>
   <g id="matplotlib.axis_1">
    <g id="xtick_1">
     <g id="line2d_1">
      <path d="M 72.201297 307.584 
L 72.201297 41.472 
" clip-path="url(#p570192b3cb)" style="fill: none; stroke: #cccccc; stroke-width: 0.8; stroke-linecap: round"/>
     </g>
     <g id="text_1">
      <!-- 0 -->
      <g style="fill: #262626" transform="translate(69.020047 322.182437)scale(0.1 -0.1)">
       <defs>
        <path id="DejaVuSans-30" d="M 2034 4250 
Q 1547 4250 1301 3770 
Q 1056 3291 1056 2328 
Q 1056 1369 1301 889 
Q 1547 409 2034 409 
Q 2525 409 2770 889 
Q 3016 1369 3016 2328 
Q 3016 3291 2770 3770 
Q 2525 4250 2034 4250 
z
M 2034 4750 
Q 2819 4750 3233 4129 
Q 3647 3509 3647 2328 
Q 3647 1150 3233 529 
Q 2819 -91 2034 -91 
Q 1250 -91 836 529 
Q 422 1150 422 2328 
Q 422 3509 836 4129 
Q 1250 4750 2034 4750 
z
" transform="scale(0.015625)"/>
       </defs>
       <use xlink:href="#DejaVuSans-30"/>
      </g>
     </g>
    </g>
    <g id="xtick_2">
     <g id="line2d_2">
      <path d="M 112.987044 307.584 
L 112.987044 41.472 
" clip-path="url(#p570192b3cb)" style="fill: none; stroke: #cccccc; stroke-width: 0.8; stroke-linecap: round"/>
     </g>
     <g id="text_2">
      <!-- 25 -->
      <g style="fill: #262626" transform="translate(106.624544 322.182437)scale(0.1 -0.1)">
       <defs>
        <path id="DejaVuSans-32" d="M 1228 531 
L 3431 531 
L 3431 0 
L 469 0 
L 469 531 
Q 828 903 1448 1529 
Q 2069 2156 2228 2338 
Q 2531 2678 2651 2914 
Q 2772 3150 2772 3378 
Q 2772 3750 2511 3984 
Q 2250 4219 1831 4219 
Q 1534 4219 1204 4116 
Q 875 4013 500 3803 
L 500 4441 
Q 881 4594 1212 4672 
Q 1544 4750 1819 4750 
Q 2544 4750 2975 4387 
Q 3406 4025 3406 3419 
Q 3406 3131 3298 2873 
Q 3191 2616 2906 2266 
Q 2828 2175 2409 1742 
Q 1991 1309 1228 531 
z
" transform="scale(0.015625)"/>
        <path id="DejaVuSans-35" d="M 691 4666 
L 3169 4666 
L 3169 4134 
L 1269 4134 
L 1269 2991 
Q 1406 3038 1543 3061 
Q 1681 3084 1819 3084 
Q 2600 3084 3056 2656 
Q 3513 2228 3513 1497 
Q 3513 744 3044 326 
Q 2575 -91 1722 -91 
Q 1428 -91 1123 -41 
Q 819 9 494 109 
L 494 744 
Q 775 591 1075 516 
Q 1375 441 1709 441 
Q 2250 441 2565 725 
Q 2881 1009 2881 1497 
Q 2881 1984 2565 2268 
Q 2250 2553 1709 2553 
Q 1456 2553 1204 2497 
Q 953 2441 691 2322 
L 691 4666 
z
" transform="scale(0.015625)"/>
       </defs>
       <use xlink:href="#DejaVuSans-32"/>
       <use xlink:href="#DejaVuSans-35" x="63.623047"/>
      </g>
     </g>
    </g>
    <g id="xtick_3">
     <g id="line2d_3">
      <path d="M 153.772791 307.584 
L 153.772791 41.472 
" clip-path="url(#p570192b3cb)" style="fill: none; stroke: #cccccc; stroke-width: 0.8; stroke-linecap: round"/>
     </g>
     <g id="text_3">
      <!-- 50 -->
      <g style="fill: #262626" transform="translate(147.410291 322.182437)scale(0.1 -0.1)">
       <use xlink:href="#DejaVuSans-35"/>
       <use xlink:href="#DejaVuSans-30" x="63.623047"/>
      </g>
     </g>
    </g>
    <g id="xtick_4">
     <g id="line2d_4">
      <path d="M 194.558538 307.584 
L 194.558538 41.472 
" clip-path="url(#p570192b3cb)" style="fill: none; stroke: #cccccc; stroke-width: 0.8; stroke-linecap: round"/>
     </g>
     <g id="text_4">
      <!-- 75 -->
      <g style="fill: #262626" transform="translate(188.196038 322.182437)scale(0.1 -0.1)">
       <defs>
        <path id="DejaVuSans-37" d="M 525 4666 
L 3525 4666 
L 3525 4397 
L 1831 0 
L 1172 0 
L 2766 4134 
L 525 4134 
L 525 4666 
z
" transform="scale(0.015625)"/>
       </defs>
       <use xlink:href="#DejaVuSans-37"/>
       <use xlink:href="#DejaVuSans-35" x="63.623047"/>
      </g>
     </g>
    </g>
    <g id="xtick_5">
     <g id="line2d_5">
      <path d="M 235.344285 307.584 
L 235.344285 41.472 
" clip-path="url(#p570192b3cb)" style="fill: none; stroke: #cccccc; stroke-width: 0.8; stroke-linecap: round"/>
     </g>
     <g id="text_5">
      <!-- 100 -->
      <g style="fill: #262626" transform="translate(225.800535 322.182437)scale(0.1 -0.1)">
       <defs>
        <path id="DejaVuSans-31" d="M 794 531 
L 1825 531 
L 1825 4091 
L 703 3866 
L 703 4441 
L 1819 4666 
L 2450 4666 
L 2450 531 
L 3481 531 
L 3481 0 
L 794 0 
L 794 531 
z
" transform="scale(0.015625)"/>
       </defs>
       <use xlink:href="#DejaVuSans-31"/>
       <use xlink:href="#DejaVuSans-30" x="63.623047"/>
       <use xlink:href="#DejaVuSans-30" x="127.246094"/>
      </g>
     </g>
    </g>
    <g id="xtick_6">
     <g id="line2d_6">
      <path d="M 276.130032 307.584 
L 276.130032 41.472 
" clip-path="url(#p570192b3cb)" style="fill: none; stroke: #cccccc; stroke-width: 0.8; stroke-linecap: round"/>
     </g>
     <g id="text_6">
      <!-- 125 -->
      <g style="fill: #262626" transform="translate(266.586282 322.182437)scale(0.1 -0.1)">
       <use xlink:href="#DejaVuSans-31"/>
       <use xlink:href="#DejaVuSans-32" x="63.623047"/>
       <use xlink:href="#DejaVuSans-35" x="127.246094"/>
      </g>
     </g>
    </g>
    <g id="xtick_7">
     <g id="line2d_7">
      <path d="M 316.915779 307.584 
L 316.915779 41.472 
" clip-path="url(#p570192b3cb)" style="fill: none; stroke: #cccccc; stroke-width: 0.8; stroke-linecap: round"/>
     </g>
     <g id="text_7">
      <!-- 150 -->
      <g style="fill: #262626" transform="translate(307.372029 322.182437)scale(0.1 -0.1)">
       <use xlink:href="#DejaVuSans-31"/>
       <use xlink:href="#DejaVuSans-35" x="63.623047"/>
       <use xlink:href="#DejaVuSans-30" x="127.246094"/>
      </g>
     </g>
    </g>
    <g id="xtick_8">
     <g id="line2d_8">
      <path d="M 357.701526 307.584 
L 357.701526 41.472 
" clip-path="url(#p570192b3cb)" style="fill: none; stroke: #cccccc; stroke-width: 0.8; stroke-linecap: round"/>
     </g>
     <g id="text_8">
      <!-- 175 -->
      <g style="fill: #262626" transform="translate(348.157776 322.182437)scale(0.1 -0.1)">
       <use xlink:href="#DejaVuSans-31"/>
       <use xlink:href="#DejaVuSans-37" x="63.623047"/>
       <use xlink:href="#DejaVuSans-35" x="127.246094"/>
      </g>
     </g>
    </g>
    <g id="xtick_9">
     <g id="line2d_9">
      <path d="M 398.487273 307.584 
L 398.487273 41.472 
" clip-path="url(#p570192b3cb)" style="fill: none; stroke: #cccccc; stroke-width: 0.8; stroke-linecap: round"/>
     </g>
     <g id="text_9">
      <!-- 200 -->
      <g style="fill: #262626" transform="translate(388.943523 322.182437)scale(0.1 -0.1)">
       <use xlink:href="#DejaVuSans-32"/>
       <use xlink:href="#DejaVuSans-30" x="63.623047"/>
       <use xlink:href="#DejaVuSans-30" x="127.246094"/>
      </g>
     </g>
    </g>
    <g id="text_10">
     <!-- Iteration -->
     <g style="fill: #262626" transform="translate(214.951406 335.860562)scale(0.1 -0.1)">
      <defs>
       <path id="DejaVuSans-49" d="M 628 4666 
L 1259 4666 
L 1259 0 
L 628 0 
L 628 4666 
z
" transform="scale(0.015625)"/>
       <path id="DejaVuSans-74" d="M 1172 4494 
L 1172 3500 
L 2356 3500 
L 2356 3053 
L 1172 3053 
L 1172 1153 
Q 1172 725 1289 603 
Q 1406 481 1766 481 
L 2356 481 
L 2356 0 
L 1766 0 
Q 1100 0 847 248 
Q 594 497 594 1153 
L 594 3053 
L 172 3053 
L 172 3500 
L 594 3500 
L 594 4494 
L 1172 4494 
z
" transform="scale(0.015625)"/>
       <path id="DejaVuSans-65" d="M 3597 1894 
L 3597 1613 
L 953 1613 
Q 991 1019 1311 708 
Q 1631 397 2203 397 
Q 2534 397 2845 478 
Q 3156 559 3463 722 
L 3463 178 
Q 3153 47 2828 -22 
Q 2503 -91 2169 -91 
Q 1331 -91 842 396 
Q 353 884 353 1716 
Q 353 2575 817 3079 
Q 1281 3584 2069 3584 
Q 2775 3584 3186 3129 
Q 3597 2675 3597 1894 
z
M 3022 2063 
Q 3016 2534 2758 2815 
Q 2500 3097 2075 3097 
Q 1594 3097 1305 2825 
Q 1016 2553 972 2059 
L 3022 2063 
z
" transform="scale(0.015625)"/>
       <path id="DejaVuSans-72" d="M 2631 2963 
Q 2534 3019 2420 3045 
Q 2306 3072 2169 3072 
Q 1681 3072 1420 2755 
Q 1159 2438 1159 1844 
L 1159 0 
L 581 0 
L 581 3500 
L 1159 3500 
L 1159 2956 
Q 1341 3275 1631 3429 
Q 1922 3584 2338 3584 
Q 2397 3584 2469 3576 
Q 2541 3569 2628 3553 
L 2631 2963 
z
" transform="scale(0.015625)"/>
       <path id="DejaVuSans-61" d="M 2194 1759 
Q 1497 1759 1228 1600 
Q 959 1441 959 1056 
Q 959 750 1161 570 
Q 1363 391 1709 391 
Q 2188 391 2477 730 
Q 2766 1069 2766 1631 
L 2766 1759 
L 2194 1759 
z
M 3341 1997 
L 3341 0 
L 2766 0 
L 2766 531 
Q 2569 213 2275 61 
Q 1981 -91 1556 -91 
Q 1019 -91 701 211 
Q 384 513 384 1019 
Q 384 1609 779 1909 
Q 1175 2209 1959 2209 
L 2766 2209 
L 2766 2266 
Q 2766 2663 2505 2880 
Q 2244 3097 1772 3097 
Q 1472 3097 1187 3025 
Q 903 2953 641 2809 
L 641 3341 
Q 956 3463 1253 3523 
Q 1550 3584 1831 3584 
Q 2591 3584 2966 3190 
Q 3341 2797 3341 1997 
z
" transform="scale(0.015625)"/>
       <path id="DejaVuSans-69" d="M 603 3500 
L 1178 3500 
L 1178 0 
L 603 0 
L 603 3500 
z
M 603 4863 
L 1178 4863 
L 1178 4134 
L 603 4134 
L 603 4863 
z
" transform="scale(0.015625)"/>
       <path id="DejaVuSans-6f" d="M 1959 3097 
Q 1497 3097 1228 2736 
Q 959 2375 959 1747 
Q 959 1119 1226 758 
Q 1494 397 1959 397 
Q 2419 397 2687 759 
Q 2956 1122 2956 1747 
Q 2956 2369 2687 2733 
Q 2419 3097 1959 3097 
z
M 1959 3584 
Q 2709 3584 3137 3096 
Q 3566 2609 3566 1747 
Q 3566 888 3137 398 
Q 2709 -91 1959 -91 
Q 1206 -91 779 398 
Q 353 888 353 1747 
Q 353 2609 779 3096 
Q 1206 3584 1959 3584 
z
" transform="scale(0.015625)"/>
       <path id="DejaVuSans-6e" d="M 3513 2113 
L 3513 0 
L 2938 0 
L 2938 2094 
Q 2938 2591 2744 2837 
Q 2550 3084 2163 3084 
Q 1697 3084 1428 2787 
Q 1159 2491 1159 1978 
L 1159 0 
L 581 0 
L 581 3500 
L 1159 3500 
L 1159 2956 
Q 1366 3272 1645 3428 
Q 1925 3584 2291 3584 
Q 2894 3584 3203 3211 
Q 3513 2838 3513 2113 
z
" transform="scale(0.015625)"/>
      </defs>
      <use xlink:href="#DejaVuSans-49"/>
      <use xlink:href="#DejaVuSans-74" x="29.492188"/>
      <use xlink:href="#DejaVuSans-65" x="68.701172"/>
      <use xlink:href="#DejaVuSans-72" x="130.224609"/>
      <use xlink:href="#DejaVuSans-61" x="171.337891"/>
      <use xlink:href="#DejaVuSans-74" x="232.617188"/>
      <use xlink:href="#DejaVuSans-69" x="271.826172"/>
      <use xlink:href="#DejaVuSans-6f" x="299.609375"/>
      <use xlink:href="#DejaVuSans-6e" x="360.791016"/>
     </g>
    </g>
   </g>
   <g id="matplotlib.axis_2">
    <g id="ytick_1">
     <g id="line2d_10">
      <path d="M 57.6 294.314665 
L 414.72 294.314665 
" clip-path="url(#p570192b3cb)" style="fill: none; stroke: #cccccc; stroke-width: 0.8; stroke-linecap: round"/>
     </g>
     <g id="text_11">
      <!-- 0.45 -->
      <g style="fill: #262626" transform="translate(28.334375 298.113883)scale(0.1 -0.1)">
       <defs>
        <path id="DejaVuSans-2e" d="M 684 794 
L 1344 794 
L 1344 0 
L 684 0 
L 684 794 
z
" transform="scale(0.015625)"/>
        <path id="DejaVuSans-34" d="M 2419 4116 
L 825 1625 
L 2419 1625 
L 2419 4116 
z
M 2253 4666 
L 3047 4666 
L 3047 1625 
L 3713 1625 
L 3713 1100 
L 3047 1100 
L 3047 0 
L 2419 0 
L 2419 1100 
L 313 1100 
L 313 1709 
L 2253 4666 
z
" transform="scale(0.015625)"/>
       </defs>
       <use xlink:href="#DejaVuSans-30"/>
       <use xlink:href="#DejaVuSans-2e" x="63.623047"/>
       <use xlink:href="#DejaVuSans-34" x="95.410156"/>
       <use xlink:href="#DejaVuSans-35" x="159.033203"/>
      </g>
     </g>
    </g>
    <g id="ytick_2">
     <g id="line2d_11">
      <path d="M 57.6 251.521241 
L 414.72 251.521241 
" clip-path="url(#p570192b3cb)" style="fill: none; stroke: #cccccc; stroke-width: 0.8; stroke-linecap: round"/>
     </g>
     <g id="text_12">
      <!-- 0.50 -->
      <g style="fill: #262626" transform="translate(28.334375 255.320459)scale(0.1 -0.1)">
       <use xlink:href="#DejaVuSans-30"/>
       <use xlink:href="#DejaVuSans-2e" x="63.623047"/>
       <use xlink:href="#DejaVuSans-35" x="95.410156"/>
       <use xlink:href="#DejaVuSans-30" x="159.033203"/>
      </g>
     </g>
    </g>
    <g id="ytick_3">
     <g id="line2d_12">
      <path d="M 57.6 208.727817 
L 414.72 208.727817 
" clip-path="url(#p570192b3cb)" style="fill: none; stroke: #cccccc; stroke-width: 0.8; stroke-linecap: round"/>
     </g>
     <g id="text_13">
      <!-- 0.55 -->
      <g style="fill: #262626" transform="translate(28.334375 212.527035)scale(0.1 -0.1)">
       <use xlink:href="#DejaVuSans-30"/>
       <use xlink:href="#DejaVuSans-2e" x="63.623047"/>
       <use xlink:href="#DejaVuSans-35" x="95.410156"/>
       <use xlink:href="#DejaVuSans-35" x="159.033203"/>
      </g>
     </g>
    </g>
    <g id="ytick_4">
     <g id="line2d_13">
      <path d="M 57.6 165.934393 
L 414.72 165.934393 
" clip-path="url(#p570192b3cb)" style="fill: none; stroke: #cccccc; stroke-width: 0.8; stroke-linecap: round"/>
     </g>
     <g id="text_14">
      <!-- 0.60 -->
      <g style="fill: #262626" transform="translate(28.334375 169.733611)scale(0.1 -0.1)">
       <defs>
        <path id="DejaVuSans-36" d="M 2113 2584 
Q 1688 2584 1439 2293 
Q 1191 2003 1191 1497 
Q 1191 994 1439 701 
Q 1688 409 2113 409 
Q 2538 409 2786 701 
Q 3034 994 3034 1497 
Q 3034 2003 2786 2293 
Q 2538 2584 2113 2584 
z
M 3366 4563 
L 3366 3988 
Q 3128 4100 2886 4159 
Q 2644 4219 2406 4219 
Q 1781 4219 1451 3797 
Q 1122 3375 1075 2522 
Q 1259 2794 1537 2939 
Q 1816 3084 2150 3084 
Q 2853 3084 3261 2657 
Q 3669 2231 3669 1497 
Q 3669 778 3244 343 
Q 2819 -91 2113 -91 
Q 1303 -91 875 529 
Q 447 1150 447 2328 
Q 447 3434 972 4092 
Q 1497 4750 2381 4750 
Q 2619 4750 2861 4703 
Q 3103 4656 3366 4563 
z
" transform="scale(0.015625)"/>
       </defs>
       <use xlink:href="#DejaVuSans-30"/>
       <use xlink:href="#DejaVuSans-2e" x="63.623047"/>
       <use xlink:href="#DejaVuSans-36" x="95.410156"/>
       <use xlink:href="#DejaVuSans-30" x="159.033203"/>
      </g>
     </g>
    </g>
    <g id="ytick_5">
     <g id="line2d_14">
      <path d="M 57.6 123.140969 
L 414.72 123.140969 
" clip-path="url(#p570192b3cb)" style="fill: none; stroke: #cccccc; stroke-width: 0.8; stroke-linecap: round"/>
     </g>
     <g id="text_15">
      <!-- 0.65 -->
      <g style="fill: #262626" transform="translate(28.334375 126.940187)scale(0.1 -0.1)">
       <use xlink:href="#DejaVuSans-30"/>
       <use xlink:href="#DejaVuSans-2e" x="63.623047"/>
       <use xlink:href="#DejaVuSans-36" x="95.410156"/>
       <use xlink:href="#DejaVuSans-35" x="159.033203"/>
      </g>
     </g>
    </g>
    <g id="ytick_6">
     <g id="line2d_15">
      <path d="M 57.6 80.347545 
L 414.72 80.347545 
" clip-path="url(#p570192b3cb)" style="fill: none; stroke: #cccccc; stroke-width: 0.8; stroke-linecap: round"/>
     </g>
     <g id="text_16">
      <!-- 0.70 -->
      <g style="fill: #262626" transform="translate(28.334375 84.146763)scale(0.1 -0.1)">
       <use xlink:href="#DejaVuSans-30"/>
       <use xlink:href="#DejaVuSans-2e" x="63.623047"/>
       <use xlink:href="#DejaVuSans-37" x="95.410156"/>
       <use xlink:href="#DejaVuSans-30" x="159.033203"/>
      </g>
     </g>
    </g>
    <g id="text_17">
     <!-- Auroc -->
     <g style="fill: #262626" transform="translate(22.254688 188.868625)rotate(-90)scale(0.1 -0.1)">
      <defs>
       <path id="DejaVuSans-41" d="M 2188 4044 
L 1331 1722 
L 3047 1722 
L 2188 4044 
z
M 1831 4666 
L 2547 4666 
L 4325 0 
L 3669 0 
L 3244 1197 
L 1141 1197 
L 716 0 
L 50 0 
L 1831 4666 
z
" transform="scale(0.015625)"/>
       <path id="DejaVuSans-75" d="M 544 1381 
L 544 3500 
L 1119 3500 
L 1119 1403 
Q 1119 906 1312 657 
Q 1506 409 1894 409 
Q 2359 409 2629 706 
Q 2900 1003 2900 1516 
L 2900 3500 
L 3475 3500 
L 3475 0 
L 2900 0 
L 2900 538 
Q 2691 219 2414 64 
Q 2138 -91 1772 -91 
Q 1169 -91 856 284 
Q 544 659 544 1381 
z
M 1991 3584 
L 1991 3584 
z
" transform="scale(0.015625)"/>
       <path id="DejaVuSans-63" d="M 3122 3366 
L 3122 2828 
Q 2878 2963 2633 3030 
Q 2388 3097 2138 3097 
Q 1578 3097 1268 2742 
Q 959 2388 959 1747 
Q 959 1106 1268 751 
Q 1578 397 2138 397 
Q 2388 397 2633 464 
Q 2878 531 3122 666 
L 3122 134 
Q 2881 22 2623 -34 
Q 2366 -91 2075 -91 
Q 1284 -91 818 406 
Q 353 903 353 1747 
Q 353 2603 823 3093 
Q 1294 3584 2113 3584 
Q 2378 3584 2631 3529 
Q 2884 3475 3122 3366 
z
" transform="scale(0.015625)"/>
      </defs>
      <use xlink:href="#DejaVuSans-41"/>
      <use xlink:href="#DejaVuSans-75" x="68.408203"/>
      <use xlink:href="#DejaVuSans-72" x="131.787109"/>
      <use xlink:href="#DejaVuSans-6f" x="170.650391"/>
      <use xlink:href="#DejaVuSans-63" x="231.832031"/>
     </g>
    </g>
   </g>
   <g id="PolyCollection_1">
    <defs>
     <path id="m5660915421" d="M 73.832727 -215.92479 
L 73.832727 -165.327588 
L 75.464157 -156.665999 
L 77.095587 -149.57493 
L 78.727017 -125.457946 
L 80.358447 -65.158261 
L 81.989877 -144.17995 
L 83.621307 -117.393434 
L 85.252736 -112.731441 
L 86.884166 -123.39421 
L 88.515596 -146.412927 
L 90.147026 -114.563198 
L 91.778456 -139.502683 
L 93.409886 -114.141164 
L 95.041316 -178.584325 
L 96.672746 -118.030637 
L 98.304175 -105.032602 
L 99.935605 -107.472942 
L 101.567035 -146.760862 
L 103.198465 -151.530226 
L 104.829895 -161.246905 
L 106.461325 -95.752673 
L 108.092755 -190.723748 
L 109.724185 -99.289108 
L 111.355614 -149.08597 
L 112.987044 -158.243545 
L 114.618474 -137.1813 
L 116.249904 -117.033944 
L 117.881334 -157.763685 
L 119.512764 -171.77232 
L 121.144194 -139.497071 
L 122.775624 -176.351724 
L 124.407053 -153.336823 
L 126.038483 -95.827158 
L 127.669913 -206.155542 
L 129.301343 -109.039093 
L 130.932773 -163.60273 
L 132.564203 -143.513051 
L 134.195633 -127.516251 
L 135.827063 -168.798561 
L 137.458492 -94.379118 
L 139.089922 -146.367869 
L 140.721352 -111.200303 
L 142.352782 -89.500609 
L 143.984212 -165.584608 
L 145.615642 -157.840689 
L 147.247072 -116.662714 
L 148.878502 -127.63567 
L 150.509931 -199.836035 
L 152.141361 -207.080698 
L 153.772791 -123.729619 
L 155.404221 -146.27365 
L 157.035651 -130.363959 
L 158.667081 -107.631013 
L 160.298511 -176.593521 
L 161.929941 -176.606509 
L 163.56137 -150.11171 
L 165.1928 -129.833052 
L 166.82423 -131.524794 
L 168.45566 -144.107424 
L 170.08709 -212.113216 
L 171.71852 -136.235607 
L 173.34995 -184.455124 
L 174.98138 -165.622938 
L 176.61281 -194.586596 
L 178.244239 -102.943266 
L 179.875669 -171.31079 
L 181.507099 -129.27422 
L 183.138529 -153.96004 
L 184.769959 -108.680164 
L 186.401389 -126.656575 
L 188.032819 -175.561275 
L 189.664249 -198.278009 
L 191.295678 -158.721763 
L 192.927108 -139.676593 
L 194.558538 -120.094781 
L 196.189968 -178.546438 
L 197.821398 -143.090404 
L 199.452828 -104.988488 
L 201.084258 -153.997017 
L 202.715688 -154.756628 
L 204.347117 -164.76235 
L 205.978547 -93.426251 
L 207.609977 -81.559136 
L 209.241407 -145.280159 
L 210.872837 -50.112 
L 212.504267 -105.227151 
L 214.135697 -118.892248 
L 215.767127 -133.260185 
L 217.398556 -139.417741 
L 219.029986 -127.570018 
L 220.661416 -68.048844 
L 222.292846 -158.00688 
L 223.924276 -180.598793 
L 225.555706 -116.699519 
L 227.187136 -148.325038 
L 228.818566 -94.571026 
L 230.449995 -162.889087 
L 232.081425 -94.077018 
L 233.712855 -142.060002 
L 235.344285 -142.211942 
L 236.975715 -153.458329 
L 238.607145 -114.688648 
L 240.238575 -98.417355 
L 241.870005 -171.743123 
L 243.501434 -131.968941 
L 245.132864 -94.027646 
L 246.764294 -184.871391 
L 248.395724 -100.867614 
L 250.027154 -145.704067 
L 251.658584 -166.3538 
L 253.290014 -151.651645 
L 254.921444 -175.317929 
L 256.552873 -127.802815 
L 258.184303 -193.539456 
L 259.815733 -143.815825 
L 261.447163 -135.691304 
L 263.078593 -137.864104 
L 264.710023 -163.859247 
L 266.341453 -64.10561 
L 267.972883 -50.406046 
L 269.604312 -109.704741 
L 271.235742 -148.348814 
L 272.867172 -120.420474 
L 274.498602 -124.269898 
L 276.130032 -192.21784 
L 277.761462 -55.710014 
L 279.392892 -215.239528 
L 281.024322 -180.157628 
L 282.655751 -138.957064 
L 284.287181 -157.522874 
L 285.918611 -143.311976 
L 287.550041 -169.455478 
L 289.181471 -123.467021 
L 290.812901 -169.867386 
L 292.444331 -170.784768 
L 294.075761 -146.256491 
L 295.70719 -124.707456 
L 297.33862 -147.974118 
L 298.97005 -162.648229 
L 300.60148 -142.839116 
L 302.23291 -128.868345 
L 303.86434 -195.488845 
L 305.49577 -193.519362 
L 307.1272 -200.069657 
L 308.75863 -184.749922 
L 310.390059 -120.353176 
L 312.021489 -144.150055 
L 313.652919 -110.70719 
L 315.284349 -114.668996 
L 316.915779 -170.482399 
L 318.547209 -115.653472 
L 320.178639 -111.93358 
L 321.810069 -110.32149 
L 323.441498 -87.667716 
L 325.072928 -145.854811 
L 326.704358 -148.21037 
L 328.335788 -176.129797 
L 329.967218 -158.929784 
L 331.598648 -153.580939 
L 333.230078 -85.986407 
L 334.861508 -182.286131 
L 336.492937 -148.768838 
L 338.124367 -172.751314 
L 339.755797 -152.306269 
L 341.387227 -192.819748 
L 343.018657 -177.803496 
L 344.650087 -157.924195 
L 346.281517 -145.296803 
L 347.912947 -185.703286 
L 349.544376 -146.347101 
L 351.175806 -156.602582 
L 352.807236 -113.814007 
L 354.438666 -70.038089 
L 356.070096 -127.583328 
L 357.701526 -94.851016 
L 359.332956 -133.859924 
L 360.964386 -185.799729 
L 362.595815 -159.404445 
L 364.227245 -199.897156 
L 365.858675 -205.994442 
L 367.490105 -86.405895 
L 369.121535 -100.836767 
L 370.752965 -128.401303 
L 372.384395 -160.851361 
L 374.015825 -117.817046 
L 375.647254 -151.810858 
L 377.278684 -119.611535 
L 378.910114 -105.500725 
L 380.541544 -200.118146 
L 382.172974 -137.246202 
L 383.804404 -145.394514 
L 385.435834 -166.527342 
L 387.067264 -165.394917 
L 388.698693 -90.923353 
L 390.330123 -133.901087 
L 391.961553 -205.846727 
L 393.592983 -107.792493 
L 395.224413 -123.120216 
L 396.855843 -102.613506 
L 398.487273 -166.271438 
L 398.487273 -239.188719 
L 398.487273 -239.188719 
L 396.855843 -265.421279 
L 395.224413 -214.485801 
L 393.592983 -240.05755 
L 391.961553 -266.998057 
L 390.330123 -239.900699 
L 388.698693 -183.928445 
L 387.067264 -288.637877 
L 385.435834 -224.623653 
L 383.804404 -266.886489 
L 382.172974 -226.641619 
L 380.541544 -254.874341 
L 378.910114 -289.16171 
L 377.278684 -220.31798 
L 375.647254 -278.123476 
L 374.015825 -253.611201 
L 372.384395 -258.876475 
L 370.752965 -211.507042 
L 369.121535 -213.671865 
L 367.490105 -240.897161 
L 365.858675 -241.779221 
L 364.227245 -264.872421 
L 362.595815 -224.466563 
L 360.964386 -267.985697 
L 359.332956 -232.346335 
L 357.701526 -195.39424 
L 356.070096 -249.589929 
L 354.438666 -241.639314 
L 352.807236 -188.308208 
L 351.175806 -223.006003 
L 349.544376 -235.905551 
L 347.912947 -242.937633 
L 346.281517 -255.336221 
L 344.650087 -237.400636 
L 343.018657 -236.454976 
L 341.387227 -226.707746 
L 339.755797 -240.632368 
L 338.124367 -244.217476 
L 336.492937 -255.125046 
L 334.861508 -239.240642 
L 333.230078 -196.427868 
L 331.598648 -258.005273 
L 329.967218 -245.947318 
L 328.335788 -241.107209 
L 326.704358 -219.751993 
L 325.072928 -282.568241 
L 323.441498 -259.143067 
L 321.810069 -289.362779 
L 320.178639 -241.623175 
L 318.547209 -199.350732 
L 316.915779 -231.574499 
L 315.284349 -241.325929 
L 313.652919 -251.374281 
L 312.021489 -208.787273 
L 310.390059 -257.023332 
L 308.75863 -251.053299 
L 307.1272 -258.30221 
L 305.49577 -260.311625 
L 303.86434 -259.274168 
L 302.23291 -235.590388 
L 300.60148 -281.780695 
L 298.97005 -240.019061 
L 297.33862 -247.992652 
L 295.70719 -226.962313 
L 294.075761 -202.661169 
L 292.444331 -252.779839 
L 290.812901 -270.716093 
L 289.181471 -269.029297 
L 287.550041 -265.82588 
L 285.918611 -247.730203 
L 284.287181 -263.913896 
L 282.655751 -246.422876 
L 281.024322 -226.3309 
L 279.392892 -240.149555 
L 277.761462 -229.877283 
L 276.130032 -284.248856 
L 274.498602 -255.19305 
L 272.867172 -225.850328 
L 271.235742 -223.075722 
L 269.604312 -261.18326 
L 267.972883 -224.134709 
L 266.341453 -242.47111 
L 264.710023 -241.284259 
L 263.078593 -213.307791 
L 261.447163 -227.354962 
L 259.815733 -221.503507 
L 258.184303 -258.505773 
L 256.552873 -243.088473 
L 254.921444 -228.357816 
L 253.290014 -247.794815 
L 251.658584 -262.177067 
L 250.027154 -253.499074 
L 248.395724 -239.466178 
L 246.764294 -258.368813 
L 245.132864 -152.365898 
L 243.501434 -246.259468 
L 241.870005 -259.574811 
L 240.238575 -190.180096 
L 238.607145 -239.818981 
L 236.975715 -225.054516 
L 235.344285 -228.716632 
L 233.712855 -185.916271 
L 232.081425 -263.797733 
L 230.449995 -272.904948 
L 228.818566 -204.303233 
L 227.187136 -249.826457 
L 225.555706 -187.053331 
L 223.924276 -271.102634 
L 222.292846 -228.114183 
L 220.661416 -167.838592 
L 219.029986 -265.520211 
L 217.398556 -202.191398 
L 215.767127 -266.739874 
L 214.135697 -239.388076 
L 212.504267 -270.741575 
L 210.872837 -276.502067 
L 209.241407 -243.785578 
L 207.609977 -243.131895 
L 205.978547 -244.07137 
L 204.347117 -250.927459 
L 202.715688 -238.819678 
L 201.084258 -239.522152 
L 199.452828 -223.404989 
L 197.821398 -243.734693 
L 196.189968 -269.4461 
L 194.558538 -228.906554 
L 192.927108 -238.112585 
L 191.295678 -226.530898 
L 189.664249 -254.492565 
L 188.032819 -271.850736 
L 186.401389 -219.197295 
L 184.769959 -233.771059 
L 183.138529 -234.646749 
L 181.507099 -223.38762 
L 179.875669 -234.117866 
L 178.244239 -262.94078 
L 176.61281 -261.832331 
L 174.98138 -265.694734 
L 173.34995 -260.322032 
L 171.71852 -242.231224 
L 170.08709 -257.433743 
L 168.45566 -220.132784 
L 166.82423 -250.912126 
L 165.1928 -262.963357 
L 163.56137 -250.950083 
L 161.929941 -261.043835 
L 160.298511 -275.313877 
L 158.667081 -263.439178 
L 157.035651 -227.806333 
L 155.404221 -279.64319 
L 153.772791 -260.454813 
L 152.141361 -292.032 
L 150.509931 -250.304227 
L 148.878502 -224.487247 
L 147.247072 -245.805585 
L 145.615642 -247.530255 
L 143.984212 -237.581917 
L 142.352782 -245.388033 
L 140.721352 -277.864198 
L 139.089922 -276.059856 
L 137.458492 -269.264025 
L 135.827063 -202.558083 
L 134.195633 -227.32476 
L 132.564203 -274.24476 
L 130.932773 -259.634933 
L 129.301343 -226.302186 
L 127.669913 -283.838185 
L 126.038483 -188.687718 
L 124.407053 -247.526645 
L 122.775624 -280.32259 
L 121.144194 -250.486917 
L 119.512764 -240.80747 
L 117.881334 -266.444001 
L 116.249904 -214.660954 
L 114.618474 -216.643869 
L 112.987044 -264.245112 
L 111.355614 -256.524268 
L 109.724185 -173.586819 
L 108.092755 -241.897628 
L 106.461325 -203.679537 
L 104.829895 -260.71913 
L 103.198465 -243.762163 
L 101.567035 -276.353412 
L 99.935605 -208.822346 
L 98.304175 -211.547545 
L 96.672746 -252.968156 
L 95.041316 -260.67539 
L 93.409886 -264.263737 
L 91.778456 -275.75768 
L 90.147026 -221.703156 
L 88.515596 -196.951122 
L 86.884166 -216.248636 
L 85.252736 -245.332755 
L 83.621307 -206.996377 
L 81.989877 -252.064348 
L 80.358447 -198.022218 
L 78.727017 -251.95108 
L 77.095587 -216.580777 
L 75.464157 -254.691237 
L 73.832727 -215.92479 
z
" style="stroke: #ffffff; stroke-opacity: 0.2"/>
    </defs>
    <g clip-path="url(#p570192b3cb)">
     <use xlink:href="#m5660915421" x="0" y="345.6" style="fill: #1f77b4; fill-opacity: 0.2; stroke: #ffffff; stroke-opacity: 0.2"/>
    </g>
   </g>
   <g id="line2d_16">
    <path d="M 73.832727 154.973811 
L 75.464157 139.921382 
L 77.095587 162.522147 
L 78.727017 156.895487 
L 80.358447 214.009761 
L 81.989877 147.477851 
L 83.621307 183.405094 
L 85.252736 166.567902 
L 86.884166 175.778577 
L 88.515596 173.917976 
L 90.147026 177.466823 
L 91.778456 137.969818 
L 93.409886 156.397549 
L 95.041316 125.970142 
L 96.672746 160.100603 
L 98.304175 187.309926 
L 99.935605 187.452356 
L 101.567035 134.042863 
L 103.198465 147.953806 
L 104.829895 134.616983 
L 106.461325 195.883895 
L 108.092755 129.289312 
L 109.724185 209.162036 
L 111.355614 142.794881 
L 112.987044 134.355671 
L 114.618474 168.687415 
L 116.249904 179.752551 
L 117.881334 133.496157 
L 119.512764 139.310105 
L 121.144194 150.608006 
L 122.775624 117.262843 
L 124.407053 145.168266 
L 126.038483 203.342562 
L 127.669913 100.603137 
L 129.301343 177.92936 
L 130.932773 133.981168 
L 132.564203 136.721095 
L 134.195633 168.179495 
L 135.827063 159.921678 
L 137.458492 163.778429 
L 139.089922 134.386137 
L 140.721352 151.067749 
L 142.352782 178.155679 
L 143.984212 144.016738 
L 145.615642 142.914528 
L 147.247072 164.36585 
L 148.878502 169.538542 
L 150.509931 120.529869 
L 152.141361 96.043651 
L 153.772791 153.507784 
L 155.404221 132.64158 
L 157.035651 166.514854 
L 158.667081 160.064904 
L 160.298511 119.646301 
L 161.929941 126.774828 
L 163.56137 145.069103 
L 165.1928 149.201796 
L 166.82423 154.38154 
L 168.45566 163.479896 
L 170.08709 110.82652 
L 171.71852 156.366585 
L 173.34995 123.211422 
L 174.98138 129.941164 
L 176.61281 117.390536 
L 178.244239 162.657977 
L 179.875669 142.885672 
L 181.507099 169.26908 
L 183.138529 151.296605 
L 184.769959 174.374388 
L 186.401389 172.673065 
L 188.032819 121.893995 
L 189.664249 119.214713 
L 191.295678 152.973669 
L 192.927108 156.705411 
L 194.558538 171.099333 
L 196.189968 121.603731 
L 199.452828 181.403262 
L 201.084258 148.840416 
L 202.715688 148.811847 
L 204.347117 137.755095 
L 205.978547 176.85119 
L 207.609977 183.254485 
L 209.241407 151.067131 
L 210.872837 182.292966 
L 212.504267 157.615637 
L 214.135697 166.459838 
L 215.767127 145.599971 
L 217.398556 174.795431 
L 219.029986 149.054885 
L 220.661416 227.656282 
L 222.292846 152.539468 
L 223.924276 119.749287 
L 225.555706 193.723575 
L 227.187136 146.524252 
L 228.818566 196.162871 
L 230.449995 127.702982 
L 232.081425 166.662625 
L 233.712855 181.611863 
L 235.344285 160.135713 
L 236.975715 156.343578 
L 238.607145 168.346185 
L 240.238575 201.301274 
L 241.870005 129.941033 
L 243.501434 156.485795 
L 245.132864 222.403228 
L 246.764294 123.979898 
L 248.395724 175.433104 
L 250.027154 145.998429 
L 251.658584 131.334567 
L 253.290014 145.87677 
L 254.921444 143.762127 
L 256.552873 160.154356 
L 258.184303 119.577385 
L 259.815733 162.940334 
L 261.447163 164.076867 
L 263.078593 170.014052 
L 264.710023 143.028247 
L 266.341453 192.31164 
L 267.972883 208.329623 
L 269.604312 160.156 
L 271.235742 159.887732 
L 272.867172 172.464599 
L 274.498602 155.868526 
L 276.130032 107.366652 
L 277.761462 202.806352 
L 279.392892 117.905458 
L 281.024322 142.355736 
L 282.655751 152.91003 
L 284.287181 134.881615 
L 285.918611 150.078911 
L 287.550041 127.959321 
L 289.181471 149.351841 
L 290.812901 125.308261 
L 292.444331 133.817697 
L 294.075761 171.14117 
L 295.70719 169.765116 
L 297.33862 147.616615 
L 298.97005 144.266355 
L 300.60148 133.290094 
L 302.23291 163.370634 
L 303.86434 118.218493 
L 305.49577 118.684507 
L 307.1272 116.414067 
L 308.75863 127.698389 
L 310.390059 156.911746 
L 312.021489 169.131336 
L 313.652919 164.559264 
L 315.284349 167.602537 
L 316.915779 144.571551 
L 318.547209 188.097898 
L 320.178639 168.821623 
L 321.810069 145.757865 
L 323.441498 172.194609 
L 325.072928 131.388474 
L 326.704358 161.618819 
L 328.335788 136.981497 
L 329.967218 143.161449 
L 331.598648 139.806894 
L 333.230078 204.392863 
L 334.861508 134.836614 
L 336.492937 143.653058 
L 338.124367 137.115605 
L 339.755797 149.130681 
L 341.387227 135.836253 
L 343.018657 138.470764 
L 344.650087 147.937585 
L 346.281517 145.283488 
L 347.912947 131.279541 
L 349.544376 154.473674 
L 351.175806 155.795707 
L 352.807236 194.538893 
L 354.438666 189.761299 
L 356.070096 157.013372 
L 357.701526 200.477372 
L 359.332956 162.49687 
L 360.964386 118.707287 
L 362.595815 153.664496 
L 364.227245 113.215211 
L 365.858675 121.713169 
L 367.490105 181.948472 
L 369.121535 188.345684 
L 370.752965 175.645828 
L 372.384395 135.736082 
L 374.015825 159.885877 
L 375.647254 130.632833 
L 377.278684 175.635242 
L 378.910114 148.268782 
L 380.541544 118.103756 
L 382.172974 163.656089 
L 383.804404 139.459498 
L 385.435834 150.024503 
L 387.067264 118.583603 
L 388.698693 208.174101 
L 391.961553 109.177608 
L 393.592983 171.674978 
L 395.224413 176.796991 
L 396.855843 161.582608 
L 398.487273 142.869921 
L 398.487273 142.869921 
" clip-path="url(#p570192b3cb)" style="fill: none; stroke: #1f77b4; stroke-width: 1.5; stroke-linecap: round"/>
   </g>
   <g id="LineCollection_1">
    <path d="M 398.487273 295.488 
L 398.487273 53.568 
" clip-path="url(#p570192b3cb)" style="fill: none; stroke-dasharray: 5.55,2.4; stroke-dashoffset: 0; stroke: #1f77b4; stroke-width: 1.5"/>
   </g>
   <g id="patch_3">
    <path d="M 57.6 307.584 
L 57.6 41.472 
" style="fill: none; stroke: #cccccc; stroke-width: 0.8; stroke-linejoin: miter; stroke-linecap: square"/>
   </g>
   <g id="patch_4">
    <path d="M 414.72 307.584 
L 414.72 41.472 
" style="fill: none; stroke: #cccccc; stroke-width: 0.8; stroke-linejoin: miter; stroke-linecap: square"/>
   </g>
   <g id="patch_5">
    <path d="M 57.6 307.584 
L 414.72 307.584 
" style="fill: none; stroke: #cccccc; stroke-width: 0.8; stroke-linejoin: miter; stroke-linecap: square"/>
   </g>
   <g id="patch_6">
    <path d="M 57.6 41.472 
L 414.72 41.472 
" style="fill: none; stroke: #cccccc; stroke-width: 0.8; stroke-linejoin: miter; stroke-linecap: square"/>
   </g>
   <g id="text_18">
    <!-- Model performance vs. # of iterations -->
    <g style="fill: #262626" transform="translate(122.314688 35.472)scale(0.12 -0.12)">
     <defs>
      <path id="DejaVuSans-4d" d="M 628 4666 
L 1569 4666 
L 2759 1491 
L 3956 4666 
L 4897 4666 
L 4897 0 
L 4281 0 
L 4281 4097 
L 3078 897 
L 2444 897 
L 1241 4097 
L 1241 0 
L 628 0 
L 628 4666 
z
" transform="scale(0.015625)"/>
      <path id="DejaVuSans-64" d="M 2906 2969 
L 2906 4863 
L 3481 4863 
L 3481 0 
L 2906 0 
L 2906 525 
Q 2725 213 2448 61 
Q 2172 -91 1784 -91 
Q 1150 -91 751 415 
Q 353 922 353 1747 
Q 353 2572 751 3078 
Q 1150 3584 1784 3584 
Q 2172 3584 2448 3432 
Q 2725 3281 2906 2969 
z
M 947 1747 
Q 947 1113 1208 752 
Q 1469 391 1925 391 
Q 2381 391 2643 752 
Q 2906 1113 2906 1747 
Q 2906 2381 2643 2742 
Q 2381 3103 1925 3103 
Q 1469 3103 1208 2742 
Q 947 2381 947 1747 
z
" transform="scale(0.015625)"/>
      <path id="DejaVuSans-6c" d="M 603 4863 
L 1178 4863 
L 1178 0 
L 603 0 
L 603 4863 
z
" transform="scale(0.015625)"/>
      <path id="DejaVuSans-20" transform="scale(0.015625)"/>
      <path id="DejaVuSans-70" d="M 1159 525 
L 1159 -1331 
L 581 -1331 
L 581 3500 
L 1159 3500 
L 1159 2969 
Q 1341 3281 1617 3432 
Q 1894 3584 2278 3584 
Q 2916 3584 3314 3078 
Q 3713 2572 3713 1747 
Q 3713 922 3314 415 
Q 2916 -91 2278 -91 
Q 1894 -91 1617 61 
Q 1341 213 1159 525 
z
M 3116 1747 
Q 3116 2381 2855 2742 
Q 2594 3103 2138 3103 
Q 1681 3103 1420 2742 
Q 1159 2381 1159 1747 
Q 1159 1113 1420 752 
Q 1681 391 2138 391 
Q 2594 391 2855 752 
Q 3116 1113 3116 1747 
z
" transform="scale(0.015625)"/>
      <path id="DejaVuSans-66" d="M 2375 4863 
L 2375 4384 
L 1825 4384 
Q 1516 4384 1395 4259 
Q 1275 4134 1275 3809 
L 1275 3500 
L 2222 3500 
L 2222 3053 
L 1275 3053 
L 1275 0 
L 697 0 
L 697 3053 
L 147 3053 
L 147 3500 
L 697 3500 
L 697 3744 
Q 697 4328 969 4595 
Q 1241 4863 1831 4863 
L 2375 4863 
z
" transform="scale(0.015625)"/>
      <path id="DejaVuSans-6d" d="M 3328 2828 
Q 3544 3216 3844 3400 
Q 4144 3584 4550 3584 
Q 5097 3584 5394 3201 
Q 5691 2819 5691 2113 
L 5691 0 
L 5113 0 
L 5113 2094 
Q 5113 2597 4934 2840 
Q 4756 3084 4391 3084 
Q 3944 3084 3684 2787 
Q 3425 2491 3425 1978 
L 3425 0 
L 2847 0 
L 2847 2094 
Q 2847 2600 2669 2842 
Q 2491 3084 2119 3084 
Q 1678 3084 1418 2786 
Q 1159 2488 1159 1978 
L 1159 0 
L 581 0 
L 581 3500 
L 1159 3500 
L 1159 2956 
Q 1356 3278 1631 3431 
Q 1906 3584 2284 3584 
Q 2666 3584 2933 3390 
Q 3200 3197 3328 2828 
z
" transform="scale(0.015625)"/>
      <path id="DejaVuSans-76" d="M 191 3500 
L 800 3500 
L 1894 563 
L 2988 3500 
L 3597 3500 
L 2284 0 
L 1503 0 
L 191 3500 
z
" transform="scale(0.015625)"/>
      <path id="DejaVuSans-73" d="M 2834 3397 
L 2834 2853 
Q 2591 2978 2328 3040 
Q 2066 3103 1784 3103 
Q 1356 3103 1142 2972 
Q 928 2841 928 2578 
Q 928 2378 1081 2264 
Q 1234 2150 1697 2047 
L 1894 2003 
Q 2506 1872 2764 1633 
Q 3022 1394 3022 966 
Q 3022 478 2636 193 
Q 2250 -91 1575 -91 
Q 1294 -91 989 -36 
Q 684 19 347 128 
L 347 722 
Q 666 556 975 473 
Q 1284 391 1588 391 
Q 1994 391 2212 530 
Q 2431 669 2431 922 
Q 2431 1156 2273 1281 
Q 2116 1406 1581 1522 
L 1381 1569 
Q 847 1681 609 1914 
Q 372 2147 372 2553 
Q 372 3047 722 3315 
Q 1072 3584 1716 3584 
Q 2034 3584 2315 3537 
Q 2597 3491 2834 3397 
z
" transform="scale(0.015625)"/>
      <path id="DejaVuSans-23" d="M 3272 2816 
L 2363 2816 
L 2100 1772 
L 3016 1772 
L 3272 2816 
z
M 2803 4594 
L 2478 3297 
L 3391 3297 
L 3719 4594 
L 4219 4594 
L 3897 3297 
L 4872 3297 
L 4872 2816 
L 3775 2816 
L 3519 1772 
L 4513 1772 
L 4513 1294 
L 3397 1294 
L 3072 0 
L 2572 0 
L 2894 1294 
L 1978 1294 
L 1656 0 
L 1153 0 
L 1478 1294 
L 494 1294 
L 494 1772 
L 1594 1772 
L 1856 2816 
L 850 2816 
L 850 3297 
L 1978 3297 
L 2297 4594 
L 2803 4594 
z
" transform="scale(0.015625)"/>
     </defs>
     <use xlink:href="#DejaVuSans-4d"/>
     <use xlink:href="#DejaVuSans-6f" x="86.279297"/>
     <use xlink:href="#DejaVuSans-64" x="147.460938"/>
     <use xlink:href="#DejaVuSans-65" x="210.9375"/>
     <use xlink:href="#DejaVuSans-6c" x="272.460938"/>
     <use xlink:href="#DejaVuSans-20" x="300.244141"/>
     <use xlink:href="#DejaVuSans-70" x="332.03125"/>
     <use xlink:href="#DejaVuSans-65" x="395.507812"/>
     <use xlink:href="#DejaVuSans-72" x="457.03125"/>
     <use xlink:href="#DejaVuSans-66" x="498.144531"/>
     <use xlink:href="#DejaVuSans-6f" x="533.349609"/>
     <use xlink:href="#DejaVuSans-72" x="594.53125"/>
     <use xlink:href="#DejaVuSans-6d" x="633.894531"/>
     <use xlink:href="#DejaVuSans-61" x="731.306641"/>
     <use xlink:href="#DejaVuSans-6e" x="792.585938"/>
     <use xlink:href="#DejaVuSans-63" x="855.964844"/>
     <use xlink:href="#DejaVuSans-65" x="910.945312"/>
     <use xlink:href="#DejaVuSans-20" x="972.46875"/>
     <use xlink:href="#DejaVuSans-76" x="1004.255859"/>
     <use xlink:href="#DejaVuSans-73" x="1063.435547"/>
     <use xlink:href="#DejaVuSans-2e" x="1115.535156"/>
     <use xlink:href="#DejaVuSans-20" x="1147.322266"/>
     <use xlink:href="#DejaVuSans-23" x="1179.109375"/>
     <use xlink:href="#DejaVuSans-20" x="1262.898438"/>
     <use xlink:href="#DejaVuSans-6f" x="1294.685547"/>
     <use xlink:href="#DejaVuSans-66" x="1355.867188"/>
     <use xlink:href="#DejaVuSans-20" x="1391.072266"/>
     <use xlink:href="#DejaVuSans-69" x="1422.859375"/>
     <use xlink:href="#DejaVuSans-74" x="1450.642578"/>
     <use xlink:href="#DejaVuSans-65" x="1489.851562"/>
     <use xlink:href="#DejaVuSans-72" x="1551.375"/>
     <use xlink:href="#DejaVuSans-61" x="1592.488281"/>
     <use xlink:href="#DejaVuSans-74" x="1653.767578"/>
     <use xlink:href="#DejaVuSans-69" x="1692.976562"/>
     <use xlink:href="#DejaVuSans-6f" x="1720.759766"/>
     <use xlink:href="#DejaVuSans-6e" x="1781.941406"/>
     <use xlink:href="#DejaVuSans-73" x="1845.320312"/>
    </g>
   </g>
  </g>
 </g>
 <defs>
  <clipPath id="p570192b3cb">
   <rect x="57.6" y="41.472" width="357.12" height="266.112"/>
  </clipPath>
 </defs>
</svg>
