<?xml version="1.0" encoding="utf-8" standalone="no"?>
<!DOCTYPE svg PUBLIC "-//W3C//DTD SVG 1.1//EN"
  "http://www.w3.org/Graphics/SVG/1.1/DTD/svg11.dtd">
<svg xmlns:xlink="http://www.w3.org/1999/xlink" width="460.8pt" height="345.6pt" viewBox="0 0 460.8 345.6" xmlns="http://www.w3.org/2000/svg" version="1.1">
 <metadata>
  <rdf:RDF xmlns:dc="http://purl.org/dc/elements/1.1/" xmlns:cc="http://creativecommons.org/ns#" xmlns:rdf="http://www.w3.org/1999/02/22-rdf-syntax-ns#">
   <cc:Work>
    <dc:type rdf:resource="http://purl.org/dc/dcmitype/StillImage"/>
    <dc:date>2022-05-20T04:43:48.337505</dc:date>
    <dc:format>image/svg+xml</dc:format>
    <dc:creator>
     <cc:Agent>
      <dc:title>Matplotlib v3.5.1, https://matplotlib.org/</dc:title>
     </cc:Agent>
    </dc:creator>
   </cc:Work>
  </rdf:RDF>
 </metadata>
 <defs>
  <style type="text/css">*{stroke-linejoin: round; stroke-linecap: butt}</style>
 </defs>
 <g id="figure_1">
  <g id="patch_1">
   <path d="M 0 345.6 
L 460.8 345.6 
L 460.8 0 
L 0 0 
z
" style="fill: #ffffff"/>
  </g>
  <g id="axes_1">
   <g id="patch_2">
    <path d="M 57.6 307.584 
L 414.72 307.584 
L 414.72 41.472 
L 57.6 41.472 
z
" style="fill: #ffffff"/>
   </g>
   <g id="matplotlib.axis_1">
    <g id="xtick_1">
     <g id="line2d_1">
      <path d="M 72.201297 307.584 
L 72.201297 41.472 
" clip-path="url(#p1565744112)" style="fill: none; stroke: #cccccc; stroke-width: 0.8; stroke-linecap: round"/>
     </g>
     <g id="text_1">
      <!-- 0 -->
      <g style="fill: #262626" transform="translate(69.020047 322.182437)scale(0.1 -0.1)">
       <defs>
        <path id="DejaVuSans-30" d="M 2034 4250 
Q 1547 4250 1301 3770 
Q 1056 3291 1056 2328 
Q 1056 1369 1301 889 
Q 1547 409 2034 409 
Q 2525 409 2770 889 
Q 3016 1369 3016 2328 
Q 3016 3291 2770 3770 
Q 2525 4250 2034 4250 
z
M 2034 4750 
Q 2819 4750 3233 4129 
Q 3647 3509 3647 2328 
Q 3647 1150 3233 529 
Q 2819 -91 2034 -91 
Q 1250 -91 836 529 
Q 422 1150 422 2328 
Q 422 3509 836 4129 
Q 1250 4750 2034 4750 
z
" transform="scale(0.015625)"/>
       </defs>
       <use xlink:href="#DejaVuSans-30"/>
      </g>
     </g>
    </g>
    <g id="xtick_2">
     <g id="line2d_2">
      <path d="M 112.987044 307.584 
L 112.987044 41.472 
" clip-path="url(#p1565744112)" style="fill: none; stroke: #cccccc; stroke-width: 0.8; stroke-linecap: round"/>
     </g>
     <g id="text_2">
      <!-- 25 -->
      <g style="fill: #262626" transform="translate(106.624544 322.182437)scale(0.1 -0.1)">
       <defs>
        <path id="DejaVuSans-32" d="M 1228 531 
L 3431 531 
L 3431 0 
L 469 0 
L 469 531 
Q 828 903 1448 1529 
Q 2069 2156 2228 2338 
Q 2531 2678 2651 2914 
Q 2772 3150 2772 3378 
Q 2772 3750 2511 3984 
Q 2250 4219 1831 4219 
Q 1534 4219 1204 4116 
Q 875 4013 500 3803 
L 500 4441 
Q 881 4594 1212 4672 
Q 1544 4750 1819 4750 
Q 2544 4750 2975 4387 
Q 3406 4025 3406 3419 
Q 3406 3131 3298 2873 
Q 3191 2616 2906 2266 
Q 2828 2175 2409 1742 
Q 1991 1309 1228 531 
z
" transform="scale(0.015625)"/>
        <path id="DejaVuSans-35" d="M 691 4666 
L 3169 4666 
L 3169 4134 
L 1269 4134 
L 1269 2991 
Q 1406 3038 1543 3061 
Q 1681 3084 1819 3084 
Q 2600 3084 3056 2656 
Q 3513 2228 3513 1497 
Q 3513 744 3044 326 
Q 2575 -91 1722 -91 
Q 1428 -91 1123 -41 
Q 819 9 494 109 
L 494 744 
Q 775 591 1075 516 
Q 1375 441 1709 441 
Q 2250 441 2565 725 
Q 2881 1009 2881 1497 
Q 2881 1984 2565 2268 
Q 2250 2553 1709 2553 
Q 1456 2553 1204 2497 
Q 953 2441 691 2322 
L 691 4666 
z
" transform="scale(0.015625)"/>
       </defs>
       <use xlink:href="#DejaVuSans-32"/>
       <use xlink:href="#DejaVuSans-35" x="63.623047"/>
      </g>
     </g>
    </g>
    <g id="xtick_3">
     <g id="line2d_3">
      <path d="M 153.772791 307.584 
L 153.772791 41.472 
" clip-path="url(#p1565744112)" style="fill: none; stroke: #cccccc; stroke-width: 0.8; stroke-linecap: round"/>
     </g>
     <g id="text_3">
      <!-- 50 -->
      <g style="fill: #262626" transform="translate(147.410291 322.182437)scale(0.1 -0.1)">
       <use xlink:href="#DejaVuSans-35"/>
       <use xlink:href="#DejaVuSans-30" x="63.623047"/>
      </g>
     </g>
    </g>
    <g id="xtick_4">
     <g id="line2d_4">
      <path d="M 194.558538 307.584 
L 194.558538 41.472 
" clip-path="url(#p1565744112)" style="fill: none; stroke: #cccccc; stroke-width: 0.8; stroke-linecap: round"/>
     </g>
     <g id="text_4">
      <!-- 75 -->
      <g style="fill: #262626" transform="translate(188.196038 322.182437)scale(0.1 -0.1)">
       <defs>
        <path id="DejaVuSans-37" d="M 525 4666 
L 3525 4666 
L 3525 4397 
L 1831 0 
L 1172 0 
L 2766 4134 
L 525 4134 
L 525 4666 
z
" transform="scale(0.015625)"/>
       </defs>
       <use xlink:href="#DejaVuSans-37"/>
       <use xlink:href="#DejaVuSans-35" x="63.623047"/>
      </g>
     </g>
    </g>
    <g id="xtick_5">
     <g id="line2d_5">
      <path d="M 235.344285 307.584 
L 235.344285 41.472 
" clip-path="url(#p1565744112)" style="fill: none; stroke: #cccccc; stroke-width: 0.8; stroke-linecap: round"/>
     </g>
     <g id="text_5">
      <!-- 100 -->
      <g style="fill: #262626" transform="translate(225.800535 322.182437)scale(0.1 -0.1)">
       <defs>
        <path id="DejaVuSans-31" d="M 794 531 
L 1825 531 
L 1825 4091 
L 703 3866 
L 703 4441 
L 1819 4666 
L 2450 4666 
L 2450 531 
L 3481 531 
L 3481 0 
L 794 0 
L 794 531 
z
" transform="scale(0.015625)"/>
       </defs>
       <use xlink:href="#DejaVuSans-31"/>
       <use xlink:href="#DejaVuSans-30" x="63.623047"/>
       <use xlink:href="#DejaVuSans-30" x="127.246094"/>
      </g>
     </g>
    </g>
    <g id="xtick_6">
     <g id="line2d_6">
      <path d="M 276.130032 307.584 
L 276.130032 41.472 
" clip-path="url(#p1565744112)" style="fill: none; stroke: #cccccc; stroke-width: 0.8; stroke-linecap: round"/>
     </g>
     <g id="text_6">
      <!-- 125 -->
      <g style="fill: #262626" transform="translate(266.586282 322.182437)scale(0.1 -0.1)">
       <use xlink:href="#DejaVuSans-31"/>
       <use xlink:href="#DejaVuSans-32" x="63.623047"/>
       <use xlink:href="#DejaVuSans-35" x="127.246094"/>
      </g>
     </g>
    </g>
    <g id="xtick_7">
     <g id="line2d_7">
      <path d="M 316.915779 307.584 
L 316.915779 41.472 
" clip-path="url(#p1565744112)" style="fill: none; stroke: #cccccc; stroke-width: 0.8; stroke-linecap: round"/>
     </g>
     <g id="text_7">
      <!-- 150 -->
      <g style="fill: #262626" transform="translate(307.372029 322.182437)scale(0.1 -0.1)">
       <use xlink:href="#DejaVuSans-31"/>
       <use xlink:href="#DejaVuSans-35" x="63.623047"/>
       <use xlink:href="#DejaVuSans-30" x="127.246094"/>
      </g>
     </g>
    </g>
    <g id="xtick_8">
     <g id="line2d_8">
      <path d="M 357.701526 307.584 
L 357.701526 41.472 
" clip-path="url(#p1565744112)" style="fill: none; stroke: #cccccc; stroke-width: 0.8; stroke-linecap: round"/>
     </g>
     <g id="text_8">
      <!-- 175 -->
      <g style="fill: #262626" transform="translate(348.157776 322.182437)scale(0.1 -0.1)">
       <use xlink:href="#DejaVuSans-31"/>
       <use xlink:href="#DejaVuSans-37" x="63.623047"/>
       <use xlink:href="#DejaVuSans-35" x="127.246094"/>
      </g>
     </g>
    </g>
    <g id="xtick_9">
     <g id="line2d_9">
      <path d="M 398.487273 307.584 
L 398.487273 41.472 
" clip-path="url(#p1565744112)" style="fill: none; stroke: #cccccc; stroke-width: 0.8; stroke-linecap: round"/>
     </g>
     <g id="text_9">
      <!-- 200 -->
      <g style="fill: #262626" transform="translate(388.943523 322.182437)scale(0.1 -0.1)">
       <use xlink:href="#DejaVuSans-32"/>
       <use xlink:href="#DejaVuSans-30" x="63.623047"/>
       <use xlink:href="#DejaVuSans-30" x="127.246094"/>
      </g>
     </g>
    </g>
    <g id="text_10">
     <!-- Iteration -->
     <g style="fill: #262626" transform="translate(214.951406 335.860562)scale(0.1 -0.1)">
      <defs>
       <path id="DejaVuSans-49" d="M 628 4666 
L 1259 4666 
L 1259 0 
L 628 0 
L 628 4666 
z
" transform="scale(0.015625)"/>
       <path id="DejaVuSans-74" d="M 1172 4494 
L 1172 3500 
L 2356 3500 
L 2356 3053 
L 1172 3053 
L 1172 1153 
Q 1172 725 1289 603 
Q 1406 481 1766 481 
L 2356 481 
L 2356 0 
L 1766 0 
Q 1100 0 847 248 
Q 594 497 594 1153 
L 594 3053 
L 172 3053 
L 172 3500 
L 594 3500 
L 594 4494 
L 1172 4494 
z
" transform="scale(0.015625)"/>
       <path id="DejaVuSans-65" d="M 3597 1894 
L 3597 1613 
L 953 1613 
Q 991 1019 1311 708 
Q 1631 397 2203 397 
Q 2534 397 2845 478 
Q 3156 559 3463 722 
L 3463 178 
Q 3153 47 2828 -22 
Q 2503 -91 2169 -91 
Q 1331 -91 842 396 
Q 353 884 353 1716 
Q 353 2575 817 3079 
Q 1281 3584 2069 3584 
Q 2775 3584 3186 3129 
Q 3597 2675 3597 1894 
z
M 3022 2063 
Q 3016 2534 2758 2815 
Q 2500 3097 2075 3097 
Q 1594 3097 1305 2825 
Q 1016 2553 972 2059 
L 3022 2063 
z
" transform="scale(0.015625)"/>
       <path id="DejaVuSans-72" d="M 2631 2963 
Q 2534 3019 2420 3045 
Q 2306 3072 2169 3072 
Q 1681 3072 1420 2755 
Q 1159 2438 1159 1844 
L 1159 0 
L 581 0 
L 581 3500 
L 1159 3500 
L 1159 2956 
Q 1341 3275 1631 3429 
Q 1922 3584 2338 3584 
Q 2397 3584 2469 3576 
Q 2541 3569 2628 3553 
L 2631 2963 
z
" transform="scale(0.015625)"/>
       <path id="DejaVuSans-61" d="M 2194 1759 
Q 1497 1759 1228 1600 
Q 959 1441 959 1056 
Q 959 750 1161 570 
Q 1363 391 1709 391 
Q 2188 391 2477 730 
Q 2766 1069 2766 1631 
L 2766 1759 
L 2194 1759 
z
M 3341 1997 
L 3341 0 
L 2766 0 
L 2766 531 
Q 2569 213 2275 61 
Q 1981 -91 1556 -91 
Q 1019 -91 701 211 
Q 384 513 384 1019 
Q 384 1609 779 1909 
Q 1175 2209 1959 2209 
L 2766 2209 
L 2766 2266 
Q 2766 2663 2505 2880 
Q 2244 3097 1772 3097 
Q 1472 3097 1187 3025 
Q 903 2953 641 2809 
L 641 3341 
Q 956 3463 1253 3523 
Q 1550 3584 1831 3584 
Q 2591 3584 2966 3190 
Q 3341 2797 3341 1997 
z
" transform="scale(0.015625)"/>
       <path id="DejaVuSans-69" d="M 603 3500 
L 1178 3500 
L 1178 0 
L 603 0 
L 603 3500 
z
M 603 4863 
L 1178 4863 
L 1178 4134 
L 603 4134 
L 603 4863 
z
" transform="scale(0.015625)"/>
       <path id="DejaVuSans-6f" d="M 1959 3097 
Q 1497 3097 1228 2736 
Q 959 2375 959 1747 
Q 959 1119 1226 758 
Q 1494 397 1959 397 
Q 2419 397 2687 759 
Q 2956 1122 2956 1747 
Q 2956 2369 2687 2733 
Q 2419 3097 1959 3097 
z
M 1959 3584 
Q 2709 3584 3137 3096 
Q 3566 2609 3566 1747 
Q 3566 888 3137 398 
Q 2709 -91 1959 -91 
Q 1206 -91 779 398 
Q 353 888 353 1747 
Q 353 2609 779 3096 
Q 1206 3584 1959 3584 
z
" transform="scale(0.015625)"/>
       <path id="DejaVuSans-6e" d="M 3513 2113 
L 3513 0 
L 2938 0 
L 2938 2094 
Q 2938 2591 2744 2837 
Q 2550 3084 2163 3084 
Q 1697 3084 1428 2787 
Q 1159 2491 1159 1978 
L 1159 0 
L 581 0 
L 581 3500 
L 1159 3500 
L 1159 2956 
Q 1366 3272 1645 3428 
Q 1925 3584 2291 3584 
Q 2894 3584 3203 3211 
Q 3513 2838 3513 2113 
z
" transform="scale(0.015625)"/>
      </defs>
      <use xlink:href="#DejaVuSans-49"/>
      <use xlink:href="#DejaVuSans-74" x="29.492188"/>
      <use xlink:href="#DejaVuSans-65" x="68.701172"/>
      <use xlink:href="#DejaVuSans-72" x="130.224609"/>
      <use xlink:href="#DejaVuSans-61" x="171.337891"/>
      <use xlink:href="#DejaVuSans-74" x="232.617188"/>
      <use xlink:href="#DejaVuSans-69" x="271.826172"/>
      <use xlink:href="#DejaVuSans-6f" x="299.609375"/>
      <use xlink:href="#DejaVuSans-6e" x="360.791016"/>
     </g>
    </g>
   </g>
   <g id="matplotlib.axis_2">
    <g id="ytick_1">
     <g id="line2d_10">
      <path d="M 57.6 307.37718 
L 414.72 307.37718 
" clip-path="url(#p1565744112)" style="fill: none; stroke: #cccccc; stroke-width: 0.8; stroke-linecap: round"/>
     </g>
     <g id="text_11">
      <!-- 0.550 -->
      <g style="fill: #262626" transform="translate(21.971875 311.176399)scale(0.1 -0.1)">
       <defs>
        <path id="DejaVuSans-2e" d="M 684 794 
L 1344 794 
L 1344 0 
L 684 0 
L 684 794 
z
" transform="scale(0.015625)"/>
       </defs>
       <use xlink:href="#DejaVuSans-30"/>
       <use xlink:href="#DejaVuSans-2e" x="63.623047"/>
       <use xlink:href="#DejaVuSans-35" x="95.410156"/>
       <use xlink:href="#DejaVuSans-35" x="159.033203"/>
       <use xlink:href="#DejaVuSans-30" x="222.65625"/>
      </g>
     </g>
    </g>
    <g id="ytick_2">
     <g id="line2d_11">
      <path d="M 57.6 274.675496 
L 414.72 274.675496 
" clip-path="url(#p1565744112)" style="fill: none; stroke: #cccccc; stroke-width: 0.8; stroke-linecap: round"/>
     </g>
     <g id="text_12">
      <!-- 0.575 -->
      <g style="fill: #262626" transform="translate(21.971875 278.474715)scale(0.1 -0.1)">
       <use xlink:href="#DejaVuSans-30"/>
       <use xlink:href="#DejaVuSans-2e" x="63.623047"/>
       <use xlink:href="#DejaVuSans-35" x="95.410156"/>
       <use xlink:href="#DejaVuSans-37" x="159.033203"/>
       <use xlink:href="#DejaVuSans-35" x="222.65625"/>
      </g>
     </g>
    </g>
    <g id="ytick_3">
     <g id="line2d_12">
      <path d="M 57.6 241.973812 
L 414.72 241.973812 
" clip-path="url(#p1565744112)" style="fill: none; stroke: #cccccc; stroke-width: 0.8; stroke-linecap: round"/>
     </g>
     <g id="text_13">
      <!-- 0.600 -->
      <g style="fill: #262626" transform="translate(21.971875 245.773031)scale(0.1 -0.1)">
       <defs>
        <path id="DejaVuSans-36" d="M 2113 2584 
Q 1688 2584 1439 2293 
Q 1191 2003 1191 1497 
Q 1191 994 1439 701 
Q 1688 409 2113 409 
Q 2538 409 2786 701 
Q 3034 994 3034 1497 
Q 3034 2003 2786 2293 
Q 2538 2584 2113 2584 
z
M 3366 4563 
L 3366 3988 
Q 3128 4100 2886 4159 
Q 2644 4219 2406 4219 
Q 1781 4219 1451 3797 
Q 1122 3375 1075 2522 
Q 1259 2794 1537 2939 
Q 1816 3084 2150 3084 
Q 2853 3084 3261 2657 
Q 3669 2231 3669 1497 
Q 3669 778 3244 343 
Q 2819 -91 2113 -91 
Q 1303 -91 875 529 
Q 447 1150 447 2328 
Q 447 3434 972 4092 
Q 1497 4750 2381 4750 
Q 2619 4750 2861 4703 
Q 3103 4656 3366 4563 
z
" transform="scale(0.015625)"/>
       </defs>
       <use xlink:href="#DejaVuSans-30"/>
       <use xlink:href="#DejaVuSans-2e" x="63.623047"/>
       <use xlink:href="#DejaVuSans-36" x="95.410156"/>
       <use xlink:href="#DejaVuSans-30" x="159.033203"/>
       <use xlink:href="#DejaVuSans-30" x="222.65625"/>
      </g>
     </g>
    </g>
    <g id="ytick_4">
     <g id="line2d_13">
      <path d="M 57.6 209.272128 
L 414.72 209.272128 
" clip-path="url(#p1565744112)" style="fill: none; stroke: #cccccc; stroke-width: 0.8; stroke-linecap: round"/>
     </g>
     <g id="text_14">
      <!-- 0.625 -->
      <g style="fill: #262626" transform="translate(21.971875 213.071347)scale(0.1 -0.1)">
       <use xlink:href="#DejaVuSans-30"/>
       <use xlink:href="#DejaVuSans-2e" x="63.623047"/>
       <use xlink:href="#DejaVuSans-36" x="95.410156"/>
       <use xlink:href="#DejaVuSans-32" x="159.033203"/>
       <use xlink:href="#DejaVuSans-35" x="222.65625"/>
      </g>
     </g>
    </g>
    <g id="ytick_5">
     <g id="line2d_14">
      <path d="M 57.6 176.570445 
L 414.72 176.570445 
" clip-path="url(#p1565744112)" style="fill: none; stroke: #cccccc; stroke-width: 0.8; stroke-linecap: round"/>
     </g>
     <g id="text_15">
      <!-- 0.650 -->
      <g style="fill: #262626" transform="translate(21.971875 180.369663)scale(0.1 -0.1)">
       <use xlink:href="#DejaVuSans-30"/>
       <use xlink:href="#DejaVuSans-2e" x="63.623047"/>
       <use xlink:href="#DejaVuSans-36" x="95.410156"/>
       <use xlink:href="#DejaVuSans-35" x="159.033203"/>
       <use xlink:href="#DejaVuSans-30" x="222.65625"/>
      </g>
     </g>
    </g>
    <g id="ytick_6">
     <g id="line2d_15">
      <path d="M 57.6 143.868761 
L 414.72 143.868761 
" clip-path="url(#p1565744112)" style="fill: none; stroke: #cccccc; stroke-width: 0.8; stroke-linecap: round"/>
     </g>
     <g id="text_16">
      <!-- 0.675 -->
      <g style="fill: #262626" transform="translate(21.971875 147.667979)scale(0.1 -0.1)">
       <use xlink:href="#DejaVuSans-30"/>
       <use xlink:href="#DejaVuSans-2e" x="63.623047"/>
       <use xlink:href="#DejaVuSans-36" x="95.410156"/>
       <use xlink:href="#DejaVuSans-37" x="159.033203"/>
       <use xlink:href="#DejaVuSans-35" x="222.65625"/>
      </g>
     </g>
    </g>
    <g id="ytick_7">
     <g id="line2d_16">
      <path d="M 57.6 111.167077 
L 414.72 111.167077 
" clip-path="url(#p1565744112)" style="fill: none; stroke: #cccccc; stroke-width: 0.8; stroke-linecap: round"/>
     </g>
     <g id="text_17">
      <!-- 0.700 -->
      <g style="fill: #262626" transform="translate(21.971875 114.966295)scale(0.1 -0.1)">
       <use xlink:href="#DejaVuSans-30"/>
       <use xlink:href="#DejaVuSans-2e" x="63.623047"/>
       <use xlink:href="#DejaVuSans-37" x="95.410156"/>
       <use xlink:href="#DejaVuSans-30" x="159.033203"/>
       <use xlink:href="#DejaVuSans-30" x="222.65625"/>
      </g>
     </g>
    </g>
    <g id="ytick_8">
     <g id="line2d_17">
      <path d="M 57.6 78.465393 
L 414.72 78.465393 
" clip-path="url(#p1565744112)" style="fill: none; stroke: #cccccc; stroke-width: 0.8; stroke-linecap: round"/>
     </g>
     <g id="text_18">
      <!-- 0.725 -->
      <g style="fill: #262626" transform="translate(21.971875 82.264611)scale(0.1 -0.1)">
       <use xlink:href="#DejaVuSans-30"/>
       <use xlink:href="#DejaVuSans-2e" x="63.623047"/>
       <use xlink:href="#DejaVuSans-37" x="95.410156"/>
       <use xlink:href="#DejaVuSans-32" x="159.033203"/>
       <use xlink:href="#DejaVuSans-35" x="222.65625"/>
      </g>
     </g>
    </g>
    <g id="ytick_9">
     <g id="line2d_18">
      <path d="M 57.6 45.763709 
L 414.72 45.763709 
" clip-path="url(#p1565744112)" style="fill: none; stroke: #cccccc; stroke-width: 0.8; stroke-linecap: round"/>
     </g>
     <g id="text_19">
      <!-- 0.750 -->
      <g style="fill: #262626" transform="translate(21.971875 49.562928)scale(0.1 -0.1)">
       <use xlink:href="#DejaVuSans-30"/>
       <use xlink:href="#DejaVuSans-2e" x="63.623047"/>
       <use xlink:href="#DejaVuSans-37" x="95.410156"/>
       <use xlink:href="#DejaVuSans-35" x="159.033203"/>
       <use xlink:href="#DejaVuSans-30" x="222.65625"/>
      </g>
     </g>
    </g>
    <g id="text_20">
     <!-- Auroc -->
     <g style="fill: #262626" transform="translate(15.892188 188.868625)rotate(-90)scale(0.1 -0.1)">
      <defs>
       <path id="DejaVuSans-41" d="M 2188 4044 
L 1331 1722 
L 3047 1722 
L 2188 4044 
z
M 1831 4666 
L 2547 4666 
L 4325 0 
L 3669 0 
L 3244 1197 
L 1141 1197 
L 716 0 
L 50 0 
L 1831 4666 
z
" transform="scale(0.015625)"/>
       <path id="DejaVuSans-75" d="M 544 1381 
L 544 3500 
L 1119 3500 
L 1119 1403 
Q 1119 906 1312 657 
Q 1506 409 1894 409 
Q 2359 409 2629 706 
Q 2900 1003 2900 1516 
L 2900 3500 
L 3475 3500 
L 3475 0 
L 2900 0 
L 2900 538 
Q 2691 219 2414 64 
Q 2138 -91 1772 -91 
Q 1169 -91 856 284 
Q 544 659 544 1381 
z
M 1991 3584 
L 1991 3584 
z
" transform="scale(0.015625)"/>
       <path id="DejaVuSans-63" d="M 3122 3366 
L 3122 2828 
Q 2878 2963 2633 3030 
Q 2388 3097 2138 3097 
Q 1578 3097 1268 2742 
Q 959 2388 959 1747 
Q 959 1106 1268 751 
Q 1578 397 2138 397 
Q 2388 397 2633 464 
Q 2878 531 3122 666 
L 3122 134 
Q 2881 22 2623 -34 
Q 2366 -91 2075 -91 
Q 1284 -91 818 406 
Q 353 903 353 1747 
Q 353 2603 823 3093 
Q 1294 3584 2113 3584 
Q 2378 3584 2631 3529 
Q 2884 3475 3122 3366 
z
" transform="scale(0.015625)"/>
      </defs>
      <use xlink:href="#DejaVuSans-41"/>
      <use xlink:href="#DejaVuSans-75" x="68.408203"/>
      <use xlink:href="#DejaVuSans-72" x="131.787109"/>
      <use xlink:href="#DejaVuSans-6f" x="170.650391"/>
      <use xlink:href="#DejaVuSans-63" x="231.832031"/>
     </g>
    </g>
   </g>
   <g id="PolyCollection_1">
    <defs>
     <path id="m24b0334159" d="M 73.832727 -184.374482 
L 73.832727 -136.716389 
L 75.464157 -148.462361 
L 77.095587 -92.692205 
L 78.727017 -120.719517 
L 80.358447 -165.341536 
L 81.989877 -136.07962 
L 83.621307 -156.538534 
L 85.252736 -105.034901 
L 86.884166 -191.323847 
L 88.515596 -142.223337 
L 90.147026 -150.542647 
L 91.778456 -75.490477 
L 93.409886 -131.575088 
L 95.041316 -129.359414 
L 96.672746 -145.168438 
L 98.304175 -124.587344 
L 99.935605 -188.799331 
L 101.567035 -114.996508 
L 103.198465 -149.406087 
L 104.829895 -156.942755 
L 106.461325 -150.525496 
L 108.092755 -119.088733 
L 109.724185 -93.647867 
L 111.355614 -140.752509 
L 112.987044 -131.150851 
L 114.618474 -159.66591 
L 116.249904 -147.054339 
L 117.881334 -134.36833 
L 119.512764 -102.268118 
L 121.144194 -105.802868 
L 122.775624 -131.581414 
L 124.407053 -145.690542 
L 126.038483 -136.236121 
L 127.669913 -141.972312 
L 129.301343 -132.77026 
L 130.932773 -123.936758 
L 132.564203 -155.121351 
L 134.195633 -128.723482 
L 135.827063 -152.337339 
L 137.458492 -163.803474 
L 139.089922 -150.636903 
L 140.721352 -142.666974 
L 142.352782 -141.594129 
L 143.984212 -97.890665 
L 145.615642 -106.015854 
L 147.247072 -139.637074 
L 148.878502 -176.514688 
L 150.509931 -116.106119 
L 152.141361 -138.307581 
L 153.772791 -128.460524 
L 155.404221 -145.450785 
L 157.035651 -150.137116 
L 158.667081 -172.969207 
L 160.298511 -120.50999 
L 161.929941 -127.787479 
L 163.56137 -148.322267 
L 165.1928 -155.159626 
L 166.82423 -166.731607 
L 168.45566 -186.758094 
L 170.08709 -139.032469 
L 171.71852 -87.915662 
L 173.34995 -178.295503 
L 174.98138 -123.110962 
L 176.61281 -139.155778 
L 178.244239 -136.643709 
L 179.875669 -124.379826 
L 181.507099 -145.751957 
L 183.138529 -172.58923 
L 184.769959 -131.901388 
L 186.401389 -142.175234 
L 188.032819 -136.440348 
L 189.664249 -130.379633 
L 191.295678 -138.593645 
L 192.927108 -133.151788 
L 194.558538 -114.009299 
L 196.189968 -129.408731 
L 197.821398 -124.934368 
L 199.452828 -103.485508 
L 201.084258 -147.909143 
L 202.715688 -127.165639 
L 204.347117 -136.159676 
L 205.978547 -212.909967 
L 207.609977 -134.303291 
L 209.241407 -158.604907 
L 210.872837 -96.737003 
L 212.504267 -50.112 
L 214.135697 -127.209032 
L 215.767127 -133.316161 
L 217.398556 -110.704779 
L 219.029986 -160.078966 
L 220.661416 -76.058883 
L 222.292846 -113.626531 
L 223.924276 -143.908788 
L 225.555706 -153.129154 
L 227.187136 -122.950251 
L 228.818566 -140.232693 
L 230.449995 -88.635371 
L 232.081425 -158.153959 
L 233.712855 -117.314278 
L 235.344285 -156.242934 
L 236.975715 -125.194548 
L 238.607145 -177.386369 
L 240.238575 -111.245244 
L 241.870005 -120.540561 
L 243.501434 -107.42466 
L 245.132864 -162.211365 
L 246.764294 -143.679823 
L 248.395724 -145.187116 
L 250.027154 -96.782618 
L 251.658584 -178.655283 
L 253.290014 -133.955149 
L 254.921444 -107.277644 
L 256.552873 -169.555624 
L 258.184303 -96.737546 
L 259.815733 -179.24203 
L 261.447163 -121.175386 
L 263.078593 -143.30057 
L 264.710023 -102.990312 
L 266.341453 -135.383981 
L 267.972883 -129.322424 
L 269.604312 -101.218222 
L 271.235742 -138.82641 
L 272.867172 -122.268889 
L 274.498602 -149.613701 
L 276.130032 -171.463694 
L 277.761462 -147.144939 
L 279.392892 -135.607595 
L 281.024322 -158.400057 
L 282.655751 -180.66049 
L 284.287181 -144.678595 
L 285.918611 -162.959015 
L 287.550041 -68.090734 
L 289.181471 -109.961193 
L 290.812901 -150.870536 
L 292.444331 -106.80521 
L 294.075761 -105.986329 
L 295.70719 -144.394357 
L 297.33862 -141.530592 
L 298.97005 -160.444633 
L 300.60148 -150.394107 
L 302.23291 -163.801282 
L 303.86434 -124.706412 
L 305.49577 -130.952733 
L 307.1272 -149.171173 
L 308.75863 -138.741498 
L 310.390059 -83.635941 
L 312.021489 -83.857111 
L 313.652919 -107.919239 
L 315.284349 -127.836493 
L 316.915779 -152.802653 
L 318.547209 -82.652861 
L 320.178639 -61.473275 
L 321.810069 -144.545275 
L 323.441498 -83.424975 
L 325.072928 -128.976208 
L 326.704358 -163.238553 
L 328.335788 -135.849834 
L 329.967218 -193.904988 
L 331.598648 -128.630695 
L 333.230078 -98.314864 
L 334.861508 -86.820029 
L 336.492937 -99.923884 
L 338.124367 -98.338514 
L 339.755797 -169.10456 
L 341.387227 -157.59149 
L 343.018657 -134.515604 
L 344.650087 -151.227545 
L 346.281517 -107.361278 
L 347.912947 -115.526471 
L 349.544376 -130.579257 
L 351.175806 -141.668877 
L 352.807236 -116.709288 
L 354.438666 -116.900722 
L 356.070096 -148.360818 
L 357.701526 -113.854309 
L 359.332956 -178.886872 
L 360.964386 -177.933052 
L 362.595815 -70.233871 
L 364.227245 -96.135216 
L 365.858675 -125.157759 
L 367.490105 -130.885817 
L 369.121535 -145.685478 
L 370.752965 -132.543812 
L 372.384395 -147.354173 
L 374.015825 -179.58552 
L 375.647254 -99.43093 
L 377.278684 -204.254658 
L 378.910114 -85.915163 
L 380.541544 -121.704065 
L 382.172974 -127.811915 
L 383.804404 -183.116421 
L 385.435834 -114.41662 
L 387.067264 -136.399532 
L 388.698693 -104.529362 
L 390.330123 -161.489343 
L 391.961553 -157.22246 
L 393.592983 -130.841985 
L 395.224413 -153.898331 
L 396.855843 -149.549241 
L 398.487273 -134.26803 
L 398.487273 -232.84677 
L 398.487273 -232.84677 
L 396.855843 -229.239278 
L 395.224413 -224.409018 
L 393.592983 -234.235896 
L 391.961553 -244.688854 
L 390.330123 -232.479207 
L 388.698693 -258.979684 
L 387.067264 -253.672858 
L 385.435834 -226.387878 
L 383.804404 -282.907057 
L 382.172974 -242.818265 
L 380.541544 -211.08375 
L 378.910114 -208.461387 
L 377.278684 -228.688399 
L 375.647254 -272.286834 
L 374.015825 -245.408397 
L 372.384395 -222.32569 
L 370.752965 -255.873709 
L 369.121535 -197.599238 
L 367.490105 -225.45369 
L 365.858675 -229.083973 
L 364.227245 -225.634682 
L 362.595815 -209.681337 
L 360.964386 -282.250875 
L 359.332956 -275.096324 
L 357.701526 -272.03154 
L 356.070096 -189.399411 
L 354.438666 -265.883861 
L 352.807236 -265.357785 
L 351.175806 -259.416129 
L 349.544376 -215.424548 
L 347.912947 -258.520281 
L 346.281517 -210.917252 
L 344.650087 -218.405172 
L 343.018657 -219.38166 
L 341.387227 -200.569779 
L 339.755797 -208.465044 
L 338.124367 -254.918518 
L 336.492937 -241.397391 
L 334.861508 -235.556468 
L 333.230078 -207.551522 
L 331.598648 -227.045966 
L 329.967218 -249.9978 
L 328.335788 -271.037532 
L 326.704358 -248.187238 
L 325.072928 -245.408671 
L 323.441498 -200.631776 
L 321.810069 -192.512539 
L 320.178639 -224.591452 
L 318.547209 -231.232009 
L 316.915779 -217.27982 
L 315.284349 -237.721172 
L 313.652919 -229.399863 
L 312.021489 -262.79881 
L 310.390059 -208.723577 
L 308.75863 -241.374769 
L 307.1272 -258.286168 
L 305.49577 -243.549259 
L 303.86434 -284.392805 
L 302.23291 -236.769615 
L 300.60148 -202.090416 
L 298.97005 -261.702815 
L 297.33862 -175.967748 
L 295.70719 -249.959131 
L 294.075761 -274.925097 
L 292.444331 -245.284984 
L 290.812901 -241.1903 
L 289.181471 -255.491625 
L 287.550041 -253.482185 
L 285.918611 -220.542975 
L 284.287181 -224.560095 
L 282.655751 -220.560917 
L 281.024322 -229.740689 
L 279.392892 -269.965791 
L 277.761462 -238.774277 
L 276.130032 -213.063235 
L 274.498602 -256.563373 
L 272.867172 -224.002972 
L 271.235742 -248.118831 
L 269.604312 -249.423541 
L 267.972883 -233.809017 
L 266.341453 -239.757793 
L 264.710023 -189.441842 
L 263.078593 -192.543433 
L 261.447163 -214.402086 
L 259.815733 -284.528711 
L 258.184303 -198.995152 
L 256.552873 -267.80551 
L 254.921444 -244.802351 
L 253.290014 -204.305157 
L 251.658584 -230.96182 
L 250.027154 -236.346801 
L 248.395724 -226.857908 
L 246.764294 -229.989579 
L 245.132864 -261.839893 
L 243.501434 -249.002313 
L 241.870005 -253.728094 
L 240.238575 -236.238926 
L 238.607145 -247.461122 
L 236.975715 -230.592331 
L 235.344285 -260.381517 
L 233.712855 -233.520007 
L 232.081425 -222.15029 
L 230.449995 -238.341538 
L 228.818566 -259.73083 
L 227.187136 -211.497099 
L 225.555706 -266.54087 
L 223.924276 -216.019542 
L 222.292846 -248.677517 
L 220.661416 -257.762245 
L 219.029986 -273.640147 
L 217.398556 -288.224923 
L 215.767127 -276.534569 
L 214.135697 -204.098488 
L 212.504267 -247.05677 
L 210.872837 -185.867391 
L 209.241407 -252.320772 
L 207.609977 -234.994221 
L 205.978547 -245.918551 
L 204.347117 -251.428061 
L 202.715688 -229.146253 
L 201.084258 -237.673816 
L 199.452828 -268.036455 
L 197.821398 -231.48072 
L 196.189968 -248.946595 
L 194.558538 -282.08195 
L 192.927108 -230.479695 
L 191.295678 -211.245764 
L 189.664249 -248.001876 
L 188.032819 -249.926093 
L 186.401389 -262.705611 
L 184.769959 -231.115106 
L 183.138529 -228.303151 
L 181.507099 -225.054425 
L 179.875669 -243.958648 
L 178.244239 -275.590292 
L 176.61281 -254.405046 
L 174.98138 -230.284043 
L 173.34995 -262.469903 
L 171.71852 -203.053094 
L 170.08709 -274.636183 
L 168.45566 -249.149447 
L 166.82423 -277.138345 
L 165.1928 -239.045484 
L 163.56137 -208.064559 
L 161.929941 -240.623019 
L 160.298511 -257.576125 
L 158.667081 -266.282455 
L 157.035651 -232.334749 
L 155.404221 -280.340046 
L 153.772791 -256.014801 
L 152.141361 -210.750656 
L 150.509931 -198.599538 
L 148.878502 -248.421284 
L 147.247072 -238.057346 
L 145.615642 -207.237573 
L 143.984212 -255.104617 
L 142.352782 -237.078697 
L 140.721352 -276.412528 
L 139.089922 -258.496478 
L 137.458492 -225.233755 
L 135.827063 -252.720146 
L 134.195633 -226.680197 
L 132.564203 -261.543951 
L 130.932773 -244.251271 
L 129.301343 -203.190915 
L 127.669913 -260.583773 
L 126.038483 -209.640892 
L 124.407053 -204.484316 
L 122.775624 -199.321417 
L 121.144194 -208.060947 
L 119.512764 -229.352928 
L 117.881334 -238.399713 
L 116.249904 -272.336958 
L 114.618474 -250.858442 
L 112.987044 -243.805701 
L 111.355614 -205.823708 
L 109.724185 -243.348676 
L 108.092755 -184.24225 
L 106.461325 -223.823937 
L 104.829895 -223.817232 
L 103.198465 -262.118557 
L 101.567035 -224.283066 
L 99.935605 -246.457041 
L 98.304175 -225.509045 
L 96.672746 -249.974341 
L 95.041316 -217.50708 
L 93.409886 -267.594477 
L 91.778456 -253.444386 
L 90.147026 -292.032 
L 88.515596 -209.792905 
L 86.884166 -286.416614 
L 85.252736 -207.912911 
L 83.621307 -247.799131 
L 81.989877 -212.34737 
L 80.358447 -228.741563 
L 78.727017 -239.994548 
L 77.095587 -204.397023 
L 75.464157 -254.885545 
L 73.832727 -184.374482 
z
" style="stroke: #ffffff; stroke-opacity: 0.2"/>
    </defs>
    <g clip-path="url(#p1565744112)">
     <use xlink:href="#m24b0334159" x="0" y="345.6" style="fill: #1f77b4; fill-opacity: 0.2; stroke: #ffffff; stroke-opacity: 0.2"/>
    </g>
   </g>
   <g id="line2d_19">
    <path d="M 73.832727 185.054565 
L 75.464157 143.926047 
L 77.095587 197.055386 
L 78.727017 165.242968 
L 80.358447 148.55845 
L 81.989877 171.386505 
L 83.621307 143.431167 
L 85.252736 189.126094 
L 86.884166 106.72977 
L 88.515596 169.591879 
L 90.147026 124.312677 
L 91.778456 181.132569 
L 93.409886 146.015217 
L 95.041316 172.166753 
L 96.672746 148.02861 
L 98.304175 170.551805 
L 99.935605 127.971814 
L 101.567035 175.960213 
L 103.198465 139.837678 
L 104.829895 155.220007 
L 106.461325 158.425283 
L 108.092755 193.934509 
L 109.724185 177.101728 
L 111.355614 172.311892 
L 112.987044 158.121724 
L 114.618474 140.337824 
L 116.249904 135.904352 
L 117.881334 159.215978 
L 119.512764 179.789477 
L 121.144194 188.668093 
L 122.775624 180.148584 
L 124.407053 170.512571 
L 126.038483 172.661494 
L 127.669913 144.321957 
L 129.301343 177.619413 
L 130.932773 161.505985 
L 132.564203 137.267349 
L 134.195633 167.89816 
L 135.827063 143.071257 
L 137.458492 151.081385 
L 139.089922 141.03331 
L 140.721352 136.060249 
L 142.352782 156.263587 
L 143.984212 169.102359 
L 145.615642 188.973286 
L 147.247072 156.75279 
L 148.878502 133.132014 
L 150.509931 188.247171 
L 153.772791 153.362338 
L 155.404221 132.704584 
L 157.035651 154.364068 
L 158.667081 125.974169 
L 160.298511 156.556942 
L 161.929941 161.394751 
L 163.56137 167.406587 
L 165.1928 148.497445 
L 166.82423 123.665024 
L 168.45566 127.646229 
L 170.08709 138.765674 
L 171.71852 200.115622 
L 173.34995 125.217297 
L 174.98138 168.902498 
L 176.61281 148.819588 
L 178.244239 139.483 
L 179.875669 161.430763 
L 181.507099 160.196809 
L 183.138529 145.153809 
L 184.769959 164.091753 
L 186.401389 143.159577 
L 188.032819 152.416779 
L 189.664249 156.409245 
L 191.295678 170.680295 
L 192.927108 163.784258 
L 194.558538 147.554376 
L 196.189968 156.422337 
L 197.821398 167.392456 
L 201.084258 152.80852 
L 202.715688 167.444054 
L 204.347117 151.806132 
L 205.978547 116.185741 
L 207.609977 160.951244 
L 209.241407 140.13716 
L 210.872837 204.297803 
L 212.504267 197.015615 
L 214.135697 179.94624 
L 215.767127 140.674635 
L 217.398556 146.135149 
L 219.029986 128.740443 
L 220.661416 178.689436 
L 222.292846 164.447976 
L 223.924276 165.635835 
L 225.555706 135.764988 
L 227.187136 178.376325 
L 228.818566 145.618238 
L 230.449995 182.111546 
L 232.081425 155.447875 
L 233.712855 170.182858 
L 235.344285 137.287775 
L 236.975715 167.70656 
L 238.607145 133.176255 
L 240.238575 171.857915 
L 241.870005 158.465672 
L 243.501434 167.386514 
L 245.132864 133.574371 
L 246.764294 158.765299 
L 248.395724 159.577488 
L 250.027154 179.03529 
L 251.658584 140.791448 
L 253.290014 176.469847 
L 254.921444 169.560002 
L 256.552873 126.919433 
L 258.184303 197.733651 
L 259.815733 113.71463 
L 261.447163 177.811264 
L 263.078593 177.677998 
L 264.710023 199.383923 
L 266.341453 158.029113 
L 269.604312 170.279118 
L 271.235742 152.127379 
L 272.867172 172.46407 
L 274.498602 142.511463 
L 276.130032 153.336536 
L 277.761462 152.640392 
L 279.392892 142.813307 
L 281.024322 151.529627 
L 282.655751 144.989296 
L 284.287181 160.980655 
L 285.918611 153.849005 
L 287.550041 184.813541 
L 289.181471 162.873591 
L 290.812901 149.569582 
L 292.444331 169.554903 
L 294.075761 155.144287 
L 295.70719 148.423256 
L 297.33862 186.85083 
L 298.97005 134.526276 
L 300.60148 169.357739 
L 302.23291 145.314552 
L 303.86434 141.050391 
L 305.49577 158.349004 
L 307.1272 141.871329 
L 308.75863 155.541867 
L 310.390059 199.420241 
L 312.021489 172.27204 
L 313.652919 176.940449 
L 315.284349 162.821167 
L 316.915779 160.558764 
L 318.547209 188.657565 
L 320.178639 202.567636 
L 321.810069 177.071093 
L 323.441498 203.571625 
L 325.072928 158.40756 
L 326.704358 139.887105 
L 328.335788 142.156317 
L 329.967218 123.648606 
L 331.598648 167.76167 
L 333.230078 192.666807 
L 334.861508 184.411751 
L 336.492937 174.939362 
L 338.124367 168.971484 
L 339.755797 156.815198 
L 341.387227 166.519366 
L 343.018657 168.651368 
L 344.650087 160.783641 
L 346.281517 186.460735 
L 347.912947 158.576624 
L 349.544376 172.598098 
L 351.175806 145.057497 
L 352.807236 154.566464 
L 354.438666 154.207709 
L 356.070096 176.719885 
L 357.701526 152.657075 
L 359.332956 118.608402 
L 360.964386 115.508036 
L 362.595815 205.642396 
L 364.227245 184.715051 
L 365.858675 168.479134 
L 367.490105 167.430246 
L 369.121535 173.957642 
L 370.752965 151.391239 
L 372.384395 160.760069 
L 374.015825 133.103041 
L 375.647254 159.741118 
L 377.278684 129.128471 
L 378.910114 198.411725 
L 382.172974 160.28491 
L 383.804404 112.588261 
L 385.435834 175.197751 
L 387.067264 150.563805 
L 388.698693 163.845477 
L 390.330123 148.615725 
L 391.961553 144.644343 
L 393.592983 163.061059 
L 395.224413 156.446326 
L 396.855843 156.205741 
L 398.487273 162.0426 
L 398.487273 162.0426 
" clip-path="url(#p1565744112)" style="fill: none; stroke: #1f77b4; stroke-width: 1.5; stroke-linecap: round"/>
   </g>
   <g id="LineCollection_1">
    <path d="M 398.487273 295.488 
L 398.487273 53.568 
" clip-path="url(#p1565744112)" style="fill: none; stroke-dasharray: 5.55,2.4; stroke-dashoffset: 0; stroke: #1f77b4; stroke-width: 1.5"/>
   </g>
   <g id="patch_3">
    <path d="M 57.6 307.584 
L 57.6 41.472 
" style="fill: none; stroke: #cccccc; stroke-width: 0.8; stroke-linejoin: miter; stroke-linecap: square"/>
   </g>
   <g id="patch_4">
    <path d="M 414.72 307.584 
L 414.72 41.472 
" style="fill: none; stroke: #cccccc; stroke-width: 0.8; stroke-linejoin: miter; stroke-linecap: square"/>
   </g>
   <g id="patch_5">
    <path d="M 57.6 307.584 
L 414.72 307.584 
" style="fill: none; stroke: #cccccc; stroke-width: 0.8; stroke-linejoin: miter; stroke-linecap: square"/>
   </g>
   <g id="patch_6">
    <path d="M 57.6 41.472 
L 414.72 41.472 
" style="fill: none; stroke: #cccccc; stroke-width: 0.8; stroke-linejoin: miter; stroke-linecap: square"/>
   </g>
   <g id="text_21">
    <!-- Model performance vs. # of iterations -->
    <g style="fill: #262626" transform="translate(122.314688 35.472)scale(0.12 -0.12)">
     <defs>
      <path id="DejaVuSans-4d" d="M 628 4666 
L 1569 4666 
L 2759 1491 
L 3956 4666 
L 4897 4666 
L 4897 0 
L 4281 0 
L 4281 4097 
L 3078 897 
L 2444 897 
L 1241 4097 
L 1241 0 
L 628 0 
L 628 4666 
z
" transform="scale(0.015625)"/>
      <path id="DejaVuSans-64" d="M 2906 2969 
L 2906 4863 
L 3481 4863 
L 3481 0 
L 2906 0 
L 2906 525 
Q 2725 213 2448 61 
Q 2172 -91 1784 -91 
Q 1150 -91 751 415 
Q 353 922 353 1747 
Q 353 2572 751 3078 
Q 1150 3584 1784 3584 
Q 2172 3584 2448 3432 
Q 2725 3281 2906 2969 
z
M 947 1747 
Q 947 1113 1208 752 
Q 1469 391 1925 391 
Q 2381 391 2643 752 
Q 2906 1113 2906 1747 
Q 2906 2381 2643 2742 
Q 2381 3103 1925 3103 
Q 1469 3103 1208 2742 
Q 947 2381 947 1747 
z
" transform="scale(0.015625)"/>
      <path id="DejaVuSans-6c" d="M 603 4863 
L 1178 4863 
L 1178 0 
L 603 0 
L 603 4863 
z
" transform="scale(0.015625)"/>
      <path id="DejaVuSans-20" transform="scale(0.015625)"/>
      <path id="DejaVuSans-70" d="M 1159 525 
L 1159 -1331 
L 581 -1331 
L 581 3500 
L 1159 3500 
L 1159 2969 
Q 1341 3281 1617 3432 
Q 1894 3584 2278 3584 
Q 2916 3584 3314 3078 
Q 3713 2572 3713 1747 
Q 3713 922 3314 415 
Q 2916 -91 2278 -91 
Q 1894 -91 1617 61 
Q 1341 213 1159 525 
z
M 3116 1747 
Q 3116 2381 2855 2742 
Q 2594 3103 2138 3103 
Q 1681 3103 1420 2742 
Q 1159 2381 1159 1747 
Q 1159 1113 1420 752 
Q 1681 391 2138 391 
Q 2594 391 2855 752 
Q 3116 1113 3116 1747 
z
" transform="scale(0.015625)"/>
      <path id="DejaVuSans-66" d="M 2375 4863 
L 2375 4384 
L 1825 4384 
Q 1516 4384 1395 4259 
Q 1275 4134 1275 3809 
L 1275 3500 
L 2222 3500 
L 2222 3053 
L 1275 3053 
L 1275 0 
L 697 0 
L 697 3053 
L 147 3053 
L 147 3500 
L 697 3500 
L 697 3744 
Q 697 4328 969 4595 
Q 1241 4863 1831 4863 
L 2375 4863 
z
" transform="scale(0.015625)"/>
      <path id="DejaVuSans-6d" d="M 3328 2828 
Q 3544 3216 3844 3400 
Q 4144 3584 4550 3584 
Q 5097 3584 5394 3201 
Q 5691 2819 5691 2113 
L 5691 0 
L 5113 0 
L 5113 2094 
Q 5113 2597 4934 2840 
Q 4756 3084 4391 3084 
Q 3944 3084 3684 2787 
Q 3425 2491 3425 1978 
L 3425 0 
L 2847 0 
L 2847 2094 
Q 2847 2600 2669 2842 
Q 2491 3084 2119 3084 
Q 1678 3084 1418 2786 
Q 1159 2488 1159 1978 
L 1159 0 
L 581 0 
L 581 3500 
L 1159 3500 
L 1159 2956 
Q 1356 3278 1631 3431 
Q 1906 3584 2284 3584 
Q 2666 3584 2933 3390 
Q 3200 3197 3328 2828 
z
" transform="scale(0.015625)"/>
      <path id="DejaVuSans-76" d="M 191 3500 
L 800 3500 
L 1894 563 
L 2988 3500 
L 3597 3500 
L 2284 0 
L 1503 0 
L 191 3500 
z
" transform="scale(0.015625)"/>
      <path id="DejaVuSans-73" d="M 2834 3397 
L 2834 2853 
Q 2591 2978 2328 3040 
Q 2066 3103 1784 3103 
Q 1356 3103 1142 2972 
Q 928 2841 928 2578 
Q 928 2378 1081 2264 
Q 1234 2150 1697 2047 
L 1894 2003 
Q 2506 1872 2764 1633 
Q 3022 1394 3022 966 
Q 3022 478 2636 193 
Q 2250 -91 1575 -91 
Q 1294 -91 989 -36 
Q 684 19 347 128 
L 347 722 
Q 666 556 975 473 
Q 1284 391 1588 391 
Q 1994 391 2212 530 
Q 2431 669 2431 922 
Q 2431 1156 2273 1281 
Q 2116 1406 1581 1522 
L 1381 1569 
Q 847 1681 609 1914 
Q 372 2147 372 2553 
Q 372 3047 722 3315 
Q 1072 3584 1716 3584 
Q 2034 3584 2315 3537 
Q 2597 3491 2834 3397 
z
" transform="scale(0.015625)"/>
      <path id="DejaVuSans-23" d="M 3272 2816 
L 2363 2816 
L 2100 1772 
L 3016 1772 
L 3272 2816 
z
M 2803 4594 
L 2478 3297 
L 3391 3297 
L 3719 4594 
L 4219 4594 
L 3897 3297 
L 4872 3297 
L 4872 2816 
L 3775 2816 
L 3519 1772 
L 4513 1772 
L 4513 1294 
L 3397 1294 
L 3072 0 
L 2572 0 
L 2894 1294 
L 1978 1294 
L 1656 0 
L 1153 0 
L 1478 1294 
L 494 1294 
L 494 1772 
L 1594 1772 
L 1856 2816 
L 850 2816 
L 850 3297 
L 1978 3297 
L 2297 4594 
L 2803 4594 
z
" transform="scale(0.015625)"/>
     </defs>
     <use xlink:href="#DejaVuSans-4d"/>
     <use xlink:href="#DejaVuSans-6f" x="86.279297"/>
     <use xlink:href="#DejaVuSans-64" x="147.460938"/>
     <use xlink:href="#DejaVuSans-65" x="210.9375"/>
     <use xlink:href="#DejaVuSans-6c" x="272.460938"/>
     <use xlink:href="#DejaVuSans-20" x="300.244141"/>
     <use xlink:href="#DejaVuSans-70" x="332.03125"/>
     <use xlink:href="#DejaVuSans-65" x="395.507812"/>
     <use xlink:href="#DejaVuSans-72" x="457.03125"/>
     <use xlink:href="#DejaVuSans-66" x="498.144531"/>
     <use xlink:href="#DejaVuSans-6f" x="533.349609"/>
     <use xlink:href="#DejaVuSans-72" x="594.53125"/>
     <use xlink:href="#DejaVuSans-6d" x="633.894531"/>
     <use xlink:href="#DejaVuSans-61" x="731.306641"/>
     <use xlink:href="#DejaVuSans-6e" x="792.585938"/>
     <use xlink:href="#DejaVuSans-63" x="855.964844"/>
     <use xlink:href="#DejaVuSans-65" x="910.945312"/>
     <use xlink:href="#DejaVuSans-20" x="972.46875"/>
     <use xlink:href="#DejaVuSans-76" x="1004.255859"/>
     <use xlink:href="#DejaVuSans-73" x="1063.435547"/>
     <use xlink:href="#DejaVuSans-2e" x="1115.535156"/>
     <use xlink:href="#DejaVuSans-20" x="1147.322266"/>
     <use xlink:href="#DejaVuSans-23" x="1179.109375"/>
     <use xlink:href="#DejaVuSans-20" x="1262.898438"/>
     <use xlink:href="#DejaVuSans-6f" x="1294.685547"/>
     <use xlink:href="#DejaVuSans-66" x="1355.867188"/>
     <use xlink:href="#DejaVuSans-20" x="1391.072266"/>
     <use xlink:href="#DejaVuSans-69" x="1422.859375"/>
     <use xlink:href="#DejaVuSans-74" x="1450.642578"/>
     <use xlink:href="#DejaVuSans-65" x="1489.851562"/>
     <use xlink:href="#DejaVuSans-72" x="1551.375"/>
     <use xlink:href="#DejaVuSans-61" x="1592.488281"/>
     <use xlink:href="#DejaVuSans-74" x="1653.767578"/>
     <use xlink:href="#DejaVuSans-69" x="1692.976562"/>
     <use xlink:href="#DejaVuSans-6f" x="1720.759766"/>
     <use xlink:href="#DejaVuSans-6e" x="1781.941406"/>
     <use xlink:href="#DejaVuSans-73" x="1845.320312"/>
    </g>
   </g>
  </g>
 </g>
 <defs>
  <clipPath id="p1565744112">
   <rect x="57.6" y="41.472" width="357.12" height="266.112"/>
  </clipPath>
 </defs>
</svg>
