<?xml version="1.0" encoding="utf-8" standalone="no"?>
<!DOCTYPE svg PUBLIC "-//W3C//DTD SVG 1.1//EN"
  "http://www.w3.org/Graphics/SVG/1.1/DTD/svg11.dtd">
<svg xmlns:xlink="http://www.w3.org/1999/xlink" width="460.8pt" height="345.6pt" viewBox="0 0 460.8 345.6" xmlns="http://www.w3.org/2000/svg" version="1.1">
 <metadata>
  <rdf:RDF xmlns:dc="http://purl.org/dc/elements/1.1/" xmlns:cc="http://creativecommons.org/ns#" xmlns:rdf="http://www.w3.org/1999/02/22-rdf-syntax-ns#">
   <cc:Work>
    <dc:type rdf:resource="http://purl.org/dc/dcmitype/StillImage"/>
    <dc:date>2022-06-01T14:28:50.751253</dc:date>
    <dc:format>image/svg+xml</dc:format>
    <dc:creator>
     <cc:Agent>
      <dc:title>Matplotlib v3.5.2, https://matplotlib.org/</dc:title>
     </cc:Agent>
    </dc:creator>
   </cc:Work>
  </rdf:RDF>
 </metadata>
 <defs>
  <style type="text/css">*{stroke-linejoin: round; stroke-linecap: butt}</style>
 </defs>
 <g id="figure_1">
  <g id="patch_1">
   <path d="M 0 345.6 
L 460.8 345.6 
L 460.8 0 
L 0 0 
z
" style="fill: #ffffff"/>
  </g>
  <g id="axes_1">
   <g id="patch_2">
    <path d="M 57.6 307.584 
L 414.72 307.584 
L 414.72 41.472 
L 57.6 41.472 
z
" style="fill: #ffffff"/>
   </g>
   <g id="matplotlib.axis_1">
    <g id="xtick_1">
     <g id="line2d_1">
      <path d="M 72.201297 307.584 
L 72.201297 41.472 
" clip-path="url(#p0c39210c09)" style="fill: none; stroke: #cccccc; stroke-width: 0.8; stroke-linecap: round"/>
     </g>
     <g id="text_1">
      <!-- 0 -->
      <g style="fill: #262626" transform="translate(69.020047 322.182437)scale(0.1 -0.1)">
       <defs>
        <path id="DejaVuSans-30" d="M 2034 4250 
Q 1547 4250 1301 3770 
Q 1056 3291 1056 2328 
Q 1056 1369 1301 889 
Q 1547 409 2034 409 
Q 2525 409 2770 889 
Q 3016 1369 3016 2328 
Q 3016 3291 2770 3770 
Q 2525 4250 2034 4250 
z
M 2034 4750 
Q 2819 4750 3233 4129 
Q 3647 3509 3647 2328 
Q 3647 1150 3233 529 
Q 2819 -91 2034 -91 
Q 1250 -91 836 529 
Q 422 1150 422 2328 
Q 422 3509 836 4129 
Q 1250 4750 2034 4750 
z
" transform="scale(0.015625)"/>
       </defs>
       <use xlink:href="#DejaVuSans-30"/>
      </g>
     </g>
    </g>
    <g id="xtick_2">
     <g id="line2d_2">
      <path d="M 112.987044 307.584 
L 112.987044 41.472 
" clip-path="url(#p0c39210c09)" style="fill: none; stroke: #cccccc; stroke-width: 0.8; stroke-linecap: round"/>
     </g>
     <g id="text_2">
      <!-- 25 -->
      <g style="fill: #262626" transform="translate(106.624544 322.182437)scale(0.1 -0.1)">
       <defs>
        <path id="DejaVuSans-32" d="M 1228 531 
L 3431 531 
L 3431 0 
L 469 0 
L 469 531 
Q 828 903 1448 1529 
Q 2069 2156 2228 2338 
Q 2531 2678 2651 2914 
Q 2772 3150 2772 3378 
Q 2772 3750 2511 3984 
Q 2250 4219 1831 4219 
Q 1534 4219 1204 4116 
Q 875 4013 500 3803 
L 500 4441 
Q 881 4594 1212 4672 
Q 1544 4750 1819 4750 
Q 2544 4750 2975 4387 
Q 3406 4025 3406 3419 
Q 3406 3131 3298 2873 
Q 3191 2616 2906 2266 
Q 2828 2175 2409 1742 
Q 1991 1309 1228 531 
z
" transform="scale(0.015625)"/>
        <path id="DejaVuSans-35" d="M 691 4666 
L 3169 4666 
L 3169 4134 
L 1269 4134 
L 1269 2991 
Q 1406 3038 1543 3061 
Q 1681 3084 1819 3084 
Q 2600 3084 3056 2656 
Q 3513 2228 3513 1497 
Q 3513 744 3044 326 
Q 2575 -91 1722 -91 
Q 1428 -91 1123 -41 
Q 819 9 494 109 
L 494 744 
Q 775 591 1075 516 
Q 1375 441 1709 441 
Q 2250 441 2565 725 
Q 2881 1009 2881 1497 
Q 2881 1984 2565 2268 
Q 2250 2553 1709 2553 
Q 1456 2553 1204 2497 
Q 953 2441 691 2322 
L 691 4666 
z
" transform="scale(0.015625)"/>
       </defs>
       <use xlink:href="#DejaVuSans-32"/>
       <use xlink:href="#DejaVuSans-35" x="63.623047"/>
      </g>
     </g>
    </g>
    <g id="xtick_3">
     <g id="line2d_3">
      <path d="M 153.772791 307.584 
L 153.772791 41.472 
" clip-path="url(#p0c39210c09)" style="fill: none; stroke: #cccccc; stroke-width: 0.8; stroke-linecap: round"/>
     </g>
     <g id="text_3">
      <!-- 50 -->
      <g style="fill: #262626" transform="translate(147.410291 322.182437)scale(0.1 -0.1)">
       <use xlink:href="#DejaVuSans-35"/>
       <use xlink:href="#DejaVuSans-30" x="63.623047"/>
      </g>
     </g>
    </g>
    <g id="xtick_4">
     <g id="line2d_4">
      <path d="M 194.558538 307.584 
L 194.558538 41.472 
" clip-path="url(#p0c39210c09)" style="fill: none; stroke: #cccccc; stroke-width: 0.8; stroke-linecap: round"/>
     </g>
     <g id="text_4">
      <!-- 75 -->
      <g style="fill: #262626" transform="translate(188.196038 322.182437)scale(0.1 -0.1)">
       <defs>
        <path id="DejaVuSans-37" d="M 525 4666 
L 3525 4666 
L 3525 4397 
L 1831 0 
L 1172 0 
L 2766 4134 
L 525 4134 
L 525 4666 
z
" transform="scale(0.015625)"/>
       </defs>
       <use xlink:href="#DejaVuSans-37"/>
       <use xlink:href="#DejaVuSans-35" x="63.623047"/>
      </g>
     </g>
    </g>
    <g id="xtick_5">
     <g id="line2d_5">
      <path d="M 235.344285 307.584 
L 235.344285 41.472 
" clip-path="url(#p0c39210c09)" style="fill: none; stroke: #cccccc; stroke-width: 0.8; stroke-linecap: round"/>
     </g>
     <g id="text_5">
      <!-- 100 -->
      <g style="fill: #262626" transform="translate(225.800535 322.182437)scale(0.1 -0.1)">
       <defs>
        <path id="DejaVuSans-31" d="M 794 531 
L 1825 531 
L 1825 4091 
L 703 3866 
L 703 4441 
L 1819 4666 
L 2450 4666 
L 2450 531 
L 3481 531 
L 3481 0 
L 794 0 
L 794 531 
z
" transform="scale(0.015625)"/>
       </defs>
       <use xlink:href="#DejaVuSans-31"/>
       <use xlink:href="#DejaVuSans-30" x="63.623047"/>
       <use xlink:href="#DejaVuSans-30" x="127.246094"/>
      </g>
     </g>
    </g>
    <g id="xtick_6">
     <g id="line2d_6">
      <path d="M 276.130032 307.584 
L 276.130032 41.472 
" clip-path="url(#p0c39210c09)" style="fill: none; stroke: #cccccc; stroke-width: 0.8; stroke-linecap: round"/>
     </g>
     <g id="text_6">
      <!-- 125 -->
      <g style="fill: #262626" transform="translate(266.586282 322.182437)scale(0.1 -0.1)">
       <use xlink:href="#DejaVuSans-31"/>
       <use xlink:href="#DejaVuSans-32" x="63.623047"/>
       <use xlink:href="#DejaVuSans-35" x="127.246094"/>
      </g>
     </g>
    </g>
    <g id="xtick_7">
     <g id="line2d_7">
      <path d="M 316.915779 307.584 
L 316.915779 41.472 
" clip-path="url(#p0c39210c09)" style="fill: none; stroke: #cccccc; stroke-width: 0.8; stroke-linecap: round"/>
     </g>
     <g id="text_7">
      <!-- 150 -->
      <g style="fill: #262626" transform="translate(307.372029 322.182437)scale(0.1 -0.1)">
       <use xlink:href="#DejaVuSans-31"/>
       <use xlink:href="#DejaVuSans-35" x="63.623047"/>
       <use xlink:href="#DejaVuSans-30" x="127.246094"/>
      </g>
     </g>
    </g>
    <g id="xtick_8">
     <g id="line2d_8">
      <path d="M 357.701526 307.584 
L 357.701526 41.472 
" clip-path="url(#p0c39210c09)" style="fill: none; stroke: #cccccc; stroke-width: 0.8; stroke-linecap: round"/>
     </g>
     <g id="text_8">
      <!-- 175 -->
      <g style="fill: #262626" transform="translate(348.157776 322.182437)scale(0.1 -0.1)">
       <use xlink:href="#DejaVuSans-31"/>
       <use xlink:href="#DejaVuSans-37" x="63.623047"/>
       <use xlink:href="#DejaVuSans-35" x="127.246094"/>
      </g>
     </g>
    </g>
    <g id="xtick_9">
     <g id="line2d_9">
      <path d="M 398.487273 307.584 
L 398.487273 41.472 
" clip-path="url(#p0c39210c09)" style="fill: none; stroke: #cccccc; stroke-width: 0.8; stroke-linecap: round"/>
     </g>
     <g id="text_9">
      <!-- 200 -->
      <g style="fill: #262626" transform="translate(388.943523 322.182437)scale(0.1 -0.1)">
       <use xlink:href="#DejaVuSans-32"/>
       <use xlink:href="#DejaVuSans-30" x="63.623047"/>
       <use xlink:href="#DejaVuSans-30" x="127.246094"/>
      </g>
     </g>
    </g>
    <g id="text_10">
     <!-- Iteration -->
     <g style="fill: #262626" transform="translate(214.951406 335.860562)scale(0.1 -0.1)">
      <defs>
       <path id="DejaVuSans-49" d="M 628 4666 
L 1259 4666 
L 1259 0 
L 628 0 
L 628 4666 
z
" transform="scale(0.015625)"/>
       <path id="DejaVuSans-74" d="M 1172 4494 
L 1172 3500 
L 2356 3500 
L 2356 3053 
L 1172 3053 
L 1172 1153 
Q 1172 725 1289 603 
Q 1406 481 1766 481 
L 2356 481 
L 2356 0 
L 1766 0 
Q 1100 0 847 248 
Q 594 497 594 1153 
L 594 3053 
L 172 3053 
L 172 3500 
L 594 3500 
L 594 4494 
L 1172 4494 
z
" transform="scale(0.015625)"/>
       <path id="DejaVuSans-65" d="M 3597 1894 
L 3597 1613 
L 953 1613 
Q 991 1019 1311 708 
Q 1631 397 2203 397 
Q 2534 397 2845 478 
Q 3156 559 3463 722 
L 3463 178 
Q 3153 47 2828 -22 
Q 2503 -91 2169 -91 
Q 1331 -91 842 396 
Q 353 884 353 1716 
Q 353 2575 817 3079 
Q 1281 3584 2069 3584 
Q 2775 3584 3186 3129 
Q 3597 2675 3597 1894 
z
M 3022 2063 
Q 3016 2534 2758 2815 
Q 2500 3097 2075 3097 
Q 1594 3097 1305 2825 
Q 1016 2553 972 2059 
L 3022 2063 
z
" transform="scale(0.015625)"/>
       <path id="DejaVuSans-72" d="M 2631 2963 
Q 2534 3019 2420 3045 
Q 2306 3072 2169 3072 
Q 1681 3072 1420 2755 
Q 1159 2438 1159 1844 
L 1159 0 
L 581 0 
L 581 3500 
L 1159 3500 
L 1159 2956 
Q 1341 3275 1631 3429 
Q 1922 3584 2338 3584 
Q 2397 3584 2469 3576 
Q 2541 3569 2628 3553 
L 2631 2963 
z
" transform="scale(0.015625)"/>
       <path id="DejaVuSans-61" d="M 2194 1759 
Q 1497 1759 1228 1600 
Q 959 1441 959 1056 
Q 959 750 1161 570 
Q 1363 391 1709 391 
Q 2188 391 2477 730 
Q 2766 1069 2766 1631 
L 2766 1759 
L 2194 1759 
z
M 3341 1997 
L 3341 0 
L 2766 0 
L 2766 531 
Q 2569 213 2275 61 
Q 1981 -91 1556 -91 
Q 1019 -91 701 211 
Q 384 513 384 1019 
Q 384 1609 779 1909 
Q 1175 2209 1959 2209 
L 2766 2209 
L 2766 2266 
Q 2766 2663 2505 2880 
Q 2244 3097 1772 3097 
Q 1472 3097 1187 3025 
Q 903 2953 641 2809 
L 641 3341 
Q 956 3463 1253 3523 
Q 1550 3584 1831 3584 
Q 2591 3584 2966 3190 
Q 3341 2797 3341 1997 
z
" transform="scale(0.015625)"/>
       <path id="DejaVuSans-69" d="M 603 3500 
L 1178 3500 
L 1178 0 
L 603 0 
L 603 3500 
z
M 603 4863 
L 1178 4863 
L 1178 4134 
L 603 4134 
L 603 4863 
z
" transform="scale(0.015625)"/>
       <path id="DejaVuSans-6f" d="M 1959 3097 
Q 1497 3097 1228 2736 
Q 959 2375 959 1747 
Q 959 1119 1226 758 
Q 1494 397 1959 397 
Q 2419 397 2687 759 
Q 2956 1122 2956 1747 
Q 2956 2369 2687 2733 
Q 2419 3097 1959 3097 
z
M 1959 3584 
Q 2709 3584 3137 3096 
Q 3566 2609 3566 1747 
Q 3566 888 3137 398 
Q 2709 -91 1959 -91 
Q 1206 -91 779 398 
Q 353 888 353 1747 
Q 353 2609 779 3096 
Q 1206 3584 1959 3584 
z
" transform="scale(0.015625)"/>
       <path id="DejaVuSans-6e" d="M 3513 2113 
L 3513 0 
L 2938 0 
L 2938 2094 
Q 2938 2591 2744 2837 
Q 2550 3084 2163 3084 
Q 1697 3084 1428 2787 
Q 1159 2491 1159 1978 
L 1159 0 
L 581 0 
L 581 3500 
L 1159 3500 
L 1159 2956 
Q 1366 3272 1645 3428 
Q 1925 3584 2291 3584 
Q 2894 3584 3203 3211 
Q 3513 2838 3513 2113 
z
" transform="scale(0.015625)"/>
      </defs>
      <use xlink:href="#DejaVuSans-49"/>
      <use xlink:href="#DejaVuSans-74" x="29.492188"/>
      <use xlink:href="#DejaVuSans-65" x="68.701172"/>
      <use xlink:href="#DejaVuSans-72" x="130.224609"/>
      <use xlink:href="#DejaVuSans-61" x="171.337891"/>
      <use xlink:href="#DejaVuSans-74" x="232.617188"/>
      <use xlink:href="#DejaVuSans-69" x="271.826172"/>
      <use xlink:href="#DejaVuSans-6f" x="299.609375"/>
      <use xlink:href="#DejaVuSans-6e" x="360.791016"/>
     </g>
    </g>
   </g>
   <g id="matplotlib.axis_2">
    <g id="ytick_1">
     <g id="line2d_10">
      <path d="M 57.6 297.80642 
L 414.72 297.80642 
" clip-path="url(#p0c39210c09)" style="fill: none; stroke: #cccccc; stroke-width: 0.8; stroke-linecap: round"/>
     </g>
     <g id="text_11">
      <!-- 0.550 -->
      <g style="fill: #262626" transform="translate(21.971875 301.605639)scale(0.1 -0.1)">
       <defs>
        <path id="DejaVuSans-2e" d="M 684 794 
L 1344 794 
L 1344 0 
L 684 0 
L 684 794 
z
" transform="scale(0.015625)"/>
       </defs>
       <use xlink:href="#DejaVuSans-30"/>
       <use xlink:href="#DejaVuSans-2e" x="63.623047"/>
       <use xlink:href="#DejaVuSans-35" x="95.410156"/>
       <use xlink:href="#DejaVuSans-35" x="159.033203"/>
       <use xlink:href="#DejaVuSans-30" x="222.65625"/>
      </g>
     </g>
    </g>
    <g id="ytick_2">
     <g id="line2d_11">
      <path d="M 57.6 265.862832 
L 414.72 265.862832 
" clip-path="url(#p0c39210c09)" style="fill: none; stroke: #cccccc; stroke-width: 0.8; stroke-linecap: round"/>
     </g>
     <g id="text_12">
      <!-- 0.575 -->
      <g style="fill: #262626" transform="translate(21.971875 269.662051)scale(0.1 -0.1)">
       <use xlink:href="#DejaVuSans-30"/>
       <use xlink:href="#DejaVuSans-2e" x="63.623047"/>
       <use xlink:href="#DejaVuSans-35" x="95.410156"/>
       <use xlink:href="#DejaVuSans-37" x="159.033203"/>
       <use xlink:href="#DejaVuSans-35" x="222.65625"/>
      </g>
     </g>
    </g>
    <g id="ytick_3">
     <g id="line2d_12">
      <path d="M 57.6 233.919244 
L 414.72 233.919244 
" clip-path="url(#p0c39210c09)" style="fill: none; stroke: #cccccc; stroke-width: 0.8; stroke-linecap: round"/>
     </g>
     <g id="text_13">
      <!-- 0.600 -->
      <g style="fill: #262626" transform="translate(21.971875 237.718462)scale(0.1 -0.1)">
       <defs>
        <path id="DejaVuSans-36" d="M 2113 2584 
Q 1688 2584 1439 2293 
Q 1191 2003 1191 1497 
Q 1191 994 1439 701 
Q 1688 409 2113 409 
Q 2538 409 2786 701 
Q 3034 994 3034 1497 
Q 3034 2003 2786 2293 
Q 2538 2584 2113 2584 
z
M 3366 4563 
L 3366 3988 
Q 3128 4100 2886 4159 
Q 2644 4219 2406 4219 
Q 1781 4219 1451 3797 
Q 1122 3375 1075 2522 
Q 1259 2794 1537 2939 
Q 1816 3084 2150 3084 
Q 2853 3084 3261 2657 
Q 3669 2231 3669 1497 
Q 3669 778 3244 343 
Q 2819 -91 2113 -91 
Q 1303 -91 875 529 
Q 447 1150 447 2328 
Q 447 3434 972 4092 
Q 1497 4750 2381 4750 
Q 2619 4750 2861 4703 
Q 3103 4656 3366 4563 
z
" transform="scale(0.015625)"/>
       </defs>
       <use xlink:href="#DejaVuSans-30"/>
       <use xlink:href="#DejaVuSans-2e" x="63.623047"/>
       <use xlink:href="#DejaVuSans-36" x="95.410156"/>
       <use xlink:href="#DejaVuSans-30" x="159.033203"/>
       <use xlink:href="#DejaVuSans-30" x="222.65625"/>
      </g>
     </g>
    </g>
    <g id="ytick_4">
     <g id="line2d_13">
      <path d="M 57.6 201.975655 
L 414.72 201.975655 
" clip-path="url(#p0c39210c09)" style="fill: none; stroke: #cccccc; stroke-width: 0.8; stroke-linecap: round"/>
     </g>
     <g id="text_14">
      <!-- 0.625 -->
      <g style="fill: #262626" transform="translate(21.971875 205.774874)scale(0.1 -0.1)">
       <use xlink:href="#DejaVuSans-30"/>
       <use xlink:href="#DejaVuSans-2e" x="63.623047"/>
       <use xlink:href="#DejaVuSans-36" x="95.410156"/>
       <use xlink:href="#DejaVuSans-32" x="159.033203"/>
       <use xlink:href="#DejaVuSans-35" x="222.65625"/>
      </g>
     </g>
    </g>
    <g id="ytick_5">
     <g id="line2d_14">
      <path d="M 57.6 170.032067 
L 414.72 170.032067 
" clip-path="url(#p0c39210c09)" style="fill: none; stroke: #cccccc; stroke-width: 0.8; stroke-linecap: round"/>
     </g>
     <g id="text_15">
      <!-- 0.650 -->
      <g style="fill: #262626" transform="translate(21.971875 173.831285)scale(0.1 -0.1)">
       <use xlink:href="#DejaVuSans-30"/>
       <use xlink:href="#DejaVuSans-2e" x="63.623047"/>
       <use xlink:href="#DejaVuSans-36" x="95.410156"/>
       <use xlink:href="#DejaVuSans-35" x="159.033203"/>
       <use xlink:href="#DejaVuSans-30" x="222.65625"/>
      </g>
     </g>
    </g>
    <g id="ytick_6">
     <g id="line2d_15">
      <path d="M 57.6 138.088478 
L 414.72 138.088478 
" clip-path="url(#p0c39210c09)" style="fill: none; stroke: #cccccc; stroke-width: 0.8; stroke-linecap: round"/>
     </g>
     <g id="text_16">
      <!-- 0.675 -->
      <g style="fill: #262626" transform="translate(21.971875 141.887697)scale(0.1 -0.1)">
       <use xlink:href="#DejaVuSans-30"/>
       <use xlink:href="#DejaVuSans-2e" x="63.623047"/>
       <use xlink:href="#DejaVuSans-36" x="95.410156"/>
       <use xlink:href="#DejaVuSans-37" x="159.033203"/>
       <use xlink:href="#DejaVuSans-35" x="222.65625"/>
      </g>
     </g>
    </g>
    <g id="ytick_7">
     <g id="line2d_16">
      <path d="M 57.6 106.14489 
L 414.72 106.14489 
" clip-path="url(#p0c39210c09)" style="fill: none; stroke: #cccccc; stroke-width: 0.8; stroke-linecap: round"/>
     </g>
     <g id="text_17">
      <!-- 0.700 -->
      <g style="fill: #262626" transform="translate(21.971875 109.944109)scale(0.1 -0.1)">
       <use xlink:href="#DejaVuSans-30"/>
       <use xlink:href="#DejaVuSans-2e" x="63.623047"/>
       <use xlink:href="#DejaVuSans-37" x="95.410156"/>
       <use xlink:href="#DejaVuSans-30" x="159.033203"/>
       <use xlink:href="#DejaVuSans-30" x="222.65625"/>
      </g>
     </g>
    </g>
    <g id="ytick_8">
     <g id="line2d_17">
      <path d="M 57.6 74.201301 
L 414.72 74.201301 
" clip-path="url(#p0c39210c09)" style="fill: none; stroke: #cccccc; stroke-width: 0.8; stroke-linecap: round"/>
     </g>
     <g id="text_18">
      <!-- 0.725 -->
      <g style="fill: #262626" transform="translate(21.971875 78.00052)scale(0.1 -0.1)">
       <use xlink:href="#DejaVuSans-30"/>
       <use xlink:href="#DejaVuSans-2e" x="63.623047"/>
       <use xlink:href="#DejaVuSans-37" x="95.410156"/>
       <use xlink:href="#DejaVuSans-32" x="159.033203"/>
       <use xlink:href="#DejaVuSans-35" x="222.65625"/>
      </g>
     </g>
    </g>
    <g id="ytick_9">
     <g id="line2d_18">
      <path d="M 57.6 42.257713 
L 414.72 42.257713 
" clip-path="url(#p0c39210c09)" style="fill: none; stroke: #cccccc; stroke-width: 0.8; stroke-linecap: round"/>
     </g>
     <g id="text_19">
      <!-- 0.750 -->
      <g style="fill: #262626" transform="translate(21.971875 46.056932)scale(0.1 -0.1)">
       <use xlink:href="#DejaVuSans-30"/>
       <use xlink:href="#DejaVuSans-2e" x="63.623047"/>
       <use xlink:href="#DejaVuSans-37" x="95.410156"/>
       <use xlink:href="#DejaVuSans-35" x="159.033203"/>
       <use xlink:href="#DejaVuSans-30" x="222.65625"/>
      </g>
     </g>
    </g>
    <g id="text_20">
     <!-- Auroc -->
     <g style="fill: #262626" transform="translate(15.892188 188.868625)rotate(-90)scale(0.1 -0.1)">
      <defs>
       <path id="DejaVuSans-41" d="M 2188 4044 
L 1331 1722 
L 3047 1722 
L 2188 4044 
z
M 1831 4666 
L 2547 4666 
L 4325 0 
L 3669 0 
L 3244 1197 
L 1141 1197 
L 716 0 
L 50 0 
L 1831 4666 
z
" transform="scale(0.015625)"/>
       <path id="DejaVuSans-75" d="M 544 1381 
L 544 3500 
L 1119 3500 
L 1119 1403 
Q 1119 906 1312 657 
Q 1506 409 1894 409 
Q 2359 409 2629 706 
Q 2900 1003 2900 1516 
L 2900 3500 
L 3475 3500 
L 3475 0 
L 2900 0 
L 2900 538 
Q 2691 219 2414 64 
Q 2138 -91 1772 -91 
Q 1169 -91 856 284 
Q 544 659 544 1381 
z
M 1991 3584 
L 1991 3584 
z
" transform="scale(0.015625)"/>
       <path id="DejaVuSans-63" d="M 3122 3366 
L 3122 2828 
Q 2878 2963 2633 3030 
Q 2388 3097 2138 3097 
Q 1578 3097 1268 2742 
Q 959 2388 959 1747 
Q 959 1106 1268 751 
Q 1578 397 2138 397 
Q 2388 397 2633 464 
Q 2878 531 3122 666 
L 3122 134 
Q 2881 22 2623 -34 
Q 2366 -91 2075 -91 
Q 1284 -91 818 406 
Q 353 903 353 1747 
Q 353 2603 823 3093 
Q 1294 3584 2113 3584 
Q 2378 3584 2631 3529 
Q 2884 3475 3122 3366 
z
" transform="scale(0.015625)"/>
      </defs>
      <use xlink:href="#DejaVuSans-41"/>
      <use xlink:href="#DejaVuSans-75" x="68.408203"/>
      <use xlink:href="#DejaVuSans-72" x="131.787109"/>
      <use xlink:href="#DejaVuSans-6f" x="170.650391"/>
      <use xlink:href="#DejaVuSans-63" x="231.832031"/>
     </g>
    </g>
   </g>
   <g id="PolyCollection_1">
    <defs>
     <path id="mea1888df25" d="M 73.832727 -247.13371 
L 73.832727 -131.891661 
L 75.464157 -137.032395 
L 77.095587 -111.70902 
L 78.727017 -138.963089 
L 80.358447 -107.506136 
L 81.989877 -184.686516 
L 83.621307 -85.169722 
L 85.252736 -147.598308 
L 86.884166 -120.115655 
L 88.515596 -152.394317 
L 90.147026 -155.873886 
L 91.778456 -130.329709 
L 93.409886 -80.139866 
L 95.041316 -67.278112 
L 96.672746 -127.327272 
L 98.304175 -144.112577 
L 99.935605 -129.083623 
L 101.567035 -134.300205 
L 103.198465 -133.348942 
L 104.829895 -92.270081 
L 106.461325 -138.631563 
L 108.092755 -155.30651 
L 109.724185 -153.133558 
L 111.355614 -96.35125 
L 112.987044 -131.39293 
L 114.618474 -108.951899 
L 116.249904 -148.475883 
L 117.881334 -100.449438 
L 119.512764 -91.824278 
L 121.144194 -117.920197 
L 122.775624 -107.920503 
L 124.407053 -69.538316 
L 126.038483 -52.4645 
L 127.669913 -128.135425 
L 129.301343 -163.382469 
L 130.932773 -86.798794 
L 132.564203 -155.229343 
L 134.195633 -154.272325 
L 135.827063 -144.568158 
L 137.458492 -132.314164 
L 139.089922 -157.806072 
L 140.721352 -167.42666 
L 142.352782 -177.964196 
L 143.984212 -125.078511 
L 145.615642 -124.595253 
L 147.247072 -151.342995 
L 148.878502 -67.295879 
L 150.509931 -74.335156 
L 152.141361 -134.964884 
L 153.772791 -169.074799 
L 155.404221 -157.975089 
L 157.035651 -136.817697 
L 158.667081 -109.627989 
L 160.298511 -145.056437 
L 161.929941 -95.090095 
L 163.56137 -123.86639 
L 165.1928 -91.417392 
L 166.82423 -164.847419 
L 168.45566 -115.114596 
L 170.08709 -165.765027 
L 171.71852 -159.721387 
L 173.34995 -115.791733 
L 174.98138 -124.666166 
L 176.61281 -128.666377 
L 178.244239 -85.156424 
L 179.875669 -131.579052 
L 181.507099 -154.817456 
L 183.138529 -120.572089 
L 184.769959 -146.884658 
L 186.401389 -102.253465 
L 188.032819 -128.989332 
L 189.664249 -123.828489 
L 191.295678 -99.135144 
L 192.927108 -130.801295 
L 194.558538 -140.199345 
L 196.189968 -181.433934 
L 197.821398 -106.211547 
L 199.452828 -115.992731 
L 201.084258 -137.120552 
L 202.715688 -140.393213 
L 204.347117 -150.270412 
L 205.978547 -138.933126 
L 207.609977 -117.489687 
L 209.241407 -149.873545 
L 210.872837 -177.28661 
L 212.504267 -146.973002 
L 214.135697 -157.410659 
L 215.767127 -122.652104 
L 217.398556 -144.895618 
L 219.029986 -133.087726 
L 220.661416 -156.640516 
L 222.292846 -137.5337 
L 223.924276 -129.066379 
L 225.555706 -183.493441 
L 227.187136 -183.577754 
L 228.818566 -152.180533 
L 230.449995 -156.544452 
L 232.081425 -136.212909 
L 233.712855 -158.4819 
L 235.344285 -108.774185 
L 236.975715 -136.502108 
L 238.607145 -175.183593 
L 240.238575 -151.189852 
L 241.870005 -168.377747 
L 243.501434 -107.527224 
L 245.132864 -149.87992 
L 246.764294 -140.420604 
L 248.395724 -154.028346 
L 250.027154 -130.811063 
L 251.658584 -112.868778 
L 253.290014 -140.365385 
L 254.921444 -151.762224 
L 256.552873 -129.589691 
L 258.184303 -94.5606 
L 259.815733 -122.0143 
L 261.447163 -110.449325 
L 263.078593 -99.893723 
L 264.710023 -192.079632 
L 266.341453 -152.401149 
L 267.972883 -145.759262 
L 269.604312 -61.975038 
L 271.235742 -139.11087 
L 272.867172 -92.120568 
L 274.498602 -151.672108 
L 276.130032 -130.723102 
L 277.761462 -139.535385 
L 279.392892 -153.897224 
L 281.024322 -128.779224 
L 282.655751 -197.785497 
L 284.287181 -180.637303 
L 285.918611 -158.568078 
L 287.550041 -131.459893 
L 289.181471 -149.169783 
L 290.812901 -174.386713 
L 292.444331 -91.4744 
L 294.075761 -105.760687 
L 295.70719 -113.974626 
L 297.33862 -50.112 
L 298.97005 -93.205927 
L 300.60148 -124.605689 
L 302.23291 -135.983609 
L 303.86434 -105.69793 
L 305.49577 -124.249549 
L 307.1272 -112.437445 
L 308.75863 -159.387631 
L 310.390059 -102.89852 
L 312.021489 -144.864984 
L 313.652919 -137.845212 
L 315.284349 -134.15925 
L 316.915779 -68.959 
L 318.547209 -143.029734 
L 320.178639 -155.130325 
L 321.810069 -122.486593 
L 323.441498 -147.501308 
L 325.072928 -124.491589 
L 326.704358 -119.221805 
L 328.335788 -168.913904 
L 329.967218 -135.155654 
L 331.598648 -123.709939 
L 333.230078 -129.1055 
L 334.861508 -126.749039 
L 336.492937 -133.872964 
L 338.124367 -130.279162 
L 339.755797 -121.663916 
L 341.387227 -129.485906 
L 343.018657 -105.516661 
L 344.650087 -85.179464 
L 346.281517 -120.80041 
L 347.912947 -110.768047 
L 349.544376 -127.553716 
L 351.175806 -110.771146 
L 352.807236 -132.15636 
L 354.438666 -154.790097 
L 356.070096 -90.320941 
L 357.701526 -147.525046 
L 359.332956 -118.399158 
L 360.964386 -163.058678 
L 362.595815 -152.770523 
L 364.227245 -95.548959 
L 365.858675 -81.259748 
L 367.490105 -137.920369 
L 369.121535 -146.948397 
L 370.752965 -123.259872 
L 372.384395 -144.363979 
L 374.015825 -139.331789 
L 375.647254 -95.675075 
L 377.278684 -96.611126 
L 378.910114 -149.983292 
L 380.541544 -66.979508 
L 382.172974 -154.470539 
L 383.804404 -158.956334 
L 385.435834 -146.761476 
L 387.067264 -125.716484 
L 388.698693 -114.852774 
L 390.330123 -90.033601 
L 391.961553 -128.805376 
L 393.592983 -178.896813 
L 395.224413 -132.783714 
L 396.855843 -125.045169 
L 398.487273 -102.315777 
L 398.487273 -190.35049 
L 398.487273 -190.35049 
L 396.855843 -206.397868 
L 395.224413 -207.737218 
L 393.592983 -237.001518 
L 391.961553 -234.44787 
L 390.330123 -227.600741 
L 388.698693 -209.532117 
L 387.067264 -261.992686 
L 385.435834 -230.771572 
L 383.804404 -221.438152 
L 382.172974 -264.883575 
L 380.541544 -221.070089 
L 378.910114 -235.511062 
L 377.278684 -245.580283 
L 375.647254 -193.735774 
L 374.015825 -197.064244 
L 372.384395 -201.898357 
L 370.752965 -212.611257 
L 369.121535 -222.219195 
L 367.490105 -246.08248 
L 365.858675 -161.525158 
L 364.227245 -186.83683 
L 362.595815 -226.104411 
L 360.964386 -265.001642 
L 359.332956 -232.674184 
L 357.701526 -218.449536 
L 356.070096 -214.941169 
L 354.438666 -216.421814 
L 352.807236 -231.796124 
L 351.175806 -212.284397 
L 349.544376 -213.215084 
L 347.912947 -233.16327 
L 346.281517 -203.218656 
L 344.650087 -222.265215 
L 343.018657 -257.253728 
L 341.387227 -203.685786 
L 339.755797 -232.571806 
L 338.124367 -210.850904 
L 336.492937 -258.944151 
L 334.861508 -211.435243 
L 333.230078 -280.455854 
L 331.598648 -213.169887 
L 329.967218 -240.610159 
L 328.335788 -203.848773 
L 326.704358 -252.922337 
L 325.072928 -183.987603 
L 323.441498 -246.929798 
L 321.810069 -189.298968 
L 320.178639 -245.618908 
L 318.547209 -239.65765 
L 316.915779 -189.993395 
L 315.284349 -224.300244 
L 313.652919 -219.13892 
L 312.021489 -192.396488 
L 310.390059 -269.401486 
L 308.75863 -276.039659 
L 307.1272 -216.339298 
L 305.49577 -196.185917 
L 303.86434 -184.551372 
L 302.23291 -227.745927 
L 300.60148 -258.650867 
L 298.97005 -168.69686 
L 297.33862 -178.327413 
L 295.70719 -238.260646 
L 294.075761 -234.032014 
L 292.444331 -220.813745 
L 290.812901 -278.675107 
L 289.181471 -208.397297 
L 287.550041 -222.790569 
L 285.918611 -249.817571 
L 284.287181 -247.944238 
L 282.655751 -283.356763 
L 281.024322 -282.367393 
L 279.392892 -265.883166 
L 277.761462 -247.404472 
L 276.130032 -246.162779 
L 274.498602 -255.035227 
L 272.867172 -216.061715 
L 271.235742 -212.072295 
L 269.604312 -176.089922 
L 267.972883 -249.137389 
L 266.341453 -247.695256 
L 264.710023 -274.773181 
L 263.078593 -188.800255 
L 261.447163 -168.660918 
L 259.815733 -192.192209 
L 258.184303 -200.398264 
L 256.552873 -211.5995 
L 254.921444 -210.461312 
L 253.290014 -192.195878 
L 251.658584 -184.343821 
L 250.027154 -246.143013 
L 248.395724 -240.882421 
L 246.764294 -207.071087 
L 245.132864 -237.730582 
L 243.501434 -253.635573 
L 241.870005 -257.017507 
L 240.238575 -179.271006 
L 238.607145 -265.393328 
L 236.975715 -241.118346 
L 235.344285 -160.238672 
L 233.712855 -276.123118 
L 232.081425 -196.481081 
L 230.449995 -227.88062 
L 228.818566 -220.106437 
L 227.187136 -262.018711 
L 225.555706 -237.594474 
L 223.924276 -231.719887 
L 222.292846 -203.450741 
L 220.661416 -229.625052 
L 219.029986 -205.351905 
L 217.398556 -213.673387 
L 215.767127 -271.602972 
L 214.135697 -233.306742 
L 212.504267 -255.680059 
L 210.872837 -255.999378 
L 209.241407 -238.782352 
L 207.609977 -185.704615 
L 205.978547 -218.170707 
L 204.347117 -240.599638 
L 202.715688 -259.962858 
L 201.084258 -205.919811 
L 199.452828 -223.438528 
L 197.821398 -234.357823 
L 196.189968 -222.500806 
L 194.558538 -194.864136 
L 192.927108 -182.208847 
L 191.295678 -187.347427 
L 189.664249 -206.524446 
L 188.032819 -254.681498 
L 186.401389 -181.522802 
L 184.769959 -240.401774 
L 183.138529 -242.469354 
L 181.507099 -208.835625 
L 179.875669 -247.124187 
L 178.244239 -173.459576 
L 176.61281 -234.786007 
L 174.98138 -278.946978 
L 173.34995 -140.129556 
L 171.71852 -267.03209 
L 170.08709 -272.580896 
L 168.45566 -203.362925 
L 166.82423 -263.351268 
L 165.1928 -264.596526 
L 163.56137 -209.227658 
L 161.929941 -208.157603 
L 160.298511 -239.379117 
L 158.667081 -226.170318 
L 157.035651 -252.135694 
L 155.404221 -286.624468 
L 153.772791 -234.30851 
L 152.141361 -204.778785 
L 150.509931 -220.475666 
L 148.878502 -185.936856 
L 147.247072 -292.032 
L 145.615642 -204.058788 
L 143.984212 -250.460272 
L 142.352782 -253.206218 
L 140.721352 -210.685741 
L 139.089922 -227.486182 
L 137.458492 -194.262425 
L 135.827063 -235.462899 
L 134.195633 -242.680073 
L 132.564203 -249.799064 
L 130.932773 -236.226373 
L 129.301343 -256.956873 
L 127.669913 -198.914708 
L 126.038483 -259.720146 
L 124.407053 -176.706007 
L 122.775624 -210.855164 
L 121.144194 -197.769273 
L 119.512764 -238.061173 
L 117.881334 -229.660802 
L 116.249904 -247.187101 
L 114.618474 -242.757397 
L 112.987044 -209.147214 
L 111.355614 -179.654413 
L 109.724185 -229.733549 
L 108.092755 -272.731316 
L 106.461325 -255.03056 
L 104.829895 -254.225695 
L 103.198465 -180.178592 
L 101.567035 -232.947162 
L 99.935605 -252.730354 
L 98.304175 -220.380769 
L 96.672746 -215.357895 
L 95.041316 -184.549851 
L 93.409886 -206.209483 
L 91.778456 -195.572035 
L 90.147026 -228.077399 
L 88.515596 -231.03182 
L 86.884166 -252.839058 
L 85.252736 -222.470944 
L 83.621307 -229.265804 
L 81.989877 -248.828323 
L 80.358447 -198.781981 
L 78.727017 -242.496879 
L 77.095587 -257.726509 
L 75.464157 -237.978016 
L 73.832727 -247.13371 
z
" style="stroke: #ffffff; stroke-opacity: 0.2"/>
    </defs>
    <g clip-path="url(#p0c39210c09)">
     <use xlink:href="#mea1888df25" x="0" y="345.6" style="fill: #1f77b4; fill-opacity: 0.2; stroke: #ffffff; stroke-opacity: 0.2"/>
    </g>
   </g>
   <g id="line2d_19">
    <path d="M 73.832727 156.087314 
L 75.464157 158.094794 
L 77.095587 160.882236 
L 78.727017 154.870016 
L 80.358447 192.455941 
L 81.989877 128.84258 
L 83.621307 188.382237 
L 85.252736 160.565374 
L 86.884166 159.122643 
L 88.515596 153.886931 
L 90.147026 153.624358 
L 91.778456 182.649128 
L 93.409886 202.425326 
L 95.041316 219.686018 
L 96.672746 174.257417 
L 98.304175 163.353327 
L 99.935605 154.693012 
L 101.567035 161.976316 
L 103.198465 188.836233 
L 104.829895 172.352112 
L 106.461325 148.768938 
L 108.092755 131.581087 
L 109.724185 154.166447 
L 111.355614 207.597168 
L 112.987044 175.329928 
L 114.618474 169.745352 
L 116.249904 147.768508 
L 117.881334 180.54488 
L 119.512764 180.657274 
L 121.144194 187.755265 
L 122.775624 186.212166 
L 124.407053 222.477839 
L 126.038483 189.507677 
L 127.669913 182.074934 
L 129.301343 135.430329 
L 130.932773 184.087416 
L 132.564203 143.085796 
L 134.195633 147.123801 
L 135.827063 155.584471 
L 137.458492 182.311706 
L 139.089922 152.953873 
L 140.721352 156.5438 
L 142.352782 130.014793 
L 143.984212 157.830608 
L 145.615642 181.272979 
L 147.247072 123.912502 
L 148.878502 218.983633 
L 150.509931 198.194589 
L 152.141361 175.728166 
L 153.772791 143.908345 
L 155.404221 123.300222 
L 158.667081 177.700847 
L 160.298511 153.382223 
L 161.929941 193.976151 
L 163.56137 179.052976 
L 165.1928 167.593041 
L 166.82423 131.500657 
L 168.45566 186.36124 
L 170.08709 126.427039 
L 171.71852 132.223262 
L 173.34995 217.639356 
L 174.98138 143.793428 
L 176.61281 163.873808 
L 178.244239 216.292 
L 179.875669 156.24838 
L 181.507099 163.77346 
L 183.138529 164.079278 
L 184.769959 151.956784 
L 186.401389 203.711866 
L 188.032819 153.764585 
L 189.664249 180.423532 
L 191.295678 202.358714 
L 192.927108 189.094929 
L 194.558538 178.06826 
L 196.189968 143.63263 
L 197.821398 175.315315 
L 199.452828 175.88437 
L 201.084258 174.079818 
L 202.715688 145.421965 
L 204.347117 150.164975 
L 205.978547 167.048083 
L 207.609977 194.002849 
L 209.241407 151.272052 
L 210.872837 128.957006 
L 212.504267 144.273469 
L 214.135697 150.241299 
L 215.767127 148.472462 
L 217.398556 166.315498 
L 219.029986 176.380184 
L 220.661416 152.467216 
L 222.292846 175.107779 
L 223.924276 165.206867 
L 225.555706 135.056043 
L 227.187136 122.801767 
L 228.818566 159.456515 
L 230.449995 153.387464 
L 232.081425 179.253005 
L 233.712855 128.297491 
L 235.344285 211.093571 
L 236.975715 156.789773 
L 238.607145 125.31154 
L 240.238575 180.369571 
L 241.870005 132.902373 
L 243.501434 165.018601 
L 245.132864 151.794749 
L 246.764294 171.854155 
L 248.395724 148.144616 
L 250.027154 157.122962 
L 251.658584 196.9937 
L 253.290014 179.319368 
L 254.921444 164.488232 
L 256.552873 175.005405 
L 258.184303 198.120568 
L 259.815733 188.496745 
L 261.447163 206.044878 
L 263.078593 201.253011 
L 264.710023 112.173593 
L 266.341453 145.551797 
L 267.972883 148.151674 
L 269.604312 226.56752 
L 271.235742 170.008418 
L 272.867172 191.508859 
L 274.498602 142.246332 
L 276.130032 157.157059 
L 277.761462 152.130072 
L 279.392892 135.709805 
L 281.024322 140.026692 
L 282.655751 105.02887 
L 284.287181 131.309229 
L 285.918611 141.407175 
L 287.550041 168.474769 
L 289.181471 166.81646 
L 290.812901 119.06909 
L 292.444331 189.455927 
L 294.075761 175.70365 
L 295.70719 169.482364 
L 297.33862 231.380294 
L 298.97005 214.648607 
L 300.60148 153.971722 
L 302.23291 163.735232 
L 303.86434 200.475349 
L 305.49577 185.382267 
L 307.1272 181.211629 
L 308.75863 127.886355 
L 310.390059 159.449997 
L 312.021489 176.969264 
L 313.652919 167.107934 
L 315.284349 166.370253 
L 316.915779 216.123803 
L 318.547209 154.256308 
L 320.178639 145.225384 
L 321.810069 189.70722 
L 323.441498 148.384447 
L 325.072928 191.360404 
L 326.704358 159.527929 
L 328.335788 159.218661 
L 329.967218 157.717093 
L 331.598648 177.160087 
L 333.230078 140.819323 
L 334.861508 176.507859 
L 336.492937 149.191443 
L 338.124367 175.034967 
L 339.755797 168.482139 
L 341.387227 179.014154 
L 343.018657 164.214806 
L 344.650087 191.87766 
L 346.281517 183.590467 
L 347.912947 173.634342 
L 349.544376 175.2156 
L 351.175806 184.072228 
L 352.807236 163.623758 
L 354.438666 159.994044 
L 356.070096 192.968945 
L 357.701526 162.612709 
L 359.332956 170.063329 
L 360.964386 131.56984 
L 362.595815 156.162533 
L 364.227245 204.407106 
L 365.858675 224.207547 
L 367.490105 153.598575 
L 369.121535 161.016204 
L 370.752965 177.664435 
L 372.384395 172.468832 
L 374.015825 177.401984 
L 375.647254 200.894575 
L 377.278684 174.504296 
L 378.910114 152.852823 
L 380.541544 201.575202 
L 382.172974 135.922943 
L 383.804404 155.402757 
L 385.435834 156.833476 
L 387.067264 151.745415 
L 388.698693 183.407554 
L 390.330123 186.782829 
L 391.961553 163.973377 
L 393.592983 137.650834 
L 395.224413 175.339534 
L 396.855843 179.878482 
L 398.487273 199.266867 
L 398.487273 199.266867 
" clip-path="url(#p0c39210c09)" style="fill: none; stroke: #1f77b4; stroke-width: 1.5; stroke-linecap: round"/>
   </g>
   <g id="LineCollection_1">
    <path d="M 398.487273 295.488 
L 398.487273 53.568 
" clip-path="url(#p0c39210c09)" style="fill: none; stroke-dasharray: 5.55,2.4; stroke-dashoffset: 0; stroke: #1f77b4; stroke-width: 1.5"/>
   </g>
   <g id="patch_3">
    <path d="M 57.6 307.584 
L 57.6 41.472 
" style="fill: none; stroke: #cccccc; stroke-width: 0.8; stroke-linejoin: miter; stroke-linecap: square"/>
   </g>
   <g id="patch_4">
    <path d="M 414.72 307.584 
L 414.72 41.472 
" style="fill: none; stroke: #cccccc; stroke-width: 0.8; stroke-linejoin: miter; stroke-linecap: square"/>
   </g>
   <g id="patch_5">
    <path d="M 57.6 307.584 
L 414.72 307.584 
" style="fill: none; stroke: #cccccc; stroke-width: 0.8; stroke-linejoin: miter; stroke-linecap: square"/>
   </g>
   <g id="patch_6">
    <path d="M 57.6 41.472 
L 414.72 41.472 
" style="fill: none; stroke: #cccccc; stroke-width: 0.8; stroke-linejoin: miter; stroke-linecap: square"/>
   </g>
   <g id="text_21">
    <!-- Model performance vs. # of iterations -->
    <g style="fill: #262626" transform="translate(122.314688 35.472)scale(0.12 -0.12)">
     <defs>
      <path id="DejaVuSans-4d" d="M 628 4666 
L 1569 4666 
L 2759 1491 
L 3956 4666 
L 4897 4666 
L 4897 0 
L 4281 0 
L 4281 4097 
L 3078 897 
L 2444 897 
L 1241 4097 
L 1241 0 
L 628 0 
L 628 4666 
z
" transform="scale(0.015625)"/>
      <path id="DejaVuSans-64" d="M 2906 2969 
L 2906 4863 
L 3481 4863 
L 3481 0 
L 2906 0 
L 2906 525 
Q 2725 213 2448 61 
Q 2172 -91 1784 -91 
Q 1150 -91 751 415 
Q 353 922 353 1747 
Q 353 2572 751 3078 
Q 1150 3584 1784 3584 
Q 2172 3584 2448 3432 
Q 2725 3281 2906 2969 
z
M 947 1747 
Q 947 1113 1208 752 
Q 1469 391 1925 391 
Q 2381 391 2643 752 
Q 2906 1113 2906 1747 
Q 2906 2381 2643 2742 
Q 2381 3103 1925 3103 
Q 1469 3103 1208 2742 
Q 947 2381 947 1747 
z
" transform="scale(0.015625)"/>
      <path id="DejaVuSans-6c" d="M 603 4863 
L 1178 4863 
L 1178 0 
L 603 0 
L 603 4863 
z
" transform="scale(0.015625)"/>
      <path id="DejaVuSans-20" transform="scale(0.015625)"/>
      <path id="DejaVuSans-70" d="M 1159 525 
L 1159 -1331 
L 581 -1331 
L 581 3500 
L 1159 3500 
L 1159 2969 
Q 1341 3281 1617 3432 
Q 1894 3584 2278 3584 
Q 2916 3584 3314 3078 
Q 3713 2572 3713 1747 
Q 3713 922 3314 415 
Q 2916 -91 2278 -91 
Q 1894 -91 1617 61 
Q 1341 213 1159 525 
z
M 3116 1747 
Q 3116 2381 2855 2742 
Q 2594 3103 2138 3103 
Q 1681 3103 1420 2742 
Q 1159 2381 1159 1747 
Q 1159 1113 1420 752 
Q 1681 391 2138 391 
Q 2594 391 2855 752 
Q 3116 1113 3116 1747 
z
" transform="scale(0.015625)"/>
      <path id="DejaVuSans-66" d="M 2375 4863 
L 2375 4384 
L 1825 4384 
Q 1516 4384 1395 4259 
Q 1275 4134 1275 3809 
L 1275 3500 
L 2222 3500 
L 2222 3053 
L 1275 3053 
L 1275 0 
L 697 0 
L 697 3053 
L 147 3053 
L 147 3500 
L 697 3500 
L 697 3744 
Q 697 4328 969 4595 
Q 1241 4863 1831 4863 
L 2375 4863 
z
" transform="scale(0.015625)"/>
      <path id="DejaVuSans-6d" d="M 3328 2828 
Q 3544 3216 3844 3400 
Q 4144 3584 4550 3584 
Q 5097 3584 5394 3201 
Q 5691 2819 5691 2113 
L 5691 0 
L 5113 0 
L 5113 2094 
Q 5113 2597 4934 2840 
Q 4756 3084 4391 3084 
Q 3944 3084 3684 2787 
Q 3425 2491 3425 1978 
L 3425 0 
L 2847 0 
L 2847 2094 
Q 2847 2600 2669 2842 
Q 2491 3084 2119 3084 
Q 1678 3084 1418 2786 
Q 1159 2488 1159 1978 
L 1159 0 
L 581 0 
L 581 3500 
L 1159 3500 
L 1159 2956 
Q 1356 3278 1631 3431 
Q 1906 3584 2284 3584 
Q 2666 3584 2933 3390 
Q 3200 3197 3328 2828 
z
" transform="scale(0.015625)"/>
      <path id="DejaVuSans-76" d="M 191 3500 
L 800 3500 
L 1894 563 
L 2988 3500 
L 3597 3500 
L 2284 0 
L 1503 0 
L 191 3500 
z
" transform="scale(0.015625)"/>
      <path id="DejaVuSans-73" d="M 2834 3397 
L 2834 2853 
Q 2591 2978 2328 3040 
Q 2066 3103 1784 3103 
Q 1356 3103 1142 2972 
Q 928 2841 928 2578 
Q 928 2378 1081 2264 
Q 1234 2150 1697 2047 
L 1894 2003 
Q 2506 1872 2764 1633 
Q 3022 1394 3022 966 
Q 3022 478 2636 193 
Q 2250 -91 1575 -91 
Q 1294 -91 989 -36 
Q 684 19 347 128 
L 347 722 
Q 666 556 975 473 
Q 1284 391 1588 391 
Q 1994 391 2212 530 
Q 2431 669 2431 922 
Q 2431 1156 2273 1281 
Q 2116 1406 1581 1522 
L 1381 1569 
Q 847 1681 609 1914 
Q 372 2147 372 2553 
Q 372 3047 722 3315 
Q 1072 3584 1716 3584 
Q 2034 3584 2315 3537 
Q 2597 3491 2834 3397 
z
" transform="scale(0.015625)"/>
      <path id="DejaVuSans-23" d="M 3272 2816 
L 2363 2816 
L 2100 1772 
L 3016 1772 
L 3272 2816 
z
M 2803 4594 
L 2478 3297 
L 3391 3297 
L 3719 4594 
L 4219 4594 
L 3897 3297 
L 4872 3297 
L 4872 2816 
L 3775 2816 
L 3519 1772 
L 4513 1772 
L 4513 1294 
L 3397 1294 
L 3072 0 
L 2572 0 
L 2894 1294 
L 1978 1294 
L 1656 0 
L 1153 0 
L 1478 1294 
L 494 1294 
L 494 1772 
L 1594 1772 
L 1856 2816 
L 850 2816 
L 850 3297 
L 1978 3297 
L 2297 4594 
L 2803 4594 
z
" transform="scale(0.015625)"/>
     </defs>
     <use xlink:href="#DejaVuSans-4d"/>
     <use xlink:href="#DejaVuSans-6f" x="86.279297"/>
     <use xlink:href="#DejaVuSans-64" x="147.460938"/>
     <use xlink:href="#DejaVuSans-65" x="210.9375"/>
     <use xlink:href="#DejaVuSans-6c" x="272.460938"/>
     <use xlink:href="#DejaVuSans-20" x="300.244141"/>
     <use xlink:href="#DejaVuSans-70" x="332.03125"/>
     <use xlink:href="#DejaVuSans-65" x="395.507812"/>
     <use xlink:href="#DejaVuSans-72" x="457.03125"/>
     <use xlink:href="#DejaVuSans-66" x="498.144531"/>
     <use xlink:href="#DejaVuSans-6f" x="533.349609"/>
     <use xlink:href="#DejaVuSans-72" x="594.53125"/>
     <use xlink:href="#DejaVuSans-6d" x="633.894531"/>
     <use xlink:href="#DejaVuSans-61" x="731.306641"/>
     <use xlink:href="#DejaVuSans-6e" x="792.585938"/>
     <use xlink:href="#DejaVuSans-63" x="855.964844"/>
     <use xlink:href="#DejaVuSans-65" x="910.945312"/>
     <use xlink:href="#DejaVuSans-20" x="972.46875"/>
     <use xlink:href="#DejaVuSans-76" x="1004.255859"/>
     <use xlink:href="#DejaVuSans-73" x="1063.435547"/>
     <use xlink:href="#DejaVuSans-2e" x="1115.535156"/>
     <use xlink:href="#DejaVuSans-20" x="1147.322266"/>
     <use xlink:href="#DejaVuSans-23" x="1179.109375"/>
     <use xlink:href="#DejaVuSans-20" x="1262.898438"/>
     <use xlink:href="#DejaVuSans-6f" x="1294.685547"/>
     <use xlink:href="#DejaVuSans-66" x="1355.867188"/>
     <use xlink:href="#DejaVuSans-20" x="1391.072266"/>
     <use xlink:href="#DejaVuSans-69" x="1422.859375"/>
     <use xlink:href="#DejaVuSans-74" x="1450.642578"/>
     <use xlink:href="#DejaVuSans-65" x="1489.851562"/>
     <use xlink:href="#DejaVuSans-72" x="1551.375"/>
     <use xlink:href="#DejaVuSans-61" x="1592.488281"/>
     <use xlink:href="#DejaVuSans-74" x="1653.767578"/>
     <use xlink:href="#DejaVuSans-69" x="1692.976562"/>
     <use xlink:href="#DejaVuSans-6f" x="1720.759766"/>
     <use xlink:href="#DejaVuSans-6e" x="1781.941406"/>
     <use xlink:href="#DejaVuSans-73" x="1845.320312"/>
    </g>
   </g>
  </g>
 </g>
 <defs>
  <clipPath id="p0c39210c09">
   <rect x="57.6" y="41.472" width="357.12" height="266.112"/>
  </clipPath>
 </defs>
</svg>
