<?xml version="1.0" encoding="utf-8" standalone="no"?>
<!DOCTYPE svg PUBLIC "-//W3C//DTD SVG 1.1//EN"
  "http://www.w3.org/Graphics/SVG/1.1/DTD/svg11.dtd">
<svg xmlns:xlink="http://www.w3.org/1999/xlink" width="460.8pt" height="345.6pt" viewBox="0 0 460.8 345.6" xmlns="http://www.w3.org/2000/svg" version="1.1">
 <metadata>
  <rdf:RDF xmlns:dc="http://purl.org/dc/elements/1.1/" xmlns:cc="http://creativecommons.org/ns#" xmlns:rdf="http://www.w3.org/1999/02/22-rdf-syntax-ns#">
   <cc:Work>
    <dc:type rdf:resource="http://purl.org/dc/dcmitype/StillImage"/>
    <dc:date>2022-10-19T01:03:06.945607</dc:date>
    <dc:format>image/svg+xml</dc:format>
    <dc:creator>
     <cc:Agent>
      <dc:title>Matplotlib v3.5.2, https://matplotlib.org/</dc:title>
     </cc:Agent>
    </dc:creator>
   </cc:Work>
  </rdf:RDF>
 </metadata>
 <defs>
  <style type="text/css">*{stroke-linejoin: round; stroke-linecap: butt}</style>
 </defs>
 <g id="figure_1">
  <g id="patch_1">
   <path d="M 0 345.6 
L 460.8 345.6 
L 460.8 0 
L 0 0 
z
" style="fill: #ffffff"/>
  </g>
  <g id="axes_1">
   <g id="patch_2">
    <path d="M 57.6 307.584 
L 414.72 307.584 
L 414.72 41.472 
L 57.6 41.472 
z
" style="fill: #ffffff"/>
   </g>
   <g id="matplotlib.axis_1">
    <g id="xtick_1">
     <g id="line2d_1">
      <path d="M 72.201297 307.584 
L 72.201297 41.472 
" clip-path="url(#pc256400d12)" style="fill: none; stroke: #cccccc; stroke-width: 0.8; stroke-linecap: round"/>
     </g>
     <g id="text_1">
      <!-- 0 -->
      <g style="fill: #262626" transform="translate(69.020047 322.182437)scale(0.1 -0.1)">
       <defs>
        <path id="DejaVuSans-30" d="M 2034 4250 
Q 1547 4250 1301 3770 
Q 1056 3291 1056 2328 
Q 1056 1369 1301 889 
Q 1547 409 2034 409 
Q 2525 409 2770 889 
Q 3016 1369 3016 2328 
Q 3016 3291 2770 3770 
Q 2525 4250 2034 4250 
z
M 2034 4750 
Q 2819 4750 3233 4129 
Q 3647 3509 3647 2328 
Q 3647 1150 3233 529 
Q 2819 -91 2034 -91 
Q 1250 -91 836 529 
Q 422 1150 422 2328 
Q 422 3509 836 4129 
Q 1250 4750 2034 4750 
z
" transform="scale(0.015625)"/>
       </defs>
       <use xlink:href="#DejaVuSans-30"/>
      </g>
     </g>
    </g>
    <g id="xtick_2">
     <g id="line2d_2">
      <path d="M 112.987044 307.584 
L 112.987044 41.472 
" clip-path="url(#pc256400d12)" style="fill: none; stroke: #cccccc; stroke-width: 0.8; stroke-linecap: round"/>
     </g>
     <g id="text_2">
      <!-- 25 -->
      <g style="fill: #262626" transform="translate(106.624544 322.182437)scale(0.1 -0.1)">
       <defs>
        <path id="DejaVuSans-32" d="M 1228 531 
L 3431 531 
L 3431 0 
L 469 0 
L 469 531 
Q 828 903 1448 1529 
Q 2069 2156 2228 2338 
Q 2531 2678 2651 2914 
Q 2772 3150 2772 3378 
Q 2772 3750 2511 3984 
Q 2250 4219 1831 4219 
Q 1534 4219 1204 4116 
Q 875 4013 500 3803 
L 500 4441 
Q 881 4594 1212 4672 
Q 1544 4750 1819 4750 
Q 2544 4750 2975 4387 
Q 3406 4025 3406 3419 
Q 3406 3131 3298 2873 
Q 3191 2616 2906 2266 
Q 2828 2175 2409 1742 
Q 1991 1309 1228 531 
z
" transform="scale(0.015625)"/>
        <path id="DejaVuSans-35" d="M 691 4666 
L 3169 4666 
L 3169 4134 
L 1269 4134 
L 1269 2991 
Q 1406 3038 1543 3061 
Q 1681 3084 1819 3084 
Q 2600 3084 3056 2656 
Q 3513 2228 3513 1497 
Q 3513 744 3044 326 
Q 2575 -91 1722 -91 
Q 1428 -91 1123 -41 
Q 819 9 494 109 
L 494 744 
Q 775 591 1075 516 
Q 1375 441 1709 441 
Q 2250 441 2565 725 
Q 2881 1009 2881 1497 
Q 2881 1984 2565 2268 
Q 2250 2553 1709 2553 
Q 1456 2553 1204 2497 
Q 953 2441 691 2322 
L 691 4666 
z
" transform="scale(0.015625)"/>
       </defs>
       <use xlink:href="#DejaVuSans-32"/>
       <use xlink:href="#DejaVuSans-35" x="63.623047"/>
      </g>
     </g>
    </g>
    <g id="xtick_3">
     <g id="line2d_3">
      <path d="M 153.772791 307.584 
L 153.772791 41.472 
" clip-path="url(#pc256400d12)" style="fill: none; stroke: #cccccc; stroke-width: 0.8; stroke-linecap: round"/>
     </g>
     <g id="text_3">
      <!-- 50 -->
      <g style="fill: #262626" transform="translate(147.410291 322.182437)scale(0.1 -0.1)">
       <use xlink:href="#DejaVuSans-35"/>
       <use xlink:href="#DejaVuSans-30" x="63.623047"/>
      </g>
     </g>
    </g>
    <g id="xtick_4">
     <g id="line2d_4">
      <path d="M 194.558538 307.584 
L 194.558538 41.472 
" clip-path="url(#pc256400d12)" style="fill: none; stroke: #cccccc; stroke-width: 0.8; stroke-linecap: round"/>
     </g>
     <g id="text_4">
      <!-- 75 -->
      <g style="fill: #262626" transform="translate(188.196038 322.182437)scale(0.1 -0.1)">
       <defs>
        <path id="DejaVuSans-37" d="M 525 4666 
L 3525 4666 
L 3525 4397 
L 1831 0 
L 1172 0 
L 2766 4134 
L 525 4134 
L 525 4666 
z
" transform="scale(0.015625)"/>
       </defs>
       <use xlink:href="#DejaVuSans-37"/>
       <use xlink:href="#DejaVuSans-35" x="63.623047"/>
      </g>
     </g>
    </g>
    <g id="xtick_5">
     <g id="line2d_5">
      <path d="M 235.344285 307.584 
L 235.344285 41.472 
" clip-path="url(#pc256400d12)" style="fill: none; stroke: #cccccc; stroke-width: 0.8; stroke-linecap: round"/>
     </g>
     <g id="text_5">
      <!-- 100 -->
      <g style="fill: #262626" transform="translate(225.800535 322.182437)scale(0.1 -0.1)">
       <defs>
        <path id="DejaVuSans-31" d="M 794 531 
L 1825 531 
L 1825 4091 
L 703 3866 
L 703 4441 
L 1819 4666 
L 2450 4666 
L 2450 531 
L 3481 531 
L 3481 0 
L 794 0 
L 794 531 
z
" transform="scale(0.015625)"/>
       </defs>
       <use xlink:href="#DejaVuSans-31"/>
       <use xlink:href="#DejaVuSans-30" x="63.623047"/>
       <use xlink:href="#DejaVuSans-30" x="127.246094"/>
      </g>
     </g>
    </g>
    <g id="xtick_6">
     <g id="line2d_6">
      <path d="M 276.130032 307.584 
L 276.130032 41.472 
" clip-path="url(#pc256400d12)" style="fill: none; stroke: #cccccc; stroke-width: 0.8; stroke-linecap: round"/>
     </g>
     <g id="text_6">
      <!-- 125 -->
      <g style="fill: #262626" transform="translate(266.586282 322.182437)scale(0.1 -0.1)">
       <use xlink:href="#DejaVuSans-31"/>
       <use xlink:href="#DejaVuSans-32" x="63.623047"/>
       <use xlink:href="#DejaVuSans-35" x="127.246094"/>
      </g>
     </g>
    </g>
    <g id="xtick_7">
     <g id="line2d_7">
      <path d="M 316.915779 307.584 
L 316.915779 41.472 
" clip-path="url(#pc256400d12)" style="fill: none; stroke: #cccccc; stroke-width: 0.8; stroke-linecap: round"/>
     </g>
     <g id="text_7">
      <!-- 150 -->
      <g style="fill: #262626" transform="translate(307.372029 322.182437)scale(0.1 -0.1)">
       <use xlink:href="#DejaVuSans-31"/>
       <use xlink:href="#DejaVuSans-35" x="63.623047"/>
       <use xlink:href="#DejaVuSans-30" x="127.246094"/>
      </g>
     </g>
    </g>
    <g id="xtick_8">
     <g id="line2d_8">
      <path d="M 357.701526 307.584 
L 357.701526 41.472 
" clip-path="url(#pc256400d12)" style="fill: none; stroke: #cccccc; stroke-width: 0.8; stroke-linecap: round"/>
     </g>
     <g id="text_8">
      <!-- 175 -->
      <g style="fill: #262626" transform="translate(348.157776 322.182437)scale(0.1 -0.1)">
       <use xlink:href="#DejaVuSans-31"/>
       <use xlink:href="#DejaVuSans-37" x="63.623047"/>
       <use xlink:href="#DejaVuSans-35" x="127.246094"/>
      </g>
     </g>
    </g>
    <g id="xtick_9">
     <g id="line2d_9">
      <path d="M 398.487273 307.584 
L 398.487273 41.472 
" clip-path="url(#pc256400d12)" style="fill: none; stroke: #cccccc; stroke-width: 0.8; stroke-linecap: round"/>
     </g>
     <g id="text_9">
      <!-- 200 -->
      <g style="fill: #262626" transform="translate(388.943523 322.182437)scale(0.1 -0.1)">
       <use xlink:href="#DejaVuSans-32"/>
       <use xlink:href="#DejaVuSans-30" x="63.623047"/>
       <use xlink:href="#DejaVuSans-30" x="127.246094"/>
      </g>
     </g>
    </g>
    <g id="text_10">
     <!-- Iteration -->
     <g style="fill: #262626" transform="translate(214.951406 335.860562)scale(0.1 -0.1)">
      <defs>
       <path id="DejaVuSans-49" d="M 628 4666 
L 1259 4666 
L 1259 0 
L 628 0 
L 628 4666 
z
" transform="scale(0.015625)"/>
       <path id="DejaVuSans-74" d="M 1172 4494 
L 1172 3500 
L 2356 3500 
L 2356 3053 
L 1172 3053 
L 1172 1153 
Q 1172 725 1289 603 
Q 1406 481 1766 481 
L 2356 481 
L 2356 0 
L 1766 0 
Q 1100 0 847 248 
Q 594 497 594 1153 
L 594 3053 
L 172 3053 
L 172 3500 
L 594 3500 
L 594 4494 
L 1172 4494 
z
" transform="scale(0.015625)"/>
       <path id="DejaVuSans-65" d="M 3597 1894 
L 3597 1613 
L 953 1613 
Q 991 1019 1311 708 
Q 1631 397 2203 397 
Q 2534 397 2845 478 
Q 3156 559 3463 722 
L 3463 178 
Q 3153 47 2828 -22 
Q 2503 -91 2169 -91 
Q 1331 -91 842 396 
Q 353 884 353 1716 
Q 353 2575 817 3079 
Q 1281 3584 2069 3584 
Q 2775 3584 3186 3129 
Q 3597 2675 3597 1894 
z
M 3022 2063 
Q 3016 2534 2758 2815 
Q 2500 3097 2075 3097 
Q 1594 3097 1305 2825 
Q 1016 2553 972 2059 
L 3022 2063 
z
" transform="scale(0.015625)"/>
       <path id="DejaVuSans-72" d="M 2631 2963 
Q 2534 3019 2420 3045 
Q 2306 3072 2169 3072 
Q 1681 3072 1420 2755 
Q 1159 2438 1159 1844 
L 1159 0 
L 581 0 
L 581 3500 
L 1159 3500 
L 1159 2956 
Q 1341 3275 1631 3429 
Q 1922 3584 2338 3584 
Q 2397 3584 2469 3576 
Q 2541 3569 2628 3553 
L 2631 2963 
z
" transform="scale(0.015625)"/>
       <path id="DejaVuSans-61" d="M 2194 1759 
Q 1497 1759 1228 1600 
Q 959 1441 959 1056 
Q 959 750 1161 570 
Q 1363 391 1709 391 
Q 2188 391 2477 730 
Q 2766 1069 2766 1631 
L 2766 1759 
L 2194 1759 
z
M 3341 1997 
L 3341 0 
L 2766 0 
L 2766 531 
Q 2569 213 2275 61 
Q 1981 -91 1556 -91 
Q 1019 -91 701 211 
Q 384 513 384 1019 
Q 384 1609 779 1909 
Q 1175 2209 1959 2209 
L 2766 2209 
L 2766 2266 
Q 2766 2663 2505 2880 
Q 2244 3097 1772 3097 
Q 1472 3097 1187 3025 
Q 903 2953 641 2809 
L 641 3341 
Q 956 3463 1253 3523 
Q 1550 3584 1831 3584 
Q 2591 3584 2966 3190 
Q 3341 2797 3341 1997 
z
" transform="scale(0.015625)"/>
       <path id="DejaVuSans-69" d="M 603 3500 
L 1178 3500 
L 1178 0 
L 603 0 
L 603 3500 
z
M 603 4863 
L 1178 4863 
L 1178 4134 
L 603 4134 
L 603 4863 
z
" transform="scale(0.015625)"/>
       <path id="DejaVuSans-6f" d="M 1959 3097 
Q 1497 3097 1228 2736 
Q 959 2375 959 1747 
Q 959 1119 1226 758 
Q 1494 397 1959 397 
Q 2419 397 2687 759 
Q 2956 1122 2956 1747 
Q 2956 2369 2687 2733 
Q 2419 3097 1959 3097 
z
M 1959 3584 
Q 2709 3584 3137 3096 
Q 3566 2609 3566 1747 
Q 3566 888 3137 398 
Q 2709 -91 1959 -91 
Q 1206 -91 779 398 
Q 353 888 353 1747 
Q 353 2609 779 3096 
Q 1206 3584 1959 3584 
z
" transform="scale(0.015625)"/>
       <path id="DejaVuSans-6e" d="M 3513 2113 
L 3513 0 
L 2938 0 
L 2938 2094 
Q 2938 2591 2744 2837 
Q 2550 3084 2163 3084 
Q 1697 3084 1428 2787 
Q 1159 2491 1159 1978 
L 1159 0 
L 581 0 
L 581 3500 
L 1159 3500 
L 1159 2956 
Q 1366 3272 1645 3428 
Q 1925 3584 2291 3584 
Q 2894 3584 3203 3211 
Q 3513 2838 3513 2113 
z
" transform="scale(0.015625)"/>
      </defs>
      <use xlink:href="#DejaVuSans-49"/>
      <use xlink:href="#DejaVuSans-74" x="29.492188"/>
      <use xlink:href="#DejaVuSans-65" x="68.701172"/>
      <use xlink:href="#DejaVuSans-72" x="130.224609"/>
      <use xlink:href="#DejaVuSans-61" x="171.337891"/>
      <use xlink:href="#DejaVuSans-74" x="232.617188"/>
      <use xlink:href="#DejaVuSans-69" x="271.826172"/>
      <use xlink:href="#DejaVuSans-6f" x="299.609375"/>
      <use xlink:href="#DejaVuSans-6e" x="360.791016"/>
     </g>
    </g>
   </g>
   <g id="matplotlib.axis_2">
    <g id="ytick_1">
     <g id="line2d_10">
      <path d="M 57.6 294.784675 
L 414.72 294.784675 
" clip-path="url(#pc256400d12)" style="fill: none; stroke: #cccccc; stroke-width: 0.8; stroke-linecap: round"/>
     </g>
     <g id="text_11">
      <!-- 0.40 -->
      <g style="fill: #262626" transform="translate(28.334375 298.583894)scale(0.1 -0.1)">
       <defs>
        <path id="DejaVuSans-2e" d="M 684 794 
L 1344 794 
L 1344 0 
L 684 0 
L 684 794 
z
" transform="scale(0.015625)"/>
        <path id="DejaVuSans-34" d="M 2419 4116 
L 825 1625 
L 2419 1625 
L 2419 4116 
z
M 2253 4666 
L 3047 4666 
L 3047 1625 
L 3713 1625 
L 3713 1100 
L 3047 1100 
L 3047 0 
L 2419 0 
L 2419 1100 
L 313 1100 
L 313 1709 
L 2253 4666 
z
" transform="scale(0.015625)"/>
       </defs>
       <use xlink:href="#DejaVuSans-30"/>
       <use xlink:href="#DejaVuSans-2e" x="63.623047"/>
       <use xlink:href="#DejaVuSans-34" x="95.410156"/>
       <use xlink:href="#DejaVuSans-30" x="159.033203"/>
      </g>
     </g>
    </g>
    <g id="ytick_2">
     <g id="line2d_11">
      <path d="M 57.6 252.279444 
L 414.72 252.279444 
" clip-path="url(#pc256400d12)" style="fill: none; stroke: #cccccc; stroke-width: 0.8; stroke-linecap: round"/>
     </g>
     <g id="text_12">
      <!-- 0.45 -->
      <g style="fill: #262626" transform="translate(28.334375 256.078663)scale(0.1 -0.1)">
       <use xlink:href="#DejaVuSans-30"/>
       <use xlink:href="#DejaVuSans-2e" x="63.623047"/>
       <use xlink:href="#DejaVuSans-34" x="95.410156"/>
       <use xlink:href="#DejaVuSans-35" x="159.033203"/>
      </g>
     </g>
    </g>
    <g id="ytick_3">
     <g id="line2d_12">
      <path d="M 57.6 209.774213 
L 414.72 209.774213 
" clip-path="url(#pc256400d12)" style="fill: none; stroke: #cccccc; stroke-width: 0.8; stroke-linecap: round"/>
     </g>
     <g id="text_13">
      <!-- 0.50 -->
      <g style="fill: #262626" transform="translate(28.334375 213.573431)scale(0.1 -0.1)">
       <use xlink:href="#DejaVuSans-30"/>
       <use xlink:href="#DejaVuSans-2e" x="63.623047"/>
       <use xlink:href="#DejaVuSans-35" x="95.410156"/>
       <use xlink:href="#DejaVuSans-30" x="159.033203"/>
      </g>
     </g>
    </g>
    <g id="ytick_4">
     <g id="line2d_13">
      <path d="M 57.6 167.268981 
L 414.72 167.268981 
" clip-path="url(#pc256400d12)" style="fill: none; stroke: #cccccc; stroke-width: 0.8; stroke-linecap: round"/>
     </g>
     <g id="text_14">
      <!-- 0.55 -->
      <g style="fill: #262626" transform="translate(28.334375 171.0682)scale(0.1 -0.1)">
       <use xlink:href="#DejaVuSans-30"/>
       <use xlink:href="#DejaVuSans-2e" x="63.623047"/>
       <use xlink:href="#DejaVuSans-35" x="95.410156"/>
       <use xlink:href="#DejaVuSans-35" x="159.033203"/>
      </g>
     </g>
    </g>
    <g id="ytick_5">
     <g id="line2d_14">
      <path d="M 57.6 124.76375 
L 414.72 124.76375 
" clip-path="url(#pc256400d12)" style="fill: none; stroke: #cccccc; stroke-width: 0.8; stroke-linecap: round"/>
     </g>
     <g id="text_15">
      <!-- 0.60 -->
      <g style="fill: #262626" transform="translate(28.334375 128.562969)scale(0.1 -0.1)">
       <defs>
        <path id="DejaVuSans-36" d="M 2113 2584 
Q 1688 2584 1439 2293 
Q 1191 2003 1191 1497 
Q 1191 994 1439 701 
Q 1688 409 2113 409 
Q 2538 409 2786 701 
Q 3034 994 3034 1497 
Q 3034 2003 2786 2293 
Q 2538 2584 2113 2584 
z
M 3366 4563 
L 3366 3988 
Q 3128 4100 2886 4159 
Q 2644 4219 2406 4219 
Q 1781 4219 1451 3797 
Q 1122 3375 1075 2522 
Q 1259 2794 1537 2939 
Q 1816 3084 2150 3084 
Q 2853 3084 3261 2657 
Q 3669 2231 3669 1497 
Q 3669 778 3244 343 
Q 2819 -91 2113 -91 
Q 1303 -91 875 529 
Q 447 1150 447 2328 
Q 447 3434 972 4092 
Q 1497 4750 2381 4750 
Q 2619 4750 2861 4703 
Q 3103 4656 3366 4563 
z
" transform="scale(0.015625)"/>
       </defs>
       <use xlink:href="#DejaVuSans-30"/>
       <use xlink:href="#DejaVuSans-2e" x="63.623047"/>
       <use xlink:href="#DejaVuSans-36" x="95.410156"/>
       <use xlink:href="#DejaVuSans-30" x="159.033203"/>
      </g>
     </g>
    </g>
    <g id="ytick_6">
     <g id="line2d_15">
      <path d="M 57.6 82.258519 
L 414.72 82.258519 
" clip-path="url(#pc256400d12)" style="fill: none; stroke: #cccccc; stroke-width: 0.8; stroke-linecap: round"/>
     </g>
     <g id="text_16">
      <!-- 0.65 -->
      <g style="fill: #262626" transform="translate(28.334375 86.057738)scale(0.1 -0.1)">
       <use xlink:href="#DejaVuSans-30"/>
       <use xlink:href="#DejaVuSans-2e" x="63.623047"/>
       <use xlink:href="#DejaVuSans-36" x="95.410156"/>
       <use xlink:href="#DejaVuSans-35" x="159.033203"/>
      </g>
     </g>
    </g>
    <g id="text_17">
     <!-- Auroc -->
     <g style="fill: #262626" transform="translate(22.254688 188.868625)rotate(-90)scale(0.1 -0.1)">
      <defs>
       <path id="DejaVuSans-41" d="M 2188 4044 
L 1331 1722 
L 3047 1722 
L 2188 4044 
z
M 1831 4666 
L 2547 4666 
L 4325 0 
L 3669 0 
L 3244 1197 
L 1141 1197 
L 716 0 
L 50 0 
L 1831 4666 
z
" transform="scale(0.015625)"/>
       <path id="DejaVuSans-75" d="M 544 1381 
L 544 3500 
L 1119 3500 
L 1119 1403 
Q 1119 906 1312 657 
Q 1506 409 1894 409 
Q 2359 409 2629 706 
Q 2900 1003 2900 1516 
L 2900 3500 
L 3475 3500 
L 3475 0 
L 2900 0 
L 2900 538 
Q 2691 219 2414 64 
Q 2138 -91 1772 -91 
Q 1169 -91 856 284 
Q 544 659 544 1381 
z
M 1991 3584 
L 1991 3584 
z
" transform="scale(0.015625)"/>
       <path id="DejaVuSans-63" d="M 3122 3366 
L 3122 2828 
Q 2878 2963 2633 3030 
Q 2388 3097 2138 3097 
Q 1578 3097 1268 2742 
Q 959 2388 959 1747 
Q 959 1106 1268 751 
Q 1578 397 2138 397 
Q 2388 397 2633 464 
Q 2878 531 3122 666 
L 3122 134 
Q 2881 22 2623 -34 
Q 2366 -91 2075 -91 
Q 1284 -91 818 406 
Q 353 903 353 1747 
Q 353 2603 823 3093 
Q 1294 3584 2113 3584 
Q 2378 3584 2631 3529 
Q 2884 3475 3122 3366 
z
" transform="scale(0.015625)"/>
      </defs>
      <use xlink:href="#DejaVuSans-41"/>
      <use xlink:href="#DejaVuSans-75" x="68.408203"/>
      <use xlink:href="#DejaVuSans-72" x="131.787109"/>
      <use xlink:href="#DejaVuSans-6f" x="170.650391"/>
      <use xlink:href="#DejaVuSans-63" x="231.832031"/>
     </g>
    </g>
   </g>
   <g id="PolyCollection_1">
    <defs>
     <path id="mfbe011812e" d="M 73.832727 -201.840168 
L 73.832727 -143.622314 
L 75.464157 -184.537882 
L 77.095587 -150.087601 
L 78.727017 -133.550865 
L 80.358447 -150.085439 
L 81.989877 -141.876033 
L 83.621307 -136.512688 
L 85.252736 -168.291107 
L 86.884166 -157.083195 
L 88.515596 -170.117033 
L 90.147026 -145.172492 
L 91.778456 -141.581592 
L 93.409886 -183.397103 
L 95.041316 -161.805714 
L 96.672746 -107.162656 
L 98.304175 -176.059275 
L 99.935605 -147.673928 
L 101.567035 -71.90752 
L 103.198465 -157.196114 
L 104.829895 -190.578415 
L 106.461325 -198.452144 
L 108.092755 -157.260294 
L 109.724185 -133.38568 
L 111.355614 -192.583255 
L 112.987044 -176.422202 
L 114.618474 -126.576474 
L 116.249904 -151.997504 
L 117.881334 -146.765148 
L 119.512764 -107.026235 
L 121.144194 -133.582635 
L 122.775624 -140.751985 
L 124.407053 -156.309928 
L 126.038483 -133.614301 
L 127.669913 -165.374806 
L 129.301343 -138.671332 
L 130.932773 -129.467922 
L 132.564203 -178.334027 
L 134.195633 -157.307214 
L 135.827063 -134.343758 
L 137.458492 -125.715666 
L 139.089922 -118.755088 
L 140.721352 -181.347285 
L 142.352782 -124.013952 
L 143.984212 -198.359629 
L 145.615642 -149.903355 
L 147.247072 -110.825925 
L 148.878502 -162.964259 
L 150.509931 -134.660845 
L 152.141361 -209.374977 
L 153.772791 -133.838342 
L 155.404221 -132.990765 
L 157.035651 -151.922696 
L 158.667081 -174.134534 
L 160.298511 -163.785824 
L 161.929941 -144.172483 
L 163.56137 -133.813372 
L 165.1928 -106.739803 
L 166.82423 -111.954247 
L 168.45566 -107.210671 
L 170.08709 -156.597627 
L 171.71852 -127.566766 
L 173.34995 -155.078299 
L 174.98138 -92.95666 
L 176.61281 -106.405394 
L 178.244239 -158.395053 
L 179.875669 -167.141191 
L 181.507099 -151.907111 
L 183.138529 -164.839082 
L 184.769959 -100.991141 
L 186.401389 -201.379944 
L 188.032819 -188.549157 
L 189.664249 -113.23256 
L 191.295678 -172.609881 
L 192.927108 -177.666761 
L 194.558538 -118.879999 
L 196.189968 -129.185776 
L 197.821398 -161.459383 
L 199.452828 -149.624429 
L 201.084258 -142.577915 
L 202.715688 -152.279913 
L 204.347117 -172.48571 
L 205.978547 -135.532974 
L 207.609977 -132.710429 
L 209.241407 -132.951482 
L 210.872837 -147.614826 
L 212.504267 -107.777526 
L 214.135697 -125.468216 
L 215.767127 -50.112 
L 217.398556 -167.1145 
L 219.029986 -93.46018 
L 220.661416 -166.44473 
L 222.292846 -153.12408 
L 223.924276 -130.446616 
L 225.555706 -143.476032 
L 227.187136 -155.250743 
L 228.818566 -187.571094 
L 230.449995 -130.394758 
L 232.081425 -133.419079 
L 233.712855 -143.927189 
L 235.344285 -176.289769 
L 236.975715 -165.656156 
L 238.607145 -165.392104 
L 240.238575 -165.609921 
L 241.870005 -180.411241 
L 243.501434 -126.930334 
L 245.132864 -192.985212 
L 246.764294 -108.884161 
L 248.395724 -98.141345 
L 250.027154 -169.670227 
L 251.658584 -178.664961 
L 253.290014 -117.256386 
L 254.921444 -116.749192 
L 256.552873 -132.30825 
L 258.184303 -137.829182 
L 259.815733 -154.544393 
L 261.447163 -166.543505 
L 263.078593 -179.031416 
L 264.710023 -188.861841 
L 266.341453 -133.575073 
L 267.972883 -132.498573 
L 269.604312 -137.424413 
L 271.235742 -138.300613 
L 272.867172 -139.755313 
L 274.498602 -157.819502 
L 276.130032 -162.666211 
L 277.761462 -165.268347 
L 279.392892 -102.136411 
L 281.024322 -91.718035 
L 282.655751 -163.533483 
L 284.287181 -115.34567 
L 285.918611 -120.980753 
L 287.550041 -130.668451 
L 289.181471 -69.827857 
L 290.812901 -144.136313 
L 292.444331 -166.895391 
L 294.075761 -171.297712 
L 295.70719 -148.54671 
L 297.33862 -172.903834 
L 298.97005 -105.108619 
L 300.60148 -165.135565 
L 302.23291 -121.347717 
L 303.86434 -152.618358 
L 305.49577 -125.040463 
L 307.1272 -174.959189 
L 308.75863 -155.629143 
L 310.390059 -121.053413 
L 312.021489 -148.983119 
L 313.652919 -72.082161 
L 315.284349 -198.263354 
L 316.915779 -135.692847 
L 318.547209 -125.150689 
L 320.178639 -138.317715 
L 321.810069 -158.127251 
L 323.441498 -157.539965 
L 325.072928 -137.771538 
L 326.704358 -198.080346 
L 328.335788 -145.628441 
L 329.967218 -166.476918 
L 331.598648 -132.050231 
L 333.230078 -136.805659 
L 334.861508 -116.424427 
L 336.492937 -100.952111 
L 338.124367 -146.646369 
L 339.755797 -162.692405 
L 341.387227 -136.405436 
L 343.018657 -137.135761 
L 344.650087 -165.199502 
L 346.281517 -151.836969 
L 347.912947 -159.576138 
L 349.544376 -158.519978 
L 351.175806 -212.646235 
L 352.807236 -179.644834 
L 354.438666 -161.976675 
L 356.070096 -109.824568 
L 357.701526 -139.05973 
L 359.332956 -152.622718 
L 360.964386 -145.478144 
L 362.595815 -96.743943 
L 364.227245 -130.007393 
L 365.858675 -138.170521 
L 367.490105 -93.689464 
L 369.121535 -132.161051 
L 370.752965 -173.66121 
L 372.384395 -138.929251 
L 374.015825 -131.527184 
L 375.647254 -125.107148 
L 377.278684 -149.792004 
L 378.910114 -167.428174 
L 380.541544 -127.725904 
L 382.172974 -178.994906 
L 383.804404 -162.35698 
L 385.435834 -190.691637 
L 387.067264 -158.105348 
L 388.698693 -179.72921 
L 390.330123 -134.677125 
L 391.961553 -100.247499 
L 393.592983 -76.376166 
L 395.224413 -163.211122 
L 396.855843 -135.297375 
L 398.487273 -124.612228 
L 398.487273 -256.877052 
L 398.487273 -256.877052 
L 396.855843 -228.841707 
L 395.224413 -238.064457 
L 393.592983 -233.715868 
L 391.961553 -216.801515 
L 390.330123 -292.032 
L 388.698693 -237.987915 
L 387.067264 -216.606641 
L 385.435834 -266.993062 
L 383.804404 -225.138217 
L 382.172974 -199.083579 
L 380.541544 -270.137906 
L 378.910114 -231.441655 
L 377.278684 -228.727446 
L 375.647254 -240.992794 
L 374.015825 -267.578165 
L 372.384395 -199.660562 
L 370.752965 -216.332274 
L 369.121535 -215.955827 
L 367.490105 -259.211045 
L 365.858675 -250.976742 
L 364.227245 -211.470633 
L 362.595815 -218.731669 
L 360.964386 -202.086993 
L 359.332956 -245.612337 
L 357.701526 -209.369571 
L 356.070096 -224.814434 
L 354.438666 -243.457738 
L 352.807236 -255.298187 
L 351.175806 -248.768304 
L 349.544376 -229.252177 
L 347.912947 -224.615694 
L 346.281517 -238.863844 
L 344.650087 -256.708293 
L 343.018657 -243.520255 
L 341.387227 -193.763284 
L 339.755797 -222.445433 
L 338.124367 -219.451417 
L 336.492937 -187.350912 
L 334.861508 -182.653467 
L 333.230078 -212.297542 
L 331.598648 -232.032617 
L 329.967218 -208.789636 
L 328.335788 -251.38178 
L 326.704358 -239.965317 
L 325.072928 -202.871916 
L 323.441498 -251.028198 
L 321.810069 -203.343239 
L 320.178639 -237.276669 
L 318.547209 -219.546755 
L 316.915779 -224.715558 
L 315.284349 -275.870348 
L 313.652919 -168.234234 
L 312.021489 -253.748476 
L 310.390059 -203.434464 
L 308.75863 -237.121307 
L 307.1272 -250.005589 
L 305.49577 -205.586783 
L 303.86434 -256.550824 
L 302.23291 -242.466476 
L 300.60148 -244.037601 
L 298.97005 -222.414372 
L 297.33862 -232.390063 
L 295.70719 -217.998005 
L 294.075761 -223.469398 
L 292.444331 -221.148233 
L 290.812901 -223.031616 
L 289.181471 -191.203686 
L 287.550041 -203.565582 
L 285.918611 -227.734537 
L 284.287181 -211.689005 
L 282.655751 -241.255079 
L 281.024322 -223.652774 
L 279.392892 -235.557746 
L 277.761462 -264.064734 
L 276.130032 -232.881157 
L 274.498602 -243.917064 
L 272.867172 -224.166822 
L 271.235742 -235.765849 
L 269.604312 -222.053982 
L 267.972883 -240.483817 
L 266.341453 -230.086179 
L 264.710023 -240.717396 
L 263.078593 -234.248777 
L 261.447163 -217.05076 
L 259.815733 -250.090933 
L 258.184303 -215.835716 
L 256.552873 -222.770547 
L 254.921444 -219.569718 
L 253.290014 -227.882428 
L 251.658584 -220.609502 
L 250.027154 -227.942135 
L 248.395724 -227.145865 
L 246.764294 -177.572191 
L 245.132864 -275.974803 
L 243.501434 -219.531546 
L 241.870005 -273.113453 
L 240.238575 -234.162588 
L 238.607145 -215.222386 
L 236.975715 -238.622495 
L 235.344285 -239.813924 
L 233.712855 -204.994403 
L 232.081425 -203.25083 
L 230.449995 -185.816998 
L 228.818566 -231.051073 
L 227.187136 -238.582934 
L 225.555706 -204.979409 
L 223.924276 -243.998519 
L 222.292846 -223.529152 
L 220.661416 -228.855076 
L 219.029986 -257.717036 
L 217.398556 -227.697118 
L 215.767127 -247.256954 
L 214.135697 -213.115723 
L 212.504267 -230.64934 
L 210.872837 -241.856499 
L 209.241407 -223.311027 
L 207.609977 -265.40412 
L 205.978547 -263.809991 
L 204.347117 -248.128759 
L 202.715688 -241.455364 
L 201.084258 -223.027846 
L 199.452828 -224.501721 
L 197.821398 -256.308211 
L 196.189968 -237.585723 
L 194.558538 -208.7172 
L 192.927108 -284.100173 
L 191.295678 -218.430872 
L 189.664249 -210.547998 
L 188.032819 -225.421955 
L 186.401389 -270.655324 
L 184.769959 -233.191185 
L 183.138529 -261.692557 
L 181.507099 -250.72762 
L 179.875669 -236.661255 
L 178.244239 -228.163582 
L 176.61281 -240.324471 
L 174.98138 -131.510413 
L 173.34995 -215.061082 
L 171.71852 -235.431596 
L 170.08709 -228.236691 
L 168.45566 -220.45196 
L 166.82423 -201.918783 
L 165.1928 -216.089839 
L 163.56137 -227.913445 
L 161.929941 -239.858381 
L 160.298511 -240.476801 
L 158.667081 -217.980552 
L 157.035651 -192.859188 
L 155.404221 -213.498444 
L 153.772791 -217.019181 
L 152.141361 -253.440288 
L 150.509931 -274.760532 
L 148.878502 -221.862622 
L 147.247072 -204.729247 
L 145.615642 -243.964646 
L 143.984212 -239.877727 
L 142.352782 -207.328266 
L 140.721352 -239.400823 
L 139.089922 -241.426356 
L 137.458492 -230.135154 
L 135.827063 -253.376325 
L 134.195633 -262.407171 
L 132.564203 -228.512918 
L 130.932773 -223.319835 
L 129.301343 -220.413418 
L 127.669913 -242.726477 
L 126.038483 -223.26605 
L 124.407053 -220.191928 
L 122.775624 -190.678057 
L 121.144194 -183.900567 
L 119.512764 -214.579872 
L 117.881334 -238.354914 
L 116.249904 -184.59439 
L 114.618474 -209.593308 
L 112.987044 -274.54565 
L 111.355614 -213.971001 
L 109.724185 -255.643027 
L 108.092755 -228.902944 
L 106.461325 -260.549107 
L 104.829895 -268.861471 
L 103.198465 -226.815241 
L 101.567035 -177.294162 
L 99.935605 -222.91852 
L 98.304175 -200.042107 
L 96.672746 -247.243787 
L 95.041316 -217.559012 
L 93.409886 -230.07918 
L 91.778456 -221.391182 
L 90.147026 -269.398961 
L 88.515596 -217.619204 
L 86.884166 -210.998099 
L 85.252736 -260.467556 
L 83.621307 -193.461643 
L 81.989877 -237.784363 
L 80.358447 -203.044501 
L 78.727017 -244.757267 
L 77.095587 -266.390652 
L 75.464157 -208.391106 
L 73.832727 -201.840168 
z
" style="stroke: #ffffff; stroke-opacity: 0.2"/>
    </defs>
    <g clip-path="url(#pc256400d12)">
     <use xlink:href="#mfbe011812e" x="0" y="345.6" style="fill: #1f77b4; fill-opacity: 0.2; stroke: #ffffff; stroke-opacity: 0.2"/>
    </g>
   </g>
   <g id="line2d_16">
    <path d="M 73.832727 172.868759 
L 75.464157 149.135506 
L 77.095587 137.360874 
L 78.727017 156.445934 
L 80.358447 169.03503 
L 81.989877 155.769802 
L 83.621307 180.612834 
L 85.252736 131.220668 
L 86.884166 161.559353 
L 88.515596 151.731882 
L 90.147026 138.314274 
L 91.778456 164.113613 
L 93.409886 138.861859 
L 95.041316 155.917637 
L 96.672746 168.396779 
L 98.304175 157.549309 
L 99.935605 160.303776 
L 101.567035 220.999159 
L 103.198465 153.594323 
L 104.829895 115.880057 
L 106.461325 116.099374 
L 108.092755 152.518381 
L 109.724185 151.085647 
L 111.355614 142.322872 
L 112.987044 120.116074 
L 114.618474 177.515109 
L 116.249904 177.304053 
L 117.881334 153.039969 
L 119.512764 184.796946 
L 121.144194 186.858399 
L 122.775624 179.884979 
L 124.407053 157.349072 
L 126.038483 167.159824 
L 127.669913 141.549359 
L 129.301343 166.057625 
L 130.932773 169.206122 
L 132.564203 142.176528 
L 134.195633 135.742807 
L 137.458492 167.67459 
L 139.089922 165.509278 
L 140.721352 135.225946 
L 142.352782 179.928891 
L 143.984212 126.481322 
L 145.615642 148.666 
L 147.247072 187.822414 
L 148.878502 153.186559 
L 150.509931 140.889311 
L 152.141361 114.192367 
L 153.772791 170.171239 
L 155.404221 172.355395 
L 157.035651 173.209058 
L 158.667081 149.542457 
L 160.298511 143.468687 
L 161.929941 153.584568 
L 163.56137 164.736591 
L 165.1928 184.185179 
L 166.82423 188.663485 
L 168.45566 181.768685 
L 170.08709 153.182841 
L 171.71852 164.100819 
L 173.34995 160.530309 
L 174.98138 233.366464 
L 176.61281 172.235067 
L 178.244239 152.320683 
L 179.875669 143.698777 
L 181.507099 144.282635 
L 183.138529 132.334181 
L 184.769959 178.508837 
L 186.401389 109.582366 
L 188.032819 138.614444 
L 189.664249 183.709721 
L 192.927108 114.716533 
L 194.558538 181.801401 
L 196.189968 162.214251 
L 197.821398 136.716203 
L 199.452828 158.536925 
L 201.084258 162.797119 
L 204.347117 135.292766 
L 205.978547 145.928518 
L 207.609977 146.542725 
L 209.241407 167.468746 
L 210.872837 150.864337 
L 212.504267 176.386567 
L 214.135697 176.30803 
L 215.767127 196.915523 
L 217.398556 148.194191 
L 219.029986 170.011392 
L 220.661416 147.950097 
L 222.292846 157.273384 
L 223.924276 158.377433 
L 225.555706 171.37228 
L 227.187136 148.683162 
L 228.818566 136.288916 
L 230.449995 187.494122 
L 232.081425 177.265046 
L 233.712855 171.139204 
L 235.344285 137.548154 
L 236.975715 143.460674 
L 238.607145 155.292755 
L 240.238575 145.713746 
L 241.870005 118.837653 
L 243.501434 172.36906 
L 245.132864 111.119992 
L 246.764294 202.371824 
L 248.395724 182.956395 
L 250.027154 146.793819 
L 251.658584 145.962769 
L 253.290014 173.030593 
L 254.921444 177.440545 
L 256.552873 168.060601 
L 258.184303 168.767551 
L 259.815733 143.282337 
L 261.447163 153.802867 
L 263.078593 138.959903 
L 264.710023 130.810382 
L 266.341453 163.769374 
L 267.972883 159.108805 
L 269.604312 165.860803 
L 271.235742 158.566769 
L 272.867172 163.638932 
L 274.498602 144.731717 
L 276.130032 147.826316 
L 277.761462 130.933459 
L 279.392892 176.752922 
L 281.024322 187.914596 
L 282.655751 143.205719 
L 284.287181 182.082663 
L 285.918611 171.242355 
L 287.550041 178.482983 
L 289.181471 215.084228 
L 290.812901 162.016036 
L 292.444331 151.578188 
L 294.075761 148.216445 
L 295.70719 162.327643 
L 297.33862 142.953051 
L 298.97005 181.838504 
L 300.60148 141.013417 
L 302.23291 163.692903 
L 303.86434 141.015409 
L 305.49577 180.286377 
L 307.1272 133.117611 
L 308.75863 149.224775 
L 310.390059 183.356061 
L 312.021489 144.234202 
L 313.652919 225.441803 
L 315.284349 108.533149 
L 316.915779 165.395797 
L 318.547209 173.251278 
L 320.178639 157.802808 
L 321.810069 164.864755 
L 323.441498 141.315919 
L 325.072928 175.278273 
L 326.704358 126.577168 
L 328.335788 147.09489 
L 329.967218 157.966723 
L 331.598648 163.558576 
L 333.230078 171.0484 
L 334.861508 196.061053 
L 336.492937 201.448488 
L 338.124367 162.551107 
L 339.755797 153.031081 
L 341.387227 180.51564 
L 343.018657 155.271992 
L 344.650087 134.646103 
L 346.281517 150.249594 
L 347.912947 153.504084 
L 349.544376 151.713923 
L 351.175806 114.892731 
L 352.807236 128.128489 
L 354.438666 142.882794 
L 356.070096 178.280499 
L 357.701526 171.385349 
L 359.332956 146.482473 
L 360.964386 171.817432 
L 362.595815 187.862194 
L 364.227245 174.860987 
L 365.858675 151.026368 
L 367.490105 169.149745 
L 369.121535 171.541561 
L 370.752965 150.603258 
L 372.384395 176.305094 
L 374.015825 146.047326 
L 375.647254 162.550029 
L 377.278684 156.340275 
L 378.910114 146.165086 
L 380.541544 146.668095 
L 382.172974 156.560758 
L 383.804404 151.852401 
L 385.435834 116.757651 
L 387.067264 158.244006 
L 388.698693 136.741437 
L 390.330123 132.245438 
L 391.961553 187.075493 
L 393.592983 190.553983 
L 395.224413 144.96221 
L 396.855843 163.530459 
L 398.487273 154.85536 
L 398.487273 154.85536 
" clip-path="url(#pc256400d12)" style="fill: none; stroke: #1f77b4; stroke-width: 1.5; stroke-linecap: round"/>
   </g>
   <g id="LineCollection_1">
    <path d="M 398.487273 295.488 
L 398.487273 53.568 
" clip-path="url(#pc256400d12)" style="fill: none; stroke-dasharray: 5.55,2.4; stroke-dashoffset: 0; stroke: #1f77b4; stroke-width: 1.5"/>
   </g>
   <g id="patch_3">
    <path d="M 57.6 307.584 
L 57.6 41.472 
" style="fill: none; stroke: #cccccc; stroke-width: 0.8; stroke-linejoin: miter; stroke-linecap: square"/>
   </g>
   <g id="patch_4">
    <path d="M 414.72 307.584 
L 414.72 41.472 
" style="fill: none; stroke: #cccccc; stroke-width: 0.8; stroke-linejoin: miter; stroke-linecap: square"/>
   </g>
   <g id="patch_5">
    <path d="M 57.6 307.584 
L 414.72 307.584 
" style="fill: none; stroke: #cccccc; stroke-width: 0.8; stroke-linejoin: miter; stroke-linecap: square"/>
   </g>
   <g id="patch_6">
    <path d="M 57.6 41.472 
L 414.72 41.472 
" style="fill: none; stroke: #cccccc; stroke-width: 0.8; stroke-linejoin: miter; stroke-linecap: square"/>
   </g>
   <g id="text_18">
    <!-- Model performance vs. # of iterations -->
    <g style="fill: #262626" transform="translate(122.314688 35.472)scale(0.12 -0.12)">
     <defs>
      <path id="DejaVuSans-4d" d="M 628 4666 
L 1569 4666 
L 2759 1491 
L 3956 4666 
L 4897 4666 
L 4897 0 
L 4281 0 
L 4281 4097 
L 3078 897 
L 2444 897 
L 1241 4097 
L 1241 0 
L 628 0 
L 628 4666 
z
" transform="scale(0.015625)"/>
      <path id="DejaVuSans-64" d="M 2906 2969 
L 2906 4863 
L 3481 4863 
L 3481 0 
L 2906 0 
L 2906 525 
Q 2725 213 2448 61 
Q 2172 -91 1784 -91 
Q 1150 -91 751 415 
Q 353 922 353 1747 
Q 353 2572 751 3078 
Q 1150 3584 1784 3584 
Q 2172 3584 2448 3432 
Q 2725 3281 2906 2969 
z
M 947 1747 
Q 947 1113 1208 752 
Q 1469 391 1925 391 
Q 2381 391 2643 752 
Q 2906 1113 2906 1747 
Q 2906 2381 2643 2742 
Q 2381 3103 1925 3103 
Q 1469 3103 1208 2742 
Q 947 2381 947 1747 
z
" transform="scale(0.015625)"/>
      <path id="DejaVuSans-6c" d="M 603 4863 
L 1178 4863 
L 1178 0 
L 603 0 
L 603 4863 
z
" transform="scale(0.015625)"/>
      <path id="DejaVuSans-20" transform="scale(0.015625)"/>
      <path id="DejaVuSans-70" d="M 1159 525 
L 1159 -1331 
L 581 -1331 
L 581 3500 
L 1159 3500 
L 1159 2969 
Q 1341 3281 1617 3432 
Q 1894 3584 2278 3584 
Q 2916 3584 3314 3078 
Q 3713 2572 3713 1747 
Q 3713 922 3314 415 
Q 2916 -91 2278 -91 
Q 1894 -91 1617 61 
Q 1341 213 1159 525 
z
M 3116 1747 
Q 3116 2381 2855 2742 
Q 2594 3103 2138 3103 
Q 1681 3103 1420 2742 
Q 1159 2381 1159 1747 
Q 1159 1113 1420 752 
Q 1681 391 2138 391 
Q 2594 391 2855 752 
Q 3116 1113 3116 1747 
z
" transform="scale(0.015625)"/>
      <path id="DejaVuSans-66" d="M 2375 4863 
L 2375 4384 
L 1825 4384 
Q 1516 4384 1395 4259 
Q 1275 4134 1275 3809 
L 1275 3500 
L 2222 3500 
L 2222 3053 
L 1275 3053 
L 1275 0 
L 697 0 
L 697 3053 
L 147 3053 
L 147 3500 
L 697 3500 
L 697 3744 
Q 697 4328 969 4595 
Q 1241 4863 1831 4863 
L 2375 4863 
z
" transform="scale(0.015625)"/>
      <path id="DejaVuSans-6d" d="M 3328 2828 
Q 3544 3216 3844 3400 
Q 4144 3584 4550 3584 
Q 5097 3584 5394 3201 
Q 5691 2819 5691 2113 
L 5691 0 
L 5113 0 
L 5113 2094 
Q 5113 2597 4934 2840 
Q 4756 3084 4391 3084 
Q 3944 3084 3684 2787 
Q 3425 2491 3425 1978 
L 3425 0 
L 2847 0 
L 2847 2094 
Q 2847 2600 2669 2842 
Q 2491 3084 2119 3084 
Q 1678 3084 1418 2786 
Q 1159 2488 1159 1978 
L 1159 0 
L 581 0 
L 581 3500 
L 1159 3500 
L 1159 2956 
Q 1356 3278 1631 3431 
Q 1906 3584 2284 3584 
Q 2666 3584 2933 3390 
Q 3200 3197 3328 2828 
z
" transform="scale(0.015625)"/>
      <path id="DejaVuSans-76" d="M 191 3500 
L 800 3500 
L 1894 563 
L 2988 3500 
L 3597 3500 
L 2284 0 
L 1503 0 
L 191 3500 
z
" transform="scale(0.015625)"/>
      <path id="DejaVuSans-73" d="M 2834 3397 
L 2834 2853 
Q 2591 2978 2328 3040 
Q 2066 3103 1784 3103 
Q 1356 3103 1142 2972 
Q 928 2841 928 2578 
Q 928 2378 1081 2264 
Q 1234 2150 1697 2047 
L 1894 2003 
Q 2506 1872 2764 1633 
Q 3022 1394 3022 966 
Q 3022 478 2636 193 
Q 2250 -91 1575 -91 
Q 1294 -91 989 -36 
Q 684 19 347 128 
L 347 722 
Q 666 556 975 473 
Q 1284 391 1588 391 
Q 1994 391 2212 530 
Q 2431 669 2431 922 
Q 2431 1156 2273 1281 
Q 2116 1406 1581 1522 
L 1381 1569 
Q 847 1681 609 1914 
Q 372 2147 372 2553 
Q 372 3047 722 3315 
Q 1072 3584 1716 3584 
Q 2034 3584 2315 3537 
Q 2597 3491 2834 3397 
z
" transform="scale(0.015625)"/>
      <path id="DejaVuSans-23" d="M 3272 2816 
L 2363 2816 
L 2100 1772 
L 3016 1772 
L 3272 2816 
z
M 2803 4594 
L 2478 3297 
L 3391 3297 
L 3719 4594 
L 4219 4594 
L 3897 3297 
L 4872 3297 
L 4872 2816 
L 3775 2816 
L 3519 1772 
L 4513 1772 
L 4513 1294 
L 3397 1294 
L 3072 0 
L 2572 0 
L 2894 1294 
L 1978 1294 
L 1656 0 
L 1153 0 
L 1478 1294 
L 494 1294 
L 494 1772 
L 1594 1772 
L 1856 2816 
L 850 2816 
L 850 3297 
L 1978 3297 
L 2297 4594 
L 2803 4594 
z
" transform="scale(0.015625)"/>
     </defs>
     <use xlink:href="#DejaVuSans-4d"/>
     <use xlink:href="#DejaVuSans-6f" x="86.279297"/>
     <use xlink:href="#DejaVuSans-64" x="147.460938"/>
     <use xlink:href="#DejaVuSans-65" x="210.9375"/>
     <use xlink:href="#DejaVuSans-6c" x="272.460938"/>
     <use xlink:href="#DejaVuSans-20" x="300.244141"/>
     <use xlink:href="#DejaVuSans-70" x="332.03125"/>
     <use xlink:href="#DejaVuSans-65" x="395.507812"/>
     <use xlink:href="#DejaVuSans-72" x="457.03125"/>
     <use xlink:href="#DejaVuSans-66" x="498.144531"/>
     <use xlink:href="#DejaVuSans-6f" x="533.349609"/>
     <use xlink:href="#DejaVuSans-72" x="594.53125"/>
     <use xlink:href="#DejaVuSans-6d" x="633.894531"/>
     <use xlink:href="#DejaVuSans-61" x="731.306641"/>
     <use xlink:href="#DejaVuSans-6e" x="792.585938"/>
     <use xlink:href="#DejaVuSans-63" x="855.964844"/>
     <use xlink:href="#DejaVuSans-65" x="910.945312"/>
     <use xlink:href="#DejaVuSans-20" x="972.46875"/>
     <use xlink:href="#DejaVuSans-76" x="1004.255859"/>
     <use xlink:href="#DejaVuSans-73" x="1063.435547"/>
     <use xlink:href="#DejaVuSans-2e" x="1115.535156"/>
     <use xlink:href="#DejaVuSans-20" x="1147.322266"/>
     <use xlink:href="#DejaVuSans-23" x="1179.109375"/>
     <use xlink:href="#DejaVuSans-20" x="1262.898438"/>
     <use xlink:href="#DejaVuSans-6f" x="1294.685547"/>
     <use xlink:href="#DejaVuSans-66" x="1355.867188"/>
     <use xlink:href="#DejaVuSans-20" x="1391.072266"/>
     <use xlink:href="#DejaVuSans-69" x="1422.859375"/>
     <use xlink:href="#DejaVuSans-74" x="1450.642578"/>
     <use xlink:href="#DejaVuSans-65" x="1489.851562"/>
     <use xlink:href="#DejaVuSans-72" x="1551.375"/>
     <use xlink:href="#DejaVuSans-61" x="1592.488281"/>
     <use xlink:href="#DejaVuSans-74" x="1653.767578"/>
     <use xlink:href="#DejaVuSans-69" x="1692.976562"/>
     <use xlink:href="#DejaVuSans-6f" x="1720.759766"/>
     <use xlink:href="#DejaVuSans-6e" x="1781.941406"/>
     <use xlink:href="#DejaVuSans-73" x="1845.320312"/>
    </g>
   </g>
  </g>
 </g>
 <defs>
  <clipPath id="pc256400d12">
   <rect x="57.6" y="41.472" width="357.12" height="266.112"/>
  </clipPath>
 </defs>
</svg>
