<?xml version="1.0" encoding="utf-8" standalone="no"?>
<!DOCTYPE svg PUBLIC "-//W3C//DTD SVG 1.1//EN"
  "http://www.w3.org/Graphics/SVG/1.1/DTD/svg11.dtd">
<svg xmlns:xlink="http://www.w3.org/1999/xlink" width="460.8pt" height="345.6pt" viewBox="0 0 460.8 345.6" xmlns="http://www.w3.org/2000/svg" version="1.1">
 <metadata>
  <rdf:RDF xmlns:dc="http://purl.org/dc/elements/1.1/" xmlns:cc="http://creativecommons.org/ns#" xmlns:rdf="http://www.w3.org/1999/02/22-rdf-syntax-ns#">
   <cc:Work>
    <dc:type rdf:resource="http://purl.org/dc/dcmitype/StillImage"/>
    <dc:date>2022-05-31T08:10:42.352527</dc:date>
    <dc:format>image/svg+xml</dc:format>
    <dc:creator>
     <cc:Agent>
      <dc:title>Matplotlib v3.5.2, https://matplotlib.org/</dc:title>
     </cc:Agent>
    </dc:creator>
   </cc:Work>
  </rdf:RDF>
 </metadata>
 <defs>
  <style type="text/css">*{stroke-linejoin: round; stroke-linecap: butt}</style>
 </defs>
 <g id="figure_1">
  <g id="patch_1">
   <path d="M 0 345.6 
L 460.8 345.6 
L 460.8 0 
L 0 0 
z
" style="fill: #ffffff"/>
  </g>
  <g id="axes_1">
   <g id="patch_2">
    <path d="M 57.6 307.584 
L 414.72 307.584 
L 414.72 41.472 
L 57.6 41.472 
z
" style="fill: #ffffff"/>
   </g>
   <g id="matplotlib.axis_1">
    <g id="xtick_1">
     <g id="line2d_1">
      <path d="M 72.201297 307.584 
L 72.201297 41.472 
" clip-path="url(#p6f0ffcb50a)" style="fill: none; stroke: #cccccc; stroke-width: 0.8; stroke-linecap: round"/>
     </g>
     <g id="text_1">
      <!-- 0 -->
      <g style="fill: #262626" transform="translate(69.020047 322.182437)scale(0.1 -0.1)">
       <defs>
        <path id="DejaVuSans-30" d="M 2034 4250 
Q 1547 4250 1301 3770 
Q 1056 3291 1056 2328 
Q 1056 1369 1301 889 
Q 1547 409 2034 409 
Q 2525 409 2770 889 
Q 3016 1369 3016 2328 
Q 3016 3291 2770 3770 
Q 2525 4250 2034 4250 
z
M 2034 4750 
Q 2819 4750 3233 4129 
Q 3647 3509 3647 2328 
Q 3647 1150 3233 529 
Q 2819 -91 2034 -91 
Q 1250 -91 836 529 
Q 422 1150 422 2328 
Q 422 3509 836 4129 
Q 1250 4750 2034 4750 
z
" transform="scale(0.015625)"/>
       </defs>
       <use xlink:href="#DejaVuSans-30"/>
      </g>
     </g>
    </g>
    <g id="xtick_2">
     <g id="line2d_2">
      <path d="M 112.987044 307.584 
L 112.987044 41.472 
" clip-path="url(#p6f0ffcb50a)" style="fill: none; stroke: #cccccc; stroke-width: 0.8; stroke-linecap: round"/>
     </g>
     <g id="text_2">
      <!-- 25 -->
      <g style="fill: #262626" transform="translate(106.624544 322.182437)scale(0.1 -0.1)">
       <defs>
        <path id="DejaVuSans-32" d="M 1228 531 
L 3431 531 
L 3431 0 
L 469 0 
L 469 531 
Q 828 903 1448 1529 
Q 2069 2156 2228 2338 
Q 2531 2678 2651 2914 
Q 2772 3150 2772 3378 
Q 2772 3750 2511 3984 
Q 2250 4219 1831 4219 
Q 1534 4219 1204 4116 
Q 875 4013 500 3803 
L 500 4441 
Q 881 4594 1212 4672 
Q 1544 4750 1819 4750 
Q 2544 4750 2975 4387 
Q 3406 4025 3406 3419 
Q 3406 3131 3298 2873 
Q 3191 2616 2906 2266 
Q 2828 2175 2409 1742 
Q 1991 1309 1228 531 
z
" transform="scale(0.015625)"/>
        <path id="DejaVuSans-35" d="M 691 4666 
L 3169 4666 
L 3169 4134 
L 1269 4134 
L 1269 2991 
Q 1406 3038 1543 3061 
Q 1681 3084 1819 3084 
Q 2600 3084 3056 2656 
Q 3513 2228 3513 1497 
Q 3513 744 3044 326 
Q 2575 -91 1722 -91 
Q 1428 -91 1123 -41 
Q 819 9 494 109 
L 494 744 
Q 775 591 1075 516 
Q 1375 441 1709 441 
Q 2250 441 2565 725 
Q 2881 1009 2881 1497 
Q 2881 1984 2565 2268 
Q 2250 2553 1709 2553 
Q 1456 2553 1204 2497 
Q 953 2441 691 2322 
L 691 4666 
z
" transform="scale(0.015625)"/>
       </defs>
       <use xlink:href="#DejaVuSans-32"/>
       <use xlink:href="#DejaVuSans-35" x="63.623047"/>
      </g>
     </g>
    </g>
    <g id="xtick_3">
     <g id="line2d_3">
      <path d="M 153.772791 307.584 
L 153.772791 41.472 
" clip-path="url(#p6f0ffcb50a)" style="fill: none; stroke: #cccccc; stroke-width: 0.8; stroke-linecap: round"/>
     </g>
     <g id="text_3">
      <!-- 50 -->
      <g style="fill: #262626" transform="translate(147.410291 322.182437)scale(0.1 -0.1)">
       <use xlink:href="#DejaVuSans-35"/>
       <use xlink:href="#DejaVuSans-30" x="63.623047"/>
      </g>
     </g>
    </g>
    <g id="xtick_4">
     <g id="line2d_4">
      <path d="M 194.558538 307.584 
L 194.558538 41.472 
" clip-path="url(#p6f0ffcb50a)" style="fill: none; stroke: #cccccc; stroke-width: 0.8; stroke-linecap: round"/>
     </g>
     <g id="text_4">
      <!-- 75 -->
      <g style="fill: #262626" transform="translate(188.196038 322.182437)scale(0.1 -0.1)">
       <defs>
        <path id="DejaVuSans-37" d="M 525 4666 
L 3525 4666 
L 3525 4397 
L 1831 0 
L 1172 0 
L 2766 4134 
L 525 4134 
L 525 4666 
z
" transform="scale(0.015625)"/>
       </defs>
       <use xlink:href="#DejaVuSans-37"/>
       <use xlink:href="#DejaVuSans-35" x="63.623047"/>
      </g>
     </g>
    </g>
    <g id="xtick_5">
     <g id="line2d_5">
      <path d="M 235.344285 307.584 
L 235.344285 41.472 
" clip-path="url(#p6f0ffcb50a)" style="fill: none; stroke: #cccccc; stroke-width: 0.8; stroke-linecap: round"/>
     </g>
     <g id="text_5">
      <!-- 100 -->
      <g style="fill: #262626" transform="translate(225.800535 322.182437)scale(0.1 -0.1)">
       <defs>
        <path id="DejaVuSans-31" d="M 794 531 
L 1825 531 
L 1825 4091 
L 703 3866 
L 703 4441 
L 1819 4666 
L 2450 4666 
L 2450 531 
L 3481 531 
L 3481 0 
L 794 0 
L 794 531 
z
" transform="scale(0.015625)"/>
       </defs>
       <use xlink:href="#DejaVuSans-31"/>
       <use xlink:href="#DejaVuSans-30" x="63.623047"/>
       <use xlink:href="#DejaVuSans-30" x="127.246094"/>
      </g>
     </g>
    </g>
    <g id="xtick_6">
     <g id="line2d_6">
      <path d="M 276.130032 307.584 
L 276.130032 41.472 
" clip-path="url(#p6f0ffcb50a)" style="fill: none; stroke: #cccccc; stroke-width: 0.8; stroke-linecap: round"/>
     </g>
     <g id="text_6">
      <!-- 125 -->
      <g style="fill: #262626" transform="translate(266.586282 322.182437)scale(0.1 -0.1)">
       <use xlink:href="#DejaVuSans-31"/>
       <use xlink:href="#DejaVuSans-32" x="63.623047"/>
       <use xlink:href="#DejaVuSans-35" x="127.246094"/>
      </g>
     </g>
    </g>
    <g id="xtick_7">
     <g id="line2d_7">
      <path d="M 316.915779 307.584 
L 316.915779 41.472 
" clip-path="url(#p6f0ffcb50a)" style="fill: none; stroke: #cccccc; stroke-width: 0.8; stroke-linecap: round"/>
     </g>
     <g id="text_7">
      <!-- 150 -->
      <g style="fill: #262626" transform="translate(307.372029 322.182437)scale(0.1 -0.1)">
       <use xlink:href="#DejaVuSans-31"/>
       <use xlink:href="#DejaVuSans-35" x="63.623047"/>
       <use xlink:href="#DejaVuSans-30" x="127.246094"/>
      </g>
     </g>
    </g>
    <g id="xtick_8">
     <g id="line2d_8">
      <path d="M 357.701526 307.584 
L 357.701526 41.472 
" clip-path="url(#p6f0ffcb50a)" style="fill: none; stroke: #cccccc; stroke-width: 0.8; stroke-linecap: round"/>
     </g>
     <g id="text_8">
      <!-- 175 -->
      <g style="fill: #262626" transform="translate(348.157776 322.182437)scale(0.1 -0.1)">
       <use xlink:href="#DejaVuSans-31"/>
       <use xlink:href="#DejaVuSans-37" x="63.623047"/>
       <use xlink:href="#DejaVuSans-35" x="127.246094"/>
      </g>
     </g>
    </g>
    <g id="xtick_9">
     <g id="line2d_9">
      <path d="M 398.487273 307.584 
L 398.487273 41.472 
" clip-path="url(#p6f0ffcb50a)" style="fill: none; stroke: #cccccc; stroke-width: 0.8; stroke-linecap: round"/>
     </g>
     <g id="text_9">
      <!-- 200 -->
      <g style="fill: #262626" transform="translate(388.943523 322.182437)scale(0.1 -0.1)">
       <use xlink:href="#DejaVuSans-32"/>
       <use xlink:href="#DejaVuSans-30" x="63.623047"/>
       <use xlink:href="#DejaVuSans-30" x="127.246094"/>
      </g>
     </g>
    </g>
    <g id="text_10">
     <!-- Iteration -->
     <g style="fill: #262626" transform="translate(214.951406 335.860562)scale(0.1 -0.1)">
      <defs>
       <path id="DejaVuSans-49" d="M 628 4666 
L 1259 4666 
L 1259 0 
L 628 0 
L 628 4666 
z
" transform="scale(0.015625)"/>
       <path id="DejaVuSans-74" d="M 1172 4494 
L 1172 3500 
L 2356 3500 
L 2356 3053 
L 1172 3053 
L 1172 1153 
Q 1172 725 1289 603 
Q 1406 481 1766 481 
L 2356 481 
L 2356 0 
L 1766 0 
Q 1100 0 847 248 
Q 594 497 594 1153 
L 594 3053 
L 172 3053 
L 172 3500 
L 594 3500 
L 594 4494 
L 1172 4494 
z
" transform="scale(0.015625)"/>
       <path id="DejaVuSans-65" d="M 3597 1894 
L 3597 1613 
L 953 1613 
Q 991 1019 1311 708 
Q 1631 397 2203 397 
Q 2534 397 2845 478 
Q 3156 559 3463 722 
L 3463 178 
Q 3153 47 2828 -22 
Q 2503 -91 2169 -91 
Q 1331 -91 842 396 
Q 353 884 353 1716 
Q 353 2575 817 3079 
Q 1281 3584 2069 3584 
Q 2775 3584 3186 3129 
Q 3597 2675 3597 1894 
z
M 3022 2063 
Q 3016 2534 2758 2815 
Q 2500 3097 2075 3097 
Q 1594 3097 1305 2825 
Q 1016 2553 972 2059 
L 3022 2063 
z
" transform="scale(0.015625)"/>
       <path id="DejaVuSans-72" d="M 2631 2963 
Q 2534 3019 2420 3045 
Q 2306 3072 2169 3072 
Q 1681 3072 1420 2755 
Q 1159 2438 1159 1844 
L 1159 0 
L 581 0 
L 581 3500 
L 1159 3500 
L 1159 2956 
Q 1341 3275 1631 3429 
Q 1922 3584 2338 3584 
Q 2397 3584 2469 3576 
Q 2541 3569 2628 3553 
L 2631 2963 
z
" transform="scale(0.015625)"/>
       <path id="DejaVuSans-61" d="M 2194 1759 
Q 1497 1759 1228 1600 
Q 959 1441 959 1056 
Q 959 750 1161 570 
Q 1363 391 1709 391 
Q 2188 391 2477 730 
Q 2766 1069 2766 1631 
L 2766 1759 
L 2194 1759 
z
M 3341 1997 
L 3341 0 
L 2766 0 
L 2766 531 
Q 2569 213 2275 61 
Q 1981 -91 1556 -91 
Q 1019 -91 701 211 
Q 384 513 384 1019 
Q 384 1609 779 1909 
Q 1175 2209 1959 2209 
L 2766 2209 
L 2766 2266 
Q 2766 2663 2505 2880 
Q 2244 3097 1772 3097 
Q 1472 3097 1187 3025 
Q 903 2953 641 2809 
L 641 3341 
Q 956 3463 1253 3523 
Q 1550 3584 1831 3584 
Q 2591 3584 2966 3190 
Q 3341 2797 3341 1997 
z
" transform="scale(0.015625)"/>
       <path id="DejaVuSans-69" d="M 603 3500 
L 1178 3500 
L 1178 0 
L 603 0 
L 603 3500 
z
M 603 4863 
L 1178 4863 
L 1178 4134 
L 603 4134 
L 603 4863 
z
" transform="scale(0.015625)"/>
       <path id="DejaVuSans-6f" d="M 1959 3097 
Q 1497 3097 1228 2736 
Q 959 2375 959 1747 
Q 959 1119 1226 758 
Q 1494 397 1959 397 
Q 2419 397 2687 759 
Q 2956 1122 2956 1747 
Q 2956 2369 2687 2733 
Q 2419 3097 1959 3097 
z
M 1959 3584 
Q 2709 3584 3137 3096 
Q 3566 2609 3566 1747 
Q 3566 888 3137 398 
Q 2709 -91 1959 -91 
Q 1206 -91 779 398 
Q 353 888 353 1747 
Q 353 2609 779 3096 
Q 1206 3584 1959 3584 
z
" transform="scale(0.015625)"/>
       <path id="DejaVuSans-6e" d="M 3513 2113 
L 3513 0 
L 2938 0 
L 2938 2094 
Q 2938 2591 2744 2837 
Q 2550 3084 2163 3084 
Q 1697 3084 1428 2787 
Q 1159 2491 1159 1978 
L 1159 0 
L 581 0 
L 581 3500 
L 1159 3500 
L 1159 2956 
Q 1366 3272 1645 3428 
Q 1925 3584 2291 3584 
Q 2894 3584 3203 3211 
Q 3513 2838 3513 2113 
z
" transform="scale(0.015625)"/>
      </defs>
      <use xlink:href="#DejaVuSans-49"/>
      <use xlink:href="#DejaVuSans-74" x="29.492188"/>
      <use xlink:href="#DejaVuSans-65" x="68.701172"/>
      <use xlink:href="#DejaVuSans-72" x="130.224609"/>
      <use xlink:href="#DejaVuSans-61" x="171.337891"/>
      <use xlink:href="#DejaVuSans-74" x="232.617188"/>
      <use xlink:href="#DejaVuSans-69" x="271.826172"/>
      <use xlink:href="#DejaVuSans-6f" x="299.609375"/>
      <use xlink:href="#DejaVuSans-6e" x="360.791016"/>
     </g>
    </g>
   </g>
   <g id="matplotlib.axis_2">
    <g id="ytick_1">
     <g id="line2d_10">
      <path d="M 57.6 289.333952 
L 414.72 289.333952 
" clip-path="url(#p6f0ffcb50a)" style="fill: none; stroke: #cccccc; stroke-width: 0.8; stroke-linecap: round"/>
     </g>
     <g id="text_11">
      <!-- 0.45 -->
      <g style="fill: #262626" transform="translate(28.334375 293.133171)scale(0.1 -0.1)">
       <defs>
        <path id="DejaVuSans-2e" d="M 684 794 
L 1344 794 
L 1344 0 
L 684 0 
L 684 794 
z
" transform="scale(0.015625)"/>
        <path id="DejaVuSans-34" d="M 2419 4116 
L 825 1625 
L 2419 1625 
L 2419 4116 
z
M 2253 4666 
L 3047 4666 
L 3047 1625 
L 3713 1625 
L 3713 1100 
L 3047 1100 
L 3047 0 
L 2419 0 
L 2419 1100 
L 313 1100 
L 313 1709 
L 2253 4666 
z
" transform="scale(0.015625)"/>
       </defs>
       <use xlink:href="#DejaVuSans-30"/>
       <use xlink:href="#DejaVuSans-2e" x="63.623047"/>
       <use xlink:href="#DejaVuSans-34" x="95.410156"/>
       <use xlink:href="#DejaVuSans-35" x="159.033203"/>
      </g>
     </g>
    </g>
    <g id="ytick_2">
     <g id="line2d_11">
      <path d="M 57.6 241.181802 
L 414.72 241.181802 
" clip-path="url(#p6f0ffcb50a)" style="fill: none; stroke: #cccccc; stroke-width: 0.8; stroke-linecap: round"/>
     </g>
     <g id="text_12">
      <!-- 0.50 -->
      <g style="fill: #262626" transform="translate(28.334375 244.98102)scale(0.1 -0.1)">
       <use xlink:href="#DejaVuSans-30"/>
       <use xlink:href="#DejaVuSans-2e" x="63.623047"/>
       <use xlink:href="#DejaVuSans-35" x="95.410156"/>
       <use xlink:href="#DejaVuSans-30" x="159.033203"/>
      </g>
     </g>
    </g>
    <g id="ytick_3">
     <g id="line2d_12">
      <path d="M 57.6 193.029651 
L 414.72 193.029651 
" clip-path="url(#p6f0ffcb50a)" style="fill: none; stroke: #cccccc; stroke-width: 0.8; stroke-linecap: round"/>
     </g>
     <g id="text_13">
      <!-- 0.55 -->
      <g style="fill: #262626" transform="translate(28.334375 196.82887)scale(0.1 -0.1)">
       <use xlink:href="#DejaVuSans-30"/>
       <use xlink:href="#DejaVuSans-2e" x="63.623047"/>
       <use xlink:href="#DejaVuSans-35" x="95.410156"/>
       <use xlink:href="#DejaVuSans-35" x="159.033203"/>
      </g>
     </g>
    </g>
    <g id="ytick_4">
     <g id="line2d_13">
      <path d="M 57.6 144.877501 
L 414.72 144.877501 
" clip-path="url(#p6f0ffcb50a)" style="fill: none; stroke: #cccccc; stroke-width: 0.8; stroke-linecap: round"/>
     </g>
     <g id="text_14">
      <!-- 0.60 -->
      <g style="fill: #262626" transform="translate(28.334375 148.676719)scale(0.1 -0.1)">
       <defs>
        <path id="DejaVuSans-36" d="M 2113 2584 
Q 1688 2584 1439 2293 
Q 1191 2003 1191 1497 
Q 1191 994 1439 701 
Q 1688 409 2113 409 
Q 2538 409 2786 701 
Q 3034 994 3034 1497 
Q 3034 2003 2786 2293 
Q 2538 2584 2113 2584 
z
M 3366 4563 
L 3366 3988 
Q 3128 4100 2886 4159 
Q 2644 4219 2406 4219 
Q 1781 4219 1451 3797 
Q 1122 3375 1075 2522 
Q 1259 2794 1537 2939 
Q 1816 3084 2150 3084 
Q 2853 3084 3261 2657 
Q 3669 2231 3669 1497 
Q 3669 778 3244 343 
Q 2819 -91 2113 -91 
Q 1303 -91 875 529 
Q 447 1150 447 2328 
Q 447 3434 972 4092 
Q 1497 4750 2381 4750 
Q 2619 4750 2861 4703 
Q 3103 4656 3366 4563 
z
" transform="scale(0.015625)"/>
       </defs>
       <use xlink:href="#DejaVuSans-30"/>
       <use xlink:href="#DejaVuSans-2e" x="63.623047"/>
       <use xlink:href="#DejaVuSans-36" x="95.410156"/>
       <use xlink:href="#DejaVuSans-30" x="159.033203"/>
      </g>
     </g>
    </g>
    <g id="ytick_5">
     <g id="line2d_14">
      <path d="M 57.6 96.72535 
L 414.72 96.72535 
" clip-path="url(#p6f0ffcb50a)" style="fill: none; stroke: #cccccc; stroke-width: 0.8; stroke-linecap: round"/>
     </g>
     <g id="text_15">
      <!-- 0.65 -->
      <g style="fill: #262626" transform="translate(28.334375 100.524569)scale(0.1 -0.1)">
       <use xlink:href="#DejaVuSans-30"/>
       <use xlink:href="#DejaVuSans-2e" x="63.623047"/>
       <use xlink:href="#DejaVuSans-36" x="95.410156"/>
       <use xlink:href="#DejaVuSans-35" x="159.033203"/>
      </g>
     </g>
    </g>
    <g id="ytick_6">
     <g id="line2d_15">
      <path d="M 57.6 48.5732 
L 414.72 48.5732 
" clip-path="url(#p6f0ffcb50a)" style="fill: none; stroke: #cccccc; stroke-width: 0.8; stroke-linecap: round"/>
     </g>
     <g id="text_16">
      <!-- 0.70 -->
      <g style="fill: #262626" transform="translate(28.334375 52.372419)scale(0.1 -0.1)">
       <use xlink:href="#DejaVuSans-30"/>
       <use xlink:href="#DejaVuSans-2e" x="63.623047"/>
       <use xlink:href="#DejaVuSans-37" x="95.410156"/>
       <use xlink:href="#DejaVuSans-30" x="159.033203"/>
      </g>
     </g>
    </g>
    <g id="text_17">
     <!-- Auroc -->
     <g style="fill: #262626" transform="translate(22.254688 188.868625)rotate(-90)scale(0.1 -0.1)">
      <defs>
       <path id="DejaVuSans-41" d="M 2188 4044 
L 1331 1722 
L 3047 1722 
L 2188 4044 
z
M 1831 4666 
L 2547 4666 
L 4325 0 
L 3669 0 
L 3244 1197 
L 1141 1197 
L 716 0 
L 50 0 
L 1831 4666 
z
" transform="scale(0.015625)"/>
       <path id="DejaVuSans-75" d="M 544 1381 
L 544 3500 
L 1119 3500 
L 1119 1403 
Q 1119 906 1312 657 
Q 1506 409 1894 409 
Q 2359 409 2629 706 
Q 2900 1003 2900 1516 
L 2900 3500 
L 3475 3500 
L 3475 0 
L 2900 0 
L 2900 538 
Q 2691 219 2414 64 
Q 2138 -91 1772 -91 
Q 1169 -91 856 284 
Q 544 659 544 1381 
z
M 1991 3584 
L 1991 3584 
z
" transform="scale(0.015625)"/>
       <path id="DejaVuSans-63" d="M 3122 3366 
L 3122 2828 
Q 2878 2963 2633 3030 
Q 2388 3097 2138 3097 
Q 1578 3097 1268 2742 
Q 959 2388 959 1747 
Q 959 1106 1268 751 
Q 1578 397 2138 397 
Q 2388 397 2633 464 
Q 2878 531 3122 666 
L 3122 134 
Q 2881 22 2623 -34 
Q 2366 -91 2075 -91 
Q 1284 -91 818 406 
Q 353 903 353 1747 
Q 353 2603 823 3093 
Q 1294 3584 2113 3584 
Q 2378 3584 2631 3529 
Q 2884 3475 3122 3366 
z
" transform="scale(0.015625)"/>
      </defs>
      <use xlink:href="#DejaVuSans-41"/>
      <use xlink:href="#DejaVuSans-75" x="68.408203"/>
      <use xlink:href="#DejaVuSans-72" x="131.787109"/>
      <use xlink:href="#DejaVuSans-6f" x="170.650391"/>
      <use xlink:href="#DejaVuSans-63" x="231.832031"/>
     </g>
    </g>
   </g>
   <g id="PolyCollection_1">
    <defs>
     <path id="m1cf9523efe" d="M 73.832727 -200.81056 
L 73.832727 -91.567988 
L 75.464157 -86.034223 
L 77.095587 -100.336268 
L 78.727017 -76.824306 
L 80.358447 -102.846602 
L 81.989877 -116.013762 
L 83.621307 -97.268106 
L 85.252736 -138.255366 
L 86.884166 -157.247278 
L 88.515596 -129.046842 
L 90.147026 -73.562671 
L 91.778456 -101.776357 
L 93.409886 -121.552599 
L 95.041316 -129.774974 
L 96.672746 -118.001192 
L 98.304175 -90.35142 
L 99.935605 -82.122034 
L 101.567035 -108.768711 
L 103.198465 -100.988413 
L 104.829895 -153.572478 
L 106.461325 -61.822935 
L 108.092755 -123.510909 
L 109.724185 -125.057059 
L 111.355614 -122.267926 
L 112.987044 -118.272059 
L 114.618474 -128.251495 
L 116.249904 -139.63196 
L 117.881334 -134.740982 
L 119.512764 -78.313178 
L 121.144194 -130.552991 
L 122.775624 -113.028593 
L 124.407053 -90.857788 
L 126.038483 -122.154286 
L 127.669913 -148.461551 
L 129.301343 -100.94758 
L 130.932773 -119.275509 
L 132.564203 -139.129828 
L 134.195633 -84.600035 
L 135.827063 -143.337933 
L 137.458492 -112.746562 
L 139.089922 -128.376462 
L 140.721352 -159.567149 
L 142.352782 -65.663907 
L 143.984212 -116.016087 
L 145.615642 -72.467368 
L 147.247072 -112.040104 
L 148.878502 -120.288003 
L 150.509931 -125.628333 
L 152.141361 -113.200237 
L 153.772791 -111.34879 
L 155.404221 -127.659393 
L 157.035651 -99.978042 
L 158.667081 -119.967776 
L 160.298511 -138.563218 
L 161.929941 -138.179193 
L 163.56137 -116.396681 
L 165.1928 -115.134696 
L 166.82423 -82.496775 
L 168.45566 -50.112 
L 170.08709 -157.555793 
L 171.71852 -135.1873 
L 173.34995 -102.2392 
L 174.98138 -95.514468 
L 176.61281 -107.520028 
L 178.244239 -121.980087 
L 179.875669 -94.448685 
L 181.507099 -133.437439 
L 183.138529 -115.051852 
L 184.769959 -137.247948 
L 186.401389 -126.937143 
L 188.032819 -119.202372 
L 189.664249 -101.042274 
L 191.295678 -92.741661 
L 192.927108 -90.660081 
L 194.558538 -156.683509 
L 196.189968 -117.130756 
L 197.821398 -139.408726 
L 199.452828 -127.35546 
L 201.084258 -123.01136 
L 202.715688 -94.75425 
L 204.347117 -116.613656 
L 205.978547 -126.911396 
L 207.609977 -113.628135 
L 209.241407 -127.558512 
L 210.872837 -116.78382 
L 212.504267 -137.105928 
L 214.135697 -129.008727 
L 215.767127 -86.513394 
L 217.398556 -137.410507 
L 219.029986 -103.2076 
L 220.661416 -123.644258 
L 222.292846 -137.89317 
L 223.924276 -128.519958 
L 225.555706 -108.331327 
L 227.187136 -120.578592 
L 228.818566 -113.700366 
L 230.449995 -136.858284 
L 232.081425 -121.913897 
L 233.712855 -140.773389 
L 235.344285 -86.829477 
L 236.975715 -119.215019 
L 238.607145 -113.18551 
L 240.238575 -83.571529 
L 241.870005 -136.293869 
L 243.501434 -120.715015 
L 245.132864 -101.614402 
L 246.764294 -95.165091 
L 248.395724 -108.544866 
L 250.027154 -116.763319 
L 251.658584 -132.135141 
L 253.290014 -147.962862 
L 254.921444 -121.916914 
L 256.552873 -113.317453 
L 258.184303 -130.583852 
L 259.815733 -144.826451 
L 261.447163 -107.923822 
L 263.078593 -98.702238 
L 264.710023 -102.482069 
L 266.341453 -80.917254 
L 267.972883 -117.721568 
L 269.604312 -67.590607 
L 271.235742 -131.351365 
L 272.867172 -133.337947 
L 274.498602 -59.61402 
L 276.130032 -150.744953 
L 277.761462 -111.882753 
L 279.392892 -126.264391 
L 281.024322 -59.116803 
L 282.655751 -65.082693 
L 284.287181 -81.26823 
L 285.918611 -108.185654 
L 287.550041 -132.397653 
L 289.181471 -124.267666 
L 290.812901 -134.884404 
L 292.444331 -90.483654 
L 294.075761 -126.653931 
L 295.70719 -133.660328 
L 297.33862 -122.07144 
L 298.97005 -88.119612 
L 300.60148 -131.952059 
L 302.23291 -86.238734 
L 303.86434 -132.703661 
L 305.49577 -84.505369 
L 307.1272 -103.39012 
L 308.75863 -129.009043 
L 310.390059 -143.476643 
L 312.021489 -136.808203 
L 313.652919 -65.219579 
L 315.284349 -105.139586 
L 316.915779 -105.088727 
L 318.547209 -73.739211 
L 320.178639 -89.229937 
L 321.810069 -121.926747 
L 323.441498 -73.673087 
L 325.072928 -89.510424 
L 326.704358 -119.710454 
L 328.335788 -163.568858 
L 329.967218 -87.679833 
L 331.598648 -101.04067 
L 333.230078 -113.655803 
L 334.861508 -74.086761 
L 336.492937 -99.637953 
L 338.124367 -113.16847 
L 339.755797 -133.768901 
L 341.387227 -104.802685 
L 343.018657 -90.345421 
L 344.650087 -142.964597 
L 346.281517 -138.987931 
L 347.912947 -115.569521 
L 349.544376 -136.930022 
L 351.175806 -113.284986 
L 352.807236 -83.57207 
L 354.438666 -107.368264 
L 356.070096 -118.185492 
L 357.701526 -100.465962 
L 359.332956 -100.553171 
L 360.964386 -69.737267 
L 362.595815 -129.1297 
L 364.227245 -123.680268 
L 365.858675 -120.539286 
L 367.490105 -116.106219 
L 369.121535 -96.436429 
L 370.752965 -148.706945 
L 372.384395 -141.220835 
L 374.015825 -82.913743 
L 375.647254 -126.802145 
L 377.278684 -104.809548 
L 378.910114 -116.734193 
L 380.541544 -110.972931 
L 382.172974 -109.111446 
L 383.804404 -87.400143 
L 385.435834 -105.808531 
L 387.067264 -84.11073 
L 388.698693 -112.490274 
L 390.330123 -116.335377 
L 391.961553 -97.578157 
L 393.592983 -126.721844 
L 395.224413 -117.309845 
L 396.855843 -134.393612 
L 398.487273 -91.622897 
L 398.487273 -267.877854 
L 398.487273 -267.877854 
L 396.855843 -229.287549 
L 395.224413 -225.882215 
L 393.592983 -215.019272 
L 391.961553 -183.338717 
L 390.330123 -226.930229 
L 388.698693 -277.884796 
L 387.067264 -210.157038 
L 385.435834 -248.015652 
L 383.804404 -205.886851 
L 382.172974 -236.424713 
L 380.541544 -239.341857 
L 378.910114 -275.066304 
L 377.278684 -226.029369 
L 375.647254 -204.676925 
L 374.015825 -210.017528 
L 372.384395 -238.378397 
L 370.752965 -199.698361 
L 369.121535 -236.692459 
L 367.490105 -255.348517 
L 365.858675 -226.895379 
L 364.227245 -175.45309 
L 362.595815 -226.292424 
L 360.964386 -242.719781 
L 359.332956 -179.41717 
L 357.701526 -246.230801 
L 356.070096 -202.160422 
L 354.438666 -229.013076 
L 352.807236 -212.616718 
L 351.175806 -182.894233 
L 349.544376 -221.765379 
L 347.912947 -232.490475 
L 346.281517 -241.142635 
L 344.650087 -227.033755 
L 343.018657 -205.802185 
L 341.387227 -276.038485 
L 339.755797 -251.774631 
L 338.124367 -191.308998 
L 336.492937 -247.747744 
L 334.861508 -199.854945 
L 333.230078 -241.580298 
L 331.598648 -199.160985 
L 329.967218 -230.868044 
L 328.335788 -255.817952 
L 326.704358 -239.299301 
L 325.072928 -250.883501 
L 323.441498 -208.920435 
L 321.810069 -219.898798 
L 320.178639 -231.103313 
L 318.547209 -215.578257 
L 316.915779 -165.979611 
L 315.284349 -251.155525 
L 313.652919 -214.61943 
L 312.021489 -250.321733 
L 310.390059 -242.630869 
L 308.75863 -201.285032 
L 307.1272 -194.52663 
L 305.49577 -200.355234 
L 303.86434 -269.902505 
L 302.23291 -247.317924 
L 300.60148 -224.240049 
L 298.97005 -215.436653 
L 297.33862 -197.160868 
L 295.70719 -291.579037 
L 294.075761 -227.150832 
L 292.444331 -225.769186 
L 290.812901 -259.280923 
L 289.181471 -228.809328 
L 287.550041 -253.913894 
L 285.918611 -218.100058 
L 284.287181 -177.349217 
L 282.655751 -209.844008 
L 281.024322 -221.031775 
L 279.392892 -205.751173 
L 277.761462 -212.684566 
L 276.130032 -264.371485 
L 274.498602 -235.376452 
L 272.867172 -215.832278 
L 271.235742 -258.084864 
L 269.604312 -219.632481 
L 267.972883 -239.017635 
L 266.341453 -243.452222 
L 264.710023 -222.312642 
L 263.078593 -221.589923 
L 261.447163 -230.52657 
L 259.815733 -232.048849 
L 258.184303 -236.283343 
L 256.552873 -201.643639 
L 254.921444 -206.141787 
L 253.290014 -292.032 
L 251.658584 -230.160274 
L 250.027154 -183.740589 
L 248.395724 -252.783566 
L 246.764294 -170.575834 
L 245.132864 -257.558862 
L 243.501434 -214.723826 
L 241.870005 -184.787696 
L 240.238575 -184.914153 
L 238.607145 -246.59817 
L 236.975715 -189.462653 
L 235.344285 -197.512363 
L 233.712855 -225.563598 
L 232.081425 -201.247975 
L 230.449995 -209.433225 
L 228.818566 -233.439926 
L 227.187136 -218.796849 
L 225.555706 -210.052478 
L 223.924276 -214.548368 
L 222.292846 -237.103043 
L 220.661416 -222.881398 
L 219.029986 -248.623516 
L 217.398556 -239.254286 
L 215.767127 -229.680347 
L 214.135697 -218.146763 
L 212.504267 -212.75717 
L 210.872837 -221.913945 
L 209.241407 -188.292169 
L 207.609977 -273.062211 
L 205.978547 -214.677468 
L 204.347117 -221.400523 
L 202.715688 -238.416571 
L 201.084258 -256.255225 
L 199.452828 -239.639504 
L 197.821398 -229.982588 
L 196.189968 -193.604709 
L 194.558538 -225.491342 
L 192.927108 -260.326473 
L 191.295678 -170.807605 
L 189.664249 -231.348714 
L 188.032819 -226.546827 
L 186.401389 -215.879587 
L 184.769959 -234.805383 
L 183.138529 -252.900526 
L 181.507099 -182.138007 
L 179.875669 -193.948235 
L 178.244239 -171.214037 
L 176.61281 -224.477243 
L 174.98138 -188.675119 
L 173.34995 -210.972541 
L 171.71852 -238.73161 
L 170.08709 -270.630394 
L 168.45566 -197.704374 
L 166.82423 -237.863492 
L 165.1928 -237.324565 
L 163.56137 -248.729326 
L 161.929941 -224.698776 
L 160.298511 -197.725532 
L 158.667081 -176.825798 
L 157.035651 -231.568384 
L 155.404221 -216.5504 
L 153.772791 -195.205234 
L 152.141361 -217.878175 
L 150.509931 -207.141455 
L 148.878502 -228.997607 
L 147.247072 -225.183829 
L 145.615642 -218.067272 
L 143.984212 -203.348492 
L 142.352782 -227.429466 
L 140.721352 -243.460031 
L 139.089922 -227.795946 
L 137.458492 -201.48113 
L 135.827063 -223.82054 
L 134.195633 -227.480932 
L 132.564203 -210.158315 
L 130.932773 -236.378229 
L 129.301343 -249.19779 
L 127.669913 -192.000762 
L 126.038483 -235.807717 
L 124.407053 -249.916909 
L 122.775624 -240.902532 
L 121.144194 -248.193517 
L 119.512764 -268.60141 
L 117.881334 -236.351558 
L 116.249904 -248.132874 
L 114.618474 -236.767007 
L 112.987044 -233.651929 
L 111.355614 -213.41238 
L 109.724185 -234.01461 
L 108.092755 -200.520572 
L 106.461325 -215.784076 
L 104.829895 -214.734497 
L 103.198465 -178.207816 
L 101.567035 -190.626093 
L 99.935605 -216.112447 
L 98.304175 -253.20884 
L 96.672746 -199.226512 
L 95.041316 -214.509961 
L 93.409886 -212.671885 
L 91.778456 -212.832951 
L 90.147026 -222.706606 
L 88.515596 -225.727719 
L 86.884166 -280.302546 
L 85.252736 -226.816888 
L 83.621307 -229.258225 
L 81.989877 -231.811524 
L 80.358447 -198.903746 
L 78.727017 -213.066147 
L 77.095587 -181.842243 
L 75.464157 -232.235605 
L 73.832727 -200.81056 
z
" style="stroke: #ffffff; stroke-opacity: 0.2"/>
    </defs>
    <g clip-path="url(#p6f0ffcb50a)">
     <use xlink:href="#m1cf9523efe" x="0" y="345.6" style="fill: #1f77b4; fill-opacity: 0.2; stroke: #ffffff; stroke-opacity: 0.2"/>
    </g>
   </g>
   <g id="line2d_16">
    <path d="M 73.832727 199.410726 
L 75.464157 186.465086 
L 77.095587 204.510745 
L 78.727017 200.654773 
L 80.358447 194.724826 
L 81.989877 171.687357 
L 83.621307 182.336834 
L 85.252736 163.063873 
L 86.884166 126.825088 
L 88.515596 168.212719 
L 90.147026 197.465362 
L 91.778456 188.295346 
L 93.409886 178.487758 
L 95.041316 173.457533 
L 96.672746 186.986148 
L 98.304175 173.81987 
L 99.935605 196.48276 
L 101.567035 195.902598 
L 103.198465 206.001885 
L 104.829895 161.446512 
L 106.461325 206.796494 
L 108.092755 183.584259 
L 109.724185 166.064165 
L 111.355614 177.759847 
L 112.987044 169.638006 
L 114.618474 163.090749 
L 116.249904 151.717583 
L 117.881334 160.05373 
L 119.512764 172.142706 
L 121.144194 156.226746 
L 122.775624 168.634438 
L 124.407053 175.212652 
L 126.038483 166.618999 
L 127.669913 175.368844 
L 129.301343 170.527315 
L 130.932773 167.773131 
L 132.564203 170.955929 
L 134.195633 189.559516 
L 135.827063 162.020764 
L 137.458492 188.486154 
L 139.089922 167.513796 
L 140.721352 144.08641 
L 142.352782 199.053313 
L 143.984212 185.917711 
L 145.615642 200.33268 
L 147.247072 176.988034 
L 148.878502 170.957195 
L 150.509931 179.215106 
L 152.141361 180.060794 
L 153.772791 192.322988 
L 155.404221 173.495103 
L 157.035651 179.826787 
L 158.667081 197.203213 
L 160.298511 177.455625 
L 161.929941 164.161016 
L 163.56137 163.036997 
L 165.1928 169.370369 
L 166.82423 185.419867 
L 168.45566 221.691813 
L 170.08709 131.506907 
L 171.71852 158.640545 
L 173.34995 188.994129 
L 174.98138 203.505206 
L 176.61281 179.601364 
L 178.244239 199.002938 
L 179.875669 201.40154 
L 181.507099 187.812277 
L 183.138529 161.623811 
L 184.769959 159.573334 
L 186.401389 174.191635 
L 188.032819 172.725401 
L 189.664249 179.404506 
L 191.295678 213.825367 
L 192.927108 170.106723 
L 194.558538 154.512574 
L 196.189968 190.232267 
L 197.821398 160.904343 
L 199.452828 162.102518 
L 201.084258 155.966707 
L 202.715688 179.014589 
L 204.347117 176.59291 
L 205.978547 174.805568 
L 207.609977 152.254827 
L 209.241407 187.674659 
L 210.872837 176.251117 
L 212.504267 170.668451 
L 214.135697 172.022255 
L 215.767127 187.503129 
L 217.398556 157.267603 
L 219.029986 169.684442 
L 220.661416 172.337172 
L 222.292846 158.101894 
L 223.924276 174.065837 
L 225.555706 186.408097 
L 227.187136 175.912279 
L 228.818566 172.029854 
L 230.449995 172.454246 
L 232.081425 184.019064 
L 233.712855 162.431506 
L 235.344285 203.42908 
L 236.975715 191.261164 
L 238.607145 165.70816 
L 240.238575 211.357159 
L 241.870005 185.059218 
L 243.501434 177.880579 
L 245.132864 166.013368 
L 246.764294 212.729537 
L 248.395724 164.935784 
L 250.027154 195.348046 
L 251.658584 164.452293 
L 253.290014 125.602569 
L 254.921444 181.570649 
L 256.552873 188.119454 
L 258.184303 162.166402 
L 259.815733 157.16235 
L 261.447163 176.374804 
L 263.078593 185.453919 
L 264.710023 183.202644 
L 266.341453 183.415262 
L 267.972883 167.230399 
L 269.604312 201.988456 
L 271.235742 150.881885 
L 272.867172 171.014888 
L 274.498602 198.104764 
L 276.130032 138.041781 
L 277.761462 183.316341 
L 279.392892 179.592218 
L 281.024322 205.525711 
L 282.655751 208.13665 
L 284.287181 216.291277 
L 285.918611 182.457144 
L 287.550041 152.444227 
L 289.181471 169.061503 
L 290.812901 148.517336 
L 292.444331 187.47358 
L 294.075761 168.697618 
L 295.70719 132.980317 
L 297.33862 185.983846 
L 298.97005 193.821868 
L 300.60148 167.503946 
L 302.23291 178.821671 
L 303.86434 144.296917 
L 305.49577 203.169698 
L 307.1272 196.641625 
L 308.75863 180.452962 
L 310.390059 152.546244 
L 312.021489 152.035032 
L 313.652919 205.680496 
L 315.284349 167.452445 
L 316.915779 210.065831 
L 318.547209 200.941266 
L 320.178639 185.433375 
L 321.810069 174.687228 
L 323.441498 204.303239 
L 325.072928 175.403037 
L 326.704358 166.095122 
L 328.335788 135.906595 
L 329.967218 186.326061 
L 331.598648 195.499173 
L 333.230078 167.981949 
L 334.861508 208.629147 
L 336.492937 171.907152 
L 338.124367 193.361266 
L 339.755797 152.828234 
L 341.387227 155.179415 
L 343.018657 197.526197 
L 344.650087 160.600824 
L 346.281517 155.534717 
L 347.912947 171.570002 
L 349.544376 166.252299 
L 351.175806 197.51039 
L 352.807236 197.505606 
L 354.438666 177.40933 
L 356.070096 185.427043 
L 357.701526 172.251618 
L 359.332956 205.61483 
L 360.964386 189.371476 
L 362.595815 167.888938 
L 364.227245 196.033321 
L 365.858675 171.882668 
L 367.490105 159.872632 
L 369.121535 179.035556 
L 370.752965 171.397347 
L 372.384395 155.800384 
L 374.015825 199.134364 
L 375.647254 179.860465 
L 377.278684 180.180541 
L 378.910114 149.699751 
L 380.541544 170.442606 
L 382.172974 172.831921 
L 383.804404 198.956503 
L 385.435834 168.687909 
L 387.067264 198.466116 
L 388.698693 150.412465 
L 390.330123 173.967197 
L 391.961553 205.141563 
L 393.592983 174.729442 
L 395.224413 174.00397 
L 396.855843 163.759419 
L 398.487273 165.849624 
L 398.487273 165.849624 
" clip-path="url(#p6f0ffcb50a)" style="fill: none; stroke: #1f77b4; stroke-width: 1.5; stroke-linecap: round"/>
   </g>
   <g id="LineCollection_1">
    <path d="M 398.487273 295.488 
L 398.487273 53.568 
" clip-path="url(#p6f0ffcb50a)" style="fill: none; stroke-dasharray: 5.55,2.4; stroke-dashoffset: 0; stroke: #1f77b4; stroke-width: 1.5"/>
   </g>
   <g id="patch_3">
    <path d="M 57.6 307.584 
L 57.6 41.472 
" style="fill: none; stroke: #cccccc; stroke-width: 0.8; stroke-linejoin: miter; stroke-linecap: square"/>
   </g>
   <g id="patch_4">
    <path d="M 414.72 307.584 
L 414.72 41.472 
" style="fill: none; stroke: #cccccc; stroke-width: 0.8; stroke-linejoin: miter; stroke-linecap: square"/>
   </g>
   <g id="patch_5">
    <path d="M 57.6 307.584 
L 414.72 307.584 
" style="fill: none; stroke: #cccccc; stroke-width: 0.8; stroke-linejoin: miter; stroke-linecap: square"/>
   </g>
   <g id="patch_6">
    <path d="M 57.6 41.472 
L 414.72 41.472 
" style="fill: none; stroke: #cccccc; stroke-width: 0.8; stroke-linejoin: miter; stroke-linecap: square"/>
   </g>
   <g id="text_18">
    <!-- Model performance vs. # of iterations -->
    <g style="fill: #262626" transform="translate(122.314688 35.472)scale(0.12 -0.12)">
     <defs>
      <path id="DejaVuSans-4d" d="M 628 4666 
L 1569 4666 
L 2759 1491 
L 3956 4666 
L 4897 4666 
L 4897 0 
L 4281 0 
L 4281 4097 
L 3078 897 
L 2444 897 
L 1241 4097 
L 1241 0 
L 628 0 
L 628 4666 
z
" transform="scale(0.015625)"/>
      <path id="DejaVuSans-64" d="M 2906 2969 
L 2906 4863 
L 3481 4863 
L 3481 0 
L 2906 0 
L 2906 525 
Q 2725 213 2448 61 
Q 2172 -91 1784 -91 
Q 1150 -91 751 415 
Q 353 922 353 1747 
Q 353 2572 751 3078 
Q 1150 3584 1784 3584 
Q 2172 3584 2448 3432 
Q 2725 3281 2906 2969 
z
M 947 1747 
Q 947 1113 1208 752 
Q 1469 391 1925 391 
Q 2381 391 2643 752 
Q 2906 1113 2906 1747 
Q 2906 2381 2643 2742 
Q 2381 3103 1925 3103 
Q 1469 3103 1208 2742 
Q 947 2381 947 1747 
z
" transform="scale(0.015625)"/>
      <path id="DejaVuSans-6c" d="M 603 4863 
L 1178 4863 
L 1178 0 
L 603 0 
L 603 4863 
z
" transform="scale(0.015625)"/>
      <path id="DejaVuSans-20" transform="scale(0.015625)"/>
      <path id="DejaVuSans-70" d="M 1159 525 
L 1159 -1331 
L 581 -1331 
L 581 3500 
L 1159 3500 
L 1159 2969 
Q 1341 3281 1617 3432 
Q 1894 3584 2278 3584 
Q 2916 3584 3314 3078 
Q 3713 2572 3713 1747 
Q 3713 922 3314 415 
Q 2916 -91 2278 -91 
Q 1894 -91 1617 61 
Q 1341 213 1159 525 
z
M 3116 1747 
Q 3116 2381 2855 2742 
Q 2594 3103 2138 3103 
Q 1681 3103 1420 2742 
Q 1159 2381 1159 1747 
Q 1159 1113 1420 752 
Q 1681 391 2138 391 
Q 2594 391 2855 752 
Q 3116 1113 3116 1747 
z
" transform="scale(0.015625)"/>
      <path id="DejaVuSans-66" d="M 2375 4863 
L 2375 4384 
L 1825 4384 
Q 1516 4384 1395 4259 
Q 1275 4134 1275 3809 
L 1275 3500 
L 2222 3500 
L 2222 3053 
L 1275 3053 
L 1275 0 
L 697 0 
L 697 3053 
L 147 3053 
L 147 3500 
L 697 3500 
L 697 3744 
Q 697 4328 969 4595 
Q 1241 4863 1831 4863 
L 2375 4863 
z
" transform="scale(0.015625)"/>
      <path id="DejaVuSans-6d" d="M 3328 2828 
Q 3544 3216 3844 3400 
Q 4144 3584 4550 3584 
Q 5097 3584 5394 3201 
Q 5691 2819 5691 2113 
L 5691 0 
L 5113 0 
L 5113 2094 
Q 5113 2597 4934 2840 
Q 4756 3084 4391 3084 
Q 3944 3084 3684 2787 
Q 3425 2491 3425 1978 
L 3425 0 
L 2847 0 
L 2847 2094 
Q 2847 2600 2669 2842 
Q 2491 3084 2119 3084 
Q 1678 3084 1418 2786 
Q 1159 2488 1159 1978 
L 1159 0 
L 581 0 
L 581 3500 
L 1159 3500 
L 1159 2956 
Q 1356 3278 1631 3431 
Q 1906 3584 2284 3584 
Q 2666 3584 2933 3390 
Q 3200 3197 3328 2828 
z
" transform="scale(0.015625)"/>
      <path id="DejaVuSans-76" d="M 191 3500 
L 800 3500 
L 1894 563 
L 2988 3500 
L 3597 3500 
L 2284 0 
L 1503 0 
L 191 3500 
z
" transform="scale(0.015625)"/>
      <path id="DejaVuSans-73" d="M 2834 3397 
L 2834 2853 
Q 2591 2978 2328 3040 
Q 2066 3103 1784 3103 
Q 1356 3103 1142 2972 
Q 928 2841 928 2578 
Q 928 2378 1081 2264 
Q 1234 2150 1697 2047 
L 1894 2003 
Q 2506 1872 2764 1633 
Q 3022 1394 3022 966 
Q 3022 478 2636 193 
Q 2250 -91 1575 -91 
Q 1294 -91 989 -36 
Q 684 19 347 128 
L 347 722 
Q 666 556 975 473 
Q 1284 391 1588 391 
Q 1994 391 2212 530 
Q 2431 669 2431 922 
Q 2431 1156 2273 1281 
Q 2116 1406 1581 1522 
L 1381 1569 
Q 847 1681 609 1914 
Q 372 2147 372 2553 
Q 372 3047 722 3315 
Q 1072 3584 1716 3584 
Q 2034 3584 2315 3537 
Q 2597 3491 2834 3397 
z
" transform="scale(0.015625)"/>
      <path id="DejaVuSans-23" d="M 3272 2816 
L 2363 2816 
L 2100 1772 
L 3016 1772 
L 3272 2816 
z
M 2803 4594 
L 2478 3297 
L 3391 3297 
L 3719 4594 
L 4219 4594 
L 3897 3297 
L 4872 3297 
L 4872 2816 
L 3775 2816 
L 3519 1772 
L 4513 1772 
L 4513 1294 
L 3397 1294 
L 3072 0 
L 2572 0 
L 2894 1294 
L 1978 1294 
L 1656 0 
L 1153 0 
L 1478 1294 
L 494 1294 
L 494 1772 
L 1594 1772 
L 1856 2816 
L 850 2816 
L 850 3297 
L 1978 3297 
L 2297 4594 
L 2803 4594 
z
" transform="scale(0.015625)"/>
     </defs>
     <use xlink:href="#DejaVuSans-4d"/>
     <use xlink:href="#DejaVuSans-6f" x="86.279297"/>
     <use xlink:href="#DejaVuSans-64" x="147.460938"/>
     <use xlink:href="#DejaVuSans-65" x="210.9375"/>
     <use xlink:href="#DejaVuSans-6c" x="272.460938"/>
     <use xlink:href="#DejaVuSans-20" x="300.244141"/>
     <use xlink:href="#DejaVuSans-70" x="332.03125"/>
     <use xlink:href="#DejaVuSans-65" x="395.507812"/>
     <use xlink:href="#DejaVuSans-72" x="457.03125"/>
     <use xlink:href="#DejaVuSans-66" x="498.144531"/>
     <use xlink:href="#DejaVuSans-6f" x="533.349609"/>
     <use xlink:href="#DejaVuSans-72" x="594.53125"/>
     <use xlink:href="#DejaVuSans-6d" x="633.894531"/>
     <use xlink:href="#DejaVuSans-61" x="731.306641"/>
     <use xlink:href="#DejaVuSans-6e" x="792.585938"/>
     <use xlink:href="#DejaVuSans-63" x="855.964844"/>
     <use xlink:href="#DejaVuSans-65" x="910.945312"/>
     <use xlink:href="#DejaVuSans-20" x="972.46875"/>
     <use xlink:href="#DejaVuSans-76" x="1004.255859"/>
     <use xlink:href="#DejaVuSans-73" x="1063.435547"/>
     <use xlink:href="#DejaVuSans-2e" x="1115.535156"/>
     <use xlink:href="#DejaVuSans-20" x="1147.322266"/>
     <use xlink:href="#DejaVuSans-23" x="1179.109375"/>
     <use xlink:href="#DejaVuSans-20" x="1262.898438"/>
     <use xlink:href="#DejaVuSans-6f" x="1294.685547"/>
     <use xlink:href="#DejaVuSans-66" x="1355.867188"/>
     <use xlink:href="#DejaVuSans-20" x="1391.072266"/>
     <use xlink:href="#DejaVuSans-69" x="1422.859375"/>
     <use xlink:href="#DejaVuSans-74" x="1450.642578"/>
     <use xlink:href="#DejaVuSans-65" x="1489.851562"/>
     <use xlink:href="#DejaVuSans-72" x="1551.375"/>
     <use xlink:href="#DejaVuSans-61" x="1592.488281"/>
     <use xlink:href="#DejaVuSans-74" x="1653.767578"/>
     <use xlink:href="#DejaVuSans-69" x="1692.976562"/>
     <use xlink:href="#DejaVuSans-6f" x="1720.759766"/>
     <use xlink:href="#DejaVuSans-6e" x="1781.941406"/>
     <use xlink:href="#DejaVuSans-73" x="1845.320312"/>
    </g>
   </g>
  </g>
 </g>
 <defs>
  <clipPath id="p6f0ffcb50a">
   <rect x="57.6" y="41.472" width="357.12" height="266.112"/>
  </clipPath>
 </defs>
</svg>
