<?xml version="1.0" encoding="utf-8" standalone="no"?>
<!DOCTYPE svg PUBLIC "-//W3C//DTD SVG 1.1//EN"
  "http://www.w3.org/Graphics/SVG/1.1/DTD/svg11.dtd">
<svg height="345.6pt" version="1.1" viewBox="0 0 460.8 345.6" width="460.8pt" xmlns="http://www.w3.org/2000/svg" xmlns:xlink="http://www.w3.org/1999/xlink">
 <metadata>
  <rdf:RDF xmlns:cc="http://creativecommons.org/ns#" xmlns:dc="http://purl.org/dc/elements/1.1/" xmlns:rdf="http://www.w3.org/1999/02/22-rdf-syntax-ns#">
   <cc:Work>
    <dc:type rdf:resource="http://purl.org/dc/dcmitype/StillImage"/>
    <dc:date>2022-04-25T22:02:56.156523</dc:date>
    <dc:format>image/svg+xml</dc:format>
    <dc:creator>
     <cc:Agent>
      <dc:title>Matplotlib v3.4.3, https://matplotlib.org/</dc:title>
     </cc:Agent>
    </dc:creator>
   </cc:Work>
  </rdf:RDF>
 </metadata>
 <defs>
  <style type="text/css">*{stroke-linecap:butt;stroke-linejoin:round;}</style>
 </defs>
 <g id="figure_1">
  <g id="patch_1">
   <path d="M 0 345.6 
L 460.8 345.6 
L 460.8 0 
L 0 0 
z
" style="fill:#ffffff;"/>
  </g>
  <g id="axes_1">
   <g id="patch_2">
    <path d="M 57.6 307.584 
L 414.72 307.584 
L 414.72 41.472 
L 57.6 41.472 
z
" style="fill:#ffffff;"/>
   </g>
   <g id="matplotlib.axis_1">
    <g id="xtick_1">
     <g id="line2d_1">
      <path clip-path="url(#p84cf3b3b96)" d="M 72.201297 307.584 
L 72.201297 41.472 
" style="fill:none;stroke:#cccccc;stroke-linecap:round;stroke-width:0.8;"/>
     </g>
     <g id="text_1">
      <!-- 0 -->
      <g style="fill:#262626;" transform="translate(69.020047 322.182437)scale(0.1 -0.1)">
       <defs>
        <path d="M 2034 4250 
Q 1547 4250 1301 3770 
Q 1056 3291 1056 2328 
Q 1056 1369 1301 889 
Q 1547 409 2034 409 
Q 2525 409 2770 889 
Q 3016 1369 3016 2328 
Q 3016 3291 2770 3770 
Q 2525 4250 2034 4250 
z
M 2034 4750 
Q 2819 4750 3233 4129 
Q 3647 3509 3647 2328 
Q 3647 1150 3233 529 
Q 2819 -91 2034 -91 
Q 1250 -91 836 529 
Q 422 1150 422 2328 
Q 422 3509 836 4129 
Q 1250 4750 2034 4750 
z
" id="DejaVuSans-30" transform="scale(0.015625)"/>
       </defs>
       <use xlink:href="#DejaVuSans-30"/>
      </g>
     </g>
    </g>
    <g id="xtick_2">
     <g id="line2d_2">
      <path clip-path="url(#p84cf3b3b96)" d="M 112.987044 307.584 
L 112.987044 41.472 
" style="fill:none;stroke:#cccccc;stroke-linecap:round;stroke-width:0.8;"/>
     </g>
     <g id="text_2">
      <!-- 25 -->
      <g style="fill:#262626;" transform="translate(106.624544 322.182437)scale(0.1 -0.1)">
       <defs>
        <path d="M 1228 531 
L 3431 531 
L 3431 0 
L 469 0 
L 469 531 
Q 828 903 1448 1529 
Q 2069 2156 2228 2338 
Q 2531 2678 2651 2914 
Q 2772 3150 2772 3378 
Q 2772 3750 2511 3984 
Q 2250 4219 1831 4219 
Q 1534 4219 1204 4116 
Q 875 4013 500 3803 
L 500 4441 
Q 881 4594 1212 4672 
Q 1544 4750 1819 4750 
Q 2544 4750 2975 4387 
Q 3406 4025 3406 3419 
Q 3406 3131 3298 2873 
Q 3191 2616 2906 2266 
Q 2828 2175 2409 1742 
Q 1991 1309 1228 531 
z
" id="DejaVuSans-32" transform="scale(0.015625)"/>
        <path d="M 691 4666 
L 3169 4666 
L 3169 4134 
L 1269 4134 
L 1269 2991 
Q 1406 3038 1543 3061 
Q 1681 3084 1819 3084 
Q 2600 3084 3056 2656 
Q 3513 2228 3513 1497 
Q 3513 744 3044 326 
Q 2575 -91 1722 -91 
Q 1428 -91 1123 -41 
Q 819 9 494 109 
L 494 744 
Q 775 591 1075 516 
Q 1375 441 1709 441 
Q 2250 441 2565 725 
Q 2881 1009 2881 1497 
Q 2881 1984 2565 2268 
Q 2250 2553 1709 2553 
Q 1456 2553 1204 2497 
Q 953 2441 691 2322 
L 691 4666 
z
" id="DejaVuSans-35" transform="scale(0.015625)"/>
       </defs>
       <use xlink:href="#DejaVuSans-32"/>
       <use x="63.623047" xlink:href="#DejaVuSans-35"/>
      </g>
     </g>
    </g>
    <g id="xtick_3">
     <g id="line2d_3">
      <path clip-path="url(#p84cf3b3b96)" d="M 153.772791 307.584 
L 153.772791 41.472 
" style="fill:none;stroke:#cccccc;stroke-linecap:round;stroke-width:0.8;"/>
     </g>
     <g id="text_3">
      <!-- 50 -->
      <g style="fill:#262626;" transform="translate(147.410291 322.182437)scale(0.1 -0.1)">
       <use xlink:href="#DejaVuSans-35"/>
       <use x="63.623047" xlink:href="#DejaVuSans-30"/>
      </g>
     </g>
    </g>
    <g id="xtick_4">
     <g id="line2d_4">
      <path clip-path="url(#p84cf3b3b96)" d="M 194.558538 307.584 
L 194.558538 41.472 
" style="fill:none;stroke:#cccccc;stroke-linecap:round;stroke-width:0.8;"/>
     </g>
     <g id="text_4">
      <!-- 75 -->
      <g style="fill:#262626;" transform="translate(188.196038 322.182437)scale(0.1 -0.1)">
       <defs>
        <path d="M 525 4666 
L 3525 4666 
L 3525 4397 
L 1831 0 
L 1172 0 
L 2766 4134 
L 525 4134 
L 525 4666 
z
" id="DejaVuSans-37" transform="scale(0.015625)"/>
       </defs>
       <use xlink:href="#DejaVuSans-37"/>
       <use x="63.623047" xlink:href="#DejaVuSans-35"/>
      </g>
     </g>
    </g>
    <g id="xtick_5">
     <g id="line2d_5">
      <path clip-path="url(#p84cf3b3b96)" d="M 235.344285 307.584 
L 235.344285 41.472 
" style="fill:none;stroke:#cccccc;stroke-linecap:round;stroke-width:0.8;"/>
     </g>
     <g id="text_5">
      <!-- 100 -->
      <g style="fill:#262626;" transform="translate(225.800535 322.182437)scale(0.1 -0.1)">
       <defs>
        <path d="M 794 531 
L 1825 531 
L 1825 4091 
L 703 3866 
L 703 4441 
L 1819 4666 
L 2450 4666 
L 2450 531 
L 3481 531 
L 3481 0 
L 794 0 
L 794 531 
z
" id="DejaVuSans-31" transform="scale(0.015625)"/>
       </defs>
       <use xlink:href="#DejaVuSans-31"/>
       <use x="63.623047" xlink:href="#DejaVuSans-30"/>
       <use x="127.246094" xlink:href="#DejaVuSans-30"/>
      </g>
     </g>
    </g>
    <g id="xtick_6">
     <g id="line2d_6">
      <path clip-path="url(#p84cf3b3b96)" d="M 276.130032 307.584 
L 276.130032 41.472 
" style="fill:none;stroke:#cccccc;stroke-linecap:round;stroke-width:0.8;"/>
     </g>
     <g id="text_6">
      <!-- 125 -->
      <g style="fill:#262626;" transform="translate(266.586282 322.182437)scale(0.1 -0.1)">
       <use xlink:href="#DejaVuSans-31"/>
       <use x="63.623047" xlink:href="#DejaVuSans-32"/>
       <use x="127.246094" xlink:href="#DejaVuSans-35"/>
      </g>
     </g>
    </g>
    <g id="xtick_7">
     <g id="line2d_7">
      <path clip-path="url(#p84cf3b3b96)" d="M 316.915779 307.584 
L 316.915779 41.472 
" style="fill:none;stroke:#cccccc;stroke-linecap:round;stroke-width:0.8;"/>
     </g>
     <g id="text_7">
      <!-- 150 -->
      <g style="fill:#262626;" transform="translate(307.372029 322.182437)scale(0.1 -0.1)">
       <use xlink:href="#DejaVuSans-31"/>
       <use x="63.623047" xlink:href="#DejaVuSans-35"/>
       <use x="127.246094" xlink:href="#DejaVuSans-30"/>
      </g>
     </g>
    </g>
    <g id="xtick_8">
     <g id="line2d_8">
      <path clip-path="url(#p84cf3b3b96)" d="M 357.701526 307.584 
L 357.701526 41.472 
" style="fill:none;stroke:#cccccc;stroke-linecap:round;stroke-width:0.8;"/>
     </g>
     <g id="text_8">
      <!-- 175 -->
      <g style="fill:#262626;" transform="translate(348.157776 322.182437)scale(0.1 -0.1)">
       <use xlink:href="#DejaVuSans-31"/>
       <use x="63.623047" xlink:href="#DejaVuSans-37"/>
       <use x="127.246094" xlink:href="#DejaVuSans-35"/>
      </g>
     </g>
    </g>
    <g id="xtick_9">
     <g id="line2d_9">
      <path clip-path="url(#p84cf3b3b96)" d="M 398.487273 307.584 
L 398.487273 41.472 
" style="fill:none;stroke:#cccccc;stroke-linecap:round;stroke-width:0.8;"/>
     </g>
     <g id="text_9">
      <!-- 200 -->
      <g style="fill:#262626;" transform="translate(388.943523 322.182437)scale(0.1 -0.1)">
       <use xlink:href="#DejaVuSans-32"/>
       <use x="63.623047" xlink:href="#DejaVuSans-30"/>
       <use x="127.246094" xlink:href="#DejaVuSans-30"/>
      </g>
     </g>
    </g>
    <g id="text_10">
     <!-- Iteration -->
     <g style="fill:#262626;" transform="translate(214.951406 335.860562)scale(0.1 -0.1)">
      <defs>
       <path d="M 628 4666 
L 1259 4666 
L 1259 0 
L 628 0 
L 628 4666 
z
" id="DejaVuSans-49" transform="scale(0.015625)"/>
       <path d="M 1172 4494 
L 1172 3500 
L 2356 3500 
L 2356 3053 
L 1172 3053 
L 1172 1153 
Q 1172 725 1289 603 
Q 1406 481 1766 481 
L 2356 481 
L 2356 0 
L 1766 0 
Q 1100 0 847 248 
Q 594 497 594 1153 
L 594 3053 
L 172 3053 
L 172 3500 
L 594 3500 
L 594 4494 
L 1172 4494 
z
" id="DejaVuSans-74" transform="scale(0.015625)"/>
       <path d="M 3597 1894 
L 3597 1613 
L 953 1613 
Q 991 1019 1311 708 
Q 1631 397 2203 397 
Q 2534 397 2845 478 
Q 3156 559 3463 722 
L 3463 178 
Q 3153 47 2828 -22 
Q 2503 -91 2169 -91 
Q 1331 -91 842 396 
Q 353 884 353 1716 
Q 353 2575 817 3079 
Q 1281 3584 2069 3584 
Q 2775 3584 3186 3129 
Q 3597 2675 3597 1894 
z
M 3022 2063 
Q 3016 2534 2758 2815 
Q 2500 3097 2075 3097 
Q 1594 3097 1305 2825 
Q 1016 2553 972 2059 
L 3022 2063 
z
" id="DejaVuSans-65" transform="scale(0.015625)"/>
       <path d="M 2631 2963 
Q 2534 3019 2420 3045 
Q 2306 3072 2169 3072 
Q 1681 3072 1420 2755 
Q 1159 2438 1159 1844 
L 1159 0 
L 581 0 
L 581 3500 
L 1159 3500 
L 1159 2956 
Q 1341 3275 1631 3429 
Q 1922 3584 2338 3584 
Q 2397 3584 2469 3576 
Q 2541 3569 2628 3553 
L 2631 2963 
z
" id="DejaVuSans-72" transform="scale(0.015625)"/>
       <path d="M 2194 1759 
Q 1497 1759 1228 1600 
Q 959 1441 959 1056 
Q 959 750 1161 570 
Q 1363 391 1709 391 
Q 2188 391 2477 730 
Q 2766 1069 2766 1631 
L 2766 1759 
L 2194 1759 
z
M 3341 1997 
L 3341 0 
L 2766 0 
L 2766 531 
Q 2569 213 2275 61 
Q 1981 -91 1556 -91 
Q 1019 -91 701 211 
Q 384 513 384 1019 
Q 384 1609 779 1909 
Q 1175 2209 1959 2209 
L 2766 2209 
L 2766 2266 
Q 2766 2663 2505 2880 
Q 2244 3097 1772 3097 
Q 1472 3097 1187 3025 
Q 903 2953 641 2809 
L 641 3341 
Q 956 3463 1253 3523 
Q 1550 3584 1831 3584 
Q 2591 3584 2966 3190 
Q 3341 2797 3341 1997 
z
" id="DejaVuSans-61" transform="scale(0.015625)"/>
       <path d="M 603 3500 
L 1178 3500 
L 1178 0 
L 603 0 
L 603 3500 
z
M 603 4863 
L 1178 4863 
L 1178 4134 
L 603 4134 
L 603 4863 
z
" id="DejaVuSans-69" transform="scale(0.015625)"/>
       <path d="M 1959 3097 
Q 1497 3097 1228 2736 
Q 959 2375 959 1747 
Q 959 1119 1226 758 
Q 1494 397 1959 397 
Q 2419 397 2687 759 
Q 2956 1122 2956 1747 
Q 2956 2369 2687 2733 
Q 2419 3097 1959 3097 
z
M 1959 3584 
Q 2709 3584 3137 3096 
Q 3566 2609 3566 1747 
Q 3566 888 3137 398 
Q 2709 -91 1959 -91 
Q 1206 -91 779 398 
Q 353 888 353 1747 
Q 353 2609 779 3096 
Q 1206 3584 1959 3584 
z
" id="DejaVuSans-6f" transform="scale(0.015625)"/>
       <path d="M 3513 2113 
L 3513 0 
L 2938 0 
L 2938 2094 
Q 2938 2591 2744 2837 
Q 2550 3084 2163 3084 
Q 1697 3084 1428 2787 
Q 1159 2491 1159 1978 
L 1159 0 
L 581 0 
L 581 3500 
L 1159 3500 
L 1159 2956 
Q 1366 3272 1645 3428 
Q 1925 3584 2291 3584 
Q 2894 3584 3203 3211 
Q 3513 2838 3513 2113 
z
" id="DejaVuSans-6e" transform="scale(0.015625)"/>
      </defs>
      <use xlink:href="#DejaVuSans-49"/>
      <use x="29.492188" xlink:href="#DejaVuSans-74"/>
      <use x="68.701172" xlink:href="#DejaVuSans-65"/>
      <use x="130.224609" xlink:href="#DejaVuSans-72"/>
      <use x="171.337891" xlink:href="#DejaVuSans-61"/>
      <use x="232.617188" xlink:href="#DejaVuSans-74"/>
      <use x="271.826172" xlink:href="#DejaVuSans-69"/>
      <use x="299.609375" xlink:href="#DejaVuSans-6f"/>
      <use x="360.791016" xlink:href="#DejaVuSans-6e"/>
     </g>
    </g>
   </g>
   <g id="matplotlib.axis_2">
    <g id="ytick_1">
     <g id="line2d_10">
      <path clip-path="url(#p84cf3b3b96)" d="M 57.6 260.344282 
L 414.72 260.344282 
" style="fill:none;stroke:#cccccc;stroke-linecap:round;stroke-width:0.8;"/>
     </g>
     <g id="text_11">
      <!-- 0.55 -->
      <g style="fill:#262626;" transform="translate(28.334375 264.143501)scale(0.1 -0.1)">
       <defs>
        <path d="M 684 794 
L 1344 794 
L 1344 0 
L 684 0 
L 684 794 
z
" id="DejaVuSans-2e" transform="scale(0.015625)"/>
       </defs>
       <use xlink:href="#DejaVuSans-30"/>
       <use x="63.623047" xlink:href="#DejaVuSans-2e"/>
       <use x="95.410156" xlink:href="#DejaVuSans-35"/>
       <use x="159.033203" xlink:href="#DejaVuSans-35"/>
      </g>
     </g>
    </g>
    <g id="ytick_2">
     <g id="line2d_11">
      <path clip-path="url(#p84cf3b3b96)" d="M 57.6 209.016456 
L 414.72 209.016456 
" style="fill:none;stroke:#cccccc;stroke-linecap:round;stroke-width:0.8;"/>
     </g>
     <g id="text_12">
      <!-- 0.60 -->
      <g style="fill:#262626;" transform="translate(28.334375 212.815675)scale(0.1 -0.1)">
       <defs>
        <path d="M 2113 2584 
Q 1688 2584 1439 2293 
Q 1191 2003 1191 1497 
Q 1191 994 1439 701 
Q 1688 409 2113 409 
Q 2538 409 2786 701 
Q 3034 994 3034 1497 
Q 3034 2003 2786 2293 
Q 2538 2584 2113 2584 
z
M 3366 4563 
L 3366 3988 
Q 3128 4100 2886 4159 
Q 2644 4219 2406 4219 
Q 1781 4219 1451 3797 
Q 1122 3375 1075 2522 
Q 1259 2794 1537 2939 
Q 1816 3084 2150 3084 
Q 2853 3084 3261 2657 
Q 3669 2231 3669 1497 
Q 3669 778 3244 343 
Q 2819 -91 2113 -91 
Q 1303 -91 875 529 
Q 447 1150 447 2328 
Q 447 3434 972 4092 
Q 1497 4750 2381 4750 
Q 2619 4750 2861 4703 
Q 3103 4656 3366 4563 
z
" id="DejaVuSans-36" transform="scale(0.015625)"/>
       </defs>
       <use xlink:href="#DejaVuSans-30"/>
       <use x="63.623047" xlink:href="#DejaVuSans-2e"/>
       <use x="95.410156" xlink:href="#DejaVuSans-36"/>
       <use x="159.033203" xlink:href="#DejaVuSans-30"/>
      </g>
     </g>
    </g>
    <g id="ytick_3">
     <g id="line2d_12">
      <path clip-path="url(#p84cf3b3b96)" d="M 57.6 157.68863 
L 414.72 157.68863 
" style="fill:none;stroke:#cccccc;stroke-linecap:round;stroke-width:0.8;"/>
     </g>
     <g id="text_13">
      <!-- 0.65 -->
      <g style="fill:#262626;" transform="translate(28.334375 161.487848)scale(0.1 -0.1)">
       <use xlink:href="#DejaVuSans-30"/>
       <use x="63.623047" xlink:href="#DejaVuSans-2e"/>
       <use x="95.410156" xlink:href="#DejaVuSans-36"/>
       <use x="159.033203" xlink:href="#DejaVuSans-35"/>
      </g>
     </g>
    </g>
    <g id="ytick_4">
     <g id="line2d_13">
      <path clip-path="url(#p84cf3b3b96)" d="M 57.6 106.360803 
L 414.72 106.360803 
" style="fill:none;stroke:#cccccc;stroke-linecap:round;stroke-width:0.8;"/>
     </g>
     <g id="text_14">
      <!-- 0.70 -->
      <g style="fill:#262626;" transform="translate(28.334375 110.160022)scale(0.1 -0.1)">
       <use xlink:href="#DejaVuSans-30"/>
       <use x="63.623047" xlink:href="#DejaVuSans-2e"/>
       <use x="95.410156" xlink:href="#DejaVuSans-37"/>
       <use x="159.033203" xlink:href="#DejaVuSans-30"/>
      </g>
     </g>
    </g>
    <g id="ytick_5">
     <g id="line2d_14">
      <path clip-path="url(#p84cf3b3b96)" d="M 57.6 55.032977 
L 414.72 55.032977 
" style="fill:none;stroke:#cccccc;stroke-linecap:round;stroke-width:0.8;"/>
     </g>
     <g id="text_15">
      <!-- 0.75 -->
      <g style="fill:#262626;" transform="translate(28.334375 58.832196)scale(0.1 -0.1)">
       <use xlink:href="#DejaVuSans-30"/>
       <use x="63.623047" xlink:href="#DejaVuSans-2e"/>
       <use x="95.410156" xlink:href="#DejaVuSans-37"/>
       <use x="159.033203" xlink:href="#DejaVuSans-35"/>
      </g>
     </g>
    </g>
    <g id="text_16">
     <!-- Auroc -->
     <g style="fill:#262626;" transform="translate(22.254688 188.868625)rotate(-90)scale(0.1 -0.1)">
      <defs>
       <path d="M 2188 4044 
L 1331 1722 
L 3047 1722 
L 2188 4044 
z
M 1831 4666 
L 2547 4666 
L 4325 0 
L 3669 0 
L 3244 1197 
L 1141 1197 
L 716 0 
L 50 0 
L 1831 4666 
z
" id="DejaVuSans-41" transform="scale(0.015625)"/>
       <path d="M 544 1381 
L 544 3500 
L 1119 3500 
L 1119 1403 
Q 1119 906 1312 657 
Q 1506 409 1894 409 
Q 2359 409 2629 706 
Q 2900 1003 2900 1516 
L 2900 3500 
L 3475 3500 
L 3475 0 
L 2900 0 
L 2900 538 
Q 2691 219 2414 64 
Q 2138 -91 1772 -91 
Q 1169 -91 856 284 
Q 544 659 544 1381 
z
M 1991 3584 
L 1991 3584 
z
" id="DejaVuSans-75" transform="scale(0.015625)"/>
       <path d="M 3122 3366 
L 3122 2828 
Q 2878 2963 2633 3030 
Q 2388 3097 2138 3097 
Q 1578 3097 1268 2742 
Q 959 2388 959 1747 
Q 959 1106 1268 751 
Q 1578 397 2138 397 
Q 2388 397 2633 464 
Q 2878 531 3122 666 
L 3122 134 
Q 2881 22 2623 -34 
Q 2366 -91 2075 -91 
Q 1284 -91 818 406 
Q 353 903 353 1747 
Q 353 2603 823 3093 
Q 1294 3584 2113 3584 
Q 2378 3584 2631 3529 
Q 2884 3475 3122 3366 
z
" id="DejaVuSans-63" transform="scale(0.015625)"/>
      </defs>
      <use xlink:href="#DejaVuSans-41"/>
      <use x="68.408203" xlink:href="#DejaVuSans-75"/>
      <use x="131.787109" xlink:href="#DejaVuSans-72"/>
      <use x="170.650391" xlink:href="#DejaVuSans-6f"/>
      <use x="231.832031" xlink:href="#DejaVuSans-63"/>
     </g>
    </g>
   </g>
   <g id="PolyCollection_1">
    <defs>
     <path d="M 73.832727 -241.083025 
L 73.832727 -116.686367 
L 75.464157 -142.927874 
L 77.095587 -121.888721 
L 78.727017 -168.832735 
L 80.358447 -165.877692 
L 81.989877 -134.325244 
L 83.621307 -148.807227 
L 85.252736 -136.975608 
L 86.884166 -156.935716 
L 88.515596 -179.107263 
L 90.147026 -192.1698 
L 91.778456 -172.924667 
L 93.409886 -165.281918 
L 95.041316 -146.02405 
L 96.672746 -148.19376 
L 98.304175 -149.983885 
L 99.935605 -199.39613 
L 101.567035 -206.191123 
L 103.198465 -186.785616 
L 104.829895 -197.958047 
L 106.461325 -151.72836 
L 108.092755 -181.7714 
L 109.724185 -150.034054 
L 111.355614 -157.865618 
L 112.987044 -153.283443 
L 114.618474 -144.438805 
L 116.249904 -128.145315 
L 117.881334 -178.122501 
L 119.512764 -165.953897 
L 121.144194 -172.835449 
L 122.775624 -173.884852 
L 124.407053 -166.514083 
L 126.038483 -111.065213 
L 127.669913 -128.381478 
L 129.301343 -137.022188 
L 130.932773 -163.359299 
L 132.564203 -160.475127 
L 134.195633 -155.980015 
L 135.827063 -167.045064 
L 137.458492 -173.93267 
L 139.089922 -207.664095 
L 140.721352 -131.826637 
L 142.352782 -182.428823 
L 143.984212 -168.443356 
L 145.615642 -168.101525 
L 147.247072 -160.384559 
L 148.878502 -205.636274 
L 150.509931 -141.775977 
L 152.141361 -150.685698 
L 153.772791 -155.160909 
L 155.404221 -190.70705 
L 157.035651 -132.740474 
L 158.667081 -126.815391 
L 160.298511 -122.264324 
L 161.929941 -163.533032 
L 163.56137 -179.472836 
L 165.1928 -178.519966 
L 166.82423 -204.007363 
L 168.45566 -165.43289 
L 170.08709 -180.068692 
L 171.71852 -168.683691 
L 173.34995 -157.008449 
L 174.98138 -162.831765 
L 176.61281 -153.946506 
L 178.244239 -165.207219 
L 179.875669 -123.545562 
L 181.507099 -140.150429 
L 183.138529 -169.859128 
L 184.769959 -186.730474 
L 186.401389 -184.641779 
L 188.032819 -140.649926 
L 189.664249 -198.017468 
L 191.295678 -153.174985 
L 192.927108 -165.179536 
L 194.558538 -161.001722 
L 196.189968 -50.112 
L 197.821398 -164.450653 
L 199.452828 -177.919764 
L 201.084258 -143.028127 
L 202.715688 -175.424663 
L 204.347117 -166.132368 
L 205.978547 -159.501065 
L 207.609977 -170.287248 
L 209.241407 -162.993587 
L 210.872837 -171.412718 
L 212.504267 -182.186125 
L 214.135697 -182.435195 
L 215.767127 -194.100892 
L 217.398556 -180.011008 
L 219.029986 -128.541602 
L 220.661416 -174.226355 
L 222.292846 -175.422824 
L 223.924276 -104.658355 
L 225.555706 -168.389124 
L 227.187136 -205.792687 
L 228.818566 -155.891726 
L 230.449995 -143.64158 
L 232.081425 -132.499225 
L 233.712855 -155.690458 
L 235.344285 -161.822234 
L 236.975715 -182.794871 
L 238.607145 -175.079434 
L 240.238575 -151.781358 
L 241.870005 -139.48274 
L 243.501434 -123.251545 
L 245.132864 -160.907514 
L 246.764294 -189.930341 
L 248.395724 -171.033549 
L 250.027154 -165.406293 
L 251.658584 -167.303591 
L 253.290014 -174.891487 
L 254.921444 -133.862466 
L 256.552873 -120.167628 
L 258.184303 -156.323133 
L 259.815733 -99.266862 
L 261.447163 -185.125445 
L 263.078593 -165.874265 
L 264.710023 -147.878675 
L 266.341453 -146.929319 
L 267.972883 -186.105081 
L 269.604312 -128.622251 
L 271.235742 -158.741183 
L 272.867172 -174.186747 
L 274.498602 -148.535225 
L 276.130032 -182.788244 
L 277.761462 -179.647696 
L 279.392892 -172.595122 
L 281.024322 -143.261571 
L 282.655751 -171.926804 
L 284.287181 -194.183938 
L 285.918611 -152.38128 
L 287.550041 -182.702947 
L 289.181471 -186.366677 
L 290.812901 -181.305084 
L 292.444331 -174.873806 
L 294.075761 -118.402876 
L 295.70719 -144.000897 
L 297.33862 -146.316929 
L 298.97005 -178.706035 
L 300.60148 -156.512719 
L 302.23291 -165.752562 
L 303.86434 -159.274306 
L 305.49577 -187.414407 
L 307.1272 -196.267599 
L 308.75863 -141.034099 
L 310.390059 -182.439204 
L 312.021489 -182.198896 
L 313.652919 -162.287405 
L 315.284349 -187.779209 
L 316.915779 -140.864812 
L 318.547209 -160.9265 
L 320.178639 -149.538201 
L 321.810069 -142.375865 
L 323.441498 -179.382223 
L 325.072928 -118.146941 
L 326.704358 -171.106403 
L 328.335788 -160.544806 
L 329.967218 -104.4771 
L 331.598648 -145.070553 
L 333.230078 -142.783472 
L 334.861508 -167.539338 
L 336.492937 -185.636094 
L 338.124367 -164.18608 
L 339.755797 -155.780446 
L 341.387227 -132.480482 
L 343.018657 -149.22945 
L 344.650087 -160.026196 
L 346.281517 -177.185665 
L 347.912947 -168.77643 
L 349.544376 -201.314073 
L 351.175806 -155.599351 
L 352.807236 -122.980096 
L 354.438666 -145.883522 
L 356.070096 -196.303042 
L 357.701526 -126.692013 
L 359.332956 -167.264565 
L 360.964386 -115.584874 
L 362.595815 -182.867839 
L 364.227245 -170.161863 
L 365.858675 -144.495642 
L 367.490105 -184.44197 
L 369.121535 -147.450318 
L 370.752965 -166.393423 
L 372.384395 -159.18079 
L 374.015825 -166.625174 
L 375.647254 -172.219415 
L 377.278684 -187.634142 
L 378.910114 -199.564653 
L 380.541544 -169.421118 
L 382.172974 -188.042528 
L 383.804404 -170.899958 
L 385.435834 -171.321675 
L 387.067264 -134.525132 
L 388.698693 -140.186672 
L 390.330123 -201.128304 
L 391.961553 -191.688325 
L 393.592983 -107.904101 
L 395.224413 -160.697439 
L 396.855843 -176.068 
L 398.487273 -200.043526 
L 398.487273 -212.749435 
L 398.487273 -212.749435 
L 396.855843 -237.420554 
L 395.224413 -223.618105 
L 393.592983 -246.97602 
L 391.961553 -267.885207 
L 390.330123 -264.872066 
L 388.698693 -211.726591 
L 387.067264 -264.727582 
L 385.435834 -278.011898 
L 383.804404 -254.983656 
L 382.172974 -236.906521 
L 380.541544 -233.61342 
L 378.910114 -252.330652 
L 377.278684 -231.698557 
L 375.647254 -225.307035 
L 374.015825 -228.51874 
L 372.384395 -253.199748 
L 370.752965 -228.044556 
L 369.121535 -223.006296 
L 367.490105 -278.98347 
L 365.858675 -207.174551 
L 364.227245 -248.571342 
L 362.595815 -292.032 
L 360.964386 -231.116142 
L 359.332956 -270.88648 
L 357.701526 -247.189021 
L 356.070096 -236.630916 
L 354.438666 -228.989181 
L 352.807236 -224.673794 
L 351.175806 -243.494823 
L 349.544376 -237.988893 
L 347.912947 -254.74574 
L 346.281517 -223.264118 
L 344.650087 -229.664521 
L 343.018657 -249.623195 
L 341.387227 -256.518368 
L 339.755797 -227.462179 
L 338.124367 -216.544927 
L 336.492937 -244.315107 
L 334.861508 -241.507275 
L 333.230078 -245.64283 
L 331.598648 -223.064688 
L 329.967218 -204.495018 
L 328.335788 -251.29673 
L 326.704358 -246.449093 
L 325.072928 -215.985356 
L 323.441498 -262.59244 
L 321.810069 -255.869335 
L 320.178639 -263.639374 
L 318.547209 -223.441851 
L 316.915779 -255.811884 
L 315.284349 -221.727531 
L 313.652919 -209.666932 
L 312.021489 -261.060857 
L 310.390059 -239.670264 
L 308.75863 -265.308767 
L 307.1272 -258.065724 
L 305.49577 -247.417161 
L 303.86434 -214.602749 
L 302.23291 -243.618308 
L 300.60148 -247.810571 
L 298.97005 -254.334533 
L 297.33862 -198.992167 
L 295.70719 -219.806249 
L 294.075761 -275.113018 
L 292.444331 -271.44254 
L 290.812901 -225.865301 
L 289.181471 -234.594694 
L 287.550041 -250.988718 
L 285.918611 -268.689902 
L 284.287181 -278.159915 
L 282.655751 -263.653535 
L 281.024322 -240.867925 
L 279.392892 -252.501299 
L 277.761462 -218.585413 
L 276.130032 -251.552715 
L 274.498602 -254.451618 
L 272.867172 -255.297339 
L 271.235742 -256.642379 
L 269.604312 -241.449413 
L 267.972883 -251.363088 
L 266.341453 -238.401288 
L 264.710023 -245.70626 
L 263.078593 -223.567227 
L 261.447163 -246.043499 
L 259.815733 -229.567161 
L 258.184303 -254.173364 
L 256.552873 -241.30183 
L 254.921444 -244.872278 
L 253.290014 -221.22759 
L 251.658584 -266.685357 
L 250.027154 -256.73507 
L 248.395724 -251.433911 
L 246.764294 -218.812346 
L 245.132864 -249.067094 
L 243.501434 -252.112465 
L 241.870005 -194.577634 
L 240.238575 -242.061766 
L 238.607145 -240.384989 
L 236.975715 -240.59307 
L 235.344285 -195.561374 
L 233.712855 -237.045295 
L 232.081425 -259.562698 
L 230.449995 -242.122505 
L 228.818566 -271.126905 
L 227.187136 -255.53916 
L 225.555706 -231.937125 
L 223.924276 -269.711892 
L 222.292846 -223.151509 
L 220.661416 -280.53693 
L 219.029986 -231.475045 
L 217.398556 -229.226177 
L 215.767127 -251.137939 
L 214.135697 -263.545609 
L 212.504267 -219.354796 
L 210.872837 -220.448075 
L 209.241407 -258.16877 
L 207.609977 -265.314808 
L 205.978547 -225.372706 
L 204.347117 -192.17055 
L 202.715688 -218.636841 
L 201.084258 -242.005859 
L 199.452828 -263.874444 
L 197.821398 -219.356706 
L 196.189968 -202.736763 
L 194.558538 -196.203505 
L 192.927108 -241.117448 
L 191.295678 -230.437524 
L 189.664249 -258.732037 
L 188.032819 -242.169735 
L 186.401389 -258.093457 
L 184.769959 -278.480554 
L 183.138529 -209.907067 
L 181.507099 -248.174401 
L 179.875669 -236.246107 
L 178.244239 -257.9793 
L 176.61281 -253.194231 
L 174.98138 -232.404266 
L 173.34995 -249.193626 
L 171.71852 -203.755989 
L 170.08709 -231.258695 
L 168.45566 -243.870544 
L 166.82423 -234.392371 
L 165.1928 -228.278712 
L 163.56137 -256.929901 
L 161.929941 -270.864486 
L 160.298511 -225.975067 
L 158.667081 -241.316298 
L 157.035651 -246.552596 
L 155.404221 -219.057653 
L 153.772791 -250.831324 
L 152.141361 -183.762371 
L 150.509931 -239.012406 
L 148.878502 -235.955044 
L 147.247072 -244.845669 
L 145.615642 -237.704396 
L 143.984212 -240.335388 
L 142.352782 -230.932082 
L 140.721352 -222.97547 
L 139.089922 -242.982032 
L 137.458492 -227.879736 
L 135.827063 -243.72339 
L 134.195633 -226.187398 
L 132.564203 -225.299391 
L 130.932773 -262.385572 
L 129.301343 -249.754731 
L 127.669913 -271.799991 
L 126.038483 -248.826522 
L 124.407053 -242.505964 
L 122.775624 -273.537188 
L 121.144194 -224.37395 
L 119.512764 -225.530076 
L 117.881334 -258.501045 
L 116.249904 -224.066182 
L 114.618474 -247.271497 
L 112.987044 -233.420801 
L 111.355614 -222.220094 
L 109.724185 -256.501994 
L 108.092755 -237.122382 
L 106.461325 -244.595138 
L 104.829895 -262.114769 
L 103.198465 -268.735785 
L 101.567035 -226.798216 
L 99.935605 -257.060027 
L 98.304175 -276.570522 
L 96.672746 -219.140655 
L 95.041316 -254.808616 
L 93.409886 -208.55927 
L 91.778456 -227.74103 
L 90.147026 -262.181941 
L 88.515596 -243.784331 
L 86.884166 -242.145016 
L 85.252736 -247.31801 
L 83.621307 -262.087516 
L 81.989877 -219.229769 
L 80.358447 -249.792294 
L 78.727017 -243.435192 
L 77.095587 -198.993649 
L 75.464157 -274.832641 
L 73.832727 -241.083025 
z
" id="mfc59e0a448" style="stroke:#ffffff;stroke-opacity:0.2;"/>
    </defs>
    <g clip-path="url(#p84cf3b3b96)">
     <use style="fill:#1f77b4;fill-opacity:0.2;stroke:#ffffff;stroke-opacity:0.2;" x="0" xlink:href="#mfc59e0a448" y="345.6"/>
    </g>
   </g>
   <g id="LineCollection_1">
    <path clip-path="url(#p84cf3b3b96)" d="M 398.487273 295.488 
L 398.487273 53.568 
" style="fill:none;stroke:#1f77b4;stroke-dasharray:5.55,2.4;stroke-dashoffset:0;stroke-width:1.5;"/>
   </g>
   <g id="line2d_15">
    <path clip-path="url(#p84cf3b3b96)" d="M 73.832727 166.715304 
L 75.464157 136.719742 
L 77.095587 185.158815 
L 78.727017 139.466037 
L 80.358447 137.765007 
L 81.989877 168.822493 
L 83.621307 140.152628 
L 85.252736 153.453191 
L 86.884166 146.059634 
L 88.515596 134.154203 
L 90.147026 118.424129 
L 91.778456 145.267151 
L 93.409886 158.679406 
L 95.041316 145.183667 
L 96.672746 161.932792 
L 98.304175 132.322796 
L 99.935605 117.371922 
L 101.567035 129.105331 
L 103.198465 117.8393 
L 104.829895 115.563592 
L 106.461325 147.438251 
L 108.092755 136.153109 
L 109.724185 142.331976 
L 111.355614 155.557144 
L 112.987044 152.247878 
L 114.618474 149.744849 
L 116.249904 169.494252 
L 117.881334 127.288227 
L 119.512764 149.858013 
L 121.144194 146.995301 
L 122.775624 121.88898 
L 124.407053 141.089977 
L 126.038483 165.654132 
L 127.669913 145.509265 
L 129.301343 152.21154 
L 130.932773 132.727564 
L 132.564203 152.712741 
L 134.195633 154.516294 
L 135.827063 140.215773 
L 137.458492 144.693797 
L 139.089922 120.276936 
L 140.721352 168.198946 
L 142.352782 138.919548 
L 143.984212 141.210628 
L 145.615642 142.697039 
L 147.247072 142.984886 
L 148.878502 124.804341 
L 150.509931 155.205809 
L 152.141361 178.375965 
L 153.772791 142.603884 
L 155.404221 140.717649 
L 157.035651 155.953465 
L 158.667081 161.534156 
L 160.298511 171.480304 
L 161.929941 128.401241 
L 163.56137 127.398632 
L 165.1928 142.200661 
L 166.82423 126.400133 
L 168.45566 140.948283 
L 170.08709 139.936306 
L 171.71852 159.38016 
L 173.34995 142.498963 
L 174.98138 147.981985 
L 176.61281 142.029632 
L 178.244239 134.00674 
L 179.875669 165.704166 
L 181.507099 151.437585 
L 183.138529 155.716902 
L 184.769959 112.994486 
L 186.401389 124.232382 
L 188.032819 154.19017 
L 189.664249 117.225247 
L 191.295678 153.793745 
L 192.927108 142.451508 
L 194.558538 166.997386 
L 196.189968 219.175618 
L 197.821398 153.69632 
L 199.452828 124.702896 
L 201.084258 153.083007 
L 202.715688 148.569248 
L 204.347117 166.448541 
L 205.978547 153.163115 
L 207.609977 127.798972 
L 209.241407 135.018821 
L 210.872837 149.669604 
L 212.504267 144.82954 
L 214.135697 122.609598 
L 215.767127 122.980584 
L 217.398556 140.981408 
L 219.029986 165.591676 
L 220.661416 118.218358 
L 222.292846 146.312833 
L 223.924276 158.414876 
L 225.555706 145.436876 
L 227.187136 114.934077 
L 228.818566 132.090684 
L 230.449995 152.717957 
L 232.081425 149.569038 
L 233.712855 149.232124 
L 235.344285 166.908196 
L 236.975715 133.90603 
L 238.607145 137.867789 
L 240.238575 148.678438 
L 241.870005 178.569813 
L 243.501434 157.917995 
L 245.132864 140.612696 
L 246.764294 141.228656 
L 248.395724 134.36627 
L 250.027154 134.529318 
L 251.658584 128.605526 
L 253.290014 147.540462 
L 256.552873 164.865271 
L 258.184303 140.351752 
L 259.815733 181.182989 
L 261.447163 130.015528 
L 263.078593 150.879254 
L 264.710023 148.807532 
L 266.341453 152.934696 
L 267.972883 126.865915 
L 269.604312 160.564168 
L 271.235742 137.908219 
L 272.867172 130.857957 
L 274.498602 144.106579 
L 276.130032 128.429521 
L 277.761462 146.483445 
L 279.392892 133.05179 
L 281.024322 153.535252 
L 282.655751 127.809831 
L 284.287181 109.428073 
L 285.918611 135.064409 
L 287.550041 128.754167 
L 289.181471 135.119314 
L 290.812901 142.014807 
L 292.444331 122.441827 
L 294.075761 148.842053 
L 295.70719 163.696427 
L 297.33862 172.945452 
L 298.97005 129.079716 
L 300.60148 143.438355 
L 302.23291 140.914565 
L 303.86434 158.661473 
L 305.49577 128.184216 
L 307.1272 118.433339 
L 308.75863 142.428567 
L 310.390059 134.545266 
L 312.021489 123.970123 
L 313.652919 159.622832 
L 315.284349 140.84663 
L 318.547209 153.415825 
L 320.178639 139.011212 
L 321.810069 146.4774 
L 323.441498 124.612668 
L 325.072928 178.533852 
L 326.704358 136.822252 
L 328.335788 139.679232 
L 329.967218 191.113941 
L 331.598648 161.532379 
L 336.492937 130.6244 
L 338.124367 155.234496 
L 339.755797 153.978688 
L 341.387227 151.100575 
L 343.018657 146.173677 
L 344.650087 150.754642 
L 346.281517 145.375109 
L 347.912947 133.838915 
L 349.544376 125.948517 
L 351.175806 146.052913 
L 352.807236 171.773055 
L 354.438666 158.163649 
L 356.070096 129.133021 
L 357.701526 158.659483 
L 359.332956 126.524478 
L 360.964386 172.249492 
L 362.595815 108.15008 
L 364.227245 136.233398 
L 365.858675 169.764904 
L 367.490105 113.88728 
L 369.121535 160.371693 
L 370.752965 148.381011 
L 372.384395 139.409731 
L 374.015825 148.028043 
L 375.647254 146.836775 
L 377.278684 135.93365 
L 378.910114 119.652347 
L 380.541544 144.082731 
L 382.172974 133.125476 
L 383.804404 132.658193 
L 385.435834 120.933213 
L 388.698693 169.643369 
L 390.330123 112.599815 
L 391.961553 115.813234 
L 393.592983 168.159939 
L 396.855843 138.855723 
L 398.487273 139.203519 
L 398.487273 139.203519 
" style="fill:none;stroke:#1f77b4;stroke-linecap:round;stroke-width:1.5;"/>
   </g>
   <g id="patch_3">
    <path d="M 57.6 307.584 
L 57.6 41.472 
" style="fill:none;stroke:#cccccc;stroke-linecap:square;stroke-linejoin:miter;stroke-width:0.8;"/>
   </g>
   <g id="patch_4">
    <path d="M 414.72 307.584 
L 414.72 41.472 
" style="fill:none;stroke:#cccccc;stroke-linecap:square;stroke-linejoin:miter;stroke-width:0.8;"/>
   </g>
   <g id="patch_5">
    <path d="M 57.6 307.584 
L 414.72 307.584 
" style="fill:none;stroke:#cccccc;stroke-linecap:square;stroke-linejoin:miter;stroke-width:0.8;"/>
   </g>
   <g id="patch_6">
    <path d="M 57.6 41.472 
L 414.72 41.472 
" style="fill:none;stroke:#cccccc;stroke-linecap:square;stroke-linejoin:miter;stroke-width:0.8;"/>
   </g>
   <g id="text_17">
    <!-- Model performance vs. # of iterations -->
    <g style="fill:#262626;" transform="translate(122.314688 35.472)scale(0.12 -0.12)">
     <defs>
      <path d="M 628 4666 
L 1569 4666 
L 2759 1491 
L 3956 4666 
L 4897 4666 
L 4897 0 
L 4281 0 
L 4281 4097 
L 3078 897 
L 2444 897 
L 1241 4097 
L 1241 0 
L 628 0 
L 628 4666 
z
" id="DejaVuSans-4d" transform="scale(0.015625)"/>
      <path d="M 2906 2969 
L 2906 4863 
L 3481 4863 
L 3481 0 
L 2906 0 
L 2906 525 
Q 2725 213 2448 61 
Q 2172 -91 1784 -91 
Q 1150 -91 751 415 
Q 353 922 353 1747 
Q 353 2572 751 3078 
Q 1150 3584 1784 3584 
Q 2172 3584 2448 3432 
Q 2725 3281 2906 2969 
z
M 947 1747 
Q 947 1113 1208 752 
Q 1469 391 1925 391 
Q 2381 391 2643 752 
Q 2906 1113 2906 1747 
Q 2906 2381 2643 2742 
Q 2381 3103 1925 3103 
Q 1469 3103 1208 2742 
Q 947 2381 947 1747 
z
" id="DejaVuSans-64" transform="scale(0.015625)"/>
      <path d="M 603 4863 
L 1178 4863 
L 1178 0 
L 603 0 
L 603 4863 
z
" id="DejaVuSans-6c" transform="scale(0.015625)"/>
      <path id="DejaVuSans-20" transform="scale(0.015625)"/>
      <path d="M 1159 525 
L 1159 -1331 
L 581 -1331 
L 581 3500 
L 1159 3500 
L 1159 2969 
Q 1341 3281 1617 3432 
Q 1894 3584 2278 3584 
Q 2916 3584 3314 3078 
Q 3713 2572 3713 1747 
Q 3713 922 3314 415 
Q 2916 -91 2278 -91 
Q 1894 -91 1617 61 
Q 1341 213 1159 525 
z
M 3116 1747 
Q 3116 2381 2855 2742 
Q 2594 3103 2138 3103 
Q 1681 3103 1420 2742 
Q 1159 2381 1159 1747 
Q 1159 1113 1420 752 
Q 1681 391 2138 391 
Q 2594 391 2855 752 
Q 3116 1113 3116 1747 
z
" id="DejaVuSans-70" transform="scale(0.015625)"/>
      <path d="M 2375 4863 
L 2375 4384 
L 1825 4384 
Q 1516 4384 1395 4259 
Q 1275 4134 1275 3809 
L 1275 3500 
L 2222 3500 
L 2222 3053 
L 1275 3053 
L 1275 0 
L 697 0 
L 697 3053 
L 147 3053 
L 147 3500 
L 697 3500 
L 697 3744 
Q 697 4328 969 4595 
Q 1241 4863 1831 4863 
L 2375 4863 
z
" id="DejaVuSans-66" transform="scale(0.015625)"/>
      <path d="M 3328 2828 
Q 3544 3216 3844 3400 
Q 4144 3584 4550 3584 
Q 5097 3584 5394 3201 
Q 5691 2819 5691 2113 
L 5691 0 
L 5113 0 
L 5113 2094 
Q 5113 2597 4934 2840 
Q 4756 3084 4391 3084 
Q 3944 3084 3684 2787 
Q 3425 2491 3425 1978 
L 3425 0 
L 2847 0 
L 2847 2094 
Q 2847 2600 2669 2842 
Q 2491 3084 2119 3084 
Q 1678 3084 1418 2786 
Q 1159 2488 1159 1978 
L 1159 0 
L 581 0 
L 581 3500 
L 1159 3500 
L 1159 2956 
Q 1356 3278 1631 3431 
Q 1906 3584 2284 3584 
Q 2666 3584 2933 3390 
Q 3200 3197 3328 2828 
z
" id="DejaVuSans-6d" transform="scale(0.015625)"/>
      <path d="M 191 3500 
L 800 3500 
L 1894 563 
L 2988 3500 
L 3597 3500 
L 2284 0 
L 1503 0 
L 191 3500 
z
" id="DejaVuSans-76" transform="scale(0.015625)"/>
      <path d="M 2834 3397 
L 2834 2853 
Q 2591 2978 2328 3040 
Q 2066 3103 1784 3103 
Q 1356 3103 1142 2972 
Q 928 2841 928 2578 
Q 928 2378 1081 2264 
Q 1234 2150 1697 2047 
L 1894 2003 
Q 2506 1872 2764 1633 
Q 3022 1394 3022 966 
Q 3022 478 2636 193 
Q 2250 -91 1575 -91 
Q 1294 -91 989 -36 
Q 684 19 347 128 
L 347 722 
Q 666 556 975 473 
Q 1284 391 1588 391 
Q 1994 391 2212 530 
Q 2431 669 2431 922 
Q 2431 1156 2273 1281 
Q 2116 1406 1581 1522 
L 1381 1569 
Q 847 1681 609 1914 
Q 372 2147 372 2553 
Q 372 3047 722 3315 
Q 1072 3584 1716 3584 
Q 2034 3584 2315 3537 
Q 2597 3491 2834 3397 
z
" id="DejaVuSans-73" transform="scale(0.015625)"/>
      <path d="M 3272 2816 
L 2363 2816 
L 2100 1772 
L 3016 1772 
L 3272 2816 
z
M 2803 4594 
L 2478 3297 
L 3391 3297 
L 3719 4594 
L 4219 4594 
L 3897 3297 
L 4872 3297 
L 4872 2816 
L 3775 2816 
L 3519 1772 
L 4513 1772 
L 4513 1294 
L 3397 1294 
L 3072 0 
L 2572 0 
L 2894 1294 
L 1978 1294 
L 1656 0 
L 1153 0 
L 1478 1294 
L 494 1294 
L 494 1772 
L 1594 1772 
L 1856 2816 
L 850 2816 
L 850 3297 
L 1978 3297 
L 2297 4594 
L 2803 4594 
z
" id="DejaVuSans-23" transform="scale(0.015625)"/>
     </defs>
     <use xlink:href="#DejaVuSans-4d"/>
     <use x="86.279297" xlink:href="#DejaVuSans-6f"/>
     <use x="147.460938" xlink:href="#DejaVuSans-64"/>
     <use x="210.9375" xlink:href="#DejaVuSans-65"/>
     <use x="272.460938" xlink:href="#DejaVuSans-6c"/>
     <use x="300.244141" xlink:href="#DejaVuSans-20"/>
     <use x="332.03125" xlink:href="#DejaVuSans-70"/>
     <use x="395.507812" xlink:href="#DejaVuSans-65"/>
     <use x="457.03125" xlink:href="#DejaVuSans-72"/>
     <use x="498.144531" xlink:href="#DejaVuSans-66"/>
     <use x="533.349609" xlink:href="#DejaVuSans-6f"/>
     <use x="594.53125" xlink:href="#DejaVuSans-72"/>
     <use x="633.894531" xlink:href="#DejaVuSans-6d"/>
     <use x="731.306641" xlink:href="#DejaVuSans-61"/>
     <use x="792.585938" xlink:href="#DejaVuSans-6e"/>
     <use x="855.964844" xlink:href="#DejaVuSans-63"/>
     <use x="910.945312" xlink:href="#DejaVuSans-65"/>
     <use x="972.46875" xlink:href="#DejaVuSans-20"/>
     <use x="1004.255859" xlink:href="#DejaVuSans-76"/>
     <use x="1063.435547" xlink:href="#DejaVuSans-73"/>
     <use x="1115.535156" xlink:href="#DejaVuSans-2e"/>
     <use x="1147.322266" xlink:href="#DejaVuSans-20"/>
     <use x="1179.109375" xlink:href="#DejaVuSans-23"/>
     <use x="1262.898438" xlink:href="#DejaVuSans-20"/>
     <use x="1294.685547" xlink:href="#DejaVuSans-6f"/>
     <use x="1355.867188" xlink:href="#DejaVuSans-66"/>
     <use x="1391.072266" xlink:href="#DejaVuSans-20"/>
     <use x="1422.859375" xlink:href="#DejaVuSans-69"/>
     <use x="1450.642578" xlink:href="#DejaVuSans-74"/>
     <use x="1489.851562" xlink:href="#DejaVuSans-65"/>
     <use x="1551.375" xlink:href="#DejaVuSans-72"/>
     <use x="1592.488281" xlink:href="#DejaVuSans-61"/>
     <use x="1653.767578" xlink:href="#DejaVuSans-74"/>
     <use x="1692.976562" xlink:href="#DejaVuSans-69"/>
     <use x="1720.759766" xlink:href="#DejaVuSans-6f"/>
     <use x="1781.941406" xlink:href="#DejaVuSans-6e"/>
     <use x="1845.320312" xlink:href="#DejaVuSans-73"/>
    </g>
   </g>
  </g>
 </g>
 <defs>
  <clipPath id="p84cf3b3b96">
   <rect height="266.112" width="357.12" x="57.6" y="41.472"/>
  </clipPath>
 </defs>
</svg>
