<?xml version="1.0" encoding="utf-8" standalone="no"?>
<!DOCTYPE svg PUBLIC "-//W3C//DTD SVG 1.1//EN"
  "http://www.w3.org/Graphics/SVG/1.1/DTD/svg11.dtd">
<svg height="345.6pt" version="1.1" viewBox="0 0 460.8 345.6" width="460.8pt" xmlns="http://www.w3.org/2000/svg" xmlns:xlink="http://www.w3.org/1999/xlink">
 <metadata>
  <rdf:RDF xmlns:cc="http://creativecommons.org/ns#" xmlns:dc="http://purl.org/dc/elements/1.1/" xmlns:rdf="http://www.w3.org/1999/02/22-rdf-syntax-ns#">
   <cc:Work>
    <dc:type rdf:resource="http://purl.org/dc/dcmitype/StillImage"/>
    <dc:date>2021-07-13T17:00:48.057289</dc:date>
    <dc:format>image/svg+xml</dc:format>
    <dc:creator>
     <cc:Agent>
      <dc:title>Matplotlib v3.4.2, https://matplotlib.org/</dc:title>
     </cc:Agent>
    </dc:creator>
   </cc:Work>
  </rdf:RDF>
 </metadata>
 <defs>
  <style type="text/css">*{stroke-linecap:butt;stroke-linejoin:round;}</style>
 </defs>
 <g id="figure_1">
  <g id="patch_1">
   <path d="M 0 345.6 
L 460.8 345.6 
L 460.8 0 
L 0 0 
z
" style="fill:#ffffff;"/>
  </g>
  <g id="axes_1">
   <g id="patch_2">
    <path d="M 57.6 307.584 
L 414.72 307.584 
L 414.72 41.472 
L 57.6 41.472 
z
" style="fill:#ffffff;"/>
   </g>
   <g id="matplotlib.axis_1">
    <g id="xtick_1">
     <g id="line2d_1">
      <path clip-path="url(#pf62f3381e9)" d="M 72.201297 307.584 
L 72.201297 41.472 
" style="fill:none;stroke:#cccccc;stroke-linecap:round;stroke-width:0.8;"/>
     </g>
     <g id="text_1">
      <!-- 0 -->
      <g style="fill:#262626;" transform="translate(69.020047 322.182437)scale(0.1 -0.1)">
       <defs>
        <path d="M 2034 4250 
Q 1547 4250 1301 3770 
Q 1056 3291 1056 2328 
Q 1056 1369 1301 889 
Q 1547 409 2034 409 
Q 2525 409 2770 889 
Q 3016 1369 3016 2328 
Q 3016 3291 2770 3770 
Q 2525 4250 2034 4250 
z
M 2034 4750 
Q 2819 4750 3233 4129 
Q 3647 3509 3647 2328 
Q 3647 1150 3233 529 
Q 2819 -91 2034 -91 
Q 1250 -91 836 529 
Q 422 1150 422 2328 
Q 422 3509 836 4129 
Q 1250 4750 2034 4750 
z
" id="DejaVuSans-30" transform="scale(0.015625)"/>
       </defs>
       <use xlink:href="#DejaVuSans-30"/>
      </g>
     </g>
    </g>
    <g id="xtick_2">
     <g id="line2d_2">
      <path clip-path="url(#pf62f3381e9)" d="M 112.987044 307.584 
L 112.987044 41.472 
" style="fill:none;stroke:#cccccc;stroke-linecap:round;stroke-width:0.8;"/>
     </g>
     <g id="text_2">
      <!-- 25 -->
      <g style="fill:#262626;" transform="translate(106.624544 322.182437)scale(0.1 -0.1)">
       <defs>
        <path d="M 1228 531 
L 3431 531 
L 3431 0 
L 469 0 
L 469 531 
Q 828 903 1448 1529 
Q 2069 2156 2228 2338 
Q 2531 2678 2651 2914 
Q 2772 3150 2772 3378 
Q 2772 3750 2511 3984 
Q 2250 4219 1831 4219 
Q 1534 4219 1204 4116 
Q 875 4013 500 3803 
L 500 4441 
Q 881 4594 1212 4672 
Q 1544 4750 1819 4750 
Q 2544 4750 2975 4387 
Q 3406 4025 3406 3419 
Q 3406 3131 3298 2873 
Q 3191 2616 2906 2266 
Q 2828 2175 2409 1742 
Q 1991 1309 1228 531 
z
" id="DejaVuSans-32" transform="scale(0.015625)"/>
        <path d="M 691 4666 
L 3169 4666 
L 3169 4134 
L 1269 4134 
L 1269 2991 
Q 1406 3038 1543 3061 
Q 1681 3084 1819 3084 
Q 2600 3084 3056 2656 
Q 3513 2228 3513 1497 
Q 3513 744 3044 326 
Q 2575 -91 1722 -91 
Q 1428 -91 1123 -41 
Q 819 9 494 109 
L 494 744 
Q 775 591 1075 516 
Q 1375 441 1709 441 
Q 2250 441 2565 725 
Q 2881 1009 2881 1497 
Q 2881 1984 2565 2268 
Q 2250 2553 1709 2553 
Q 1456 2553 1204 2497 
Q 953 2441 691 2322 
L 691 4666 
z
" id="DejaVuSans-35" transform="scale(0.015625)"/>
       </defs>
       <use xlink:href="#DejaVuSans-32"/>
       <use x="63.623047" xlink:href="#DejaVuSans-35"/>
      </g>
     </g>
    </g>
    <g id="xtick_3">
     <g id="line2d_3">
      <path clip-path="url(#pf62f3381e9)" d="M 153.772791 307.584 
L 153.772791 41.472 
" style="fill:none;stroke:#cccccc;stroke-linecap:round;stroke-width:0.8;"/>
     </g>
     <g id="text_3">
      <!-- 50 -->
      <g style="fill:#262626;" transform="translate(147.410291 322.182437)scale(0.1 -0.1)">
       <use xlink:href="#DejaVuSans-35"/>
       <use x="63.623047" xlink:href="#DejaVuSans-30"/>
      </g>
     </g>
    </g>
    <g id="xtick_4">
     <g id="line2d_4">
      <path clip-path="url(#pf62f3381e9)" d="M 194.558538 307.584 
L 194.558538 41.472 
" style="fill:none;stroke:#cccccc;stroke-linecap:round;stroke-width:0.8;"/>
     </g>
     <g id="text_4">
      <!-- 75 -->
      <g style="fill:#262626;" transform="translate(188.196038 322.182437)scale(0.1 -0.1)">
       <defs>
        <path d="M 525 4666 
L 3525 4666 
L 3525 4397 
L 1831 0 
L 1172 0 
L 2766 4134 
L 525 4134 
L 525 4666 
z
" id="DejaVuSans-37" transform="scale(0.015625)"/>
       </defs>
       <use xlink:href="#DejaVuSans-37"/>
       <use x="63.623047" xlink:href="#DejaVuSans-35"/>
      </g>
     </g>
    </g>
    <g id="xtick_5">
     <g id="line2d_5">
      <path clip-path="url(#pf62f3381e9)" d="M 235.344285 307.584 
L 235.344285 41.472 
" style="fill:none;stroke:#cccccc;stroke-linecap:round;stroke-width:0.8;"/>
     </g>
     <g id="text_5">
      <!-- 100 -->
      <g style="fill:#262626;" transform="translate(225.800535 322.182437)scale(0.1 -0.1)">
       <defs>
        <path d="M 794 531 
L 1825 531 
L 1825 4091 
L 703 3866 
L 703 4441 
L 1819 4666 
L 2450 4666 
L 2450 531 
L 3481 531 
L 3481 0 
L 794 0 
L 794 531 
z
" id="DejaVuSans-31" transform="scale(0.015625)"/>
       </defs>
       <use xlink:href="#DejaVuSans-31"/>
       <use x="63.623047" xlink:href="#DejaVuSans-30"/>
       <use x="127.246094" xlink:href="#DejaVuSans-30"/>
      </g>
     </g>
    </g>
    <g id="xtick_6">
     <g id="line2d_6">
      <path clip-path="url(#pf62f3381e9)" d="M 276.130032 307.584 
L 276.130032 41.472 
" style="fill:none;stroke:#cccccc;stroke-linecap:round;stroke-width:0.8;"/>
     </g>
     <g id="text_6">
      <!-- 125 -->
      <g style="fill:#262626;" transform="translate(266.586282 322.182437)scale(0.1 -0.1)">
       <use xlink:href="#DejaVuSans-31"/>
       <use x="63.623047" xlink:href="#DejaVuSans-32"/>
       <use x="127.246094" xlink:href="#DejaVuSans-35"/>
      </g>
     </g>
    </g>
    <g id="xtick_7">
     <g id="line2d_7">
      <path clip-path="url(#pf62f3381e9)" d="M 316.915779 307.584 
L 316.915779 41.472 
" style="fill:none;stroke:#cccccc;stroke-linecap:round;stroke-width:0.8;"/>
     </g>
     <g id="text_7">
      <!-- 150 -->
      <g style="fill:#262626;" transform="translate(307.372029 322.182437)scale(0.1 -0.1)">
       <use xlink:href="#DejaVuSans-31"/>
       <use x="63.623047" xlink:href="#DejaVuSans-35"/>
       <use x="127.246094" xlink:href="#DejaVuSans-30"/>
      </g>
     </g>
    </g>
    <g id="xtick_8">
     <g id="line2d_8">
      <path clip-path="url(#pf62f3381e9)" d="M 357.701526 307.584 
L 357.701526 41.472 
" style="fill:none;stroke:#cccccc;stroke-linecap:round;stroke-width:0.8;"/>
     </g>
     <g id="text_8">
      <!-- 175 -->
      <g style="fill:#262626;" transform="translate(348.157776 322.182437)scale(0.1 -0.1)">
       <use xlink:href="#DejaVuSans-31"/>
       <use x="63.623047" xlink:href="#DejaVuSans-37"/>
       <use x="127.246094" xlink:href="#DejaVuSans-35"/>
      </g>
     </g>
    </g>
    <g id="xtick_9">
     <g id="line2d_9">
      <path clip-path="url(#pf62f3381e9)" d="M 398.487273 307.584 
L 398.487273 41.472 
" style="fill:none;stroke:#cccccc;stroke-linecap:round;stroke-width:0.8;"/>
     </g>
     <g id="text_9">
      <!-- 200 -->
      <g style="fill:#262626;" transform="translate(388.943523 322.182437)scale(0.1 -0.1)">
       <use xlink:href="#DejaVuSans-32"/>
       <use x="63.623047" xlink:href="#DejaVuSans-30"/>
       <use x="127.246094" xlink:href="#DejaVuSans-30"/>
      </g>
     </g>
    </g>
    <g id="text_10">
     <!-- Auroc -->
     <g style="fill:#262626;" transform="translate(221.819375 335.860562)scale(0.1 -0.1)">
      <defs>
       <path d="M 2188 4044 
L 1331 1722 
L 3047 1722 
L 2188 4044 
z
M 1831 4666 
L 2547 4666 
L 4325 0 
L 3669 0 
L 3244 1197 
L 1141 1197 
L 716 0 
L 50 0 
L 1831 4666 
z
" id="DejaVuSans-41" transform="scale(0.015625)"/>
       <path d="M 544 1381 
L 544 3500 
L 1119 3500 
L 1119 1403 
Q 1119 906 1312 657 
Q 1506 409 1894 409 
Q 2359 409 2629 706 
Q 2900 1003 2900 1516 
L 2900 3500 
L 3475 3500 
L 3475 0 
L 2900 0 
L 2900 538 
Q 2691 219 2414 64 
Q 2138 -91 1772 -91 
Q 1169 -91 856 284 
Q 544 659 544 1381 
z
M 1991 3584 
L 1991 3584 
z
" id="DejaVuSans-75" transform="scale(0.015625)"/>
       <path d="M 2631 2963 
Q 2534 3019 2420 3045 
Q 2306 3072 2169 3072 
Q 1681 3072 1420 2755 
Q 1159 2438 1159 1844 
L 1159 0 
L 581 0 
L 581 3500 
L 1159 3500 
L 1159 2956 
Q 1341 3275 1631 3429 
Q 1922 3584 2338 3584 
Q 2397 3584 2469 3576 
Q 2541 3569 2628 3553 
L 2631 2963 
z
" id="DejaVuSans-72" transform="scale(0.015625)"/>
       <path d="M 1959 3097 
Q 1497 3097 1228 2736 
Q 959 2375 959 1747 
Q 959 1119 1226 758 
Q 1494 397 1959 397 
Q 2419 397 2687 759 
Q 2956 1122 2956 1747 
Q 2956 2369 2687 2733 
Q 2419 3097 1959 3097 
z
M 1959 3584 
Q 2709 3584 3137 3096 
Q 3566 2609 3566 1747 
Q 3566 888 3137 398 
Q 2709 -91 1959 -91 
Q 1206 -91 779 398 
Q 353 888 353 1747 
Q 353 2609 779 3096 
Q 1206 3584 1959 3584 
z
" id="DejaVuSans-6f" transform="scale(0.015625)"/>
       <path d="M 3122 3366 
L 3122 2828 
Q 2878 2963 2633 3030 
Q 2388 3097 2138 3097 
Q 1578 3097 1268 2742 
Q 959 2388 959 1747 
Q 959 1106 1268 751 
Q 1578 397 2138 397 
Q 2388 397 2633 464 
Q 2878 531 3122 666 
L 3122 134 
Q 2881 22 2623 -34 
Q 2366 -91 2075 -91 
Q 1284 -91 818 406 
Q 353 903 353 1747 
Q 353 2603 823 3093 
Q 1294 3584 2113 3584 
Q 2378 3584 2631 3529 
Q 2884 3475 3122 3366 
z
" id="DejaVuSans-63" transform="scale(0.015625)"/>
      </defs>
      <use xlink:href="#DejaVuSans-41"/>
      <use x="68.408203" xlink:href="#DejaVuSans-75"/>
      <use x="131.787109" xlink:href="#DejaVuSans-72"/>
      <use x="170.650391" xlink:href="#DejaVuSans-6f"/>
      <use x="231.832031" xlink:href="#DejaVuSans-63"/>
     </g>
    </g>
   </g>
   <g id="matplotlib.axis_2">
    <g id="ytick_1">
     <g id="line2d_10">
      <path clip-path="url(#pf62f3381e9)" d="M 57.6 283.070579 
L 414.72 283.070579 
" style="fill:none;stroke:#cccccc;stroke-linecap:round;stroke-width:0.8;"/>
     </g>
     <g id="text_11">
      <!-- 0.50 -->
      <g style="fill:#262626;" transform="translate(28.334375 286.869798)scale(0.1 -0.1)">
       <defs>
        <path d="M 684 794 
L 1344 794 
L 1344 0 
L 684 0 
L 684 794 
z
" id="DejaVuSans-2e" transform="scale(0.015625)"/>
       </defs>
       <use xlink:href="#DejaVuSans-30"/>
       <use x="63.623047" xlink:href="#DejaVuSans-2e"/>
       <use x="95.410156" xlink:href="#DejaVuSans-35"/>
       <use x="159.033203" xlink:href="#DejaVuSans-30"/>
      </g>
     </g>
    </g>
    <g id="ytick_2">
     <g id="line2d_11">
      <path clip-path="url(#pf62f3381e9)" d="M 57.6 250.560183 
L 414.72 250.560183 
" style="fill:none;stroke:#cccccc;stroke-linecap:round;stroke-width:0.8;"/>
     </g>
     <g id="text_12">
      <!-- 0.55 -->
      <g style="fill:#262626;" transform="translate(28.334375 254.359402)scale(0.1 -0.1)">
       <use xlink:href="#DejaVuSans-30"/>
       <use x="63.623047" xlink:href="#DejaVuSans-2e"/>
       <use x="95.410156" xlink:href="#DejaVuSans-35"/>
       <use x="159.033203" xlink:href="#DejaVuSans-35"/>
      </g>
     </g>
    </g>
    <g id="ytick_3">
     <g id="line2d_12">
      <path clip-path="url(#pf62f3381e9)" d="M 57.6 218.049787 
L 414.72 218.049787 
" style="fill:none;stroke:#cccccc;stroke-linecap:round;stroke-width:0.8;"/>
     </g>
     <g id="text_13">
      <!-- 0.60 -->
      <g style="fill:#262626;" transform="translate(28.334375 221.849006)scale(0.1 -0.1)">
       <defs>
        <path d="M 2113 2584 
Q 1688 2584 1439 2293 
Q 1191 2003 1191 1497 
Q 1191 994 1439 701 
Q 1688 409 2113 409 
Q 2538 409 2786 701 
Q 3034 994 3034 1497 
Q 3034 2003 2786 2293 
Q 2538 2584 2113 2584 
z
M 3366 4563 
L 3366 3988 
Q 3128 4100 2886 4159 
Q 2644 4219 2406 4219 
Q 1781 4219 1451 3797 
Q 1122 3375 1075 2522 
Q 1259 2794 1537 2939 
Q 1816 3084 2150 3084 
Q 2853 3084 3261 2657 
Q 3669 2231 3669 1497 
Q 3669 778 3244 343 
Q 2819 -91 2113 -91 
Q 1303 -91 875 529 
Q 447 1150 447 2328 
Q 447 3434 972 4092 
Q 1497 4750 2381 4750 
Q 2619 4750 2861 4703 
Q 3103 4656 3366 4563 
z
" id="DejaVuSans-36" transform="scale(0.015625)"/>
       </defs>
       <use xlink:href="#DejaVuSans-30"/>
       <use x="63.623047" xlink:href="#DejaVuSans-2e"/>
       <use x="95.410156" xlink:href="#DejaVuSans-36"/>
       <use x="159.033203" xlink:href="#DejaVuSans-30"/>
      </g>
     </g>
    </g>
    <g id="ytick_4">
     <g id="line2d_13">
      <path clip-path="url(#pf62f3381e9)" d="M 57.6 185.539392 
L 414.72 185.539392 
" style="fill:none;stroke:#cccccc;stroke-linecap:round;stroke-width:0.8;"/>
     </g>
     <g id="text_14">
      <!-- 0.65 -->
      <g style="fill:#262626;" transform="translate(28.334375 189.33861)scale(0.1 -0.1)">
       <use xlink:href="#DejaVuSans-30"/>
       <use x="63.623047" xlink:href="#DejaVuSans-2e"/>
       <use x="95.410156" xlink:href="#DejaVuSans-36"/>
       <use x="159.033203" xlink:href="#DejaVuSans-35"/>
      </g>
     </g>
    </g>
    <g id="ytick_5">
     <g id="line2d_14">
      <path clip-path="url(#pf62f3381e9)" d="M 57.6 153.028996 
L 414.72 153.028996 
" style="fill:none;stroke:#cccccc;stroke-linecap:round;stroke-width:0.8;"/>
     </g>
     <g id="text_15">
      <!-- 0.70 -->
      <g style="fill:#262626;" transform="translate(28.334375 156.828215)scale(0.1 -0.1)">
       <use xlink:href="#DejaVuSans-30"/>
       <use x="63.623047" xlink:href="#DejaVuSans-2e"/>
       <use x="95.410156" xlink:href="#DejaVuSans-37"/>
       <use x="159.033203" xlink:href="#DejaVuSans-30"/>
      </g>
     </g>
    </g>
    <g id="ytick_6">
     <g id="line2d_15">
      <path clip-path="url(#pf62f3381e9)" d="M 57.6 120.5186 
L 414.72 120.5186 
" style="fill:none;stroke:#cccccc;stroke-linecap:round;stroke-width:0.8;"/>
     </g>
     <g id="text_16">
      <!-- 0.75 -->
      <g style="fill:#262626;" transform="translate(28.334375 124.317819)scale(0.1 -0.1)">
       <use xlink:href="#DejaVuSans-30"/>
       <use x="63.623047" xlink:href="#DejaVuSans-2e"/>
       <use x="95.410156" xlink:href="#DejaVuSans-37"/>
       <use x="159.033203" xlink:href="#DejaVuSans-35"/>
      </g>
     </g>
    </g>
    <g id="ytick_7">
     <g id="line2d_16">
      <path clip-path="url(#pf62f3381e9)" d="M 57.6 88.008204 
L 414.72 88.008204 
" style="fill:none;stroke:#cccccc;stroke-linecap:round;stroke-width:0.8;"/>
     </g>
     <g id="text_17">
      <!-- 0.80 -->
      <g style="fill:#262626;" transform="translate(28.334375 91.807423)scale(0.1 -0.1)">
       <defs>
        <path d="M 2034 2216 
Q 1584 2216 1326 1975 
Q 1069 1734 1069 1313 
Q 1069 891 1326 650 
Q 1584 409 2034 409 
Q 2484 409 2743 651 
Q 3003 894 3003 1313 
Q 3003 1734 2745 1975 
Q 2488 2216 2034 2216 
z
M 1403 2484 
Q 997 2584 770 2862 
Q 544 3141 544 3541 
Q 544 4100 942 4425 
Q 1341 4750 2034 4750 
Q 2731 4750 3128 4425 
Q 3525 4100 3525 3541 
Q 3525 3141 3298 2862 
Q 3072 2584 2669 2484 
Q 3125 2378 3379 2068 
Q 3634 1759 3634 1313 
Q 3634 634 3220 271 
Q 2806 -91 2034 -91 
Q 1263 -91 848 271 
Q 434 634 434 1313 
Q 434 1759 690 2068 
Q 947 2378 1403 2484 
z
M 1172 3481 
Q 1172 3119 1398 2916 
Q 1625 2713 2034 2713 
Q 2441 2713 2670 2916 
Q 2900 3119 2900 3481 
Q 2900 3844 2670 4047 
Q 2441 4250 2034 4250 
Q 1625 4250 1398 4047 
Q 1172 3844 1172 3481 
z
" id="DejaVuSans-38" transform="scale(0.015625)"/>
       </defs>
       <use xlink:href="#DejaVuSans-30"/>
       <use x="63.623047" xlink:href="#DejaVuSans-2e"/>
       <use x="95.410156" xlink:href="#DejaVuSans-38"/>
       <use x="159.033203" xlink:href="#DejaVuSans-30"/>
      </g>
     </g>
    </g>
    <g id="ytick_8">
     <g id="line2d_17">
      <path clip-path="url(#pf62f3381e9)" d="M 57.6 55.497809 
L 414.72 55.497809 
" style="fill:none;stroke:#cccccc;stroke-linecap:round;stroke-width:0.8;"/>
     </g>
     <g id="text_18">
      <!-- 0.85 -->
      <g style="fill:#262626;" transform="translate(28.334375 59.297027)scale(0.1 -0.1)">
       <use xlink:href="#DejaVuSans-30"/>
       <use x="63.623047" xlink:href="#DejaVuSans-2e"/>
       <use x="95.410156" xlink:href="#DejaVuSans-38"/>
       <use x="159.033203" xlink:href="#DejaVuSans-35"/>
      </g>
     </g>
    </g>
    <g id="text_19">
     <!-- Iteration -->
     <g style="fill:#262626;" transform="translate(22.254687 195.736594)rotate(-90)scale(0.1 -0.1)">
      <defs>
       <path d="M 628 4666 
L 1259 4666 
L 1259 0 
L 628 0 
L 628 4666 
z
" id="DejaVuSans-49" transform="scale(0.015625)"/>
       <path d="M 1172 4494 
L 1172 3500 
L 2356 3500 
L 2356 3053 
L 1172 3053 
L 1172 1153 
Q 1172 725 1289 603 
Q 1406 481 1766 481 
L 2356 481 
L 2356 0 
L 1766 0 
Q 1100 0 847 248 
Q 594 497 594 1153 
L 594 3053 
L 172 3053 
L 172 3500 
L 594 3500 
L 594 4494 
L 1172 4494 
z
" id="DejaVuSans-74" transform="scale(0.015625)"/>
       <path d="M 3597 1894 
L 3597 1613 
L 953 1613 
Q 991 1019 1311 708 
Q 1631 397 2203 397 
Q 2534 397 2845 478 
Q 3156 559 3463 722 
L 3463 178 
Q 3153 47 2828 -22 
Q 2503 -91 2169 -91 
Q 1331 -91 842 396 
Q 353 884 353 1716 
Q 353 2575 817 3079 
Q 1281 3584 2069 3584 
Q 2775 3584 3186 3129 
Q 3597 2675 3597 1894 
z
M 3022 2063 
Q 3016 2534 2758 2815 
Q 2500 3097 2075 3097 
Q 1594 3097 1305 2825 
Q 1016 2553 972 2059 
L 3022 2063 
z
" id="DejaVuSans-65" transform="scale(0.015625)"/>
       <path d="M 2194 1759 
Q 1497 1759 1228 1600 
Q 959 1441 959 1056 
Q 959 750 1161 570 
Q 1363 391 1709 391 
Q 2188 391 2477 730 
Q 2766 1069 2766 1631 
L 2766 1759 
L 2194 1759 
z
M 3341 1997 
L 3341 0 
L 2766 0 
L 2766 531 
Q 2569 213 2275 61 
Q 1981 -91 1556 -91 
Q 1019 -91 701 211 
Q 384 513 384 1019 
Q 384 1609 779 1909 
Q 1175 2209 1959 2209 
L 2766 2209 
L 2766 2266 
Q 2766 2663 2505 2880 
Q 2244 3097 1772 3097 
Q 1472 3097 1187 3025 
Q 903 2953 641 2809 
L 641 3341 
Q 956 3463 1253 3523 
Q 1550 3584 1831 3584 
Q 2591 3584 2966 3190 
Q 3341 2797 3341 1997 
z
" id="DejaVuSans-61" transform="scale(0.015625)"/>
       <path d="M 603 3500 
L 1178 3500 
L 1178 0 
L 603 0 
L 603 3500 
z
M 603 4863 
L 1178 4863 
L 1178 4134 
L 603 4134 
L 603 4863 
z
" id="DejaVuSans-69" transform="scale(0.015625)"/>
       <path d="M 3513 2113 
L 3513 0 
L 2938 0 
L 2938 2094 
Q 2938 2591 2744 2837 
Q 2550 3084 2163 3084 
Q 1697 3084 1428 2787 
Q 1159 2491 1159 1978 
L 1159 0 
L 581 0 
L 581 3500 
L 1159 3500 
L 1159 2956 
Q 1366 3272 1645 3428 
Q 1925 3584 2291 3584 
Q 2894 3584 3203 3211 
Q 3513 2838 3513 2113 
z
" id="DejaVuSans-6e" transform="scale(0.015625)"/>
      </defs>
      <use xlink:href="#DejaVuSans-49"/>
      <use x="29.492188" xlink:href="#DejaVuSans-74"/>
      <use x="68.701172" xlink:href="#DejaVuSans-65"/>
      <use x="130.224609" xlink:href="#DejaVuSans-72"/>
      <use x="171.337891" xlink:href="#DejaVuSans-61"/>
      <use x="232.617188" xlink:href="#DejaVuSans-74"/>
      <use x="271.826172" xlink:href="#DejaVuSans-69"/>
      <use x="299.609375" xlink:href="#DejaVuSans-6f"/>
      <use x="360.791016" xlink:href="#DejaVuSans-6e"/>
     </g>
    </g>
   </g>
   <g id="PolyCollection_1">
    <defs>
     <path d="M 73.832727 -292.032 
L 73.832727 -140.915656 
L 75.464157 -149.503864 
L 77.095587 -135.761367 
L 78.727017 -50.112 
L 80.358447 -116.629999 
L 81.989877 -221.451271 
L 83.621307 -71.388298 
L 85.252736 -58.161405 
L 86.884166 -65.781337 
L 88.515596 -139.269051 
L 90.147026 -133.286781 
L 91.778456 -109.035984 
L 93.409886 -81.875192 
L 95.041316 -65.030352 
L 96.672746 -56.374357 
L 98.304175 -188.295585 
L 99.935605 -116.576135 
L 101.567035 -116.948545 
L 103.198465 -61.168013 
L 104.829895 -159.281597 
L 106.461325 -234.114716 
L 108.092755 -142.726804 
L 109.724185 -222.404042 
L 111.355614 -242.74299 
L 112.987044 -160.43646 
L 114.618474 -234.509298 
L 116.249904 -184.654996 
L 117.881334 -170.280392 
L 119.512764 -221.607343 
L 121.144194 -240.13124 
L 122.775624 -243.711886 
L 124.407053 -243.341238 
L 126.038483 -232.163434 
L 127.669913 -224.039702 
L 129.301343 -231.228237 
L 130.932773 -233.856847 
L 132.564203 -240.740058 
L 134.195633 -243.466902 
L 135.827063 -245.994587 
L 137.458492 -247.417143 
L 139.089922 -241.439791 
L 140.721352 -231.729858 
L 142.352782 -232.320286 
L 143.984212 -231.331493 
L 145.615642 -232.573205 
L 147.247072 -241.853373 
L 148.878502 -226.9337 
L 150.509931 -222.715032 
L 152.141361 -218.159605 
L 153.772791 -233.601223 
L 155.404221 -230.324711 
L 157.035651 -224.439462 
L 158.667081 -239.312489 
L 160.298511 -247.990924 
L 161.929941 -234.552106 
L 163.56137 -228.295726 
L 165.1928 -248.046112 
L 166.82423 -240.49777 
L 168.45566 -230.938616 
L 170.08709 -234.232782 
L 171.71852 -242.138989 
L 173.34995 -174.356989 
L 174.98138 -219.003701 
L 176.61281 -230.173719 
L 178.244239 -241.453956 
L 179.875669 -244.187958 
L 181.507099 -247.483517 
L 183.138529 -235.524812 
L 184.769959 -236.778015 
L 186.401389 -243.460721 
L 188.032819 -242.077118 
L 189.664249 -238.782354 
L 191.295678 -238.536983 
L 192.927108 -235.589384 
L 194.558538 -227.153655 
L 196.189968 -240.822301 
L 197.821398 -245.683072 
L 199.452828 -230.860488 
L 201.084258 -241.806695 
L 202.715688 -236.184469 
L 204.347117 -239.694065 
L 205.978547 -239.017408 
L 207.609977 -246.360311 
L 209.241407 -239.625151 
L 210.872837 -239.136668 
L 212.504267 -238.740909 
L 214.135697 -238.252651 
L 215.767127 -227.648893 
L 217.398556 -241.09859 
L 219.029986 -230.484936 
L 220.661416 -229.202158 
L 222.292846 -240.06459 
L 223.924276 -234.528852 
L 225.555706 -245.902715 
L 227.187136 -238.024205 
L 228.818566 -237.068457 
L 230.449995 -237.004995 
L 232.081425 -238.236513 
L 233.712855 -242.110727 
L 235.344285 -223.546989 
L 236.975715 -233.587892 
L 238.607145 -246.646597 
L 240.238575 -242.805829 
L 241.870005 -253.69671 
L 243.501434 -246.625431 
L 245.132864 -239.098127 
L 246.764294 -248.985917 
L 248.395724 -248.536936 
L 250.027154 -236.740849 
L 251.658584 -244.020555 
L 253.290014 -243.444306 
L 254.921444 -239.249102 
L 256.552873 -238.858701 
L 258.184303 -236.699261 
L 259.815733 -234.770301 
L 261.447163 -234.820483 
L 263.078593 -238.913403 
L 264.710023 -232.755596 
L 266.341453 -216.292558 
L 267.972883 -236.909983 
L 269.604312 -245.741658 
L 271.235742 -243.573721 
L 272.867172 -234.992497 
L 274.498602 -242.984973 
L 276.130032 -232.196182 
L 277.761462 -226.104224 
L 279.392892 -240.081036 
L 281.024322 -240.993777 
L 282.655751 -243.512584 
L 284.287181 -234.78786 
L 285.918611 -247.504551 
L 287.550041 -238.928045 
L 289.181471 -239.025114 
L 290.812901 -239.652717 
L 292.444331 -242.468243 
L 294.075761 -236.016881 
L 295.70719 -247.624836 
L 297.33862 -233.42091 
L 298.97005 -244.970011 
L 300.60148 -233.946806 
L 302.23291 -240.277291 
L 303.86434 -227.736386 
L 305.49577 -218.507552 
L 307.1272 -229.776335 
L 308.75863 -241.857255 
L 310.390059 -237.22974 
L 312.021489 -239.536863 
L 313.652919 -238.133323 
L 315.284349 -244.732749 
L 316.915779 -242.63299 
L 318.547209 -227.468613 
L 320.178639 -237.807057 
L 321.810069 -238.838724 
L 323.441498 -226.749158 
L 325.072928 -246.576883 
L 326.704358 -241.579956 
L 328.335788 -236.189093 
L 329.967218 -231.628574 
L 331.598648 -228.341312 
L 333.230078 -239.152663 
L 334.861508 -243.092955 
L 336.492937 -233.77785 
L 338.124367 -241.690039 
L 339.755797 -232.50322 
L 341.387227 -237.499279 
L 343.018657 -233.915121 
L 344.650087 -241.788468 
L 346.281517 -248.063384 
L 347.912947 -243.969257 
L 349.544376 -243.626727 
L 351.175806 -232.488888 
L 352.807236 -248.397831 
L 354.438666 -237.407762 
L 356.070096 -248.12416 
L 357.701526 -245.296321 
L 359.332956 -246.310923 
L 360.964386 -247.789671 
L 362.595815 -252.779364 
L 364.227245 -246.140604 
L 365.858675 -241.181765 
L 367.490105 -254.496178 
L 369.121535 -249.010653 
L 370.752965 -241.017536 
L 372.384395 -248.971137 
L 374.015825 -248.846063 
L 375.647254 -243.81799 
L 377.278684 -244.596654 
L 378.910114 -250.941105 
L 380.541544 -245.267388 
L 382.172974 -235.399731 
L 383.804404 -243.317774 
L 385.435834 -246.254418 
L 387.067264 -241.968293 
L 388.698693 -252.241294 
L 390.330123 -247.84114 
L 391.961553 -243.150484 
L 393.592983 -248.972374 
L 395.224413 -245.030021 
L 396.855843 -249.808951 
L 398.487273 -248.061405 
L 398.487273 -277.379105 
L 398.487273 -277.379105 
L 396.855843 -283.298644 
L 395.224413 -274.778364 
L 393.592983 -273.615724 
L 391.961553 -278.275491 
L 390.330123 -277.423908 
L 388.698693 -276.933762 
L 387.067264 -276.475122 
L 385.435834 -272.92696 
L 383.804404 -278.831132 
L 382.172974 -273.796304 
L 380.541544 -268.921728 
L 378.910114 -277.947281 
L 377.278684 -276.429631 
L 375.647254 -273.034872 
L 374.015825 -277.004726 
L 372.384395 -282.676652 
L 370.752965 -277.231903 
L 369.121535 -280.621384 
L 367.490105 -276.122487 
L 365.858675 -274.099074 
L 364.227245 -272.503106 
L 362.595815 -274.31663 
L 360.964386 -277.318444 
L 359.332956 -277.870673 
L 357.701526 -279.369877 
L 356.070096 -282.176795 
L 354.438666 -269.860471 
L 352.807236 -273.215344 
L 351.175806 -276.090776 
L 349.544376 -280.118026 
L 347.912947 -286.335417 
L 346.281517 -277.572253 
L 344.650087 -275.410135 
L 343.018657 -277.42122 
L 341.387227 -276.203456 
L 339.755797 -279.887722 
L 338.124367 -274.869425 
L 336.492937 -278.194053 
L 334.861508 -275.028054 
L 333.230078 -276.241732 
L 331.598648 -278.774212 
L 329.967218 -276.793826 
L 328.335788 -279.778028 
L 326.704358 -281.346383 
L 325.072928 -276.175506 
L 323.441498 -278.899879 
L 321.810069 -276.273145 
L 320.178639 -276.786634 
L 318.547209 -277.537203 
L 316.915779 -274.798287 
L 315.284349 -268.958136 
L 313.652919 -279.011236 
L 312.021489 -277.621656 
L 310.390059 -270.528216 
L 308.75863 -280.81265 
L 307.1272 -280.699096 
L 305.49577 -282.366502 
L 303.86434 -281.71498 
L 302.23291 -280.322202 
L 300.60148 -280.040818 
L 298.97005 -280.055273 
L 297.33862 -279.9508 
L 295.70719 -270.336499 
L 294.075761 -275.799791 
L 292.444331 -274.493275 
L 290.812901 -269.258175 
L 289.181471 -275.868671 
L 287.550041 -277.947853 
L 285.918611 -275.870133 
L 284.287181 -274.398453 
L 282.655751 -277.935419 
L 281.024322 -272.48558 
L 279.392892 -278.961087 
L 277.761462 -277.87967 
L 276.130032 -273.656551 
L 274.498602 -274.581383 
L 272.867172 -272.816336 
L 271.235742 -274.203785 
L 269.604312 -278.087155 
L 267.972883 -275.34648 
L 266.341453 -277.958928 
L 264.710023 -278.691811 
L 263.078593 -278.388671 
L 261.447163 -280.218828 
L 259.815733 -274.181117 
L 258.184303 -277.542576 
L 256.552873 -271.389114 
L 254.921444 -273.790087 
L 253.290014 -271.331497 
L 251.658584 -279.591403 
L 250.027154 -278.767779 
L 248.395724 -280.412143 
L 246.764294 -278.469054 
L 245.132864 -274.978426 
L 243.501434 -270.145846 
L 241.870005 -281.436659 
L 240.238575 -275.832791 
L 238.607145 -283.515844 
L 236.975715 -277.93513 
L 235.344285 -279.570039 
L 233.712855 -278.512432 
L 232.081425 -276.31867 
L 230.449995 -275.913642 
L 228.818566 -280.401691 
L 227.187136 -275.663939 
L 225.555706 -277.822547 
L 223.924276 -276.011748 
L 222.292846 -282.412851 
L 220.661416 -278.961256 
L 219.029986 -273.833196 
L 217.398556 -274.731294 
L 215.767127 -279.096484 
L 214.135697 -276.448088 
L 212.504267 -277.349711 
L 210.872837 -272.681706 
L 209.241407 -279.161436 
L 207.609977 -280.512843 
L 205.978547 -273.628204 
L 204.347117 -270.157527 
L 202.715688 -276.16505 
L 201.084258 -278.820908 
L 199.452828 -274.095034 
L 197.821398 -272.138662 
L 196.189968 -273.846027 
L 194.558538 -277.669215 
L 192.927108 -278.402605 
L 191.295678 -276.230468 
L 189.664249 -277.338171 
L 188.032819 -275.541785 
L 186.401389 -276.260562 
L 184.769959 -276.272566 
L 183.138529 -279.388417 
L 181.507099 -274.969076 
L 179.875669 -272.438218 
L 178.244239 -275.378722 
L 176.61281 -276.016641 
L 174.98138 -280.084784 
L 173.34995 -291.673852 
L 171.71852 -272.732343 
L 170.08709 -276.334304 
L 168.45566 -273.165828 
L 166.82423 -273.663426 
L 165.1928 -275.386808 
L 163.56137 -280.10879 
L 161.929941 -271.711915 
L 160.298511 -271.364624 
L 158.667081 -271.562822 
L 157.035651 -277.776605 
L 155.404221 -275.286494 
L 153.772791 -274.031675 
L 152.141361 -268.404077 
L 150.509931 -274.701708 
L 148.878502 -274.986242 
L 147.247072 -280.668564 
L 145.615642 -281.670806 
L 143.984212 -268.201856 
L 142.352782 -276.291236 
L 140.721352 -279.878579 
L 139.089922 -274.484347 
L 137.458492 -274.065067 
L 135.827063 -276.646231 
L 134.195633 -278.871411 
L 132.564203 -279.448511 
L 130.932773 -278.159269 
L 129.301343 -279.755242 
L 127.669913 -278.092683 
L 126.038483 -277.639534 
L 124.407053 -271.741371 
L 122.775624 -278.168265 
L 121.144194 -274.494909 
L 119.512764 -280.446244 
L 117.881334 -280.051174 
L 116.249904 -248.525948 
L 114.618474 -282.547277 
L 112.987044 -291.317491 
L 111.355614 -280.226631 
L 109.724185 -271.987597 
L 108.092755 -270.835466 
L 106.461325 -274.894858 
L 104.829895 -228.469704 
L 103.198465 -111.420096 
L 101.567035 -247.030591 
L 99.935605 -227.408113 
L 98.304175 -244.42786 
L 96.672746 -224.096443 
L 95.041316 -217.958228 
L 93.409886 -223.871824 
L 91.778456 -228.214867 
L 90.147026 -228.304627 
L 88.515596 -243.344085 
L 86.884166 -236.165713 
L 85.252736 -223.350762 
L 83.621307 -193.990301 
L 81.989877 -257.774727 
L 80.358447 -259.964871 
L 78.727017 -211.488834 
L 77.095587 -245.443107 
L 75.464157 -236.74356 
L 73.832727 -292.032 
z
" id="ma6e3a95412" style="stroke:#ffffff;stroke-opacity:0.2;"/>
    </defs>
    <g clip-path="url(#pf62f3381e9)">
     <use style="fill:#1f77b4;fill-opacity:0.2;stroke:#ffffff;stroke-opacity:0.2;" x="0" xlink:href="#ma6e3a95412" y="345.6"/>
    </g>
   </g>
   <g id="LineCollection_1">
    <path clip-path="url(#pf62f3381e9)" d="M 104.829895 295.488 
L 104.829895 53.568 
" style="fill:none;stroke:#1f77b4;stroke-dasharray:5.55,2.4;stroke-dashoffset:0;stroke-width:1.5;"/>
   </g>
   <g id="line2d_18">
    <path clip-path="url(#pf62f3381e9)" d="M 73.832727 129.126172 
L 75.464157 152.476288 
L 77.095587 154.997763 
L 78.727017 214.799583 
L 80.358447 157.302565 
L 81.989877 105.987001 
L 83.621307 212.9107 
L 85.252736 204.843917 
L 86.884166 194.626475 
L 88.515596 154.293432 
L 90.147026 164.804296 
L 91.778456 176.974575 
L 93.409886 192.726492 
L 95.041316 204.10571 
L 96.672746 205.3646 
L 98.304175 129.238278 
L 99.935605 173.607876 
L 101.567035 163.610432 
L 103.198465 259.305946 
L 104.829895 151.724349 
L 106.461325 91.095213 
L 108.092755 138.818865 
L 109.724185 98.404181 
L 111.355614 84.11519 
L 112.987044 119.723024 
L 114.618474 87.071712 
L 116.249904 129.009528 
L 117.881334 120.434217 
L 119.512764 94.573206 
L 121.144194 88.286926 
L 122.775624 84.659925 
L 124.407053 88.058695 
L 126.038483 90.698516 
L 127.669913 94.533808 
L 129.301343 90.108261 
L 130.932773 89.591942 
L 132.564203 85.505716 
L 134.195633 84.430844 
L 135.827063 84.279591 
L 137.458492 84.858895 
L 139.089922 87.637931 
L 140.721352 89.795782 
L 142.352782 91.294239 
L 143.984212 95.833325 
L 145.615642 88.477995 
L 147.247072 84.339032 
L 148.878502 94.640029 
L 150.509931 96.89163 
L 152.141361 102.318159 
L 153.772791 91.783551 
L 155.404221 92.794397 
L 157.035651 94.491967 
L 160.298511 85.922226 
L 161.929941 92.467989 
L 163.56137 91.397742 
L 165.1928 83.88354 
L 166.82423 88.519402 
L 168.45566 93.547778 
L 170.08709 90.316457 
L 171.71852 88.164334 
L 173.34995 112.584579 
L 174.98138 96.055757 
L 176.61281 92.50482 
L 178.244239 87.183661 
L 179.875669 87.286912 
L 181.507099 84.373703 
L 183.138529 88.143386 
L 184.769959 89.07471 
L 186.401389 85.739358 
L 188.032819 86.790549 
L 191.295678 88.216274 
L 192.927108 88.604006 
L 194.558538 93.188565 
L 196.189968 88.265836 
L 197.821398 86.689133 
L 199.452828 93.122239 
L 201.084258 85.286199 
L 202.715688 89.425241 
L 204.347117 90.674204 
L 205.978547 89.277194 
L 207.609977 82.163423 
L 209.241407 86.206706 
L 210.872837 89.690813 
L 212.504267 87.55469 
L 214.135697 88.24963 
L 215.767127 92.227312 
L 217.398556 87.685058 
L 219.029986 93.440934 
L 220.661416 91.518293 
L 222.292846 84.361279 
L 223.924276 90.3297 
L 225.555706 83.737369 
L 227.187136 88.755928 
L 228.818566 86.864926 
L 230.449995 89.140681 
L 232.081425 88.322409 
L 233.712855 85.28842 
L 235.344285 94.041486 
L 236.975715 89.838489 
L 238.607145 80.518779 
L 240.238575 86.28069 
L 241.870005 78.033315 
L 243.501434 87.214362 
L 245.132864 88.561724 
L 246.764294 81.872515 
L 248.395724 81.125461 
L 250.027154 87.845686 
L 251.658584 83.794021 
L 253.290014 88.212099 
L 254.921444 89.080406 
L 256.552873 90.476092 
L 258.184303 88.479082 
L 259.815733 91.124291 
L 261.447163 88.080345 
L 263.078593 86.948963 
L 264.710023 89.876296 
L 266.341453 98.474257 
L 267.972883 89.471769 
L 269.604312 83.685594 
L 271.235742 86.711247 
L 272.867172 91.695583 
L 274.498602 86.816822 
L 276.130032 92.673633 
L 277.761462 93.608053 
L 279.392892 86.078938 
L 281.024322 88.860322 
L 282.655751 84.875999 
L 284.287181 91.006844 
L 285.918611 83.912658 
L 287.550041 87.162051 
L 289.181471 88.153107 
L 290.812901 91.144554 
L 292.444331 87.119241 
L 294.075761 89.691664 
L 295.70719 86.619333 
L 297.33862 88.914145 
L 298.97005 83.087358 
L 300.60148 88.606188 
L 302.23291 85.300253 
L 303.86434 90.874317 
L 305.49577 95.162973 
L 307.1272 90.362284 
L 308.75863 84.265048 
L 310.390059 91.721022 
L 312.021489 87.02074 
L 313.652919 87.02772 
L 315.284349 88.754557 
L 316.915779 86.884362 
L 318.547209 93.097092 
L 320.178639 88.303155 
L 321.810069 88.044066 
L 323.441498 92.775482 
L 325.072928 84.223806 
L 326.704358 84.136831 
L 328.335788 87.616439 
L 329.967218 91.3888 
L 331.598648 92.042238 
L 333.230078 87.902802 
L 334.861508 86.539495 
L 336.492937 89.614048 
L 338.124367 87.320268 
L 339.755797 89.404529 
L 341.387227 88.748633 
L 343.018657 89.93183 
L 344.650087 87.000698 
L 346.281517 82.782182 
L 347.912947 80.447663 
L 349.544376 83.727624 
L 351.175806 91.310168 
L 352.807236 84.793412 
L 354.438666 91.965883 
L 356.070096 80.449523 
L 357.701526 83.266901 
L 359.332956 83.509202 
L 360.964386 83.045942 
L 362.595815 82.052003 
L 364.227245 86.278145 
L 365.858675 87.95958 
L 367.490105 80.290667 
L 369.121535 80.783982 
L 370.752965 86.47528 
L 372.384395 79.776106 
L 374.015825 82.674606 
L 375.647254 87.173569 
L 377.278684 85.086858 
L 378.910114 81.155807 
L 380.541544 88.505442 
L 382.172974 91.001983 
L 383.804404 84.525547 
L 385.435834 86.009311 
L 387.067264 86.378292 
L 388.698693 81.012472 
L 391.961553 84.887013 
L 393.592983 84.305951 
L 395.224413 85.695808 
L 396.855843 79.046202 
L 398.487273 82.879745 
L 398.487273 82.879745 
" style="fill:none;stroke:#1f77b4;stroke-linecap:round;stroke-width:1.5;"/>
   </g>
   <g id="patch_3">
    <path d="M 57.6 307.584 
L 57.6 41.472 
" style="fill:none;stroke:#cccccc;stroke-linecap:square;stroke-linejoin:miter;stroke-width:0.8;"/>
   </g>
   <g id="patch_4">
    <path d="M 414.72 307.584 
L 414.72 41.472 
" style="fill:none;stroke:#cccccc;stroke-linecap:square;stroke-linejoin:miter;stroke-width:0.8;"/>
   </g>
   <g id="patch_5">
    <path d="M 57.6 307.584 
L 414.72 307.584 
" style="fill:none;stroke:#cccccc;stroke-linecap:square;stroke-linejoin:miter;stroke-width:0.8;"/>
   </g>
   <g id="patch_6">
    <path d="M 57.6 41.472 
L 414.72 41.472 
" style="fill:none;stroke:#cccccc;stroke-linecap:square;stroke-linejoin:miter;stroke-width:0.8;"/>
   </g>
   <g id="text_20">
    <!-- Model performance vs. # of iterations -->
    <g style="fill:#262626;" transform="translate(122.314688 35.472)scale(0.12 -0.12)">
     <defs>
      <path d="M 628 4666 
L 1569 4666 
L 2759 1491 
L 3956 4666 
L 4897 4666 
L 4897 0 
L 4281 0 
L 4281 4097 
L 3078 897 
L 2444 897 
L 1241 4097 
L 1241 0 
L 628 0 
L 628 4666 
z
" id="DejaVuSans-4d" transform="scale(0.015625)"/>
      <path d="M 2906 2969 
L 2906 4863 
L 3481 4863 
L 3481 0 
L 2906 0 
L 2906 525 
Q 2725 213 2448 61 
Q 2172 -91 1784 -91 
Q 1150 -91 751 415 
Q 353 922 353 1747 
Q 353 2572 751 3078 
Q 1150 3584 1784 3584 
Q 2172 3584 2448 3432 
Q 2725 3281 2906 2969 
z
M 947 1747 
Q 947 1113 1208 752 
Q 1469 391 1925 391 
Q 2381 391 2643 752 
Q 2906 1113 2906 1747 
Q 2906 2381 2643 2742 
Q 2381 3103 1925 3103 
Q 1469 3103 1208 2742 
Q 947 2381 947 1747 
z
" id="DejaVuSans-64" transform="scale(0.015625)"/>
      <path d="M 603 4863 
L 1178 4863 
L 1178 0 
L 603 0 
L 603 4863 
z
" id="DejaVuSans-6c" transform="scale(0.015625)"/>
      <path id="DejaVuSans-20" transform="scale(0.015625)"/>
      <path d="M 1159 525 
L 1159 -1331 
L 581 -1331 
L 581 3500 
L 1159 3500 
L 1159 2969 
Q 1341 3281 1617 3432 
Q 1894 3584 2278 3584 
Q 2916 3584 3314 3078 
Q 3713 2572 3713 1747 
Q 3713 922 3314 415 
Q 2916 -91 2278 -91 
Q 1894 -91 1617 61 
Q 1341 213 1159 525 
z
M 3116 1747 
Q 3116 2381 2855 2742 
Q 2594 3103 2138 3103 
Q 1681 3103 1420 2742 
Q 1159 2381 1159 1747 
Q 1159 1113 1420 752 
Q 1681 391 2138 391 
Q 2594 391 2855 752 
Q 3116 1113 3116 1747 
z
" id="DejaVuSans-70" transform="scale(0.015625)"/>
      <path d="M 2375 4863 
L 2375 4384 
L 1825 4384 
Q 1516 4384 1395 4259 
Q 1275 4134 1275 3809 
L 1275 3500 
L 2222 3500 
L 2222 3053 
L 1275 3053 
L 1275 0 
L 697 0 
L 697 3053 
L 147 3053 
L 147 3500 
L 697 3500 
L 697 3744 
Q 697 4328 969 4595 
Q 1241 4863 1831 4863 
L 2375 4863 
z
" id="DejaVuSans-66" transform="scale(0.015625)"/>
      <path d="M 3328 2828 
Q 3544 3216 3844 3400 
Q 4144 3584 4550 3584 
Q 5097 3584 5394 3201 
Q 5691 2819 5691 2113 
L 5691 0 
L 5113 0 
L 5113 2094 
Q 5113 2597 4934 2840 
Q 4756 3084 4391 3084 
Q 3944 3084 3684 2787 
Q 3425 2491 3425 1978 
L 3425 0 
L 2847 0 
L 2847 2094 
Q 2847 2600 2669 2842 
Q 2491 3084 2119 3084 
Q 1678 3084 1418 2786 
Q 1159 2488 1159 1978 
L 1159 0 
L 581 0 
L 581 3500 
L 1159 3500 
L 1159 2956 
Q 1356 3278 1631 3431 
Q 1906 3584 2284 3584 
Q 2666 3584 2933 3390 
Q 3200 3197 3328 2828 
z
" id="DejaVuSans-6d" transform="scale(0.015625)"/>
      <path d="M 191 3500 
L 800 3500 
L 1894 563 
L 2988 3500 
L 3597 3500 
L 2284 0 
L 1503 0 
L 191 3500 
z
" id="DejaVuSans-76" transform="scale(0.015625)"/>
      <path d="M 2834 3397 
L 2834 2853 
Q 2591 2978 2328 3040 
Q 2066 3103 1784 3103 
Q 1356 3103 1142 2972 
Q 928 2841 928 2578 
Q 928 2378 1081 2264 
Q 1234 2150 1697 2047 
L 1894 2003 
Q 2506 1872 2764 1633 
Q 3022 1394 3022 966 
Q 3022 478 2636 193 
Q 2250 -91 1575 -91 
Q 1294 -91 989 -36 
Q 684 19 347 128 
L 347 722 
Q 666 556 975 473 
Q 1284 391 1588 391 
Q 1994 391 2212 530 
Q 2431 669 2431 922 
Q 2431 1156 2273 1281 
Q 2116 1406 1581 1522 
L 1381 1569 
Q 847 1681 609 1914 
Q 372 2147 372 2553 
Q 372 3047 722 3315 
Q 1072 3584 1716 3584 
Q 2034 3584 2315 3537 
Q 2597 3491 2834 3397 
z
" id="DejaVuSans-73" transform="scale(0.015625)"/>
      <path d="M 3272 2816 
L 2363 2816 
L 2100 1772 
L 3016 1772 
L 3272 2816 
z
M 2803 4594 
L 2478 3297 
L 3391 3297 
L 3719 4594 
L 4219 4594 
L 3897 3297 
L 4872 3297 
L 4872 2816 
L 3775 2816 
L 3519 1772 
L 4513 1772 
L 4513 1294 
L 3397 1294 
L 3072 0 
L 2572 0 
L 2894 1294 
L 1978 1294 
L 1656 0 
L 1153 0 
L 1478 1294 
L 494 1294 
L 494 1772 
L 1594 1772 
L 1856 2816 
L 850 2816 
L 850 3297 
L 1978 3297 
L 2297 4594 
L 2803 4594 
z
" id="DejaVuSans-23" transform="scale(0.015625)"/>
     </defs>
     <use xlink:href="#DejaVuSans-4d"/>
     <use x="86.279297" xlink:href="#DejaVuSans-6f"/>
     <use x="147.460938" xlink:href="#DejaVuSans-64"/>
     <use x="210.9375" xlink:href="#DejaVuSans-65"/>
     <use x="272.460938" xlink:href="#DejaVuSans-6c"/>
     <use x="300.244141" xlink:href="#DejaVuSans-20"/>
     <use x="332.03125" xlink:href="#DejaVuSans-70"/>
     <use x="395.507812" xlink:href="#DejaVuSans-65"/>
     <use x="457.03125" xlink:href="#DejaVuSans-72"/>
     <use x="498.144531" xlink:href="#DejaVuSans-66"/>
     <use x="533.349609" xlink:href="#DejaVuSans-6f"/>
     <use x="594.53125" xlink:href="#DejaVuSans-72"/>
     <use x="633.894531" xlink:href="#DejaVuSans-6d"/>
     <use x="731.306641" xlink:href="#DejaVuSans-61"/>
     <use x="792.585938" xlink:href="#DejaVuSans-6e"/>
     <use x="855.964844" xlink:href="#DejaVuSans-63"/>
     <use x="910.945312" xlink:href="#DejaVuSans-65"/>
     <use x="972.46875" xlink:href="#DejaVuSans-20"/>
     <use x="1004.255859" xlink:href="#DejaVuSans-76"/>
     <use x="1063.435547" xlink:href="#DejaVuSans-73"/>
     <use x="1115.535156" xlink:href="#DejaVuSans-2e"/>
     <use x="1147.322266" xlink:href="#DejaVuSans-20"/>
     <use x="1179.109375" xlink:href="#DejaVuSans-23"/>
     <use x="1262.898438" xlink:href="#DejaVuSans-20"/>
     <use x="1294.685547" xlink:href="#DejaVuSans-6f"/>
     <use x="1355.867188" xlink:href="#DejaVuSans-66"/>
     <use x="1391.072266" xlink:href="#DejaVuSans-20"/>
     <use x="1422.859375" xlink:href="#DejaVuSans-69"/>
     <use x="1450.642578" xlink:href="#DejaVuSans-74"/>
     <use x="1489.851562" xlink:href="#DejaVuSans-65"/>
     <use x="1551.375" xlink:href="#DejaVuSans-72"/>
     <use x="1592.488281" xlink:href="#DejaVuSans-61"/>
     <use x="1653.767578" xlink:href="#DejaVuSans-74"/>
     <use x="1692.976562" xlink:href="#DejaVuSans-69"/>
     <use x="1720.759766" xlink:href="#DejaVuSans-6f"/>
     <use x="1781.941406" xlink:href="#DejaVuSans-6e"/>
     <use x="1845.320312" xlink:href="#DejaVuSans-73"/>
    </g>
   </g>
  </g>
 </g>
 <defs>
  <clipPath id="pf62f3381e9">
   <rect height="266.112" width="357.12" x="57.6" y="41.472"/>
  </clipPath>
 </defs>
</svg>
