<?xml version="1.0" encoding="utf-8" standalone="no"?>
<!DOCTYPE svg PUBLIC "-//W3C//DTD SVG 1.1//EN"
  "http://www.w3.org/Graphics/SVG/1.1/DTD/svg11.dtd">
<svg height="345.6pt" version="1.1" viewBox="0 0 460.8 345.6" width="460.8pt" xmlns="http://www.w3.org/2000/svg" xmlns:xlink="http://www.w3.org/1999/xlink">
 <metadata>
  <rdf:RDF xmlns:cc="http://creativecommons.org/ns#" xmlns:dc="http://purl.org/dc/elements/1.1/" xmlns:rdf="http://www.w3.org/1999/02/22-rdf-syntax-ns#">
   <cc:Work>
    <dc:type rdf:resource="http://purl.org/dc/dcmitype/StillImage"/>
    <dc:date>2021-08-09T20:29:28.274828</dc:date>
    <dc:format>image/svg+xml</dc:format>
    <dc:creator>
     <cc:Agent>
      <dc:title>Matplotlib v3.4.2, https://matplotlib.org/</dc:title>
     </cc:Agent>
    </dc:creator>
   </cc:Work>
  </rdf:RDF>
 </metadata>
 <defs>
  <style type="text/css">*{stroke-linecap:butt;stroke-linejoin:round;}</style>
 </defs>
 <g id="figure_1">
  <g id="patch_1">
   <path d="M 0 345.6 
L 460.8 345.6 
L 460.8 0 
L 0 0 
z
" style="fill:#ffffff;"/>
  </g>
  <g id="axes_1">
   <g id="patch_2">
    <path d="M 57.6 307.584 
L 414.72 307.584 
L 414.72 41.472 
L 57.6 41.472 
z
" style="fill:#ffffff;"/>
   </g>
   <g id="matplotlib.axis_1">
    <g id="xtick_1">
     <g id="line2d_1">
      <path clip-path="url(#p1bcff0714c)" d="M 72.201297 307.584 
L 72.201297 41.472 
" style="fill:none;stroke:#cccccc;stroke-linecap:round;stroke-width:0.8;"/>
     </g>
     <g id="text_1">
      <!-- 0 -->
      <g style="fill:#262626;" transform="translate(69.020047 322.182437)scale(0.1 -0.1)">
       <defs>
        <path d="M 2034 4250 
Q 1547 4250 1301 3770 
Q 1056 3291 1056 2328 
Q 1056 1369 1301 889 
Q 1547 409 2034 409 
Q 2525 409 2770 889 
Q 3016 1369 3016 2328 
Q 3016 3291 2770 3770 
Q 2525 4250 2034 4250 
z
M 2034 4750 
Q 2819 4750 3233 4129 
Q 3647 3509 3647 2328 
Q 3647 1150 3233 529 
Q 2819 -91 2034 -91 
Q 1250 -91 836 529 
Q 422 1150 422 2328 
Q 422 3509 836 4129 
Q 1250 4750 2034 4750 
z
" id="DejaVuSans-30" transform="scale(0.015625)"/>
       </defs>
       <use xlink:href="#DejaVuSans-30"/>
      </g>
     </g>
    </g>
    <g id="xtick_2">
     <g id="line2d_2">
      <path clip-path="url(#p1bcff0714c)" d="M 112.987044 307.584 
L 112.987044 41.472 
" style="fill:none;stroke:#cccccc;stroke-linecap:round;stroke-width:0.8;"/>
     </g>
     <g id="text_2">
      <!-- 25 -->
      <g style="fill:#262626;" transform="translate(106.624544 322.182437)scale(0.1 -0.1)">
       <defs>
        <path d="M 1228 531 
L 3431 531 
L 3431 0 
L 469 0 
L 469 531 
Q 828 903 1448 1529 
Q 2069 2156 2228 2338 
Q 2531 2678 2651 2914 
Q 2772 3150 2772 3378 
Q 2772 3750 2511 3984 
Q 2250 4219 1831 4219 
Q 1534 4219 1204 4116 
Q 875 4013 500 3803 
L 500 4441 
Q 881 4594 1212 4672 
Q 1544 4750 1819 4750 
Q 2544 4750 2975 4387 
Q 3406 4025 3406 3419 
Q 3406 3131 3298 2873 
Q 3191 2616 2906 2266 
Q 2828 2175 2409 1742 
Q 1991 1309 1228 531 
z
" id="DejaVuSans-32" transform="scale(0.015625)"/>
        <path d="M 691 4666 
L 3169 4666 
L 3169 4134 
L 1269 4134 
L 1269 2991 
Q 1406 3038 1543 3061 
Q 1681 3084 1819 3084 
Q 2600 3084 3056 2656 
Q 3513 2228 3513 1497 
Q 3513 744 3044 326 
Q 2575 -91 1722 -91 
Q 1428 -91 1123 -41 
Q 819 9 494 109 
L 494 744 
Q 775 591 1075 516 
Q 1375 441 1709 441 
Q 2250 441 2565 725 
Q 2881 1009 2881 1497 
Q 2881 1984 2565 2268 
Q 2250 2553 1709 2553 
Q 1456 2553 1204 2497 
Q 953 2441 691 2322 
L 691 4666 
z
" id="DejaVuSans-35" transform="scale(0.015625)"/>
       </defs>
       <use xlink:href="#DejaVuSans-32"/>
       <use x="63.623047" xlink:href="#DejaVuSans-35"/>
      </g>
     </g>
    </g>
    <g id="xtick_3">
     <g id="line2d_3">
      <path clip-path="url(#p1bcff0714c)" d="M 153.772791 307.584 
L 153.772791 41.472 
" style="fill:none;stroke:#cccccc;stroke-linecap:round;stroke-width:0.8;"/>
     </g>
     <g id="text_3">
      <!-- 50 -->
      <g style="fill:#262626;" transform="translate(147.410291 322.182437)scale(0.1 -0.1)">
       <use xlink:href="#DejaVuSans-35"/>
       <use x="63.623047" xlink:href="#DejaVuSans-30"/>
      </g>
     </g>
    </g>
    <g id="xtick_4">
     <g id="line2d_4">
      <path clip-path="url(#p1bcff0714c)" d="M 194.558538 307.584 
L 194.558538 41.472 
" style="fill:none;stroke:#cccccc;stroke-linecap:round;stroke-width:0.8;"/>
     </g>
     <g id="text_4">
      <!-- 75 -->
      <g style="fill:#262626;" transform="translate(188.196038 322.182437)scale(0.1 -0.1)">
       <defs>
        <path d="M 525 4666 
L 3525 4666 
L 3525 4397 
L 1831 0 
L 1172 0 
L 2766 4134 
L 525 4134 
L 525 4666 
z
" id="DejaVuSans-37" transform="scale(0.015625)"/>
       </defs>
       <use xlink:href="#DejaVuSans-37"/>
       <use x="63.623047" xlink:href="#DejaVuSans-35"/>
      </g>
     </g>
    </g>
    <g id="xtick_5">
     <g id="line2d_5">
      <path clip-path="url(#p1bcff0714c)" d="M 235.344285 307.584 
L 235.344285 41.472 
" style="fill:none;stroke:#cccccc;stroke-linecap:round;stroke-width:0.8;"/>
     </g>
     <g id="text_5">
      <!-- 100 -->
      <g style="fill:#262626;" transform="translate(225.800535 322.182437)scale(0.1 -0.1)">
       <defs>
        <path d="M 794 531 
L 1825 531 
L 1825 4091 
L 703 3866 
L 703 4441 
L 1819 4666 
L 2450 4666 
L 2450 531 
L 3481 531 
L 3481 0 
L 794 0 
L 794 531 
z
" id="DejaVuSans-31" transform="scale(0.015625)"/>
       </defs>
       <use xlink:href="#DejaVuSans-31"/>
       <use x="63.623047" xlink:href="#DejaVuSans-30"/>
       <use x="127.246094" xlink:href="#DejaVuSans-30"/>
      </g>
     </g>
    </g>
    <g id="xtick_6">
     <g id="line2d_6">
      <path clip-path="url(#p1bcff0714c)" d="M 276.130032 307.584 
L 276.130032 41.472 
" style="fill:none;stroke:#cccccc;stroke-linecap:round;stroke-width:0.8;"/>
     </g>
     <g id="text_6">
      <!-- 125 -->
      <g style="fill:#262626;" transform="translate(266.586282 322.182437)scale(0.1 -0.1)">
       <use xlink:href="#DejaVuSans-31"/>
       <use x="63.623047" xlink:href="#DejaVuSans-32"/>
       <use x="127.246094" xlink:href="#DejaVuSans-35"/>
      </g>
     </g>
    </g>
    <g id="xtick_7">
     <g id="line2d_7">
      <path clip-path="url(#p1bcff0714c)" d="M 316.915779 307.584 
L 316.915779 41.472 
" style="fill:none;stroke:#cccccc;stroke-linecap:round;stroke-width:0.8;"/>
     </g>
     <g id="text_7">
      <!-- 150 -->
      <g style="fill:#262626;" transform="translate(307.372029 322.182437)scale(0.1 -0.1)">
       <use xlink:href="#DejaVuSans-31"/>
       <use x="63.623047" xlink:href="#DejaVuSans-35"/>
       <use x="127.246094" xlink:href="#DejaVuSans-30"/>
      </g>
     </g>
    </g>
    <g id="xtick_8">
     <g id="line2d_8">
      <path clip-path="url(#p1bcff0714c)" d="M 357.701526 307.584 
L 357.701526 41.472 
" style="fill:none;stroke:#cccccc;stroke-linecap:round;stroke-width:0.8;"/>
     </g>
     <g id="text_8">
      <!-- 175 -->
      <g style="fill:#262626;" transform="translate(348.157776 322.182437)scale(0.1 -0.1)">
       <use xlink:href="#DejaVuSans-31"/>
       <use x="63.623047" xlink:href="#DejaVuSans-37"/>
       <use x="127.246094" xlink:href="#DejaVuSans-35"/>
      </g>
     </g>
    </g>
    <g id="xtick_9">
     <g id="line2d_9">
      <path clip-path="url(#p1bcff0714c)" d="M 398.487273 307.584 
L 398.487273 41.472 
" style="fill:none;stroke:#cccccc;stroke-linecap:round;stroke-width:0.8;"/>
     </g>
     <g id="text_9">
      <!-- 200 -->
      <g style="fill:#262626;" transform="translate(388.943523 322.182437)scale(0.1 -0.1)">
       <use xlink:href="#DejaVuSans-32"/>
       <use x="63.623047" xlink:href="#DejaVuSans-30"/>
       <use x="127.246094" xlink:href="#DejaVuSans-30"/>
      </g>
     </g>
    </g>
    <g id="text_10">
     <!-- Auroc -->
     <g style="fill:#262626;" transform="translate(221.819375 335.860562)scale(0.1 -0.1)">
      <defs>
       <path d="M 2188 4044 
L 1331 1722 
L 3047 1722 
L 2188 4044 
z
M 1831 4666 
L 2547 4666 
L 4325 0 
L 3669 0 
L 3244 1197 
L 1141 1197 
L 716 0 
L 50 0 
L 1831 4666 
z
" id="DejaVuSans-41" transform="scale(0.015625)"/>
       <path d="M 544 1381 
L 544 3500 
L 1119 3500 
L 1119 1403 
Q 1119 906 1312 657 
Q 1506 409 1894 409 
Q 2359 409 2629 706 
Q 2900 1003 2900 1516 
L 2900 3500 
L 3475 3500 
L 3475 0 
L 2900 0 
L 2900 538 
Q 2691 219 2414 64 
Q 2138 -91 1772 -91 
Q 1169 -91 856 284 
Q 544 659 544 1381 
z
M 1991 3584 
L 1991 3584 
z
" id="DejaVuSans-75" transform="scale(0.015625)"/>
       <path d="M 2631 2963 
Q 2534 3019 2420 3045 
Q 2306 3072 2169 3072 
Q 1681 3072 1420 2755 
Q 1159 2438 1159 1844 
L 1159 0 
L 581 0 
L 581 3500 
L 1159 3500 
L 1159 2956 
Q 1341 3275 1631 3429 
Q 1922 3584 2338 3584 
Q 2397 3584 2469 3576 
Q 2541 3569 2628 3553 
L 2631 2963 
z
" id="DejaVuSans-72" transform="scale(0.015625)"/>
       <path d="M 1959 3097 
Q 1497 3097 1228 2736 
Q 959 2375 959 1747 
Q 959 1119 1226 758 
Q 1494 397 1959 397 
Q 2419 397 2687 759 
Q 2956 1122 2956 1747 
Q 2956 2369 2687 2733 
Q 2419 3097 1959 3097 
z
M 1959 3584 
Q 2709 3584 3137 3096 
Q 3566 2609 3566 1747 
Q 3566 888 3137 398 
Q 2709 -91 1959 -91 
Q 1206 -91 779 398 
Q 353 888 353 1747 
Q 353 2609 779 3096 
Q 1206 3584 1959 3584 
z
" id="DejaVuSans-6f" transform="scale(0.015625)"/>
       <path d="M 3122 3366 
L 3122 2828 
Q 2878 2963 2633 3030 
Q 2388 3097 2138 3097 
Q 1578 3097 1268 2742 
Q 959 2388 959 1747 
Q 959 1106 1268 751 
Q 1578 397 2138 397 
Q 2388 397 2633 464 
Q 2878 531 3122 666 
L 3122 134 
Q 2881 22 2623 -34 
Q 2366 -91 2075 -91 
Q 1284 -91 818 406 
Q 353 903 353 1747 
Q 353 2603 823 3093 
Q 1294 3584 2113 3584 
Q 2378 3584 2631 3529 
Q 2884 3475 3122 3366 
z
" id="DejaVuSans-63" transform="scale(0.015625)"/>
      </defs>
      <use xlink:href="#DejaVuSans-41"/>
      <use x="68.408203" xlink:href="#DejaVuSans-75"/>
      <use x="131.787109" xlink:href="#DejaVuSans-72"/>
      <use x="170.650391" xlink:href="#DejaVuSans-6f"/>
      <use x="231.832031" xlink:href="#DejaVuSans-63"/>
     </g>
    </g>
   </g>
   <g id="matplotlib.axis_2">
    <g id="ytick_1">
     <g id="line2d_10">
      <path clip-path="url(#p1bcff0714c)" d="M 57.6 305.76334 
L 414.72 305.76334 
" style="fill:none;stroke:#cccccc;stroke-linecap:round;stroke-width:0.8;"/>
     </g>
     <g id="text_11">
      <!-- 0.50 -->
      <g style="fill:#262626;" transform="translate(28.334375 309.562559)scale(0.1 -0.1)">
       <defs>
        <path d="M 684 794 
L 1344 794 
L 1344 0 
L 684 0 
L 684 794 
z
" id="DejaVuSans-2e" transform="scale(0.015625)"/>
       </defs>
       <use xlink:href="#DejaVuSans-30"/>
       <use x="63.623047" xlink:href="#DejaVuSans-2e"/>
       <use x="95.410156" xlink:href="#DejaVuSans-35"/>
       <use x="159.033203" xlink:href="#DejaVuSans-30"/>
      </g>
     </g>
    </g>
    <g id="ytick_2">
     <g id="line2d_11">
      <path clip-path="url(#p1bcff0714c)" d="M 57.6 270.969034 
L 414.72 270.969034 
" style="fill:none;stroke:#cccccc;stroke-linecap:round;stroke-width:0.8;"/>
     </g>
     <g id="text_12">
      <!-- 0.55 -->
      <g style="fill:#262626;" transform="translate(28.334375 274.768253)scale(0.1 -0.1)">
       <use xlink:href="#DejaVuSans-30"/>
       <use x="63.623047" xlink:href="#DejaVuSans-2e"/>
       <use x="95.410156" xlink:href="#DejaVuSans-35"/>
       <use x="159.033203" xlink:href="#DejaVuSans-35"/>
      </g>
     </g>
    </g>
    <g id="ytick_3">
     <g id="line2d_12">
      <path clip-path="url(#p1bcff0714c)" d="M 57.6 236.174728 
L 414.72 236.174728 
" style="fill:none;stroke:#cccccc;stroke-linecap:round;stroke-width:0.8;"/>
     </g>
     <g id="text_13">
      <!-- 0.60 -->
      <g style="fill:#262626;" transform="translate(28.334375 239.973947)scale(0.1 -0.1)">
       <defs>
        <path d="M 2113 2584 
Q 1688 2584 1439 2293 
Q 1191 2003 1191 1497 
Q 1191 994 1439 701 
Q 1688 409 2113 409 
Q 2538 409 2786 701 
Q 3034 994 3034 1497 
Q 3034 2003 2786 2293 
Q 2538 2584 2113 2584 
z
M 3366 4563 
L 3366 3988 
Q 3128 4100 2886 4159 
Q 2644 4219 2406 4219 
Q 1781 4219 1451 3797 
Q 1122 3375 1075 2522 
Q 1259 2794 1537 2939 
Q 1816 3084 2150 3084 
Q 2853 3084 3261 2657 
Q 3669 2231 3669 1497 
Q 3669 778 3244 343 
Q 2819 -91 2113 -91 
Q 1303 -91 875 529 
Q 447 1150 447 2328 
Q 447 3434 972 4092 
Q 1497 4750 2381 4750 
Q 2619 4750 2861 4703 
Q 3103 4656 3366 4563 
z
" id="DejaVuSans-36" transform="scale(0.015625)"/>
       </defs>
       <use xlink:href="#DejaVuSans-30"/>
       <use x="63.623047" xlink:href="#DejaVuSans-2e"/>
       <use x="95.410156" xlink:href="#DejaVuSans-36"/>
       <use x="159.033203" xlink:href="#DejaVuSans-30"/>
      </g>
     </g>
    </g>
    <g id="ytick_4">
     <g id="line2d_13">
      <path clip-path="url(#p1bcff0714c)" d="M 57.6 201.380422 
L 414.72 201.380422 
" style="fill:none;stroke:#cccccc;stroke-linecap:round;stroke-width:0.8;"/>
     </g>
     <g id="text_14">
      <!-- 0.65 -->
      <g style="fill:#262626;" transform="translate(28.334375 205.179641)scale(0.1 -0.1)">
       <use xlink:href="#DejaVuSans-30"/>
       <use x="63.623047" xlink:href="#DejaVuSans-2e"/>
       <use x="95.410156" xlink:href="#DejaVuSans-36"/>
       <use x="159.033203" xlink:href="#DejaVuSans-35"/>
      </g>
     </g>
    </g>
    <g id="ytick_5">
     <g id="line2d_14">
      <path clip-path="url(#p1bcff0714c)" d="M 57.6 166.586116 
L 414.72 166.586116 
" style="fill:none;stroke:#cccccc;stroke-linecap:round;stroke-width:0.8;"/>
     </g>
     <g id="text_15">
      <!-- 0.70 -->
      <g style="fill:#262626;" transform="translate(28.334375 170.385335)scale(0.1 -0.1)">
       <use xlink:href="#DejaVuSans-30"/>
       <use x="63.623047" xlink:href="#DejaVuSans-2e"/>
       <use x="95.410156" xlink:href="#DejaVuSans-37"/>
       <use x="159.033203" xlink:href="#DejaVuSans-30"/>
      </g>
     </g>
    </g>
    <g id="ytick_6">
     <g id="line2d_15">
      <path clip-path="url(#p1bcff0714c)" d="M 57.6 131.79181 
L 414.72 131.79181 
" style="fill:none;stroke:#cccccc;stroke-linecap:round;stroke-width:0.8;"/>
     </g>
     <g id="text_16">
      <!-- 0.75 -->
      <g style="fill:#262626;" transform="translate(28.334375 135.591029)scale(0.1 -0.1)">
       <use xlink:href="#DejaVuSans-30"/>
       <use x="63.623047" xlink:href="#DejaVuSans-2e"/>
       <use x="95.410156" xlink:href="#DejaVuSans-37"/>
       <use x="159.033203" xlink:href="#DejaVuSans-35"/>
      </g>
     </g>
    </g>
    <g id="ytick_7">
     <g id="line2d_16">
      <path clip-path="url(#p1bcff0714c)" d="M 57.6 96.997504 
L 414.72 96.997504 
" style="fill:none;stroke:#cccccc;stroke-linecap:round;stroke-width:0.8;"/>
     </g>
     <g id="text_17">
      <!-- 0.80 -->
      <g style="fill:#262626;" transform="translate(28.334375 100.796722)scale(0.1 -0.1)">
       <defs>
        <path d="M 2034 2216 
Q 1584 2216 1326 1975 
Q 1069 1734 1069 1313 
Q 1069 891 1326 650 
Q 1584 409 2034 409 
Q 2484 409 2743 651 
Q 3003 894 3003 1313 
Q 3003 1734 2745 1975 
Q 2488 2216 2034 2216 
z
M 1403 2484 
Q 997 2584 770 2862 
Q 544 3141 544 3541 
Q 544 4100 942 4425 
Q 1341 4750 2034 4750 
Q 2731 4750 3128 4425 
Q 3525 4100 3525 3541 
Q 3525 3141 3298 2862 
Q 3072 2584 2669 2484 
Q 3125 2378 3379 2068 
Q 3634 1759 3634 1313 
Q 3634 634 3220 271 
Q 2806 -91 2034 -91 
Q 1263 -91 848 271 
Q 434 634 434 1313 
Q 434 1759 690 2068 
Q 947 2378 1403 2484 
z
M 1172 3481 
Q 1172 3119 1398 2916 
Q 1625 2713 2034 2713 
Q 2441 2713 2670 2916 
Q 2900 3119 2900 3481 
Q 2900 3844 2670 4047 
Q 2441 4250 2034 4250 
Q 1625 4250 1398 4047 
Q 1172 3844 1172 3481 
z
" id="DejaVuSans-38" transform="scale(0.015625)"/>
       </defs>
       <use xlink:href="#DejaVuSans-30"/>
       <use x="63.623047" xlink:href="#DejaVuSans-2e"/>
       <use x="95.410156" xlink:href="#DejaVuSans-38"/>
       <use x="159.033203" xlink:href="#DejaVuSans-30"/>
      </g>
     </g>
    </g>
    <g id="ytick_8">
     <g id="line2d_17">
      <path clip-path="url(#p1bcff0714c)" d="M 57.6 62.203198 
L 414.72 62.203198 
" style="fill:none;stroke:#cccccc;stroke-linecap:round;stroke-width:0.8;"/>
     </g>
     <g id="text_18">
      <!-- 0.85 -->
      <g style="fill:#262626;" transform="translate(28.334375 66.002416)scale(0.1 -0.1)">
       <use xlink:href="#DejaVuSans-30"/>
       <use x="63.623047" xlink:href="#DejaVuSans-2e"/>
       <use x="95.410156" xlink:href="#DejaVuSans-38"/>
       <use x="159.033203" xlink:href="#DejaVuSans-35"/>
      </g>
     </g>
    </g>
    <g id="text_19">
     <!-- Iteration -->
     <g style="fill:#262626;" transform="translate(22.254687 195.736594)rotate(-90)scale(0.1 -0.1)">
      <defs>
       <path d="M 628 4666 
L 1259 4666 
L 1259 0 
L 628 0 
L 628 4666 
z
" id="DejaVuSans-49" transform="scale(0.015625)"/>
       <path d="M 1172 4494 
L 1172 3500 
L 2356 3500 
L 2356 3053 
L 1172 3053 
L 1172 1153 
Q 1172 725 1289 603 
Q 1406 481 1766 481 
L 2356 481 
L 2356 0 
L 1766 0 
Q 1100 0 847 248 
Q 594 497 594 1153 
L 594 3053 
L 172 3053 
L 172 3500 
L 594 3500 
L 594 4494 
L 1172 4494 
z
" id="DejaVuSans-74" transform="scale(0.015625)"/>
       <path d="M 3597 1894 
L 3597 1613 
L 953 1613 
Q 991 1019 1311 708 
Q 1631 397 2203 397 
Q 2534 397 2845 478 
Q 3156 559 3463 722 
L 3463 178 
Q 3153 47 2828 -22 
Q 2503 -91 2169 -91 
Q 1331 -91 842 396 
Q 353 884 353 1716 
Q 353 2575 817 3079 
Q 1281 3584 2069 3584 
Q 2775 3584 3186 3129 
Q 3597 2675 3597 1894 
z
M 3022 2063 
Q 3016 2534 2758 2815 
Q 2500 3097 2075 3097 
Q 1594 3097 1305 2825 
Q 1016 2553 972 2059 
L 3022 2063 
z
" id="DejaVuSans-65" transform="scale(0.015625)"/>
       <path d="M 2194 1759 
Q 1497 1759 1228 1600 
Q 959 1441 959 1056 
Q 959 750 1161 570 
Q 1363 391 1709 391 
Q 2188 391 2477 730 
Q 2766 1069 2766 1631 
L 2766 1759 
L 2194 1759 
z
M 3341 1997 
L 3341 0 
L 2766 0 
L 2766 531 
Q 2569 213 2275 61 
Q 1981 -91 1556 -91 
Q 1019 -91 701 211 
Q 384 513 384 1019 
Q 384 1609 779 1909 
Q 1175 2209 1959 2209 
L 2766 2209 
L 2766 2266 
Q 2766 2663 2505 2880 
Q 2244 3097 1772 3097 
Q 1472 3097 1187 3025 
Q 903 2953 641 2809 
L 641 3341 
Q 956 3463 1253 3523 
Q 1550 3584 1831 3584 
Q 2591 3584 2966 3190 
Q 3341 2797 3341 1997 
z
" id="DejaVuSans-61" transform="scale(0.015625)"/>
       <path d="M 603 3500 
L 1178 3500 
L 1178 0 
L 603 0 
L 603 3500 
z
M 603 4863 
L 1178 4863 
L 1178 4134 
L 603 4134 
L 603 4863 
z
" id="DejaVuSans-69" transform="scale(0.015625)"/>
       <path d="M 3513 2113 
L 3513 0 
L 2938 0 
L 2938 2094 
Q 2938 2591 2744 2837 
Q 2550 3084 2163 3084 
Q 1697 3084 1428 2787 
Q 1159 2491 1159 1978 
L 1159 0 
L 581 0 
L 581 3500 
L 1159 3500 
L 1159 2956 
Q 1366 3272 1645 3428 
Q 1925 3584 2291 3584 
Q 2894 3584 3203 3211 
Q 3513 2838 3513 2113 
z
" id="DejaVuSans-6e" transform="scale(0.015625)"/>
      </defs>
      <use xlink:href="#DejaVuSans-49"/>
      <use x="29.492188" xlink:href="#DejaVuSans-74"/>
      <use x="68.701172" xlink:href="#DejaVuSans-65"/>
      <use x="130.224609" xlink:href="#DejaVuSans-72"/>
      <use x="171.337891" xlink:href="#DejaVuSans-61"/>
      <use x="232.617188" xlink:href="#DejaVuSans-74"/>
      <use x="271.826172" xlink:href="#DejaVuSans-69"/>
      <use x="299.609375" xlink:href="#DejaVuSans-6f"/>
      <use x="360.791016" xlink:href="#DejaVuSans-6e"/>
     </g>
    </g>
   </g>
   <g id="PolyCollection_1">
    <defs>
     <path d="M 73.832727 -250.623987 
L 73.832727 -136.589323 
L 75.464157 -194.888384 
L 77.095587 -173.128656 
L 78.727017 -237.090716 
L 80.358447 -193.355212 
L 81.989877 -209.669197 
L 83.621307 -177.541964 
L 85.252736 -161.893459 
L 86.884166 -217.106465 
L 88.515596 -200.790281 
L 90.147026 -127.655365 
L 91.778456 -145.108536 
L 93.409886 -217.69487 
L 95.041316 -192.058424 
L 96.672746 -136.468682 
L 98.304175 -229.600804 
L 99.935605 -223.650061 
L 101.567035 -134.645723 
L 103.198465 -216.486726 
L 104.829895 -204.360859 
L 106.461325 -192.579025 
L 108.092755 -98.906569 
L 109.724185 -219.373628 
L 111.355614 -233.750087 
L 112.987044 -180.913898 
L 114.618474 -153.137005 
L 116.249904 -200.43474 
L 117.881334 -219.27675 
L 119.512764 -184.670668 
L 121.144194 -242.898607 
L 122.775624 -204.173797 
L 124.407053 -223.298188 
L 126.038483 -61.20107 
L 127.669913 -226.60344 
L 129.301343 -195.003668 
L 130.932773 -217.492995 
L 132.564203 -196.985173 
L 134.195633 -110.811011 
L 135.827063 -50.112 
L 137.458492 -226.005972 
L 139.089922 -189.281444 
L 140.721352 -163.229586 
L 142.352782 -204.720572 
L 143.984212 -240.224552 
L 145.615642 -93.220491 
L 147.247072 -238.928538 
L 148.878502 -234.78889 
L 150.509931 -93.79618 
L 152.141361 -146.16647 
L 153.772791 -241.258308 
L 155.404221 -152.67459 
L 157.035651 -162.331084 
L 158.667081 -233.735054 
L 160.298511 -107.404908 
L 161.929941 -118.128883 
L 163.56137 -235.968049 
L 165.1928 -140.583485 
L 166.82423 -227.384576 
L 168.45566 -80.557054 
L 170.08709 -192.038085 
L 171.71852 -73.963035 
L 173.34995 -241.878749 
L 174.98138 -184.750906 
L 176.61281 -223.854861 
L 178.244239 -230.058899 
L 179.875669 -212.464068 
L 181.507099 -120.995569 
L 183.138529 -119.433013 
L 184.769959 -223.534034 
L 186.401389 -183.668079 
L 188.032819 -135.621285 
L 189.664249 -213.387003 
L 191.295678 -233.544433 
L 192.927108 -184.572296 
L 194.558538 -215.062474 
L 196.189968 -148.961468 
L 197.821398 -231.201757 
L 199.452828 -180.130862 
L 201.084258 -203.544124 
L 202.715688 -109.127074 
L 204.347117 -109.93618 
L 205.978547 -162.109495 
L 207.609977 -213.325007 
L 209.241407 -210.225085 
L 210.872837 -184.044255 
L 212.504267 -250.068741 
L 214.135697 -176.162121 
L 215.767127 -230.128796 
L 217.398556 -136.555584 
L 219.029986 -160.646274 
L 220.661416 -129.807259 
L 222.292846 -233.396651 
L 223.924276 -129.910166 
L 225.555706 -210.007288 
L 227.187136 -82.667247 
L 228.818566 -240.276524 
L 230.449995 -229.276602 
L 232.081425 -123.823808 
L 233.712855 -119.495453 
L 235.344285 -229.712129 
L 236.975715 -98.4164 
L 238.607145 -224.616088 
L 240.238575 -228.422969 
L 241.870005 -124.717571 
L 243.501434 -134.851043 
L 245.132864 -176.369574 
L 246.764294 -223.229386 
L 248.395724 -212.18554 
L 250.027154 -231.553111 
L 251.658584 -185.911073 
L 253.290014 -113.776292 
L 254.921444 -169.132373 
L 256.552873 -220.659985 
L 258.184303 -178.786174 
L 259.815733 -135.732325 
L 261.447163 -230.618373 
L 263.078593 -159.499794 
L 264.710023 -237.366833 
L 266.341453 -194.616778 
L 267.972883 -199.085066 
L 269.604312 -111.300549 
L 271.235742 -234.863169 
L 272.867172 -197.890689 
L 274.498602 -139.524985 
L 276.130032 -176.437812 
L 277.761462 -134.465877 
L 279.392892 -77.774974 
L 281.024322 -236.498161 
L 282.655751 -181.779771 
L 284.287181 -103.674971 
L 285.918611 -145.372556 
L 287.550041 -199.422514 
L 289.181471 -203.882722 
L 290.812901 -200.216555 
L 292.444331 -156.12994 
L 294.075761 -105.244249 
L 295.70719 -135.728654 
L 297.33862 -209.319066 
L 298.97005 -200.473834 
L 300.60148 -207.876811 
L 302.23291 -112.20711 
L 303.86434 -104.818561 
L 305.49577 -199.940184 
L 307.1272 -229.548697 
L 308.75863 -161.956365 
L 310.390059 -169.519318 
L 312.021489 -206.894541 
L 313.652919 -230.060522 
L 315.284349 -213.447126 
L 316.915779 -133.261029 
L 318.547209 -114.08775 
L 320.178639 -172.640186 
L 321.810069 -215.961488 
L 323.441498 -115.280174 
L 325.072928 -206.703992 
L 326.704358 -239.010256 
L 328.335788 -115.805238 
L 329.967218 -146.986011 
L 331.598648 -135.352189 
L 333.230078 -183.233673 
L 334.861508 -210.604996 
L 336.492937 -227.408242 
L 338.124367 -224.876999 
L 339.755797 -140.464896 
L 341.387227 -217.743459 
L 343.018657 -226.142925 
L 344.650087 -156.696657 
L 346.281517 -236.735897 
L 347.912947 -223.473737 
L 349.544376 -69.264356 
L 351.175806 -135.952535 
L 352.807236 -221.205177 
L 354.438666 -120.445536 
L 356.070096 -230.857617 
L 357.701526 -164.105817 
L 359.332956 -225.460792 
L 360.964386 -91.594438 
L 362.595815 -234.923375 
L 364.227245 -223.713182 
L 365.858675 -111.368203 
L 367.490105 -221.254141 
L 369.121535 -195.042539 
L 370.752965 -120.799784 
L 372.384395 -227.92437 
L 374.015825 -221.319027 
L 375.647254 -81.804657 
L 377.278684 -114.733591 
L 378.910114 -233.075067 
L 380.541544 -181.036097 
L 382.172974 -229.628851 
L 383.804404 -223.56754 
L 385.435834 -139.822845 
L 387.067264 -178.815801 
L 388.698693 -229.159637 
L 390.330123 -148.628436 
L 391.961553 -124.912835 
L 393.592983 -155.222634 
L 395.224413 -123.244667 
L 396.855843 -196.799256 
L 398.487273 -214.943843 
L 398.487273 -247.917154 
L 398.487273 -247.917154 
L 396.855843 -256.178524 
L 395.224413 -226.086876 
L 393.592983 -271.166646 
L 391.961553 -282.639334 
L 390.330123 -254.714988 
L 388.698693 -250.515977 
L 387.067264 -226.744386 
L 385.435834 -254.081192 
L 383.804404 -253.899922 
L 382.172974 -253.030865 
L 380.541544 -252.153633 
L 378.910114 -257.833637 
L 377.278684 -292.032 
L 375.647254 -254.003651 
L 374.015825 -243.113824 
L 372.384395 -247.326218 
L 370.752965 -247.253227 
L 369.121535 -251.185328 
L 367.490105 -239.755139 
L 365.858675 -232.292046 
L 364.227245 -252.365748 
L 362.595815 -255.949476 
L 360.964386 -231.551947 
L 359.332956 -245.156797 
L 357.701526 -244.420659 
L 356.070096 -245.239212 
L 354.438666 -239.564722 
L 352.807236 -251.972372 
L 351.175806 -231.40565 
L 349.544376 -252.65935 
L 347.912947 -250.407116 
L 346.281517 -255.805443 
L 344.650087 -240.084325 
L 343.018657 -250.590799 
L 341.387227 -247.21877 
L 339.755797 -256.912564 
L 338.124367 -251.924798 
L 336.492937 -244.782726 
L 334.861508 -253.381092 
L 333.230078 -244.698243 
L 331.598648 -278.039559 
L 329.967218 -270.346021 
L 328.335788 -271.628113 
L 326.704358 -245.807548 
L 325.072928 -233.608902 
L 323.441498 -272.168311 
L 321.810069 -251.901576 
L 320.178639 -264.863801 
L 318.547209 -262.830373 
L 316.915779 -269.718275 
L 315.284349 -234.725544 
L 313.652919 -256.301364 
L 312.021489 -249.689324 
L 310.390059 -265.949899 
L 308.75863 -239.4618 
L 307.1272 -249.455632 
L 305.49577 -258.521016 
L 303.86434 -257.038324 
L 302.23291 -290.824575 
L 300.60148 -250.379041 
L 298.97005 -250.777852 
L 297.33862 -256.845565 
L 295.70719 -265.815688 
L 294.075761 -276.274392 
L 292.444331 -251.734278 
L 290.812901 -259.895577 
L 289.181471 -251.869881 
L 287.550041 -254.839168 
L 285.918611 -274.789192 
L 284.287181 -257.019123 
L 282.655751 -271.475098 
L 281.024322 -246.991869 
L 279.392892 -256.639012 
L 277.761462 -269.680783 
L 276.130032 -259.28006 
L 274.498602 -290.221124 
L 272.867172 -250.887777 
L 271.235742 -256.362225 
L 269.604312 -231.682975 
L 267.972883 -252.58559 
L 266.341453 -254.198953 
L 264.710023 -251.096779 
L 263.078593 -225.969511 
L 261.447163 -245.191178 
L 259.815733 -225.519659 
L 258.184303 -244.719069 
L 256.552873 -249.066134 
L 254.921444 -270.683655 
L 253.290014 -229.975633 
L 251.658584 -251.198264 
L 250.027154 -249.786542 
L 248.395724 -249.925672 
L 246.764294 -244.069271 
L 245.132864 -256.57128 
L 243.501434 -256.832881 
L 241.870005 -254.375874 
L 240.238575 -249.345926 
L 238.607145 -249.402633 
L 236.975715 -215.259269 
L 235.344285 -254.665952 
L 233.712855 -262.983444 
L 232.081425 -273.146036 
L 230.449995 -245.760092 
L 228.818566 -254.601379 
L 227.187136 -224.435001 
L 225.555706 -239.561508 
L 223.924276 -251.232833 
L 222.292846 -254.408814 
L 220.661416 -275.901623 
L 219.029986 -262.903824 
L 217.398556 -267.347571 
L 215.767127 -249.628302 
L 214.135697 -253.713682 
L 212.504267 -258.979025 
L 210.872837 -242.03782 
L 209.241407 -248.273537 
L 207.609977 -251.312714 
L 205.978547 -281.205423 
L 204.347117 -267.973991 
L 202.715688 -255.512981 
L 201.084258 -254.734741 
L 199.452828 -262.441453 
L 197.821398 -248.840042 
L 196.189968 -248.383561 
L 194.558538 -256.890654 
L 192.927108 -243.236922 
L 191.295678 -249.976842 
L 189.664249 -254.403863 
L 188.032819 -247.083567 
L 186.401389 -257.387162 
L 184.769959 -248.290834 
L 183.138529 -224.331999 
L 181.507099 -263.543163 
L 179.875669 -248.472126 
L 178.244239 -246.18583 
L 176.61281 -250.390709 
L 174.98138 -242.306977 
L 173.34995 -247.785018 
L 171.71852 -225.149595 
L 170.08709 -255.757345 
L 168.45566 -228.155593 
L 166.82423 -240.541947 
L 165.1928 -270.616107 
L 163.56137 -247.494453 
L 161.929941 -257.880364 
L 160.298511 -278.234631 
L 158.667081 -255.058795 
L 157.035651 -271.040204 
L 155.404221 -265.303046 
L 153.772791 -250.823806 
L 152.141361 -248.423155 
L 150.509931 -250.83617 
L 148.878502 -249.341059 
L 147.247072 -251.464913 
L 145.615642 -248.58942 
L 143.984212 -254.96618 
L 142.352782 -246.837801 
L 140.721352 -268.4945 
L 139.089922 -244.014291 
L 137.458492 -240.712817 
L 135.827063 -233.610126 
L 134.195633 -269.137572 
L 132.564203 -254.581844 
L 130.932773 -235.298069 
L 129.301343 -258.098043 
L 127.669913 -250.487336 
L 126.038483 -215.523774 
L 124.407053 -243.052125 
L 122.775624 -260.803169 
L 121.144194 -257.571881 
L 119.512764 -239.11467 
L 117.881334 -243.753577 
L 116.249904 -261.608543 
L 114.618474 -247.648174 
L 112.987044 -261.199166 
L 111.355614 -250.569764 
L 109.724185 -250.881052 
L 108.092755 -239.084107 
L 106.461325 -254.59988 
L 104.829895 -250.555013 
L 103.198465 -245.974683 
L 101.567035 -278.196429 
L 99.935605 -234.953009 
L 98.304175 -257.023631 
L 96.672746 -249.048039 
L 95.041316 -252.160634 
L 93.409886 -244.139088 
L 91.778456 -273.812355 
L 90.147026 -272.312582 
L 88.515596 -241.543304 
L 86.884166 -251.300981 
L 85.252736 -265.730892 
L 83.621307 -247.379926 
L 81.989877 -250.181509 
L 80.358447 -222.401363 
L 78.727017 -252.66091 
L 77.095587 -248.970547 
L 75.464157 -237.062473 
L 73.832727 -250.623987 
z
" id="md6ccee981d" style="stroke:#ffffff;stroke-opacity:0.2;"/>
    </defs>
    <g clip-path="url(#p1bcff0714c)">
     <use style="fill:#1f77b4;fill-opacity:0.2;stroke:#ffffff;stroke-opacity:0.2;" x="0" xlink:href="#md6ccee981d" y="345.6"/>
    </g>
   </g>
   <g id="line2d_18">
    <path clip-path="url(#p1bcff0714c)" d="M 73.832727 151.993345 
L 75.464157 129.624572 
L 77.095587 134.550398 
L 78.727017 100.724187 
L 80.358447 137.721712 
L 81.989877 115.674647 
L 83.621307 133.139055 
L 85.252736 131.787824 
L 86.884166 111.396277 
L 88.515596 124.433207 
L 90.147026 145.616026 
L 91.778456 136.139555 
L 93.409886 114.683021 
L 95.041316 123.490471 
L 96.672746 152.84164 
L 98.304175 102.287782 
L 99.935605 116.298465 
L 101.567035 139.178924 
L 103.198465 114.369295 
L 106.461325 122.010547 
L 108.092755 176.604662 
L 109.724185 110.47266 
L 111.355614 103.440075 
L 114.618474 145.20741 
L 116.249904 114.578359 
L 117.881334 114.084837 
L 119.512764 133.707331 
L 121.144194 95.364756 
L 122.775624 113.111517 
L 124.407053 112.424843 
L 126.038483 207.237578 
L 127.669913 107.054612 
L 129.301343 119.049145 
L 130.932773 119.204468 
L 132.564203 119.816492 
L 134.195633 155.625708 
L 135.827063 203.738937 
L 137.458492 112.240605 
L 139.089922 128.952133 
L 140.721352 129.737957 
L 142.352782 119.820814 
L 143.984212 98.004634 
L 145.615642 174.695045 
L 147.247072 100.403274 
L 148.878502 103.535025 
L 150.509931 173.283825 
L 152.141361 148.305188 
L 153.772791 99.558943 
L 155.404221 136.611182 
L 157.035651 128.914356 
L 158.667081 101.203076 
L 160.298511 152.780231 
L 161.929941 157.595376 
L 163.56137 103.868749 
L 165.1928 140.000204 
L 166.82423 111.636738 
L 168.45566 191.243677 
L 170.08709 121.702285 
L 171.71852 196.043685 
L 173.34995 100.768116 
L 174.98138 132.071059 
L 176.61281 108.477215 
L 178.244239 107.477635 
L 179.875669 115.131903 
L 181.507099 153.330634 
L 183.138529 173.717494 
L 184.769959 109.687566 
L 186.401389 125.07238 
L 188.032819 154.247574 
L 189.664249 111.704567 
L 191.295678 103.839362 
L 192.927108 131.695391 
L 194.558538 109.623436 
L 196.189968 146.927486 
L 197.821398 105.5791 
L 199.452828 124.313842 
L 201.084258 116.460567 
L 202.715688 163.279973 
L 204.347117 156.644915 
L 205.978547 123.942541 
L 207.609977 113.28114 
L 209.241407 116.350689 
L 210.872837 132.558962 
L 212.504267 91.076117 
L 214.135697 130.662099 
L 215.767127 105.721451 
L 217.398556 143.648422 
L 219.029986 133.824951 
L 220.661416 142.745559 
L 222.292846 101.697267 
L 223.924276 155.0285 
L 225.555706 120.815602 
L 227.187136 192.048876 
L 228.818566 98.161048 
L 230.449995 108.081653 
L 232.081425 147.115078 
L 233.712855 154.360551 
L 235.344285 103.410959 
L 236.975715 188.762165 
L 238.607145 108.590639 
L 240.238575 106.715553 
L 241.870005 156.053278 
L 243.501434 149.758038 
L 245.132864 129.129573 
L 246.764294 111.950671 
L 248.395724 114.544394 
L 250.027154 104.930174 
L 251.658584 127.045331 
L 253.290014 173.724037 
L 254.921444 125.691986 
L 256.552873 110.736941 
L 258.184303 133.847378 
L 259.815733 164.974008 
L 261.447163 107.695225 
L 263.078593 152.865347 
L 264.710023 101.368194 
L 266.341453 121.192135 
L 267.972883 119.764672 
L 269.604312 174.108238 
L 271.235742 99.987303 
L 272.867172 121.210767 
L 274.498602 130.726946 
L 276.130032 127.741064 
L 277.761462 143.52667 
L 279.392892 178.393007 
L 281.024322 103.854985 
L 282.655751 118.972565 
L 284.287181 165.252953 
L 285.918611 135.519126 
L 287.550041 118.469159 
L 289.181471 117.723698 
L 290.812901 115.543934 
L 292.444331 141.667891 
L 294.075761 154.840679 
L 295.70719 144.827829 
L 297.33862 112.517685 
L 298.97005 119.974157 
L 300.60148 116.472074 
L 302.23291 144.084158 
L 303.86434 164.671558 
L 305.49577 116.3694 
L 307.1272 106.097836 
L 308.75863 144.890917 
L 310.390059 127.865391 
L 312.021489 117.308067 
L 313.652919 102.419057 
L 315.284349 121.513665 
L 316.915779 144.110348 
L 318.547209 157.140939 
L 320.178639 126.848007 
L 321.810069 111.668468 
L 323.441498 151.875757 
L 325.072928 125.443553 
L 326.704358 103.191098 
L 328.335788 151.883325 
L 329.967218 136.933984 
L 331.598648 138.904126 
L 333.230078 131.634042 
L 334.861508 113.606956 
L 336.492937 109.504516 
L 338.124367 107.199101 
L 339.755797 146.91127 
L 341.387227 113.118886 
L 343.018657 107.233138 
L 344.650087 147.209509 
L 346.281517 99.32933 
L 347.912947 108.659573 
L 349.544376 184.638147 
L 351.175806 161.920908 
L 352.807236 109.011225 
L 354.438666 165.594871 
L 356.070096 107.551586 
L 357.701526 141.336762 
L 359.332956 110.291206 
L 360.964386 184.026808 
L 362.595815 100.163575 
L 364.227245 107.560535 
L 365.858675 173.769876 
L 367.490105 115.09536 
L 369.121535 122.486067 
L 370.752965 161.573494 
L 372.384395 107.974706 
L 374.015825 113.383575 
L 375.647254 177.695846 
L 377.278684 142.217204 
L 378.910114 100.145648 
L 380.541544 129.005135 
L 382.172974 104.270142 
L 383.804404 106.866269 
L 385.435834 148.647981 
L 387.067264 142.819906 
L 388.698693 105.762193 
L 390.330123 143.928288 
L 391.961553 141.823916 
L 393.592983 132.40536 
L 395.224413 170.934228 
L 396.855843 119.11111 
L 398.487273 114.169501 
L 398.487273 114.169501 
" style="fill:none;stroke:#1f77b4;stroke-linecap:round;stroke-width:1.5;"/>
   </g>
   <g id="patch_3">
    <path d="M 57.6 307.584 
L 57.6 41.472 
" style="fill:none;stroke:#cccccc;stroke-linecap:square;stroke-linejoin:miter;stroke-width:0.8;"/>
   </g>
   <g id="patch_4">
    <path d="M 414.72 307.584 
L 414.72 41.472 
" style="fill:none;stroke:#cccccc;stroke-linecap:square;stroke-linejoin:miter;stroke-width:0.8;"/>
   </g>
   <g id="patch_5">
    <path d="M 57.6 307.584 
L 414.72 307.584 
" style="fill:none;stroke:#cccccc;stroke-linecap:square;stroke-linejoin:miter;stroke-width:0.8;"/>
   </g>
   <g id="patch_6">
    <path d="M 57.6 41.472 
L 414.72 41.472 
" style="fill:none;stroke:#cccccc;stroke-linecap:square;stroke-linejoin:miter;stroke-width:0.8;"/>
   </g>
   <g id="text_20">
    <!-- Model performance vs. # of iterations -->
    <g style="fill:#262626;" transform="translate(122.314688 35.472)scale(0.12 -0.12)">
     <defs>
      <path d="M 628 4666 
L 1569 4666 
L 2759 1491 
L 3956 4666 
L 4897 4666 
L 4897 0 
L 4281 0 
L 4281 4097 
L 3078 897 
L 2444 897 
L 1241 4097 
L 1241 0 
L 628 0 
L 628 4666 
z
" id="DejaVuSans-4d" transform="scale(0.015625)"/>
      <path d="M 2906 2969 
L 2906 4863 
L 3481 4863 
L 3481 0 
L 2906 0 
L 2906 525 
Q 2725 213 2448 61 
Q 2172 -91 1784 -91 
Q 1150 -91 751 415 
Q 353 922 353 1747 
Q 353 2572 751 3078 
Q 1150 3584 1784 3584 
Q 2172 3584 2448 3432 
Q 2725 3281 2906 2969 
z
M 947 1747 
Q 947 1113 1208 752 
Q 1469 391 1925 391 
Q 2381 391 2643 752 
Q 2906 1113 2906 1747 
Q 2906 2381 2643 2742 
Q 2381 3103 1925 3103 
Q 1469 3103 1208 2742 
Q 947 2381 947 1747 
z
" id="DejaVuSans-64" transform="scale(0.015625)"/>
      <path d="M 603 4863 
L 1178 4863 
L 1178 0 
L 603 0 
L 603 4863 
z
" id="DejaVuSans-6c" transform="scale(0.015625)"/>
      <path id="DejaVuSans-20" transform="scale(0.015625)"/>
      <path d="M 1159 525 
L 1159 -1331 
L 581 -1331 
L 581 3500 
L 1159 3500 
L 1159 2969 
Q 1341 3281 1617 3432 
Q 1894 3584 2278 3584 
Q 2916 3584 3314 3078 
Q 3713 2572 3713 1747 
Q 3713 922 3314 415 
Q 2916 -91 2278 -91 
Q 1894 -91 1617 61 
Q 1341 213 1159 525 
z
M 3116 1747 
Q 3116 2381 2855 2742 
Q 2594 3103 2138 3103 
Q 1681 3103 1420 2742 
Q 1159 2381 1159 1747 
Q 1159 1113 1420 752 
Q 1681 391 2138 391 
Q 2594 391 2855 752 
Q 3116 1113 3116 1747 
z
" id="DejaVuSans-70" transform="scale(0.015625)"/>
      <path d="M 2375 4863 
L 2375 4384 
L 1825 4384 
Q 1516 4384 1395 4259 
Q 1275 4134 1275 3809 
L 1275 3500 
L 2222 3500 
L 2222 3053 
L 1275 3053 
L 1275 0 
L 697 0 
L 697 3053 
L 147 3053 
L 147 3500 
L 697 3500 
L 697 3744 
Q 697 4328 969 4595 
Q 1241 4863 1831 4863 
L 2375 4863 
z
" id="DejaVuSans-66" transform="scale(0.015625)"/>
      <path d="M 3328 2828 
Q 3544 3216 3844 3400 
Q 4144 3584 4550 3584 
Q 5097 3584 5394 3201 
Q 5691 2819 5691 2113 
L 5691 0 
L 5113 0 
L 5113 2094 
Q 5113 2597 4934 2840 
Q 4756 3084 4391 3084 
Q 3944 3084 3684 2787 
Q 3425 2491 3425 1978 
L 3425 0 
L 2847 0 
L 2847 2094 
Q 2847 2600 2669 2842 
Q 2491 3084 2119 3084 
Q 1678 3084 1418 2786 
Q 1159 2488 1159 1978 
L 1159 0 
L 581 0 
L 581 3500 
L 1159 3500 
L 1159 2956 
Q 1356 3278 1631 3431 
Q 1906 3584 2284 3584 
Q 2666 3584 2933 3390 
Q 3200 3197 3328 2828 
z
" id="DejaVuSans-6d" transform="scale(0.015625)"/>
      <path d="M 191 3500 
L 800 3500 
L 1894 563 
L 2988 3500 
L 3597 3500 
L 2284 0 
L 1503 0 
L 191 3500 
z
" id="DejaVuSans-76" transform="scale(0.015625)"/>
      <path d="M 2834 3397 
L 2834 2853 
Q 2591 2978 2328 3040 
Q 2066 3103 1784 3103 
Q 1356 3103 1142 2972 
Q 928 2841 928 2578 
Q 928 2378 1081 2264 
Q 1234 2150 1697 2047 
L 1894 2003 
Q 2506 1872 2764 1633 
Q 3022 1394 3022 966 
Q 3022 478 2636 193 
Q 2250 -91 1575 -91 
Q 1294 -91 989 -36 
Q 684 19 347 128 
L 347 722 
Q 666 556 975 473 
Q 1284 391 1588 391 
Q 1994 391 2212 530 
Q 2431 669 2431 922 
Q 2431 1156 2273 1281 
Q 2116 1406 1581 1522 
L 1381 1569 
Q 847 1681 609 1914 
Q 372 2147 372 2553 
Q 372 3047 722 3315 
Q 1072 3584 1716 3584 
Q 2034 3584 2315 3537 
Q 2597 3491 2834 3397 
z
" id="DejaVuSans-73" transform="scale(0.015625)"/>
      <path d="M 3272 2816 
L 2363 2816 
L 2100 1772 
L 3016 1772 
L 3272 2816 
z
M 2803 4594 
L 2478 3297 
L 3391 3297 
L 3719 4594 
L 4219 4594 
L 3897 3297 
L 4872 3297 
L 4872 2816 
L 3775 2816 
L 3519 1772 
L 4513 1772 
L 4513 1294 
L 3397 1294 
L 3072 0 
L 2572 0 
L 2894 1294 
L 1978 1294 
L 1656 0 
L 1153 0 
L 1478 1294 
L 494 1294 
L 494 1772 
L 1594 1772 
L 1856 2816 
L 850 2816 
L 850 3297 
L 1978 3297 
L 2297 4594 
L 2803 4594 
z
" id="DejaVuSans-23" transform="scale(0.015625)"/>
     </defs>
     <use xlink:href="#DejaVuSans-4d"/>
     <use x="86.279297" xlink:href="#DejaVuSans-6f"/>
     <use x="147.460938" xlink:href="#DejaVuSans-64"/>
     <use x="210.9375" xlink:href="#DejaVuSans-65"/>
     <use x="272.460938" xlink:href="#DejaVuSans-6c"/>
     <use x="300.244141" xlink:href="#DejaVuSans-20"/>
     <use x="332.03125" xlink:href="#DejaVuSans-70"/>
     <use x="395.507812" xlink:href="#DejaVuSans-65"/>
     <use x="457.03125" xlink:href="#DejaVuSans-72"/>
     <use x="498.144531" xlink:href="#DejaVuSans-66"/>
     <use x="533.349609" xlink:href="#DejaVuSans-6f"/>
     <use x="594.53125" xlink:href="#DejaVuSans-72"/>
     <use x="633.894531" xlink:href="#DejaVuSans-6d"/>
     <use x="731.306641" xlink:href="#DejaVuSans-61"/>
     <use x="792.585938" xlink:href="#DejaVuSans-6e"/>
     <use x="855.964844" xlink:href="#DejaVuSans-63"/>
     <use x="910.945312" xlink:href="#DejaVuSans-65"/>
     <use x="972.46875" xlink:href="#DejaVuSans-20"/>
     <use x="1004.255859" xlink:href="#DejaVuSans-76"/>
     <use x="1063.435547" xlink:href="#DejaVuSans-73"/>
     <use x="1115.535156" xlink:href="#DejaVuSans-2e"/>
     <use x="1147.322266" xlink:href="#DejaVuSans-20"/>
     <use x="1179.109375" xlink:href="#DejaVuSans-23"/>
     <use x="1262.898438" xlink:href="#DejaVuSans-20"/>
     <use x="1294.685547" xlink:href="#DejaVuSans-6f"/>
     <use x="1355.867188" xlink:href="#DejaVuSans-66"/>
     <use x="1391.072266" xlink:href="#DejaVuSans-20"/>
     <use x="1422.859375" xlink:href="#DejaVuSans-69"/>
     <use x="1450.642578" xlink:href="#DejaVuSans-74"/>
     <use x="1489.851562" xlink:href="#DejaVuSans-65"/>
     <use x="1551.375" xlink:href="#DejaVuSans-72"/>
     <use x="1592.488281" xlink:href="#DejaVuSans-61"/>
     <use x="1653.767578" xlink:href="#DejaVuSans-74"/>
     <use x="1692.976562" xlink:href="#DejaVuSans-69"/>
     <use x="1720.759766" xlink:href="#DejaVuSans-6f"/>
     <use x="1781.941406" xlink:href="#DejaVuSans-6e"/>
     <use x="1845.320312" xlink:href="#DejaVuSans-73"/>
    </g>
   </g>
  </g>
 </g>
 <defs>
  <clipPath id="p1bcff0714c">
   <rect height="266.112" width="357.12" x="57.6" y="41.472"/>
  </clipPath>
 </defs>
</svg>
