<?xml version="1.0" encoding="utf-8" standalone="no"?>
<!DOCTYPE svg PUBLIC "-//W3C//DTD SVG 1.1//EN"
  "http://www.w3.org/Graphics/SVG/1.1/DTD/svg11.dtd">
<svg xmlns:xlink="http://www.w3.org/1999/xlink" width="460.8pt" height="345.6pt" viewBox="0 0 460.8 345.6" xmlns="http://www.w3.org/2000/svg" version="1.1">
 <metadata>
  <rdf:RDF xmlns:dc="http://purl.org/dc/elements/1.1/" xmlns:cc="http://creativecommons.org/ns#" xmlns:rdf="http://www.w3.org/1999/02/22-rdf-syntax-ns#">
   <cc:Work>
    <dc:type rdf:resource="http://purl.org/dc/dcmitype/StillImage"/>
    <dc:date>2022-05-22T08:51:19.223574</dc:date>
    <dc:format>image/svg+xml</dc:format>
    <dc:creator>
     <cc:Agent>
      <dc:title>Matplotlib v3.5.2, https://matplotlib.org/</dc:title>
     </cc:Agent>
    </dc:creator>
   </cc:Work>
  </rdf:RDF>
 </metadata>
 <defs>
  <style type="text/css">*{stroke-linejoin: round; stroke-linecap: butt}</style>
 </defs>
 <g id="figure_1">
  <g id="patch_1">
   <path d="M 0 345.6 
L 460.8 345.6 
L 460.8 0 
L 0 0 
z
" style="fill: #ffffff"/>
  </g>
  <g id="axes_1">
   <g id="patch_2">
    <path d="M 57.6 307.584 
L 414.72 307.584 
L 414.72 41.472 
L 57.6 41.472 
z
" style="fill: #ffffff"/>
   </g>
   <g id="matplotlib.axis_1">
    <g id="xtick_1">
     <g id="line2d_1">
      <path d="M 72.201297 307.584 
L 72.201297 41.472 
" clip-path="url(#p981dda1314)" style="fill: none; stroke: #cccccc; stroke-width: 0.8; stroke-linecap: round"/>
     </g>
     <g id="text_1">
      <!-- 0 -->
      <g style="fill: #262626" transform="translate(69.020047 322.182437)scale(0.1 -0.1)">
       <defs>
        <path id="DejaVuSans-30" d="M 2034 4250 
Q 1547 4250 1301 3770 
Q 1056 3291 1056 2328 
Q 1056 1369 1301 889 
Q 1547 409 2034 409 
Q 2525 409 2770 889 
Q 3016 1369 3016 2328 
Q 3016 3291 2770 3770 
Q 2525 4250 2034 4250 
z
M 2034 4750 
Q 2819 4750 3233 4129 
Q 3647 3509 3647 2328 
Q 3647 1150 3233 529 
Q 2819 -91 2034 -91 
Q 1250 -91 836 529 
Q 422 1150 422 2328 
Q 422 3509 836 4129 
Q 1250 4750 2034 4750 
z
" transform="scale(0.015625)"/>
       </defs>
       <use xlink:href="#DejaVuSans-30"/>
      </g>
     </g>
    </g>
    <g id="xtick_2">
     <g id="line2d_2">
      <path d="M 112.987044 307.584 
L 112.987044 41.472 
" clip-path="url(#p981dda1314)" style="fill: none; stroke: #cccccc; stroke-width: 0.8; stroke-linecap: round"/>
     </g>
     <g id="text_2">
      <!-- 25 -->
      <g style="fill: #262626" transform="translate(106.624544 322.182437)scale(0.1 -0.1)">
       <defs>
        <path id="DejaVuSans-32" d="M 1228 531 
L 3431 531 
L 3431 0 
L 469 0 
L 469 531 
Q 828 903 1448 1529 
Q 2069 2156 2228 2338 
Q 2531 2678 2651 2914 
Q 2772 3150 2772 3378 
Q 2772 3750 2511 3984 
Q 2250 4219 1831 4219 
Q 1534 4219 1204 4116 
Q 875 4013 500 3803 
L 500 4441 
Q 881 4594 1212 4672 
Q 1544 4750 1819 4750 
Q 2544 4750 2975 4387 
Q 3406 4025 3406 3419 
Q 3406 3131 3298 2873 
Q 3191 2616 2906 2266 
Q 2828 2175 2409 1742 
Q 1991 1309 1228 531 
z
" transform="scale(0.015625)"/>
        <path id="DejaVuSans-35" d="M 691 4666 
L 3169 4666 
L 3169 4134 
L 1269 4134 
L 1269 2991 
Q 1406 3038 1543 3061 
Q 1681 3084 1819 3084 
Q 2600 3084 3056 2656 
Q 3513 2228 3513 1497 
Q 3513 744 3044 326 
Q 2575 -91 1722 -91 
Q 1428 -91 1123 -41 
Q 819 9 494 109 
L 494 744 
Q 775 591 1075 516 
Q 1375 441 1709 441 
Q 2250 441 2565 725 
Q 2881 1009 2881 1497 
Q 2881 1984 2565 2268 
Q 2250 2553 1709 2553 
Q 1456 2553 1204 2497 
Q 953 2441 691 2322 
L 691 4666 
z
" transform="scale(0.015625)"/>
       </defs>
       <use xlink:href="#DejaVuSans-32"/>
       <use xlink:href="#DejaVuSans-35" x="63.623047"/>
      </g>
     </g>
    </g>
    <g id="xtick_3">
     <g id="line2d_3">
      <path d="M 153.772791 307.584 
L 153.772791 41.472 
" clip-path="url(#p981dda1314)" style="fill: none; stroke: #cccccc; stroke-width: 0.8; stroke-linecap: round"/>
     </g>
     <g id="text_3">
      <!-- 50 -->
      <g style="fill: #262626" transform="translate(147.410291 322.182437)scale(0.1 -0.1)">
       <use xlink:href="#DejaVuSans-35"/>
       <use xlink:href="#DejaVuSans-30" x="63.623047"/>
      </g>
     </g>
    </g>
    <g id="xtick_4">
     <g id="line2d_4">
      <path d="M 194.558538 307.584 
L 194.558538 41.472 
" clip-path="url(#p981dda1314)" style="fill: none; stroke: #cccccc; stroke-width: 0.8; stroke-linecap: round"/>
     </g>
     <g id="text_4">
      <!-- 75 -->
      <g style="fill: #262626" transform="translate(188.196038 322.182437)scale(0.1 -0.1)">
       <defs>
        <path id="DejaVuSans-37" d="M 525 4666 
L 3525 4666 
L 3525 4397 
L 1831 0 
L 1172 0 
L 2766 4134 
L 525 4134 
L 525 4666 
z
" transform="scale(0.015625)"/>
       </defs>
       <use xlink:href="#DejaVuSans-37"/>
       <use xlink:href="#DejaVuSans-35" x="63.623047"/>
      </g>
     </g>
    </g>
    <g id="xtick_5">
     <g id="line2d_5">
      <path d="M 235.344285 307.584 
L 235.344285 41.472 
" clip-path="url(#p981dda1314)" style="fill: none; stroke: #cccccc; stroke-width: 0.8; stroke-linecap: round"/>
     </g>
     <g id="text_5">
      <!-- 100 -->
      <g style="fill: #262626" transform="translate(225.800535 322.182437)scale(0.1 -0.1)">
       <defs>
        <path id="DejaVuSans-31" d="M 794 531 
L 1825 531 
L 1825 4091 
L 703 3866 
L 703 4441 
L 1819 4666 
L 2450 4666 
L 2450 531 
L 3481 531 
L 3481 0 
L 794 0 
L 794 531 
z
" transform="scale(0.015625)"/>
       </defs>
       <use xlink:href="#DejaVuSans-31"/>
       <use xlink:href="#DejaVuSans-30" x="63.623047"/>
       <use xlink:href="#DejaVuSans-30" x="127.246094"/>
      </g>
     </g>
    </g>
    <g id="xtick_6">
     <g id="line2d_6">
      <path d="M 276.130032 307.584 
L 276.130032 41.472 
" clip-path="url(#p981dda1314)" style="fill: none; stroke: #cccccc; stroke-width: 0.8; stroke-linecap: round"/>
     </g>
     <g id="text_6">
      <!-- 125 -->
      <g style="fill: #262626" transform="translate(266.586282 322.182437)scale(0.1 -0.1)">
       <use xlink:href="#DejaVuSans-31"/>
       <use xlink:href="#DejaVuSans-32" x="63.623047"/>
       <use xlink:href="#DejaVuSans-35" x="127.246094"/>
      </g>
     </g>
    </g>
    <g id="xtick_7">
     <g id="line2d_7">
      <path d="M 316.915779 307.584 
L 316.915779 41.472 
" clip-path="url(#p981dda1314)" style="fill: none; stroke: #cccccc; stroke-width: 0.8; stroke-linecap: round"/>
     </g>
     <g id="text_7">
      <!-- 150 -->
      <g style="fill: #262626" transform="translate(307.372029 322.182437)scale(0.1 -0.1)">
       <use xlink:href="#DejaVuSans-31"/>
       <use xlink:href="#DejaVuSans-35" x="63.623047"/>
       <use xlink:href="#DejaVuSans-30" x="127.246094"/>
      </g>
     </g>
    </g>
    <g id="xtick_8">
     <g id="line2d_8">
      <path d="M 357.701526 307.584 
L 357.701526 41.472 
" clip-path="url(#p981dda1314)" style="fill: none; stroke: #cccccc; stroke-width: 0.8; stroke-linecap: round"/>
     </g>
     <g id="text_8">
      <!-- 175 -->
      <g style="fill: #262626" transform="translate(348.157776 322.182437)scale(0.1 -0.1)">
       <use xlink:href="#DejaVuSans-31"/>
       <use xlink:href="#DejaVuSans-37" x="63.623047"/>
       <use xlink:href="#DejaVuSans-35" x="127.246094"/>
      </g>
     </g>
    </g>
    <g id="xtick_9">
     <g id="line2d_9">
      <path d="M 398.487273 307.584 
L 398.487273 41.472 
" clip-path="url(#p981dda1314)" style="fill: none; stroke: #cccccc; stroke-width: 0.8; stroke-linecap: round"/>
     </g>
     <g id="text_9">
      <!-- 200 -->
      <g style="fill: #262626" transform="translate(388.943523 322.182437)scale(0.1 -0.1)">
       <use xlink:href="#DejaVuSans-32"/>
       <use xlink:href="#DejaVuSans-30" x="63.623047"/>
       <use xlink:href="#DejaVuSans-30" x="127.246094"/>
      </g>
     </g>
    </g>
    <g id="text_10">
     <!-- Iteration -->
     <g style="fill: #262626" transform="translate(214.951406 335.860562)scale(0.1 -0.1)">
      <defs>
       <path id="DejaVuSans-49" d="M 628 4666 
L 1259 4666 
L 1259 0 
L 628 0 
L 628 4666 
z
" transform="scale(0.015625)"/>
       <path id="DejaVuSans-74" d="M 1172 4494 
L 1172 3500 
L 2356 3500 
L 2356 3053 
L 1172 3053 
L 1172 1153 
Q 1172 725 1289 603 
Q 1406 481 1766 481 
L 2356 481 
L 2356 0 
L 1766 0 
Q 1100 0 847 248 
Q 594 497 594 1153 
L 594 3053 
L 172 3053 
L 172 3500 
L 594 3500 
L 594 4494 
L 1172 4494 
z
" transform="scale(0.015625)"/>
       <path id="DejaVuSans-65" d="M 3597 1894 
L 3597 1613 
L 953 1613 
Q 991 1019 1311 708 
Q 1631 397 2203 397 
Q 2534 397 2845 478 
Q 3156 559 3463 722 
L 3463 178 
Q 3153 47 2828 -22 
Q 2503 -91 2169 -91 
Q 1331 -91 842 396 
Q 353 884 353 1716 
Q 353 2575 817 3079 
Q 1281 3584 2069 3584 
Q 2775 3584 3186 3129 
Q 3597 2675 3597 1894 
z
M 3022 2063 
Q 3016 2534 2758 2815 
Q 2500 3097 2075 3097 
Q 1594 3097 1305 2825 
Q 1016 2553 972 2059 
L 3022 2063 
z
" transform="scale(0.015625)"/>
       <path id="DejaVuSans-72" d="M 2631 2963 
Q 2534 3019 2420 3045 
Q 2306 3072 2169 3072 
Q 1681 3072 1420 2755 
Q 1159 2438 1159 1844 
L 1159 0 
L 581 0 
L 581 3500 
L 1159 3500 
L 1159 2956 
Q 1341 3275 1631 3429 
Q 1922 3584 2338 3584 
Q 2397 3584 2469 3576 
Q 2541 3569 2628 3553 
L 2631 2963 
z
" transform="scale(0.015625)"/>
       <path id="DejaVuSans-61" d="M 2194 1759 
Q 1497 1759 1228 1600 
Q 959 1441 959 1056 
Q 959 750 1161 570 
Q 1363 391 1709 391 
Q 2188 391 2477 730 
Q 2766 1069 2766 1631 
L 2766 1759 
L 2194 1759 
z
M 3341 1997 
L 3341 0 
L 2766 0 
L 2766 531 
Q 2569 213 2275 61 
Q 1981 -91 1556 -91 
Q 1019 -91 701 211 
Q 384 513 384 1019 
Q 384 1609 779 1909 
Q 1175 2209 1959 2209 
L 2766 2209 
L 2766 2266 
Q 2766 2663 2505 2880 
Q 2244 3097 1772 3097 
Q 1472 3097 1187 3025 
Q 903 2953 641 2809 
L 641 3341 
Q 956 3463 1253 3523 
Q 1550 3584 1831 3584 
Q 2591 3584 2966 3190 
Q 3341 2797 3341 1997 
z
" transform="scale(0.015625)"/>
       <path id="DejaVuSans-69" d="M 603 3500 
L 1178 3500 
L 1178 0 
L 603 0 
L 603 3500 
z
M 603 4863 
L 1178 4863 
L 1178 4134 
L 603 4134 
L 603 4863 
z
" transform="scale(0.015625)"/>
       <path id="DejaVuSans-6f" d="M 1959 3097 
Q 1497 3097 1228 2736 
Q 959 2375 959 1747 
Q 959 1119 1226 758 
Q 1494 397 1959 397 
Q 2419 397 2687 759 
Q 2956 1122 2956 1747 
Q 2956 2369 2687 2733 
Q 2419 3097 1959 3097 
z
M 1959 3584 
Q 2709 3584 3137 3096 
Q 3566 2609 3566 1747 
Q 3566 888 3137 398 
Q 2709 -91 1959 -91 
Q 1206 -91 779 398 
Q 353 888 353 1747 
Q 353 2609 779 3096 
Q 1206 3584 1959 3584 
z
" transform="scale(0.015625)"/>
       <path id="DejaVuSans-6e" d="M 3513 2113 
L 3513 0 
L 2938 0 
L 2938 2094 
Q 2938 2591 2744 2837 
Q 2550 3084 2163 3084 
Q 1697 3084 1428 2787 
Q 1159 2491 1159 1978 
L 1159 0 
L 581 0 
L 581 3500 
L 1159 3500 
L 1159 2956 
Q 1366 3272 1645 3428 
Q 1925 3584 2291 3584 
Q 2894 3584 3203 3211 
Q 3513 2838 3513 2113 
z
" transform="scale(0.015625)"/>
      </defs>
      <use xlink:href="#DejaVuSans-49"/>
      <use xlink:href="#DejaVuSans-74" x="29.492188"/>
      <use xlink:href="#DejaVuSans-65" x="68.701172"/>
      <use xlink:href="#DejaVuSans-72" x="130.224609"/>
      <use xlink:href="#DejaVuSans-61" x="171.337891"/>
      <use xlink:href="#DejaVuSans-74" x="232.617188"/>
      <use xlink:href="#DejaVuSans-69" x="271.826172"/>
      <use xlink:href="#DejaVuSans-6f" x="299.609375"/>
      <use xlink:href="#DejaVuSans-6e" x="360.791016"/>
     </g>
    </g>
   </g>
   <g id="matplotlib.axis_2">
    <g id="ytick_1">
     <g id="line2d_10">
      <path d="M 57.6 298.230092 
L 414.72 298.230092 
" clip-path="url(#p981dda1314)" style="fill: none; stroke: #cccccc; stroke-width: 0.8; stroke-linecap: round"/>
     </g>
     <g id="text_11">
      <!-- 0.650 -->
      <g style="fill: #262626" transform="translate(21.971875 302.02931)scale(0.1 -0.1)">
       <defs>
        <path id="DejaVuSans-2e" d="M 684 794 
L 1344 794 
L 1344 0 
L 684 0 
L 684 794 
z
" transform="scale(0.015625)"/>
        <path id="DejaVuSans-36" d="M 2113 2584 
Q 1688 2584 1439 2293 
Q 1191 2003 1191 1497 
Q 1191 994 1439 701 
Q 1688 409 2113 409 
Q 2538 409 2786 701 
Q 3034 994 3034 1497 
Q 3034 2003 2786 2293 
Q 2538 2584 2113 2584 
z
M 3366 4563 
L 3366 3988 
Q 3128 4100 2886 4159 
Q 2644 4219 2406 4219 
Q 1781 4219 1451 3797 
Q 1122 3375 1075 2522 
Q 1259 2794 1537 2939 
Q 1816 3084 2150 3084 
Q 2853 3084 3261 2657 
Q 3669 2231 3669 1497 
Q 3669 778 3244 343 
Q 2819 -91 2113 -91 
Q 1303 -91 875 529 
Q 447 1150 447 2328 
Q 447 3434 972 4092 
Q 1497 4750 2381 4750 
Q 2619 4750 2861 4703 
Q 3103 4656 3366 4563 
z
" transform="scale(0.015625)"/>
       </defs>
       <use xlink:href="#DejaVuSans-30"/>
       <use xlink:href="#DejaVuSans-2e" x="63.623047"/>
       <use xlink:href="#DejaVuSans-36" x="95.410156"/>
       <use xlink:href="#DejaVuSans-35" x="159.033203"/>
       <use xlink:href="#DejaVuSans-30" x="222.65625"/>
      </g>
     </g>
    </g>
    <g id="ytick_2">
     <g id="line2d_11">
      <path d="M 57.6 264.907421 
L 414.72 264.907421 
" clip-path="url(#p981dda1314)" style="fill: none; stroke: #cccccc; stroke-width: 0.8; stroke-linecap: round"/>
     </g>
     <g id="text_12">
      <!-- 0.675 -->
      <g style="fill: #262626" transform="translate(21.971875 268.70664)scale(0.1 -0.1)">
       <use xlink:href="#DejaVuSans-30"/>
       <use xlink:href="#DejaVuSans-2e" x="63.623047"/>
       <use xlink:href="#DejaVuSans-36" x="95.410156"/>
       <use xlink:href="#DejaVuSans-37" x="159.033203"/>
       <use xlink:href="#DejaVuSans-35" x="222.65625"/>
      </g>
     </g>
    </g>
    <g id="ytick_3">
     <g id="line2d_12">
      <path d="M 57.6 231.58475 
L 414.72 231.58475 
" clip-path="url(#p981dda1314)" style="fill: none; stroke: #cccccc; stroke-width: 0.8; stroke-linecap: round"/>
     </g>
     <g id="text_13">
      <!-- 0.700 -->
      <g style="fill: #262626" transform="translate(21.971875 235.383969)scale(0.1 -0.1)">
       <use xlink:href="#DejaVuSans-30"/>
       <use xlink:href="#DejaVuSans-2e" x="63.623047"/>
       <use xlink:href="#DejaVuSans-37" x="95.410156"/>
       <use xlink:href="#DejaVuSans-30" x="159.033203"/>
       <use xlink:href="#DejaVuSans-30" x="222.65625"/>
      </g>
     </g>
    </g>
    <g id="ytick_4">
     <g id="line2d_13">
      <path d="M 57.6 198.262079 
L 414.72 198.262079 
" clip-path="url(#p981dda1314)" style="fill: none; stroke: #cccccc; stroke-width: 0.8; stroke-linecap: round"/>
     </g>
     <g id="text_14">
      <!-- 0.725 -->
      <g style="fill: #262626" transform="translate(21.971875 202.061298)scale(0.1 -0.1)">
       <use xlink:href="#DejaVuSans-30"/>
       <use xlink:href="#DejaVuSans-2e" x="63.623047"/>
       <use xlink:href="#DejaVuSans-37" x="95.410156"/>
       <use xlink:href="#DejaVuSans-32" x="159.033203"/>
       <use xlink:href="#DejaVuSans-35" x="222.65625"/>
      </g>
     </g>
    </g>
    <g id="ytick_5">
     <g id="line2d_14">
      <path d="M 57.6 164.939408 
L 414.72 164.939408 
" clip-path="url(#p981dda1314)" style="fill: none; stroke: #cccccc; stroke-width: 0.8; stroke-linecap: round"/>
     </g>
     <g id="text_15">
      <!-- 0.750 -->
      <g style="fill: #262626" transform="translate(21.971875 168.738627)scale(0.1 -0.1)">
       <use xlink:href="#DejaVuSans-30"/>
       <use xlink:href="#DejaVuSans-2e" x="63.623047"/>
       <use xlink:href="#DejaVuSans-37" x="95.410156"/>
       <use xlink:href="#DejaVuSans-35" x="159.033203"/>
       <use xlink:href="#DejaVuSans-30" x="222.65625"/>
      </g>
     </g>
    </g>
    <g id="ytick_6">
     <g id="line2d_15">
      <path d="M 57.6 131.616738 
L 414.72 131.616738 
" clip-path="url(#p981dda1314)" style="fill: none; stroke: #cccccc; stroke-width: 0.8; stroke-linecap: round"/>
     </g>
     <g id="text_16">
      <!-- 0.775 -->
      <g style="fill: #262626" transform="translate(21.971875 135.415956)scale(0.1 -0.1)">
       <use xlink:href="#DejaVuSans-30"/>
       <use xlink:href="#DejaVuSans-2e" x="63.623047"/>
       <use xlink:href="#DejaVuSans-37" x="95.410156"/>
       <use xlink:href="#DejaVuSans-37" x="159.033203"/>
       <use xlink:href="#DejaVuSans-35" x="222.65625"/>
      </g>
     </g>
    </g>
    <g id="ytick_7">
     <g id="line2d_16">
      <path d="M 57.6 98.294067 
L 414.72 98.294067 
" clip-path="url(#p981dda1314)" style="fill: none; stroke: #cccccc; stroke-width: 0.8; stroke-linecap: round"/>
     </g>
     <g id="text_17">
      <!-- 0.800 -->
      <g style="fill: #262626" transform="translate(21.971875 102.093286)scale(0.1 -0.1)">
       <defs>
        <path id="DejaVuSans-38" d="M 2034 2216 
Q 1584 2216 1326 1975 
Q 1069 1734 1069 1313 
Q 1069 891 1326 650 
Q 1584 409 2034 409 
Q 2484 409 2743 651 
Q 3003 894 3003 1313 
Q 3003 1734 2745 1975 
Q 2488 2216 2034 2216 
z
M 1403 2484 
Q 997 2584 770 2862 
Q 544 3141 544 3541 
Q 544 4100 942 4425 
Q 1341 4750 2034 4750 
Q 2731 4750 3128 4425 
Q 3525 4100 3525 3541 
Q 3525 3141 3298 2862 
Q 3072 2584 2669 2484 
Q 3125 2378 3379 2068 
Q 3634 1759 3634 1313 
Q 3634 634 3220 271 
Q 2806 -91 2034 -91 
Q 1263 -91 848 271 
Q 434 634 434 1313 
Q 434 1759 690 2068 
Q 947 2378 1403 2484 
z
M 1172 3481 
Q 1172 3119 1398 2916 
Q 1625 2713 2034 2713 
Q 2441 2713 2670 2916 
Q 2900 3119 2900 3481 
Q 2900 3844 2670 4047 
Q 2441 4250 2034 4250 
Q 1625 4250 1398 4047 
Q 1172 3844 1172 3481 
z
" transform="scale(0.015625)"/>
       </defs>
       <use xlink:href="#DejaVuSans-30"/>
       <use xlink:href="#DejaVuSans-2e" x="63.623047"/>
       <use xlink:href="#DejaVuSans-38" x="95.410156"/>
       <use xlink:href="#DejaVuSans-30" x="159.033203"/>
       <use xlink:href="#DejaVuSans-30" x="222.65625"/>
      </g>
     </g>
    </g>
    <g id="ytick_8">
     <g id="line2d_17">
      <path d="M 57.6 64.971396 
L 414.72 64.971396 
" clip-path="url(#p981dda1314)" style="fill: none; stroke: #cccccc; stroke-width: 0.8; stroke-linecap: round"/>
     </g>
     <g id="text_18">
      <!-- 0.825 -->
      <g style="fill: #262626" transform="translate(21.971875 68.770615)scale(0.1 -0.1)">
       <use xlink:href="#DejaVuSans-30"/>
       <use xlink:href="#DejaVuSans-2e" x="63.623047"/>
       <use xlink:href="#DejaVuSans-38" x="95.410156"/>
       <use xlink:href="#DejaVuSans-32" x="159.033203"/>
       <use xlink:href="#DejaVuSans-35" x="222.65625"/>
      </g>
     </g>
    </g>
    <g id="text_19">
     <!-- Auroc -->
     <g style="fill: #262626" transform="translate(15.892188 188.868625)rotate(-90)scale(0.1 -0.1)">
      <defs>
       <path id="DejaVuSans-41" d="M 2188 4044 
L 1331 1722 
L 3047 1722 
L 2188 4044 
z
M 1831 4666 
L 2547 4666 
L 4325 0 
L 3669 0 
L 3244 1197 
L 1141 1197 
L 716 0 
L 50 0 
L 1831 4666 
z
" transform="scale(0.015625)"/>
       <path id="DejaVuSans-75" d="M 544 1381 
L 544 3500 
L 1119 3500 
L 1119 1403 
Q 1119 906 1312 657 
Q 1506 409 1894 409 
Q 2359 409 2629 706 
Q 2900 1003 2900 1516 
L 2900 3500 
L 3475 3500 
L 3475 0 
L 2900 0 
L 2900 538 
Q 2691 219 2414 64 
Q 2138 -91 1772 -91 
Q 1169 -91 856 284 
Q 544 659 544 1381 
z
M 1991 3584 
L 1991 3584 
z
" transform="scale(0.015625)"/>
       <path id="DejaVuSans-63" d="M 3122 3366 
L 3122 2828 
Q 2878 2963 2633 3030 
Q 2388 3097 2138 3097 
Q 1578 3097 1268 2742 
Q 959 2388 959 1747 
Q 959 1106 1268 751 
Q 1578 397 2138 397 
Q 2388 397 2633 464 
Q 2878 531 3122 666 
L 3122 134 
Q 2881 22 2623 -34 
Q 2366 -91 2075 -91 
Q 1284 -91 818 406 
Q 353 903 353 1747 
Q 353 2603 823 3093 
Q 1294 3584 2113 3584 
Q 2378 3584 2631 3529 
Q 2884 3475 3122 3366 
z
" transform="scale(0.015625)"/>
      </defs>
      <use xlink:href="#DejaVuSans-41"/>
      <use xlink:href="#DejaVuSans-75" x="68.408203"/>
      <use xlink:href="#DejaVuSans-72" x="131.787109"/>
      <use xlink:href="#DejaVuSans-6f" x="170.650391"/>
      <use xlink:href="#DejaVuSans-63" x="231.832031"/>
     </g>
    </g>
   </g>
   <g id="PolyCollection_1">
    <defs>
     <path id="mc1bf7794c0" d="M 73.832727 -258.212678 
L 73.832727 -172.595631 
L 75.464157 -187.357205 
L 77.095587 -143.765121 
L 78.727017 -166.278473 
L 80.358447 -99.770442 
L 81.989877 -174.314241 
L 83.621307 -125.688255 
L 85.252736 -125.21567 
L 86.884166 -150.751921 
L 88.515596 -189.840595 
L 90.147026 -149.371047 
L 91.778456 -147.241695 
L 93.409886 -130.009246 
L 95.041316 -161.702959 
L 96.672746 -120.655134 
L 98.304175 -162.387121 
L 99.935605 -143.706597 
L 101.567035 -162.525267 
L 103.198465 -162.465726 
L 104.829895 -181.200331 
L 106.461325 -154.865041 
L 108.092755 -174.413844 
L 109.724185 -166.560699 
L 111.355614 -154.758514 
L 112.987044 -130.267276 
L 114.618474 -157.042622 
L 116.249904 -168.086803 
L 117.881334 -146.357289 
L 119.512764 -190.461701 
L 121.144194 -170.164537 
L 122.775624 -116.998633 
L 124.407053 -147.637276 
L 126.038483 -190.506863 
L 127.669913 -147.081959 
L 129.301343 -190.490091 
L 130.932773 -156.30339 
L 132.564203 -165.135735 
L 134.195633 -50.112 
L 135.827063 -79.294053 
L 137.458492 -111.162095 
L 139.089922 -164.177948 
L 140.721352 -139.243632 
L 142.352782 -180.318963 
L 143.984212 -161.500854 
L 145.615642 -121.174467 
L 147.247072 -190.864654 
L 148.878502 -182.466894 
L 150.509931 -148.402216 
L 152.141361 -108.256032 
L 153.772791 -173.446595 
L 155.404221 -164.990623 
L 157.035651 -151.406945 
L 158.667081 -171.538738 
L 160.298511 -179.858004 
L 161.929941 -157.933541 
L 163.56137 -164.5015 
L 165.1928 -109.90622 
L 166.82423 -132.003043 
L 168.45566 -120.805223 
L 170.08709 -93.983232 
L 171.71852 -191.184463 
L 173.34995 -180.969501 
L 174.98138 -174.721435 
L 176.61281 -151.610084 
L 178.244239 -77.021829 
L 179.875669 -152.839064 
L 181.507099 -131.010295 
L 183.138529 -126.07915 
L 184.769959 -159.503613 
L 186.401389 -121.605757 
L 188.032819 -92.986671 
L 189.664249 -129.657807 
L 191.295678 -141.388358 
L 192.927108 -149.13046 
L 194.558538 -114.585614 
L 196.189968 -122.061423 
L 197.821398 -122.792413 
L 199.452828 -162.167148 
L 201.084258 -141.545042 
L 202.715688 -133.424958 
L 204.347117 -99.667862 
L 205.978547 -133.451927 
L 207.609977 -177.043782 
L 209.241407 -150.445096 
L 210.872837 -187.046474 
L 212.504267 -102.668595 
L 214.135697 -157.038208 
L 215.767127 -81.276287 
L 217.398556 -185.061454 
L 219.029986 -181.915789 
L 220.661416 -70.672985 
L 222.292846 -174.546042 
L 223.924276 -173.62769 
L 225.555706 -179.567096 
L 227.187136 -191.028255 
L 228.818566 -118.951781 
L 230.449995 -162.796631 
L 232.081425 -149.612201 
L 233.712855 -164.404826 
L 235.344285 -81.078235 
L 236.975715 -177.654132 
L 238.607145 -183.296592 
L 240.238575 -151.908187 
L 241.870005 -170.276387 
L 243.501434 -159.586336 
L 245.132864 -151.754149 
L 246.764294 -91.156082 
L 248.395724 -192.634759 
L 250.027154 -132.150697 
L 251.658584 -198.45201 
L 253.290014 -54.776479 
L 254.921444 -157.757051 
L 256.552873 -170.210142 
L 258.184303 -154.523044 
L 259.815733 -115.65731 
L 261.447163 -160.181831 
L 263.078593 -150.939184 
L 264.710023 -198.604978 
L 266.341453 -174.041261 
L 267.972883 -179.669768 
L 269.604312 -122.554894 
L 271.235742 -169.026894 
L 272.867172 -118.227573 
L 274.498602 -90.891515 
L 276.130032 -83.326753 
L 277.761462 -170.832253 
L 279.392892 -197.288549 
L 281.024322 -158.649578 
L 282.655751 -186.698546 
L 284.287181 -157.970169 
L 285.918611 -141.274974 
L 287.550041 -126.931733 
L 289.181471 -142.927275 
L 290.812901 -119.768249 
L 292.444331 -157.107515 
L 294.075761 -150.442171 
L 295.70719 -138.532306 
L 297.33862 -186.627252 
L 298.97005 -173.824387 
L 300.60148 -145.162195 
L 302.23291 -117.012976 
L 303.86434 -178.009648 
L 305.49577 -158.837439 
L 307.1272 -165.463109 
L 308.75863 -107.29974 
L 310.390059 -222.02611 
L 312.021489 -150.468609 
L 313.652919 -144.678294 
L 315.284349 -184.035198 
L 316.915779 -114.983151 
L 318.547209 -56.669079 
L 320.178639 -165.483899 
L 321.810069 -131.399446 
L 323.441498 -152.197317 
L 325.072928 -140.769987 
L 326.704358 -177.427222 
L 328.335788 -132.329467 
L 329.967218 -122.487226 
L 331.598648 -96.324101 
L 333.230078 -132.725102 
L 334.861508 -167.635372 
L 336.492937 -104.423569 
L 338.124367 -165.237878 
L 339.755797 -139.96931 
L 341.387227 -131.017586 
L 343.018657 -62.646894 
L 344.650087 -76.418783 
L 346.281517 -124.331012 
L 347.912947 -141.639394 
L 349.544376 -144.541474 
L 351.175806 -180.076118 
L 352.807236 -93.906913 
L 354.438666 -149.661077 
L 356.070096 -187.125663 
L 357.701526 -124.155574 
L 359.332956 -157.789939 
L 360.964386 -183.315518 
L 362.595815 -134.900032 
L 364.227245 -150.206742 
L 365.858675 -121.127793 
L 367.490105 -201.857682 
L 369.121535 -170.007213 
L 370.752965 -175.085296 
L 372.384395 -150.02594 
L 374.015825 -175.890816 
L 375.647254 -101.729735 
L 377.278684 -177.448085 
L 378.910114 -152.873829 
L 380.541544 -87.836777 
L 382.172974 -147.197517 
L 383.804404 -159.070315 
L 385.435834 -145.956117 
L 387.067264 -163.016875 
L 388.698693 -95.301046 
L 390.330123 -169.197591 
L 391.961553 -178.490995 
L 393.592983 -213.444285 
L 395.224413 -155.046402 
L 396.855843 -159.813687 
L 398.487273 -148.989491 
L 398.487273 -216.834308 
L 398.487273 -216.834308 
L 396.855843 -265.915015 
L 395.224413 -228.848344 
L 393.592983 -274.302998 
L 391.961553 -240.846188 
L 390.330123 -242.234658 
L 388.698693 -231.251601 
L 387.067264 -220.312282 
L 385.435834 -259.388573 
L 383.804404 -214.599229 
L 382.172974 -222.525131 
L 380.541544 -231.381391 
L 378.910114 -231.022047 
L 377.278684 -234.345456 
L 375.647254 -209.438973 
L 374.015825 -252.420947 
L 372.384395 -225.323767 
L 370.752965 -241.024587 
L 369.121535 -240.805717 
L 367.490105 -256.423659 
L 365.858675 -229.571625 
L 364.227245 -221.190983 
L 362.595815 -249.347462 
L 360.964386 -246.19136 
L 359.332956 -238.333157 
L 357.701526 -241.619635 
L 356.070096 -233.246557 
L 354.438666 -196.980431 
L 352.807236 -245.081562 
L 351.175806 -227.819752 
L 349.544376 -210.795768 
L 347.912947 -255.74395 
L 346.281517 -231.860871 
L 344.650087 -195.579516 
L 343.018657 -232.222451 
L 341.387227 -191.025512 
L 339.755797 -231.587702 
L 338.124367 -210.974869 
L 336.492937 -247.756221 
L 334.861508 -280.059685 
L 333.230078 -182.270734 
L 331.598648 -257.81381 
L 329.967218 -215.680093 
L 328.335788 -203.926211 
L 326.704358 -283.772906 
L 325.072928 -226.219389 
L 323.441498 -224.069823 
L 321.810069 -223.516007 
L 320.178639 -229.756197 
L 318.547209 -259.819807 
L 316.915779 -211.152219 
L 315.284349 -238.235275 
L 313.652919 -201.963763 
L 312.021489 -250.592426 
L 310.390059 -241.188503 
L 308.75863 -264.689914 
L 307.1272 -230.342252 
L 305.49577 -234.851224 
L 303.86434 -246.151214 
L 302.23291 -218.576676 
L 300.60148 -219.250548 
L 298.97005 -249.534869 
L 297.33862 -257.997338 
L 295.70719 -269.389873 
L 294.075761 -216.003565 
L 292.444331 -265.861547 
L 290.812901 -233.58839 
L 289.181471 -253.938074 
L 287.550041 -215.590613 
L 285.918611 -268.748835 
L 284.287181 -194.475563 
L 282.655751 -238.072978 
L 281.024322 -251.510004 
L 279.392892 -232.349305 
L 277.761462 -241.006072 
L 276.130032 -216.568662 
L 274.498602 -214.934676 
L 272.867172 -249.529757 
L 271.235742 -270.957691 
L 269.604312 -245.681697 
L 267.972883 -255.835958 
L 266.341453 -230.68306 
L 264.710023 -245.698679 
L 263.078593 -257.20685 
L 261.447163 -260.37655 
L 259.815733 -235.927175 
L 258.184303 -223.812699 
L 256.552873 -244.134822 
L 254.921444 -233.611505 
L 253.290014 -261.666459 
L 251.658584 -266.139777 
L 250.027154 -257.672634 
L 248.395724 -270.03006 
L 246.764294 -211.290487 
L 245.132864 -241.627745 
L 243.501434 -236.081233 
L 241.870005 -253.245241 
L 240.238575 -212.748501 
L 238.607145 -249.751139 
L 236.975715 -235.200543 
L 235.344285 -259.476677 
L 233.712855 -212.34775 
L 232.081425 -273.975788 
L 230.449995 -242.962887 
L 228.818566 -262.304493 
L 227.187136 -242.950748 
L 225.555706 -272.784632 
L 223.924276 -246.812005 
L 222.292846 -286.8433 
L 220.661416 -258.666348 
L 219.029986 -241.120064 
L 217.398556 -266.796375 
L 215.767127 -188.542895 
L 214.135697 -280.029303 
L 212.504267 -225.188223 
L 210.872837 -241.113414 
L 209.241407 -245.092633 
L 207.609977 -238.455647 
L 205.978547 -239.437217 
L 204.347117 -197.100129 
L 202.715688 -248.190072 
L 201.084258 -245.041939 
L 199.452828 -234.001733 
L 197.821398 -190.838183 
L 196.189968 -202.316989 
L 194.558538 -246.241476 
L 192.927108 -262.041161 
L 191.295678 -261.420041 
L 189.664249 -225.53999 
L 188.032819 -189.566161 
L 186.401389 -200.147604 
L 184.769959 -250.662057 
L 183.138529 -187.649153 
L 181.507099 -226.858958 
L 179.875669 -232.470162 
L 178.244239 -161.576199 
L 176.61281 -184.936697 
L 174.98138 -229.990724 
L 173.34995 -267.67474 
L 171.71852 -274.450484 
L 170.08709 -213.480196 
L 168.45566 -201.518104 
L 166.82423 -211.989985 
L 165.1928 -254.454084 
L 163.56137 -222.167426 
L 161.929941 -222.110871 
L 160.298511 -230.287915 
L 158.667081 -270.663127 
L 157.035651 -194.671897 
L 155.404221 -230.961816 
L 153.772791 -250.009141 
L 152.141361 -292.032 
L 150.509931 -232.5313 
L 148.878502 -261.975427 
L 147.247072 -269.798035 
L 145.615642 -234.029473 
L 143.984212 -232.537197 
L 142.352782 -229.440616 
L 140.721352 -224.458818 
L 139.089922 -239.87329 
L 137.458492 -231.564699 
L 135.827063 -253.669864 
L 134.195633 -259.854326 
L 132.564203 -237.224206 
L 130.932773 -267.679547 
L 129.301343 -260.482219 
L 127.669913 -267.011227 
L 126.038483 -233.731535 
L 124.407053 -257.14927 
L 122.775624 -225.574823 
L 121.144194 -233.709987 
L 119.512764 -247.403038 
L 117.881334 -255.979611 
L 116.249904 -268.210014 
L 114.618474 -218.423139 
L 112.987044 -226.942928 
L 111.355614 -215.299569 
L 109.724185 -268.588274 
L 108.092755 -235.869802 
L 106.461325 -223.188513 
L 104.829895 -231.199222 
L 103.198465 -200.923899 
L 101.567035 -256.788402 
L 99.935605 -222.587733 
L 98.304175 -252.580845 
L 96.672746 -203.30404 
L 95.041316 -217.383904 
L 93.409886 -211.438168 
L 91.778456 -226.031899 
L 90.147026 -224.607721 
L 88.515596 -245.118454 
L 86.884166 -241.430788 
L 85.252736 -272.02914 
L 83.621307 -258.949213 
L 81.989877 -262.518529 
L 80.358447 -265.098118 
L 78.727017 -244.386878 
L 77.095587 -230.994805 
L 75.464157 -264.971284 
L 73.832727 -258.212678 
z
" style="stroke: #ffffff; stroke-opacity: 0.2"/>
    </defs>
    <g clip-path="url(#p981dda1314)">
     <use xlink:href="#mc1bf7794c0" x="0" y="345.6" style="fill: #1f77b4; fill-opacity: 0.2; stroke: #ffffff; stroke-opacity: 0.2"/>
    </g>
   </g>
   <g id="line2d_18">
    <path d="M 73.832727 130.195846 
L 75.464157 119.435756 
L 77.095587 158.220037 
L 78.727017 140.267324 
L 80.358447 163.16572 
L 81.989877 127.183615 
L 83.621307 153.281266 
L 85.252736 146.977595 
L 86.884166 149.508645 
L 88.515596 128.120476 
L 90.147026 158.610616 
L 91.778456 158.963203 
L 93.409886 174.876293 
L 95.041316 156.056569 
L 96.672746 183.620413 
L 98.304175 138.116017 
L 99.935605 162.452835 
L 101.567035 135.943166 
L 103.198465 163.905188 
L 104.829895 139.400224 
L 106.461325 156.573223 
L 108.092755 140.458177 
L 109.724185 128.025514 
L 111.355614 160.570958 
L 112.987044 166.994898 
L 114.618474 157.867119 
L 116.249904 127.451592 
L 117.881334 144.43155 
L 119.512764 126.667631 
L 121.144194 143.662738 
L 122.775624 174.313272 
L 124.407053 143.206727 
L 126.038483 133.480801 
L 127.669913 138.553407 
L 129.301343 120.113845 
L 130.932773 133.608532 
L 132.564203 144.42003 
L 134.195633 190.616837 
L 135.827063 179.118041 
L 137.458492 174.236603 
L 139.089922 143.574381 
L 140.721352 163.748775 
L 142.352782 140.72021 
L 143.984212 148.580974 
L 145.615642 167.99803 
L 147.247072 115.268655 
L 148.878502 123.378839 
L 150.509931 155.133242 
L 152.141361 145.455984 
L 153.772791 133.872132 
L 155.404221 147.623781 
L 157.035651 172.560579 
L 158.667081 124.499067 
L 161.929941 155.577794 
L 163.56137 152.265537 
L 165.1928 163.419848 
L 168.45566 184.438337 
L 170.08709 191.868286 
L 171.71852 112.782527 
L 173.34995 121.27788 
L 174.98138 143.24392 
L 176.61281 177.32661 
L 178.244239 226.300986 
L 179.875669 152.945387 
L 181.507099 166.665374 
L 183.138529 188.735848 
L 184.769959 140.517165 
L 186.401389 184.723319 
L 188.032819 204.323584 
L 189.664249 168.001101 
L 191.295678 144.195801 
L 192.927108 140.01419 
L 194.558538 165.186455 
L 196.189968 183.410794 
L 197.821398 188.784702 
L 199.452828 147.515559 
L 201.084258 152.30651 
L 202.715688 154.792485 
L 204.347117 197.216004 
L 205.978547 159.155428 
L 207.609977 137.850285 
L 209.241407 147.831136 
L 210.872837 131.520056 
L 212.504267 181.671591 
L 214.135697 127.066245 
L 215.767127 210.690409 
L 217.398556 119.671085 
L 219.029986 134.082073 
L 220.661416 180.930334 
L 222.292846 114.905329 
L 223.924276 135.380153 
L 225.555706 119.424136 
L 227.187136 128.610498 
L 228.818566 154.971863 
L 230.449995 142.720241 
L 232.081425 133.806006 
L 233.712855 157.223712 
L 235.344285 175.322544 
L 236.975715 139.172662 
L 238.607145 129.076135 
L 240.238575 163.271656 
L 241.870005 133.839186 
L 243.501434 147.766215 
L 245.132864 148.909053 
L 246.764294 194.376715 
L 248.395724 114.26759 
L 250.027154 150.688335 
L 251.658584 113.304107 
L 253.290014 187.378531 
L 254.921444 149.915722 
L 256.552873 138.427518 
L 258.184303 156.432129 
L 259.815733 169.807757 
L 261.447163 135.32081 
L 263.078593 141.526983 
L 264.710023 123.448171 
L 266.341453 143.23784 
L 267.972883 127.847137 
L 269.604312 161.481704 
L 271.235742 125.607707 
L 272.867172 161.721335 
L 274.498602 192.686905 
L 276.130032 195.652293 
L 277.761462 139.680838 
L 279.392892 130.781073 
L 281.024322 140.520209 
L 282.655751 133.214238 
L 284.287181 169.377134 
L 285.918611 140.588095 
L 287.550041 174.338827 
L 289.181471 147.167325 
L 290.812901 168.92168 
L 292.444331 134.115469 
L 294.075761 162.377132 
L 295.70719 141.638911 
L 297.33862 123.287705 
L 298.97005 133.920372 
L 300.60148 163.393629 
L 302.23291 177.805174 
L 303.86434 133.519569 
L 305.49577 148.755669 
L 307.1272 147.69732 
L 308.75863 159.605173 
L 310.390059 113.992693 
L 312.021489 145.069483 
L 313.652919 172.278972 
L 315.284349 134.464764 
L 316.915779 182.532315 
L 318.547209 187.355557 
L 320.178639 147.979952 
L 321.810069 168.142274 
L 323.441498 157.46643 
L 325.072928 162.105312 
L 326.704358 114.999936 
L 328.335788 177.472161 
L 329.967218 176.51634 
L 331.598648 168.531044 
L 333.230078 188.102082 
L 334.861508 121.752471 
L 336.492937 169.510105 
L 338.124367 157.493627 
L 339.755797 159.821494 
L 341.387227 184.578451 
L 343.018657 198.165327 
L 344.650087 209.60085 
L 346.281517 167.504059 
L 347.912947 146.908328 
L 349.544376 167.931379 
L 351.175806 141.652065 
L 352.807236 176.105762 
L 354.438666 172.279246 
L 356.070096 135.41389 
L 357.701526 162.712395 
L 359.332956 147.538452 
L 360.964386 130.846561 
L 362.595815 153.476253 
L 364.227245 159.901138 
L 365.858675 170.250291 
L 367.490105 116.459329 
L 369.121535 140.193535 
L 370.752965 137.545059 
L 372.384395 157.925146 
L 374.015825 131.444119 
L 375.647254 190.015646 
L 377.278684 139.70323 
L 378.910114 153.652062 
L 380.541544 185.990916 
L 382.172974 160.738676 
L 383.804404 158.765228 
L 385.435834 142.927655 
L 387.067264 153.935421 
L 388.698693 182.323676 
L 390.330123 139.883875 
L 391.961553 135.931408 
L 393.592983 101.726359 
L 395.224413 153.652627 
L 396.855843 132.735649 
L 398.487273 162.6881 
L 398.487273 162.6881 
" clip-path="url(#p981dda1314)" style="fill: none; stroke: #1f77b4; stroke-width: 1.5; stroke-linecap: round"/>
   </g>
   <g id="LineCollection_1">
    <path d="M 398.487273 295.488 
L 398.487273 53.568 
" clip-path="url(#p981dda1314)" style="fill: none; stroke-dasharray: 5.55,2.4; stroke-dashoffset: 0; stroke: #1f77b4; stroke-width: 1.5"/>
   </g>
   <g id="patch_3">
    <path d="M 57.6 307.584 
L 57.6 41.472 
" style="fill: none; stroke: #cccccc; stroke-width: 0.8; stroke-linejoin: miter; stroke-linecap: square"/>
   </g>
   <g id="patch_4">
    <path d="M 414.72 307.584 
L 414.72 41.472 
" style="fill: none; stroke: #cccccc; stroke-width: 0.8; stroke-linejoin: miter; stroke-linecap: square"/>
   </g>
   <g id="patch_5">
    <path d="M 57.6 307.584 
L 414.72 307.584 
" style="fill: none; stroke: #cccccc; stroke-width: 0.8; stroke-linejoin: miter; stroke-linecap: square"/>
   </g>
   <g id="patch_6">
    <path d="M 57.6 41.472 
L 414.72 41.472 
" style="fill: none; stroke: #cccccc; stroke-width: 0.8; stroke-linejoin: miter; stroke-linecap: square"/>
   </g>
   <g id="text_20">
    <!-- Model performance vs. # of iterations -->
    <g style="fill: #262626" transform="translate(122.314688 35.472)scale(0.12 -0.12)">
     <defs>
      <path id="DejaVuSans-4d" d="M 628 4666 
L 1569 4666 
L 2759 1491 
L 3956 4666 
L 4897 4666 
L 4897 0 
L 4281 0 
L 4281 4097 
L 3078 897 
L 2444 897 
L 1241 4097 
L 1241 0 
L 628 0 
L 628 4666 
z
" transform="scale(0.015625)"/>
      <path id="DejaVuSans-64" d="M 2906 2969 
L 2906 4863 
L 3481 4863 
L 3481 0 
L 2906 0 
L 2906 525 
Q 2725 213 2448 61 
Q 2172 -91 1784 -91 
Q 1150 -91 751 415 
Q 353 922 353 1747 
Q 353 2572 751 3078 
Q 1150 3584 1784 3584 
Q 2172 3584 2448 3432 
Q 2725 3281 2906 2969 
z
M 947 1747 
Q 947 1113 1208 752 
Q 1469 391 1925 391 
Q 2381 391 2643 752 
Q 2906 1113 2906 1747 
Q 2906 2381 2643 2742 
Q 2381 3103 1925 3103 
Q 1469 3103 1208 2742 
Q 947 2381 947 1747 
z
" transform="scale(0.015625)"/>
      <path id="DejaVuSans-6c" d="M 603 4863 
L 1178 4863 
L 1178 0 
L 603 0 
L 603 4863 
z
" transform="scale(0.015625)"/>
      <path id="DejaVuSans-20" transform="scale(0.015625)"/>
      <path id="DejaVuSans-70" d="M 1159 525 
L 1159 -1331 
L 581 -1331 
L 581 3500 
L 1159 3500 
L 1159 2969 
Q 1341 3281 1617 3432 
Q 1894 3584 2278 3584 
Q 2916 3584 3314 3078 
Q 3713 2572 3713 1747 
Q 3713 922 3314 415 
Q 2916 -91 2278 -91 
Q 1894 -91 1617 61 
Q 1341 213 1159 525 
z
M 3116 1747 
Q 3116 2381 2855 2742 
Q 2594 3103 2138 3103 
Q 1681 3103 1420 2742 
Q 1159 2381 1159 1747 
Q 1159 1113 1420 752 
Q 1681 391 2138 391 
Q 2594 391 2855 752 
Q 3116 1113 3116 1747 
z
" transform="scale(0.015625)"/>
      <path id="DejaVuSans-66" d="M 2375 4863 
L 2375 4384 
L 1825 4384 
Q 1516 4384 1395 4259 
Q 1275 4134 1275 3809 
L 1275 3500 
L 2222 3500 
L 2222 3053 
L 1275 3053 
L 1275 0 
L 697 0 
L 697 3053 
L 147 3053 
L 147 3500 
L 697 3500 
L 697 3744 
Q 697 4328 969 4595 
Q 1241 4863 1831 4863 
L 2375 4863 
z
" transform="scale(0.015625)"/>
      <path id="DejaVuSans-6d" d="M 3328 2828 
Q 3544 3216 3844 3400 
Q 4144 3584 4550 3584 
Q 5097 3584 5394 3201 
Q 5691 2819 5691 2113 
L 5691 0 
L 5113 0 
L 5113 2094 
Q 5113 2597 4934 2840 
Q 4756 3084 4391 3084 
Q 3944 3084 3684 2787 
Q 3425 2491 3425 1978 
L 3425 0 
L 2847 0 
L 2847 2094 
Q 2847 2600 2669 2842 
Q 2491 3084 2119 3084 
Q 1678 3084 1418 2786 
Q 1159 2488 1159 1978 
L 1159 0 
L 581 0 
L 581 3500 
L 1159 3500 
L 1159 2956 
Q 1356 3278 1631 3431 
Q 1906 3584 2284 3584 
Q 2666 3584 2933 3390 
Q 3200 3197 3328 2828 
z
" transform="scale(0.015625)"/>
      <path id="DejaVuSans-76" d="M 191 3500 
L 800 3500 
L 1894 563 
L 2988 3500 
L 3597 3500 
L 2284 0 
L 1503 0 
L 191 3500 
z
" transform="scale(0.015625)"/>
      <path id="DejaVuSans-73" d="M 2834 3397 
L 2834 2853 
Q 2591 2978 2328 3040 
Q 2066 3103 1784 3103 
Q 1356 3103 1142 2972 
Q 928 2841 928 2578 
Q 928 2378 1081 2264 
Q 1234 2150 1697 2047 
L 1894 2003 
Q 2506 1872 2764 1633 
Q 3022 1394 3022 966 
Q 3022 478 2636 193 
Q 2250 -91 1575 -91 
Q 1294 -91 989 -36 
Q 684 19 347 128 
L 347 722 
Q 666 556 975 473 
Q 1284 391 1588 391 
Q 1994 391 2212 530 
Q 2431 669 2431 922 
Q 2431 1156 2273 1281 
Q 2116 1406 1581 1522 
L 1381 1569 
Q 847 1681 609 1914 
Q 372 2147 372 2553 
Q 372 3047 722 3315 
Q 1072 3584 1716 3584 
Q 2034 3584 2315 3537 
Q 2597 3491 2834 3397 
z
" transform="scale(0.015625)"/>
      <path id="DejaVuSans-23" d="M 3272 2816 
L 2363 2816 
L 2100 1772 
L 3016 1772 
L 3272 2816 
z
M 2803 4594 
L 2478 3297 
L 3391 3297 
L 3719 4594 
L 4219 4594 
L 3897 3297 
L 4872 3297 
L 4872 2816 
L 3775 2816 
L 3519 1772 
L 4513 1772 
L 4513 1294 
L 3397 1294 
L 3072 0 
L 2572 0 
L 2894 1294 
L 1978 1294 
L 1656 0 
L 1153 0 
L 1478 1294 
L 494 1294 
L 494 1772 
L 1594 1772 
L 1856 2816 
L 850 2816 
L 850 3297 
L 1978 3297 
L 2297 4594 
L 2803 4594 
z
" transform="scale(0.015625)"/>
     </defs>
     <use xlink:href="#DejaVuSans-4d"/>
     <use xlink:href="#DejaVuSans-6f" x="86.279297"/>
     <use xlink:href="#DejaVuSans-64" x="147.460938"/>
     <use xlink:href="#DejaVuSans-65" x="210.9375"/>
     <use xlink:href="#DejaVuSans-6c" x="272.460938"/>
     <use xlink:href="#DejaVuSans-20" x="300.244141"/>
     <use xlink:href="#DejaVuSans-70" x="332.03125"/>
     <use xlink:href="#DejaVuSans-65" x="395.507812"/>
     <use xlink:href="#DejaVuSans-72" x="457.03125"/>
     <use xlink:href="#DejaVuSans-66" x="498.144531"/>
     <use xlink:href="#DejaVuSans-6f" x="533.349609"/>
     <use xlink:href="#DejaVuSans-72" x="594.53125"/>
     <use xlink:href="#DejaVuSans-6d" x="633.894531"/>
     <use xlink:href="#DejaVuSans-61" x="731.306641"/>
     <use xlink:href="#DejaVuSans-6e" x="792.585938"/>
     <use xlink:href="#DejaVuSans-63" x="855.964844"/>
     <use xlink:href="#DejaVuSans-65" x="910.945312"/>
     <use xlink:href="#DejaVuSans-20" x="972.46875"/>
     <use xlink:href="#DejaVuSans-76" x="1004.255859"/>
     <use xlink:href="#DejaVuSans-73" x="1063.435547"/>
     <use xlink:href="#DejaVuSans-2e" x="1115.535156"/>
     <use xlink:href="#DejaVuSans-20" x="1147.322266"/>
     <use xlink:href="#DejaVuSans-23" x="1179.109375"/>
     <use xlink:href="#DejaVuSans-20" x="1262.898438"/>
     <use xlink:href="#DejaVuSans-6f" x="1294.685547"/>
     <use xlink:href="#DejaVuSans-66" x="1355.867188"/>
     <use xlink:href="#DejaVuSans-20" x="1391.072266"/>
     <use xlink:href="#DejaVuSans-69" x="1422.859375"/>
     <use xlink:href="#DejaVuSans-74" x="1450.642578"/>
     <use xlink:href="#DejaVuSans-65" x="1489.851562"/>
     <use xlink:href="#DejaVuSans-72" x="1551.375"/>
     <use xlink:href="#DejaVuSans-61" x="1592.488281"/>
     <use xlink:href="#DejaVuSans-74" x="1653.767578"/>
     <use xlink:href="#DejaVuSans-69" x="1692.976562"/>
     <use xlink:href="#DejaVuSans-6f" x="1720.759766"/>
     <use xlink:href="#DejaVuSans-6e" x="1781.941406"/>
     <use xlink:href="#DejaVuSans-73" x="1845.320312"/>
    </g>
   </g>
  </g>
 </g>
 <defs>
  <clipPath id="p981dda1314">
   <rect x="57.6" y="41.472" width="357.12" height="266.112"/>
  </clipPath>
 </defs>
</svg>
