<?xml version="1.0" encoding="utf-8" standalone="no"?>
<!DOCTYPE svg PUBLIC "-//W3C//DTD SVG 1.1//EN"
  "http://www.w3.org/Graphics/SVG/1.1/DTD/svg11.dtd">
<svg xmlns:xlink="http://www.w3.org/1999/xlink" width="460.8pt" height="345.6pt" viewBox="0 0 460.8 345.6" xmlns="http://www.w3.org/2000/svg" version="1.1">
 <metadata>
  <rdf:RDF xmlns:dc="http://purl.org/dc/elements/1.1/" xmlns:cc="http://creativecommons.org/ns#" xmlns:rdf="http://www.w3.org/1999/02/22-rdf-syntax-ns#">
   <cc:Work>
    <dc:type rdf:resource="http://purl.org/dc/dcmitype/StillImage"/>
    <dc:date>2022-06-20T03:08:06.421497</dc:date>
    <dc:format>image/svg+xml</dc:format>
    <dc:creator>
     <cc:Agent>
      <dc:title>Matplotlib v3.5.2, https://matplotlib.org/</dc:title>
     </cc:Agent>
    </dc:creator>
   </cc:Work>
  </rdf:RDF>
 </metadata>
 <defs>
  <style type="text/css">*{stroke-linejoin: round; stroke-linecap: butt}</style>
 </defs>
 <g id="figure_1">
  <g id="patch_1">
   <path d="M 0 345.6 
L 460.8 345.6 
L 460.8 0 
L 0 0 
z
" style="fill: #ffffff"/>
  </g>
  <g id="axes_1">
   <g id="patch_2">
    <path d="M 57.6 307.584 
L 414.72 307.584 
L 414.72 41.472 
L 57.6 41.472 
z
" style="fill: #ffffff"/>
   </g>
   <g id="matplotlib.axis_1">
    <g id="xtick_1">
     <g id="line2d_1">
      <path d="M 72.201297 307.584 
L 72.201297 41.472 
" clip-path="url(#pf254a55694)" style="fill: none; stroke: #cccccc; stroke-width: 0.8; stroke-linecap: round"/>
     </g>
     <g id="text_1">
      <!-- 0 -->
      <g style="fill: #262626" transform="translate(69.020047 322.182437)scale(0.1 -0.1)">
       <defs>
        <path id="DejaVuSans-30" d="M 2034 4250 
Q 1547 4250 1301 3770 
Q 1056 3291 1056 2328 
Q 1056 1369 1301 889 
Q 1547 409 2034 409 
Q 2525 409 2770 889 
Q 3016 1369 3016 2328 
Q 3016 3291 2770 3770 
Q 2525 4250 2034 4250 
z
M 2034 4750 
Q 2819 4750 3233 4129 
Q 3647 3509 3647 2328 
Q 3647 1150 3233 529 
Q 2819 -91 2034 -91 
Q 1250 -91 836 529 
Q 422 1150 422 2328 
Q 422 3509 836 4129 
Q 1250 4750 2034 4750 
z
" transform="scale(0.015625)"/>
       </defs>
       <use xlink:href="#DejaVuSans-30"/>
      </g>
     </g>
    </g>
    <g id="xtick_2">
     <g id="line2d_2">
      <path d="M 112.987044 307.584 
L 112.987044 41.472 
" clip-path="url(#pf254a55694)" style="fill: none; stroke: #cccccc; stroke-width: 0.8; stroke-linecap: round"/>
     </g>
     <g id="text_2">
      <!-- 25 -->
      <g style="fill: #262626" transform="translate(106.624544 322.182437)scale(0.1 -0.1)">
       <defs>
        <path id="DejaVuSans-32" d="M 1228 531 
L 3431 531 
L 3431 0 
L 469 0 
L 469 531 
Q 828 903 1448 1529 
Q 2069 2156 2228 2338 
Q 2531 2678 2651 2914 
Q 2772 3150 2772 3378 
Q 2772 3750 2511 3984 
Q 2250 4219 1831 4219 
Q 1534 4219 1204 4116 
Q 875 4013 500 3803 
L 500 4441 
Q 881 4594 1212 4672 
Q 1544 4750 1819 4750 
Q 2544 4750 2975 4387 
Q 3406 4025 3406 3419 
Q 3406 3131 3298 2873 
Q 3191 2616 2906 2266 
Q 2828 2175 2409 1742 
Q 1991 1309 1228 531 
z
" transform="scale(0.015625)"/>
        <path id="DejaVuSans-35" d="M 691 4666 
L 3169 4666 
L 3169 4134 
L 1269 4134 
L 1269 2991 
Q 1406 3038 1543 3061 
Q 1681 3084 1819 3084 
Q 2600 3084 3056 2656 
Q 3513 2228 3513 1497 
Q 3513 744 3044 326 
Q 2575 -91 1722 -91 
Q 1428 -91 1123 -41 
Q 819 9 494 109 
L 494 744 
Q 775 591 1075 516 
Q 1375 441 1709 441 
Q 2250 441 2565 725 
Q 2881 1009 2881 1497 
Q 2881 1984 2565 2268 
Q 2250 2553 1709 2553 
Q 1456 2553 1204 2497 
Q 953 2441 691 2322 
L 691 4666 
z
" transform="scale(0.015625)"/>
       </defs>
       <use xlink:href="#DejaVuSans-32"/>
       <use xlink:href="#DejaVuSans-35" x="63.623047"/>
      </g>
     </g>
    </g>
    <g id="xtick_3">
     <g id="line2d_3">
      <path d="M 153.772791 307.584 
L 153.772791 41.472 
" clip-path="url(#pf254a55694)" style="fill: none; stroke: #cccccc; stroke-width: 0.8; stroke-linecap: round"/>
     </g>
     <g id="text_3">
      <!-- 50 -->
      <g style="fill: #262626" transform="translate(147.410291 322.182437)scale(0.1 -0.1)">
       <use xlink:href="#DejaVuSans-35"/>
       <use xlink:href="#DejaVuSans-30" x="63.623047"/>
      </g>
     </g>
    </g>
    <g id="xtick_4">
     <g id="line2d_4">
      <path d="M 194.558538 307.584 
L 194.558538 41.472 
" clip-path="url(#pf254a55694)" style="fill: none; stroke: #cccccc; stroke-width: 0.8; stroke-linecap: round"/>
     </g>
     <g id="text_4">
      <!-- 75 -->
      <g style="fill: #262626" transform="translate(188.196038 322.182437)scale(0.1 -0.1)">
       <defs>
        <path id="DejaVuSans-37" d="M 525 4666 
L 3525 4666 
L 3525 4397 
L 1831 0 
L 1172 0 
L 2766 4134 
L 525 4134 
L 525 4666 
z
" transform="scale(0.015625)"/>
       </defs>
       <use xlink:href="#DejaVuSans-37"/>
       <use xlink:href="#DejaVuSans-35" x="63.623047"/>
      </g>
     </g>
    </g>
    <g id="xtick_5">
     <g id="line2d_5">
      <path d="M 235.344285 307.584 
L 235.344285 41.472 
" clip-path="url(#pf254a55694)" style="fill: none; stroke: #cccccc; stroke-width: 0.8; stroke-linecap: round"/>
     </g>
     <g id="text_5">
      <!-- 100 -->
      <g style="fill: #262626" transform="translate(225.800535 322.182437)scale(0.1 -0.1)">
       <defs>
        <path id="DejaVuSans-31" d="M 794 531 
L 1825 531 
L 1825 4091 
L 703 3866 
L 703 4441 
L 1819 4666 
L 2450 4666 
L 2450 531 
L 3481 531 
L 3481 0 
L 794 0 
L 794 531 
z
" transform="scale(0.015625)"/>
       </defs>
       <use xlink:href="#DejaVuSans-31"/>
       <use xlink:href="#DejaVuSans-30" x="63.623047"/>
       <use xlink:href="#DejaVuSans-30" x="127.246094"/>
      </g>
     </g>
    </g>
    <g id="xtick_6">
     <g id="line2d_6">
      <path d="M 276.130032 307.584 
L 276.130032 41.472 
" clip-path="url(#pf254a55694)" style="fill: none; stroke: #cccccc; stroke-width: 0.8; stroke-linecap: round"/>
     </g>
     <g id="text_6">
      <!-- 125 -->
      <g style="fill: #262626" transform="translate(266.586282 322.182437)scale(0.1 -0.1)">
       <use xlink:href="#DejaVuSans-31"/>
       <use xlink:href="#DejaVuSans-32" x="63.623047"/>
       <use xlink:href="#DejaVuSans-35" x="127.246094"/>
      </g>
     </g>
    </g>
    <g id="xtick_7">
     <g id="line2d_7">
      <path d="M 316.915779 307.584 
L 316.915779 41.472 
" clip-path="url(#pf254a55694)" style="fill: none; stroke: #cccccc; stroke-width: 0.8; stroke-linecap: round"/>
     </g>
     <g id="text_7">
      <!-- 150 -->
      <g style="fill: #262626" transform="translate(307.372029 322.182437)scale(0.1 -0.1)">
       <use xlink:href="#DejaVuSans-31"/>
       <use xlink:href="#DejaVuSans-35" x="63.623047"/>
       <use xlink:href="#DejaVuSans-30" x="127.246094"/>
      </g>
     </g>
    </g>
    <g id="xtick_8">
     <g id="line2d_8">
      <path d="M 357.701526 307.584 
L 357.701526 41.472 
" clip-path="url(#pf254a55694)" style="fill: none; stroke: #cccccc; stroke-width: 0.8; stroke-linecap: round"/>
     </g>
     <g id="text_8">
      <!-- 175 -->
      <g style="fill: #262626" transform="translate(348.157776 322.182437)scale(0.1 -0.1)">
       <use xlink:href="#DejaVuSans-31"/>
       <use xlink:href="#DejaVuSans-37" x="63.623047"/>
       <use xlink:href="#DejaVuSans-35" x="127.246094"/>
      </g>
     </g>
    </g>
    <g id="xtick_9">
     <g id="line2d_9">
      <path d="M 398.487273 307.584 
L 398.487273 41.472 
" clip-path="url(#pf254a55694)" style="fill: none; stroke: #cccccc; stroke-width: 0.8; stroke-linecap: round"/>
     </g>
     <g id="text_9">
      <!-- 200 -->
      <g style="fill: #262626" transform="translate(388.943523 322.182437)scale(0.1 -0.1)">
       <use xlink:href="#DejaVuSans-32"/>
       <use xlink:href="#DejaVuSans-30" x="63.623047"/>
       <use xlink:href="#DejaVuSans-30" x="127.246094"/>
      </g>
     </g>
    </g>
    <g id="text_10">
     <!-- Iteration -->
     <g style="fill: #262626" transform="translate(214.951406 335.860562)scale(0.1 -0.1)">
      <defs>
       <path id="DejaVuSans-49" d="M 628 4666 
L 1259 4666 
L 1259 0 
L 628 0 
L 628 4666 
z
" transform="scale(0.015625)"/>
       <path id="DejaVuSans-74" d="M 1172 4494 
L 1172 3500 
L 2356 3500 
L 2356 3053 
L 1172 3053 
L 1172 1153 
Q 1172 725 1289 603 
Q 1406 481 1766 481 
L 2356 481 
L 2356 0 
L 1766 0 
Q 1100 0 847 248 
Q 594 497 594 1153 
L 594 3053 
L 172 3053 
L 172 3500 
L 594 3500 
L 594 4494 
L 1172 4494 
z
" transform="scale(0.015625)"/>
       <path id="DejaVuSans-65" d="M 3597 1894 
L 3597 1613 
L 953 1613 
Q 991 1019 1311 708 
Q 1631 397 2203 397 
Q 2534 397 2845 478 
Q 3156 559 3463 722 
L 3463 178 
Q 3153 47 2828 -22 
Q 2503 -91 2169 -91 
Q 1331 -91 842 396 
Q 353 884 353 1716 
Q 353 2575 817 3079 
Q 1281 3584 2069 3584 
Q 2775 3584 3186 3129 
Q 3597 2675 3597 1894 
z
M 3022 2063 
Q 3016 2534 2758 2815 
Q 2500 3097 2075 3097 
Q 1594 3097 1305 2825 
Q 1016 2553 972 2059 
L 3022 2063 
z
" transform="scale(0.015625)"/>
       <path id="DejaVuSans-72" d="M 2631 2963 
Q 2534 3019 2420 3045 
Q 2306 3072 2169 3072 
Q 1681 3072 1420 2755 
Q 1159 2438 1159 1844 
L 1159 0 
L 581 0 
L 581 3500 
L 1159 3500 
L 1159 2956 
Q 1341 3275 1631 3429 
Q 1922 3584 2338 3584 
Q 2397 3584 2469 3576 
Q 2541 3569 2628 3553 
L 2631 2963 
z
" transform="scale(0.015625)"/>
       <path id="DejaVuSans-61" d="M 2194 1759 
Q 1497 1759 1228 1600 
Q 959 1441 959 1056 
Q 959 750 1161 570 
Q 1363 391 1709 391 
Q 2188 391 2477 730 
Q 2766 1069 2766 1631 
L 2766 1759 
L 2194 1759 
z
M 3341 1997 
L 3341 0 
L 2766 0 
L 2766 531 
Q 2569 213 2275 61 
Q 1981 -91 1556 -91 
Q 1019 -91 701 211 
Q 384 513 384 1019 
Q 384 1609 779 1909 
Q 1175 2209 1959 2209 
L 2766 2209 
L 2766 2266 
Q 2766 2663 2505 2880 
Q 2244 3097 1772 3097 
Q 1472 3097 1187 3025 
Q 903 2953 641 2809 
L 641 3341 
Q 956 3463 1253 3523 
Q 1550 3584 1831 3584 
Q 2591 3584 2966 3190 
Q 3341 2797 3341 1997 
z
" transform="scale(0.015625)"/>
       <path id="DejaVuSans-69" d="M 603 3500 
L 1178 3500 
L 1178 0 
L 603 0 
L 603 3500 
z
M 603 4863 
L 1178 4863 
L 1178 4134 
L 603 4134 
L 603 4863 
z
" transform="scale(0.015625)"/>
       <path id="DejaVuSans-6f" d="M 1959 3097 
Q 1497 3097 1228 2736 
Q 959 2375 959 1747 
Q 959 1119 1226 758 
Q 1494 397 1959 397 
Q 2419 397 2687 759 
Q 2956 1122 2956 1747 
Q 2956 2369 2687 2733 
Q 2419 3097 1959 3097 
z
M 1959 3584 
Q 2709 3584 3137 3096 
Q 3566 2609 3566 1747 
Q 3566 888 3137 398 
Q 2709 -91 1959 -91 
Q 1206 -91 779 398 
Q 353 888 353 1747 
Q 353 2609 779 3096 
Q 1206 3584 1959 3584 
z
" transform="scale(0.015625)"/>
       <path id="DejaVuSans-6e" d="M 3513 2113 
L 3513 0 
L 2938 0 
L 2938 2094 
Q 2938 2591 2744 2837 
Q 2550 3084 2163 3084 
Q 1697 3084 1428 2787 
Q 1159 2491 1159 1978 
L 1159 0 
L 581 0 
L 581 3500 
L 1159 3500 
L 1159 2956 
Q 1366 3272 1645 3428 
Q 1925 3584 2291 3584 
Q 2894 3584 3203 3211 
Q 3513 2838 3513 2113 
z
" transform="scale(0.015625)"/>
      </defs>
      <use xlink:href="#DejaVuSans-49"/>
      <use xlink:href="#DejaVuSans-74" x="29.492188"/>
      <use xlink:href="#DejaVuSans-65" x="68.701172"/>
      <use xlink:href="#DejaVuSans-72" x="130.224609"/>
      <use xlink:href="#DejaVuSans-61" x="171.337891"/>
      <use xlink:href="#DejaVuSans-74" x="232.617188"/>
      <use xlink:href="#DejaVuSans-69" x="271.826172"/>
      <use xlink:href="#DejaVuSans-6f" x="299.609375"/>
      <use xlink:href="#DejaVuSans-6e" x="360.791016"/>
     </g>
    </g>
   </g>
   <g id="matplotlib.axis_2">
    <g id="ytick_1">
     <g id="line2d_10">
      <path d="M 57.6 281.754501 
L 414.72 281.754501 
" clip-path="url(#pf254a55694)" style="fill: none; stroke: #cccccc; stroke-width: 0.8; stroke-linecap: round"/>
     </g>
     <g id="text_11">
      <!-- 0.55 -->
      <g style="fill: #262626" transform="translate(28.334375 285.55372)scale(0.1 -0.1)">
       <defs>
        <path id="DejaVuSans-2e" d="M 684 794 
L 1344 794 
L 1344 0 
L 684 0 
L 684 794 
z
" transform="scale(0.015625)"/>
       </defs>
       <use xlink:href="#DejaVuSans-30"/>
       <use xlink:href="#DejaVuSans-2e" x="63.623047"/>
       <use xlink:href="#DejaVuSans-35" x="95.410156"/>
       <use xlink:href="#DejaVuSans-35" x="159.033203"/>
      </g>
     </g>
    </g>
    <g id="ytick_2">
     <g id="line2d_11">
      <path d="M 57.6 223.686299 
L 414.72 223.686299 
" clip-path="url(#pf254a55694)" style="fill: none; stroke: #cccccc; stroke-width: 0.8; stroke-linecap: round"/>
     </g>
     <g id="text_12">
      <!-- 0.60 -->
      <g style="fill: #262626" transform="translate(28.334375 227.485518)scale(0.1 -0.1)">
       <defs>
        <path id="DejaVuSans-36" d="M 2113 2584 
Q 1688 2584 1439 2293 
Q 1191 2003 1191 1497 
Q 1191 994 1439 701 
Q 1688 409 2113 409 
Q 2538 409 2786 701 
Q 3034 994 3034 1497 
Q 3034 2003 2786 2293 
Q 2538 2584 2113 2584 
z
M 3366 4563 
L 3366 3988 
Q 3128 4100 2886 4159 
Q 2644 4219 2406 4219 
Q 1781 4219 1451 3797 
Q 1122 3375 1075 2522 
Q 1259 2794 1537 2939 
Q 1816 3084 2150 3084 
Q 2853 3084 3261 2657 
Q 3669 2231 3669 1497 
Q 3669 778 3244 343 
Q 2819 -91 2113 -91 
Q 1303 -91 875 529 
Q 447 1150 447 2328 
Q 447 3434 972 4092 
Q 1497 4750 2381 4750 
Q 2619 4750 2861 4703 
Q 3103 4656 3366 4563 
z
" transform="scale(0.015625)"/>
       </defs>
       <use xlink:href="#DejaVuSans-30"/>
       <use xlink:href="#DejaVuSans-2e" x="63.623047"/>
       <use xlink:href="#DejaVuSans-36" x="95.410156"/>
       <use xlink:href="#DejaVuSans-30" x="159.033203"/>
      </g>
     </g>
    </g>
    <g id="ytick_3">
     <g id="line2d_12">
      <path d="M 57.6 165.618098 
L 414.72 165.618098 
" clip-path="url(#pf254a55694)" style="fill: none; stroke: #cccccc; stroke-width: 0.8; stroke-linecap: round"/>
     </g>
     <g id="text_13">
      <!-- 0.65 -->
      <g style="fill: #262626" transform="translate(28.334375 169.417317)scale(0.1 -0.1)">
       <use xlink:href="#DejaVuSans-30"/>
       <use xlink:href="#DejaVuSans-2e" x="63.623047"/>
       <use xlink:href="#DejaVuSans-36" x="95.410156"/>
       <use xlink:href="#DejaVuSans-35" x="159.033203"/>
      </g>
     </g>
    </g>
    <g id="ytick_4">
     <g id="line2d_13">
      <path d="M 57.6 107.549896 
L 414.72 107.549896 
" clip-path="url(#pf254a55694)" style="fill: none; stroke: #cccccc; stroke-width: 0.8; stroke-linecap: round"/>
     </g>
     <g id="text_14">
      <!-- 0.70 -->
      <g style="fill: #262626" transform="translate(28.334375 111.349115)scale(0.1 -0.1)">
       <use xlink:href="#DejaVuSans-30"/>
       <use xlink:href="#DejaVuSans-2e" x="63.623047"/>
       <use xlink:href="#DejaVuSans-37" x="95.410156"/>
       <use xlink:href="#DejaVuSans-30" x="159.033203"/>
      </g>
     </g>
    </g>
    <g id="ytick_5">
     <g id="line2d_14">
      <path d="M 57.6 49.481695 
L 414.72 49.481695 
" clip-path="url(#pf254a55694)" style="fill: none; stroke: #cccccc; stroke-width: 0.8; stroke-linecap: round"/>
     </g>
     <g id="text_15">
      <!-- 0.75 -->
      <g style="fill: #262626" transform="translate(28.334375 53.280913)scale(0.1 -0.1)">
       <use xlink:href="#DejaVuSans-30"/>
       <use xlink:href="#DejaVuSans-2e" x="63.623047"/>
       <use xlink:href="#DejaVuSans-37" x="95.410156"/>
       <use xlink:href="#DejaVuSans-35" x="159.033203"/>
      </g>
     </g>
    </g>
    <g id="text_16">
     <!-- Auroc -->
     <g style="fill: #262626" transform="translate(22.254688 188.868625)rotate(-90)scale(0.1 -0.1)">
      <defs>
       <path id="DejaVuSans-41" d="M 2188 4044 
L 1331 1722 
L 3047 1722 
L 2188 4044 
z
M 1831 4666 
L 2547 4666 
L 4325 0 
L 3669 0 
L 3244 1197 
L 1141 1197 
L 716 0 
L 50 0 
L 1831 4666 
z
" transform="scale(0.015625)"/>
       <path id="DejaVuSans-75" d="M 544 1381 
L 544 3500 
L 1119 3500 
L 1119 1403 
Q 1119 906 1312 657 
Q 1506 409 1894 409 
Q 2359 409 2629 706 
Q 2900 1003 2900 1516 
L 2900 3500 
L 3475 3500 
L 3475 0 
L 2900 0 
L 2900 538 
Q 2691 219 2414 64 
Q 2138 -91 1772 -91 
Q 1169 -91 856 284 
Q 544 659 544 1381 
z
M 1991 3584 
L 1991 3584 
z
" transform="scale(0.015625)"/>
       <path id="DejaVuSans-63" d="M 3122 3366 
L 3122 2828 
Q 2878 2963 2633 3030 
Q 2388 3097 2138 3097 
Q 1578 3097 1268 2742 
Q 959 2388 959 1747 
Q 959 1106 1268 751 
Q 1578 397 2138 397 
Q 2388 397 2633 464 
Q 2878 531 3122 666 
L 3122 134 
Q 2881 22 2623 -34 
Q 2366 -91 2075 -91 
Q 1284 -91 818 406 
Q 353 903 353 1747 
Q 353 2603 823 3093 
Q 1294 3584 2113 3584 
Q 2378 3584 2631 3529 
Q 2884 3475 3122 3366 
z
" transform="scale(0.015625)"/>
      </defs>
      <use xlink:href="#DejaVuSans-41"/>
      <use xlink:href="#DejaVuSans-75" x="68.408203"/>
      <use xlink:href="#DejaVuSans-72" x="131.787109"/>
      <use xlink:href="#DejaVuSans-6f" x="170.650391"/>
      <use xlink:href="#DejaVuSans-63" x="231.832031"/>
     </g>
    </g>
   </g>
   <g id="PolyCollection_1">
    <defs>
     <path id="mbda8fba583" d="M 73.832727 -207.339165 
L 73.832727 -175.777351 
L 75.464157 -125.608758 
L 77.095587 -133.483496 
L 78.727017 -123.386451 
L 80.358447 -117.23383 
L 81.989877 -104.19915 
L 83.621307 -165.455205 
L 85.252736 -133.580771 
L 86.884166 -119.152083 
L 88.515596 -187.264365 
L 90.147026 -164.687452 
L 91.778456 -156.626779 
L 93.409886 -172.074568 
L 95.041316 -154.682944 
L 96.672746 -206.277943 
L 98.304175 -161.298238 
L 99.935605 -91.634706 
L 101.567035 -166.354597 
L 103.198465 -154.010242 
L 104.829895 -158.449015 
L 106.461325 -109.045768 
L 108.092755 -168.870851 
L 109.724185 -131.173197 
L 111.355614 -145.844137 
L 112.987044 -142.710962 
L 114.618474 -170.529334 
L 116.249904 -182.994806 
L 117.881334 -161.02137 
L 119.512764 -149.175226 
L 121.144194 -152.863422 
L 122.775624 -159.507967 
L 124.407053 -108.969068 
L 126.038483 -161.674967 
L 127.669913 -137.186563 
L 129.301343 -173.353475 
L 130.932773 -105.193729 
L 132.564203 -152.728129 
L 134.195633 -177.184532 
L 135.827063 -152.649253 
L 137.458492 -116.846952 
L 139.089922 -195.697028 
L 140.721352 -106.340758 
L 142.352782 -179.538007 
L 143.984212 -85.651701 
L 145.615642 -151.420163 
L 147.247072 -211.307979 
L 148.878502 -176.05495 
L 150.509931 -123.990234 
L 152.141361 -146.624108 
L 153.772791 -179.625262 
L 155.404221 -168.069055 
L 157.035651 -110.196623 
L 158.667081 -60.149798 
L 160.298511 -168.398342 
L 161.929941 -191.915414 
L 163.56137 -159.515184 
L 165.1928 -108.732099 
L 166.82423 -76.081783 
L 168.45566 -195.511608 
L 170.08709 -155.818775 
L 171.71852 -153.829395 
L 173.34995 -132.201157 
L 174.98138 -203.915725 
L 176.61281 -181.204166 
L 178.244239 -156.511717 
L 179.875669 -164.290835 
L 181.507099 -140.037922 
L 183.138529 -156.107892 
L 184.769959 -171.964752 
L 186.401389 -165.637541 
L 188.032819 -100.894251 
L 189.664249 -123.067163 
L 191.295678 -138.224339 
L 192.927108 -163.494513 
L 194.558538 -105.473306 
L 196.189968 -146.934328 
L 197.821398 -151.779421 
L 199.452828 -151.201646 
L 201.084258 -86.580676 
L 202.715688 -145.656705 
L 204.347117 -134.531065 
L 205.978547 -122.664803 
L 207.609977 -197.301582 
L 209.241407 -50.112 
L 210.872837 -141.132011 
L 212.504267 -181.3461 
L 214.135697 -179.211782 
L 215.767127 -197.140704 
L 217.398556 -188.404535 
L 219.029986 -158.818112 
L 220.661416 -165.566552 
L 222.292846 -141.047091 
L 223.924276 -171.101655 
L 225.555706 -120.375793 
L 227.187136 -162.28341 
L 228.818566 -97.778273 
L 230.449995 -162.342787 
L 232.081425 -189.993841 
L 233.712855 -173.976676 
L 235.344285 -134.531508 
L 236.975715 -195.82121 
L 238.607145 -98.342753 
L 240.238575 -103.493941 
L 241.870005 -183.999302 
L 243.501434 -176.123096 
L 245.132864 -170.59595 
L 246.764294 -117.351369 
L 248.395724 -184.474158 
L 250.027154 -181.525968 
L 251.658584 -168.75898 
L 253.290014 -173.5909 
L 254.921444 -178.323216 
L 256.552873 -97.517126 
L 258.184303 -131.469928 
L 259.815733 -149.589152 
L 261.447163 -111.894347 
L 263.078593 -142.449626 
L 264.710023 -102.101035 
L 266.341453 -156.757586 
L 267.972883 -164.230911 
L 269.604312 -77.992975 
L 271.235742 -156.256564 
L 272.867172 -132.421341 
L 274.498602 -139.077194 
L 276.130032 -131.029816 
L 277.761462 -186.242276 
L 279.392892 -165.329689 
L 281.024322 -161.738293 
L 282.655751 -165.867338 
L 284.287181 -164.294557 
L 285.918611 -145.869878 
L 287.550041 -191.01711 
L 289.181471 -67.709142 
L 290.812901 -108.623977 
L 292.444331 -191.811141 
L 294.075761 -149.802907 
L 295.70719 -88.040715 
L 297.33862 -77.635606 
L 298.97005 -149.323528 
L 300.60148 -178.742032 
L 302.23291 -222.900486 
L 303.86434 -144.194047 
L 305.49577 -139.341367 
L 307.1272 -150.759929 
L 308.75863 -188.011188 
L 310.390059 -164.130644 
L 312.021489 -96.902865 
L 313.652919 -182.764063 
L 315.284349 -179.848239 
L 316.915779 -91.988455 
L 318.547209 -147.105561 
L 320.178639 -172.253123 
L 321.810069 -88.376135 
L 323.441498 -205.199516 
L 325.072928 -159.467486 
L 326.704358 -170.436784 
L 328.335788 -109.477114 
L 329.967218 -122.228833 
L 331.598648 -144.548421 
L 333.230078 -187.584918 
L 334.861508 -186.794895 
L 336.492937 -161.671912 
L 338.124367 -179.064621 
L 339.755797 -152.18666 
L 341.387227 -178.669381 
L 343.018657 -162.887993 
L 344.650087 -158.839121 
L 346.281517 -184.287983 
L 347.912947 -171.901968 
L 349.544376 -180.546562 
L 351.175806 -129.507762 
L 352.807236 -54.234454 
L 354.438666 -178.402898 
L 356.070096 -100.222589 
L 357.701526 -197.085748 
L 359.332956 -106.745596 
L 360.964386 -178.525083 
L 362.595815 -96.027647 
L 364.227245 -136.641805 
L 365.858675 -123.72588 
L 367.490105 -142.92583 
L 369.121535 -135.887151 
L 370.752965 -80.591871 
L 372.384395 -208.412957 
L 374.015825 -160.283081 
L 375.647254 -169.394544 
L 377.278684 -178.816085 
L 378.910114 -181.70385 
L 380.541544 -172.244801 
L 382.172974 -140.637569 
L 383.804404 -179.847226 
L 385.435834 -104.216809 
L 387.067264 -97.962629 
L 388.698693 -105.584708 
L 390.330123 -133.254656 
L 391.961553 -174.431223 
L 393.592983 -156.89496 
L 395.224413 -113.447332 
L 396.855843 -164.278302 
L 398.487273 -118.0815 
L 398.487273 -250.939644 
L 398.487273 -250.939644 
L 396.855843 -227.234046 
L 395.224413 -200.694255 
L 393.592983 -232.282663 
L 391.961553 -225.614294 
L 390.330123 -215.81812 
L 388.698693 -280.679065 
L 387.067264 -248.691028 
L 385.435834 -212.236656 
L 383.804404 -243.805094 
L 382.172974 -201.723402 
L 380.541544 -221.890481 
L 378.910114 -233.745358 
L 377.278684 -290.749471 
L 375.647254 -233.751984 
L 374.015825 -260.615245 
L 372.384395 -272.754856 
L 370.752965 -257.465687 
L 369.121535 -225.42117 
L 367.490105 -245.506261 
L 365.858675 -259.276013 
L 364.227245 -251.276402 
L 362.595815 -262.663718 
L 360.964386 -216.005514 
L 359.332956 -252.062392 
L 357.701526 -264.805121 
L 356.070096 -239.543422 
L 354.438666 -280.653019 
L 352.807236 -248.593431 
L 351.175806 -239.784793 
L 349.544376 -255.503742 
L 347.912947 -268.84977 
L 346.281517 -259.505363 
L 344.650087 -208.81711 
L 343.018657 -273.062608 
L 341.387227 -262.419069 
L 339.755797 -237.050765 
L 338.124367 -260.378358 
L 336.492937 -219.370122 
L 334.861508 -258.871753 
L 333.230078 -262.491305 
L 331.598648 -237.230838 
L 329.967218 -236.70315 
L 328.335788 -286.175439 
L 326.704358 -236.323605 
L 325.072928 -240.573386 
L 323.441498 -252.865002 
L 321.810069 -239.387052 
L 320.178639 -246.782177 
L 318.547209 -265.104162 
L 316.915779 -217.778071 
L 315.284349 -230.162146 
L 313.652919 -242.930991 
L 312.021489 -247.648532 
L 310.390059 -236.461326 
L 308.75863 -273.334315 
L 307.1272 -247.716225 
L 305.49577 -242.921876 
L 303.86434 -247.288256 
L 302.23291 -273.72511 
L 300.60148 -242.677388 
L 298.97005 -216.457279 
L 297.33862 -267.800924 
L 295.70719 -197.164905 
L 294.075761 -220.426627 
L 292.444331 -255.034867 
L 290.812901 -221.685381 
L 289.181471 -244.683569 
L 287.550041 -281.328702 
L 285.918611 -223.980974 
L 284.287181 -237.715597 
L 282.655751 -270.700256 
L 281.024322 -208.196982 
L 279.392892 -251.995937 
L 277.761462 -243.803053 
L 276.130032 -236.305454 
L 274.498602 -260.601054 
L 272.867172 -227.830395 
L 271.235742 -228.283395 
L 269.604312 -180.372355 
L 267.972883 -250.324633 
L 266.341453 -225.239824 
L 264.710023 -184.94097 
L 263.078593 -195.883353 
L 261.447163 -256.001446 
L 259.815733 -243.131689 
L 258.184303 -227.191311 
L 256.552873 -220.928324 
L 254.921444 -278.894007 
L 253.290014 -239.299514 
L 251.658584 -292.032 
L 250.027154 -274.895356 
L 248.395724 -253.026303 
L 246.764294 -280.467143 
L 245.132864 -239.133886 
L 243.501434 -248.994065 
L 241.870005 -240.881415 
L 240.238575 -230.449069 
L 238.607145 -261.863556 
L 236.975715 -239.880334 
L 235.344285 -207.904462 
L 233.712855 -242.431455 
L 232.081425 -272.121474 
L 230.449995 -260.463828 
L 228.818566 -214.325758 
L 227.187136 -210.517448 
L 225.555706 -251.477924 
L 223.924276 -232.159987 
L 222.292846 -258.27485 
L 220.661416 -239.212003 
L 219.029986 -234.534498 
L 217.398556 -272.465291 
L 215.767127 -268.18639 
L 214.135697 -265.175485 
L 212.504267 -209.644282 
L 210.872837 -261.878688 
L 209.241407 -192.623736 
L 207.609977 -263.053024 
L 205.978547 -221.417326 
L 204.347117 -220.907495 
L 202.715688 -274.533099 
L 201.084258 -227.800677 
L 199.452828 -241.124137 
L 197.821398 -255.071656 
L 196.189968 -233.462278 
L 194.558538 -235.337343 
L 192.927108 -268.275214 
L 191.295678 -247.590469 
L 189.664249 -225.153141 
L 188.032819 -260.390218 
L 186.401389 -249.965328 
L 184.769959 -268.010816 
L 183.138529 -210.710233 
L 181.507099 -271.723256 
L 179.875669 -258.162159 
L 178.244239 -251.280123 
L 176.61281 -241.910192 
L 174.98138 -232.784108 
L 173.34995 -237.253191 
L 171.71852 -230.864061 
L 170.08709 -246.715754 
L 168.45566 -237.324426 
L 166.82423 -256.956005 
L 165.1928 -205.491973 
L 163.56137 -252.252494 
L 161.929941 -258.280897 
L 160.298511 -217.358304 
L 158.667081 -241.55488 
L 157.035651 -235.542153 
L 155.404221 -240.720039 
L 153.772791 -210.031011 
L 152.141361 -250.114665 
L 150.509931 -264.765167 
L 148.878502 -246.540529 
L 147.247072 -258.953179 
L 145.615642 -249.282481 
L 143.984212 -277.171379 
L 142.352782 -216.658487 
L 140.721352 -237.913151 
L 139.089922 -234.057796 
L 137.458492 -251.588075 
L 135.827063 -252.608117 
L 134.195633 -253.050235 
L 132.564203 -220.29939 
L 130.932773 -245.42783 
L 129.301343 -226.400563 
L 127.669913 -246.355712 
L 126.038483 -247.502059 
L 124.407053 -197.090909 
L 122.775624 -263.727802 
L 121.144194 -261.653196 
L 119.512764 -230.944339 
L 117.881334 -243.111757 
L 116.249904 -205.774489 
L 114.618474 -224.187245 
L 112.987044 -230.552223 
L 111.355614 -254.675735 
L 109.724185 -236.779015 
L 108.092755 -277.512132 
L 106.461325 -224.693242 
L 104.829895 -248.341152 
L 103.198465 -233.694069 
L 101.567035 -248.387729 
L 99.935605 -225.721509 
L 98.304175 -250.191312 
L 96.672746 -267.34568 
L 95.041316 -187.438475 
L 93.409886 -230.049614 
L 91.778456 -245.53965 
L 90.147026 -244.988549 
L 88.515596 -248.927274 
L 86.884166 -249.484215 
L 85.252736 -275.38558 
L 83.621307 -236.399616 
L 81.989877 -239.697652 
L 80.358447 -217.479741 
L 78.727017 -272.072983 
L 77.095587 -266.036302 
L 75.464157 -213.610666 
L 73.832727 -207.339165 
z
" style="stroke: #ffffff; stroke-opacity: 0.2"/>
    </defs>
    <g clip-path="url(#pf254a55694)">
     <use xlink:href="#mbda8fba583" x="0" y="345.6" style="fill: #1f77b4; fill-opacity: 0.2; stroke: #ffffff; stroke-opacity: 0.2"/>
    </g>
   </g>
   <g id="line2d_15">
    <path d="M 73.832727 154.041742 
L 75.464157 175.990288 
L 77.095587 145.840101 
L 78.727017 147.870283 
L 80.358447 178.243215 
L 81.989877 173.651599 
L 83.621307 144.672589 
L 85.252736 141.116825 
L 86.884166 161.281851 
L 88.515596 127.50418 
L 90.147026 140.761999 
L 91.778456 144.516785 
L 93.409886 144.537909 
L 95.041316 174.53929 
L 96.672746 108.788188 
L 98.304175 139.855225 
L 99.935605 186.921892 
L 101.567035 138.228837 
L 103.198465 151.747844 
L 104.829895 142.204917 
L 106.461325 178.730495 
L 108.092755 122.408508 
L 109.724185 161.623894 
L 111.355614 145.340064 
L 112.987044 158.968408 
L 114.618474 148.24171 
L 116.249904 151.215352 
L 117.881334 143.533436 
L 119.512764 155.540217 
L 121.144194 138.341691 
L 122.775624 133.982115 
L 124.407053 192.570011 
L 126.038483 141.011487 
L 127.669913 153.828862 
L 129.301343 145.722981 
L 130.932773 170.289221 
L 132.564203 159.08624 
L 134.195633 130.482616 
L 135.827063 142.971315 
L 137.458492 161.382487 
L 139.089922 130.722588 
L 140.721352 173.473045 
L 142.352782 147.501753 
L 143.984212 164.18846 
L 145.615642 145.248678 
L 147.247072 110.469421 
L 148.878502 134.302261 
L 150.509931 151.2223 
L 152.141361 147.230613 
L 153.772791 150.771863 
L 155.404221 141.205453 
L 157.035651 172.730612 
L 158.667081 194.747661 
L 160.298511 152.721677 
L 161.929941 120.501844 
L 163.56137 139.716161 
L 165.1928 188.487964 
L 166.82423 179.081106 
L 168.45566 129.181983 
L 170.08709 144.332735 
L 171.71852 153.253272 
L 173.34995 160.872826 
L 174.98138 127.250083 
L 176.61281 134.042821 
L 178.244239 141.70408 
L 179.875669 134.373503 
L 181.507099 139.719411 
L 183.138529 162.190938 
L 184.769959 125.612216 
L 186.401389 137.798566 
L 188.032819 164.957765 
L 189.664249 171.489848 
L 191.295678 152.692596 
L 192.927108 129.715136 
L 194.558538 175.194675 
L 196.189968 155.401697 
L 197.821398 142.174461 
L 199.452828 149.437109 
L 201.084258 188.409324 
L 202.715688 135.505098 
L 204.347117 167.88072 
L 205.978547 173.558936 
L 207.609977 115.422697 
L 209.241407 224.232132 
L 210.872837 144.094651 
L 212.504267 150.104809 
L 214.135697 123.406367 
L 215.767127 112.936453 
L 217.398556 115.165087 
L 219.029986 148.923695 
L 220.661416 143.210722 
L 222.292846 145.93903 
L 223.924276 143.969179 
L 225.555706 159.673142 
L 227.187136 159.199571 
L 228.818566 189.547984 
L 230.449995 134.196692 
L 232.081425 114.542342 
L 233.712855 137.395935 
L 235.344285 174.382015 
L 236.975715 127.749228 
L 238.607145 165.496846 
L 240.238575 178.628495 
L 241.870005 133.159642 
L 243.501434 133.041419 
L 245.132864 140.735082 
L 246.764294 146.690744 
L 248.395724 126.84977 
L 250.027154 117.389338 
L 251.658584 115.20451 
L 253.290014 139.154793 
L 254.921444 116.991388 
L 256.552873 186.377275 
L 258.184303 166.269381 
L 259.815733 149.23958 
L 261.447163 161.652104 
L 263.078593 176.433511 
L 264.710023 202.078997 
L 266.341453 154.601295 
L 267.972883 138.322228 
L 269.604312 216.417335 
L 271.235742 153.33002 
L 272.867172 165.474132 
L 274.498602 145.760876 
L 276.130032 161.932365 
L 277.761462 130.577335 
L 279.392892 136.937187 
L 281.024322 160.632362 
L 282.655751 127.316203 
L 284.287181 144.594923 
L 285.918611 160.674574 
L 287.550041 109.427094 
L 289.181471 189.403645 
L 290.812901 180.445321 
L 292.444331 122.176996 
L 294.075761 160.485233 
L 295.70719 202.99719 
L 297.33862 172.881735 
L 298.97005 162.709597 
L 300.60148 134.89029 
L 302.23291 97.287202 
L 303.86434 149.858849 
L 305.49577 154.468379 
L 307.1272 146.361923 
L 308.75863 114.927249 
L 310.390059 145.304015 
L 312.021489 173.324301 
L 313.652919 132.752473 
L 315.284349 140.594808 
L 316.915779 190.716737 
L 318.547209 139.495139 
L 320.178639 136.08235 
L 321.810069 181.718406 
L 323.441498 116.567741 
L 325.072928 145.579564 
L 326.704358 142.219806 
L 328.335788 147.773724 
L 329.967218 166.134008 
L 331.598648 154.710371 
L 333.230078 120.561888 
L 334.861508 122.766676 
L 336.492937 155.078983 
L 338.124367 125.878511 
L 339.755797 150.981287 
L 341.387227 125.055775 
L 343.018657 127.624699 
L 344.650087 161.771884 
L 346.281517 123.703327 
L 347.912947 125.224131 
L 349.544376 127.574848 
L 352.807236 194.186057 
L 354.438666 116.072042 
L 356.070096 175.716995 
L 357.701526 114.654566 
L 359.332956 166.196006 
L 360.964386 148.334702 
L 362.595815 166.254317 
L 364.227245 151.640897 
L 365.858675 154.099054 
L 367.490105 151.383954 
L 369.121535 164.94584 
L 370.752965 176.571221 
L 372.384395 105.016093 
L 374.015825 135.150837 
L 375.647254 144.026736 
L 377.278684 110.817222 
L 378.910114 137.875396 
L 380.541544 148.532359 
L 382.172974 174.419515 
L 383.804404 133.77384 
L 385.435834 187.373267 
L 387.067264 172.273171 
L 388.698693 152.468113 
L 390.330123 171.063612 
L 391.961553 145.577242 
L 393.592983 151.011189 
L 395.224413 188.529207 
L 396.855843 149.843826 
L 398.487273 161.089428 
L 398.487273 161.089428 
" clip-path="url(#pf254a55694)" style="fill: none; stroke: #1f77b4; stroke-width: 1.5; stroke-linecap: round"/>
   </g>
   <g id="LineCollection_1">
    <path d="M 398.487273 295.488 
L 398.487273 53.568 
" clip-path="url(#pf254a55694)" style="fill: none; stroke-dasharray: 5.55,2.4; stroke-dashoffset: 0; stroke: #1f77b4; stroke-width: 1.5"/>
   </g>
   <g id="patch_3">
    <path d="M 57.6 307.584 
L 57.6 41.472 
" style="fill: none; stroke: #cccccc; stroke-width: 0.8; stroke-linejoin: miter; stroke-linecap: square"/>
   </g>
   <g id="patch_4">
    <path d="M 414.72 307.584 
L 414.72 41.472 
" style="fill: none; stroke: #cccccc; stroke-width: 0.8; stroke-linejoin: miter; stroke-linecap: square"/>
   </g>
   <g id="patch_5">
    <path d="M 57.6 307.584 
L 414.72 307.584 
" style="fill: none; stroke: #cccccc; stroke-width: 0.8; stroke-linejoin: miter; stroke-linecap: square"/>
   </g>
   <g id="patch_6">
    <path d="M 57.6 41.472 
L 414.72 41.472 
" style="fill: none; stroke: #cccccc; stroke-width: 0.8; stroke-linejoin: miter; stroke-linecap: square"/>
   </g>
   <g id="text_17">
    <!-- Model performance vs. # of iterations -->
    <g style="fill: #262626" transform="translate(122.314688 35.472)scale(0.12 -0.12)">
     <defs>
      <path id="DejaVuSans-4d" d="M 628 4666 
L 1569 4666 
L 2759 1491 
L 3956 4666 
L 4897 4666 
L 4897 0 
L 4281 0 
L 4281 4097 
L 3078 897 
L 2444 897 
L 1241 4097 
L 1241 0 
L 628 0 
L 628 4666 
z
" transform="scale(0.015625)"/>
      <path id="DejaVuSans-64" d="M 2906 2969 
L 2906 4863 
L 3481 4863 
L 3481 0 
L 2906 0 
L 2906 525 
Q 2725 213 2448 61 
Q 2172 -91 1784 -91 
Q 1150 -91 751 415 
Q 353 922 353 1747 
Q 353 2572 751 3078 
Q 1150 3584 1784 3584 
Q 2172 3584 2448 3432 
Q 2725 3281 2906 2969 
z
M 947 1747 
Q 947 1113 1208 752 
Q 1469 391 1925 391 
Q 2381 391 2643 752 
Q 2906 1113 2906 1747 
Q 2906 2381 2643 2742 
Q 2381 3103 1925 3103 
Q 1469 3103 1208 2742 
Q 947 2381 947 1747 
z
" transform="scale(0.015625)"/>
      <path id="DejaVuSans-6c" d="M 603 4863 
L 1178 4863 
L 1178 0 
L 603 0 
L 603 4863 
z
" transform="scale(0.015625)"/>
      <path id="DejaVuSans-20" transform="scale(0.015625)"/>
      <path id="DejaVuSans-70" d="M 1159 525 
L 1159 -1331 
L 581 -1331 
L 581 3500 
L 1159 3500 
L 1159 2969 
Q 1341 3281 1617 3432 
Q 1894 3584 2278 3584 
Q 2916 3584 3314 3078 
Q 3713 2572 3713 1747 
Q 3713 922 3314 415 
Q 2916 -91 2278 -91 
Q 1894 -91 1617 61 
Q 1341 213 1159 525 
z
M 3116 1747 
Q 3116 2381 2855 2742 
Q 2594 3103 2138 3103 
Q 1681 3103 1420 2742 
Q 1159 2381 1159 1747 
Q 1159 1113 1420 752 
Q 1681 391 2138 391 
Q 2594 391 2855 752 
Q 3116 1113 3116 1747 
z
" transform="scale(0.015625)"/>
      <path id="DejaVuSans-66" d="M 2375 4863 
L 2375 4384 
L 1825 4384 
Q 1516 4384 1395 4259 
Q 1275 4134 1275 3809 
L 1275 3500 
L 2222 3500 
L 2222 3053 
L 1275 3053 
L 1275 0 
L 697 0 
L 697 3053 
L 147 3053 
L 147 3500 
L 697 3500 
L 697 3744 
Q 697 4328 969 4595 
Q 1241 4863 1831 4863 
L 2375 4863 
z
" transform="scale(0.015625)"/>
      <path id="DejaVuSans-6d" d="M 3328 2828 
Q 3544 3216 3844 3400 
Q 4144 3584 4550 3584 
Q 5097 3584 5394 3201 
Q 5691 2819 5691 2113 
L 5691 0 
L 5113 0 
L 5113 2094 
Q 5113 2597 4934 2840 
Q 4756 3084 4391 3084 
Q 3944 3084 3684 2787 
Q 3425 2491 3425 1978 
L 3425 0 
L 2847 0 
L 2847 2094 
Q 2847 2600 2669 2842 
Q 2491 3084 2119 3084 
Q 1678 3084 1418 2786 
Q 1159 2488 1159 1978 
L 1159 0 
L 581 0 
L 581 3500 
L 1159 3500 
L 1159 2956 
Q 1356 3278 1631 3431 
Q 1906 3584 2284 3584 
Q 2666 3584 2933 3390 
Q 3200 3197 3328 2828 
z
" transform="scale(0.015625)"/>
      <path id="DejaVuSans-76" d="M 191 3500 
L 800 3500 
L 1894 563 
L 2988 3500 
L 3597 3500 
L 2284 0 
L 1503 0 
L 191 3500 
z
" transform="scale(0.015625)"/>
      <path id="DejaVuSans-73" d="M 2834 3397 
L 2834 2853 
Q 2591 2978 2328 3040 
Q 2066 3103 1784 3103 
Q 1356 3103 1142 2972 
Q 928 2841 928 2578 
Q 928 2378 1081 2264 
Q 1234 2150 1697 2047 
L 1894 2003 
Q 2506 1872 2764 1633 
Q 3022 1394 3022 966 
Q 3022 478 2636 193 
Q 2250 -91 1575 -91 
Q 1294 -91 989 -36 
Q 684 19 347 128 
L 347 722 
Q 666 556 975 473 
Q 1284 391 1588 391 
Q 1994 391 2212 530 
Q 2431 669 2431 922 
Q 2431 1156 2273 1281 
Q 2116 1406 1581 1522 
L 1381 1569 
Q 847 1681 609 1914 
Q 372 2147 372 2553 
Q 372 3047 722 3315 
Q 1072 3584 1716 3584 
Q 2034 3584 2315 3537 
Q 2597 3491 2834 3397 
z
" transform="scale(0.015625)"/>
      <path id="DejaVuSans-23" d="M 3272 2816 
L 2363 2816 
L 2100 1772 
L 3016 1772 
L 3272 2816 
z
M 2803 4594 
L 2478 3297 
L 3391 3297 
L 3719 4594 
L 4219 4594 
L 3897 3297 
L 4872 3297 
L 4872 2816 
L 3775 2816 
L 3519 1772 
L 4513 1772 
L 4513 1294 
L 3397 1294 
L 3072 0 
L 2572 0 
L 2894 1294 
L 1978 1294 
L 1656 0 
L 1153 0 
L 1478 1294 
L 494 1294 
L 494 1772 
L 1594 1772 
L 1856 2816 
L 850 2816 
L 850 3297 
L 1978 3297 
L 2297 4594 
L 2803 4594 
z
" transform="scale(0.015625)"/>
     </defs>
     <use xlink:href="#DejaVuSans-4d"/>
     <use xlink:href="#DejaVuSans-6f" x="86.279297"/>
     <use xlink:href="#DejaVuSans-64" x="147.460938"/>
     <use xlink:href="#DejaVuSans-65" x="210.9375"/>
     <use xlink:href="#DejaVuSans-6c" x="272.460938"/>
     <use xlink:href="#DejaVuSans-20" x="300.244141"/>
     <use xlink:href="#DejaVuSans-70" x="332.03125"/>
     <use xlink:href="#DejaVuSans-65" x="395.507812"/>
     <use xlink:href="#DejaVuSans-72" x="457.03125"/>
     <use xlink:href="#DejaVuSans-66" x="498.144531"/>
     <use xlink:href="#DejaVuSans-6f" x="533.349609"/>
     <use xlink:href="#DejaVuSans-72" x="594.53125"/>
     <use xlink:href="#DejaVuSans-6d" x="633.894531"/>
     <use xlink:href="#DejaVuSans-61" x="731.306641"/>
     <use xlink:href="#DejaVuSans-6e" x="792.585938"/>
     <use xlink:href="#DejaVuSans-63" x="855.964844"/>
     <use xlink:href="#DejaVuSans-65" x="910.945312"/>
     <use xlink:href="#DejaVuSans-20" x="972.46875"/>
     <use xlink:href="#DejaVuSans-76" x="1004.255859"/>
     <use xlink:href="#DejaVuSans-73" x="1063.435547"/>
     <use xlink:href="#DejaVuSans-2e" x="1115.535156"/>
     <use xlink:href="#DejaVuSans-20" x="1147.322266"/>
     <use xlink:href="#DejaVuSans-23" x="1179.109375"/>
     <use xlink:href="#DejaVuSans-20" x="1262.898438"/>
     <use xlink:href="#DejaVuSans-6f" x="1294.685547"/>
     <use xlink:href="#DejaVuSans-66" x="1355.867188"/>
     <use xlink:href="#DejaVuSans-20" x="1391.072266"/>
     <use xlink:href="#DejaVuSans-69" x="1422.859375"/>
     <use xlink:href="#DejaVuSans-74" x="1450.642578"/>
     <use xlink:href="#DejaVuSans-65" x="1489.851562"/>
     <use xlink:href="#DejaVuSans-72" x="1551.375"/>
     <use xlink:href="#DejaVuSans-61" x="1592.488281"/>
     <use xlink:href="#DejaVuSans-74" x="1653.767578"/>
     <use xlink:href="#DejaVuSans-69" x="1692.976562"/>
     <use xlink:href="#DejaVuSans-6f" x="1720.759766"/>
     <use xlink:href="#DejaVuSans-6e" x="1781.941406"/>
     <use xlink:href="#DejaVuSans-73" x="1845.320312"/>
    </g>
   </g>
  </g>
 </g>
 <defs>
  <clipPath id="pf254a55694">
   <rect x="57.6" y="41.472" width="357.12" height="266.112"/>
  </clipPath>
 </defs>
</svg>
