<?xml version="1.0" encoding="utf-8" standalone="no"?>
<!DOCTYPE svg PUBLIC "-//W3C//DTD SVG 1.1//EN"
  "http://www.w3.org/Graphics/SVG/1.1/DTD/svg11.dtd">
<svg xmlns:xlink="http://www.w3.org/1999/xlink" width="460.8pt" height="345.6pt" viewBox="0 0 460.8 345.6" xmlns="http://www.w3.org/2000/svg" version="1.1">
 <metadata>
  <rdf:RDF xmlns:dc="http://purl.org/dc/elements/1.1/" xmlns:cc="http://creativecommons.org/ns#" xmlns:rdf="http://www.w3.org/1999/02/22-rdf-syntax-ns#">
   <cc:Work>
    <dc:type rdf:resource="http://purl.org/dc/dcmitype/StillImage"/>
    <dc:date>2022-11-01T00:23:46.654390</dc:date>
    <dc:format>image/svg+xml</dc:format>
    <dc:creator>
     <cc:Agent>
      <dc:title>Matplotlib v3.5.2, https://matplotlib.org/</dc:title>
     </cc:Agent>
    </dc:creator>
   </cc:Work>
  </rdf:RDF>
 </metadata>
 <defs>
  <style type="text/css">*{stroke-linejoin: round; stroke-linecap: butt}</style>
 </defs>
 <g id="figure_1">
  <g id="patch_1">
   <path d="M 0 345.6 
L 460.8 345.6 
L 460.8 0 
L 0 0 
z
" style="fill: #ffffff"/>
  </g>
  <g id="axes_1">
   <g id="patch_2">
    <path d="M 57.6 307.584 
L 414.72 307.584 
L 414.72 41.472 
L 57.6 41.472 
z
" style="fill: #ffffff"/>
   </g>
   <g id="matplotlib.axis_1">
    <g id="xtick_1">
     <g id="line2d_1">
      <path d="M 72.201297 307.584 
L 72.201297 41.472 
" clip-path="url(#pac72619c53)" style="fill: none; stroke: #cccccc; stroke-width: 0.8; stroke-linecap: round"/>
     </g>
     <g id="text_1">
      <!-- 0 -->
      <g style="fill: #262626" transform="translate(69.020047 322.182437)scale(0.1 -0.1)">
       <defs>
        <path id="DejaVuSans-30" d="M 2034 4250 
Q 1547 4250 1301 3770 
Q 1056 3291 1056 2328 
Q 1056 1369 1301 889 
Q 1547 409 2034 409 
Q 2525 409 2770 889 
Q 3016 1369 3016 2328 
Q 3016 3291 2770 3770 
Q 2525 4250 2034 4250 
z
M 2034 4750 
Q 2819 4750 3233 4129 
Q 3647 3509 3647 2328 
Q 3647 1150 3233 529 
Q 2819 -91 2034 -91 
Q 1250 -91 836 529 
Q 422 1150 422 2328 
Q 422 3509 836 4129 
Q 1250 4750 2034 4750 
z
" transform="scale(0.015625)"/>
       </defs>
       <use xlink:href="#DejaVuSans-30"/>
      </g>
     </g>
    </g>
    <g id="xtick_2">
     <g id="line2d_2">
      <path d="M 112.987044 307.584 
L 112.987044 41.472 
" clip-path="url(#pac72619c53)" style="fill: none; stroke: #cccccc; stroke-width: 0.8; stroke-linecap: round"/>
     </g>
     <g id="text_2">
      <!-- 25 -->
      <g style="fill: #262626" transform="translate(106.624544 322.182437)scale(0.1 -0.1)">
       <defs>
        <path id="DejaVuSans-32" d="M 1228 531 
L 3431 531 
L 3431 0 
L 469 0 
L 469 531 
Q 828 903 1448 1529 
Q 2069 2156 2228 2338 
Q 2531 2678 2651 2914 
Q 2772 3150 2772 3378 
Q 2772 3750 2511 3984 
Q 2250 4219 1831 4219 
Q 1534 4219 1204 4116 
Q 875 4013 500 3803 
L 500 4441 
Q 881 4594 1212 4672 
Q 1544 4750 1819 4750 
Q 2544 4750 2975 4387 
Q 3406 4025 3406 3419 
Q 3406 3131 3298 2873 
Q 3191 2616 2906 2266 
Q 2828 2175 2409 1742 
Q 1991 1309 1228 531 
z
" transform="scale(0.015625)"/>
        <path id="DejaVuSans-35" d="M 691 4666 
L 3169 4666 
L 3169 4134 
L 1269 4134 
L 1269 2991 
Q 1406 3038 1543 3061 
Q 1681 3084 1819 3084 
Q 2600 3084 3056 2656 
Q 3513 2228 3513 1497 
Q 3513 744 3044 326 
Q 2575 -91 1722 -91 
Q 1428 -91 1123 -41 
Q 819 9 494 109 
L 494 744 
Q 775 591 1075 516 
Q 1375 441 1709 441 
Q 2250 441 2565 725 
Q 2881 1009 2881 1497 
Q 2881 1984 2565 2268 
Q 2250 2553 1709 2553 
Q 1456 2553 1204 2497 
Q 953 2441 691 2322 
L 691 4666 
z
" transform="scale(0.015625)"/>
       </defs>
       <use xlink:href="#DejaVuSans-32"/>
       <use xlink:href="#DejaVuSans-35" x="63.623047"/>
      </g>
     </g>
    </g>
    <g id="xtick_3">
     <g id="line2d_3">
      <path d="M 153.772791 307.584 
L 153.772791 41.472 
" clip-path="url(#pac72619c53)" style="fill: none; stroke: #cccccc; stroke-width: 0.8; stroke-linecap: round"/>
     </g>
     <g id="text_3">
      <!-- 50 -->
      <g style="fill: #262626" transform="translate(147.410291 322.182437)scale(0.1 -0.1)">
       <use xlink:href="#DejaVuSans-35"/>
       <use xlink:href="#DejaVuSans-30" x="63.623047"/>
      </g>
     </g>
    </g>
    <g id="xtick_4">
     <g id="line2d_4">
      <path d="M 194.558538 307.584 
L 194.558538 41.472 
" clip-path="url(#pac72619c53)" style="fill: none; stroke: #cccccc; stroke-width: 0.8; stroke-linecap: round"/>
     </g>
     <g id="text_4">
      <!-- 75 -->
      <g style="fill: #262626" transform="translate(188.196038 322.182437)scale(0.1 -0.1)">
       <defs>
        <path id="DejaVuSans-37" d="M 525 4666 
L 3525 4666 
L 3525 4397 
L 1831 0 
L 1172 0 
L 2766 4134 
L 525 4134 
L 525 4666 
z
" transform="scale(0.015625)"/>
       </defs>
       <use xlink:href="#DejaVuSans-37"/>
       <use xlink:href="#DejaVuSans-35" x="63.623047"/>
      </g>
     </g>
    </g>
    <g id="xtick_5">
     <g id="line2d_5">
      <path d="M 235.344285 307.584 
L 235.344285 41.472 
" clip-path="url(#pac72619c53)" style="fill: none; stroke: #cccccc; stroke-width: 0.8; stroke-linecap: round"/>
     </g>
     <g id="text_5">
      <!-- 100 -->
      <g style="fill: #262626" transform="translate(225.800535 322.182437)scale(0.1 -0.1)">
       <defs>
        <path id="DejaVuSans-31" d="M 794 531 
L 1825 531 
L 1825 4091 
L 703 3866 
L 703 4441 
L 1819 4666 
L 2450 4666 
L 2450 531 
L 3481 531 
L 3481 0 
L 794 0 
L 794 531 
z
" transform="scale(0.015625)"/>
       </defs>
       <use xlink:href="#DejaVuSans-31"/>
       <use xlink:href="#DejaVuSans-30" x="63.623047"/>
       <use xlink:href="#DejaVuSans-30" x="127.246094"/>
      </g>
     </g>
    </g>
    <g id="xtick_6">
     <g id="line2d_6">
      <path d="M 276.130032 307.584 
L 276.130032 41.472 
" clip-path="url(#pac72619c53)" style="fill: none; stroke: #cccccc; stroke-width: 0.8; stroke-linecap: round"/>
     </g>
     <g id="text_6">
      <!-- 125 -->
      <g style="fill: #262626" transform="translate(266.586282 322.182437)scale(0.1 -0.1)">
       <use xlink:href="#DejaVuSans-31"/>
       <use xlink:href="#DejaVuSans-32" x="63.623047"/>
       <use xlink:href="#DejaVuSans-35" x="127.246094"/>
      </g>
     </g>
    </g>
    <g id="xtick_7">
     <g id="line2d_7">
      <path d="M 316.915779 307.584 
L 316.915779 41.472 
" clip-path="url(#pac72619c53)" style="fill: none; stroke: #cccccc; stroke-width: 0.8; stroke-linecap: round"/>
     </g>
     <g id="text_7">
      <!-- 150 -->
      <g style="fill: #262626" transform="translate(307.372029 322.182437)scale(0.1 -0.1)">
       <use xlink:href="#DejaVuSans-31"/>
       <use xlink:href="#DejaVuSans-35" x="63.623047"/>
       <use xlink:href="#DejaVuSans-30" x="127.246094"/>
      </g>
     </g>
    </g>
    <g id="xtick_8">
     <g id="line2d_8">
      <path d="M 357.701526 307.584 
L 357.701526 41.472 
" clip-path="url(#pac72619c53)" style="fill: none; stroke: #cccccc; stroke-width: 0.8; stroke-linecap: round"/>
     </g>
     <g id="text_8">
      <!-- 175 -->
      <g style="fill: #262626" transform="translate(348.157776 322.182437)scale(0.1 -0.1)">
       <use xlink:href="#DejaVuSans-31"/>
       <use xlink:href="#DejaVuSans-37" x="63.623047"/>
       <use xlink:href="#DejaVuSans-35" x="127.246094"/>
      </g>
     </g>
    </g>
    <g id="xtick_9">
     <g id="line2d_9">
      <path d="M 398.487273 307.584 
L 398.487273 41.472 
" clip-path="url(#pac72619c53)" style="fill: none; stroke: #cccccc; stroke-width: 0.8; stroke-linecap: round"/>
     </g>
     <g id="text_9">
      <!-- 200 -->
      <g style="fill: #262626" transform="translate(388.943523 322.182437)scale(0.1 -0.1)">
       <use xlink:href="#DejaVuSans-32"/>
       <use xlink:href="#DejaVuSans-30" x="63.623047"/>
       <use xlink:href="#DejaVuSans-30" x="127.246094"/>
      </g>
     </g>
    </g>
    <g id="text_10">
     <!-- Iteration -->
     <g style="fill: #262626" transform="translate(214.951406 335.860562)scale(0.1 -0.1)">
      <defs>
       <path id="DejaVuSans-49" d="M 628 4666 
L 1259 4666 
L 1259 0 
L 628 0 
L 628 4666 
z
" transform="scale(0.015625)"/>
       <path id="DejaVuSans-74" d="M 1172 4494 
L 1172 3500 
L 2356 3500 
L 2356 3053 
L 1172 3053 
L 1172 1153 
Q 1172 725 1289 603 
Q 1406 481 1766 481 
L 2356 481 
L 2356 0 
L 1766 0 
Q 1100 0 847 248 
Q 594 497 594 1153 
L 594 3053 
L 172 3053 
L 172 3500 
L 594 3500 
L 594 4494 
L 1172 4494 
z
" transform="scale(0.015625)"/>
       <path id="DejaVuSans-65" d="M 3597 1894 
L 3597 1613 
L 953 1613 
Q 991 1019 1311 708 
Q 1631 397 2203 397 
Q 2534 397 2845 478 
Q 3156 559 3463 722 
L 3463 178 
Q 3153 47 2828 -22 
Q 2503 -91 2169 -91 
Q 1331 -91 842 396 
Q 353 884 353 1716 
Q 353 2575 817 3079 
Q 1281 3584 2069 3584 
Q 2775 3584 3186 3129 
Q 3597 2675 3597 1894 
z
M 3022 2063 
Q 3016 2534 2758 2815 
Q 2500 3097 2075 3097 
Q 1594 3097 1305 2825 
Q 1016 2553 972 2059 
L 3022 2063 
z
" transform="scale(0.015625)"/>
       <path id="DejaVuSans-72" d="M 2631 2963 
Q 2534 3019 2420 3045 
Q 2306 3072 2169 3072 
Q 1681 3072 1420 2755 
Q 1159 2438 1159 1844 
L 1159 0 
L 581 0 
L 581 3500 
L 1159 3500 
L 1159 2956 
Q 1341 3275 1631 3429 
Q 1922 3584 2338 3584 
Q 2397 3584 2469 3576 
Q 2541 3569 2628 3553 
L 2631 2963 
z
" transform="scale(0.015625)"/>
       <path id="DejaVuSans-61" d="M 2194 1759 
Q 1497 1759 1228 1600 
Q 959 1441 959 1056 
Q 959 750 1161 570 
Q 1363 391 1709 391 
Q 2188 391 2477 730 
Q 2766 1069 2766 1631 
L 2766 1759 
L 2194 1759 
z
M 3341 1997 
L 3341 0 
L 2766 0 
L 2766 531 
Q 2569 213 2275 61 
Q 1981 -91 1556 -91 
Q 1019 -91 701 211 
Q 384 513 384 1019 
Q 384 1609 779 1909 
Q 1175 2209 1959 2209 
L 2766 2209 
L 2766 2266 
Q 2766 2663 2505 2880 
Q 2244 3097 1772 3097 
Q 1472 3097 1187 3025 
Q 903 2953 641 2809 
L 641 3341 
Q 956 3463 1253 3523 
Q 1550 3584 1831 3584 
Q 2591 3584 2966 3190 
Q 3341 2797 3341 1997 
z
" transform="scale(0.015625)"/>
       <path id="DejaVuSans-69" d="M 603 3500 
L 1178 3500 
L 1178 0 
L 603 0 
L 603 3500 
z
M 603 4863 
L 1178 4863 
L 1178 4134 
L 603 4134 
L 603 4863 
z
" transform="scale(0.015625)"/>
       <path id="DejaVuSans-6f" d="M 1959 3097 
Q 1497 3097 1228 2736 
Q 959 2375 959 1747 
Q 959 1119 1226 758 
Q 1494 397 1959 397 
Q 2419 397 2687 759 
Q 2956 1122 2956 1747 
Q 2956 2369 2687 2733 
Q 2419 3097 1959 3097 
z
M 1959 3584 
Q 2709 3584 3137 3096 
Q 3566 2609 3566 1747 
Q 3566 888 3137 398 
Q 2709 -91 1959 -91 
Q 1206 -91 779 398 
Q 353 888 353 1747 
Q 353 2609 779 3096 
Q 1206 3584 1959 3584 
z
" transform="scale(0.015625)"/>
       <path id="DejaVuSans-6e" d="M 3513 2113 
L 3513 0 
L 2938 0 
L 2938 2094 
Q 2938 2591 2744 2837 
Q 2550 3084 2163 3084 
Q 1697 3084 1428 2787 
Q 1159 2491 1159 1978 
L 1159 0 
L 581 0 
L 581 3500 
L 1159 3500 
L 1159 2956 
Q 1366 3272 1645 3428 
Q 1925 3584 2291 3584 
Q 2894 3584 3203 3211 
Q 3513 2838 3513 2113 
z
" transform="scale(0.015625)"/>
      </defs>
      <use xlink:href="#DejaVuSans-49"/>
      <use xlink:href="#DejaVuSans-74" x="29.492188"/>
      <use xlink:href="#DejaVuSans-65" x="68.701172"/>
      <use xlink:href="#DejaVuSans-72" x="130.224609"/>
      <use xlink:href="#DejaVuSans-61" x="171.337891"/>
      <use xlink:href="#DejaVuSans-74" x="232.617188"/>
      <use xlink:href="#DejaVuSans-69" x="271.826172"/>
      <use xlink:href="#DejaVuSans-6f" x="299.609375"/>
      <use xlink:href="#DejaVuSans-6e" x="360.791016"/>
     </g>
    </g>
   </g>
   <g id="matplotlib.axis_2">
    <g id="ytick_1">
     <g id="line2d_10">
      <path d="M 57.6 277.43327 
L 414.72 277.43327 
" clip-path="url(#pac72619c53)" style="fill: none; stroke: #cccccc; stroke-width: 0.8; stroke-linecap: round"/>
     </g>
     <g id="text_11">
      <!-- 0.575 -->
      <g style="fill: #262626" transform="translate(21.971875 281.232489)scale(0.1 -0.1)">
       <defs>
        <path id="DejaVuSans-2e" d="M 684 794 
L 1344 794 
L 1344 0 
L 684 0 
L 684 794 
z
" transform="scale(0.015625)"/>
       </defs>
       <use xlink:href="#DejaVuSans-30"/>
       <use xlink:href="#DejaVuSans-2e" x="63.623047"/>
       <use xlink:href="#DejaVuSans-35" x="95.410156"/>
       <use xlink:href="#DejaVuSans-37" x="159.033203"/>
       <use xlink:href="#DejaVuSans-35" x="222.65625"/>
      </g>
     </g>
    </g>
    <g id="ytick_2">
     <g id="line2d_11">
      <path d="M 57.6 247.201575 
L 414.72 247.201575 
" clip-path="url(#pac72619c53)" style="fill: none; stroke: #cccccc; stroke-width: 0.8; stroke-linecap: round"/>
     </g>
     <g id="text_12">
      <!-- 0.600 -->
      <g style="fill: #262626" transform="translate(21.971875 251.000794)scale(0.1 -0.1)">
       <defs>
        <path id="DejaVuSans-36" d="M 2113 2584 
Q 1688 2584 1439 2293 
Q 1191 2003 1191 1497 
Q 1191 994 1439 701 
Q 1688 409 2113 409 
Q 2538 409 2786 701 
Q 3034 994 3034 1497 
Q 3034 2003 2786 2293 
Q 2538 2584 2113 2584 
z
M 3366 4563 
L 3366 3988 
Q 3128 4100 2886 4159 
Q 2644 4219 2406 4219 
Q 1781 4219 1451 3797 
Q 1122 3375 1075 2522 
Q 1259 2794 1537 2939 
Q 1816 3084 2150 3084 
Q 2853 3084 3261 2657 
Q 3669 2231 3669 1497 
Q 3669 778 3244 343 
Q 2819 -91 2113 -91 
Q 1303 -91 875 529 
Q 447 1150 447 2328 
Q 447 3434 972 4092 
Q 1497 4750 2381 4750 
Q 2619 4750 2861 4703 
Q 3103 4656 3366 4563 
z
" transform="scale(0.015625)"/>
       </defs>
       <use xlink:href="#DejaVuSans-30"/>
       <use xlink:href="#DejaVuSans-2e" x="63.623047"/>
       <use xlink:href="#DejaVuSans-36" x="95.410156"/>
       <use xlink:href="#DejaVuSans-30" x="159.033203"/>
       <use xlink:href="#DejaVuSans-30" x="222.65625"/>
      </g>
     </g>
    </g>
    <g id="ytick_3">
     <g id="line2d_12">
      <path d="M 57.6 216.969879 
L 414.72 216.969879 
" clip-path="url(#pac72619c53)" style="fill: none; stroke: #cccccc; stroke-width: 0.8; stroke-linecap: round"/>
     </g>
     <g id="text_13">
      <!-- 0.625 -->
      <g style="fill: #262626" transform="translate(21.971875 220.769098)scale(0.1 -0.1)">
       <use xlink:href="#DejaVuSans-30"/>
       <use xlink:href="#DejaVuSans-2e" x="63.623047"/>
       <use xlink:href="#DejaVuSans-36" x="95.410156"/>
       <use xlink:href="#DejaVuSans-32" x="159.033203"/>
       <use xlink:href="#DejaVuSans-35" x="222.65625"/>
      </g>
     </g>
    </g>
    <g id="ytick_4">
     <g id="line2d_13">
      <path d="M 57.6 186.738184 
L 414.72 186.738184 
" clip-path="url(#pac72619c53)" style="fill: none; stroke: #cccccc; stroke-width: 0.8; stroke-linecap: round"/>
     </g>
     <g id="text_14">
      <!-- 0.650 -->
      <g style="fill: #262626" transform="translate(21.971875 190.537402)scale(0.1 -0.1)">
       <use xlink:href="#DejaVuSans-30"/>
       <use xlink:href="#DejaVuSans-2e" x="63.623047"/>
       <use xlink:href="#DejaVuSans-36" x="95.410156"/>
       <use xlink:href="#DejaVuSans-35" x="159.033203"/>
       <use xlink:href="#DejaVuSans-30" x="222.65625"/>
      </g>
     </g>
    </g>
    <g id="ytick_5">
     <g id="line2d_14">
      <path d="M 57.6 156.506488 
L 414.72 156.506488 
" clip-path="url(#pac72619c53)" style="fill: none; stroke: #cccccc; stroke-width: 0.8; stroke-linecap: round"/>
     </g>
     <g id="text_15">
      <!-- 0.675 -->
      <g style="fill: #262626" transform="translate(21.971875 160.305707)scale(0.1 -0.1)">
       <use xlink:href="#DejaVuSans-30"/>
       <use xlink:href="#DejaVuSans-2e" x="63.623047"/>
       <use xlink:href="#DejaVuSans-36" x="95.410156"/>
       <use xlink:href="#DejaVuSans-37" x="159.033203"/>
       <use xlink:href="#DejaVuSans-35" x="222.65625"/>
      </g>
     </g>
    </g>
    <g id="ytick_6">
     <g id="line2d_15">
      <path d="M 57.6 126.274792 
L 414.72 126.274792 
" clip-path="url(#pac72619c53)" style="fill: none; stroke: #cccccc; stroke-width: 0.8; stroke-linecap: round"/>
     </g>
     <g id="text_16">
      <!-- 0.700 -->
      <g style="fill: #262626" transform="translate(21.971875 130.074011)scale(0.1 -0.1)">
       <use xlink:href="#DejaVuSans-30"/>
       <use xlink:href="#DejaVuSans-2e" x="63.623047"/>
       <use xlink:href="#DejaVuSans-37" x="95.410156"/>
       <use xlink:href="#DejaVuSans-30" x="159.033203"/>
       <use xlink:href="#DejaVuSans-30" x="222.65625"/>
      </g>
     </g>
    </g>
    <g id="ytick_7">
     <g id="line2d_16">
      <path d="M 57.6 96.043097 
L 414.72 96.043097 
" clip-path="url(#pac72619c53)" style="fill: none; stroke: #cccccc; stroke-width: 0.8; stroke-linecap: round"/>
     </g>
     <g id="text_17">
      <!-- 0.725 -->
      <g style="fill: #262626" transform="translate(21.971875 99.842316)scale(0.1 -0.1)">
       <use xlink:href="#DejaVuSans-30"/>
       <use xlink:href="#DejaVuSans-2e" x="63.623047"/>
       <use xlink:href="#DejaVuSans-37" x="95.410156"/>
       <use xlink:href="#DejaVuSans-32" x="159.033203"/>
       <use xlink:href="#DejaVuSans-35" x="222.65625"/>
      </g>
     </g>
    </g>
    <g id="ytick_8">
     <g id="line2d_17">
      <path d="M 57.6 65.811401 
L 414.72 65.811401 
" clip-path="url(#pac72619c53)" style="fill: none; stroke: #cccccc; stroke-width: 0.8; stroke-linecap: round"/>
     </g>
     <g id="text_18">
      <!-- 0.750 -->
      <g style="fill: #262626" transform="translate(21.971875 69.61062)scale(0.1 -0.1)">
       <use xlink:href="#DejaVuSans-30"/>
       <use xlink:href="#DejaVuSans-2e" x="63.623047"/>
       <use xlink:href="#DejaVuSans-37" x="95.410156"/>
       <use xlink:href="#DejaVuSans-35" x="159.033203"/>
       <use xlink:href="#DejaVuSans-30" x="222.65625"/>
      </g>
     </g>
    </g>
    <g id="text_19">
     <!-- Auroc -->
     <g style="fill: #262626" transform="translate(15.892188 188.868625)rotate(-90)scale(0.1 -0.1)">
      <defs>
       <path id="DejaVuSans-41" d="M 2188 4044 
L 1331 1722 
L 3047 1722 
L 2188 4044 
z
M 1831 4666 
L 2547 4666 
L 4325 0 
L 3669 0 
L 3244 1197 
L 1141 1197 
L 716 0 
L 50 0 
L 1831 4666 
z
" transform="scale(0.015625)"/>
       <path id="DejaVuSans-75" d="M 544 1381 
L 544 3500 
L 1119 3500 
L 1119 1403 
Q 1119 906 1312 657 
Q 1506 409 1894 409 
Q 2359 409 2629 706 
Q 2900 1003 2900 1516 
L 2900 3500 
L 3475 3500 
L 3475 0 
L 2900 0 
L 2900 538 
Q 2691 219 2414 64 
Q 2138 -91 1772 -91 
Q 1169 -91 856 284 
Q 544 659 544 1381 
z
M 1991 3584 
L 1991 3584 
z
" transform="scale(0.015625)"/>
       <path id="DejaVuSans-63" d="M 3122 3366 
L 3122 2828 
Q 2878 2963 2633 3030 
Q 2388 3097 2138 3097 
Q 1578 3097 1268 2742 
Q 959 2388 959 1747 
Q 959 1106 1268 751 
Q 1578 397 2138 397 
Q 2388 397 2633 464 
Q 2878 531 3122 666 
L 3122 134 
Q 2881 22 2623 -34 
Q 2366 -91 2075 -91 
Q 1284 -91 818 406 
Q 353 903 353 1747 
Q 353 2603 823 3093 
Q 1294 3584 2113 3584 
Q 2378 3584 2631 3529 
Q 2884 3475 3122 3366 
z
" transform="scale(0.015625)"/>
      </defs>
      <use xlink:href="#DejaVuSans-41"/>
      <use xlink:href="#DejaVuSans-75" x="68.408203"/>
      <use xlink:href="#DejaVuSans-72" x="131.787109"/>
      <use xlink:href="#DejaVuSans-6f" x="170.650391"/>
      <use xlink:href="#DejaVuSans-63" x="231.832031"/>
     </g>
    </g>
   </g>
   <g id="PolyCollection_1">
    <defs>
     <path id="mc1a4404ff8" d="M 73.832727 -228.601166 
L 73.832727 -139.680153 
L 75.464157 -127.273486 
L 77.095587 -135.103439 
L 78.727017 -96.27061 
L 80.358447 -142.914843 
L 81.989877 -164.520997 
L 83.621307 -159.434852 
L 85.252736 -163.183107 
L 86.884166 -153.038727 
L 88.515596 -153.224421 
L 90.147026 -176.790466 
L 91.778456 -178.540214 
L 93.409886 -175.469173 
L 95.041316 -132.267098 
L 96.672746 -188.648623 
L 98.304175 -110.744114 
L 99.935605 -133.718788 
L 101.567035 -143.273819 
L 103.198465 -153.128361 
L 104.829895 -172.556011 
L 106.461325 -123.121303 
L 108.092755 -120.53641 
L 109.724185 -178.359339 
L 111.355614 -164.368556 
L 112.987044 -137.797345 
L 114.618474 -178.370734 
L 116.249904 -156.791455 
L 117.881334 -105.931265 
L 119.512764 -156.438946 
L 121.144194 -106.83861 
L 122.775624 -144.649566 
L 124.407053 -173.54174 
L 126.038483 -109.821642 
L 127.669913 -156.343339 
L 129.301343 -159.117394 
L 130.932773 -147.782937 
L 132.564203 -172.445289 
L 134.195633 -164.282466 
L 135.827063 -185.050066 
L 137.458492 -130.62866 
L 139.089922 -168.917691 
L 140.721352 -116.58734 
L 142.352782 -160.122253 
L 143.984212 -176.651024 
L 145.615642 -151.480783 
L 147.247072 -170.556268 
L 148.878502 -157.41012 
L 150.509931 -144.542072 
L 152.141361 -114.800377 
L 153.772791 -181.577137 
L 155.404221 -153.397211 
L 157.035651 -133.373577 
L 158.667081 -172.71216 
L 160.298511 -168.653637 
L 161.929941 -124.674692 
L 163.56137 -151.617879 
L 165.1928 -143.240676 
L 166.82423 -163.805288 
L 168.45566 -165.300597 
L 170.08709 -157.569978 
L 171.71852 -171.206904 
L 173.34995 -141.6586 
L 174.98138 -176.819538 
L 176.61281 -176.597936 
L 178.244239 -151.893282 
L 179.875669 -107.409355 
L 181.507099 -141.674287 
L 183.138529 -79.459622 
L 184.769959 -155.59215 
L 186.401389 -128.824257 
L 188.032819 -162.345961 
L 189.664249 -151.13948 
L 191.295678 -147.655738 
L 192.927108 -158.970093 
L 194.558538 -119.394843 
L 196.189968 -167.069682 
L 197.821398 -187.293848 
L 199.452828 -188.855962 
L 201.084258 -124.535223 
L 202.715688 -159.581683 
L 204.347117 -183.0712 
L 205.978547 -164.730494 
L 207.609977 -131.735865 
L 209.241407 -166.567855 
L 210.872837 -166.351985 
L 212.504267 -147.434212 
L 214.135697 -134.037769 
L 215.767127 -141.465695 
L 217.398556 -143.27776 
L 219.029986 -102.121668 
L 220.661416 -153.964297 
L 222.292846 -181.199921 
L 223.924276 -156.003072 
L 225.555706 -164.795924 
L 227.187136 -190.866465 
L 228.818566 -114.800903 
L 230.449995 -172.04294 
L 232.081425 -153.088632 
L 233.712855 -50.112 
L 235.344285 -154.385958 
L 236.975715 -124.581957 
L 238.607145 -133.533947 
L 240.238575 -162.102406 
L 241.870005 -156.271296 
L 243.501434 -154.519152 
L 245.132864 -127.311681 
L 246.764294 -170.501732 
L 248.395724 -124.988192 
L 250.027154 -148.718875 
L 251.658584 -88.528693 
L 253.290014 -166.331479 
L 254.921444 -142.633744 
L 256.552873 -128.00699 
L 258.184303 -171.323068 
L 259.815733 -144.998349 
L 261.447163 -132.818726 
L 263.078593 -183.857669 
L 264.710023 -176.968547 
L 266.341453 -174.393996 
L 267.972883 -201.466541 
L 269.604312 -137.522106 
L 271.235742 -144.354283 
L 272.867172 -119.797707 
L 274.498602 -145.948437 
L 276.130032 -153.847602 
L 277.761462 -187.753372 
L 279.392892 -169.858346 
L 281.024322 -153.090985 
L 282.655751 -133.80718 
L 284.287181 -77.034188 
L 285.918611 -189.648925 
L 287.550041 -130.28197 
L 289.181471 -174.060879 
L 290.812901 -152.148652 
L 292.444331 -181.945609 
L 294.075761 -140.679841 
L 295.70719 -191.088856 
L 297.33862 -124.670458 
L 298.97005 -132.937083 
L 300.60148 -141.958798 
L 302.23291 -122.284272 
L 303.86434 -180.838971 
L 305.49577 -160.641274 
L 307.1272 -150.481921 
L 308.75863 -167.148838 
L 310.390059 -182.179473 
L 312.021489 -180.047208 
L 313.652919 -167.447581 
L 315.284349 -119.420109 
L 316.915779 -180.722944 
L 318.547209 -97.320423 
L 320.178639 -177.335413 
L 321.810069 -171.351482 
L 323.441498 -87.501789 
L 325.072928 -128.894528 
L 326.704358 -179.539052 
L 328.335788 -158.990756 
L 329.967218 -172.491449 
L 331.598648 -83.857942 
L 333.230078 -179.649675 
L 334.861508 -170.652594 
L 336.492937 -152.455386 
L 338.124367 -160.180372 
L 339.755797 -173.662338 
L 341.387227 -113.501742 
L 343.018657 -170.484906 
L 344.650087 -165.67593 
L 346.281517 -172.454388 
L 347.912947 -152.895953 
L 349.544376 -147.448072 
L 351.175806 -179.053617 
L 352.807236 -103.236496 
L 354.438666 -116.506843 
L 356.070096 -180.287624 
L 357.701526 -152.028036 
L 359.332956 -169.995523 
L 360.964386 -132.18266 
L 362.595815 -187.802049 
L 364.227245 -151.253507 
L 365.858675 -192.668558 
L 367.490105 -138.631113 
L 369.121535 -161.229043 
L 370.752965 -159.284079 
L 372.384395 -125.94841 
L 374.015825 -128.760826 
L 375.647254 -131.968215 
L 377.278684 -150.381297 
L 378.910114 -121.178617 
L 380.541544 -195.678296 
L 382.172974 -178.06449 
L 383.804404 -156.683838 
L 385.435834 -155.635124 
L 387.067264 -121.054084 
L 388.698693 -111.488888 
L 390.330123 -140.084549 
L 391.961553 -175.717595 
L 393.592983 -120.917947 
L 395.224413 -188.055357 
L 396.855843 -148.816035 
L 398.487273 -150.274659 
L 398.487273 -247.109102 
L 398.487273 -247.109102 
L 396.855843 -216.610523 
L 395.224413 -238.538537 
L 393.592983 -234.392006 
L 391.961553 -227.377637 
L 390.330123 -252.691071 
L 388.698693 -223.270626 
L 387.067264 -186.218855 
L 385.435834 -247.543143 
L 383.804404 -234.921595 
L 382.172974 -260.495483 
L 380.541544 -226.375971 
L 378.910114 -276.899991 
L 377.278684 -270.311764 
L 375.647254 -223.582072 
L 374.015825 -256.551893 
L 372.384395 -250.984028 
L 370.752965 -246.69291 
L 369.121535 -224.08543 
L 367.490105 -234.451315 
L 365.858675 -231.958035 
L 364.227245 -226.944822 
L 362.595815 -240.480902 
L 360.964386 -218.285349 
L 359.332956 -231.47322 
L 357.701526 -259.062222 
L 356.070096 -220.357593 
L 354.438666 -221.520853 
L 352.807236 -243.184443 
L 351.175806 -271.323032 
L 349.544376 -252.446128 
L 347.912947 -203.954725 
L 346.281517 -230.043519 
L 344.650087 -267.822817 
L 343.018657 -264.300004 
L 341.387227 -231.765382 
L 339.755797 -239.768586 
L 338.124367 -227.66676 
L 336.492937 -258.199134 
L 334.861508 -234.063084 
L 333.230078 -266.260635 
L 331.598648 -235.754018 
L 329.967218 -244.654114 
L 328.335788 -263.472545 
L 326.704358 -240.71408 
L 325.072928 -223.002875 
L 323.441498 -252.265805 
L 321.810069 -235.057346 
L 320.178639 -215.825559 
L 318.547209 -260.659607 
L 316.915779 -252.972377 
L 315.284349 -239.999874 
L 313.652919 -248.763938 
L 312.021489 -246.616563 
L 310.390059 -230.327834 
L 308.75863 -251.89834 
L 307.1272 -244.753752 
L 305.49577 -217.871847 
L 303.86434 -230.913324 
L 302.23291 -246.621368 
L 300.60148 -253.950802 
L 298.97005 -200.308996 
L 297.33862 -207.145608 
L 295.70719 -252.528445 
L 294.075761 -254.231099 
L 292.444331 -253.134308 
L 290.812901 -254.038068 
L 289.181471 -242.292248 
L 287.550041 -267.614619 
L 285.918611 -250.286386 
L 284.287181 -230.494288 
L 282.655751 -257.38022 
L 281.024322 -255.4786 
L 279.392892 -225.787726 
L 277.761462 -269.466438 
L 276.130032 -236.200928 
L 274.498602 -215.444695 
L 272.867172 -236.635945 
L 271.235742 -206.953755 
L 269.604312 -253.304242 
L 267.972883 -240.522908 
L 266.341453 -238.765116 
L 264.710023 -245.886148 
L 263.078593 -225.210711 
L 261.447163 -239.575741 
L 259.815733 -216.002804 
L 258.184303 -266.850384 
L 256.552873 -235.566976 
L 254.921444 -249.744244 
L 253.290014 -232.732859 
L 251.658584 -238.953514 
L 250.027154 -221.753803 
L 248.395724 -252.936765 
L 246.764294 -259.396987 
L 245.132864 -244.09592 
L 243.501434 -269.132561 
L 241.870005 -249.792041 
L 240.238575 -256.235759 
L 238.607145 -257.294058 
L 236.975715 -218.556279 
L 235.344285 -184.482904 
L 233.712855 -254.531795 
L 232.081425 -259.306793 
L 230.449995 -241.233414 
L 228.818566 -261.978297 
L 227.187136 -263.552382 
L 225.555706 -207.313866 
L 223.924276 -267.297399 
L 222.292846 -233.314647 
L 220.661416 -246.365543 
L 219.029986 -211.860037 
L 217.398556 -244.008043 
L 215.767127 -235.039679 
L 214.135697 -233.003485 
L 212.504267 -248.703247 
L 210.872837 -263.998845 
L 209.241407 -270.035927 
L 207.609977 -254.06668 
L 205.978547 -204.414797 
L 204.347117 -243.001972 
L 202.715688 -253.355418 
L 201.084258 -261.578021 
L 199.452828 -256.117478 
L 197.821398 -235.67312 
L 196.189968 -261.49356 
L 194.558538 -239.608016 
L 192.927108 -239.731991 
L 191.295678 -247.5199 
L 189.664249 -256.844184 
L 188.032819 -246.203645 
L 186.401389 -232.7328 
L 184.769959 -281.871705 
L 183.138529 -208.568988 
L 181.507099 -249.621065 
L 179.875669 -257.796752 
L 178.244239 -248.661786 
L 176.61281 -244.053997 
L 174.98138 -235.458255 
L 173.34995 -196.327124 
L 171.71852 -238.9535 
L 170.08709 -241.649515 
L 168.45566 -244.543457 
L 166.82423 -253.918303 
L 165.1928 -238.436539 
L 163.56137 -263.54362 
L 161.929941 -222.45292 
L 160.298511 -224.543199 
L 158.667081 -243.688039 
L 157.035651 -214.026106 
L 155.404221 -226.189709 
L 153.772791 -280.605661 
L 152.141361 -239.525633 
L 150.509931 -228.525153 
L 148.878502 -239.900254 
L 147.247072 -259.397321 
L 145.615642 -217.992359 
L 143.984212 -250.386112 
L 142.352782 -259.258234 
L 140.721352 -238.50109 
L 139.089922 -229.085128 
L 137.458492 -210.092112 
L 135.827063 -227.208917 
L 134.195633 -236.941071 
L 132.564203 -238.964341 
L 130.932773 -204.832575 
L 129.301343 -232.11789 
L 127.669913 -250.412149 
L 126.038483 -247.613496 
L 124.407053 -261.137427 
L 122.775624 -266.498387 
L 121.144194 -206.241212 
L 119.512764 -243.803377 
L 117.881334 -262.374127 
L 116.249904 -227.270575 
L 114.618474 -239.375564 
L 112.987044 -268.416565 
L 111.355614 -177.762152 
L 109.724185 -237.872062 
L 108.092755 -254.263631 
L 106.461325 -200.846315 
L 104.829895 -214.322577 
L 103.198465 -231.926969 
L 101.567035 -205.934439 
L 99.935605 -206.708829 
L 98.304175 -223.754731 
L 96.672746 -260.81815 
L 95.041316 -231.498472 
L 93.409886 -211.373744 
L 91.778456 -260.018005 
L 90.147026 -292.032 
L 88.515596 -241.824911 
L 86.884166 -208.339007 
L 85.252736 -258.465439 
L 83.621307 -236.759425 
L 81.989877 -240.2438 
L 80.358447 -238.186196 
L 78.727017 -235.958389 
L 77.095587 -233.926753 
L 75.464157 -235.925167 
L 73.832727 -228.601166 
z
" style="stroke: #ffffff; stroke-opacity: 0.2"/>
    </defs>
    <g clip-path="url(#pac72619c53)">
     <use xlink:href="#mc1a4404ff8" x="0" y="345.6" style="fill: #1f77b4; fill-opacity: 0.2; stroke: #ffffff; stroke-opacity: 0.2"/>
    </g>
   </g>
   <g id="line2d_18">
    <path d="M 73.832727 161.45934 
L 75.464157 164.000674 
L 77.095587 161.084904 
L 78.727017 179.4855 
L 80.358447 155.04948 
L 81.989877 143.217601 
L 83.621307 147.502861 
L 85.252736 134.775727 
L 86.884166 164.911133 
L 88.515596 148.075334 
L 90.147026 111.188767 
L 91.778456 126.32089 
L 93.409886 152.178541 
L 95.041316 163.717215 
L 96.672746 120.866613 
L 98.304175 178.350577 
L 99.935605 175.386192 
L 101.567035 170.995871 
L 103.198465 153.072335 
L 104.829895 152.160706 
L 106.461325 183.616191 
L 108.092755 158.19998 
L 109.724185 137.4843 
L 111.355614 174.534646 
L 112.987044 142.493045 
L 114.618474 136.726851 
L 116.249904 153.568985 
L 117.881334 161.447304 
L 119.512764 145.478839 
L 121.144194 189.060089 
L 122.775624 140.026023 
L 124.407053 128.260416 
L 126.038483 166.882431 
L 127.669913 142.222256 
L 129.301343 149.982358 
L 130.932773 169.292244 
L 132.564203 139.895185 
L 134.195633 144.988232 
L 135.827063 139.470509 
L 137.458492 175.239614 
L 139.089922 146.598591 
L 140.721352 168.055785 
L 142.352782 135.909757 
L 143.984212 132.081432 
L 145.615642 160.863429 
L 147.247072 130.623206 
L 148.878502 146.944813 
L 150.509931 159.066388 
L 152.141361 168.436995 
L 153.772791 114.508601 
L 155.404221 155.80654 
L 157.035651 171.900158 
L 158.667081 137.399901 
L 160.298511 149.001582 
L 161.929941 172.036194 
L 163.56137 138.019251 
L 165.1928 154.761392 
L 166.82423 136.738205 
L 168.45566 140.677973 
L 170.08709 145.990253 
L 171.71852 140.519798 
L 173.34995 176.607138 
L 174.98138 139.461104 
L 176.61281 135.274033 
L 178.244239 145.322466 
L 179.875669 162.996947 
L 181.507099 149.952324 
L 183.138529 201.585695 
L 184.769959 126.868072 
L 186.401389 164.821471 
L 188.032819 141.325197 
L 189.664249 141.608168 
L 191.295678 148.012181 
L 192.927108 146.248958 
L 194.558538 166.09857 
L 196.189968 131.318379 
L 197.821398 134.116516 
L 199.452828 123.11328 
L 201.084258 152.543378 
L 202.715688 139.13145 
L 204.347117 132.563414 
L 205.978547 161.027355 
L 207.609977 152.698727 
L 209.241407 127.298109 
L 210.872837 130.424585 
L 212.504267 147.531271 
L 214.135697 162.079373 
L 215.767127 157.347313 
L 217.398556 151.957099 
L 219.029986 188.609147 
L 220.661416 145.43508 
L 222.292846 138.342716 
L 223.924276 133.949764 
L 225.555706 159.545105 
L 227.187136 118.390577 
L 228.818566 157.2104 
L 230.449995 138.961823 
L 232.081425 139.402287 
L 233.712855 193.278102 
L 235.344285 176.165569 
L 236.975715 174.030882 
L 238.607145 150.185998 
L 240.238575 136.430917 
L 241.870005 142.568331 
L 243.501434 133.774144 
L 245.132864 159.8962 
L 246.764294 130.65064 
L 248.395724 156.637521 
L 250.027154 160.363661 
L 251.658584 181.858896 
L 253.290014 146.067831 
L 254.921444 149.411006 
L 256.552873 163.813017 
L 258.184303 126.513274 
L 259.815733 165.099424 
L 261.447163 159.402766 
L 263.078593 141.06581 
L 264.710023 134.172652 
L 266.341453 139.020444 
L 267.972883 124.605276 
L 269.604312 150.186826 
L 271.235742 169.945981 
L 274.498602 164.903434 
L 276.130032 150.575735 
L 277.761462 116.990095 
L 279.392892 147.776964 
L 281.024322 141.315207 
L 282.655751 150.0063 
L 284.287181 191.835762 
L 285.918611 125.632345 
L 287.550041 146.651706 
L 289.181471 137.423437 
L 290.812901 142.50664 
L 292.444331 128.060041 
L 294.075761 148.14453 
L 295.70719 123.791349 
L 297.33862 179.691967 
L 298.97005 178.976961 
L 300.60148 147.6452 
L 302.23291 161.14718 
L 303.86434 139.723852 
L 305.49577 156.34344 
L 307.1272 147.982163 
L 308.75863 136.076411 
L 310.390059 139.346346 
L 312.021489 132.268114 
L 313.652919 137.494241 
L 315.284349 165.890009 
L 316.915779 128.752339 
L 318.547209 166.609985 
L 320.178639 149.019514 
L 321.810069 142.395586 
L 323.441498 175.716203 
L 325.072928 169.651298 
L 326.704358 135.473434 
L 328.335788 134.36835 
L 329.967218 137.027218 
L 331.598648 185.79402 
L 333.230078 122.644845 
L 334.861508 143.242161 
L 336.492937 140.27274 
L 338.124367 151.676434 
L 339.755797 138.884538 
L 341.387227 172.966438 
L 343.018657 128.207545 
L 344.650087 128.850627 
L 346.281517 144.351046 
L 347.912947 167.174661 
L 349.544376 145.6529 
L 351.175806 120.411676 
L 352.807236 172.389531 
L 354.438666 176.586152 
L 356.070096 145.277392 
L 357.701526 140.054871 
L 359.332956 144.865628 
L 360.964386 170.365995 
L 362.595815 131.458524 
L 364.227245 156.500835 
L 365.858675 133.286704 
L 367.490105 159.058786 
L 369.121535 152.942764 
L 370.752965 142.611506 
L 372.384395 157.133781 
L 374.015825 152.943641 
L 375.647254 167.824857 
L 377.278684 135.25347 
L 378.910114 146.560696 
L 380.541544 134.572867 
L 382.172974 126.320013 
L 383.804404 149.797283 
L 385.435834 144.010867 
L 387.067264 191.96353 
L 388.698693 178.220243 
L 390.330123 149.21219 
L 391.961553 144.052384 
L 393.592983 167.945023 
L 395.224413 132.303053 
L 396.855843 162.886721 
L 398.487273 146.90812 
L 398.487273 146.90812 
" clip-path="url(#pac72619c53)" style="fill: none; stroke: #1f77b4; stroke-width: 1.5; stroke-linecap: round"/>
   </g>
   <g id="LineCollection_1">
    <path d="M 398.487273 295.488 
L 398.487273 53.568 
" clip-path="url(#pac72619c53)" style="fill: none; stroke-dasharray: 5.55,2.4; stroke-dashoffset: 0; stroke: #1f77b4; stroke-width: 1.5"/>
   </g>
   <g id="patch_3">
    <path d="M 57.6 307.584 
L 57.6 41.472 
" style="fill: none; stroke: #cccccc; stroke-width: 0.8; stroke-linejoin: miter; stroke-linecap: square"/>
   </g>
   <g id="patch_4">
    <path d="M 414.72 307.584 
L 414.72 41.472 
" style="fill: none; stroke: #cccccc; stroke-width: 0.8; stroke-linejoin: miter; stroke-linecap: square"/>
   </g>
   <g id="patch_5">
    <path d="M 57.6 307.584 
L 414.72 307.584 
" style="fill: none; stroke: #cccccc; stroke-width: 0.8; stroke-linejoin: miter; stroke-linecap: square"/>
   </g>
   <g id="patch_6">
    <path d="M 57.6 41.472 
L 414.72 41.472 
" style="fill: none; stroke: #cccccc; stroke-width: 0.8; stroke-linejoin: miter; stroke-linecap: square"/>
   </g>
   <g id="text_20">
    <!-- Model performance vs. # of iterations -->
    <g style="fill: #262626" transform="translate(122.314688 35.472)scale(0.12 -0.12)">
     <defs>
      <path id="DejaVuSans-4d" d="M 628 4666 
L 1569 4666 
L 2759 1491 
L 3956 4666 
L 4897 4666 
L 4897 0 
L 4281 0 
L 4281 4097 
L 3078 897 
L 2444 897 
L 1241 4097 
L 1241 0 
L 628 0 
L 628 4666 
z
" transform="scale(0.015625)"/>
      <path id="DejaVuSans-64" d="M 2906 2969 
L 2906 4863 
L 3481 4863 
L 3481 0 
L 2906 0 
L 2906 525 
Q 2725 213 2448 61 
Q 2172 -91 1784 -91 
Q 1150 -91 751 415 
Q 353 922 353 1747 
Q 353 2572 751 3078 
Q 1150 3584 1784 3584 
Q 2172 3584 2448 3432 
Q 2725 3281 2906 2969 
z
M 947 1747 
Q 947 1113 1208 752 
Q 1469 391 1925 391 
Q 2381 391 2643 752 
Q 2906 1113 2906 1747 
Q 2906 2381 2643 2742 
Q 2381 3103 1925 3103 
Q 1469 3103 1208 2742 
Q 947 2381 947 1747 
z
" transform="scale(0.015625)"/>
      <path id="DejaVuSans-6c" d="M 603 4863 
L 1178 4863 
L 1178 0 
L 603 0 
L 603 4863 
z
" transform="scale(0.015625)"/>
      <path id="DejaVuSans-20" transform="scale(0.015625)"/>
      <path id="DejaVuSans-70" d="M 1159 525 
L 1159 -1331 
L 581 -1331 
L 581 3500 
L 1159 3500 
L 1159 2969 
Q 1341 3281 1617 3432 
Q 1894 3584 2278 3584 
Q 2916 3584 3314 3078 
Q 3713 2572 3713 1747 
Q 3713 922 3314 415 
Q 2916 -91 2278 -91 
Q 1894 -91 1617 61 
Q 1341 213 1159 525 
z
M 3116 1747 
Q 3116 2381 2855 2742 
Q 2594 3103 2138 3103 
Q 1681 3103 1420 2742 
Q 1159 2381 1159 1747 
Q 1159 1113 1420 752 
Q 1681 391 2138 391 
Q 2594 391 2855 752 
Q 3116 1113 3116 1747 
z
" transform="scale(0.015625)"/>
      <path id="DejaVuSans-66" d="M 2375 4863 
L 2375 4384 
L 1825 4384 
Q 1516 4384 1395 4259 
Q 1275 4134 1275 3809 
L 1275 3500 
L 2222 3500 
L 2222 3053 
L 1275 3053 
L 1275 0 
L 697 0 
L 697 3053 
L 147 3053 
L 147 3500 
L 697 3500 
L 697 3744 
Q 697 4328 969 4595 
Q 1241 4863 1831 4863 
L 2375 4863 
z
" transform="scale(0.015625)"/>
      <path id="DejaVuSans-6d" d="M 3328 2828 
Q 3544 3216 3844 3400 
Q 4144 3584 4550 3584 
Q 5097 3584 5394 3201 
Q 5691 2819 5691 2113 
L 5691 0 
L 5113 0 
L 5113 2094 
Q 5113 2597 4934 2840 
Q 4756 3084 4391 3084 
Q 3944 3084 3684 2787 
Q 3425 2491 3425 1978 
L 3425 0 
L 2847 0 
L 2847 2094 
Q 2847 2600 2669 2842 
Q 2491 3084 2119 3084 
Q 1678 3084 1418 2786 
Q 1159 2488 1159 1978 
L 1159 0 
L 581 0 
L 581 3500 
L 1159 3500 
L 1159 2956 
Q 1356 3278 1631 3431 
Q 1906 3584 2284 3584 
Q 2666 3584 2933 3390 
Q 3200 3197 3328 2828 
z
" transform="scale(0.015625)"/>
      <path id="DejaVuSans-76" d="M 191 3500 
L 800 3500 
L 1894 563 
L 2988 3500 
L 3597 3500 
L 2284 0 
L 1503 0 
L 191 3500 
z
" transform="scale(0.015625)"/>
      <path id="DejaVuSans-73" d="M 2834 3397 
L 2834 2853 
Q 2591 2978 2328 3040 
Q 2066 3103 1784 3103 
Q 1356 3103 1142 2972 
Q 928 2841 928 2578 
Q 928 2378 1081 2264 
Q 1234 2150 1697 2047 
L 1894 2003 
Q 2506 1872 2764 1633 
Q 3022 1394 3022 966 
Q 3022 478 2636 193 
Q 2250 -91 1575 -91 
Q 1294 -91 989 -36 
Q 684 19 347 128 
L 347 722 
Q 666 556 975 473 
Q 1284 391 1588 391 
Q 1994 391 2212 530 
Q 2431 669 2431 922 
Q 2431 1156 2273 1281 
Q 2116 1406 1581 1522 
L 1381 1569 
Q 847 1681 609 1914 
Q 372 2147 372 2553 
Q 372 3047 722 3315 
Q 1072 3584 1716 3584 
Q 2034 3584 2315 3537 
Q 2597 3491 2834 3397 
z
" transform="scale(0.015625)"/>
      <path id="DejaVuSans-23" d="M 3272 2816 
L 2363 2816 
L 2100 1772 
L 3016 1772 
L 3272 2816 
z
M 2803 4594 
L 2478 3297 
L 3391 3297 
L 3719 4594 
L 4219 4594 
L 3897 3297 
L 4872 3297 
L 4872 2816 
L 3775 2816 
L 3519 1772 
L 4513 1772 
L 4513 1294 
L 3397 1294 
L 3072 0 
L 2572 0 
L 2894 1294 
L 1978 1294 
L 1656 0 
L 1153 0 
L 1478 1294 
L 494 1294 
L 494 1772 
L 1594 1772 
L 1856 2816 
L 850 2816 
L 850 3297 
L 1978 3297 
L 2297 4594 
L 2803 4594 
z
" transform="scale(0.015625)"/>
     </defs>
     <use xlink:href="#DejaVuSans-4d"/>
     <use xlink:href="#DejaVuSans-6f" x="86.279297"/>
     <use xlink:href="#DejaVuSans-64" x="147.460938"/>
     <use xlink:href="#DejaVuSans-65" x="210.9375"/>
     <use xlink:href="#DejaVuSans-6c" x="272.460938"/>
     <use xlink:href="#DejaVuSans-20" x="300.244141"/>
     <use xlink:href="#DejaVuSans-70" x="332.03125"/>
     <use xlink:href="#DejaVuSans-65" x="395.507812"/>
     <use xlink:href="#DejaVuSans-72" x="457.03125"/>
     <use xlink:href="#DejaVuSans-66" x="498.144531"/>
     <use xlink:href="#DejaVuSans-6f" x="533.349609"/>
     <use xlink:href="#DejaVuSans-72" x="594.53125"/>
     <use xlink:href="#DejaVuSans-6d" x="633.894531"/>
     <use xlink:href="#DejaVuSans-61" x="731.306641"/>
     <use xlink:href="#DejaVuSans-6e" x="792.585938"/>
     <use xlink:href="#DejaVuSans-63" x="855.964844"/>
     <use xlink:href="#DejaVuSans-65" x="910.945312"/>
     <use xlink:href="#DejaVuSans-20" x="972.46875"/>
     <use xlink:href="#DejaVuSans-76" x="1004.255859"/>
     <use xlink:href="#DejaVuSans-73" x="1063.435547"/>
     <use xlink:href="#DejaVuSans-2e" x="1115.535156"/>
     <use xlink:href="#DejaVuSans-20" x="1147.322266"/>
     <use xlink:href="#DejaVuSans-23" x="1179.109375"/>
     <use xlink:href="#DejaVuSans-20" x="1262.898438"/>
     <use xlink:href="#DejaVuSans-6f" x="1294.685547"/>
     <use xlink:href="#DejaVuSans-66" x="1355.867188"/>
     <use xlink:href="#DejaVuSans-20" x="1391.072266"/>
     <use xlink:href="#DejaVuSans-69" x="1422.859375"/>
     <use xlink:href="#DejaVuSans-74" x="1450.642578"/>
     <use xlink:href="#DejaVuSans-65" x="1489.851562"/>
     <use xlink:href="#DejaVuSans-72" x="1551.375"/>
     <use xlink:href="#DejaVuSans-61" x="1592.488281"/>
     <use xlink:href="#DejaVuSans-74" x="1653.767578"/>
     <use xlink:href="#DejaVuSans-69" x="1692.976562"/>
     <use xlink:href="#DejaVuSans-6f" x="1720.759766"/>
     <use xlink:href="#DejaVuSans-6e" x="1781.941406"/>
     <use xlink:href="#DejaVuSans-73" x="1845.320312"/>
    </g>
   </g>
  </g>
 </g>
 <defs>
  <clipPath id="pac72619c53">
   <rect x="57.6" y="41.472" width="357.12" height="266.112"/>
  </clipPath>
 </defs>
</svg>
