<?xml version="1.0" encoding="utf-8" standalone="no"?>
<!DOCTYPE svg PUBLIC "-//W3C//DTD SVG 1.1//EN"
  "http://www.w3.org/Graphics/SVG/1.1/DTD/svg11.dtd">
<svg height="345.6pt" version="1.1" viewBox="0 0 460.8 345.6" width="460.8pt" xmlns="http://www.w3.org/2000/svg" xmlns:xlink="http://www.w3.org/1999/xlink">
 <metadata>
  <rdf:RDF xmlns:cc="http://creativecommons.org/ns#" xmlns:dc="http://purl.org/dc/elements/1.1/" xmlns:rdf="http://www.w3.org/1999/02/22-rdf-syntax-ns#">
   <cc:Work>
    <dc:type rdf:resource="http://purl.org/dc/dcmitype/StillImage"/>
    <dc:date>2021-12-31T19:52:23.692935</dc:date>
    <dc:format>image/svg+xml</dc:format>
    <dc:creator>
     <cc:Agent>
      <dc:title>Matplotlib v3.4.3, https://matplotlib.org/</dc:title>
     </cc:Agent>
    </dc:creator>
   </cc:Work>
  </rdf:RDF>
 </metadata>
 <defs>
  <style type="text/css">*{stroke-linecap:butt;stroke-linejoin:round;}</style>
 </defs>
 <g id="figure_1">
  <g id="patch_1">
   <path d="M 0 345.6 
L 460.8 345.6 
L 460.8 0 
L 0 0 
z
" style="fill:#ffffff;"/>
  </g>
  <g id="axes_1">
   <g id="patch_2">
    <path d="M 57.6 307.584 
L 414.72 307.584 
L 414.72 41.472 
L 57.6 41.472 
z
" style="fill:#ffffff;"/>
   </g>
   <g id="matplotlib.axis_1">
    <g id="xtick_1">
     <g id="line2d_1">
      <path clip-path="url(#pab13412a26)" d="M 72.201297 307.584 
L 72.201297 41.472 
" style="fill:none;stroke:#cccccc;stroke-linecap:round;stroke-width:0.8;"/>
     </g>
     <g id="text_1">
      <!-- 0 -->
      <g style="fill:#262626;" transform="translate(69.020047 322.182437)scale(0.1 -0.1)">
       <defs>
        <path d="M 2034 4250 
Q 1547 4250 1301 3770 
Q 1056 3291 1056 2328 
Q 1056 1369 1301 889 
Q 1547 409 2034 409 
Q 2525 409 2770 889 
Q 3016 1369 3016 2328 
Q 3016 3291 2770 3770 
Q 2525 4250 2034 4250 
z
M 2034 4750 
Q 2819 4750 3233 4129 
Q 3647 3509 3647 2328 
Q 3647 1150 3233 529 
Q 2819 -91 2034 -91 
Q 1250 -91 836 529 
Q 422 1150 422 2328 
Q 422 3509 836 4129 
Q 1250 4750 2034 4750 
z
" id="DejaVuSans-30" transform="scale(0.015625)"/>
       </defs>
       <use xlink:href="#DejaVuSans-30"/>
      </g>
     </g>
    </g>
    <g id="xtick_2">
     <g id="line2d_2">
      <path clip-path="url(#pab13412a26)" d="M 112.987044 307.584 
L 112.987044 41.472 
" style="fill:none;stroke:#cccccc;stroke-linecap:round;stroke-width:0.8;"/>
     </g>
     <g id="text_2">
      <!-- 25 -->
      <g style="fill:#262626;" transform="translate(106.624544 322.182437)scale(0.1 -0.1)">
       <defs>
        <path d="M 1228 531 
L 3431 531 
L 3431 0 
L 469 0 
L 469 531 
Q 828 903 1448 1529 
Q 2069 2156 2228 2338 
Q 2531 2678 2651 2914 
Q 2772 3150 2772 3378 
Q 2772 3750 2511 3984 
Q 2250 4219 1831 4219 
Q 1534 4219 1204 4116 
Q 875 4013 500 3803 
L 500 4441 
Q 881 4594 1212 4672 
Q 1544 4750 1819 4750 
Q 2544 4750 2975 4387 
Q 3406 4025 3406 3419 
Q 3406 3131 3298 2873 
Q 3191 2616 2906 2266 
Q 2828 2175 2409 1742 
Q 1991 1309 1228 531 
z
" id="DejaVuSans-32" transform="scale(0.015625)"/>
        <path d="M 691 4666 
L 3169 4666 
L 3169 4134 
L 1269 4134 
L 1269 2991 
Q 1406 3038 1543 3061 
Q 1681 3084 1819 3084 
Q 2600 3084 3056 2656 
Q 3513 2228 3513 1497 
Q 3513 744 3044 326 
Q 2575 -91 1722 -91 
Q 1428 -91 1123 -41 
Q 819 9 494 109 
L 494 744 
Q 775 591 1075 516 
Q 1375 441 1709 441 
Q 2250 441 2565 725 
Q 2881 1009 2881 1497 
Q 2881 1984 2565 2268 
Q 2250 2553 1709 2553 
Q 1456 2553 1204 2497 
Q 953 2441 691 2322 
L 691 4666 
z
" id="DejaVuSans-35" transform="scale(0.015625)"/>
       </defs>
       <use xlink:href="#DejaVuSans-32"/>
       <use x="63.623047" xlink:href="#DejaVuSans-35"/>
      </g>
     </g>
    </g>
    <g id="xtick_3">
     <g id="line2d_3">
      <path clip-path="url(#pab13412a26)" d="M 153.772791 307.584 
L 153.772791 41.472 
" style="fill:none;stroke:#cccccc;stroke-linecap:round;stroke-width:0.8;"/>
     </g>
     <g id="text_3">
      <!-- 50 -->
      <g style="fill:#262626;" transform="translate(147.410291 322.182437)scale(0.1 -0.1)">
       <use xlink:href="#DejaVuSans-35"/>
       <use x="63.623047" xlink:href="#DejaVuSans-30"/>
      </g>
     </g>
    </g>
    <g id="xtick_4">
     <g id="line2d_4">
      <path clip-path="url(#pab13412a26)" d="M 194.558538 307.584 
L 194.558538 41.472 
" style="fill:none;stroke:#cccccc;stroke-linecap:round;stroke-width:0.8;"/>
     </g>
     <g id="text_4">
      <!-- 75 -->
      <g style="fill:#262626;" transform="translate(188.196038 322.182437)scale(0.1 -0.1)">
       <defs>
        <path d="M 525 4666 
L 3525 4666 
L 3525 4397 
L 1831 0 
L 1172 0 
L 2766 4134 
L 525 4134 
L 525 4666 
z
" id="DejaVuSans-37" transform="scale(0.015625)"/>
       </defs>
       <use xlink:href="#DejaVuSans-37"/>
       <use x="63.623047" xlink:href="#DejaVuSans-35"/>
      </g>
     </g>
    </g>
    <g id="xtick_5">
     <g id="line2d_5">
      <path clip-path="url(#pab13412a26)" d="M 235.344285 307.584 
L 235.344285 41.472 
" style="fill:none;stroke:#cccccc;stroke-linecap:round;stroke-width:0.8;"/>
     </g>
     <g id="text_5">
      <!-- 100 -->
      <g style="fill:#262626;" transform="translate(225.800535 322.182437)scale(0.1 -0.1)">
       <defs>
        <path d="M 794 531 
L 1825 531 
L 1825 4091 
L 703 3866 
L 703 4441 
L 1819 4666 
L 2450 4666 
L 2450 531 
L 3481 531 
L 3481 0 
L 794 0 
L 794 531 
z
" id="DejaVuSans-31" transform="scale(0.015625)"/>
       </defs>
       <use xlink:href="#DejaVuSans-31"/>
       <use x="63.623047" xlink:href="#DejaVuSans-30"/>
       <use x="127.246094" xlink:href="#DejaVuSans-30"/>
      </g>
     </g>
    </g>
    <g id="xtick_6">
     <g id="line2d_6">
      <path clip-path="url(#pab13412a26)" d="M 276.130032 307.584 
L 276.130032 41.472 
" style="fill:none;stroke:#cccccc;stroke-linecap:round;stroke-width:0.8;"/>
     </g>
     <g id="text_6">
      <!-- 125 -->
      <g style="fill:#262626;" transform="translate(266.586282 322.182437)scale(0.1 -0.1)">
       <use xlink:href="#DejaVuSans-31"/>
       <use x="63.623047" xlink:href="#DejaVuSans-32"/>
       <use x="127.246094" xlink:href="#DejaVuSans-35"/>
      </g>
     </g>
    </g>
    <g id="xtick_7">
     <g id="line2d_7">
      <path clip-path="url(#pab13412a26)" d="M 316.915779 307.584 
L 316.915779 41.472 
" style="fill:none;stroke:#cccccc;stroke-linecap:round;stroke-width:0.8;"/>
     </g>
     <g id="text_7">
      <!-- 150 -->
      <g style="fill:#262626;" transform="translate(307.372029 322.182437)scale(0.1 -0.1)">
       <use xlink:href="#DejaVuSans-31"/>
       <use x="63.623047" xlink:href="#DejaVuSans-35"/>
       <use x="127.246094" xlink:href="#DejaVuSans-30"/>
      </g>
     </g>
    </g>
    <g id="xtick_8">
     <g id="line2d_8">
      <path clip-path="url(#pab13412a26)" d="M 357.701526 307.584 
L 357.701526 41.472 
" style="fill:none;stroke:#cccccc;stroke-linecap:round;stroke-width:0.8;"/>
     </g>
     <g id="text_8">
      <!-- 175 -->
      <g style="fill:#262626;" transform="translate(348.157776 322.182437)scale(0.1 -0.1)">
       <use xlink:href="#DejaVuSans-31"/>
       <use x="63.623047" xlink:href="#DejaVuSans-37"/>
       <use x="127.246094" xlink:href="#DejaVuSans-35"/>
      </g>
     </g>
    </g>
    <g id="xtick_9">
     <g id="line2d_9">
      <path clip-path="url(#pab13412a26)" d="M 398.487273 307.584 
L 398.487273 41.472 
" style="fill:none;stroke:#cccccc;stroke-linecap:round;stroke-width:0.8;"/>
     </g>
     <g id="text_9">
      <!-- 200 -->
      <g style="fill:#262626;" transform="translate(388.943523 322.182437)scale(0.1 -0.1)">
       <use xlink:href="#DejaVuSans-32"/>
       <use x="63.623047" xlink:href="#DejaVuSans-30"/>
       <use x="127.246094" xlink:href="#DejaVuSans-30"/>
      </g>
     </g>
    </g>
    <g id="text_10">
     <!-- Auroc -->
     <g style="fill:#262626;" transform="translate(221.819375 335.860562)scale(0.1 -0.1)">
      <defs>
       <path d="M 2188 4044 
L 1331 1722 
L 3047 1722 
L 2188 4044 
z
M 1831 4666 
L 2547 4666 
L 4325 0 
L 3669 0 
L 3244 1197 
L 1141 1197 
L 716 0 
L 50 0 
L 1831 4666 
z
" id="DejaVuSans-41" transform="scale(0.015625)"/>
       <path d="M 544 1381 
L 544 3500 
L 1119 3500 
L 1119 1403 
Q 1119 906 1312 657 
Q 1506 409 1894 409 
Q 2359 409 2629 706 
Q 2900 1003 2900 1516 
L 2900 3500 
L 3475 3500 
L 3475 0 
L 2900 0 
L 2900 538 
Q 2691 219 2414 64 
Q 2138 -91 1772 -91 
Q 1169 -91 856 284 
Q 544 659 544 1381 
z
M 1991 3584 
L 1991 3584 
z
" id="DejaVuSans-75" transform="scale(0.015625)"/>
       <path d="M 2631 2963 
Q 2534 3019 2420 3045 
Q 2306 3072 2169 3072 
Q 1681 3072 1420 2755 
Q 1159 2438 1159 1844 
L 1159 0 
L 581 0 
L 581 3500 
L 1159 3500 
L 1159 2956 
Q 1341 3275 1631 3429 
Q 1922 3584 2338 3584 
Q 2397 3584 2469 3576 
Q 2541 3569 2628 3553 
L 2631 2963 
z
" id="DejaVuSans-72" transform="scale(0.015625)"/>
       <path d="M 1959 3097 
Q 1497 3097 1228 2736 
Q 959 2375 959 1747 
Q 959 1119 1226 758 
Q 1494 397 1959 397 
Q 2419 397 2687 759 
Q 2956 1122 2956 1747 
Q 2956 2369 2687 2733 
Q 2419 3097 1959 3097 
z
M 1959 3584 
Q 2709 3584 3137 3096 
Q 3566 2609 3566 1747 
Q 3566 888 3137 398 
Q 2709 -91 1959 -91 
Q 1206 -91 779 398 
Q 353 888 353 1747 
Q 353 2609 779 3096 
Q 1206 3584 1959 3584 
z
" id="DejaVuSans-6f" transform="scale(0.015625)"/>
       <path d="M 3122 3366 
L 3122 2828 
Q 2878 2963 2633 3030 
Q 2388 3097 2138 3097 
Q 1578 3097 1268 2742 
Q 959 2388 959 1747 
Q 959 1106 1268 751 
Q 1578 397 2138 397 
Q 2388 397 2633 464 
Q 2878 531 3122 666 
L 3122 134 
Q 2881 22 2623 -34 
Q 2366 -91 2075 -91 
Q 1284 -91 818 406 
Q 353 903 353 1747 
Q 353 2603 823 3093 
Q 1294 3584 2113 3584 
Q 2378 3584 2631 3529 
Q 2884 3475 3122 3366 
z
" id="DejaVuSans-63" transform="scale(0.015625)"/>
      </defs>
      <use xlink:href="#DejaVuSans-41"/>
      <use x="68.408203" xlink:href="#DejaVuSans-75"/>
      <use x="131.787109" xlink:href="#DejaVuSans-72"/>
      <use x="170.650391" xlink:href="#DejaVuSans-6f"/>
      <use x="231.832031" xlink:href="#DejaVuSans-63"/>
     </g>
    </g>
   </g>
   <g id="matplotlib.axis_2">
    <g id="ytick_1">
     <g id="line2d_10">
      <path clip-path="url(#pab13412a26)" d="M 57.6 303.966912 
L 414.72 303.966912 
" style="fill:none;stroke:#cccccc;stroke-linecap:round;stroke-width:0.8;"/>
     </g>
     <g id="text_11">
      <!-- 0.475 -->
      <g style="fill:#262626;" transform="translate(21.971875 307.766131)scale(0.1 -0.1)">
       <defs>
        <path d="M 684 794 
L 1344 794 
L 1344 0 
L 684 0 
L 684 794 
z
" id="DejaVuSans-2e" transform="scale(0.015625)"/>
        <path d="M 2419 4116 
L 825 1625 
L 2419 1625 
L 2419 4116 
z
M 2253 4666 
L 3047 4666 
L 3047 1625 
L 3713 1625 
L 3713 1100 
L 3047 1100 
L 3047 0 
L 2419 0 
L 2419 1100 
L 313 1100 
L 313 1709 
L 2253 4666 
z
" id="DejaVuSans-34" transform="scale(0.015625)"/>
       </defs>
       <use xlink:href="#DejaVuSans-30"/>
       <use x="63.623047" xlink:href="#DejaVuSans-2e"/>
       <use x="95.410156" xlink:href="#DejaVuSans-34"/>
       <use x="159.033203" xlink:href="#DejaVuSans-37"/>
       <use x="222.65625" xlink:href="#DejaVuSans-35"/>
      </g>
     </g>
    </g>
    <g id="ytick_2">
     <g id="line2d_11">
      <path clip-path="url(#pab13412a26)" d="M 57.6 274.040759 
L 414.72 274.040759 
" style="fill:none;stroke:#cccccc;stroke-linecap:round;stroke-width:0.8;"/>
     </g>
     <g id="text_12">
      <!-- 0.500 -->
      <g style="fill:#262626;" transform="translate(21.971875 277.839978)scale(0.1 -0.1)">
       <use xlink:href="#DejaVuSans-30"/>
       <use x="63.623047" xlink:href="#DejaVuSans-2e"/>
       <use x="95.410156" xlink:href="#DejaVuSans-35"/>
       <use x="159.033203" xlink:href="#DejaVuSans-30"/>
       <use x="222.65625" xlink:href="#DejaVuSans-30"/>
      </g>
     </g>
    </g>
    <g id="ytick_3">
     <g id="line2d_12">
      <path clip-path="url(#pab13412a26)" d="M 57.6 244.114606 
L 414.72 244.114606 
" style="fill:none;stroke:#cccccc;stroke-linecap:round;stroke-width:0.8;"/>
     </g>
     <g id="text_13">
      <!-- 0.525 -->
      <g style="fill:#262626;" transform="translate(21.971875 247.913825)scale(0.1 -0.1)">
       <use xlink:href="#DejaVuSans-30"/>
       <use x="63.623047" xlink:href="#DejaVuSans-2e"/>
       <use x="95.410156" xlink:href="#DejaVuSans-35"/>
       <use x="159.033203" xlink:href="#DejaVuSans-32"/>
       <use x="222.65625" xlink:href="#DejaVuSans-35"/>
      </g>
     </g>
    </g>
    <g id="ytick_4">
     <g id="line2d_13">
      <path clip-path="url(#pab13412a26)" d="M 57.6 214.188453 
L 414.72 214.188453 
" style="fill:none;stroke:#cccccc;stroke-linecap:round;stroke-width:0.8;"/>
     </g>
     <g id="text_14">
      <!-- 0.550 -->
      <g style="fill:#262626;" transform="translate(21.971875 217.987672)scale(0.1 -0.1)">
       <use xlink:href="#DejaVuSans-30"/>
       <use x="63.623047" xlink:href="#DejaVuSans-2e"/>
       <use x="95.410156" xlink:href="#DejaVuSans-35"/>
       <use x="159.033203" xlink:href="#DejaVuSans-35"/>
       <use x="222.65625" xlink:href="#DejaVuSans-30"/>
      </g>
     </g>
    </g>
    <g id="ytick_5">
     <g id="line2d_14">
      <path clip-path="url(#pab13412a26)" d="M 57.6 184.2623 
L 414.72 184.2623 
" style="fill:none;stroke:#cccccc;stroke-linecap:round;stroke-width:0.8;"/>
     </g>
     <g id="text_15">
      <!-- 0.575 -->
      <g style="fill:#262626;" transform="translate(21.971875 188.061519)scale(0.1 -0.1)">
       <use xlink:href="#DejaVuSans-30"/>
       <use x="63.623047" xlink:href="#DejaVuSans-2e"/>
       <use x="95.410156" xlink:href="#DejaVuSans-35"/>
       <use x="159.033203" xlink:href="#DejaVuSans-37"/>
       <use x="222.65625" xlink:href="#DejaVuSans-35"/>
      </g>
     </g>
    </g>
    <g id="ytick_6">
     <g id="line2d_15">
      <path clip-path="url(#pab13412a26)" d="M 57.6 154.336147 
L 414.72 154.336147 
" style="fill:none;stroke:#cccccc;stroke-linecap:round;stroke-width:0.8;"/>
     </g>
     <g id="text_16">
      <!-- 0.600 -->
      <g style="fill:#262626;" transform="translate(21.971875 158.135366)scale(0.1 -0.1)">
       <defs>
        <path d="M 2113 2584 
Q 1688 2584 1439 2293 
Q 1191 2003 1191 1497 
Q 1191 994 1439 701 
Q 1688 409 2113 409 
Q 2538 409 2786 701 
Q 3034 994 3034 1497 
Q 3034 2003 2786 2293 
Q 2538 2584 2113 2584 
z
M 3366 4563 
L 3366 3988 
Q 3128 4100 2886 4159 
Q 2644 4219 2406 4219 
Q 1781 4219 1451 3797 
Q 1122 3375 1075 2522 
Q 1259 2794 1537 2939 
Q 1816 3084 2150 3084 
Q 2853 3084 3261 2657 
Q 3669 2231 3669 1497 
Q 3669 778 3244 343 
Q 2819 -91 2113 -91 
Q 1303 -91 875 529 
Q 447 1150 447 2328 
Q 447 3434 972 4092 
Q 1497 4750 2381 4750 
Q 2619 4750 2861 4703 
Q 3103 4656 3366 4563 
z
" id="DejaVuSans-36" transform="scale(0.015625)"/>
       </defs>
       <use xlink:href="#DejaVuSans-30"/>
       <use x="63.623047" xlink:href="#DejaVuSans-2e"/>
       <use x="95.410156" xlink:href="#DejaVuSans-36"/>
       <use x="159.033203" xlink:href="#DejaVuSans-30"/>
       <use x="222.65625" xlink:href="#DejaVuSans-30"/>
      </g>
     </g>
    </g>
    <g id="ytick_7">
     <g id="line2d_16">
      <path clip-path="url(#pab13412a26)" d="M 57.6 124.409994 
L 414.72 124.409994 
" style="fill:none;stroke:#cccccc;stroke-linecap:round;stroke-width:0.8;"/>
     </g>
     <g id="text_17">
      <!-- 0.625 -->
      <g style="fill:#262626;" transform="translate(21.971875 128.209213)scale(0.1 -0.1)">
       <use xlink:href="#DejaVuSans-30"/>
       <use x="63.623047" xlink:href="#DejaVuSans-2e"/>
       <use x="95.410156" xlink:href="#DejaVuSans-36"/>
       <use x="159.033203" xlink:href="#DejaVuSans-32"/>
       <use x="222.65625" xlink:href="#DejaVuSans-35"/>
      </g>
     </g>
    </g>
    <g id="ytick_8">
     <g id="line2d_17">
      <path clip-path="url(#pab13412a26)" d="M 57.6 94.483841 
L 414.72 94.483841 
" style="fill:none;stroke:#cccccc;stroke-linecap:round;stroke-width:0.8;"/>
     </g>
     <g id="text_18">
      <!-- 0.650 -->
      <g style="fill:#262626;" transform="translate(21.971875 98.28306)scale(0.1 -0.1)">
       <use xlink:href="#DejaVuSans-30"/>
       <use x="63.623047" xlink:href="#DejaVuSans-2e"/>
       <use x="95.410156" xlink:href="#DejaVuSans-36"/>
       <use x="159.033203" xlink:href="#DejaVuSans-35"/>
       <use x="222.65625" xlink:href="#DejaVuSans-30"/>
      </g>
     </g>
    </g>
    <g id="ytick_9">
     <g id="line2d_18">
      <path clip-path="url(#pab13412a26)" d="M 57.6 64.557689 
L 414.72 64.557689 
" style="fill:none;stroke:#cccccc;stroke-linecap:round;stroke-width:0.8;"/>
     </g>
     <g id="text_19">
      <!-- 0.675 -->
      <g style="fill:#262626;" transform="translate(21.971875 68.356907)scale(0.1 -0.1)">
       <use xlink:href="#DejaVuSans-30"/>
       <use x="63.623047" xlink:href="#DejaVuSans-2e"/>
       <use x="95.410156" xlink:href="#DejaVuSans-36"/>
       <use x="159.033203" xlink:href="#DejaVuSans-37"/>
       <use x="222.65625" xlink:href="#DejaVuSans-35"/>
      </g>
     </g>
    </g>
    <g id="text_20">
     <!-- Iteration -->
     <g style="fill:#262626;" transform="translate(15.892187 195.736594)rotate(-90)scale(0.1 -0.1)">
      <defs>
       <path d="M 628 4666 
L 1259 4666 
L 1259 0 
L 628 0 
L 628 4666 
z
" id="DejaVuSans-49" transform="scale(0.015625)"/>
       <path d="M 1172 4494 
L 1172 3500 
L 2356 3500 
L 2356 3053 
L 1172 3053 
L 1172 1153 
Q 1172 725 1289 603 
Q 1406 481 1766 481 
L 2356 481 
L 2356 0 
L 1766 0 
Q 1100 0 847 248 
Q 594 497 594 1153 
L 594 3053 
L 172 3053 
L 172 3500 
L 594 3500 
L 594 4494 
L 1172 4494 
z
" id="DejaVuSans-74" transform="scale(0.015625)"/>
       <path d="M 3597 1894 
L 3597 1613 
L 953 1613 
Q 991 1019 1311 708 
Q 1631 397 2203 397 
Q 2534 397 2845 478 
Q 3156 559 3463 722 
L 3463 178 
Q 3153 47 2828 -22 
Q 2503 -91 2169 -91 
Q 1331 -91 842 396 
Q 353 884 353 1716 
Q 353 2575 817 3079 
Q 1281 3584 2069 3584 
Q 2775 3584 3186 3129 
Q 3597 2675 3597 1894 
z
M 3022 2063 
Q 3016 2534 2758 2815 
Q 2500 3097 2075 3097 
Q 1594 3097 1305 2825 
Q 1016 2553 972 2059 
L 3022 2063 
z
" id="DejaVuSans-65" transform="scale(0.015625)"/>
       <path d="M 2194 1759 
Q 1497 1759 1228 1600 
Q 959 1441 959 1056 
Q 959 750 1161 570 
Q 1363 391 1709 391 
Q 2188 391 2477 730 
Q 2766 1069 2766 1631 
L 2766 1759 
L 2194 1759 
z
M 3341 1997 
L 3341 0 
L 2766 0 
L 2766 531 
Q 2569 213 2275 61 
Q 1981 -91 1556 -91 
Q 1019 -91 701 211 
Q 384 513 384 1019 
Q 384 1609 779 1909 
Q 1175 2209 1959 2209 
L 2766 2209 
L 2766 2266 
Q 2766 2663 2505 2880 
Q 2244 3097 1772 3097 
Q 1472 3097 1187 3025 
Q 903 2953 641 2809 
L 641 3341 
Q 956 3463 1253 3523 
Q 1550 3584 1831 3584 
Q 2591 3584 2966 3190 
Q 3341 2797 3341 1997 
z
" id="DejaVuSans-61" transform="scale(0.015625)"/>
       <path d="M 603 3500 
L 1178 3500 
L 1178 0 
L 603 0 
L 603 3500 
z
M 603 4863 
L 1178 4863 
L 1178 4134 
L 603 4134 
L 603 4863 
z
" id="DejaVuSans-69" transform="scale(0.015625)"/>
       <path d="M 3513 2113 
L 3513 0 
L 2938 0 
L 2938 2094 
Q 2938 2591 2744 2837 
Q 2550 3084 2163 3084 
Q 1697 3084 1428 2787 
Q 1159 2491 1159 1978 
L 1159 0 
L 581 0 
L 581 3500 
L 1159 3500 
L 1159 2956 
Q 1366 3272 1645 3428 
Q 1925 3584 2291 3584 
Q 2894 3584 3203 3211 
Q 3513 2838 3513 2113 
z
" id="DejaVuSans-6e" transform="scale(0.015625)"/>
      </defs>
      <use xlink:href="#DejaVuSans-49"/>
      <use x="29.492188" xlink:href="#DejaVuSans-74"/>
      <use x="68.701172" xlink:href="#DejaVuSans-65"/>
      <use x="130.224609" xlink:href="#DejaVuSans-72"/>
      <use x="171.337891" xlink:href="#DejaVuSans-61"/>
      <use x="232.617188" xlink:href="#DejaVuSans-74"/>
      <use x="271.826172" xlink:href="#DejaVuSans-69"/>
      <use x="299.609375" xlink:href="#DejaVuSans-6f"/>
      <use x="360.791016" xlink:href="#DejaVuSans-6e"/>
     </g>
    </g>
   </g>
   <g id="PolyCollection_1">
    <defs>
     <path d="M 73.832727 -214.032473 
L 73.832727 -140.885158 
L 75.464157 -159.240414 
L 77.095587 -158.05279 
L 78.727017 -96.487866 
L 80.358447 -145.649401 
L 81.989877 -129.901054 
L 83.621307 -112.095272 
L 85.252736 -99.482327 
L 86.884166 -140.274313 
L 88.515596 -161.193427 
L 90.147026 -158.587416 
L 91.778456 -123.185843 
L 93.409886 -104.185455 
L 95.041316 -87.917341 
L 96.672746 -114.27575 
L 98.304175 -123.059718 
L 99.935605 -154.284129 
L 101.567035 -102.063175 
L 103.198465 -93.230514 
L 104.829895 -124.960266 
L 106.461325 -104.949988 
L 108.092755 -130.430025 
L 109.724185 -134.663944 
L 111.355614 -155.686118 
L 112.987044 -110.304175 
L 114.618474 -114.028416 
L 116.249904 -104.858905 
L 117.881334 -117.037086 
L 119.512764 -82.08448 
L 121.144194 -157.967272 
L 122.775624 -144.652006 
L 124.407053 -136.278112 
L 126.038483 -161.871793 
L 127.669913 -130.828306 
L 129.301343 -102.460751 
L 130.932773 -113.528611 
L 132.564203 -52.053933 
L 134.195633 -96.560783 
L 135.827063 -155.911109 
L 137.458492 -101.193813 
L 139.089922 -131.451655 
L 140.721352 -123.151485 
L 142.352782 -113.974314 
L 143.984212 -147.713012 
L 145.615642 -64.012495 
L 147.247072 -141.57553 
L 148.878502 -110.511308 
L 150.509931 -102.864928 
L 152.141361 -160.611233 
L 153.772791 -96.928892 
L 155.404221 -96.093275 
L 157.035651 -180.514416 
L 158.667081 -159.490526 
L 160.298511 -91.634358 
L 161.929941 -142.194384 
L 163.56137 -159.279797 
L 165.1928 -140.556774 
L 166.82423 -171.347202 
L 168.45566 -122.13655 
L 170.08709 -92.316014 
L 171.71852 -103.50195 
L 173.34995 -130.554517 
L 174.98138 -138.180251 
L 176.61281 -89.634869 
L 178.244239 -131.285171 
L 179.875669 -120.230818 
L 181.507099 -130.56027 
L 183.138529 -126.500173 
L 184.769959 -122.75408 
L 186.401389 -130.98127 
L 188.032819 -125.319924 
L 189.664249 -97.104573 
L 191.295678 -122.823304 
L 192.927108 -121.933305 
L 194.558538 -134.469299 
L 196.189968 -121.846167 
L 197.821398 -134.187621 
L 199.452828 -162.219305 
L 201.084258 -130.913012 
L 202.715688 -97.33026 
L 204.347117 -165.471414 
L 205.978547 -73.985358 
L 207.609977 -102.665121 
L 209.241407 -75.347924 
L 210.872837 -95.049846 
L 212.504267 -137.376026 
L 214.135697 -152.356714 
L 215.767127 -98.801745 
L 217.398556 -74.542843 
L 219.029986 -76.862891 
L 220.661416 -107.423142 
L 222.292846 -124.878962 
L 223.924276 -153.716726 
L 225.555706 -131.049051 
L 227.187136 -80.404982 
L 228.818566 -123.484859 
L 230.449995 -85.895178 
L 232.081425 -157.554525 
L 233.712855 -140.730993 
L 235.344285 -115.543135 
L 236.975715 -85.996587 
L 238.607145 -136.305909 
L 240.238575 -88.176635 
L 241.870005 -145.776379 
L 243.501434 -134.3342 
L 245.132864 -97.2693 
L 246.764294 -106.576514 
L 248.395724 -148.940769 
L 250.027154 -161.712807 
L 251.658584 -123.80648 
L 253.290014 -143.658497 
L 254.921444 -111.730824 
L 256.552873 -140.063536 
L 258.184303 -139.682952 
L 259.815733 -119.549353 
L 261.447163 -129.05336 
L 263.078593 -129.534351 
L 264.710023 -118.166148 
L 266.341453 -147.965314 
L 267.972883 -132.334069 
L 269.604312 -82.134247 
L 271.235742 -107.938027 
L 272.867172 -87.493741 
L 274.498602 -177.327358 
L 276.130032 -91.055967 
L 277.761462 -147.203804 
L 279.392892 -124.559187 
L 281.024322 -124.117308 
L 282.655751 -123.83369 
L 284.287181 -130.802481 
L 285.918611 -187.980779 
L 287.550041 -112.356137 
L 289.181471 -80.455993 
L 290.812901 -69.864833 
L 292.444331 -91.089854 
L 294.075761 -129.410457 
L 295.70719 -121.792319 
L 297.33862 -149.94723 
L 298.97005 -162.001906 
L 300.60148 -141.581899 
L 302.23291 -186.546668 
L 303.86434 -97.453876 
L 305.49577 -50.112 
L 307.1272 -108.514229 
L 308.75863 -141.365477 
L 310.390059 -140.149145 
L 312.021489 -108.535502 
L 313.652919 -96.323647 
L 315.284349 -133.612233 
L 316.915779 -128.737357 
L 318.547209 -147.932801 
L 320.178639 -154.375925 
L 321.810069 -138.34839 
L 323.441498 -158.869774 
L 325.072928 -158.041436 
L 326.704358 -128.190329 
L 328.335788 -114.288048 
L 329.967218 -104.164901 
L 331.598648 -93.738532 
L 333.230078 -116.022104 
L 334.861508 -79.872387 
L 336.492937 -129.203879 
L 338.124367 -128.407644 
L 339.755797 -112.863828 
L 341.387227 -158.640096 
L 343.018657 -146.406781 
L 344.650087 -129.825707 
L 346.281517 -120.507498 
L 347.912947 -149.273928 
L 349.544376 -138.333292 
L 351.175806 -66.846819 
L 352.807236 -140.109119 
L 354.438666 -96.28417 
L 356.070096 -148.635866 
L 357.701526 -79.504261 
L 359.332956 -118.215154 
L 360.964386 -159.178259 
L 362.595815 -106.354719 
L 364.227245 -155.778131 
L 365.858675 -145.068399 
L 367.490105 -64.442769 
L 369.121535 -91.100155 
L 370.752965 -154.571384 
L 372.384395 -157.708488 
L 374.015825 -132.502394 
L 375.647254 -138.633715 
L 377.278684 -134.745506 
L 378.910114 -141.207306 
L 380.541544 -126.397 
L 382.172974 -78.637762 
L 383.804404 -113.027431 
L 385.435834 -82.471216 
L 387.067264 -75.285716 
L 388.698693 -142.458365 
L 390.330123 -135.326595 
L 391.961553 -114.641805 
L 393.592983 -131.861242 
L 395.224413 -83.580638 
L 396.855843 -112.423843 
L 398.487273 -94.785154 
L 398.487273 -224.657836 
L 398.487273 -224.657836 
L 396.855843 -239.956907 
L 395.224413 -269.732611 
L 393.592983 -205.3727 
L 391.961553 -230.693879 
L 390.330123 -232.054552 
L 388.698693 -246.471532 
L 387.067264 -225.825002 
L 385.435834 -215.261525 
L 383.804404 -175.561478 
L 382.172974 -216.48296 
L 380.541544 -225.195918 
L 378.910114 -178.12497 
L 377.278684 -280.437235 
L 375.647254 -181.357021 
L 374.015825 -226.421473 
L 372.384395 -202.540028 
L 370.752965 -226.782428 
L 369.121535 -227.937926 
L 367.490105 -259.393412 
L 365.858675 -224.907976 
L 364.227245 -225.837522 
L 362.595815 -220.412446 
L 360.964386 -232.99078 
L 359.332956 -189.536899 
L 357.701526 -198.153852 
L 356.070096 -236.960383 
L 354.438666 -212.293867 
L 352.807236 -209.144282 
L 351.175806 -254.920477 
L 349.544376 -246.714337 
L 347.912947 -235.108343 
L 346.281517 -241.148577 
L 344.650087 -196.045198 
L 343.018657 -223.159491 
L 341.387227 -263.794591 
L 339.755797 -264.026993 
L 338.124367 -213.238316 
L 336.492937 -270.422739 
L 334.861508 -227.161362 
L 333.230078 -200.384758 
L 331.598648 -269.724233 
L 329.967218 -224.924658 
L 328.335788 -240.532584 
L 326.704358 -255.662649 
L 325.072928 -224.323524 
L 323.441498 -233.805453 
L 321.810069 -192.689243 
L 320.178639 -229.755954 
L 318.547209 -237.145083 
L 316.915779 -204.576873 
L 315.284349 -211.958716 
L 313.652919 -217.371953 
L 312.021489 -244.312328 
L 310.390059 -252.457343 
L 308.75863 -227.550938 
L 307.1272 -196.33258 
L 305.49577 -204.229378 
L 303.86434 -215.293627 
L 302.23291 -244.272487 
L 300.60148 -219.167568 
L 298.97005 -241.002205 
L 297.33862 -230.588307 
L 295.70719 -249.487219 
L 294.075761 -251.51162 
L 292.444331 -213.368739 
L 290.812901 -191.138466 
L 289.181471 -251.140483 
L 287.550041 -222.837678 
L 285.918611 -258.092656 
L 284.287181 -206.817086 
L 282.655751 -216.383059 
L 281.024322 -228.585191 
L 279.392892 -233.30044 
L 277.761462 -224.880439 
L 276.130032 -177.839922 
L 274.498602 -253.959833 
L 272.867172 -254.305571 
L 271.235742 -265.134528 
L 269.604312 -219.205766 
L 267.972883 -216.37038 
L 266.341453 -292.032 
L 264.710023 -206.269604 
L 263.078593 -223.676953 
L 261.447163 -204.32458 
L 259.815733 -185.987486 
L 258.184303 -214.439074 
L 256.552873 -224.868377 
L 254.921444 -223.226894 
L 253.290014 -206.14506 
L 251.658584 -263.556937 
L 250.027154 -251.881511 
L 248.395724 -224.969032 
L 246.764294 -249.253625 
L 245.132864 -228.044633 
L 243.501434 -206.14063 
L 241.870005 -247.091474 
L 240.238575 -245.799421 
L 238.607145 -241.786131 
L 236.975715 -222.106472 
L 235.344285 -238.805887 
L 233.712855 -186.826705 
L 232.081425 -207.554346 
L 230.449995 -199.403221 
L 228.818566 -240.231291 
L 227.187136 -179.933249 
L 225.555706 -223.747768 
L 223.924276 -241.624587 
L 222.292846 -236.850381 
L 220.661416 -209.453127 
L 219.029986 -231.009642 
L 217.398556 -205.386021 
L 215.767127 -230.212634 
L 214.135697 -260.225229 
L 212.504267 -250.125699 
L 210.872837 -175.06642 
L 209.241407 -216.693616 
L 207.609977 -260.260827 
L 205.978547 -211.561232 
L 204.347117 -263.877054 
L 202.715688 -195.453937 
L 201.084258 -195.103017 
L 199.452828 -262.62185 
L 197.821398 -235.272883 
L 196.189968 -184.564282 
L 194.558538 -251.496825 
L 192.927108 -230.941414 
L 191.295678 -209.969653 
L 189.664249 -181.371932 
L 188.032819 -238.142758 
L 186.401389 -221.023164 
L 184.769959 -171.765742 
L 183.138529 -195.660769 
L 181.507099 -213.340302 
L 179.875669 -243.468126 
L 178.244239 -219.966964 
L 176.61281 -245.421677 
L 174.98138 -211.789542 
L 173.34995 -245.685866 
L 171.71852 -209.689084 
L 170.08709 -207.857981 
L 168.45566 -211.368934 
L 166.82423 -235.017778 
L 165.1928 -221.376291 
L 163.56137 -244.374462 
L 161.929941 -239.489176 
L 160.298511 -202.362694 
L 158.667081 -236.721031 
L 157.035651 -249.855404 
L 155.404221 -184.945171 
L 153.772791 -242.513365 
L 152.141361 -231.695283 
L 150.509931 -197.495042 
L 148.878502 -212.784441 
L 147.247072 -252.462995 
L 145.615642 -188.403389 
L 143.984212 -225.233287 
L 142.352782 -213.746295 
L 140.721352 -215.518441 
L 139.089922 -182.839068 
L 137.458492 -245.042701 
L 135.827063 -251.92597 
L 134.195633 -181.817851 
L 132.564203 -201.724904 
L 130.932773 -201.537561 
L 129.301343 -221.12242 
L 127.669913 -245.115679 
L 126.038483 -215.819951 
L 124.407053 -190.698593 
L 122.775624 -230.504687 
L 121.144194 -235.547943 
L 119.512764 -201.256952 
L 117.881334 -258.996084 
L 116.249904 -203.6735 
L 114.618474 -247.535481 
L 112.987044 -200.622273 
L 111.355614 -241.224293 
L 109.724185 -190.291751 
L 108.092755 -217.14398 
L 106.461325 -189.151461 
L 104.829895 -182.621437 
L 103.198465 -212.907558 
L 101.567035 -233.989039 
L 99.935605 -213.720069 
L 98.304175 -231.429024 
L 96.672746 -193.674207 
L 95.041316 -248.031183 
L 93.409886 -230.529642 
L 91.778456 -201.993688 
L 90.147026 -236.678759 
L 88.515596 -232.099864 
L 86.884166 -237.482721 
L 85.252736 -224.822556 
L 83.621307 -244.476278 
L 81.989877 -250.227955 
L 80.358447 -249.758573 
L 78.727017 -225.725855 
L 77.095587 -225.979182 
L 75.464157 -198.485269 
L 73.832727 -214.032473 
z
" id="m4989a4a90f" style="stroke:#ffffff;stroke-opacity:0.2;"/>
    </defs>
    <g clip-path="url(#pab13412a26)">
     <use style="fill:#1f77b4;fill-opacity:0.2;stroke:#ffffff;stroke-opacity:0.2;" x="0" xlink:href="#m4989a4a90f" y="345.6"/>
    </g>
   </g>
   <g id="LineCollection_1">
    <path clip-path="url(#pab13412a26)" d="M 398.487273 295.488 
L 398.487273 53.568 
" style="fill:none;stroke:#1f77b4;stroke-dasharray:5.55,2.4;stroke-dashoffset:0;stroke-width:1.5;"/>
   </g>
   <g id="line2d_19">
    <path clip-path="url(#pab13412a26)" d="M 73.832727 168.141185 
L 75.464157 166.737159 
L 77.095587 153.584014 
L 78.727017 184.493139 
L 80.358447 147.896013 
L 81.989877 155.535496 
L 83.621307 167.314225 
L 85.252736 183.447559 
L 86.884166 156.721483 
L 88.515596 148.953355 
L 90.147026 147.966912 
L 91.778456 183.010234 
L 93.409886 178.242451 
L 95.041316 177.625738 
L 96.672746 191.625022 
L 98.304175 168.355629 
L 99.935605 161.597901 
L 103.198465 192.530964 
L 104.829895 191.809148 
L 106.461325 198.549276 
L 108.092755 171.812997 
L 109.724185 183.122152 
L 111.355614 147.144794 
L 112.987044 190.136776 
L 114.618474 164.818052 
L 116.249904 191.333798 
L 117.881334 157.583415 
L 119.512764 203.929284 
L 121.144194 148.842392 
L 122.775624 158.021653 
L 124.407053 182.111648 
L 126.038483 156.754128 
L 127.669913 157.628008 
L 129.301343 183.808415 
L 130.932773 188.066914 
L 132.564203 218.710582 
L 134.195633 206.410683 
L 135.827063 141.68146 
L 137.458492 172.481743 
L 139.089922 188.454638 
L 140.721352 176.265037 
L 142.352782 181.739695 
L 143.984212 159.12685 
L 145.615642 219.392058 
L 147.247072 148.580737 
L 148.878502 183.952125 
L 150.509931 195.420015 
L 152.141361 149.446742 
L 153.772791 175.878871 
L 155.404221 205.080777 
L 157.035651 130.41509 
L 158.667081 147.494221 
L 160.298511 198.601474 
L 161.929941 154.75822 
L 163.56137 143.772871 
L 165.1928 164.633468 
L 166.82423 142.41751 
L 168.45566 178.847258 
L 170.08709 195.513003 
L 171.71852 189.004483 
L 173.34995 157.479808 
L 174.98138 170.615103 
L 176.61281 178.071727 
L 178.244239 169.973933 
L 179.875669 163.750528 
L 181.507099 173.649714 
L 183.138529 184.519529 
L 184.769959 198.340089 
L 186.401389 169.597783 
L 188.032819 163.868659 
L 189.664249 206.361747 
L 191.295678 179.203522 
L 192.927108 169.16264 
L 194.558538 152.616938 
L 196.189968 192.394776 
L 197.821398 160.869748 
L 199.452828 133.179422 
L 201.084258 182.591985 
L 202.715688 199.207901 
L 204.347117 130.925766 
L 205.978547 202.826705 
L 207.609977 164.137026 
L 209.241407 199.57923 
L 210.872837 210.541867 
L 212.504267 151.849138 
L 214.135697 139.309029 
L 215.767127 181.09281 
L 217.398556 205.635568 
L 219.029986 191.663734 
L 220.661416 187.161865 
L 222.292846 164.735329 
L 223.924276 147.929343 
L 225.555706 168.201591 
L 227.187136 215.430884 
L 228.818566 163.741925 
L 230.449995 202.9508 
L 232.081425 163.045564 
L 233.712855 181.821151 
L 235.344285 168.425489 
L 236.975715 191.54847 
L 238.607145 156.55398 
L 240.238575 178.611972 
L 241.870005 149.166074 
L 243.501434 175.362585 
L 245.132864 182.943034 
L 246.764294 167.68493 
L 248.395724 158.645099 
L 250.027154 138.802841 
L 251.658584 151.918292 
L 253.290014 170.698221 
L 254.921444 178.121141 
L 256.552873 163.134043 
L 258.184303 168.538987 
L 259.815733 192.831581 
L 261.447163 178.91103 
L 263.078593 168.994348 
L 264.710023 183.382124 
L 266.341453 125.601343 
L 267.972883 171.247775 
L 269.604312 194.929994 
L 271.235742 159.063722 
L 272.867172 174.700344 
L 274.498602 129.956404 
L 276.130032 211.152056 
L 277.761462 159.557878 
L 279.392892 166.670187 
L 281.024322 169.248751 
L 282.655751 175.491626 
L 284.287181 176.790217 
L 285.918611 122.563283 
L 287.550041 178.003093 
L 289.181471 179.801762 
L 290.812901 215.098351 
L 292.444331 193.370703 
L 294.075761 155.138962 
L 295.70719 159.960231 
L 297.33862 155.332231 
L 298.97005 144.097944 
L 300.60148 165.225267 
L 302.23291 130.190423 
L 303.86434 189.226248 
L 305.49577 218.429311 
L 307.1272 193.176596 
L 308.75863 161.141792 
L 310.390059 149.296756 
L 313.652919 188.7522 
L 315.284349 172.814525 
L 316.915779 178.942885 
L 318.547209 153.061058 
L 320.178639 153.53406 
L 321.810069 180.081183 
L 323.441498 149.262387 
L 325.072928 154.41752 
L 326.704358 153.673511 
L 328.335788 168.189684 
L 329.967218 181.05522 
L 331.598648 163.868618 
L 333.230078 187.396569 
L 334.861508 192.083125 
L 336.492937 145.786691 
L 338.124367 174.77702 
L 339.755797 157.154589 
L 341.387227 134.382657 
L 343.018657 160.816864 
L 344.650087 182.664547 
L 346.281517 164.771963 
L 347.912947 153.408864 
L 349.544376 153.076185 
L 351.175806 184.716352 
L 352.807236 170.9733 
L 354.438666 191.310982 
L 356.070096 152.801876 
L 357.701526 206.770943 
L 359.332956 191.723973 
L 360.964386 149.51548 
L 362.595815 182.216418 
L 364.227245 154.792173 
L 365.858675 160.611812 
L 367.490105 183.681909 
L 369.121535 186.08096 
L 370.752965 154.923094 
L 372.384395 165.475742 
L 374.015825 166.138066 
L 375.647254 185.604632 
L 377.278684 138.00863 
L 378.910114 185.933862 
L 380.541544 169.803541 
L 382.172974 198.039639 
L 383.804404 201.305545 
L 385.435834 196.733629 
L 387.067264 195.044641 
L 388.698693 151.135052 
L 391.961553 172.932158 
L 393.592983 176.983029 
L 395.224413 168.943376 
L 396.855843 169.409625 
L 398.487273 185.878505 
L 398.487273 185.878505 
" style="fill:none;stroke:#1f77b4;stroke-linecap:round;stroke-width:1.5;"/>
   </g>
   <g id="patch_3">
    <path d="M 57.6 307.584 
L 57.6 41.472 
" style="fill:none;stroke:#cccccc;stroke-linecap:square;stroke-linejoin:miter;stroke-width:0.8;"/>
   </g>
   <g id="patch_4">
    <path d="M 414.72 307.584 
L 414.72 41.472 
" style="fill:none;stroke:#cccccc;stroke-linecap:square;stroke-linejoin:miter;stroke-width:0.8;"/>
   </g>
   <g id="patch_5">
    <path d="M 57.6 307.584 
L 414.72 307.584 
" style="fill:none;stroke:#cccccc;stroke-linecap:square;stroke-linejoin:miter;stroke-width:0.8;"/>
   </g>
   <g id="patch_6">
    <path d="M 57.6 41.472 
L 414.72 41.472 
" style="fill:none;stroke:#cccccc;stroke-linecap:square;stroke-linejoin:miter;stroke-width:0.8;"/>
   </g>
   <g id="text_21">
    <!-- Model performance vs. # of iterations -->
    <g style="fill:#262626;" transform="translate(122.314688 35.472)scale(0.12 -0.12)">
     <defs>
      <path d="M 628 4666 
L 1569 4666 
L 2759 1491 
L 3956 4666 
L 4897 4666 
L 4897 0 
L 4281 0 
L 4281 4097 
L 3078 897 
L 2444 897 
L 1241 4097 
L 1241 0 
L 628 0 
L 628 4666 
z
" id="DejaVuSans-4d" transform="scale(0.015625)"/>
      <path d="M 2906 2969 
L 2906 4863 
L 3481 4863 
L 3481 0 
L 2906 0 
L 2906 525 
Q 2725 213 2448 61 
Q 2172 -91 1784 -91 
Q 1150 -91 751 415 
Q 353 922 353 1747 
Q 353 2572 751 3078 
Q 1150 3584 1784 3584 
Q 2172 3584 2448 3432 
Q 2725 3281 2906 2969 
z
M 947 1747 
Q 947 1113 1208 752 
Q 1469 391 1925 391 
Q 2381 391 2643 752 
Q 2906 1113 2906 1747 
Q 2906 2381 2643 2742 
Q 2381 3103 1925 3103 
Q 1469 3103 1208 2742 
Q 947 2381 947 1747 
z
" id="DejaVuSans-64" transform="scale(0.015625)"/>
      <path d="M 603 4863 
L 1178 4863 
L 1178 0 
L 603 0 
L 603 4863 
z
" id="DejaVuSans-6c" transform="scale(0.015625)"/>
      <path id="DejaVuSans-20" transform="scale(0.015625)"/>
      <path d="M 1159 525 
L 1159 -1331 
L 581 -1331 
L 581 3500 
L 1159 3500 
L 1159 2969 
Q 1341 3281 1617 3432 
Q 1894 3584 2278 3584 
Q 2916 3584 3314 3078 
Q 3713 2572 3713 1747 
Q 3713 922 3314 415 
Q 2916 -91 2278 -91 
Q 1894 -91 1617 61 
Q 1341 213 1159 525 
z
M 3116 1747 
Q 3116 2381 2855 2742 
Q 2594 3103 2138 3103 
Q 1681 3103 1420 2742 
Q 1159 2381 1159 1747 
Q 1159 1113 1420 752 
Q 1681 391 2138 391 
Q 2594 391 2855 752 
Q 3116 1113 3116 1747 
z
" id="DejaVuSans-70" transform="scale(0.015625)"/>
      <path d="M 2375 4863 
L 2375 4384 
L 1825 4384 
Q 1516 4384 1395 4259 
Q 1275 4134 1275 3809 
L 1275 3500 
L 2222 3500 
L 2222 3053 
L 1275 3053 
L 1275 0 
L 697 0 
L 697 3053 
L 147 3053 
L 147 3500 
L 697 3500 
L 697 3744 
Q 697 4328 969 4595 
Q 1241 4863 1831 4863 
L 2375 4863 
z
" id="DejaVuSans-66" transform="scale(0.015625)"/>
      <path d="M 3328 2828 
Q 3544 3216 3844 3400 
Q 4144 3584 4550 3584 
Q 5097 3584 5394 3201 
Q 5691 2819 5691 2113 
L 5691 0 
L 5113 0 
L 5113 2094 
Q 5113 2597 4934 2840 
Q 4756 3084 4391 3084 
Q 3944 3084 3684 2787 
Q 3425 2491 3425 1978 
L 3425 0 
L 2847 0 
L 2847 2094 
Q 2847 2600 2669 2842 
Q 2491 3084 2119 3084 
Q 1678 3084 1418 2786 
Q 1159 2488 1159 1978 
L 1159 0 
L 581 0 
L 581 3500 
L 1159 3500 
L 1159 2956 
Q 1356 3278 1631 3431 
Q 1906 3584 2284 3584 
Q 2666 3584 2933 3390 
Q 3200 3197 3328 2828 
z
" id="DejaVuSans-6d" transform="scale(0.015625)"/>
      <path d="M 191 3500 
L 800 3500 
L 1894 563 
L 2988 3500 
L 3597 3500 
L 2284 0 
L 1503 0 
L 191 3500 
z
" id="DejaVuSans-76" transform="scale(0.015625)"/>
      <path d="M 2834 3397 
L 2834 2853 
Q 2591 2978 2328 3040 
Q 2066 3103 1784 3103 
Q 1356 3103 1142 2972 
Q 928 2841 928 2578 
Q 928 2378 1081 2264 
Q 1234 2150 1697 2047 
L 1894 2003 
Q 2506 1872 2764 1633 
Q 3022 1394 3022 966 
Q 3022 478 2636 193 
Q 2250 -91 1575 -91 
Q 1294 -91 989 -36 
Q 684 19 347 128 
L 347 722 
Q 666 556 975 473 
Q 1284 391 1588 391 
Q 1994 391 2212 530 
Q 2431 669 2431 922 
Q 2431 1156 2273 1281 
Q 2116 1406 1581 1522 
L 1381 1569 
Q 847 1681 609 1914 
Q 372 2147 372 2553 
Q 372 3047 722 3315 
Q 1072 3584 1716 3584 
Q 2034 3584 2315 3537 
Q 2597 3491 2834 3397 
z
" id="DejaVuSans-73" transform="scale(0.015625)"/>
      <path d="M 3272 2816 
L 2363 2816 
L 2100 1772 
L 3016 1772 
L 3272 2816 
z
M 2803 4594 
L 2478 3297 
L 3391 3297 
L 3719 4594 
L 4219 4594 
L 3897 3297 
L 4872 3297 
L 4872 2816 
L 3775 2816 
L 3519 1772 
L 4513 1772 
L 4513 1294 
L 3397 1294 
L 3072 0 
L 2572 0 
L 2894 1294 
L 1978 1294 
L 1656 0 
L 1153 0 
L 1478 1294 
L 494 1294 
L 494 1772 
L 1594 1772 
L 1856 2816 
L 850 2816 
L 850 3297 
L 1978 3297 
L 2297 4594 
L 2803 4594 
z
" id="DejaVuSans-23" transform="scale(0.015625)"/>
     </defs>
     <use xlink:href="#DejaVuSans-4d"/>
     <use x="86.279297" xlink:href="#DejaVuSans-6f"/>
     <use x="147.460938" xlink:href="#DejaVuSans-64"/>
     <use x="210.9375" xlink:href="#DejaVuSans-65"/>
     <use x="272.460938" xlink:href="#DejaVuSans-6c"/>
     <use x="300.244141" xlink:href="#DejaVuSans-20"/>
     <use x="332.03125" xlink:href="#DejaVuSans-70"/>
     <use x="395.507812" xlink:href="#DejaVuSans-65"/>
     <use x="457.03125" xlink:href="#DejaVuSans-72"/>
     <use x="498.144531" xlink:href="#DejaVuSans-66"/>
     <use x="533.349609" xlink:href="#DejaVuSans-6f"/>
     <use x="594.53125" xlink:href="#DejaVuSans-72"/>
     <use x="633.894531" xlink:href="#DejaVuSans-6d"/>
     <use x="731.306641" xlink:href="#DejaVuSans-61"/>
     <use x="792.585938" xlink:href="#DejaVuSans-6e"/>
     <use x="855.964844" xlink:href="#DejaVuSans-63"/>
     <use x="910.945312" xlink:href="#DejaVuSans-65"/>
     <use x="972.46875" xlink:href="#DejaVuSans-20"/>
     <use x="1004.255859" xlink:href="#DejaVuSans-76"/>
     <use x="1063.435547" xlink:href="#DejaVuSans-73"/>
     <use x="1115.535156" xlink:href="#DejaVuSans-2e"/>
     <use x="1147.322266" xlink:href="#DejaVuSans-20"/>
     <use x="1179.109375" xlink:href="#DejaVuSans-23"/>
     <use x="1262.898438" xlink:href="#DejaVuSans-20"/>
     <use x="1294.685547" xlink:href="#DejaVuSans-6f"/>
     <use x="1355.867188" xlink:href="#DejaVuSans-66"/>
     <use x="1391.072266" xlink:href="#DejaVuSans-20"/>
     <use x="1422.859375" xlink:href="#DejaVuSans-69"/>
     <use x="1450.642578" xlink:href="#DejaVuSans-74"/>
     <use x="1489.851562" xlink:href="#DejaVuSans-65"/>
     <use x="1551.375" xlink:href="#DejaVuSans-72"/>
     <use x="1592.488281" xlink:href="#DejaVuSans-61"/>
     <use x="1653.767578" xlink:href="#DejaVuSans-74"/>
     <use x="1692.976562" xlink:href="#DejaVuSans-69"/>
     <use x="1720.759766" xlink:href="#DejaVuSans-6f"/>
     <use x="1781.941406" xlink:href="#DejaVuSans-6e"/>
     <use x="1845.320312" xlink:href="#DejaVuSans-73"/>
    </g>
   </g>
  </g>
 </g>
 <defs>
  <clipPath id="pab13412a26">
   <rect height="266.112" width="357.12" x="57.6" y="41.472"/>
  </clipPath>
 </defs>
</svg>
