<?xml version="1.0" encoding="utf-8" standalone="no"?>
<!DOCTYPE svg PUBLIC "-//W3C//DTD SVG 1.1//EN"
  "http://www.w3.org/Graphics/SVG/1.1/DTD/svg11.dtd">
<svg height="345.6pt" version="1.1" viewBox="0 0 460.8 345.6" width="460.8pt" xmlns="http://www.w3.org/2000/svg" xmlns:xlink="http://www.w3.org/1999/xlink">
 <metadata>
  <rdf:RDF xmlns:cc="http://creativecommons.org/ns#" xmlns:dc="http://purl.org/dc/elements/1.1/" xmlns:rdf="http://www.w3.org/1999/02/22-rdf-syntax-ns#">
   <cc:Work>
    <dc:type rdf:resource="http://purl.org/dc/dcmitype/StillImage"/>
    <dc:date>2022-01-15T13:34:57.574134</dc:date>
    <dc:format>image/svg+xml</dc:format>
    <dc:creator>
     <cc:Agent>
      <dc:title>Matplotlib v3.4.3, https://matplotlib.org/</dc:title>
     </cc:Agent>
    </dc:creator>
   </cc:Work>
  </rdf:RDF>
 </metadata>
 <defs>
  <style type="text/css">*{stroke-linecap:butt;stroke-linejoin:round;}</style>
 </defs>
 <g id="figure_1">
  <g id="patch_1">
   <path d="M 0 345.6 
L 460.8 345.6 
L 460.8 0 
L 0 0 
z
" style="fill:#ffffff;"/>
  </g>
  <g id="axes_1">
   <g id="patch_2">
    <path d="M 57.6 307.584 
L 414.72 307.584 
L 414.72 41.472 
L 57.6 41.472 
z
" style="fill:#ffffff;"/>
   </g>
   <g id="matplotlib.axis_1">
    <g id="xtick_1">
     <g id="line2d_1">
      <path clip-path="url(#p8b032c3ac9)" d="M 72.201297 307.584 
L 72.201297 41.472 
" style="fill:none;stroke:#cccccc;stroke-linecap:round;stroke-width:0.8;"/>
     </g>
     <g id="text_1">
      <!-- 0 -->
      <g style="fill:#262626;" transform="translate(69.020047 322.182437)scale(0.1 -0.1)">
       <defs>
        <path d="M 2034 4250 
Q 1547 4250 1301 3770 
Q 1056 3291 1056 2328 
Q 1056 1369 1301 889 
Q 1547 409 2034 409 
Q 2525 409 2770 889 
Q 3016 1369 3016 2328 
Q 3016 3291 2770 3770 
Q 2525 4250 2034 4250 
z
M 2034 4750 
Q 2819 4750 3233 4129 
Q 3647 3509 3647 2328 
Q 3647 1150 3233 529 
Q 2819 -91 2034 -91 
Q 1250 -91 836 529 
Q 422 1150 422 2328 
Q 422 3509 836 4129 
Q 1250 4750 2034 4750 
z
" id="DejaVuSans-30" transform="scale(0.015625)"/>
       </defs>
       <use xlink:href="#DejaVuSans-30"/>
      </g>
     </g>
    </g>
    <g id="xtick_2">
     <g id="line2d_2">
      <path clip-path="url(#p8b032c3ac9)" d="M 112.987044 307.584 
L 112.987044 41.472 
" style="fill:none;stroke:#cccccc;stroke-linecap:round;stroke-width:0.8;"/>
     </g>
     <g id="text_2">
      <!-- 25 -->
      <g style="fill:#262626;" transform="translate(106.624544 322.182437)scale(0.1 -0.1)">
       <defs>
        <path d="M 1228 531 
L 3431 531 
L 3431 0 
L 469 0 
L 469 531 
Q 828 903 1448 1529 
Q 2069 2156 2228 2338 
Q 2531 2678 2651 2914 
Q 2772 3150 2772 3378 
Q 2772 3750 2511 3984 
Q 2250 4219 1831 4219 
Q 1534 4219 1204 4116 
Q 875 4013 500 3803 
L 500 4441 
Q 881 4594 1212 4672 
Q 1544 4750 1819 4750 
Q 2544 4750 2975 4387 
Q 3406 4025 3406 3419 
Q 3406 3131 3298 2873 
Q 3191 2616 2906 2266 
Q 2828 2175 2409 1742 
Q 1991 1309 1228 531 
z
" id="DejaVuSans-32" transform="scale(0.015625)"/>
        <path d="M 691 4666 
L 3169 4666 
L 3169 4134 
L 1269 4134 
L 1269 2991 
Q 1406 3038 1543 3061 
Q 1681 3084 1819 3084 
Q 2600 3084 3056 2656 
Q 3513 2228 3513 1497 
Q 3513 744 3044 326 
Q 2575 -91 1722 -91 
Q 1428 -91 1123 -41 
Q 819 9 494 109 
L 494 744 
Q 775 591 1075 516 
Q 1375 441 1709 441 
Q 2250 441 2565 725 
Q 2881 1009 2881 1497 
Q 2881 1984 2565 2268 
Q 2250 2553 1709 2553 
Q 1456 2553 1204 2497 
Q 953 2441 691 2322 
L 691 4666 
z
" id="DejaVuSans-35" transform="scale(0.015625)"/>
       </defs>
       <use xlink:href="#DejaVuSans-32"/>
       <use x="63.623047" xlink:href="#DejaVuSans-35"/>
      </g>
     </g>
    </g>
    <g id="xtick_3">
     <g id="line2d_3">
      <path clip-path="url(#p8b032c3ac9)" d="M 153.772791 307.584 
L 153.772791 41.472 
" style="fill:none;stroke:#cccccc;stroke-linecap:round;stroke-width:0.8;"/>
     </g>
     <g id="text_3">
      <!-- 50 -->
      <g style="fill:#262626;" transform="translate(147.410291 322.182437)scale(0.1 -0.1)">
       <use xlink:href="#DejaVuSans-35"/>
       <use x="63.623047" xlink:href="#DejaVuSans-30"/>
      </g>
     </g>
    </g>
    <g id="xtick_4">
     <g id="line2d_4">
      <path clip-path="url(#p8b032c3ac9)" d="M 194.558538 307.584 
L 194.558538 41.472 
" style="fill:none;stroke:#cccccc;stroke-linecap:round;stroke-width:0.8;"/>
     </g>
     <g id="text_4">
      <!-- 75 -->
      <g style="fill:#262626;" transform="translate(188.196038 322.182437)scale(0.1 -0.1)">
       <defs>
        <path d="M 525 4666 
L 3525 4666 
L 3525 4397 
L 1831 0 
L 1172 0 
L 2766 4134 
L 525 4134 
L 525 4666 
z
" id="DejaVuSans-37" transform="scale(0.015625)"/>
       </defs>
       <use xlink:href="#DejaVuSans-37"/>
       <use x="63.623047" xlink:href="#DejaVuSans-35"/>
      </g>
     </g>
    </g>
    <g id="xtick_5">
     <g id="line2d_5">
      <path clip-path="url(#p8b032c3ac9)" d="M 235.344285 307.584 
L 235.344285 41.472 
" style="fill:none;stroke:#cccccc;stroke-linecap:round;stroke-width:0.8;"/>
     </g>
     <g id="text_5">
      <!-- 100 -->
      <g style="fill:#262626;" transform="translate(225.800535 322.182437)scale(0.1 -0.1)">
       <defs>
        <path d="M 794 531 
L 1825 531 
L 1825 4091 
L 703 3866 
L 703 4441 
L 1819 4666 
L 2450 4666 
L 2450 531 
L 3481 531 
L 3481 0 
L 794 0 
L 794 531 
z
" id="DejaVuSans-31" transform="scale(0.015625)"/>
       </defs>
       <use xlink:href="#DejaVuSans-31"/>
       <use x="63.623047" xlink:href="#DejaVuSans-30"/>
       <use x="127.246094" xlink:href="#DejaVuSans-30"/>
      </g>
     </g>
    </g>
    <g id="xtick_6">
     <g id="line2d_6">
      <path clip-path="url(#p8b032c3ac9)" d="M 276.130032 307.584 
L 276.130032 41.472 
" style="fill:none;stroke:#cccccc;stroke-linecap:round;stroke-width:0.8;"/>
     </g>
     <g id="text_6">
      <!-- 125 -->
      <g style="fill:#262626;" transform="translate(266.586282 322.182437)scale(0.1 -0.1)">
       <use xlink:href="#DejaVuSans-31"/>
       <use x="63.623047" xlink:href="#DejaVuSans-32"/>
       <use x="127.246094" xlink:href="#DejaVuSans-35"/>
      </g>
     </g>
    </g>
    <g id="xtick_7">
     <g id="line2d_7">
      <path clip-path="url(#p8b032c3ac9)" d="M 316.915779 307.584 
L 316.915779 41.472 
" style="fill:none;stroke:#cccccc;stroke-linecap:round;stroke-width:0.8;"/>
     </g>
     <g id="text_7">
      <!-- 150 -->
      <g style="fill:#262626;" transform="translate(307.372029 322.182437)scale(0.1 -0.1)">
       <use xlink:href="#DejaVuSans-31"/>
       <use x="63.623047" xlink:href="#DejaVuSans-35"/>
       <use x="127.246094" xlink:href="#DejaVuSans-30"/>
      </g>
     </g>
    </g>
    <g id="xtick_8">
     <g id="line2d_8">
      <path clip-path="url(#p8b032c3ac9)" d="M 357.701526 307.584 
L 357.701526 41.472 
" style="fill:none;stroke:#cccccc;stroke-linecap:round;stroke-width:0.8;"/>
     </g>
     <g id="text_8">
      <!-- 175 -->
      <g style="fill:#262626;" transform="translate(348.157776 322.182437)scale(0.1 -0.1)">
       <use xlink:href="#DejaVuSans-31"/>
       <use x="63.623047" xlink:href="#DejaVuSans-37"/>
       <use x="127.246094" xlink:href="#DejaVuSans-35"/>
      </g>
     </g>
    </g>
    <g id="xtick_9">
     <g id="line2d_9">
      <path clip-path="url(#p8b032c3ac9)" d="M 398.487273 307.584 
L 398.487273 41.472 
" style="fill:none;stroke:#cccccc;stroke-linecap:round;stroke-width:0.8;"/>
     </g>
     <g id="text_9">
      <!-- 200 -->
      <g style="fill:#262626;" transform="translate(388.943523 322.182437)scale(0.1 -0.1)">
       <use xlink:href="#DejaVuSans-32"/>
       <use x="63.623047" xlink:href="#DejaVuSans-30"/>
       <use x="127.246094" xlink:href="#DejaVuSans-30"/>
      </g>
     </g>
    </g>
    <g id="text_10">
     <!-- Auroc -->
     <g style="fill:#262626;" transform="translate(221.819375 335.860562)scale(0.1 -0.1)">
      <defs>
       <path d="M 2188 4044 
L 1331 1722 
L 3047 1722 
L 2188 4044 
z
M 1831 4666 
L 2547 4666 
L 4325 0 
L 3669 0 
L 3244 1197 
L 1141 1197 
L 716 0 
L 50 0 
L 1831 4666 
z
" id="DejaVuSans-41" transform="scale(0.015625)"/>
       <path d="M 544 1381 
L 544 3500 
L 1119 3500 
L 1119 1403 
Q 1119 906 1312 657 
Q 1506 409 1894 409 
Q 2359 409 2629 706 
Q 2900 1003 2900 1516 
L 2900 3500 
L 3475 3500 
L 3475 0 
L 2900 0 
L 2900 538 
Q 2691 219 2414 64 
Q 2138 -91 1772 -91 
Q 1169 -91 856 284 
Q 544 659 544 1381 
z
M 1991 3584 
L 1991 3584 
z
" id="DejaVuSans-75" transform="scale(0.015625)"/>
       <path d="M 2631 2963 
Q 2534 3019 2420 3045 
Q 2306 3072 2169 3072 
Q 1681 3072 1420 2755 
Q 1159 2438 1159 1844 
L 1159 0 
L 581 0 
L 581 3500 
L 1159 3500 
L 1159 2956 
Q 1341 3275 1631 3429 
Q 1922 3584 2338 3584 
Q 2397 3584 2469 3576 
Q 2541 3569 2628 3553 
L 2631 2963 
z
" id="DejaVuSans-72" transform="scale(0.015625)"/>
       <path d="M 1959 3097 
Q 1497 3097 1228 2736 
Q 959 2375 959 1747 
Q 959 1119 1226 758 
Q 1494 397 1959 397 
Q 2419 397 2687 759 
Q 2956 1122 2956 1747 
Q 2956 2369 2687 2733 
Q 2419 3097 1959 3097 
z
M 1959 3584 
Q 2709 3584 3137 3096 
Q 3566 2609 3566 1747 
Q 3566 888 3137 398 
Q 2709 -91 1959 -91 
Q 1206 -91 779 398 
Q 353 888 353 1747 
Q 353 2609 779 3096 
Q 1206 3584 1959 3584 
z
" id="DejaVuSans-6f" transform="scale(0.015625)"/>
       <path d="M 3122 3366 
L 3122 2828 
Q 2878 2963 2633 3030 
Q 2388 3097 2138 3097 
Q 1578 3097 1268 2742 
Q 959 2388 959 1747 
Q 959 1106 1268 751 
Q 1578 397 2138 397 
Q 2388 397 2633 464 
Q 2878 531 3122 666 
L 3122 134 
Q 2881 22 2623 -34 
Q 2366 -91 2075 -91 
Q 1284 -91 818 406 
Q 353 903 353 1747 
Q 353 2603 823 3093 
Q 1294 3584 2113 3584 
Q 2378 3584 2631 3529 
Q 2884 3475 3122 3366 
z
" id="DejaVuSans-63" transform="scale(0.015625)"/>
      </defs>
      <use xlink:href="#DejaVuSans-41"/>
      <use x="68.408203" xlink:href="#DejaVuSans-75"/>
      <use x="131.787109" xlink:href="#DejaVuSans-72"/>
      <use x="170.650391" xlink:href="#DejaVuSans-6f"/>
      <use x="231.832031" xlink:href="#DejaVuSans-63"/>
     </g>
    </g>
   </g>
   <g id="matplotlib.axis_2">
    <g id="ytick_1">
     <g id="line2d_10">
      <path clip-path="url(#p8b032c3ac9)" d="M 57.6 261.767862 
L 414.72 261.767862 
" style="fill:none;stroke:#cccccc;stroke-linecap:round;stroke-width:0.8;"/>
     </g>
     <g id="text_11">
      <!-- 0.55 -->
      <g style="fill:#262626;" transform="translate(28.334375 265.567081)scale(0.1 -0.1)">
       <defs>
        <path d="M 684 794 
L 1344 794 
L 1344 0 
L 684 0 
L 684 794 
z
" id="DejaVuSans-2e" transform="scale(0.015625)"/>
       </defs>
       <use xlink:href="#DejaVuSans-30"/>
       <use x="63.623047" xlink:href="#DejaVuSans-2e"/>
       <use x="95.410156" xlink:href="#DejaVuSans-35"/>
       <use x="159.033203" xlink:href="#DejaVuSans-35"/>
      </g>
     </g>
    </g>
    <g id="ytick_2">
     <g id="line2d_11">
      <path clip-path="url(#p8b032c3ac9)" d="M 57.6 207.722033 
L 414.72 207.722033 
" style="fill:none;stroke:#cccccc;stroke-linecap:round;stroke-width:0.8;"/>
     </g>
     <g id="text_12">
      <!-- 0.60 -->
      <g style="fill:#262626;" transform="translate(28.334375 211.521251)scale(0.1 -0.1)">
       <defs>
        <path d="M 2113 2584 
Q 1688 2584 1439 2293 
Q 1191 2003 1191 1497 
Q 1191 994 1439 701 
Q 1688 409 2113 409 
Q 2538 409 2786 701 
Q 3034 994 3034 1497 
Q 3034 2003 2786 2293 
Q 2538 2584 2113 2584 
z
M 3366 4563 
L 3366 3988 
Q 3128 4100 2886 4159 
Q 2644 4219 2406 4219 
Q 1781 4219 1451 3797 
Q 1122 3375 1075 2522 
Q 1259 2794 1537 2939 
Q 1816 3084 2150 3084 
Q 2853 3084 3261 2657 
Q 3669 2231 3669 1497 
Q 3669 778 3244 343 
Q 2819 -91 2113 -91 
Q 1303 -91 875 529 
Q 447 1150 447 2328 
Q 447 3434 972 4092 
Q 1497 4750 2381 4750 
Q 2619 4750 2861 4703 
Q 3103 4656 3366 4563 
z
" id="DejaVuSans-36" transform="scale(0.015625)"/>
       </defs>
       <use xlink:href="#DejaVuSans-30"/>
       <use x="63.623047" xlink:href="#DejaVuSans-2e"/>
       <use x="95.410156" xlink:href="#DejaVuSans-36"/>
       <use x="159.033203" xlink:href="#DejaVuSans-30"/>
      </g>
     </g>
    </g>
    <g id="ytick_3">
     <g id="line2d_12">
      <path clip-path="url(#p8b032c3ac9)" d="M 57.6 153.676203 
L 414.72 153.676203 
" style="fill:none;stroke:#cccccc;stroke-linecap:round;stroke-width:0.8;"/>
     </g>
     <g id="text_13">
      <!-- 0.65 -->
      <g style="fill:#262626;" transform="translate(28.334375 157.475422)scale(0.1 -0.1)">
       <use xlink:href="#DejaVuSans-30"/>
       <use x="63.623047" xlink:href="#DejaVuSans-2e"/>
       <use x="95.410156" xlink:href="#DejaVuSans-36"/>
       <use x="159.033203" xlink:href="#DejaVuSans-35"/>
      </g>
     </g>
    </g>
    <g id="ytick_4">
     <g id="line2d_13">
      <path clip-path="url(#p8b032c3ac9)" d="M 57.6 99.630373 
L 414.72 99.630373 
" style="fill:none;stroke:#cccccc;stroke-linecap:round;stroke-width:0.8;"/>
     </g>
     <g id="text_14">
      <!-- 0.70 -->
      <g style="fill:#262626;" transform="translate(28.334375 103.429592)scale(0.1 -0.1)">
       <use xlink:href="#DejaVuSans-30"/>
       <use x="63.623047" xlink:href="#DejaVuSans-2e"/>
       <use x="95.410156" xlink:href="#DejaVuSans-37"/>
       <use x="159.033203" xlink:href="#DejaVuSans-30"/>
      </g>
     </g>
    </g>
    <g id="ytick_5">
     <g id="line2d_14">
      <path clip-path="url(#p8b032c3ac9)" d="M 57.6 45.584543 
L 414.72 45.584543 
" style="fill:none;stroke:#cccccc;stroke-linecap:round;stroke-width:0.8;"/>
     </g>
     <g id="text_15">
      <!-- 0.75 -->
      <g style="fill:#262626;" transform="translate(28.334375 49.383762)scale(0.1 -0.1)">
       <use xlink:href="#DejaVuSans-30"/>
       <use x="63.623047" xlink:href="#DejaVuSans-2e"/>
       <use x="95.410156" xlink:href="#DejaVuSans-37"/>
       <use x="159.033203" xlink:href="#DejaVuSans-35"/>
      </g>
     </g>
    </g>
    <g id="text_16">
     <!-- Iteration -->
     <g style="fill:#262626;" transform="translate(22.254687 195.736594)rotate(-90)scale(0.1 -0.1)">
      <defs>
       <path d="M 628 4666 
L 1259 4666 
L 1259 0 
L 628 0 
L 628 4666 
z
" id="DejaVuSans-49" transform="scale(0.015625)"/>
       <path d="M 1172 4494 
L 1172 3500 
L 2356 3500 
L 2356 3053 
L 1172 3053 
L 1172 1153 
Q 1172 725 1289 603 
Q 1406 481 1766 481 
L 2356 481 
L 2356 0 
L 1766 0 
Q 1100 0 847 248 
Q 594 497 594 1153 
L 594 3053 
L 172 3053 
L 172 3500 
L 594 3500 
L 594 4494 
L 1172 4494 
z
" id="DejaVuSans-74" transform="scale(0.015625)"/>
       <path d="M 3597 1894 
L 3597 1613 
L 953 1613 
Q 991 1019 1311 708 
Q 1631 397 2203 397 
Q 2534 397 2845 478 
Q 3156 559 3463 722 
L 3463 178 
Q 3153 47 2828 -22 
Q 2503 -91 2169 -91 
Q 1331 -91 842 396 
Q 353 884 353 1716 
Q 353 2575 817 3079 
Q 1281 3584 2069 3584 
Q 2775 3584 3186 3129 
Q 3597 2675 3597 1894 
z
M 3022 2063 
Q 3016 2534 2758 2815 
Q 2500 3097 2075 3097 
Q 1594 3097 1305 2825 
Q 1016 2553 972 2059 
L 3022 2063 
z
" id="DejaVuSans-65" transform="scale(0.015625)"/>
       <path d="M 2194 1759 
Q 1497 1759 1228 1600 
Q 959 1441 959 1056 
Q 959 750 1161 570 
Q 1363 391 1709 391 
Q 2188 391 2477 730 
Q 2766 1069 2766 1631 
L 2766 1759 
L 2194 1759 
z
M 3341 1997 
L 3341 0 
L 2766 0 
L 2766 531 
Q 2569 213 2275 61 
Q 1981 -91 1556 -91 
Q 1019 -91 701 211 
Q 384 513 384 1019 
Q 384 1609 779 1909 
Q 1175 2209 1959 2209 
L 2766 2209 
L 2766 2266 
Q 2766 2663 2505 2880 
Q 2244 3097 1772 3097 
Q 1472 3097 1187 3025 
Q 903 2953 641 2809 
L 641 3341 
Q 956 3463 1253 3523 
Q 1550 3584 1831 3584 
Q 2591 3584 2966 3190 
Q 3341 2797 3341 1997 
z
" id="DejaVuSans-61" transform="scale(0.015625)"/>
       <path d="M 603 3500 
L 1178 3500 
L 1178 0 
L 603 0 
L 603 3500 
z
M 603 4863 
L 1178 4863 
L 1178 4134 
L 603 4134 
L 603 4863 
z
" id="DejaVuSans-69" transform="scale(0.015625)"/>
       <path d="M 3513 2113 
L 3513 0 
L 2938 0 
L 2938 2094 
Q 2938 2591 2744 2837 
Q 2550 3084 2163 3084 
Q 1697 3084 1428 2787 
Q 1159 2491 1159 1978 
L 1159 0 
L 581 0 
L 581 3500 
L 1159 3500 
L 1159 2956 
Q 1366 3272 1645 3428 
Q 1925 3584 2291 3584 
Q 2894 3584 3203 3211 
Q 3513 2838 3513 2113 
z
" id="DejaVuSans-6e" transform="scale(0.015625)"/>
      </defs>
      <use xlink:href="#DejaVuSans-49"/>
      <use x="29.492188" xlink:href="#DejaVuSans-74"/>
      <use x="68.701172" xlink:href="#DejaVuSans-65"/>
      <use x="130.224609" xlink:href="#DejaVuSans-72"/>
      <use x="171.337891" xlink:href="#DejaVuSans-61"/>
      <use x="232.617188" xlink:href="#DejaVuSans-74"/>
      <use x="271.826172" xlink:href="#DejaVuSans-69"/>
      <use x="299.609375" xlink:href="#DejaVuSans-6f"/>
      <use x="360.791016" xlink:href="#DejaVuSans-6e"/>
     </g>
    </g>
   </g>
   <g id="PolyCollection_1">
    <defs>
     <path d="M 73.832727 -269.182822 
L 73.832727 -129.906769 
L 75.464157 -126.327545 
L 77.095587 -106.431295 
L 78.727017 -115.508095 
L 80.358447 -145.629737 
L 81.989877 -142.971299 
L 83.621307 -118.782129 
L 85.252736 -169.308817 
L 86.884166 -154.678243 
L 88.515596 -139.887022 
L 90.147026 -148.392882 
L 91.778456 -114.542997 
L 93.409886 -162.57276 
L 95.041316 -159.182195 
L 96.672746 -165.741015 
L 98.304175 -165.306111 
L 99.935605 -155.315812 
L 101.567035 -157.444086 
L 103.198465 -129.722112 
L 104.829895 -147.849042 
L 106.461325 -145.16631 
L 108.092755 -161.231227 
L 109.724185 -136.543931 
L 111.355614 -175.637221 
L 112.987044 -157.202936 
L 114.618474 -177.032366 
L 116.249904 -169.938562 
L 117.881334 -161.086557 
L 119.512764 -155.051006 
L 121.144194 -161.76623 
L 122.775624 -172.460916 
L 124.407053 -157.12361 
L 126.038483 -112.866319 
L 127.669913 -140.568205 
L 129.301343 -183.147928 
L 130.932773 -151.205163 
L 132.564203 -103.067511 
L 134.195633 -160.101976 
L 135.827063 -176.301074 
L 137.458492 -193.30887 
L 139.089922 -174.156756 
L 140.721352 -192.819796 
L 142.352782 -160.555811 
L 143.984212 -92.120794 
L 145.615642 -139.917157 
L 147.247072 -133.415988 
L 148.878502 -174.141406 
L 150.509931 -168.053735 
L 152.141361 -170.226758 
L 153.772791 -164.963448 
L 155.404221 -180.472947 
L 157.035651 -99.351043 
L 158.667081 -197.25804 
L 160.298511 -187.450156 
L 161.929941 -114.068963 
L 163.56137 -136.436126 
L 165.1928 -156.518554 
L 166.82423 -159.593878 
L 168.45566 -112.975273 
L 170.08709 -148.176253 
L 171.71852 -195.782211 
L 173.34995 -168.091951 
L 174.98138 -161.069657 
L 176.61281 -151.437305 
L 178.244239 -145.908424 
L 179.875669 -169.373668 
L 181.507099 -169.293091 
L 183.138529 -139.329921 
L 184.769959 -138.361975 
L 186.401389 -101.27766 
L 188.032819 -136.621383 
L 189.664249 -146.125995 
L 191.295678 -211.222474 
L 192.927108 -113.180942 
L 194.558538 -172.64421 
L 196.189968 -133.526957 
L 197.821398 -151.29956 
L 199.452828 -153.86179 
L 201.084258 -121.095966 
L 202.715688 -102.494166 
L 204.347117 -165.725966 
L 205.978547 -159.136632 
L 207.609977 -143.500359 
L 209.241407 -181.5387 
L 210.872837 -84.879814 
L 212.504267 -191.720062 
L 214.135697 -150.043051 
L 215.767127 -119.458876 
L 217.398556 -148.35352 
L 219.029986 -156.227597 
L 220.661416 -168.01747 
L 222.292846 -147.067824 
L 223.924276 -118.481248 
L 225.555706 -138.494836 
L 227.187136 -145.555557 
L 228.818566 -50.112 
L 230.449995 -203.692027 
L 232.081425 -129.305975 
L 233.712855 -101.355388 
L 235.344285 -166.700129 
L 236.975715 -101.636367 
L 238.607145 -190.513627 
L 240.238575 -124.581766 
L 241.870005 -196.469038 
L 243.501434 -106.169262 
L 245.132864 -186.498588 
L 246.764294 -205.594054 
L 248.395724 -181.549793 
L 250.027154 -137.726394 
L 251.658584 -134.68757 
L 253.290014 -138.764355 
L 254.921444 -132.497575 
L 256.552873 -177.476419 
L 258.184303 -97.892659 
L 259.815733 -133.050353 
L 261.447163 -158.50326 
L 263.078593 -174.937438 
L 264.710023 -112.431169 
L 266.341453 -116.467168 
L 267.972883 -153.423655 
L 269.604312 -121.018392 
L 271.235742 -101.271533 
L 272.867172 -208.53799 
L 274.498602 -157.126752 
L 276.130032 -83.985616 
L 277.761462 -168.030598 
L 279.392892 -132.198336 
L 281.024322 -150.383794 
L 282.655751 -142.980195 
L 284.287181 -84.223748 
L 285.918611 -163.110436 
L 287.550041 -215.977034 
L 289.181471 -147.076184 
L 290.812901 -147.364933 
L 292.444331 -167.068467 
L 294.075761 -167.746468 
L 295.70719 -147.285889 
L 297.33862 -135.212848 
L 298.97005 -160.599776 
L 300.60148 -130.849034 
L 302.23291 -165.70597 
L 303.86434 -170.575906 
L 305.49577 -97.526385 
L 307.1272 -130.394887 
L 308.75863 -144.479685 
L 310.390059 -114.443278 
L 312.021489 -174.766624 
L 313.652919 -159.433897 
L 315.284349 -154.937538 
L 316.915779 -132.137294 
L 318.547209 -150.695517 
L 320.178639 -155.335514 
L 321.810069 -143.841449 
L 323.441498 -114.960896 
L 325.072928 -117.870486 
L 326.704358 -150.037404 
L 328.335788 -144.914808 
L 329.967218 -102.558632 
L 331.598648 -210.888896 
L 333.230078 -144.347039 
L 334.861508 -159.943581 
L 336.492937 -169.942212 
L 338.124367 -121.579312 
L 339.755797 -139.553811 
L 341.387227 -120.01445 
L 343.018657 -180.600331 
L 344.650087 -129.720551 
L 346.281517 -144.696841 
L 347.912947 -72.819542 
L 349.544376 -118.370711 
L 351.175806 -114.83085 
L 352.807236 -174.613926 
L 354.438666 -176.970138 
L 356.070096 -130.035553 
L 357.701526 -128.35469 
L 359.332956 -181.698189 
L 360.964386 -151.606484 
L 362.595815 -129.557985 
L 364.227245 -133.715032 
L 365.858675 -139.850746 
L 367.490105 -152.590995 
L 369.121535 -167.682024 
L 370.752965 -111.362581 
L 372.384395 -108.424421 
L 374.015825 -117.89644 
L 375.647254 -103.8284 
L 377.278684 -181.42783 
L 378.910114 -171.837159 
L 380.541544 -145.869996 
L 382.172974 -111.568021 
L 383.804404 -154.280489 
L 385.435834 -158.199425 
L 387.067264 -117.612904 
L 388.698693 -95.550219 
L 390.330123 -175.139626 
L 391.961553 -158.888945 
L 393.592983 -155.081667 
L 395.224413 -186.893644 
L 396.855843 -141.926898 
L 398.487273 -185.695733 
L 398.487273 -240.628278 
L 398.487273 -240.628278 
L 396.855843 -200.919965 
L 395.224413 -276.639491 
L 393.592983 -216.254406 
L 391.961553 -201.98459 
L 390.330123 -261.850944 
L 388.698693 -213.503542 
L 387.067264 -225.126694 
L 385.435834 -219.353235 
L 383.804404 -250.290418 
L 382.172974 -226.065569 
L 380.541544 -231.396859 
L 378.910114 -244.708716 
L 377.278684 -261.74286 
L 375.647254 -247.280084 
L 374.015825 -249.392351 
L 372.384395 -221.485907 
L 370.752965 -263.531794 
L 369.121535 -275.191055 
L 367.490105 -222.637765 
L 365.858675 -238.082252 
L 364.227245 -241.865587 
L 362.595815 -288.226569 
L 360.964386 -228.105174 
L 359.332956 -257.531683 
L 357.701526 -225.240916 
L 356.070096 -217.038152 
L 354.438666 -242.357797 
L 352.807236 -243.836581 
L 351.175806 -241.997199 
L 349.544376 -206.964026 
L 347.912947 -230.78119 
L 346.281517 -247.257981 
L 344.650087 -232.51396 
L 343.018657 -260.931241 
L 341.387227 -216.396839 
L 339.755797 -257.783223 
L 338.124367 -219.675629 
L 336.492937 -221.492728 
L 334.861508 -268.116075 
L 333.230078 -205.665507 
L 331.598648 -254.770273 
L 329.967218 -196.775345 
L 328.335788 -259.545313 
L 326.704358 -227.53653 
L 325.072928 -211.251563 
L 323.441498 -267.686252 
L 321.810069 -246.646544 
L 320.178639 -242.541186 
L 318.547209 -266.988653 
L 316.915779 -249.39437 
L 315.284349 -237.781606 
L 313.652919 -264.4809 
L 312.021489 -276.683458 
L 310.390059 -262.159448 
L 308.75863 -269.15896 
L 307.1272 -250.135367 
L 305.49577 -231.262292 
L 303.86434 -237.254301 
L 302.23291 -248.217821 
L 300.60148 -250.229489 
L 298.97005 -249.543518 
L 297.33862 -248.580098 
L 295.70719 -227.875863 
L 294.075761 -212.554867 
L 292.444331 -261.64106 
L 290.812901 -226.562788 
L 289.181471 -261.308444 
L 287.550041 -274.510766 
L 285.918611 -263.024833 
L 284.287181 -230.632389 
L 282.655751 -217.700876 
L 281.024322 -232.815017 
L 279.392892 -226.509768 
L 277.761462 -224.161984 
L 276.130032 -247.450208 
L 274.498602 -218.283726 
L 272.867172 -251.372973 
L 271.235742 -220.329196 
L 269.604312 -236.411129 
L 267.972883 -260.742545 
L 266.341453 -248.686436 
L 264.710023 -233.902016 
L 263.078593 -223.025101 
L 261.447163 -270.850383 
L 259.815733 -251.538343 
L 258.184303 -222.13305 
L 256.552873 -223.44087 
L 254.921444 -250.422465 
L 253.290014 -255.358208 
L 251.658584 -226.571763 
L 250.027154 -254.350362 
L 248.395724 -239.057288 
L 246.764294 -246.515566 
L 245.132864 -229.729815 
L 243.501434 -193.396214 
L 241.870005 -288.152631 
L 240.238575 -222.405012 
L 238.607145 -262.51806 
L 236.975715 -247.642224 
L 235.344285 -231.400388 
L 233.712855 -282.603136 
L 232.081425 -232.887822 
L 230.449995 -265.98057 
L 228.818566 -248.555366 
L 227.187136 -229.837149 
L 225.555706 -262.179643 
L 223.924276 -217.945445 
L 222.292846 -218.980685 
L 220.661416 -226.5225 
L 219.029986 -252.904441 
L 217.398556 -241.895348 
L 215.767127 -230.777934 
L 214.135697 -239.277409 
L 212.504267 -256.638763 
L 210.872837 -222.291133 
L 209.241407 -259.853158 
L 207.609977 -292.032 
L 205.978547 -251.049418 
L 204.347117 -224.138822 
L 202.715688 -200.255002 
L 201.084258 -242.580369 
L 199.452828 -252.095786 
L 197.821398 -253.743862 
L 196.189968 -252.94251 
L 194.558538 -245.844405 
L 192.927108 -234.622136 
L 191.295678 -231.911071 
L 189.664249 -226.219166 
L 188.032819 -252.681807 
L 186.401389 -204.302529 
L 184.769959 -231.2477 
L 183.138529 -216.075802 
L 181.507099 -251.859879 
L 179.875669 -223.63674 
L 178.244239 -227.480394 
L 176.61281 -241.089776 
L 174.98138 -215.631219 
L 173.34995 -250.008596 
L 171.71852 -241.038018 
L 170.08709 -231.232316 
L 168.45566 -245.441271 
L 166.82423 -222.493285 
L 165.1928 -247.770834 
L 163.56137 -218.133179 
L 161.929941 -252.51318 
L 160.298511 -253.373661 
L 158.667081 -287.266442 
L 157.035651 -262.369523 
L 155.404221 -250.269416 
L 153.772791 -221.611911 
L 152.141361 -234.826189 
L 150.509931 -219.099237 
L 148.878502 -268.459812 
L 147.247072 -241.972615 
L 145.615642 -198.919704 
L 143.984212 -245.330926 
L 142.352782 -254.546436 
L 140.721352 -262.228073 
L 139.089922 -226.451058 
L 137.458492 -258.115253 
L 135.827063 -233.72856 
L 134.195633 -224.429113 
L 132.564203 -237.856157 
L 130.932773 -190.382444 
L 129.301343 -223.77618 
L 127.669913 -246.768976 
L 126.038483 -208.823599 
L 124.407053 -245.407437 
L 122.775624 -282.610602 
L 121.144194 -266.677935 
L 119.512764 -254.632476 
L 117.881334 -248.414319 
L 116.249904 -224.0059 
L 114.618474 -254.273705 
L 112.987044 -244.57442 
L 111.355614 -233.046697 
L 109.724185 -229.264059 
L 108.092755 -271.928653 
L 106.461325 -215.384337 
L 104.829895 -234.815925 
L 103.198465 -224.395647 
L 101.567035 -239.356135 
L 99.935605 -262.107835 
L 98.304175 -244.867294 
L 96.672746 -259.476616 
L 95.041316 -201.603068 
L 93.409886 -256.087992 
L 91.778456 -195.546059 
L 90.147026 -231.256178 
L 88.515596 -211.969274 
L 86.884166 -240.861061 
L 85.252736 -236.691106 
L 83.621307 -210.965263 
L 81.989877 -269.807134 
L 80.358447 -239.612542 
L 78.727017 -259.031453 
L 77.095587 -237.036053 
L 75.464157 -223.512063 
L 73.832727 -269.182822 
z
" id="m2e081f9551" style="stroke:#ffffff;stroke-opacity:0.2;"/>
    </defs>
    <g clip-path="url(#p8b032c3ac9)">
     <use style="fill:#1f77b4;fill-opacity:0.2;stroke:#ffffff;stroke-opacity:0.2;" x="0" xlink:href="#m2e081f9551" y="345.6"/>
    </g>
   </g>
   <g id="LineCollection_1">
    <path clip-path="url(#p8b032c3ac9)" d="M 398.487273 295.488 
L 398.487273 53.568 
" style="fill:none;stroke:#1f77b4;stroke-dasharray:5.55,2.4;stroke-dashoffset:0;stroke-width:1.5;"/>
   </g>
   <g id="line2d_15">
    <path clip-path="url(#p8b032c3ac9)" d="M 73.832727 146.055205 
L 75.464157 170.680196 
L 77.095587 173.866326 
L 78.727017 158.330226 
L 80.358447 152.97886 
L 81.989877 139.210783 
L 83.621307 180.726304 
L 85.252736 142.600038 
L 86.884166 147.830348 
L 88.515596 169.671852 
L 90.147026 155.77547 
L 91.778456 190.555472 
L 93.409886 136.269624 
L 95.041316 165.207369 
L 96.672746 132.991185 
L 98.304175 140.513298 
L 99.935605 136.888176 
L 101.567035 147.199889 
L 103.198465 168.541121 
L 104.829895 154.267516 
L 106.461325 165.324676 
L 108.092755 129.02006 
L 109.724185 162.696005 
L 111.355614 141.258041 
L 112.987044 144.711322 
L 114.618474 129.946965 
L 116.249904 148.627769 
L 117.881334 140.849562 
L 119.512764 140.758259 
L 121.144194 131.377917 
L 122.775624 118.064241 
L 124.407053 144.334476 
L 126.038483 184.755041 
L 127.669913 151.93141 
L 129.301343 142.137946 
L 130.932773 174.806196 
L 132.564203 175.138166 
L 134.195633 153.334456 
L 135.827063 140.585183 
L 137.458492 119.887939 
L 139.089922 145.296093 
L 140.721352 118.076066 
L 142.352782 138.048876 
L 143.984212 176.87414 
L 145.615642 176.18157 
L 147.247072 157.905699 
L 148.878502 124.299391 
L 150.509931 152.023514 
L 152.141361 143.073526 
L 153.772791 152.312321 
L 155.404221 130.228818 
L 157.035651 164.739717 
L 158.667081 103.337759 
L 160.298511 125.188091 
L 161.929941 162.308929 
L 163.56137 168.315347 
L 165.1928 143.455306 
L 168.45566 166.391728 
L 170.08709 155.895715 
L 171.71852 127.189886 
L 173.34995 136.549727 
L 174.98138 157.249562 
L 176.61281 149.33646 
L 178.244239 158.905591 
L 179.875669 149.094796 
L 181.507099 135.023515 
L 183.138529 167.897138 
L 184.769959 160.795162 
L 186.401389 192.809906 
L 188.032819 150.948405 
L 189.664249 159.42742 
L 191.295678 124.033228 
L 192.927108 171.698461 
L 194.558538 136.355692 
L 196.189968 152.365266 
L 197.821398 143.078289 
L 199.452828 142.621212 
L 201.084258 163.761833 
L 202.715688 194.225416 
L 204.347117 150.667606 
L 205.978547 140.506975 
L 207.609977 127.83382 
L 209.241407 124.904071 
L 210.872837 192.014527 
L 212.504267 121.420588 
L 214.135697 150.93977 
L 215.767127 170.481595 
L 217.398556 150.475566 
L 219.029986 141.033981 
L 220.661416 148.330015 
L 223.924276 177.386654 
L 225.555706 145.26276 
L 227.187136 157.903647 
L 228.818566 196.266317 
L 230.449995 110.763701 
L 232.081425 164.503102 
L 233.712855 153.620738 
L 235.344285 146.549742 
L 236.975715 170.960704 
L 238.607145 119.084157 
L 240.238575 172.106611 
L 241.870005 103.289165 
L 243.501434 195.817262 
L 245.132864 137.485799 
L 246.764294 119.54519 
L 248.395724 135.29646 
L 250.027154 149.561622 
L 251.658584 164.970334 
L 253.290014 148.538719 
L 254.921444 154.13998 
L 256.552873 145.141356 
L 258.184303 185.587145 
L 259.815733 153.305652 
L 261.447163 130.923179 
L 263.078593 146.618731 
L 264.710023 172.433407 
L 266.341453 163.023198 
L 267.972883 138.5169 
L 269.604312 166.885239 
L 271.235742 184.799636 
L 272.867172 115.644519 
L 274.498602 157.894761 
L 276.130032 179.882088 
L 277.761462 149.503709 
L 279.392892 166.245948 
L 281.024322 154.000594 
L 282.655751 165.259465 
L 284.287181 188.171931 
L 285.918611 132.532366 
L 287.550041 100.3561 
L 289.181471 141.407686 
L 290.812901 158.63614 
L 292.444331 131.245237 
L 294.075761 155.449332 
L 295.70719 158.019124 
L 297.33862 153.703527 
L 298.97005 140.528353 
L 300.60148 155.060738 
L 302.23291 138.638104 
L 303.86434 141.684897 
L 305.49577 181.205661 
L 307.1272 155.334873 
L 308.75863 138.780678 
L 310.390059 157.298637 
L 312.021489 119.874959 
L 313.652919 133.642602 
L 315.284349 149.240428 
L 316.915779 154.834168 
L 318.547209 136.757915 
L 320.178639 146.66165 
L 323.441498 154.276426 
L 325.072928 181.038975 
L 326.704358 156.813033 
L 328.335788 143.36994 
L 329.967218 195.933012 
L 331.598648 112.770416 
L 333.230078 170.593727 
L 334.861508 131.570172 
L 336.492937 149.88253 
L 338.124367 174.972529 
L 339.755797 146.931483 
L 341.387227 177.394356 
L 343.018657 124.834214 
L 344.650087 164.482744 
L 346.281517 149.622589 
L 347.912947 193.799634 
L 349.544376 182.932631 
L 351.175806 167.185976 
L 352.807236 136.374747 
L 354.438666 135.936032 
L 356.070096 172.063147 
L 357.701526 168.802197 
L 359.332956 125.985064 
L 360.964386 155.744171 
L 362.595815 136.707723 
L 364.227245 157.809691 
L 365.858675 156.633501 
L 367.490105 157.98562 
L 369.121535 124.163461 
L 370.752965 158.152812 
L 372.384395 180.644836 
L 374.015825 161.955604 
L 375.647254 170.045758 
L 377.278684 124.014655 
L 378.910114 137.327063 
L 382.172974 176.783205 
L 383.804404 143.314546 
L 385.435834 156.82367 
L 388.698693 191.07312 
L 390.330123 127.104715 
L 391.961553 165.163232 
L 393.592983 159.931964 
L 395.224413 113.833433 
L 396.855843 174.176568 
L 398.487273 132.437995 
L 398.487273 132.437995 
" style="fill:none;stroke:#1f77b4;stroke-linecap:round;stroke-width:1.5;"/>
   </g>
   <g id="patch_3">
    <path d="M 57.6 307.584 
L 57.6 41.472 
" style="fill:none;stroke:#cccccc;stroke-linecap:square;stroke-linejoin:miter;stroke-width:0.8;"/>
   </g>
   <g id="patch_4">
    <path d="M 414.72 307.584 
L 414.72 41.472 
" style="fill:none;stroke:#cccccc;stroke-linecap:square;stroke-linejoin:miter;stroke-width:0.8;"/>
   </g>
   <g id="patch_5">
    <path d="M 57.6 307.584 
L 414.72 307.584 
" style="fill:none;stroke:#cccccc;stroke-linecap:square;stroke-linejoin:miter;stroke-width:0.8;"/>
   </g>
   <g id="patch_6">
    <path d="M 57.6 41.472 
L 414.72 41.472 
" style="fill:none;stroke:#cccccc;stroke-linecap:square;stroke-linejoin:miter;stroke-width:0.8;"/>
   </g>
   <g id="text_17">
    <!-- Model performance vs. # of iterations -->
    <g style="fill:#262626;" transform="translate(122.314688 35.472)scale(0.12 -0.12)">
     <defs>
      <path d="M 628 4666 
L 1569 4666 
L 2759 1491 
L 3956 4666 
L 4897 4666 
L 4897 0 
L 4281 0 
L 4281 4097 
L 3078 897 
L 2444 897 
L 1241 4097 
L 1241 0 
L 628 0 
L 628 4666 
z
" id="DejaVuSans-4d" transform="scale(0.015625)"/>
      <path d="M 2906 2969 
L 2906 4863 
L 3481 4863 
L 3481 0 
L 2906 0 
L 2906 525 
Q 2725 213 2448 61 
Q 2172 -91 1784 -91 
Q 1150 -91 751 415 
Q 353 922 353 1747 
Q 353 2572 751 3078 
Q 1150 3584 1784 3584 
Q 2172 3584 2448 3432 
Q 2725 3281 2906 2969 
z
M 947 1747 
Q 947 1113 1208 752 
Q 1469 391 1925 391 
Q 2381 391 2643 752 
Q 2906 1113 2906 1747 
Q 2906 2381 2643 2742 
Q 2381 3103 1925 3103 
Q 1469 3103 1208 2742 
Q 947 2381 947 1747 
z
" id="DejaVuSans-64" transform="scale(0.015625)"/>
      <path d="M 603 4863 
L 1178 4863 
L 1178 0 
L 603 0 
L 603 4863 
z
" id="DejaVuSans-6c" transform="scale(0.015625)"/>
      <path id="DejaVuSans-20" transform="scale(0.015625)"/>
      <path d="M 1159 525 
L 1159 -1331 
L 581 -1331 
L 581 3500 
L 1159 3500 
L 1159 2969 
Q 1341 3281 1617 3432 
Q 1894 3584 2278 3584 
Q 2916 3584 3314 3078 
Q 3713 2572 3713 1747 
Q 3713 922 3314 415 
Q 2916 -91 2278 -91 
Q 1894 -91 1617 61 
Q 1341 213 1159 525 
z
M 3116 1747 
Q 3116 2381 2855 2742 
Q 2594 3103 2138 3103 
Q 1681 3103 1420 2742 
Q 1159 2381 1159 1747 
Q 1159 1113 1420 752 
Q 1681 391 2138 391 
Q 2594 391 2855 752 
Q 3116 1113 3116 1747 
z
" id="DejaVuSans-70" transform="scale(0.015625)"/>
      <path d="M 2375 4863 
L 2375 4384 
L 1825 4384 
Q 1516 4384 1395 4259 
Q 1275 4134 1275 3809 
L 1275 3500 
L 2222 3500 
L 2222 3053 
L 1275 3053 
L 1275 0 
L 697 0 
L 697 3053 
L 147 3053 
L 147 3500 
L 697 3500 
L 697 3744 
Q 697 4328 969 4595 
Q 1241 4863 1831 4863 
L 2375 4863 
z
" id="DejaVuSans-66" transform="scale(0.015625)"/>
      <path d="M 3328 2828 
Q 3544 3216 3844 3400 
Q 4144 3584 4550 3584 
Q 5097 3584 5394 3201 
Q 5691 2819 5691 2113 
L 5691 0 
L 5113 0 
L 5113 2094 
Q 5113 2597 4934 2840 
Q 4756 3084 4391 3084 
Q 3944 3084 3684 2787 
Q 3425 2491 3425 1978 
L 3425 0 
L 2847 0 
L 2847 2094 
Q 2847 2600 2669 2842 
Q 2491 3084 2119 3084 
Q 1678 3084 1418 2786 
Q 1159 2488 1159 1978 
L 1159 0 
L 581 0 
L 581 3500 
L 1159 3500 
L 1159 2956 
Q 1356 3278 1631 3431 
Q 1906 3584 2284 3584 
Q 2666 3584 2933 3390 
Q 3200 3197 3328 2828 
z
" id="DejaVuSans-6d" transform="scale(0.015625)"/>
      <path d="M 191 3500 
L 800 3500 
L 1894 563 
L 2988 3500 
L 3597 3500 
L 2284 0 
L 1503 0 
L 191 3500 
z
" id="DejaVuSans-76" transform="scale(0.015625)"/>
      <path d="M 2834 3397 
L 2834 2853 
Q 2591 2978 2328 3040 
Q 2066 3103 1784 3103 
Q 1356 3103 1142 2972 
Q 928 2841 928 2578 
Q 928 2378 1081 2264 
Q 1234 2150 1697 2047 
L 1894 2003 
Q 2506 1872 2764 1633 
Q 3022 1394 3022 966 
Q 3022 478 2636 193 
Q 2250 -91 1575 -91 
Q 1294 -91 989 -36 
Q 684 19 347 128 
L 347 722 
Q 666 556 975 473 
Q 1284 391 1588 391 
Q 1994 391 2212 530 
Q 2431 669 2431 922 
Q 2431 1156 2273 1281 
Q 2116 1406 1581 1522 
L 1381 1569 
Q 847 1681 609 1914 
Q 372 2147 372 2553 
Q 372 3047 722 3315 
Q 1072 3584 1716 3584 
Q 2034 3584 2315 3537 
Q 2597 3491 2834 3397 
z
" id="DejaVuSans-73" transform="scale(0.015625)"/>
      <path d="M 3272 2816 
L 2363 2816 
L 2100 1772 
L 3016 1772 
L 3272 2816 
z
M 2803 4594 
L 2478 3297 
L 3391 3297 
L 3719 4594 
L 4219 4594 
L 3897 3297 
L 4872 3297 
L 4872 2816 
L 3775 2816 
L 3519 1772 
L 4513 1772 
L 4513 1294 
L 3397 1294 
L 3072 0 
L 2572 0 
L 2894 1294 
L 1978 1294 
L 1656 0 
L 1153 0 
L 1478 1294 
L 494 1294 
L 494 1772 
L 1594 1772 
L 1856 2816 
L 850 2816 
L 850 3297 
L 1978 3297 
L 2297 4594 
L 2803 4594 
z
" id="DejaVuSans-23" transform="scale(0.015625)"/>
     </defs>
     <use xlink:href="#DejaVuSans-4d"/>
     <use x="86.279297" xlink:href="#DejaVuSans-6f"/>
     <use x="147.460938" xlink:href="#DejaVuSans-64"/>
     <use x="210.9375" xlink:href="#DejaVuSans-65"/>
     <use x="272.460938" xlink:href="#DejaVuSans-6c"/>
     <use x="300.244141" xlink:href="#DejaVuSans-20"/>
     <use x="332.03125" xlink:href="#DejaVuSans-70"/>
     <use x="395.507812" xlink:href="#DejaVuSans-65"/>
     <use x="457.03125" xlink:href="#DejaVuSans-72"/>
     <use x="498.144531" xlink:href="#DejaVuSans-66"/>
     <use x="533.349609" xlink:href="#DejaVuSans-6f"/>
     <use x="594.53125" xlink:href="#DejaVuSans-72"/>
     <use x="633.894531" xlink:href="#DejaVuSans-6d"/>
     <use x="731.306641" xlink:href="#DejaVuSans-61"/>
     <use x="792.585938" xlink:href="#DejaVuSans-6e"/>
     <use x="855.964844" xlink:href="#DejaVuSans-63"/>
     <use x="910.945312" xlink:href="#DejaVuSans-65"/>
     <use x="972.46875" xlink:href="#DejaVuSans-20"/>
     <use x="1004.255859" xlink:href="#DejaVuSans-76"/>
     <use x="1063.435547" xlink:href="#DejaVuSans-73"/>
     <use x="1115.535156" xlink:href="#DejaVuSans-2e"/>
     <use x="1147.322266" xlink:href="#DejaVuSans-20"/>
     <use x="1179.109375" xlink:href="#DejaVuSans-23"/>
     <use x="1262.898438" xlink:href="#DejaVuSans-20"/>
     <use x="1294.685547" xlink:href="#DejaVuSans-6f"/>
     <use x="1355.867188" xlink:href="#DejaVuSans-66"/>
     <use x="1391.072266" xlink:href="#DejaVuSans-20"/>
     <use x="1422.859375" xlink:href="#DejaVuSans-69"/>
     <use x="1450.642578" xlink:href="#DejaVuSans-74"/>
     <use x="1489.851562" xlink:href="#DejaVuSans-65"/>
     <use x="1551.375" xlink:href="#DejaVuSans-72"/>
     <use x="1592.488281" xlink:href="#DejaVuSans-61"/>
     <use x="1653.767578" xlink:href="#DejaVuSans-74"/>
     <use x="1692.976562" xlink:href="#DejaVuSans-69"/>
     <use x="1720.759766" xlink:href="#DejaVuSans-6f"/>
     <use x="1781.941406" xlink:href="#DejaVuSans-6e"/>
     <use x="1845.320312" xlink:href="#DejaVuSans-73"/>
    </g>
   </g>
  </g>
 </g>
 <defs>
  <clipPath id="p8b032c3ac9">
   <rect height="266.112" width="357.12" x="57.6" y="41.472"/>
  </clipPath>
 </defs>
</svg>
