<?xml version="1.0" encoding="utf-8" standalone="no"?>
<!DOCTYPE svg PUBLIC "-//W3C//DTD SVG 1.1//EN"
  "http://www.w3.org/Graphics/SVG/1.1/DTD/svg11.dtd">
<svg height="345.6pt" version="1.1" viewBox="0 0 460.8 345.6" width="460.8pt" xmlns="http://www.w3.org/2000/svg" xmlns:xlink="http://www.w3.org/1999/xlink">
 <metadata>
  <rdf:RDF xmlns:cc="http://creativecommons.org/ns#" xmlns:dc="http://purl.org/dc/elements/1.1/" xmlns:rdf="http://www.w3.org/1999/02/22-rdf-syntax-ns#">
   <cc:Work>
    <dc:type rdf:resource="http://purl.org/dc/dcmitype/StillImage"/>
    <dc:date>2021-09-14T01:27:08.261328</dc:date>
    <dc:format>image/svg+xml</dc:format>
    <dc:creator>
     <cc:Agent>
      <dc:title>Matplotlib v3.4.2, https://matplotlib.org/</dc:title>
     </cc:Agent>
    </dc:creator>
   </cc:Work>
  </rdf:RDF>
 </metadata>
 <defs>
  <style type="text/css">*{stroke-linecap:butt;stroke-linejoin:round;}</style>
 </defs>
 <g id="figure_1">
  <g id="patch_1">
   <path d="M 0 345.6 
L 460.8 345.6 
L 460.8 0 
L 0 0 
z
" style="fill:#ffffff;"/>
  </g>
  <g id="axes_1">
   <g id="patch_2">
    <path d="M 57.6 307.584 
L 414.72 307.584 
L 414.72 41.472 
L 57.6 41.472 
z
" style="fill:#ffffff;"/>
   </g>
   <g id="matplotlib.axis_1">
    <g id="xtick_1">
     <g id="line2d_1">
      <path clip-path="url(#p6758d9bedf)" d="M 72.201297 307.584 
L 72.201297 41.472 
" style="fill:none;stroke:#cccccc;stroke-linecap:round;stroke-width:0.8;"/>
     </g>
     <g id="text_1">
      <!-- 0 -->
      <g style="fill:#262626;" transform="translate(69.020047 322.182437)scale(0.1 -0.1)">
       <defs>
        <path d="M 2034 4250 
Q 1547 4250 1301 3770 
Q 1056 3291 1056 2328 
Q 1056 1369 1301 889 
Q 1547 409 2034 409 
Q 2525 409 2770 889 
Q 3016 1369 3016 2328 
Q 3016 3291 2770 3770 
Q 2525 4250 2034 4250 
z
M 2034 4750 
Q 2819 4750 3233 4129 
Q 3647 3509 3647 2328 
Q 3647 1150 3233 529 
Q 2819 -91 2034 -91 
Q 1250 -91 836 529 
Q 422 1150 422 2328 
Q 422 3509 836 4129 
Q 1250 4750 2034 4750 
z
" id="DejaVuSans-30" transform="scale(0.015625)"/>
       </defs>
       <use xlink:href="#DejaVuSans-30"/>
      </g>
     </g>
    </g>
    <g id="xtick_2">
     <g id="line2d_2">
      <path clip-path="url(#p6758d9bedf)" d="M 112.987044 307.584 
L 112.987044 41.472 
" style="fill:none;stroke:#cccccc;stroke-linecap:round;stroke-width:0.8;"/>
     </g>
     <g id="text_2">
      <!-- 25 -->
      <g style="fill:#262626;" transform="translate(106.624544 322.182437)scale(0.1 -0.1)">
       <defs>
        <path d="M 1228 531 
L 3431 531 
L 3431 0 
L 469 0 
L 469 531 
Q 828 903 1448 1529 
Q 2069 2156 2228 2338 
Q 2531 2678 2651 2914 
Q 2772 3150 2772 3378 
Q 2772 3750 2511 3984 
Q 2250 4219 1831 4219 
Q 1534 4219 1204 4116 
Q 875 4013 500 3803 
L 500 4441 
Q 881 4594 1212 4672 
Q 1544 4750 1819 4750 
Q 2544 4750 2975 4387 
Q 3406 4025 3406 3419 
Q 3406 3131 3298 2873 
Q 3191 2616 2906 2266 
Q 2828 2175 2409 1742 
Q 1991 1309 1228 531 
z
" id="DejaVuSans-32" transform="scale(0.015625)"/>
        <path d="M 691 4666 
L 3169 4666 
L 3169 4134 
L 1269 4134 
L 1269 2991 
Q 1406 3038 1543 3061 
Q 1681 3084 1819 3084 
Q 2600 3084 3056 2656 
Q 3513 2228 3513 1497 
Q 3513 744 3044 326 
Q 2575 -91 1722 -91 
Q 1428 -91 1123 -41 
Q 819 9 494 109 
L 494 744 
Q 775 591 1075 516 
Q 1375 441 1709 441 
Q 2250 441 2565 725 
Q 2881 1009 2881 1497 
Q 2881 1984 2565 2268 
Q 2250 2553 1709 2553 
Q 1456 2553 1204 2497 
Q 953 2441 691 2322 
L 691 4666 
z
" id="DejaVuSans-35" transform="scale(0.015625)"/>
       </defs>
       <use xlink:href="#DejaVuSans-32"/>
       <use x="63.623047" xlink:href="#DejaVuSans-35"/>
      </g>
     </g>
    </g>
    <g id="xtick_3">
     <g id="line2d_3">
      <path clip-path="url(#p6758d9bedf)" d="M 153.772791 307.584 
L 153.772791 41.472 
" style="fill:none;stroke:#cccccc;stroke-linecap:round;stroke-width:0.8;"/>
     </g>
     <g id="text_3">
      <!-- 50 -->
      <g style="fill:#262626;" transform="translate(147.410291 322.182437)scale(0.1 -0.1)">
       <use xlink:href="#DejaVuSans-35"/>
       <use x="63.623047" xlink:href="#DejaVuSans-30"/>
      </g>
     </g>
    </g>
    <g id="xtick_4">
     <g id="line2d_4">
      <path clip-path="url(#p6758d9bedf)" d="M 194.558538 307.584 
L 194.558538 41.472 
" style="fill:none;stroke:#cccccc;stroke-linecap:round;stroke-width:0.8;"/>
     </g>
     <g id="text_4">
      <!-- 75 -->
      <g style="fill:#262626;" transform="translate(188.196038 322.182437)scale(0.1 -0.1)">
       <defs>
        <path d="M 525 4666 
L 3525 4666 
L 3525 4397 
L 1831 0 
L 1172 0 
L 2766 4134 
L 525 4134 
L 525 4666 
z
" id="DejaVuSans-37" transform="scale(0.015625)"/>
       </defs>
       <use xlink:href="#DejaVuSans-37"/>
       <use x="63.623047" xlink:href="#DejaVuSans-35"/>
      </g>
     </g>
    </g>
    <g id="xtick_5">
     <g id="line2d_5">
      <path clip-path="url(#p6758d9bedf)" d="M 235.344285 307.584 
L 235.344285 41.472 
" style="fill:none;stroke:#cccccc;stroke-linecap:round;stroke-width:0.8;"/>
     </g>
     <g id="text_5">
      <!-- 100 -->
      <g style="fill:#262626;" transform="translate(225.800535 322.182437)scale(0.1 -0.1)">
       <defs>
        <path d="M 794 531 
L 1825 531 
L 1825 4091 
L 703 3866 
L 703 4441 
L 1819 4666 
L 2450 4666 
L 2450 531 
L 3481 531 
L 3481 0 
L 794 0 
L 794 531 
z
" id="DejaVuSans-31" transform="scale(0.015625)"/>
       </defs>
       <use xlink:href="#DejaVuSans-31"/>
       <use x="63.623047" xlink:href="#DejaVuSans-30"/>
       <use x="127.246094" xlink:href="#DejaVuSans-30"/>
      </g>
     </g>
    </g>
    <g id="xtick_6">
     <g id="line2d_6">
      <path clip-path="url(#p6758d9bedf)" d="M 276.130032 307.584 
L 276.130032 41.472 
" style="fill:none;stroke:#cccccc;stroke-linecap:round;stroke-width:0.8;"/>
     </g>
     <g id="text_6">
      <!-- 125 -->
      <g style="fill:#262626;" transform="translate(266.586282 322.182437)scale(0.1 -0.1)">
       <use xlink:href="#DejaVuSans-31"/>
       <use x="63.623047" xlink:href="#DejaVuSans-32"/>
       <use x="127.246094" xlink:href="#DejaVuSans-35"/>
      </g>
     </g>
    </g>
    <g id="xtick_7">
     <g id="line2d_7">
      <path clip-path="url(#p6758d9bedf)" d="M 316.915779 307.584 
L 316.915779 41.472 
" style="fill:none;stroke:#cccccc;stroke-linecap:round;stroke-width:0.8;"/>
     </g>
     <g id="text_7">
      <!-- 150 -->
      <g style="fill:#262626;" transform="translate(307.372029 322.182437)scale(0.1 -0.1)">
       <use xlink:href="#DejaVuSans-31"/>
       <use x="63.623047" xlink:href="#DejaVuSans-35"/>
       <use x="127.246094" xlink:href="#DejaVuSans-30"/>
      </g>
     </g>
    </g>
    <g id="xtick_8">
     <g id="line2d_8">
      <path clip-path="url(#p6758d9bedf)" d="M 357.701526 307.584 
L 357.701526 41.472 
" style="fill:none;stroke:#cccccc;stroke-linecap:round;stroke-width:0.8;"/>
     </g>
     <g id="text_8">
      <!-- 175 -->
      <g style="fill:#262626;" transform="translate(348.157776 322.182437)scale(0.1 -0.1)">
       <use xlink:href="#DejaVuSans-31"/>
       <use x="63.623047" xlink:href="#DejaVuSans-37"/>
       <use x="127.246094" xlink:href="#DejaVuSans-35"/>
      </g>
     </g>
    </g>
    <g id="xtick_9">
     <g id="line2d_9">
      <path clip-path="url(#p6758d9bedf)" d="M 398.487273 307.584 
L 398.487273 41.472 
" style="fill:none;stroke:#cccccc;stroke-linecap:round;stroke-width:0.8;"/>
     </g>
     <g id="text_9">
      <!-- 200 -->
      <g style="fill:#262626;" transform="translate(388.943523 322.182437)scale(0.1 -0.1)">
       <use xlink:href="#DejaVuSans-32"/>
       <use x="63.623047" xlink:href="#DejaVuSans-30"/>
       <use x="127.246094" xlink:href="#DejaVuSans-30"/>
      </g>
     </g>
    </g>
    <g id="text_10">
     <!-- Auroc -->
     <g style="fill:#262626;" transform="translate(221.819375 335.860562)scale(0.1 -0.1)">
      <defs>
       <path d="M 2188 4044 
L 1331 1722 
L 3047 1722 
L 2188 4044 
z
M 1831 4666 
L 2547 4666 
L 4325 0 
L 3669 0 
L 3244 1197 
L 1141 1197 
L 716 0 
L 50 0 
L 1831 4666 
z
" id="DejaVuSans-41" transform="scale(0.015625)"/>
       <path d="M 544 1381 
L 544 3500 
L 1119 3500 
L 1119 1403 
Q 1119 906 1312 657 
Q 1506 409 1894 409 
Q 2359 409 2629 706 
Q 2900 1003 2900 1516 
L 2900 3500 
L 3475 3500 
L 3475 0 
L 2900 0 
L 2900 538 
Q 2691 219 2414 64 
Q 2138 -91 1772 -91 
Q 1169 -91 856 284 
Q 544 659 544 1381 
z
M 1991 3584 
L 1991 3584 
z
" id="DejaVuSans-75" transform="scale(0.015625)"/>
       <path d="M 2631 2963 
Q 2534 3019 2420 3045 
Q 2306 3072 2169 3072 
Q 1681 3072 1420 2755 
Q 1159 2438 1159 1844 
L 1159 0 
L 581 0 
L 581 3500 
L 1159 3500 
L 1159 2956 
Q 1341 3275 1631 3429 
Q 1922 3584 2338 3584 
Q 2397 3584 2469 3576 
Q 2541 3569 2628 3553 
L 2631 2963 
z
" id="DejaVuSans-72" transform="scale(0.015625)"/>
       <path d="M 1959 3097 
Q 1497 3097 1228 2736 
Q 959 2375 959 1747 
Q 959 1119 1226 758 
Q 1494 397 1959 397 
Q 2419 397 2687 759 
Q 2956 1122 2956 1747 
Q 2956 2369 2687 2733 
Q 2419 3097 1959 3097 
z
M 1959 3584 
Q 2709 3584 3137 3096 
Q 3566 2609 3566 1747 
Q 3566 888 3137 398 
Q 2709 -91 1959 -91 
Q 1206 -91 779 398 
Q 353 888 353 1747 
Q 353 2609 779 3096 
Q 1206 3584 1959 3584 
z
" id="DejaVuSans-6f" transform="scale(0.015625)"/>
       <path d="M 3122 3366 
L 3122 2828 
Q 2878 2963 2633 3030 
Q 2388 3097 2138 3097 
Q 1578 3097 1268 2742 
Q 959 2388 959 1747 
Q 959 1106 1268 751 
Q 1578 397 2138 397 
Q 2388 397 2633 464 
Q 2878 531 3122 666 
L 3122 134 
Q 2881 22 2623 -34 
Q 2366 -91 2075 -91 
Q 1284 -91 818 406 
Q 353 903 353 1747 
Q 353 2603 823 3093 
Q 1294 3584 2113 3584 
Q 2378 3584 2631 3529 
Q 2884 3475 3122 3366 
z
" id="DejaVuSans-63" transform="scale(0.015625)"/>
      </defs>
      <use xlink:href="#DejaVuSans-41"/>
      <use x="68.408203" xlink:href="#DejaVuSans-75"/>
      <use x="131.787109" xlink:href="#DejaVuSans-72"/>
      <use x="170.650391" xlink:href="#DejaVuSans-6f"/>
      <use x="231.832031" xlink:href="#DejaVuSans-63"/>
     </g>
    </g>
   </g>
   <g id="matplotlib.axis_2">
    <g id="ytick_1">
     <g id="line2d_10">
      <path clip-path="url(#p6758d9bedf)" d="M 57.6 277.16441 
L 414.72 277.16441 
" style="fill:none;stroke:#cccccc;stroke-linecap:round;stroke-width:0.8;"/>
     </g>
     <g id="text_11">
      <!-- 0.50 -->
      <g style="fill:#262626;" transform="translate(28.334375 280.963629)scale(0.1 -0.1)">
       <defs>
        <path d="M 684 794 
L 1344 794 
L 1344 0 
L 684 0 
L 684 794 
z
" id="DejaVuSans-2e" transform="scale(0.015625)"/>
       </defs>
       <use xlink:href="#DejaVuSans-30"/>
       <use x="63.623047" xlink:href="#DejaVuSans-2e"/>
       <use x="95.410156" xlink:href="#DejaVuSans-35"/>
       <use x="159.033203" xlink:href="#DejaVuSans-30"/>
      </g>
     </g>
    </g>
    <g id="ytick_2">
     <g id="line2d_11">
      <path clip-path="url(#p6758d9bedf)" d="M 57.6 239.481421 
L 414.72 239.481421 
" style="fill:none;stroke:#cccccc;stroke-linecap:round;stroke-width:0.8;"/>
     </g>
     <g id="text_12">
      <!-- 0.55 -->
      <g style="fill:#262626;" transform="translate(28.334375 243.28064)scale(0.1 -0.1)">
       <use xlink:href="#DejaVuSans-30"/>
       <use x="63.623047" xlink:href="#DejaVuSans-2e"/>
       <use x="95.410156" xlink:href="#DejaVuSans-35"/>
       <use x="159.033203" xlink:href="#DejaVuSans-35"/>
      </g>
     </g>
    </g>
    <g id="ytick_3">
     <g id="line2d_12">
      <path clip-path="url(#p6758d9bedf)" d="M 57.6 201.798432 
L 414.72 201.798432 
" style="fill:none;stroke:#cccccc;stroke-linecap:round;stroke-width:0.8;"/>
     </g>
     <g id="text_13">
      <!-- 0.60 -->
      <g style="fill:#262626;" transform="translate(28.334375 205.597651)scale(0.1 -0.1)">
       <defs>
        <path d="M 2113 2584 
Q 1688 2584 1439 2293 
Q 1191 2003 1191 1497 
Q 1191 994 1439 701 
Q 1688 409 2113 409 
Q 2538 409 2786 701 
Q 3034 994 3034 1497 
Q 3034 2003 2786 2293 
Q 2538 2584 2113 2584 
z
M 3366 4563 
L 3366 3988 
Q 3128 4100 2886 4159 
Q 2644 4219 2406 4219 
Q 1781 4219 1451 3797 
Q 1122 3375 1075 2522 
Q 1259 2794 1537 2939 
Q 1816 3084 2150 3084 
Q 2853 3084 3261 2657 
Q 3669 2231 3669 1497 
Q 3669 778 3244 343 
Q 2819 -91 2113 -91 
Q 1303 -91 875 529 
Q 447 1150 447 2328 
Q 447 3434 972 4092 
Q 1497 4750 2381 4750 
Q 2619 4750 2861 4703 
Q 3103 4656 3366 4563 
z
" id="DejaVuSans-36" transform="scale(0.015625)"/>
       </defs>
       <use xlink:href="#DejaVuSans-30"/>
       <use x="63.623047" xlink:href="#DejaVuSans-2e"/>
       <use x="95.410156" xlink:href="#DejaVuSans-36"/>
       <use x="159.033203" xlink:href="#DejaVuSans-30"/>
      </g>
     </g>
    </g>
    <g id="ytick_4">
     <g id="line2d_13">
      <path clip-path="url(#p6758d9bedf)" d="M 57.6 164.115443 
L 414.72 164.115443 
" style="fill:none;stroke:#cccccc;stroke-linecap:round;stroke-width:0.8;"/>
     </g>
     <g id="text_14">
      <!-- 0.65 -->
      <g style="fill:#262626;" transform="translate(28.334375 167.914662)scale(0.1 -0.1)">
       <use xlink:href="#DejaVuSans-30"/>
       <use x="63.623047" xlink:href="#DejaVuSans-2e"/>
       <use x="95.410156" xlink:href="#DejaVuSans-36"/>
       <use x="159.033203" xlink:href="#DejaVuSans-35"/>
      </g>
     </g>
    </g>
    <g id="ytick_5">
     <g id="line2d_14">
      <path clip-path="url(#p6758d9bedf)" d="M 57.6 126.432454 
L 414.72 126.432454 
" style="fill:none;stroke:#cccccc;stroke-linecap:round;stroke-width:0.8;"/>
     </g>
     <g id="text_15">
      <!-- 0.70 -->
      <g style="fill:#262626;" transform="translate(28.334375 130.231673)scale(0.1 -0.1)">
       <use xlink:href="#DejaVuSans-30"/>
       <use x="63.623047" xlink:href="#DejaVuSans-2e"/>
       <use x="95.410156" xlink:href="#DejaVuSans-37"/>
       <use x="159.033203" xlink:href="#DejaVuSans-30"/>
      </g>
     </g>
    </g>
    <g id="ytick_6">
     <g id="line2d_15">
      <path clip-path="url(#p6758d9bedf)" d="M 57.6 88.749465 
L 414.72 88.749465 
" style="fill:none;stroke:#cccccc;stroke-linecap:round;stroke-width:0.8;"/>
     </g>
     <g id="text_16">
      <!-- 0.75 -->
      <g style="fill:#262626;" transform="translate(28.334375 92.548684)scale(0.1 -0.1)">
       <use xlink:href="#DejaVuSans-30"/>
       <use x="63.623047" xlink:href="#DejaVuSans-2e"/>
       <use x="95.410156" xlink:href="#DejaVuSans-37"/>
       <use x="159.033203" xlink:href="#DejaVuSans-35"/>
      </g>
     </g>
    </g>
    <g id="ytick_7">
     <g id="line2d_16">
      <path clip-path="url(#p6758d9bedf)" d="M 57.6 51.066476 
L 414.72 51.066476 
" style="fill:none;stroke:#cccccc;stroke-linecap:round;stroke-width:0.8;"/>
     </g>
     <g id="text_17">
      <!-- 0.80 -->
      <g style="fill:#262626;" transform="translate(28.334375 54.865695)scale(0.1 -0.1)">
       <defs>
        <path d="M 2034 2216 
Q 1584 2216 1326 1975 
Q 1069 1734 1069 1313 
Q 1069 891 1326 650 
Q 1584 409 2034 409 
Q 2484 409 2743 651 
Q 3003 894 3003 1313 
Q 3003 1734 2745 1975 
Q 2488 2216 2034 2216 
z
M 1403 2484 
Q 997 2584 770 2862 
Q 544 3141 544 3541 
Q 544 4100 942 4425 
Q 1341 4750 2034 4750 
Q 2731 4750 3128 4425 
Q 3525 4100 3525 3541 
Q 3525 3141 3298 2862 
Q 3072 2584 2669 2484 
Q 3125 2378 3379 2068 
Q 3634 1759 3634 1313 
Q 3634 634 3220 271 
Q 2806 -91 2034 -91 
Q 1263 -91 848 271 
Q 434 634 434 1313 
Q 434 1759 690 2068 
Q 947 2378 1403 2484 
z
M 1172 3481 
Q 1172 3119 1398 2916 
Q 1625 2713 2034 2713 
Q 2441 2713 2670 2916 
Q 2900 3119 2900 3481 
Q 2900 3844 2670 4047 
Q 2441 4250 2034 4250 
Q 1625 4250 1398 4047 
Q 1172 3844 1172 3481 
z
" id="DejaVuSans-38" transform="scale(0.015625)"/>
       </defs>
       <use xlink:href="#DejaVuSans-30"/>
       <use x="63.623047" xlink:href="#DejaVuSans-2e"/>
       <use x="95.410156" xlink:href="#DejaVuSans-38"/>
       <use x="159.033203" xlink:href="#DejaVuSans-30"/>
      </g>
     </g>
    </g>
    <g id="text_18">
     <!-- Iteration -->
     <g style="fill:#262626;" transform="translate(22.254687 195.736594)rotate(-90)scale(0.1 -0.1)">
      <defs>
       <path d="M 628 4666 
L 1259 4666 
L 1259 0 
L 628 0 
L 628 4666 
z
" id="DejaVuSans-49" transform="scale(0.015625)"/>
       <path d="M 1172 4494 
L 1172 3500 
L 2356 3500 
L 2356 3053 
L 1172 3053 
L 1172 1153 
Q 1172 725 1289 603 
Q 1406 481 1766 481 
L 2356 481 
L 2356 0 
L 1766 0 
Q 1100 0 847 248 
Q 594 497 594 1153 
L 594 3053 
L 172 3053 
L 172 3500 
L 594 3500 
L 594 4494 
L 1172 4494 
z
" id="DejaVuSans-74" transform="scale(0.015625)"/>
       <path d="M 3597 1894 
L 3597 1613 
L 953 1613 
Q 991 1019 1311 708 
Q 1631 397 2203 397 
Q 2534 397 2845 478 
Q 3156 559 3463 722 
L 3463 178 
Q 3153 47 2828 -22 
Q 2503 -91 2169 -91 
Q 1331 -91 842 396 
Q 353 884 353 1716 
Q 353 2575 817 3079 
Q 1281 3584 2069 3584 
Q 2775 3584 3186 3129 
Q 3597 2675 3597 1894 
z
M 3022 2063 
Q 3016 2534 2758 2815 
Q 2500 3097 2075 3097 
Q 1594 3097 1305 2825 
Q 1016 2553 972 2059 
L 3022 2063 
z
" id="DejaVuSans-65" transform="scale(0.015625)"/>
       <path d="M 2194 1759 
Q 1497 1759 1228 1600 
Q 959 1441 959 1056 
Q 959 750 1161 570 
Q 1363 391 1709 391 
Q 2188 391 2477 730 
Q 2766 1069 2766 1631 
L 2766 1759 
L 2194 1759 
z
M 3341 1997 
L 3341 0 
L 2766 0 
L 2766 531 
Q 2569 213 2275 61 
Q 1981 -91 1556 -91 
Q 1019 -91 701 211 
Q 384 513 384 1019 
Q 384 1609 779 1909 
Q 1175 2209 1959 2209 
L 2766 2209 
L 2766 2266 
Q 2766 2663 2505 2880 
Q 2244 3097 1772 3097 
Q 1472 3097 1187 3025 
Q 903 2953 641 2809 
L 641 3341 
Q 956 3463 1253 3523 
Q 1550 3584 1831 3584 
Q 2591 3584 2966 3190 
Q 3341 2797 3341 1997 
z
" id="DejaVuSans-61" transform="scale(0.015625)"/>
       <path d="M 603 3500 
L 1178 3500 
L 1178 0 
L 603 0 
L 603 3500 
z
M 603 4863 
L 1178 4863 
L 1178 4134 
L 603 4134 
L 603 4863 
z
" id="DejaVuSans-69" transform="scale(0.015625)"/>
       <path d="M 3513 2113 
L 3513 0 
L 2938 0 
L 2938 2094 
Q 2938 2591 2744 2837 
Q 2550 3084 2163 3084 
Q 1697 3084 1428 2787 
Q 1159 2491 1159 1978 
L 1159 0 
L 581 0 
L 581 3500 
L 1159 3500 
L 1159 2956 
Q 1366 3272 1645 3428 
Q 1925 3584 2291 3584 
Q 2894 3584 3203 3211 
Q 3513 2838 3513 2113 
z
" id="DejaVuSans-6e" transform="scale(0.015625)"/>
      </defs>
      <use xlink:href="#DejaVuSans-49"/>
      <use x="29.492188" xlink:href="#DejaVuSans-74"/>
      <use x="68.701172" xlink:href="#DejaVuSans-65"/>
      <use x="130.224609" xlink:href="#DejaVuSans-72"/>
      <use x="171.337891" xlink:href="#DejaVuSans-61"/>
      <use x="232.617188" xlink:href="#DejaVuSans-74"/>
      <use x="271.826172" xlink:href="#DejaVuSans-69"/>
      <use x="299.609375" xlink:href="#DejaVuSans-6f"/>
      <use x="360.791016" xlink:href="#DejaVuSans-6e"/>
     </g>
    </g>
   </g>
   <g id="PolyCollection_1">
    <defs>
     <path d="M 73.832727 -83.887453 
L 73.832727 -63.004735 
L 75.464157 -151.875031 
L 77.095587 -178.578534 
L 78.727017 -243.343372 
L 80.358447 -228.167639 
L 81.989877 -182.514199 
L 83.621307 -87.34522 
L 85.252736 -67.799312 
L 86.884166 -220.55013 
L 88.515596 -208.963733 
L 90.147026 -110.720536 
L 91.778456 -215.139144 
L 93.409886 -64.279968 
L 95.041316 -66.009144 
L 96.672746 -186.533274 
L 98.304175 -175.54861 
L 99.935605 -78.70401 
L 101.567035 -192.046032 
L 103.198465 -117.794449 
L 104.829895 -206.294392 
L 106.461325 -196.432579 
L 108.092755 -161.221805 
L 109.724185 -65.834413 
L 111.355614 -193.117179 
L 112.987044 -50.112 
L 114.618474 -196.909018 
L 116.249904 -233.554579 
L 117.881334 -139.492072 
L 119.512764 -54.24404 
L 121.144194 -144.400675 
L 122.775624 -219.140729 
L 124.407053 -223.283755 
L 126.038483 -153.058214 
L 127.669913 -239.829461 
L 129.301343 -247.918143 
L 130.932773 -241.875042 
L 132.564203 -107.866743 
L 134.195633 -235.104338 
L 135.827063 -245.021491 
L 137.458492 -245.539604 
L 139.089922 -246.956848 
L 140.721352 -251.805107 
L 142.352782 -256.407994 
L 143.984212 -250.678082 
L 145.615642 -246.995116 
L 147.247072 -244.294144 
L 148.878502 -252.192216 
L 150.509931 -247.577985 
L 152.141361 -251.191312 
L 153.772791 -240.99043 
L 155.404221 -247.003792 
L 157.035651 -243.695002 
L 158.667081 -245.394053 
L 160.298511 -242.408528 
L 161.929941 -242.85098 
L 163.56137 -250.962273 
L 165.1928 -249.342146 
L 166.82423 -247.353119 
L 168.45566 -254.779778 
L 170.08709 -251.854446 
L 171.71852 -246.398587 
L 173.34995 -245.407715 
L 174.98138 -250.417146 
L 176.61281 -245.682363 
L 178.244239 -241.035319 
L 179.875669 -248.915357 
L 181.507099 -249.885913 
L 183.138529 -157.257267 
L 184.769959 -248.190472 
L 186.401389 -248.216058 
L 188.032819 -254.501469 
L 189.664249 -252.976273 
L 191.295678 -255.783977 
L 192.927108 -241.095669 
L 194.558538 -253.308611 
L 196.189968 -248.435475 
L 197.821398 -254.385947 
L 199.452828 -245.073266 
L 201.084258 -243.283667 
L 202.715688 -248.652 
L 204.347117 -243.479407 
L 205.978547 -251.553146 
L 207.609977 -249.028317 
L 209.241407 -245.185836 
L 210.872837 -251.239618 
L 212.504267 -250.010607 
L 214.135697 -246.122625 
L 215.767127 -245.007372 
L 217.398556 -252.380171 
L 219.029986 -249.013251 
L 220.661416 -242.641396 
L 222.292846 -244.350735 
L 223.924276 -241.365306 
L 225.555706 -247.532741 
L 227.187136 -254.065181 
L 228.818566 -251.881572 
L 230.449995 -244.881739 
L 232.081425 -246.45359 
L 233.712855 -246.634237 
L 235.344285 -248.699093 
L 236.975715 -252.660003 
L 238.607145 -252.299772 
L 240.238575 -243.764452 
L 241.870005 -248.259337 
L 243.501434 -251.401533 
L 245.132864 -243.485235 
L 246.764294 -252.108455 
L 248.395724 -252.349666 
L 250.027154 -247.585952 
L 251.658584 -250.01629 
L 253.290014 -248.037629 
L 254.921444 -253.646784 
L 256.552873 -248.959663 
L 258.184303 -250.794144 
L 259.815733 -244.742499 
L 261.447163 -256.032083 
L 263.078593 -245.468703 
L 264.710023 -251.416728 
L 266.341453 -248.004254 
L 267.972883 -247.364762 
L 269.604312 -255.776732 
L 271.235742 -255.66098 
L 272.867172 -241.712359 
L 274.498602 -249.658369 
L 276.130032 -240.994183 
L 277.761462 -250.827117 
L 279.392892 -245.66531 
L 281.024322 -249.25728 
L 282.655751 -249.61346 
L 284.287181 -252.767091 
L 285.918611 -251.644478 
L 287.550041 -248.960279 
L 289.181471 -241.364749 
L 290.812901 -239.932238 
L 292.444331 -248.725261 
L 294.075761 -254.953974 
L 295.70719 -253.634132 
L 297.33862 -244.715085 
L 298.97005 -254.743324 
L 300.60148 -246.322888 
L 302.23291 -245.956068 
L 303.86434 -245.030845 
L 305.49577 -245.053352 
L 307.1272 -255.521262 
L 308.75863 -256.248596 
L 310.390059 -240.067002 
L 312.021489 -248.804841 
L 313.652919 -249.494751 
L 315.284349 -253.991143 
L 316.915779 -252.323272 
L 318.547209 -256.397877 
L 320.178639 -250.485575 
L 321.810069 -245.507532 
L 323.441498 -245.161988 
L 325.072928 -245.414372 
L 326.704358 -253.808424 
L 328.335788 -249.824942 
L 329.967218 -249.488103 
L 331.598648 -246.504724 
L 333.230078 -250.255668 
L 334.861508 -256.757515 
L 336.492937 -249.529835 
L 338.124367 -249.939345 
L 339.755797 -250.852467 
L 341.387227 -246.329105 
L 343.018657 -257.717722 
L 344.650087 -249.419859 
L 346.281517 -250.683051 
L 347.912947 -256.860631 
L 349.544376 -247.076293 
L 351.175806 -248.833933 
L 352.807236 -244.771649 
L 354.438666 -238.941188 
L 356.070096 -257.523628 
L 357.701526 -249.370564 
L 359.332956 -254.349749 
L 360.964386 -250.437027 
L 362.595815 -247.717433 
L 364.227245 -246.730406 
L 365.858675 -250.542108 
L 367.490105 -250.483841 
L 369.121535 -245.961842 
L 370.752965 -245.252033 
L 372.384395 -250.853556 
L 374.015825 -254.445291 
L 375.647254 -249.524391 
L 377.278684 -242.471653 
L 378.910114 -248.713749 
L 380.541544 -247.611795 
L 382.172974 -244.723872 
L 383.804404 -247.569967 
L 385.435834 -244.288139 
L 387.067264 -254.286656 
L 388.698693 -249.129365 
L 390.330123 -249.444249 
L 391.961553 -247.858893 
L 393.592983 -248.394078 
L 395.224413 -249.118958 
L 396.855843 -248.544722 
L 398.487273 -249.473379 
L 398.487273 -267.003447 
L 398.487273 -267.003447 
L 396.855843 -266.431967 
L 395.224413 -266.510849 
L 393.592983 -267.32629 
L 391.961553 -262.873324 
L 390.330123 -266.292162 
L 388.698693 -265.667927 
L 387.067264 -263.834906 
L 385.435834 -269.392267 
L 383.804404 -263.41513 
L 382.172974 -267.945081 
L 380.541544 -261.621526 
L 378.910114 -263.192931 
L 377.278684 -263.837222 
L 375.647254 -268.955023 
L 374.015825 -264.943937 
L 372.384395 -264.472436 
L 370.752965 -265.559367 
L 369.121535 -259.906182 
L 367.490105 -263.226791 
L 365.858675 -266.753443 
L 364.227245 -259.431389 
L 362.595815 -261.943133 
L 360.964386 -266.600449 
L 359.332956 -263.583519 
L 357.701526 -262.36474 
L 356.070096 -269.169165 
L 354.438666 -264.731358 
L 352.807236 -266.938647 
L 351.175806 -257.353742 
L 349.544376 -259.884734 
L 347.912947 -267.551731 
L 346.281517 -258.840616 
L 344.650087 -264.648993 
L 343.018657 -265.470139 
L 341.387227 -263.69467 
L 339.755797 -264.408708 
L 338.124367 -261.637707 
L 336.492937 -264.206218 
L 334.861508 -265.767276 
L 333.230078 -260.555962 
L 331.598648 -261.145922 
L 329.967218 -261.524715 
L 328.335788 -256.347403 
L 326.704358 -266.125387 
L 325.072928 -262.617939 
L 323.441498 -264.560982 
L 321.810069 -270.296134 
L 320.178639 -262.153406 
L 318.547209 -269.164907 
L 316.915779 -261.18808 
L 315.284349 -263.848554 
L 313.652919 -264.071535 
L 312.021489 -266.791293 
L 310.390059 -265.509342 
L 308.75863 -261.643622 
L 307.1272 -266.021703 
L 305.49577 -261.587104 
L 303.86434 -265.294515 
L 302.23291 -257.647178 
L 300.60148 -264.814921 
L 298.97005 -264.141269 
L 297.33862 -269.070316 
L 295.70719 -262.517917 
L 294.075761 -270.798917 
L 292.444331 -256.481347 
L 290.812901 -262.510934 
L 289.181471 -268.823575 
L 287.550041 -262.307924 
L 285.918611 -264.147971 
L 284.287181 -266.024206 
L 282.655751 -263.916257 
L 281.024322 -266.761456 
L 279.392892 -264.360992 
L 277.761462 -267.430722 
L 276.130032 -263.52814 
L 274.498602 -266.565415 
L 272.867172 -261.448794 
L 271.235742 -266.604954 
L 269.604312 -260.370536 
L 267.972883 -262.80037 
L 266.341453 -261.724646 
L 264.710023 -260.290695 
L 263.078593 -265.540252 
L 261.447163 -258.525383 
L 259.815733 -263.770152 
L 258.184303 -262.459776 
L 256.552873 -270.37647 
L 254.921444 -268.531808 
L 253.290014 -269.335887 
L 251.658584 -258.970932 
L 250.027154 -260.016954 
L 248.395724 -258.647223 
L 246.764294 -265.00756 
L 245.132864 -254.187545 
L 243.501434 -263.025012 
L 241.870005 -259.628973 
L 240.238575 -263.356987 
L 238.607145 -257.827641 
L 236.975715 -266.845414 
L 235.344285 -262.4506 
L 233.712855 -262.454417 
L 232.081425 -262.200993 
L 230.449995 -258.056874 
L 228.818566 -264.726568 
L 227.187136 -264.030293 
L 225.555706 -262.381074 
L 223.924276 -257.669793 
L 222.292846 -261.732818 
L 220.661416 -261.992634 
L 219.029986 -266.165246 
L 217.398556 -262.001944 
L 215.767127 -261.944944 
L 214.135697 -264.553117 
L 212.504267 -263.968581 
L 210.872837 -263.4088 
L 209.241407 -266.663473 
L 207.609977 -264.420976 
L 205.978547 -261.16819 
L 204.347117 -262.622213 
L 202.715688 -260.278816 
L 201.084258 -261.891981 
L 199.452828 -256.101963 
L 197.821398 -260.067214 
L 196.189968 -272.206502 
L 194.558538 -266.205655 
L 192.927108 -264.939731 
L 191.295678 -266.569715 
L 189.664249 -268.386674 
L 188.032819 -262.490358 
L 186.401389 -264.804726 
L 184.769959 -265.635889 
L 183.138529 -292.032 
L 181.507099 -262.423256 
L 179.875669 -256.628188 
L 178.244239 -259.391658 
L 176.61281 -265.620961 
L 174.98138 -262.64662 
L 173.34995 -259.523418 
L 171.71852 -259.818647 
L 170.08709 -270.287025 
L 168.45566 -266.174175 
L 166.82423 -262.647211 
L 165.1928 -261.548598 
L 163.56137 -268.794278 
L 161.929941 -264.99513 
L 160.298511 -259.436437 
L 158.667081 -263.836418 
L 157.035651 -263.556854 
L 155.404221 -267.028905 
L 153.772791 -265.635753 
L 152.141361 -261.760333 
L 150.509931 -264.547373 
L 148.878502 -263.407941 
L 147.247072 -259.208589 
L 145.615642 -263.682649 
L 143.984212 -262.401475 
L 142.352782 -266.151665 
L 140.721352 -257.642549 
L 139.089922 -261.844954 
L 137.458492 -262.296047 
L 135.827063 -263.484701 
L 134.195633 -258.546947 
L 132.564203 -273.893292 
L 130.932773 -265.014548 
L 129.301343 -263.649532 
L 127.669913 -258.375398 
L 126.038483 -271.490519 
L 124.407053 -274.041124 
L 122.775624 -272.651623 
L 121.144194 -185.520127 
L 119.512764 -90.956478 
L 117.881334 -161.698305 
L 116.249904 -263.335172 
L 114.618474 -218.189515 
L 112.987044 -92.368787 
L 111.355614 -225.260527 
L 109.724185 -123.836543 
L 108.092755 -212.789539 
L 106.461325 -214.23443 
L 104.829895 -231.764076 
L 103.198465 -154.421792 
L 101.567035 -230.823029 
L 99.935605 -103.646464 
L 98.304175 -204.103222 
L 96.672746 -207.218409 
L 95.041316 -97.495083 
L 93.409886 -107.541921 
L 91.778456 -232.728319 
L 90.147026 -130.452763 
L 88.515596 -242.15162 
L 86.884166 -234.036252 
L 85.252736 -80.920664 
L 83.621307 -101.108797 
L 81.989877 -206.28335 
L 80.358447 -248.186654 
L 78.727017 -260.508732 
L 77.095587 -194.162179 
L 75.464157 -249.524347 
L 73.832727 -83.887453 
z
" id="mc950bb8433" style="stroke:#ffffff;stroke-opacity:0.2;"/>
    </defs>
    <g clip-path="url(#p6758d9bedf)">
     <use style="fill:#1f77b4;fill-opacity:0.2;stroke:#ffffff;stroke-opacity:0.2;" x="0" xlink:href="#mc950bb8433" y="345.6"/>
    </g>
   </g>
   <g id="LineCollection_1">
    <path clip-path="url(#p6758d9bedf)" d="M 121.144194 295.488 
L 121.144194 53.568 
" style="fill:none;stroke:#1f77b4;stroke-dasharray:5.55,2.4;stroke-dashoffset:0;stroke-width:1.5;"/>
   </g>
   <g id="line2d_17">
    <path clip-path="url(#p6758d9bedf)" d="M 73.832727 272.153906 
L 75.464157 144.900311 
L 77.095587 159.229644 
L 78.727017 93.673948 
L 80.358447 107.422853 
L 81.989877 151.201225 
L 83.621307 251.372992 
L 85.252736 271.240012 
L 86.884166 118.306809 
L 88.515596 120.042323 
L 90.147026 225.013351 
L 91.778456 121.666269 
L 93.409886 259.689056 
L 95.041316 263.847886 
L 96.672746 148.724158 
L 98.304175 155.774084 
L 99.935605 254.424763 
L 101.567035 134.16547 
L 103.198465 209.491879 
L 104.829895 126.570766 
L 106.461325 140.266496 
L 108.092755 158.594328 
L 109.724185 250.764522 
L 111.355614 136.411147 
L 112.987044 274.359606 
L 114.618474 138.050734 
L 116.249904 97.155124 
L 117.881334 195.004812 
L 119.512764 272.999741 
L 121.144194 180.639599 
L 122.775624 99.703824 
L 124.407053 96.93756 
L 126.038483 133.325634 
L 127.669913 96.497571 
L 129.301343 89.816163 
L 130.932773 92.155205 
L 132.564203 154.719982 
L 134.195633 98.774358 
L 135.827063 91.346904 
L 137.458492 91.682174 
L 139.089922 91.199099 
L 140.721352 90.876172 
L 142.352782 84.32017 
L 143.984212 89.060222 
L 145.615642 90.261117 
L 147.247072 93.848634 
L 148.878502 87.799922 
L 150.509931 89.537321 
L 152.141361 89.124177 
L 153.772791 92.286909 
L 155.404221 88.583652 
L 157.035651 91.974072 
L 158.667081 90.984764 
L 160.298511 94.677518 
L 161.929941 91.676945 
L 163.56137 85.721725 
L 165.1928 90.154628 
L 166.82423 90.599835 
L 168.45566 85.123024 
L 170.08709 84.529265 
L 171.71852 92.491383 
L 173.34995 93.134433 
L 174.98138 89.068117 
L 176.61281 89.948338 
L 178.244239 95.386512 
L 179.875669 92.828228 
L 181.507099 89.445415 
L 183.138529 120.955367 
L 184.769959 88.68682 
L 186.401389 89.089608 
L 188.032819 87.104086 
L 189.664249 84.918526 
L 191.295678 84.423154 
L 192.927108 92.5823 
L 194.558538 85.842867 
L 196.189968 85.279011 
L 197.821398 88.37342 
L 199.452828 95.012385 
L 202.715688 91.134592 
L 204.347117 92.54919 
L 205.978547 89.239332 
L 207.609977 88.875354 
L 209.241407 89.675345 
L 210.872837 88.275791 
L 212.504267 88.610406 
L 214.135697 90.262129 
L 215.767127 92.123842 
L 217.398556 88.408943 
L 219.029986 88.010751 
L 220.661416 93.282985 
L 222.292846 92.558223 
L 223.924276 96.082451 
L 225.555706 90.643093 
L 227.187136 86.552263 
L 228.818566 87.29593 
L 230.449995 94.130694 
L 232.081425 91.272709 
L 233.712855 91.055673 
L 235.344285 90.025154 
L 236.975715 85.847291 
L 238.607145 90.536293 
L 240.238575 92.03928 
L 241.870005 91.655845 
L 243.501434 88.386728 
L 245.132864 96.76361 
L 246.764294 87.041992 
L 248.395724 90.101556 
L 250.027154 91.798547 
L 251.658584 91.106389 
L 253.290014 86.913242 
L 254.921444 84.510704 
L 256.552873 85.931934 
L 258.184303 88.97304 
L 259.815733 91.343675 
L 261.447163 88.321267 
L 263.078593 90.095522 
L 264.710023 89.746289 
L 266.341453 90.73555 
L 267.972883 90.517434 
L 271.235742 84.467033 
L 272.867172 94.019423 
L 274.498602 87.488108 
L 276.130032 93.338839 
L 277.761462 86.47108 
L 279.392892 90.586849 
L 281.024322 87.590632 
L 282.655751 88.835142 
L 284.287181 86.204351 
L 285.918611 87.703776 
L 287.550041 89.965898 
L 289.181471 90.505838 
L 290.812901 94.378414 
L 292.444331 92.996696 
L 294.075761 82.723554 
L 295.70719 87.523976 
L 297.33862 88.707299 
L 298.97005 86.157703 
L 302.23291 93.798377 
L 303.86434 90.43732 
L 305.49577 92.279772 
L 307.1272 84.828517 
L 308.75863 86.653891 
L 310.390059 92.811828 
L 312.021489 87.801933 
L 313.652919 88.816857 
L 315.284349 86.680152 
L 316.915779 88.844324 
L 318.547209 82.818608 
L 320.178639 89.28051 
L 321.810069 87.698167 
L 323.441498 90.738515 
L 325.072928 91.583845 
L 326.704358 85.633095 
L 328.335788 92.513828 
L 329.967218 90.093591 
L 331.598648 91.774677 
L 333.230078 90.194185 
L 334.861508 84.337604 
L 336.492937 88.731974 
L 338.124367 89.811474 
L 339.755797 87.969413 
L 341.387227 90.588113 
L 343.018657 84.006069 
L 344.650087 88.565574 
L 346.281517 90.838166 
L 347.912947 83.393819 
L 349.544376 92.119486 
L 351.175806 92.506162 
L 352.807236 89.744852 
L 354.438666 93.763727 
L 356.070096 82.253604 
L 357.701526 89.732348 
L 359.332956 86.633366 
L 360.964386 87.081262 
L 362.595815 90.769717 
L 364.227245 92.519103 
L 365.858675 86.952225 
L 367.490105 88.744684 
L 369.121535 92.665988 
L 370.752965 90.1943 
L 372.384395 87.937004 
L 374.015825 85.905386 
L 375.647254 86.360293 
L 377.278684 92.445562 
L 378.910114 89.64666 
L 380.541544 90.983339 
L 382.172974 89.265524 
L 383.804404 90.107451 
L 385.435834 88.759797 
L 387.067264 86.539219 
L 388.698693 88.201354 
L 390.330123 87.731794 
L 391.961553 90.233892 
L 393.592983 87.739816 
L 395.224413 87.785096 
L 396.855843 88.111655 
L 398.487273 87.361587 
L 398.487273 87.361587 
" style="fill:none;stroke:#1f77b4;stroke-linecap:round;stroke-width:1.5;"/>
   </g>
   <g id="patch_3">
    <path d="M 57.6 307.584 
L 57.6 41.472 
" style="fill:none;stroke:#cccccc;stroke-linecap:square;stroke-linejoin:miter;stroke-width:0.8;"/>
   </g>
   <g id="patch_4">
    <path d="M 414.72 307.584 
L 414.72 41.472 
" style="fill:none;stroke:#cccccc;stroke-linecap:square;stroke-linejoin:miter;stroke-width:0.8;"/>
   </g>
   <g id="patch_5">
    <path d="M 57.6 307.584 
L 414.72 307.584 
" style="fill:none;stroke:#cccccc;stroke-linecap:square;stroke-linejoin:miter;stroke-width:0.8;"/>
   </g>
   <g id="patch_6">
    <path d="M 57.6 41.472 
L 414.72 41.472 
" style="fill:none;stroke:#cccccc;stroke-linecap:square;stroke-linejoin:miter;stroke-width:0.8;"/>
   </g>
   <g id="text_19">
    <!-- Model performance vs. # of iterations -->
    <g style="fill:#262626;" transform="translate(122.314688 35.472)scale(0.12 -0.12)">
     <defs>
      <path d="M 628 4666 
L 1569 4666 
L 2759 1491 
L 3956 4666 
L 4897 4666 
L 4897 0 
L 4281 0 
L 4281 4097 
L 3078 897 
L 2444 897 
L 1241 4097 
L 1241 0 
L 628 0 
L 628 4666 
z
" id="DejaVuSans-4d" transform="scale(0.015625)"/>
      <path d="M 2906 2969 
L 2906 4863 
L 3481 4863 
L 3481 0 
L 2906 0 
L 2906 525 
Q 2725 213 2448 61 
Q 2172 -91 1784 -91 
Q 1150 -91 751 415 
Q 353 922 353 1747 
Q 353 2572 751 3078 
Q 1150 3584 1784 3584 
Q 2172 3584 2448 3432 
Q 2725 3281 2906 2969 
z
M 947 1747 
Q 947 1113 1208 752 
Q 1469 391 1925 391 
Q 2381 391 2643 752 
Q 2906 1113 2906 1747 
Q 2906 2381 2643 2742 
Q 2381 3103 1925 3103 
Q 1469 3103 1208 2742 
Q 947 2381 947 1747 
z
" id="DejaVuSans-64" transform="scale(0.015625)"/>
      <path d="M 603 4863 
L 1178 4863 
L 1178 0 
L 603 0 
L 603 4863 
z
" id="DejaVuSans-6c" transform="scale(0.015625)"/>
      <path id="DejaVuSans-20" transform="scale(0.015625)"/>
      <path d="M 1159 525 
L 1159 -1331 
L 581 -1331 
L 581 3500 
L 1159 3500 
L 1159 2969 
Q 1341 3281 1617 3432 
Q 1894 3584 2278 3584 
Q 2916 3584 3314 3078 
Q 3713 2572 3713 1747 
Q 3713 922 3314 415 
Q 2916 -91 2278 -91 
Q 1894 -91 1617 61 
Q 1341 213 1159 525 
z
M 3116 1747 
Q 3116 2381 2855 2742 
Q 2594 3103 2138 3103 
Q 1681 3103 1420 2742 
Q 1159 2381 1159 1747 
Q 1159 1113 1420 752 
Q 1681 391 2138 391 
Q 2594 391 2855 752 
Q 3116 1113 3116 1747 
z
" id="DejaVuSans-70" transform="scale(0.015625)"/>
      <path d="M 2375 4863 
L 2375 4384 
L 1825 4384 
Q 1516 4384 1395 4259 
Q 1275 4134 1275 3809 
L 1275 3500 
L 2222 3500 
L 2222 3053 
L 1275 3053 
L 1275 0 
L 697 0 
L 697 3053 
L 147 3053 
L 147 3500 
L 697 3500 
L 697 3744 
Q 697 4328 969 4595 
Q 1241 4863 1831 4863 
L 2375 4863 
z
" id="DejaVuSans-66" transform="scale(0.015625)"/>
      <path d="M 3328 2828 
Q 3544 3216 3844 3400 
Q 4144 3584 4550 3584 
Q 5097 3584 5394 3201 
Q 5691 2819 5691 2113 
L 5691 0 
L 5113 0 
L 5113 2094 
Q 5113 2597 4934 2840 
Q 4756 3084 4391 3084 
Q 3944 3084 3684 2787 
Q 3425 2491 3425 1978 
L 3425 0 
L 2847 0 
L 2847 2094 
Q 2847 2600 2669 2842 
Q 2491 3084 2119 3084 
Q 1678 3084 1418 2786 
Q 1159 2488 1159 1978 
L 1159 0 
L 581 0 
L 581 3500 
L 1159 3500 
L 1159 2956 
Q 1356 3278 1631 3431 
Q 1906 3584 2284 3584 
Q 2666 3584 2933 3390 
Q 3200 3197 3328 2828 
z
" id="DejaVuSans-6d" transform="scale(0.015625)"/>
      <path d="M 191 3500 
L 800 3500 
L 1894 563 
L 2988 3500 
L 3597 3500 
L 2284 0 
L 1503 0 
L 191 3500 
z
" id="DejaVuSans-76" transform="scale(0.015625)"/>
      <path d="M 2834 3397 
L 2834 2853 
Q 2591 2978 2328 3040 
Q 2066 3103 1784 3103 
Q 1356 3103 1142 2972 
Q 928 2841 928 2578 
Q 928 2378 1081 2264 
Q 1234 2150 1697 2047 
L 1894 2003 
Q 2506 1872 2764 1633 
Q 3022 1394 3022 966 
Q 3022 478 2636 193 
Q 2250 -91 1575 -91 
Q 1294 -91 989 -36 
Q 684 19 347 128 
L 347 722 
Q 666 556 975 473 
Q 1284 391 1588 391 
Q 1994 391 2212 530 
Q 2431 669 2431 922 
Q 2431 1156 2273 1281 
Q 2116 1406 1581 1522 
L 1381 1569 
Q 847 1681 609 1914 
Q 372 2147 372 2553 
Q 372 3047 722 3315 
Q 1072 3584 1716 3584 
Q 2034 3584 2315 3537 
Q 2597 3491 2834 3397 
z
" id="DejaVuSans-73" transform="scale(0.015625)"/>
      <path d="M 3272 2816 
L 2363 2816 
L 2100 1772 
L 3016 1772 
L 3272 2816 
z
M 2803 4594 
L 2478 3297 
L 3391 3297 
L 3719 4594 
L 4219 4594 
L 3897 3297 
L 4872 3297 
L 4872 2816 
L 3775 2816 
L 3519 1772 
L 4513 1772 
L 4513 1294 
L 3397 1294 
L 3072 0 
L 2572 0 
L 2894 1294 
L 1978 1294 
L 1656 0 
L 1153 0 
L 1478 1294 
L 494 1294 
L 494 1772 
L 1594 1772 
L 1856 2816 
L 850 2816 
L 850 3297 
L 1978 3297 
L 2297 4594 
L 2803 4594 
z
" id="DejaVuSans-23" transform="scale(0.015625)"/>
     </defs>
     <use xlink:href="#DejaVuSans-4d"/>
     <use x="86.279297" xlink:href="#DejaVuSans-6f"/>
     <use x="147.460938" xlink:href="#DejaVuSans-64"/>
     <use x="210.9375" xlink:href="#DejaVuSans-65"/>
     <use x="272.460938" xlink:href="#DejaVuSans-6c"/>
     <use x="300.244141" xlink:href="#DejaVuSans-20"/>
     <use x="332.03125" xlink:href="#DejaVuSans-70"/>
     <use x="395.507812" xlink:href="#DejaVuSans-65"/>
     <use x="457.03125" xlink:href="#DejaVuSans-72"/>
     <use x="498.144531" xlink:href="#DejaVuSans-66"/>
     <use x="533.349609" xlink:href="#DejaVuSans-6f"/>
     <use x="594.53125" xlink:href="#DejaVuSans-72"/>
     <use x="633.894531" xlink:href="#DejaVuSans-6d"/>
     <use x="731.306641" xlink:href="#DejaVuSans-61"/>
     <use x="792.585938" xlink:href="#DejaVuSans-6e"/>
     <use x="855.964844" xlink:href="#DejaVuSans-63"/>
     <use x="910.945312" xlink:href="#DejaVuSans-65"/>
     <use x="972.46875" xlink:href="#DejaVuSans-20"/>
     <use x="1004.255859" xlink:href="#DejaVuSans-76"/>
     <use x="1063.435547" xlink:href="#DejaVuSans-73"/>
     <use x="1115.535156" xlink:href="#DejaVuSans-2e"/>
     <use x="1147.322266" xlink:href="#DejaVuSans-20"/>
     <use x="1179.109375" xlink:href="#DejaVuSans-23"/>
     <use x="1262.898438" xlink:href="#DejaVuSans-20"/>
     <use x="1294.685547" xlink:href="#DejaVuSans-6f"/>
     <use x="1355.867188" xlink:href="#DejaVuSans-66"/>
     <use x="1391.072266" xlink:href="#DejaVuSans-20"/>
     <use x="1422.859375" xlink:href="#DejaVuSans-69"/>
     <use x="1450.642578" xlink:href="#DejaVuSans-74"/>
     <use x="1489.851562" xlink:href="#DejaVuSans-65"/>
     <use x="1551.375" xlink:href="#DejaVuSans-72"/>
     <use x="1592.488281" xlink:href="#DejaVuSans-61"/>
     <use x="1653.767578" xlink:href="#DejaVuSans-74"/>
     <use x="1692.976562" xlink:href="#DejaVuSans-69"/>
     <use x="1720.759766" xlink:href="#DejaVuSans-6f"/>
     <use x="1781.941406" xlink:href="#DejaVuSans-6e"/>
     <use x="1845.320312" xlink:href="#DejaVuSans-73"/>
    </g>
   </g>
  </g>
 </g>
 <defs>
  <clipPath id="p6758d9bedf">
   <rect height="266.112" width="357.12" x="57.6" y="41.472"/>
  </clipPath>
 </defs>
</svg>
