<?xml version="1.0" encoding="utf-8" standalone="no"?>
<!DOCTYPE svg PUBLIC "-//W3C//DTD SVG 1.1//EN"
  "http://www.w3.org/Graphics/SVG/1.1/DTD/svg11.dtd">
<svg xmlns:xlink="http://www.w3.org/1999/xlink" width="460.8pt" height="345.6pt" viewBox="0 0 460.8 345.6" xmlns="http://www.w3.org/2000/svg" version="1.1">
 <metadata>
  <rdf:RDF xmlns:dc="http://purl.org/dc/elements/1.1/" xmlns:cc="http://creativecommons.org/ns#" xmlns:rdf="http://www.w3.org/1999/02/22-rdf-syntax-ns#">
   <cc:Work>
    <dc:type rdf:resource="http://purl.org/dc/dcmitype/StillImage"/>
    <dc:date>2022-05-25T04:24:06.191280</dc:date>
    <dc:format>image/svg+xml</dc:format>
    <dc:creator>
     <cc:Agent>
      <dc:title>Matplotlib v3.5.2, https://matplotlib.org/</dc:title>
     </cc:Agent>
    </dc:creator>
   </cc:Work>
  </rdf:RDF>
 </metadata>
 <defs>
  <style type="text/css">*{stroke-linejoin: round; stroke-linecap: butt}</style>
 </defs>
 <g id="figure_1">
  <g id="patch_1">
   <path d="M 0 345.6 
L 460.8 345.6 
L 460.8 0 
L 0 0 
z
" style="fill: #ffffff"/>
  </g>
  <g id="axes_1">
   <g id="patch_2">
    <path d="M 57.6 307.584 
L 414.72 307.584 
L 414.72 41.472 
L 57.6 41.472 
z
" style="fill: #ffffff"/>
   </g>
   <g id="matplotlib.axis_1">
    <g id="xtick_1">
     <g id="line2d_1">
      <path d="M 72.201297 307.584 
L 72.201297 41.472 
" clip-path="url(#pcdaf6a7ca8)" style="fill: none; stroke: #cccccc; stroke-width: 0.8; stroke-linecap: round"/>
     </g>
     <g id="text_1">
      <!-- 0 -->
      <g style="fill: #262626" transform="translate(69.020047 322.182437)scale(0.1 -0.1)">
       <defs>
        <path id="DejaVuSans-30" d="M 2034 4250 
Q 1547 4250 1301 3770 
Q 1056 3291 1056 2328 
Q 1056 1369 1301 889 
Q 1547 409 2034 409 
Q 2525 409 2770 889 
Q 3016 1369 3016 2328 
Q 3016 3291 2770 3770 
Q 2525 4250 2034 4250 
z
M 2034 4750 
Q 2819 4750 3233 4129 
Q 3647 3509 3647 2328 
Q 3647 1150 3233 529 
Q 2819 -91 2034 -91 
Q 1250 -91 836 529 
Q 422 1150 422 2328 
Q 422 3509 836 4129 
Q 1250 4750 2034 4750 
z
" transform="scale(0.015625)"/>
       </defs>
       <use xlink:href="#DejaVuSans-30"/>
      </g>
     </g>
    </g>
    <g id="xtick_2">
     <g id="line2d_2">
      <path d="M 112.987044 307.584 
L 112.987044 41.472 
" clip-path="url(#pcdaf6a7ca8)" style="fill: none; stroke: #cccccc; stroke-width: 0.8; stroke-linecap: round"/>
     </g>
     <g id="text_2">
      <!-- 25 -->
      <g style="fill: #262626" transform="translate(106.624544 322.182437)scale(0.1 -0.1)">
       <defs>
        <path id="DejaVuSans-32" d="M 1228 531 
L 3431 531 
L 3431 0 
L 469 0 
L 469 531 
Q 828 903 1448 1529 
Q 2069 2156 2228 2338 
Q 2531 2678 2651 2914 
Q 2772 3150 2772 3378 
Q 2772 3750 2511 3984 
Q 2250 4219 1831 4219 
Q 1534 4219 1204 4116 
Q 875 4013 500 3803 
L 500 4441 
Q 881 4594 1212 4672 
Q 1544 4750 1819 4750 
Q 2544 4750 2975 4387 
Q 3406 4025 3406 3419 
Q 3406 3131 3298 2873 
Q 3191 2616 2906 2266 
Q 2828 2175 2409 1742 
Q 1991 1309 1228 531 
z
" transform="scale(0.015625)"/>
        <path id="DejaVuSans-35" d="M 691 4666 
L 3169 4666 
L 3169 4134 
L 1269 4134 
L 1269 2991 
Q 1406 3038 1543 3061 
Q 1681 3084 1819 3084 
Q 2600 3084 3056 2656 
Q 3513 2228 3513 1497 
Q 3513 744 3044 326 
Q 2575 -91 1722 -91 
Q 1428 -91 1123 -41 
Q 819 9 494 109 
L 494 744 
Q 775 591 1075 516 
Q 1375 441 1709 441 
Q 2250 441 2565 725 
Q 2881 1009 2881 1497 
Q 2881 1984 2565 2268 
Q 2250 2553 1709 2553 
Q 1456 2553 1204 2497 
Q 953 2441 691 2322 
L 691 4666 
z
" transform="scale(0.015625)"/>
       </defs>
       <use xlink:href="#DejaVuSans-32"/>
       <use xlink:href="#DejaVuSans-35" x="63.623047"/>
      </g>
     </g>
    </g>
    <g id="xtick_3">
     <g id="line2d_3">
      <path d="M 153.772791 307.584 
L 153.772791 41.472 
" clip-path="url(#pcdaf6a7ca8)" style="fill: none; stroke: #cccccc; stroke-width: 0.8; stroke-linecap: round"/>
     </g>
     <g id="text_3">
      <!-- 50 -->
      <g style="fill: #262626" transform="translate(147.410291 322.182437)scale(0.1 -0.1)">
       <use xlink:href="#DejaVuSans-35"/>
       <use xlink:href="#DejaVuSans-30" x="63.623047"/>
      </g>
     </g>
    </g>
    <g id="xtick_4">
     <g id="line2d_4">
      <path d="M 194.558538 307.584 
L 194.558538 41.472 
" clip-path="url(#pcdaf6a7ca8)" style="fill: none; stroke: #cccccc; stroke-width: 0.8; stroke-linecap: round"/>
     </g>
     <g id="text_4">
      <!-- 75 -->
      <g style="fill: #262626" transform="translate(188.196038 322.182437)scale(0.1 -0.1)">
       <defs>
        <path id="DejaVuSans-37" d="M 525 4666 
L 3525 4666 
L 3525 4397 
L 1831 0 
L 1172 0 
L 2766 4134 
L 525 4134 
L 525 4666 
z
" transform="scale(0.015625)"/>
       </defs>
       <use xlink:href="#DejaVuSans-37"/>
       <use xlink:href="#DejaVuSans-35" x="63.623047"/>
      </g>
     </g>
    </g>
    <g id="xtick_5">
     <g id="line2d_5">
      <path d="M 235.344285 307.584 
L 235.344285 41.472 
" clip-path="url(#pcdaf6a7ca8)" style="fill: none; stroke: #cccccc; stroke-width: 0.8; stroke-linecap: round"/>
     </g>
     <g id="text_5">
      <!-- 100 -->
      <g style="fill: #262626" transform="translate(225.800535 322.182437)scale(0.1 -0.1)">
       <defs>
        <path id="DejaVuSans-31" d="M 794 531 
L 1825 531 
L 1825 4091 
L 703 3866 
L 703 4441 
L 1819 4666 
L 2450 4666 
L 2450 531 
L 3481 531 
L 3481 0 
L 794 0 
L 794 531 
z
" transform="scale(0.015625)"/>
       </defs>
       <use xlink:href="#DejaVuSans-31"/>
       <use xlink:href="#DejaVuSans-30" x="63.623047"/>
       <use xlink:href="#DejaVuSans-30" x="127.246094"/>
      </g>
     </g>
    </g>
    <g id="xtick_6">
     <g id="line2d_6">
      <path d="M 276.130032 307.584 
L 276.130032 41.472 
" clip-path="url(#pcdaf6a7ca8)" style="fill: none; stroke: #cccccc; stroke-width: 0.8; stroke-linecap: round"/>
     </g>
     <g id="text_6">
      <!-- 125 -->
      <g style="fill: #262626" transform="translate(266.586282 322.182437)scale(0.1 -0.1)">
       <use xlink:href="#DejaVuSans-31"/>
       <use xlink:href="#DejaVuSans-32" x="63.623047"/>
       <use xlink:href="#DejaVuSans-35" x="127.246094"/>
      </g>
     </g>
    </g>
    <g id="xtick_7">
     <g id="line2d_7">
      <path d="M 316.915779 307.584 
L 316.915779 41.472 
" clip-path="url(#pcdaf6a7ca8)" style="fill: none; stroke: #cccccc; stroke-width: 0.8; stroke-linecap: round"/>
     </g>
     <g id="text_7">
      <!-- 150 -->
      <g style="fill: #262626" transform="translate(307.372029 322.182437)scale(0.1 -0.1)">
       <use xlink:href="#DejaVuSans-31"/>
       <use xlink:href="#DejaVuSans-35" x="63.623047"/>
       <use xlink:href="#DejaVuSans-30" x="127.246094"/>
      </g>
     </g>
    </g>
    <g id="xtick_8">
     <g id="line2d_8">
      <path d="M 357.701526 307.584 
L 357.701526 41.472 
" clip-path="url(#pcdaf6a7ca8)" style="fill: none; stroke: #cccccc; stroke-width: 0.8; stroke-linecap: round"/>
     </g>
     <g id="text_8">
      <!-- 175 -->
      <g style="fill: #262626" transform="translate(348.157776 322.182437)scale(0.1 -0.1)">
       <use xlink:href="#DejaVuSans-31"/>
       <use xlink:href="#DejaVuSans-37" x="63.623047"/>
       <use xlink:href="#DejaVuSans-35" x="127.246094"/>
      </g>
     </g>
    </g>
    <g id="xtick_9">
     <g id="line2d_9">
      <path d="M 398.487273 307.584 
L 398.487273 41.472 
" clip-path="url(#pcdaf6a7ca8)" style="fill: none; stroke: #cccccc; stroke-width: 0.8; stroke-linecap: round"/>
     </g>
     <g id="text_9">
      <!-- 200 -->
      <g style="fill: #262626" transform="translate(388.943523 322.182437)scale(0.1 -0.1)">
       <use xlink:href="#DejaVuSans-32"/>
       <use xlink:href="#DejaVuSans-30" x="63.623047"/>
       <use xlink:href="#DejaVuSans-30" x="127.246094"/>
      </g>
     </g>
    </g>
    <g id="text_10">
     <!-- Iteration -->
     <g style="fill: #262626" transform="translate(214.951406 335.860562)scale(0.1 -0.1)">
      <defs>
       <path id="DejaVuSans-49" d="M 628 4666 
L 1259 4666 
L 1259 0 
L 628 0 
L 628 4666 
z
" transform="scale(0.015625)"/>
       <path id="DejaVuSans-74" d="M 1172 4494 
L 1172 3500 
L 2356 3500 
L 2356 3053 
L 1172 3053 
L 1172 1153 
Q 1172 725 1289 603 
Q 1406 481 1766 481 
L 2356 481 
L 2356 0 
L 1766 0 
Q 1100 0 847 248 
Q 594 497 594 1153 
L 594 3053 
L 172 3053 
L 172 3500 
L 594 3500 
L 594 4494 
L 1172 4494 
z
" transform="scale(0.015625)"/>
       <path id="DejaVuSans-65" d="M 3597 1894 
L 3597 1613 
L 953 1613 
Q 991 1019 1311 708 
Q 1631 397 2203 397 
Q 2534 397 2845 478 
Q 3156 559 3463 722 
L 3463 178 
Q 3153 47 2828 -22 
Q 2503 -91 2169 -91 
Q 1331 -91 842 396 
Q 353 884 353 1716 
Q 353 2575 817 3079 
Q 1281 3584 2069 3584 
Q 2775 3584 3186 3129 
Q 3597 2675 3597 1894 
z
M 3022 2063 
Q 3016 2534 2758 2815 
Q 2500 3097 2075 3097 
Q 1594 3097 1305 2825 
Q 1016 2553 972 2059 
L 3022 2063 
z
" transform="scale(0.015625)"/>
       <path id="DejaVuSans-72" d="M 2631 2963 
Q 2534 3019 2420 3045 
Q 2306 3072 2169 3072 
Q 1681 3072 1420 2755 
Q 1159 2438 1159 1844 
L 1159 0 
L 581 0 
L 581 3500 
L 1159 3500 
L 1159 2956 
Q 1341 3275 1631 3429 
Q 1922 3584 2338 3584 
Q 2397 3584 2469 3576 
Q 2541 3569 2628 3553 
L 2631 2963 
z
" transform="scale(0.015625)"/>
       <path id="DejaVuSans-61" d="M 2194 1759 
Q 1497 1759 1228 1600 
Q 959 1441 959 1056 
Q 959 750 1161 570 
Q 1363 391 1709 391 
Q 2188 391 2477 730 
Q 2766 1069 2766 1631 
L 2766 1759 
L 2194 1759 
z
M 3341 1997 
L 3341 0 
L 2766 0 
L 2766 531 
Q 2569 213 2275 61 
Q 1981 -91 1556 -91 
Q 1019 -91 701 211 
Q 384 513 384 1019 
Q 384 1609 779 1909 
Q 1175 2209 1959 2209 
L 2766 2209 
L 2766 2266 
Q 2766 2663 2505 2880 
Q 2244 3097 1772 3097 
Q 1472 3097 1187 3025 
Q 903 2953 641 2809 
L 641 3341 
Q 956 3463 1253 3523 
Q 1550 3584 1831 3584 
Q 2591 3584 2966 3190 
Q 3341 2797 3341 1997 
z
" transform="scale(0.015625)"/>
       <path id="DejaVuSans-69" d="M 603 3500 
L 1178 3500 
L 1178 0 
L 603 0 
L 603 3500 
z
M 603 4863 
L 1178 4863 
L 1178 4134 
L 603 4134 
L 603 4863 
z
" transform="scale(0.015625)"/>
       <path id="DejaVuSans-6f" d="M 1959 3097 
Q 1497 3097 1228 2736 
Q 959 2375 959 1747 
Q 959 1119 1226 758 
Q 1494 397 1959 397 
Q 2419 397 2687 759 
Q 2956 1122 2956 1747 
Q 2956 2369 2687 2733 
Q 2419 3097 1959 3097 
z
M 1959 3584 
Q 2709 3584 3137 3096 
Q 3566 2609 3566 1747 
Q 3566 888 3137 398 
Q 2709 -91 1959 -91 
Q 1206 -91 779 398 
Q 353 888 353 1747 
Q 353 2609 779 3096 
Q 1206 3584 1959 3584 
z
" transform="scale(0.015625)"/>
       <path id="DejaVuSans-6e" d="M 3513 2113 
L 3513 0 
L 2938 0 
L 2938 2094 
Q 2938 2591 2744 2837 
Q 2550 3084 2163 3084 
Q 1697 3084 1428 2787 
Q 1159 2491 1159 1978 
L 1159 0 
L 581 0 
L 581 3500 
L 1159 3500 
L 1159 2956 
Q 1366 3272 1645 3428 
Q 1925 3584 2291 3584 
Q 2894 3584 3203 3211 
Q 3513 2838 3513 2113 
z
" transform="scale(0.015625)"/>
      </defs>
      <use xlink:href="#DejaVuSans-49"/>
      <use xlink:href="#DejaVuSans-74" x="29.492188"/>
      <use xlink:href="#DejaVuSans-65" x="68.701172"/>
      <use xlink:href="#DejaVuSans-72" x="130.224609"/>
      <use xlink:href="#DejaVuSans-61" x="171.337891"/>
      <use xlink:href="#DejaVuSans-74" x="232.617188"/>
      <use xlink:href="#DejaVuSans-69" x="271.826172"/>
      <use xlink:href="#DejaVuSans-6f" x="299.609375"/>
      <use xlink:href="#DejaVuSans-6e" x="360.791016"/>
     </g>
    </g>
   </g>
   <g id="matplotlib.axis_2">
    <g id="ytick_1">
     <g id="line2d_10">
      <path d="M 57.6 305.785264 
L 414.72 305.785264 
" clip-path="url(#pcdaf6a7ca8)" style="fill: none; stroke: #cccccc; stroke-width: 0.8; stroke-linecap: round"/>
     </g>
     <g id="text_11">
      <!-- 0.40 -->
      <g style="fill: #262626" transform="translate(28.334375 309.584482)scale(0.1 -0.1)">
       <defs>
        <path id="DejaVuSans-2e" d="M 684 794 
L 1344 794 
L 1344 0 
L 684 0 
L 684 794 
z
" transform="scale(0.015625)"/>
        <path id="DejaVuSans-34" d="M 2419 4116 
L 825 1625 
L 2419 1625 
L 2419 4116 
z
M 2253 4666 
L 3047 4666 
L 3047 1625 
L 3713 1625 
L 3713 1100 
L 3047 1100 
L 3047 0 
L 2419 0 
L 2419 1100 
L 313 1100 
L 313 1709 
L 2253 4666 
z
" transform="scale(0.015625)"/>
       </defs>
       <use xlink:href="#DejaVuSans-30"/>
       <use xlink:href="#DejaVuSans-2e" x="63.623047"/>
       <use xlink:href="#DejaVuSans-34" x="95.410156"/>
       <use xlink:href="#DejaVuSans-30" x="159.033203"/>
      </g>
     </g>
    </g>
    <g id="ytick_2">
     <g id="line2d_11">
      <path d="M 57.6 259.029722 
L 414.72 259.029722 
" clip-path="url(#pcdaf6a7ca8)" style="fill: none; stroke: #cccccc; stroke-width: 0.8; stroke-linecap: round"/>
     </g>
     <g id="text_12">
      <!-- 0.45 -->
      <g style="fill: #262626" transform="translate(28.334375 262.82894)scale(0.1 -0.1)">
       <use xlink:href="#DejaVuSans-30"/>
       <use xlink:href="#DejaVuSans-2e" x="63.623047"/>
       <use xlink:href="#DejaVuSans-34" x="95.410156"/>
       <use xlink:href="#DejaVuSans-35" x="159.033203"/>
      </g>
     </g>
    </g>
    <g id="ytick_3">
     <g id="line2d_12">
      <path d="M 57.6 212.274179 
L 414.72 212.274179 
" clip-path="url(#pcdaf6a7ca8)" style="fill: none; stroke: #cccccc; stroke-width: 0.8; stroke-linecap: round"/>
     </g>
     <g id="text_13">
      <!-- 0.50 -->
      <g style="fill: #262626" transform="translate(28.334375 216.073398)scale(0.1 -0.1)">
       <use xlink:href="#DejaVuSans-30"/>
       <use xlink:href="#DejaVuSans-2e" x="63.623047"/>
       <use xlink:href="#DejaVuSans-35" x="95.410156"/>
       <use xlink:href="#DejaVuSans-30" x="159.033203"/>
      </g>
     </g>
    </g>
    <g id="ytick_4">
     <g id="line2d_13">
      <path d="M 57.6 165.518637 
L 414.72 165.518637 
" clip-path="url(#pcdaf6a7ca8)" style="fill: none; stroke: #cccccc; stroke-width: 0.8; stroke-linecap: round"/>
     </g>
     <g id="text_14">
      <!-- 0.55 -->
      <g style="fill: #262626" transform="translate(28.334375 169.317856)scale(0.1 -0.1)">
       <use xlink:href="#DejaVuSans-30"/>
       <use xlink:href="#DejaVuSans-2e" x="63.623047"/>
       <use xlink:href="#DejaVuSans-35" x="95.410156"/>
       <use xlink:href="#DejaVuSans-35" x="159.033203"/>
      </g>
     </g>
    </g>
    <g id="ytick_5">
     <g id="line2d_14">
      <path d="M 57.6 118.763095 
L 414.72 118.763095 
" clip-path="url(#pcdaf6a7ca8)" style="fill: none; stroke: #cccccc; stroke-width: 0.8; stroke-linecap: round"/>
     </g>
     <g id="text_15">
      <!-- 0.60 -->
      <g style="fill: #262626" transform="translate(28.334375 122.562314)scale(0.1 -0.1)">
       <defs>
        <path id="DejaVuSans-36" d="M 2113 2584 
Q 1688 2584 1439 2293 
Q 1191 2003 1191 1497 
Q 1191 994 1439 701 
Q 1688 409 2113 409 
Q 2538 409 2786 701 
Q 3034 994 3034 1497 
Q 3034 2003 2786 2293 
Q 2538 2584 2113 2584 
z
M 3366 4563 
L 3366 3988 
Q 3128 4100 2886 4159 
Q 2644 4219 2406 4219 
Q 1781 4219 1451 3797 
Q 1122 3375 1075 2522 
Q 1259 2794 1537 2939 
Q 1816 3084 2150 3084 
Q 2853 3084 3261 2657 
Q 3669 2231 3669 1497 
Q 3669 778 3244 343 
Q 2819 -91 2113 -91 
Q 1303 -91 875 529 
Q 447 1150 447 2328 
Q 447 3434 972 4092 
Q 1497 4750 2381 4750 
Q 2619 4750 2861 4703 
Q 3103 4656 3366 4563 
z
" transform="scale(0.015625)"/>
       </defs>
       <use xlink:href="#DejaVuSans-30"/>
       <use xlink:href="#DejaVuSans-2e" x="63.623047"/>
       <use xlink:href="#DejaVuSans-36" x="95.410156"/>
       <use xlink:href="#DejaVuSans-30" x="159.033203"/>
      </g>
     </g>
    </g>
    <g id="ytick_6">
     <g id="line2d_15">
      <path d="M 57.6 72.007553 
L 414.72 72.007553 
" clip-path="url(#pcdaf6a7ca8)" style="fill: none; stroke: #cccccc; stroke-width: 0.8; stroke-linecap: round"/>
     </g>
     <g id="text_16">
      <!-- 0.65 -->
      <g style="fill: #262626" transform="translate(28.334375 75.806771)scale(0.1 -0.1)">
       <use xlink:href="#DejaVuSans-30"/>
       <use xlink:href="#DejaVuSans-2e" x="63.623047"/>
       <use xlink:href="#DejaVuSans-36" x="95.410156"/>
       <use xlink:href="#DejaVuSans-35" x="159.033203"/>
      </g>
     </g>
    </g>
    <g id="text_17">
     <!-- Auroc -->
     <g style="fill: #262626" transform="translate(22.254688 188.868625)rotate(-90)scale(0.1 -0.1)">
      <defs>
       <path id="DejaVuSans-41" d="M 2188 4044 
L 1331 1722 
L 3047 1722 
L 2188 4044 
z
M 1831 4666 
L 2547 4666 
L 4325 0 
L 3669 0 
L 3244 1197 
L 1141 1197 
L 716 0 
L 50 0 
L 1831 4666 
z
" transform="scale(0.015625)"/>
       <path id="DejaVuSans-75" d="M 544 1381 
L 544 3500 
L 1119 3500 
L 1119 1403 
Q 1119 906 1312 657 
Q 1506 409 1894 409 
Q 2359 409 2629 706 
Q 2900 1003 2900 1516 
L 2900 3500 
L 3475 3500 
L 3475 0 
L 2900 0 
L 2900 538 
Q 2691 219 2414 64 
Q 2138 -91 1772 -91 
Q 1169 -91 856 284 
Q 544 659 544 1381 
z
M 1991 3584 
L 1991 3584 
z
" transform="scale(0.015625)"/>
       <path id="DejaVuSans-63" d="M 3122 3366 
L 3122 2828 
Q 2878 2963 2633 3030 
Q 2388 3097 2138 3097 
Q 1578 3097 1268 2742 
Q 959 2388 959 1747 
Q 959 1106 1268 751 
Q 1578 397 2138 397 
Q 2388 397 2633 464 
Q 2878 531 3122 666 
L 3122 134 
Q 2881 22 2623 -34 
Q 2366 -91 2075 -91 
Q 1284 -91 818 406 
Q 353 903 353 1747 
Q 353 2603 823 3093 
Q 1294 3584 2113 3584 
Q 2378 3584 2631 3529 
Q 2884 3475 3122 3366 
z
" transform="scale(0.015625)"/>
      </defs>
      <use xlink:href="#DejaVuSans-41"/>
      <use xlink:href="#DejaVuSans-75" x="68.408203"/>
      <use xlink:href="#DejaVuSans-72" x="131.787109"/>
      <use xlink:href="#DejaVuSans-6f" x="170.650391"/>
      <use xlink:href="#DejaVuSans-63" x="231.832031"/>
     </g>
    </g>
   </g>
   <g id="PolyCollection_1">
    <defs>
     <path id="m181a0d3466" d="M 73.832727 -245.246977 
L 73.832727 -138.049903 
L 75.464157 -211.08903 
L 77.095587 -151.709562 
L 78.727017 -135.628072 
L 80.358447 -166.264021 
L 81.989877 -199.665374 
L 83.621307 -173.890562 
L 85.252736 -138.644065 
L 86.884166 -122.171241 
L 88.515596 -155.33167 
L 90.147026 -147.050708 
L 91.778456 -177.175867 
L 93.409886 -93.735201 
L 95.041316 -158.148176 
L 96.672746 -70.117147 
L 98.304175 -111.734603 
L 99.935605 -120.488919 
L 101.567035 -179.409929 
L 103.198465 -139.389652 
L 104.829895 -117.042526 
L 106.461325 -109.046849 
L 108.092755 -115.257152 
L 109.724185 -142.504338 
L 111.355614 -177.877467 
L 112.987044 -169.372218 
L 114.618474 -108.081377 
L 116.249904 -148.723509 
L 117.881334 -144.344826 
L 119.512764 -103.37766 
L 121.144194 -125.532867 
L 122.775624 -188.624881 
L 124.407053 -169.515604 
L 126.038483 -164.637962 
L 127.669913 -100.902812 
L 129.301343 -141.21628 
L 130.932773 -78.463482 
L 132.564203 -124.96233 
L 134.195633 -84.259637 
L 135.827063 -189.910648 
L 137.458492 -121.755085 
L 139.089922 -50.112 
L 140.721352 -134.470389 
L 142.352782 -147.147759 
L 143.984212 -158.464723 
L 145.615642 -142.990758 
L 147.247072 -148.447341 
L 148.878502 -188.911689 
L 150.509931 -155.451615 
L 152.141361 -170.323663 
L 153.772791 -131.864181 
L 155.404221 -114.521251 
L 157.035651 -158.545266 
L 158.667081 -204.076733 
L 160.298511 -135.820911 
L 161.929941 -70.059864 
L 163.56137 -155.957013 
L 165.1928 -100.04147 
L 166.82423 -131.283672 
L 168.45566 -98.090904 
L 170.08709 -127.613492 
L 171.71852 -126.286379 
L 173.34995 -156.968294 
L 174.98138 -165.312718 
L 176.61281 -134.384779 
L 178.244239 -100.414664 
L 179.875669 -109.97821 
L 181.507099 -178.808825 
L 183.138529 -80.810754 
L 184.769959 -114.264882 
L 186.401389 -74.077879 
L 188.032819 -87.368693 
L 189.664249 -111.236992 
L 191.295678 -120.617084 
L 192.927108 -137.602693 
L 194.558538 -95.985739 
L 196.189968 -145.050597 
L 197.821398 -93.100281 
L 199.452828 -121.333559 
L 201.084258 -73.95417 
L 202.715688 -113.812057 
L 204.347117 -105.333938 
L 205.978547 -118.696647 
L 207.609977 -109.463652 
L 209.241407 -164.874726 
L 210.872837 -147.717083 
L 212.504267 -171.878902 
L 214.135697 -98.26513 
L 215.767127 -147.066912 
L 217.398556 -113.208364 
L 219.029986 -80.469226 
L 220.661416 -146.597712 
L 222.292846 -129.584831 
L 223.924276 -168.587594 
L 225.555706 -129.177195 
L 227.187136 -133.084193 
L 228.818566 -133.300095 
L 230.449995 -67.057681 
L 232.081425 -101.422501 
L 233.712855 -110.513276 
L 235.344285 -91.628597 
L 236.975715 -97.358046 
L 238.607145 -139.689697 
L 240.238575 -147.096932 
L 241.870005 -185.254553 
L 243.501434 -169.789675 
L 245.132864 -155.880306 
L 246.764294 -119.128626 
L 248.395724 -145.480952 
L 250.027154 -103.0879 
L 251.658584 -89.597175 
L 253.290014 -154.810266 
L 254.921444 -94.165696 
L 256.552873 -95.64727 
L 258.184303 -134.169241 
L 259.815733 -146.945337 
L 261.447163 -146.282258 
L 263.078593 -138.426017 
L 264.710023 -112.850601 
L 266.341453 -172.943 
L 267.972883 -184.610332 
L 269.604312 -129.462196 
L 271.235742 -112.590221 
L 272.867172 -141.115251 
L 274.498602 -105.778951 
L 276.130032 -68.723703 
L 277.761462 -158.254088 
L 279.392892 -167.916755 
L 281.024322 -119.583837 
L 282.655751 -182.418676 
L 284.287181 -90.079346 
L 285.918611 -147.547137 
L 287.550041 -172.867431 
L 289.181471 -115.714824 
L 290.812901 -168.345971 
L 292.444331 -179.60489 
L 294.075761 -154.031003 
L 295.70719 -121.623678 
L 297.33862 -193.891054 
L 298.97005 -113.828829 
L 300.60148 -139.828835 
L 302.23291 -91.981865 
L 303.86434 -126.737929 
L 305.49577 -88.333332 
L 307.1272 -160.20381 
L 308.75863 -121.247562 
L 310.390059 -159.303973 
L 312.021489 -99.71935 
L 313.652919 -185.844143 
L 315.284349 -105.498007 
L 316.915779 -132.898521 
L 318.547209 -145.218268 
L 320.178639 -52.805041 
L 321.810069 -100.27595 
L 323.441498 -88.706019 
L 325.072928 -76.011684 
L 326.704358 -195.01737 
L 328.335788 -112.156713 
L 329.967218 -203.798243 
L 331.598648 -59.298053 
L 333.230078 -130.437055 
L 334.861508 -106.18141 
L 336.492937 -158.267828 
L 338.124367 -112.292137 
L 339.755797 -136.995234 
L 341.387227 -155.828803 
L 343.018657 -155.68148 
L 344.650087 -68.513755 
L 346.281517 -56.132598 
L 347.912947 -151.457223 
L 349.544376 -120.012893 
L 351.175806 -135.677946 
L 352.807236 -137.866945 
L 354.438666 -152.183495 
L 356.070096 -154.478353 
L 357.701526 -145.155166 
L 359.332956 -102.72976 
L 360.964386 -150.722897 
L 362.595815 -123.469674 
L 364.227245 -114.767255 
L 365.858675 -114.055275 
L 367.490105 -149.843083 
L 369.121535 -162.749022 
L 370.752965 -102.028359 
L 372.384395 -139.545509 
L 374.015825 -111.731207 
L 375.647254 -153.667391 
L 377.278684 -140.919909 
L 378.910114 -138.334599 
L 380.541544 -111.239833 
L 382.172974 -103.003393 
L 383.804404 -103.503813 
L 385.435834 -94.526326 
L 387.067264 -74.561782 
L 388.698693 -164.5592 
L 390.330123 -148.674372 
L 391.961553 -116.797019 
L 393.592983 -112.493874 
L 395.224413 -97.253542 
L 396.855843 -78.412089 
L 398.487273 -127.403974 
L 398.487273 -165.614822 
L 398.487273 -165.614822 
L 396.855843 -199.197779 
L 395.224413 -217.32774 
L 393.592983 -210.402801 
L 391.961553 -277.355605 
L 390.330123 -234.514431 
L 388.698693 -249.411455 
L 387.067264 -177.661517 
L 385.435834 -186.878698 
L 383.804404 -208.550129 
L 382.172974 -246.113937 
L 380.541544 -233.090491 
L 378.910114 -231.35802 
L 377.278684 -242.321861 
L 375.647254 -229.212831 
L 374.015825 -202.560487 
L 372.384395 -243.296762 
L 370.752965 -214.759185 
L 369.121535 -253.266347 
L 367.490105 -226.53338 
L 365.858675 -241.437416 
L 364.227245 -194.924821 
L 362.595815 -235.204366 
L 360.964386 -194.015187 
L 359.332956 -246.284472 
L 357.701526 -260.839438 
L 356.070096 -249.632628 
L 354.438666 -228.595068 
L 352.807236 -221.335627 
L 351.175806 -186.548049 
L 349.544376 -236.399955 
L 347.912947 -243.127938 
L 346.281517 -200.784231 
L 344.650087 -249.083646 
L 343.018657 -245.24226 
L 341.387227 -275.04453 
L 339.755797 -251.192767 
L 338.124367 -244.761961 
L 336.492937 -223.59778 
L 334.861508 -192.620389 
L 333.230078 -220.424493 
L 331.598648 -138.008727 
L 329.967218 -246.957249 
L 328.335788 -214.876791 
L 326.704358 -224.2759 
L 325.072928 -197.005572 
L 323.441498 -250.609414 
L 321.810069 -250.638711 
L 320.178639 -210.217211 
L 318.547209 -223.405974 
L 316.915779 -281.762514 
L 315.284349 -194.448142 
L 313.652919 -235.540429 
L 312.021489 -229.073614 
L 310.390059 -199.978203 
L 308.75863 -240.509053 
L 307.1272 -241.656562 
L 305.49577 -190.768771 
L 303.86434 -245.887065 
L 302.23291 -243.545393 
L 300.60148 -210.549438 
L 298.97005 -235.717949 
L 297.33862 -245.032869 
L 295.70719 -253.969306 
L 294.075761 -238.892385 
L 292.444331 -243.489975 
L 290.812901 -249.721841 
L 289.181471 -165.309168 
L 287.550041 -215.421796 
L 285.918611 -233.315186 
L 284.287181 -251.185496 
L 282.655751 -274.120891 
L 281.024322 -233.79963 
L 279.392892 -244.671099 
L 277.761462 -234.170734 
L 276.130032 -225.658821 
L 274.498602 -227.283527 
L 272.867172 -198.579645 
L 271.235742 -205.641742 
L 269.604312 -278.318279 
L 267.972883 -242.803004 
L 266.341453 -281.937212 
L 264.710023 -255.178703 
L 263.078593 -209.209267 
L 261.447163 -228.453615 
L 259.815733 -258.164561 
L 258.184303 -282.649098 
L 256.552873 -249.956398 
L 254.921444 -271.40031 
L 253.290014 -228.89491 
L 251.658584 -236.570274 
L 250.027154 -256.776488 
L 248.395724 -273.008516 
L 246.764294 -246.591665 
L 245.132864 -266.829751 
L 243.501434 -241.022161 
L 241.870005 -273.20279 
L 240.238575 -244.264465 
L 238.607145 -236.76814 
L 236.975715 -177.641663 
L 235.344285 -241.080379 
L 233.712855 -251.249123 
L 232.081425 -239.422546 
L 230.449995 -210.39589 
L 228.818566 -253.002498 
L 227.187136 -265.615965 
L 225.555706 -223.618201 
L 223.924276 -216.648943 
L 222.292846 -221.449789 
L 220.661416 -200.318779 
L 219.029986 -212.197389 
L 217.398556 -281.25717 
L 215.767127 -264.824874 
L 214.135697 -226.745312 
L 212.504267 -227.441794 
L 210.872837 -210.768951 
L 209.241407 -230.344836 
L 207.609977 -200.311097 
L 205.978547 -237.788923 
L 204.347117 -238.562766 
L 202.715688 -211.81342 
L 201.084258 -158.613695 
L 199.452828 -234.688853 
L 197.821398 -160.710804 
L 196.189968 -215.236827 
L 194.558538 -151.375077 
L 192.927108 -231.854343 
L 191.295678 -201.129045 
L 189.664249 -270.638956 
L 188.032819 -212.500963 
L 186.401389 -248.595517 
L 184.769959 -230.42595 
L 183.138529 -230.306149 
L 181.507099 -244.694077 
L 179.875669 -252.884116 
L 178.244239 -221.752893 
L 176.61281 -238.824781 
L 174.98138 -274.945163 
L 173.34995 -240.938872 
L 171.71852 -240.641824 
L 170.08709 -213.096651 
L 168.45566 -223.638061 
L 166.82423 -194.596169 
L 165.1928 -219.456615 
L 163.56137 -248.164455 
L 161.929941 -212.525276 
L 160.298511 -233.610169 
L 158.667081 -245.297566 
L 157.035651 -260.865917 
L 155.404221 -219.545143 
L 153.772791 -206.860724 
L 152.141361 -269.451527 
L 150.509931 -241.362939 
L 148.878502 -292.032 
L 147.247072 -234.196308 
L 145.615642 -169.072696 
L 143.984212 -253.406059 
L 142.352782 -238.330286 
L 140.721352 -257.148943 
L 139.089922 -235.112009 
L 137.458492 -218.078578 
L 135.827063 -257.832119 
L 134.195633 -272.561978 
L 132.564203 -201.652034 
L 130.932773 -214.012541 
L 129.301343 -237.797612 
L 127.669913 -186.214484 
L 126.038483 -234.507454 
L 124.407053 -238.051154 
L 122.775624 -234.362784 
L 121.144194 -215.812374 
L 119.512764 -175.306737 
L 117.881334 -232.439788 
L 116.249904 -228.763 
L 114.618474 -224.291137 
L 112.987044 -236.85331 
L 111.355614 -262.293082 
L 109.724185 -266.454165 
L 108.092755 -198.97505 
L 106.461325 -225.639337 
L 104.829895 -235.713213 
L 103.198465 -254.095155 
L 101.567035 -262.615415 
L 99.935605 -216.532933 
L 98.304175 -229.80538 
L 96.672746 -241.941665 
L 95.041316 -246.152173 
L 93.409886 -215.633214 
L 91.778456 -246.097166 
L 90.147026 -251.017031 
L 88.515596 -237.204021 
L 86.884166 -237.936911 
L 85.252736 -201.476968 
L 83.621307 -248.287262 
L 81.989877 -225.711623 
L 80.358447 -254.696769 
L 78.727017 -217.791692 
L 77.095587 -238.318917 
L 75.464157 -257.718275 
L 73.832727 -245.246977 
z
" style="stroke: #ffffff; stroke-opacity: 0.2"/>
    </defs>
    <g clip-path="url(#pcdaf6a7ca8)">
     <use xlink:href="#m181a0d3466" x="0" y="345.6" style="fill: #1f77b4; fill-opacity: 0.2; stroke: #ffffff; stroke-opacity: 0.2"/>
    </g>
   </g>
   <g id="line2d_16">
    <path d="M 73.832727 153.95156 
L 75.464157 111.196348 
L 77.095587 150.585761 
L 78.727017 168.890118 
L 80.358447 135.119605 
L 81.989877 132.911502 
L 83.621307 134.511088 
L 85.252736 175.539484 
L 86.884166 165.545924 
L 88.515596 149.332155 
L 90.147026 146.566131 
L 91.778456 133.963483 
L 93.409886 190.915792 
L 95.041316 143.449825 
L 96.672746 189.570594 
L 98.304175 174.830008 
L 99.935605 177.089074 
L 101.567035 124.587328 
L 103.198465 148.857596 
L 104.829895 169.22213 
L 106.461325 178.256907 
L 108.092755 188.483899 
L 109.724185 141.120749 
L 111.355614 125.514725 
L 112.987044 142.487236 
L 114.618474 179.413743 
L 116.249904 156.856746 
L 117.881334 157.207693 
L 119.512764 206.257802 
L 121.144194 174.927379 
L 122.775624 134.106167 
L 124.407053 141.816621 
L 126.038483 146.027292 
L 127.669913 202.041352 
L 129.301343 156.093054 
L 130.932773 199.361988 
L 132.564203 182.292818 
L 134.195633 167.189192 
L 135.827063 121.728617 
L 137.458492 175.683169 
L 139.089922 202.987996 
L 140.721352 149.790334 
L 142.352782 152.860978 
L 143.984212 139.664609 
L 145.615642 189.568273 
L 147.247072 154.278175 
L 148.878502 105.128156 
L 150.509931 147.192723 
L 152.141361 125.712405 
L 153.772791 176.237548 
L 155.404221 178.566803 
L 157.035651 135.894408 
L 158.667081 120.912851 
L 160.298511 160.88446 
L 161.929941 204.30743 
L 163.56137 143.539266 
L 165.1928 185.850958 
L 166.82423 182.66008 
L 168.45566 184.735517 
L 170.08709 175.244928 
L 171.71852 162.135899 
L 173.34995 146.646417 
L 174.98138 125.47106 
L 176.61281 158.99522 
L 178.244239 184.516221 
L 179.875669 164.168837 
L 181.507099 133.848549 
L 183.138529 190.041549 
L 184.769959 173.254584 
L 188.032819 195.665172 
L 189.664249 154.662026 
L 191.295678 184.726936 
L 192.927108 160.871482 
L 194.558538 221.919592 
L 196.189968 165.456288 
L 197.821398 218.694458 
L 199.452828 167.588794 
L 201.084258 229.316068 
L 202.715688 182.787261 
L 204.347117 173.651648 
L 205.978547 167.357215 
L 207.609977 190.712626 
L 209.241407 147.990219 
L 210.872837 166.356983 
L 212.504267 145.939652 
L 214.135697 183.094779 
L 215.767127 139.654107 
L 217.398556 148.367233 
L 219.029986 199.266693 
L 220.661416 172.141755 
L 222.292846 170.08269 
L 223.924276 152.981731 
L 225.555706 169.202302 
L 227.187136 146.249921 
L 228.818566 152.448704 
L 230.449995 206.873215 
L 232.081425 175.177476 
L 233.712855 164.718801 
L 235.344285 179.245512 
L 236.975715 208.100145 
L 238.607145 157.371082 
L 240.238575 149.919302 
L 241.870005 116.371328 
L 243.501434 140.194082 
L 245.132864 134.244972 
L 246.764294 162.739854 
L 248.395724 136.355266 
L 250.027154 165.667806 
L 251.658584 182.516276 
L 253.290014 153.747412 
L 254.921444 162.816997 
L 256.552873 172.798166 
L 258.184303 137.19083 
L 259.815733 143.045051 
L 261.447163 158.232064 
L 263.078593 171.782358 
L 264.710023 161.585348 
L 266.341453 118.159894 
L 267.972883 131.893332 
L 269.604312 141.709762 
L 271.235742 186.484018 
L 272.867172 175.752552 
L 274.498602 179.068761 
L 276.130032 198.408738 
L 277.761462 149.387589 
L 279.392892 139.306073 
L 281.024322 168.908266 
L 282.655751 117.330217 
L 284.287181 174.967579 
L 285.918611 155.168838 
L 287.550041 151.455386 
L 289.181471 205.088004 
L 290.812901 136.566094 
L 292.444331 134.052568 
L 294.075761 149.138306 
L 295.70719 157.803508 
L 297.33862 126.138038 
L 298.97005 170.826611 
L 300.60148 170.410863 
L 302.23291 177.836371 
L 303.86434 159.287503 
L 305.49577 206.048948 
L 307.1272 144.669814 
L 308.75863 164.721693 
L 310.390059 165.958912 
L 312.021489 181.203518 
L 313.652919 134.907714 
L 315.284349 195.626925 
L 316.915779 138.269482 
L 318.547209 161.287879 
L 320.178639 214.088874 
L 321.810069 170.142669 
L 323.441498 175.942283 
L 325.072928 209.091372 
L 326.704358 135.953365 
L 328.335788 182.083248 
L 329.967218 120.222254 
L 331.598648 246.94661 
L 333.230078 170.169226 
L 334.861508 196.199101 
L 336.492937 154.667196 
L 338.124367 167.072951 
L 339.755797 151.505999 
L 341.387227 130.163333 
L 343.018657 145.13813 
L 344.650087 186.801299 
L 346.281517 217.141586 
L 347.912947 148.307419 
L 349.544376 167.393576 
L 351.175806 184.487003 
L 352.807236 165.998714 
L 354.438666 155.210718 
L 356.070096 143.544509 
L 357.701526 142.602698 
L 359.332956 171.092884 
L 360.964386 173.230958 
L 362.595815 166.26298 
L 364.227245 190.753962 
L 365.858675 167.853655 
L 367.490105 157.411769 
L 369.121535 137.592315 
L 370.752965 187.206228 
L 372.384395 154.178865 
L 374.015825 188.454153 
L 375.647254 154.159889 
L 377.278684 153.979115 
L 378.910114 160.75369 
L 380.541544 173.434838 
L 382.172974 171.041335 
L 383.804404 189.573029 
L 387.067264 219.48835 
L 388.698693 138.614673 
L 390.330123 154.005599 
L 391.961553 148.523688 
L 393.592983 184.151663 
L 395.224413 188.309359 
L 396.855843 206.795066 
L 398.487273 199.090602 
L 398.487273 199.090602 
" clip-path="url(#pcdaf6a7ca8)" style="fill: none; stroke: #1f77b4; stroke-width: 1.5; stroke-linecap: round"/>
   </g>
   <g id="LineCollection_1">
    <path d="M 398.487273 295.488 
L 398.487273 53.568 
" clip-path="url(#pcdaf6a7ca8)" style="fill: none; stroke-dasharray: 5.55,2.4; stroke-dashoffset: 0; stroke: #1f77b4; stroke-width: 1.5"/>
   </g>
   <g id="patch_3">
    <path d="M 57.6 307.584 
L 57.6 41.472 
" style="fill: none; stroke: #cccccc; stroke-width: 0.8; stroke-linejoin: miter; stroke-linecap: square"/>
   </g>
   <g id="patch_4">
    <path d="M 414.72 307.584 
L 414.72 41.472 
" style="fill: none; stroke: #cccccc; stroke-width: 0.8; stroke-linejoin: miter; stroke-linecap: square"/>
   </g>
   <g id="patch_5">
    <path d="M 57.6 307.584 
L 414.72 307.584 
" style="fill: none; stroke: #cccccc; stroke-width: 0.8; stroke-linejoin: miter; stroke-linecap: square"/>
   </g>
   <g id="patch_6">
    <path d="M 57.6 41.472 
L 414.72 41.472 
" style="fill: none; stroke: #cccccc; stroke-width: 0.8; stroke-linejoin: miter; stroke-linecap: square"/>
   </g>
   <g id="text_18">
    <!-- Model performance vs. # of iterations -->
    <g style="fill: #262626" transform="translate(122.314688 35.472)scale(0.12 -0.12)">
     <defs>
      <path id="DejaVuSans-4d" d="M 628 4666 
L 1569 4666 
L 2759 1491 
L 3956 4666 
L 4897 4666 
L 4897 0 
L 4281 0 
L 4281 4097 
L 3078 897 
L 2444 897 
L 1241 4097 
L 1241 0 
L 628 0 
L 628 4666 
z
" transform="scale(0.015625)"/>
      <path id="DejaVuSans-64" d="M 2906 2969 
L 2906 4863 
L 3481 4863 
L 3481 0 
L 2906 0 
L 2906 525 
Q 2725 213 2448 61 
Q 2172 -91 1784 -91 
Q 1150 -91 751 415 
Q 353 922 353 1747 
Q 353 2572 751 3078 
Q 1150 3584 1784 3584 
Q 2172 3584 2448 3432 
Q 2725 3281 2906 2969 
z
M 947 1747 
Q 947 1113 1208 752 
Q 1469 391 1925 391 
Q 2381 391 2643 752 
Q 2906 1113 2906 1747 
Q 2906 2381 2643 2742 
Q 2381 3103 1925 3103 
Q 1469 3103 1208 2742 
Q 947 2381 947 1747 
z
" transform="scale(0.015625)"/>
      <path id="DejaVuSans-6c" d="M 603 4863 
L 1178 4863 
L 1178 0 
L 603 0 
L 603 4863 
z
" transform="scale(0.015625)"/>
      <path id="DejaVuSans-20" transform="scale(0.015625)"/>
      <path id="DejaVuSans-70" d="M 1159 525 
L 1159 -1331 
L 581 -1331 
L 581 3500 
L 1159 3500 
L 1159 2969 
Q 1341 3281 1617 3432 
Q 1894 3584 2278 3584 
Q 2916 3584 3314 3078 
Q 3713 2572 3713 1747 
Q 3713 922 3314 415 
Q 2916 -91 2278 -91 
Q 1894 -91 1617 61 
Q 1341 213 1159 525 
z
M 3116 1747 
Q 3116 2381 2855 2742 
Q 2594 3103 2138 3103 
Q 1681 3103 1420 2742 
Q 1159 2381 1159 1747 
Q 1159 1113 1420 752 
Q 1681 391 2138 391 
Q 2594 391 2855 752 
Q 3116 1113 3116 1747 
z
" transform="scale(0.015625)"/>
      <path id="DejaVuSans-66" d="M 2375 4863 
L 2375 4384 
L 1825 4384 
Q 1516 4384 1395 4259 
Q 1275 4134 1275 3809 
L 1275 3500 
L 2222 3500 
L 2222 3053 
L 1275 3053 
L 1275 0 
L 697 0 
L 697 3053 
L 147 3053 
L 147 3500 
L 697 3500 
L 697 3744 
Q 697 4328 969 4595 
Q 1241 4863 1831 4863 
L 2375 4863 
z
" transform="scale(0.015625)"/>
      <path id="DejaVuSans-6d" d="M 3328 2828 
Q 3544 3216 3844 3400 
Q 4144 3584 4550 3584 
Q 5097 3584 5394 3201 
Q 5691 2819 5691 2113 
L 5691 0 
L 5113 0 
L 5113 2094 
Q 5113 2597 4934 2840 
Q 4756 3084 4391 3084 
Q 3944 3084 3684 2787 
Q 3425 2491 3425 1978 
L 3425 0 
L 2847 0 
L 2847 2094 
Q 2847 2600 2669 2842 
Q 2491 3084 2119 3084 
Q 1678 3084 1418 2786 
Q 1159 2488 1159 1978 
L 1159 0 
L 581 0 
L 581 3500 
L 1159 3500 
L 1159 2956 
Q 1356 3278 1631 3431 
Q 1906 3584 2284 3584 
Q 2666 3584 2933 3390 
Q 3200 3197 3328 2828 
z
" transform="scale(0.015625)"/>
      <path id="DejaVuSans-76" d="M 191 3500 
L 800 3500 
L 1894 563 
L 2988 3500 
L 3597 3500 
L 2284 0 
L 1503 0 
L 191 3500 
z
" transform="scale(0.015625)"/>
      <path id="DejaVuSans-73" d="M 2834 3397 
L 2834 2853 
Q 2591 2978 2328 3040 
Q 2066 3103 1784 3103 
Q 1356 3103 1142 2972 
Q 928 2841 928 2578 
Q 928 2378 1081 2264 
Q 1234 2150 1697 2047 
L 1894 2003 
Q 2506 1872 2764 1633 
Q 3022 1394 3022 966 
Q 3022 478 2636 193 
Q 2250 -91 1575 -91 
Q 1294 -91 989 -36 
Q 684 19 347 128 
L 347 722 
Q 666 556 975 473 
Q 1284 391 1588 391 
Q 1994 391 2212 530 
Q 2431 669 2431 922 
Q 2431 1156 2273 1281 
Q 2116 1406 1581 1522 
L 1381 1569 
Q 847 1681 609 1914 
Q 372 2147 372 2553 
Q 372 3047 722 3315 
Q 1072 3584 1716 3584 
Q 2034 3584 2315 3537 
Q 2597 3491 2834 3397 
z
" transform="scale(0.015625)"/>
      <path id="DejaVuSans-23" d="M 3272 2816 
L 2363 2816 
L 2100 1772 
L 3016 1772 
L 3272 2816 
z
M 2803 4594 
L 2478 3297 
L 3391 3297 
L 3719 4594 
L 4219 4594 
L 3897 3297 
L 4872 3297 
L 4872 2816 
L 3775 2816 
L 3519 1772 
L 4513 1772 
L 4513 1294 
L 3397 1294 
L 3072 0 
L 2572 0 
L 2894 1294 
L 1978 1294 
L 1656 0 
L 1153 0 
L 1478 1294 
L 494 1294 
L 494 1772 
L 1594 1772 
L 1856 2816 
L 850 2816 
L 850 3297 
L 1978 3297 
L 2297 4594 
L 2803 4594 
z
" transform="scale(0.015625)"/>
     </defs>
     <use xlink:href="#DejaVuSans-4d"/>
     <use xlink:href="#DejaVuSans-6f" x="86.279297"/>
     <use xlink:href="#DejaVuSans-64" x="147.460938"/>
     <use xlink:href="#DejaVuSans-65" x="210.9375"/>
     <use xlink:href="#DejaVuSans-6c" x="272.460938"/>
     <use xlink:href="#DejaVuSans-20" x="300.244141"/>
     <use xlink:href="#DejaVuSans-70" x="332.03125"/>
     <use xlink:href="#DejaVuSans-65" x="395.507812"/>
     <use xlink:href="#DejaVuSans-72" x="457.03125"/>
     <use xlink:href="#DejaVuSans-66" x="498.144531"/>
     <use xlink:href="#DejaVuSans-6f" x="533.349609"/>
     <use xlink:href="#DejaVuSans-72" x="594.53125"/>
     <use xlink:href="#DejaVuSans-6d" x="633.894531"/>
     <use xlink:href="#DejaVuSans-61" x="731.306641"/>
     <use xlink:href="#DejaVuSans-6e" x="792.585938"/>
     <use xlink:href="#DejaVuSans-63" x="855.964844"/>
     <use xlink:href="#DejaVuSans-65" x="910.945312"/>
     <use xlink:href="#DejaVuSans-20" x="972.46875"/>
     <use xlink:href="#DejaVuSans-76" x="1004.255859"/>
     <use xlink:href="#DejaVuSans-73" x="1063.435547"/>
     <use xlink:href="#DejaVuSans-2e" x="1115.535156"/>
     <use xlink:href="#DejaVuSans-20" x="1147.322266"/>
     <use xlink:href="#DejaVuSans-23" x="1179.109375"/>
     <use xlink:href="#DejaVuSans-20" x="1262.898438"/>
     <use xlink:href="#DejaVuSans-6f" x="1294.685547"/>
     <use xlink:href="#DejaVuSans-66" x="1355.867188"/>
     <use xlink:href="#DejaVuSans-20" x="1391.072266"/>
     <use xlink:href="#DejaVuSans-69" x="1422.859375"/>
     <use xlink:href="#DejaVuSans-74" x="1450.642578"/>
     <use xlink:href="#DejaVuSans-65" x="1489.851562"/>
     <use xlink:href="#DejaVuSans-72" x="1551.375"/>
     <use xlink:href="#DejaVuSans-61" x="1592.488281"/>
     <use xlink:href="#DejaVuSans-74" x="1653.767578"/>
     <use xlink:href="#DejaVuSans-69" x="1692.976562"/>
     <use xlink:href="#DejaVuSans-6f" x="1720.759766"/>
     <use xlink:href="#DejaVuSans-6e" x="1781.941406"/>
     <use xlink:href="#DejaVuSans-73" x="1845.320312"/>
    </g>
   </g>
  </g>
 </g>
 <defs>
  <clipPath id="pcdaf6a7ca8">
   <rect x="57.6" y="41.472" width="357.12" height="266.112"/>
  </clipPath>
 </defs>
</svg>
