<?xml version="1.0" encoding="utf-8" standalone="no"?>
<!DOCTYPE svg PUBLIC "-//W3C//DTD SVG 1.1//EN"
  "http://www.w3.org/Graphics/SVG/1.1/DTD/svg11.dtd">
<svg xmlns:xlink="http://www.w3.org/1999/xlink" width="460.8pt" height="345.6pt" viewBox="0 0 460.8 345.6" xmlns="http://www.w3.org/2000/svg" version="1.1">
 <metadata>
  <rdf:RDF xmlns:dc="http://purl.org/dc/elements/1.1/" xmlns:cc="http://creativecommons.org/ns#" xmlns:rdf="http://www.w3.org/1999/02/22-rdf-syntax-ns#">
   <cc:Work>
    <dc:type rdf:resource="http://purl.org/dc/dcmitype/StillImage"/>
    <dc:date>2022-10-20T08:09:30.003875</dc:date>
    <dc:format>image/svg+xml</dc:format>
    <dc:creator>
     <cc:Agent>
      <dc:title>Matplotlib v3.5.2, https://matplotlib.org/</dc:title>
     </cc:Agent>
    </dc:creator>
   </cc:Work>
  </rdf:RDF>
 </metadata>
 <defs>
  <style type="text/css">*{stroke-linejoin: round; stroke-linecap: butt}</style>
 </defs>
 <g id="figure_1">
  <g id="patch_1">
   <path d="M 0 345.6 
L 460.8 345.6 
L 460.8 0 
L 0 0 
z
" style="fill: #ffffff"/>
  </g>
  <g id="axes_1">
   <g id="patch_2">
    <path d="M 57.6 307.584 
L 414.72 307.584 
L 414.72 41.472 
L 57.6 41.472 
z
" style="fill: #ffffff"/>
   </g>
   <g id="matplotlib.axis_1">
    <g id="xtick_1">
     <g id="line2d_1">
      <path d="M 72.201297 307.584 
L 72.201297 41.472 
" clip-path="url(#pa51dd19a64)" style="fill: none; stroke: #cccccc; stroke-width: 0.8; stroke-linecap: round"/>
     </g>
     <g id="text_1">
      <!-- 0 -->
      <g style="fill: #262626" transform="translate(69.020047 322.182437)scale(0.1 -0.1)">
       <defs>
        <path id="DejaVuSans-30" d="M 2034 4250 
Q 1547 4250 1301 3770 
Q 1056 3291 1056 2328 
Q 1056 1369 1301 889 
Q 1547 409 2034 409 
Q 2525 409 2770 889 
Q 3016 1369 3016 2328 
Q 3016 3291 2770 3770 
Q 2525 4250 2034 4250 
z
M 2034 4750 
Q 2819 4750 3233 4129 
Q 3647 3509 3647 2328 
Q 3647 1150 3233 529 
Q 2819 -91 2034 -91 
Q 1250 -91 836 529 
Q 422 1150 422 2328 
Q 422 3509 836 4129 
Q 1250 4750 2034 4750 
z
" transform="scale(0.015625)"/>
       </defs>
       <use xlink:href="#DejaVuSans-30"/>
      </g>
     </g>
    </g>
    <g id="xtick_2">
     <g id="line2d_2">
      <path d="M 112.987044 307.584 
L 112.987044 41.472 
" clip-path="url(#pa51dd19a64)" style="fill: none; stroke: #cccccc; stroke-width: 0.8; stroke-linecap: round"/>
     </g>
     <g id="text_2">
      <!-- 25 -->
      <g style="fill: #262626" transform="translate(106.624544 322.182437)scale(0.1 -0.1)">
       <defs>
        <path id="DejaVuSans-32" d="M 1228 531 
L 3431 531 
L 3431 0 
L 469 0 
L 469 531 
Q 828 903 1448 1529 
Q 2069 2156 2228 2338 
Q 2531 2678 2651 2914 
Q 2772 3150 2772 3378 
Q 2772 3750 2511 3984 
Q 2250 4219 1831 4219 
Q 1534 4219 1204 4116 
Q 875 4013 500 3803 
L 500 4441 
Q 881 4594 1212 4672 
Q 1544 4750 1819 4750 
Q 2544 4750 2975 4387 
Q 3406 4025 3406 3419 
Q 3406 3131 3298 2873 
Q 3191 2616 2906 2266 
Q 2828 2175 2409 1742 
Q 1991 1309 1228 531 
z
" transform="scale(0.015625)"/>
        <path id="DejaVuSans-35" d="M 691 4666 
L 3169 4666 
L 3169 4134 
L 1269 4134 
L 1269 2991 
Q 1406 3038 1543 3061 
Q 1681 3084 1819 3084 
Q 2600 3084 3056 2656 
Q 3513 2228 3513 1497 
Q 3513 744 3044 326 
Q 2575 -91 1722 -91 
Q 1428 -91 1123 -41 
Q 819 9 494 109 
L 494 744 
Q 775 591 1075 516 
Q 1375 441 1709 441 
Q 2250 441 2565 725 
Q 2881 1009 2881 1497 
Q 2881 1984 2565 2268 
Q 2250 2553 1709 2553 
Q 1456 2553 1204 2497 
Q 953 2441 691 2322 
L 691 4666 
z
" transform="scale(0.015625)"/>
       </defs>
       <use xlink:href="#DejaVuSans-32"/>
       <use xlink:href="#DejaVuSans-35" x="63.623047"/>
      </g>
     </g>
    </g>
    <g id="xtick_3">
     <g id="line2d_3">
      <path d="M 153.772791 307.584 
L 153.772791 41.472 
" clip-path="url(#pa51dd19a64)" style="fill: none; stroke: #cccccc; stroke-width: 0.8; stroke-linecap: round"/>
     </g>
     <g id="text_3">
      <!-- 50 -->
      <g style="fill: #262626" transform="translate(147.410291 322.182437)scale(0.1 -0.1)">
       <use xlink:href="#DejaVuSans-35"/>
       <use xlink:href="#DejaVuSans-30" x="63.623047"/>
      </g>
     </g>
    </g>
    <g id="xtick_4">
     <g id="line2d_4">
      <path d="M 194.558538 307.584 
L 194.558538 41.472 
" clip-path="url(#pa51dd19a64)" style="fill: none; stroke: #cccccc; stroke-width: 0.8; stroke-linecap: round"/>
     </g>
     <g id="text_4">
      <!-- 75 -->
      <g style="fill: #262626" transform="translate(188.196038 322.182437)scale(0.1 -0.1)">
       <defs>
        <path id="DejaVuSans-37" d="M 525 4666 
L 3525 4666 
L 3525 4397 
L 1831 0 
L 1172 0 
L 2766 4134 
L 525 4134 
L 525 4666 
z
" transform="scale(0.015625)"/>
       </defs>
       <use xlink:href="#DejaVuSans-37"/>
       <use xlink:href="#DejaVuSans-35" x="63.623047"/>
      </g>
     </g>
    </g>
    <g id="xtick_5">
     <g id="line2d_5">
      <path d="M 235.344285 307.584 
L 235.344285 41.472 
" clip-path="url(#pa51dd19a64)" style="fill: none; stroke: #cccccc; stroke-width: 0.8; stroke-linecap: round"/>
     </g>
     <g id="text_5">
      <!-- 100 -->
      <g style="fill: #262626" transform="translate(225.800535 322.182437)scale(0.1 -0.1)">
       <defs>
        <path id="DejaVuSans-31" d="M 794 531 
L 1825 531 
L 1825 4091 
L 703 3866 
L 703 4441 
L 1819 4666 
L 2450 4666 
L 2450 531 
L 3481 531 
L 3481 0 
L 794 0 
L 794 531 
z
" transform="scale(0.015625)"/>
       </defs>
       <use xlink:href="#DejaVuSans-31"/>
       <use xlink:href="#DejaVuSans-30" x="63.623047"/>
       <use xlink:href="#DejaVuSans-30" x="127.246094"/>
      </g>
     </g>
    </g>
    <g id="xtick_6">
     <g id="line2d_6">
      <path d="M 276.130032 307.584 
L 276.130032 41.472 
" clip-path="url(#pa51dd19a64)" style="fill: none; stroke: #cccccc; stroke-width: 0.8; stroke-linecap: round"/>
     </g>
     <g id="text_6">
      <!-- 125 -->
      <g style="fill: #262626" transform="translate(266.586282 322.182437)scale(0.1 -0.1)">
       <use xlink:href="#DejaVuSans-31"/>
       <use xlink:href="#DejaVuSans-32" x="63.623047"/>
       <use xlink:href="#DejaVuSans-35" x="127.246094"/>
      </g>
     </g>
    </g>
    <g id="xtick_7">
     <g id="line2d_7">
      <path d="M 316.915779 307.584 
L 316.915779 41.472 
" clip-path="url(#pa51dd19a64)" style="fill: none; stroke: #cccccc; stroke-width: 0.8; stroke-linecap: round"/>
     </g>
     <g id="text_7">
      <!-- 150 -->
      <g style="fill: #262626" transform="translate(307.372029 322.182437)scale(0.1 -0.1)">
       <use xlink:href="#DejaVuSans-31"/>
       <use xlink:href="#DejaVuSans-35" x="63.623047"/>
       <use xlink:href="#DejaVuSans-30" x="127.246094"/>
      </g>
     </g>
    </g>
    <g id="xtick_8">
     <g id="line2d_8">
      <path d="M 357.701526 307.584 
L 357.701526 41.472 
" clip-path="url(#pa51dd19a64)" style="fill: none; stroke: #cccccc; stroke-width: 0.8; stroke-linecap: round"/>
     </g>
     <g id="text_8">
      <!-- 175 -->
      <g style="fill: #262626" transform="translate(348.157776 322.182437)scale(0.1 -0.1)">
       <use xlink:href="#DejaVuSans-31"/>
       <use xlink:href="#DejaVuSans-37" x="63.623047"/>
       <use xlink:href="#DejaVuSans-35" x="127.246094"/>
      </g>
     </g>
    </g>
    <g id="xtick_9">
     <g id="line2d_9">
      <path d="M 398.487273 307.584 
L 398.487273 41.472 
" clip-path="url(#pa51dd19a64)" style="fill: none; stroke: #cccccc; stroke-width: 0.8; stroke-linecap: round"/>
     </g>
     <g id="text_9">
      <!-- 200 -->
      <g style="fill: #262626" transform="translate(388.943523 322.182437)scale(0.1 -0.1)">
       <use xlink:href="#DejaVuSans-32"/>
       <use xlink:href="#DejaVuSans-30" x="63.623047"/>
       <use xlink:href="#DejaVuSans-30" x="127.246094"/>
      </g>
     </g>
    </g>
    <g id="text_10">
     <!-- Iteration -->
     <g style="fill: #262626" transform="translate(214.951406 335.860562)scale(0.1 -0.1)">
      <defs>
       <path id="DejaVuSans-49" d="M 628 4666 
L 1259 4666 
L 1259 0 
L 628 0 
L 628 4666 
z
" transform="scale(0.015625)"/>
       <path id="DejaVuSans-74" d="M 1172 4494 
L 1172 3500 
L 2356 3500 
L 2356 3053 
L 1172 3053 
L 1172 1153 
Q 1172 725 1289 603 
Q 1406 481 1766 481 
L 2356 481 
L 2356 0 
L 1766 0 
Q 1100 0 847 248 
Q 594 497 594 1153 
L 594 3053 
L 172 3053 
L 172 3500 
L 594 3500 
L 594 4494 
L 1172 4494 
z
" transform="scale(0.015625)"/>
       <path id="DejaVuSans-65" d="M 3597 1894 
L 3597 1613 
L 953 1613 
Q 991 1019 1311 708 
Q 1631 397 2203 397 
Q 2534 397 2845 478 
Q 3156 559 3463 722 
L 3463 178 
Q 3153 47 2828 -22 
Q 2503 -91 2169 -91 
Q 1331 -91 842 396 
Q 353 884 353 1716 
Q 353 2575 817 3079 
Q 1281 3584 2069 3584 
Q 2775 3584 3186 3129 
Q 3597 2675 3597 1894 
z
M 3022 2063 
Q 3016 2534 2758 2815 
Q 2500 3097 2075 3097 
Q 1594 3097 1305 2825 
Q 1016 2553 972 2059 
L 3022 2063 
z
" transform="scale(0.015625)"/>
       <path id="DejaVuSans-72" d="M 2631 2963 
Q 2534 3019 2420 3045 
Q 2306 3072 2169 3072 
Q 1681 3072 1420 2755 
Q 1159 2438 1159 1844 
L 1159 0 
L 581 0 
L 581 3500 
L 1159 3500 
L 1159 2956 
Q 1341 3275 1631 3429 
Q 1922 3584 2338 3584 
Q 2397 3584 2469 3576 
Q 2541 3569 2628 3553 
L 2631 2963 
z
" transform="scale(0.015625)"/>
       <path id="DejaVuSans-61" d="M 2194 1759 
Q 1497 1759 1228 1600 
Q 959 1441 959 1056 
Q 959 750 1161 570 
Q 1363 391 1709 391 
Q 2188 391 2477 730 
Q 2766 1069 2766 1631 
L 2766 1759 
L 2194 1759 
z
M 3341 1997 
L 3341 0 
L 2766 0 
L 2766 531 
Q 2569 213 2275 61 
Q 1981 -91 1556 -91 
Q 1019 -91 701 211 
Q 384 513 384 1019 
Q 384 1609 779 1909 
Q 1175 2209 1959 2209 
L 2766 2209 
L 2766 2266 
Q 2766 2663 2505 2880 
Q 2244 3097 1772 3097 
Q 1472 3097 1187 3025 
Q 903 2953 641 2809 
L 641 3341 
Q 956 3463 1253 3523 
Q 1550 3584 1831 3584 
Q 2591 3584 2966 3190 
Q 3341 2797 3341 1997 
z
" transform="scale(0.015625)"/>
       <path id="DejaVuSans-69" d="M 603 3500 
L 1178 3500 
L 1178 0 
L 603 0 
L 603 3500 
z
M 603 4863 
L 1178 4863 
L 1178 4134 
L 603 4134 
L 603 4863 
z
" transform="scale(0.015625)"/>
       <path id="DejaVuSans-6f" d="M 1959 3097 
Q 1497 3097 1228 2736 
Q 959 2375 959 1747 
Q 959 1119 1226 758 
Q 1494 397 1959 397 
Q 2419 397 2687 759 
Q 2956 1122 2956 1747 
Q 2956 2369 2687 2733 
Q 2419 3097 1959 3097 
z
M 1959 3584 
Q 2709 3584 3137 3096 
Q 3566 2609 3566 1747 
Q 3566 888 3137 398 
Q 2709 -91 1959 -91 
Q 1206 -91 779 398 
Q 353 888 353 1747 
Q 353 2609 779 3096 
Q 1206 3584 1959 3584 
z
" transform="scale(0.015625)"/>
       <path id="DejaVuSans-6e" d="M 3513 2113 
L 3513 0 
L 2938 0 
L 2938 2094 
Q 2938 2591 2744 2837 
Q 2550 3084 2163 3084 
Q 1697 3084 1428 2787 
Q 1159 2491 1159 1978 
L 1159 0 
L 581 0 
L 581 3500 
L 1159 3500 
L 1159 2956 
Q 1366 3272 1645 3428 
Q 1925 3584 2291 3584 
Q 2894 3584 3203 3211 
Q 3513 2838 3513 2113 
z
" transform="scale(0.015625)"/>
      </defs>
      <use xlink:href="#DejaVuSans-49"/>
      <use xlink:href="#DejaVuSans-74" x="29.492188"/>
      <use xlink:href="#DejaVuSans-65" x="68.701172"/>
      <use xlink:href="#DejaVuSans-72" x="130.224609"/>
      <use xlink:href="#DejaVuSans-61" x="171.337891"/>
      <use xlink:href="#DejaVuSans-74" x="232.617188"/>
      <use xlink:href="#DejaVuSans-69" x="271.826172"/>
      <use xlink:href="#DejaVuSans-6f" x="299.609375"/>
      <use xlink:href="#DejaVuSans-6e" x="360.791016"/>
     </g>
    </g>
   </g>
   <g id="matplotlib.axis_2">
    <g id="ytick_1">
     <g id="line2d_10">
      <path d="M 57.6 304.811808 
L 414.72 304.811808 
" clip-path="url(#pa51dd19a64)" style="fill: none; stroke: #cccccc; stroke-width: 0.8; stroke-linecap: round"/>
     </g>
     <g id="text_11">
      <!-- 0.40 -->
      <g style="fill: #262626" transform="translate(28.334375 308.611027)scale(0.1 -0.1)">
       <defs>
        <path id="DejaVuSans-2e" d="M 684 794 
L 1344 794 
L 1344 0 
L 684 0 
L 684 794 
z
" transform="scale(0.015625)"/>
        <path id="DejaVuSans-34" d="M 2419 4116 
L 825 1625 
L 2419 1625 
L 2419 4116 
z
M 2253 4666 
L 3047 4666 
L 3047 1625 
L 3713 1625 
L 3713 1100 
L 3047 1100 
L 3047 0 
L 2419 0 
L 2419 1100 
L 313 1100 
L 313 1709 
L 2253 4666 
z
" transform="scale(0.015625)"/>
       </defs>
       <use xlink:href="#DejaVuSans-30"/>
       <use xlink:href="#DejaVuSans-2e" x="63.623047"/>
       <use xlink:href="#DejaVuSans-34" x="95.410156"/>
       <use xlink:href="#DejaVuSans-30" x="159.033203"/>
      </g>
     </g>
    </g>
    <g id="ytick_2">
     <g id="line2d_11">
      <path d="M 57.6 266.038957 
L 414.72 266.038957 
" clip-path="url(#pa51dd19a64)" style="fill: none; stroke: #cccccc; stroke-width: 0.8; stroke-linecap: round"/>
     </g>
     <g id="text_12">
      <!-- 0.45 -->
      <g style="fill: #262626" transform="translate(28.334375 269.838175)scale(0.1 -0.1)">
       <use xlink:href="#DejaVuSans-30"/>
       <use xlink:href="#DejaVuSans-2e" x="63.623047"/>
       <use xlink:href="#DejaVuSans-34" x="95.410156"/>
       <use xlink:href="#DejaVuSans-35" x="159.033203"/>
      </g>
     </g>
    </g>
    <g id="ytick_3">
     <g id="line2d_12">
      <path d="M 57.6 227.266105 
L 414.72 227.266105 
" clip-path="url(#pa51dd19a64)" style="fill: none; stroke: #cccccc; stroke-width: 0.8; stroke-linecap: round"/>
     </g>
     <g id="text_13">
      <!-- 0.50 -->
      <g style="fill: #262626" transform="translate(28.334375 231.065324)scale(0.1 -0.1)">
       <use xlink:href="#DejaVuSans-30"/>
       <use xlink:href="#DejaVuSans-2e" x="63.623047"/>
       <use xlink:href="#DejaVuSans-35" x="95.410156"/>
       <use xlink:href="#DejaVuSans-30" x="159.033203"/>
      </g>
     </g>
    </g>
    <g id="ytick_4">
     <g id="line2d_13">
      <path d="M 57.6 188.493254 
L 414.72 188.493254 
" clip-path="url(#pa51dd19a64)" style="fill: none; stroke: #cccccc; stroke-width: 0.8; stroke-linecap: round"/>
     </g>
     <g id="text_14">
      <!-- 0.55 -->
      <g style="fill: #262626" transform="translate(28.334375 192.292473)scale(0.1 -0.1)">
       <use xlink:href="#DejaVuSans-30"/>
       <use xlink:href="#DejaVuSans-2e" x="63.623047"/>
       <use xlink:href="#DejaVuSans-35" x="95.410156"/>
       <use xlink:href="#DejaVuSans-35" x="159.033203"/>
      </g>
     </g>
    </g>
    <g id="ytick_5">
     <g id="line2d_14">
      <path d="M 57.6 149.720403 
L 414.72 149.720403 
" clip-path="url(#pa51dd19a64)" style="fill: none; stroke: #cccccc; stroke-width: 0.8; stroke-linecap: round"/>
     </g>
     <g id="text_15">
      <!-- 0.60 -->
      <g style="fill: #262626" transform="translate(28.334375 153.519621)scale(0.1 -0.1)">
       <defs>
        <path id="DejaVuSans-36" d="M 2113 2584 
Q 1688 2584 1439 2293 
Q 1191 2003 1191 1497 
Q 1191 994 1439 701 
Q 1688 409 2113 409 
Q 2538 409 2786 701 
Q 3034 994 3034 1497 
Q 3034 2003 2786 2293 
Q 2538 2584 2113 2584 
z
M 3366 4563 
L 3366 3988 
Q 3128 4100 2886 4159 
Q 2644 4219 2406 4219 
Q 1781 4219 1451 3797 
Q 1122 3375 1075 2522 
Q 1259 2794 1537 2939 
Q 1816 3084 2150 3084 
Q 2853 3084 3261 2657 
Q 3669 2231 3669 1497 
Q 3669 778 3244 343 
Q 2819 -91 2113 -91 
Q 1303 -91 875 529 
Q 447 1150 447 2328 
Q 447 3434 972 4092 
Q 1497 4750 2381 4750 
Q 2619 4750 2861 4703 
Q 3103 4656 3366 4563 
z
" transform="scale(0.015625)"/>
       </defs>
       <use xlink:href="#DejaVuSans-30"/>
       <use xlink:href="#DejaVuSans-2e" x="63.623047"/>
       <use xlink:href="#DejaVuSans-36" x="95.410156"/>
       <use xlink:href="#DejaVuSans-30" x="159.033203"/>
      </g>
     </g>
    </g>
    <g id="ytick_6">
     <g id="line2d_15">
      <path d="M 57.6 110.947551 
L 414.72 110.947551 
" clip-path="url(#pa51dd19a64)" style="fill: none; stroke: #cccccc; stroke-width: 0.8; stroke-linecap: round"/>
     </g>
     <g id="text_16">
      <!-- 0.65 -->
      <g style="fill: #262626" transform="translate(28.334375 114.74677)scale(0.1 -0.1)">
       <use xlink:href="#DejaVuSans-30"/>
       <use xlink:href="#DejaVuSans-2e" x="63.623047"/>
       <use xlink:href="#DejaVuSans-36" x="95.410156"/>
       <use xlink:href="#DejaVuSans-35" x="159.033203"/>
      </g>
     </g>
    </g>
    <g id="ytick_7">
     <g id="line2d_16">
      <path d="M 57.6 72.1747 
L 414.72 72.1747 
" clip-path="url(#pa51dd19a64)" style="fill: none; stroke: #cccccc; stroke-width: 0.8; stroke-linecap: round"/>
     </g>
     <g id="text_17">
      <!-- 0.70 -->
      <g style="fill: #262626" transform="translate(28.334375 75.973919)scale(0.1 -0.1)">
       <use xlink:href="#DejaVuSans-30"/>
       <use xlink:href="#DejaVuSans-2e" x="63.623047"/>
       <use xlink:href="#DejaVuSans-37" x="95.410156"/>
       <use xlink:href="#DejaVuSans-30" x="159.033203"/>
      </g>
     </g>
    </g>
    <g id="text_18">
     <!-- Auroc -->
     <g style="fill: #262626" transform="translate(22.254688 188.868625)rotate(-90)scale(0.1 -0.1)">
      <defs>
       <path id="DejaVuSans-41" d="M 2188 4044 
L 1331 1722 
L 3047 1722 
L 2188 4044 
z
M 1831 4666 
L 2547 4666 
L 4325 0 
L 3669 0 
L 3244 1197 
L 1141 1197 
L 716 0 
L 50 0 
L 1831 4666 
z
" transform="scale(0.015625)"/>
       <path id="DejaVuSans-75" d="M 544 1381 
L 544 3500 
L 1119 3500 
L 1119 1403 
Q 1119 906 1312 657 
Q 1506 409 1894 409 
Q 2359 409 2629 706 
Q 2900 1003 2900 1516 
L 2900 3500 
L 3475 3500 
L 3475 0 
L 2900 0 
L 2900 538 
Q 2691 219 2414 64 
Q 2138 -91 1772 -91 
Q 1169 -91 856 284 
Q 544 659 544 1381 
z
M 1991 3584 
L 1991 3584 
z
" transform="scale(0.015625)"/>
       <path id="DejaVuSans-63" d="M 3122 3366 
L 3122 2828 
Q 2878 2963 2633 3030 
Q 2388 3097 2138 3097 
Q 1578 3097 1268 2742 
Q 959 2388 959 1747 
Q 959 1106 1268 751 
Q 1578 397 2138 397 
Q 2388 397 2633 464 
Q 2878 531 3122 666 
L 3122 134 
Q 2881 22 2623 -34 
Q 2366 -91 2075 -91 
Q 1284 -91 818 406 
Q 353 903 353 1747 
Q 353 2603 823 3093 
Q 1294 3584 2113 3584 
Q 2378 3584 2631 3529 
Q 2884 3475 3122 3366 
z
" transform="scale(0.015625)"/>
      </defs>
      <use xlink:href="#DejaVuSans-41"/>
      <use xlink:href="#DejaVuSans-75" x="68.408203"/>
      <use xlink:href="#DejaVuSans-72" x="131.787109"/>
      <use xlink:href="#DejaVuSans-6f" x="170.650391"/>
      <use xlink:href="#DejaVuSans-63" x="231.832031"/>
     </g>
    </g>
   </g>
   <g id="PolyCollection_1">
    <defs>
     <path id="m55b70a5a55" d="M 73.832727 -263.547779 
L 73.832727 -182.848887 
L 75.464157 -176.228861 
L 77.095587 -148.052267 
L 78.727017 -107.090796 
L 80.358447 -170.641838 
L 81.989877 -88.356874 
L 83.621307 -166.384396 
L 85.252736 -191.595319 
L 86.884166 -185.244002 
L 88.515596 -58.949089 
L 90.147026 -189.919052 
L 91.778456 -167.52606 
L 93.409886 -215.2296 
L 95.041316 -123.359425 
L 96.672746 -127.429699 
L 98.304175 -130.89815 
L 99.935605 -153.181335 
L 101.567035 -150.373242 
L 103.198465 -142.883491 
L 104.829895 -203.402803 
L 106.461325 -100.945014 
L 108.092755 -168.173085 
L 109.724185 -153.48384 
L 111.355614 -182.924869 
L 112.987044 -122.696428 
L 114.618474 -130.229732 
L 116.249904 -199.63606 
L 117.881334 -128.062918 
L 119.512764 -133.318046 
L 121.144194 -92.360743 
L 122.775624 -158.871748 
L 124.407053 -148.649122 
L 126.038483 -141.554616 
L 127.669913 -145.580671 
L 129.301343 -135.925915 
L 130.932773 -143.591174 
L 132.564203 -139.160541 
L 134.195633 -128.569894 
L 135.827063 -102.73275 
L 137.458492 -178.919481 
L 139.089922 -164.166497 
L 140.721352 -107.424647 
L 142.352782 -146.90168 
L 143.984212 -161.347852 
L 145.615642 -128.268734 
L 147.247072 -204.991172 
L 148.878502 -152.46797 
L 150.509931 -140.497824 
L 152.141361 -105.733444 
L 153.772791 -168.468083 
L 155.404221 -121.875169 
L 157.035651 -171.219478 
L 158.667081 -97.30522 
L 160.298511 -179.268707 
L 161.929941 -152.63946 
L 163.56137 -89.699484 
L 165.1928 -133.905487 
L 166.82423 -124.645911 
L 168.45566 -122.031974 
L 170.08709 -121.125388 
L 171.71852 -160.762289 
L 173.34995 -170.897188 
L 174.98138 -201.236376 
L 176.61281 -76.690154 
L 178.244239 -147.812384 
L 179.875669 -173.553891 
L 181.507099 -204.357987 
L 183.138529 -139.876603 
L 184.769959 -165.881952 
L 186.401389 -113.38795 
L 188.032819 -188.915168 
L 189.664249 -134.966155 
L 191.295678 -149.422951 
L 192.927108 -176.827214 
L 194.558538 -119.125623 
L 196.189968 -171.014633 
L 197.821398 -146.52203 
L 199.452828 -147.626558 
L 201.084258 -142.673126 
L 202.715688 -50.112 
L 204.347117 -130.680225 
L 205.978547 -167.051046 
L 207.609977 -166.323957 
L 209.241407 -143.672654 
L 210.872837 -136.69013 
L 212.504267 -122.011001 
L 214.135697 -144.324732 
L 215.767127 -150.844653 
L 217.398556 -114.233377 
L 219.029986 -72.820716 
L 220.661416 -168.196599 
L 222.292846 -198.029484 
L 223.924276 -175.44559 
L 225.555706 -181.572509 
L 227.187136 -121.735494 
L 228.818566 -205.248908 
L 230.449995 -177.512354 
L 232.081425 -104.4574 
L 233.712855 -95.596897 
L 235.344285 -114.36135 
L 236.975715 -178.672149 
L 238.607145 -95.814919 
L 240.238575 -192.78238 
L 241.870005 -128.736867 
L 243.501434 -141.45961 
L 245.132864 -153.816119 
L 246.764294 -201.192342 
L 248.395724 -195.66307 
L 250.027154 -131.00632 
L 251.658584 -216.217918 
L 253.290014 -194.721976 
L 254.921444 -134.251282 
L 256.552873 -119.11532 
L 258.184303 -110.737463 
L 259.815733 -111.505351 
L 261.447163 -75.462359 
L 263.078593 -176.635873 
L 264.710023 -110.942729 
L 266.341453 -170.900163 
L 267.972883 -207.864384 
L 269.604312 -189.869279 
L 271.235742 -165.387617 
L 272.867172 -203.884264 
L 274.498602 -167.832528 
L 276.130032 -96.417886 
L 277.761462 -134.811137 
L 279.392892 -165.884043 
L 281.024322 -171.207972 
L 282.655751 -92.165895 
L 284.287181 -143.558087 
L 285.918611 -136.018161 
L 287.550041 -168.197898 
L 289.181471 -137.084189 
L 290.812901 -173.323785 
L 292.444331 -92.273074 
L 294.075761 -145.978596 
L 295.70719 -120.855316 
L 297.33862 -80.025 
L 298.97005 -140.785338 
L 300.60148 -135.598052 
L 302.23291 -137.561005 
L 303.86434 -215.88037 
L 305.49577 -98.636953 
L 307.1272 -180.366017 
L 308.75863 -150.763222 
L 310.390059 -158.495336 
L 312.021489 -101.430548 
L 313.652919 -203.005191 
L 315.284349 -130.556635 
L 316.915779 -168.476895 
L 318.547209 -103.297392 
L 320.178639 -199.123017 
L 321.810069 -97.047029 
L 323.441498 -170.893517 
L 325.072928 -176.657615 
L 326.704358 -212.522595 
L 328.335788 -149.069846 
L 329.967218 -206.831596 
L 331.598648 -212.194699 
L 333.230078 -163.984627 
L 334.861508 -149.770492 
L 336.492937 -180.932469 
L 338.124367 -149.665885 
L 339.755797 -187.625019 
L 341.387227 -132.183658 
L 343.018657 -148.656531 
L 344.650087 -136.0498 
L 346.281517 -188.936958 
L 347.912947 -134.475564 
L 349.544376 -191.85373 
L 351.175806 -93.97933 
L 352.807236 -127.803944 
L 354.438666 -213.515335 
L 356.070096 -143.023055 
L 357.701526 -177.086431 
L 359.332956 -185.185208 
L 360.964386 -181.752837 
L 362.595815 -186.090013 
L 364.227245 -127.033325 
L 365.858675 -127.30051 
L 367.490105 -156.23839 
L 369.121535 -165.45001 
L 370.752965 -141.804174 
L 372.384395 -105.765585 
L 374.015825 -156.57894 
L 375.647254 -209.880333 
L 377.278684 -153.754562 
L 378.910114 -98.646185 
L 380.541544 -160.839202 
L 382.172974 -197.122442 
L 383.804404 -180.526087 
L 385.435834 -165.32416 
L 387.067264 -151.220884 
L 388.698693 -78.760172 
L 390.330123 -98.416109 
L 391.961553 -116.228418 
L 393.592983 -164.982215 
L 395.224413 -191.19813 
L 396.855843 -89.077415 
L 398.487273 -100.179178 
L 398.487273 -231.196551 
L 398.487273 -231.196551 
L 396.855843 -259.351764 
L 395.224413 -238.652203 
L 393.592983 -237.093074 
L 391.961553 -240.106281 
L 390.330123 -195.282165 
L 388.698693 -277.319938 
L 387.067264 -213.753608 
L 385.435834 -260.452462 
L 383.804404 -250.539429 
L 382.172974 -241.505343 
L 380.541544 -223.561234 
L 378.910114 -220.988965 
L 377.278684 -270.188099 
L 375.647254 -258.580299 
L 374.015825 -229.546504 
L 372.384395 -261.504633 
L 370.752965 -217.191482 
L 369.121535 -231.169478 
L 367.490105 -225.614478 
L 365.858675 -262.911854 
L 364.227245 -276.342268 
L 362.595815 -238.367744 
L 360.964386 -253.183339 
L 359.332956 -239.363794 
L 357.701526 -235.698911 
L 356.070096 -277.08961 
L 354.438666 -252.494745 
L 352.807236 -224.186767 
L 351.175806 -260.218779 
L 349.544376 -245.820233 
L 347.912947 -260.782395 
L 346.281517 -270.0242 
L 344.650087 -239.669242 
L 343.018657 -245.223234 
L 341.387227 -259.103313 
L 339.755797 -242.302769 
L 338.124367 -245.703422 
L 336.492937 -231.535411 
L 334.861508 -251.882217 
L 333.230078 -258.619858 
L 331.598648 -245.059053 
L 329.967218 -243.670031 
L 328.335788 -262.138187 
L 326.704358 -265.782304 
L 325.072928 -269.635745 
L 323.441498 -218.597053 
L 321.810069 -238.870572 
L 320.178639 -236.129392 
L 318.547209 -243.134773 
L 316.915779 -255.609571 
L 315.284349 -260.518827 
L 313.652919 -250.134539 
L 312.021489 -237.454765 
L 310.390059 -247.642875 
L 308.75863 -248.141473 
L 307.1272 -276.253896 
L 305.49577 -232.70059 
L 303.86434 -268.798425 
L 302.23291 -272.702539 
L 300.60148 -275.92561 
L 298.97005 -255.749467 
L 297.33862 -261.965078 
L 295.70719 -243.392966 
L 294.075761 -245.657106 
L 292.444331 -234.48564 
L 290.812901 -241.11834 
L 289.181471 -215.767412 
L 287.550041 -266.563789 
L 285.918611 -211.282705 
L 284.287181 -252.898076 
L 282.655751 -223.153577 
L 281.024322 -267.949929 
L 279.392892 -226.015707 
L 277.761462 -221.555436 
L 276.130032 -198.328622 
L 274.498602 -260.839933 
L 272.867172 -228.925281 
L 271.235742 -251.050272 
L 269.604312 -220.212963 
L 267.972883 -255.712393 
L 266.341453 -259.74221 
L 264.710023 -261.390251 
L 263.078593 -273.513211 
L 261.447163 -238.953788 
L 259.815733 -224.087185 
L 258.184303 -237.796419 
L 256.552873 -278.042242 
L 254.921444 -264.686827 
L 253.290014 -257.23182 
L 251.658584 -256.349924 
L 250.027154 -230.863843 
L 248.395724 -244.508504 
L 246.764294 -260.498665 
L 245.132864 -250.267455 
L 243.501434 -237.15123 
L 241.870005 -209.555645 
L 240.238575 -283.939544 
L 238.607145 -220.452084 
L 236.975715 -253.765791 
L 235.344285 -286.229563 
L 233.712855 -274.320821 
L 232.081425 -235.795669 
L 230.449995 -274.449255 
L 228.818566 -261.130526 
L 227.187136 -236.299007 
L 225.555706 -279.780829 
L 223.924276 -251.386099 
L 222.292846 -232.997722 
L 220.661416 -254.375388 
L 219.029986 -245.991688 
L 217.398556 -218.306974 
L 215.767127 -235.256731 
L 214.135697 -251.611377 
L 212.504267 -243.227747 
L 210.872837 -225.39448 
L 209.241407 -246.253308 
L 207.609977 -248.475961 
L 205.978547 -263.591681 
L 204.347117 -190.697057 
L 202.715688 -197.098601 
L 201.084258 -235.702623 
L 199.452828 -255.924108 
L 197.821398 -253.125415 
L 196.189968 -238.935241 
L 194.558538 -214.099378 
L 192.927108 -247.916841 
L 191.295678 -229.239324 
L 189.664249 -250.288816 
L 188.032819 -238.46799 
L 186.401389 -259.331258 
L 184.769959 -246.226803 
L 183.138529 -255.608947 
L 181.507099 -243.307922 
L 179.875669 -229.048807 
L 178.244239 -227.884805 
L 176.61281 -214.534945 
L 174.98138 -253.051854 
L 173.34995 -259.911843 
L 171.71852 -255.72366 
L 170.08709 -248.380749 
L 168.45566 -224.706716 
L 166.82423 -280.001527 
L 165.1928 -234.972913 
L 163.56137 -199.773025 
L 161.929941 -217.855788 
L 160.298511 -245.974757 
L 158.667081 -234.10634 
L 157.035651 -227.856437 
L 155.404221 -255.078763 
L 153.772791 -275.325978 
L 152.141361 -225.937247 
L 150.509931 -247.448478 
L 148.878502 -276.864893 
L 147.247072 -256.579967 
L 145.615642 -254.082648 
L 143.984212 -239.313474 
L 142.352782 -231.55421 
L 140.721352 -214.30974 
L 139.089922 -258.479736 
L 137.458492 -250.271577 
L 135.827063 -223.63059 
L 134.195633 -285.422256 
L 132.564203 -255.023707 
L 130.932773 -284.287019 
L 129.301343 -225.907751 
L 127.669913 -258.378098 
L 126.038483 -243.668836 
L 124.407053 -254.418801 
L 122.775624 -233.415584 
L 121.144194 -276.367499 
L 119.512764 -246.01015 
L 117.881334 -267.815777 
L 116.249904 -244.245496 
L 114.618474 -246.900961 
L 112.987044 -224.778096 
L 111.355614 -278.773387 
L 109.724185 -256.435973 
L 108.092755 -237.908191 
L 106.461325 -217.822497 
L 104.829895 -256.542425 
L 103.198465 -222.503165 
L 101.567035 -230.557428 
L 99.935605 -248.864727 
L 98.304175 -229.286441 
L 96.672746 -255.070634 
L 95.041316 -238.830159 
L 93.409886 -266.946584 
L 91.778456 -258.817781 
L 90.147026 -263.200118 
L 88.515596 -276.391524 
L 86.884166 -259.280352 
L 85.252736 -264.10827 
L 83.621307 -266.575453 
L 81.989877 -222.004977 
L 80.358447 -262.241515 
L 78.727017 -260.652459 
L 77.095587 -292.032 
L 75.464157 -220.82979 
L 73.832727 -263.547779 
z
" style="stroke: #ffffff; stroke-opacity: 0.2"/>
    </defs>
    <g clip-path="url(#pa51dd19a64)">
     <use xlink:href="#m55b70a5a55" x="0" y="345.6" style="fill: #1f77b4; fill-opacity: 0.2; stroke: #ffffff; stroke-opacity: 0.2"/>
    </g>
   </g>
   <g id="line2d_17">
    <path d="M 73.832727 122.401667 
L 75.464157 147.070675 
L 77.095587 125.557867 
L 78.727017 161.728373 
L 80.358447 129.158323 
L 81.989877 190.419074 
L 83.621307 129.120076 
L 85.252736 117.748206 
L 86.884166 123.337823 
L 88.515596 177.929694 
L 90.147026 119.040415 
L 91.778456 132.42808 
L 93.409886 104.511908 
L 95.041316 164.505208 
L 96.672746 154.349834 
L 98.304175 165.507705 
L 99.935605 144.576969 
L 101.567035 155.134665 
L 103.198465 162.906672 
L 104.829895 115.627386 
L 106.461325 186.216245 
L 108.092755 142.559362 
L 109.724185 140.640093 
L 111.355614 114.750872 
L 112.987044 171.862738 
L 114.618474 157.034654 
L 116.249904 123.659222 
L 117.881334 147.660652 
L 119.512764 155.935902 
L 121.144194 161.235879 
L 122.775624 149.456334 
L 124.407053 144.066039 
L 126.038483 152.988274 
L 127.669913 143.620616 
L 129.301343 164.683167 
L 130.932773 131.660903 
L 132.564203 148.507876 
L 134.195633 138.603925 
L 135.827063 182.41833 
L 137.458492 131.004471 
L 139.089922 134.276884 
L 140.721352 184.732806 
L 142.352782 156.372055 
L 143.984212 145.269337 
L 145.615642 154.424309 
L 147.247072 114.814431 
L 148.878502 130.933569 
L 150.509931 151.626849 
L 152.141361 179.764654 
L 153.772791 123.702969 
L 155.404221 157.123034 
L 157.035651 146.062043 
L 158.667081 179.89422 
L 160.298511 132.978268 
L 161.929941 160.352376 
L 163.56137 200.863746 
L 165.1928 161.1608 
L 166.82423 143.276281 
L 168.45566 172.230655 
L 170.08709 160.846932 
L 171.71852 137.357025 
L 173.34995 130.195485 
L 174.98138 118.455885 
L 176.61281 199.98745 
L 178.244239 157.751406 
L 179.875669 144.298651 
L 181.507099 121.767046 
L 183.138529 147.857225 
L 184.769959 139.545623 
L 186.401389 159.240396 
L 188.032819 131.908421 
L 189.664249 152.972514 
L 191.295678 156.268863 
L 192.927108 133.227973 
L 194.558538 178.9875 
L 196.189968 140.625063 
L 197.821398 145.776278 
L 199.452828 143.824667 
L 201.084258 156.412126 
L 202.715688 221.9947 
L 204.347117 184.911359 
L 205.978547 130.278636 
L 207.609977 138.200041 
L 209.241407 150.637019 
L 210.872837 164.557695 
L 212.504267 162.980626 
L 214.135697 147.631946 
L 215.767127 152.549308 
L 217.398556 179.329824 
L 219.029986 186.193798 
L 220.661416 134.314006 
L 222.292846 130.086397 
L 223.924276 132.184156 
L 225.555706 114.923331 
L 227.187136 166.582749 
L 228.818566 112.410283 
L 230.449995 119.619196 
L 232.081425 175.473465 
L 235.344285 145.304543 
L 236.975715 129.38103 
L 238.607145 187.466498 
L 240.238575 107.239038 
L 241.870005 176.453744 
L 243.501434 156.29458 
L 245.132864 143.558213 
L 246.764294 114.754497 
L 248.395724 125.514213 
L 250.027154 164.664918 
L 251.658584 109.316079 
L 253.290014 119.623102 
L 254.921444 146.130945 
L 256.552873 147.021219 
L 258.184303 171.333059 
L 259.815733 177.803732 
L 261.447163 188.391926 
L 263.078593 120.525458 
L 264.710023 159.43351 
L 266.341453 130.278813 
L 267.972883 113.811611 
L 269.604312 140.558879 
L 271.235742 137.381055 
L 272.867172 129.195228 
L 274.498602 131.263769 
L 276.130032 198.226746 
L 277.761462 167.416714 
L 279.392892 149.650125 
L 281.024322 126.021049 
L 282.655751 187.940264 
L 284.287181 147.371918 
L 285.918611 171.949567 
L 287.550041 128.219157 
L 289.181471 169.1742 
L 290.812901 138.378937 
L 292.444331 182.220643 
L 294.075761 149.782149 
L 295.70719 163.475859 
L 297.33862 174.604961 
L 298.97005 147.332598 
L 300.60148 139.838169 
L 302.23291 140.468228 
L 303.86434 103.260602 
L 305.49577 179.931229 
L 307.1272 117.290044 
L 308.75863 146.147653 
L 310.390059 142.530895 
L 312.021489 176.157344 
L 313.652919 119.030135 
L 315.284349 150.062269 
L 316.915779 133.556767 
L 318.547209 172.383918 
L 320.178639 127.973795 
L 321.810069 177.641199 
L 325.072928 122.45332 
L 326.704358 106.447551 
L 328.335788 139.995983 
L 329.967218 120.349187 
L 331.598648 116.973124 
L 333.230078 134.297757 
L 334.861508 144.773646 
L 336.492937 139.36606 
L 338.124367 147.915346 
L 339.755797 130.636106 
L 341.387227 149.956515 
L 343.018657 148.660118 
L 344.650087 157.740479 
L 346.281517 116.119421 
L 347.912947 147.97102 
L 349.544376 126.763019 
L 351.175806 168.500945 
L 352.807236 169.604645 
L 354.438666 112.59496 
L 356.070096 135.543667 
L 357.701526 139.207329 
L 359.332956 133.325499 
L 360.964386 128.131912 
L 362.595815 133.371121 
L 364.227245 143.912204 
L 365.858675 150.493818 
L 367.490105 154.673566 
L 369.121535 147.290256 
L 370.752965 166.102172 
L 372.384395 161.964891 
L 374.015825 152.537278 
L 375.647254 111.369684 
L 377.278684 133.628669 
L 378.910114 185.782425 
L 380.541544 153.399782 
L 382.172974 126.286108 
L 383.804404 130.067242 
L 385.435834 132.711689 
L 387.067264 163.112754 
L 388.698693 167.559945 
L 390.330123 198.750863 
L 391.961553 167.43265 
L 393.592983 144.562355 
L 395.224413 130.674833 
L 396.855843 171.38541 
L 398.487273 179.912136 
L 398.487273 179.912136 
" clip-path="url(#pa51dd19a64)" style="fill: none; stroke: #1f77b4; stroke-width: 1.5; stroke-linecap: round"/>
   </g>
   <g id="LineCollection_1">
    <path d="M 398.487273 295.488 
L 398.487273 53.568 
" clip-path="url(#pa51dd19a64)" style="fill: none; stroke-dasharray: 5.55,2.4; stroke-dashoffset: 0; stroke: #1f77b4; stroke-width: 1.5"/>
   </g>
   <g id="patch_3">
    <path d="M 57.6 307.584 
L 57.6 41.472 
" style="fill: none; stroke: #cccccc; stroke-width: 0.8; stroke-linejoin: miter; stroke-linecap: square"/>
   </g>
   <g id="patch_4">
    <path d="M 414.72 307.584 
L 414.72 41.472 
" style="fill: none; stroke: #cccccc; stroke-width: 0.8; stroke-linejoin: miter; stroke-linecap: square"/>
   </g>
   <g id="patch_5">
    <path d="M 57.6 307.584 
L 414.72 307.584 
" style="fill: none; stroke: #cccccc; stroke-width: 0.8; stroke-linejoin: miter; stroke-linecap: square"/>
   </g>
   <g id="patch_6">
    <path d="M 57.6 41.472 
L 414.72 41.472 
" style="fill: none; stroke: #cccccc; stroke-width: 0.8; stroke-linejoin: miter; stroke-linecap: square"/>
   </g>
   <g id="text_19">
    <!-- Model performance vs. # of iterations -->
    <g style="fill: #262626" transform="translate(122.314688 35.472)scale(0.12 -0.12)">
     <defs>
      <path id="DejaVuSans-4d" d="M 628 4666 
L 1569 4666 
L 2759 1491 
L 3956 4666 
L 4897 4666 
L 4897 0 
L 4281 0 
L 4281 4097 
L 3078 897 
L 2444 897 
L 1241 4097 
L 1241 0 
L 628 0 
L 628 4666 
z
" transform="scale(0.015625)"/>
      <path id="DejaVuSans-64" d="M 2906 2969 
L 2906 4863 
L 3481 4863 
L 3481 0 
L 2906 0 
L 2906 525 
Q 2725 213 2448 61 
Q 2172 -91 1784 -91 
Q 1150 -91 751 415 
Q 353 922 353 1747 
Q 353 2572 751 3078 
Q 1150 3584 1784 3584 
Q 2172 3584 2448 3432 
Q 2725 3281 2906 2969 
z
M 947 1747 
Q 947 1113 1208 752 
Q 1469 391 1925 391 
Q 2381 391 2643 752 
Q 2906 1113 2906 1747 
Q 2906 2381 2643 2742 
Q 2381 3103 1925 3103 
Q 1469 3103 1208 2742 
Q 947 2381 947 1747 
z
" transform="scale(0.015625)"/>
      <path id="DejaVuSans-6c" d="M 603 4863 
L 1178 4863 
L 1178 0 
L 603 0 
L 603 4863 
z
" transform="scale(0.015625)"/>
      <path id="DejaVuSans-20" transform="scale(0.015625)"/>
      <path id="DejaVuSans-70" d="M 1159 525 
L 1159 -1331 
L 581 -1331 
L 581 3500 
L 1159 3500 
L 1159 2969 
Q 1341 3281 1617 3432 
Q 1894 3584 2278 3584 
Q 2916 3584 3314 3078 
Q 3713 2572 3713 1747 
Q 3713 922 3314 415 
Q 2916 -91 2278 -91 
Q 1894 -91 1617 61 
Q 1341 213 1159 525 
z
M 3116 1747 
Q 3116 2381 2855 2742 
Q 2594 3103 2138 3103 
Q 1681 3103 1420 2742 
Q 1159 2381 1159 1747 
Q 1159 1113 1420 752 
Q 1681 391 2138 391 
Q 2594 391 2855 752 
Q 3116 1113 3116 1747 
z
" transform="scale(0.015625)"/>
      <path id="DejaVuSans-66" d="M 2375 4863 
L 2375 4384 
L 1825 4384 
Q 1516 4384 1395 4259 
Q 1275 4134 1275 3809 
L 1275 3500 
L 2222 3500 
L 2222 3053 
L 1275 3053 
L 1275 0 
L 697 0 
L 697 3053 
L 147 3053 
L 147 3500 
L 697 3500 
L 697 3744 
Q 697 4328 969 4595 
Q 1241 4863 1831 4863 
L 2375 4863 
z
" transform="scale(0.015625)"/>
      <path id="DejaVuSans-6d" d="M 3328 2828 
Q 3544 3216 3844 3400 
Q 4144 3584 4550 3584 
Q 5097 3584 5394 3201 
Q 5691 2819 5691 2113 
L 5691 0 
L 5113 0 
L 5113 2094 
Q 5113 2597 4934 2840 
Q 4756 3084 4391 3084 
Q 3944 3084 3684 2787 
Q 3425 2491 3425 1978 
L 3425 0 
L 2847 0 
L 2847 2094 
Q 2847 2600 2669 2842 
Q 2491 3084 2119 3084 
Q 1678 3084 1418 2786 
Q 1159 2488 1159 1978 
L 1159 0 
L 581 0 
L 581 3500 
L 1159 3500 
L 1159 2956 
Q 1356 3278 1631 3431 
Q 1906 3584 2284 3584 
Q 2666 3584 2933 3390 
Q 3200 3197 3328 2828 
z
" transform="scale(0.015625)"/>
      <path id="DejaVuSans-76" d="M 191 3500 
L 800 3500 
L 1894 563 
L 2988 3500 
L 3597 3500 
L 2284 0 
L 1503 0 
L 191 3500 
z
" transform="scale(0.015625)"/>
      <path id="DejaVuSans-73" d="M 2834 3397 
L 2834 2853 
Q 2591 2978 2328 3040 
Q 2066 3103 1784 3103 
Q 1356 3103 1142 2972 
Q 928 2841 928 2578 
Q 928 2378 1081 2264 
Q 1234 2150 1697 2047 
L 1894 2003 
Q 2506 1872 2764 1633 
Q 3022 1394 3022 966 
Q 3022 478 2636 193 
Q 2250 -91 1575 -91 
Q 1294 -91 989 -36 
Q 684 19 347 128 
L 347 722 
Q 666 556 975 473 
Q 1284 391 1588 391 
Q 1994 391 2212 530 
Q 2431 669 2431 922 
Q 2431 1156 2273 1281 
Q 2116 1406 1581 1522 
L 1381 1569 
Q 847 1681 609 1914 
Q 372 2147 372 2553 
Q 372 3047 722 3315 
Q 1072 3584 1716 3584 
Q 2034 3584 2315 3537 
Q 2597 3491 2834 3397 
z
" transform="scale(0.015625)"/>
      <path id="DejaVuSans-23" d="M 3272 2816 
L 2363 2816 
L 2100 1772 
L 3016 1772 
L 3272 2816 
z
M 2803 4594 
L 2478 3297 
L 3391 3297 
L 3719 4594 
L 4219 4594 
L 3897 3297 
L 4872 3297 
L 4872 2816 
L 3775 2816 
L 3519 1772 
L 4513 1772 
L 4513 1294 
L 3397 1294 
L 3072 0 
L 2572 0 
L 2894 1294 
L 1978 1294 
L 1656 0 
L 1153 0 
L 1478 1294 
L 494 1294 
L 494 1772 
L 1594 1772 
L 1856 2816 
L 850 2816 
L 850 3297 
L 1978 3297 
L 2297 4594 
L 2803 4594 
z
" transform="scale(0.015625)"/>
     </defs>
     <use xlink:href="#DejaVuSans-4d"/>
     <use xlink:href="#DejaVuSans-6f" x="86.279297"/>
     <use xlink:href="#DejaVuSans-64" x="147.460938"/>
     <use xlink:href="#DejaVuSans-65" x="210.9375"/>
     <use xlink:href="#DejaVuSans-6c" x="272.460938"/>
     <use xlink:href="#DejaVuSans-20" x="300.244141"/>
     <use xlink:href="#DejaVuSans-70" x="332.03125"/>
     <use xlink:href="#DejaVuSans-65" x="395.507812"/>
     <use xlink:href="#DejaVuSans-72" x="457.03125"/>
     <use xlink:href="#DejaVuSans-66" x="498.144531"/>
     <use xlink:href="#DejaVuSans-6f" x="533.349609"/>
     <use xlink:href="#DejaVuSans-72" x="594.53125"/>
     <use xlink:href="#DejaVuSans-6d" x="633.894531"/>
     <use xlink:href="#DejaVuSans-61" x="731.306641"/>
     <use xlink:href="#DejaVuSans-6e" x="792.585938"/>
     <use xlink:href="#DejaVuSans-63" x="855.964844"/>
     <use xlink:href="#DejaVuSans-65" x="910.945312"/>
     <use xlink:href="#DejaVuSans-20" x="972.46875"/>
     <use xlink:href="#DejaVuSans-76" x="1004.255859"/>
     <use xlink:href="#DejaVuSans-73" x="1063.435547"/>
     <use xlink:href="#DejaVuSans-2e" x="1115.535156"/>
     <use xlink:href="#DejaVuSans-20" x="1147.322266"/>
     <use xlink:href="#DejaVuSans-23" x="1179.109375"/>
     <use xlink:href="#DejaVuSans-20" x="1262.898438"/>
     <use xlink:href="#DejaVuSans-6f" x="1294.685547"/>
     <use xlink:href="#DejaVuSans-66" x="1355.867188"/>
     <use xlink:href="#DejaVuSans-20" x="1391.072266"/>
     <use xlink:href="#DejaVuSans-69" x="1422.859375"/>
     <use xlink:href="#DejaVuSans-74" x="1450.642578"/>
     <use xlink:href="#DejaVuSans-65" x="1489.851562"/>
     <use xlink:href="#DejaVuSans-72" x="1551.375"/>
     <use xlink:href="#DejaVuSans-61" x="1592.488281"/>
     <use xlink:href="#DejaVuSans-74" x="1653.767578"/>
     <use xlink:href="#DejaVuSans-69" x="1692.976562"/>
     <use xlink:href="#DejaVuSans-6f" x="1720.759766"/>
     <use xlink:href="#DejaVuSans-6e" x="1781.941406"/>
     <use xlink:href="#DejaVuSans-73" x="1845.320312"/>
    </g>
   </g>
  </g>
 </g>
 <defs>
  <clipPath id="pa51dd19a64">
   <rect x="57.6" y="41.472" width="357.12" height="266.112"/>
  </clipPath>
 </defs>
</svg>
