<?xml version="1.0" encoding="utf-8" standalone="no"?>
<!DOCTYPE svg PUBLIC "-//W3C//DTD SVG 1.1//EN"
  "http://www.w3.org/Graphics/SVG/1.1/DTD/svg11.dtd">
<svg height="345.6pt" version="1.1" viewBox="0 0 460.8 345.6" width="460.8pt" xmlns="http://www.w3.org/2000/svg" xmlns:xlink="http://www.w3.org/1999/xlink">
 <metadata>
  <rdf:RDF xmlns:cc="http://creativecommons.org/ns#" xmlns:dc="http://purl.org/dc/elements/1.1/" xmlns:rdf="http://www.w3.org/1999/02/22-rdf-syntax-ns#">
   <cc:Work>
    <dc:type rdf:resource="http://purl.org/dc/dcmitype/StillImage"/>
    <dc:date>2022-01-23T00:37:44.980997</dc:date>
    <dc:format>image/svg+xml</dc:format>
    <dc:creator>
     <cc:Agent>
      <dc:title>Matplotlib v3.4.3, https://matplotlib.org/</dc:title>
     </cc:Agent>
    </dc:creator>
   </cc:Work>
  </rdf:RDF>
 </metadata>
 <defs>
  <style type="text/css">*{stroke-linecap:butt;stroke-linejoin:round;}</style>
 </defs>
 <g id="figure_1">
  <g id="patch_1">
   <path d="M 0 345.6 
L 460.8 345.6 
L 460.8 0 
L 0 0 
z
" style="fill:#ffffff;"/>
  </g>
  <g id="axes_1">
   <g id="patch_2">
    <path d="M 57.6 307.584 
L 414.72 307.584 
L 414.72 41.472 
L 57.6 41.472 
z
" style="fill:#ffffff;"/>
   </g>
   <g id="matplotlib.axis_1">
    <g id="xtick_1">
     <g id="line2d_1">
      <path clip-path="url(#pd7cee399e3)" d="M 72.201297 307.584 
L 72.201297 41.472 
" style="fill:none;stroke:#cccccc;stroke-linecap:round;stroke-width:0.8;"/>
     </g>
     <g id="text_1">
      <!-- 0 -->
      <g style="fill:#262626;" transform="translate(69.020047 322.182437)scale(0.1 -0.1)">
       <defs>
        <path d="M 2034 4250 
Q 1547 4250 1301 3770 
Q 1056 3291 1056 2328 
Q 1056 1369 1301 889 
Q 1547 409 2034 409 
Q 2525 409 2770 889 
Q 3016 1369 3016 2328 
Q 3016 3291 2770 3770 
Q 2525 4250 2034 4250 
z
M 2034 4750 
Q 2819 4750 3233 4129 
Q 3647 3509 3647 2328 
Q 3647 1150 3233 529 
Q 2819 -91 2034 -91 
Q 1250 -91 836 529 
Q 422 1150 422 2328 
Q 422 3509 836 4129 
Q 1250 4750 2034 4750 
z
" id="DejaVuSans-30" transform="scale(0.015625)"/>
       </defs>
       <use xlink:href="#DejaVuSans-30"/>
      </g>
     </g>
    </g>
    <g id="xtick_2">
     <g id="line2d_2">
      <path clip-path="url(#pd7cee399e3)" d="M 112.987044 307.584 
L 112.987044 41.472 
" style="fill:none;stroke:#cccccc;stroke-linecap:round;stroke-width:0.8;"/>
     </g>
     <g id="text_2">
      <!-- 25 -->
      <g style="fill:#262626;" transform="translate(106.624544 322.182437)scale(0.1 -0.1)">
       <defs>
        <path d="M 1228 531 
L 3431 531 
L 3431 0 
L 469 0 
L 469 531 
Q 828 903 1448 1529 
Q 2069 2156 2228 2338 
Q 2531 2678 2651 2914 
Q 2772 3150 2772 3378 
Q 2772 3750 2511 3984 
Q 2250 4219 1831 4219 
Q 1534 4219 1204 4116 
Q 875 4013 500 3803 
L 500 4441 
Q 881 4594 1212 4672 
Q 1544 4750 1819 4750 
Q 2544 4750 2975 4387 
Q 3406 4025 3406 3419 
Q 3406 3131 3298 2873 
Q 3191 2616 2906 2266 
Q 2828 2175 2409 1742 
Q 1991 1309 1228 531 
z
" id="DejaVuSans-32" transform="scale(0.015625)"/>
        <path d="M 691 4666 
L 3169 4666 
L 3169 4134 
L 1269 4134 
L 1269 2991 
Q 1406 3038 1543 3061 
Q 1681 3084 1819 3084 
Q 2600 3084 3056 2656 
Q 3513 2228 3513 1497 
Q 3513 744 3044 326 
Q 2575 -91 1722 -91 
Q 1428 -91 1123 -41 
Q 819 9 494 109 
L 494 744 
Q 775 591 1075 516 
Q 1375 441 1709 441 
Q 2250 441 2565 725 
Q 2881 1009 2881 1497 
Q 2881 1984 2565 2268 
Q 2250 2553 1709 2553 
Q 1456 2553 1204 2497 
Q 953 2441 691 2322 
L 691 4666 
z
" id="DejaVuSans-35" transform="scale(0.015625)"/>
       </defs>
       <use xlink:href="#DejaVuSans-32"/>
       <use x="63.623047" xlink:href="#DejaVuSans-35"/>
      </g>
     </g>
    </g>
    <g id="xtick_3">
     <g id="line2d_3">
      <path clip-path="url(#pd7cee399e3)" d="M 153.772791 307.584 
L 153.772791 41.472 
" style="fill:none;stroke:#cccccc;stroke-linecap:round;stroke-width:0.8;"/>
     </g>
     <g id="text_3">
      <!-- 50 -->
      <g style="fill:#262626;" transform="translate(147.410291 322.182437)scale(0.1 -0.1)">
       <use xlink:href="#DejaVuSans-35"/>
       <use x="63.623047" xlink:href="#DejaVuSans-30"/>
      </g>
     </g>
    </g>
    <g id="xtick_4">
     <g id="line2d_4">
      <path clip-path="url(#pd7cee399e3)" d="M 194.558538 307.584 
L 194.558538 41.472 
" style="fill:none;stroke:#cccccc;stroke-linecap:round;stroke-width:0.8;"/>
     </g>
     <g id="text_4">
      <!-- 75 -->
      <g style="fill:#262626;" transform="translate(188.196038 322.182437)scale(0.1 -0.1)">
       <defs>
        <path d="M 525 4666 
L 3525 4666 
L 3525 4397 
L 1831 0 
L 1172 0 
L 2766 4134 
L 525 4134 
L 525 4666 
z
" id="DejaVuSans-37" transform="scale(0.015625)"/>
       </defs>
       <use xlink:href="#DejaVuSans-37"/>
       <use x="63.623047" xlink:href="#DejaVuSans-35"/>
      </g>
     </g>
    </g>
    <g id="xtick_5">
     <g id="line2d_5">
      <path clip-path="url(#pd7cee399e3)" d="M 235.344285 307.584 
L 235.344285 41.472 
" style="fill:none;stroke:#cccccc;stroke-linecap:round;stroke-width:0.8;"/>
     </g>
     <g id="text_5">
      <!-- 100 -->
      <g style="fill:#262626;" transform="translate(225.800535 322.182437)scale(0.1 -0.1)">
       <defs>
        <path d="M 794 531 
L 1825 531 
L 1825 4091 
L 703 3866 
L 703 4441 
L 1819 4666 
L 2450 4666 
L 2450 531 
L 3481 531 
L 3481 0 
L 794 0 
L 794 531 
z
" id="DejaVuSans-31" transform="scale(0.015625)"/>
       </defs>
       <use xlink:href="#DejaVuSans-31"/>
       <use x="63.623047" xlink:href="#DejaVuSans-30"/>
       <use x="127.246094" xlink:href="#DejaVuSans-30"/>
      </g>
     </g>
    </g>
    <g id="xtick_6">
     <g id="line2d_6">
      <path clip-path="url(#pd7cee399e3)" d="M 276.130032 307.584 
L 276.130032 41.472 
" style="fill:none;stroke:#cccccc;stroke-linecap:round;stroke-width:0.8;"/>
     </g>
     <g id="text_6">
      <!-- 125 -->
      <g style="fill:#262626;" transform="translate(266.586282 322.182437)scale(0.1 -0.1)">
       <use xlink:href="#DejaVuSans-31"/>
       <use x="63.623047" xlink:href="#DejaVuSans-32"/>
       <use x="127.246094" xlink:href="#DejaVuSans-35"/>
      </g>
     </g>
    </g>
    <g id="xtick_7">
     <g id="line2d_7">
      <path clip-path="url(#pd7cee399e3)" d="M 316.915779 307.584 
L 316.915779 41.472 
" style="fill:none;stroke:#cccccc;stroke-linecap:round;stroke-width:0.8;"/>
     </g>
     <g id="text_7">
      <!-- 150 -->
      <g style="fill:#262626;" transform="translate(307.372029 322.182437)scale(0.1 -0.1)">
       <use xlink:href="#DejaVuSans-31"/>
       <use x="63.623047" xlink:href="#DejaVuSans-35"/>
       <use x="127.246094" xlink:href="#DejaVuSans-30"/>
      </g>
     </g>
    </g>
    <g id="xtick_8">
     <g id="line2d_8">
      <path clip-path="url(#pd7cee399e3)" d="M 357.701526 307.584 
L 357.701526 41.472 
" style="fill:none;stroke:#cccccc;stroke-linecap:round;stroke-width:0.8;"/>
     </g>
     <g id="text_8">
      <!-- 175 -->
      <g style="fill:#262626;" transform="translate(348.157776 322.182437)scale(0.1 -0.1)">
       <use xlink:href="#DejaVuSans-31"/>
       <use x="63.623047" xlink:href="#DejaVuSans-37"/>
       <use x="127.246094" xlink:href="#DejaVuSans-35"/>
      </g>
     </g>
    </g>
    <g id="xtick_9">
     <g id="line2d_9">
      <path clip-path="url(#pd7cee399e3)" d="M 398.487273 307.584 
L 398.487273 41.472 
" style="fill:none;stroke:#cccccc;stroke-linecap:round;stroke-width:0.8;"/>
     </g>
     <g id="text_9">
      <!-- 200 -->
      <g style="fill:#262626;" transform="translate(388.943523 322.182437)scale(0.1 -0.1)">
       <use xlink:href="#DejaVuSans-32"/>
       <use x="63.623047" xlink:href="#DejaVuSans-30"/>
       <use x="127.246094" xlink:href="#DejaVuSans-30"/>
      </g>
     </g>
    </g>
    <g id="text_10">
     <!-- Auroc -->
     <g style="fill:#262626;" transform="translate(221.819375 335.860562)scale(0.1 -0.1)">
      <defs>
       <path d="M 2188 4044 
L 1331 1722 
L 3047 1722 
L 2188 4044 
z
M 1831 4666 
L 2547 4666 
L 4325 0 
L 3669 0 
L 3244 1197 
L 1141 1197 
L 716 0 
L 50 0 
L 1831 4666 
z
" id="DejaVuSans-41" transform="scale(0.015625)"/>
       <path d="M 544 1381 
L 544 3500 
L 1119 3500 
L 1119 1403 
Q 1119 906 1312 657 
Q 1506 409 1894 409 
Q 2359 409 2629 706 
Q 2900 1003 2900 1516 
L 2900 3500 
L 3475 3500 
L 3475 0 
L 2900 0 
L 2900 538 
Q 2691 219 2414 64 
Q 2138 -91 1772 -91 
Q 1169 -91 856 284 
Q 544 659 544 1381 
z
M 1991 3584 
L 1991 3584 
z
" id="DejaVuSans-75" transform="scale(0.015625)"/>
       <path d="M 2631 2963 
Q 2534 3019 2420 3045 
Q 2306 3072 2169 3072 
Q 1681 3072 1420 2755 
Q 1159 2438 1159 1844 
L 1159 0 
L 581 0 
L 581 3500 
L 1159 3500 
L 1159 2956 
Q 1341 3275 1631 3429 
Q 1922 3584 2338 3584 
Q 2397 3584 2469 3576 
Q 2541 3569 2628 3553 
L 2631 2963 
z
" id="DejaVuSans-72" transform="scale(0.015625)"/>
       <path d="M 1959 3097 
Q 1497 3097 1228 2736 
Q 959 2375 959 1747 
Q 959 1119 1226 758 
Q 1494 397 1959 397 
Q 2419 397 2687 759 
Q 2956 1122 2956 1747 
Q 2956 2369 2687 2733 
Q 2419 3097 1959 3097 
z
M 1959 3584 
Q 2709 3584 3137 3096 
Q 3566 2609 3566 1747 
Q 3566 888 3137 398 
Q 2709 -91 1959 -91 
Q 1206 -91 779 398 
Q 353 888 353 1747 
Q 353 2609 779 3096 
Q 1206 3584 1959 3584 
z
" id="DejaVuSans-6f" transform="scale(0.015625)"/>
       <path d="M 3122 3366 
L 3122 2828 
Q 2878 2963 2633 3030 
Q 2388 3097 2138 3097 
Q 1578 3097 1268 2742 
Q 959 2388 959 1747 
Q 959 1106 1268 751 
Q 1578 397 2138 397 
Q 2388 397 2633 464 
Q 2878 531 3122 666 
L 3122 134 
Q 2881 22 2623 -34 
Q 2366 -91 2075 -91 
Q 1284 -91 818 406 
Q 353 903 353 1747 
Q 353 2603 823 3093 
Q 1294 3584 2113 3584 
Q 2378 3584 2631 3529 
Q 2884 3475 3122 3366 
z
" id="DejaVuSans-63" transform="scale(0.015625)"/>
      </defs>
      <use xlink:href="#DejaVuSans-41"/>
      <use x="68.408203" xlink:href="#DejaVuSans-75"/>
      <use x="131.787109" xlink:href="#DejaVuSans-72"/>
      <use x="170.650391" xlink:href="#DejaVuSans-6f"/>
      <use x="231.832031" xlink:href="#DejaVuSans-63"/>
     </g>
    </g>
   </g>
   <g id="matplotlib.axis_2">
    <g id="ytick_1">
     <g id="line2d_10">
      <path clip-path="url(#pd7cee399e3)" d="M 57.6 274.689007 
L 414.72 274.689007 
" style="fill:none;stroke:#cccccc;stroke-linecap:round;stroke-width:0.8;"/>
     </g>
     <g id="text_11">
      <!-- 0.60 -->
      <g style="fill:#262626;" transform="translate(28.334375 278.488226)scale(0.1 -0.1)">
       <defs>
        <path d="M 684 794 
L 1344 794 
L 1344 0 
L 684 0 
L 684 794 
z
" id="DejaVuSans-2e" transform="scale(0.015625)"/>
        <path d="M 2113 2584 
Q 1688 2584 1439 2293 
Q 1191 2003 1191 1497 
Q 1191 994 1439 701 
Q 1688 409 2113 409 
Q 2538 409 2786 701 
Q 3034 994 3034 1497 
Q 3034 2003 2786 2293 
Q 2538 2584 2113 2584 
z
M 3366 4563 
L 3366 3988 
Q 3128 4100 2886 4159 
Q 2644 4219 2406 4219 
Q 1781 4219 1451 3797 
Q 1122 3375 1075 2522 
Q 1259 2794 1537 2939 
Q 1816 3084 2150 3084 
Q 2853 3084 3261 2657 
Q 3669 2231 3669 1497 
Q 3669 778 3244 343 
Q 2819 -91 2113 -91 
Q 1303 -91 875 529 
Q 447 1150 447 2328 
Q 447 3434 972 4092 
Q 1497 4750 2381 4750 
Q 2619 4750 2861 4703 
Q 3103 4656 3366 4563 
z
" id="DejaVuSans-36" transform="scale(0.015625)"/>
       </defs>
       <use xlink:href="#DejaVuSans-30"/>
       <use x="63.623047" xlink:href="#DejaVuSans-2e"/>
       <use x="95.410156" xlink:href="#DejaVuSans-36"/>
       <use x="159.033203" xlink:href="#DejaVuSans-30"/>
      </g>
     </g>
    </g>
    <g id="ytick_2">
     <g id="line2d_11">
      <path clip-path="url(#pd7cee399e3)" d="M 57.6 231.697949 
L 414.72 231.697949 
" style="fill:none;stroke:#cccccc;stroke-linecap:round;stroke-width:0.8;"/>
     </g>
     <g id="text_12">
      <!-- 0.65 -->
      <g style="fill:#262626;" transform="translate(28.334375 235.497167)scale(0.1 -0.1)">
       <use xlink:href="#DejaVuSans-30"/>
       <use x="63.623047" xlink:href="#DejaVuSans-2e"/>
       <use x="95.410156" xlink:href="#DejaVuSans-36"/>
       <use x="159.033203" xlink:href="#DejaVuSans-35"/>
      </g>
     </g>
    </g>
    <g id="ytick_3">
     <g id="line2d_12">
      <path clip-path="url(#pd7cee399e3)" d="M 57.6 188.70689 
L 414.72 188.70689 
" style="fill:none;stroke:#cccccc;stroke-linecap:round;stroke-width:0.8;"/>
     </g>
     <g id="text_13">
      <!-- 0.70 -->
      <g style="fill:#262626;" transform="translate(28.334375 192.506109)scale(0.1 -0.1)">
       <use xlink:href="#DejaVuSans-30"/>
       <use x="63.623047" xlink:href="#DejaVuSans-2e"/>
       <use x="95.410156" xlink:href="#DejaVuSans-37"/>
       <use x="159.033203" xlink:href="#DejaVuSans-30"/>
      </g>
     </g>
    </g>
    <g id="ytick_4">
     <g id="line2d_13">
      <path clip-path="url(#pd7cee399e3)" d="M 57.6 145.715832 
L 414.72 145.715832 
" style="fill:none;stroke:#cccccc;stroke-linecap:round;stroke-width:0.8;"/>
     </g>
     <g id="text_14">
      <!-- 0.75 -->
      <g style="fill:#262626;" transform="translate(28.334375 149.515051)scale(0.1 -0.1)">
       <use xlink:href="#DejaVuSans-30"/>
       <use x="63.623047" xlink:href="#DejaVuSans-2e"/>
       <use x="95.410156" xlink:href="#DejaVuSans-37"/>
       <use x="159.033203" xlink:href="#DejaVuSans-35"/>
      </g>
     </g>
    </g>
    <g id="ytick_5">
     <g id="line2d_14">
      <path clip-path="url(#pd7cee399e3)" d="M 57.6 102.724774 
L 414.72 102.724774 
" style="fill:none;stroke:#cccccc;stroke-linecap:round;stroke-width:0.8;"/>
     </g>
     <g id="text_15">
      <!-- 0.80 -->
      <g style="fill:#262626;" transform="translate(28.334375 106.523992)scale(0.1 -0.1)">
       <defs>
        <path d="M 2034 2216 
Q 1584 2216 1326 1975 
Q 1069 1734 1069 1313 
Q 1069 891 1326 650 
Q 1584 409 2034 409 
Q 2484 409 2743 651 
Q 3003 894 3003 1313 
Q 3003 1734 2745 1975 
Q 2488 2216 2034 2216 
z
M 1403 2484 
Q 997 2584 770 2862 
Q 544 3141 544 3541 
Q 544 4100 942 4425 
Q 1341 4750 2034 4750 
Q 2731 4750 3128 4425 
Q 3525 4100 3525 3541 
Q 3525 3141 3298 2862 
Q 3072 2584 2669 2484 
Q 3125 2378 3379 2068 
Q 3634 1759 3634 1313 
Q 3634 634 3220 271 
Q 2806 -91 2034 -91 
Q 1263 -91 848 271 
Q 434 634 434 1313 
Q 434 1759 690 2068 
Q 947 2378 1403 2484 
z
M 1172 3481 
Q 1172 3119 1398 2916 
Q 1625 2713 2034 2713 
Q 2441 2713 2670 2916 
Q 2900 3119 2900 3481 
Q 2900 3844 2670 4047 
Q 2441 4250 2034 4250 
Q 1625 4250 1398 4047 
Q 1172 3844 1172 3481 
z
" id="DejaVuSans-38" transform="scale(0.015625)"/>
       </defs>
       <use xlink:href="#DejaVuSans-30"/>
       <use x="63.623047" xlink:href="#DejaVuSans-2e"/>
       <use x="95.410156" xlink:href="#DejaVuSans-38"/>
       <use x="159.033203" xlink:href="#DejaVuSans-30"/>
      </g>
     </g>
    </g>
    <g id="ytick_6">
     <g id="line2d_15">
      <path clip-path="url(#pd7cee399e3)" d="M 57.6 59.733715 
L 414.72 59.733715 
" style="fill:none;stroke:#cccccc;stroke-linecap:round;stroke-width:0.8;"/>
     </g>
     <g id="text_16">
      <!-- 0.85 -->
      <g style="fill:#262626;" transform="translate(28.334375 63.532934)scale(0.1 -0.1)">
       <use xlink:href="#DejaVuSans-30"/>
       <use x="63.623047" xlink:href="#DejaVuSans-2e"/>
       <use x="95.410156" xlink:href="#DejaVuSans-38"/>
       <use x="159.033203" xlink:href="#DejaVuSans-35"/>
      </g>
     </g>
    </g>
    <g id="text_17">
     <!-- Iteration -->
     <g style="fill:#262626;" transform="translate(22.254687 195.736594)rotate(-90)scale(0.1 -0.1)">
      <defs>
       <path d="M 628 4666 
L 1259 4666 
L 1259 0 
L 628 0 
L 628 4666 
z
" id="DejaVuSans-49" transform="scale(0.015625)"/>
       <path d="M 1172 4494 
L 1172 3500 
L 2356 3500 
L 2356 3053 
L 1172 3053 
L 1172 1153 
Q 1172 725 1289 603 
Q 1406 481 1766 481 
L 2356 481 
L 2356 0 
L 1766 0 
Q 1100 0 847 248 
Q 594 497 594 1153 
L 594 3053 
L 172 3053 
L 172 3500 
L 594 3500 
L 594 4494 
L 1172 4494 
z
" id="DejaVuSans-74" transform="scale(0.015625)"/>
       <path d="M 3597 1894 
L 3597 1613 
L 953 1613 
Q 991 1019 1311 708 
Q 1631 397 2203 397 
Q 2534 397 2845 478 
Q 3156 559 3463 722 
L 3463 178 
Q 3153 47 2828 -22 
Q 2503 -91 2169 -91 
Q 1331 -91 842 396 
Q 353 884 353 1716 
Q 353 2575 817 3079 
Q 1281 3584 2069 3584 
Q 2775 3584 3186 3129 
Q 3597 2675 3597 1894 
z
M 3022 2063 
Q 3016 2534 2758 2815 
Q 2500 3097 2075 3097 
Q 1594 3097 1305 2825 
Q 1016 2553 972 2059 
L 3022 2063 
z
" id="DejaVuSans-65" transform="scale(0.015625)"/>
       <path d="M 2194 1759 
Q 1497 1759 1228 1600 
Q 959 1441 959 1056 
Q 959 750 1161 570 
Q 1363 391 1709 391 
Q 2188 391 2477 730 
Q 2766 1069 2766 1631 
L 2766 1759 
L 2194 1759 
z
M 3341 1997 
L 3341 0 
L 2766 0 
L 2766 531 
Q 2569 213 2275 61 
Q 1981 -91 1556 -91 
Q 1019 -91 701 211 
Q 384 513 384 1019 
Q 384 1609 779 1909 
Q 1175 2209 1959 2209 
L 2766 2209 
L 2766 2266 
Q 2766 2663 2505 2880 
Q 2244 3097 1772 3097 
Q 1472 3097 1187 3025 
Q 903 2953 641 2809 
L 641 3341 
Q 956 3463 1253 3523 
Q 1550 3584 1831 3584 
Q 2591 3584 2966 3190 
Q 3341 2797 3341 1997 
z
" id="DejaVuSans-61" transform="scale(0.015625)"/>
       <path d="M 603 3500 
L 1178 3500 
L 1178 0 
L 603 0 
L 603 3500 
z
M 603 4863 
L 1178 4863 
L 1178 4134 
L 603 4134 
L 603 4863 
z
" id="DejaVuSans-69" transform="scale(0.015625)"/>
       <path d="M 3513 2113 
L 3513 0 
L 2938 0 
L 2938 2094 
Q 2938 2591 2744 2837 
Q 2550 3084 2163 3084 
Q 1697 3084 1428 2787 
Q 1159 2491 1159 1978 
L 1159 0 
L 581 0 
L 581 3500 
L 1159 3500 
L 1159 2956 
Q 1366 3272 1645 3428 
Q 1925 3584 2291 3584 
Q 2894 3584 3203 3211 
Q 3513 2838 3513 2113 
z
" id="DejaVuSans-6e" transform="scale(0.015625)"/>
      </defs>
      <use xlink:href="#DejaVuSans-49"/>
      <use x="29.492188" xlink:href="#DejaVuSans-74"/>
      <use x="68.701172" xlink:href="#DejaVuSans-65"/>
      <use x="130.224609" xlink:href="#DejaVuSans-72"/>
      <use x="171.337891" xlink:href="#DejaVuSans-61"/>
      <use x="232.617188" xlink:href="#DejaVuSans-74"/>
      <use x="271.826172" xlink:href="#DejaVuSans-69"/>
      <use x="299.609375" xlink:href="#DejaVuSans-6f"/>
      <use x="360.791016" xlink:href="#DejaVuSans-6e"/>
     </g>
    </g>
   </g>
   <g id="PolyCollection_1">
    <defs>
     <path d="M 73.832727 -258.411622 
L 73.832727 -198.436013 
L 75.464157 -213.33047 
L 77.095587 -171.797986 
L 78.727017 -131.349641 
L 80.358447 -195.63251 
L 81.989877 -199.025624 
L 83.621307 -134.362173 
L 85.252736 -142.083358 
L 86.884166 -143.330732 
L 88.515596 -199.816152 
L 90.147026 -151.644213 
L 91.778456 -170.559002 
L 93.409886 -135.683661 
L 95.041316 -182.743965 
L 96.672746 -201.48308 
L 98.304175 -156.389654 
L 99.935605 -140.511496 
L 101.567035 -175.928787 
L 103.198465 -175.169851 
L 104.829895 -145.736986 
L 106.461325 -187.407394 
L 108.092755 -154.615996 
L 109.724185 -144.62894 
L 111.355614 -204.651393 
L 112.987044 -166.953255 
L 114.618474 -122.94288 
L 116.249904 -209.154253 
L 117.881334 -173.286247 
L 119.512764 -137.293066 
L 121.144194 -172.733009 
L 122.775624 -98.91591 
L 124.407053 -192.208931 
L 126.038483 -151.089917 
L 127.669913 -191.615248 
L 129.301343 -139.933622 
L 130.932773 -154.000915 
L 132.564203 -176.057181 
L 134.195633 -160.53163 
L 135.827063 -146.680455 
L 137.458492 -161.15105 
L 139.089922 -184.843137 
L 140.721352 -118.314149 
L 142.352782 -177.895926 
L 143.984212 -133.688401 
L 145.615642 -203.766389 
L 147.247072 -144.42976 
L 148.878502 -146.64848 
L 150.509931 -151.242451 
L 152.141361 -214.281979 
L 153.772791 -173.542475 
L 155.404221 -152.879935 
L 157.035651 -179.845726 
L 158.667081 -72.038776 
L 160.298511 -144.696577 
L 161.929941 -166.365893 
L 163.56137 -104.234635 
L 165.1928 -127.744235 
L 166.82423 -137.785467 
L 168.45566 -184.770235 
L 170.08709 -144.765137 
L 171.71852 -222.070634 
L 173.34995 -132.351693 
L 174.98138 -179.113989 
L 176.61281 -147.265748 
L 178.244239 -169.666766 
L 179.875669 -144.135266 
L 181.507099 -167.362606 
L 183.138529 -204.412319 
L 184.769959 -207.869972 
L 186.401389 -162.863739 
L 188.032819 -173.955028 
L 189.664249 -172.424807 
L 191.295678 -176.799572 
L 192.927108 -143.313704 
L 194.558538 -157.466201 
L 196.189968 -191.115554 
L 197.821398 -191.171471 
L 199.452828 -147.141303 
L 201.084258 -148.686706 
L 202.715688 -181.99924 
L 204.347117 -188.005832 
L 205.978547 -100.555276 
L 207.609977 -107.165152 
L 209.241407 -161.269957 
L 210.872837 -184.759416 
L 212.504267 -189.446989 
L 214.135697 -187.698571 
L 215.767127 -170.671747 
L 217.398556 -229.479614 
L 219.029986 -114.818133 
L 220.661416 -210.895547 
L 222.292846 -163.512206 
L 223.924276 -75.577902 
L 225.555706 -88.795691 
L 227.187136 -168.777305 
L 228.818566 -174.87029 
L 230.449995 -120.22876 
L 232.081425 -130.005631 
L 233.712855 -155.335062 
L 235.344285 -204.431992 
L 236.975715 -160.404863 
L 238.607145 -126.412963 
L 240.238575 -153.621939 
L 241.870005 -153.035987 
L 243.501434 -186.276497 
L 245.132864 -167.941254 
L 246.764294 -137.453067 
L 248.395724 -120.308478 
L 250.027154 -181.564371 
L 251.658584 -173.342238 
L 253.290014 -174.957787 
L 254.921444 -209.798961 
L 256.552873 -137.044929 
L 258.184303 -165.263072 
L 259.815733 -143.514439 
L 261.447163 -172.205926 
L 263.078593 -157.43095 
L 264.710023 -148.481777 
L 266.341453 -142.112385 
L 267.972883 -187.651594 
L 269.604312 -78.80295 
L 271.235742 -148.243676 
L 272.867172 -177.075875 
L 274.498602 -165.034406 
L 276.130032 -158.998913 
L 277.761462 -182.485646 
L 279.392892 -190.537801 
L 281.024322 -191.409749 
L 282.655751 -175.012565 
L 284.287181 -155.58047 
L 285.918611 -153.128364 
L 287.550041 -187.444279 
L 289.181471 -139.627303 
L 290.812901 -181.652104 
L 292.444331 -227.467322 
L 294.075761 -154.823374 
L 295.70719 -114.691681 
L 297.33862 -176.815061 
L 298.97005 -164.481837 
L 300.60148 -169.132989 
L 302.23291 -143.970329 
L 303.86434 -212.884644 
L 305.49577 -136.615624 
L 307.1272 -136.275515 
L 308.75863 -232.683885 
L 310.390059 -97.799587 
L 312.021489 -154.804957 
L 313.652919 -177.906961 
L 315.284349 -182.720301 
L 316.915779 -148.452555 
L 318.547209 -175.083516 
L 320.178639 -69.048142 
L 321.810069 -160.077469 
L 323.441498 -84.573152 
L 325.072928 -145.210249 
L 326.704358 -157.602176 
L 328.335788 -206.944015 
L 329.967218 -153.995399 
L 331.598648 -169.338031 
L 333.230078 -151.733076 
L 334.861508 -190.125925 
L 336.492937 -154.713922 
L 338.124367 -154.260127 
L 339.755797 -177.937781 
L 341.387227 -163.112029 
L 343.018657 -131.345707 
L 344.650087 -208.927462 
L 346.281517 -134.513762 
L 347.912947 -182.804724 
L 349.544376 -129.956051 
L 351.175806 -167.013478 
L 352.807236 -230.680209 
L 354.438666 -146.465167 
L 356.070096 -146.190902 
L 357.701526 -50.112 
L 359.332956 -153.575956 
L 360.964386 -179.417064 
L 362.595815 -170.154905 
L 364.227245 -99.054463 
L 365.858675 -88.085729 
L 367.490105 -144.691501 
L 369.121535 -140.1639 
L 370.752965 -152.50641 
L 372.384395 -152.746097 
L 374.015825 -121.379197 
L 375.647254 -166.59452 
L 377.278684 -186.313581 
L 378.910114 -166.135292 
L 380.541544 -110.272889 
L 382.172974 -116.106675 
L 383.804404 -138.401743 
L 385.435834 -69.293096 
L 387.067264 -158.98281 
L 388.698693 -92.987563 
L 390.330123 -174.312903 
L 391.961553 -62.3687 
L 393.592983 -181.589973 
L 395.224413 -156.607847 
L 396.855843 -76.926623 
L 398.487273 -123.973876 
L 398.487273 -198.126042 
L 398.487273 -198.126042 
L 396.855843 -245.981013 
L 395.224413 -238.834019 
L 393.592983 -256.092928 
L 391.961553 -215.39184 
L 390.330123 -262.80874 
L 388.698693 -279.449469 
L 387.067264 -219.773951 
L 385.435834 -206.403951 
L 383.804404 -237.338578 
L 382.172974 -192.164721 
L 380.541544 -203.282626 
L 378.910114 -245.144099 
L 377.278684 -243.704973 
L 375.647254 -253.895246 
L 374.015825 -292.032 
L 372.384395 -247.56021 
L 370.752965 -222.565026 
L 369.121535 -256.485085 
L 367.490105 -235.820298 
L 365.858675 -284.21744 
L 364.227245 -220.229165 
L 362.595815 -236.357672 
L 360.964386 -236.142806 
L 359.332956 -213.116999 
L 357.701526 -225.41859 
L 356.070096 -270.075393 
L 354.438666 -234.121451 
L 352.807236 -252.254408 
L 351.175806 -252.517309 
L 349.544376 -231.193675 
L 347.912947 -255.353268 
L 346.281517 -217.563563 
L 344.650087 -248.866785 
L 343.018657 -186.064416 
L 341.387227 -241.565017 
L 339.755797 -238.299444 
L 338.124367 -225.037545 
L 336.492937 -241.693247 
L 334.861508 -240.32109 
L 333.230078 -219.74912 
L 331.598648 -244.819682 
L 329.967218 -240.682452 
L 328.335788 -264.583556 
L 326.704358 -271.244985 
L 325.072928 -222.506804 
L 323.441498 -216.459083 
L 321.810069 -234.79886 
L 320.178639 -212.065346 
L 318.547209 -248.116094 
L 316.915779 -208.920175 
L 315.284349 -212.704306 
L 313.652919 -248.590725 
L 312.021489 -247.272335 
L 310.390059 -213.242678 
L 308.75863 -263.764603 
L 307.1272 -232.087501 
L 305.49577 -235.128645 
L 303.86434 -255.111402 
L 302.23291 -249.887022 
L 300.60148 -264.622791 
L 298.97005 -227.180412 
L 297.33862 -248.097836 
L 295.70719 -193.642275 
L 294.075761 -215.136714 
L 292.444331 -253.78422 
L 290.812901 -233.38337 
L 289.181471 -214.121021 
L 287.550041 -232.303565 
L 285.918611 -241.88161 
L 284.287181 -218.362464 
L 282.655751 -223.910205 
L 281.024322 -244.984908 
L 279.392892 -243.576417 
L 277.761462 -260.122303 
L 276.130032 -242.850522 
L 274.498602 -221.778846 
L 272.867172 -239.439116 
L 271.235742 -230.262582 
L 269.604312 -241.766404 
L 267.972883 -213.969584 
L 266.341453 -190.694538 
L 264.710023 -252.275361 
L 263.078593 -237.203753 
L 261.447163 -252.074823 
L 259.815733 -232.291775 
L 258.184303 -268.15389 
L 256.552873 -214.803411 
L 254.921444 -250.776153 
L 253.290014 -246.144642 
L 251.658584 -248.101399 
L 250.027154 -256.514917 
L 248.395724 -208.834015 
L 246.764294 -214.793518 
L 245.132864 -247.819945 
L 243.501434 -246.947334 
L 241.870005 -238.057427 
L 240.238575 -266.871869 
L 238.607145 -259.243297 
L 236.975715 -234.394166 
L 235.344285 -265.873288 
L 233.712855 -240.549009 
L 232.081425 -218.162045 
L 230.449995 -241.916865 
L 228.818566 -248.339536 
L 227.187136 -215.735099 
L 225.555706 -279.359161 
L 223.924276 -253.181299 
L 222.292846 -241.34408 
L 220.661416 -267.830235 
L 219.029986 -244.007392 
L 217.398556 -258.803307 
L 215.767127 -212.396579 
L 214.135697 -260.571348 
L 212.504267 -255.663734 
L 210.872837 -255.034618 
L 209.241407 -244.937949 
L 207.609977 -276.057286 
L 205.978547 -237.178598 
L 204.347117 -227.698951 
L 202.715688 -219.795931 
L 201.084258 -236.507099 
L 199.452828 -231.047744 
L 197.821398 -242.25859 
L 196.189968 -265.010766 
L 194.558538 -239.853833 
L 192.927108 -220.453261 
L 191.295678 -229.861616 
L 189.664249 -248.846119 
L 188.032819 -254.668589 
L 186.401389 -252.637096 
L 184.769959 -268.49404 
L 183.138529 -251.697853 
L 181.507099 -260.058521 
L 179.875669 -223.430224 
L 178.244239 -254.921881 
L 176.61281 -231.303969 
L 174.98138 -229.75489 
L 173.34995 -228.74537 
L 171.71852 -261.442084 
L 170.08709 -240.665526 
L 168.45566 -241.302974 
L 166.82423 -222.86274 
L 165.1928 -239.476797 
L 163.56137 -199.696914 
L 161.929941 -255.053865 
L 160.298511 -230.27174 
L 158.667081 -276.644527 
L 157.035651 -263.735568 
L 155.404221 -247.014065 
L 153.772791 -221.101452 
L 152.141361 -254.465219 
L 150.509931 -235.547179 
L 148.878502 -228.237587 
L 147.247072 -229.658243 
L 145.615642 -254.602198 
L 143.984212 -235.532025 
L 142.352782 -273.104523 
L 140.721352 -225.167222 
L 139.089922 -260.080963 
L 137.458492 -218.950551 
L 135.827063 -216.205484 
L 134.195633 -252.521931 
L 132.564203 -209.723805 
L 130.932773 -270.170966 
L 129.301343 -224.342522 
L 127.669913 -214.512252 
L 126.038483 -274.156464 
L 124.407053 -217.447309 
L 122.775624 -224.097377 
L 121.144194 -239.532023 
L 119.512764 -214.780183 
L 117.881334 -248.982342 
L 116.249904 -247.179175 
L 114.618474 -241.917527 
L 112.987044 -221.818042 
L 111.355614 -249.715686 
L 109.724185 -214.120281 
L 108.092755 -235.245053 
L 106.461325 -253.841675 
L 104.829895 -236.030862 
L 103.198465 -215.178891 
L 101.567035 -233.902446 
L 99.935605 -247.764554 
L 98.304175 -217.323096 
L 96.672746 -244.64781 
L 95.041316 -219.157927 
L 93.409886 -276.880852 
L 91.778456 -224.860764 
L 90.147026 -263.27374 
L 88.515596 -231.678744 
L 86.884166 -246.254481 
L 85.252736 -221.323942 
L 83.621307 -250.250882 
L 81.989877 -251.077396 
L 80.358447 -219.285776 
L 78.727017 -264.494658 
L 77.095587 -246.306107 
L 75.464157 -247.263507 
L 73.832727 -258.411622 
z
" id="m4c229334b9" style="stroke:#ffffff;stroke-opacity:0.2;"/>
    </defs>
    <g clip-path="url(#pd7cee399e3)">
     <use style="fill:#1f77b4;fill-opacity:0.2;stroke:#ffffff;stroke-opacity:0.2;" x="0" xlink:href="#m4c229334b9" y="345.6"/>
    </g>
   </g>
   <g id="LineCollection_1">
    <path clip-path="url(#pd7cee399e3)" d="M 398.487273 295.488 
L 398.487273 53.568 
" style="fill:none;stroke:#1f77b4;stroke-dasharray:5.55,2.4;stroke-dashoffset:0;stroke-width:1.5;"/>
   </g>
   <g id="line2d_16">
    <path clip-path="url(#pd7cee399e3)" d="M 73.832727 117.176183 
L 75.464157 115.303011 
L 77.095587 136.547953 
L 78.727017 147.67785 
L 80.358447 138.140857 
L 81.989877 120.54849 
L 83.621307 153.293472 
L 85.252736 163.89635 
L 86.884166 150.807393 
L 88.515596 129.852552 
L 90.147026 138.141023 
L 91.778456 147.890117 
L 93.409886 139.317743 
L 95.041316 144.649054 
L 96.672746 122.534555 
L 98.304175 158.743625 
L 99.935605 151.461975 
L 101.567035 140.684384 
L 103.198465 150.425629 
L 104.829895 154.716076 
L 106.461325 124.975466 
L 108.092755 150.669476 
L 109.724185 166.225389 
L 111.355614 118.41646 
L 112.987044 151.214351 
L 114.618474 163.169796 
L 116.249904 117.433286 
L 117.881334 134.465705 
L 119.512764 169.563376 
L 121.144194 139.467484 
L 122.775624 184.093356 
L 124.407053 140.77188 
L 126.038483 132.976809 
L 127.669913 142.53625 
L 129.301343 163.461928 
L 130.932773 133.514059 
L 132.564203 152.709507 
L 134.195633 139.07322 
L 135.827063 164.15703 
L 137.458492 155.549199 
L 139.089922 123.13795 
L 140.721352 173.859314 
L 142.352782 120.099776 
L 143.984212 160.989787 
L 145.615642 116.415707 
L 147.247072 158.555999 
L 148.878502 158.156967 
L 150.509931 152.205185 
L 152.141361 111.226401 
L 153.772791 148.278036 
L 155.404221 145.653 
L 157.035651 123.809353 
L 158.667081 171.258348 
L 160.298511 158.115842 
L 161.929941 134.890121 
L 163.56137 193.634225 
L 165.1928 161.989484 
L 166.82423 165.275896 
L 168.45566 132.563396 
L 170.08709 152.884668 
L 171.71852 103.843641 
L 173.34995 165.051468 
L 174.98138 141.165561 
L 176.61281 156.315141 
L 178.244239 133.305677 
L 179.875669 161.817255 
L 181.507099 131.889437 
L 183.138529 117.544914 
L 184.769959 107.417994 
L 186.401389 137.849582 
L 188.032819 131.288192 
L 189.664249 134.964537 
L 191.295678 142.269406 
L 192.927108 163.716518 
L 194.558538 146.939983 
L 196.189968 117.53684 
L 197.821398 128.88497 
L 199.452828 156.505477 
L 201.084258 153.003098 
L 202.715688 144.702414 
L 204.347117 137.747609 
L 205.978547 176.733063 
L 207.609977 153.988781 
L 209.241407 142.496047 
L 210.872837 125.702983 
L 212.504267 123.044638 
L 214.135697 121.465041 
L 215.767127 154.065837 
L 217.398556 101.45854 
L 219.029986 166.187237 
L 220.661416 106.237109 
L 223.924276 181.2204 
L 225.555706 161.522574 
L 227.187136 153.343798 
L 228.818566 133.995087 
L 230.449995 164.527187 
L 232.081425 171.516162 
L 233.712855 147.657964 
L 235.344285 110.44736 
L 236.975715 148.200486 
L 238.607145 152.77187 
L 240.238575 135.353096 
L 241.870005 150.053293 
L 243.501434 128.988084 
L 245.132864 137.7194 
L 246.764294 169.476707 
L 248.395724 181.028753 
L 250.027154 126.560356 
L 251.658584 134.878182 
L 253.290014 135.048785 
L 254.921444 115.312443 
L 256.552873 169.67583 
L 258.184303 128.891519 
L 259.815733 157.696893 
L 261.447163 133.459626 
L 263.078593 148.282648 
L 264.710023 145.221431 
L 266.341453 179.196539 
L 267.972883 144.789411 
L 269.604312 185.315323 
L 271.235742 156.346871 
L 272.867172 137.342505 
L 274.498602 152.193374 
L 276.130032 144.675283 
L 277.761462 124.296025 
L 279.392892 128.542891 
L 281.024322 127.402671 
L 282.655751 146.138615 
L 284.287181 158.628533 
L 285.918611 148.095013 
L 287.550041 135.726078 
L 289.181471 168.725838 
L 290.812901 138.082263 
L 292.444331 104.974229 
L 294.075761 160.619956 
L 295.70719 191.433022 
L 297.33862 133.143551 
L 298.97005 149.768875 
L 300.60148 128.72211 
L 302.23291 148.671325 
L 303.86434 111.601977 
L 305.49577 159.727866 
L 307.1272 161.418492 
L 308.75863 97.375756 
L 310.390059 190.078868 
L 312.021489 144.561354 
L 313.652919 132.351157 
L 315.284349 147.887697 
L 316.915779 166.913635 
L 318.547209 134.000195 
L 320.178639 205.043256 
L 321.810069 148.161835 
L 323.441498 195.083882 
L 325.072928 161.741473 
L 326.704358 131.17642 
L 328.335788 109.836214 
L 329.967218 148.261074 
L 331.598648 138.521143 
L 333.230078 159.858902 
L 334.861508 130.376493 
L 336.492937 147.396416 
L 338.124367 155.951164 
L 339.755797 137.481388 
L 341.387227 143.261477 
L 343.018657 186.894938 
L 344.650087 116.702876 
L 346.281517 169.561337 
L 347.912947 126.521004 
L 349.544376 165.025137 
L 351.175806 135.834606 
L 352.807236 104.132691 
L 354.438666 155.306691 
L 356.070096 137.466853 
L 357.701526 207.834705 
L 359.332956 162.253522 
L 360.964386 137.820065 
L 362.595815 142.343712 
L 364.227245 185.958186 
L 365.858675 159.448416 
L 367.490105 155.3441 
L 369.121535 147.275507 
L 370.752965 158.064282 
L 372.384395 145.446847 
L 374.015825 138.894401 
L 375.647254 135.355117 
L 377.278684 130.590723 
L 378.910114 139.960304 
L 380.541544 188.822243 
L 382.172974 191.464302 
L 383.804404 157.729839 
L 385.435834 207.751476 
L 387.067264 156.22162 
L 388.698693 159.381484 
L 390.330123 127.039179 
L 391.961553 206.71973 
L 393.592983 126.75855 
L 395.224413 147.879067 
L 396.855843 184.146182 
L 398.487273 184.550041 
L 398.487273 184.550041 
" style="fill:none;stroke:#1f77b4;stroke-linecap:round;stroke-width:1.5;"/>
   </g>
   <g id="patch_3">
    <path d="M 57.6 307.584 
L 57.6 41.472 
" style="fill:none;stroke:#cccccc;stroke-linecap:square;stroke-linejoin:miter;stroke-width:0.8;"/>
   </g>
   <g id="patch_4">
    <path d="M 414.72 307.584 
L 414.72 41.472 
" style="fill:none;stroke:#cccccc;stroke-linecap:square;stroke-linejoin:miter;stroke-width:0.8;"/>
   </g>
   <g id="patch_5">
    <path d="M 57.6 307.584 
L 414.72 307.584 
" style="fill:none;stroke:#cccccc;stroke-linecap:square;stroke-linejoin:miter;stroke-width:0.8;"/>
   </g>
   <g id="patch_6">
    <path d="M 57.6 41.472 
L 414.72 41.472 
" style="fill:none;stroke:#cccccc;stroke-linecap:square;stroke-linejoin:miter;stroke-width:0.8;"/>
   </g>
   <g id="text_18">
    <!-- Model performance vs. # of iterations -->
    <g style="fill:#262626;" transform="translate(122.314688 35.472)scale(0.12 -0.12)">
     <defs>
      <path d="M 628 4666 
L 1569 4666 
L 2759 1491 
L 3956 4666 
L 4897 4666 
L 4897 0 
L 4281 0 
L 4281 4097 
L 3078 897 
L 2444 897 
L 1241 4097 
L 1241 0 
L 628 0 
L 628 4666 
z
" id="DejaVuSans-4d" transform="scale(0.015625)"/>
      <path d="M 2906 2969 
L 2906 4863 
L 3481 4863 
L 3481 0 
L 2906 0 
L 2906 525 
Q 2725 213 2448 61 
Q 2172 -91 1784 -91 
Q 1150 -91 751 415 
Q 353 922 353 1747 
Q 353 2572 751 3078 
Q 1150 3584 1784 3584 
Q 2172 3584 2448 3432 
Q 2725 3281 2906 2969 
z
M 947 1747 
Q 947 1113 1208 752 
Q 1469 391 1925 391 
Q 2381 391 2643 752 
Q 2906 1113 2906 1747 
Q 2906 2381 2643 2742 
Q 2381 3103 1925 3103 
Q 1469 3103 1208 2742 
Q 947 2381 947 1747 
z
" id="DejaVuSans-64" transform="scale(0.015625)"/>
      <path d="M 603 4863 
L 1178 4863 
L 1178 0 
L 603 0 
L 603 4863 
z
" id="DejaVuSans-6c" transform="scale(0.015625)"/>
      <path id="DejaVuSans-20" transform="scale(0.015625)"/>
      <path d="M 1159 525 
L 1159 -1331 
L 581 -1331 
L 581 3500 
L 1159 3500 
L 1159 2969 
Q 1341 3281 1617 3432 
Q 1894 3584 2278 3584 
Q 2916 3584 3314 3078 
Q 3713 2572 3713 1747 
Q 3713 922 3314 415 
Q 2916 -91 2278 -91 
Q 1894 -91 1617 61 
Q 1341 213 1159 525 
z
M 3116 1747 
Q 3116 2381 2855 2742 
Q 2594 3103 2138 3103 
Q 1681 3103 1420 2742 
Q 1159 2381 1159 1747 
Q 1159 1113 1420 752 
Q 1681 391 2138 391 
Q 2594 391 2855 752 
Q 3116 1113 3116 1747 
z
" id="DejaVuSans-70" transform="scale(0.015625)"/>
      <path d="M 2375 4863 
L 2375 4384 
L 1825 4384 
Q 1516 4384 1395 4259 
Q 1275 4134 1275 3809 
L 1275 3500 
L 2222 3500 
L 2222 3053 
L 1275 3053 
L 1275 0 
L 697 0 
L 697 3053 
L 147 3053 
L 147 3500 
L 697 3500 
L 697 3744 
Q 697 4328 969 4595 
Q 1241 4863 1831 4863 
L 2375 4863 
z
" id="DejaVuSans-66" transform="scale(0.015625)"/>
      <path d="M 3328 2828 
Q 3544 3216 3844 3400 
Q 4144 3584 4550 3584 
Q 5097 3584 5394 3201 
Q 5691 2819 5691 2113 
L 5691 0 
L 5113 0 
L 5113 2094 
Q 5113 2597 4934 2840 
Q 4756 3084 4391 3084 
Q 3944 3084 3684 2787 
Q 3425 2491 3425 1978 
L 3425 0 
L 2847 0 
L 2847 2094 
Q 2847 2600 2669 2842 
Q 2491 3084 2119 3084 
Q 1678 3084 1418 2786 
Q 1159 2488 1159 1978 
L 1159 0 
L 581 0 
L 581 3500 
L 1159 3500 
L 1159 2956 
Q 1356 3278 1631 3431 
Q 1906 3584 2284 3584 
Q 2666 3584 2933 3390 
Q 3200 3197 3328 2828 
z
" id="DejaVuSans-6d" transform="scale(0.015625)"/>
      <path d="M 191 3500 
L 800 3500 
L 1894 563 
L 2988 3500 
L 3597 3500 
L 2284 0 
L 1503 0 
L 191 3500 
z
" id="DejaVuSans-76" transform="scale(0.015625)"/>
      <path d="M 2834 3397 
L 2834 2853 
Q 2591 2978 2328 3040 
Q 2066 3103 1784 3103 
Q 1356 3103 1142 2972 
Q 928 2841 928 2578 
Q 928 2378 1081 2264 
Q 1234 2150 1697 2047 
L 1894 2003 
Q 2506 1872 2764 1633 
Q 3022 1394 3022 966 
Q 3022 478 2636 193 
Q 2250 -91 1575 -91 
Q 1294 -91 989 -36 
Q 684 19 347 128 
L 347 722 
Q 666 556 975 473 
Q 1284 391 1588 391 
Q 1994 391 2212 530 
Q 2431 669 2431 922 
Q 2431 1156 2273 1281 
Q 2116 1406 1581 1522 
L 1381 1569 
Q 847 1681 609 1914 
Q 372 2147 372 2553 
Q 372 3047 722 3315 
Q 1072 3584 1716 3584 
Q 2034 3584 2315 3537 
Q 2597 3491 2834 3397 
z
" id="DejaVuSans-73" transform="scale(0.015625)"/>
      <path d="M 3272 2816 
L 2363 2816 
L 2100 1772 
L 3016 1772 
L 3272 2816 
z
M 2803 4594 
L 2478 3297 
L 3391 3297 
L 3719 4594 
L 4219 4594 
L 3897 3297 
L 4872 3297 
L 4872 2816 
L 3775 2816 
L 3519 1772 
L 4513 1772 
L 4513 1294 
L 3397 1294 
L 3072 0 
L 2572 0 
L 2894 1294 
L 1978 1294 
L 1656 0 
L 1153 0 
L 1478 1294 
L 494 1294 
L 494 1772 
L 1594 1772 
L 1856 2816 
L 850 2816 
L 850 3297 
L 1978 3297 
L 2297 4594 
L 2803 4594 
z
" id="DejaVuSans-23" transform="scale(0.015625)"/>
     </defs>
     <use xlink:href="#DejaVuSans-4d"/>
     <use x="86.279297" xlink:href="#DejaVuSans-6f"/>
     <use x="147.460938" xlink:href="#DejaVuSans-64"/>
     <use x="210.9375" xlink:href="#DejaVuSans-65"/>
     <use x="272.460938" xlink:href="#DejaVuSans-6c"/>
     <use x="300.244141" xlink:href="#DejaVuSans-20"/>
     <use x="332.03125" xlink:href="#DejaVuSans-70"/>
     <use x="395.507812" xlink:href="#DejaVuSans-65"/>
     <use x="457.03125" xlink:href="#DejaVuSans-72"/>
     <use x="498.144531" xlink:href="#DejaVuSans-66"/>
     <use x="533.349609" xlink:href="#DejaVuSans-6f"/>
     <use x="594.53125" xlink:href="#DejaVuSans-72"/>
     <use x="633.894531" xlink:href="#DejaVuSans-6d"/>
     <use x="731.306641" xlink:href="#DejaVuSans-61"/>
     <use x="792.585938" xlink:href="#DejaVuSans-6e"/>
     <use x="855.964844" xlink:href="#DejaVuSans-63"/>
     <use x="910.945312" xlink:href="#DejaVuSans-65"/>
     <use x="972.46875" xlink:href="#DejaVuSans-20"/>
     <use x="1004.255859" xlink:href="#DejaVuSans-76"/>
     <use x="1063.435547" xlink:href="#DejaVuSans-73"/>
     <use x="1115.535156" xlink:href="#DejaVuSans-2e"/>
     <use x="1147.322266" xlink:href="#DejaVuSans-20"/>
     <use x="1179.109375" xlink:href="#DejaVuSans-23"/>
     <use x="1262.898438" xlink:href="#DejaVuSans-20"/>
     <use x="1294.685547" xlink:href="#DejaVuSans-6f"/>
     <use x="1355.867188" xlink:href="#DejaVuSans-66"/>
     <use x="1391.072266" xlink:href="#DejaVuSans-20"/>
     <use x="1422.859375" xlink:href="#DejaVuSans-69"/>
     <use x="1450.642578" xlink:href="#DejaVuSans-74"/>
     <use x="1489.851562" xlink:href="#DejaVuSans-65"/>
     <use x="1551.375" xlink:href="#DejaVuSans-72"/>
     <use x="1592.488281" xlink:href="#DejaVuSans-61"/>
     <use x="1653.767578" xlink:href="#DejaVuSans-74"/>
     <use x="1692.976562" xlink:href="#DejaVuSans-69"/>
     <use x="1720.759766" xlink:href="#DejaVuSans-6f"/>
     <use x="1781.941406" xlink:href="#DejaVuSans-6e"/>
     <use x="1845.320312" xlink:href="#DejaVuSans-73"/>
    </g>
   </g>
  </g>
 </g>
 <defs>
  <clipPath id="pd7cee399e3">
   <rect height="266.112" width="357.12" x="57.6" y="41.472"/>
  </clipPath>
 </defs>
</svg>
