<?xml version="1.0" encoding="utf-8" standalone="no"?>
<!DOCTYPE svg PUBLIC "-//W3C//DTD SVG 1.1//EN"
  "http://www.w3.org/Graphics/SVG/1.1/DTD/svg11.dtd">
<svg height="345.6pt" version="1.1" viewBox="0 0 460.8 345.6" width="460.8pt" xmlns="http://www.w3.org/2000/svg" xmlns:xlink="http://www.w3.org/1999/xlink">
 <metadata>
  <rdf:RDF xmlns:cc="http://creativecommons.org/ns#" xmlns:dc="http://purl.org/dc/elements/1.1/" xmlns:rdf="http://www.w3.org/1999/02/22-rdf-syntax-ns#">
   <cc:Work>
    <dc:type rdf:resource="http://purl.org/dc/dcmitype/StillImage"/>
    <dc:date>2021-09-15T08:01:33.518604</dc:date>
    <dc:format>image/svg+xml</dc:format>
    <dc:creator>
     <cc:Agent>
      <dc:title>Matplotlib v3.4.2, https://matplotlib.org/</dc:title>
     </cc:Agent>
    </dc:creator>
   </cc:Work>
  </rdf:RDF>
 </metadata>
 <defs>
  <style type="text/css">*{stroke-linecap:butt;stroke-linejoin:round;}</style>
 </defs>
 <g id="figure_1">
  <g id="patch_1">
   <path d="M 0 345.6 
L 460.8 345.6 
L 460.8 0 
L 0 0 
z
" style="fill:#ffffff;"/>
  </g>
  <g id="axes_1">
   <g id="patch_2">
    <path d="M 57.6 307.584 
L 414.72 307.584 
L 414.72 41.472 
L 57.6 41.472 
z
" style="fill:#ffffff;"/>
   </g>
   <g id="matplotlib.axis_1">
    <g id="xtick_1">
     <g id="line2d_1">
      <path clip-path="url(#pd400dccc00)" d="M 72.201297 307.584 
L 72.201297 41.472 
" style="fill:none;stroke:#cccccc;stroke-linecap:round;stroke-width:0.8;"/>
     </g>
     <g id="text_1">
      <!-- 0 -->
      <g style="fill:#262626;" transform="translate(69.020047 322.182437)scale(0.1 -0.1)">
       <defs>
        <path d="M 2034 4250 
Q 1547 4250 1301 3770 
Q 1056 3291 1056 2328 
Q 1056 1369 1301 889 
Q 1547 409 2034 409 
Q 2525 409 2770 889 
Q 3016 1369 3016 2328 
Q 3016 3291 2770 3770 
Q 2525 4250 2034 4250 
z
M 2034 4750 
Q 2819 4750 3233 4129 
Q 3647 3509 3647 2328 
Q 3647 1150 3233 529 
Q 2819 -91 2034 -91 
Q 1250 -91 836 529 
Q 422 1150 422 2328 
Q 422 3509 836 4129 
Q 1250 4750 2034 4750 
z
" id="DejaVuSans-30" transform="scale(0.015625)"/>
       </defs>
       <use xlink:href="#DejaVuSans-30"/>
      </g>
     </g>
    </g>
    <g id="xtick_2">
     <g id="line2d_2">
      <path clip-path="url(#pd400dccc00)" d="M 112.987044 307.584 
L 112.987044 41.472 
" style="fill:none;stroke:#cccccc;stroke-linecap:round;stroke-width:0.8;"/>
     </g>
     <g id="text_2">
      <!-- 25 -->
      <g style="fill:#262626;" transform="translate(106.624544 322.182437)scale(0.1 -0.1)">
       <defs>
        <path d="M 1228 531 
L 3431 531 
L 3431 0 
L 469 0 
L 469 531 
Q 828 903 1448 1529 
Q 2069 2156 2228 2338 
Q 2531 2678 2651 2914 
Q 2772 3150 2772 3378 
Q 2772 3750 2511 3984 
Q 2250 4219 1831 4219 
Q 1534 4219 1204 4116 
Q 875 4013 500 3803 
L 500 4441 
Q 881 4594 1212 4672 
Q 1544 4750 1819 4750 
Q 2544 4750 2975 4387 
Q 3406 4025 3406 3419 
Q 3406 3131 3298 2873 
Q 3191 2616 2906 2266 
Q 2828 2175 2409 1742 
Q 1991 1309 1228 531 
z
" id="DejaVuSans-32" transform="scale(0.015625)"/>
        <path d="M 691 4666 
L 3169 4666 
L 3169 4134 
L 1269 4134 
L 1269 2991 
Q 1406 3038 1543 3061 
Q 1681 3084 1819 3084 
Q 2600 3084 3056 2656 
Q 3513 2228 3513 1497 
Q 3513 744 3044 326 
Q 2575 -91 1722 -91 
Q 1428 -91 1123 -41 
Q 819 9 494 109 
L 494 744 
Q 775 591 1075 516 
Q 1375 441 1709 441 
Q 2250 441 2565 725 
Q 2881 1009 2881 1497 
Q 2881 1984 2565 2268 
Q 2250 2553 1709 2553 
Q 1456 2553 1204 2497 
Q 953 2441 691 2322 
L 691 4666 
z
" id="DejaVuSans-35" transform="scale(0.015625)"/>
       </defs>
       <use xlink:href="#DejaVuSans-32"/>
       <use x="63.623047" xlink:href="#DejaVuSans-35"/>
      </g>
     </g>
    </g>
    <g id="xtick_3">
     <g id="line2d_3">
      <path clip-path="url(#pd400dccc00)" d="M 153.772791 307.584 
L 153.772791 41.472 
" style="fill:none;stroke:#cccccc;stroke-linecap:round;stroke-width:0.8;"/>
     </g>
     <g id="text_3">
      <!-- 50 -->
      <g style="fill:#262626;" transform="translate(147.410291 322.182437)scale(0.1 -0.1)">
       <use xlink:href="#DejaVuSans-35"/>
       <use x="63.623047" xlink:href="#DejaVuSans-30"/>
      </g>
     </g>
    </g>
    <g id="xtick_4">
     <g id="line2d_4">
      <path clip-path="url(#pd400dccc00)" d="M 194.558538 307.584 
L 194.558538 41.472 
" style="fill:none;stroke:#cccccc;stroke-linecap:round;stroke-width:0.8;"/>
     </g>
     <g id="text_4">
      <!-- 75 -->
      <g style="fill:#262626;" transform="translate(188.196038 322.182437)scale(0.1 -0.1)">
       <defs>
        <path d="M 525 4666 
L 3525 4666 
L 3525 4397 
L 1831 0 
L 1172 0 
L 2766 4134 
L 525 4134 
L 525 4666 
z
" id="DejaVuSans-37" transform="scale(0.015625)"/>
       </defs>
       <use xlink:href="#DejaVuSans-37"/>
       <use x="63.623047" xlink:href="#DejaVuSans-35"/>
      </g>
     </g>
    </g>
    <g id="xtick_5">
     <g id="line2d_5">
      <path clip-path="url(#pd400dccc00)" d="M 235.344285 307.584 
L 235.344285 41.472 
" style="fill:none;stroke:#cccccc;stroke-linecap:round;stroke-width:0.8;"/>
     </g>
     <g id="text_5">
      <!-- 100 -->
      <g style="fill:#262626;" transform="translate(225.800535 322.182437)scale(0.1 -0.1)">
       <defs>
        <path d="M 794 531 
L 1825 531 
L 1825 4091 
L 703 3866 
L 703 4441 
L 1819 4666 
L 2450 4666 
L 2450 531 
L 3481 531 
L 3481 0 
L 794 0 
L 794 531 
z
" id="DejaVuSans-31" transform="scale(0.015625)"/>
       </defs>
       <use xlink:href="#DejaVuSans-31"/>
       <use x="63.623047" xlink:href="#DejaVuSans-30"/>
       <use x="127.246094" xlink:href="#DejaVuSans-30"/>
      </g>
     </g>
    </g>
    <g id="xtick_6">
     <g id="line2d_6">
      <path clip-path="url(#pd400dccc00)" d="M 276.130032 307.584 
L 276.130032 41.472 
" style="fill:none;stroke:#cccccc;stroke-linecap:round;stroke-width:0.8;"/>
     </g>
     <g id="text_6">
      <!-- 125 -->
      <g style="fill:#262626;" transform="translate(266.586282 322.182437)scale(0.1 -0.1)">
       <use xlink:href="#DejaVuSans-31"/>
       <use x="63.623047" xlink:href="#DejaVuSans-32"/>
       <use x="127.246094" xlink:href="#DejaVuSans-35"/>
      </g>
     </g>
    </g>
    <g id="xtick_7">
     <g id="line2d_7">
      <path clip-path="url(#pd400dccc00)" d="M 316.915779 307.584 
L 316.915779 41.472 
" style="fill:none;stroke:#cccccc;stroke-linecap:round;stroke-width:0.8;"/>
     </g>
     <g id="text_7">
      <!-- 150 -->
      <g style="fill:#262626;" transform="translate(307.372029 322.182437)scale(0.1 -0.1)">
       <use xlink:href="#DejaVuSans-31"/>
       <use x="63.623047" xlink:href="#DejaVuSans-35"/>
       <use x="127.246094" xlink:href="#DejaVuSans-30"/>
      </g>
     </g>
    </g>
    <g id="xtick_8">
     <g id="line2d_8">
      <path clip-path="url(#pd400dccc00)" d="M 357.701526 307.584 
L 357.701526 41.472 
" style="fill:none;stroke:#cccccc;stroke-linecap:round;stroke-width:0.8;"/>
     </g>
     <g id="text_8">
      <!-- 175 -->
      <g style="fill:#262626;" transform="translate(348.157776 322.182437)scale(0.1 -0.1)">
       <use xlink:href="#DejaVuSans-31"/>
       <use x="63.623047" xlink:href="#DejaVuSans-37"/>
       <use x="127.246094" xlink:href="#DejaVuSans-35"/>
      </g>
     </g>
    </g>
    <g id="xtick_9">
     <g id="line2d_9">
      <path clip-path="url(#pd400dccc00)" d="M 398.487273 307.584 
L 398.487273 41.472 
" style="fill:none;stroke:#cccccc;stroke-linecap:round;stroke-width:0.8;"/>
     </g>
     <g id="text_9">
      <!-- 200 -->
      <g style="fill:#262626;" transform="translate(388.943523 322.182437)scale(0.1 -0.1)">
       <use xlink:href="#DejaVuSans-32"/>
       <use x="63.623047" xlink:href="#DejaVuSans-30"/>
       <use x="127.246094" xlink:href="#DejaVuSans-30"/>
      </g>
     </g>
    </g>
    <g id="text_10">
     <!-- Auroc -->
     <g style="fill:#262626;" transform="translate(221.819375 335.860562)scale(0.1 -0.1)">
      <defs>
       <path d="M 2188 4044 
L 1331 1722 
L 3047 1722 
L 2188 4044 
z
M 1831 4666 
L 2547 4666 
L 4325 0 
L 3669 0 
L 3244 1197 
L 1141 1197 
L 716 0 
L 50 0 
L 1831 4666 
z
" id="DejaVuSans-41" transform="scale(0.015625)"/>
       <path d="M 544 1381 
L 544 3500 
L 1119 3500 
L 1119 1403 
Q 1119 906 1312 657 
Q 1506 409 1894 409 
Q 2359 409 2629 706 
Q 2900 1003 2900 1516 
L 2900 3500 
L 3475 3500 
L 3475 0 
L 2900 0 
L 2900 538 
Q 2691 219 2414 64 
Q 2138 -91 1772 -91 
Q 1169 -91 856 284 
Q 544 659 544 1381 
z
M 1991 3584 
L 1991 3584 
z
" id="DejaVuSans-75" transform="scale(0.015625)"/>
       <path d="M 2631 2963 
Q 2534 3019 2420 3045 
Q 2306 3072 2169 3072 
Q 1681 3072 1420 2755 
Q 1159 2438 1159 1844 
L 1159 0 
L 581 0 
L 581 3500 
L 1159 3500 
L 1159 2956 
Q 1341 3275 1631 3429 
Q 1922 3584 2338 3584 
Q 2397 3584 2469 3576 
Q 2541 3569 2628 3553 
L 2631 2963 
z
" id="DejaVuSans-72" transform="scale(0.015625)"/>
       <path d="M 1959 3097 
Q 1497 3097 1228 2736 
Q 959 2375 959 1747 
Q 959 1119 1226 758 
Q 1494 397 1959 397 
Q 2419 397 2687 759 
Q 2956 1122 2956 1747 
Q 2956 2369 2687 2733 
Q 2419 3097 1959 3097 
z
M 1959 3584 
Q 2709 3584 3137 3096 
Q 3566 2609 3566 1747 
Q 3566 888 3137 398 
Q 2709 -91 1959 -91 
Q 1206 -91 779 398 
Q 353 888 353 1747 
Q 353 2609 779 3096 
Q 1206 3584 1959 3584 
z
" id="DejaVuSans-6f" transform="scale(0.015625)"/>
       <path d="M 3122 3366 
L 3122 2828 
Q 2878 2963 2633 3030 
Q 2388 3097 2138 3097 
Q 1578 3097 1268 2742 
Q 959 2388 959 1747 
Q 959 1106 1268 751 
Q 1578 397 2138 397 
Q 2388 397 2633 464 
Q 2878 531 3122 666 
L 3122 134 
Q 2881 22 2623 -34 
Q 2366 -91 2075 -91 
Q 1284 -91 818 406 
Q 353 903 353 1747 
Q 353 2603 823 3093 
Q 1294 3584 2113 3584 
Q 2378 3584 2631 3529 
Q 2884 3475 3122 3366 
z
" id="DejaVuSans-63" transform="scale(0.015625)"/>
      </defs>
      <use xlink:href="#DejaVuSans-41"/>
      <use x="68.408203" xlink:href="#DejaVuSans-75"/>
      <use x="131.787109" xlink:href="#DejaVuSans-72"/>
      <use x="170.650391" xlink:href="#DejaVuSans-6f"/>
      <use x="231.832031" xlink:href="#DejaVuSans-63"/>
     </g>
    </g>
   </g>
   <g id="matplotlib.axis_2">
    <g id="ytick_1">
     <g id="line2d_10">
      <path clip-path="url(#pd400dccc00)" d="M 57.6 292.304747 
L 414.72 292.304747 
" style="fill:none;stroke:#cccccc;stroke-linecap:round;stroke-width:0.8;"/>
     </g>
     <g id="text_11">
      <!-- 0.40 -->
      <g style="fill:#262626;" transform="translate(28.334375 296.103966)scale(0.1 -0.1)">
       <defs>
        <path d="M 684 794 
L 1344 794 
L 1344 0 
L 684 0 
L 684 794 
z
" id="DejaVuSans-2e" transform="scale(0.015625)"/>
        <path d="M 2419 4116 
L 825 1625 
L 2419 1625 
L 2419 4116 
z
M 2253 4666 
L 3047 4666 
L 3047 1625 
L 3713 1625 
L 3713 1100 
L 3047 1100 
L 3047 0 
L 2419 0 
L 2419 1100 
L 313 1100 
L 313 1709 
L 2253 4666 
z
" id="DejaVuSans-34" transform="scale(0.015625)"/>
       </defs>
       <use xlink:href="#DejaVuSans-30"/>
       <use x="63.623047" xlink:href="#DejaVuSans-2e"/>
       <use x="95.410156" xlink:href="#DejaVuSans-34"/>
       <use x="159.033203" xlink:href="#DejaVuSans-30"/>
      </g>
     </g>
    </g>
    <g id="ytick_2">
     <g id="line2d_11">
      <path clip-path="url(#pd400dccc00)" d="M 57.6 259.5357 
L 414.72 259.5357 
" style="fill:none;stroke:#cccccc;stroke-linecap:round;stroke-width:0.8;"/>
     </g>
     <g id="text_12">
      <!-- 0.45 -->
      <g style="fill:#262626;" transform="translate(28.334375 263.334919)scale(0.1 -0.1)">
       <use xlink:href="#DejaVuSans-30"/>
       <use x="63.623047" xlink:href="#DejaVuSans-2e"/>
       <use x="95.410156" xlink:href="#DejaVuSans-34"/>
       <use x="159.033203" xlink:href="#DejaVuSans-35"/>
      </g>
     </g>
    </g>
    <g id="ytick_3">
     <g id="line2d_12">
      <path clip-path="url(#pd400dccc00)" d="M 57.6 226.766653 
L 414.72 226.766653 
" style="fill:none;stroke:#cccccc;stroke-linecap:round;stroke-width:0.8;"/>
     </g>
     <g id="text_13">
      <!-- 0.50 -->
      <g style="fill:#262626;" transform="translate(28.334375 230.565872)scale(0.1 -0.1)">
       <use xlink:href="#DejaVuSans-30"/>
       <use x="63.623047" xlink:href="#DejaVuSans-2e"/>
       <use x="95.410156" xlink:href="#DejaVuSans-35"/>
       <use x="159.033203" xlink:href="#DejaVuSans-30"/>
      </g>
     </g>
    </g>
    <g id="ytick_4">
     <g id="line2d_13">
      <path clip-path="url(#pd400dccc00)" d="M 57.6 193.997606 
L 414.72 193.997606 
" style="fill:none;stroke:#cccccc;stroke-linecap:round;stroke-width:0.8;"/>
     </g>
     <g id="text_14">
      <!-- 0.55 -->
      <g style="fill:#262626;" transform="translate(28.334375 197.796825)scale(0.1 -0.1)">
       <use xlink:href="#DejaVuSans-30"/>
       <use x="63.623047" xlink:href="#DejaVuSans-2e"/>
       <use x="95.410156" xlink:href="#DejaVuSans-35"/>
       <use x="159.033203" xlink:href="#DejaVuSans-35"/>
      </g>
     </g>
    </g>
    <g id="ytick_5">
     <g id="line2d_14">
      <path clip-path="url(#pd400dccc00)" d="M 57.6 161.22856 
L 414.72 161.22856 
" style="fill:none;stroke:#cccccc;stroke-linecap:round;stroke-width:0.8;"/>
     </g>
     <g id="text_15">
      <!-- 0.60 -->
      <g style="fill:#262626;" transform="translate(28.334375 165.027778)scale(0.1 -0.1)">
       <defs>
        <path d="M 2113 2584 
Q 1688 2584 1439 2293 
Q 1191 2003 1191 1497 
Q 1191 994 1439 701 
Q 1688 409 2113 409 
Q 2538 409 2786 701 
Q 3034 994 3034 1497 
Q 3034 2003 2786 2293 
Q 2538 2584 2113 2584 
z
M 3366 4563 
L 3366 3988 
Q 3128 4100 2886 4159 
Q 2644 4219 2406 4219 
Q 1781 4219 1451 3797 
Q 1122 3375 1075 2522 
Q 1259 2794 1537 2939 
Q 1816 3084 2150 3084 
Q 2853 3084 3261 2657 
Q 3669 2231 3669 1497 
Q 3669 778 3244 343 
Q 2819 -91 2113 -91 
Q 1303 -91 875 529 
Q 447 1150 447 2328 
Q 447 3434 972 4092 
Q 1497 4750 2381 4750 
Q 2619 4750 2861 4703 
Q 3103 4656 3366 4563 
z
" id="DejaVuSans-36" transform="scale(0.015625)"/>
       </defs>
       <use xlink:href="#DejaVuSans-30"/>
       <use x="63.623047" xlink:href="#DejaVuSans-2e"/>
       <use x="95.410156" xlink:href="#DejaVuSans-36"/>
       <use x="159.033203" xlink:href="#DejaVuSans-30"/>
      </g>
     </g>
    </g>
    <g id="ytick_6">
     <g id="line2d_15">
      <path clip-path="url(#pd400dccc00)" d="M 57.6 128.459513 
L 414.72 128.459513 
" style="fill:none;stroke:#cccccc;stroke-linecap:round;stroke-width:0.8;"/>
     </g>
     <g id="text_16">
      <!-- 0.65 -->
      <g style="fill:#262626;" transform="translate(28.334375 132.258731)scale(0.1 -0.1)">
       <use xlink:href="#DejaVuSans-30"/>
       <use x="63.623047" xlink:href="#DejaVuSans-2e"/>
       <use x="95.410156" xlink:href="#DejaVuSans-36"/>
       <use x="159.033203" xlink:href="#DejaVuSans-35"/>
      </g>
     </g>
    </g>
    <g id="ytick_7">
     <g id="line2d_16">
      <path clip-path="url(#pd400dccc00)" d="M 57.6 95.690466 
L 414.72 95.690466 
" style="fill:none;stroke:#cccccc;stroke-linecap:round;stroke-width:0.8;"/>
     </g>
     <g id="text_17">
      <!-- 0.70 -->
      <g style="fill:#262626;" transform="translate(28.334375 99.489684)scale(0.1 -0.1)">
       <use xlink:href="#DejaVuSans-30"/>
       <use x="63.623047" xlink:href="#DejaVuSans-2e"/>
       <use x="95.410156" xlink:href="#DejaVuSans-37"/>
       <use x="159.033203" xlink:href="#DejaVuSans-30"/>
      </g>
     </g>
    </g>
    <g id="ytick_8">
     <g id="line2d_17">
      <path clip-path="url(#pd400dccc00)" d="M 57.6 62.921419 
L 414.72 62.921419 
" style="fill:none;stroke:#cccccc;stroke-linecap:round;stroke-width:0.8;"/>
     </g>
     <g id="text_18">
      <!-- 0.75 -->
      <g style="fill:#262626;" transform="translate(28.334375 66.720638)scale(0.1 -0.1)">
       <use xlink:href="#DejaVuSans-30"/>
       <use x="63.623047" xlink:href="#DejaVuSans-2e"/>
       <use x="95.410156" xlink:href="#DejaVuSans-37"/>
       <use x="159.033203" xlink:href="#DejaVuSans-35"/>
      </g>
     </g>
    </g>
    <g id="text_19">
     <!-- Iteration -->
     <g style="fill:#262626;" transform="translate(22.254687 195.736594)rotate(-90)scale(0.1 -0.1)">
      <defs>
       <path d="M 628 4666 
L 1259 4666 
L 1259 0 
L 628 0 
L 628 4666 
z
" id="DejaVuSans-49" transform="scale(0.015625)"/>
       <path d="M 1172 4494 
L 1172 3500 
L 2356 3500 
L 2356 3053 
L 1172 3053 
L 1172 1153 
Q 1172 725 1289 603 
Q 1406 481 1766 481 
L 2356 481 
L 2356 0 
L 1766 0 
Q 1100 0 847 248 
Q 594 497 594 1153 
L 594 3053 
L 172 3053 
L 172 3500 
L 594 3500 
L 594 4494 
L 1172 4494 
z
" id="DejaVuSans-74" transform="scale(0.015625)"/>
       <path d="M 3597 1894 
L 3597 1613 
L 953 1613 
Q 991 1019 1311 708 
Q 1631 397 2203 397 
Q 2534 397 2845 478 
Q 3156 559 3463 722 
L 3463 178 
Q 3153 47 2828 -22 
Q 2503 -91 2169 -91 
Q 1331 -91 842 396 
Q 353 884 353 1716 
Q 353 2575 817 3079 
Q 1281 3584 2069 3584 
Q 2775 3584 3186 3129 
Q 3597 2675 3597 1894 
z
M 3022 2063 
Q 3016 2534 2758 2815 
Q 2500 3097 2075 3097 
Q 1594 3097 1305 2825 
Q 1016 2553 972 2059 
L 3022 2063 
z
" id="DejaVuSans-65" transform="scale(0.015625)"/>
       <path d="M 2194 1759 
Q 1497 1759 1228 1600 
Q 959 1441 959 1056 
Q 959 750 1161 570 
Q 1363 391 1709 391 
Q 2188 391 2477 730 
Q 2766 1069 2766 1631 
L 2766 1759 
L 2194 1759 
z
M 3341 1997 
L 3341 0 
L 2766 0 
L 2766 531 
Q 2569 213 2275 61 
Q 1981 -91 1556 -91 
Q 1019 -91 701 211 
Q 384 513 384 1019 
Q 384 1609 779 1909 
Q 1175 2209 1959 2209 
L 2766 2209 
L 2766 2266 
Q 2766 2663 2505 2880 
Q 2244 3097 1772 3097 
Q 1472 3097 1187 3025 
Q 903 2953 641 2809 
L 641 3341 
Q 956 3463 1253 3523 
Q 1550 3584 1831 3584 
Q 2591 3584 2966 3190 
Q 3341 2797 3341 1997 
z
" id="DejaVuSans-61" transform="scale(0.015625)"/>
       <path d="M 603 3500 
L 1178 3500 
L 1178 0 
L 603 0 
L 603 3500 
z
M 603 4863 
L 1178 4863 
L 1178 4134 
L 603 4134 
L 603 4863 
z
" id="DejaVuSans-69" transform="scale(0.015625)"/>
       <path d="M 3513 2113 
L 3513 0 
L 2938 0 
L 2938 2094 
Q 2938 2591 2744 2837 
Q 2550 3084 2163 3084 
Q 1697 3084 1428 2787 
Q 1159 2491 1159 1978 
L 1159 0 
L 581 0 
L 581 3500 
L 1159 3500 
L 1159 2956 
Q 1366 3272 1645 3428 
Q 1925 3584 2291 3584 
Q 2894 3584 3203 3211 
Q 3513 2838 3513 2113 
z
" id="DejaVuSans-6e" transform="scale(0.015625)"/>
      </defs>
      <use xlink:href="#DejaVuSans-49"/>
      <use x="29.492188" xlink:href="#DejaVuSans-74"/>
      <use x="68.701172" xlink:href="#DejaVuSans-65"/>
      <use x="130.224609" xlink:href="#DejaVuSans-72"/>
      <use x="171.337891" xlink:href="#DejaVuSans-61"/>
      <use x="232.617188" xlink:href="#DejaVuSans-74"/>
      <use x="271.826172" xlink:href="#DejaVuSans-69"/>
      <use x="299.609375" xlink:href="#DejaVuSans-6f"/>
      <use x="360.791016" xlink:href="#DejaVuSans-6e"/>
     </g>
    </g>
   </g>
   <g id="PolyCollection_1">
    <defs>
     <path d="M 73.832727 -225.761861 
L 73.832727 -129.232192 
L 75.464157 -99.666327 
L 77.095587 -145.904836 
L 78.727017 -212.130167 
L 80.358447 -177.993184 
L 81.989877 -142.098209 
L 83.621307 -81.137632 
L 85.252736 -89.982008 
L 86.884166 -156.969964 
L 88.515596 -168.367542 
L 90.147026 -100.161302 
L 91.778456 -158.506839 
L 93.409886 -120.922352 
L 95.041316 -108.349595 
L 96.672746 -175.447019 
L 98.304175 -160.04616 
L 99.935605 -126.051241 
L 101.567035 -143.534288 
L 103.198465 -113.527271 
L 104.829895 -179.689574 
L 106.461325 -137.607046 
L 108.092755 -101.058659 
L 109.724185 -88.82379 
L 111.355614 -171.658769 
L 112.987044 -71.52474 
L 114.618474 -152.043674 
L 116.249904 -152.22525 
L 117.881334 -133.94175 
L 119.512764 -83.48646 
L 121.144194 -150.258676 
L 122.775624 -146.182743 
L 124.407053 -68.543745 
L 126.038483 -134.253343 
L 127.669913 -171.58186 
L 129.301343 -153.450055 
L 130.932773 -168.587145 
L 132.564203 -203.580002 
L 134.195633 -183.654452 
L 135.827063 -132.857845 
L 137.458492 -172.393963 
L 139.089922 -173.895219 
L 140.721352 -188.37311 
L 142.352782 -120.180942 
L 143.984212 -209.560698 
L 145.615642 -180.660982 
L 147.247072 -191.24269 
L 148.878502 -173.080124 
L 150.509931 -194.315922 
L 152.141361 -139.04405 
L 153.772791 -219.887255 
L 155.404221 -197.833694 
L 157.035651 -184.877346 
L 158.667081 -161.847163 
L 160.298511 -156.292797 
L 161.929941 -184.258283 
L 163.56137 -192.4834 
L 165.1928 -151.268191 
L 166.82423 -163.852889 
L 168.45566 -172.423039 
L 170.08709 -192.096575 
L 171.71852 -169.804647 
L 173.34995 -172.344872 
L 174.98138 -149.156888 
L 176.61281 -174.824494 
L 178.244239 -136.626847 
L 179.875669 -156.632004 
L 181.507099 -184.594788 
L 183.138529 -176.350228 
L 184.769959 -182.849634 
L 186.401389 -189.560659 
L 188.032819 -193.05769 
L 189.664249 -182.083378 
L 191.295678 -165.165711 
L 192.927108 -170.563259 
L 194.558538 -183.673337 
L 196.189968 -165.513625 
L 197.821398 -135.407625 
L 199.452828 -148.97478 
L 201.084258 -179.858105 
L 202.715688 -176.901307 
L 204.347117 -158.624546 
L 205.978547 -144.397703 
L 207.609977 -130.205108 
L 209.241407 -189.746729 
L 210.872837 -149.087623 
L 212.504267 -151.670932 
L 214.135697 -212.240266 
L 215.767127 -167.495833 
L 217.398556 -101.757866 
L 219.029986 -177.273408 
L 220.661416 -162.641202 
L 222.292846 -118.765238 
L 223.924276 -187.98486 
L 225.555706 -157.560744 
L 227.187136 -155.205852 
L 228.818566 -176.18631 
L 230.449995 -194.433187 
L 232.081425 -166.484962 
L 233.712855 -86.875952 
L 235.344285 -153.338743 
L 236.975715 -124.271822 
L 238.607145 -100.553681 
L 240.238575 -173.77574 
L 241.870005 -104.411043 
L 243.501434 -129.92701 
L 245.132864 -119.38622 
L 246.764294 -191.531096 
L 248.395724 -193.37385 
L 250.027154 -83.578146 
L 251.658584 -153.343915 
L 253.290014 -166.950544 
L 254.921444 -144.167802 
L 256.552873 -154.345599 
L 258.184303 -170.858742 
L 259.815733 -176.139741 
L 261.447163 -85.617342 
L 263.078593 -195.860899 
L 264.710023 -211.588228 
L 266.341453 -175.339477 
L 267.972883 -146.538275 
L 269.604312 -88.285911 
L 271.235742 -147.642569 
L 272.867172 -170.12057 
L 274.498602 -140.856239 
L 276.130032 -162.673687 
L 277.761462 -186.533838 
L 279.392892 -128.493305 
L 281.024322 -153.41382 
L 282.655751 -161.01631 
L 284.287181 -163.114907 
L 285.918611 -191.308181 
L 287.550041 -117.017462 
L 289.181471 -129.40726 
L 290.812901 -147.241712 
L 292.444331 -115.32676 
L 294.075761 -179.542513 
L 295.70719 -192.51986 
L 297.33862 -149.797133 
L 298.97005 -163.613664 
L 300.60148 -111.041943 
L 302.23291 -149.019535 
L 303.86434 -200.618283 
L 305.49577 -141.951996 
L 307.1272 -142.571168 
L 308.75863 -158.899498 
L 310.390059 -137.323801 
L 312.021489 -147.370899 
L 313.652919 -161.455181 
L 315.284349 -183.15283 
L 316.915779 -81.132876 
L 318.547209 -197.349792 
L 320.178639 -143.671663 
L 321.810069 -117.033777 
L 323.441498 -143.2505 
L 325.072928 -151.145554 
L 326.704358 -151.635539 
L 328.335788 -170.525956 
L 329.967218 -107.986758 
L 331.598648 -117.167949 
L 333.230078 -167.942555 
L 334.861508 -144.526006 
L 336.492937 -159.548618 
L 338.124367 -133.884865 
L 339.755797 -132.953887 
L 341.387227 -125.353864 
L 343.018657 -160.296962 
L 344.650087 -119.348697 
L 346.281517 -50.112 
L 347.912947 -159.344734 
L 349.544376 -108.507819 
L 351.175806 -147.404259 
L 352.807236 -99.905731 
L 354.438666 -146.617503 
L 356.070096 -166.927596 
L 357.701526 -116.129317 
L 359.332956 -129.162863 
L 360.964386 -148.333516 
L 362.595815 -144.514372 
L 364.227245 -138.378666 
L 365.858675 -144.449414 
L 367.490105 -193.894965 
L 369.121535 -94.993543 
L 370.752965 -145.658273 
L 372.384395 -163.202048 
L 374.015825 -173.124877 
L 375.647254 -152.660638 
L 377.278684 -156.140123 
L 378.910114 -173.659957 
L 380.541544 -160.29481 
L 382.172974 -116.046863 
L 383.804404 -124.683773 
L 385.435834 -165.053474 
L 387.067264 -157.89487 
L 388.698693 -162.239468 
L 390.330123 -174.345918 
L 391.961553 -129.591171 
L 393.592983 -152.636627 
L 395.224413 -137.27232 
L 396.855843 -144.493559 
L 398.487273 -92.289563 
L 398.487273 -238.445054 
L 398.487273 -238.445054 
L 396.855843 -237.596723 
L 395.224413 -242.029433 
L 393.592983 -242.944314 
L 391.961553 -259.325645 
L 390.330123 -261.459555 
L 388.698693 -270.963633 
L 387.067264 -260.686073 
L 385.435834 -283.371625 
L 383.804404 -250.382327 
L 382.172974 -229.30838 
L 380.541544 -289.049584 
L 378.910114 -264.637572 
L 377.278684 -221.352917 
L 375.647254 -249.520077 
L 374.015825 -244.698414 
L 372.384395 -279.267549 
L 370.752965 -263.449333 
L 369.121535 -248.903084 
L 367.490105 -262.203952 
L 365.858675 -224.966851 
L 364.227245 -270.81474 
L 362.595815 -244.187942 
L 360.964386 -257.168919 
L 359.332956 -249.330677 
L 357.701526 -254.933252 
L 356.070096 -263.315374 
L 354.438666 -250.855654 
L 352.807236 -220.042488 
L 351.175806 -248.412635 
L 349.544376 -256.564776 
L 347.912947 -252.476324 
L 346.281517 -176.389086 
L 344.650087 -276.090519 
L 343.018657 -237.474966 
L 341.387227 -255.624071 
L 339.755797 -210.188152 
L 338.124367 -197.224364 
L 336.492937 -221.856789 
L 334.861508 -176.512727 
L 333.230078 -273.196362 
L 331.598648 -214.318958 
L 329.967218 -214.523231 
L 328.335788 -250.232185 
L 326.704358 -231.407746 
L 325.072928 -247.583208 
L 323.441498 -232.166465 
L 321.810069 -215.243724 
L 320.178639 -245.317931 
L 318.547209 -276.419512 
L 316.915779 -237.673118 
L 315.284349 -271.621535 
L 313.652919 -245.538045 
L 312.021489 -265.569402 
L 310.390059 -275.613436 
L 308.75863 -276.971858 
L 307.1272 -258.648117 
L 305.49577 -218.397719 
L 303.86434 -260.75892 
L 302.23291 -263.029816 
L 300.60148 -248.90175 
L 298.97005 -265.850969 
L 297.33862 -270.135941 
L 295.70719 -267.139794 
L 294.075761 -239.923252 
L 292.444331 -231.194455 
L 290.812901 -219.591333 
L 289.181471 -222.239792 
L 287.550041 -215.67219 
L 285.918611 -274.822545 
L 284.287181 -230.658086 
L 282.655751 -244.887551 
L 281.024322 -258.700647 
L 279.392892 -242.667322 
L 277.761462 -254.828009 
L 276.130032 -273.047517 
L 274.498602 -207.017107 
L 272.867172 -254.216694 
L 271.235742 -273.760611 
L 269.604312 -239.80037 
L 267.972883 -228.993601 
L 266.341453 -243.25449 
L 264.710023 -258.841736 
L 263.078593 -262.240549 
L 261.447163 -262.971521 
L 259.815733 -247.389309 
L 258.184303 -267.562125 
L 256.552873 -260.536713 
L 254.921444 -256.366609 
L 253.290014 -256.457466 
L 251.658584 -203.44353 
L 250.027154 -259.021508 
L 248.395724 -261.147709 
L 246.764294 -289.412541 
L 245.132864 -237.772008 
L 243.501434 -271.384205 
L 241.870005 -279.094188 
L 240.238575 -261.635202 
L 238.607145 -262.249021 
L 236.975715 -259.342193 
L 235.344285 -256.692754 
L 233.712855 -238.250963 
L 232.081425 -210.898529 
L 230.449995 -264.134037 
L 228.818566 -284.423282 
L 227.187136 -260.196628 
L 225.555706 -253.157926 
L 223.924276 -232.191061 
L 222.292846 -234.995428 
L 220.661416 -273.62545 
L 219.029986 -229.636315 
L 217.398556 -266.585888 
L 215.767127 -256.408596 
L 214.135697 -279.658308 
L 212.504267 -254.645846 
L 210.872837 -255.523862 
L 209.241407 -263.450279 
L 207.609977 -289.151108 
L 205.978547 -242.50126 
L 204.347117 -261.369814 
L 202.715688 -264.552469 
L 201.084258 -257.315585 
L 199.452828 -244.005322 
L 197.821398 -273.683893 
L 196.189968 -269.224699 
L 194.558538 -266.648575 
L 192.927108 -250.608565 
L 191.295678 -254.374364 
L 189.664249 -268.95252 
L 188.032819 -286.235813 
L 186.401389 -265.827336 
L 184.769959 -237.581391 
L 183.138529 -258.815569 
L 181.507099 -263.633428 
L 179.875669 -265.312028 
L 178.244239 -269.506072 
L 176.61281 -239.224323 
L 174.98138 -279.26741 
L 173.34995 -247.746013 
L 171.71852 -272.999727 
L 170.08709 -255.495796 
L 168.45566 -252.809772 
L 166.82423 -234.394775 
L 165.1928 -282.252067 
L 163.56137 -279.208297 
L 161.929941 -252.515514 
L 160.298511 -256.641375 
L 158.667081 -265.48777 
L 157.035651 -255.460253 
L 155.404221 -263.287639 
L 153.772791 -274.522527 
L 152.141361 -284.441334 
L 150.509931 -281.528691 
L 148.878502 -260.030281 
L 147.247072 -268.642191 
L 145.615642 -255.013492 
L 143.984212 -275.581055 
L 142.352782 -267.862544 
L 140.721352 -252.208102 
L 139.089922 -241.710272 
L 137.458492 -248.473727 
L 135.827063 -273.592231 
L 134.195633 -273.652572 
L 132.564203 -257.384285 
L 130.932773 -276.874759 
L 129.301343 -277.676204 
L 127.669913 -276.792678 
L 126.038483 -238.460894 
L 124.407053 -216.20389 
L 122.775624 -264.774178 
L 121.144194 -196.856251 
L 119.512764 -139.723548 
L 117.881334 -228.923004 
L 116.249904 -237.559534 
L 114.618474 -216.441038 
L 112.987044 -158.095056 
L 111.355614 -209.37126 
L 109.724185 -157.650518 
L 108.092755 -191.692974 
L 106.461325 -198.256473 
L 104.829895 -292.032 
L 103.198465 -167.379243 
L 101.567035 -192.045781 
L 99.935605 -181.540117 
L 98.304175 -213.556728 
L 96.672746 -226.565159 
L 95.041316 -145.150427 
L 93.409886 -192.907191 
L 91.778456 -266.473166 
L 90.147026 -180.840971 
L 88.515596 -235.850944 
L 86.884166 -215.6217 
L 85.252736 -145.473014 
L 83.621307 -129.135593 
L 81.989877 -187.235249 
L 80.358447 -279.87844 
L 78.727017 -263.473898 
L 77.095587 -191.109333 
L 75.464157 -274.512654 
L 73.832727 -225.761861 
z
" id="m3a2eae0f33" style="stroke:#ffffff;stroke-opacity:0.2;"/>
    </defs>
    <g clip-path="url(#pd400dccc00)">
     <use style="fill:#1f77b4;fill-opacity:0.2;stroke:#ffffff;stroke-opacity:0.2;" x="0" xlink:href="#m3a2eae0f33" y="345.6"/>
    </g>
   </g>
   <g id="LineCollection_1">
    <path clip-path="url(#pd400dccc00)" d="M 121.144194 295.488 
L 121.144194 53.568 
" style="fill:none;stroke:#1f77b4;stroke-dasharray:5.55,2.4;stroke-dashoffset:0;stroke-width:1.5;"/>
   </g>
   <g id="line2d_18">
    <path clip-path="url(#pd400dccc00)" d="M 73.832727 168.102973 
L 75.464157 158.51051 
L 77.095587 177.092915 
L 78.727017 107.797968 
L 80.358447 116.664188 
L 81.989877 180.933271 
L 83.621307 240.463387 
L 85.252736 227.872489 
L 86.884166 159.304168 
L 88.515596 143.490757 
L 90.147026 205.098863 
L 91.778456 133.109998 
L 93.409886 188.685229 
L 95.041316 218.849989 
L 96.672746 144.593911 
L 98.304175 158.798556 
L 99.935605 191.804321 
L 101.567035 177.809965 
L 103.198465 205.146743 
L 104.829895 109.739213 
L 106.461325 177.668241 
L 108.092755 199.224183 
L 109.724185 222.362846 
L 111.355614 155.084986 
L 112.987044 230.790102 
L 114.618474 161.357644 
L 116.249904 150.707608 
L 117.881334 164.167623 
L 119.512764 233.994996 
L 121.144194 172.042537 
L 122.775624 140.12154 
L 124.407053 203.226182 
L 126.038483 159.242882 
L 127.669913 121.412731 
L 129.301343 130.03687 
L 130.932773 122.869048 
L 132.564203 115.117857 
L 134.195633 116.946488 
L 135.827063 142.374962 
L 137.458492 135.166155 
L 139.089922 137.797255 
L 140.721352 125.309394 
L 142.352782 151.578257 
L 143.984212 103.029123 
L 145.615642 127.762763 
L 147.247072 115.65756 
L 148.878502 129.044797 
L 150.509931 107.677693 
L 152.141361 133.857308 
L 153.772791 98.395109 
L 155.404221 115.039333 
L 157.035651 125.431201 
L 158.667081 131.932534 
L 160.298511 139.132914 
L 161.929941 127.213101 
L 163.56137 109.754152 
L 165.1928 128.839871 
L 166.82423 146.476168 
L 168.45566 132.983595 
L 170.08709 121.803815 
L 171.71852 124.197813 
L 173.34995 135.554557 
L 174.98138 131.387851 
L 176.61281 138.575591 
L 178.244239 142.533541 
L 179.875669 134.627984 
L 181.507099 121.485892 
L 183.138529 128.017102 
L 184.769959 135.384487 
L 186.401389 117.906003 
L 188.032819 105.953249 
L 189.664249 120.082051 
L 191.295678 135.829963 
L 192.927108 135.014088 
L 194.558538 120.439044 
L 196.189968 128.230838 
L 197.821398 141.054241 
L 199.452828 149.109949 
L 201.084258 127.013155 
L 202.715688 124.873112 
L 204.347117 135.60282 
L 205.978547 152.150518 
L 209.241407 119.001496 
L 210.872837 143.294257 
L 212.504267 142.441611 
L 214.135697 99.650713 
L 215.767127 133.647785 
L 217.398556 161.428123 
L 219.029986 142.145138 
L 220.661416 127.466674 
L 222.292846 168.719667 
L 223.924276 135.51204 
L 225.555706 140.240665 
L 227.187136 137.89876 
L 228.818566 115.295204 
L 230.449995 116.316388 
L 232.081425 156.908255 
L 233.712855 183.036542 
L 235.344285 140.584252 
L 236.975715 153.792993 
L 238.607145 164.198649 
L 240.238575 127.894529 
L 241.870005 153.847384 
L 243.501434 144.944392 
L 245.132864 167.020886 
L 246.764294 105.128181 
L 248.395724 118.339221 
L 250.027154 174.300173 
L 251.658584 167.206277 
L 253.290014 133.895995 
L 254.921444 145.332795 
L 256.552873 138.158844 
L 258.184303 126.389566 
L 259.815733 133.835475 
L 261.447163 171.305568 
L 263.078593 116.549276 
L 264.710023 110.385018 
L 266.341453 136.303017 
L 267.972883 157.834062 
L 269.604312 181.55686 
L 271.235742 134.89841 
L 272.867172 133.431368 
L 274.498602 171.663327 
L 276.130032 127.739398 
L 277.761462 124.919077 
L 279.392892 160.019686 
L 281.024322 139.542767 
L 282.655751 142.648069 
L 284.287181 148.713503 
L 285.918611 112.534637 
L 287.550041 179.255174 
L 289.181471 169.776474 
L 290.812901 162.183478 
L 292.444331 172.339392 
L 294.075761 135.867118 
L 295.70719 115.770173 
L 297.33862 135.633463 
L 298.97005 130.867683 
L 300.60148 165.628154 
L 303.86434 114.911398 
L 305.49577 165.425143 
L 307.1272 144.990357 
L 308.75863 127.664322 
L 310.390059 139.131382 
L 312.021489 139.12985 
L 313.652919 142.103387 
L 315.284349 118.212817 
L 316.915779 186.197003 
L 318.547209 108.715348 
L 320.178639 151.105203 
L 321.810069 179.46125 
L 323.441498 157.891518 
L 325.072928 146.235619 
L 326.704358 154.078357 
L 328.335788 135.22093 
L 329.967218 184.345006 
L 331.598648 179.856547 
L 333.230078 125.030541 
L 334.861508 185.080634 
L 336.492937 154.897296 
L 338.124367 180.045385 
L 339.755797 174.02898 
L 341.387227 155.111032 
L 343.018657 146.714036 
L 344.650087 147.880392 
L 346.281517 232.349457 
L 347.912947 139.689471 
L 349.544376 163.063703 
L 351.175806 147.691553 
L 352.807236 185.625891 
L 354.438666 146.863421 
L 356.070096 130.478515 
L 357.701526 160.068715 
L 359.332956 156.35323 
L 360.964386 142.848782 
L 362.595815 151.248843 
L 364.227245 141.003297 
L 365.858675 160.891868 
L 367.490105 117.550542 
L 369.121535 173.651686 
L 370.752965 141.046197 
L 372.384395 124.365201 
L 374.015825 136.688355 
L 375.647254 144.509642 
L 377.278684 156.85348 
L 378.910114 126.451235 
L 380.541544 120.927803 
L 382.172974 172.922379 
L 383.804404 158.06695 
L 385.435834 121.387451 
L 387.067264 136.309528 
L 388.698693 128.998449 
L 390.330123 127.697264 
L 391.961553 151.141592 
L 393.592983 147.809529 
L 395.224413 155.949123 
L 396.855843 154.554859 
L 398.487273 180.232692 
L 398.487273 180.232692 
" style="fill:none;stroke:#1f77b4;stroke-linecap:round;stroke-width:1.5;"/>
   </g>
   <g id="patch_3">
    <path d="M 57.6 307.584 
L 57.6 41.472 
" style="fill:none;stroke:#cccccc;stroke-linecap:square;stroke-linejoin:miter;stroke-width:0.8;"/>
   </g>
   <g id="patch_4">
    <path d="M 414.72 307.584 
L 414.72 41.472 
" style="fill:none;stroke:#cccccc;stroke-linecap:square;stroke-linejoin:miter;stroke-width:0.8;"/>
   </g>
   <g id="patch_5">
    <path d="M 57.6 307.584 
L 414.72 307.584 
" style="fill:none;stroke:#cccccc;stroke-linecap:square;stroke-linejoin:miter;stroke-width:0.8;"/>
   </g>
   <g id="patch_6">
    <path d="M 57.6 41.472 
L 414.72 41.472 
" style="fill:none;stroke:#cccccc;stroke-linecap:square;stroke-linejoin:miter;stroke-width:0.8;"/>
   </g>
   <g id="text_20">
    <!-- Model performance vs. # of iterations -->
    <g style="fill:#262626;" transform="translate(122.314688 35.472)scale(0.12 -0.12)">
     <defs>
      <path d="M 628 4666 
L 1569 4666 
L 2759 1491 
L 3956 4666 
L 4897 4666 
L 4897 0 
L 4281 0 
L 4281 4097 
L 3078 897 
L 2444 897 
L 1241 4097 
L 1241 0 
L 628 0 
L 628 4666 
z
" id="DejaVuSans-4d" transform="scale(0.015625)"/>
      <path d="M 2906 2969 
L 2906 4863 
L 3481 4863 
L 3481 0 
L 2906 0 
L 2906 525 
Q 2725 213 2448 61 
Q 2172 -91 1784 -91 
Q 1150 -91 751 415 
Q 353 922 353 1747 
Q 353 2572 751 3078 
Q 1150 3584 1784 3584 
Q 2172 3584 2448 3432 
Q 2725 3281 2906 2969 
z
M 947 1747 
Q 947 1113 1208 752 
Q 1469 391 1925 391 
Q 2381 391 2643 752 
Q 2906 1113 2906 1747 
Q 2906 2381 2643 2742 
Q 2381 3103 1925 3103 
Q 1469 3103 1208 2742 
Q 947 2381 947 1747 
z
" id="DejaVuSans-64" transform="scale(0.015625)"/>
      <path d="M 603 4863 
L 1178 4863 
L 1178 0 
L 603 0 
L 603 4863 
z
" id="DejaVuSans-6c" transform="scale(0.015625)"/>
      <path id="DejaVuSans-20" transform="scale(0.015625)"/>
      <path d="M 1159 525 
L 1159 -1331 
L 581 -1331 
L 581 3500 
L 1159 3500 
L 1159 2969 
Q 1341 3281 1617 3432 
Q 1894 3584 2278 3584 
Q 2916 3584 3314 3078 
Q 3713 2572 3713 1747 
Q 3713 922 3314 415 
Q 2916 -91 2278 -91 
Q 1894 -91 1617 61 
Q 1341 213 1159 525 
z
M 3116 1747 
Q 3116 2381 2855 2742 
Q 2594 3103 2138 3103 
Q 1681 3103 1420 2742 
Q 1159 2381 1159 1747 
Q 1159 1113 1420 752 
Q 1681 391 2138 391 
Q 2594 391 2855 752 
Q 3116 1113 3116 1747 
z
" id="DejaVuSans-70" transform="scale(0.015625)"/>
      <path d="M 2375 4863 
L 2375 4384 
L 1825 4384 
Q 1516 4384 1395 4259 
Q 1275 4134 1275 3809 
L 1275 3500 
L 2222 3500 
L 2222 3053 
L 1275 3053 
L 1275 0 
L 697 0 
L 697 3053 
L 147 3053 
L 147 3500 
L 697 3500 
L 697 3744 
Q 697 4328 969 4595 
Q 1241 4863 1831 4863 
L 2375 4863 
z
" id="DejaVuSans-66" transform="scale(0.015625)"/>
      <path d="M 3328 2828 
Q 3544 3216 3844 3400 
Q 4144 3584 4550 3584 
Q 5097 3584 5394 3201 
Q 5691 2819 5691 2113 
L 5691 0 
L 5113 0 
L 5113 2094 
Q 5113 2597 4934 2840 
Q 4756 3084 4391 3084 
Q 3944 3084 3684 2787 
Q 3425 2491 3425 1978 
L 3425 0 
L 2847 0 
L 2847 2094 
Q 2847 2600 2669 2842 
Q 2491 3084 2119 3084 
Q 1678 3084 1418 2786 
Q 1159 2488 1159 1978 
L 1159 0 
L 581 0 
L 581 3500 
L 1159 3500 
L 1159 2956 
Q 1356 3278 1631 3431 
Q 1906 3584 2284 3584 
Q 2666 3584 2933 3390 
Q 3200 3197 3328 2828 
z
" id="DejaVuSans-6d" transform="scale(0.015625)"/>
      <path d="M 191 3500 
L 800 3500 
L 1894 563 
L 2988 3500 
L 3597 3500 
L 2284 0 
L 1503 0 
L 191 3500 
z
" id="DejaVuSans-76" transform="scale(0.015625)"/>
      <path d="M 2834 3397 
L 2834 2853 
Q 2591 2978 2328 3040 
Q 2066 3103 1784 3103 
Q 1356 3103 1142 2972 
Q 928 2841 928 2578 
Q 928 2378 1081 2264 
Q 1234 2150 1697 2047 
L 1894 2003 
Q 2506 1872 2764 1633 
Q 3022 1394 3022 966 
Q 3022 478 2636 193 
Q 2250 -91 1575 -91 
Q 1294 -91 989 -36 
Q 684 19 347 128 
L 347 722 
Q 666 556 975 473 
Q 1284 391 1588 391 
Q 1994 391 2212 530 
Q 2431 669 2431 922 
Q 2431 1156 2273 1281 
Q 2116 1406 1581 1522 
L 1381 1569 
Q 847 1681 609 1914 
Q 372 2147 372 2553 
Q 372 3047 722 3315 
Q 1072 3584 1716 3584 
Q 2034 3584 2315 3537 
Q 2597 3491 2834 3397 
z
" id="DejaVuSans-73" transform="scale(0.015625)"/>
      <path d="M 3272 2816 
L 2363 2816 
L 2100 1772 
L 3016 1772 
L 3272 2816 
z
M 2803 4594 
L 2478 3297 
L 3391 3297 
L 3719 4594 
L 4219 4594 
L 3897 3297 
L 4872 3297 
L 4872 2816 
L 3775 2816 
L 3519 1772 
L 4513 1772 
L 4513 1294 
L 3397 1294 
L 3072 0 
L 2572 0 
L 2894 1294 
L 1978 1294 
L 1656 0 
L 1153 0 
L 1478 1294 
L 494 1294 
L 494 1772 
L 1594 1772 
L 1856 2816 
L 850 2816 
L 850 3297 
L 1978 3297 
L 2297 4594 
L 2803 4594 
z
" id="DejaVuSans-23" transform="scale(0.015625)"/>
     </defs>
     <use xlink:href="#DejaVuSans-4d"/>
     <use x="86.279297" xlink:href="#DejaVuSans-6f"/>
     <use x="147.460938" xlink:href="#DejaVuSans-64"/>
     <use x="210.9375" xlink:href="#DejaVuSans-65"/>
     <use x="272.460938" xlink:href="#DejaVuSans-6c"/>
     <use x="300.244141" xlink:href="#DejaVuSans-20"/>
     <use x="332.03125" xlink:href="#DejaVuSans-70"/>
     <use x="395.507812" xlink:href="#DejaVuSans-65"/>
     <use x="457.03125" xlink:href="#DejaVuSans-72"/>
     <use x="498.144531" xlink:href="#DejaVuSans-66"/>
     <use x="533.349609" xlink:href="#DejaVuSans-6f"/>
     <use x="594.53125" xlink:href="#DejaVuSans-72"/>
     <use x="633.894531" xlink:href="#DejaVuSans-6d"/>
     <use x="731.306641" xlink:href="#DejaVuSans-61"/>
     <use x="792.585938" xlink:href="#DejaVuSans-6e"/>
     <use x="855.964844" xlink:href="#DejaVuSans-63"/>
     <use x="910.945312" xlink:href="#DejaVuSans-65"/>
     <use x="972.46875" xlink:href="#DejaVuSans-20"/>
     <use x="1004.255859" xlink:href="#DejaVuSans-76"/>
     <use x="1063.435547" xlink:href="#DejaVuSans-73"/>
     <use x="1115.535156" xlink:href="#DejaVuSans-2e"/>
     <use x="1147.322266" xlink:href="#DejaVuSans-20"/>
     <use x="1179.109375" xlink:href="#DejaVuSans-23"/>
     <use x="1262.898438" xlink:href="#DejaVuSans-20"/>
     <use x="1294.685547" xlink:href="#DejaVuSans-6f"/>
     <use x="1355.867188" xlink:href="#DejaVuSans-66"/>
     <use x="1391.072266" xlink:href="#DejaVuSans-20"/>
     <use x="1422.859375" xlink:href="#DejaVuSans-69"/>
     <use x="1450.642578" xlink:href="#DejaVuSans-74"/>
     <use x="1489.851562" xlink:href="#DejaVuSans-65"/>
     <use x="1551.375" xlink:href="#DejaVuSans-72"/>
     <use x="1592.488281" xlink:href="#DejaVuSans-61"/>
     <use x="1653.767578" xlink:href="#DejaVuSans-74"/>
     <use x="1692.976562" xlink:href="#DejaVuSans-69"/>
     <use x="1720.759766" xlink:href="#DejaVuSans-6f"/>
     <use x="1781.941406" xlink:href="#DejaVuSans-6e"/>
     <use x="1845.320312" xlink:href="#DejaVuSans-73"/>
    </g>
   </g>
  </g>
 </g>
 <defs>
  <clipPath id="pd400dccc00">
   <rect height="266.112" width="357.12" x="57.6" y="41.472"/>
  </clipPath>
 </defs>
</svg>
