<?xml version="1.0" encoding="utf-8" standalone="no"?>
<!DOCTYPE svg PUBLIC "-//W3C//DTD SVG 1.1//EN"
  "http://www.w3.org/Graphics/SVG/1.1/DTD/svg11.dtd">
<svg height="345.6pt" version="1.1" viewBox="0 0 460.8 345.6" width="460.8pt" xmlns="http://www.w3.org/2000/svg" xmlns:xlink="http://www.w3.org/1999/xlink">
 <metadata>
  <rdf:RDF xmlns:cc="http://creativecommons.org/ns#" xmlns:dc="http://purl.org/dc/elements/1.1/" xmlns:rdf="http://www.w3.org/1999/02/22-rdf-syntax-ns#">
   <cc:Work>
    <dc:type rdf:resource="http://purl.org/dc/dcmitype/StillImage"/>
    <dc:date>2022-01-16T09:32:25.681426</dc:date>
    <dc:format>image/svg+xml</dc:format>
    <dc:creator>
     <cc:Agent>
      <dc:title>Matplotlib v3.4.3, https://matplotlib.org/</dc:title>
     </cc:Agent>
    </dc:creator>
   </cc:Work>
  </rdf:RDF>
 </metadata>
 <defs>
  <style type="text/css">*{stroke-linecap:butt;stroke-linejoin:round;}</style>
 </defs>
 <g id="figure_1">
  <g id="patch_1">
   <path d="M 0 345.6 
L 460.8 345.6 
L 460.8 0 
L 0 0 
z
" style="fill:#ffffff;"/>
  </g>
  <g id="axes_1">
   <g id="patch_2">
    <path d="M 57.6 307.584 
L 414.72 307.584 
L 414.72 41.472 
L 57.6 41.472 
z
" style="fill:#ffffff;"/>
   </g>
   <g id="matplotlib.axis_1">
    <g id="xtick_1">
     <g id="line2d_1">
      <path clip-path="url(#pde460e4751)" d="M 72.201297 307.584 
L 72.201297 41.472 
" style="fill:none;stroke:#cccccc;stroke-linecap:round;stroke-width:0.8;"/>
     </g>
     <g id="text_1">
      <!-- 0 -->
      <g style="fill:#262626;" transform="translate(69.020047 322.182437)scale(0.1 -0.1)">
       <defs>
        <path d="M 2034 4250 
Q 1547 4250 1301 3770 
Q 1056 3291 1056 2328 
Q 1056 1369 1301 889 
Q 1547 409 2034 409 
Q 2525 409 2770 889 
Q 3016 1369 3016 2328 
Q 3016 3291 2770 3770 
Q 2525 4250 2034 4250 
z
M 2034 4750 
Q 2819 4750 3233 4129 
Q 3647 3509 3647 2328 
Q 3647 1150 3233 529 
Q 2819 -91 2034 -91 
Q 1250 -91 836 529 
Q 422 1150 422 2328 
Q 422 3509 836 4129 
Q 1250 4750 2034 4750 
z
" id="DejaVuSans-30" transform="scale(0.015625)"/>
       </defs>
       <use xlink:href="#DejaVuSans-30"/>
      </g>
     </g>
    </g>
    <g id="xtick_2">
     <g id="line2d_2">
      <path clip-path="url(#pde460e4751)" d="M 112.987044 307.584 
L 112.987044 41.472 
" style="fill:none;stroke:#cccccc;stroke-linecap:round;stroke-width:0.8;"/>
     </g>
     <g id="text_2">
      <!-- 25 -->
      <g style="fill:#262626;" transform="translate(106.624544 322.182437)scale(0.1 -0.1)">
       <defs>
        <path d="M 1228 531 
L 3431 531 
L 3431 0 
L 469 0 
L 469 531 
Q 828 903 1448 1529 
Q 2069 2156 2228 2338 
Q 2531 2678 2651 2914 
Q 2772 3150 2772 3378 
Q 2772 3750 2511 3984 
Q 2250 4219 1831 4219 
Q 1534 4219 1204 4116 
Q 875 4013 500 3803 
L 500 4441 
Q 881 4594 1212 4672 
Q 1544 4750 1819 4750 
Q 2544 4750 2975 4387 
Q 3406 4025 3406 3419 
Q 3406 3131 3298 2873 
Q 3191 2616 2906 2266 
Q 2828 2175 2409 1742 
Q 1991 1309 1228 531 
z
" id="DejaVuSans-32" transform="scale(0.015625)"/>
        <path d="M 691 4666 
L 3169 4666 
L 3169 4134 
L 1269 4134 
L 1269 2991 
Q 1406 3038 1543 3061 
Q 1681 3084 1819 3084 
Q 2600 3084 3056 2656 
Q 3513 2228 3513 1497 
Q 3513 744 3044 326 
Q 2575 -91 1722 -91 
Q 1428 -91 1123 -41 
Q 819 9 494 109 
L 494 744 
Q 775 591 1075 516 
Q 1375 441 1709 441 
Q 2250 441 2565 725 
Q 2881 1009 2881 1497 
Q 2881 1984 2565 2268 
Q 2250 2553 1709 2553 
Q 1456 2553 1204 2497 
Q 953 2441 691 2322 
L 691 4666 
z
" id="DejaVuSans-35" transform="scale(0.015625)"/>
       </defs>
       <use xlink:href="#DejaVuSans-32"/>
       <use x="63.623047" xlink:href="#DejaVuSans-35"/>
      </g>
     </g>
    </g>
    <g id="xtick_3">
     <g id="line2d_3">
      <path clip-path="url(#pde460e4751)" d="M 153.772791 307.584 
L 153.772791 41.472 
" style="fill:none;stroke:#cccccc;stroke-linecap:round;stroke-width:0.8;"/>
     </g>
     <g id="text_3">
      <!-- 50 -->
      <g style="fill:#262626;" transform="translate(147.410291 322.182437)scale(0.1 -0.1)">
       <use xlink:href="#DejaVuSans-35"/>
       <use x="63.623047" xlink:href="#DejaVuSans-30"/>
      </g>
     </g>
    </g>
    <g id="xtick_4">
     <g id="line2d_4">
      <path clip-path="url(#pde460e4751)" d="M 194.558538 307.584 
L 194.558538 41.472 
" style="fill:none;stroke:#cccccc;stroke-linecap:round;stroke-width:0.8;"/>
     </g>
     <g id="text_4">
      <!-- 75 -->
      <g style="fill:#262626;" transform="translate(188.196038 322.182437)scale(0.1 -0.1)">
       <defs>
        <path d="M 525 4666 
L 3525 4666 
L 3525 4397 
L 1831 0 
L 1172 0 
L 2766 4134 
L 525 4134 
L 525 4666 
z
" id="DejaVuSans-37" transform="scale(0.015625)"/>
       </defs>
       <use xlink:href="#DejaVuSans-37"/>
       <use x="63.623047" xlink:href="#DejaVuSans-35"/>
      </g>
     </g>
    </g>
    <g id="xtick_5">
     <g id="line2d_5">
      <path clip-path="url(#pde460e4751)" d="M 235.344285 307.584 
L 235.344285 41.472 
" style="fill:none;stroke:#cccccc;stroke-linecap:round;stroke-width:0.8;"/>
     </g>
     <g id="text_5">
      <!-- 100 -->
      <g style="fill:#262626;" transform="translate(225.800535 322.182437)scale(0.1 -0.1)">
       <defs>
        <path d="M 794 531 
L 1825 531 
L 1825 4091 
L 703 3866 
L 703 4441 
L 1819 4666 
L 2450 4666 
L 2450 531 
L 3481 531 
L 3481 0 
L 794 0 
L 794 531 
z
" id="DejaVuSans-31" transform="scale(0.015625)"/>
       </defs>
       <use xlink:href="#DejaVuSans-31"/>
       <use x="63.623047" xlink:href="#DejaVuSans-30"/>
       <use x="127.246094" xlink:href="#DejaVuSans-30"/>
      </g>
     </g>
    </g>
    <g id="xtick_6">
     <g id="line2d_6">
      <path clip-path="url(#pde460e4751)" d="M 276.130032 307.584 
L 276.130032 41.472 
" style="fill:none;stroke:#cccccc;stroke-linecap:round;stroke-width:0.8;"/>
     </g>
     <g id="text_6">
      <!-- 125 -->
      <g style="fill:#262626;" transform="translate(266.586282 322.182437)scale(0.1 -0.1)">
       <use xlink:href="#DejaVuSans-31"/>
       <use x="63.623047" xlink:href="#DejaVuSans-32"/>
       <use x="127.246094" xlink:href="#DejaVuSans-35"/>
      </g>
     </g>
    </g>
    <g id="xtick_7">
     <g id="line2d_7">
      <path clip-path="url(#pde460e4751)" d="M 316.915779 307.584 
L 316.915779 41.472 
" style="fill:none;stroke:#cccccc;stroke-linecap:round;stroke-width:0.8;"/>
     </g>
     <g id="text_7">
      <!-- 150 -->
      <g style="fill:#262626;" transform="translate(307.372029 322.182437)scale(0.1 -0.1)">
       <use xlink:href="#DejaVuSans-31"/>
       <use x="63.623047" xlink:href="#DejaVuSans-35"/>
       <use x="127.246094" xlink:href="#DejaVuSans-30"/>
      </g>
     </g>
    </g>
    <g id="xtick_8">
     <g id="line2d_8">
      <path clip-path="url(#pde460e4751)" d="M 357.701526 307.584 
L 357.701526 41.472 
" style="fill:none;stroke:#cccccc;stroke-linecap:round;stroke-width:0.8;"/>
     </g>
     <g id="text_8">
      <!-- 175 -->
      <g style="fill:#262626;" transform="translate(348.157776 322.182437)scale(0.1 -0.1)">
       <use xlink:href="#DejaVuSans-31"/>
       <use x="63.623047" xlink:href="#DejaVuSans-37"/>
       <use x="127.246094" xlink:href="#DejaVuSans-35"/>
      </g>
     </g>
    </g>
    <g id="xtick_9">
     <g id="line2d_9">
      <path clip-path="url(#pde460e4751)" d="M 398.487273 307.584 
L 398.487273 41.472 
" style="fill:none;stroke:#cccccc;stroke-linecap:round;stroke-width:0.8;"/>
     </g>
     <g id="text_9">
      <!-- 200 -->
      <g style="fill:#262626;" transform="translate(388.943523 322.182437)scale(0.1 -0.1)">
       <use xlink:href="#DejaVuSans-32"/>
       <use x="63.623047" xlink:href="#DejaVuSans-30"/>
       <use x="127.246094" xlink:href="#DejaVuSans-30"/>
      </g>
     </g>
    </g>
    <g id="text_10">
     <!-- Auroc -->
     <g style="fill:#262626;" transform="translate(221.819375 335.860562)scale(0.1 -0.1)">
      <defs>
       <path d="M 2188 4044 
L 1331 1722 
L 3047 1722 
L 2188 4044 
z
M 1831 4666 
L 2547 4666 
L 4325 0 
L 3669 0 
L 3244 1197 
L 1141 1197 
L 716 0 
L 50 0 
L 1831 4666 
z
" id="DejaVuSans-41" transform="scale(0.015625)"/>
       <path d="M 544 1381 
L 544 3500 
L 1119 3500 
L 1119 1403 
Q 1119 906 1312 657 
Q 1506 409 1894 409 
Q 2359 409 2629 706 
Q 2900 1003 2900 1516 
L 2900 3500 
L 3475 3500 
L 3475 0 
L 2900 0 
L 2900 538 
Q 2691 219 2414 64 
Q 2138 -91 1772 -91 
Q 1169 -91 856 284 
Q 544 659 544 1381 
z
M 1991 3584 
L 1991 3584 
z
" id="DejaVuSans-75" transform="scale(0.015625)"/>
       <path d="M 2631 2963 
Q 2534 3019 2420 3045 
Q 2306 3072 2169 3072 
Q 1681 3072 1420 2755 
Q 1159 2438 1159 1844 
L 1159 0 
L 581 0 
L 581 3500 
L 1159 3500 
L 1159 2956 
Q 1341 3275 1631 3429 
Q 1922 3584 2338 3584 
Q 2397 3584 2469 3576 
Q 2541 3569 2628 3553 
L 2631 2963 
z
" id="DejaVuSans-72" transform="scale(0.015625)"/>
       <path d="M 1959 3097 
Q 1497 3097 1228 2736 
Q 959 2375 959 1747 
Q 959 1119 1226 758 
Q 1494 397 1959 397 
Q 2419 397 2687 759 
Q 2956 1122 2956 1747 
Q 2956 2369 2687 2733 
Q 2419 3097 1959 3097 
z
M 1959 3584 
Q 2709 3584 3137 3096 
Q 3566 2609 3566 1747 
Q 3566 888 3137 398 
Q 2709 -91 1959 -91 
Q 1206 -91 779 398 
Q 353 888 353 1747 
Q 353 2609 779 3096 
Q 1206 3584 1959 3584 
z
" id="DejaVuSans-6f" transform="scale(0.015625)"/>
       <path d="M 3122 3366 
L 3122 2828 
Q 2878 2963 2633 3030 
Q 2388 3097 2138 3097 
Q 1578 3097 1268 2742 
Q 959 2388 959 1747 
Q 959 1106 1268 751 
Q 1578 397 2138 397 
Q 2388 397 2633 464 
Q 2878 531 3122 666 
L 3122 134 
Q 2881 22 2623 -34 
Q 2366 -91 2075 -91 
Q 1284 -91 818 406 
Q 353 903 353 1747 
Q 353 2603 823 3093 
Q 1294 3584 2113 3584 
Q 2378 3584 2631 3529 
Q 2884 3475 3122 3366 
z
" id="DejaVuSans-63" transform="scale(0.015625)"/>
      </defs>
      <use xlink:href="#DejaVuSans-41"/>
      <use x="68.408203" xlink:href="#DejaVuSans-75"/>
      <use x="131.787109" xlink:href="#DejaVuSans-72"/>
      <use x="170.650391" xlink:href="#DejaVuSans-6f"/>
      <use x="231.832031" xlink:href="#DejaVuSans-63"/>
     </g>
    </g>
   </g>
   <g id="matplotlib.axis_2">
    <g id="ytick_1">
     <g id="line2d_10">
      <path clip-path="url(#pde460e4751)" d="M 57.6 299.432472 
L 414.72 299.432472 
" style="fill:none;stroke:#cccccc;stroke-linecap:round;stroke-width:0.8;"/>
     </g>
     <g id="text_11">
      <!-- 0.50 -->
      <g style="fill:#262626;" transform="translate(28.334375 303.231691)scale(0.1 -0.1)">
       <defs>
        <path d="M 684 794 
L 1344 794 
L 1344 0 
L 684 0 
L 684 794 
z
" id="DejaVuSans-2e" transform="scale(0.015625)"/>
       </defs>
       <use xlink:href="#DejaVuSans-30"/>
       <use x="63.623047" xlink:href="#DejaVuSans-2e"/>
       <use x="95.410156" xlink:href="#DejaVuSans-35"/>
       <use x="159.033203" xlink:href="#DejaVuSans-30"/>
      </g>
     </g>
    </g>
    <g id="ytick_2">
     <g id="line2d_11">
      <path clip-path="url(#pde460e4751)" d="M 57.6 264.653297 
L 414.72 264.653297 
" style="fill:none;stroke:#cccccc;stroke-linecap:round;stroke-width:0.8;"/>
     </g>
     <g id="text_12">
      <!-- 0.55 -->
      <g style="fill:#262626;" transform="translate(28.334375 268.452516)scale(0.1 -0.1)">
       <use xlink:href="#DejaVuSans-30"/>
       <use x="63.623047" xlink:href="#DejaVuSans-2e"/>
       <use x="95.410156" xlink:href="#DejaVuSans-35"/>
       <use x="159.033203" xlink:href="#DejaVuSans-35"/>
      </g>
     </g>
    </g>
    <g id="ytick_3">
     <g id="line2d_12">
      <path clip-path="url(#pde460e4751)" d="M 57.6 229.874121 
L 414.72 229.874121 
" style="fill:none;stroke:#cccccc;stroke-linecap:round;stroke-width:0.8;"/>
     </g>
     <g id="text_13">
      <!-- 0.60 -->
      <g style="fill:#262626;" transform="translate(28.334375 233.67334)scale(0.1 -0.1)">
       <defs>
        <path d="M 2113 2584 
Q 1688 2584 1439 2293 
Q 1191 2003 1191 1497 
Q 1191 994 1439 701 
Q 1688 409 2113 409 
Q 2538 409 2786 701 
Q 3034 994 3034 1497 
Q 3034 2003 2786 2293 
Q 2538 2584 2113 2584 
z
M 3366 4563 
L 3366 3988 
Q 3128 4100 2886 4159 
Q 2644 4219 2406 4219 
Q 1781 4219 1451 3797 
Q 1122 3375 1075 2522 
Q 1259 2794 1537 2939 
Q 1816 3084 2150 3084 
Q 2853 3084 3261 2657 
Q 3669 2231 3669 1497 
Q 3669 778 3244 343 
Q 2819 -91 2113 -91 
Q 1303 -91 875 529 
Q 447 1150 447 2328 
Q 447 3434 972 4092 
Q 1497 4750 2381 4750 
Q 2619 4750 2861 4703 
Q 3103 4656 3366 4563 
z
" id="DejaVuSans-36" transform="scale(0.015625)"/>
       </defs>
       <use xlink:href="#DejaVuSans-30"/>
       <use x="63.623047" xlink:href="#DejaVuSans-2e"/>
       <use x="95.410156" xlink:href="#DejaVuSans-36"/>
       <use x="159.033203" xlink:href="#DejaVuSans-30"/>
      </g>
     </g>
    </g>
    <g id="ytick_4">
     <g id="line2d_13">
      <path clip-path="url(#pde460e4751)" d="M 57.6 195.094946 
L 414.72 195.094946 
" style="fill:none;stroke:#cccccc;stroke-linecap:round;stroke-width:0.8;"/>
     </g>
     <g id="text_14">
      <!-- 0.65 -->
      <g style="fill:#262626;" transform="translate(28.334375 198.894165)scale(0.1 -0.1)">
       <use xlink:href="#DejaVuSans-30"/>
       <use x="63.623047" xlink:href="#DejaVuSans-2e"/>
       <use x="95.410156" xlink:href="#DejaVuSans-36"/>
       <use x="159.033203" xlink:href="#DejaVuSans-35"/>
      </g>
     </g>
    </g>
    <g id="ytick_5">
     <g id="line2d_14">
      <path clip-path="url(#pde460e4751)" d="M 57.6 160.315771 
L 414.72 160.315771 
" style="fill:none;stroke:#cccccc;stroke-linecap:round;stroke-width:0.8;"/>
     </g>
     <g id="text_15">
      <!-- 0.70 -->
      <g style="fill:#262626;" transform="translate(28.334375 164.11499)scale(0.1 -0.1)">
       <use xlink:href="#DejaVuSans-30"/>
       <use x="63.623047" xlink:href="#DejaVuSans-2e"/>
       <use x="95.410156" xlink:href="#DejaVuSans-37"/>
       <use x="159.033203" xlink:href="#DejaVuSans-30"/>
      </g>
     </g>
    </g>
    <g id="ytick_6">
     <g id="line2d_15">
      <path clip-path="url(#pde460e4751)" d="M 57.6 125.536596 
L 414.72 125.536596 
" style="fill:none;stroke:#cccccc;stroke-linecap:round;stroke-width:0.8;"/>
     </g>
     <g id="text_16">
      <!-- 0.75 -->
      <g style="fill:#262626;" transform="translate(28.334375 129.335814)scale(0.1 -0.1)">
       <use xlink:href="#DejaVuSans-30"/>
       <use x="63.623047" xlink:href="#DejaVuSans-2e"/>
       <use x="95.410156" xlink:href="#DejaVuSans-37"/>
       <use x="159.033203" xlink:href="#DejaVuSans-35"/>
      </g>
     </g>
    </g>
    <g id="ytick_7">
     <g id="line2d_16">
      <path clip-path="url(#pde460e4751)" d="M 57.6 90.75742 
L 414.72 90.75742 
" style="fill:none;stroke:#cccccc;stroke-linecap:round;stroke-width:0.8;"/>
     </g>
     <g id="text_17">
      <!-- 0.80 -->
      <g style="fill:#262626;" transform="translate(28.334375 94.556639)scale(0.1 -0.1)">
       <defs>
        <path d="M 2034 2216 
Q 1584 2216 1326 1975 
Q 1069 1734 1069 1313 
Q 1069 891 1326 650 
Q 1584 409 2034 409 
Q 2484 409 2743 651 
Q 3003 894 3003 1313 
Q 3003 1734 2745 1975 
Q 2488 2216 2034 2216 
z
M 1403 2484 
Q 997 2584 770 2862 
Q 544 3141 544 3541 
Q 544 4100 942 4425 
Q 1341 4750 2034 4750 
Q 2731 4750 3128 4425 
Q 3525 4100 3525 3541 
Q 3525 3141 3298 2862 
Q 3072 2584 2669 2484 
Q 3125 2378 3379 2068 
Q 3634 1759 3634 1313 
Q 3634 634 3220 271 
Q 2806 -91 2034 -91 
Q 1263 -91 848 271 
Q 434 634 434 1313 
Q 434 1759 690 2068 
Q 947 2378 1403 2484 
z
M 1172 3481 
Q 1172 3119 1398 2916 
Q 1625 2713 2034 2713 
Q 2441 2713 2670 2916 
Q 2900 3119 2900 3481 
Q 2900 3844 2670 4047 
Q 2441 4250 2034 4250 
Q 1625 4250 1398 4047 
Q 1172 3844 1172 3481 
z
" id="DejaVuSans-38" transform="scale(0.015625)"/>
       </defs>
       <use xlink:href="#DejaVuSans-30"/>
       <use x="63.623047" xlink:href="#DejaVuSans-2e"/>
       <use x="95.410156" xlink:href="#DejaVuSans-38"/>
       <use x="159.033203" xlink:href="#DejaVuSans-30"/>
      </g>
     </g>
    </g>
    <g id="ytick_8">
     <g id="line2d_17">
      <path clip-path="url(#pde460e4751)" d="M 57.6 55.978245 
L 414.72 55.978245 
" style="fill:none;stroke:#cccccc;stroke-linecap:round;stroke-width:0.8;"/>
     </g>
     <g id="text_18">
      <!-- 0.85 -->
      <g style="fill:#262626;" transform="translate(28.334375 59.777464)scale(0.1 -0.1)">
       <use xlink:href="#DejaVuSans-30"/>
       <use x="63.623047" xlink:href="#DejaVuSans-2e"/>
       <use x="95.410156" xlink:href="#DejaVuSans-38"/>
       <use x="159.033203" xlink:href="#DejaVuSans-35"/>
      </g>
     </g>
    </g>
    <g id="text_19">
     <!-- Iteration -->
     <g style="fill:#262626;" transform="translate(22.254687 195.736594)rotate(-90)scale(0.1 -0.1)">
      <defs>
       <path d="M 628 4666 
L 1259 4666 
L 1259 0 
L 628 0 
L 628 4666 
z
" id="DejaVuSans-49" transform="scale(0.015625)"/>
       <path d="M 1172 4494 
L 1172 3500 
L 2356 3500 
L 2356 3053 
L 1172 3053 
L 1172 1153 
Q 1172 725 1289 603 
Q 1406 481 1766 481 
L 2356 481 
L 2356 0 
L 1766 0 
Q 1100 0 847 248 
Q 594 497 594 1153 
L 594 3053 
L 172 3053 
L 172 3500 
L 594 3500 
L 594 4494 
L 1172 4494 
z
" id="DejaVuSans-74" transform="scale(0.015625)"/>
       <path d="M 3597 1894 
L 3597 1613 
L 953 1613 
Q 991 1019 1311 708 
Q 1631 397 2203 397 
Q 2534 397 2845 478 
Q 3156 559 3463 722 
L 3463 178 
Q 3153 47 2828 -22 
Q 2503 -91 2169 -91 
Q 1331 -91 842 396 
Q 353 884 353 1716 
Q 353 2575 817 3079 
Q 1281 3584 2069 3584 
Q 2775 3584 3186 3129 
Q 3597 2675 3597 1894 
z
M 3022 2063 
Q 3016 2534 2758 2815 
Q 2500 3097 2075 3097 
Q 1594 3097 1305 2825 
Q 1016 2553 972 2059 
L 3022 2063 
z
" id="DejaVuSans-65" transform="scale(0.015625)"/>
       <path d="M 2194 1759 
Q 1497 1759 1228 1600 
Q 959 1441 959 1056 
Q 959 750 1161 570 
Q 1363 391 1709 391 
Q 2188 391 2477 730 
Q 2766 1069 2766 1631 
L 2766 1759 
L 2194 1759 
z
M 3341 1997 
L 3341 0 
L 2766 0 
L 2766 531 
Q 2569 213 2275 61 
Q 1981 -91 1556 -91 
Q 1019 -91 701 211 
Q 384 513 384 1019 
Q 384 1609 779 1909 
Q 1175 2209 1959 2209 
L 2766 2209 
L 2766 2266 
Q 2766 2663 2505 2880 
Q 2244 3097 1772 3097 
Q 1472 3097 1187 3025 
Q 903 2953 641 2809 
L 641 3341 
Q 956 3463 1253 3523 
Q 1550 3584 1831 3584 
Q 2591 3584 2966 3190 
Q 3341 2797 3341 1997 
z
" id="DejaVuSans-61" transform="scale(0.015625)"/>
       <path d="M 603 3500 
L 1178 3500 
L 1178 0 
L 603 0 
L 603 3500 
z
M 603 4863 
L 1178 4863 
L 1178 4134 
L 603 4134 
L 603 4863 
z
" id="DejaVuSans-69" transform="scale(0.015625)"/>
       <path d="M 3513 2113 
L 3513 0 
L 2938 0 
L 2938 2094 
Q 2938 2591 2744 2837 
Q 2550 3084 2163 3084 
Q 1697 3084 1428 2787 
Q 1159 2491 1159 1978 
L 1159 0 
L 581 0 
L 581 3500 
L 1159 3500 
L 1159 2956 
Q 1366 3272 1645 3428 
Q 1925 3584 2291 3584 
Q 2894 3584 3203 3211 
Q 3513 2838 3513 2113 
z
" id="DejaVuSans-6e" transform="scale(0.015625)"/>
      </defs>
      <use xlink:href="#DejaVuSans-49"/>
      <use x="29.492188" xlink:href="#DejaVuSans-74"/>
      <use x="68.701172" xlink:href="#DejaVuSans-65"/>
      <use x="130.224609" xlink:href="#DejaVuSans-72"/>
      <use x="171.337891" xlink:href="#DejaVuSans-61"/>
      <use x="232.617188" xlink:href="#DejaVuSans-74"/>
      <use x="271.826172" xlink:href="#DejaVuSans-69"/>
      <use x="299.609375" xlink:href="#DejaVuSans-6f"/>
      <use x="360.791016" xlink:href="#DejaVuSans-6e"/>
     </g>
    </g>
   </g>
   <g id="PolyCollection_1">
    <defs>
     <path d="M 73.832727 -260.505323 
L 73.832727 -195.703587 
L 75.464157 -145.932609 
L 77.095587 -174.915736 
L 78.727017 -158.853103 
L 80.358447 -220.95781 
L 81.989877 -208.298054 
L 83.621307 -136.100492 
L 85.252736 -146.288586 
L 86.884166 -189.277346 
L 88.515596 -186.047254 
L 90.147026 -150.402412 
L 91.778456 -191.122972 
L 93.409886 -185.956584 
L 95.041316 -178.427582 
L 96.672746 -193.347086 
L 98.304175 -177.88626 
L 99.935605 -161.0094 
L 101.567035 -206.871541 
L 103.198465 -132.589499 
L 104.829895 -50.112 
L 106.461325 -140.611215 
L 108.092755 -153.030134 
L 109.724185 -176.492198 
L 111.355614 -107.745184 
L 112.987044 -200.367411 
L 114.618474 -203.577162 
L 116.249904 -202.007637 
L 117.881334 -194.187926 
L 119.512764 -189.585382 
L 121.144194 -143.726205 
L 122.775624 -200.546062 
L 124.407053 -174.923285 
L 126.038483 -189.914538 
L 127.669913 -178.561778 
L 129.301343 -201.725893 
L 130.932773 -200.641777 
L 132.564203 -160.921348 
L 134.195633 -195.002376 
L 135.827063 -177.489451 
L 137.458492 -183.149369 
L 139.089922 -162.376429 
L 140.721352 -200.403425 
L 142.352782 -188.012822 
L 143.984212 -180.012504 
L 145.615642 -123.899992 
L 147.247072 -148.091919 
L 148.878502 -155.824746 
L 150.509931 -164.549421 
L 152.141361 -170.752058 
L 153.772791 -128.275779 
L 155.404221 -187.52641 
L 157.035651 -152.056111 
L 158.667081 -172.611386 
L 160.298511 -165.718374 
L 161.929941 -129.195668 
L 163.56137 -186.205739 
L 165.1928 -151.955666 
L 166.82423 -207.563616 
L 168.45566 -178.548997 
L 170.08709 -157.858896 
L 171.71852 -169.128266 
L 173.34995 -168.20244 
L 174.98138 -167.510832 
L 176.61281 -216.420536 
L 178.244239 -190.435427 
L 179.875669 -186.486821 
L 181.507099 -209.956281 
L 183.138529 -149.970468 
L 184.769959 -195.895242 
L 186.401389 -191.630009 
L 188.032819 -201.645082 
L 189.664249 -119.877742 
L 191.295678 -172.26649 
L 192.927108 -163.814421 
L 194.558538 -162.843509 
L 196.189968 -185.422914 
L 197.821398 -140.330575 
L 199.452828 -171.069363 
L 201.084258 -171.729141 
L 202.715688 -185.868582 
L 204.347117 -202.397928 
L 205.978547 -183.320988 
L 207.609977 -181.71189 
L 209.241407 -124.086677 
L 210.872837 -151.687757 
L 212.504267 -169.689579 
L 214.135697 -208.243402 
L 215.767127 -171.827864 
L 217.398556 -161.859857 
L 219.029986 -170.442895 
L 220.661416 -105.559134 
L 222.292846 -183.166274 
L 223.924276 -170.838719 
L 225.555706 -197.771178 
L 227.187136 -172.966489 
L 228.818566 -188.983335 
L 230.449995 -171.432757 
L 232.081425 -177.968975 
L 233.712855 -171.595365 
L 235.344285 -190.099344 
L 236.975715 -208.833131 
L 238.607145 -198.715884 
L 240.238575 -154.797795 
L 241.870005 -209.503262 
L 243.501434 -180.287658 
L 245.132864 -203.641545 
L 246.764294 -184.40728 
L 248.395724 -196.713731 
L 250.027154 -155.589105 
L 251.658584 -162.887666 
L 253.290014 -188.699414 
L 254.921444 -158.941927 
L 256.552873 -163.952627 
L 258.184303 -151.160887 
L 259.815733 -228.545541 
L 261.447163 -229.737966 
L 263.078593 -157.878033 
L 264.710023 -163.369311 
L 266.341453 -158.25478 
L 267.972883 -168.911815 
L 269.604312 -186.454515 
L 271.235742 -155.731819 
L 272.867172 -168.418649 
L 274.498602 -172.269252 
L 276.130032 -202.535071 
L 277.761462 -174.370175 
L 279.392892 -183.420908 
L 281.024322 -223.639752 
L 282.655751 -166.082467 
L 284.287181 -153.050767 
L 285.918611 -177.854123 
L 287.550041 -185.320557 
L 289.181471 -189.735009 
L 290.812901 -164.52783 
L 292.444331 -191.474955 
L 294.075761 -167.477487 
L 295.70719 -167.103311 
L 297.33862 -149.332477 
L 298.97005 -160.068172 
L 300.60148 -165.769985 
L 302.23291 -160.763866 
L 303.86434 -148.92464 
L 305.49577 -223.007917 
L 307.1272 -170.731211 
L 308.75863 -173.037119 
L 310.390059 -203.799092 
L 312.021489 -147.412458 
L 313.652919 -175.099894 
L 315.284349 -181.014886 
L 316.915779 -185.061259 
L 318.547209 -201.137038 
L 320.178639 -178.241771 
L 321.810069 -172.515798 
L 323.441498 -205.310824 
L 325.072928 -130.408529 
L 326.704358 -202.270035 
L 328.335788 -170.521303 
L 329.967218 -182.882316 
L 331.598648 -120.250574 
L 333.230078 -158.996118 
L 334.861508 -172.476591 
L 336.492937 -174.917485 
L 338.124367 -222.687288 
L 339.755797 -156.063628 
L 341.387227 -163.636656 
L 343.018657 -168.361063 
L 344.650087 -193.515689 
L 346.281517 -113.257553 
L 347.912947 -193.623338 
L 349.544376 -118.375828 
L 351.175806 -197.561165 
L 352.807236 -164.287147 
L 354.438666 -194.467532 
L 356.070096 -201.440844 
L 357.701526 -198.55618 
L 359.332956 -120.570835 
L 360.964386 -175.976272 
L 362.595815 -190.593267 
L 364.227245 -177.811977 
L 365.858675 -126.455349 
L 367.490105 -135.150661 
L 369.121535 -159.807051 
L 370.752965 -188.87892 
L 372.384395 -167.042814 
L 374.015825 -186.844265 
L 375.647254 -183.148225 
L 377.278684 -136.034808 
L 378.910114 -138.860533 
L 380.541544 -153.170629 
L 382.172974 -225.454277 
L 383.804404 -140.623592 
L 385.435834 -163.87848 
L 387.067264 -193.054356 
L 388.698693 -173.528484 
L 390.330123 -121.767245 
L 391.961553 -84.296478 
L 393.592983 -141.781078 
L 395.224413 -97.632442 
L 396.855843 -165.263415 
L 398.487273 -172.374498 
L 398.487273 -232.053099 
L 398.487273 -232.053099 
L 396.855843 -213.115331 
L 395.224413 -234.866847 
L 393.592983 -223.697211 
L 391.961553 -215.998659 
L 390.330123 -233.167588 
L 388.698693 -228.5923 
L 387.067264 -233.590004 
L 385.435834 -236.440592 
L 383.804404 -236.27796 
L 382.172974 -258.764495 
L 380.541544 -239.193315 
L 378.910114 -251.724571 
L 377.278684 -233.335983 
L 375.647254 -223.653439 
L 374.015825 -263.528184 
L 372.384395 -265.490967 
L 370.752965 -238.746516 
L 369.121535 -246.360369 
L 367.490105 -246.86088 
L 365.858675 -264.227114 
L 364.227245 -256.686277 
L 362.595815 -232.4232 
L 360.964386 -196.457866 
L 359.332956 -230.467703 
L 357.701526 -255.20339 
L 356.070096 -251.242703 
L 354.438666 -250.472102 
L 352.807236 -213.191017 
L 351.175806 -221.694416 
L 349.544376 -227.542748 
L 347.912947 -232.21569 
L 346.281517 -225.619709 
L 344.650087 -230.244867 
L 343.018657 -242.830563 
L 341.387227 -238.36181 
L 339.755797 -212.630806 
L 338.124367 -236.785577 
L 336.492937 -251.910952 
L 334.861508 -255.965127 
L 333.230078 -244.95446 
L 331.598648 -243.570683 
L 329.967218 -230.748273 
L 328.335788 -250.371519 
L 326.704358 -261.313739 
L 325.072928 -225.835135 
L 323.441498 -269.750217 
L 321.810069 -235.511753 
L 320.178639 -240.702552 
L 318.547209 -249.440261 
L 316.915779 -257.020075 
L 315.284349 -256.17547 
L 313.652919 -255.675911 
L 312.021489 -235.66137 
L 310.390059 -224.337533 
L 308.75863 -229.261741 
L 307.1272 -257.475628 
L 305.49577 -276.08421 
L 303.86434 -246.466235 
L 302.23291 -200.568001 
L 300.60148 -248.385387 
L 298.97005 -202.093244 
L 297.33862 -248.276829 
L 295.70719 -240.000349 
L 294.075761 -214.080729 
L 292.444331 -270.639053 
L 290.812901 -256.246563 
L 289.181471 -247.222948 
L 287.550041 -262.000255 
L 285.918611 -247.353061 
L 284.287181 -218.623128 
L 282.655751 -251.713788 
L 281.024322 -259.743365 
L 279.392892 -226.04393 
L 277.761462 -254.981892 
L 276.130032 -254.382065 
L 274.498602 -248.557256 
L 272.867172 -258.635688 
L 271.235742 -249.485136 
L 269.604312 -240.448217 
L 267.972883 -237.521084 
L 266.341453 -211.764443 
L 264.710023 -251.564449 
L 263.078593 -235.169691 
L 261.447163 -258.707299 
L 259.815733 -268.922546 
L 258.184303 -236.696529 
L 256.552873 -213.176367 
L 254.921444 -242.06554 
L 253.290014 -233.349752 
L 251.658584 -223.733315 
L 250.027154 -231.8964 
L 248.395724 -240.217238 
L 246.764294 -236.660407 
L 245.132864 -237.060176 
L 243.501434 -214.272179 
L 241.870005 -261.521291 
L 240.238575 -216.230407 
L 238.607145 -259.397106 
L 236.975715 -261.054315 
L 235.344285 -263.229285 
L 233.712855 -247.508227 
L 232.081425 -226.220869 
L 230.449995 -241.33224 
L 228.818566 -232.451334 
L 227.187136 -249.949671 
L 225.555706 -228.463204 
L 223.924276 -244.86933 
L 222.292846 -277.036071 
L 220.661416 -252.67983 
L 219.029986 -249.092424 
L 217.398556 -244.650622 
L 215.767127 -255.251475 
L 214.135697 -264.900686 
L 212.504267 -233.625557 
L 210.872837 -259.769069 
L 209.241407 -249.883794 
L 207.609977 -255.495872 
L 205.978547 -241.708451 
L 204.347117 -247.232205 
L 202.715688 -261.306943 
L 201.084258 -235.17762 
L 199.452828 -226.108264 
L 197.821398 -244.293039 
L 196.189968 -245.010383 
L 194.558538 -262.522764 
L 192.927108 -237.90387 
L 191.295678 -231.517676 
L 189.664249 -209.608731 
L 188.032819 -242.912389 
L 186.401389 -242.958475 
L 184.769959 -230.172037 
L 183.138529 -243.794622 
L 181.507099 -276.905694 
L 179.875669 -238.088984 
L 178.244239 -245.215385 
L 176.61281 -259.048788 
L 174.98138 -246.84944 
L 173.34995 -256.061433 
L 171.71852 -248.928552 
L 170.08709 -237.918877 
L 168.45566 -241.787805 
L 166.82423 -258.486073 
L 165.1928 -230.061902 
L 163.56137 -215.774847 
L 161.929941 -246.447859 
L 160.298511 -248.757374 
L 158.667081 -235.117006 
L 157.035651 -193.104161 
L 155.404221 -274.354703 
L 153.772791 -244.683567 
L 152.141361 -263.301773 
L 150.509931 -237.074078 
L 148.878502 -252.588881 
L 147.247072 -209.214452 
L 145.615642 -242.847807 
L 143.984212 -234.608102 
L 142.352782 -225.042529 
L 140.721352 -255.23198 
L 139.089922 -227.899807 
L 137.458492 -261.707134 
L 135.827063 -222.412003 
L 134.195633 -225.816577 
L 132.564203 -227.143451 
L 130.932773 -242.533848 
L 129.301343 -247.383141 
L 127.669913 -216.164615 
L 126.038483 -237.084183 
L 124.407053 -259.968995 
L 122.775624 -229.532615 
L 121.144194 -267.759879 
L 119.512764 -243.309525 
L 117.881334 -227.243891 
L 116.249904 -256.356805 
L 114.618474 -234.270621 
L 112.987044 -248.527629 
L 111.355614 -292.032 
L 109.724185 -244.706347 
L 108.092755 -225.701662 
L 106.461325 -178.737383 
L 104.829895 -241.824428 
L 103.198465 -261.476123 
L 101.567035 -227.817504 
L 99.935605 -228.056766 
L 98.304175 -235.757184 
L 96.672746 -245.168864 
L 95.041316 -217.586118 
L 93.409886 -225.957836 
L 91.778456 -227.136912 
L 90.147026 -216.381787 
L 88.515596 -267.046801 
L 86.884166 -265.829687 
L 85.252736 -272.659968 
L 83.621307 -250.397919 
L 81.989877 -249.68568 
L 80.358447 -264.153959 
L 78.727017 -255.93655 
L 77.095587 -264.42563 
L 75.464157 -254.885257 
L 73.832727 -260.505323 
z
" id="m79f4b4592b" style="stroke:#ffffff;stroke-opacity:0.2;"/>
    </defs>
    <g clip-path="url(#pde460e4751)">
     <use style="fill:#1f77b4;fill-opacity:0.2;stroke:#ffffff;stroke-opacity:0.2;" x="0" xlink:href="#m79f4b4592b" y="345.6"/>
    </g>
   </g>
   <g id="LineCollection_1">
    <path clip-path="url(#pde460e4751)" d="M 398.487273 295.488 
L 398.487273 53.568 
" style="fill:none;stroke:#1f77b4;stroke-dasharray:5.55,2.4;stroke-dashoffset:0;stroke-width:1.5;"/>
   </g>
   <g id="line2d_18">
    <path clip-path="url(#pde460e4751)" d="M 73.832727 117.495545 
L 75.464157 145.191067 
L 77.095587 125.929317 
L 78.727017 138.205174 
L 80.358447 103.044115 
L 81.989877 116.608133 
L 83.621307 152.350794 
L 85.252736 136.125723 
L 86.884166 118.046484 
L 88.515596 119.052973 
L 90.147026 162.207901 
L 91.778456 136.470058 
L 93.409886 139.64279 
L 95.041316 147.59315 
L 96.672746 126.342025 
L 99.935605 151.066917 
L 101.567035 128.255477 
L 103.198465 148.567189 
L 104.829895 199.631786 
L 106.461325 185.925701 
L 108.092755 156.234102 
L 109.724185 135.000727 
L 111.355614 145.711408 
L 112.987044 121.15248 
L 114.618474 126.676108 
L 116.249904 116.417779 
L 117.881334 134.884092 
L 119.512764 129.152546 
L 121.144194 139.856958 
L 122.775624 130.560662 
L 124.407053 128.15386 
L 126.038483 132.100639 
L 127.669913 148.236804 
L 129.301343 121.045483 
L 130.932773 124.012187 
L 132.564203 151.5676 
L 134.195633 135.190523 
L 135.827063 145.649273 
L 137.458492 123.171748 
L 139.089922 150.461882 
L 140.721352 117.782297 
L 142.352782 139.072325 
L 143.984212 138.289697 
L 145.615642 162.226101 
L 147.247072 166.946814 
L 148.878502 141.393187 
L 150.509931 144.78825 
L 152.141361 128.573084 
L 153.772791 159.120327 
L 155.404221 114.659443 
L 157.035651 173.019864 
L 158.667081 141.735804 
L 160.298511 138.362126 
L 161.929941 157.778236 
L 163.56137 144.609707 
L 165.1928 154.591216 
L 166.82423 112.575155 
L 168.45566 135.431599 
L 170.08709 147.711113 
L 171.71852 136.571591 
L 173.34995 133.468064 
L 174.98138 138.419864 
L 176.61281 107.865338 
L 178.244239 127.774594 
L 179.875669 133.312097 
L 181.507099 102.169013 
L 183.138529 148.717455 
L 184.769959 132.566361 
L 186.401389 128.305758 
L 188.032819 123.321264 
L 189.664249 180.856764 
L 191.295678 143.707917 
L 192.927108 144.740855 
L 194.558538 132.916863 
L 196.189968 130.383352 
L 197.821398 153.288193 
L 199.452828 147.011187 
L 201.084258 142.14662 
L 202.715688 122.012237 
L 204.347117 120.784933 
L 205.978547 133.08528 
L 207.609977 126.996119 
L 209.241407 158.614765 
L 210.872837 139.871587 
L 212.504267 143.942432 
L 214.135697 109.027956 
L 215.767127 132.06033 
L 217.398556 142.344761 
L 219.029986 135.832341 
L 220.661416 166.480518 
L 222.292846 115.498827 
L 223.924276 137.745976 
L 225.555706 132.482809 
L 227.187136 134.14192 
L 228.818566 134.882666 
L 232.081425 143.505078 
L 233.712855 136.048204 
L 235.344285 118.935685 
L 236.975715 110.656277 
L 238.607145 116.543505 
L 240.238575 160.085899 
L 241.870005 110.087723 
L 243.501434 148.320082 
L 245.132864 125.24914 
L 246.764294 135.066156 
L 248.395724 127.134516 
L 250.027154 151.857248 
L 251.658584 152.28951 
L 253.290014 134.575417 
L 254.921444 145.096267 
L 256.552873 157.035503 
L 258.184303 151.671292 
L 259.815733 96.865956 
L 261.447163 101.377367 
L 263.078593 149.076138 
L 264.710023 138.13312 
L 266.341453 160.590388 
L 267.972883 142.38355 
L 269.604312 132.148634 
L 271.235742 142.991522 
L 272.867172 132.072831 
L 274.498602 135.186746 
L 276.130032 117.141432 
L 277.761462 130.923966 
L 279.392892 140.867581 
L 281.024322 103.908442 
L 282.655751 136.701873 
L 284.287181 159.763052 
L 285.918611 132.996408 
L 287.550041 121.939594 
L 289.181471 127.121021 
L 290.812901 135.212803 
L 292.444331 114.542996 
L 294.075761 154.820892 
L 295.70719 142.04817 
L 297.33862 146.795347 
L 298.97005 164.519292 
L 300.60148 138.522314 
L 302.23291 164.934067 
L 303.86434 147.904563 
L 305.49577 96.053937 
L 307.1272 131.496581 
L 308.75863 144.45057 
L 310.390059 131.531687 
L 312.021489 154.063086 
L 313.652919 130.212097 
L 315.284349 127.004822 
L 316.915779 124.559333 
L 318.547209 120.31135 
L 320.178639 136.127838 
L 321.810069 141.586224 
L 323.441498 108.069479 
L 325.072928 167.478168 
L 326.704358 113.808113 
L 328.335788 135.153589 
L 329.967218 138.784706 
L 331.598648 163.689372 
L 333.230078 143.624711 
L 334.861508 131.379141 
L 336.492937 132.185781 
L 338.124367 115.863568 
L 339.755797 161.252783 
L 341.387227 144.600767 
L 343.018657 140.004187 
L 344.650087 133.719722 
L 346.281517 176.161369 
L 347.912947 132.680486 
L 349.544376 172.640712 
L 351.175806 135.972209 
L 352.807236 156.860918 
L 354.438666 123.130183 
L 356.070096 119.258227 
L 357.701526 118.720215 
L 359.332956 170.080731 
L 360.964386 159.382931 
L 362.595815 134.091767 
L 364.227245 128.350873 
L 365.858675 150.258769 
L 367.490105 154.594229 
L 369.121535 142.51629 
L 370.752965 131.787282 
L 372.384395 129.333109 
L 374.015825 120.413775 
L 375.647254 142.199168 
L 377.278684 160.914604 
L 378.910114 150.307448 
L 380.541544 149.418028 
L 382.172974 103.490614 
L 383.804404 157.149224 
L 385.435834 145.440464 
L 387.067264 132.27782 
L 388.698693 144.539608 
L 390.330123 168.132584 
L 391.961553 195.452432 
L 393.592983 162.860856 
L 395.224413 179.350356 
L 396.855843 156.410627 
L 398.487273 143.386202 
L 398.487273 143.386202 
" style="fill:none;stroke:#1f77b4;stroke-linecap:round;stroke-width:1.5;"/>
   </g>
   <g id="patch_3">
    <path d="M 57.6 307.584 
L 57.6 41.472 
" style="fill:none;stroke:#cccccc;stroke-linecap:square;stroke-linejoin:miter;stroke-width:0.8;"/>
   </g>
   <g id="patch_4">
    <path d="M 414.72 307.584 
L 414.72 41.472 
" style="fill:none;stroke:#cccccc;stroke-linecap:square;stroke-linejoin:miter;stroke-width:0.8;"/>
   </g>
   <g id="patch_5">
    <path d="M 57.6 307.584 
L 414.72 307.584 
" style="fill:none;stroke:#cccccc;stroke-linecap:square;stroke-linejoin:miter;stroke-width:0.8;"/>
   </g>
   <g id="patch_6">
    <path d="M 57.6 41.472 
L 414.72 41.472 
" style="fill:none;stroke:#cccccc;stroke-linecap:square;stroke-linejoin:miter;stroke-width:0.8;"/>
   </g>
   <g id="text_20">
    <!-- Model performance vs. # of iterations -->
    <g style="fill:#262626;" transform="translate(122.314688 35.472)scale(0.12 -0.12)">
     <defs>
      <path d="M 628 4666 
L 1569 4666 
L 2759 1491 
L 3956 4666 
L 4897 4666 
L 4897 0 
L 4281 0 
L 4281 4097 
L 3078 897 
L 2444 897 
L 1241 4097 
L 1241 0 
L 628 0 
L 628 4666 
z
" id="DejaVuSans-4d" transform="scale(0.015625)"/>
      <path d="M 2906 2969 
L 2906 4863 
L 3481 4863 
L 3481 0 
L 2906 0 
L 2906 525 
Q 2725 213 2448 61 
Q 2172 -91 1784 -91 
Q 1150 -91 751 415 
Q 353 922 353 1747 
Q 353 2572 751 3078 
Q 1150 3584 1784 3584 
Q 2172 3584 2448 3432 
Q 2725 3281 2906 2969 
z
M 947 1747 
Q 947 1113 1208 752 
Q 1469 391 1925 391 
Q 2381 391 2643 752 
Q 2906 1113 2906 1747 
Q 2906 2381 2643 2742 
Q 2381 3103 1925 3103 
Q 1469 3103 1208 2742 
Q 947 2381 947 1747 
z
" id="DejaVuSans-64" transform="scale(0.015625)"/>
      <path d="M 603 4863 
L 1178 4863 
L 1178 0 
L 603 0 
L 603 4863 
z
" id="DejaVuSans-6c" transform="scale(0.015625)"/>
      <path id="DejaVuSans-20" transform="scale(0.015625)"/>
      <path d="M 1159 525 
L 1159 -1331 
L 581 -1331 
L 581 3500 
L 1159 3500 
L 1159 2969 
Q 1341 3281 1617 3432 
Q 1894 3584 2278 3584 
Q 2916 3584 3314 3078 
Q 3713 2572 3713 1747 
Q 3713 922 3314 415 
Q 2916 -91 2278 -91 
Q 1894 -91 1617 61 
Q 1341 213 1159 525 
z
M 3116 1747 
Q 3116 2381 2855 2742 
Q 2594 3103 2138 3103 
Q 1681 3103 1420 2742 
Q 1159 2381 1159 1747 
Q 1159 1113 1420 752 
Q 1681 391 2138 391 
Q 2594 391 2855 752 
Q 3116 1113 3116 1747 
z
" id="DejaVuSans-70" transform="scale(0.015625)"/>
      <path d="M 2375 4863 
L 2375 4384 
L 1825 4384 
Q 1516 4384 1395 4259 
Q 1275 4134 1275 3809 
L 1275 3500 
L 2222 3500 
L 2222 3053 
L 1275 3053 
L 1275 0 
L 697 0 
L 697 3053 
L 147 3053 
L 147 3500 
L 697 3500 
L 697 3744 
Q 697 4328 969 4595 
Q 1241 4863 1831 4863 
L 2375 4863 
z
" id="DejaVuSans-66" transform="scale(0.015625)"/>
      <path d="M 3328 2828 
Q 3544 3216 3844 3400 
Q 4144 3584 4550 3584 
Q 5097 3584 5394 3201 
Q 5691 2819 5691 2113 
L 5691 0 
L 5113 0 
L 5113 2094 
Q 5113 2597 4934 2840 
Q 4756 3084 4391 3084 
Q 3944 3084 3684 2787 
Q 3425 2491 3425 1978 
L 3425 0 
L 2847 0 
L 2847 2094 
Q 2847 2600 2669 2842 
Q 2491 3084 2119 3084 
Q 1678 3084 1418 2786 
Q 1159 2488 1159 1978 
L 1159 0 
L 581 0 
L 581 3500 
L 1159 3500 
L 1159 2956 
Q 1356 3278 1631 3431 
Q 1906 3584 2284 3584 
Q 2666 3584 2933 3390 
Q 3200 3197 3328 2828 
z
" id="DejaVuSans-6d" transform="scale(0.015625)"/>
      <path d="M 191 3500 
L 800 3500 
L 1894 563 
L 2988 3500 
L 3597 3500 
L 2284 0 
L 1503 0 
L 191 3500 
z
" id="DejaVuSans-76" transform="scale(0.015625)"/>
      <path d="M 2834 3397 
L 2834 2853 
Q 2591 2978 2328 3040 
Q 2066 3103 1784 3103 
Q 1356 3103 1142 2972 
Q 928 2841 928 2578 
Q 928 2378 1081 2264 
Q 1234 2150 1697 2047 
L 1894 2003 
Q 2506 1872 2764 1633 
Q 3022 1394 3022 966 
Q 3022 478 2636 193 
Q 2250 -91 1575 -91 
Q 1294 -91 989 -36 
Q 684 19 347 128 
L 347 722 
Q 666 556 975 473 
Q 1284 391 1588 391 
Q 1994 391 2212 530 
Q 2431 669 2431 922 
Q 2431 1156 2273 1281 
Q 2116 1406 1581 1522 
L 1381 1569 
Q 847 1681 609 1914 
Q 372 2147 372 2553 
Q 372 3047 722 3315 
Q 1072 3584 1716 3584 
Q 2034 3584 2315 3537 
Q 2597 3491 2834 3397 
z
" id="DejaVuSans-73" transform="scale(0.015625)"/>
      <path d="M 3272 2816 
L 2363 2816 
L 2100 1772 
L 3016 1772 
L 3272 2816 
z
M 2803 4594 
L 2478 3297 
L 3391 3297 
L 3719 4594 
L 4219 4594 
L 3897 3297 
L 4872 3297 
L 4872 2816 
L 3775 2816 
L 3519 1772 
L 4513 1772 
L 4513 1294 
L 3397 1294 
L 3072 0 
L 2572 0 
L 2894 1294 
L 1978 1294 
L 1656 0 
L 1153 0 
L 1478 1294 
L 494 1294 
L 494 1772 
L 1594 1772 
L 1856 2816 
L 850 2816 
L 850 3297 
L 1978 3297 
L 2297 4594 
L 2803 4594 
z
" id="DejaVuSans-23" transform="scale(0.015625)"/>
     </defs>
     <use xlink:href="#DejaVuSans-4d"/>
     <use x="86.279297" xlink:href="#DejaVuSans-6f"/>
     <use x="147.460938" xlink:href="#DejaVuSans-64"/>
     <use x="210.9375" xlink:href="#DejaVuSans-65"/>
     <use x="272.460938" xlink:href="#DejaVuSans-6c"/>
     <use x="300.244141" xlink:href="#DejaVuSans-20"/>
     <use x="332.03125" xlink:href="#DejaVuSans-70"/>
     <use x="395.507812" xlink:href="#DejaVuSans-65"/>
     <use x="457.03125" xlink:href="#DejaVuSans-72"/>
     <use x="498.144531" xlink:href="#DejaVuSans-66"/>
     <use x="533.349609" xlink:href="#DejaVuSans-6f"/>
     <use x="594.53125" xlink:href="#DejaVuSans-72"/>
     <use x="633.894531" xlink:href="#DejaVuSans-6d"/>
     <use x="731.306641" xlink:href="#DejaVuSans-61"/>
     <use x="792.585938" xlink:href="#DejaVuSans-6e"/>
     <use x="855.964844" xlink:href="#DejaVuSans-63"/>
     <use x="910.945312" xlink:href="#DejaVuSans-65"/>
     <use x="972.46875" xlink:href="#DejaVuSans-20"/>
     <use x="1004.255859" xlink:href="#DejaVuSans-76"/>
     <use x="1063.435547" xlink:href="#DejaVuSans-73"/>
     <use x="1115.535156" xlink:href="#DejaVuSans-2e"/>
     <use x="1147.322266" xlink:href="#DejaVuSans-20"/>
     <use x="1179.109375" xlink:href="#DejaVuSans-23"/>
     <use x="1262.898438" xlink:href="#DejaVuSans-20"/>
     <use x="1294.685547" xlink:href="#DejaVuSans-6f"/>
     <use x="1355.867188" xlink:href="#DejaVuSans-66"/>
     <use x="1391.072266" xlink:href="#DejaVuSans-20"/>
     <use x="1422.859375" xlink:href="#DejaVuSans-69"/>
     <use x="1450.642578" xlink:href="#DejaVuSans-74"/>
     <use x="1489.851562" xlink:href="#DejaVuSans-65"/>
     <use x="1551.375" xlink:href="#DejaVuSans-72"/>
     <use x="1592.488281" xlink:href="#DejaVuSans-61"/>
     <use x="1653.767578" xlink:href="#DejaVuSans-74"/>
     <use x="1692.976562" xlink:href="#DejaVuSans-69"/>
     <use x="1720.759766" xlink:href="#DejaVuSans-6f"/>
     <use x="1781.941406" xlink:href="#DejaVuSans-6e"/>
     <use x="1845.320312" xlink:href="#DejaVuSans-73"/>
    </g>
   </g>
  </g>
 </g>
 <defs>
  <clipPath id="pde460e4751">
   <rect height="266.112" width="357.12" x="57.6" y="41.472"/>
  </clipPath>
 </defs>
</svg>
