<?xml version="1.0" encoding="utf-8" standalone="no"?>
<!DOCTYPE svg PUBLIC "-//W3C//DTD SVG 1.1//EN"
  "http://www.w3.org/Graphics/SVG/1.1/DTD/svg11.dtd">
<svg xmlns:xlink="http://www.w3.org/1999/xlink" width="460.8pt" height="345.6pt" viewBox="0 0 460.8 345.6" xmlns="http://www.w3.org/2000/svg" version="1.1">
 <metadata>
  <rdf:RDF xmlns:dc="http://purl.org/dc/elements/1.1/" xmlns:cc="http://creativecommons.org/ns#" xmlns:rdf="http://www.w3.org/1999/02/22-rdf-syntax-ns#">
   <cc:Work>
    <dc:type rdf:resource="http://purl.org/dc/dcmitype/StillImage"/>
    <dc:date>2022-10-30T19:47:01.892620</dc:date>
    <dc:format>image/svg+xml</dc:format>
    <dc:creator>
     <cc:Agent>
      <dc:title>Matplotlib v3.5.2, https://matplotlib.org/</dc:title>
     </cc:Agent>
    </dc:creator>
   </cc:Work>
  </rdf:RDF>
 </metadata>
 <defs>
  <style type="text/css">*{stroke-linejoin: round; stroke-linecap: butt}</style>
 </defs>
 <g id="figure_1">
  <g id="patch_1">
   <path d="M 0 345.6 
L 460.8 345.6 
L 460.8 0 
L 0 0 
z
" style="fill: #ffffff"/>
  </g>
  <g id="axes_1">
   <g id="patch_2">
    <path d="M 57.6 307.584 
L 414.72 307.584 
L 414.72 41.472 
L 57.6 41.472 
z
" style="fill: #ffffff"/>
   </g>
   <g id="matplotlib.axis_1">
    <g id="xtick_1">
     <g id="line2d_1">
      <path d="M 72.201297 307.584 
L 72.201297 41.472 
" clip-path="url(#pe09a4af502)" style="fill: none; stroke: #cccccc; stroke-width: 0.8; stroke-linecap: round"/>
     </g>
     <g id="text_1">
      <!-- 0 -->
      <g style="fill: #262626" transform="translate(69.020047 322.182437)scale(0.1 -0.1)">
       <defs>
        <path id="DejaVuSans-30" d="M 2034 4250 
Q 1547 4250 1301 3770 
Q 1056 3291 1056 2328 
Q 1056 1369 1301 889 
Q 1547 409 2034 409 
Q 2525 409 2770 889 
Q 3016 1369 3016 2328 
Q 3016 3291 2770 3770 
Q 2525 4250 2034 4250 
z
M 2034 4750 
Q 2819 4750 3233 4129 
Q 3647 3509 3647 2328 
Q 3647 1150 3233 529 
Q 2819 -91 2034 -91 
Q 1250 -91 836 529 
Q 422 1150 422 2328 
Q 422 3509 836 4129 
Q 1250 4750 2034 4750 
z
" transform="scale(0.015625)"/>
       </defs>
       <use xlink:href="#DejaVuSans-30"/>
      </g>
     </g>
    </g>
    <g id="xtick_2">
     <g id="line2d_2">
      <path d="M 112.987044 307.584 
L 112.987044 41.472 
" clip-path="url(#pe09a4af502)" style="fill: none; stroke: #cccccc; stroke-width: 0.8; stroke-linecap: round"/>
     </g>
     <g id="text_2">
      <!-- 25 -->
      <g style="fill: #262626" transform="translate(106.624544 322.182437)scale(0.1 -0.1)">
       <defs>
        <path id="DejaVuSans-32" d="M 1228 531 
L 3431 531 
L 3431 0 
L 469 0 
L 469 531 
Q 828 903 1448 1529 
Q 2069 2156 2228 2338 
Q 2531 2678 2651 2914 
Q 2772 3150 2772 3378 
Q 2772 3750 2511 3984 
Q 2250 4219 1831 4219 
Q 1534 4219 1204 4116 
Q 875 4013 500 3803 
L 500 4441 
Q 881 4594 1212 4672 
Q 1544 4750 1819 4750 
Q 2544 4750 2975 4387 
Q 3406 4025 3406 3419 
Q 3406 3131 3298 2873 
Q 3191 2616 2906 2266 
Q 2828 2175 2409 1742 
Q 1991 1309 1228 531 
z
" transform="scale(0.015625)"/>
        <path id="DejaVuSans-35" d="M 691 4666 
L 3169 4666 
L 3169 4134 
L 1269 4134 
L 1269 2991 
Q 1406 3038 1543 3061 
Q 1681 3084 1819 3084 
Q 2600 3084 3056 2656 
Q 3513 2228 3513 1497 
Q 3513 744 3044 326 
Q 2575 -91 1722 -91 
Q 1428 -91 1123 -41 
Q 819 9 494 109 
L 494 744 
Q 775 591 1075 516 
Q 1375 441 1709 441 
Q 2250 441 2565 725 
Q 2881 1009 2881 1497 
Q 2881 1984 2565 2268 
Q 2250 2553 1709 2553 
Q 1456 2553 1204 2497 
Q 953 2441 691 2322 
L 691 4666 
z
" transform="scale(0.015625)"/>
       </defs>
       <use xlink:href="#DejaVuSans-32"/>
       <use xlink:href="#DejaVuSans-35" x="63.623047"/>
      </g>
     </g>
    </g>
    <g id="xtick_3">
     <g id="line2d_3">
      <path d="M 153.772791 307.584 
L 153.772791 41.472 
" clip-path="url(#pe09a4af502)" style="fill: none; stroke: #cccccc; stroke-width: 0.8; stroke-linecap: round"/>
     </g>
     <g id="text_3">
      <!-- 50 -->
      <g style="fill: #262626" transform="translate(147.410291 322.182437)scale(0.1 -0.1)">
       <use xlink:href="#DejaVuSans-35"/>
       <use xlink:href="#DejaVuSans-30" x="63.623047"/>
      </g>
     </g>
    </g>
    <g id="xtick_4">
     <g id="line2d_4">
      <path d="M 194.558538 307.584 
L 194.558538 41.472 
" clip-path="url(#pe09a4af502)" style="fill: none; stroke: #cccccc; stroke-width: 0.8; stroke-linecap: round"/>
     </g>
     <g id="text_4">
      <!-- 75 -->
      <g style="fill: #262626" transform="translate(188.196038 322.182437)scale(0.1 -0.1)">
       <defs>
        <path id="DejaVuSans-37" d="M 525 4666 
L 3525 4666 
L 3525 4397 
L 1831 0 
L 1172 0 
L 2766 4134 
L 525 4134 
L 525 4666 
z
" transform="scale(0.015625)"/>
       </defs>
       <use xlink:href="#DejaVuSans-37"/>
       <use xlink:href="#DejaVuSans-35" x="63.623047"/>
      </g>
     </g>
    </g>
    <g id="xtick_5">
     <g id="line2d_5">
      <path d="M 235.344285 307.584 
L 235.344285 41.472 
" clip-path="url(#pe09a4af502)" style="fill: none; stroke: #cccccc; stroke-width: 0.8; stroke-linecap: round"/>
     </g>
     <g id="text_5">
      <!-- 100 -->
      <g style="fill: #262626" transform="translate(225.800535 322.182437)scale(0.1 -0.1)">
       <defs>
        <path id="DejaVuSans-31" d="M 794 531 
L 1825 531 
L 1825 4091 
L 703 3866 
L 703 4441 
L 1819 4666 
L 2450 4666 
L 2450 531 
L 3481 531 
L 3481 0 
L 794 0 
L 794 531 
z
" transform="scale(0.015625)"/>
       </defs>
       <use xlink:href="#DejaVuSans-31"/>
       <use xlink:href="#DejaVuSans-30" x="63.623047"/>
       <use xlink:href="#DejaVuSans-30" x="127.246094"/>
      </g>
     </g>
    </g>
    <g id="xtick_6">
     <g id="line2d_6">
      <path d="M 276.130032 307.584 
L 276.130032 41.472 
" clip-path="url(#pe09a4af502)" style="fill: none; stroke: #cccccc; stroke-width: 0.8; stroke-linecap: round"/>
     </g>
     <g id="text_6">
      <!-- 125 -->
      <g style="fill: #262626" transform="translate(266.586282 322.182437)scale(0.1 -0.1)">
       <use xlink:href="#DejaVuSans-31"/>
       <use xlink:href="#DejaVuSans-32" x="63.623047"/>
       <use xlink:href="#DejaVuSans-35" x="127.246094"/>
      </g>
     </g>
    </g>
    <g id="xtick_7">
     <g id="line2d_7">
      <path d="M 316.915779 307.584 
L 316.915779 41.472 
" clip-path="url(#pe09a4af502)" style="fill: none; stroke: #cccccc; stroke-width: 0.8; stroke-linecap: round"/>
     </g>
     <g id="text_7">
      <!-- 150 -->
      <g style="fill: #262626" transform="translate(307.372029 322.182437)scale(0.1 -0.1)">
       <use xlink:href="#DejaVuSans-31"/>
       <use xlink:href="#DejaVuSans-35" x="63.623047"/>
       <use xlink:href="#DejaVuSans-30" x="127.246094"/>
      </g>
     </g>
    </g>
    <g id="xtick_8">
     <g id="line2d_8">
      <path d="M 357.701526 307.584 
L 357.701526 41.472 
" clip-path="url(#pe09a4af502)" style="fill: none; stroke: #cccccc; stroke-width: 0.8; stroke-linecap: round"/>
     </g>
     <g id="text_8">
      <!-- 175 -->
      <g style="fill: #262626" transform="translate(348.157776 322.182437)scale(0.1 -0.1)">
       <use xlink:href="#DejaVuSans-31"/>
       <use xlink:href="#DejaVuSans-37" x="63.623047"/>
       <use xlink:href="#DejaVuSans-35" x="127.246094"/>
      </g>
     </g>
    </g>
    <g id="xtick_9">
     <g id="line2d_9">
      <path d="M 398.487273 307.584 
L 398.487273 41.472 
" clip-path="url(#pe09a4af502)" style="fill: none; stroke: #cccccc; stroke-width: 0.8; stroke-linecap: round"/>
     </g>
     <g id="text_9">
      <!-- 200 -->
      <g style="fill: #262626" transform="translate(388.943523 322.182437)scale(0.1 -0.1)">
       <use xlink:href="#DejaVuSans-32"/>
       <use xlink:href="#DejaVuSans-30" x="63.623047"/>
       <use xlink:href="#DejaVuSans-30" x="127.246094"/>
      </g>
     </g>
    </g>
    <g id="text_10">
     <!-- Iteration -->
     <g style="fill: #262626" transform="translate(214.951406 335.860562)scale(0.1 -0.1)">
      <defs>
       <path id="DejaVuSans-49" d="M 628 4666 
L 1259 4666 
L 1259 0 
L 628 0 
L 628 4666 
z
" transform="scale(0.015625)"/>
       <path id="DejaVuSans-74" d="M 1172 4494 
L 1172 3500 
L 2356 3500 
L 2356 3053 
L 1172 3053 
L 1172 1153 
Q 1172 725 1289 603 
Q 1406 481 1766 481 
L 2356 481 
L 2356 0 
L 1766 0 
Q 1100 0 847 248 
Q 594 497 594 1153 
L 594 3053 
L 172 3053 
L 172 3500 
L 594 3500 
L 594 4494 
L 1172 4494 
z
" transform="scale(0.015625)"/>
       <path id="DejaVuSans-65" d="M 3597 1894 
L 3597 1613 
L 953 1613 
Q 991 1019 1311 708 
Q 1631 397 2203 397 
Q 2534 397 2845 478 
Q 3156 559 3463 722 
L 3463 178 
Q 3153 47 2828 -22 
Q 2503 -91 2169 -91 
Q 1331 -91 842 396 
Q 353 884 353 1716 
Q 353 2575 817 3079 
Q 1281 3584 2069 3584 
Q 2775 3584 3186 3129 
Q 3597 2675 3597 1894 
z
M 3022 2063 
Q 3016 2534 2758 2815 
Q 2500 3097 2075 3097 
Q 1594 3097 1305 2825 
Q 1016 2553 972 2059 
L 3022 2063 
z
" transform="scale(0.015625)"/>
       <path id="DejaVuSans-72" d="M 2631 2963 
Q 2534 3019 2420 3045 
Q 2306 3072 2169 3072 
Q 1681 3072 1420 2755 
Q 1159 2438 1159 1844 
L 1159 0 
L 581 0 
L 581 3500 
L 1159 3500 
L 1159 2956 
Q 1341 3275 1631 3429 
Q 1922 3584 2338 3584 
Q 2397 3584 2469 3576 
Q 2541 3569 2628 3553 
L 2631 2963 
z
" transform="scale(0.015625)"/>
       <path id="DejaVuSans-61" d="M 2194 1759 
Q 1497 1759 1228 1600 
Q 959 1441 959 1056 
Q 959 750 1161 570 
Q 1363 391 1709 391 
Q 2188 391 2477 730 
Q 2766 1069 2766 1631 
L 2766 1759 
L 2194 1759 
z
M 3341 1997 
L 3341 0 
L 2766 0 
L 2766 531 
Q 2569 213 2275 61 
Q 1981 -91 1556 -91 
Q 1019 -91 701 211 
Q 384 513 384 1019 
Q 384 1609 779 1909 
Q 1175 2209 1959 2209 
L 2766 2209 
L 2766 2266 
Q 2766 2663 2505 2880 
Q 2244 3097 1772 3097 
Q 1472 3097 1187 3025 
Q 903 2953 641 2809 
L 641 3341 
Q 956 3463 1253 3523 
Q 1550 3584 1831 3584 
Q 2591 3584 2966 3190 
Q 3341 2797 3341 1997 
z
" transform="scale(0.015625)"/>
       <path id="DejaVuSans-69" d="M 603 3500 
L 1178 3500 
L 1178 0 
L 603 0 
L 603 3500 
z
M 603 4863 
L 1178 4863 
L 1178 4134 
L 603 4134 
L 603 4863 
z
" transform="scale(0.015625)"/>
       <path id="DejaVuSans-6f" d="M 1959 3097 
Q 1497 3097 1228 2736 
Q 959 2375 959 1747 
Q 959 1119 1226 758 
Q 1494 397 1959 397 
Q 2419 397 2687 759 
Q 2956 1122 2956 1747 
Q 2956 2369 2687 2733 
Q 2419 3097 1959 3097 
z
M 1959 3584 
Q 2709 3584 3137 3096 
Q 3566 2609 3566 1747 
Q 3566 888 3137 398 
Q 2709 -91 1959 -91 
Q 1206 -91 779 398 
Q 353 888 353 1747 
Q 353 2609 779 3096 
Q 1206 3584 1959 3584 
z
" transform="scale(0.015625)"/>
       <path id="DejaVuSans-6e" d="M 3513 2113 
L 3513 0 
L 2938 0 
L 2938 2094 
Q 2938 2591 2744 2837 
Q 2550 3084 2163 3084 
Q 1697 3084 1428 2787 
Q 1159 2491 1159 1978 
L 1159 0 
L 581 0 
L 581 3500 
L 1159 3500 
L 1159 2956 
Q 1366 3272 1645 3428 
Q 1925 3584 2291 3584 
Q 2894 3584 3203 3211 
Q 3513 2838 3513 2113 
z
" transform="scale(0.015625)"/>
      </defs>
      <use xlink:href="#DejaVuSans-49"/>
      <use xlink:href="#DejaVuSans-74" x="29.492188"/>
      <use xlink:href="#DejaVuSans-65" x="68.701172"/>
      <use xlink:href="#DejaVuSans-72" x="130.224609"/>
      <use xlink:href="#DejaVuSans-61" x="171.337891"/>
      <use xlink:href="#DejaVuSans-74" x="232.617188"/>
      <use xlink:href="#DejaVuSans-69" x="271.826172"/>
      <use xlink:href="#DejaVuSans-6f" x="299.609375"/>
      <use xlink:href="#DejaVuSans-6e" x="360.791016"/>
     </g>
    </g>
   </g>
   <g id="matplotlib.axis_2">
    <g id="ytick_1">
     <g id="line2d_10">
      <path d="M 57.6 281.878303 
L 414.72 281.878303 
" clip-path="url(#pe09a4af502)" style="fill: none; stroke: #cccccc; stroke-width: 0.8; stroke-linecap: round"/>
     </g>
     <g id="text_11">
      <!-- 0.55 -->
      <g style="fill: #262626" transform="translate(28.334375 285.677522)scale(0.1 -0.1)">
       <defs>
        <path id="DejaVuSans-2e" d="M 684 794 
L 1344 794 
L 1344 0 
L 684 0 
L 684 794 
z
" transform="scale(0.015625)"/>
       </defs>
       <use xlink:href="#DejaVuSans-30"/>
       <use xlink:href="#DejaVuSans-2e" x="63.623047"/>
       <use xlink:href="#DejaVuSans-35" x="95.410156"/>
       <use xlink:href="#DejaVuSans-35" x="159.033203"/>
      </g>
     </g>
    </g>
    <g id="ytick_2">
     <g id="line2d_11">
      <path d="M 57.6 227.20452 
L 414.72 227.20452 
" clip-path="url(#pe09a4af502)" style="fill: none; stroke: #cccccc; stroke-width: 0.8; stroke-linecap: round"/>
     </g>
     <g id="text_12">
      <!-- 0.60 -->
      <g style="fill: #262626" transform="translate(28.334375 231.003739)scale(0.1 -0.1)">
       <defs>
        <path id="DejaVuSans-36" d="M 2113 2584 
Q 1688 2584 1439 2293 
Q 1191 2003 1191 1497 
Q 1191 994 1439 701 
Q 1688 409 2113 409 
Q 2538 409 2786 701 
Q 3034 994 3034 1497 
Q 3034 2003 2786 2293 
Q 2538 2584 2113 2584 
z
M 3366 4563 
L 3366 3988 
Q 3128 4100 2886 4159 
Q 2644 4219 2406 4219 
Q 1781 4219 1451 3797 
Q 1122 3375 1075 2522 
Q 1259 2794 1537 2939 
Q 1816 3084 2150 3084 
Q 2853 3084 3261 2657 
Q 3669 2231 3669 1497 
Q 3669 778 3244 343 
Q 2819 -91 2113 -91 
Q 1303 -91 875 529 
Q 447 1150 447 2328 
Q 447 3434 972 4092 
Q 1497 4750 2381 4750 
Q 2619 4750 2861 4703 
Q 3103 4656 3366 4563 
z
" transform="scale(0.015625)"/>
       </defs>
       <use xlink:href="#DejaVuSans-30"/>
       <use xlink:href="#DejaVuSans-2e" x="63.623047"/>
       <use xlink:href="#DejaVuSans-36" x="95.410156"/>
       <use xlink:href="#DejaVuSans-30" x="159.033203"/>
      </g>
     </g>
    </g>
    <g id="ytick_3">
     <g id="line2d_12">
      <path d="M 57.6 172.530737 
L 414.72 172.530737 
" clip-path="url(#pe09a4af502)" style="fill: none; stroke: #cccccc; stroke-width: 0.8; stroke-linecap: round"/>
     </g>
     <g id="text_13">
      <!-- 0.65 -->
      <g style="fill: #262626" transform="translate(28.334375 176.329956)scale(0.1 -0.1)">
       <use xlink:href="#DejaVuSans-30"/>
       <use xlink:href="#DejaVuSans-2e" x="63.623047"/>
       <use xlink:href="#DejaVuSans-36" x="95.410156"/>
       <use xlink:href="#DejaVuSans-35" x="159.033203"/>
      </g>
     </g>
    </g>
    <g id="ytick_4">
     <g id="line2d_13">
      <path d="M 57.6 117.856954 
L 414.72 117.856954 
" clip-path="url(#pe09a4af502)" style="fill: none; stroke: #cccccc; stroke-width: 0.8; stroke-linecap: round"/>
     </g>
     <g id="text_14">
      <!-- 0.70 -->
      <g style="fill: #262626" transform="translate(28.334375 121.656173)scale(0.1 -0.1)">
       <use xlink:href="#DejaVuSans-30"/>
       <use xlink:href="#DejaVuSans-2e" x="63.623047"/>
       <use xlink:href="#DejaVuSans-37" x="95.410156"/>
       <use xlink:href="#DejaVuSans-30" x="159.033203"/>
      </g>
     </g>
    </g>
    <g id="ytick_5">
     <g id="line2d_14">
      <path d="M 57.6 63.183171 
L 414.72 63.183171 
" clip-path="url(#pe09a4af502)" style="fill: none; stroke: #cccccc; stroke-width: 0.8; stroke-linecap: round"/>
     </g>
     <g id="text_15">
      <!-- 0.75 -->
      <g style="fill: #262626" transform="translate(28.334375 66.98239)scale(0.1 -0.1)">
       <use xlink:href="#DejaVuSans-30"/>
       <use xlink:href="#DejaVuSans-2e" x="63.623047"/>
       <use xlink:href="#DejaVuSans-37" x="95.410156"/>
       <use xlink:href="#DejaVuSans-35" x="159.033203"/>
      </g>
     </g>
    </g>
    <g id="text_16">
     <!-- Auroc -->
     <g style="fill: #262626" transform="translate(22.254688 188.868625)rotate(-90)scale(0.1 -0.1)">
      <defs>
       <path id="DejaVuSans-41" d="M 2188 4044 
L 1331 1722 
L 3047 1722 
L 2188 4044 
z
M 1831 4666 
L 2547 4666 
L 4325 0 
L 3669 0 
L 3244 1197 
L 1141 1197 
L 716 0 
L 50 0 
L 1831 4666 
z
" transform="scale(0.015625)"/>
       <path id="DejaVuSans-75" d="M 544 1381 
L 544 3500 
L 1119 3500 
L 1119 1403 
Q 1119 906 1312 657 
Q 1506 409 1894 409 
Q 2359 409 2629 706 
Q 2900 1003 2900 1516 
L 2900 3500 
L 3475 3500 
L 3475 0 
L 2900 0 
L 2900 538 
Q 2691 219 2414 64 
Q 2138 -91 1772 -91 
Q 1169 -91 856 284 
Q 544 659 544 1381 
z
M 1991 3584 
L 1991 3584 
z
" transform="scale(0.015625)"/>
       <path id="DejaVuSans-63" d="M 3122 3366 
L 3122 2828 
Q 2878 2963 2633 3030 
Q 2388 3097 2138 3097 
Q 1578 3097 1268 2742 
Q 959 2388 959 1747 
Q 959 1106 1268 751 
Q 1578 397 2138 397 
Q 2388 397 2633 464 
Q 2878 531 3122 666 
L 3122 134 
Q 2881 22 2623 -34 
Q 2366 -91 2075 -91 
Q 1284 -91 818 406 
Q 353 903 353 1747 
Q 353 2603 823 3093 
Q 1294 3584 2113 3584 
Q 2378 3584 2631 3529 
Q 2884 3475 3122 3366 
z
" transform="scale(0.015625)"/>
      </defs>
      <use xlink:href="#DejaVuSans-41"/>
      <use xlink:href="#DejaVuSans-75" x="68.408203"/>
      <use xlink:href="#DejaVuSans-72" x="131.787109"/>
      <use xlink:href="#DejaVuSans-6f" x="170.650391"/>
      <use xlink:href="#DejaVuSans-63" x="231.832031"/>
     </g>
    </g>
   </g>
   <g id="PolyCollection_1">
    <defs>
     <path id="mbf2100ec00" d="M 73.832727 -260.101172 
L 73.832727 -145.440649 
L 75.464157 -114.931127 
L 77.095587 -176.260564 
L 78.727017 -143.624233 
L 80.358447 -147.790783 
L 81.989877 -166.921265 
L 83.621307 -147.867792 
L 85.252736 -158.46195 
L 86.884166 -126.460367 
L 88.515596 -151.045576 
L 90.147026 -84.176072 
L 91.778456 -123.258963 
L 93.409886 -76.356745 
L 95.041316 -122.269222 
L 96.672746 -129.845576 
L 98.304175 -162.819266 
L 99.935605 -143.188034 
L 101.567035 -120.643074 
L 103.198465 -150.789538 
L 104.829895 -174.567712 
L 106.461325 -111.881246 
L 108.092755 -151.511985 
L 109.724185 -148.553762 
L 111.355614 -119.916496 
L 112.987044 -136.980659 
L 114.618474 -133.149747 
L 116.249904 -189.140315 
L 117.881334 -130.800803 
L 119.512764 -158.973902 
L 121.144194 -155.963167 
L 122.775624 -113.824065 
L 124.407053 -116.180381 
L 126.038483 -149.039675 
L 127.669913 -158.171082 
L 129.301343 -161.619524 
L 130.932773 -176.449321 
L 132.564203 -162.074123 
L 134.195633 -128.246871 
L 135.827063 -87.667606 
L 137.458492 -151.293339 
L 139.089922 -141.256669 
L 140.721352 -124.71726 
L 142.352782 -141.609815 
L 143.984212 -119.42606 
L 145.615642 -120.801717 
L 147.247072 -151.648392 
L 148.878502 -148.045016 
L 150.509931 -175.813394 
L 152.141361 -128.692199 
L 153.772791 -172.555255 
L 155.404221 -92.869792 
L 157.035651 -154.00799 
L 158.667081 -130.781861 
L 160.298511 -173.980156 
L 161.929941 -100.36584 
L 163.56137 -113.472465 
L 165.1928 -173.252559 
L 166.82423 -125.056588 
L 168.45566 -156.984854 
L 170.08709 -162.661942 
L 171.71852 -105.695467 
L 173.34995 -121.270524 
L 174.98138 -151.893143 
L 176.61281 -127.495595 
L 178.244239 -192.873377 
L 179.875669 -125.750431 
L 181.507099 -164.921457 
L 183.138529 -134.017836 
L 184.769959 -97.3328 
L 186.401389 -130.626004 
L 188.032819 -144.946644 
L 189.664249 -83.769583 
L 191.295678 -164.979639 
L 192.927108 -142.148745 
L 194.558538 -168.294301 
L 196.189968 -160.806524 
L 197.821398 -180.586455 
L 199.452828 -98.297576 
L 201.084258 -125.703186 
L 202.715688 -129.03516 
L 204.347117 -114.563018 
L 205.978547 -146.807539 
L 207.609977 -125.555715 
L 209.241407 -153.056933 
L 210.872837 -126.296831 
L 212.504267 -101.266902 
L 214.135697 -135.59416 
L 215.767127 -139.197971 
L 217.398556 -146.583671 
L 219.029986 -131.45113 
L 220.661416 -166.532341 
L 222.292846 -168.868837 
L 223.924276 -110.847056 
L 225.555706 -85.048616 
L 227.187136 -139.027101 
L 228.818566 -141.427899 
L 230.449995 -153.067539 
L 232.081425 -141.870487 
L 233.712855 -134.129227 
L 235.344285 -108.450313 
L 236.975715 -84.081486 
L 238.607145 -173.990976 
L 240.238575 -119.112414 
L 241.870005 -164.266298 
L 243.501434 -174.839777 
L 245.132864 -187.68365 
L 246.764294 -148.124258 
L 248.395724 -142.396069 
L 250.027154 -135.525843 
L 251.658584 -142.282143 
L 253.290014 -176.779383 
L 254.921444 -132.270718 
L 256.552873 -171.872203 
L 258.184303 -150.902958 
L 259.815733 -143.159272 
L 261.447163 -122.3577 
L 263.078593 -93.304424 
L 264.710023 -64.546654 
L 266.341453 -115.384558 
L 267.972883 -122.406854 
L 269.604312 -141.860199 
L 271.235742 -132.983408 
L 272.867172 -134.8201 
L 274.498602 -146.275423 
L 276.130032 -131.097038 
L 277.761462 -177.852337 
L 279.392892 -106.754734 
L 281.024322 -180.284507 
L 282.655751 -153.247482 
L 284.287181 -131.826511 
L 285.918611 -148.907401 
L 287.550041 -145.298806 
L 289.181471 -162.719608 
L 290.812901 -168.798272 
L 292.444331 -147.986569 
L 294.075761 -183.842984 
L 295.70719 -129.843721 
L 297.33862 -118.735848 
L 298.97005 -150.714526 
L 300.60148 -121.015365 
L 302.23291 -175.128768 
L 303.86434 -171.694708 
L 305.49577 -199.682091 
L 307.1272 -139.566083 
L 308.75863 -164.997882 
L 310.390059 -137.413381 
L 312.021489 -144.595629 
L 313.652919 -174.387561 
L 315.284349 -170.273439 
L 316.915779 -92.815457 
L 318.547209 -110.325035 
L 320.178639 -50.112 
L 321.810069 -176.659408 
L 323.441498 -75.014748 
L 325.072928 -156.650595 
L 326.704358 -126.58214 
L 328.335788 -175.634535 
L 329.967218 -135.905243 
L 331.598648 -156.944231 
L 333.230078 -150.698896 
L 334.861508 -184.188834 
L 336.492937 -146.404917 
L 338.124367 -126.559571 
L 339.755797 -69.057964 
L 341.387227 -191.244152 
L 343.018657 -147.087375 
L 344.650087 -156.675695 
L 346.281517 -116.1812 
L 347.912947 -153.810628 
L 349.544376 -71.492718 
L 351.175806 -87.052034 
L 352.807236 -150.515514 
L 354.438666 -160.240664 
L 356.070096 -146.01732 
L 357.701526 -167.288982 
L 359.332956 -149.303975 
L 360.964386 -95.706048 
L 362.595815 -172.292444 
L 364.227245 -159.135554 
L 365.858675 -113.996376 
L 367.490105 -156.077665 
L 369.121535 -121.70219 
L 370.752965 -116.504857 
L 372.384395 -132.811853 
L 374.015825 -81.60983 
L 375.647254 -147.195468 
L 377.278684 -74.881611 
L 378.910114 -143.468095 
L 380.541544 -144.636187 
L 382.172974 -171.779101 
L 383.804404 -122.952597 
L 385.435834 -138.314301 
L 387.067264 -184.636506 
L 388.698693 -126.046763 
L 390.330123 -134.15547 
L 391.961553 -144.067047 
L 393.592983 -168.22258 
L 395.224413 -175.269255 
L 396.855843 -195.17825 
L 398.487273 -131.120117 
L 398.487273 -233.8488 
L 398.487273 -233.8488 
L 396.855843 -250.375911 
L 395.224413 -194.642567 
L 393.592983 -190.569101 
L 391.961553 -248.029521 
L 390.330123 -201.252114 
L 388.698693 -219.608729 
L 387.067264 -239.638066 
L 385.435834 -213.900673 
L 383.804404 -255.78847 
L 382.172974 -237.372582 
L 380.541544 -266.897447 
L 378.910114 -203.308572 
L 377.278684 -237.86246 
L 375.647254 -228.984134 
L 374.015825 -231.62444 
L 372.384395 -186.327462 
L 370.752965 -217.597356 
L 369.121535 -267.02612 
L 367.490105 -258.791313 
L 365.858675 -197.610994 
L 364.227245 -188.66656 
L 362.595815 -271.83678 
L 360.964386 -187.962429 
L 359.332956 -231.888848 
L 357.701526 -256.380585 
L 356.070096 -203.502652 
L 354.438666 -255.623407 
L 352.807236 -238.207795 
L 351.175806 -228.460783 
L 349.544376 -193.139969 
L 347.912947 -242.541899 
L 346.281517 -205.223222 
L 344.650087 -225.714355 
L 343.018657 -280.151136 
L 341.387227 -227.403244 
L 339.755797 -262.089733 
L 338.124367 -210.235018 
L 336.492937 -205.285265 
L 334.861508 -229.691878 
L 333.230078 -261.178444 
L 331.598648 -237.427978 
L 329.967218 -236.613871 
L 328.335788 -242.052507 
L 326.704358 -211.915033 
L 325.072928 -261.595176 
L 323.441498 -204.708919 
L 321.810069 -250.223436 
L 320.178639 -223.420547 
L 318.547209 -230.237369 
L 316.915779 -193.026483 
L 315.284349 -223.545245 
L 313.652919 -240.392544 
L 312.021489 -243.967216 
L 310.390059 -234.943043 
L 308.75863 -223.596785 
L 307.1272 -236.842813 
L 305.49577 -246.981805 
L 303.86434 -215.891915 
L 302.23291 -221.896898 
L 300.60148 -207.352869 
L 298.97005 -275.474671 
L 297.33862 -207.839914 
L 295.70719 -217.145538 
L 294.075761 -210.516944 
L 292.444331 -225.950788 
L 290.812901 -255.374934 
L 289.181471 -250.000614 
L 287.550041 -234.638638 
L 285.918611 -205.003177 
L 284.287181 -236.284642 
L 282.655751 -231.999232 
L 281.024322 -236.32052 
L 279.392892 -249.049113 
L 277.761462 -231.82044 
L 276.130032 -254.139094 
L 274.498602 -242.583393 
L 272.867172 -239.71364 
L 271.235742 -251.346669 
L 269.604312 -228.72259 
L 267.972883 -189.220928 
L 266.341453 -278.168307 
L 264.710023 -240.485236 
L 263.078593 -253.670467 
L 261.447163 -228.559501 
L 259.815733 -264.394477 
L 258.184303 -225.053364 
L 256.552873 -255.407052 
L 254.921444 -246.288508 
L 253.290014 -267.936491 
L 251.658584 -230.955899 
L 250.027154 -198.334408 
L 248.395724 -242.898649 
L 246.764294 -225.860186 
L 245.132864 -228.229632 
L 243.501434 -235.382799 
L 241.870005 -242.054973 
L 240.238575 -240.833424 
L 238.607145 -244.09772 
L 236.975715 -248.403743 
L 235.344285 -214.101914 
L 233.712855 -207.064599 
L 232.081425 -230.063545 
L 230.449995 -189.607822 
L 228.818566 -230.573147 
L 227.187136 -231.497681 
L 225.555706 -221.960211 
L 223.924276 -235.534513 
L 222.292846 -229.176899 
L 220.661416 -242.039479 
L 219.029986 -237.71123 
L 217.398556 -240.695264 
L 215.767127 -240.194782 
L 214.135697 -237.263267 
L 212.504267 -233.350091 
L 210.872837 -237.381399 
L 209.241407 -226.608175 
L 207.609977 -190.646916 
L 205.978547 -197.227657 
L 204.347117 -199.036613 
L 202.715688 -255.555541 
L 201.084258 -259.486728 
L 199.452828 -215.204367 
L 197.821398 -227.277786 
L 196.189968 -247.335237 
L 194.558538 -228.202383 
L 192.927108 -226.72503 
L 191.295678 -243.70997 
L 189.664249 -244.038019 
L 188.032819 -227.036145 
L 186.401389 -228.838277 
L 184.769959 -189.756882 
L 183.138529 -263.767207 
L 181.507099 -256.775749 
L 179.875669 -264.503054 
L 178.244239 -240.697177 
L 176.61281 -240.977318 
L 174.98138 -225.204359 
L 173.34995 -257.362456 
L 171.71852 -259.604459 
L 170.08709 -233.038792 
L 168.45566 -215.052524 
L 166.82423 -232.841291 
L 165.1928 -236.032033 
L 163.56137 -214.749256 
L 161.929941 -258.75266 
L 160.298511 -192.258497 
L 158.667081 -272.607767 
L 157.035651 -276.323885 
L 155.404221 -242.836109 
L 153.772791 -205.93125 
L 152.141361 -261.162481 
L 150.509931 -224.597927 
L 148.878502 -220.564166 
L 147.247072 -255.148654 
L 145.615642 -249.123342 
L 143.984212 -231.18845 
L 142.352782 -214.393849 
L 140.721352 -208.583586 
L 139.089922 -240.500019 
L 137.458492 -214.270562 
L 135.827063 -197.699438 
L 134.195633 -225.588736 
L 132.564203 -209.096939 
L 130.932773 -222.445505 
L 129.301343 -244.343898 
L 127.669913 -251.111696 
L 126.038483 -274.881876 
L 124.407053 -161.34919 
L 122.775624 -196.537254 
L 121.144194 -249.976186 
L 119.512764 -211.026716 
L 117.881334 -204.398911 
L 116.249904 -268.775607 
L 114.618474 -292.032 
L 112.987044 -224.613628 
L 111.355614 -266.982963 
L 109.724185 -205.15946 
L 108.092755 -213.486901 
L 106.461325 -220.980331 
L 104.829895 -267.978126 
L 103.198465 -251.859983 
L 101.567035 -210.018344 
L 99.935605 -242.537003 
L 98.304175 -223.589242 
L 96.672746 -203.22306 
L 95.041316 -205.675181 
L 93.409886 -237.835972 
L 91.778456 -252.453583 
L 90.147026 -215.085276 
L 88.515596 -223.120757 
L 86.884166 -263.528314 
L 85.252736 -205.852471 
L 83.621307 -242.486413 
L 81.989877 -225.715803 
L 80.358447 -224.341019 
L 78.727017 -250.121257 
L 77.095587 -222.08233 
L 75.464157 -242.299936 
L 73.832727 -260.101172 
z
" style="stroke: #ffffff; stroke-opacity: 0.2"/>
    </defs>
    <g clip-path="url(#pe09a4af502)">
     <use xlink:href="#mbf2100ec00" x="0" y="345.6" style="fill: #1f77b4; fill-opacity: 0.2; stroke: #ffffff; stroke-opacity: 0.2"/>
    </g>
   </g>
   <g id="line2d_15">
    <path d="M 73.832727 142.829089 
L 75.464157 166.984468 
L 77.095587 146.428553 
L 78.727017 148.727255 
L 80.358447 159.534099 
L 81.989877 149.281466 
L 83.621307 150.422897 
L 85.252736 163.442789 
L 86.884166 150.60566 
L 88.515596 158.516834 
L 90.147026 195.969326 
L 91.778456 157.743727 
L 93.409886 188.503641 
L 95.041316 181.627799 
L 96.672746 179.065682 
L 98.304175 152.395746 
L 99.935605 152.737482 
L 101.567035 180.269291 
L 103.198465 144.275239 
L 104.829895 124.327081 
L 106.461325 179.169212 
L 108.092755 163.100557 
L 109.724185 168.743389 
L 111.355614 152.15027 
L 112.987044 164.802856 
L 114.618474 133.009126 
L 116.249904 116.642039 
L 117.881334 178.000143 
L 121.144194 142.630324 
L 122.775624 190.419341 
L 124.407053 206.835215 
L 126.038483 133.639225 
L 127.669913 140.958611 
L 129.301343 142.618289 
L 130.932773 146.152587 
L 132.564203 160.014469 
L 134.195633 168.682196 
L 135.827063 202.916478 
L 137.458492 162.81805 
L 139.089922 154.721656 
L 140.721352 178.949577 
L 142.352782 167.598168 
L 143.984212 170.292745 
L 145.615642 160.637471 
L 147.247072 142.201477 
L 148.878502 161.295409 
L 150.509931 145.394339 
L 152.141361 150.67266 
L 153.772791 156.356747 
L 155.404221 177.747049 
L 157.035651 130.434063 
L 158.667081 143.905186 
L 160.298511 162.480674 
L 161.929941 166.04075 
L 163.56137 181.48914 
L 165.1928 140.957704 
L 166.82423 166.651061 
L 168.45566 159.581311 
L 170.08709 147.749633 
L 171.71852 162.950037 
L 173.34995 156.28351 
L 174.98138 157.051249 
L 176.61281 161.363543 
L 178.244239 128.814723 
L 179.875669 150.473257 
L 181.507099 134.751397 
L 183.138529 146.707478 
L 184.769959 202.055159 
L 186.401389 165.86786 
L 188.032819 159.608606 
L 189.664249 181.696199 
L 191.295678 141.255195 
L 192.927108 161.163112 
L 194.558538 147.351658 
L 196.189968 141.52912 
L 197.821398 141.66788 
L 199.452828 188.849029 
L 201.084258 153.005043 
L 202.715688 153.304649 
L 204.347117 188.800185 
L 205.978547 173.582402 
L 207.609977 187.498684 
L 209.241407 155.767446 
L 210.872837 163.760885 
L 212.504267 178.291504 
L 214.135697 159.171287 
L 215.767127 155.903623 
L 217.398556 151.960532 
L 219.029986 161.01882 
L 220.661416 141.31409 
L 222.292846 146.577132 
L 223.924276 172.409216 
L 225.555706 192.095586 
L 227.187136 160.337609 
L 228.818566 159.599477 
L 230.449995 174.26232 
L 232.081425 159.632984 
L 233.712855 175.003087 
L 235.344285 184.323887 
L 236.975715 179.357386 
L 238.607145 136.555652 
L 240.238575 165.627081 
L 241.870005 142.439364 
L 243.501434 140.488712 
L 245.132864 137.643359 
L 246.764294 158.607778 
L 248.395724 152.952641 
L 250.027154 178.669874 
L 251.658584 158.980979 
L 253.290014 123.242063 
L 254.921444 156.320387 
L 256.552873 131.960372 
L 258.184303 157.621839 
L 259.815733 141.823126 
L 261.447163 170.1414 
L 263.078593 172.112554 
L 264.710023 193.084055 
L 266.341453 148.823567 
L 267.972883 189.786109 
L 269.604312 160.308605 
L 271.235742 153.434961 
L 272.867172 158.33313 
L 274.498602 151.170592 
L 276.130032 152.981934 
L 277.761462 140.763611 
L 279.392892 167.698077 
L 281.024322 137.297487 
L 282.655751 152.976643 
L 284.287181 161.544423 
L 285.918611 168.644711 
L 287.550041 155.631278 
L 289.181471 139.239889 
L 290.812901 133.513397 
L 292.444331 158.631322 
L 294.075761 148.420036 
L 295.70719 172.105371 
L 297.33862 182.312119 
L 298.97005 132.505401 
L 300.60148 181.415883 
L 302.23291 147.087167 
L 303.86434 151.806689 
L 305.49577 122.268052 
L 307.1272 157.395552 
L 308.75863 151.302667 
L 310.390059 159.421788 
L 312.021489 151.318578 
L 313.652919 138.209947 
L 315.284349 148.690658 
L 316.915779 202.67903 
L 318.547209 175.318798 
L 320.178639 208.833726 
L 321.810069 132.158578 
L 323.441498 205.738167 
L 325.072928 136.477114 
L 326.704358 176.351414 
L 328.335788 136.756479 
L 329.967218 159.340443 
L 331.598648 148.413895 
L 333.230078 139.66133 
L 334.861508 138.659644 
L 336.492937 169.754909 
L 338.124367 177.202706 
L 339.755797 180.026152 
L 341.387227 136.276302 
L 343.018657 131.980744 
L 344.650087 154.404975 
L 346.281517 184.897789 
L 347.912947 147.423737 
L 349.544376 213.283656 
L 351.175806 187.843591 
L 352.807236 151.238346 
L 354.438666 137.667965 
L 356.070096 170.840014 
L 357.701526 133.765216 
L 359.332956 155.003589 
L 360.964386 203.765762 
L 362.595815 123.535388 
L 364.227245 171.698943 
L 365.858675 189.796315 
L 367.490105 138.165511 
L 369.121535 151.235845 
L 370.752965 178.548894 
L 372.384395 186.030343 
L 374.015825 188.982865 
L 375.647254 157.510199 
L 377.278684 189.227964 
L 378.910114 172.211667 
L 380.541544 139.833183 
L 382.172974 141.024158 
L 383.804404 156.229467 
L 385.435834 169.492513 
L 387.067264 133.462714 
L 388.698693 172.772254 
L 390.330123 177.896208 
L 391.961553 149.551716 
L 393.592983 166.204159 
L 395.224413 160.644089 
L 396.855843 122.822919 
L 398.487273 163.115541 
L 398.487273 163.115541 
" clip-path="url(#pe09a4af502)" style="fill: none; stroke: #1f77b4; stroke-width: 1.5; stroke-linecap: round"/>
   </g>
   <g id="LineCollection_1">
    <path d="M 398.487273 295.488 
L 398.487273 53.568 
" clip-path="url(#pe09a4af502)" style="fill: none; stroke-dasharray: 5.55,2.4; stroke-dashoffset: 0; stroke: #1f77b4; stroke-width: 1.5"/>
   </g>
   <g id="patch_3">
    <path d="M 57.6 307.584 
L 57.6 41.472 
" style="fill: none; stroke: #cccccc; stroke-width: 0.8; stroke-linejoin: miter; stroke-linecap: square"/>
   </g>
   <g id="patch_4">
    <path d="M 414.72 307.584 
L 414.72 41.472 
" style="fill: none; stroke: #cccccc; stroke-width: 0.8; stroke-linejoin: miter; stroke-linecap: square"/>
   </g>
   <g id="patch_5">
    <path d="M 57.6 307.584 
L 414.72 307.584 
" style="fill: none; stroke: #cccccc; stroke-width: 0.8; stroke-linejoin: miter; stroke-linecap: square"/>
   </g>
   <g id="patch_6">
    <path d="M 57.6 41.472 
L 414.72 41.472 
" style="fill: none; stroke: #cccccc; stroke-width: 0.8; stroke-linejoin: miter; stroke-linecap: square"/>
   </g>
   <g id="text_17">
    <!-- Model performance vs. # of iterations -->
    <g style="fill: #262626" transform="translate(122.314688 35.472)scale(0.12 -0.12)">
     <defs>
      <path id="DejaVuSans-4d" d="M 628 4666 
L 1569 4666 
L 2759 1491 
L 3956 4666 
L 4897 4666 
L 4897 0 
L 4281 0 
L 4281 4097 
L 3078 897 
L 2444 897 
L 1241 4097 
L 1241 0 
L 628 0 
L 628 4666 
z
" transform="scale(0.015625)"/>
      <path id="DejaVuSans-64" d="M 2906 2969 
L 2906 4863 
L 3481 4863 
L 3481 0 
L 2906 0 
L 2906 525 
Q 2725 213 2448 61 
Q 2172 -91 1784 -91 
Q 1150 -91 751 415 
Q 353 922 353 1747 
Q 353 2572 751 3078 
Q 1150 3584 1784 3584 
Q 2172 3584 2448 3432 
Q 2725 3281 2906 2969 
z
M 947 1747 
Q 947 1113 1208 752 
Q 1469 391 1925 391 
Q 2381 391 2643 752 
Q 2906 1113 2906 1747 
Q 2906 2381 2643 2742 
Q 2381 3103 1925 3103 
Q 1469 3103 1208 2742 
Q 947 2381 947 1747 
z
" transform="scale(0.015625)"/>
      <path id="DejaVuSans-6c" d="M 603 4863 
L 1178 4863 
L 1178 0 
L 603 0 
L 603 4863 
z
" transform="scale(0.015625)"/>
      <path id="DejaVuSans-20" transform="scale(0.015625)"/>
      <path id="DejaVuSans-70" d="M 1159 525 
L 1159 -1331 
L 581 -1331 
L 581 3500 
L 1159 3500 
L 1159 2969 
Q 1341 3281 1617 3432 
Q 1894 3584 2278 3584 
Q 2916 3584 3314 3078 
Q 3713 2572 3713 1747 
Q 3713 922 3314 415 
Q 2916 -91 2278 -91 
Q 1894 -91 1617 61 
Q 1341 213 1159 525 
z
M 3116 1747 
Q 3116 2381 2855 2742 
Q 2594 3103 2138 3103 
Q 1681 3103 1420 2742 
Q 1159 2381 1159 1747 
Q 1159 1113 1420 752 
Q 1681 391 2138 391 
Q 2594 391 2855 752 
Q 3116 1113 3116 1747 
z
" transform="scale(0.015625)"/>
      <path id="DejaVuSans-66" d="M 2375 4863 
L 2375 4384 
L 1825 4384 
Q 1516 4384 1395 4259 
Q 1275 4134 1275 3809 
L 1275 3500 
L 2222 3500 
L 2222 3053 
L 1275 3053 
L 1275 0 
L 697 0 
L 697 3053 
L 147 3053 
L 147 3500 
L 697 3500 
L 697 3744 
Q 697 4328 969 4595 
Q 1241 4863 1831 4863 
L 2375 4863 
z
" transform="scale(0.015625)"/>
      <path id="DejaVuSans-6d" d="M 3328 2828 
Q 3544 3216 3844 3400 
Q 4144 3584 4550 3584 
Q 5097 3584 5394 3201 
Q 5691 2819 5691 2113 
L 5691 0 
L 5113 0 
L 5113 2094 
Q 5113 2597 4934 2840 
Q 4756 3084 4391 3084 
Q 3944 3084 3684 2787 
Q 3425 2491 3425 1978 
L 3425 0 
L 2847 0 
L 2847 2094 
Q 2847 2600 2669 2842 
Q 2491 3084 2119 3084 
Q 1678 3084 1418 2786 
Q 1159 2488 1159 1978 
L 1159 0 
L 581 0 
L 581 3500 
L 1159 3500 
L 1159 2956 
Q 1356 3278 1631 3431 
Q 1906 3584 2284 3584 
Q 2666 3584 2933 3390 
Q 3200 3197 3328 2828 
z
" transform="scale(0.015625)"/>
      <path id="DejaVuSans-76" d="M 191 3500 
L 800 3500 
L 1894 563 
L 2988 3500 
L 3597 3500 
L 2284 0 
L 1503 0 
L 191 3500 
z
" transform="scale(0.015625)"/>
      <path id="DejaVuSans-73" d="M 2834 3397 
L 2834 2853 
Q 2591 2978 2328 3040 
Q 2066 3103 1784 3103 
Q 1356 3103 1142 2972 
Q 928 2841 928 2578 
Q 928 2378 1081 2264 
Q 1234 2150 1697 2047 
L 1894 2003 
Q 2506 1872 2764 1633 
Q 3022 1394 3022 966 
Q 3022 478 2636 193 
Q 2250 -91 1575 -91 
Q 1294 -91 989 -36 
Q 684 19 347 128 
L 347 722 
Q 666 556 975 473 
Q 1284 391 1588 391 
Q 1994 391 2212 530 
Q 2431 669 2431 922 
Q 2431 1156 2273 1281 
Q 2116 1406 1581 1522 
L 1381 1569 
Q 847 1681 609 1914 
Q 372 2147 372 2553 
Q 372 3047 722 3315 
Q 1072 3584 1716 3584 
Q 2034 3584 2315 3537 
Q 2597 3491 2834 3397 
z
" transform="scale(0.015625)"/>
      <path id="DejaVuSans-23" d="M 3272 2816 
L 2363 2816 
L 2100 1772 
L 3016 1772 
L 3272 2816 
z
M 2803 4594 
L 2478 3297 
L 3391 3297 
L 3719 4594 
L 4219 4594 
L 3897 3297 
L 4872 3297 
L 4872 2816 
L 3775 2816 
L 3519 1772 
L 4513 1772 
L 4513 1294 
L 3397 1294 
L 3072 0 
L 2572 0 
L 2894 1294 
L 1978 1294 
L 1656 0 
L 1153 0 
L 1478 1294 
L 494 1294 
L 494 1772 
L 1594 1772 
L 1856 2816 
L 850 2816 
L 850 3297 
L 1978 3297 
L 2297 4594 
L 2803 4594 
z
" transform="scale(0.015625)"/>
     </defs>
     <use xlink:href="#DejaVuSans-4d"/>
     <use xlink:href="#DejaVuSans-6f" x="86.279297"/>
     <use xlink:href="#DejaVuSans-64" x="147.460938"/>
     <use xlink:href="#DejaVuSans-65" x="210.9375"/>
     <use xlink:href="#DejaVuSans-6c" x="272.460938"/>
     <use xlink:href="#DejaVuSans-20" x="300.244141"/>
     <use xlink:href="#DejaVuSans-70" x="332.03125"/>
     <use xlink:href="#DejaVuSans-65" x="395.507812"/>
     <use xlink:href="#DejaVuSans-72" x="457.03125"/>
     <use xlink:href="#DejaVuSans-66" x="498.144531"/>
     <use xlink:href="#DejaVuSans-6f" x="533.349609"/>
     <use xlink:href="#DejaVuSans-72" x="594.53125"/>
     <use xlink:href="#DejaVuSans-6d" x="633.894531"/>
     <use xlink:href="#DejaVuSans-61" x="731.306641"/>
     <use xlink:href="#DejaVuSans-6e" x="792.585938"/>
     <use xlink:href="#DejaVuSans-63" x="855.964844"/>
     <use xlink:href="#DejaVuSans-65" x="910.945312"/>
     <use xlink:href="#DejaVuSans-20" x="972.46875"/>
     <use xlink:href="#DejaVuSans-76" x="1004.255859"/>
     <use xlink:href="#DejaVuSans-73" x="1063.435547"/>
     <use xlink:href="#DejaVuSans-2e" x="1115.535156"/>
     <use xlink:href="#DejaVuSans-20" x="1147.322266"/>
     <use xlink:href="#DejaVuSans-23" x="1179.109375"/>
     <use xlink:href="#DejaVuSans-20" x="1262.898438"/>
     <use xlink:href="#DejaVuSans-6f" x="1294.685547"/>
     <use xlink:href="#DejaVuSans-66" x="1355.867188"/>
     <use xlink:href="#DejaVuSans-20" x="1391.072266"/>
     <use xlink:href="#DejaVuSans-69" x="1422.859375"/>
     <use xlink:href="#DejaVuSans-74" x="1450.642578"/>
     <use xlink:href="#DejaVuSans-65" x="1489.851562"/>
     <use xlink:href="#DejaVuSans-72" x="1551.375"/>
     <use xlink:href="#DejaVuSans-61" x="1592.488281"/>
     <use xlink:href="#DejaVuSans-74" x="1653.767578"/>
     <use xlink:href="#DejaVuSans-69" x="1692.976562"/>
     <use xlink:href="#DejaVuSans-6f" x="1720.759766"/>
     <use xlink:href="#DejaVuSans-6e" x="1781.941406"/>
     <use xlink:href="#DejaVuSans-73" x="1845.320312"/>
    </g>
   </g>
  </g>
 </g>
 <defs>
  <clipPath id="pe09a4af502">
   <rect x="57.6" y="41.472" width="357.12" height="266.112"/>
  </clipPath>
 </defs>
</svg>
