<?xml version="1.0" encoding="utf-8" standalone="no"?>
<!DOCTYPE svg PUBLIC "-//W3C//DTD SVG 1.1//EN"
  "http://www.w3.org/Graphics/SVG/1.1/DTD/svg11.dtd">
<svg xmlns:xlink="http://www.w3.org/1999/xlink" width="460.8pt" height="345.6pt" viewBox="0 0 460.8 345.6" xmlns="http://www.w3.org/2000/svg" version="1.1">
 <metadata>
  <rdf:RDF xmlns:dc="http://purl.org/dc/elements/1.1/" xmlns:cc="http://creativecommons.org/ns#" xmlns:rdf="http://www.w3.org/1999/02/22-rdf-syntax-ns#">
   <cc:Work>
    <dc:type rdf:resource="http://purl.org/dc/dcmitype/StillImage"/>
    <dc:date>2022-05-30T23:49:31.383116</dc:date>
    <dc:format>image/svg+xml</dc:format>
    <dc:creator>
     <cc:Agent>
      <dc:title>Matplotlib v3.5.2, https://matplotlib.org/</dc:title>
     </cc:Agent>
    </dc:creator>
   </cc:Work>
  </rdf:RDF>
 </metadata>
 <defs>
  <style type="text/css">*{stroke-linejoin: round; stroke-linecap: butt}</style>
 </defs>
 <g id="figure_1">
  <g id="patch_1">
   <path d="M 0 345.6 
L 460.8 345.6 
L 460.8 0 
L 0 0 
z
" style="fill: #ffffff"/>
  </g>
  <g id="axes_1">
   <g id="patch_2">
    <path d="M 57.6 307.584 
L 414.72 307.584 
L 414.72 41.472 
L 57.6 41.472 
z
" style="fill: #ffffff"/>
   </g>
   <g id="matplotlib.axis_1">
    <g id="xtick_1">
     <g id="line2d_1">
      <path d="M 72.201297 307.584 
L 72.201297 41.472 
" clip-path="url(#pb53f968431)" style="fill: none; stroke: #cccccc; stroke-width: 0.8; stroke-linecap: round"/>
     </g>
     <g id="text_1">
      <!-- 0 -->
      <g style="fill: #262626" transform="translate(69.020047 322.182437)scale(0.1 -0.1)">
       <defs>
        <path id="DejaVuSans-30" d="M 2034 4250 
Q 1547 4250 1301 3770 
Q 1056 3291 1056 2328 
Q 1056 1369 1301 889 
Q 1547 409 2034 409 
Q 2525 409 2770 889 
Q 3016 1369 3016 2328 
Q 3016 3291 2770 3770 
Q 2525 4250 2034 4250 
z
M 2034 4750 
Q 2819 4750 3233 4129 
Q 3647 3509 3647 2328 
Q 3647 1150 3233 529 
Q 2819 -91 2034 -91 
Q 1250 -91 836 529 
Q 422 1150 422 2328 
Q 422 3509 836 4129 
Q 1250 4750 2034 4750 
z
" transform="scale(0.015625)"/>
       </defs>
       <use xlink:href="#DejaVuSans-30"/>
      </g>
     </g>
    </g>
    <g id="xtick_2">
     <g id="line2d_2">
      <path d="M 112.987044 307.584 
L 112.987044 41.472 
" clip-path="url(#pb53f968431)" style="fill: none; stroke: #cccccc; stroke-width: 0.8; stroke-linecap: round"/>
     </g>
     <g id="text_2">
      <!-- 25 -->
      <g style="fill: #262626" transform="translate(106.624544 322.182437)scale(0.1 -0.1)">
       <defs>
        <path id="DejaVuSans-32" d="M 1228 531 
L 3431 531 
L 3431 0 
L 469 0 
L 469 531 
Q 828 903 1448 1529 
Q 2069 2156 2228 2338 
Q 2531 2678 2651 2914 
Q 2772 3150 2772 3378 
Q 2772 3750 2511 3984 
Q 2250 4219 1831 4219 
Q 1534 4219 1204 4116 
Q 875 4013 500 3803 
L 500 4441 
Q 881 4594 1212 4672 
Q 1544 4750 1819 4750 
Q 2544 4750 2975 4387 
Q 3406 4025 3406 3419 
Q 3406 3131 3298 2873 
Q 3191 2616 2906 2266 
Q 2828 2175 2409 1742 
Q 1991 1309 1228 531 
z
" transform="scale(0.015625)"/>
        <path id="DejaVuSans-35" d="M 691 4666 
L 3169 4666 
L 3169 4134 
L 1269 4134 
L 1269 2991 
Q 1406 3038 1543 3061 
Q 1681 3084 1819 3084 
Q 2600 3084 3056 2656 
Q 3513 2228 3513 1497 
Q 3513 744 3044 326 
Q 2575 -91 1722 -91 
Q 1428 -91 1123 -41 
Q 819 9 494 109 
L 494 744 
Q 775 591 1075 516 
Q 1375 441 1709 441 
Q 2250 441 2565 725 
Q 2881 1009 2881 1497 
Q 2881 1984 2565 2268 
Q 2250 2553 1709 2553 
Q 1456 2553 1204 2497 
Q 953 2441 691 2322 
L 691 4666 
z
" transform="scale(0.015625)"/>
       </defs>
       <use xlink:href="#DejaVuSans-32"/>
       <use xlink:href="#DejaVuSans-35" x="63.623047"/>
      </g>
     </g>
    </g>
    <g id="xtick_3">
     <g id="line2d_3">
      <path d="M 153.772791 307.584 
L 153.772791 41.472 
" clip-path="url(#pb53f968431)" style="fill: none; stroke: #cccccc; stroke-width: 0.8; stroke-linecap: round"/>
     </g>
     <g id="text_3">
      <!-- 50 -->
      <g style="fill: #262626" transform="translate(147.410291 322.182437)scale(0.1 -0.1)">
       <use xlink:href="#DejaVuSans-35"/>
       <use xlink:href="#DejaVuSans-30" x="63.623047"/>
      </g>
     </g>
    </g>
    <g id="xtick_4">
     <g id="line2d_4">
      <path d="M 194.558538 307.584 
L 194.558538 41.472 
" clip-path="url(#pb53f968431)" style="fill: none; stroke: #cccccc; stroke-width: 0.8; stroke-linecap: round"/>
     </g>
     <g id="text_4">
      <!-- 75 -->
      <g style="fill: #262626" transform="translate(188.196038 322.182437)scale(0.1 -0.1)">
       <defs>
        <path id="DejaVuSans-37" d="M 525 4666 
L 3525 4666 
L 3525 4397 
L 1831 0 
L 1172 0 
L 2766 4134 
L 525 4134 
L 525 4666 
z
" transform="scale(0.015625)"/>
       </defs>
       <use xlink:href="#DejaVuSans-37"/>
       <use xlink:href="#DejaVuSans-35" x="63.623047"/>
      </g>
     </g>
    </g>
    <g id="xtick_5">
     <g id="line2d_5">
      <path d="M 235.344285 307.584 
L 235.344285 41.472 
" clip-path="url(#pb53f968431)" style="fill: none; stroke: #cccccc; stroke-width: 0.8; stroke-linecap: round"/>
     </g>
     <g id="text_5">
      <!-- 100 -->
      <g style="fill: #262626" transform="translate(225.800535 322.182437)scale(0.1 -0.1)">
       <defs>
        <path id="DejaVuSans-31" d="M 794 531 
L 1825 531 
L 1825 4091 
L 703 3866 
L 703 4441 
L 1819 4666 
L 2450 4666 
L 2450 531 
L 3481 531 
L 3481 0 
L 794 0 
L 794 531 
z
" transform="scale(0.015625)"/>
       </defs>
       <use xlink:href="#DejaVuSans-31"/>
       <use xlink:href="#DejaVuSans-30" x="63.623047"/>
       <use xlink:href="#DejaVuSans-30" x="127.246094"/>
      </g>
     </g>
    </g>
    <g id="xtick_6">
     <g id="line2d_6">
      <path d="M 276.130032 307.584 
L 276.130032 41.472 
" clip-path="url(#pb53f968431)" style="fill: none; stroke: #cccccc; stroke-width: 0.8; stroke-linecap: round"/>
     </g>
     <g id="text_6">
      <!-- 125 -->
      <g style="fill: #262626" transform="translate(266.586282 322.182437)scale(0.1 -0.1)">
       <use xlink:href="#DejaVuSans-31"/>
       <use xlink:href="#DejaVuSans-32" x="63.623047"/>
       <use xlink:href="#DejaVuSans-35" x="127.246094"/>
      </g>
     </g>
    </g>
    <g id="xtick_7">
     <g id="line2d_7">
      <path d="M 316.915779 307.584 
L 316.915779 41.472 
" clip-path="url(#pb53f968431)" style="fill: none; stroke: #cccccc; stroke-width: 0.8; stroke-linecap: round"/>
     </g>
     <g id="text_7">
      <!-- 150 -->
      <g style="fill: #262626" transform="translate(307.372029 322.182437)scale(0.1 -0.1)">
       <use xlink:href="#DejaVuSans-31"/>
       <use xlink:href="#DejaVuSans-35" x="63.623047"/>
       <use xlink:href="#DejaVuSans-30" x="127.246094"/>
      </g>
     </g>
    </g>
    <g id="xtick_8">
     <g id="line2d_8">
      <path d="M 357.701526 307.584 
L 357.701526 41.472 
" clip-path="url(#pb53f968431)" style="fill: none; stroke: #cccccc; stroke-width: 0.8; stroke-linecap: round"/>
     </g>
     <g id="text_8">
      <!-- 175 -->
      <g style="fill: #262626" transform="translate(348.157776 322.182437)scale(0.1 -0.1)">
       <use xlink:href="#DejaVuSans-31"/>
       <use xlink:href="#DejaVuSans-37" x="63.623047"/>
       <use xlink:href="#DejaVuSans-35" x="127.246094"/>
      </g>
     </g>
    </g>
    <g id="xtick_9">
     <g id="line2d_9">
      <path d="M 398.487273 307.584 
L 398.487273 41.472 
" clip-path="url(#pb53f968431)" style="fill: none; stroke: #cccccc; stroke-width: 0.8; stroke-linecap: round"/>
     </g>
     <g id="text_9">
      <!-- 200 -->
      <g style="fill: #262626" transform="translate(388.943523 322.182437)scale(0.1 -0.1)">
       <use xlink:href="#DejaVuSans-32"/>
       <use xlink:href="#DejaVuSans-30" x="63.623047"/>
       <use xlink:href="#DejaVuSans-30" x="127.246094"/>
      </g>
     </g>
    </g>
    <g id="text_10">
     <!-- Iteration -->
     <g style="fill: #262626" transform="translate(214.951406 335.860562)scale(0.1 -0.1)">
      <defs>
       <path id="DejaVuSans-49" d="M 628 4666 
L 1259 4666 
L 1259 0 
L 628 0 
L 628 4666 
z
" transform="scale(0.015625)"/>
       <path id="DejaVuSans-74" d="M 1172 4494 
L 1172 3500 
L 2356 3500 
L 2356 3053 
L 1172 3053 
L 1172 1153 
Q 1172 725 1289 603 
Q 1406 481 1766 481 
L 2356 481 
L 2356 0 
L 1766 0 
Q 1100 0 847 248 
Q 594 497 594 1153 
L 594 3053 
L 172 3053 
L 172 3500 
L 594 3500 
L 594 4494 
L 1172 4494 
z
" transform="scale(0.015625)"/>
       <path id="DejaVuSans-65" d="M 3597 1894 
L 3597 1613 
L 953 1613 
Q 991 1019 1311 708 
Q 1631 397 2203 397 
Q 2534 397 2845 478 
Q 3156 559 3463 722 
L 3463 178 
Q 3153 47 2828 -22 
Q 2503 -91 2169 -91 
Q 1331 -91 842 396 
Q 353 884 353 1716 
Q 353 2575 817 3079 
Q 1281 3584 2069 3584 
Q 2775 3584 3186 3129 
Q 3597 2675 3597 1894 
z
M 3022 2063 
Q 3016 2534 2758 2815 
Q 2500 3097 2075 3097 
Q 1594 3097 1305 2825 
Q 1016 2553 972 2059 
L 3022 2063 
z
" transform="scale(0.015625)"/>
       <path id="DejaVuSans-72" d="M 2631 2963 
Q 2534 3019 2420 3045 
Q 2306 3072 2169 3072 
Q 1681 3072 1420 2755 
Q 1159 2438 1159 1844 
L 1159 0 
L 581 0 
L 581 3500 
L 1159 3500 
L 1159 2956 
Q 1341 3275 1631 3429 
Q 1922 3584 2338 3584 
Q 2397 3584 2469 3576 
Q 2541 3569 2628 3553 
L 2631 2963 
z
" transform="scale(0.015625)"/>
       <path id="DejaVuSans-61" d="M 2194 1759 
Q 1497 1759 1228 1600 
Q 959 1441 959 1056 
Q 959 750 1161 570 
Q 1363 391 1709 391 
Q 2188 391 2477 730 
Q 2766 1069 2766 1631 
L 2766 1759 
L 2194 1759 
z
M 3341 1997 
L 3341 0 
L 2766 0 
L 2766 531 
Q 2569 213 2275 61 
Q 1981 -91 1556 -91 
Q 1019 -91 701 211 
Q 384 513 384 1019 
Q 384 1609 779 1909 
Q 1175 2209 1959 2209 
L 2766 2209 
L 2766 2266 
Q 2766 2663 2505 2880 
Q 2244 3097 1772 3097 
Q 1472 3097 1187 3025 
Q 903 2953 641 2809 
L 641 3341 
Q 956 3463 1253 3523 
Q 1550 3584 1831 3584 
Q 2591 3584 2966 3190 
Q 3341 2797 3341 1997 
z
" transform="scale(0.015625)"/>
       <path id="DejaVuSans-69" d="M 603 3500 
L 1178 3500 
L 1178 0 
L 603 0 
L 603 3500 
z
M 603 4863 
L 1178 4863 
L 1178 4134 
L 603 4134 
L 603 4863 
z
" transform="scale(0.015625)"/>
       <path id="DejaVuSans-6f" d="M 1959 3097 
Q 1497 3097 1228 2736 
Q 959 2375 959 1747 
Q 959 1119 1226 758 
Q 1494 397 1959 397 
Q 2419 397 2687 759 
Q 2956 1122 2956 1747 
Q 2956 2369 2687 2733 
Q 2419 3097 1959 3097 
z
M 1959 3584 
Q 2709 3584 3137 3096 
Q 3566 2609 3566 1747 
Q 3566 888 3137 398 
Q 2709 -91 1959 -91 
Q 1206 -91 779 398 
Q 353 888 353 1747 
Q 353 2609 779 3096 
Q 1206 3584 1959 3584 
z
" transform="scale(0.015625)"/>
       <path id="DejaVuSans-6e" d="M 3513 2113 
L 3513 0 
L 2938 0 
L 2938 2094 
Q 2938 2591 2744 2837 
Q 2550 3084 2163 3084 
Q 1697 3084 1428 2787 
Q 1159 2491 1159 1978 
L 1159 0 
L 581 0 
L 581 3500 
L 1159 3500 
L 1159 2956 
Q 1366 3272 1645 3428 
Q 1925 3584 2291 3584 
Q 2894 3584 3203 3211 
Q 3513 2838 3513 2113 
z
" transform="scale(0.015625)"/>
      </defs>
      <use xlink:href="#DejaVuSans-49"/>
      <use xlink:href="#DejaVuSans-74" x="29.492188"/>
      <use xlink:href="#DejaVuSans-65" x="68.701172"/>
      <use xlink:href="#DejaVuSans-72" x="130.224609"/>
      <use xlink:href="#DejaVuSans-61" x="171.337891"/>
      <use xlink:href="#DejaVuSans-74" x="232.617188"/>
      <use xlink:href="#DejaVuSans-69" x="271.826172"/>
      <use xlink:href="#DejaVuSans-6f" x="299.609375"/>
      <use xlink:href="#DejaVuSans-6e" x="360.791016"/>
     </g>
    </g>
   </g>
   <g id="matplotlib.axis_2">
    <g id="ytick_1">
     <g id="line2d_10">
      <path d="M 57.6 287.101151 
L 414.72 287.101151 
" clip-path="url(#pb53f968431)" style="fill: none; stroke: #cccccc; stroke-width: 0.8; stroke-linecap: round"/>
     </g>
     <g id="text_11">
      <!-- 0.475 -->
      <g style="fill: #262626" transform="translate(21.971875 290.90037)scale(0.1 -0.1)">
       <defs>
        <path id="DejaVuSans-2e" d="M 684 794 
L 1344 794 
L 1344 0 
L 684 0 
L 684 794 
z
" transform="scale(0.015625)"/>
        <path id="DejaVuSans-34" d="M 2419 4116 
L 825 1625 
L 2419 1625 
L 2419 4116 
z
M 2253 4666 
L 3047 4666 
L 3047 1625 
L 3713 1625 
L 3713 1100 
L 3047 1100 
L 3047 0 
L 2419 0 
L 2419 1100 
L 313 1100 
L 313 1709 
L 2253 4666 
z
" transform="scale(0.015625)"/>
       </defs>
       <use xlink:href="#DejaVuSans-30"/>
       <use xlink:href="#DejaVuSans-2e" x="63.623047"/>
       <use xlink:href="#DejaVuSans-34" x="95.410156"/>
       <use xlink:href="#DejaVuSans-37" x="159.033203"/>
       <use xlink:href="#DejaVuSans-35" x="222.65625"/>
      </g>
     </g>
    </g>
    <g id="ytick_2">
     <g id="line2d_11">
      <path d="M 57.6 257.470727 
L 414.72 257.470727 
" clip-path="url(#pb53f968431)" style="fill: none; stroke: #cccccc; stroke-width: 0.8; stroke-linecap: round"/>
     </g>
     <g id="text_12">
      <!-- 0.500 -->
      <g style="fill: #262626" transform="translate(21.971875 261.269945)scale(0.1 -0.1)">
       <use xlink:href="#DejaVuSans-30"/>
       <use xlink:href="#DejaVuSans-2e" x="63.623047"/>
       <use xlink:href="#DejaVuSans-35" x="95.410156"/>
       <use xlink:href="#DejaVuSans-30" x="159.033203"/>
       <use xlink:href="#DejaVuSans-30" x="222.65625"/>
      </g>
     </g>
    </g>
    <g id="ytick_3">
     <g id="line2d_12">
      <path d="M 57.6 227.840302 
L 414.72 227.840302 
" clip-path="url(#pb53f968431)" style="fill: none; stroke: #cccccc; stroke-width: 0.8; stroke-linecap: round"/>
     </g>
     <g id="text_13">
      <!-- 0.525 -->
      <g style="fill: #262626" transform="translate(21.971875 231.639521)scale(0.1 -0.1)">
       <use xlink:href="#DejaVuSans-30"/>
       <use xlink:href="#DejaVuSans-2e" x="63.623047"/>
       <use xlink:href="#DejaVuSans-35" x="95.410156"/>
       <use xlink:href="#DejaVuSans-32" x="159.033203"/>
       <use xlink:href="#DejaVuSans-35" x="222.65625"/>
      </g>
     </g>
    </g>
    <g id="ytick_4">
     <g id="line2d_13">
      <path d="M 57.6 198.209878 
L 414.72 198.209878 
" clip-path="url(#pb53f968431)" style="fill: none; stroke: #cccccc; stroke-width: 0.8; stroke-linecap: round"/>
     </g>
     <g id="text_14">
      <!-- 0.550 -->
      <g style="fill: #262626" transform="translate(21.971875 202.009097)scale(0.1 -0.1)">
       <use xlink:href="#DejaVuSans-30"/>
       <use xlink:href="#DejaVuSans-2e" x="63.623047"/>
       <use xlink:href="#DejaVuSans-35" x="95.410156"/>
       <use xlink:href="#DejaVuSans-35" x="159.033203"/>
       <use xlink:href="#DejaVuSans-30" x="222.65625"/>
      </g>
     </g>
    </g>
    <g id="ytick_5">
     <g id="line2d_14">
      <path d="M 57.6 168.579454 
L 414.72 168.579454 
" clip-path="url(#pb53f968431)" style="fill: none; stroke: #cccccc; stroke-width: 0.8; stroke-linecap: round"/>
     </g>
     <g id="text_15">
      <!-- 0.575 -->
      <g style="fill: #262626" transform="translate(21.971875 172.378672)scale(0.1 -0.1)">
       <use xlink:href="#DejaVuSans-30"/>
       <use xlink:href="#DejaVuSans-2e" x="63.623047"/>
       <use xlink:href="#DejaVuSans-35" x="95.410156"/>
       <use xlink:href="#DejaVuSans-37" x="159.033203"/>
       <use xlink:href="#DejaVuSans-35" x="222.65625"/>
      </g>
     </g>
    </g>
    <g id="ytick_6">
     <g id="line2d_15">
      <path d="M 57.6 138.949029 
L 414.72 138.949029 
" clip-path="url(#pb53f968431)" style="fill: none; stroke: #cccccc; stroke-width: 0.8; stroke-linecap: round"/>
     </g>
     <g id="text_16">
      <!-- 0.600 -->
      <g style="fill: #262626" transform="translate(21.971875 142.748248)scale(0.1 -0.1)">
       <defs>
        <path id="DejaVuSans-36" d="M 2113 2584 
Q 1688 2584 1439 2293 
Q 1191 2003 1191 1497 
Q 1191 994 1439 701 
Q 1688 409 2113 409 
Q 2538 409 2786 701 
Q 3034 994 3034 1497 
Q 3034 2003 2786 2293 
Q 2538 2584 2113 2584 
z
M 3366 4563 
L 3366 3988 
Q 3128 4100 2886 4159 
Q 2644 4219 2406 4219 
Q 1781 4219 1451 3797 
Q 1122 3375 1075 2522 
Q 1259 2794 1537 2939 
Q 1816 3084 2150 3084 
Q 2853 3084 3261 2657 
Q 3669 2231 3669 1497 
Q 3669 778 3244 343 
Q 2819 -91 2113 -91 
Q 1303 -91 875 529 
Q 447 1150 447 2328 
Q 447 3434 972 4092 
Q 1497 4750 2381 4750 
Q 2619 4750 2861 4703 
Q 3103 4656 3366 4563 
z
" transform="scale(0.015625)"/>
       </defs>
       <use xlink:href="#DejaVuSans-30"/>
       <use xlink:href="#DejaVuSans-2e" x="63.623047"/>
       <use xlink:href="#DejaVuSans-36" x="95.410156"/>
       <use xlink:href="#DejaVuSans-30" x="159.033203"/>
       <use xlink:href="#DejaVuSans-30" x="222.65625"/>
      </g>
     </g>
    </g>
    <g id="ytick_7">
     <g id="line2d_16">
      <path d="M 57.6 109.318605 
L 414.72 109.318605 
" clip-path="url(#pb53f968431)" style="fill: none; stroke: #cccccc; stroke-width: 0.8; stroke-linecap: round"/>
     </g>
     <g id="text_17">
      <!-- 0.625 -->
      <g style="fill: #262626" transform="translate(21.971875 113.117824)scale(0.1 -0.1)">
       <use xlink:href="#DejaVuSans-30"/>
       <use xlink:href="#DejaVuSans-2e" x="63.623047"/>
       <use xlink:href="#DejaVuSans-36" x="95.410156"/>
       <use xlink:href="#DejaVuSans-32" x="159.033203"/>
       <use xlink:href="#DejaVuSans-35" x="222.65625"/>
      </g>
     </g>
    </g>
    <g id="ytick_8">
     <g id="line2d_17">
      <path d="M 57.6 79.688181 
L 414.72 79.688181 
" clip-path="url(#pb53f968431)" style="fill: none; stroke: #cccccc; stroke-width: 0.8; stroke-linecap: round"/>
     </g>
     <g id="text_18">
      <!-- 0.650 -->
      <g style="fill: #262626" transform="translate(21.971875 83.4874)scale(0.1 -0.1)">
       <use xlink:href="#DejaVuSans-30"/>
       <use xlink:href="#DejaVuSans-2e" x="63.623047"/>
       <use xlink:href="#DejaVuSans-36" x="95.410156"/>
       <use xlink:href="#DejaVuSans-35" x="159.033203"/>
       <use xlink:href="#DejaVuSans-30" x="222.65625"/>
      </g>
     </g>
    </g>
    <g id="ytick_9">
     <g id="line2d_18">
      <path d="M 57.6 50.057756 
L 414.72 50.057756 
" clip-path="url(#pb53f968431)" style="fill: none; stroke: #cccccc; stroke-width: 0.8; stroke-linecap: round"/>
     </g>
     <g id="text_19">
      <!-- 0.675 -->
      <g style="fill: #262626" transform="translate(21.971875 53.856975)scale(0.1 -0.1)">
       <use xlink:href="#DejaVuSans-30"/>
       <use xlink:href="#DejaVuSans-2e" x="63.623047"/>
       <use xlink:href="#DejaVuSans-36" x="95.410156"/>
       <use xlink:href="#DejaVuSans-37" x="159.033203"/>
       <use xlink:href="#DejaVuSans-35" x="222.65625"/>
      </g>
     </g>
    </g>
    <g id="text_20">
     <!-- Auroc -->
     <g style="fill: #262626" transform="translate(15.892188 188.868625)rotate(-90)scale(0.1 -0.1)">
      <defs>
       <path id="DejaVuSans-41" d="M 2188 4044 
L 1331 1722 
L 3047 1722 
L 2188 4044 
z
M 1831 4666 
L 2547 4666 
L 4325 0 
L 3669 0 
L 3244 1197 
L 1141 1197 
L 716 0 
L 50 0 
L 1831 4666 
z
" transform="scale(0.015625)"/>
       <path id="DejaVuSans-75" d="M 544 1381 
L 544 3500 
L 1119 3500 
L 1119 1403 
Q 1119 906 1312 657 
Q 1506 409 1894 409 
Q 2359 409 2629 706 
Q 2900 1003 2900 1516 
L 2900 3500 
L 3475 3500 
L 3475 0 
L 2900 0 
L 2900 538 
Q 2691 219 2414 64 
Q 2138 -91 1772 -91 
Q 1169 -91 856 284 
Q 544 659 544 1381 
z
M 1991 3584 
L 1991 3584 
z
" transform="scale(0.015625)"/>
       <path id="DejaVuSans-63" d="M 3122 3366 
L 3122 2828 
Q 2878 2963 2633 3030 
Q 2388 3097 2138 3097 
Q 1578 3097 1268 2742 
Q 959 2388 959 1747 
Q 959 1106 1268 751 
Q 1578 397 2138 397 
Q 2388 397 2633 464 
Q 2878 531 3122 666 
L 3122 134 
Q 2881 22 2623 -34 
Q 2366 -91 2075 -91 
Q 1284 -91 818 406 
Q 353 903 353 1747 
Q 353 2603 823 3093 
Q 1294 3584 2113 3584 
Q 2378 3584 2631 3529 
Q 2884 3475 3122 3366 
z
" transform="scale(0.015625)"/>
      </defs>
      <use xlink:href="#DejaVuSans-41"/>
      <use xlink:href="#DejaVuSans-75" x="68.408203"/>
      <use xlink:href="#DejaVuSans-72" x="131.787109"/>
      <use xlink:href="#DejaVuSans-6f" x="170.650391"/>
      <use xlink:href="#DejaVuSans-63" x="231.832031"/>
     </g>
    </g>
   </g>
   <g id="PolyCollection_1">
    <defs>
     <path id="mb4eef976c5" d="M 73.832727 -227.53569 
L 73.832727 -80.859349 
L 75.464157 -147.516013 
L 77.095587 -118.367681 
L 78.727017 -152.450619 
L 80.358447 -129.936546 
L 81.989877 -126.103228 
L 83.621307 -93.987563 
L 85.252736 -130.890473 
L 86.884166 -152.867402 
L 88.515596 -116.80709 
L 90.147026 -126.315022 
L 91.778456 -117.345336 
L 93.409886 -145.506447 
L 95.041316 -84.889839 
L 96.672746 -144.755145 
L 98.304175 -148.654299 
L 99.935605 -100.877337 
L 101.567035 -141.786134 
L 103.198465 -94.365263 
L 104.829895 -121.10641 
L 106.461325 -116.320254 
L 108.092755 -99.201504 
L 109.724185 -153.57311 
L 111.355614 -130.28374 
L 112.987044 -125.199566 
L 114.618474 -120.932405 
L 116.249904 -116.665293 
L 117.881334 -125.436973 
L 119.512764 -118.556687 
L 121.144194 -144.299945 
L 122.775624 -117.755076 
L 124.407053 -97.468151 
L 126.038483 -156.263012 
L 127.669913 -125.976518 
L 129.301343 -96.56672 
L 130.932773 -158.778926 
L 132.564203 -67.942436 
L 134.195633 -103.002547 
L 135.827063 -53.082834 
L 137.458492 -165.618292 
L 139.089922 -120.090309 
L 140.721352 -146.446426 
L 142.352782 -138.95055 
L 143.984212 -117.102203 
L 145.615642 -139.085828 
L 147.247072 -143.206961 
L 148.878502 -135.272952 
L 150.509931 -124.10583 
L 152.141361 -108.491622 
L 153.772791 -130.618498 
L 155.404221 -113.575235 
L 157.035651 -112.488797 
L 158.667081 -144.72137 
L 160.298511 -117.036314 
L 161.929941 -129.741621 
L 163.56137 -155.742975 
L 165.1928 -123.10355 
L 166.82423 -97.608989 
L 168.45566 -99.020342 
L 170.08709 -108.322754 
L 171.71852 -102.769803 
L 173.34995 -124.290803 
L 174.98138 -113.137529 
L 176.61281 -97.589047 
L 178.244239 -122.6873 
L 179.875669 -104.337715 
L 181.507099 -138.550317 
L 183.138529 -115.630566 
L 184.769959 -111.171303 
L 186.401389 -89.973264 
L 188.032819 -124.967974 
L 189.664249 -136.791592 
L 191.295678 -85.028757 
L 192.927108 -94.457777 
L 194.558538 -82.230085 
L 196.189968 -128.233505 
L 197.821398 -129.463472 
L 199.452828 -93.070226 
L 201.084258 -74.42577 
L 202.715688 -121.416263 
L 204.347117 -87.158164 
L 205.978547 -123.227294 
L 207.609977 -136.890612 
L 209.241407 -189.679241 
L 210.872837 -133.442258 
L 212.504267 -92.532365 
L 214.135697 -58.090358 
L 215.767127 -130.44448 
L 217.398556 -120.789375 
L 219.029986 -108.570582 
L 220.661416 -111.993761 
L 222.292846 -84.666514 
L 223.924276 -137.483195 
L 225.555706 -113.09142 
L 227.187136 -142.95185 
L 228.818566 -50.112 
L 230.449995 -111.096113 
L 232.081425 -114.623097 
L 233.712855 -110.114701 
L 235.344285 -98.617882 
L 236.975715 -87.37058 
L 238.607145 -143.106331 
L 240.238575 -133.129693 
L 241.870005 -136.538946 
L 243.501434 -111.454431 
L 245.132864 -99.634963 
L 246.764294 -138.836117 
L 248.395724 -108.241706 
L 250.027154 -100.340947 
L 251.658584 -161.09225 
L 253.290014 -179.818517 
L 254.921444 -111.495669 
L 256.552873 -67.645168 
L 258.184303 -109.326177 
L 259.815733 -93.470272 
L 261.447163 -99.809522 
L 263.078593 -147.881166 
L 264.710023 -130.073169 
L 266.341453 -118.37076 
L 267.972883 -139.788501 
L 269.604312 -111.299772 
L 271.235742 -133.799237 
L 272.867172 -109.346159 
L 274.498602 -153.84251 
L 276.130032 -132.00024 
L 277.761462 -77.528971 
L 279.392892 -100.379113 
L 281.024322 -142.453351 
L 282.655751 -102.355843 
L 284.287181 -100.804445 
L 285.918611 -142.234587 
L 287.550041 -125.513382 
L 289.181471 -73.514895 
L 290.812901 -60.140349 
L 292.444331 -155.219763 
L 294.075761 -144.300567 
L 295.70719 -135.85841 
L 297.33862 -98.181369 
L 298.97005 -155.455917 
L 300.60148 -125.518102 
L 302.23291 -138.885405 
L 303.86434 -110.175325 
L 305.49577 -134.798323 
L 307.1272 -139.029536 
L 308.75863 -125.432905 
L 310.390059 -107.745175 
L 312.021489 -116.565191 
L 313.652919 -131.380451 
L 315.284349 -133.482272 
L 316.915779 -108.113216 
L 318.547209 -114.989917 
L 320.178639 -96.606728 
L 321.810069 -127.978438 
L 323.441498 -155.336426 
L 325.072928 -125.956626 
L 326.704358 -101.386994 
L 328.335788 -110.682315 
L 329.967218 -117.340566 
L 331.598648 -118.648469 
L 333.230078 -133.620715 
L 334.861508 -114.438889 
L 336.492937 -127.907587 
L 338.124367 -95.599316 
L 339.755797 -138.227525 
L 341.387227 -125.362452 
L 343.018657 -98.101282 
L 344.650087 -161.724257 
L 346.281517 -129.419726 
L 347.912947 -121.559668 
L 349.544376 -114.451806 
L 351.175806 -104.968035 
L 352.807236 -147.420701 
L 354.438666 -126.890213 
L 356.070096 -160.260004 
L 357.701526 -122.107269 
L 359.332956 -117.560219 
L 360.964386 -122.451772 
L 362.595815 -142.76289 
L 364.227245 -65.99981 
L 365.858675 -85.04452 
L 367.490105 -135.079155 
L 369.121535 -97.377786 
L 370.752965 -124.878579 
L 372.384395 -158.356167 
L 374.015825 -152.56359 
L 375.647254 -118.476836 
L 377.278684 -150.993746 
L 378.910114 -110.732188 
L 380.541544 -127.896879 
L 382.172974 -92.399004 
L 383.804404 -122.867397 
L 385.435834 -129.549342 
L 387.067264 -105.12159 
L 388.698693 -111.498932 
L 390.330123 -53.629465 
L 391.961553 -110.270034 
L 393.592983 -169.633629 
L 395.224413 -80.261139 
L 396.855843 -149.140379 
L 398.487273 -113.41085 
L 398.487273 -221.202479 
L 398.487273 -221.202479 
L 396.855843 -207.86462 
L 395.224413 -231.854811 
L 393.592983 -251.851336 
L 391.961553 -212.365034 
L 390.330123 -231.449825 
L 388.698693 -226.69207 
L 387.067264 -269.635864 
L 385.435834 -220.399519 
L 383.804404 -206.622279 
L 382.172974 -189.515014 
L 380.541544 -247.521539 
L 378.910114 -202.923652 
L 377.278684 -219.491205 
L 375.647254 -235.781972 
L 374.015825 -213.688855 
L 372.384395 -230.794112 
L 370.752965 -210.072124 
L 369.121535 -248.988628 
L 367.490105 -267.183582 
L 365.858675 -230.907267 
L 364.227245 -200.256198 
L 362.595815 -199.943677 
L 360.964386 -227.930791 
L 359.332956 -210.156792 
L 357.701526 -249.457741 
L 356.070096 -238.137639 
L 354.438666 -292.032 
L 352.807236 -217.331685 
L 351.175806 -178.954592 
L 349.544376 -214.086564 
L 347.912947 -236.330965 
L 346.281517 -221.082578 
L 344.650087 -186.687059 
L 343.018657 -198.567666 
L 341.387227 -209.967144 
L 339.755797 -206.887284 
L 338.124367 -186.165251 
L 336.492937 -235.366633 
L 334.861508 -215.956295 
L 333.230078 -216.904385 
L 331.598648 -213.275907 
L 329.967218 -247.072307 
L 328.335788 -210.148211 
L 326.704358 -218.458978 
L 325.072928 -197.088744 
L 323.441498 -253.482745 
L 321.810069 -169.358592 
L 320.178639 -215.720929 
L 318.547209 -215.312272 
L 316.915779 -203.924552 
L 315.284349 -220.48175 
L 313.652919 -186.440452 
L 312.021489 -235.410261 
L 310.390059 -237.586814 
L 308.75863 -200.432312 
L 307.1272 -182.957872 
L 305.49577 -245.005878 
L 303.86434 -206.965686 
L 302.23291 -193.831897 
L 300.60148 -220.894975 
L 298.97005 -201.642942 
L 297.33862 -192.570409 
L 295.70719 -234.508158 
L 294.075761 -206.373736 
L 292.444331 -220.930681 
L 290.812901 -230.33756 
L 289.181471 -210.739922 
L 287.550041 -259.991947 
L 285.918611 -199.686831 
L 284.287181 -225.806913 
L 282.655751 -164.145202 
L 281.024322 -214.376563 
L 279.392892 -215.356728 
L 277.761462 -178.671069 
L 276.130032 -252.956871 
L 274.498602 -278.00222 
L 272.867172 -204.059006 
L 271.235742 -218.404546 
L 269.604312 -187.506538 
L 267.972883 -245.272674 
L 266.341453 -211.127063 
L 264.710023 -199.230476 
L 263.078593 -215.228666 
L 261.447163 -193.149955 
L 259.815733 -244.387389 
L 258.184303 -215.954653 
L 256.552873 -212.584818 
L 254.921444 -222.4074 
L 253.290014 -221.617634 
L 251.658584 -215.526749 
L 250.027154 -233.083117 
L 248.395724 -195.166292 
L 246.764294 -205.526008 
L 245.132864 -237.662671 
L 243.501434 -243.800081 
L 241.870005 -198.397603 
L 240.238575 -192.061721 
L 238.607145 -179.219604 
L 236.975715 -217.406296 
L 235.344285 -210.651886 
L 233.712855 -264.938609 
L 232.081425 -212.252186 
L 230.449995 -242.058482 
L 228.818566 -246.134232 
L 227.187136 -192.77384 
L 225.555706 -182.539399 
L 223.924276 -228.846567 
L 222.292846 -230.530079 
L 220.661416 -214.668456 
L 219.029986 -255.594331 
L 217.398556 -193.339011 
L 215.767127 -220.82528 
L 214.135697 -214.035402 
L 212.504267 -220.91547 
L 210.872837 -219.948858 
L 209.241407 -236.896665 
L 207.609977 -196.436464 
L 205.978547 -206.814344 
L 204.347117 -234.371264 
L 202.715688 -179.875399 
L 201.084258 -229.497856 
L 199.452828 -188.217639 
L 197.821398 -215.18558 
L 196.189968 -204.679497 
L 194.558538 -196.373475 
L 192.927108 -271.817917 
L 191.295678 -196.328361 
L 189.664249 -233.662704 
L 188.032819 -255.13953 
L 186.401389 -213.388565 
L 184.769959 -232.294902 
L 183.138529 -243.779094 
L 181.507099 -242.640744 
L 179.875669 -220.611254 
L 178.244239 -204.60753 
L 176.61281 -226.527302 
L 174.98138 -252.618257 
L 173.34995 -200.283676 
L 171.71852 -236.899902 
L 170.08709 -219.070049 
L 168.45566 -176.240255 
L 166.82423 -198.599962 
L 165.1928 -166.762485 
L 163.56137 -206.652359 
L 161.929941 -187.067778 
L 160.298511 -278.729036 
L 158.667081 -258.387745 
L 157.035651 -226.611458 
L 155.404221 -209.553214 
L 153.772791 -227.501042 
L 152.141361 -234.12372 
L 150.509931 -212.493436 
L 148.878502 -220.360206 
L 147.247072 -256.200665 
L 145.615642 -269.560563 
L 143.984212 -217.637575 
L 142.352782 -202.365043 
L 140.721352 -223.796039 
L 139.089922 -246.643694 
L 137.458492 -202.78707 
L 135.827063 -220.809763 
L 134.195633 -186.002749 
L 132.564203 -237.579099 
L 130.932773 -258.436047 
L 129.301343 -236.575395 
L 127.669913 -207.295832 
L 126.038483 -221.862301 
L 124.407053 -229.770881 
L 122.775624 -215.559657 
L 121.144194 -212.074335 
L 119.512764 -237.081409 
L 117.881334 -232.3433 
L 116.249904 -227.020602 
L 114.618474 -166.887453 
L 112.987044 -202.469342 
L 111.355614 -207.158035 
L 109.724185 -228.438858 
L 108.092755 -263.217902 
L 106.461325 -243.334402 
L 104.829895 -254.996302 
L 103.198465 -224.995037 
L 101.567035 -245.033963 
L 99.935605 -178.24465 
L 98.304175 -270.340087 
L 96.672746 -199.141635 
L 95.041316 -237.653687 
L 93.409886 -245.262891 
L 91.778456 -268.611307 
L 90.147026 -238.659483 
L 88.515596 -211.782016 
L 86.884166 -219.703229 
L 85.252736 -188.445385 
L 83.621307 -235.846359 
L 81.989877 -193.686906 
L 80.358447 -207.21172 
L 78.727017 -188.509289 
L 77.095587 -201.521703 
L 75.464157 -235.383975 
L 73.832727 -227.53569 
z
" style="stroke: #ffffff; stroke-opacity: 0.2"/>
    </defs>
    <g clip-path="url(#pb53f968431)">
     <use xlink:href="#mb4eef976c5" x="0" y="345.6" style="fill: #1f77b4; fill-opacity: 0.2; stroke: #ffffff; stroke-opacity: 0.2"/>
    </g>
   </g>
   <g id="line2d_19">
    <path d="M 73.832727 191.40248 
L 75.464157 154.150006 
L 77.095587 185.655308 
L 78.727017 175.120046 
L 80.358447 177.025867 
L 81.989877 185.704933 
L 83.621307 180.683039 
L 85.252736 185.932071 
L 86.884166 159.314684 
L 88.515596 181.305447 
L 90.147026 163.112748 
L 91.778456 152.621679 
L 93.409886 150.215331 
L 95.041316 184.328237 
L 96.672746 173.65161 
L 98.304175 136.102807 
L 99.935605 206.039006 
L 101.567035 152.189952 
L 103.198465 185.91985 
L 104.829895 157.548644 
L 106.461325 165.772672 
L 108.092755 164.390297 
L 109.724185 154.594016 
L 111.355614 176.879112 
L 112.987044 181.765546 
L 114.618474 201.690071 
L 116.249904 173.757052 
L 117.881334 166.709864 
L 119.512764 167.780952 
L 121.144194 167.41286 
L 122.775624 178.942634 
L 124.407053 181.980484 
L 126.038483 156.537344 
L 127.669913 178.963825 
L 129.301343 179.028942 
L 130.932773 136.992514 
L 132.564203 192.839232 
L 134.195633 201.097352 
L 135.827063 208.653702 
L 137.458492 161.397319 
L 139.089922 162.232999 
L 140.721352 160.478767 
L 142.352782 174.942203 
L 143.984212 178.230111 
L 145.615642 141.276805 
L 147.247072 145.896187 
L 148.878502 167.783421 
L 150.509931 177.300367 
L 152.141361 174.292329 
L 153.772791 166.54023 
L 155.404221 184.035776 
L 157.035651 176.049873 
L 158.667081 144.045443 
L 160.298511 147.717325 
L 161.929941 187.195301 
L 163.56137 164.402333 
L 165.1928 200.666982 
L 166.82423 197.495524 
L 168.45566 207.969702 
L 170.08709 181.903598 
L 171.71852 175.765147 
L 173.34995 183.31276 
L 174.98138 162.722107 
L 176.61281 183.541826 
L 178.244239 181.952585 
L 179.875669 183.125515 
L 181.507099 155.00447 
L 183.138529 165.89517 
L 184.769959 173.866898 
L 186.401389 193.919085 
L 188.032819 155.546248 
L 189.664249 160.372852 
L 191.295678 204.921441 
L 192.927108 162.462153 
L 194.558538 206.29822 
L 196.189968 179.143499 
L 197.821398 173.275474 
L 199.452828 204.956067 
L 201.084258 193.638187 
L 202.715688 194.954169 
L 204.347117 184.835286 
L 205.978547 180.579181 
L 207.609977 178.936462 
L 209.241407 132.312047 
L 210.872837 168.904442 
L 214.135697 209.53712 
L 215.767127 169.96512 
L 217.398556 188.535807 
L 219.029986 163.517543 
L 220.661416 182.268892 
L 222.292846 188.001703 
L 223.924276 162.435119 
L 225.555706 197.78459 
L 227.187136 177.737155 
L 228.818566 197.476884 
L 230.449995 169.022702 
L 232.081425 182.162359 
L 233.712855 158.073345 
L 235.344285 190.965116 
L 236.975715 193.211562 
L 238.607145 184.437033 
L 240.238575 183.004293 
L 241.870005 178.131726 
L 243.501434 167.972744 
L 245.132864 176.951183 
L 246.764294 173.418937 
L 248.395724 193.896001 
L 250.027154 178.887968 
L 251.658584 157.2905 
L 253.290014 144.881924 
L 254.921444 178.648465 
L 256.552873 205.485007 
L 258.184303 182.959585 
L 259.815733 176.67117 
L 261.447163 199.120262 
L 263.078593 164.045084 
L 264.710023 180.948178 
L 266.341453 180.851088 
L 267.972883 153.069413 
L 269.604312 196.196845 
L 271.235742 169.498108 
L 272.867172 188.897418 
L 274.498602 129.677635 
L 276.130032 153.121445 
L 277.761462 217.49998 
L 279.392892 187.732079 
L 281.024322 167.185043 
L 282.655751 212.349477 
L 284.287181 182.294321 
L 285.918611 174.639291 
L 287.550041 152.847336 
L 289.181471 203.472592 
L 290.812901 200.361045 
L 292.444331 157.524778 
L 294.075761 170.262848 
L 295.70719 160.416716 
L 297.33862 200.224111 
L 298.97005 167.050571 
L 300.60148 172.393462 
L 302.23291 179.241349 
L 303.86434 187.029494 
L 305.49577 155.697899 
L 307.1272 184.606296 
L 308.75863 182.667392 
L 310.390059 172.934006 
L 312.021489 169.612274 
L 313.652919 186.689548 
L 315.284349 168.617989 
L 316.915779 189.581116 
L 318.547209 180.448906 
L 320.178639 189.436171 
L 321.810069 196.931485 
L 323.441498 141.190414 
L 325.072928 184.077315 
L 326.704358 185.677014 
L 328.335788 185.184737 
L 329.967218 163.393564 
L 331.598648 179.637812 
L 333.230078 170.33745 
L 334.861508 180.402408 
L 336.492937 163.96289 
L 338.124367 204.717716 
L 339.755797 173.042596 
L 341.387227 177.935202 
L 343.018657 197.265526 
L 344.650087 171.394342 
L 346.281517 170.348848 
L 347.912947 166.654684 
L 349.544376 181.330815 
L 351.175806 203.638687 
L 352.807236 163.223807 
L 354.438666 136.138894 
L 356.070096 146.401178 
L 357.701526 159.817495 
L 359.332956 181.741495 
L 360.964386 170.408719 
L 362.595815 174.246716 
L 364.227245 212.471996 
L 365.858675 187.624107 
L 367.490105 144.468631 
L 369.121535 172.416793 
L 370.752965 178.124648 
L 372.384395 151.02486 
L 374.015825 162.473777 
L 375.647254 168.470596 
L 377.278684 160.357524 
L 378.910114 188.77208 
L 380.541544 157.890791 
L 382.172974 204.642991 
L 383.804404 180.855162 
L 385.435834 170.62557 
L 387.067264 158.221273 
L 388.698693 176.504499 
L 390.330123 203.060355 
L 391.961553 184.282466 
L 393.592983 134.857517 
L 395.224413 189.542025 
L 396.855843 167.0975 
L 398.487273 178.293335 
L 398.487273 178.293335 
" clip-path="url(#pb53f968431)" style="fill: none; stroke: #1f77b4; stroke-width: 1.5; stroke-linecap: round"/>
   </g>
   <g id="LineCollection_1">
    <path d="M 398.487273 295.488 
L 398.487273 53.568 
" clip-path="url(#pb53f968431)" style="fill: none; stroke-dasharray: 5.55,2.4; stroke-dashoffset: 0; stroke: #1f77b4; stroke-width: 1.5"/>
   </g>
   <g id="patch_3">
    <path d="M 57.6 307.584 
L 57.6 41.472 
" style="fill: none; stroke: #cccccc; stroke-width: 0.8; stroke-linejoin: miter; stroke-linecap: square"/>
   </g>
   <g id="patch_4">
    <path d="M 414.72 307.584 
L 414.72 41.472 
" style="fill: none; stroke: #cccccc; stroke-width: 0.8; stroke-linejoin: miter; stroke-linecap: square"/>
   </g>
   <g id="patch_5">
    <path d="M 57.6 307.584 
L 414.72 307.584 
" style="fill: none; stroke: #cccccc; stroke-width: 0.8; stroke-linejoin: miter; stroke-linecap: square"/>
   </g>
   <g id="patch_6">
    <path d="M 57.6 41.472 
L 414.72 41.472 
" style="fill: none; stroke: #cccccc; stroke-width: 0.8; stroke-linejoin: miter; stroke-linecap: square"/>
   </g>
   <g id="text_21">
    <!-- Model performance vs. # of iterations -->
    <g style="fill: #262626" transform="translate(122.314688 35.472)scale(0.12 -0.12)">
     <defs>
      <path id="DejaVuSans-4d" d="M 628 4666 
L 1569 4666 
L 2759 1491 
L 3956 4666 
L 4897 4666 
L 4897 0 
L 4281 0 
L 4281 4097 
L 3078 897 
L 2444 897 
L 1241 4097 
L 1241 0 
L 628 0 
L 628 4666 
z
" transform="scale(0.015625)"/>
      <path id="DejaVuSans-64" d="M 2906 2969 
L 2906 4863 
L 3481 4863 
L 3481 0 
L 2906 0 
L 2906 525 
Q 2725 213 2448 61 
Q 2172 -91 1784 -91 
Q 1150 -91 751 415 
Q 353 922 353 1747 
Q 353 2572 751 3078 
Q 1150 3584 1784 3584 
Q 2172 3584 2448 3432 
Q 2725 3281 2906 2969 
z
M 947 1747 
Q 947 1113 1208 752 
Q 1469 391 1925 391 
Q 2381 391 2643 752 
Q 2906 1113 2906 1747 
Q 2906 2381 2643 2742 
Q 2381 3103 1925 3103 
Q 1469 3103 1208 2742 
Q 947 2381 947 1747 
z
" transform="scale(0.015625)"/>
      <path id="DejaVuSans-6c" d="M 603 4863 
L 1178 4863 
L 1178 0 
L 603 0 
L 603 4863 
z
" transform="scale(0.015625)"/>
      <path id="DejaVuSans-20" transform="scale(0.015625)"/>
      <path id="DejaVuSans-70" d="M 1159 525 
L 1159 -1331 
L 581 -1331 
L 581 3500 
L 1159 3500 
L 1159 2969 
Q 1341 3281 1617 3432 
Q 1894 3584 2278 3584 
Q 2916 3584 3314 3078 
Q 3713 2572 3713 1747 
Q 3713 922 3314 415 
Q 2916 -91 2278 -91 
Q 1894 -91 1617 61 
Q 1341 213 1159 525 
z
M 3116 1747 
Q 3116 2381 2855 2742 
Q 2594 3103 2138 3103 
Q 1681 3103 1420 2742 
Q 1159 2381 1159 1747 
Q 1159 1113 1420 752 
Q 1681 391 2138 391 
Q 2594 391 2855 752 
Q 3116 1113 3116 1747 
z
" transform="scale(0.015625)"/>
      <path id="DejaVuSans-66" d="M 2375 4863 
L 2375 4384 
L 1825 4384 
Q 1516 4384 1395 4259 
Q 1275 4134 1275 3809 
L 1275 3500 
L 2222 3500 
L 2222 3053 
L 1275 3053 
L 1275 0 
L 697 0 
L 697 3053 
L 147 3053 
L 147 3500 
L 697 3500 
L 697 3744 
Q 697 4328 969 4595 
Q 1241 4863 1831 4863 
L 2375 4863 
z
" transform="scale(0.015625)"/>
      <path id="DejaVuSans-6d" d="M 3328 2828 
Q 3544 3216 3844 3400 
Q 4144 3584 4550 3584 
Q 5097 3584 5394 3201 
Q 5691 2819 5691 2113 
L 5691 0 
L 5113 0 
L 5113 2094 
Q 5113 2597 4934 2840 
Q 4756 3084 4391 3084 
Q 3944 3084 3684 2787 
Q 3425 2491 3425 1978 
L 3425 0 
L 2847 0 
L 2847 2094 
Q 2847 2600 2669 2842 
Q 2491 3084 2119 3084 
Q 1678 3084 1418 2786 
Q 1159 2488 1159 1978 
L 1159 0 
L 581 0 
L 581 3500 
L 1159 3500 
L 1159 2956 
Q 1356 3278 1631 3431 
Q 1906 3584 2284 3584 
Q 2666 3584 2933 3390 
Q 3200 3197 3328 2828 
z
" transform="scale(0.015625)"/>
      <path id="DejaVuSans-76" d="M 191 3500 
L 800 3500 
L 1894 563 
L 2988 3500 
L 3597 3500 
L 2284 0 
L 1503 0 
L 191 3500 
z
" transform="scale(0.015625)"/>
      <path id="DejaVuSans-73" d="M 2834 3397 
L 2834 2853 
Q 2591 2978 2328 3040 
Q 2066 3103 1784 3103 
Q 1356 3103 1142 2972 
Q 928 2841 928 2578 
Q 928 2378 1081 2264 
Q 1234 2150 1697 2047 
L 1894 2003 
Q 2506 1872 2764 1633 
Q 3022 1394 3022 966 
Q 3022 478 2636 193 
Q 2250 -91 1575 -91 
Q 1294 -91 989 -36 
Q 684 19 347 128 
L 347 722 
Q 666 556 975 473 
Q 1284 391 1588 391 
Q 1994 391 2212 530 
Q 2431 669 2431 922 
Q 2431 1156 2273 1281 
Q 2116 1406 1581 1522 
L 1381 1569 
Q 847 1681 609 1914 
Q 372 2147 372 2553 
Q 372 3047 722 3315 
Q 1072 3584 1716 3584 
Q 2034 3584 2315 3537 
Q 2597 3491 2834 3397 
z
" transform="scale(0.015625)"/>
      <path id="DejaVuSans-23" d="M 3272 2816 
L 2363 2816 
L 2100 1772 
L 3016 1772 
L 3272 2816 
z
M 2803 4594 
L 2478 3297 
L 3391 3297 
L 3719 4594 
L 4219 4594 
L 3897 3297 
L 4872 3297 
L 4872 2816 
L 3775 2816 
L 3519 1772 
L 4513 1772 
L 4513 1294 
L 3397 1294 
L 3072 0 
L 2572 0 
L 2894 1294 
L 1978 1294 
L 1656 0 
L 1153 0 
L 1478 1294 
L 494 1294 
L 494 1772 
L 1594 1772 
L 1856 2816 
L 850 2816 
L 850 3297 
L 1978 3297 
L 2297 4594 
L 2803 4594 
z
" transform="scale(0.015625)"/>
     </defs>
     <use xlink:href="#DejaVuSans-4d"/>
     <use xlink:href="#DejaVuSans-6f" x="86.279297"/>
     <use xlink:href="#DejaVuSans-64" x="147.460938"/>
     <use xlink:href="#DejaVuSans-65" x="210.9375"/>
     <use xlink:href="#DejaVuSans-6c" x="272.460938"/>
     <use xlink:href="#DejaVuSans-20" x="300.244141"/>
     <use xlink:href="#DejaVuSans-70" x="332.03125"/>
     <use xlink:href="#DejaVuSans-65" x="395.507812"/>
     <use xlink:href="#DejaVuSans-72" x="457.03125"/>
     <use xlink:href="#DejaVuSans-66" x="498.144531"/>
     <use xlink:href="#DejaVuSans-6f" x="533.349609"/>
     <use xlink:href="#DejaVuSans-72" x="594.53125"/>
     <use xlink:href="#DejaVuSans-6d" x="633.894531"/>
     <use xlink:href="#DejaVuSans-61" x="731.306641"/>
     <use xlink:href="#DejaVuSans-6e" x="792.585938"/>
     <use xlink:href="#DejaVuSans-63" x="855.964844"/>
     <use xlink:href="#DejaVuSans-65" x="910.945312"/>
     <use xlink:href="#DejaVuSans-20" x="972.46875"/>
     <use xlink:href="#DejaVuSans-76" x="1004.255859"/>
     <use xlink:href="#DejaVuSans-73" x="1063.435547"/>
     <use xlink:href="#DejaVuSans-2e" x="1115.535156"/>
     <use xlink:href="#DejaVuSans-20" x="1147.322266"/>
     <use xlink:href="#DejaVuSans-23" x="1179.109375"/>
     <use xlink:href="#DejaVuSans-20" x="1262.898438"/>
     <use xlink:href="#DejaVuSans-6f" x="1294.685547"/>
     <use xlink:href="#DejaVuSans-66" x="1355.867188"/>
     <use xlink:href="#DejaVuSans-20" x="1391.072266"/>
     <use xlink:href="#DejaVuSans-69" x="1422.859375"/>
     <use xlink:href="#DejaVuSans-74" x="1450.642578"/>
     <use xlink:href="#DejaVuSans-65" x="1489.851562"/>
     <use xlink:href="#DejaVuSans-72" x="1551.375"/>
     <use xlink:href="#DejaVuSans-61" x="1592.488281"/>
     <use xlink:href="#DejaVuSans-74" x="1653.767578"/>
     <use xlink:href="#DejaVuSans-69" x="1692.976562"/>
     <use xlink:href="#DejaVuSans-6f" x="1720.759766"/>
     <use xlink:href="#DejaVuSans-6e" x="1781.941406"/>
     <use xlink:href="#DejaVuSans-73" x="1845.320312"/>
    </g>
   </g>
  </g>
 </g>
 <defs>
  <clipPath id="pb53f968431">
   <rect x="57.6" y="41.472" width="357.12" height="266.112"/>
  </clipPath>
 </defs>
</svg>
