<?xml version="1.0" encoding="utf-8" standalone="no"?>
<!DOCTYPE svg PUBLIC "-//W3C//DTD SVG 1.1//EN"
  "http://www.w3.org/Graphics/SVG/1.1/DTD/svg11.dtd">
<svg xmlns:xlink="http://www.w3.org/1999/xlink" width="460.8pt" height="345.6pt" viewBox="0 0 460.8 345.6" xmlns="http://www.w3.org/2000/svg" version="1.1">
 <metadata>
  <rdf:RDF xmlns:dc="http://purl.org/dc/elements/1.1/" xmlns:cc="http://creativecommons.org/ns#" xmlns:rdf="http://www.w3.org/1999/02/22-rdf-syntax-ns#">
   <cc:Work>
    <dc:type rdf:resource="http://purl.org/dc/dcmitype/StillImage"/>
    <dc:date>2022-11-01T13:37:53.204444</dc:date>
    <dc:format>image/svg+xml</dc:format>
    <dc:creator>
     <cc:Agent>
      <dc:title>Matplotlib v3.5.2, https://matplotlib.org/</dc:title>
     </cc:Agent>
    </dc:creator>
   </cc:Work>
  </rdf:RDF>
 </metadata>
 <defs>
  <style type="text/css">*{stroke-linejoin: round; stroke-linecap: butt}</style>
 </defs>
 <g id="figure_1">
  <g id="patch_1">
   <path d="M 0 345.6 
L 460.8 345.6 
L 460.8 0 
L 0 0 
z
" style="fill: #ffffff"/>
  </g>
  <g id="axes_1">
   <g id="patch_2">
    <path d="M 57.6 307.584 
L 414.72 307.584 
L 414.72 41.472 
L 57.6 41.472 
z
" style="fill: #ffffff"/>
   </g>
   <g id="matplotlib.axis_1">
    <g id="xtick_1">
     <g id="line2d_1">
      <path d="M 72.201297 307.584 
L 72.201297 41.472 
" clip-path="url(#p9513bda375)" style="fill: none; stroke: #cccccc; stroke-width: 0.8; stroke-linecap: round"/>
     </g>
     <g id="text_1">
      <!-- 0 -->
      <g style="fill: #262626" transform="translate(69.020047 322.182437)scale(0.1 -0.1)">
       <defs>
        <path id="DejaVuSans-30" d="M 2034 4250 
Q 1547 4250 1301 3770 
Q 1056 3291 1056 2328 
Q 1056 1369 1301 889 
Q 1547 409 2034 409 
Q 2525 409 2770 889 
Q 3016 1369 3016 2328 
Q 3016 3291 2770 3770 
Q 2525 4250 2034 4250 
z
M 2034 4750 
Q 2819 4750 3233 4129 
Q 3647 3509 3647 2328 
Q 3647 1150 3233 529 
Q 2819 -91 2034 -91 
Q 1250 -91 836 529 
Q 422 1150 422 2328 
Q 422 3509 836 4129 
Q 1250 4750 2034 4750 
z
" transform="scale(0.015625)"/>
       </defs>
       <use xlink:href="#DejaVuSans-30"/>
      </g>
     </g>
    </g>
    <g id="xtick_2">
     <g id="line2d_2">
      <path d="M 112.987044 307.584 
L 112.987044 41.472 
" clip-path="url(#p9513bda375)" style="fill: none; stroke: #cccccc; stroke-width: 0.8; stroke-linecap: round"/>
     </g>
     <g id="text_2">
      <!-- 25 -->
      <g style="fill: #262626" transform="translate(106.624544 322.182437)scale(0.1 -0.1)">
       <defs>
        <path id="DejaVuSans-32" d="M 1228 531 
L 3431 531 
L 3431 0 
L 469 0 
L 469 531 
Q 828 903 1448 1529 
Q 2069 2156 2228 2338 
Q 2531 2678 2651 2914 
Q 2772 3150 2772 3378 
Q 2772 3750 2511 3984 
Q 2250 4219 1831 4219 
Q 1534 4219 1204 4116 
Q 875 4013 500 3803 
L 500 4441 
Q 881 4594 1212 4672 
Q 1544 4750 1819 4750 
Q 2544 4750 2975 4387 
Q 3406 4025 3406 3419 
Q 3406 3131 3298 2873 
Q 3191 2616 2906 2266 
Q 2828 2175 2409 1742 
Q 1991 1309 1228 531 
z
" transform="scale(0.015625)"/>
        <path id="DejaVuSans-35" d="M 691 4666 
L 3169 4666 
L 3169 4134 
L 1269 4134 
L 1269 2991 
Q 1406 3038 1543 3061 
Q 1681 3084 1819 3084 
Q 2600 3084 3056 2656 
Q 3513 2228 3513 1497 
Q 3513 744 3044 326 
Q 2575 -91 1722 -91 
Q 1428 -91 1123 -41 
Q 819 9 494 109 
L 494 744 
Q 775 591 1075 516 
Q 1375 441 1709 441 
Q 2250 441 2565 725 
Q 2881 1009 2881 1497 
Q 2881 1984 2565 2268 
Q 2250 2553 1709 2553 
Q 1456 2553 1204 2497 
Q 953 2441 691 2322 
L 691 4666 
z
" transform="scale(0.015625)"/>
       </defs>
       <use xlink:href="#DejaVuSans-32"/>
       <use xlink:href="#DejaVuSans-35" x="63.623047"/>
      </g>
     </g>
    </g>
    <g id="xtick_3">
     <g id="line2d_3">
      <path d="M 153.772791 307.584 
L 153.772791 41.472 
" clip-path="url(#p9513bda375)" style="fill: none; stroke: #cccccc; stroke-width: 0.8; stroke-linecap: round"/>
     </g>
     <g id="text_3">
      <!-- 50 -->
      <g style="fill: #262626" transform="translate(147.410291 322.182437)scale(0.1 -0.1)">
       <use xlink:href="#DejaVuSans-35"/>
       <use xlink:href="#DejaVuSans-30" x="63.623047"/>
      </g>
     </g>
    </g>
    <g id="xtick_4">
     <g id="line2d_4">
      <path d="M 194.558538 307.584 
L 194.558538 41.472 
" clip-path="url(#p9513bda375)" style="fill: none; stroke: #cccccc; stroke-width: 0.8; stroke-linecap: round"/>
     </g>
     <g id="text_4">
      <!-- 75 -->
      <g style="fill: #262626" transform="translate(188.196038 322.182437)scale(0.1 -0.1)">
       <defs>
        <path id="DejaVuSans-37" d="M 525 4666 
L 3525 4666 
L 3525 4397 
L 1831 0 
L 1172 0 
L 2766 4134 
L 525 4134 
L 525 4666 
z
" transform="scale(0.015625)"/>
       </defs>
       <use xlink:href="#DejaVuSans-37"/>
       <use xlink:href="#DejaVuSans-35" x="63.623047"/>
      </g>
     </g>
    </g>
    <g id="xtick_5">
     <g id="line2d_5">
      <path d="M 235.344285 307.584 
L 235.344285 41.472 
" clip-path="url(#p9513bda375)" style="fill: none; stroke: #cccccc; stroke-width: 0.8; stroke-linecap: round"/>
     </g>
     <g id="text_5">
      <!-- 100 -->
      <g style="fill: #262626" transform="translate(225.800535 322.182437)scale(0.1 -0.1)">
       <defs>
        <path id="DejaVuSans-31" d="M 794 531 
L 1825 531 
L 1825 4091 
L 703 3866 
L 703 4441 
L 1819 4666 
L 2450 4666 
L 2450 531 
L 3481 531 
L 3481 0 
L 794 0 
L 794 531 
z
" transform="scale(0.015625)"/>
       </defs>
       <use xlink:href="#DejaVuSans-31"/>
       <use xlink:href="#DejaVuSans-30" x="63.623047"/>
       <use xlink:href="#DejaVuSans-30" x="127.246094"/>
      </g>
     </g>
    </g>
    <g id="xtick_6">
     <g id="line2d_6">
      <path d="M 276.130032 307.584 
L 276.130032 41.472 
" clip-path="url(#p9513bda375)" style="fill: none; stroke: #cccccc; stroke-width: 0.8; stroke-linecap: round"/>
     </g>
     <g id="text_6">
      <!-- 125 -->
      <g style="fill: #262626" transform="translate(266.586282 322.182437)scale(0.1 -0.1)">
       <use xlink:href="#DejaVuSans-31"/>
       <use xlink:href="#DejaVuSans-32" x="63.623047"/>
       <use xlink:href="#DejaVuSans-35" x="127.246094"/>
      </g>
     </g>
    </g>
    <g id="xtick_7">
     <g id="line2d_7">
      <path d="M 316.915779 307.584 
L 316.915779 41.472 
" clip-path="url(#p9513bda375)" style="fill: none; stroke: #cccccc; stroke-width: 0.8; stroke-linecap: round"/>
     </g>
     <g id="text_7">
      <!-- 150 -->
      <g style="fill: #262626" transform="translate(307.372029 322.182437)scale(0.1 -0.1)">
       <use xlink:href="#DejaVuSans-31"/>
       <use xlink:href="#DejaVuSans-35" x="63.623047"/>
       <use xlink:href="#DejaVuSans-30" x="127.246094"/>
      </g>
     </g>
    </g>
    <g id="xtick_8">
     <g id="line2d_8">
      <path d="M 357.701526 307.584 
L 357.701526 41.472 
" clip-path="url(#p9513bda375)" style="fill: none; stroke: #cccccc; stroke-width: 0.8; stroke-linecap: round"/>
     </g>
     <g id="text_8">
      <!-- 175 -->
      <g style="fill: #262626" transform="translate(348.157776 322.182437)scale(0.1 -0.1)">
       <use xlink:href="#DejaVuSans-31"/>
       <use xlink:href="#DejaVuSans-37" x="63.623047"/>
       <use xlink:href="#DejaVuSans-35" x="127.246094"/>
      </g>
     </g>
    </g>
    <g id="xtick_9">
     <g id="line2d_9">
      <path d="M 398.487273 307.584 
L 398.487273 41.472 
" clip-path="url(#p9513bda375)" style="fill: none; stroke: #cccccc; stroke-width: 0.8; stroke-linecap: round"/>
     </g>
     <g id="text_9">
      <!-- 200 -->
      <g style="fill: #262626" transform="translate(388.943523 322.182437)scale(0.1 -0.1)">
       <use xlink:href="#DejaVuSans-32"/>
       <use xlink:href="#DejaVuSans-30" x="63.623047"/>
       <use xlink:href="#DejaVuSans-30" x="127.246094"/>
      </g>
     </g>
    </g>
    <g id="text_10">
     <!-- Iteration -->
     <g style="fill: #262626" transform="translate(214.951406 335.860562)scale(0.1 -0.1)">
      <defs>
       <path id="DejaVuSans-49" d="M 628 4666 
L 1259 4666 
L 1259 0 
L 628 0 
L 628 4666 
z
" transform="scale(0.015625)"/>
       <path id="DejaVuSans-74" d="M 1172 4494 
L 1172 3500 
L 2356 3500 
L 2356 3053 
L 1172 3053 
L 1172 1153 
Q 1172 725 1289 603 
Q 1406 481 1766 481 
L 2356 481 
L 2356 0 
L 1766 0 
Q 1100 0 847 248 
Q 594 497 594 1153 
L 594 3053 
L 172 3053 
L 172 3500 
L 594 3500 
L 594 4494 
L 1172 4494 
z
" transform="scale(0.015625)"/>
       <path id="DejaVuSans-65" d="M 3597 1894 
L 3597 1613 
L 953 1613 
Q 991 1019 1311 708 
Q 1631 397 2203 397 
Q 2534 397 2845 478 
Q 3156 559 3463 722 
L 3463 178 
Q 3153 47 2828 -22 
Q 2503 -91 2169 -91 
Q 1331 -91 842 396 
Q 353 884 353 1716 
Q 353 2575 817 3079 
Q 1281 3584 2069 3584 
Q 2775 3584 3186 3129 
Q 3597 2675 3597 1894 
z
M 3022 2063 
Q 3016 2534 2758 2815 
Q 2500 3097 2075 3097 
Q 1594 3097 1305 2825 
Q 1016 2553 972 2059 
L 3022 2063 
z
" transform="scale(0.015625)"/>
       <path id="DejaVuSans-72" d="M 2631 2963 
Q 2534 3019 2420 3045 
Q 2306 3072 2169 3072 
Q 1681 3072 1420 2755 
Q 1159 2438 1159 1844 
L 1159 0 
L 581 0 
L 581 3500 
L 1159 3500 
L 1159 2956 
Q 1341 3275 1631 3429 
Q 1922 3584 2338 3584 
Q 2397 3584 2469 3576 
Q 2541 3569 2628 3553 
L 2631 2963 
z
" transform="scale(0.015625)"/>
       <path id="DejaVuSans-61" d="M 2194 1759 
Q 1497 1759 1228 1600 
Q 959 1441 959 1056 
Q 959 750 1161 570 
Q 1363 391 1709 391 
Q 2188 391 2477 730 
Q 2766 1069 2766 1631 
L 2766 1759 
L 2194 1759 
z
M 3341 1997 
L 3341 0 
L 2766 0 
L 2766 531 
Q 2569 213 2275 61 
Q 1981 -91 1556 -91 
Q 1019 -91 701 211 
Q 384 513 384 1019 
Q 384 1609 779 1909 
Q 1175 2209 1959 2209 
L 2766 2209 
L 2766 2266 
Q 2766 2663 2505 2880 
Q 2244 3097 1772 3097 
Q 1472 3097 1187 3025 
Q 903 2953 641 2809 
L 641 3341 
Q 956 3463 1253 3523 
Q 1550 3584 1831 3584 
Q 2591 3584 2966 3190 
Q 3341 2797 3341 1997 
z
" transform="scale(0.015625)"/>
       <path id="DejaVuSans-69" d="M 603 3500 
L 1178 3500 
L 1178 0 
L 603 0 
L 603 3500 
z
M 603 4863 
L 1178 4863 
L 1178 4134 
L 603 4134 
L 603 4863 
z
" transform="scale(0.015625)"/>
       <path id="DejaVuSans-6f" d="M 1959 3097 
Q 1497 3097 1228 2736 
Q 959 2375 959 1747 
Q 959 1119 1226 758 
Q 1494 397 1959 397 
Q 2419 397 2687 759 
Q 2956 1122 2956 1747 
Q 2956 2369 2687 2733 
Q 2419 3097 1959 3097 
z
M 1959 3584 
Q 2709 3584 3137 3096 
Q 3566 2609 3566 1747 
Q 3566 888 3137 398 
Q 2709 -91 1959 -91 
Q 1206 -91 779 398 
Q 353 888 353 1747 
Q 353 2609 779 3096 
Q 1206 3584 1959 3584 
z
" transform="scale(0.015625)"/>
       <path id="DejaVuSans-6e" d="M 3513 2113 
L 3513 0 
L 2938 0 
L 2938 2094 
Q 2938 2591 2744 2837 
Q 2550 3084 2163 3084 
Q 1697 3084 1428 2787 
Q 1159 2491 1159 1978 
L 1159 0 
L 581 0 
L 581 3500 
L 1159 3500 
L 1159 2956 
Q 1366 3272 1645 3428 
Q 1925 3584 2291 3584 
Q 2894 3584 3203 3211 
Q 3513 2838 3513 2113 
z
" transform="scale(0.015625)"/>
      </defs>
      <use xlink:href="#DejaVuSans-49"/>
      <use xlink:href="#DejaVuSans-74" x="29.492188"/>
      <use xlink:href="#DejaVuSans-65" x="68.701172"/>
      <use xlink:href="#DejaVuSans-72" x="130.224609"/>
      <use xlink:href="#DejaVuSans-61" x="171.337891"/>
      <use xlink:href="#DejaVuSans-74" x="232.617188"/>
      <use xlink:href="#DejaVuSans-69" x="271.826172"/>
      <use xlink:href="#DejaVuSans-6f" x="299.609375"/>
      <use xlink:href="#DejaVuSans-6e" x="360.791016"/>
     </g>
    </g>
   </g>
   <g id="matplotlib.axis_2">
    <g id="ytick_1">
     <g id="line2d_10">
      <path d="M 57.6 292.778753 
L 414.72 292.778753 
" clip-path="url(#p9513bda375)" style="fill: none; stroke: #cccccc; stroke-width: 0.8; stroke-linecap: round"/>
     </g>
     <g id="text_11">
      <!-- 0.55 -->
      <g style="fill: #262626" transform="translate(28.334375 296.577972)scale(0.1 -0.1)">
       <defs>
        <path id="DejaVuSans-2e" d="M 684 794 
L 1344 794 
L 1344 0 
L 684 0 
L 684 794 
z
" transform="scale(0.015625)"/>
       </defs>
       <use xlink:href="#DejaVuSans-30"/>
       <use xlink:href="#DejaVuSans-2e" x="63.623047"/>
       <use xlink:href="#DejaVuSans-35" x="95.410156"/>
       <use xlink:href="#DejaVuSans-35" x="159.033203"/>
      </g>
     </g>
    </g>
    <g id="ytick_2">
     <g id="line2d_11">
      <path d="M 57.6 240.303037 
L 414.72 240.303037 
" clip-path="url(#p9513bda375)" style="fill: none; stroke: #cccccc; stroke-width: 0.8; stroke-linecap: round"/>
     </g>
     <g id="text_12">
      <!-- 0.60 -->
      <g style="fill: #262626" transform="translate(28.334375 244.102256)scale(0.1 -0.1)">
       <defs>
        <path id="DejaVuSans-36" d="M 2113 2584 
Q 1688 2584 1439 2293 
Q 1191 2003 1191 1497 
Q 1191 994 1439 701 
Q 1688 409 2113 409 
Q 2538 409 2786 701 
Q 3034 994 3034 1497 
Q 3034 2003 2786 2293 
Q 2538 2584 2113 2584 
z
M 3366 4563 
L 3366 3988 
Q 3128 4100 2886 4159 
Q 2644 4219 2406 4219 
Q 1781 4219 1451 3797 
Q 1122 3375 1075 2522 
Q 1259 2794 1537 2939 
Q 1816 3084 2150 3084 
Q 2853 3084 3261 2657 
Q 3669 2231 3669 1497 
Q 3669 778 3244 343 
Q 2819 -91 2113 -91 
Q 1303 -91 875 529 
Q 447 1150 447 2328 
Q 447 3434 972 4092 
Q 1497 4750 2381 4750 
Q 2619 4750 2861 4703 
Q 3103 4656 3366 4563 
z
" transform="scale(0.015625)"/>
       </defs>
       <use xlink:href="#DejaVuSans-30"/>
       <use xlink:href="#DejaVuSans-2e" x="63.623047"/>
       <use xlink:href="#DejaVuSans-36" x="95.410156"/>
       <use xlink:href="#DejaVuSans-30" x="159.033203"/>
      </g>
     </g>
    </g>
    <g id="ytick_3">
     <g id="line2d_12">
      <path d="M 57.6 187.827321 
L 414.72 187.827321 
" clip-path="url(#p9513bda375)" style="fill: none; stroke: #cccccc; stroke-width: 0.8; stroke-linecap: round"/>
     </g>
     <g id="text_13">
      <!-- 0.65 -->
      <g style="fill: #262626" transform="translate(28.334375 191.62654)scale(0.1 -0.1)">
       <use xlink:href="#DejaVuSans-30"/>
       <use xlink:href="#DejaVuSans-2e" x="63.623047"/>
       <use xlink:href="#DejaVuSans-36" x="95.410156"/>
       <use xlink:href="#DejaVuSans-35" x="159.033203"/>
      </g>
     </g>
    </g>
    <g id="ytick_4">
     <g id="line2d_13">
      <path d="M 57.6 135.351605 
L 414.72 135.351605 
" clip-path="url(#p9513bda375)" style="fill: none; stroke: #cccccc; stroke-width: 0.8; stroke-linecap: round"/>
     </g>
     <g id="text_14">
      <!-- 0.70 -->
      <g style="fill: #262626" transform="translate(28.334375 139.150824)scale(0.1 -0.1)">
       <use xlink:href="#DejaVuSans-30"/>
       <use xlink:href="#DejaVuSans-2e" x="63.623047"/>
       <use xlink:href="#DejaVuSans-37" x="95.410156"/>
       <use xlink:href="#DejaVuSans-30" x="159.033203"/>
      </g>
     </g>
    </g>
    <g id="ytick_5">
     <g id="line2d_14">
      <path d="M 57.6 82.875889 
L 414.72 82.875889 
" clip-path="url(#p9513bda375)" style="fill: none; stroke: #cccccc; stroke-width: 0.8; stroke-linecap: round"/>
     </g>
     <g id="text_15">
      <!-- 0.75 -->
      <g style="fill: #262626" transform="translate(28.334375 86.675108)scale(0.1 -0.1)">
       <use xlink:href="#DejaVuSans-30"/>
       <use xlink:href="#DejaVuSans-2e" x="63.623047"/>
       <use xlink:href="#DejaVuSans-37" x="95.410156"/>
       <use xlink:href="#DejaVuSans-35" x="159.033203"/>
      </g>
     </g>
    </g>
    <g id="text_16">
     <!-- Auroc -->
     <g style="fill: #262626" transform="translate(22.254688 188.868625)rotate(-90)scale(0.1 -0.1)">
      <defs>
       <path id="DejaVuSans-41" d="M 2188 4044 
L 1331 1722 
L 3047 1722 
L 2188 4044 
z
M 1831 4666 
L 2547 4666 
L 4325 0 
L 3669 0 
L 3244 1197 
L 1141 1197 
L 716 0 
L 50 0 
L 1831 4666 
z
" transform="scale(0.015625)"/>
       <path id="DejaVuSans-75" d="M 544 1381 
L 544 3500 
L 1119 3500 
L 1119 1403 
Q 1119 906 1312 657 
Q 1506 409 1894 409 
Q 2359 409 2629 706 
Q 2900 1003 2900 1516 
L 2900 3500 
L 3475 3500 
L 3475 0 
L 2900 0 
L 2900 538 
Q 2691 219 2414 64 
Q 2138 -91 1772 -91 
Q 1169 -91 856 284 
Q 544 659 544 1381 
z
M 1991 3584 
L 1991 3584 
z
" transform="scale(0.015625)"/>
       <path id="DejaVuSans-63" d="M 3122 3366 
L 3122 2828 
Q 2878 2963 2633 3030 
Q 2388 3097 2138 3097 
Q 1578 3097 1268 2742 
Q 959 2388 959 1747 
Q 959 1106 1268 751 
Q 1578 397 2138 397 
Q 2388 397 2633 464 
Q 2878 531 3122 666 
L 3122 134 
Q 2881 22 2623 -34 
Q 2366 -91 2075 -91 
Q 1284 -91 818 406 
Q 353 903 353 1747 
Q 353 2603 823 3093 
Q 1294 3584 2113 3584 
Q 2378 3584 2631 3529 
Q 2884 3475 3122 3366 
z
" transform="scale(0.015625)"/>
      </defs>
      <use xlink:href="#DejaVuSans-41"/>
      <use xlink:href="#DejaVuSans-75" x="68.408203"/>
      <use xlink:href="#DejaVuSans-72" x="131.787109"/>
      <use xlink:href="#DejaVuSans-6f" x="170.650391"/>
      <use xlink:href="#DejaVuSans-63" x="231.832031"/>
     </g>
    </g>
   </g>
   <g id="PolyCollection_1">
    <defs>
     <path id="m449c879513" d="M 73.832727 -232.535058 
L 73.832727 -178.548887 
L 75.464157 -125.538722 
L 77.095587 -169.461369 
L 78.727017 -93.59648 
L 80.358447 -132.194687 
L 81.989877 -126.497029 
L 83.621307 -197.565251 
L 85.252736 -152.186277 
L 86.884166 -162.90053 
L 88.515596 -117.01053 
L 90.147026 -158.482807 
L 91.778456 -180.939614 
L 93.409886 -146.295415 
L 95.041316 -145.008886 
L 96.672746 -187.14731 
L 98.304175 -100.760022 
L 99.935605 -208.056733 
L 101.567035 -145.385297 
L 103.198465 -130.474317 
L 104.829895 -185.284173 
L 106.461325 -159.070997 
L 108.092755 -129.229937 
L 109.724185 -50.112 
L 111.355614 -136.980242 
L 112.987044 -68.375318 
L 114.618474 -172.239968 
L 116.249904 -143.142222 
L 117.881334 -159.623678 
L 119.512764 -217.136874 
L 121.144194 -158.680124 
L 122.775624 -182.468541 
L 124.407053 -176.74982 
L 126.038483 -130.394741 
L 127.669913 -137.657154 
L 129.301343 -128.821283 
L 130.932773 -131.671507 
L 132.564203 -180.172519 
L 134.195633 -172.685931 
L 135.827063 -165.616306 
L 137.458492 -153.35074 
L 139.089922 -183.83705 
L 140.721352 -177.552684 
L 142.352782 -179.831055 
L 143.984212 -114.355699 
L 145.615642 -204.694967 
L 147.247072 -190.435763 
L 148.878502 -184.310838 
L 150.509931 -195.013951 
L 152.141361 -194.756672 
L 153.772791 -191.049644 
L 155.404221 -128.022526 
L 157.035651 -108.462426 
L 158.667081 -101.243685 
L 160.298511 -141.526547 
L 161.929941 -143.268377 
L 163.56137 -198.952681 
L 165.1928 -154.904116 
L 166.82423 -111.84002 
L 168.45566 -137.733557 
L 170.08709 -136.78409 
L 171.71852 -143.007955 
L 173.34995 -140.345853 
L 174.98138 -170.533452 
L 176.61281 -209.611171 
L 178.244239 -69.526051 
L 179.875669 -172.471141 
L 181.507099 -105.263725 
L 183.138529 -103.066469 
L 184.769959 -161.910336 
L 186.401389 -124.599399 
L 188.032819 -177.182729 
L 189.664249 -189.133604 
L 191.295678 -132.164045 
L 192.927108 -116.203027 
L 194.558538 -152.259189 
L 196.189968 -113.138919 
L 197.821398 -156.636657 
L 199.452828 -159.01356 
L 201.084258 -181.702914 
L 202.715688 -185.652384 
L 204.347117 -152.077194 
L 205.978547 -121.20579 
L 207.609977 -146.731346 
L 209.241407 -122.22664 
L 210.872837 -138.035315 
L 212.504267 -155.212012 
L 214.135697 -160.994316 
L 215.767127 -125.054883 
L 217.398556 -148.747531 
L 219.029986 -120.557216 
L 220.661416 -187.718765 
L 222.292846 -166.859522 
L 223.924276 -152.552168 
L 225.555706 -100.217875 
L 227.187136 -171.267161 
L 228.818566 -136.350475 
L 230.449995 -127.114012 
L 232.081425 -160.218943 
L 233.712855 -117.009256 
L 235.344285 -136.843216 
L 236.975715 -149.536524 
L 238.607145 -129.1489 
L 240.238575 -160.25618 
L 241.870005 -114.408036 
L 243.501434 -160.231103 
L 245.132864 -151.609693 
L 246.764294 -113.109937 
L 248.395724 -150.070334 
L 250.027154 -147.522624 
L 251.658584 -147.659272 
L 253.290014 -157.057239 
L 254.921444 -161.138041 
L 256.552873 -206.963425 
L 258.184303 -195.200393 
L 259.815733 -169.38014 
L 261.447163 -162.641005 
L 263.078593 -154.22227 
L 264.710023 -170.35846 
L 266.341453 -169.388653 
L 267.972883 -125.162539 
L 269.604312 -147.58926 
L 271.235742 -146.336227 
L 272.867172 -183.580594 
L 274.498602 -159.17086 
L 276.130032 -153.891642 
L 277.761462 -152.709062 
L 279.392892 -157.496767 
L 281.024322 -198.780431 
L 282.655751 -124.108532 
L 284.287181 -152.98443 
L 285.918611 -117.201934 
L 287.550041 -182.193772 
L 289.181471 -149.309454 
L 290.812901 -130.578188 
L 292.444331 -195.08161 
L 294.075761 -124.289659 
L 295.70719 -172.27607 
L 297.33862 -156.425053 
L 298.97005 -132.137215 
L 300.60148 -145.486976 
L 302.23291 -132.294108 
L 303.86434 -146.386076 
L 305.49577 -112.161747 
L 307.1272 -213.923807 
L 308.75863 -165.691802 
L 310.390059 -187.102968 
L 312.021489 -152.267343 
L 313.652919 -108.165339 
L 315.284349 -158.55172 
L 316.915779 -188.973037 
L 318.547209 -176.974018 
L 320.178639 -157.529448 
L 321.810069 -137.214297 
L 323.441498 -122.980027 
L 325.072928 -154.089947 
L 326.704358 -194.719223 
L 328.335788 -149.879869 
L 329.967218 -94.997943 
L 331.598648 -174.677207 
L 333.230078 -109.849041 
L 334.861508 -181.359324 
L 336.492937 -170.820104 
L 338.124367 -134.057986 
L 339.755797 -166.713347 
L 341.387227 -180.226183 
L 343.018657 -143.761365 
L 344.650087 -161.644755 
L 346.281517 -85.277725 
L 347.912947 -139.956687 
L 349.544376 -189.936613 
L 351.175806 -138.278766 
L 352.807236 -165.749368 
L 354.438666 -151.741221 
L 356.070096 -158.353722 
L 357.701526 -161.40974 
L 359.332956 -139.025749 
L 360.964386 -149.515022 
L 362.595815 -158.642302 
L 364.227245 -119.136634 
L 365.858675 -150.914436 
L 367.490105 -142.993174 
L 369.121535 -160.5632 
L 370.752965 -172.924148 
L 372.384395 -126.983001 
L 374.015825 -128.153692 
L 375.647254 -101.873779 
L 377.278684 -167.045615 
L 378.910114 -146.91889 
L 380.541544 -169.507838 
L 382.172974 -189.458505 
L 383.804404 -159.620185 
L 385.435834 -162.622282 
L 387.067264 -139.158084 
L 388.698693 -156.243411 
L 390.330123 -166.447516 
L 391.961553 -179.359597 
L 393.592983 -168.018011 
L 395.224413 -160.793267 
L 396.855843 -149.215638 
L 398.487273 -185.518642 
L 398.487273 -248.434395 
L 398.487273 -248.434395 
L 396.855843 -251.722441 
L 395.224413 -209.637423 
L 393.592983 -241.034794 
L 391.961553 -227.981019 
L 390.330123 -220.33848 
L 388.698693 -218.085303 
L 387.067264 -197.844979 
L 385.435834 -205.915126 
L 383.804404 -235.5883 
L 382.172974 -246.639533 
L 380.541544 -245.33023 
L 378.910114 -255.115475 
L 377.278684 -216.939036 
L 375.647254 -226.603457 
L 374.015825 -181.552428 
L 372.384395 -251.740139 
L 370.752965 -246.304577 
L 369.121535 -246.064488 
L 367.490105 -225.202167 
L 365.858675 -228.837013 
L 364.227245 -247.036761 
L 362.595815 -228.288962 
L 360.964386 -192.978208 
L 359.332956 -292.032 
L 357.701526 -191.796871 
L 356.070096 -233.934692 
L 354.438666 -226.573139 
L 352.807236 -242.271039 
L 351.175806 -227.731949 
L 349.544376 -241.039924 
L 347.912947 -238.599012 
L 346.281517 -219.742105 
L 344.650087 -209.121986 
L 343.018657 -246.126563 
L 341.387227 -220.933023 
L 339.755797 -221.295286 
L 338.124367 -218.69877 
L 336.492937 -238.557485 
L 334.861508 -227.940878 
L 333.230078 -226.163978 
L 331.598648 -236.617053 
L 329.967218 -163.849859 
L 328.335788 -202.50546 
L 326.704358 -245.677384 
L 325.072928 -184.939431 
L 323.441498 -235.70262 
L 321.810069 -208.680003 
L 320.178639 -210.343253 
L 318.547209 -216.0597 
L 316.915779 -233.774027 
L 315.284349 -228.348889 
L 313.652919 -211.51462 
L 312.021489 -225.685183 
L 310.390059 -238.059298 
L 308.75863 -213.977603 
L 307.1272 -243.864658 
L 305.49577 -217.439175 
L 303.86434 -214.606956 
L 302.23291 -223.970944 
L 300.60148 -189.232781 
L 298.97005 -212.241184 
L 297.33862 -204.974151 
L 295.70719 -237.317572 
L 294.075761 -207.161798 
L 292.444331 -226.998194 
L 290.812901 -213.107648 
L 289.181471 -229.635908 
L 287.550041 -212.691138 
L 285.918611 -227.313514 
L 284.287181 -206.333853 
L 282.655751 -192.510122 
L 281.024322 -228.165026 
L 279.392892 -216.443563 
L 277.761462 -239.014862 
L 276.130032 -224.664168 
L 274.498602 -221.211577 
L 272.867172 -244.928824 
L 271.235742 -241.042347 
L 269.604312 -210.287093 
L 267.972883 -225.290411 
L 266.341453 -226.839019 
L 264.710023 -261.942307 
L 263.078593 -252.562817 
L 261.447163 -246.369221 
L 259.815733 -237.655385 
L 258.184303 -231.935758 
L 256.552873 -249.56585 
L 254.921444 -232.838781 
L 253.290014 -230.304403 
L 251.658584 -230.025292 
L 250.027154 -244.914859 
L 248.395724 -202.83838 
L 246.764294 -234.076184 
L 245.132864 -211.159648 
L 243.501434 -210.328371 
L 241.870005 -228.644412 
L 240.238575 -241.765486 
L 238.607145 -225.237874 
L 236.975715 -233.455331 
L 235.344285 -181.517034 
L 233.712855 -271.87252 
L 232.081425 -248.100466 
L 230.449995 -210.710901 
L 228.818566 -236.346734 
L 227.187136 -239.06996 
L 225.555706 -213.285828 
L 223.924276 -246.787286 
L 222.292846 -234.285688 
L 220.661416 -215.772623 
L 219.029986 -176.779119 
L 217.398556 -238.38932 
L 215.767127 -231.965307 
L 214.135697 -242.839724 
L 212.504267 -220.177083 
L 210.872837 -237.159332 
L 209.241407 -254.705059 
L 207.609977 -229.75922 
L 205.978547 -230.241884 
L 204.347117 -241.778438 
L 202.715688 -232.777465 
L 201.084258 -226.903101 
L 199.452828 -234.338053 
L 197.821398 -240.840179 
L 196.189968 -177.650265 
L 194.558538 -234.304113 
L 192.927108 -223.483848 
L 191.295678 -238.661511 
L 189.664249 -234.508319 
L 188.032819 -238.386816 
L 186.401389 -231.763229 
L 184.769959 -209.572117 
L 183.138529 -215.887576 
L 181.507099 -242.645783 
L 179.875669 -226.149809 
L 178.244239 -222.656837 
L 176.61281 -244.331803 
L 174.98138 -238.046805 
L 173.34995 -233.195844 
L 171.71852 -260.047182 
L 170.08709 -191.514958 
L 168.45566 -221.746959 
L 166.82423 -231.409205 
L 165.1928 -228.319828 
L 163.56137 -250.450935 
L 161.929941 -243.963569 
L 160.298511 -243.280906 
L 158.667081 -211.777803 
L 157.035651 -275.686121 
L 155.404221 -214.009463 
L 153.772791 -233.593158 
L 152.141361 -235.230453 
L 150.509931 -233.356777 
L 148.878502 -225.300624 
L 147.247072 -250.345155 
L 145.615642 -246.543758 
L 143.984212 -241.760173 
L 142.352782 -225.702212 
L 140.721352 -224.562478 
L 139.089922 -231.299653 
L 137.458492 -225.617908 
L 135.827063 -228.853246 
L 134.195633 -205.611312 
L 132.564203 -228.094388 
L 130.932773 -219.460997 
L 129.301343 -234.691817 
L 127.669913 -253.344848 
L 126.038483 -239.023237 
L 124.407053 -251.519763 
L 122.775624 -229.413088 
L 121.144194 -231.358921 
L 119.512764 -234.375166 
L 117.881334 -229.550058 
L 116.249904 -198.821582 
L 114.618474 -202.451292 
L 112.987044 -234.883944 
L 111.355614 -219.627262 
L 109.724185 -208.136863 
L 108.092755 -193.777481 
L 106.461325 -227.647518 
L 104.829895 -228.929462 
L 103.198465 -224.529008 
L 101.567035 -260.404513 
L 99.935605 -221.946364 
L 98.304175 -240.436209 
L 96.672746 -223.911093 
L 95.041316 -221.29999 
L 93.409886 -243.276427 
L 91.778456 -230.855882 
L 90.147026 -235.86257 
L 88.515596 -210.20658 
L 86.884166 -233.875501 
L 85.252736 -251.275528 
L 83.621307 -241.391666 
L 81.989877 -233.184344 
L 80.358447 -206.290117 
L 78.727017 -247.562326 
L 77.095587 -227.954219 
L 75.464157 -214.496775 
L 73.832727 -232.535058 
z
" style="stroke: #ffffff; stroke-opacity: 0.2"/>
    </defs>
    <g clip-path="url(#p9513bda375)">
     <use xlink:href="#m449c879513" x="0" y="345.6" style="fill: #1f77b4; fill-opacity: 0.2; stroke: #ffffff; stroke-opacity: 0.2"/>
    </g>
   </g>
   <g id="line2d_15">
    <path d="M 73.832727 140.058028 
L 75.464157 175.582251 
L 77.095587 146.892206 
L 78.727017 175.020597 
L 80.358447 176.357598 
L 81.989877 165.759314 
L 83.621307 126.121541 
L 85.252736 143.869098 
L 86.884166 147.211984 
L 88.515596 181.991445 
L 90.147026 148.427312 
L 91.778456 139.702252 
L 95.041316 162.445562 
L 96.672746 140.070799 
L 98.304175 175.001884 
L 99.935605 130.598451 
L 101.567035 142.705095 
L 103.198465 168.098337 
L 104.829895 138.493182 
L 106.461325 152.240742 
L 109.724185 216.475569 
L 111.355614 167.296248 
L 112.987044 193.970369 
L 114.618474 158.25437 
L 116.249904 174.618098 
L 117.881334 151.013132 
L 119.512764 119.84398 
L 121.144194 150.580478 
L 122.775624 139.659185 
L 124.407053 131.465209 
L 126.038483 160.891011 
L 127.669913 150.098999 
L 129.301343 163.84345 
L 130.932773 170.033748 
L 132.564203 141.466546 
L 134.195633 156.451379 
L 135.827063 148.365224 
L 137.458492 156.115676 
L 139.089922 138.031649 
L 140.721352 144.542419 
L 142.352782 142.833367 
L 143.984212 167.542064 
L 145.615642 119.980638 
L 147.247072 125.209541 
L 148.878502 140.794269 
L 150.509931 131.414636 
L 152.141361 130.606437 
L 153.772791 133.278599 
L 155.404221 174.584006 
L 157.035651 153.525726 
L 158.667081 189.089256 
L 160.298511 153.196273 
L 161.929941 151.984027 
L 163.56137 120.898192 
L 165.1928 153.988028 
L 166.82423 173.975388 
L 168.45566 165.859742 
L 170.08709 181.450476 
L 171.71852 144.072432 
L 173.34995 158.829152 
L 174.98138 141.309872 
L 176.61281 118.628513 
L 178.244239 199.508556 
L 179.875669 146.289525 
L 181.507099 171.645246 
L 183.138529 186.122978 
L 184.769959 159.858773 
L 186.401389 167.418686 
L 188.032819 137.815228 
L 189.664249 133.779038 
L 191.295678 160.187222 
L 192.927108 175.756562 
L 194.558538 152.318349 
L 196.189968 200.205408 
L 197.821398 146.861582 
L 199.452828 148.924194 
L 201.084258 141.296993 
L 202.715688 136.385076 
L 204.347117 148.672184 
L 205.978547 169.876163 
L 207.609977 157.354717 
L 209.241407 157.134151 
L 210.872837 158.002676 
L 212.504267 157.905452 
L 214.135697 143.68298 
L 215.767127 167.089905 
L 217.398556 152.031575 
L 219.029986 196.931832 
L 220.661416 143.854306 
L 222.292846 145.027395 
L 223.924276 145.930273 
L 225.555706 188.848149 
L 227.187136 140.43144 
L 228.818566 159.251396 
L 230.449995 176.687543 
L 232.081425 141.440296 
L 233.712855 151.159112 
L 235.344285 186.419875 
L 236.975715 154.104073 
L 238.607145 168.406613 
L 240.238575 144.589167 
L 241.870005 174.073776 
L 243.501434 160.320263 
L 245.132864 164.21533 
L 246.764294 172.006939 
L 248.395724 169.145643 
L 250.027154 149.381258 
L 251.658584 156.757718 
L 253.290014 151.919179 
L 254.921444 148.611589 
L 256.552873 117.335363 
L 258.184303 132.031924 
L 259.815733 142.082238 
L 261.447163 141.094887 
L 263.078593 142.207457 
L 264.710023 129.449617 
L 266.341453 147.486164 
L 267.972883 170.373525 
L 269.604312 166.661824 
L 271.235742 151.910713 
L 272.867172 131.345291 
L 274.498602 155.408782 
L 276.130032 156.322095 
L 277.761462 149.738038 
L 279.392892 158.629835 
L 281.024322 132.127272 
L 282.655751 187.290673 
L 284.287181 165.940858 
L 285.918611 173.342276 
L 287.550041 148.157545 
L 289.181471 156.127319 
L 290.812901 173.757082 
L 292.444331 134.560098 
L 294.075761 179.874272 
L 295.70719 140.803179 
L 297.33862 164.900398 
L 298.97005 173.410801 
L 300.60148 178.240122 
L 302.23291 167.467474 
L 303.86434 165.103484 
L 305.49577 180.799539 
L 307.1272 116.705768 
L 308.75863 155.765298 
L 310.390059 133.018867 
L 312.021489 156.623737 
L 313.652919 185.76002 
L 315.284349 152.149696 
L 316.915779 134.226468 
L 318.547209 149.083141 
L 320.178639 161.663649 
L 321.810069 172.65285 
L 323.441498 166.258676 
L 325.072928 176.085311 
L 326.704358 125.401696 
L 329.967218 216.176099 
L 331.598648 139.95287 
L 333.230078 177.59349 
L 334.861508 140.949899 
L 336.492937 140.911206 
L 338.124367 169.221622 
L 339.755797 151.595683 
L 341.387227 145.020397 
L 343.018657 150.656036 
L 344.650087 160.216629 
L 346.281517 193.090085 
L 347.912947 156.322151 
L 349.544376 130.111731 
L 351.175806 162.594643 
L 352.807236 141.589797 
L 354.438666 156.44282 
L 356.070096 149.455793 
L 357.701526 168.996694 
L 359.332956 130.071125 
L 360.964386 174.353385 
L 362.595815 152.134368 
L 364.227245 162.513303 
L 365.858675 155.724276 
L 367.490105 161.50233 
L 369.121535 142.286156 
L 370.752965 135.985637 
L 372.384395 156.23843 
L 374.015825 190.74694 
L 375.647254 181.361382 
L 377.278684 153.607675 
L 378.910114 144.582817 
L 380.541544 138.180966 
L 382.172974 127.550981 
L 383.804404 147.995757 
L 385.435834 161.331296 
L 387.067264 177.098469 
L 388.698693 158.435643 
L 390.330123 152.207002 
L 391.961553 141.929692 
L 393.592983 141.073598 
L 395.224413 160.384655 
L 396.855843 145.13096 
L 398.487273 128.623481 
L 398.487273 128.623481 
" clip-path="url(#p9513bda375)" style="fill: none; stroke: #1f77b4; stroke-width: 1.5; stroke-linecap: round"/>
   </g>
   <g id="LineCollection_1">
    <path d="M 398.487273 295.488 
L 398.487273 53.568 
" clip-path="url(#p9513bda375)" style="fill: none; stroke-dasharray: 5.55,2.4; stroke-dashoffset: 0; stroke: #1f77b4; stroke-width: 1.5"/>
   </g>
   <g id="patch_3">
    <path d="M 57.6 307.584 
L 57.6 41.472 
" style="fill: none; stroke: #cccccc; stroke-width: 0.8; stroke-linejoin: miter; stroke-linecap: square"/>
   </g>
   <g id="patch_4">
    <path d="M 414.72 307.584 
L 414.72 41.472 
" style="fill: none; stroke: #cccccc; stroke-width: 0.8; stroke-linejoin: miter; stroke-linecap: square"/>
   </g>
   <g id="patch_5">
    <path d="M 57.6 307.584 
L 414.72 307.584 
" style="fill: none; stroke: #cccccc; stroke-width: 0.8; stroke-linejoin: miter; stroke-linecap: square"/>
   </g>
   <g id="patch_6">
    <path d="M 57.6 41.472 
L 414.72 41.472 
" style="fill: none; stroke: #cccccc; stroke-width: 0.8; stroke-linejoin: miter; stroke-linecap: square"/>
   </g>
   <g id="text_17">
    <!-- Model performance vs. # of iterations -->
    <g style="fill: #262626" transform="translate(122.314688 35.472)scale(0.12 -0.12)">
     <defs>
      <path id="DejaVuSans-4d" d="M 628 4666 
L 1569 4666 
L 2759 1491 
L 3956 4666 
L 4897 4666 
L 4897 0 
L 4281 0 
L 4281 4097 
L 3078 897 
L 2444 897 
L 1241 4097 
L 1241 0 
L 628 0 
L 628 4666 
z
" transform="scale(0.015625)"/>
      <path id="DejaVuSans-64" d="M 2906 2969 
L 2906 4863 
L 3481 4863 
L 3481 0 
L 2906 0 
L 2906 525 
Q 2725 213 2448 61 
Q 2172 -91 1784 -91 
Q 1150 -91 751 415 
Q 353 922 353 1747 
Q 353 2572 751 3078 
Q 1150 3584 1784 3584 
Q 2172 3584 2448 3432 
Q 2725 3281 2906 2969 
z
M 947 1747 
Q 947 1113 1208 752 
Q 1469 391 1925 391 
Q 2381 391 2643 752 
Q 2906 1113 2906 1747 
Q 2906 2381 2643 2742 
Q 2381 3103 1925 3103 
Q 1469 3103 1208 2742 
Q 947 2381 947 1747 
z
" transform="scale(0.015625)"/>
      <path id="DejaVuSans-6c" d="M 603 4863 
L 1178 4863 
L 1178 0 
L 603 0 
L 603 4863 
z
" transform="scale(0.015625)"/>
      <path id="DejaVuSans-20" transform="scale(0.015625)"/>
      <path id="DejaVuSans-70" d="M 1159 525 
L 1159 -1331 
L 581 -1331 
L 581 3500 
L 1159 3500 
L 1159 2969 
Q 1341 3281 1617 3432 
Q 1894 3584 2278 3584 
Q 2916 3584 3314 3078 
Q 3713 2572 3713 1747 
Q 3713 922 3314 415 
Q 2916 -91 2278 -91 
Q 1894 -91 1617 61 
Q 1341 213 1159 525 
z
M 3116 1747 
Q 3116 2381 2855 2742 
Q 2594 3103 2138 3103 
Q 1681 3103 1420 2742 
Q 1159 2381 1159 1747 
Q 1159 1113 1420 752 
Q 1681 391 2138 391 
Q 2594 391 2855 752 
Q 3116 1113 3116 1747 
z
" transform="scale(0.015625)"/>
      <path id="DejaVuSans-66" d="M 2375 4863 
L 2375 4384 
L 1825 4384 
Q 1516 4384 1395 4259 
Q 1275 4134 1275 3809 
L 1275 3500 
L 2222 3500 
L 2222 3053 
L 1275 3053 
L 1275 0 
L 697 0 
L 697 3053 
L 147 3053 
L 147 3500 
L 697 3500 
L 697 3744 
Q 697 4328 969 4595 
Q 1241 4863 1831 4863 
L 2375 4863 
z
" transform="scale(0.015625)"/>
      <path id="DejaVuSans-6d" d="M 3328 2828 
Q 3544 3216 3844 3400 
Q 4144 3584 4550 3584 
Q 5097 3584 5394 3201 
Q 5691 2819 5691 2113 
L 5691 0 
L 5113 0 
L 5113 2094 
Q 5113 2597 4934 2840 
Q 4756 3084 4391 3084 
Q 3944 3084 3684 2787 
Q 3425 2491 3425 1978 
L 3425 0 
L 2847 0 
L 2847 2094 
Q 2847 2600 2669 2842 
Q 2491 3084 2119 3084 
Q 1678 3084 1418 2786 
Q 1159 2488 1159 1978 
L 1159 0 
L 581 0 
L 581 3500 
L 1159 3500 
L 1159 2956 
Q 1356 3278 1631 3431 
Q 1906 3584 2284 3584 
Q 2666 3584 2933 3390 
Q 3200 3197 3328 2828 
z
" transform="scale(0.015625)"/>
      <path id="DejaVuSans-76" d="M 191 3500 
L 800 3500 
L 1894 563 
L 2988 3500 
L 3597 3500 
L 2284 0 
L 1503 0 
L 191 3500 
z
" transform="scale(0.015625)"/>
      <path id="DejaVuSans-73" d="M 2834 3397 
L 2834 2853 
Q 2591 2978 2328 3040 
Q 2066 3103 1784 3103 
Q 1356 3103 1142 2972 
Q 928 2841 928 2578 
Q 928 2378 1081 2264 
Q 1234 2150 1697 2047 
L 1894 2003 
Q 2506 1872 2764 1633 
Q 3022 1394 3022 966 
Q 3022 478 2636 193 
Q 2250 -91 1575 -91 
Q 1294 -91 989 -36 
Q 684 19 347 128 
L 347 722 
Q 666 556 975 473 
Q 1284 391 1588 391 
Q 1994 391 2212 530 
Q 2431 669 2431 922 
Q 2431 1156 2273 1281 
Q 2116 1406 1581 1522 
L 1381 1569 
Q 847 1681 609 1914 
Q 372 2147 372 2553 
Q 372 3047 722 3315 
Q 1072 3584 1716 3584 
Q 2034 3584 2315 3537 
Q 2597 3491 2834 3397 
z
" transform="scale(0.015625)"/>
      <path id="DejaVuSans-23" d="M 3272 2816 
L 2363 2816 
L 2100 1772 
L 3016 1772 
L 3272 2816 
z
M 2803 4594 
L 2478 3297 
L 3391 3297 
L 3719 4594 
L 4219 4594 
L 3897 3297 
L 4872 3297 
L 4872 2816 
L 3775 2816 
L 3519 1772 
L 4513 1772 
L 4513 1294 
L 3397 1294 
L 3072 0 
L 2572 0 
L 2894 1294 
L 1978 1294 
L 1656 0 
L 1153 0 
L 1478 1294 
L 494 1294 
L 494 1772 
L 1594 1772 
L 1856 2816 
L 850 2816 
L 850 3297 
L 1978 3297 
L 2297 4594 
L 2803 4594 
z
" transform="scale(0.015625)"/>
     </defs>
     <use xlink:href="#DejaVuSans-4d"/>
     <use xlink:href="#DejaVuSans-6f" x="86.279297"/>
     <use xlink:href="#DejaVuSans-64" x="147.460938"/>
     <use xlink:href="#DejaVuSans-65" x="210.9375"/>
     <use xlink:href="#DejaVuSans-6c" x="272.460938"/>
     <use xlink:href="#DejaVuSans-20" x="300.244141"/>
     <use xlink:href="#DejaVuSans-70" x="332.03125"/>
     <use xlink:href="#DejaVuSans-65" x="395.507812"/>
     <use xlink:href="#DejaVuSans-72" x="457.03125"/>
     <use xlink:href="#DejaVuSans-66" x="498.144531"/>
     <use xlink:href="#DejaVuSans-6f" x="533.349609"/>
     <use xlink:href="#DejaVuSans-72" x="594.53125"/>
     <use xlink:href="#DejaVuSans-6d" x="633.894531"/>
     <use xlink:href="#DejaVuSans-61" x="731.306641"/>
     <use xlink:href="#DejaVuSans-6e" x="792.585938"/>
     <use xlink:href="#DejaVuSans-63" x="855.964844"/>
     <use xlink:href="#DejaVuSans-65" x="910.945312"/>
     <use xlink:href="#DejaVuSans-20" x="972.46875"/>
     <use xlink:href="#DejaVuSans-76" x="1004.255859"/>
     <use xlink:href="#DejaVuSans-73" x="1063.435547"/>
     <use xlink:href="#DejaVuSans-2e" x="1115.535156"/>
     <use xlink:href="#DejaVuSans-20" x="1147.322266"/>
     <use xlink:href="#DejaVuSans-23" x="1179.109375"/>
     <use xlink:href="#DejaVuSans-20" x="1262.898438"/>
     <use xlink:href="#DejaVuSans-6f" x="1294.685547"/>
     <use xlink:href="#DejaVuSans-66" x="1355.867188"/>
     <use xlink:href="#DejaVuSans-20" x="1391.072266"/>
     <use xlink:href="#DejaVuSans-69" x="1422.859375"/>
     <use xlink:href="#DejaVuSans-74" x="1450.642578"/>
     <use xlink:href="#DejaVuSans-65" x="1489.851562"/>
     <use xlink:href="#DejaVuSans-72" x="1551.375"/>
     <use xlink:href="#DejaVuSans-61" x="1592.488281"/>
     <use xlink:href="#DejaVuSans-74" x="1653.767578"/>
     <use xlink:href="#DejaVuSans-69" x="1692.976562"/>
     <use xlink:href="#DejaVuSans-6f" x="1720.759766"/>
     <use xlink:href="#DejaVuSans-6e" x="1781.941406"/>
     <use xlink:href="#DejaVuSans-73" x="1845.320312"/>
    </g>
   </g>
  </g>
 </g>
 <defs>
  <clipPath id="p9513bda375">
   <rect x="57.6" y="41.472" width="357.12" height="266.112"/>
  </clipPath>
 </defs>
</svg>
