<?xml version="1.0" encoding="utf-8" standalone="no"?>
<!DOCTYPE svg PUBLIC "-//W3C//DTD SVG 1.1//EN"
  "http://www.w3.org/Graphics/SVG/1.1/DTD/svg11.dtd">
<svg height="345.6pt" version="1.1" viewBox="0 0 460.8 345.6" width="460.8pt" xmlns="http://www.w3.org/2000/svg" xmlns:xlink="http://www.w3.org/1999/xlink">
 <metadata>
  <rdf:RDF xmlns:cc="http://creativecommons.org/ns#" xmlns:dc="http://purl.org/dc/elements/1.1/" xmlns:rdf="http://www.w3.org/1999/02/22-rdf-syntax-ns#">
   <cc:Work>
    <dc:type rdf:resource="http://purl.org/dc/dcmitype/StillImage"/>
    <dc:date>2022-01-18T09:15:55.746245</dc:date>
    <dc:format>image/svg+xml</dc:format>
    <dc:creator>
     <cc:Agent>
      <dc:title>Matplotlib v3.4.3, https://matplotlib.org/</dc:title>
     </cc:Agent>
    </dc:creator>
   </cc:Work>
  </rdf:RDF>
 </metadata>
 <defs>
  <style type="text/css">*{stroke-linecap:butt;stroke-linejoin:round;}</style>
 </defs>
 <g id="figure_1">
  <g id="patch_1">
   <path d="M 0 345.6 
L 460.8 345.6 
L 460.8 0 
L 0 0 
z
" style="fill:#ffffff;"/>
  </g>
  <g id="axes_1">
   <g id="patch_2">
    <path d="M 57.6 307.584 
L 414.72 307.584 
L 414.72 41.472 
L 57.6 41.472 
z
" style="fill:#ffffff;"/>
   </g>
   <g id="matplotlib.axis_1">
    <g id="xtick_1">
     <g id="line2d_1">
      <path clip-path="url(#pdd39b23486)" d="M 72.201297 307.584 
L 72.201297 41.472 
" style="fill:none;stroke:#cccccc;stroke-linecap:round;stroke-width:0.8;"/>
     </g>
     <g id="text_1">
      <!-- 0 -->
      <g style="fill:#262626;" transform="translate(69.020047 322.182437)scale(0.1 -0.1)">
       <defs>
        <path d="M 2034 4250 
Q 1547 4250 1301 3770 
Q 1056 3291 1056 2328 
Q 1056 1369 1301 889 
Q 1547 409 2034 409 
Q 2525 409 2770 889 
Q 3016 1369 3016 2328 
Q 3016 3291 2770 3770 
Q 2525 4250 2034 4250 
z
M 2034 4750 
Q 2819 4750 3233 4129 
Q 3647 3509 3647 2328 
Q 3647 1150 3233 529 
Q 2819 -91 2034 -91 
Q 1250 -91 836 529 
Q 422 1150 422 2328 
Q 422 3509 836 4129 
Q 1250 4750 2034 4750 
z
" id="DejaVuSans-30" transform="scale(0.015625)"/>
       </defs>
       <use xlink:href="#DejaVuSans-30"/>
      </g>
     </g>
    </g>
    <g id="xtick_2">
     <g id="line2d_2">
      <path clip-path="url(#pdd39b23486)" d="M 112.987044 307.584 
L 112.987044 41.472 
" style="fill:none;stroke:#cccccc;stroke-linecap:round;stroke-width:0.8;"/>
     </g>
     <g id="text_2">
      <!-- 25 -->
      <g style="fill:#262626;" transform="translate(106.624544 322.182437)scale(0.1 -0.1)">
       <defs>
        <path d="M 1228 531 
L 3431 531 
L 3431 0 
L 469 0 
L 469 531 
Q 828 903 1448 1529 
Q 2069 2156 2228 2338 
Q 2531 2678 2651 2914 
Q 2772 3150 2772 3378 
Q 2772 3750 2511 3984 
Q 2250 4219 1831 4219 
Q 1534 4219 1204 4116 
Q 875 4013 500 3803 
L 500 4441 
Q 881 4594 1212 4672 
Q 1544 4750 1819 4750 
Q 2544 4750 2975 4387 
Q 3406 4025 3406 3419 
Q 3406 3131 3298 2873 
Q 3191 2616 2906 2266 
Q 2828 2175 2409 1742 
Q 1991 1309 1228 531 
z
" id="DejaVuSans-32" transform="scale(0.015625)"/>
        <path d="M 691 4666 
L 3169 4666 
L 3169 4134 
L 1269 4134 
L 1269 2991 
Q 1406 3038 1543 3061 
Q 1681 3084 1819 3084 
Q 2600 3084 3056 2656 
Q 3513 2228 3513 1497 
Q 3513 744 3044 326 
Q 2575 -91 1722 -91 
Q 1428 -91 1123 -41 
Q 819 9 494 109 
L 494 744 
Q 775 591 1075 516 
Q 1375 441 1709 441 
Q 2250 441 2565 725 
Q 2881 1009 2881 1497 
Q 2881 1984 2565 2268 
Q 2250 2553 1709 2553 
Q 1456 2553 1204 2497 
Q 953 2441 691 2322 
L 691 4666 
z
" id="DejaVuSans-35" transform="scale(0.015625)"/>
       </defs>
       <use xlink:href="#DejaVuSans-32"/>
       <use x="63.623047" xlink:href="#DejaVuSans-35"/>
      </g>
     </g>
    </g>
    <g id="xtick_3">
     <g id="line2d_3">
      <path clip-path="url(#pdd39b23486)" d="M 153.772791 307.584 
L 153.772791 41.472 
" style="fill:none;stroke:#cccccc;stroke-linecap:round;stroke-width:0.8;"/>
     </g>
     <g id="text_3">
      <!-- 50 -->
      <g style="fill:#262626;" transform="translate(147.410291 322.182437)scale(0.1 -0.1)">
       <use xlink:href="#DejaVuSans-35"/>
       <use x="63.623047" xlink:href="#DejaVuSans-30"/>
      </g>
     </g>
    </g>
    <g id="xtick_4">
     <g id="line2d_4">
      <path clip-path="url(#pdd39b23486)" d="M 194.558538 307.584 
L 194.558538 41.472 
" style="fill:none;stroke:#cccccc;stroke-linecap:round;stroke-width:0.8;"/>
     </g>
     <g id="text_4">
      <!-- 75 -->
      <g style="fill:#262626;" transform="translate(188.196038 322.182437)scale(0.1 -0.1)">
       <defs>
        <path d="M 525 4666 
L 3525 4666 
L 3525 4397 
L 1831 0 
L 1172 0 
L 2766 4134 
L 525 4134 
L 525 4666 
z
" id="DejaVuSans-37" transform="scale(0.015625)"/>
       </defs>
       <use xlink:href="#DejaVuSans-37"/>
       <use x="63.623047" xlink:href="#DejaVuSans-35"/>
      </g>
     </g>
    </g>
    <g id="xtick_5">
     <g id="line2d_5">
      <path clip-path="url(#pdd39b23486)" d="M 235.344285 307.584 
L 235.344285 41.472 
" style="fill:none;stroke:#cccccc;stroke-linecap:round;stroke-width:0.8;"/>
     </g>
     <g id="text_5">
      <!-- 100 -->
      <g style="fill:#262626;" transform="translate(225.800535 322.182437)scale(0.1 -0.1)">
       <defs>
        <path d="M 794 531 
L 1825 531 
L 1825 4091 
L 703 3866 
L 703 4441 
L 1819 4666 
L 2450 4666 
L 2450 531 
L 3481 531 
L 3481 0 
L 794 0 
L 794 531 
z
" id="DejaVuSans-31" transform="scale(0.015625)"/>
       </defs>
       <use xlink:href="#DejaVuSans-31"/>
       <use x="63.623047" xlink:href="#DejaVuSans-30"/>
       <use x="127.246094" xlink:href="#DejaVuSans-30"/>
      </g>
     </g>
    </g>
    <g id="xtick_6">
     <g id="line2d_6">
      <path clip-path="url(#pdd39b23486)" d="M 276.130032 307.584 
L 276.130032 41.472 
" style="fill:none;stroke:#cccccc;stroke-linecap:round;stroke-width:0.8;"/>
     </g>
     <g id="text_6">
      <!-- 125 -->
      <g style="fill:#262626;" transform="translate(266.586282 322.182437)scale(0.1 -0.1)">
       <use xlink:href="#DejaVuSans-31"/>
       <use x="63.623047" xlink:href="#DejaVuSans-32"/>
       <use x="127.246094" xlink:href="#DejaVuSans-35"/>
      </g>
     </g>
    </g>
    <g id="xtick_7">
     <g id="line2d_7">
      <path clip-path="url(#pdd39b23486)" d="M 316.915779 307.584 
L 316.915779 41.472 
" style="fill:none;stroke:#cccccc;stroke-linecap:round;stroke-width:0.8;"/>
     </g>
     <g id="text_7">
      <!-- 150 -->
      <g style="fill:#262626;" transform="translate(307.372029 322.182437)scale(0.1 -0.1)">
       <use xlink:href="#DejaVuSans-31"/>
       <use x="63.623047" xlink:href="#DejaVuSans-35"/>
       <use x="127.246094" xlink:href="#DejaVuSans-30"/>
      </g>
     </g>
    </g>
    <g id="xtick_8">
     <g id="line2d_8">
      <path clip-path="url(#pdd39b23486)" d="M 357.701526 307.584 
L 357.701526 41.472 
" style="fill:none;stroke:#cccccc;stroke-linecap:round;stroke-width:0.8;"/>
     </g>
     <g id="text_8">
      <!-- 175 -->
      <g style="fill:#262626;" transform="translate(348.157776 322.182437)scale(0.1 -0.1)">
       <use xlink:href="#DejaVuSans-31"/>
       <use x="63.623047" xlink:href="#DejaVuSans-37"/>
       <use x="127.246094" xlink:href="#DejaVuSans-35"/>
      </g>
     </g>
    </g>
    <g id="xtick_9">
     <g id="line2d_9">
      <path clip-path="url(#pdd39b23486)" d="M 398.487273 307.584 
L 398.487273 41.472 
" style="fill:none;stroke:#cccccc;stroke-linecap:round;stroke-width:0.8;"/>
     </g>
     <g id="text_9">
      <!-- 200 -->
      <g style="fill:#262626;" transform="translate(388.943523 322.182437)scale(0.1 -0.1)">
       <use xlink:href="#DejaVuSans-32"/>
       <use x="63.623047" xlink:href="#DejaVuSans-30"/>
       <use x="127.246094" xlink:href="#DejaVuSans-30"/>
      </g>
     </g>
    </g>
    <g id="text_10">
     <!-- Auroc -->
     <g style="fill:#262626;" transform="translate(221.819375 335.860562)scale(0.1 -0.1)">
      <defs>
       <path d="M 2188 4044 
L 1331 1722 
L 3047 1722 
L 2188 4044 
z
M 1831 4666 
L 2547 4666 
L 4325 0 
L 3669 0 
L 3244 1197 
L 1141 1197 
L 716 0 
L 50 0 
L 1831 4666 
z
" id="DejaVuSans-41" transform="scale(0.015625)"/>
       <path d="M 544 1381 
L 544 3500 
L 1119 3500 
L 1119 1403 
Q 1119 906 1312 657 
Q 1506 409 1894 409 
Q 2359 409 2629 706 
Q 2900 1003 2900 1516 
L 2900 3500 
L 3475 3500 
L 3475 0 
L 2900 0 
L 2900 538 
Q 2691 219 2414 64 
Q 2138 -91 1772 -91 
Q 1169 -91 856 284 
Q 544 659 544 1381 
z
M 1991 3584 
L 1991 3584 
z
" id="DejaVuSans-75" transform="scale(0.015625)"/>
       <path d="M 2631 2963 
Q 2534 3019 2420 3045 
Q 2306 3072 2169 3072 
Q 1681 3072 1420 2755 
Q 1159 2438 1159 1844 
L 1159 0 
L 581 0 
L 581 3500 
L 1159 3500 
L 1159 2956 
Q 1341 3275 1631 3429 
Q 1922 3584 2338 3584 
Q 2397 3584 2469 3576 
Q 2541 3569 2628 3553 
L 2631 2963 
z
" id="DejaVuSans-72" transform="scale(0.015625)"/>
       <path d="M 1959 3097 
Q 1497 3097 1228 2736 
Q 959 2375 959 1747 
Q 959 1119 1226 758 
Q 1494 397 1959 397 
Q 2419 397 2687 759 
Q 2956 1122 2956 1747 
Q 2956 2369 2687 2733 
Q 2419 3097 1959 3097 
z
M 1959 3584 
Q 2709 3584 3137 3096 
Q 3566 2609 3566 1747 
Q 3566 888 3137 398 
Q 2709 -91 1959 -91 
Q 1206 -91 779 398 
Q 353 888 353 1747 
Q 353 2609 779 3096 
Q 1206 3584 1959 3584 
z
" id="DejaVuSans-6f" transform="scale(0.015625)"/>
       <path d="M 3122 3366 
L 3122 2828 
Q 2878 2963 2633 3030 
Q 2388 3097 2138 3097 
Q 1578 3097 1268 2742 
Q 959 2388 959 1747 
Q 959 1106 1268 751 
Q 1578 397 2138 397 
Q 2388 397 2633 464 
Q 2878 531 3122 666 
L 3122 134 
Q 2881 22 2623 -34 
Q 2366 -91 2075 -91 
Q 1284 -91 818 406 
Q 353 903 353 1747 
Q 353 2603 823 3093 
Q 1294 3584 2113 3584 
Q 2378 3584 2631 3529 
Q 2884 3475 3122 3366 
z
" id="DejaVuSans-63" transform="scale(0.015625)"/>
      </defs>
      <use xlink:href="#DejaVuSans-41"/>
      <use x="68.408203" xlink:href="#DejaVuSans-75"/>
      <use x="131.787109" xlink:href="#DejaVuSans-72"/>
      <use x="170.650391" xlink:href="#DejaVuSans-6f"/>
      <use x="231.832031" xlink:href="#DejaVuSans-63"/>
     </g>
    </g>
   </g>
   <g id="matplotlib.axis_2">
    <g id="ytick_1">
     <g id="line2d_10">
      <path clip-path="url(#pdd39b23486)" d="M 57.6 280.184252 
L 414.72 280.184252 
" style="fill:none;stroke:#cccccc;stroke-linecap:round;stroke-width:0.8;"/>
     </g>
     <g id="text_11">
      <!-- 0.50 -->
      <g style="fill:#262626;" transform="translate(28.334375 283.98347)scale(0.1 -0.1)">
       <defs>
        <path d="M 684 794 
L 1344 794 
L 1344 0 
L 684 0 
L 684 794 
z
" id="DejaVuSans-2e" transform="scale(0.015625)"/>
       </defs>
       <use xlink:href="#DejaVuSans-30"/>
       <use x="63.623047" xlink:href="#DejaVuSans-2e"/>
       <use x="95.410156" xlink:href="#DejaVuSans-35"/>
       <use x="159.033203" xlink:href="#DejaVuSans-30"/>
      </g>
     </g>
    </g>
    <g id="ytick_2">
     <g id="line2d_11">
      <path clip-path="url(#pdd39b23486)" d="M 57.6 228.563993 
L 414.72 228.563993 
" style="fill:none;stroke:#cccccc;stroke-linecap:round;stroke-width:0.8;"/>
     </g>
     <g id="text_12">
      <!-- 0.55 -->
      <g style="fill:#262626;" transform="translate(28.334375 232.363212)scale(0.1 -0.1)">
       <use xlink:href="#DejaVuSans-30"/>
       <use x="63.623047" xlink:href="#DejaVuSans-2e"/>
       <use x="95.410156" xlink:href="#DejaVuSans-35"/>
       <use x="159.033203" xlink:href="#DejaVuSans-35"/>
      </g>
     </g>
    </g>
    <g id="ytick_3">
     <g id="line2d_12">
      <path clip-path="url(#pdd39b23486)" d="M 57.6 176.943735 
L 414.72 176.943735 
" style="fill:none;stroke:#cccccc;stroke-linecap:round;stroke-width:0.8;"/>
     </g>
     <g id="text_13">
      <!-- 0.60 -->
      <g style="fill:#262626;" transform="translate(28.334375 180.742953)scale(0.1 -0.1)">
       <defs>
        <path d="M 2113 2584 
Q 1688 2584 1439 2293 
Q 1191 2003 1191 1497 
Q 1191 994 1439 701 
Q 1688 409 2113 409 
Q 2538 409 2786 701 
Q 3034 994 3034 1497 
Q 3034 2003 2786 2293 
Q 2538 2584 2113 2584 
z
M 3366 4563 
L 3366 3988 
Q 3128 4100 2886 4159 
Q 2644 4219 2406 4219 
Q 1781 4219 1451 3797 
Q 1122 3375 1075 2522 
Q 1259 2794 1537 2939 
Q 1816 3084 2150 3084 
Q 2853 3084 3261 2657 
Q 3669 2231 3669 1497 
Q 3669 778 3244 343 
Q 2819 -91 2113 -91 
Q 1303 -91 875 529 
Q 447 1150 447 2328 
Q 447 3434 972 4092 
Q 1497 4750 2381 4750 
Q 2619 4750 2861 4703 
Q 3103 4656 3366 4563 
z
" id="DejaVuSans-36" transform="scale(0.015625)"/>
       </defs>
       <use xlink:href="#DejaVuSans-30"/>
       <use x="63.623047" xlink:href="#DejaVuSans-2e"/>
       <use x="95.410156" xlink:href="#DejaVuSans-36"/>
       <use x="159.033203" xlink:href="#DejaVuSans-30"/>
      </g>
     </g>
    </g>
    <g id="ytick_4">
     <g id="line2d_13">
      <path clip-path="url(#pdd39b23486)" d="M 57.6 125.323476 
L 414.72 125.323476 
" style="fill:none;stroke:#cccccc;stroke-linecap:round;stroke-width:0.8;"/>
     </g>
     <g id="text_14">
      <!-- 0.65 -->
      <g style="fill:#262626;" transform="translate(28.334375 129.122695)scale(0.1 -0.1)">
       <use xlink:href="#DejaVuSans-30"/>
       <use x="63.623047" xlink:href="#DejaVuSans-2e"/>
       <use x="95.410156" xlink:href="#DejaVuSans-36"/>
       <use x="159.033203" xlink:href="#DejaVuSans-35"/>
      </g>
     </g>
    </g>
    <g id="ytick_5">
     <g id="line2d_14">
      <path clip-path="url(#pdd39b23486)" d="M 57.6 73.703217 
L 414.72 73.703217 
" style="fill:none;stroke:#cccccc;stroke-linecap:round;stroke-width:0.8;"/>
     </g>
     <g id="text_15">
      <!-- 0.70 -->
      <g style="fill:#262626;" transform="translate(28.334375 77.502436)scale(0.1 -0.1)">
       <use xlink:href="#DejaVuSans-30"/>
       <use x="63.623047" xlink:href="#DejaVuSans-2e"/>
       <use x="95.410156" xlink:href="#DejaVuSans-37"/>
       <use x="159.033203" xlink:href="#DejaVuSans-30"/>
      </g>
     </g>
    </g>
    <g id="text_16">
     <!-- Iteration -->
     <g style="fill:#262626;" transform="translate(22.254687 195.736594)rotate(-90)scale(0.1 -0.1)">
      <defs>
       <path d="M 628 4666 
L 1259 4666 
L 1259 0 
L 628 0 
L 628 4666 
z
" id="DejaVuSans-49" transform="scale(0.015625)"/>
       <path d="M 1172 4494 
L 1172 3500 
L 2356 3500 
L 2356 3053 
L 1172 3053 
L 1172 1153 
Q 1172 725 1289 603 
Q 1406 481 1766 481 
L 2356 481 
L 2356 0 
L 1766 0 
Q 1100 0 847 248 
Q 594 497 594 1153 
L 594 3053 
L 172 3053 
L 172 3500 
L 594 3500 
L 594 4494 
L 1172 4494 
z
" id="DejaVuSans-74" transform="scale(0.015625)"/>
       <path d="M 3597 1894 
L 3597 1613 
L 953 1613 
Q 991 1019 1311 708 
Q 1631 397 2203 397 
Q 2534 397 2845 478 
Q 3156 559 3463 722 
L 3463 178 
Q 3153 47 2828 -22 
Q 2503 -91 2169 -91 
Q 1331 -91 842 396 
Q 353 884 353 1716 
Q 353 2575 817 3079 
Q 1281 3584 2069 3584 
Q 2775 3584 3186 3129 
Q 3597 2675 3597 1894 
z
M 3022 2063 
Q 3016 2534 2758 2815 
Q 2500 3097 2075 3097 
Q 1594 3097 1305 2825 
Q 1016 2553 972 2059 
L 3022 2063 
z
" id="DejaVuSans-65" transform="scale(0.015625)"/>
       <path d="M 2194 1759 
Q 1497 1759 1228 1600 
Q 959 1441 959 1056 
Q 959 750 1161 570 
Q 1363 391 1709 391 
Q 2188 391 2477 730 
Q 2766 1069 2766 1631 
L 2766 1759 
L 2194 1759 
z
M 3341 1997 
L 3341 0 
L 2766 0 
L 2766 531 
Q 2569 213 2275 61 
Q 1981 -91 1556 -91 
Q 1019 -91 701 211 
Q 384 513 384 1019 
Q 384 1609 779 1909 
Q 1175 2209 1959 2209 
L 2766 2209 
L 2766 2266 
Q 2766 2663 2505 2880 
Q 2244 3097 1772 3097 
Q 1472 3097 1187 3025 
Q 903 2953 641 2809 
L 641 3341 
Q 956 3463 1253 3523 
Q 1550 3584 1831 3584 
Q 2591 3584 2966 3190 
Q 3341 2797 3341 1997 
z
" id="DejaVuSans-61" transform="scale(0.015625)"/>
       <path d="M 603 3500 
L 1178 3500 
L 1178 0 
L 603 0 
L 603 3500 
z
M 603 4863 
L 1178 4863 
L 1178 4134 
L 603 4134 
L 603 4863 
z
" id="DejaVuSans-69" transform="scale(0.015625)"/>
       <path d="M 3513 2113 
L 3513 0 
L 2938 0 
L 2938 2094 
Q 2938 2591 2744 2837 
Q 2550 3084 2163 3084 
Q 1697 3084 1428 2787 
Q 1159 2491 1159 1978 
L 1159 0 
L 581 0 
L 581 3500 
L 1159 3500 
L 1159 2956 
Q 1366 3272 1645 3428 
Q 1925 3584 2291 3584 
Q 2894 3584 3203 3211 
Q 3513 2838 3513 2113 
z
" id="DejaVuSans-6e" transform="scale(0.015625)"/>
      </defs>
      <use xlink:href="#DejaVuSans-49"/>
      <use x="29.492188" xlink:href="#DejaVuSans-74"/>
      <use x="68.701172" xlink:href="#DejaVuSans-65"/>
      <use x="130.224609" xlink:href="#DejaVuSans-72"/>
      <use x="171.337891" xlink:href="#DejaVuSans-61"/>
      <use x="232.617188" xlink:href="#DejaVuSans-74"/>
      <use x="271.826172" xlink:href="#DejaVuSans-69"/>
      <use x="299.609375" xlink:href="#DejaVuSans-6f"/>
      <use x="360.791016" xlink:href="#DejaVuSans-6e"/>
     </g>
    </g>
   </g>
   <g id="PolyCollection_1">
    <defs>
     <path d="M 73.832727 -196.312118 
L 73.832727 -99.567143 
L 75.464157 -92.320227 
L 77.095587 -148.90074 
L 78.727017 -77.838657 
L 80.358447 -70.306236 
L 81.989877 -164.175726 
L 83.621307 -98.149989 
L 85.252736 -119.179447 
L 86.884166 -121.134038 
L 88.515596 -50.112 
L 90.147026 -111.49619 
L 91.778456 -144.755909 
L 93.409886 -162.714696 
L 95.041316 -81.065786 
L 96.672746 -86.052114 
L 98.304175 -58.742482 
L 99.935605 -120.478618 
L 101.567035 -70.740906 
L 103.198465 -100.670117 
L 104.829895 -144.161052 
L 106.461325 -168.80564 
L 108.092755 -93.123561 
L 109.724185 -103.934005 
L 111.355614 -122.620371 
L 112.987044 -86.19632 
L 114.618474 -166.134221 
L 116.249904 -87.570653 
L 117.881334 -134.52556 
L 119.512764 -137.378496 
L 121.144194 -145.49121 
L 122.775624 -131.969737 
L 124.407053 -138.202204 
L 126.038483 -148.136836 
L 127.669913 -69.102181 
L 129.301343 -136.291076 
L 130.932773 -162.822197 
L 132.564203 -158.941385 
L 134.195633 -89.957658 
L 135.827063 -99.714135 
L 137.458492 -131.92079 
L 139.089922 -97.686044 
L 140.721352 -116.418435 
L 142.352782 -148.27083 
L 143.984212 -72.555915 
L 145.615642 -119.149583 
L 147.247072 -117.064965 
L 148.878502 -89.06571 
L 150.509931 -87.345176 
L 152.141361 -126.321314 
L 153.772791 -66.956523 
L 155.404221 -115.968789 
L 157.035651 -138.321875 
L 158.667081 -106.84678 
L 160.298511 -165.170238 
L 161.929941 -136.679817 
L 163.56137 -182.553728 
L 165.1928 -112.414586 
L 166.82423 -140.977713 
L 168.45566 -156.725064 
L 170.08709 -132.409416 
L 171.71852 -105.788669 
L 173.34995 -165.092288 
L 174.98138 -124.996258 
L 176.61281 -105.697012 
L 178.244239 -119.933894 
L 179.875669 -140.923932 
L 181.507099 -130.586826 
L 183.138529 -93.770026 
L 184.769959 -56.769337 
L 186.401389 -121.278172 
L 188.032819 -131.992472 
L 189.664249 -145.251424 
L 191.295678 -119.804699 
L 192.927108 -157.474035 
L 194.558538 -83.116754 
L 196.189968 -149.06147 
L 197.821398 -116.224815 
L 199.452828 -70.006824 
L 201.084258 -122.339289 
L 202.715688 -118.94147 
L 204.347117 -153.689136 
L 205.978547 -127.549781 
L 207.609977 -139.071368 
L 209.241407 -125.017502 
L 210.872837 -123.808557 
L 212.504267 -116.079704 
L 214.135697 -50.916685 
L 215.767127 -128.978286 
L 217.398556 -103.649016 
L 219.029986 -145.346302 
L 220.661416 -128.225523 
L 222.292846 -142.163809 
L 223.924276 -173.931878 
L 225.555706 -88.820151 
L 227.187136 -168.372965 
L 228.818566 -154.90618 
L 230.449995 -128.11411 
L 232.081425 -102.725254 
L 233.712855 -143.049268 
L 235.344285 -95.111745 
L 236.975715 -125.52176 
L 238.607145 -96.584048 
L 240.238575 -118.706554 
L 241.870005 -139.471115 
L 243.501434 -117.814456 
L 245.132864 -122.499092 
L 246.764294 -152.095845 
L 248.395724 -137.15375 
L 250.027154 -136.171437 
L 251.658584 -100.365634 
L 253.290014 -93.246007 
L 254.921444 -113.948445 
L 256.552873 -104.326925 
L 258.184303 -127.764153 
L 259.815733 -161.365863 
L 261.447163 -143.127321 
L 263.078593 -141.128918 
L 264.710023 -118.342567 
L 266.341453 -128.023052 
L 267.972883 -149.277873 
L 269.604312 -95.177438 
L 271.235742 -60.623118 
L 272.867172 -127.537972 
L 274.498602 -124.429959 
L 276.130032 -140.552564 
L 277.761462 -120.009562 
L 279.392892 -122.191552 
L 281.024322 -146.453106 
L 282.655751 -168.905428 
L 284.287181 -114.857592 
L 285.918611 -154.260186 
L 287.550041 -125.022204 
L 289.181471 -151.768255 
L 290.812901 -124.370724 
L 292.444331 -144.432154 
L 294.075761 -94.98866 
L 295.70719 -137.238272 
L 297.33862 -135.947803 
L 298.97005 -168.877634 
L 300.60148 -57.933824 
L 302.23291 -130.751723 
L 303.86434 -124.977009 
L 305.49577 -187.63249 
L 307.1272 -131.5289 
L 308.75863 -141.512483 
L 310.390059 -119.392264 
L 312.021489 -109.148167 
L 313.652919 -136.114815 
L 315.284349 -201.97842 
L 316.915779 -151.575365 
L 318.547209 -185.269481 
L 320.178639 -128.595073 
L 321.810069 -119.442977 
L 323.441498 -156.70457 
L 325.072928 -131.217039 
L 326.704358 -112.977937 
L 328.335788 -54.479846 
L 329.967218 -128.145225 
L 331.598648 -74.959847 
L 333.230078 -144.874284 
L 334.861508 -109.731532 
L 336.492937 -139.665511 
L 338.124367 -136.289588 
L 339.755797 -153.211068 
L 341.387227 -133.08753 
L 343.018657 -135.540645 
L 344.650087 -162.925446 
L 346.281517 -152.520625 
L 347.912947 -133.192379 
L 349.544376 -136.312143 
L 351.175806 -161.345519 
L 352.807236 -172.89511 
L 354.438666 -119.307328 
L 356.070096 -125.599336 
L 357.701526 -119.202338 
L 359.332956 -127.391036 
L 360.964386 -105.502345 
L 362.595815 -119.936388 
L 364.227245 -156.434333 
L 365.858675 -151.102941 
L 367.490105 -127.741801 
L 369.121535 -149.118271 
L 370.752965 -121.372055 
L 372.384395 -148.351494 
L 374.015825 -141.560952 
L 375.647254 -141.487345 
L 377.278684 -134.121092 
L 378.910114 -107.157868 
L 380.541544 -104.659031 
L 382.172974 -110.958767 
L 383.804404 -139.149982 
L 385.435834 -117.575427 
L 387.067264 -122.392483 
L 388.698693 -187.49196 
L 390.330123 -136.956603 
L 391.961553 -112.407498 
L 393.592983 -137.995446 
L 395.224413 -140.370869 
L 396.855843 -153.642288 
L 398.487273 -144.813314 
L 398.487273 -252.909486 
L 398.487273 -252.909486 
L 396.855843 -228.61508 
L 395.224413 -264.55324 
L 393.592983 -232.616987 
L 391.961553 -229.76053 
L 390.330123 -275.813844 
L 388.698693 -273.300583 
L 387.067264 -224.342507 
L 385.435834 -195.830234 
L 383.804404 -219.840958 
L 382.172974 -216.921054 
L 380.541544 -227.641118 
L 378.910114 -217.468241 
L 377.278684 -251.170881 
L 375.647254 -251.228916 
L 374.015825 -235.608585 
L 372.384395 -275.011612 
L 370.752965 -274.154936 
L 369.121535 -240.885255 
L 367.490105 -210.856416 
L 365.858675 -226.445133 
L 364.227245 -221.861818 
L 362.595815 -200.196846 
L 360.964386 -209.662343 
L 359.332956 -225.309113 
L 357.701526 -241.434938 
L 356.070096 -239.697627 
L 354.438666 -235.185952 
L 352.807236 -226.308755 
L 351.175806 -255.227181 
L 349.544376 -202.127827 
L 347.912947 -231.76655 
L 346.281517 -250.293554 
L 344.650087 -235.640917 
L 343.018657 -206.816203 
L 341.387227 -255.263815 
L 339.755797 -227.358803 
L 338.124367 -248.047709 
L 336.492937 -240.835912 
L 334.861508 -243.878776 
L 333.230078 -232.518554 
L 331.598648 -217.271441 
L 329.967218 -239.198549 
L 328.335788 -240.712867 
L 326.704358 -226.9555 
L 325.072928 -241.1465 
L 323.441498 -198.568527 
L 321.810069 -249.906459 
L 320.178639 -213.878731 
L 318.547209 -246.659259 
L 316.915779 -230.184014 
L 315.284349 -240.630292 
L 313.652919 -278.260283 
L 312.021489 -261.308959 
L 310.390059 -218.839674 
L 308.75863 -272.236082 
L 307.1272 -228.456465 
L 305.49577 -253.28612 
L 303.86434 -209.516691 
L 302.23291 -227.367194 
L 300.60148 -247.045489 
L 298.97005 -254.42246 
L 297.33862 -189.830763 
L 295.70719 -253.765127 
L 294.075761 -217.713225 
L 292.444331 -244.257548 
L 290.812901 -273.047375 
L 289.181471 -220.353666 
L 287.550041 -260.097257 
L 285.918611 -232.02969 
L 284.287181 -235.285808 
L 282.655751 -239.464405 
L 281.024322 -240.953277 
L 279.392892 -223.32994 
L 277.761462 -239.133243 
L 276.130032 -192.667996 
L 274.498602 -272.342574 
L 272.867172 -252.859005 
L 271.235742 -237.797752 
L 269.604312 -233.578635 
L 267.972883 -257.250421 
L 266.341453 -221.464029 
L 264.710023 -261.749889 
L 263.078593 -218.639478 
L 261.447163 -250.817527 
L 259.815733 -241.285912 
L 258.184303 -242.94692 
L 256.552873 -226.641265 
L 254.921444 -253.753435 
L 253.290014 -210.656405 
L 251.658584 -251.152629 
L 250.027154 -236.045254 
L 248.395724 -265.289096 
L 246.764294 -245.415732 
L 245.132864 -236.035603 
L 243.501434 -206.662115 
L 241.870005 -253.193496 
L 240.238575 -235.206124 
L 238.607145 -241.604376 
L 236.975715 -257.297518 
L 235.344285 -238.215161 
L 233.712855 -238.407369 
L 232.081425 -228.855002 
L 230.449995 -269.12585 
L 228.818566 -248.248687 
L 227.187136 -251.079499 
L 225.555706 -232.242418 
L 223.924276 -268.865797 
L 222.292846 -247.455193 
L 220.661416 -232.873625 
L 219.029986 -188.345951 
L 217.398556 -229.793017 
L 215.767127 -195.021467 
L 214.135697 -245.903775 
L 212.504267 -205.507319 
L 210.872837 -220.338001 
L 209.241407 -251.114274 
L 207.609977 -204.25539 
L 205.978547 -216.902696 
L 204.347117 -211.188752 
L 202.715688 -248.966077 
L 201.084258 -228.965566 
L 199.452828 -210.729902 
L 197.821398 -236.36551 
L 196.189968 -220.699084 
L 194.558538 -230.430522 
L 192.927108 -254.069042 
L 191.295678 -234.992833 
L 189.664249 -193.443138 
L 188.032819 -242.879569 
L 186.401389 -233.714597 
L 184.769959 -259.447448 
L 183.138529 -222.330843 
L 181.507099 -218.145976 
L 179.875669 -243.048197 
L 178.244239 -241.204717 
L 176.61281 -203.533773 
L 174.98138 -188.192087 
L 173.34995 -237.562462 
L 171.71852 -214.149006 
L 170.08709 -231.940076 
L 168.45566 -238.089011 
L 166.82423 -249.949018 
L 165.1928 -266.923304 
L 163.56137 -253.364401 
L 161.929941 -247.724434 
L 160.298511 -248.905035 
L 158.667081 -204.787882 
L 157.035651 -238.074817 
L 155.404221 -195.490099 
L 153.772791 -214.306173 
L 152.141361 -229.687566 
L 150.509931 -190.786784 
L 148.878502 -218.365151 
L 147.247072 -226.731443 
L 145.615642 -237.04464 
L 143.984212 -165.191695 
L 142.352782 -219.305421 
L 140.721352 -262.65221 
L 139.089922 -177.564971 
L 137.458492 -231.031653 
L 135.827063 -186.262038 
L 134.195633 -177.082567 
L 132.564203 -241.034896 
L 130.932773 -216.569816 
L 129.301343 -222.144872 
L 127.669913 -185.773924 
L 126.038483 -228.95589 
L 124.407053 -175.766728 
L 122.775624 -243.436257 
L 121.144194 -292.032 
L 119.512764 -273.611311 
L 117.881334 -183.732444 
L 116.249904 -225.830957 
L 114.618474 -243.394664 
L 112.987044 -242.404123 
L 111.355614 -234.352826 
L 109.724185 -187.830883 
L 108.092755 -190.18616 
L 106.461325 -213.49664 
L 104.829895 -261.170161 
L 103.198465 -206.215752 
L 101.567035 -213.202889 
L 99.935605 -177.752799 
L 98.304175 -216.337131 
L 96.672746 -211.456064 
L 95.041316 -209.72672 
L 93.409886 -253.587605 
L 91.778456 -239.299949 
L 90.147026 -236.662731 
L 88.515596 -129.245448 
L 86.884166 -260.074889 
L 85.252736 -156.120206 
L 83.621307 -187.64207 
L 81.989877 -242.670926 
L 80.358447 -160.763575 
L 78.727017 -186.382845 
L 77.095587 -240.327395 
L 75.464157 -204.035888 
L 73.832727 -196.312118 
z
" id="m5d4fe182eb" style="stroke:#ffffff;stroke-opacity:0.2;"/>
    </defs>
    <g clip-path="url(#pdd39b23486)">
     <use style="fill:#1f77b4;fill-opacity:0.2;stroke:#ffffff;stroke-opacity:0.2;" x="0" xlink:href="#m5d4fe182eb" y="345.6"/>
    </g>
   </g>
   <g id="LineCollection_1">
    <path clip-path="url(#pdd39b23486)" d="M 153.772791 295.488 
L 153.772791 53.568 
" style="fill:none;stroke:#1f77b4;stroke-dasharray:5.55,2.4;stroke-dashoffset:0;stroke-width:1.5;"/>
   </g>
   <g id="line2d_15">
    <path clip-path="url(#pdd39b23486)" d="M 73.832727 197.66037 
L 75.464157 197.421942 
L 77.095587 150.985932 
L 78.727017 213.489249 
L 80.358447 230.065095 
L 81.989877 142.176674 
L 83.621307 202.70397 
L 85.252736 207.950173 
L 86.884166 154.995537 
L 88.515596 255.921276 
L 90.147026 171.520539 
L 91.778456 153.572071 
L 93.409886 137.448849 
L 95.041316 200.203747 
L 96.672746 196.845911 
L 98.304175 208.060193 
L 99.935605 196.484292 
L 101.567035 203.628103 
L 103.198465 192.157065 
L 104.829895 142.934394 
L 106.461325 154.44886 
L 108.092755 203.945139 
L 109.724185 199.717556 
L 111.355614 167.113401 
L 112.987044 181.299779 
L 114.618474 140.835558 
L 116.249904 188.899195 
L 117.881334 186.470998 
L 119.512764 140.105097 
L 121.144194 126.838395 
L 124.407053 188.615534 
L 126.038483 157.053637 
L 127.669913 218.161947 
L 129.301343 166.382026 
L 132.564203 145.61186 
L 134.195633 212.079887 
L 135.827063 202.611914 
L 137.458492 164.123779 
L 139.089922 207.974493 
L 140.721352 156.064677 
L 142.352782 161.811875 
L 143.984212 226.726195 
L 145.615642 167.502888 
L 147.247072 173.701796 
L 148.878502 191.88457 
L 150.509931 206.53402 
L 152.141361 167.59556 
L 153.772791 204.968652 
L 155.404221 189.870556 
L 157.035651 157.401654 
L 158.667081 189.782669 
L 160.298511 138.562364 
L 161.929941 153.397874 
L 163.56137 127.640936 
L 165.1928 155.931055 
L 166.82423 150.136634 
L 168.45566 148.192962 
L 170.08709 163.425254 
L 171.71852 185.631163 
L 173.34995 144.272625 
L 174.98138 189.005827 
L 176.61281 190.984608 
L 178.244239 165.030694 
L 179.875669 153.613935 
L 181.507099 171.233599 
L 183.138529 187.549565 
L 184.769959 187.491607 
L 186.401389 168.103616 
L 188.032819 158.163979 
L 189.664249 176.252719 
L 191.295678 168.201234 
L 192.927108 139.828461 
L 194.558538 188.826362 
L 196.189968 160.719723 
L 197.821398 169.304837 
L 199.452828 205.231637 
L 201.084258 169.947573 
L 202.715688 161.646227 
L 204.347117 163.161056 
L 205.978547 173.373762 
L 207.609977 173.936621 
L 209.241407 157.534112 
L 210.872837 173.526721 
L 212.504267 184.806489 
L 214.135697 197.18977 
L 215.767127 183.600123 
L 217.398556 178.878983 
L 219.029986 178.753874 
L 222.292846 150.790499 
L 223.924276 124.201162 
L 225.555706 185.068715 
L 227.187136 135.873768 
L 228.818566 144.022567 
L 230.449995 146.98002 
L 232.081425 179.809872 
L 233.712855 154.871681 
L 235.344285 178.936547 
L 236.975715 154.190361 
L 238.607145 176.505788 
L 240.238575 168.643661 
L 241.870005 149.267694 
L 243.501434 183.361714 
L 245.132864 166.332653 
L 246.764294 146.844211 
L 248.395724 144.378577 
L 250.027154 159.491655 
L 251.658584 169.840868 
L 253.290014 193.648794 
L 254.921444 161.74906 
L 256.552873 180.115905 
L 258.184303 160.244464 
L 259.815733 144.274112 
L 261.447163 148.627576 
L 263.078593 165.715802 
L 264.710023 155.553772 
L 266.341453 170.856459 
L 267.972883 142.335853 
L 269.604312 181.221964 
L 271.235742 196.389565 
L 272.867172 155.401511 
L 274.498602 147.213734 
L 276.130032 178.98972 
L 277.761462 166.028597 
L 279.392892 172.839254 
L 281.024322 151.896809 
L 282.655751 141.415084 
L 284.287181 170.5283 
L 285.918611 152.455062 
L 287.550041 153.040269 
L 289.181471 159.539039 
L 290.812901 146.89095 
L 292.444331 151.255149 
L 294.075761 189.249057 
L 295.70719 150.0983 
L 297.33862 182.710717 
L 298.97005 133.949953 
L 300.60148 193.110344 
L 302.23291 166.540542 
L 303.86434 178.35315 
L 305.49577 125.140695 
L 307.1272 165.607317 
L 308.75863 138.725718 
L 310.390059 176.484031 
L 312.021489 160.371437 
L 313.652919 138.412451 
L 315.284349 124.295644 
L 316.915779 154.720311 
L 318.547209 129.63563 
L 320.178639 174.363098 
L 321.810069 160.925282 
L 323.441498 167.963452 
L 325.072928 159.418231 
L 326.704358 175.633281 
L 328.335788 198.003643 
L 329.967218 161.928113 
L 331.598648 199.484356 
L 333.230078 156.903581 
L 334.861508 168.794846 
L 336.492937 155.349288 
L 338.124367 153.431352 
L 339.755797 155.315064 
L 341.387227 151.424327 
L 343.018657 174.421576 
L 344.650087 146.316818 
L 346.281517 144.19291 
L 347.912947 163.120536 
L 349.544376 176.380015 
L 351.175806 137.31365 
L 352.807236 145.998067 
L 354.438666 168.35336 
L 356.070096 162.951518 
L 357.701526 165.281362 
L 359.332956 169.249926 
L 360.964386 188.017656 
L 362.595815 185.533383 
L 364.227245 156.451924 
L 365.858675 156.825963 
L 367.490105 176.300892 
L 369.121535 150.598237 
L 370.752965 147.836504 
L 372.384395 133.918447 
L 374.015825 157.015231 
L 375.647254 149.24187 
L 377.278684 152.954013 
L 378.910114 183.286946 
L 380.541544 179.449925 
L 382.172974 181.660089 
L 383.804404 166.10453 
L 385.435834 188.89717 
L 387.067264 172.232505 
L 388.698693 115.203729 
L 390.330123 139.214776 
L 391.961553 174.515986 
L 393.592983 160.293784 
L 395.224413 143.137946 
L 396.855843 154.471316 
L 398.487273 146.7386 
L 398.487273 146.7386 
" style="fill:none;stroke:#1f77b4;stroke-linecap:round;stroke-width:1.5;"/>
   </g>
   <g id="patch_3">
    <path d="M 57.6 307.584 
L 57.6 41.472 
" style="fill:none;stroke:#cccccc;stroke-linecap:square;stroke-linejoin:miter;stroke-width:0.8;"/>
   </g>
   <g id="patch_4">
    <path d="M 414.72 307.584 
L 414.72 41.472 
" style="fill:none;stroke:#cccccc;stroke-linecap:square;stroke-linejoin:miter;stroke-width:0.8;"/>
   </g>
   <g id="patch_5">
    <path d="M 57.6 307.584 
L 414.72 307.584 
" style="fill:none;stroke:#cccccc;stroke-linecap:square;stroke-linejoin:miter;stroke-width:0.8;"/>
   </g>
   <g id="patch_6">
    <path d="M 57.6 41.472 
L 414.72 41.472 
" style="fill:none;stroke:#cccccc;stroke-linecap:square;stroke-linejoin:miter;stroke-width:0.8;"/>
   </g>
   <g id="text_17">
    <!-- Model performance vs. # of iterations -->
    <g style="fill:#262626;" transform="translate(122.314688 35.472)scale(0.12 -0.12)">
     <defs>
      <path d="M 628 4666 
L 1569 4666 
L 2759 1491 
L 3956 4666 
L 4897 4666 
L 4897 0 
L 4281 0 
L 4281 4097 
L 3078 897 
L 2444 897 
L 1241 4097 
L 1241 0 
L 628 0 
L 628 4666 
z
" id="DejaVuSans-4d" transform="scale(0.015625)"/>
      <path d="M 2906 2969 
L 2906 4863 
L 3481 4863 
L 3481 0 
L 2906 0 
L 2906 525 
Q 2725 213 2448 61 
Q 2172 -91 1784 -91 
Q 1150 -91 751 415 
Q 353 922 353 1747 
Q 353 2572 751 3078 
Q 1150 3584 1784 3584 
Q 2172 3584 2448 3432 
Q 2725 3281 2906 2969 
z
M 947 1747 
Q 947 1113 1208 752 
Q 1469 391 1925 391 
Q 2381 391 2643 752 
Q 2906 1113 2906 1747 
Q 2906 2381 2643 2742 
Q 2381 3103 1925 3103 
Q 1469 3103 1208 2742 
Q 947 2381 947 1747 
z
" id="DejaVuSans-64" transform="scale(0.015625)"/>
      <path d="M 603 4863 
L 1178 4863 
L 1178 0 
L 603 0 
L 603 4863 
z
" id="DejaVuSans-6c" transform="scale(0.015625)"/>
      <path id="DejaVuSans-20" transform="scale(0.015625)"/>
      <path d="M 1159 525 
L 1159 -1331 
L 581 -1331 
L 581 3500 
L 1159 3500 
L 1159 2969 
Q 1341 3281 1617 3432 
Q 1894 3584 2278 3584 
Q 2916 3584 3314 3078 
Q 3713 2572 3713 1747 
Q 3713 922 3314 415 
Q 2916 -91 2278 -91 
Q 1894 -91 1617 61 
Q 1341 213 1159 525 
z
M 3116 1747 
Q 3116 2381 2855 2742 
Q 2594 3103 2138 3103 
Q 1681 3103 1420 2742 
Q 1159 2381 1159 1747 
Q 1159 1113 1420 752 
Q 1681 391 2138 391 
Q 2594 391 2855 752 
Q 3116 1113 3116 1747 
z
" id="DejaVuSans-70" transform="scale(0.015625)"/>
      <path d="M 2375 4863 
L 2375 4384 
L 1825 4384 
Q 1516 4384 1395 4259 
Q 1275 4134 1275 3809 
L 1275 3500 
L 2222 3500 
L 2222 3053 
L 1275 3053 
L 1275 0 
L 697 0 
L 697 3053 
L 147 3053 
L 147 3500 
L 697 3500 
L 697 3744 
Q 697 4328 969 4595 
Q 1241 4863 1831 4863 
L 2375 4863 
z
" id="DejaVuSans-66" transform="scale(0.015625)"/>
      <path d="M 3328 2828 
Q 3544 3216 3844 3400 
Q 4144 3584 4550 3584 
Q 5097 3584 5394 3201 
Q 5691 2819 5691 2113 
L 5691 0 
L 5113 0 
L 5113 2094 
Q 5113 2597 4934 2840 
Q 4756 3084 4391 3084 
Q 3944 3084 3684 2787 
Q 3425 2491 3425 1978 
L 3425 0 
L 2847 0 
L 2847 2094 
Q 2847 2600 2669 2842 
Q 2491 3084 2119 3084 
Q 1678 3084 1418 2786 
Q 1159 2488 1159 1978 
L 1159 0 
L 581 0 
L 581 3500 
L 1159 3500 
L 1159 2956 
Q 1356 3278 1631 3431 
Q 1906 3584 2284 3584 
Q 2666 3584 2933 3390 
Q 3200 3197 3328 2828 
z
" id="DejaVuSans-6d" transform="scale(0.015625)"/>
      <path d="M 191 3500 
L 800 3500 
L 1894 563 
L 2988 3500 
L 3597 3500 
L 2284 0 
L 1503 0 
L 191 3500 
z
" id="DejaVuSans-76" transform="scale(0.015625)"/>
      <path d="M 2834 3397 
L 2834 2853 
Q 2591 2978 2328 3040 
Q 2066 3103 1784 3103 
Q 1356 3103 1142 2972 
Q 928 2841 928 2578 
Q 928 2378 1081 2264 
Q 1234 2150 1697 2047 
L 1894 2003 
Q 2506 1872 2764 1633 
Q 3022 1394 3022 966 
Q 3022 478 2636 193 
Q 2250 -91 1575 -91 
Q 1294 -91 989 -36 
Q 684 19 347 128 
L 347 722 
Q 666 556 975 473 
Q 1284 391 1588 391 
Q 1994 391 2212 530 
Q 2431 669 2431 922 
Q 2431 1156 2273 1281 
Q 2116 1406 1581 1522 
L 1381 1569 
Q 847 1681 609 1914 
Q 372 2147 372 2553 
Q 372 3047 722 3315 
Q 1072 3584 1716 3584 
Q 2034 3584 2315 3537 
Q 2597 3491 2834 3397 
z
" id="DejaVuSans-73" transform="scale(0.015625)"/>
      <path d="M 3272 2816 
L 2363 2816 
L 2100 1772 
L 3016 1772 
L 3272 2816 
z
M 2803 4594 
L 2478 3297 
L 3391 3297 
L 3719 4594 
L 4219 4594 
L 3897 3297 
L 4872 3297 
L 4872 2816 
L 3775 2816 
L 3519 1772 
L 4513 1772 
L 4513 1294 
L 3397 1294 
L 3072 0 
L 2572 0 
L 2894 1294 
L 1978 1294 
L 1656 0 
L 1153 0 
L 1478 1294 
L 494 1294 
L 494 1772 
L 1594 1772 
L 1856 2816 
L 850 2816 
L 850 3297 
L 1978 3297 
L 2297 4594 
L 2803 4594 
z
" id="DejaVuSans-23" transform="scale(0.015625)"/>
     </defs>
     <use xlink:href="#DejaVuSans-4d"/>
     <use x="86.279297" xlink:href="#DejaVuSans-6f"/>
     <use x="147.460938" xlink:href="#DejaVuSans-64"/>
     <use x="210.9375" xlink:href="#DejaVuSans-65"/>
     <use x="272.460938" xlink:href="#DejaVuSans-6c"/>
     <use x="300.244141" xlink:href="#DejaVuSans-20"/>
     <use x="332.03125" xlink:href="#DejaVuSans-70"/>
     <use x="395.507812" xlink:href="#DejaVuSans-65"/>
     <use x="457.03125" xlink:href="#DejaVuSans-72"/>
     <use x="498.144531" xlink:href="#DejaVuSans-66"/>
     <use x="533.349609" xlink:href="#DejaVuSans-6f"/>
     <use x="594.53125" xlink:href="#DejaVuSans-72"/>
     <use x="633.894531" xlink:href="#DejaVuSans-6d"/>
     <use x="731.306641" xlink:href="#DejaVuSans-61"/>
     <use x="792.585938" xlink:href="#DejaVuSans-6e"/>
     <use x="855.964844" xlink:href="#DejaVuSans-63"/>
     <use x="910.945312" xlink:href="#DejaVuSans-65"/>
     <use x="972.46875" xlink:href="#DejaVuSans-20"/>
     <use x="1004.255859" xlink:href="#DejaVuSans-76"/>
     <use x="1063.435547" xlink:href="#DejaVuSans-73"/>
     <use x="1115.535156" xlink:href="#DejaVuSans-2e"/>
     <use x="1147.322266" xlink:href="#DejaVuSans-20"/>
     <use x="1179.109375" xlink:href="#DejaVuSans-23"/>
     <use x="1262.898438" xlink:href="#DejaVuSans-20"/>
     <use x="1294.685547" xlink:href="#DejaVuSans-6f"/>
     <use x="1355.867188" xlink:href="#DejaVuSans-66"/>
     <use x="1391.072266" xlink:href="#DejaVuSans-20"/>
     <use x="1422.859375" xlink:href="#DejaVuSans-69"/>
     <use x="1450.642578" xlink:href="#DejaVuSans-74"/>
     <use x="1489.851562" xlink:href="#DejaVuSans-65"/>
     <use x="1551.375" xlink:href="#DejaVuSans-72"/>
     <use x="1592.488281" xlink:href="#DejaVuSans-61"/>
     <use x="1653.767578" xlink:href="#DejaVuSans-74"/>
     <use x="1692.976562" xlink:href="#DejaVuSans-69"/>
     <use x="1720.759766" xlink:href="#DejaVuSans-6f"/>
     <use x="1781.941406" xlink:href="#DejaVuSans-6e"/>
     <use x="1845.320312" xlink:href="#DejaVuSans-73"/>
    </g>
   </g>
  </g>
 </g>
 <defs>
  <clipPath id="pdd39b23486">
   <rect height="266.112" width="357.12" x="57.6" y="41.472"/>
  </clipPath>
 </defs>
</svg>
