<?xml version="1.0" encoding="utf-8" standalone="no"?>
<!DOCTYPE svg PUBLIC "-//W3C//DTD SVG 1.1//EN"
  "http://www.w3.org/Graphics/SVG/1.1/DTD/svg11.dtd">
<svg xmlns:xlink="http://www.w3.org/1999/xlink" width="460.8pt" height="345.6pt" viewBox="0 0 460.8 345.6" xmlns="http://www.w3.org/2000/svg" version="1.1">
 <metadata>
  <rdf:RDF xmlns:dc="http://purl.org/dc/elements/1.1/" xmlns:cc="http://creativecommons.org/ns#" xmlns:rdf="http://www.w3.org/1999/02/22-rdf-syntax-ns#">
   <cc:Work>
    <dc:type rdf:resource="http://purl.org/dc/dcmitype/StillImage"/>
    <dc:date>2022-06-20T18:16:50.400470</dc:date>
    <dc:format>image/svg+xml</dc:format>
    <dc:creator>
     <cc:Agent>
      <dc:title>Matplotlib v3.5.2, https://matplotlib.org/</dc:title>
     </cc:Agent>
    </dc:creator>
   </cc:Work>
  </rdf:RDF>
 </metadata>
 <defs>
  <style type="text/css">*{stroke-linejoin: round; stroke-linecap: butt}</style>
 </defs>
 <g id="figure_1">
  <g id="patch_1">
   <path d="M 0 345.6 
L 460.8 345.6 
L 460.8 0 
L 0 0 
z
" style="fill: #ffffff"/>
  </g>
  <g id="axes_1">
   <g id="patch_2">
    <path d="M 57.6 307.584 
L 414.72 307.584 
L 414.72 41.472 
L 57.6 41.472 
z
" style="fill: #ffffff"/>
   </g>
   <g id="matplotlib.axis_1">
    <g id="xtick_1">
     <g id="line2d_1">
      <path d="M 72.201297 307.584 
L 72.201297 41.472 
" clip-path="url(#p57ab0fe193)" style="fill: none; stroke: #cccccc; stroke-width: 0.8; stroke-linecap: round"/>
     </g>
     <g id="text_1">
      <!-- 0 -->
      <g style="fill: #262626" transform="translate(69.020047 322.182437)scale(0.1 -0.1)">
       <defs>
        <path id="DejaVuSans-30" d="M 2034 4250 
Q 1547 4250 1301 3770 
Q 1056 3291 1056 2328 
Q 1056 1369 1301 889 
Q 1547 409 2034 409 
Q 2525 409 2770 889 
Q 3016 1369 3016 2328 
Q 3016 3291 2770 3770 
Q 2525 4250 2034 4250 
z
M 2034 4750 
Q 2819 4750 3233 4129 
Q 3647 3509 3647 2328 
Q 3647 1150 3233 529 
Q 2819 -91 2034 -91 
Q 1250 -91 836 529 
Q 422 1150 422 2328 
Q 422 3509 836 4129 
Q 1250 4750 2034 4750 
z
" transform="scale(0.015625)"/>
       </defs>
       <use xlink:href="#DejaVuSans-30"/>
      </g>
     </g>
    </g>
    <g id="xtick_2">
     <g id="line2d_2">
      <path d="M 112.987044 307.584 
L 112.987044 41.472 
" clip-path="url(#p57ab0fe193)" style="fill: none; stroke: #cccccc; stroke-width: 0.8; stroke-linecap: round"/>
     </g>
     <g id="text_2">
      <!-- 25 -->
      <g style="fill: #262626" transform="translate(106.624544 322.182437)scale(0.1 -0.1)">
       <defs>
        <path id="DejaVuSans-32" d="M 1228 531 
L 3431 531 
L 3431 0 
L 469 0 
L 469 531 
Q 828 903 1448 1529 
Q 2069 2156 2228 2338 
Q 2531 2678 2651 2914 
Q 2772 3150 2772 3378 
Q 2772 3750 2511 3984 
Q 2250 4219 1831 4219 
Q 1534 4219 1204 4116 
Q 875 4013 500 3803 
L 500 4441 
Q 881 4594 1212 4672 
Q 1544 4750 1819 4750 
Q 2544 4750 2975 4387 
Q 3406 4025 3406 3419 
Q 3406 3131 3298 2873 
Q 3191 2616 2906 2266 
Q 2828 2175 2409 1742 
Q 1991 1309 1228 531 
z
" transform="scale(0.015625)"/>
        <path id="DejaVuSans-35" d="M 691 4666 
L 3169 4666 
L 3169 4134 
L 1269 4134 
L 1269 2991 
Q 1406 3038 1543 3061 
Q 1681 3084 1819 3084 
Q 2600 3084 3056 2656 
Q 3513 2228 3513 1497 
Q 3513 744 3044 326 
Q 2575 -91 1722 -91 
Q 1428 -91 1123 -41 
Q 819 9 494 109 
L 494 744 
Q 775 591 1075 516 
Q 1375 441 1709 441 
Q 2250 441 2565 725 
Q 2881 1009 2881 1497 
Q 2881 1984 2565 2268 
Q 2250 2553 1709 2553 
Q 1456 2553 1204 2497 
Q 953 2441 691 2322 
L 691 4666 
z
" transform="scale(0.015625)"/>
       </defs>
       <use xlink:href="#DejaVuSans-32"/>
       <use xlink:href="#DejaVuSans-35" x="63.623047"/>
      </g>
     </g>
    </g>
    <g id="xtick_3">
     <g id="line2d_3">
      <path d="M 153.772791 307.584 
L 153.772791 41.472 
" clip-path="url(#p57ab0fe193)" style="fill: none; stroke: #cccccc; stroke-width: 0.8; stroke-linecap: round"/>
     </g>
     <g id="text_3">
      <!-- 50 -->
      <g style="fill: #262626" transform="translate(147.410291 322.182437)scale(0.1 -0.1)">
       <use xlink:href="#DejaVuSans-35"/>
       <use xlink:href="#DejaVuSans-30" x="63.623047"/>
      </g>
     </g>
    </g>
    <g id="xtick_4">
     <g id="line2d_4">
      <path d="M 194.558538 307.584 
L 194.558538 41.472 
" clip-path="url(#p57ab0fe193)" style="fill: none; stroke: #cccccc; stroke-width: 0.8; stroke-linecap: round"/>
     </g>
     <g id="text_4">
      <!-- 75 -->
      <g style="fill: #262626" transform="translate(188.196038 322.182437)scale(0.1 -0.1)">
       <defs>
        <path id="DejaVuSans-37" d="M 525 4666 
L 3525 4666 
L 3525 4397 
L 1831 0 
L 1172 0 
L 2766 4134 
L 525 4134 
L 525 4666 
z
" transform="scale(0.015625)"/>
       </defs>
       <use xlink:href="#DejaVuSans-37"/>
       <use xlink:href="#DejaVuSans-35" x="63.623047"/>
      </g>
     </g>
    </g>
    <g id="xtick_5">
     <g id="line2d_5">
      <path d="M 235.344285 307.584 
L 235.344285 41.472 
" clip-path="url(#p57ab0fe193)" style="fill: none; stroke: #cccccc; stroke-width: 0.8; stroke-linecap: round"/>
     </g>
     <g id="text_5">
      <!-- 100 -->
      <g style="fill: #262626" transform="translate(225.800535 322.182437)scale(0.1 -0.1)">
       <defs>
        <path id="DejaVuSans-31" d="M 794 531 
L 1825 531 
L 1825 4091 
L 703 3866 
L 703 4441 
L 1819 4666 
L 2450 4666 
L 2450 531 
L 3481 531 
L 3481 0 
L 794 0 
L 794 531 
z
" transform="scale(0.015625)"/>
       </defs>
       <use xlink:href="#DejaVuSans-31"/>
       <use xlink:href="#DejaVuSans-30" x="63.623047"/>
       <use xlink:href="#DejaVuSans-30" x="127.246094"/>
      </g>
     </g>
    </g>
    <g id="xtick_6">
     <g id="line2d_6">
      <path d="M 276.130032 307.584 
L 276.130032 41.472 
" clip-path="url(#p57ab0fe193)" style="fill: none; stroke: #cccccc; stroke-width: 0.8; stroke-linecap: round"/>
     </g>
     <g id="text_6">
      <!-- 125 -->
      <g style="fill: #262626" transform="translate(266.586282 322.182437)scale(0.1 -0.1)">
       <use xlink:href="#DejaVuSans-31"/>
       <use xlink:href="#DejaVuSans-32" x="63.623047"/>
       <use xlink:href="#DejaVuSans-35" x="127.246094"/>
      </g>
     </g>
    </g>
    <g id="xtick_7">
     <g id="line2d_7">
      <path d="M 316.915779 307.584 
L 316.915779 41.472 
" clip-path="url(#p57ab0fe193)" style="fill: none; stroke: #cccccc; stroke-width: 0.8; stroke-linecap: round"/>
     </g>
     <g id="text_7">
      <!-- 150 -->
      <g style="fill: #262626" transform="translate(307.372029 322.182437)scale(0.1 -0.1)">
       <use xlink:href="#DejaVuSans-31"/>
       <use xlink:href="#DejaVuSans-35" x="63.623047"/>
       <use xlink:href="#DejaVuSans-30" x="127.246094"/>
      </g>
     </g>
    </g>
    <g id="xtick_8">
     <g id="line2d_8">
      <path d="M 357.701526 307.584 
L 357.701526 41.472 
" clip-path="url(#p57ab0fe193)" style="fill: none; stroke: #cccccc; stroke-width: 0.8; stroke-linecap: round"/>
     </g>
     <g id="text_8">
      <!-- 175 -->
      <g style="fill: #262626" transform="translate(348.157776 322.182437)scale(0.1 -0.1)">
       <use xlink:href="#DejaVuSans-31"/>
       <use xlink:href="#DejaVuSans-37" x="63.623047"/>
       <use xlink:href="#DejaVuSans-35" x="127.246094"/>
      </g>
     </g>
    </g>
    <g id="xtick_9">
     <g id="line2d_9">
      <path d="M 398.487273 307.584 
L 398.487273 41.472 
" clip-path="url(#p57ab0fe193)" style="fill: none; stroke: #cccccc; stroke-width: 0.8; stroke-linecap: round"/>
     </g>
     <g id="text_9">
      <!-- 200 -->
      <g style="fill: #262626" transform="translate(388.943523 322.182437)scale(0.1 -0.1)">
       <use xlink:href="#DejaVuSans-32"/>
       <use xlink:href="#DejaVuSans-30" x="63.623047"/>
       <use xlink:href="#DejaVuSans-30" x="127.246094"/>
      </g>
     </g>
    </g>
    <g id="text_10">
     <!-- Iteration -->
     <g style="fill: #262626" transform="translate(214.951406 335.860562)scale(0.1 -0.1)">
      <defs>
       <path id="DejaVuSans-49" d="M 628 4666 
L 1259 4666 
L 1259 0 
L 628 0 
L 628 4666 
z
" transform="scale(0.015625)"/>
       <path id="DejaVuSans-74" d="M 1172 4494 
L 1172 3500 
L 2356 3500 
L 2356 3053 
L 1172 3053 
L 1172 1153 
Q 1172 725 1289 603 
Q 1406 481 1766 481 
L 2356 481 
L 2356 0 
L 1766 0 
Q 1100 0 847 248 
Q 594 497 594 1153 
L 594 3053 
L 172 3053 
L 172 3500 
L 594 3500 
L 594 4494 
L 1172 4494 
z
" transform="scale(0.015625)"/>
       <path id="DejaVuSans-65" d="M 3597 1894 
L 3597 1613 
L 953 1613 
Q 991 1019 1311 708 
Q 1631 397 2203 397 
Q 2534 397 2845 478 
Q 3156 559 3463 722 
L 3463 178 
Q 3153 47 2828 -22 
Q 2503 -91 2169 -91 
Q 1331 -91 842 396 
Q 353 884 353 1716 
Q 353 2575 817 3079 
Q 1281 3584 2069 3584 
Q 2775 3584 3186 3129 
Q 3597 2675 3597 1894 
z
M 3022 2063 
Q 3016 2534 2758 2815 
Q 2500 3097 2075 3097 
Q 1594 3097 1305 2825 
Q 1016 2553 972 2059 
L 3022 2063 
z
" transform="scale(0.015625)"/>
       <path id="DejaVuSans-72" d="M 2631 2963 
Q 2534 3019 2420 3045 
Q 2306 3072 2169 3072 
Q 1681 3072 1420 2755 
Q 1159 2438 1159 1844 
L 1159 0 
L 581 0 
L 581 3500 
L 1159 3500 
L 1159 2956 
Q 1341 3275 1631 3429 
Q 1922 3584 2338 3584 
Q 2397 3584 2469 3576 
Q 2541 3569 2628 3553 
L 2631 2963 
z
" transform="scale(0.015625)"/>
       <path id="DejaVuSans-61" d="M 2194 1759 
Q 1497 1759 1228 1600 
Q 959 1441 959 1056 
Q 959 750 1161 570 
Q 1363 391 1709 391 
Q 2188 391 2477 730 
Q 2766 1069 2766 1631 
L 2766 1759 
L 2194 1759 
z
M 3341 1997 
L 3341 0 
L 2766 0 
L 2766 531 
Q 2569 213 2275 61 
Q 1981 -91 1556 -91 
Q 1019 -91 701 211 
Q 384 513 384 1019 
Q 384 1609 779 1909 
Q 1175 2209 1959 2209 
L 2766 2209 
L 2766 2266 
Q 2766 2663 2505 2880 
Q 2244 3097 1772 3097 
Q 1472 3097 1187 3025 
Q 903 2953 641 2809 
L 641 3341 
Q 956 3463 1253 3523 
Q 1550 3584 1831 3584 
Q 2591 3584 2966 3190 
Q 3341 2797 3341 1997 
z
" transform="scale(0.015625)"/>
       <path id="DejaVuSans-69" d="M 603 3500 
L 1178 3500 
L 1178 0 
L 603 0 
L 603 3500 
z
M 603 4863 
L 1178 4863 
L 1178 4134 
L 603 4134 
L 603 4863 
z
" transform="scale(0.015625)"/>
       <path id="DejaVuSans-6f" d="M 1959 3097 
Q 1497 3097 1228 2736 
Q 959 2375 959 1747 
Q 959 1119 1226 758 
Q 1494 397 1959 397 
Q 2419 397 2687 759 
Q 2956 1122 2956 1747 
Q 2956 2369 2687 2733 
Q 2419 3097 1959 3097 
z
M 1959 3584 
Q 2709 3584 3137 3096 
Q 3566 2609 3566 1747 
Q 3566 888 3137 398 
Q 2709 -91 1959 -91 
Q 1206 -91 779 398 
Q 353 888 353 1747 
Q 353 2609 779 3096 
Q 1206 3584 1959 3584 
z
" transform="scale(0.015625)"/>
       <path id="DejaVuSans-6e" d="M 3513 2113 
L 3513 0 
L 2938 0 
L 2938 2094 
Q 2938 2591 2744 2837 
Q 2550 3084 2163 3084 
Q 1697 3084 1428 2787 
Q 1159 2491 1159 1978 
L 1159 0 
L 581 0 
L 581 3500 
L 1159 3500 
L 1159 2956 
Q 1366 3272 1645 3428 
Q 1925 3584 2291 3584 
Q 2894 3584 3203 3211 
Q 3513 2838 3513 2113 
z
" transform="scale(0.015625)"/>
      </defs>
      <use xlink:href="#DejaVuSans-49"/>
      <use xlink:href="#DejaVuSans-74" x="29.492188"/>
      <use xlink:href="#DejaVuSans-65" x="68.701172"/>
      <use xlink:href="#DejaVuSans-72" x="130.224609"/>
      <use xlink:href="#DejaVuSans-61" x="171.337891"/>
      <use xlink:href="#DejaVuSans-74" x="232.617188"/>
      <use xlink:href="#DejaVuSans-69" x="271.826172"/>
      <use xlink:href="#DejaVuSans-6f" x="299.609375"/>
      <use xlink:href="#DejaVuSans-6e" x="360.791016"/>
     </g>
    </g>
   </g>
   <g id="matplotlib.axis_2">
    <g id="ytick_1">
     <g id="line2d_10">
      <path d="M 57.6 289.641625 
L 414.72 289.641625 
" clip-path="url(#p57ab0fe193)" style="fill: none; stroke: #cccccc; stroke-width: 0.8; stroke-linecap: round"/>
     </g>
     <g id="text_11">
      <!-- 0.550 -->
      <g style="fill: #262626" transform="translate(21.971875 293.440844)scale(0.1 -0.1)">
       <defs>
        <path id="DejaVuSans-2e" d="M 684 794 
L 1344 794 
L 1344 0 
L 684 0 
L 684 794 
z
" transform="scale(0.015625)"/>
       </defs>
       <use xlink:href="#DejaVuSans-30"/>
       <use xlink:href="#DejaVuSans-2e" x="63.623047"/>
       <use xlink:href="#DejaVuSans-35" x="95.410156"/>
       <use xlink:href="#DejaVuSans-35" x="159.033203"/>
       <use xlink:href="#DejaVuSans-30" x="222.65625"/>
      </g>
     </g>
    </g>
    <g id="ytick_2">
     <g id="line2d_11">
      <path d="M 57.6 258.230528 
L 414.72 258.230528 
" clip-path="url(#p57ab0fe193)" style="fill: none; stroke: #cccccc; stroke-width: 0.8; stroke-linecap: round"/>
     </g>
     <g id="text_12">
      <!-- 0.575 -->
      <g style="fill: #262626" transform="translate(21.971875 262.029747)scale(0.1 -0.1)">
       <use xlink:href="#DejaVuSans-30"/>
       <use xlink:href="#DejaVuSans-2e" x="63.623047"/>
       <use xlink:href="#DejaVuSans-35" x="95.410156"/>
       <use xlink:href="#DejaVuSans-37" x="159.033203"/>
       <use xlink:href="#DejaVuSans-35" x="222.65625"/>
      </g>
     </g>
    </g>
    <g id="ytick_3">
     <g id="line2d_12">
      <path d="M 57.6 226.819432 
L 414.72 226.819432 
" clip-path="url(#p57ab0fe193)" style="fill: none; stroke: #cccccc; stroke-width: 0.8; stroke-linecap: round"/>
     </g>
     <g id="text_13">
      <!-- 0.600 -->
      <g style="fill: #262626" transform="translate(21.971875 230.618651)scale(0.1 -0.1)">
       <defs>
        <path id="DejaVuSans-36" d="M 2113 2584 
Q 1688 2584 1439 2293 
Q 1191 2003 1191 1497 
Q 1191 994 1439 701 
Q 1688 409 2113 409 
Q 2538 409 2786 701 
Q 3034 994 3034 1497 
Q 3034 2003 2786 2293 
Q 2538 2584 2113 2584 
z
M 3366 4563 
L 3366 3988 
Q 3128 4100 2886 4159 
Q 2644 4219 2406 4219 
Q 1781 4219 1451 3797 
Q 1122 3375 1075 2522 
Q 1259 2794 1537 2939 
Q 1816 3084 2150 3084 
Q 2853 3084 3261 2657 
Q 3669 2231 3669 1497 
Q 3669 778 3244 343 
Q 2819 -91 2113 -91 
Q 1303 -91 875 529 
Q 447 1150 447 2328 
Q 447 3434 972 4092 
Q 1497 4750 2381 4750 
Q 2619 4750 2861 4703 
Q 3103 4656 3366 4563 
z
" transform="scale(0.015625)"/>
       </defs>
       <use xlink:href="#DejaVuSans-30"/>
       <use xlink:href="#DejaVuSans-2e" x="63.623047"/>
       <use xlink:href="#DejaVuSans-36" x="95.410156"/>
       <use xlink:href="#DejaVuSans-30" x="159.033203"/>
       <use xlink:href="#DejaVuSans-30" x="222.65625"/>
      </g>
     </g>
    </g>
    <g id="ytick_4">
     <g id="line2d_13">
      <path d="M 57.6 195.408335 
L 414.72 195.408335 
" clip-path="url(#p57ab0fe193)" style="fill: none; stroke: #cccccc; stroke-width: 0.8; stroke-linecap: round"/>
     </g>
     <g id="text_14">
      <!-- 0.625 -->
      <g style="fill: #262626" transform="translate(21.971875 199.207554)scale(0.1 -0.1)">
       <use xlink:href="#DejaVuSans-30"/>
       <use xlink:href="#DejaVuSans-2e" x="63.623047"/>
       <use xlink:href="#DejaVuSans-36" x="95.410156"/>
       <use xlink:href="#DejaVuSans-32" x="159.033203"/>
       <use xlink:href="#DejaVuSans-35" x="222.65625"/>
      </g>
     </g>
    </g>
    <g id="ytick_5">
     <g id="line2d_14">
      <path d="M 57.6 163.997239 
L 414.72 163.997239 
" clip-path="url(#p57ab0fe193)" style="fill: none; stroke: #cccccc; stroke-width: 0.8; stroke-linecap: round"/>
     </g>
     <g id="text_15">
      <!-- 0.650 -->
      <g style="fill: #262626" transform="translate(21.971875 167.796457)scale(0.1 -0.1)">
       <use xlink:href="#DejaVuSans-30"/>
       <use xlink:href="#DejaVuSans-2e" x="63.623047"/>
       <use xlink:href="#DejaVuSans-36" x="95.410156"/>
       <use xlink:href="#DejaVuSans-35" x="159.033203"/>
       <use xlink:href="#DejaVuSans-30" x="222.65625"/>
      </g>
     </g>
    </g>
    <g id="ytick_6">
     <g id="line2d_15">
      <path d="M 57.6 132.586142 
L 414.72 132.586142 
" clip-path="url(#p57ab0fe193)" style="fill: none; stroke: #cccccc; stroke-width: 0.8; stroke-linecap: round"/>
     </g>
     <g id="text_16">
      <!-- 0.675 -->
      <g style="fill: #262626" transform="translate(21.971875 136.385361)scale(0.1 -0.1)">
       <use xlink:href="#DejaVuSans-30"/>
       <use xlink:href="#DejaVuSans-2e" x="63.623047"/>
       <use xlink:href="#DejaVuSans-36" x="95.410156"/>
       <use xlink:href="#DejaVuSans-37" x="159.033203"/>
       <use xlink:href="#DejaVuSans-35" x="222.65625"/>
      </g>
     </g>
    </g>
    <g id="ytick_7">
     <g id="line2d_16">
      <path d="M 57.6 101.175045 
L 414.72 101.175045 
" clip-path="url(#p57ab0fe193)" style="fill: none; stroke: #cccccc; stroke-width: 0.8; stroke-linecap: round"/>
     </g>
     <g id="text_17">
      <!-- 0.700 -->
      <g style="fill: #262626" transform="translate(21.971875 104.974264)scale(0.1 -0.1)">
       <use xlink:href="#DejaVuSans-30"/>
       <use xlink:href="#DejaVuSans-2e" x="63.623047"/>
       <use xlink:href="#DejaVuSans-37" x="95.410156"/>
       <use xlink:href="#DejaVuSans-30" x="159.033203"/>
       <use xlink:href="#DejaVuSans-30" x="222.65625"/>
      </g>
     </g>
    </g>
    <g id="ytick_8">
     <g id="line2d_17">
      <path d="M 57.6 69.763949 
L 414.72 69.763949 
" clip-path="url(#p57ab0fe193)" style="fill: none; stroke: #cccccc; stroke-width: 0.8; stroke-linecap: round"/>
     </g>
     <g id="text_18">
      <!-- 0.725 -->
      <g style="fill: #262626" transform="translate(21.971875 73.563168)scale(0.1 -0.1)">
       <use xlink:href="#DejaVuSans-30"/>
       <use xlink:href="#DejaVuSans-2e" x="63.623047"/>
       <use xlink:href="#DejaVuSans-37" x="95.410156"/>
       <use xlink:href="#DejaVuSans-32" x="159.033203"/>
       <use xlink:href="#DejaVuSans-35" x="222.65625"/>
      </g>
     </g>
    </g>
    <g id="text_19">
     <!-- Auroc -->
     <g style="fill: #262626" transform="translate(15.892188 188.868625)rotate(-90)scale(0.1 -0.1)">
      <defs>
       <path id="DejaVuSans-41" d="M 2188 4044 
L 1331 1722 
L 3047 1722 
L 2188 4044 
z
M 1831 4666 
L 2547 4666 
L 4325 0 
L 3669 0 
L 3244 1197 
L 1141 1197 
L 716 0 
L 50 0 
L 1831 4666 
z
" transform="scale(0.015625)"/>
       <path id="DejaVuSans-75" d="M 544 1381 
L 544 3500 
L 1119 3500 
L 1119 1403 
Q 1119 906 1312 657 
Q 1506 409 1894 409 
Q 2359 409 2629 706 
Q 2900 1003 2900 1516 
L 2900 3500 
L 3475 3500 
L 3475 0 
L 2900 0 
L 2900 538 
Q 2691 219 2414 64 
Q 2138 -91 1772 -91 
Q 1169 -91 856 284 
Q 544 659 544 1381 
z
M 1991 3584 
L 1991 3584 
z
" transform="scale(0.015625)"/>
       <path id="DejaVuSans-63" d="M 3122 3366 
L 3122 2828 
Q 2878 2963 2633 3030 
Q 2388 3097 2138 3097 
Q 1578 3097 1268 2742 
Q 959 2388 959 1747 
Q 959 1106 1268 751 
Q 1578 397 2138 397 
Q 2388 397 2633 464 
Q 2878 531 3122 666 
L 3122 134 
Q 2881 22 2623 -34 
Q 2366 -91 2075 -91 
Q 1284 -91 818 406 
Q 353 903 353 1747 
Q 353 2603 823 3093 
Q 1294 3584 2113 3584 
Q 2378 3584 2631 3529 
Q 2884 3475 3122 3366 
z
" transform="scale(0.015625)"/>
      </defs>
      <use xlink:href="#DejaVuSans-41"/>
      <use xlink:href="#DejaVuSans-75" x="68.408203"/>
      <use xlink:href="#DejaVuSans-72" x="131.787109"/>
      <use xlink:href="#DejaVuSans-6f" x="170.650391"/>
      <use xlink:href="#DejaVuSans-63" x="231.832031"/>
     </g>
    </g>
   </g>
   <g id="PolyCollection_1">
    <defs>
     <path id="mafc1ffee9c" d="M 73.832727 -221.861306 
L 73.832727 -168.304699 
L 75.464157 -186.256584 
L 77.095587 -124.3841 
L 78.727017 -204.148618 
L 80.358447 -186.3369 
L 81.989877 -170.691216 
L 83.621307 -130.664693 
L 85.252736 -182.273745 
L 86.884166 -174.821343 
L 88.515596 -103.658686 
L 90.147026 -151.534301 
L 91.778456 -167.920184 
L 93.409886 -144.830582 
L 95.041316 -123.752364 
L 96.672746 -178.193342 
L 98.304175 -148.801019 
L 99.935605 -181.563829 
L 101.567035 -173.809518 
L 103.198465 -189.478209 
L 104.829895 -160.890677 
L 106.461325 -158.599746 
L 108.092755 -165.494511 
L 109.724185 -120.376312 
L 111.355614 -187.607278 
L 112.987044 -150.282535 
L 114.618474 -176.118556 
L 116.249904 -187.101488 
L 117.881334 -103.807628 
L 119.512764 -180.227273 
L 121.144194 -171.323703 
L 122.775624 -155.016143 
L 124.407053 -179.361419 
L 126.038483 -172.297249 
L 127.669913 -166.081001 
L 129.301343 -160.053391 
L 130.932773 -160.986772 
L 132.564203 -192.870828 
L 134.195633 -182.579438 
L 135.827063 -110.828331 
L 137.458492 -172.473648 
L 139.089922 -151.441634 
L 140.721352 -181.115456 
L 142.352782 -168.164231 
L 143.984212 -179.205807 
L 145.615642 -156.979835 
L 147.247072 -193.683975 
L 148.878502 -126.210968 
L 150.509931 -155.664123 
L 152.141361 -140.113264 
L 153.772791 -177.439851 
L 155.404221 -175.769954 
L 157.035651 -180.681483 
L 158.667081 -76.433764 
L 160.298511 -159.732344 
L 161.929941 -146.654439 
L 163.56137 -153.861177 
L 165.1928 -165.422448 
L 166.82423 -163.447558 
L 168.45566 -171.402372 
L 170.08709 -208.88066 
L 171.71852 -100.66919 
L 173.34995 -203.146572 
L 174.98138 -159.529898 
L 176.61281 -166.404754 
L 178.244239 -156.071102 
L 179.875669 -134.992313 
L 181.507099 -162.759862 
L 183.138529 -159.956441 
L 184.769959 -176.628131 
L 186.401389 -166.349742 
L 188.032819 -157.297862 
L 189.664249 -196.514573 
L 191.295678 -176.941221 
L 192.927108 -163.181033 
L 194.558538 -149.970125 
L 196.189968 -168.43783 
L 197.821398 -179.513445 
L 199.452828 -174.819451 
L 201.084258 -191.758674 
L 202.715688 -129.327328 
L 204.347117 -170.603832 
L 205.978547 -137.972705 
L 207.609977 -188.863984 
L 209.241407 -168.19608 
L 210.872837 -173.172346 
L 212.504267 -177.737621 
L 214.135697 -134.867447 
L 215.767127 -156.480064 
L 217.398556 -178.783322 
L 219.029986 -162.73752 
L 220.661416 -181.029054 
L 222.292846 -149.7622 
L 223.924276 -121.692041 
L 225.555706 -151.813807 
L 227.187136 -178.443081 
L 228.818566 -179.975902 
L 230.449995 -189.328035 
L 232.081425 -162.696615 
L 233.712855 -50.112 
L 235.344285 -108.083183 
L 236.975715 -179.404112 
L 238.607145 -146.050138 
L 240.238575 -138.531612 
L 241.870005 -176.918905 
L 243.501434 -151.255383 
L 245.132864 -156.34854 
L 246.764294 -170.288415 
L 248.395724 -201.98974 
L 250.027154 -182.381971 
L 251.658584 -137.665504 
L 253.290014 -176.637203 
L 254.921444 -185.584002 
L 256.552873 -186.128857 
L 258.184303 -135.013373 
L 259.815733 -102.357738 
L 261.447163 -131.833349 
L 263.078593 -129.347945 
L 264.710023 -107.171437 
L 266.341453 -163.372748 
L 267.972883 -143.773366 
L 269.604312 -148.776221 
L 271.235742 -155.604211 
L 272.867172 -146.59066 
L 274.498602 -134.218842 
L 276.130032 -174.180812 
L 277.761462 -198.253084 
L 279.392892 -121.418454 
L 281.024322 -160.075661 
L 282.655751 -113.670311 
L 284.287181 -166.651206 
L 285.918611 -171.267032 
L 287.550041 -125.38892 
L 289.181471 -174.008177 
L 290.812901 -137.816908 
L 292.444331 -169.481934 
L 294.075761 -187.892761 
L 295.70719 -146.614145 
L 297.33862 -175.970848 
L 298.97005 -147.540275 
L 300.60148 -187.210195 
L 302.23291 -181.333304 
L 303.86434 -175.526397 
L 305.49577 -178.94708 
L 307.1272 -183.266458 
L 308.75863 -172.918255 
L 310.390059 -96.00138 
L 312.021489 -152.5765 
L 313.652919 -108.907399 
L 315.284349 -169.6941 
L 316.915779 -150.135691 
L 318.547209 -144.099112 
L 320.178639 -139.060946 
L 321.810069 -125.361196 
L 323.441498 -132.144676 
L 325.072928 -151.118042 
L 326.704358 -183.516677 
L 328.335788 -147.007003 
L 329.967218 -118.810754 
L 331.598648 -131.192955 
L 333.230078 -169.947618 
L 334.861508 -172.42307 
L 336.492937 -131.668111 
L 338.124367 -123.889449 
L 339.755797 -171.13982 
L 341.387227 -197.92363 
L 343.018657 -161.077873 
L 344.650087 -165.391064 
L 346.281517 -95.77829 
L 347.912947 -189.747754 
L 349.544376 -174.775527 
L 351.175806 -116.375964 
L 352.807236 -162.484311 
L 354.438666 -178.735891 
L 356.070096 -166.072321 
L 357.701526 -168.694887 
L 359.332956 -142.947146 
L 360.964386 -168.063991 
L 362.595815 -158.265274 
L 364.227245 -105.148757 
L 365.858675 -148.25241 
L 367.490105 -118.980918 
L 369.121535 -98.06636 
L 370.752965 -127.19283 
L 372.384395 -164.332808 
L 374.015825 -131.708552 
L 375.647254 -144.715875 
L 377.278684 -194.801857 
L 378.910114 -144.990387 
L 380.541544 -160.613774 
L 382.172974 -176.875134 
L 383.804404 -159.756387 
L 385.435834 -167.354831 
L 387.067264 -132.024542 
L 388.698693 -113.691226 
L 390.330123 -195.245658 
L 391.961553 -144.425075 
L 393.592983 -124.393347 
L 395.224413 -162.077288 
L 396.855843 -149.318846 
L 398.487273 -167.356723 
L 398.487273 -230.47837 
L 398.487273 -230.47837 
L 396.855843 -235.059093 
L 395.224413 -251.532716 
L 393.592983 -234.691571 
L 391.961553 -235.939493 
L 390.330123 -255.184693 
L 388.698693 -268.84326 
L 387.067264 -271.063251 
L 385.435834 -235.461482 
L 383.804404 -260.347168 
L 382.172974 -271.578201 
L 380.541544 -264.854982 
L 378.910114 -227.654666 
L 377.278684 -274.92475 
L 375.647254 -231.646259 
L 374.015825 -290.064591 
L 372.384395 -250.908204 
L 370.752965 -228.889739 
L 369.121535 -268.006767 
L 367.490105 -254.810307 
L 365.858675 -251.523244 
L 364.227245 -198.576685 
L 362.595815 -264.892914 
L 360.964386 -240.100309 
L 359.332956 -256.318053 
L 357.701526 -286.000163 
L 356.070096 -278.06609 
L 354.438666 -268.793135 
L 352.807236 -262.47885 
L 351.175806 -262.638494 
L 349.544376 -264.965127 
L 347.912947 -283.905341 
L 346.281517 -273.432605 
L 344.650087 -284.577133 
L 343.018657 -254.828624 
L 341.387227 -234.653633 
L 339.755797 -252.488116 
L 338.124367 -256.513598 
L 336.492937 -258.419856 
L 334.861508 -234.231027 
L 333.230078 -217.240206 
L 331.598648 -231.522466 
L 329.967218 -244.186475 
L 328.335788 -283.675874 
L 326.704358 -267.008049 
L 325.072928 -245.923166 
L 323.441498 -234.017864 
L 321.810069 -228.110735 
L 320.178639 -252.199182 
L 318.547209 -292.032 
L 316.915779 -274.008574 
L 315.284349 -245.106224 
L 313.652919 -211.766939 
L 312.021489 -259.805515 
L 310.390059 -235.85836 
L 308.75863 -225.669407 
L 307.1272 -241.481322 
L 305.49577 -265.774998 
L 303.86434 -243.722112 
L 302.23291 -280.836818 
L 300.60148 -249.949727 
L 298.97005 -250.018983 
L 297.33862 -234.63647 
L 295.70719 -245.12039 
L 294.075761 -244.037244 
L 292.444331 -242.700597 
L 290.812901 -239.815441 
L 289.181471 -246.510952 
L 287.550041 -278.79654 
L 285.918611 -231.891948 
L 284.287181 -250.869794 
L 282.655751 -243.436747 
L 281.024322 -266.105566 
L 279.392892 -262.031126 
L 277.761462 -248.618253 
L 276.130032 -230.985157 
L 274.498602 -257.314488 
L 272.867172 -229.633152 
L 271.235742 -233.187483 
L 269.604312 -245.399408 
L 267.972883 -223.168579 
L 266.341453 -250.031798 
L 264.710023 -248.420219 
L 263.078593 -251.525459 
L 261.447163 -257.380906 
L 259.815733 -271.370907 
L 258.184303 -245.471189 
L 256.552873 -246.743278 
L 254.921444 -269.985132 
L 253.290014 -277.29029 
L 251.658584 -273.374299 
L 250.027154 -236.319729 
L 248.395724 -226.846545 
L 246.764294 -264.327026 
L 245.132864 -250.570252 
L 243.501434 -233.751385 
L 241.870005 -266.153431 
L 240.238575 -247.013964 
L 238.607145 -269.763402 
L 236.975715 -251.019943 
L 235.344285 -233.438354 
L 233.712855 -277.090047 
L 232.081425 -220.712966 
L 230.449995 -244.465573 
L 228.818566 -262.385989 
L 227.187136 -258.007003 
L 225.555706 -271.009207 
L 223.924276 -238.698736 
L 222.292846 -233.712492 
L 220.661416 -259.43197 
L 219.029986 -229.127135 
L 217.398556 -225.610938 
L 215.767127 -237.733538 
L 214.135697 -235.364056 
L 212.504267 -259.570142 
L 210.872837 -240.863764 
L 209.241407 -240.09672 
L 207.609977 -282.990719 
L 205.978547 -235.591898 
L 204.347117 -226.420769 
L 202.715688 -239.726512 
L 201.084258 -214.37555 
L 199.452828 -261.888847 
L 197.821398 -255.043163 
L 196.189968 -267.208041 
L 194.558538 -274.683178 
L 192.927108 -245.953953 
L 191.295678 -246.888731 
L 189.664249 -266.107172 
L 188.032819 -257.570915 
L 186.401389 -228.191033 
L 184.769959 -259.99916 
L 183.138529 -251.611234 
L 181.507099 -254.526618 
L 179.875669 -249.311098 
L 178.244239 -268.773787 
L 176.61281 -257.239688 
L 174.98138 -252.205263 
L 173.34995 -274.126799 
L 171.71852 -284.661207 
L 170.08709 -227.70248 
L 168.45566 -198.714909 
L 166.82423 -250.902359 
L 165.1928 -236.490619 
L 163.56137 -247.447161 
L 161.929941 -232.89417 
L 160.298511 -236.783117 
L 158.667081 -234.172956 
L 157.035651 -258.658786 
L 155.404221 -211.24522 
L 153.772791 -225.797707 
L 152.141361 -229.116566 
L 150.509931 -249.66042 
L 148.878502 -227.221167 
L 147.247072 -257.982163 
L 145.615642 -243.897537 
L 143.984212 -257.076792 
L 142.352782 -252.094051 
L 140.721352 -249.196908 
L 139.089922 -238.30262 
L 137.458492 -233.920816 
L 135.827063 -223.222861 
L 134.195633 -245.356841 
L 132.564203 -264.822757 
L 130.932773 -231.376491 
L 129.301343 -237.057079 
L 127.669913 -234.289257 
L 126.038483 -251.174645 
L 124.407053 -230.065198 
L 122.775624 -234.605484 
L 121.144194 -235.951325 
L 119.512764 -250.353533 
L 117.881334 -223.72706 
L 116.249904 -270.080932 
L 114.618474 -260.37183 
L 112.987044 -272.592122 
L 111.355614 -241.992109 
L 109.724185 -272.83582 
L 108.092755 -230.101503 
L 106.461325 -267.166717 
L 104.829895 -274.961361 
L 103.198465 -241.215198 
L 101.567035 -244.26072 
L 99.935605 -233.653285 
L 98.304175 -227.015523 
L 96.672746 -231.871218 
L 95.041316 -278.814442 
L 93.409886 -277.072377 
L 91.778456 -237.42694 
L 90.147026 -244.278714 
L 88.515596 -240.993632 
L 86.884166 -249.666804 
L 85.252736 -276.995053 
L 83.621307 -248.037376 
L 81.989877 -256.725393 
L 80.358447 -248.987366 
L 78.727017 -233.179397 
L 77.095587 -245.3653 
L 75.464157 -259.684674 
L 73.832727 -221.861306 
z
" style="stroke: #ffffff; stroke-opacity: 0.2"/>
    </defs>
    <g clip-path="url(#p57ab0fe193)">
     <use xlink:href="#mafc1ffee9c" x="0" y="345.6" style="fill: #1f77b4; fill-opacity: 0.2; stroke: #ffffff; stroke-opacity: 0.2"/>
    </g>
   </g>
   <g id="line2d_18">
    <path d="M 73.832727 150.516997 
L 75.464157 122.629371 
L 77.095587 160.7253 
L 78.727017 126.935993 
L 80.358447 127.937867 
L 81.989877 131.891696 
L 83.621307 156.248966 
L 85.252736 115.965601 
L 86.884166 133.355927 
L 88.515596 173.273841 
L 90.147026 147.693492 
L 91.778456 142.926438 
L 93.409886 134.648521 
L 95.041316 144.316597 
L 96.672746 140.56772 
L 98.304175 157.691729 
L 99.935605 137.991443 
L 101.567035 136.564881 
L 103.198465 130.253296 
L 104.829895 127.673981 
L 106.461325 132.716768 
L 108.092755 147.801993 
L 109.724185 148.993934 
L 111.355614 130.800307 
L 112.987044 134.162671 
L 114.618474 127.354807 
L 116.249904 117.00879 
L 117.881334 181.832656 
L 119.512764 130.309597 
L 121.144194 141.962486 
L 122.775624 150.789186 
L 124.407053 140.886691 
L 126.038483 133.864053 
L 127.669913 145.414871 
L 129.301343 147.044765 
L 130.932773 149.418369 
L 132.564203 116.753208 
L 134.195633 131.63186 
L 135.827063 178.574404 
L 137.458492 142.402768 
L 139.089922 150.727873 
L 140.721352 130.443818 
L 142.352782 135.470859 
L 143.984212 127.458701 
L 145.615642 145.161314 
L 147.247072 119.766931 
L 148.878502 168.883932 
L 150.509931 142.937729 
L 152.141361 160.985085 
L 153.772791 143.981221 
L 155.404221 152.092413 
L 157.035651 125.929865 
L 158.667081 190.29664 
L 160.298511 147.342269 
L 161.929941 155.825696 
L 163.56137 144.945831 
L 165.1928 144.643467 
L 166.82423 138.425042 
L 168.45566 160.54136 
L 170.08709 127.30843 
L 171.71852 152.934801 
L 173.34995 106.963315 
L 174.98138 139.73242 
L 176.61281 133.777779 
L 178.244239 133.177556 
L 179.875669 153.448295 
L 181.507099 136.95676 
L 183.138529 139.816162 
L 184.769959 127.286355 
L 186.401389 148.329613 
L 188.032819 138.165612 
L 189.664249 114.289128 
L 191.295678 133.685024 
L 192.927108 141.032507 
L 194.558538 133.273348 
L 196.189968 127.777065 
L 197.821398 128.321696 
L 199.452828 127.245851 
L 201.084258 142.532888 
L 202.715688 161.07308 
L 204.347117 147.0877 
L 205.978547 158.817699 
L 207.609977 109.672648 
L 209.241407 141.4536 
L 210.872837 138.581945 
L 212.504267 126.946119 
L 214.135697 160.484249 
L 215.767127 148.493199 
L 217.398556 143.40287 
L 219.029986 149.667673 
L 220.661416 125.369488 
L 222.292846 153.862654 
L 223.924276 165.404612 
L 225.555706 134.188493 
L 227.187136 127.374958 
L 228.818566 124.419054 
L 230.449995 128.703196 
L 232.081425 153.895209 
L 233.712855 181.998977 
L 235.344285 174.839231 
L 236.975715 130.387973 
L 238.607145 137.69323 
L 240.238575 152.827212 
L 241.870005 124.063832 
L 243.501434 153.096616 
L 245.132864 142.140604 
L 246.764294 128.29228 
L 248.395724 131.181857 
L 250.027154 136.24915 
L 251.658584 140.080099 
L 253.290014 118.636253 
L 254.921444 117.815433 
L 256.552873 129.163932 
L 258.184303 155.357719 
L 259.815733 158.735677 
L 261.447163 150.992873 
L 263.078593 155.163298 
L 264.710023 167.804172 
L 266.341453 138.897727 
L 267.972883 162.129028 
L 269.604312 148.512186 
L 271.235742 151.204153 
L 272.867172 157.488094 
L 274.498602 149.833335 
L 276.130032 143.017016 
L 277.761462 122.164331 
L 279.392892 153.87521 
L 281.024322 132.509386 
L 282.655751 167.046471 
L 284.287181 136.8395 
L 285.918611 144.02051 
L 287.550041 143.50727 
L 289.181471 135.340436 
L 290.812901 156.783825 
L 292.444331 139.508735 
L 294.075761 129.634998 
L 295.70719 149.732733 
L 297.33862 140.296341 
L 298.97005 146.820371 
L 300.60148 127.020039 
L 302.23291 114.514939 
L 303.86434 135.975746 
L 305.49577 123.238961 
L 307.1272 133.22611 
L 308.75863 146.306169 
L 310.390059 179.67013 
L 312.021489 139.408993 
L 313.652919 185.262831 
L 315.284349 138.199838 
L 316.915779 133.527867 
L 318.547209 127.534444 
L 320.178639 149.969936 
L 321.810069 168.864035 
L 323.441498 162.51873 
L 325.072928 147.079396 
L 326.704358 120.337637 
L 328.335788 130.258562 
L 329.967218 164.101385 
L 331.598648 164.24229 
L 333.230078 152.006088 
L 334.861508 142.272952 
L 336.492937 150.556017 
L 338.124367 155.398476 
L 339.755797 133.786032 
L 341.387227 129.311368 
L 343.018657 137.646751 
L 344.650087 120.615902 
L 346.281517 160.994552 
L 347.912947 108.773453 
L 349.544376 125.729673 
L 351.175806 156.092771 
L 352.807236 133.118419 
L 354.438666 121.835487 
L 356.070096 123.530795 
L 357.701526 118.252475 
L 359.332956 145.967401 
L 360.964386 141.51785 
L 362.595815 134.020906 
L 364.227245 193.737279 
L 365.858675 145.712173 
L 367.490105 158.704388 
L 369.121535 162.563437 
L 370.752965 167.558716 
L 372.384395 137.979494 
L 374.015825 134.713429 
L 375.647254 157.418933 
L 377.278684 110.736697 
L 378.910114 159.277473 
L 380.541544 132.865622 
L 382.172974 121.373332 
L 383.804404 135.548223 
L 385.435834 144.191844 
L 387.067264 144.056103 
L 388.698693 154.332757 
L 390.330123 120.384825 
L 391.961553 155.417716 
L 393.592983 166.057541 
L 395.224413 138.794998 
L 396.855843 153.411031 
L 398.487273 146.682454 
L 398.487273 146.682454 
" clip-path="url(#p57ab0fe193)" style="fill: none; stroke: #1f77b4; stroke-width: 1.5; stroke-linecap: round"/>
   </g>
   <g id="LineCollection_1">
    <path d="M 398.487273 295.488 
L 398.487273 53.568 
" clip-path="url(#p57ab0fe193)" style="fill: none; stroke-dasharray: 5.55,2.4; stroke-dashoffset: 0; stroke: #1f77b4; stroke-width: 1.5"/>
   </g>
   <g id="patch_3">
    <path d="M 57.6 307.584 
L 57.6 41.472 
" style="fill: none; stroke: #cccccc; stroke-width: 0.8; stroke-linejoin: miter; stroke-linecap: square"/>
   </g>
   <g id="patch_4">
    <path d="M 414.72 307.584 
L 414.72 41.472 
" style="fill: none; stroke: #cccccc; stroke-width: 0.8; stroke-linejoin: miter; stroke-linecap: square"/>
   </g>
   <g id="patch_5">
    <path d="M 57.6 307.584 
L 414.72 307.584 
" style="fill: none; stroke: #cccccc; stroke-width: 0.8; stroke-linejoin: miter; stroke-linecap: square"/>
   </g>
   <g id="patch_6">
    <path d="M 57.6 41.472 
L 414.72 41.472 
" style="fill: none; stroke: #cccccc; stroke-width: 0.8; stroke-linejoin: miter; stroke-linecap: square"/>
   </g>
   <g id="text_20">
    <!-- Model performance vs. # of iterations -->
    <g style="fill: #262626" transform="translate(122.314688 35.472)scale(0.12 -0.12)">
     <defs>
      <path id="DejaVuSans-4d" d="M 628 4666 
L 1569 4666 
L 2759 1491 
L 3956 4666 
L 4897 4666 
L 4897 0 
L 4281 0 
L 4281 4097 
L 3078 897 
L 2444 897 
L 1241 4097 
L 1241 0 
L 628 0 
L 628 4666 
z
" transform="scale(0.015625)"/>
      <path id="DejaVuSans-64" d="M 2906 2969 
L 2906 4863 
L 3481 4863 
L 3481 0 
L 2906 0 
L 2906 525 
Q 2725 213 2448 61 
Q 2172 -91 1784 -91 
Q 1150 -91 751 415 
Q 353 922 353 1747 
Q 353 2572 751 3078 
Q 1150 3584 1784 3584 
Q 2172 3584 2448 3432 
Q 2725 3281 2906 2969 
z
M 947 1747 
Q 947 1113 1208 752 
Q 1469 391 1925 391 
Q 2381 391 2643 752 
Q 2906 1113 2906 1747 
Q 2906 2381 2643 2742 
Q 2381 3103 1925 3103 
Q 1469 3103 1208 2742 
Q 947 2381 947 1747 
z
" transform="scale(0.015625)"/>
      <path id="DejaVuSans-6c" d="M 603 4863 
L 1178 4863 
L 1178 0 
L 603 0 
L 603 4863 
z
" transform="scale(0.015625)"/>
      <path id="DejaVuSans-20" transform="scale(0.015625)"/>
      <path id="DejaVuSans-70" d="M 1159 525 
L 1159 -1331 
L 581 -1331 
L 581 3500 
L 1159 3500 
L 1159 2969 
Q 1341 3281 1617 3432 
Q 1894 3584 2278 3584 
Q 2916 3584 3314 3078 
Q 3713 2572 3713 1747 
Q 3713 922 3314 415 
Q 2916 -91 2278 -91 
Q 1894 -91 1617 61 
Q 1341 213 1159 525 
z
M 3116 1747 
Q 3116 2381 2855 2742 
Q 2594 3103 2138 3103 
Q 1681 3103 1420 2742 
Q 1159 2381 1159 1747 
Q 1159 1113 1420 752 
Q 1681 391 2138 391 
Q 2594 391 2855 752 
Q 3116 1113 3116 1747 
z
" transform="scale(0.015625)"/>
      <path id="DejaVuSans-66" d="M 2375 4863 
L 2375 4384 
L 1825 4384 
Q 1516 4384 1395 4259 
Q 1275 4134 1275 3809 
L 1275 3500 
L 2222 3500 
L 2222 3053 
L 1275 3053 
L 1275 0 
L 697 0 
L 697 3053 
L 147 3053 
L 147 3500 
L 697 3500 
L 697 3744 
Q 697 4328 969 4595 
Q 1241 4863 1831 4863 
L 2375 4863 
z
" transform="scale(0.015625)"/>
      <path id="DejaVuSans-6d" d="M 3328 2828 
Q 3544 3216 3844 3400 
Q 4144 3584 4550 3584 
Q 5097 3584 5394 3201 
Q 5691 2819 5691 2113 
L 5691 0 
L 5113 0 
L 5113 2094 
Q 5113 2597 4934 2840 
Q 4756 3084 4391 3084 
Q 3944 3084 3684 2787 
Q 3425 2491 3425 1978 
L 3425 0 
L 2847 0 
L 2847 2094 
Q 2847 2600 2669 2842 
Q 2491 3084 2119 3084 
Q 1678 3084 1418 2786 
Q 1159 2488 1159 1978 
L 1159 0 
L 581 0 
L 581 3500 
L 1159 3500 
L 1159 2956 
Q 1356 3278 1631 3431 
Q 1906 3584 2284 3584 
Q 2666 3584 2933 3390 
Q 3200 3197 3328 2828 
z
" transform="scale(0.015625)"/>
      <path id="DejaVuSans-76" d="M 191 3500 
L 800 3500 
L 1894 563 
L 2988 3500 
L 3597 3500 
L 2284 0 
L 1503 0 
L 191 3500 
z
" transform="scale(0.015625)"/>
      <path id="DejaVuSans-73" d="M 2834 3397 
L 2834 2853 
Q 2591 2978 2328 3040 
Q 2066 3103 1784 3103 
Q 1356 3103 1142 2972 
Q 928 2841 928 2578 
Q 928 2378 1081 2264 
Q 1234 2150 1697 2047 
L 1894 2003 
Q 2506 1872 2764 1633 
Q 3022 1394 3022 966 
Q 3022 478 2636 193 
Q 2250 -91 1575 -91 
Q 1294 -91 989 -36 
Q 684 19 347 128 
L 347 722 
Q 666 556 975 473 
Q 1284 391 1588 391 
Q 1994 391 2212 530 
Q 2431 669 2431 922 
Q 2431 1156 2273 1281 
Q 2116 1406 1581 1522 
L 1381 1569 
Q 847 1681 609 1914 
Q 372 2147 372 2553 
Q 372 3047 722 3315 
Q 1072 3584 1716 3584 
Q 2034 3584 2315 3537 
Q 2597 3491 2834 3397 
z
" transform="scale(0.015625)"/>
      <path id="DejaVuSans-23" d="M 3272 2816 
L 2363 2816 
L 2100 1772 
L 3016 1772 
L 3272 2816 
z
M 2803 4594 
L 2478 3297 
L 3391 3297 
L 3719 4594 
L 4219 4594 
L 3897 3297 
L 4872 3297 
L 4872 2816 
L 3775 2816 
L 3519 1772 
L 4513 1772 
L 4513 1294 
L 3397 1294 
L 3072 0 
L 2572 0 
L 2894 1294 
L 1978 1294 
L 1656 0 
L 1153 0 
L 1478 1294 
L 494 1294 
L 494 1772 
L 1594 1772 
L 1856 2816 
L 850 2816 
L 850 3297 
L 1978 3297 
L 2297 4594 
L 2803 4594 
z
" transform="scale(0.015625)"/>
     </defs>
     <use xlink:href="#DejaVuSans-4d"/>
     <use xlink:href="#DejaVuSans-6f" x="86.279297"/>
     <use xlink:href="#DejaVuSans-64" x="147.460938"/>
     <use xlink:href="#DejaVuSans-65" x="210.9375"/>
     <use xlink:href="#DejaVuSans-6c" x="272.460938"/>
     <use xlink:href="#DejaVuSans-20" x="300.244141"/>
     <use xlink:href="#DejaVuSans-70" x="332.03125"/>
     <use xlink:href="#DejaVuSans-65" x="395.507812"/>
     <use xlink:href="#DejaVuSans-72" x="457.03125"/>
     <use xlink:href="#DejaVuSans-66" x="498.144531"/>
     <use xlink:href="#DejaVuSans-6f" x="533.349609"/>
     <use xlink:href="#DejaVuSans-72" x="594.53125"/>
     <use xlink:href="#DejaVuSans-6d" x="633.894531"/>
     <use xlink:href="#DejaVuSans-61" x="731.306641"/>
     <use xlink:href="#DejaVuSans-6e" x="792.585938"/>
     <use xlink:href="#DejaVuSans-63" x="855.964844"/>
     <use xlink:href="#DejaVuSans-65" x="910.945312"/>
     <use xlink:href="#DejaVuSans-20" x="972.46875"/>
     <use xlink:href="#DejaVuSans-76" x="1004.255859"/>
     <use xlink:href="#DejaVuSans-73" x="1063.435547"/>
     <use xlink:href="#DejaVuSans-2e" x="1115.535156"/>
     <use xlink:href="#DejaVuSans-20" x="1147.322266"/>
     <use xlink:href="#DejaVuSans-23" x="1179.109375"/>
     <use xlink:href="#DejaVuSans-20" x="1262.898438"/>
     <use xlink:href="#DejaVuSans-6f" x="1294.685547"/>
     <use xlink:href="#DejaVuSans-66" x="1355.867188"/>
     <use xlink:href="#DejaVuSans-20" x="1391.072266"/>
     <use xlink:href="#DejaVuSans-69" x="1422.859375"/>
     <use xlink:href="#DejaVuSans-74" x="1450.642578"/>
     <use xlink:href="#DejaVuSans-65" x="1489.851562"/>
     <use xlink:href="#DejaVuSans-72" x="1551.375"/>
     <use xlink:href="#DejaVuSans-61" x="1592.488281"/>
     <use xlink:href="#DejaVuSans-74" x="1653.767578"/>
     <use xlink:href="#DejaVuSans-69" x="1692.976562"/>
     <use xlink:href="#DejaVuSans-6f" x="1720.759766"/>
     <use xlink:href="#DejaVuSans-6e" x="1781.941406"/>
     <use xlink:href="#DejaVuSans-73" x="1845.320312"/>
    </g>
   </g>
  </g>
 </g>
 <defs>
  <clipPath id="p57ab0fe193">
   <rect x="57.6" y="41.472" width="357.12" height="266.112"/>
  </clipPath>
 </defs>
</svg>
