<?xml version="1.0" encoding="utf-8" standalone="no"?>
<!DOCTYPE svg PUBLIC "-//W3C//DTD SVG 1.1//EN"
  "http://www.w3.org/Graphics/SVG/1.1/DTD/svg11.dtd">
<svg xmlns:xlink="http://www.w3.org/1999/xlink" width="460.8pt" height="345.6pt" viewBox="0 0 460.8 345.6" xmlns="http://www.w3.org/2000/svg" version="1.1">
 <metadata>
  <rdf:RDF xmlns:dc="http://purl.org/dc/elements/1.1/" xmlns:cc="http://creativecommons.org/ns#" xmlns:rdf="http://www.w3.org/1999/02/22-rdf-syntax-ns#">
   <cc:Work>
    <dc:type rdf:resource="http://purl.org/dc/dcmitype/StillImage"/>
    <dc:date>2022-10-19T09:30:42.915925</dc:date>
    <dc:format>image/svg+xml</dc:format>
    <dc:creator>
     <cc:Agent>
      <dc:title>Matplotlib v3.5.2, https://matplotlib.org/</dc:title>
     </cc:Agent>
    </dc:creator>
   </cc:Work>
  </rdf:RDF>
 </metadata>
 <defs>
  <style type="text/css">*{stroke-linejoin: round; stroke-linecap: butt}</style>
 </defs>
 <g id="figure_1">
  <g id="patch_1">
   <path d="M 0 345.6 
L 460.8 345.6 
L 460.8 0 
L 0 0 
z
" style="fill: #ffffff"/>
  </g>
  <g id="axes_1">
   <g id="patch_2">
    <path d="M 57.6 307.584 
L 414.72 307.584 
L 414.72 41.472 
L 57.6 41.472 
z
" style="fill: #ffffff"/>
   </g>
   <g id="matplotlib.axis_1">
    <g id="xtick_1">
     <g id="line2d_1">
      <path d="M 72.201297 307.584 
L 72.201297 41.472 
" clip-path="url(#p6144f8aace)" style="fill: none; stroke: #cccccc; stroke-width: 0.8; stroke-linecap: round"/>
     </g>
     <g id="text_1">
      <!-- 0 -->
      <g style="fill: #262626" transform="translate(69.020047 322.182437)scale(0.1 -0.1)">
       <defs>
        <path id="DejaVuSans-30" d="M 2034 4250 
Q 1547 4250 1301 3770 
Q 1056 3291 1056 2328 
Q 1056 1369 1301 889 
Q 1547 409 2034 409 
Q 2525 409 2770 889 
Q 3016 1369 3016 2328 
Q 3016 3291 2770 3770 
Q 2525 4250 2034 4250 
z
M 2034 4750 
Q 2819 4750 3233 4129 
Q 3647 3509 3647 2328 
Q 3647 1150 3233 529 
Q 2819 -91 2034 -91 
Q 1250 -91 836 529 
Q 422 1150 422 2328 
Q 422 3509 836 4129 
Q 1250 4750 2034 4750 
z
" transform="scale(0.015625)"/>
       </defs>
       <use xlink:href="#DejaVuSans-30"/>
      </g>
     </g>
    </g>
    <g id="xtick_2">
     <g id="line2d_2">
      <path d="M 112.987044 307.584 
L 112.987044 41.472 
" clip-path="url(#p6144f8aace)" style="fill: none; stroke: #cccccc; stroke-width: 0.8; stroke-linecap: round"/>
     </g>
     <g id="text_2">
      <!-- 25 -->
      <g style="fill: #262626" transform="translate(106.624544 322.182437)scale(0.1 -0.1)">
       <defs>
        <path id="DejaVuSans-32" d="M 1228 531 
L 3431 531 
L 3431 0 
L 469 0 
L 469 531 
Q 828 903 1448 1529 
Q 2069 2156 2228 2338 
Q 2531 2678 2651 2914 
Q 2772 3150 2772 3378 
Q 2772 3750 2511 3984 
Q 2250 4219 1831 4219 
Q 1534 4219 1204 4116 
Q 875 4013 500 3803 
L 500 4441 
Q 881 4594 1212 4672 
Q 1544 4750 1819 4750 
Q 2544 4750 2975 4387 
Q 3406 4025 3406 3419 
Q 3406 3131 3298 2873 
Q 3191 2616 2906 2266 
Q 2828 2175 2409 1742 
Q 1991 1309 1228 531 
z
" transform="scale(0.015625)"/>
        <path id="DejaVuSans-35" d="M 691 4666 
L 3169 4666 
L 3169 4134 
L 1269 4134 
L 1269 2991 
Q 1406 3038 1543 3061 
Q 1681 3084 1819 3084 
Q 2600 3084 3056 2656 
Q 3513 2228 3513 1497 
Q 3513 744 3044 326 
Q 2575 -91 1722 -91 
Q 1428 -91 1123 -41 
Q 819 9 494 109 
L 494 744 
Q 775 591 1075 516 
Q 1375 441 1709 441 
Q 2250 441 2565 725 
Q 2881 1009 2881 1497 
Q 2881 1984 2565 2268 
Q 2250 2553 1709 2553 
Q 1456 2553 1204 2497 
Q 953 2441 691 2322 
L 691 4666 
z
" transform="scale(0.015625)"/>
       </defs>
       <use xlink:href="#DejaVuSans-32"/>
       <use xlink:href="#DejaVuSans-35" x="63.623047"/>
      </g>
     </g>
    </g>
    <g id="xtick_3">
     <g id="line2d_3">
      <path d="M 153.772791 307.584 
L 153.772791 41.472 
" clip-path="url(#p6144f8aace)" style="fill: none; stroke: #cccccc; stroke-width: 0.8; stroke-linecap: round"/>
     </g>
     <g id="text_3">
      <!-- 50 -->
      <g style="fill: #262626" transform="translate(147.410291 322.182437)scale(0.1 -0.1)">
       <use xlink:href="#DejaVuSans-35"/>
       <use xlink:href="#DejaVuSans-30" x="63.623047"/>
      </g>
     </g>
    </g>
    <g id="xtick_4">
     <g id="line2d_4">
      <path d="M 194.558538 307.584 
L 194.558538 41.472 
" clip-path="url(#p6144f8aace)" style="fill: none; stroke: #cccccc; stroke-width: 0.8; stroke-linecap: round"/>
     </g>
     <g id="text_4">
      <!-- 75 -->
      <g style="fill: #262626" transform="translate(188.196038 322.182437)scale(0.1 -0.1)">
       <defs>
        <path id="DejaVuSans-37" d="M 525 4666 
L 3525 4666 
L 3525 4397 
L 1831 0 
L 1172 0 
L 2766 4134 
L 525 4134 
L 525 4666 
z
" transform="scale(0.015625)"/>
       </defs>
       <use xlink:href="#DejaVuSans-37"/>
       <use xlink:href="#DejaVuSans-35" x="63.623047"/>
      </g>
     </g>
    </g>
    <g id="xtick_5">
     <g id="line2d_5">
      <path d="M 235.344285 307.584 
L 235.344285 41.472 
" clip-path="url(#p6144f8aace)" style="fill: none; stroke: #cccccc; stroke-width: 0.8; stroke-linecap: round"/>
     </g>
     <g id="text_5">
      <!-- 100 -->
      <g style="fill: #262626" transform="translate(225.800535 322.182437)scale(0.1 -0.1)">
       <defs>
        <path id="DejaVuSans-31" d="M 794 531 
L 1825 531 
L 1825 4091 
L 703 3866 
L 703 4441 
L 1819 4666 
L 2450 4666 
L 2450 531 
L 3481 531 
L 3481 0 
L 794 0 
L 794 531 
z
" transform="scale(0.015625)"/>
       </defs>
       <use xlink:href="#DejaVuSans-31"/>
       <use xlink:href="#DejaVuSans-30" x="63.623047"/>
       <use xlink:href="#DejaVuSans-30" x="127.246094"/>
      </g>
     </g>
    </g>
    <g id="xtick_6">
     <g id="line2d_6">
      <path d="M 276.130032 307.584 
L 276.130032 41.472 
" clip-path="url(#p6144f8aace)" style="fill: none; stroke: #cccccc; stroke-width: 0.8; stroke-linecap: round"/>
     </g>
     <g id="text_6">
      <!-- 125 -->
      <g style="fill: #262626" transform="translate(266.586282 322.182437)scale(0.1 -0.1)">
       <use xlink:href="#DejaVuSans-31"/>
       <use xlink:href="#DejaVuSans-32" x="63.623047"/>
       <use xlink:href="#DejaVuSans-35" x="127.246094"/>
      </g>
     </g>
    </g>
    <g id="xtick_7">
     <g id="line2d_7">
      <path d="M 316.915779 307.584 
L 316.915779 41.472 
" clip-path="url(#p6144f8aace)" style="fill: none; stroke: #cccccc; stroke-width: 0.8; stroke-linecap: round"/>
     </g>
     <g id="text_7">
      <!-- 150 -->
      <g style="fill: #262626" transform="translate(307.372029 322.182437)scale(0.1 -0.1)">
       <use xlink:href="#DejaVuSans-31"/>
       <use xlink:href="#DejaVuSans-35" x="63.623047"/>
       <use xlink:href="#DejaVuSans-30" x="127.246094"/>
      </g>
     </g>
    </g>
    <g id="xtick_8">
     <g id="line2d_8">
      <path d="M 357.701526 307.584 
L 357.701526 41.472 
" clip-path="url(#p6144f8aace)" style="fill: none; stroke: #cccccc; stroke-width: 0.8; stroke-linecap: round"/>
     </g>
     <g id="text_8">
      <!-- 175 -->
      <g style="fill: #262626" transform="translate(348.157776 322.182437)scale(0.1 -0.1)">
       <use xlink:href="#DejaVuSans-31"/>
       <use xlink:href="#DejaVuSans-37" x="63.623047"/>
       <use xlink:href="#DejaVuSans-35" x="127.246094"/>
      </g>
     </g>
    </g>
    <g id="xtick_9">
     <g id="line2d_9">
      <path d="M 398.487273 307.584 
L 398.487273 41.472 
" clip-path="url(#p6144f8aace)" style="fill: none; stroke: #cccccc; stroke-width: 0.8; stroke-linecap: round"/>
     </g>
     <g id="text_9">
      <!-- 200 -->
      <g style="fill: #262626" transform="translate(388.943523 322.182437)scale(0.1 -0.1)">
       <use xlink:href="#DejaVuSans-32"/>
       <use xlink:href="#DejaVuSans-30" x="63.623047"/>
       <use xlink:href="#DejaVuSans-30" x="127.246094"/>
      </g>
     </g>
    </g>
    <g id="text_10">
     <!-- Iteration -->
     <g style="fill: #262626" transform="translate(214.951406 335.860562)scale(0.1 -0.1)">
      <defs>
       <path id="DejaVuSans-49" d="M 628 4666 
L 1259 4666 
L 1259 0 
L 628 0 
L 628 4666 
z
" transform="scale(0.015625)"/>
       <path id="DejaVuSans-74" d="M 1172 4494 
L 1172 3500 
L 2356 3500 
L 2356 3053 
L 1172 3053 
L 1172 1153 
Q 1172 725 1289 603 
Q 1406 481 1766 481 
L 2356 481 
L 2356 0 
L 1766 0 
Q 1100 0 847 248 
Q 594 497 594 1153 
L 594 3053 
L 172 3053 
L 172 3500 
L 594 3500 
L 594 4494 
L 1172 4494 
z
" transform="scale(0.015625)"/>
       <path id="DejaVuSans-65" d="M 3597 1894 
L 3597 1613 
L 953 1613 
Q 991 1019 1311 708 
Q 1631 397 2203 397 
Q 2534 397 2845 478 
Q 3156 559 3463 722 
L 3463 178 
Q 3153 47 2828 -22 
Q 2503 -91 2169 -91 
Q 1331 -91 842 396 
Q 353 884 353 1716 
Q 353 2575 817 3079 
Q 1281 3584 2069 3584 
Q 2775 3584 3186 3129 
Q 3597 2675 3597 1894 
z
M 3022 2063 
Q 3016 2534 2758 2815 
Q 2500 3097 2075 3097 
Q 1594 3097 1305 2825 
Q 1016 2553 972 2059 
L 3022 2063 
z
" transform="scale(0.015625)"/>
       <path id="DejaVuSans-72" d="M 2631 2963 
Q 2534 3019 2420 3045 
Q 2306 3072 2169 3072 
Q 1681 3072 1420 2755 
Q 1159 2438 1159 1844 
L 1159 0 
L 581 0 
L 581 3500 
L 1159 3500 
L 1159 2956 
Q 1341 3275 1631 3429 
Q 1922 3584 2338 3584 
Q 2397 3584 2469 3576 
Q 2541 3569 2628 3553 
L 2631 2963 
z
" transform="scale(0.015625)"/>
       <path id="DejaVuSans-61" d="M 2194 1759 
Q 1497 1759 1228 1600 
Q 959 1441 959 1056 
Q 959 750 1161 570 
Q 1363 391 1709 391 
Q 2188 391 2477 730 
Q 2766 1069 2766 1631 
L 2766 1759 
L 2194 1759 
z
M 3341 1997 
L 3341 0 
L 2766 0 
L 2766 531 
Q 2569 213 2275 61 
Q 1981 -91 1556 -91 
Q 1019 -91 701 211 
Q 384 513 384 1019 
Q 384 1609 779 1909 
Q 1175 2209 1959 2209 
L 2766 2209 
L 2766 2266 
Q 2766 2663 2505 2880 
Q 2244 3097 1772 3097 
Q 1472 3097 1187 3025 
Q 903 2953 641 2809 
L 641 3341 
Q 956 3463 1253 3523 
Q 1550 3584 1831 3584 
Q 2591 3584 2966 3190 
Q 3341 2797 3341 1997 
z
" transform="scale(0.015625)"/>
       <path id="DejaVuSans-69" d="M 603 3500 
L 1178 3500 
L 1178 0 
L 603 0 
L 603 3500 
z
M 603 4863 
L 1178 4863 
L 1178 4134 
L 603 4134 
L 603 4863 
z
" transform="scale(0.015625)"/>
       <path id="DejaVuSans-6f" d="M 1959 3097 
Q 1497 3097 1228 2736 
Q 959 2375 959 1747 
Q 959 1119 1226 758 
Q 1494 397 1959 397 
Q 2419 397 2687 759 
Q 2956 1122 2956 1747 
Q 2956 2369 2687 2733 
Q 2419 3097 1959 3097 
z
M 1959 3584 
Q 2709 3584 3137 3096 
Q 3566 2609 3566 1747 
Q 3566 888 3137 398 
Q 2709 -91 1959 -91 
Q 1206 -91 779 398 
Q 353 888 353 1747 
Q 353 2609 779 3096 
Q 1206 3584 1959 3584 
z
" transform="scale(0.015625)"/>
       <path id="DejaVuSans-6e" d="M 3513 2113 
L 3513 0 
L 2938 0 
L 2938 2094 
Q 2938 2591 2744 2837 
Q 2550 3084 2163 3084 
Q 1697 3084 1428 2787 
Q 1159 2491 1159 1978 
L 1159 0 
L 581 0 
L 581 3500 
L 1159 3500 
L 1159 2956 
Q 1366 3272 1645 3428 
Q 1925 3584 2291 3584 
Q 2894 3584 3203 3211 
Q 3513 2838 3513 2113 
z
" transform="scale(0.015625)"/>
      </defs>
      <use xlink:href="#DejaVuSans-49"/>
      <use xlink:href="#DejaVuSans-74" x="29.492188"/>
      <use xlink:href="#DejaVuSans-65" x="68.701172"/>
      <use xlink:href="#DejaVuSans-72" x="130.224609"/>
      <use xlink:href="#DejaVuSans-61" x="171.337891"/>
      <use xlink:href="#DejaVuSans-74" x="232.617188"/>
      <use xlink:href="#DejaVuSans-69" x="271.826172"/>
      <use xlink:href="#DejaVuSans-6f" x="299.609375"/>
      <use xlink:href="#DejaVuSans-6e" x="360.791016"/>
     </g>
    </g>
   </g>
   <g id="matplotlib.axis_2">
    <g id="ytick_1">
     <g id="line2d_10">
      <path d="M 57.6 280.203384 
L 414.72 280.203384 
" clip-path="url(#p6144f8aace)" style="fill: none; stroke: #cccccc; stroke-width: 0.8; stroke-linecap: round"/>
     </g>
     <g id="text_11">
      <!-- 0.40 -->
      <g style="fill: #262626" transform="translate(28.334375 284.002603)scale(0.1 -0.1)">
       <defs>
        <path id="DejaVuSans-2e" d="M 684 794 
L 1344 794 
L 1344 0 
L 684 0 
L 684 794 
z
" transform="scale(0.015625)"/>
        <path id="DejaVuSans-34" d="M 2419 4116 
L 825 1625 
L 2419 1625 
L 2419 4116 
z
M 2253 4666 
L 3047 4666 
L 3047 1625 
L 3713 1625 
L 3713 1100 
L 3047 1100 
L 3047 0 
L 2419 0 
L 2419 1100 
L 313 1100 
L 313 1709 
L 2253 4666 
z
" transform="scale(0.015625)"/>
       </defs>
       <use xlink:href="#DejaVuSans-30"/>
       <use xlink:href="#DejaVuSans-2e" x="63.623047"/>
       <use xlink:href="#DejaVuSans-34" x="95.410156"/>
       <use xlink:href="#DejaVuSans-30" x="159.033203"/>
      </g>
     </g>
    </g>
    <g id="ytick_2">
     <g id="line2d_11">
      <path d="M 57.6 242.354144 
L 414.72 242.354144 
" clip-path="url(#p6144f8aace)" style="fill: none; stroke: #cccccc; stroke-width: 0.8; stroke-linecap: round"/>
     </g>
     <g id="text_12">
      <!-- 0.45 -->
      <g style="fill: #262626" transform="translate(28.334375 246.153362)scale(0.1 -0.1)">
       <use xlink:href="#DejaVuSans-30"/>
       <use xlink:href="#DejaVuSans-2e" x="63.623047"/>
       <use xlink:href="#DejaVuSans-34" x="95.410156"/>
       <use xlink:href="#DejaVuSans-35" x="159.033203"/>
      </g>
     </g>
    </g>
    <g id="ytick_3">
     <g id="line2d_12">
      <path d="M 57.6 204.504903 
L 414.72 204.504903 
" clip-path="url(#p6144f8aace)" style="fill: none; stroke: #cccccc; stroke-width: 0.8; stroke-linecap: round"/>
     </g>
     <g id="text_13">
      <!-- 0.50 -->
      <g style="fill: #262626" transform="translate(28.334375 208.304122)scale(0.1 -0.1)">
       <use xlink:href="#DejaVuSans-30"/>
       <use xlink:href="#DejaVuSans-2e" x="63.623047"/>
       <use xlink:href="#DejaVuSans-35" x="95.410156"/>
       <use xlink:href="#DejaVuSans-30" x="159.033203"/>
      </g>
     </g>
    </g>
    <g id="ytick_4">
     <g id="line2d_13">
      <path d="M 57.6 166.655662 
L 414.72 166.655662 
" clip-path="url(#p6144f8aace)" style="fill: none; stroke: #cccccc; stroke-width: 0.8; stroke-linecap: round"/>
     </g>
     <g id="text_14">
      <!-- 0.55 -->
      <g style="fill: #262626" transform="translate(28.334375 170.454881)scale(0.1 -0.1)">
       <use xlink:href="#DejaVuSans-30"/>
       <use xlink:href="#DejaVuSans-2e" x="63.623047"/>
       <use xlink:href="#DejaVuSans-35" x="95.410156"/>
       <use xlink:href="#DejaVuSans-35" x="159.033203"/>
      </g>
     </g>
    </g>
    <g id="ytick_5">
     <g id="line2d_14">
      <path d="M 57.6 128.806422 
L 414.72 128.806422 
" clip-path="url(#p6144f8aace)" style="fill: none; stroke: #cccccc; stroke-width: 0.8; stroke-linecap: round"/>
     </g>
     <g id="text_15">
      <!-- 0.60 -->
      <g style="fill: #262626" transform="translate(28.334375 132.605641)scale(0.1 -0.1)">
       <defs>
        <path id="DejaVuSans-36" d="M 2113 2584 
Q 1688 2584 1439 2293 
Q 1191 2003 1191 1497 
Q 1191 994 1439 701 
Q 1688 409 2113 409 
Q 2538 409 2786 701 
Q 3034 994 3034 1497 
Q 3034 2003 2786 2293 
Q 2538 2584 2113 2584 
z
M 3366 4563 
L 3366 3988 
Q 3128 4100 2886 4159 
Q 2644 4219 2406 4219 
Q 1781 4219 1451 3797 
Q 1122 3375 1075 2522 
Q 1259 2794 1537 2939 
Q 1816 3084 2150 3084 
Q 2853 3084 3261 2657 
Q 3669 2231 3669 1497 
Q 3669 778 3244 343 
Q 2819 -91 2113 -91 
Q 1303 -91 875 529 
Q 447 1150 447 2328 
Q 447 3434 972 4092 
Q 1497 4750 2381 4750 
Q 2619 4750 2861 4703 
Q 3103 4656 3366 4563 
z
" transform="scale(0.015625)"/>
       </defs>
       <use xlink:href="#DejaVuSans-30"/>
       <use xlink:href="#DejaVuSans-2e" x="63.623047"/>
       <use xlink:href="#DejaVuSans-36" x="95.410156"/>
       <use xlink:href="#DejaVuSans-30" x="159.033203"/>
      </g>
     </g>
    </g>
    <g id="ytick_6">
     <g id="line2d_15">
      <path d="M 57.6 90.957181 
L 414.72 90.957181 
" clip-path="url(#p6144f8aace)" style="fill: none; stroke: #cccccc; stroke-width: 0.8; stroke-linecap: round"/>
     </g>
     <g id="text_16">
      <!-- 0.65 -->
      <g style="fill: #262626" transform="translate(28.334375 94.7564)scale(0.1 -0.1)">
       <use xlink:href="#DejaVuSans-30"/>
       <use xlink:href="#DejaVuSans-2e" x="63.623047"/>
       <use xlink:href="#DejaVuSans-36" x="95.410156"/>
       <use xlink:href="#DejaVuSans-35" x="159.033203"/>
      </g>
     </g>
    </g>
    <g id="ytick_7">
     <g id="line2d_16">
      <path d="M 57.6 53.107941 
L 414.72 53.107941 
" clip-path="url(#p6144f8aace)" style="fill: none; stroke: #cccccc; stroke-width: 0.8; stroke-linecap: round"/>
     </g>
     <g id="text_17">
      <!-- 0.70 -->
      <g style="fill: #262626" transform="translate(28.334375 56.90716)scale(0.1 -0.1)">
       <use xlink:href="#DejaVuSans-30"/>
       <use xlink:href="#DejaVuSans-2e" x="63.623047"/>
       <use xlink:href="#DejaVuSans-37" x="95.410156"/>
       <use xlink:href="#DejaVuSans-30" x="159.033203"/>
      </g>
     </g>
    </g>
    <g id="text_18">
     <!-- Auroc -->
     <g style="fill: #262626" transform="translate(22.254688 188.868625)rotate(-90)scale(0.1 -0.1)">
      <defs>
       <path id="DejaVuSans-41" d="M 2188 4044 
L 1331 1722 
L 3047 1722 
L 2188 4044 
z
M 1831 4666 
L 2547 4666 
L 4325 0 
L 3669 0 
L 3244 1197 
L 1141 1197 
L 716 0 
L 50 0 
L 1831 4666 
z
" transform="scale(0.015625)"/>
       <path id="DejaVuSans-75" d="M 544 1381 
L 544 3500 
L 1119 3500 
L 1119 1403 
Q 1119 906 1312 657 
Q 1506 409 1894 409 
Q 2359 409 2629 706 
Q 2900 1003 2900 1516 
L 2900 3500 
L 3475 3500 
L 3475 0 
L 2900 0 
L 2900 538 
Q 2691 219 2414 64 
Q 2138 -91 1772 -91 
Q 1169 -91 856 284 
Q 544 659 544 1381 
z
M 1991 3584 
L 1991 3584 
z
" transform="scale(0.015625)"/>
       <path id="DejaVuSans-63" d="M 3122 3366 
L 3122 2828 
Q 2878 2963 2633 3030 
Q 2388 3097 2138 3097 
Q 1578 3097 1268 2742 
Q 959 2388 959 1747 
Q 959 1106 1268 751 
Q 1578 397 2138 397 
Q 2388 397 2633 464 
Q 2878 531 3122 666 
L 3122 134 
Q 2881 22 2623 -34 
Q 2366 -91 2075 -91 
Q 1284 -91 818 406 
Q 353 903 353 1747 
Q 353 2603 823 3093 
Q 1294 3584 2113 3584 
Q 2378 3584 2631 3529 
Q 2884 3475 3122 3366 
z
" transform="scale(0.015625)"/>
      </defs>
      <use xlink:href="#DejaVuSans-41"/>
      <use xlink:href="#DejaVuSans-75" x="68.408203"/>
      <use xlink:href="#DejaVuSans-72" x="131.787109"/>
      <use xlink:href="#DejaVuSans-6f" x="170.650391"/>
      <use xlink:href="#DejaVuSans-63" x="231.832031"/>
     </g>
    </g>
   </g>
   <g id="PolyCollection_1">
    <defs>
     <path id="mb5c8163c31" d="M 73.832727 -263.7505 
L 73.832727 -165.793391 
L 75.464157 -146.477593 
L 77.095587 -159.78529 
L 78.727017 -154.756068 
L 80.358447 -80.13007 
L 81.989877 -156.180368 
L 83.621307 -150.477946 
L 85.252736 -166.79139 
L 86.884166 -171.308018 
L 88.515596 -154.119564 
L 90.147026 -138.667266 
L 91.778456 -152.541115 
L 93.409886 -146.666776 
L 95.041316 -158.759609 
L 96.672746 -152.395365 
L 98.304175 -154.640871 
L 99.935605 -126.73204 
L 101.567035 -163.311911 
L 103.198465 -152.371067 
L 104.829895 -168.495781 
L 106.461325 -135.762047 
L 108.092755 -154.948475 
L 109.724185 -136.515317 
L 111.355614 -121.281155 
L 112.987044 -153.456641 
L 114.618474 -143.88039 
L 116.249904 -163.778656 
L 117.881334 -177.284064 
L 119.512764 -171.055423 
L 121.144194 -138.6047 
L 122.775624 -129.933069 
L 124.407053 -109.624342 
L 126.038483 -171.284903 
L 127.669913 -164.983197 
L 129.301343 -124.113285 
L 130.932773 -170.910605 
L 132.564203 -169.990185 
L 134.195633 -158.954776 
L 135.827063 -112.296889 
L 137.458492 -155.612965 
L 139.089922 -143.046529 
L 140.721352 -133.228354 
L 142.352782 -201.228314 
L 143.984212 -135.227789 
L 145.615642 -161.244656 
L 147.247072 -151.213972 
L 148.878502 -141.88875 
L 150.509931 -171.394207 
L 152.141361 -170.276415 
L 153.772791 -143.382485 
L 155.404221 -83.389456 
L 157.035651 -107.160015 
L 158.667081 -192.999175 
L 160.298511 -169.401659 
L 161.929941 -114.683331 
L 163.56137 -75.914855 
L 165.1928 -157.186768 
L 166.82423 -179.289557 
L 168.45566 -127.835691 
L 170.08709 -138.983361 
L 171.71852 -210.125621 
L 173.34995 -163.670767 
L 174.98138 -139.348189 
L 176.61281 -129.707985 
L 178.244239 -161.478035 
L 179.875669 -170.423478 
L 181.507099 -132.954568 
L 183.138529 -178.658911 
L 184.769959 -142.007078 
L 186.401389 -131.466511 
L 188.032819 -188.748455 
L 189.664249 -146.330551 
L 191.295678 -114.897215 
L 192.927108 -149.126084 
L 194.558538 -168.433944 
L 196.189968 -96.389132 
L 197.821398 -136.226494 
L 199.452828 -154.838164 
L 201.084258 -120.527186 
L 202.715688 -164.529245 
L 204.347117 -99.341651 
L 205.978547 -92.205592 
L 207.609977 -82.643518 
L 209.241407 -168.279433 
L 210.872837 -181.100473 
L 212.504267 -191.349946 
L 214.135697 -204.621003 
L 215.767127 -140.359652 
L 217.398556 -159.35514 
L 219.029986 -131.915474 
L 220.661416 -145.84731 
L 222.292846 -155.039048 
L 223.924276 -146.017552 
L 225.555706 -118.553493 
L 227.187136 -152.636891 
L 228.818566 -205.171974 
L 230.449995 -172.685495 
L 232.081425 -159.471033 
L 233.712855 -139.563873 
L 235.344285 -159.605868 
L 236.975715 -140.594776 
L 238.607145 -111.743798 
L 240.238575 -212.366859 
L 241.870005 -129.970582 
L 243.501434 -110.038233 
L 245.132864 -50.112 
L 246.764294 -156.538375 
L 248.395724 -156.973031 
L 250.027154 -152.251165 
L 251.658584 -172.809272 
L 253.290014 -128.551975 
L 254.921444 -179.660964 
L 256.552873 -162.887094 
L 258.184303 -165.224094 
L 259.815733 -135.206908 
L 261.447163 -119.31682 
L 263.078593 -127.937447 
L 264.710023 -122.691937 
L 266.341453 -156.619632 
L 267.972883 -116.547497 
L 269.604312 -135.074652 
L 271.235742 -93.586268 
L 272.867172 -83.187115 
L 274.498602 -124.772185 
L 276.130032 -107.922062 
L 277.761462 -114.700873 
L 279.392892 -158.855607 
L 281.024322 -155.680925 
L 282.655751 -150.221756 
L 284.287181 -185.936414 
L 285.918611 -176.484184 
L 287.550041 -120.817598 
L 289.181471 -158.14197 
L 290.812901 -177.277751 
L 292.444331 -109.155331 
L 294.075761 -149.403 
L 295.70719 -177.301536 
L 297.33862 -161.948576 
L 298.97005 -162.454114 
L 300.60148 -63.698738 
L 302.23291 -137.406702 
L 303.86434 -154.654811 
L 305.49577 -84.53256 
L 307.1272 -166.187568 
L 308.75863 -117.49779 
L 310.390059 -163.156151 
L 312.021489 -165.426741 
L 313.652919 -171.11708 
L 315.284349 -163.051579 
L 316.915779 -137.049131 
L 318.547209 -99.259878 
L 320.178639 -128.457699 
L 321.810069 -163.11423 
L 323.441498 -144.09278 
L 325.072928 -137.025258 
L 326.704358 -183.11903 
L 328.335788 -171.041471 
L 329.967218 -169.435697 
L 331.598648 -144.848468 
L 333.230078 -155.367927 
L 334.861508 -155.035998 
L 336.492937 -158.357461 
L 338.124367 -155.618021 
L 339.755797 -172.984159 
L 341.387227 -166.275782 
L 343.018657 -132.749832 
L 344.650087 -121.719877 
L 346.281517 -139.035147 
L 347.912947 -151.645921 
L 349.544376 -201.541584 
L 351.175806 -166.996049 
L 352.807236 -132.718918 
L 354.438666 -126.029632 
L 356.070096 -155.54364 
L 357.701526 -153.021333 
L 359.332956 -114.267703 
L 360.964386 -129.736164 
L 362.595815 -131.540476 
L 364.227245 -125.158606 
L 365.858675 -131.771922 
L 367.490105 -136.523514 
L 369.121535 -144.868703 
L 370.752965 -135.771165 
L 372.384395 -88.043784 
L 374.015825 -191.507025 
L 375.647254 -161.232783 
L 377.278684 -178.467533 
L 378.910114 -180.578362 
L 380.541544 -180.851929 
L 382.172974 -130.573411 
L 383.804404 -153.242316 
L 385.435834 -150.254979 
L 387.067264 -136.650954 
L 388.698693 -148.15296 
L 390.330123 -153.143008 
L 391.961553 -128.718452 
L 393.592983 -157.076046 
L 395.224413 -100.682694 
L 396.855843 -136.059745 
L 398.487273 -122.830112 
L 398.487273 -235.389177 
L 398.487273 -235.389177 
L 396.855843 -221.274534 
L 395.224413 -232.920615 
L 393.592983 -231.509809 
L 391.961553 -191.491108 
L 390.330123 -252.48896 
L 388.698693 -223.363996 
L 387.067264 -210.312808 
L 385.435834 -244.586889 
L 383.804404 -233.247295 
L 382.172974 -228.186617 
L 380.541544 -245.586952 
L 378.910114 -251.000959 
L 377.278684 -232.141251 
L 375.647254 -252.974278 
L 374.015825 -246.854006 
L 372.384395 -224.0219 
L 370.752965 -235.27828 
L 369.121535 -221.687969 
L 367.490105 -275.491886 
L 365.858675 -197.883943 
L 364.227245 -190.707823 
L 362.595815 -226.606304 
L 360.964386 -244.270462 
L 359.332956 -251.557544 
L 357.701526 -244.13181 
L 356.070096 -219.359656 
L 354.438666 -198.4928 
L 352.807236 -241.342574 
L 351.175806 -225.746026 
L 349.544376 -225.9335 
L 347.912947 -224.753713 
L 346.281517 -244.833837 
L 344.650087 -222.945033 
L 343.018657 -229.654323 
L 341.387227 -235.629475 
L 339.755797 -254.35345 
L 338.124367 -198.194722 
L 336.492937 -248.009086 
L 334.861508 -222.973131 
L 333.230078 -244.974273 
L 331.598648 -242.179849 
L 329.967218 -198.318201 
L 328.335788 -214.437823 
L 326.704358 -222.570862 
L 325.072928 -215.349788 
L 323.441498 -231.862785 
L 321.810069 -209.268998 
L 320.178639 -229.628845 
L 318.547209 -292.032 
L 316.915779 -219.460532 
L 315.284349 -245.837409 
L 313.652919 -230.009859 
L 312.021489 -207.099017 
L 310.390059 -247.248352 
L 308.75863 -201.635523 
L 307.1272 -251.041588 
L 305.49577 -199.816234 
L 303.86434 -236.099377 
L 302.23291 -237.851341 
L 300.60148 -198.700196 
L 298.97005 -197.835217 
L 297.33862 -205.456417 
L 295.70719 -231.172949 
L 294.075761 -220.783397 
L 292.444331 -238.432612 
L 290.812901 -243.730652 
L 289.181471 -205.992074 
L 287.550041 -198.66419 
L 285.918611 -241.376581 
L 284.287181 -233.995156 
L 282.655751 -218.561302 
L 281.024322 -222.894007 
L 279.392892 -243.939521 
L 277.761462 -229.86798 
L 276.130032 -217.754198 
L 274.498602 -209.985557 
L 272.867172 -247.611514 
L 271.235742 -221.933639 
L 269.604312 -220.070691 
L 267.972883 -223.893554 
L 266.341453 -201.624887 
L 264.710023 -239.227353 
L 263.078593 -229.826157 
L 261.447163 -212.580166 
L 259.815733 -204.272122 
L 258.184303 -216.281369 
L 256.552873 -223.913657 
L 254.921444 -208.02272 
L 253.290014 -196.059549 
L 251.658584 -236.271252 
L 250.027154 -205.594462 
L 248.395724 -204.946058 
L 246.764294 -232.784239 
L 245.132864 -226.450426 
L 243.501434 -200.882602 
L 241.870005 -221.076454 
L 240.238575 -245.033482 
L 238.607145 -204.602135 
L 236.975715 -237.063109 
L 235.344285 -232.436768 
L 233.712855 -234.137229 
L 232.081425 -241.255472 
L 230.449995 -231.688695 
L 228.818566 -260.665643 
L 227.187136 -243.050986 
L 225.555706 -186.770261 
L 223.924276 -212.268911 
L 222.292846 -247.107415 
L 220.661416 -232.56312 
L 219.029986 -244.940476 
L 217.398556 -225.815065 
L 215.767127 -232.048306 
L 214.135697 -250.054533 
L 212.504267 -244.245282 
L 210.872837 -261.936273 
L 209.241407 -234.102376 
L 207.609977 -203.414832 
L 205.978547 -267.416869 
L 204.347117 -207.877027 
L 202.715688 -252.685903 
L 201.084258 -209.620456 
L 199.452828 -228.551307 
L 197.821398 -244.444025 
L 196.189968 -242.695412 
L 194.558538 -237.736389 
L 192.927108 -232.486342 
L 191.295678 -208.303901 
L 189.664249 -250.074769 
L 188.032819 -243.53735 
L 186.401389 -226.489566 
L 184.769959 -228.120223 
L 183.138529 -225.329213 
L 181.507099 -224.691771 
L 179.875669 -232.154124 
L 178.244239 -216.74037 
L 176.61281 -196.786496 
L 174.98138 -223.158699 
L 173.34995 -207.839829 
L 171.71852 -251.773644 
L 170.08709 -213.973991 
L 168.45566 -248.035039 
L 166.82423 -241.723944 
L 165.1928 -212.632731 
L 163.56137 -204.857659 
L 161.929941 -191.994101 
L 160.298511 -222.901185 
L 158.667081 -227.25762 
L 157.035651 -279.352846 
L 155.404221 -198.672058 
L 153.772791 -220.295752 
L 152.141361 -225.924228 
L 150.509931 -241.794916 
L 148.878502 -234.589061 
L 147.247072 -262.204925 
L 145.615642 -221.62999 
L 143.984212 -221.174316 
L 142.352782 -265.388217 
L 140.721352 -207.741635 
L 139.089922 -229.398852 
L 137.458492 -239.55208 
L 135.827063 -194.294253 
L 134.195633 -244.121427 
L 132.564203 -219.25766 
L 130.932773 -222.050364 
L 129.301343 -169.786149 
L 127.669913 -240.421284 
L 126.038483 -229.202052 
L 124.407053 -239.632526 
L 122.775624 -256.800867 
L 121.144194 -244.443925 
L 119.512764 -223.346372 
L 117.881334 -228.240836 
L 116.249904 -205.591833 
L 114.618474 -227.806814 
L 112.987044 -231.291562 
L 111.355614 -238.247238 
L 109.724185 -225.838143 
L 108.092755 -260.971445 
L 106.461325 -242.677117 
L 104.829895 -214.507878 
L 103.198465 -208.970315 
L 101.567035 -237.005821 
L 99.935605 -233.357618 
L 98.304175 -221.87206 
L 96.672746 -239.382438 
L 95.041316 -252.075664 
L 93.409886 -226.25571 
L 91.778456 -252.849516 
L 90.147026 -227.30405 
L 88.515596 -240.003653 
L 86.884166 -238.9224 
L 85.252736 -259.343762 
L 83.621307 -241.605609 
L 81.989877 -223.393448 
L 80.358447 -240.043538 
L 78.727017 -255.244077 
L 77.095587 -221.114319 
L 75.464157 -210.339977 
L 73.832727 -263.7505 
z
" style="stroke: #ffffff; stroke-opacity: 0.2"/>
    </defs>
    <g clip-path="url(#p6144f8aace)">
     <use xlink:href="#mb5c8163c31" x="0" y="345.6" style="fill: #1f77b4; fill-opacity: 0.2; stroke: #ffffff; stroke-opacity: 0.2"/>
    </g>
   </g>
   <g id="line2d_17">
    <path d="M 73.832727 130.828055 
L 75.464157 167.191215 
L 77.095587 155.150196 
L 78.727017 140.599928 
L 80.358447 185.513196 
L 81.989877 155.813092 
L 83.621307 149.558222 
L 85.252736 132.532424 
L 88.515596 148.538392 
L 90.147026 162.614342 
L 91.778456 142.904685 
L 93.409886 159.138757 
L 95.041316 140.182363 
L 96.672746 149.711098 
L 98.304175 157.343535 
L 99.935605 165.555171 
L 101.567035 145.441134 
L 103.198465 164.929309 
L 104.829895 154.098171 
L 106.461325 156.380418 
L 108.092755 137.64004 
L 109.724185 164.42327 
L 111.355614 165.835803 
L 112.987044 153.225899 
L 114.618474 159.756398 
L 116.249904 160.914755 
L 117.881334 142.83755 
L 121.144194 154.075687 
L 122.775624 152.233032 
L 124.407053 170.971566 
L 126.038483 145.356523 
L 127.669913 142.897759 
L 129.301343 198.650283 
L 130.932773 149.119515 
L 132.564203 150.976078 
L 134.195633 144.061899 
L 135.827063 192.304429 
L 137.458492 148.017478 
L 139.089922 159.377309 
L 140.721352 175.115005 
L 142.352782 112.291735 
L 143.984212 167.398948 
L 145.615642 154.162677 
L 147.247072 138.890551 
L 148.878502 157.361095 
L 150.509931 139.005438 
L 152.141361 147.499678 
L 153.772791 163.760882 
L 155.404221 204.569243 
L 157.035651 152.34357 
L 158.667081 135.471602 
L 160.298511 149.448578 
L 161.929941 192.261284 
L 163.56137 205.213743 
L 165.1928 160.690251 
L 166.82423 135.093249 
L 168.45566 157.664635 
L 170.08709 169.121324 
L 171.71852 114.650368 
L 173.34995 159.844702 
L 174.98138 164.346556 
L 176.61281 182.352759 
L 178.244239 156.490798 
L 179.875669 144.311199 
L 181.507099 166.776831 
L 183.138529 143.605938 
L 184.769959 160.53635 
L 186.401389 166.621962 
L 188.032819 129.457098 
L 189.664249 147.39734 
L 191.295678 183.999442 
L 192.927108 154.793787 
L 194.558538 142.514833 
L 196.189968 176.057728 
L 197.821398 155.264741 
L 199.452828 153.905264 
L 201.084258 180.526179 
L 202.715688 136.992426 
L 204.347117 191.990661 
L 205.978547 165.788769 
L 207.609977 202.570825 
L 209.241407 144.409096 
L 210.872837 124.081627 
L 212.504267 127.802386 
L 214.135697 118.262232 
L 215.767127 159.396021 
L 217.398556 153.014898 
L 219.029986 157.172025 
L 220.661416 156.394785 
L 222.292846 144.526769 
L 223.924276 166.456769 
L 225.555706 192.938123 
L 227.187136 147.756062 
L 228.818566 112.681192 
L 230.449995 143.412905 
L 232.081425 145.236747 
L 233.712855 158.749449 
L 235.344285 149.578682 
L 236.975715 156.771058 
L 238.607145 187.427033 
L 240.238575 116.899829 
L 241.870005 170.076482 
L 243.501434 190.139583 
L 245.132864 207.318787 
L 246.764294 150.938693 
L 248.395724 164.640455 
L 250.027154 166.677187 
L 251.658584 141.059738 
L 253.290014 183.294238 
L 254.921444 151.758158 
L 256.552873 152.199625 
L 258.184303 154.847269 
L 259.815733 175.860485 
L 261.447163 179.651507 
L 263.078593 166.718198 
L 264.710023 164.640355 
L 266.341453 166.477741 
L 267.972883 175.379475 
L 269.604312 168.027329 
L 271.235742 187.840047 
L 272.867172 180.200686 
L 274.498602 178.221129 
L 276.130032 182.76187 
L 277.761462 173.315573 
L 279.392892 144.202436 
L 281.024322 156.312534 
L 282.655751 161.208471 
L 284.287181 135.634215 
L 285.918611 136.669618 
L 287.550041 185.859106 
L 289.181471 163.532978 
L 290.812901 135.095798 
L 292.444331 171.806029 
L 294.075761 160.506801 
L 295.70719 141.362757 
L 297.33862 161.897504 
L 298.97005 165.455334 
L 300.60148 214.400533 
L 302.23291 157.970978 
L 303.86434 150.222906 
L 305.49577 203.425603 
L 307.1272 136.985422 
L 308.75863 186.033344 
L 310.390059 140.397749 
L 312.021489 159.337121 
L 313.652919 145.036531 
L 315.284349 141.155506 
L 316.915779 167.345168 
L 318.547209 149.954061 
L 320.178639 166.556728 
L 321.810069 159.408386 
L 323.441498 157.622217 
L 325.072928 169.412477 
L 326.704358 142.755054 
L 328.335788 152.860353 
L 329.967218 161.723051 
L 331.598648 152.085841 
L 333.230078 145.4289 
L 334.861508 156.595435 
L 336.492937 142.416727 
L 338.124367 168.693629 
L 339.755797 131.931196 
L 341.387227 144.647372 
L 343.018657 164.397922 
L 344.650087 173.267545 
L 346.281517 153.665508 
L 347.912947 157.400183 
L 349.544376 131.862458 
L 351.175806 149.228962 
L 352.807236 158.569254 
L 354.438666 183.338784 
L 356.070096 158.148352 
L 357.701526 147.023429 
L 359.332956 162.687376 
L 360.964386 158.596687 
L 362.595815 166.52661 
L 364.227245 187.666785 
L 365.858675 180.772068 
L 367.490105 139.5923 
L 369.121535 162.321664 
L 370.752965 160.075277 
L 372.384395 189.567158 
L 374.015825 126.419485 
L 375.647254 138.496469 
L 377.278684 140.295608 
L 378.910114 129.81034 
L 380.541544 132.38056 
L 382.172974 166.219986 
L 383.804404 152.355195 
L 385.435834 148.179066 
L 387.067264 172.118119 
L 388.698693 159.841522 
L 390.330123 142.784016 
L 391.961553 185.49522 
L 393.592983 151.307072 
L 395.224413 178.798345 
L 396.855843 166.93286 
L 398.487273 166.490356 
L 398.487273 166.490356 
" clip-path="url(#p6144f8aace)" style="fill: none; stroke: #1f77b4; stroke-width: 1.5; stroke-linecap: round"/>
   </g>
   <g id="LineCollection_1">
    <path d="M 398.487273 295.488 
L 398.487273 53.568 
" clip-path="url(#p6144f8aace)" style="fill: none; stroke-dasharray: 5.55,2.4; stroke-dashoffset: 0; stroke: #1f77b4; stroke-width: 1.5"/>
   </g>
   <g id="patch_3">
    <path d="M 57.6 307.584 
L 57.6 41.472 
" style="fill: none; stroke: #cccccc; stroke-width: 0.8; stroke-linejoin: miter; stroke-linecap: square"/>
   </g>
   <g id="patch_4">
    <path d="M 414.72 307.584 
L 414.72 41.472 
" style="fill: none; stroke: #cccccc; stroke-width: 0.8; stroke-linejoin: miter; stroke-linecap: square"/>
   </g>
   <g id="patch_5">
    <path d="M 57.6 307.584 
L 414.72 307.584 
" style="fill: none; stroke: #cccccc; stroke-width: 0.8; stroke-linejoin: miter; stroke-linecap: square"/>
   </g>
   <g id="patch_6">
    <path d="M 57.6 41.472 
L 414.72 41.472 
" style="fill: none; stroke: #cccccc; stroke-width: 0.8; stroke-linejoin: miter; stroke-linecap: square"/>
   </g>
   <g id="text_19">
    <!-- Model performance vs. # of iterations -->
    <g style="fill: #262626" transform="translate(122.314688 35.472)scale(0.12 -0.12)">
     <defs>
      <path id="DejaVuSans-4d" d="M 628 4666 
L 1569 4666 
L 2759 1491 
L 3956 4666 
L 4897 4666 
L 4897 0 
L 4281 0 
L 4281 4097 
L 3078 897 
L 2444 897 
L 1241 4097 
L 1241 0 
L 628 0 
L 628 4666 
z
" transform="scale(0.015625)"/>
      <path id="DejaVuSans-64" d="M 2906 2969 
L 2906 4863 
L 3481 4863 
L 3481 0 
L 2906 0 
L 2906 525 
Q 2725 213 2448 61 
Q 2172 -91 1784 -91 
Q 1150 -91 751 415 
Q 353 922 353 1747 
Q 353 2572 751 3078 
Q 1150 3584 1784 3584 
Q 2172 3584 2448 3432 
Q 2725 3281 2906 2969 
z
M 947 1747 
Q 947 1113 1208 752 
Q 1469 391 1925 391 
Q 2381 391 2643 752 
Q 2906 1113 2906 1747 
Q 2906 2381 2643 2742 
Q 2381 3103 1925 3103 
Q 1469 3103 1208 2742 
Q 947 2381 947 1747 
z
" transform="scale(0.015625)"/>
      <path id="DejaVuSans-6c" d="M 603 4863 
L 1178 4863 
L 1178 0 
L 603 0 
L 603 4863 
z
" transform="scale(0.015625)"/>
      <path id="DejaVuSans-20" transform="scale(0.015625)"/>
      <path id="DejaVuSans-70" d="M 1159 525 
L 1159 -1331 
L 581 -1331 
L 581 3500 
L 1159 3500 
L 1159 2969 
Q 1341 3281 1617 3432 
Q 1894 3584 2278 3584 
Q 2916 3584 3314 3078 
Q 3713 2572 3713 1747 
Q 3713 922 3314 415 
Q 2916 -91 2278 -91 
Q 1894 -91 1617 61 
Q 1341 213 1159 525 
z
M 3116 1747 
Q 3116 2381 2855 2742 
Q 2594 3103 2138 3103 
Q 1681 3103 1420 2742 
Q 1159 2381 1159 1747 
Q 1159 1113 1420 752 
Q 1681 391 2138 391 
Q 2594 391 2855 752 
Q 3116 1113 3116 1747 
z
" transform="scale(0.015625)"/>
      <path id="DejaVuSans-66" d="M 2375 4863 
L 2375 4384 
L 1825 4384 
Q 1516 4384 1395 4259 
Q 1275 4134 1275 3809 
L 1275 3500 
L 2222 3500 
L 2222 3053 
L 1275 3053 
L 1275 0 
L 697 0 
L 697 3053 
L 147 3053 
L 147 3500 
L 697 3500 
L 697 3744 
Q 697 4328 969 4595 
Q 1241 4863 1831 4863 
L 2375 4863 
z
" transform="scale(0.015625)"/>
      <path id="DejaVuSans-6d" d="M 3328 2828 
Q 3544 3216 3844 3400 
Q 4144 3584 4550 3584 
Q 5097 3584 5394 3201 
Q 5691 2819 5691 2113 
L 5691 0 
L 5113 0 
L 5113 2094 
Q 5113 2597 4934 2840 
Q 4756 3084 4391 3084 
Q 3944 3084 3684 2787 
Q 3425 2491 3425 1978 
L 3425 0 
L 2847 0 
L 2847 2094 
Q 2847 2600 2669 2842 
Q 2491 3084 2119 3084 
Q 1678 3084 1418 2786 
Q 1159 2488 1159 1978 
L 1159 0 
L 581 0 
L 581 3500 
L 1159 3500 
L 1159 2956 
Q 1356 3278 1631 3431 
Q 1906 3584 2284 3584 
Q 2666 3584 2933 3390 
Q 3200 3197 3328 2828 
z
" transform="scale(0.015625)"/>
      <path id="DejaVuSans-76" d="M 191 3500 
L 800 3500 
L 1894 563 
L 2988 3500 
L 3597 3500 
L 2284 0 
L 1503 0 
L 191 3500 
z
" transform="scale(0.015625)"/>
      <path id="DejaVuSans-73" d="M 2834 3397 
L 2834 2853 
Q 2591 2978 2328 3040 
Q 2066 3103 1784 3103 
Q 1356 3103 1142 2972 
Q 928 2841 928 2578 
Q 928 2378 1081 2264 
Q 1234 2150 1697 2047 
L 1894 2003 
Q 2506 1872 2764 1633 
Q 3022 1394 3022 966 
Q 3022 478 2636 193 
Q 2250 -91 1575 -91 
Q 1294 -91 989 -36 
Q 684 19 347 128 
L 347 722 
Q 666 556 975 473 
Q 1284 391 1588 391 
Q 1994 391 2212 530 
Q 2431 669 2431 922 
Q 2431 1156 2273 1281 
Q 2116 1406 1581 1522 
L 1381 1569 
Q 847 1681 609 1914 
Q 372 2147 372 2553 
Q 372 3047 722 3315 
Q 1072 3584 1716 3584 
Q 2034 3584 2315 3537 
Q 2597 3491 2834 3397 
z
" transform="scale(0.015625)"/>
      <path id="DejaVuSans-23" d="M 3272 2816 
L 2363 2816 
L 2100 1772 
L 3016 1772 
L 3272 2816 
z
M 2803 4594 
L 2478 3297 
L 3391 3297 
L 3719 4594 
L 4219 4594 
L 3897 3297 
L 4872 3297 
L 4872 2816 
L 3775 2816 
L 3519 1772 
L 4513 1772 
L 4513 1294 
L 3397 1294 
L 3072 0 
L 2572 0 
L 2894 1294 
L 1978 1294 
L 1656 0 
L 1153 0 
L 1478 1294 
L 494 1294 
L 494 1772 
L 1594 1772 
L 1856 2816 
L 850 2816 
L 850 3297 
L 1978 3297 
L 2297 4594 
L 2803 4594 
z
" transform="scale(0.015625)"/>
     </defs>
     <use xlink:href="#DejaVuSans-4d"/>
     <use xlink:href="#DejaVuSans-6f" x="86.279297"/>
     <use xlink:href="#DejaVuSans-64" x="147.460938"/>
     <use xlink:href="#DejaVuSans-65" x="210.9375"/>
     <use xlink:href="#DejaVuSans-6c" x="272.460938"/>
     <use xlink:href="#DejaVuSans-20" x="300.244141"/>
     <use xlink:href="#DejaVuSans-70" x="332.03125"/>
     <use xlink:href="#DejaVuSans-65" x="395.507812"/>
     <use xlink:href="#DejaVuSans-72" x="457.03125"/>
     <use xlink:href="#DejaVuSans-66" x="498.144531"/>
     <use xlink:href="#DejaVuSans-6f" x="533.349609"/>
     <use xlink:href="#DejaVuSans-72" x="594.53125"/>
     <use xlink:href="#DejaVuSans-6d" x="633.894531"/>
     <use xlink:href="#DejaVuSans-61" x="731.306641"/>
     <use xlink:href="#DejaVuSans-6e" x="792.585938"/>
     <use xlink:href="#DejaVuSans-63" x="855.964844"/>
     <use xlink:href="#DejaVuSans-65" x="910.945312"/>
     <use xlink:href="#DejaVuSans-20" x="972.46875"/>
     <use xlink:href="#DejaVuSans-76" x="1004.255859"/>
     <use xlink:href="#DejaVuSans-73" x="1063.435547"/>
     <use xlink:href="#DejaVuSans-2e" x="1115.535156"/>
     <use xlink:href="#DejaVuSans-20" x="1147.322266"/>
     <use xlink:href="#DejaVuSans-23" x="1179.109375"/>
     <use xlink:href="#DejaVuSans-20" x="1262.898438"/>
     <use xlink:href="#DejaVuSans-6f" x="1294.685547"/>
     <use xlink:href="#DejaVuSans-66" x="1355.867188"/>
     <use xlink:href="#DejaVuSans-20" x="1391.072266"/>
     <use xlink:href="#DejaVuSans-69" x="1422.859375"/>
     <use xlink:href="#DejaVuSans-74" x="1450.642578"/>
     <use xlink:href="#DejaVuSans-65" x="1489.851562"/>
     <use xlink:href="#DejaVuSans-72" x="1551.375"/>
     <use xlink:href="#DejaVuSans-61" x="1592.488281"/>
     <use xlink:href="#DejaVuSans-74" x="1653.767578"/>
     <use xlink:href="#DejaVuSans-69" x="1692.976562"/>
     <use xlink:href="#DejaVuSans-6f" x="1720.759766"/>
     <use xlink:href="#DejaVuSans-6e" x="1781.941406"/>
     <use xlink:href="#DejaVuSans-73" x="1845.320312"/>
    </g>
   </g>
  </g>
 </g>
 <defs>
  <clipPath id="p6144f8aace">
   <rect x="57.6" y="41.472" width="357.12" height="266.112"/>
  </clipPath>
 </defs>
</svg>
