<?xml version="1.0" encoding="utf-8" standalone="no"?>
<!DOCTYPE svg PUBLIC "-//W3C//DTD SVG 1.1//EN"
  "http://www.w3.org/Graphics/SVG/1.1/DTD/svg11.dtd">
<svg height="345.6pt" version="1.1" viewBox="0 0 460.8 345.6" width="460.8pt" xmlns="http://www.w3.org/2000/svg" xmlns:xlink="http://www.w3.org/1999/xlink">
 <metadata>
  <rdf:RDF xmlns:cc="http://creativecommons.org/ns#" xmlns:dc="http://purl.org/dc/elements/1.1/" xmlns:rdf="http://www.w3.org/1999/02/22-rdf-syntax-ns#">
   <cc:Work>
    <dc:type rdf:resource="http://purl.org/dc/dcmitype/StillImage"/>
    <dc:date>2021-09-07T07:11:29.428257</dc:date>
    <dc:format>image/svg+xml</dc:format>
    <dc:creator>
     <cc:Agent>
      <dc:title>Matplotlib v3.4.2, https://matplotlib.org/</dc:title>
     </cc:Agent>
    </dc:creator>
   </cc:Work>
  </rdf:RDF>
 </metadata>
 <defs>
  <style type="text/css">*{stroke-linecap:butt;stroke-linejoin:round;}</style>
 </defs>
 <g id="figure_1">
  <g id="patch_1">
   <path d="M 0 345.6 
L 460.8 345.6 
L 460.8 0 
L 0 0 
z
" style="fill:#ffffff;"/>
  </g>
  <g id="axes_1">
   <g id="patch_2">
    <path d="M 57.6 307.584 
L 414.72 307.584 
L 414.72 41.472 
L 57.6 41.472 
z
" style="fill:#ffffff;"/>
   </g>
   <g id="matplotlib.axis_1">
    <g id="xtick_1">
     <g id="line2d_1">
      <path clip-path="url(#pf14bd2f6a5)" d="M 72.201297 307.584 
L 72.201297 41.472 
" style="fill:none;stroke:#cccccc;stroke-linecap:round;stroke-width:0.8;"/>
     </g>
     <g id="text_1">
      <!-- 0 -->
      <g style="fill:#262626;" transform="translate(69.020047 322.182437)scale(0.1 -0.1)">
       <defs>
        <path d="M 2034 4250 
Q 1547 4250 1301 3770 
Q 1056 3291 1056 2328 
Q 1056 1369 1301 889 
Q 1547 409 2034 409 
Q 2525 409 2770 889 
Q 3016 1369 3016 2328 
Q 3016 3291 2770 3770 
Q 2525 4250 2034 4250 
z
M 2034 4750 
Q 2819 4750 3233 4129 
Q 3647 3509 3647 2328 
Q 3647 1150 3233 529 
Q 2819 -91 2034 -91 
Q 1250 -91 836 529 
Q 422 1150 422 2328 
Q 422 3509 836 4129 
Q 1250 4750 2034 4750 
z
" id="DejaVuSans-30" transform="scale(0.015625)"/>
       </defs>
       <use xlink:href="#DejaVuSans-30"/>
      </g>
     </g>
    </g>
    <g id="xtick_2">
     <g id="line2d_2">
      <path clip-path="url(#pf14bd2f6a5)" d="M 112.987044 307.584 
L 112.987044 41.472 
" style="fill:none;stroke:#cccccc;stroke-linecap:round;stroke-width:0.8;"/>
     </g>
     <g id="text_2">
      <!-- 25 -->
      <g style="fill:#262626;" transform="translate(106.624544 322.182437)scale(0.1 -0.1)">
       <defs>
        <path d="M 1228 531 
L 3431 531 
L 3431 0 
L 469 0 
L 469 531 
Q 828 903 1448 1529 
Q 2069 2156 2228 2338 
Q 2531 2678 2651 2914 
Q 2772 3150 2772 3378 
Q 2772 3750 2511 3984 
Q 2250 4219 1831 4219 
Q 1534 4219 1204 4116 
Q 875 4013 500 3803 
L 500 4441 
Q 881 4594 1212 4672 
Q 1544 4750 1819 4750 
Q 2544 4750 2975 4387 
Q 3406 4025 3406 3419 
Q 3406 3131 3298 2873 
Q 3191 2616 2906 2266 
Q 2828 2175 2409 1742 
Q 1991 1309 1228 531 
z
" id="DejaVuSans-32" transform="scale(0.015625)"/>
        <path d="M 691 4666 
L 3169 4666 
L 3169 4134 
L 1269 4134 
L 1269 2991 
Q 1406 3038 1543 3061 
Q 1681 3084 1819 3084 
Q 2600 3084 3056 2656 
Q 3513 2228 3513 1497 
Q 3513 744 3044 326 
Q 2575 -91 1722 -91 
Q 1428 -91 1123 -41 
Q 819 9 494 109 
L 494 744 
Q 775 591 1075 516 
Q 1375 441 1709 441 
Q 2250 441 2565 725 
Q 2881 1009 2881 1497 
Q 2881 1984 2565 2268 
Q 2250 2553 1709 2553 
Q 1456 2553 1204 2497 
Q 953 2441 691 2322 
L 691 4666 
z
" id="DejaVuSans-35" transform="scale(0.015625)"/>
       </defs>
       <use xlink:href="#DejaVuSans-32"/>
       <use x="63.623047" xlink:href="#DejaVuSans-35"/>
      </g>
     </g>
    </g>
    <g id="xtick_3">
     <g id="line2d_3">
      <path clip-path="url(#pf14bd2f6a5)" d="M 153.772791 307.584 
L 153.772791 41.472 
" style="fill:none;stroke:#cccccc;stroke-linecap:round;stroke-width:0.8;"/>
     </g>
     <g id="text_3">
      <!-- 50 -->
      <g style="fill:#262626;" transform="translate(147.410291 322.182437)scale(0.1 -0.1)">
       <use xlink:href="#DejaVuSans-35"/>
       <use x="63.623047" xlink:href="#DejaVuSans-30"/>
      </g>
     </g>
    </g>
    <g id="xtick_4">
     <g id="line2d_4">
      <path clip-path="url(#pf14bd2f6a5)" d="M 194.558538 307.584 
L 194.558538 41.472 
" style="fill:none;stroke:#cccccc;stroke-linecap:round;stroke-width:0.8;"/>
     </g>
     <g id="text_4">
      <!-- 75 -->
      <g style="fill:#262626;" transform="translate(188.196038 322.182437)scale(0.1 -0.1)">
       <defs>
        <path d="M 525 4666 
L 3525 4666 
L 3525 4397 
L 1831 0 
L 1172 0 
L 2766 4134 
L 525 4134 
L 525 4666 
z
" id="DejaVuSans-37" transform="scale(0.015625)"/>
       </defs>
       <use xlink:href="#DejaVuSans-37"/>
       <use x="63.623047" xlink:href="#DejaVuSans-35"/>
      </g>
     </g>
    </g>
    <g id="xtick_5">
     <g id="line2d_5">
      <path clip-path="url(#pf14bd2f6a5)" d="M 235.344285 307.584 
L 235.344285 41.472 
" style="fill:none;stroke:#cccccc;stroke-linecap:round;stroke-width:0.8;"/>
     </g>
     <g id="text_5">
      <!-- 100 -->
      <g style="fill:#262626;" transform="translate(225.800535 322.182437)scale(0.1 -0.1)">
       <defs>
        <path d="M 794 531 
L 1825 531 
L 1825 4091 
L 703 3866 
L 703 4441 
L 1819 4666 
L 2450 4666 
L 2450 531 
L 3481 531 
L 3481 0 
L 794 0 
L 794 531 
z
" id="DejaVuSans-31" transform="scale(0.015625)"/>
       </defs>
       <use xlink:href="#DejaVuSans-31"/>
       <use x="63.623047" xlink:href="#DejaVuSans-30"/>
       <use x="127.246094" xlink:href="#DejaVuSans-30"/>
      </g>
     </g>
    </g>
    <g id="xtick_6">
     <g id="line2d_6">
      <path clip-path="url(#pf14bd2f6a5)" d="M 276.130032 307.584 
L 276.130032 41.472 
" style="fill:none;stroke:#cccccc;stroke-linecap:round;stroke-width:0.8;"/>
     </g>
     <g id="text_6">
      <!-- 125 -->
      <g style="fill:#262626;" transform="translate(266.586282 322.182437)scale(0.1 -0.1)">
       <use xlink:href="#DejaVuSans-31"/>
       <use x="63.623047" xlink:href="#DejaVuSans-32"/>
       <use x="127.246094" xlink:href="#DejaVuSans-35"/>
      </g>
     </g>
    </g>
    <g id="xtick_7">
     <g id="line2d_7">
      <path clip-path="url(#pf14bd2f6a5)" d="M 316.915779 307.584 
L 316.915779 41.472 
" style="fill:none;stroke:#cccccc;stroke-linecap:round;stroke-width:0.8;"/>
     </g>
     <g id="text_7">
      <!-- 150 -->
      <g style="fill:#262626;" transform="translate(307.372029 322.182437)scale(0.1 -0.1)">
       <use xlink:href="#DejaVuSans-31"/>
       <use x="63.623047" xlink:href="#DejaVuSans-35"/>
       <use x="127.246094" xlink:href="#DejaVuSans-30"/>
      </g>
     </g>
    </g>
    <g id="xtick_8">
     <g id="line2d_8">
      <path clip-path="url(#pf14bd2f6a5)" d="M 357.701526 307.584 
L 357.701526 41.472 
" style="fill:none;stroke:#cccccc;stroke-linecap:round;stroke-width:0.8;"/>
     </g>
     <g id="text_8">
      <!-- 175 -->
      <g style="fill:#262626;" transform="translate(348.157776 322.182437)scale(0.1 -0.1)">
       <use xlink:href="#DejaVuSans-31"/>
       <use x="63.623047" xlink:href="#DejaVuSans-37"/>
       <use x="127.246094" xlink:href="#DejaVuSans-35"/>
      </g>
     </g>
    </g>
    <g id="xtick_9">
     <g id="line2d_9">
      <path clip-path="url(#pf14bd2f6a5)" d="M 398.487273 307.584 
L 398.487273 41.472 
" style="fill:none;stroke:#cccccc;stroke-linecap:round;stroke-width:0.8;"/>
     </g>
     <g id="text_9">
      <!-- 200 -->
      <g style="fill:#262626;" transform="translate(388.943523 322.182437)scale(0.1 -0.1)">
       <use xlink:href="#DejaVuSans-32"/>
       <use x="63.623047" xlink:href="#DejaVuSans-30"/>
       <use x="127.246094" xlink:href="#DejaVuSans-30"/>
      </g>
     </g>
    </g>
    <g id="text_10">
     <!-- Auroc -->
     <g style="fill:#262626;" transform="translate(221.819375 335.860562)scale(0.1 -0.1)">
      <defs>
       <path d="M 2188 4044 
L 1331 1722 
L 3047 1722 
L 2188 4044 
z
M 1831 4666 
L 2547 4666 
L 4325 0 
L 3669 0 
L 3244 1197 
L 1141 1197 
L 716 0 
L 50 0 
L 1831 4666 
z
" id="DejaVuSans-41" transform="scale(0.015625)"/>
       <path d="M 544 1381 
L 544 3500 
L 1119 3500 
L 1119 1403 
Q 1119 906 1312 657 
Q 1506 409 1894 409 
Q 2359 409 2629 706 
Q 2900 1003 2900 1516 
L 2900 3500 
L 3475 3500 
L 3475 0 
L 2900 0 
L 2900 538 
Q 2691 219 2414 64 
Q 2138 -91 1772 -91 
Q 1169 -91 856 284 
Q 544 659 544 1381 
z
M 1991 3584 
L 1991 3584 
z
" id="DejaVuSans-75" transform="scale(0.015625)"/>
       <path d="M 2631 2963 
Q 2534 3019 2420 3045 
Q 2306 3072 2169 3072 
Q 1681 3072 1420 2755 
Q 1159 2438 1159 1844 
L 1159 0 
L 581 0 
L 581 3500 
L 1159 3500 
L 1159 2956 
Q 1341 3275 1631 3429 
Q 1922 3584 2338 3584 
Q 2397 3584 2469 3576 
Q 2541 3569 2628 3553 
L 2631 2963 
z
" id="DejaVuSans-72" transform="scale(0.015625)"/>
       <path d="M 1959 3097 
Q 1497 3097 1228 2736 
Q 959 2375 959 1747 
Q 959 1119 1226 758 
Q 1494 397 1959 397 
Q 2419 397 2687 759 
Q 2956 1122 2956 1747 
Q 2956 2369 2687 2733 
Q 2419 3097 1959 3097 
z
M 1959 3584 
Q 2709 3584 3137 3096 
Q 3566 2609 3566 1747 
Q 3566 888 3137 398 
Q 2709 -91 1959 -91 
Q 1206 -91 779 398 
Q 353 888 353 1747 
Q 353 2609 779 3096 
Q 1206 3584 1959 3584 
z
" id="DejaVuSans-6f" transform="scale(0.015625)"/>
       <path d="M 3122 3366 
L 3122 2828 
Q 2878 2963 2633 3030 
Q 2388 3097 2138 3097 
Q 1578 3097 1268 2742 
Q 959 2388 959 1747 
Q 959 1106 1268 751 
Q 1578 397 2138 397 
Q 2388 397 2633 464 
Q 2878 531 3122 666 
L 3122 134 
Q 2881 22 2623 -34 
Q 2366 -91 2075 -91 
Q 1284 -91 818 406 
Q 353 903 353 1747 
Q 353 2603 823 3093 
Q 1294 3584 2113 3584 
Q 2378 3584 2631 3529 
Q 2884 3475 3122 3366 
z
" id="DejaVuSans-63" transform="scale(0.015625)"/>
      </defs>
      <use xlink:href="#DejaVuSans-41"/>
      <use x="68.408203" xlink:href="#DejaVuSans-75"/>
      <use x="131.787109" xlink:href="#DejaVuSans-72"/>
      <use x="170.650391" xlink:href="#DejaVuSans-6f"/>
      <use x="231.832031" xlink:href="#DejaVuSans-63"/>
     </g>
    </g>
   </g>
   <g id="matplotlib.axis_2">
    <g id="ytick_1">
     <g id="line2d_10">
      <path clip-path="url(#pf14bd2f6a5)" d="M 57.6 292.869947 
L 414.72 292.869947 
" style="fill:none;stroke:#cccccc;stroke-linecap:round;stroke-width:0.8;"/>
     </g>
     <g id="text_11">
      <!-- 0.45 -->
      <g style="fill:#262626;" transform="translate(28.334375 296.669165)scale(0.1 -0.1)">
       <defs>
        <path d="M 684 794 
L 1344 794 
L 1344 0 
L 684 0 
L 684 794 
z
" id="DejaVuSans-2e" transform="scale(0.015625)"/>
        <path d="M 2419 4116 
L 825 1625 
L 2419 1625 
L 2419 4116 
z
M 2253 4666 
L 3047 4666 
L 3047 1625 
L 3713 1625 
L 3713 1100 
L 3047 1100 
L 3047 0 
L 2419 0 
L 2419 1100 
L 313 1100 
L 313 1709 
L 2253 4666 
z
" id="DejaVuSans-34" transform="scale(0.015625)"/>
       </defs>
       <use xlink:href="#DejaVuSans-30"/>
       <use x="63.623047" xlink:href="#DejaVuSans-2e"/>
       <use x="95.410156" xlink:href="#DejaVuSans-34"/>
       <use x="159.033203" xlink:href="#DejaVuSans-35"/>
      </g>
     </g>
    </g>
    <g id="ytick_2">
     <g id="line2d_11">
      <path clip-path="url(#pf14bd2f6a5)" d="M 57.6 252.388438 
L 414.72 252.388438 
" style="fill:none;stroke:#cccccc;stroke-linecap:round;stroke-width:0.8;"/>
     </g>
     <g id="text_12">
      <!-- 0.50 -->
      <g style="fill:#262626;" transform="translate(28.334375 256.187657)scale(0.1 -0.1)">
       <use xlink:href="#DejaVuSans-30"/>
       <use x="63.623047" xlink:href="#DejaVuSans-2e"/>
       <use x="95.410156" xlink:href="#DejaVuSans-35"/>
       <use x="159.033203" xlink:href="#DejaVuSans-30"/>
      </g>
     </g>
    </g>
    <g id="ytick_3">
     <g id="line2d_12">
      <path clip-path="url(#pf14bd2f6a5)" d="M 57.6 211.90693 
L 414.72 211.90693 
" style="fill:none;stroke:#cccccc;stroke-linecap:round;stroke-width:0.8;"/>
     </g>
     <g id="text_13">
      <!-- 0.55 -->
      <g style="fill:#262626;" transform="translate(28.334375 215.706149)scale(0.1 -0.1)">
       <use xlink:href="#DejaVuSans-30"/>
       <use x="63.623047" xlink:href="#DejaVuSans-2e"/>
       <use x="95.410156" xlink:href="#DejaVuSans-35"/>
       <use x="159.033203" xlink:href="#DejaVuSans-35"/>
      </g>
     </g>
    </g>
    <g id="ytick_4">
     <g id="line2d_13">
      <path clip-path="url(#pf14bd2f6a5)" d="M 57.6 171.425422 
L 414.72 171.425422 
" style="fill:none;stroke:#cccccc;stroke-linecap:round;stroke-width:0.8;"/>
     </g>
     <g id="text_14">
      <!-- 0.60 -->
      <g style="fill:#262626;" transform="translate(28.334375 175.22464)scale(0.1 -0.1)">
       <defs>
        <path d="M 2113 2584 
Q 1688 2584 1439 2293 
Q 1191 2003 1191 1497 
Q 1191 994 1439 701 
Q 1688 409 2113 409 
Q 2538 409 2786 701 
Q 3034 994 3034 1497 
Q 3034 2003 2786 2293 
Q 2538 2584 2113 2584 
z
M 3366 4563 
L 3366 3988 
Q 3128 4100 2886 4159 
Q 2644 4219 2406 4219 
Q 1781 4219 1451 3797 
Q 1122 3375 1075 2522 
Q 1259 2794 1537 2939 
Q 1816 3084 2150 3084 
Q 2853 3084 3261 2657 
Q 3669 2231 3669 1497 
Q 3669 778 3244 343 
Q 2819 -91 2113 -91 
Q 1303 -91 875 529 
Q 447 1150 447 2328 
Q 447 3434 972 4092 
Q 1497 4750 2381 4750 
Q 2619 4750 2861 4703 
Q 3103 4656 3366 4563 
z
" id="DejaVuSans-36" transform="scale(0.015625)"/>
       </defs>
       <use xlink:href="#DejaVuSans-30"/>
       <use x="63.623047" xlink:href="#DejaVuSans-2e"/>
       <use x="95.410156" xlink:href="#DejaVuSans-36"/>
       <use x="159.033203" xlink:href="#DejaVuSans-30"/>
      </g>
     </g>
    </g>
    <g id="ytick_5">
     <g id="line2d_14">
      <path clip-path="url(#pf14bd2f6a5)" d="M 57.6 130.943913 
L 414.72 130.943913 
" style="fill:none;stroke:#cccccc;stroke-linecap:round;stroke-width:0.8;"/>
     </g>
     <g id="text_15">
      <!-- 0.65 -->
      <g style="fill:#262626;" transform="translate(28.334375 134.743132)scale(0.1 -0.1)">
       <use xlink:href="#DejaVuSans-30"/>
       <use x="63.623047" xlink:href="#DejaVuSans-2e"/>
       <use x="95.410156" xlink:href="#DejaVuSans-36"/>
       <use x="159.033203" xlink:href="#DejaVuSans-35"/>
      </g>
     </g>
    </g>
    <g id="ytick_6">
     <g id="line2d_15">
      <path clip-path="url(#pf14bd2f6a5)" d="M 57.6 90.462405 
L 414.72 90.462405 
" style="fill:none;stroke:#cccccc;stroke-linecap:round;stroke-width:0.8;"/>
     </g>
     <g id="text_16">
      <!-- 0.70 -->
      <g style="fill:#262626;" transform="translate(28.334375 94.261624)scale(0.1 -0.1)">
       <use xlink:href="#DejaVuSans-30"/>
       <use x="63.623047" xlink:href="#DejaVuSans-2e"/>
       <use x="95.410156" xlink:href="#DejaVuSans-37"/>
       <use x="159.033203" xlink:href="#DejaVuSans-30"/>
      </g>
     </g>
    </g>
    <g id="ytick_7">
     <g id="line2d_16">
      <path clip-path="url(#pf14bd2f6a5)" d="M 57.6 49.980896 
L 414.72 49.980896 
" style="fill:none;stroke:#cccccc;stroke-linecap:round;stroke-width:0.8;"/>
     </g>
     <g id="text_17">
      <!-- 0.75 -->
      <g style="fill:#262626;" transform="translate(28.334375 53.780115)scale(0.1 -0.1)">
       <use xlink:href="#DejaVuSans-30"/>
       <use x="63.623047" xlink:href="#DejaVuSans-2e"/>
       <use x="95.410156" xlink:href="#DejaVuSans-37"/>
       <use x="159.033203" xlink:href="#DejaVuSans-35"/>
      </g>
     </g>
    </g>
    <g id="text_18">
     <!-- Iteration -->
     <g style="fill:#262626;" transform="translate(22.254687 195.736594)rotate(-90)scale(0.1 -0.1)">
      <defs>
       <path d="M 628 4666 
L 1259 4666 
L 1259 0 
L 628 0 
L 628 4666 
z
" id="DejaVuSans-49" transform="scale(0.015625)"/>
       <path d="M 1172 4494 
L 1172 3500 
L 2356 3500 
L 2356 3053 
L 1172 3053 
L 1172 1153 
Q 1172 725 1289 603 
Q 1406 481 1766 481 
L 2356 481 
L 2356 0 
L 1766 0 
Q 1100 0 847 248 
Q 594 497 594 1153 
L 594 3053 
L 172 3053 
L 172 3500 
L 594 3500 
L 594 4494 
L 1172 4494 
z
" id="DejaVuSans-74" transform="scale(0.015625)"/>
       <path d="M 3597 1894 
L 3597 1613 
L 953 1613 
Q 991 1019 1311 708 
Q 1631 397 2203 397 
Q 2534 397 2845 478 
Q 3156 559 3463 722 
L 3463 178 
Q 3153 47 2828 -22 
Q 2503 -91 2169 -91 
Q 1331 -91 842 396 
Q 353 884 353 1716 
Q 353 2575 817 3079 
Q 1281 3584 2069 3584 
Q 2775 3584 3186 3129 
Q 3597 2675 3597 1894 
z
M 3022 2063 
Q 3016 2534 2758 2815 
Q 2500 3097 2075 3097 
Q 1594 3097 1305 2825 
Q 1016 2553 972 2059 
L 3022 2063 
z
" id="DejaVuSans-65" transform="scale(0.015625)"/>
       <path d="M 2194 1759 
Q 1497 1759 1228 1600 
Q 959 1441 959 1056 
Q 959 750 1161 570 
Q 1363 391 1709 391 
Q 2188 391 2477 730 
Q 2766 1069 2766 1631 
L 2766 1759 
L 2194 1759 
z
M 3341 1997 
L 3341 0 
L 2766 0 
L 2766 531 
Q 2569 213 2275 61 
Q 1981 -91 1556 -91 
Q 1019 -91 701 211 
Q 384 513 384 1019 
Q 384 1609 779 1909 
Q 1175 2209 1959 2209 
L 2766 2209 
L 2766 2266 
Q 2766 2663 2505 2880 
Q 2244 3097 1772 3097 
Q 1472 3097 1187 3025 
Q 903 2953 641 2809 
L 641 3341 
Q 956 3463 1253 3523 
Q 1550 3584 1831 3584 
Q 2591 3584 2966 3190 
Q 3341 2797 3341 1997 
z
" id="DejaVuSans-61" transform="scale(0.015625)"/>
       <path d="M 603 3500 
L 1178 3500 
L 1178 0 
L 603 0 
L 603 3500 
z
M 603 4863 
L 1178 4863 
L 1178 4134 
L 603 4134 
L 603 4863 
z
" id="DejaVuSans-69" transform="scale(0.015625)"/>
       <path d="M 3513 2113 
L 3513 0 
L 2938 0 
L 2938 2094 
Q 2938 2591 2744 2837 
Q 2550 3084 2163 3084 
Q 1697 3084 1428 2787 
Q 1159 2491 1159 1978 
L 1159 0 
L 581 0 
L 581 3500 
L 1159 3500 
L 1159 2956 
Q 1366 3272 1645 3428 
Q 1925 3584 2291 3584 
Q 2894 3584 3203 3211 
Q 3513 2838 3513 2113 
z
" id="DejaVuSans-6e" transform="scale(0.015625)"/>
      </defs>
      <use xlink:href="#DejaVuSans-49"/>
      <use x="29.492188" xlink:href="#DejaVuSans-74"/>
      <use x="68.701172" xlink:href="#DejaVuSans-65"/>
      <use x="130.224609" xlink:href="#DejaVuSans-72"/>
      <use x="171.337891" xlink:href="#DejaVuSans-61"/>
      <use x="232.617188" xlink:href="#DejaVuSans-74"/>
      <use x="271.826172" xlink:href="#DejaVuSans-69"/>
      <use x="299.609375" xlink:href="#DejaVuSans-6f"/>
      <use x="360.791016" xlink:href="#DejaVuSans-6e"/>
     </g>
    </g>
   </g>
   <g id="PolyCollection_1">
    <defs>
     <path d="M 73.832727 -151.320264 
L 73.832727 -78.608071 
L 75.464157 -75.312827 
L 77.095587 -178.631423 
L 78.727017 -119.586041 
L 80.358447 -148.560824 
L 81.989877 -179.527051 
L 83.621307 -67.738245 
L 85.252736 -123.896089 
L 86.884166 -183.527782 
L 88.515596 -190.534185 
L 90.147026 -158.244862 
L 91.778456 -146.778598 
L 93.409886 -112.781472 
L 95.041316 -124.99412 
L 96.672746 -179.428742 
L 98.304175 -159.652201 
L 99.935605 -188.191403 
L 101.567035 -146.372741 
L 103.198465 -145.972636 
L 104.829895 -175.810086 
L 106.461325 -178.132511 
L 108.092755 -110.140269 
L 109.724185 -94.475967 
L 111.355614 -129.678286 
L 112.987044 -50.112 
L 114.618474 -172.853548 
L 116.249904 -153.476977 
L 117.881334 -106.220367 
L 119.512764 -76.215502 
L 121.144194 -139.901351 
L 122.775624 -177.552937 
L 124.407053 -147.857024 
L 126.038483 -189.300942 
L 127.669913 -168.132264 
L 129.301343 -159.794872 
L 130.932773 -162.250041 
L 132.564203 -189.749063 
L 134.195633 -183.934223 
L 135.827063 -140.494594 
L 137.458492 -189.50902 
L 139.089922 -202.101715 
L 140.721352 -209.193726 
L 142.352782 -174.673591 
L 143.984212 -171.412923 
L 145.615642 -199.635093 
L 147.247072 -183.551924 
L 148.878502 -191.75734 
L 150.509931 -164.085036 
L 152.141361 -185.67792 
L 153.772791 -184.530134 
L 155.404221 -171.611462 
L 157.035651 -193.475824 
L 158.667081 -190.385003 
L 160.298511 -136.576151 
L 161.929941 -172.884674 
L 163.56137 -192.362107 
L 165.1928 -146.211795 
L 166.82423 -167.102912 
L 168.45566 -157.648931 
L 170.08709 -187.361798 
L 171.71852 -136.203913 
L 173.34995 -160.442628 
L 174.98138 -179.669748 
L 176.61281 -193.84565 
L 178.244239 -142.504069 
L 179.875669 -140.679614 
L 181.507099 -194.771474 
L 183.138529 -195.901748 
L 184.769959 -180.676558 
L 186.401389 -177.663535 
L 188.032819 -173.745958 
L 189.664249 -187.470383 
L 191.295678 -177.700996 
L 192.927108 -206.219724 
L 194.558538 -171.399666 
L 196.189968 -151.783985 
L 197.821398 -202.577851 
L 199.452828 -193.64299 
L 201.084258 -177.16583 
L 202.715688 -186.769644 
L 204.347117 -195.954769 
L 205.978547 -171.541168 
L 207.609977 -183.201854 
L 209.241407 -161.673368 
L 210.872837 -212.671603 
L 212.504267 -192.496515 
L 214.135697 -175.36789 
L 215.767127 -105.17322 
L 217.398556 -204.447631 
L 219.029986 -202.436243 
L 220.661416 -186.970602 
L 222.292846 -193.764941 
L 223.924276 -193.114889 
L 225.555706 -188.206525 
L 227.187136 -126.494182 
L 228.818566 -192.997442 
L 230.449995 -112.731547 
L 232.081425 -168.482522 
L 233.712855 -179.331726 
L 235.344285 -198.958386 
L 236.975715 -164.455758 
L 238.607145 -162.431419 
L 240.238575 -168.343396 
L 241.870005 -131.076248 
L 243.501434 -62.759218 
L 245.132864 -143.527794 
L 246.764294 -196.481569 
L 248.395724 -166.121819 
L 250.027154 -189.258533 
L 251.658584 -192.707579 
L 253.290014 -165.439603 
L 254.921444 -192.675608 
L 256.552873 -133.989961 
L 258.184303 -192.318168 
L 259.815733 -174.565924 
L 261.447163 -207.254543 
L 263.078593 -172.301691 
L 264.710023 -186.360023 
L 266.341453 -197.678379 
L 267.972883 -201.877406 
L 269.604312 -205.536245 
L 271.235742 -174.908503 
L 272.867172 -69.096888 
L 274.498602 -202.081591 
L 276.130032 -155.167745 
L 277.761462 -144.115409 
L 279.392892 -201.679953 
L 281.024322 -147.379186 
L 282.655751 -201.291532 
L 284.287181 -212.458011 
L 285.918611 -178.36887 
L 287.550041 -201.088449 
L 289.181471 -171.965607 
L 290.812901 -146.534892 
L 292.444331 -199.187866 
L 294.075761 -179.593016 
L 295.70719 -169.509275 
L 297.33862 -98.914552 
L 298.97005 -188.524907 
L 300.60148 -175.229031 
L 302.23291 -146.406781 
L 303.86434 -215.433087 
L 305.49577 -195.753839 
L 307.1272 -195.599448 
L 308.75863 -197.747251 
L 310.390059 -146.564916 
L 312.021489 -183.046052 
L 313.652919 -214.568212 
L 315.284349 -142.995522 
L 316.915779 -186.214054 
L 318.547209 -201.163563 
L 320.178639 -129.883572 
L 321.810069 -206.529271 
L 323.441498 -157.63589 
L 325.072928 -90.140028 
L 326.704358 -177.84312 
L 328.335788 -141.018881 
L 329.967218 -195.060703 
L 331.598648 -196.958421 
L 333.230078 -128.301622 
L 334.861508 -205.119137 
L 336.492937 -205.776179 
L 338.124367 -144.834946 
L 339.755797 -201.006366 
L 341.387227 -219.408716 
L 343.018657 -199.260523 
L 344.650087 -209.104493 
L 346.281517 -207.430288 
L 347.912947 -192.808831 
L 349.544376 -115.196842 
L 351.175806 -215.23739 
L 352.807236 -217.504056 
L 354.438666 -207.574919 
L 356.070096 -121.289011 
L 357.701526 -201.060677 
L 359.332956 -200.112654 
L 360.964386 -199.416056 
L 362.595815 -170.416566 
L 364.227245 -208.460127 
L 365.858675 -213.497143 
L 367.490105 -207.290544 
L 369.121535 -160.695092 
L 370.752965 -156.191258 
L 372.384395 -222.040547 
L 374.015825 -169.419226 
L 375.647254 -122.762562 
L 377.278684 -155.871836 
L 378.910114 -57.265365 
L 380.541544 -121.612492 
L 382.172974 -206.043996 
L 383.804404 -190.597472 
L 385.435834 -211.795029 
L 387.067264 -185.754477 
L 388.698693 -140.468266 
L 390.330123 -209.428638 
L 391.961553 -207.219047 
L 393.592983 -199.008652 
L 395.224413 -101.088961 
L 396.855843 -181.361525 
L 398.487273 -189.836937 
L 398.487273 -248.042302 
L 398.487273 -248.042302 
L 396.855843 -263.311686 
L 395.224413 -274.11913 
L 393.592983 -250.329301 
L 391.961553 -254.237498 
L 390.330123 -261.971959 
L 388.698693 -263.575922 
L 387.067264 -267.093627 
L 385.435834 -265.677597 
L 383.804404 -264.169778 
L 382.172974 -267.302619 
L 380.541544 -258.904536 
L 378.910114 -260.603677 
L 377.278684 -286.15399 
L 375.647254 -263.085776 
L 374.015825 -262.484452 
L 372.384395 -254.432423 
L 370.752965 -241.69056 
L 369.121535 -250.403355 
L 367.490105 -266.753053 
L 365.858675 -260.905457 
L 364.227245 -244.319055 
L 362.595815 -252.804914 
L 360.964386 -275.031294 
L 359.332956 -273.657389 
L 357.701526 -272.008786 
L 356.070096 -279.196623 
L 354.438666 -254.254235 
L 352.807236 -258.604852 
L 351.175806 -265.467844 
L 349.544376 -249.689868 
L 347.912947 -256.776084 
L 346.281517 -245.265355 
L 344.650087 -246.74792 
L 343.018657 -267.169229 
L 341.387227 -256.10114 
L 339.755797 -244.668525 
L 338.124367 -264.99625 
L 336.492937 -260.5001 
L 334.861508 -267.82856 
L 333.230078 -266.830215 
L 331.598648 -248.310355 
L 329.967218 -275.783343 
L 328.335788 -258.429431 
L 326.704358 -260.532967 
L 325.072928 -245.763407 
L 323.441498 -269.974249 
L 321.810069 -274.959294 
L 320.178639 -255.929012 
L 318.547209 -258.228796 
L 316.915779 -285.794477 
L 315.284349 -261.916999 
L 313.652919 -257.876565 
L 312.021489 -243.12335 
L 310.390059 -263.182854 
L 308.75863 -270.085797 
L 307.1272 -260.688367 
L 305.49577 -243.262901 
L 303.86434 -260.527182 
L 302.23291 -250.023899 
L 300.60148 -242.282571 
L 298.97005 -247.484545 
L 297.33862 -272.910383 
L 295.70719 -257.377684 
L 294.075761 -292.032 
L 292.444331 -236.847221 
L 290.812901 -261.63126 
L 289.181471 -216.58206 
L 287.550041 -260.769601 
L 285.918611 -241.754812 
L 284.287181 -249.88227 
L 282.655751 -251.094016 
L 281.024322 -245.414573 
L 279.392892 -254.962706 
L 277.761462 -214.694099 
L 276.130032 -257.200762 
L 274.498602 -251.244135 
L 272.867172 -246.096998 
L 271.235742 -261.377763 
L 269.604312 -275.341126 
L 267.972883 -246.520988 
L 266.341453 -264.306496 
L 264.710023 -229.102796 
L 263.078593 -263.648059 
L 261.447163 -250.117366 
L 259.815733 -254.308205 
L 258.184303 -267.395079 
L 256.552873 -252.890302 
L 254.921444 -264.049241 
L 253.290014 -240.984376 
L 251.658584 -265.569204 
L 250.027154 -235.504312 
L 248.395724 -258.89243 
L 246.764294 -252.954259 
L 245.132864 -248.568084 
L 243.501434 -265.359922 
L 241.870005 -260.85244 
L 240.238575 -233.333258 
L 238.607145 -235.918183 
L 236.975715 -251.859878 
L 235.344285 -246.646795 
L 233.712855 -243.334215 
L 232.081425 -232.690761 
L 230.449995 -261.496677 
L 228.818566 -243.987942 
L 227.187136 -216.320945 
L 225.555706 -241.234611 
L 223.924276 -252.94374 
L 222.292846 -244.755512 
L 220.661416 -251.914701 
L 219.029986 -267.156743 
L 217.398556 -236.479259 
L 215.767127 -253.283694 
L 214.135697 -255.294511 
L 212.504267 -239.096844 
L 210.872837 -267.67384 
L 209.241407 -270.702761 
L 207.609977 -261.692291 
L 205.978547 -254.204693 
L 204.347117 -251.482196 
L 202.715688 -240.37153 
L 201.084258 -235.476343 
L 199.452828 -255.760344 
L 197.821398 -250.311348 
L 196.189968 -235.078176 
L 194.558538 -260.045953 
L 192.927108 -257.500917 
L 191.295678 -262.165074 
L 189.664249 -239.399486 
L 188.032819 -248.767409 
L 186.401389 -256.12286 
L 184.769959 -262.140021 
L 183.138529 -239.766015 
L 181.507099 -239.587438 
L 179.875669 -263.535812 
L 178.244239 -239.504966 
L 176.61281 -258.698206 
L 174.98138 -263.918581 
L 173.34995 -251.239354 
L 171.71852 -240.230502 
L 170.08709 -264.350717 
L 168.45566 -263.791135 
L 166.82423 -258.080664 
L 165.1928 -253.572697 
L 163.56137 -255.058443 
L 161.929941 -254.367136 
L 160.298511 -245.340349 
L 158.667081 -244.264665 
L 157.035651 -258.758612 
L 155.404221 -262.810414 
L 153.772791 -264.594474 
L 152.141361 -253.420672 
L 150.509931 -257.51525 
L 148.878502 -266.932865 
L 147.247072 -249.888397 
L 145.615642 -257.267177 
L 143.984212 -257.600962 
L 142.352782 -260.790329 
L 140.721352 -255.946289 
L 139.089922 -258.02012 
L 137.458492 -265.052025 
L 135.827063 -251.011228 
L 134.195633 -263.422689 
L 132.564203 -247.26353 
L 130.932773 -256.691392 
L 129.301343 -262.19826 
L 127.669913 -245.519009 
L 126.038483 -242.16188 
L 124.407053 -270.16683 
L 122.775624 -254.314874 
L 121.144194 -240.894739 
L 119.512764 -133.980452 
L 117.881334 -176.175002 
L 116.249904 -218.290954 
L 114.618474 -240.738023 
L 112.987044 -109.77645 
L 111.355614 -187.990397 
L 109.724185 -134.040865 
L 108.092755 -166.674298 
L 106.461325 -239.72078 
L 104.829895 -208.620452 
L 103.198465 -196.257944 
L 101.567035 -216.698824 
L 99.935605 -214.50402 
L 98.304175 -226.054582 
L 96.672746 -274.419693 
L 95.041316 -163.80586 
L 93.409886 -161.305994 
L 91.778456 -209.295489 
L 90.147026 -188.267002 
L 88.515596 -244.962565 
L 86.884166 -223.912492 
L 85.252736 -183.010244 
L 83.621307 -163.2897 
L 81.989877 -241.602022 
L 80.358447 -224.533498 
L 78.727017 -172.550885 
L 77.095587 -235.635317 
L 75.464157 -117.697838 
L 73.832727 -151.320264 
z
" id="mded2677af4" style="stroke:#ffffff;stroke-opacity:0.2;"/>
    </defs>
    <g clip-path="url(#pf14bd2f6a5)">
     <use style="fill:#1f77b4;fill-opacity:0.2;stroke:#ffffff;stroke-opacity:0.2;" x="0" xlink:href="#mded2677af4" y="345.6"/>
    </g>
   </g>
   <g id="LineCollection_1">
    <path clip-path="url(#pf14bd2f6a5)" d="M 121.144194 295.488 
L 121.144194 53.568 
" style="fill:none;stroke:#1f77b4;stroke-dasharray:5.55,2.4;stroke-dashoffset:0;stroke-width:1.5;"/>
   </g>
   <g id="line2d_17">
    <path clip-path="url(#pf14bd2f6a5)" d="M 73.832727 230.635833 
L 75.464157 249.094667 
L 77.095587 138.46663 
L 78.727017 199.531537 
L 80.358447 159.052839 
L 81.989877 135.035464 
L 83.621307 230.086027 
L 85.252736 192.146834 
L 86.884166 141.879863 
L 88.515596 127.851625 
L 90.147026 172.344068 
L 91.778456 167.562956 
L 93.409886 208.556267 
L 95.041316 201.20001 
L 96.672746 118.675783 
L 98.304175 152.746609 
L 99.935605 144.252288 
L 101.567035 164.064217 
L 103.198465 174.48471 
L 104.829895 153.384731 
L 106.461325 136.673355 
L 108.092755 207.192717 
L 109.724185 231.341584 
L 111.355614 186.765658 
L 112.987044 265.655775 
L 114.618474 138.804215 
L 116.249904 159.716035 
L 117.881334 204.402315 
L 119.512764 240.502023 
L 121.144194 155.201955 
L 122.775624 129.666094 
L 124.407053 136.588073 
L 126.038483 129.868589 
L 127.669913 138.774363 
L 129.301343 134.603434 
L 130.932773 136.129284 
L 132.564203 127.093703 
L 134.195633 121.921544 
L 135.827063 149.847089 
L 137.458492 118.319477 
L 139.089922 115.539083 
L 140.721352 113.029993 
L 142.352782 127.86804 
L 143.984212 131.093058 
L 145.615642 117.148865 
L 147.247072 128.879839 
L 148.878502 116.254897 
L 150.509931 134.799857 
L 152.141361 126.050704 
L 153.772791 121.037696 
L 155.404221 128.389062 
L 157.035651 119.482782 
L 158.667081 128.275166 
L 160.298511 154.64175 
L 161.929941 131.974095 
L 163.56137 121.889725 
L 165.1928 145.707754 
L 166.82423 133.008212 
L 168.45566 134.879967 
L 170.08709 119.743743 
L 171.71852 157.382792 
L 173.34995 139.759009 
L 174.98138 123.805835 
L 176.61281 119.328072 
L 178.244239 154.595483 
L 179.875669 143.492287 
L 181.507099 128.420544 
L 183.138529 127.766118 
L 184.769959 124.191711 
L 186.401389 128.706802 
L 188.032819 134.343317 
L 189.664249 132.165065 
L 191.295678 125.666965 
L 192.927108 113.73968 
L 194.558538 129.87719 
L 196.189968 152.16892 
L 197.821398 119.1554 
L 199.452828 120.898333 
L 201.084258 139.278913 
L 202.715688 132.029413 
L 204.347117 121.881517 
L 205.978547 132.727069 
L 207.609977 123.152928 
L 209.241407 129.411936 
L 210.872837 105.427279 
L 212.504267 129.803321 
L 214.135697 130.2688 
L 215.767127 166.371543 
L 217.398556 125.136555 
L 219.029986 110.803507 
L 220.661416 126.157348 
L 222.292846 126.339773 
L 223.924276 122.570685 
L 225.555706 130.879432 
L 227.187136 174.192437 
L 228.818566 127.107308 
L 230.449995 158.485888 
L 232.081425 145.013358 
L 235.344285 122.797409 
L 236.975715 137.442182 
L 238.607145 146.425199 
L 240.238575 144.761673 
L 241.870005 149.635656 
L 243.501434 181.54043 
L 245.132864 149.552061 
L 246.764294 120.882086 
L 248.395724 133.092875 
L 250.027154 133.218577 
L 251.658584 116.461608 
L 253.290014 142.388011 
L 254.921444 117.237576 
L 256.552873 152.159869 
L 258.184303 115.743376 
L 259.815733 131.162936 
L 261.447163 116.914045 
L 264.710023 137.86859 
L 266.341453 114.607562 
L 267.972883 121.400803 
L 269.604312 105.161315 
L 271.235742 127.456867 
L 272.867172 188.003057 
L 274.498602 118.937137 
L 276.130032 139.415746 
L 277.761462 166.195246 
L 279.392892 117.278671 
L 281.024322 149.20312 
L 282.655751 119.407226 
L 284.287181 114.429859 
L 285.918611 135.538159 
L 287.550041 114.670975 
L 289.181471 151.326166 
L 290.812901 141.516924 
L 292.444331 127.582457 
L 294.075761 109.787492 
L 295.70719 132.15652 
L 297.33862 159.687532 
L 298.97005 127.595274 
L 300.60148 136.844199 
L 302.23291 147.38466 
L 303.86434 107.619866 
L 305.49577 126.09163 
L 307.1272 117.456092 
L 308.75863 111.683476 
L 310.390059 140.726115 
L 312.021489 132.515299 
L 313.652919 109.377612 
L 315.284349 143.14374 
L 316.915779 109.595735 
L 318.547209 115.903821 
L 320.178639 152.693708 
L 321.810069 104.855718 
L 323.441498 131.794931 
L 325.072928 177.648282 
L 326.704358 126.411956 
L 328.335788 145.875844 
L 329.967218 110.177977 
L 331.598648 122.965612 
L 333.230078 148.034082 
L 334.861508 109.126152 
L 336.492937 112.461861 
L 338.124367 140.684402 
L 339.755797 122.762555 
L 341.387227 107.845072 
L 343.018657 112.385124 
L 344.650087 117.673794 
L 347.912947 120.807542 
L 349.544376 163.156645 
L 351.175806 105.247383 
L 352.807236 107.545546 
L 354.438666 114.685423 
L 356.070096 145.357183 
L 357.701526 109.065268 
L 360.964386 108.376325 
L 362.595815 133.98926 
L 364.227245 119.210409 
L 365.858675 108.3987 
L 367.490105 108.578202 
L 369.121535 140.050777 
L 370.752965 146.659091 
L 372.384395 107.363515 
L 375.647254 152.675831 
L 377.278684 124.587087 
L 378.910114 186.665479 
L 380.541544 155.341486 
L 382.172974 108.926693 
L 383.804404 118.216375 
L 385.435834 106.863687 
L 387.067264 119.175948 
L 388.698693 143.577906 
L 390.330123 109.899702 
L 391.961553 114.871727 
L 393.592983 120.931024 
L 395.224413 157.995954 
L 396.855843 123.263395 
L 398.487273 126.660381 
L 398.487273 126.660381 
" style="fill:none;stroke:#1f77b4;stroke-linecap:round;stroke-width:1.5;"/>
   </g>
   <g id="patch_3">
    <path d="M 57.6 307.584 
L 57.6 41.472 
" style="fill:none;stroke:#cccccc;stroke-linecap:square;stroke-linejoin:miter;stroke-width:0.8;"/>
   </g>
   <g id="patch_4">
    <path d="M 414.72 307.584 
L 414.72 41.472 
" style="fill:none;stroke:#cccccc;stroke-linecap:square;stroke-linejoin:miter;stroke-width:0.8;"/>
   </g>
   <g id="patch_5">
    <path d="M 57.6 307.584 
L 414.72 307.584 
" style="fill:none;stroke:#cccccc;stroke-linecap:square;stroke-linejoin:miter;stroke-width:0.8;"/>
   </g>
   <g id="patch_6">
    <path d="M 57.6 41.472 
L 414.72 41.472 
" style="fill:none;stroke:#cccccc;stroke-linecap:square;stroke-linejoin:miter;stroke-width:0.8;"/>
   </g>
   <g id="text_19">
    <!-- Model performance vs. # of iterations -->
    <g style="fill:#262626;" transform="translate(122.314688 35.472)scale(0.12 -0.12)">
     <defs>
      <path d="M 628 4666 
L 1569 4666 
L 2759 1491 
L 3956 4666 
L 4897 4666 
L 4897 0 
L 4281 0 
L 4281 4097 
L 3078 897 
L 2444 897 
L 1241 4097 
L 1241 0 
L 628 0 
L 628 4666 
z
" id="DejaVuSans-4d" transform="scale(0.015625)"/>
      <path d="M 2906 2969 
L 2906 4863 
L 3481 4863 
L 3481 0 
L 2906 0 
L 2906 525 
Q 2725 213 2448 61 
Q 2172 -91 1784 -91 
Q 1150 -91 751 415 
Q 353 922 353 1747 
Q 353 2572 751 3078 
Q 1150 3584 1784 3584 
Q 2172 3584 2448 3432 
Q 2725 3281 2906 2969 
z
M 947 1747 
Q 947 1113 1208 752 
Q 1469 391 1925 391 
Q 2381 391 2643 752 
Q 2906 1113 2906 1747 
Q 2906 2381 2643 2742 
Q 2381 3103 1925 3103 
Q 1469 3103 1208 2742 
Q 947 2381 947 1747 
z
" id="DejaVuSans-64" transform="scale(0.015625)"/>
      <path d="M 603 4863 
L 1178 4863 
L 1178 0 
L 603 0 
L 603 4863 
z
" id="DejaVuSans-6c" transform="scale(0.015625)"/>
      <path id="DejaVuSans-20" transform="scale(0.015625)"/>
      <path d="M 1159 525 
L 1159 -1331 
L 581 -1331 
L 581 3500 
L 1159 3500 
L 1159 2969 
Q 1341 3281 1617 3432 
Q 1894 3584 2278 3584 
Q 2916 3584 3314 3078 
Q 3713 2572 3713 1747 
Q 3713 922 3314 415 
Q 2916 -91 2278 -91 
Q 1894 -91 1617 61 
Q 1341 213 1159 525 
z
M 3116 1747 
Q 3116 2381 2855 2742 
Q 2594 3103 2138 3103 
Q 1681 3103 1420 2742 
Q 1159 2381 1159 1747 
Q 1159 1113 1420 752 
Q 1681 391 2138 391 
Q 2594 391 2855 752 
Q 3116 1113 3116 1747 
z
" id="DejaVuSans-70" transform="scale(0.015625)"/>
      <path d="M 2375 4863 
L 2375 4384 
L 1825 4384 
Q 1516 4384 1395 4259 
Q 1275 4134 1275 3809 
L 1275 3500 
L 2222 3500 
L 2222 3053 
L 1275 3053 
L 1275 0 
L 697 0 
L 697 3053 
L 147 3053 
L 147 3500 
L 697 3500 
L 697 3744 
Q 697 4328 969 4595 
Q 1241 4863 1831 4863 
L 2375 4863 
z
" id="DejaVuSans-66" transform="scale(0.015625)"/>
      <path d="M 3328 2828 
Q 3544 3216 3844 3400 
Q 4144 3584 4550 3584 
Q 5097 3584 5394 3201 
Q 5691 2819 5691 2113 
L 5691 0 
L 5113 0 
L 5113 2094 
Q 5113 2597 4934 2840 
Q 4756 3084 4391 3084 
Q 3944 3084 3684 2787 
Q 3425 2491 3425 1978 
L 3425 0 
L 2847 0 
L 2847 2094 
Q 2847 2600 2669 2842 
Q 2491 3084 2119 3084 
Q 1678 3084 1418 2786 
Q 1159 2488 1159 1978 
L 1159 0 
L 581 0 
L 581 3500 
L 1159 3500 
L 1159 2956 
Q 1356 3278 1631 3431 
Q 1906 3584 2284 3584 
Q 2666 3584 2933 3390 
Q 3200 3197 3328 2828 
z
" id="DejaVuSans-6d" transform="scale(0.015625)"/>
      <path d="M 191 3500 
L 800 3500 
L 1894 563 
L 2988 3500 
L 3597 3500 
L 2284 0 
L 1503 0 
L 191 3500 
z
" id="DejaVuSans-76" transform="scale(0.015625)"/>
      <path d="M 2834 3397 
L 2834 2853 
Q 2591 2978 2328 3040 
Q 2066 3103 1784 3103 
Q 1356 3103 1142 2972 
Q 928 2841 928 2578 
Q 928 2378 1081 2264 
Q 1234 2150 1697 2047 
L 1894 2003 
Q 2506 1872 2764 1633 
Q 3022 1394 3022 966 
Q 3022 478 2636 193 
Q 2250 -91 1575 -91 
Q 1294 -91 989 -36 
Q 684 19 347 128 
L 347 722 
Q 666 556 975 473 
Q 1284 391 1588 391 
Q 1994 391 2212 530 
Q 2431 669 2431 922 
Q 2431 1156 2273 1281 
Q 2116 1406 1581 1522 
L 1381 1569 
Q 847 1681 609 1914 
Q 372 2147 372 2553 
Q 372 3047 722 3315 
Q 1072 3584 1716 3584 
Q 2034 3584 2315 3537 
Q 2597 3491 2834 3397 
z
" id="DejaVuSans-73" transform="scale(0.015625)"/>
      <path d="M 3272 2816 
L 2363 2816 
L 2100 1772 
L 3016 1772 
L 3272 2816 
z
M 2803 4594 
L 2478 3297 
L 3391 3297 
L 3719 4594 
L 4219 4594 
L 3897 3297 
L 4872 3297 
L 4872 2816 
L 3775 2816 
L 3519 1772 
L 4513 1772 
L 4513 1294 
L 3397 1294 
L 3072 0 
L 2572 0 
L 2894 1294 
L 1978 1294 
L 1656 0 
L 1153 0 
L 1478 1294 
L 494 1294 
L 494 1772 
L 1594 1772 
L 1856 2816 
L 850 2816 
L 850 3297 
L 1978 3297 
L 2297 4594 
L 2803 4594 
z
" id="DejaVuSans-23" transform="scale(0.015625)"/>
     </defs>
     <use xlink:href="#DejaVuSans-4d"/>
     <use x="86.279297" xlink:href="#DejaVuSans-6f"/>
     <use x="147.460938" xlink:href="#DejaVuSans-64"/>
     <use x="210.9375" xlink:href="#DejaVuSans-65"/>
     <use x="272.460938" xlink:href="#DejaVuSans-6c"/>
     <use x="300.244141" xlink:href="#DejaVuSans-20"/>
     <use x="332.03125" xlink:href="#DejaVuSans-70"/>
     <use x="395.507812" xlink:href="#DejaVuSans-65"/>
     <use x="457.03125" xlink:href="#DejaVuSans-72"/>
     <use x="498.144531" xlink:href="#DejaVuSans-66"/>
     <use x="533.349609" xlink:href="#DejaVuSans-6f"/>
     <use x="594.53125" xlink:href="#DejaVuSans-72"/>
     <use x="633.894531" xlink:href="#DejaVuSans-6d"/>
     <use x="731.306641" xlink:href="#DejaVuSans-61"/>
     <use x="792.585938" xlink:href="#DejaVuSans-6e"/>
     <use x="855.964844" xlink:href="#DejaVuSans-63"/>
     <use x="910.945312" xlink:href="#DejaVuSans-65"/>
     <use x="972.46875" xlink:href="#DejaVuSans-20"/>
     <use x="1004.255859" xlink:href="#DejaVuSans-76"/>
     <use x="1063.435547" xlink:href="#DejaVuSans-73"/>
     <use x="1115.535156" xlink:href="#DejaVuSans-2e"/>
     <use x="1147.322266" xlink:href="#DejaVuSans-20"/>
     <use x="1179.109375" xlink:href="#DejaVuSans-23"/>
     <use x="1262.898438" xlink:href="#DejaVuSans-20"/>
     <use x="1294.685547" xlink:href="#DejaVuSans-6f"/>
     <use x="1355.867188" xlink:href="#DejaVuSans-66"/>
     <use x="1391.072266" xlink:href="#DejaVuSans-20"/>
     <use x="1422.859375" xlink:href="#DejaVuSans-69"/>
     <use x="1450.642578" xlink:href="#DejaVuSans-74"/>
     <use x="1489.851562" xlink:href="#DejaVuSans-65"/>
     <use x="1551.375" xlink:href="#DejaVuSans-72"/>
     <use x="1592.488281" xlink:href="#DejaVuSans-61"/>
     <use x="1653.767578" xlink:href="#DejaVuSans-74"/>
     <use x="1692.976562" xlink:href="#DejaVuSans-69"/>
     <use x="1720.759766" xlink:href="#DejaVuSans-6f"/>
     <use x="1781.941406" xlink:href="#DejaVuSans-6e"/>
     <use x="1845.320312" xlink:href="#DejaVuSans-73"/>
    </g>
   </g>
  </g>
 </g>
 <defs>
  <clipPath id="pf14bd2f6a5">
   <rect height="266.112" width="357.12" x="57.6" y="41.472"/>
  </clipPath>
 </defs>
</svg>
