<?xml version="1.0" encoding="utf-8" standalone="no"?>
<!DOCTYPE svg PUBLIC "-//W3C//DTD SVG 1.1//EN"
  "http://www.w3.org/Graphics/SVG/1.1/DTD/svg11.dtd">
<svg xmlns:xlink="http://www.w3.org/1999/xlink" width="460.8pt" height="345.6pt" viewBox="0 0 460.8 345.6" xmlns="http://www.w3.org/2000/svg" version="1.1">
 <metadata>
  <rdf:RDF xmlns:dc="http://purl.org/dc/elements/1.1/" xmlns:cc="http://creativecommons.org/ns#" xmlns:rdf="http://www.w3.org/1999/02/22-rdf-syntax-ns#">
   <cc:Work>
    <dc:type rdf:resource="http://purl.org/dc/dcmitype/StillImage"/>
    <dc:date>2022-10-20T02:40:18.236866</dc:date>
    <dc:format>image/svg+xml</dc:format>
    <dc:creator>
     <cc:Agent>
      <dc:title>Matplotlib v3.5.2, https://matplotlib.org/</dc:title>
     </cc:Agent>
    </dc:creator>
   </cc:Work>
  </rdf:RDF>
 </metadata>
 <defs>
  <style type="text/css">*{stroke-linejoin: round; stroke-linecap: butt}</style>
 </defs>
 <g id="figure_1">
  <g id="patch_1">
   <path d="M 0 345.6 
L 460.8 345.6 
L 460.8 0 
L 0 0 
z
" style="fill: #ffffff"/>
  </g>
  <g id="axes_1">
   <g id="patch_2">
    <path d="M 57.6 307.584 
L 414.72 307.584 
L 414.72 41.472 
L 57.6 41.472 
z
" style="fill: #ffffff"/>
   </g>
   <g id="matplotlib.axis_1">
    <g id="xtick_1">
     <g id="line2d_1">
      <path d="M 72.201297 307.584 
L 72.201297 41.472 
" clip-path="url(#p990526a8d8)" style="fill: none; stroke: #cccccc; stroke-width: 0.8; stroke-linecap: round"/>
     </g>
     <g id="text_1">
      <!-- 0 -->
      <g style="fill: #262626" transform="translate(69.020047 322.182437)scale(0.1 -0.1)">
       <defs>
        <path id="DejaVuSans-30" d="M 2034 4250 
Q 1547 4250 1301 3770 
Q 1056 3291 1056 2328 
Q 1056 1369 1301 889 
Q 1547 409 2034 409 
Q 2525 409 2770 889 
Q 3016 1369 3016 2328 
Q 3016 3291 2770 3770 
Q 2525 4250 2034 4250 
z
M 2034 4750 
Q 2819 4750 3233 4129 
Q 3647 3509 3647 2328 
Q 3647 1150 3233 529 
Q 2819 -91 2034 -91 
Q 1250 -91 836 529 
Q 422 1150 422 2328 
Q 422 3509 836 4129 
Q 1250 4750 2034 4750 
z
" transform="scale(0.015625)"/>
       </defs>
       <use xlink:href="#DejaVuSans-30"/>
      </g>
     </g>
    </g>
    <g id="xtick_2">
     <g id="line2d_2">
      <path d="M 112.987044 307.584 
L 112.987044 41.472 
" clip-path="url(#p990526a8d8)" style="fill: none; stroke: #cccccc; stroke-width: 0.8; stroke-linecap: round"/>
     </g>
     <g id="text_2">
      <!-- 25 -->
      <g style="fill: #262626" transform="translate(106.624544 322.182437)scale(0.1 -0.1)">
       <defs>
        <path id="DejaVuSans-32" d="M 1228 531 
L 3431 531 
L 3431 0 
L 469 0 
L 469 531 
Q 828 903 1448 1529 
Q 2069 2156 2228 2338 
Q 2531 2678 2651 2914 
Q 2772 3150 2772 3378 
Q 2772 3750 2511 3984 
Q 2250 4219 1831 4219 
Q 1534 4219 1204 4116 
Q 875 4013 500 3803 
L 500 4441 
Q 881 4594 1212 4672 
Q 1544 4750 1819 4750 
Q 2544 4750 2975 4387 
Q 3406 4025 3406 3419 
Q 3406 3131 3298 2873 
Q 3191 2616 2906 2266 
Q 2828 2175 2409 1742 
Q 1991 1309 1228 531 
z
" transform="scale(0.015625)"/>
        <path id="DejaVuSans-35" d="M 691 4666 
L 3169 4666 
L 3169 4134 
L 1269 4134 
L 1269 2991 
Q 1406 3038 1543 3061 
Q 1681 3084 1819 3084 
Q 2600 3084 3056 2656 
Q 3513 2228 3513 1497 
Q 3513 744 3044 326 
Q 2575 -91 1722 -91 
Q 1428 -91 1123 -41 
Q 819 9 494 109 
L 494 744 
Q 775 591 1075 516 
Q 1375 441 1709 441 
Q 2250 441 2565 725 
Q 2881 1009 2881 1497 
Q 2881 1984 2565 2268 
Q 2250 2553 1709 2553 
Q 1456 2553 1204 2497 
Q 953 2441 691 2322 
L 691 4666 
z
" transform="scale(0.015625)"/>
       </defs>
       <use xlink:href="#DejaVuSans-32"/>
       <use xlink:href="#DejaVuSans-35" x="63.623047"/>
      </g>
     </g>
    </g>
    <g id="xtick_3">
     <g id="line2d_3">
      <path d="M 153.772791 307.584 
L 153.772791 41.472 
" clip-path="url(#p990526a8d8)" style="fill: none; stroke: #cccccc; stroke-width: 0.8; stroke-linecap: round"/>
     </g>
     <g id="text_3">
      <!-- 50 -->
      <g style="fill: #262626" transform="translate(147.410291 322.182437)scale(0.1 -0.1)">
       <use xlink:href="#DejaVuSans-35"/>
       <use xlink:href="#DejaVuSans-30" x="63.623047"/>
      </g>
     </g>
    </g>
    <g id="xtick_4">
     <g id="line2d_4">
      <path d="M 194.558538 307.584 
L 194.558538 41.472 
" clip-path="url(#p990526a8d8)" style="fill: none; stroke: #cccccc; stroke-width: 0.8; stroke-linecap: round"/>
     </g>
     <g id="text_4">
      <!-- 75 -->
      <g style="fill: #262626" transform="translate(188.196038 322.182437)scale(0.1 -0.1)">
       <defs>
        <path id="DejaVuSans-37" d="M 525 4666 
L 3525 4666 
L 3525 4397 
L 1831 0 
L 1172 0 
L 2766 4134 
L 525 4134 
L 525 4666 
z
" transform="scale(0.015625)"/>
       </defs>
       <use xlink:href="#DejaVuSans-37"/>
       <use xlink:href="#DejaVuSans-35" x="63.623047"/>
      </g>
     </g>
    </g>
    <g id="xtick_5">
     <g id="line2d_5">
      <path d="M 235.344285 307.584 
L 235.344285 41.472 
" clip-path="url(#p990526a8d8)" style="fill: none; stroke: #cccccc; stroke-width: 0.8; stroke-linecap: round"/>
     </g>
     <g id="text_5">
      <!-- 100 -->
      <g style="fill: #262626" transform="translate(225.800535 322.182437)scale(0.1 -0.1)">
       <defs>
        <path id="DejaVuSans-31" d="M 794 531 
L 1825 531 
L 1825 4091 
L 703 3866 
L 703 4441 
L 1819 4666 
L 2450 4666 
L 2450 531 
L 3481 531 
L 3481 0 
L 794 0 
L 794 531 
z
" transform="scale(0.015625)"/>
       </defs>
       <use xlink:href="#DejaVuSans-31"/>
       <use xlink:href="#DejaVuSans-30" x="63.623047"/>
       <use xlink:href="#DejaVuSans-30" x="127.246094"/>
      </g>
     </g>
    </g>
    <g id="xtick_6">
     <g id="line2d_6">
      <path d="M 276.130032 307.584 
L 276.130032 41.472 
" clip-path="url(#p990526a8d8)" style="fill: none; stroke: #cccccc; stroke-width: 0.8; stroke-linecap: round"/>
     </g>
     <g id="text_6">
      <!-- 125 -->
      <g style="fill: #262626" transform="translate(266.586282 322.182437)scale(0.1 -0.1)">
       <use xlink:href="#DejaVuSans-31"/>
       <use xlink:href="#DejaVuSans-32" x="63.623047"/>
       <use xlink:href="#DejaVuSans-35" x="127.246094"/>
      </g>
     </g>
    </g>
    <g id="xtick_7">
     <g id="line2d_7">
      <path d="M 316.915779 307.584 
L 316.915779 41.472 
" clip-path="url(#p990526a8d8)" style="fill: none; stroke: #cccccc; stroke-width: 0.8; stroke-linecap: round"/>
     </g>
     <g id="text_7">
      <!-- 150 -->
      <g style="fill: #262626" transform="translate(307.372029 322.182437)scale(0.1 -0.1)">
       <use xlink:href="#DejaVuSans-31"/>
       <use xlink:href="#DejaVuSans-35" x="63.623047"/>
       <use xlink:href="#DejaVuSans-30" x="127.246094"/>
      </g>
     </g>
    </g>
    <g id="xtick_8">
     <g id="line2d_8">
      <path d="M 357.701526 307.584 
L 357.701526 41.472 
" clip-path="url(#p990526a8d8)" style="fill: none; stroke: #cccccc; stroke-width: 0.8; stroke-linecap: round"/>
     </g>
     <g id="text_8">
      <!-- 175 -->
      <g style="fill: #262626" transform="translate(348.157776 322.182437)scale(0.1 -0.1)">
       <use xlink:href="#DejaVuSans-31"/>
       <use xlink:href="#DejaVuSans-37" x="63.623047"/>
       <use xlink:href="#DejaVuSans-35" x="127.246094"/>
      </g>
     </g>
    </g>
    <g id="xtick_9">
     <g id="line2d_9">
      <path d="M 398.487273 307.584 
L 398.487273 41.472 
" clip-path="url(#p990526a8d8)" style="fill: none; stroke: #cccccc; stroke-width: 0.8; stroke-linecap: round"/>
     </g>
     <g id="text_9">
      <!-- 200 -->
      <g style="fill: #262626" transform="translate(388.943523 322.182437)scale(0.1 -0.1)">
       <use xlink:href="#DejaVuSans-32"/>
       <use xlink:href="#DejaVuSans-30" x="63.623047"/>
       <use xlink:href="#DejaVuSans-30" x="127.246094"/>
      </g>
     </g>
    </g>
    <g id="text_10">
     <!-- Iteration -->
     <g style="fill: #262626" transform="translate(214.951406 335.860562)scale(0.1 -0.1)">
      <defs>
       <path id="DejaVuSans-49" d="M 628 4666 
L 1259 4666 
L 1259 0 
L 628 0 
L 628 4666 
z
" transform="scale(0.015625)"/>
       <path id="DejaVuSans-74" d="M 1172 4494 
L 1172 3500 
L 2356 3500 
L 2356 3053 
L 1172 3053 
L 1172 1153 
Q 1172 725 1289 603 
Q 1406 481 1766 481 
L 2356 481 
L 2356 0 
L 1766 0 
Q 1100 0 847 248 
Q 594 497 594 1153 
L 594 3053 
L 172 3053 
L 172 3500 
L 594 3500 
L 594 4494 
L 1172 4494 
z
" transform="scale(0.015625)"/>
       <path id="DejaVuSans-65" d="M 3597 1894 
L 3597 1613 
L 953 1613 
Q 991 1019 1311 708 
Q 1631 397 2203 397 
Q 2534 397 2845 478 
Q 3156 559 3463 722 
L 3463 178 
Q 3153 47 2828 -22 
Q 2503 -91 2169 -91 
Q 1331 -91 842 396 
Q 353 884 353 1716 
Q 353 2575 817 3079 
Q 1281 3584 2069 3584 
Q 2775 3584 3186 3129 
Q 3597 2675 3597 1894 
z
M 3022 2063 
Q 3016 2534 2758 2815 
Q 2500 3097 2075 3097 
Q 1594 3097 1305 2825 
Q 1016 2553 972 2059 
L 3022 2063 
z
" transform="scale(0.015625)"/>
       <path id="DejaVuSans-72" d="M 2631 2963 
Q 2534 3019 2420 3045 
Q 2306 3072 2169 3072 
Q 1681 3072 1420 2755 
Q 1159 2438 1159 1844 
L 1159 0 
L 581 0 
L 581 3500 
L 1159 3500 
L 1159 2956 
Q 1341 3275 1631 3429 
Q 1922 3584 2338 3584 
Q 2397 3584 2469 3576 
Q 2541 3569 2628 3553 
L 2631 2963 
z
" transform="scale(0.015625)"/>
       <path id="DejaVuSans-61" d="M 2194 1759 
Q 1497 1759 1228 1600 
Q 959 1441 959 1056 
Q 959 750 1161 570 
Q 1363 391 1709 391 
Q 2188 391 2477 730 
Q 2766 1069 2766 1631 
L 2766 1759 
L 2194 1759 
z
M 3341 1997 
L 3341 0 
L 2766 0 
L 2766 531 
Q 2569 213 2275 61 
Q 1981 -91 1556 -91 
Q 1019 -91 701 211 
Q 384 513 384 1019 
Q 384 1609 779 1909 
Q 1175 2209 1959 2209 
L 2766 2209 
L 2766 2266 
Q 2766 2663 2505 2880 
Q 2244 3097 1772 3097 
Q 1472 3097 1187 3025 
Q 903 2953 641 2809 
L 641 3341 
Q 956 3463 1253 3523 
Q 1550 3584 1831 3584 
Q 2591 3584 2966 3190 
Q 3341 2797 3341 1997 
z
" transform="scale(0.015625)"/>
       <path id="DejaVuSans-69" d="M 603 3500 
L 1178 3500 
L 1178 0 
L 603 0 
L 603 3500 
z
M 603 4863 
L 1178 4863 
L 1178 4134 
L 603 4134 
L 603 4863 
z
" transform="scale(0.015625)"/>
       <path id="DejaVuSans-6f" d="M 1959 3097 
Q 1497 3097 1228 2736 
Q 959 2375 959 1747 
Q 959 1119 1226 758 
Q 1494 397 1959 397 
Q 2419 397 2687 759 
Q 2956 1122 2956 1747 
Q 2956 2369 2687 2733 
Q 2419 3097 1959 3097 
z
M 1959 3584 
Q 2709 3584 3137 3096 
Q 3566 2609 3566 1747 
Q 3566 888 3137 398 
Q 2709 -91 1959 -91 
Q 1206 -91 779 398 
Q 353 888 353 1747 
Q 353 2609 779 3096 
Q 1206 3584 1959 3584 
z
" transform="scale(0.015625)"/>
       <path id="DejaVuSans-6e" d="M 3513 2113 
L 3513 0 
L 2938 0 
L 2938 2094 
Q 2938 2591 2744 2837 
Q 2550 3084 2163 3084 
Q 1697 3084 1428 2787 
Q 1159 2491 1159 1978 
L 1159 0 
L 581 0 
L 581 3500 
L 1159 3500 
L 1159 2956 
Q 1366 3272 1645 3428 
Q 1925 3584 2291 3584 
Q 2894 3584 3203 3211 
Q 3513 2838 3513 2113 
z
" transform="scale(0.015625)"/>
      </defs>
      <use xlink:href="#DejaVuSans-49"/>
      <use xlink:href="#DejaVuSans-74" x="29.492188"/>
      <use xlink:href="#DejaVuSans-65" x="68.701172"/>
      <use xlink:href="#DejaVuSans-72" x="130.224609"/>
      <use xlink:href="#DejaVuSans-61" x="171.337891"/>
      <use xlink:href="#DejaVuSans-74" x="232.617188"/>
      <use xlink:href="#DejaVuSans-69" x="271.826172"/>
      <use xlink:href="#DejaVuSans-6f" x="299.609375"/>
      <use xlink:href="#DejaVuSans-6e" x="360.791016"/>
     </g>
    </g>
   </g>
   <g id="matplotlib.axis_2">
    <g id="ytick_1">
     <g id="line2d_10">
      <path d="M 57.6 283.392465 
L 414.72 283.392465 
" clip-path="url(#p990526a8d8)" style="fill: none; stroke: #cccccc; stroke-width: 0.8; stroke-linecap: round"/>
     </g>
     <g id="text_11">
      <!-- 0.50 -->
      <g style="fill: #262626" transform="translate(28.334375 287.191684)scale(0.1 -0.1)">
       <defs>
        <path id="DejaVuSans-2e" d="M 684 794 
L 1344 794 
L 1344 0 
L 684 0 
L 684 794 
z
" transform="scale(0.015625)"/>
       </defs>
       <use xlink:href="#DejaVuSans-30"/>
       <use xlink:href="#DejaVuSans-2e" x="63.623047"/>
       <use xlink:href="#DejaVuSans-35" x="95.410156"/>
       <use xlink:href="#DejaVuSans-30" x="159.033203"/>
      </g>
     </g>
    </g>
    <g id="ytick_2">
     <g id="line2d_11">
      <path d="M 57.6 244.627526 
L 414.72 244.627526 
" clip-path="url(#p990526a8d8)" style="fill: none; stroke: #cccccc; stroke-width: 0.8; stroke-linecap: round"/>
     </g>
     <g id="text_12">
      <!-- 0.55 -->
      <g style="fill: #262626" transform="translate(28.334375 248.426744)scale(0.1 -0.1)">
       <use xlink:href="#DejaVuSans-30"/>
       <use xlink:href="#DejaVuSans-2e" x="63.623047"/>
       <use xlink:href="#DejaVuSans-35" x="95.410156"/>
       <use xlink:href="#DejaVuSans-35" x="159.033203"/>
      </g>
     </g>
    </g>
    <g id="ytick_3">
     <g id="line2d_12">
      <path d="M 57.6 205.862586 
L 414.72 205.862586 
" clip-path="url(#p990526a8d8)" style="fill: none; stroke: #cccccc; stroke-width: 0.8; stroke-linecap: round"/>
     </g>
     <g id="text_13">
      <!-- 0.60 -->
      <g style="fill: #262626" transform="translate(28.334375 209.661805)scale(0.1 -0.1)">
       <defs>
        <path id="DejaVuSans-36" d="M 2113 2584 
Q 1688 2584 1439 2293 
Q 1191 2003 1191 1497 
Q 1191 994 1439 701 
Q 1688 409 2113 409 
Q 2538 409 2786 701 
Q 3034 994 3034 1497 
Q 3034 2003 2786 2293 
Q 2538 2584 2113 2584 
z
M 3366 4563 
L 3366 3988 
Q 3128 4100 2886 4159 
Q 2644 4219 2406 4219 
Q 1781 4219 1451 3797 
Q 1122 3375 1075 2522 
Q 1259 2794 1537 2939 
Q 1816 3084 2150 3084 
Q 2853 3084 3261 2657 
Q 3669 2231 3669 1497 
Q 3669 778 3244 343 
Q 2819 -91 2113 -91 
Q 1303 -91 875 529 
Q 447 1150 447 2328 
Q 447 3434 972 4092 
Q 1497 4750 2381 4750 
Q 2619 4750 2861 4703 
Q 3103 4656 3366 4563 
z
" transform="scale(0.015625)"/>
       </defs>
       <use xlink:href="#DejaVuSans-30"/>
       <use xlink:href="#DejaVuSans-2e" x="63.623047"/>
       <use xlink:href="#DejaVuSans-36" x="95.410156"/>
       <use xlink:href="#DejaVuSans-30" x="159.033203"/>
      </g>
     </g>
    </g>
    <g id="ytick_4">
     <g id="line2d_13">
      <path d="M 57.6 167.097647 
L 414.72 167.097647 
" clip-path="url(#p990526a8d8)" style="fill: none; stroke: #cccccc; stroke-width: 0.8; stroke-linecap: round"/>
     </g>
     <g id="text_14">
      <!-- 0.65 -->
      <g style="fill: #262626" transform="translate(28.334375 170.896866)scale(0.1 -0.1)">
       <use xlink:href="#DejaVuSans-30"/>
       <use xlink:href="#DejaVuSans-2e" x="63.623047"/>
       <use xlink:href="#DejaVuSans-36" x="95.410156"/>
       <use xlink:href="#DejaVuSans-35" x="159.033203"/>
      </g>
     </g>
    </g>
    <g id="ytick_5">
     <g id="line2d_14">
      <path d="M 57.6 128.332708 
L 414.72 128.332708 
" clip-path="url(#p990526a8d8)" style="fill: none; stroke: #cccccc; stroke-width: 0.8; stroke-linecap: round"/>
     </g>
     <g id="text_15">
      <!-- 0.70 -->
      <g style="fill: #262626" transform="translate(28.334375 132.131926)scale(0.1 -0.1)">
       <use xlink:href="#DejaVuSans-30"/>
       <use xlink:href="#DejaVuSans-2e" x="63.623047"/>
       <use xlink:href="#DejaVuSans-37" x="95.410156"/>
       <use xlink:href="#DejaVuSans-30" x="159.033203"/>
      </g>
     </g>
    </g>
    <g id="ytick_6">
     <g id="line2d_15">
      <path d="M 57.6 89.567768 
L 414.72 89.567768 
" clip-path="url(#p990526a8d8)" style="fill: none; stroke: #cccccc; stroke-width: 0.8; stroke-linecap: round"/>
     </g>
     <g id="text_16">
      <!-- 0.75 -->
      <g style="fill: #262626" transform="translate(28.334375 93.366987)scale(0.1 -0.1)">
       <use xlink:href="#DejaVuSans-30"/>
       <use xlink:href="#DejaVuSans-2e" x="63.623047"/>
       <use xlink:href="#DejaVuSans-37" x="95.410156"/>
       <use xlink:href="#DejaVuSans-35" x="159.033203"/>
      </g>
     </g>
    </g>
    <g id="ytick_7">
     <g id="line2d_16">
      <path d="M 57.6 50.802829 
L 414.72 50.802829 
" clip-path="url(#p990526a8d8)" style="fill: none; stroke: #cccccc; stroke-width: 0.8; stroke-linecap: round"/>
     </g>
     <g id="text_17">
      <!-- 0.80 -->
      <g style="fill: #262626" transform="translate(28.334375 54.602048)scale(0.1 -0.1)">
       <defs>
        <path id="DejaVuSans-38" d="M 2034 2216 
Q 1584 2216 1326 1975 
Q 1069 1734 1069 1313 
Q 1069 891 1326 650 
Q 1584 409 2034 409 
Q 2484 409 2743 651 
Q 3003 894 3003 1313 
Q 3003 1734 2745 1975 
Q 2488 2216 2034 2216 
z
M 1403 2484 
Q 997 2584 770 2862 
Q 544 3141 544 3541 
Q 544 4100 942 4425 
Q 1341 4750 2034 4750 
Q 2731 4750 3128 4425 
Q 3525 4100 3525 3541 
Q 3525 3141 3298 2862 
Q 3072 2584 2669 2484 
Q 3125 2378 3379 2068 
Q 3634 1759 3634 1313 
Q 3634 634 3220 271 
Q 2806 -91 2034 -91 
Q 1263 -91 848 271 
Q 434 634 434 1313 
Q 434 1759 690 2068 
Q 947 2378 1403 2484 
z
M 1172 3481 
Q 1172 3119 1398 2916 
Q 1625 2713 2034 2713 
Q 2441 2713 2670 2916 
Q 2900 3119 2900 3481 
Q 2900 3844 2670 4047 
Q 2441 4250 2034 4250 
Q 1625 4250 1398 4047 
Q 1172 3844 1172 3481 
z
" transform="scale(0.015625)"/>
       </defs>
       <use xlink:href="#DejaVuSans-30"/>
       <use xlink:href="#DejaVuSans-2e" x="63.623047"/>
       <use xlink:href="#DejaVuSans-38" x="95.410156"/>
       <use xlink:href="#DejaVuSans-30" x="159.033203"/>
      </g>
     </g>
    </g>
    <g id="text_18">
     <!-- Auroc -->
     <g style="fill: #262626" transform="translate(22.254688 188.868625)rotate(-90)scale(0.1 -0.1)">
      <defs>
       <path id="DejaVuSans-41" d="M 2188 4044 
L 1331 1722 
L 3047 1722 
L 2188 4044 
z
M 1831 4666 
L 2547 4666 
L 4325 0 
L 3669 0 
L 3244 1197 
L 1141 1197 
L 716 0 
L 50 0 
L 1831 4666 
z
" transform="scale(0.015625)"/>
       <path id="DejaVuSans-75" d="M 544 1381 
L 544 3500 
L 1119 3500 
L 1119 1403 
Q 1119 906 1312 657 
Q 1506 409 1894 409 
Q 2359 409 2629 706 
Q 2900 1003 2900 1516 
L 2900 3500 
L 3475 3500 
L 3475 0 
L 2900 0 
L 2900 538 
Q 2691 219 2414 64 
Q 2138 -91 1772 -91 
Q 1169 -91 856 284 
Q 544 659 544 1381 
z
M 1991 3584 
L 1991 3584 
z
" transform="scale(0.015625)"/>
       <path id="DejaVuSans-63" d="M 3122 3366 
L 3122 2828 
Q 2878 2963 2633 3030 
Q 2388 3097 2138 3097 
Q 1578 3097 1268 2742 
Q 959 2388 959 1747 
Q 959 1106 1268 751 
Q 1578 397 2138 397 
Q 2388 397 2633 464 
Q 2878 531 3122 666 
L 3122 134 
Q 2881 22 2623 -34 
Q 2366 -91 2075 -91 
Q 1284 -91 818 406 
Q 353 903 353 1747 
Q 353 2603 823 3093 
Q 1294 3584 2113 3584 
Q 2378 3584 2631 3529 
Q 2884 3475 3122 3366 
z
" transform="scale(0.015625)"/>
      </defs>
      <use xlink:href="#DejaVuSans-41"/>
      <use xlink:href="#DejaVuSans-75" x="68.408203"/>
      <use xlink:href="#DejaVuSans-72" x="131.787109"/>
      <use xlink:href="#DejaVuSans-6f" x="170.650391"/>
      <use xlink:href="#DejaVuSans-63" x="231.832031"/>
     </g>
    </g>
   </g>
   <g id="PolyCollection_1">
    <defs>
     <path id="mda7ae7f54b" d="M 73.832727 -233.847781 
L 73.832727 -175.71116 
L 75.464157 -167.83102 
L 77.095587 -131.188397 
L 78.727017 -185.456632 
L 80.358447 -145.810781 
L 81.989877 -159.604563 
L 83.621307 -159.330303 
L 85.252736 -187.771446 
L 86.884166 -210.588983 
L 88.515596 -133.689854 
L 90.147026 -151.54426 
L 91.778456 -75.202553 
L 93.409886 -149.229753 
L 95.041316 -123.930307 
L 96.672746 -202.622332 
L 98.304175 -166.608911 
L 99.935605 -126.272664 
L 101.567035 -155.883506 
L 103.198465 -182.82035 
L 104.829895 -136.508644 
L 106.461325 -107.781069 
L 108.092755 -159.72854 
L 109.724185 -143.729057 
L 111.355614 -141.642287 
L 112.987044 -73.053918 
L 114.618474 -225.169854 
L 116.249904 -179.003034 
L 117.881334 -100.444717 
L 119.512764 -79.593849 
L 121.144194 -148.363547 
L 122.775624 -175.468787 
L 124.407053 -184.555848 
L 126.038483 -174.40088 
L 127.669913 -93.421074 
L 129.301343 -140.304794 
L 130.932773 -82.666394 
L 132.564203 -128.073602 
L 134.195633 -154.610597 
L 135.827063 -169.036627 
L 137.458492 -156.046626 
L 139.089922 -106.427594 
L 140.721352 -143.977464 
L 142.352782 -194.916841 
L 143.984212 -176.811409 
L 145.615642 -50.112 
L 147.247072 -169.355994 
L 148.878502 -69.96377 
L 150.509931 -173.540741 
L 152.141361 -145.988596 
L 153.772791 -117.738582 
L 155.404221 -142.533888 
L 157.035651 -176.9064 
L 158.667081 -192.978976 
L 160.298511 -120.716834 
L 161.929941 -120.324342 
L 163.56137 -195.651911 
L 165.1928 -160.918971 
L 166.82423 -216.628647 
L 168.45566 -144.308206 
L 170.08709 -184.796916 
L 171.71852 -109.428936 
L 173.34995 -163.737325 
L 174.98138 -118.486059 
L 176.61281 -159.278231 
L 178.244239 -129.153096 
L 179.875669 -160.502814 
L 181.507099 -118.161053 
L 183.138529 -159.866662 
L 184.769959 -146.398413 
L 186.401389 -151.387361 
L 188.032819 -149.701948 
L 189.664249 -187.965049 
L 191.295678 -129.76713 
L 192.927108 -111.026213 
L 194.558538 -124.70281 
L 196.189968 -188.924041 
L 197.821398 -143.460815 
L 199.452828 -147.364883 
L 201.084258 -115.792214 
L 202.715688 -190.456833 
L 204.347117 -160.937297 
L 205.978547 -133.659962 
L 207.609977 -92.644199 
L 209.241407 -168.192985 
L 210.872837 -175.765152 
L 212.504267 -120.109349 
L 214.135697 -163.004121 
L 215.767127 -186.405301 
L 217.398556 -114.622711 
L 219.029986 -177.769777 
L 220.661416 -99.198583 
L 222.292846 -165.182448 
L 223.924276 -154.519474 
L 225.555706 -139.541072 
L 227.187136 -141.79365 
L 228.818566 -152.74053 
L 230.449995 -184.256446 
L 232.081425 -172.835496 
L 233.712855 -185.472795 
L 235.344285 -145.630517 
L 236.975715 -61.098544 
L 238.607145 -174.872942 
L 240.238575 -149.78221 
L 241.870005 -156.363621 
L 243.501434 -142.553166 
L 245.132864 -136.37512 
L 246.764294 -81.911756 
L 248.395724 -167.129438 
L 250.027154 -178.112254 
L 251.658584 -153.917028 
L 253.290014 -136.429975 
L 254.921444 -160.478313 
L 256.552873 -153.68225 
L 258.184303 -179.43183 
L 259.815733 -143.934484 
L 261.447163 -146.790045 
L 263.078593 -147.747662 
L 264.710023 -165.887618 
L 266.341453 -155.008188 
L 267.972883 -119.345708 
L 269.604312 -164.328836 
L 271.235742 -191.052852 
L 272.867172 -131.520082 
L 274.498602 -142.071916 
L 276.130032 -166.801473 
L 277.761462 -152.073359 
L 279.392892 -151.501314 
L 281.024322 -165.86911 
L 282.655751 -156.232221 
L 284.287181 -178.28288 
L 285.918611 -200.913028 
L 287.550041 -121.498493 
L 289.181471 -106.710621 
L 290.812901 -139.375635 
L 292.444331 -131.285256 
L 294.075761 -96.905518 
L 295.70719 -197.10898 
L 297.33862 -190.585454 
L 298.97005 -116.031467 
L 300.60148 -112.363736 
L 302.23291 -163.511108 
L 303.86434 -144.708316 
L 305.49577 -189.145525 
L 307.1272 -161.91348 
L 308.75863 -153.490444 
L 310.390059 -187.689818 
L 312.021489 -111.585021 
L 313.652919 -167.5284 
L 315.284349 -127.688932 
L 316.915779 -175.101176 
L 318.547209 -142.143307 
L 320.178639 -147.775136 
L 321.810069 -119.508207 
L 323.441498 -155.812091 
L 325.072928 -168.437427 
L 326.704358 -138.677015 
L 328.335788 -157.292993 
L 329.967218 -105.106034 
L 331.598648 -59.729674 
L 333.230078 -161.655927 
L 334.861508 -128.366365 
L 336.492937 -113.451845 
L 338.124367 -135.282159 
L 339.755797 -156.973417 
L 341.387227 -147.649877 
L 343.018657 -136.09054 
L 344.650087 -164.739549 
L 346.281517 -130.075863 
L 347.912947 -146.269894 
L 349.544376 -116.772894 
L 351.175806 -153.964422 
L 352.807236 -184.233415 
L 354.438666 -154.533506 
L 356.070096 -178.603312 
L 357.701526 -160.57832 
L 359.332956 -173.457231 
L 360.964386 -162.499687 
L 362.595815 -127.751566 
L 364.227245 -182.433428 
L 365.858675 -166.672499 
L 367.490105 -163.602863 
L 369.121535 -147.482596 
L 370.752965 -160.875708 
L 372.384395 -76.048704 
L 374.015825 -152.474179 
L 375.647254 -142.034462 
L 377.278684 -102.346251 
L 378.910114 -176.669674 
L 380.541544 -147.214033 
L 382.172974 -179.296957 
L 383.804404 -142.142949 
L 385.435834 -178.713479 
L 387.067264 -165.808468 
L 388.698693 -143.184444 
L 390.330123 -113.552339 
L 391.961553 -112.929153 
L 393.592983 -100.088496 
L 395.224413 -161.436847 
L 396.855843 -152.812034 
L 398.487273 -147.922481 
L 398.487273 -230.101862 
L 398.487273 -230.101862 
L 396.855843 -209.284458 
L 395.224413 -209.056829 
L 393.592983 -224.485203 
L 391.961553 -240.025603 
L 390.330123 -231.042291 
L 388.698693 -239.541439 
L 387.067264 -234.263778 
L 385.435834 -211.391139 
L 383.804404 -244.126011 
L 382.172974 -212.527573 
L 380.541544 -233.05889 
L 378.910114 -258.668645 
L 377.278684 -233.350193 
L 375.647254 -241.544845 
L 374.015825 -227.63521 
L 372.384395 -190.100011 
L 370.752965 -226.446357 
L 369.121535 -253.739476 
L 367.490105 -237.767882 
L 365.858675 -209.059975 
L 364.227245 -249.852045 
L 362.595815 -238.681817 
L 360.964386 -223.429886 
L 359.332956 -226.232496 
L 357.701526 -213.597789 
L 356.070096 -231.586464 
L 354.438666 -227.261322 
L 352.807236 -217.375653 
L 351.175806 -239.864417 
L 349.544376 -225.807182 
L 347.912947 -217.187102 
L 346.281517 -227.944595 
L 344.650087 -234.596379 
L 343.018657 -219.639881 
L 341.387227 -174.386036 
L 339.755797 -253.314599 
L 338.124367 -238.651825 
L 336.492937 -175.849559 
L 334.861508 -224.557469 
L 333.230078 -247.042959 
L 331.598648 -254.333649 
L 329.967218 -191.12867 
L 328.335788 -218.872135 
L 326.704358 -218.307604 
L 325.072928 -220.520865 
L 323.441498 -202.562091 
L 321.810069 -258.493244 
L 320.178639 -282.795821 
L 318.547209 -235.797933 
L 316.915779 -254.88837 
L 315.284349 -210.08085 
L 313.652919 -194.95352 
L 312.021489 -175.282526 
L 310.390059 -207.189702 
L 308.75863 -238.941865 
L 307.1272 -282.663344 
L 305.49577 -225.792953 
L 303.86434 -213.68611 
L 302.23291 -238.724672 
L 300.60148 -177.915422 
L 298.97005 -220.911128 
L 297.33862 -241.770229 
L 295.70719 -219.017404 
L 294.075761 -204.358112 
L 292.444331 -227.823681 
L 290.812901 -276.437704 
L 289.181471 -221.2698 
L 287.550041 -235.708493 
L 285.918611 -222.877951 
L 284.287181 -227.715302 
L 282.655751 -243.629864 
L 281.024322 -219.948527 
L 279.392892 -222.617024 
L 277.761462 -230.098108 
L 276.130032 -234.71719 
L 274.498602 -222.73771 
L 272.867172 -249.575081 
L 271.235742 -245.551488 
L 269.604312 -210.800416 
L 267.972883 -242.962483 
L 266.341453 -250.776727 
L 264.710023 -255.167432 
L 263.078593 -254.372965 
L 261.447163 -292.032 
L 259.815733 -244.227837 
L 258.184303 -261.561211 
L 256.552873 -255.000572 
L 254.921444 -260.0619 
L 253.290014 -269.745584 
L 251.658584 -248.868501 
L 250.027154 -249.905136 
L 248.395724 -239.787647 
L 246.764294 -233.68803 
L 245.132864 -184.201543 
L 243.501434 -231.265898 
L 241.870005 -223.7195 
L 240.238575 -210.561805 
L 238.607145 -212.196492 
L 236.975715 -206.81522 
L 235.344285 -192.242456 
L 233.712855 -275.44114 
L 232.081425 -217.239307 
L 230.449995 -245.170681 
L 228.818566 -257.15857 
L 227.187136 -213.33755 
L 225.555706 -240.862422 
L 223.924276 -231.878102 
L 222.292846 -217.661173 
L 220.661416 -188.190618 
L 219.029986 -225.790275 
L 217.398556 -240.305141 
L 215.767127 -254.144381 
L 214.135697 -262.078629 
L 212.504267 -212.255486 
L 210.872837 -249.635997 
L 209.241407 -243.909113 
L 207.609977 -162.226801 
L 205.978547 -241.344681 
L 204.347117 -234.773881 
L 202.715688 -240.167581 
L 201.084258 -165.9086 
L 199.452828 -209.856413 
L 197.821398 -210.423405 
L 196.189968 -250.88447 
L 194.558538 -206.552808 
L 192.927108 -253.453747 
L 191.295678 -214.645756 
L 189.664249 -231.07921 
L 188.032819 -278.229883 
L 186.401389 -253.308915 
L 184.769959 -195.466967 
L 183.138529 -246.817954 
L 181.507099 -226.595495 
L 179.875669 -208.668196 
L 178.244239 -160.055449 
L 176.61281 -227.503611 
L 174.98138 -226.755968 
L 173.34995 -243.790094 
L 171.71852 -199.186535 
L 170.08709 -206.067958 
L 168.45566 -224.686842 
L 166.82423 -262.340273 
L 165.1928 -252.596452 
L 163.56137 -245.054957 
L 161.929941 -253.030308 
L 160.298511 -231.347828 
L 158.667081 -246.459381 
L 157.035651 -256.028852 
L 155.404221 -263.500489 
L 153.772791 -169.926828 
L 152.141361 -259.666224 
L 150.509931 -247.574504 
L 148.878502 -192.463797 
L 147.247072 -231.257967 
L 145.615642 -225.972021 
L 143.984212 -266.409043 
L 142.352782 -251.833296 
L 140.721352 -212.686084 
L 139.089922 -280.179924 
L 137.458492 -212.111569 
L 135.827063 -237.652132 
L 134.195633 -230.034437 
L 132.564203 -219.996292 
L 130.932773 -236.758449 
L 129.301343 -182.092248 
L 127.669913 -199.735516 
L 126.038483 -254.288101 
L 124.407053 -241.648697 
L 122.775624 -225.021517 
L 121.144194 -215.562213 
L 119.512764 -235.529129 
L 117.881334 -248.887676 
L 116.249904 -265.482952 
L 114.618474 -264.999006 
L 112.987044 -144.88417 
L 111.355614 -173.084541 
L 109.724185 -261.131179 
L 108.092755 -239.983919 
L 106.461325 -255.153598 
L 104.829895 -233.447769 
L 103.198465 -209.733224 
L 101.567035 -240.606362 
L 99.935605 -259.307635 
L 98.304175 -208.150807 
L 96.672746 -250.109187 
L 95.041316 -260.202031 
L 93.409886 -244.035025 
L 91.778456 -261.934017 
L 90.147026 -196.11767 
L 88.515596 -246.076163 
L 86.884166 -232.970981 
L 85.252736 -205.016822 
L 83.621307 -196.308243 
L 81.989877 -208.249423 
L 80.358447 -219.342908 
L 78.727017 -217.036506 
L 77.095587 -194.705685 
L 75.464157 -250.330692 
L 73.832727 -233.847781 
z
" style="stroke: #ffffff; stroke-opacity: 0.2"/>
    </defs>
    <g clip-path="url(#p990526a8d8)">
     <use xlink:href="#mda7ae7f54b" x="0" y="345.6" style="fill: #1f77b4; fill-opacity: 0.2; stroke: #ffffff; stroke-opacity: 0.2"/>
    </g>
   </g>
   <g id="line2d_17">
    <path d="M 73.832727 140.820529 
L 75.464157 136.519144 
L 77.095587 182.652959 
L 78.727017 144.353431 
L 80.358447 163.023155 
L 81.989877 161.673007 
L 83.621307 167.780727 
L 85.252736 149.205866 
L 86.884166 123.820018 
L 88.515596 155.716991 
L 90.147026 171.769035 
L 91.778456 177.031715 
L 93.409886 148.967611 
L 95.041316 153.533831 
L 96.672746 119.23424 
L 98.304175 158.220141 
L 101.567035 147.355066 
L 103.198465 149.323213 
L 104.829895 160.621794 
L 106.461325 164.132667 
L 108.092755 145.74377 
L 109.724185 143.169882 
L 111.355614 188.236586 
L 112.987044 236.630956 
L 114.618474 100.51557 
L 116.249904 123.357007 
L 117.881334 170.933804 
L 119.512764 188.038511 
L 121.144194 163.63712 
L 122.775624 145.354848 
L 124.407053 132.497727 
L 126.038483 131.25551 
L 127.669913 199.021705 
L 129.301343 184.401479 
L 130.932773 185.887579 
L 132.564203 171.565053 
L 134.195633 153.277483 
L 135.827063 142.255621 
L 137.458492 161.520903 
L 139.089922 152.296241 
L 140.721352 167.268226 
L 142.352782 122.224932 
L 143.984212 123.989774 
L 145.615642 207.557989 
L 147.247072 145.293019 
L 148.878502 214.386217 
L 150.509931 135.042377 
L 152.141361 142.77259 
L 153.772791 201.767295 
L 155.404221 142.582812 
L 157.035651 129.132374 
L 158.667081 125.880821 
L 160.298511 169.567669 
L 161.929941 158.922675 
L 163.56137 125.246566 
L 165.1928 138.842288 
L 166.82423 106.11554 
L 168.45566 161.102476 
L 170.08709 150.167563 
L 171.71852 191.292265 
L 173.34995 141.836291 
L 174.98138 172.978987 
L 176.61281 152.209079 
L 178.244239 200.995727 
L 179.875669 161.014495 
L 181.507099 173.221726 
L 183.138529 142.257692 
L 184.769959 174.66731 
L 186.401389 143.251862 
L 188.032819 131.634085 
L 189.664249 136.07787 
L 191.295678 173.393557 
L 192.927108 163.36002 
L 194.558538 179.972191 
L 196.189968 125.695745 
L 197.821398 168.65789 
L 199.452828 166.989352 
L 201.084258 204.749593 
L 202.715688 130.287793 
L 204.347117 147.744411 
L 205.978547 158.097679 
L 207.609977 218.1645 
L 209.241407 139.548951 
L 210.872837 132.899425 
L 212.504267 179.417583 
L 214.135697 133.058625 
L 215.767127 125.325159 
L 217.398556 168.136074 
L 219.029986 143.819974 
L 220.661416 201.9054 
L 222.292846 154.178189 
L 223.924276 152.401212 
L 225.555706 155.398253 
L 227.187136 168.0344 
L 228.818566 140.65045 
L 230.449995 130.886437 
L 232.081425 150.562599 
L 233.712855 115.143032 
L 235.344285 176.663514 
L 236.975715 211.643118 
L 238.607145 152.065283 
L 240.238575 165.427992 
L 241.870005 155.55844 
L 243.501434 158.690468 
L 245.132864 185.311668 
L 246.764294 187.800107 
L 248.395724 142.141458 
L 250.027154 131.591305 
L 251.658584 144.207235 
L 253.290014 142.51222 
L 254.921444 135.329893 
L 256.552873 141.258589 
L 258.184303 125.10348 
L 259.815733 151.518839 
L 261.447163 126.188977 
L 263.078593 144.539686 
L 264.710023 135.072475 
L 266.341453 142.707543 
L 267.972883 164.445905 
L 269.604312 158.035374 
L 271.235742 127.29783 
L 272.867172 155.052419 
L 274.498602 163.195187 
L 276.130032 144.840669 
L 277.761462 154.514267 
L 279.392892 158.540831 
L 281.024322 152.691181 
L 282.655751 145.668958 
L 284.287181 142.600909 
L 285.918611 133.70451 
L 287.550041 166.996507 
L 289.181471 181.60979 
L 290.812901 137.693331 
L 294.075761 194.968185 
L 295.70719 137.536808 
L 297.33862 129.422159 
L 298.97005 177.128703 
L 300.60148 200.460421 
L 302.23291 144.48211 
L 303.86434 166.402787 
L 305.49577 138.130761 
L 307.1272 123.311588 
L 308.75863 149.383846 
L 310.390059 148.16024 
L 312.021489 202.166226 
L 313.652919 164.35904 
L 315.284349 176.715109 
L 316.915779 130.605227 
L 318.547209 156.62938 
L 320.178639 130.314521 
L 321.810069 156.599275 
L 323.441498 166.412909 
L 325.072928 151.120854 
L 326.704358 167.10769 
L 328.335788 157.517436 
L 329.967218 197.482648 
L 331.598648 188.568339 
L 333.230078 141.250557 
L 334.861508 169.138083 
L 336.492937 200.949298 
L 338.124367 158.633008 
L 339.755797 140.455992 
L 341.387227 184.582044 
L 343.018657 167.734789 
L 344.650087 145.932036 
L 346.281517 166.589771 
L 347.912947 163.871502 
L 349.544376 174.309962 
L 351.175806 148.685581 
L 352.807236 144.795466 
L 354.438666 154.702586 
L 356.070096 140.505112 
L 357.701526 158.511945 
L 359.332956 145.755137 
L 360.964386 152.635213 
L 362.595815 162.383309 
L 364.227245 129.457263 
L 365.858675 157.733763 
L 367.490105 144.914628 
L 369.121535 144.988964 
L 370.752965 151.938968 
L 372.384395 212.525642 
L 374.015825 155.545305 
L 375.647254 153.810347 
L 377.278684 177.751778 
L 378.910114 127.930841 
L 380.541544 155.463539 
L 382.172974 149.687735 
L 383.804404 152.46552 
L 385.435834 150.547691 
L 387.067264 145.563877 
L 388.698693 154.237059 
L 390.330123 173.302685 
L 391.961553 169.122622 
L 393.592983 183.313151 
L 395.224413 160.353162 
L 396.855843 164.551754 
L 398.487273 156.587828 
L 398.487273 156.587828 
" clip-path="url(#p990526a8d8)" style="fill: none; stroke: #1f77b4; stroke-width: 1.5; stroke-linecap: round"/>
   </g>
   <g id="LineCollection_1">
    <path d="M 398.487273 295.488 
L 398.487273 53.568 
" clip-path="url(#p990526a8d8)" style="fill: none; stroke-dasharray: 5.55,2.4; stroke-dashoffset: 0; stroke: #1f77b4; stroke-width: 1.5"/>
   </g>
   <g id="patch_3">
    <path d="M 57.6 307.584 
L 57.6 41.472 
" style="fill: none; stroke: #cccccc; stroke-width: 0.8; stroke-linejoin: miter; stroke-linecap: square"/>
   </g>
   <g id="patch_4">
    <path d="M 414.72 307.584 
L 414.72 41.472 
" style="fill: none; stroke: #cccccc; stroke-width: 0.8; stroke-linejoin: miter; stroke-linecap: square"/>
   </g>
   <g id="patch_5">
    <path d="M 57.6 307.584 
L 414.72 307.584 
" style="fill: none; stroke: #cccccc; stroke-width: 0.8; stroke-linejoin: miter; stroke-linecap: square"/>
   </g>
   <g id="patch_6">
    <path d="M 57.6 41.472 
L 414.72 41.472 
" style="fill: none; stroke: #cccccc; stroke-width: 0.8; stroke-linejoin: miter; stroke-linecap: square"/>
   </g>
   <g id="text_19">
    <!-- Model performance vs. # of iterations -->
    <g style="fill: #262626" transform="translate(122.314688 35.472)scale(0.12 -0.12)">
     <defs>
      <path id="DejaVuSans-4d" d="M 628 4666 
L 1569 4666 
L 2759 1491 
L 3956 4666 
L 4897 4666 
L 4897 0 
L 4281 0 
L 4281 4097 
L 3078 897 
L 2444 897 
L 1241 4097 
L 1241 0 
L 628 0 
L 628 4666 
z
" transform="scale(0.015625)"/>
      <path id="DejaVuSans-64" d="M 2906 2969 
L 2906 4863 
L 3481 4863 
L 3481 0 
L 2906 0 
L 2906 525 
Q 2725 213 2448 61 
Q 2172 -91 1784 -91 
Q 1150 -91 751 415 
Q 353 922 353 1747 
Q 353 2572 751 3078 
Q 1150 3584 1784 3584 
Q 2172 3584 2448 3432 
Q 2725 3281 2906 2969 
z
M 947 1747 
Q 947 1113 1208 752 
Q 1469 391 1925 391 
Q 2381 391 2643 752 
Q 2906 1113 2906 1747 
Q 2906 2381 2643 2742 
Q 2381 3103 1925 3103 
Q 1469 3103 1208 2742 
Q 947 2381 947 1747 
z
" transform="scale(0.015625)"/>
      <path id="DejaVuSans-6c" d="M 603 4863 
L 1178 4863 
L 1178 0 
L 603 0 
L 603 4863 
z
" transform="scale(0.015625)"/>
      <path id="DejaVuSans-20" transform="scale(0.015625)"/>
      <path id="DejaVuSans-70" d="M 1159 525 
L 1159 -1331 
L 581 -1331 
L 581 3500 
L 1159 3500 
L 1159 2969 
Q 1341 3281 1617 3432 
Q 1894 3584 2278 3584 
Q 2916 3584 3314 3078 
Q 3713 2572 3713 1747 
Q 3713 922 3314 415 
Q 2916 -91 2278 -91 
Q 1894 -91 1617 61 
Q 1341 213 1159 525 
z
M 3116 1747 
Q 3116 2381 2855 2742 
Q 2594 3103 2138 3103 
Q 1681 3103 1420 2742 
Q 1159 2381 1159 1747 
Q 1159 1113 1420 752 
Q 1681 391 2138 391 
Q 2594 391 2855 752 
Q 3116 1113 3116 1747 
z
" transform="scale(0.015625)"/>
      <path id="DejaVuSans-66" d="M 2375 4863 
L 2375 4384 
L 1825 4384 
Q 1516 4384 1395 4259 
Q 1275 4134 1275 3809 
L 1275 3500 
L 2222 3500 
L 2222 3053 
L 1275 3053 
L 1275 0 
L 697 0 
L 697 3053 
L 147 3053 
L 147 3500 
L 697 3500 
L 697 3744 
Q 697 4328 969 4595 
Q 1241 4863 1831 4863 
L 2375 4863 
z
" transform="scale(0.015625)"/>
      <path id="DejaVuSans-6d" d="M 3328 2828 
Q 3544 3216 3844 3400 
Q 4144 3584 4550 3584 
Q 5097 3584 5394 3201 
Q 5691 2819 5691 2113 
L 5691 0 
L 5113 0 
L 5113 2094 
Q 5113 2597 4934 2840 
Q 4756 3084 4391 3084 
Q 3944 3084 3684 2787 
Q 3425 2491 3425 1978 
L 3425 0 
L 2847 0 
L 2847 2094 
Q 2847 2600 2669 2842 
Q 2491 3084 2119 3084 
Q 1678 3084 1418 2786 
Q 1159 2488 1159 1978 
L 1159 0 
L 581 0 
L 581 3500 
L 1159 3500 
L 1159 2956 
Q 1356 3278 1631 3431 
Q 1906 3584 2284 3584 
Q 2666 3584 2933 3390 
Q 3200 3197 3328 2828 
z
" transform="scale(0.015625)"/>
      <path id="DejaVuSans-76" d="M 191 3500 
L 800 3500 
L 1894 563 
L 2988 3500 
L 3597 3500 
L 2284 0 
L 1503 0 
L 191 3500 
z
" transform="scale(0.015625)"/>
      <path id="DejaVuSans-73" d="M 2834 3397 
L 2834 2853 
Q 2591 2978 2328 3040 
Q 2066 3103 1784 3103 
Q 1356 3103 1142 2972 
Q 928 2841 928 2578 
Q 928 2378 1081 2264 
Q 1234 2150 1697 2047 
L 1894 2003 
Q 2506 1872 2764 1633 
Q 3022 1394 3022 966 
Q 3022 478 2636 193 
Q 2250 -91 1575 -91 
Q 1294 -91 989 -36 
Q 684 19 347 128 
L 347 722 
Q 666 556 975 473 
Q 1284 391 1588 391 
Q 1994 391 2212 530 
Q 2431 669 2431 922 
Q 2431 1156 2273 1281 
Q 2116 1406 1581 1522 
L 1381 1569 
Q 847 1681 609 1914 
Q 372 2147 372 2553 
Q 372 3047 722 3315 
Q 1072 3584 1716 3584 
Q 2034 3584 2315 3537 
Q 2597 3491 2834 3397 
z
" transform="scale(0.015625)"/>
      <path id="DejaVuSans-23" d="M 3272 2816 
L 2363 2816 
L 2100 1772 
L 3016 1772 
L 3272 2816 
z
M 2803 4594 
L 2478 3297 
L 3391 3297 
L 3719 4594 
L 4219 4594 
L 3897 3297 
L 4872 3297 
L 4872 2816 
L 3775 2816 
L 3519 1772 
L 4513 1772 
L 4513 1294 
L 3397 1294 
L 3072 0 
L 2572 0 
L 2894 1294 
L 1978 1294 
L 1656 0 
L 1153 0 
L 1478 1294 
L 494 1294 
L 494 1772 
L 1594 1772 
L 1856 2816 
L 850 2816 
L 850 3297 
L 1978 3297 
L 2297 4594 
L 2803 4594 
z
" transform="scale(0.015625)"/>
     </defs>
     <use xlink:href="#DejaVuSans-4d"/>
     <use xlink:href="#DejaVuSans-6f" x="86.279297"/>
     <use xlink:href="#DejaVuSans-64" x="147.460938"/>
     <use xlink:href="#DejaVuSans-65" x="210.9375"/>
     <use xlink:href="#DejaVuSans-6c" x="272.460938"/>
     <use xlink:href="#DejaVuSans-20" x="300.244141"/>
     <use xlink:href="#DejaVuSans-70" x="332.03125"/>
     <use xlink:href="#DejaVuSans-65" x="395.507812"/>
     <use xlink:href="#DejaVuSans-72" x="457.03125"/>
     <use xlink:href="#DejaVuSans-66" x="498.144531"/>
     <use xlink:href="#DejaVuSans-6f" x="533.349609"/>
     <use xlink:href="#DejaVuSans-72" x="594.53125"/>
     <use xlink:href="#DejaVuSans-6d" x="633.894531"/>
     <use xlink:href="#DejaVuSans-61" x="731.306641"/>
     <use xlink:href="#DejaVuSans-6e" x="792.585938"/>
     <use xlink:href="#DejaVuSans-63" x="855.964844"/>
     <use xlink:href="#DejaVuSans-65" x="910.945312"/>
     <use xlink:href="#DejaVuSans-20" x="972.46875"/>
     <use xlink:href="#DejaVuSans-76" x="1004.255859"/>
     <use xlink:href="#DejaVuSans-73" x="1063.435547"/>
     <use xlink:href="#DejaVuSans-2e" x="1115.535156"/>
     <use xlink:href="#DejaVuSans-20" x="1147.322266"/>
     <use xlink:href="#DejaVuSans-23" x="1179.109375"/>
     <use xlink:href="#DejaVuSans-20" x="1262.898438"/>
     <use xlink:href="#DejaVuSans-6f" x="1294.685547"/>
     <use xlink:href="#DejaVuSans-66" x="1355.867188"/>
     <use xlink:href="#DejaVuSans-20" x="1391.072266"/>
     <use xlink:href="#DejaVuSans-69" x="1422.859375"/>
     <use xlink:href="#DejaVuSans-74" x="1450.642578"/>
     <use xlink:href="#DejaVuSans-65" x="1489.851562"/>
     <use xlink:href="#DejaVuSans-72" x="1551.375"/>
     <use xlink:href="#DejaVuSans-61" x="1592.488281"/>
     <use xlink:href="#DejaVuSans-74" x="1653.767578"/>
     <use xlink:href="#DejaVuSans-69" x="1692.976562"/>
     <use xlink:href="#DejaVuSans-6f" x="1720.759766"/>
     <use xlink:href="#DejaVuSans-6e" x="1781.941406"/>
     <use xlink:href="#DejaVuSans-73" x="1845.320312"/>
    </g>
   </g>
  </g>
 </g>
 <defs>
  <clipPath id="p990526a8d8">
   <rect x="57.6" y="41.472" width="357.12" height="266.112"/>
  </clipPath>
 </defs>
</svg>
