<?xml version="1.0" encoding="utf-8" standalone="no"?>
<!DOCTYPE svg PUBLIC "-//W3C//DTD SVG 1.1//EN"
  "http://www.w3.org/Graphics/SVG/1.1/DTD/svg11.dtd">
<svg height="345.6pt" version="1.1" viewBox="0 0 460.8 345.6" width="460.8pt" xmlns="http://www.w3.org/2000/svg" xmlns:xlink="http://www.w3.org/1999/xlink">
 <metadata>
  <rdf:RDF xmlns:cc="http://creativecommons.org/ns#" xmlns:dc="http://purl.org/dc/elements/1.1/" xmlns:rdf="http://www.w3.org/1999/02/22-rdf-syntax-ns#">
   <cc:Work>
    <dc:type rdf:resource="http://purl.org/dc/dcmitype/StillImage"/>
    <dc:date>2022-03-11T15:15:27.316201</dc:date>
    <dc:format>image/svg+xml</dc:format>
    <dc:creator>
     <cc:Agent>
      <dc:title>Matplotlib v3.4.3, https://matplotlib.org/</dc:title>
     </cc:Agent>
    </dc:creator>
   </cc:Work>
  </rdf:RDF>
 </metadata>
 <defs>
  <style type="text/css">*{stroke-linecap:butt;stroke-linejoin:round;}</style>
 </defs>
 <g id="figure_1">
  <g id="patch_1">
   <path d="M 0 345.6 
L 460.8 345.6 
L 460.8 0 
L 0 0 
z
" style="fill:#ffffff;"/>
  </g>
  <g id="axes_1">
   <g id="patch_2">
    <path d="M 57.6 307.584 
L 414.72 307.584 
L 414.72 41.472 
L 57.6 41.472 
z
" style="fill:#ffffff;"/>
   </g>
   <g id="matplotlib.axis_1">
    <g id="xtick_1">
     <g id="line2d_1">
      <path clip-path="url(#pe6970c224f)" d="M 72.201297 307.584 
L 72.201297 41.472 
" style="fill:none;stroke:#cccccc;stroke-linecap:round;stroke-width:0.8;"/>
     </g>
     <g id="text_1">
      <!-- 0 -->
      <g style="fill:#262626;" transform="translate(69.020047 322.182437)scale(0.1 -0.1)">
       <defs>
        <path d="M 2034 4250 
Q 1547 4250 1301 3770 
Q 1056 3291 1056 2328 
Q 1056 1369 1301 889 
Q 1547 409 2034 409 
Q 2525 409 2770 889 
Q 3016 1369 3016 2328 
Q 3016 3291 2770 3770 
Q 2525 4250 2034 4250 
z
M 2034 4750 
Q 2819 4750 3233 4129 
Q 3647 3509 3647 2328 
Q 3647 1150 3233 529 
Q 2819 -91 2034 -91 
Q 1250 -91 836 529 
Q 422 1150 422 2328 
Q 422 3509 836 4129 
Q 1250 4750 2034 4750 
z
" id="DejaVuSans-30" transform="scale(0.015625)"/>
       </defs>
       <use xlink:href="#DejaVuSans-30"/>
      </g>
     </g>
    </g>
    <g id="xtick_2">
     <g id="line2d_2">
      <path clip-path="url(#pe6970c224f)" d="M 112.987044 307.584 
L 112.987044 41.472 
" style="fill:none;stroke:#cccccc;stroke-linecap:round;stroke-width:0.8;"/>
     </g>
     <g id="text_2">
      <!-- 25 -->
      <g style="fill:#262626;" transform="translate(106.624544 322.182437)scale(0.1 -0.1)">
       <defs>
        <path d="M 1228 531 
L 3431 531 
L 3431 0 
L 469 0 
L 469 531 
Q 828 903 1448 1529 
Q 2069 2156 2228 2338 
Q 2531 2678 2651 2914 
Q 2772 3150 2772 3378 
Q 2772 3750 2511 3984 
Q 2250 4219 1831 4219 
Q 1534 4219 1204 4116 
Q 875 4013 500 3803 
L 500 4441 
Q 881 4594 1212 4672 
Q 1544 4750 1819 4750 
Q 2544 4750 2975 4387 
Q 3406 4025 3406 3419 
Q 3406 3131 3298 2873 
Q 3191 2616 2906 2266 
Q 2828 2175 2409 1742 
Q 1991 1309 1228 531 
z
" id="DejaVuSans-32" transform="scale(0.015625)"/>
        <path d="M 691 4666 
L 3169 4666 
L 3169 4134 
L 1269 4134 
L 1269 2991 
Q 1406 3038 1543 3061 
Q 1681 3084 1819 3084 
Q 2600 3084 3056 2656 
Q 3513 2228 3513 1497 
Q 3513 744 3044 326 
Q 2575 -91 1722 -91 
Q 1428 -91 1123 -41 
Q 819 9 494 109 
L 494 744 
Q 775 591 1075 516 
Q 1375 441 1709 441 
Q 2250 441 2565 725 
Q 2881 1009 2881 1497 
Q 2881 1984 2565 2268 
Q 2250 2553 1709 2553 
Q 1456 2553 1204 2497 
Q 953 2441 691 2322 
L 691 4666 
z
" id="DejaVuSans-35" transform="scale(0.015625)"/>
       </defs>
       <use xlink:href="#DejaVuSans-32"/>
       <use x="63.623047" xlink:href="#DejaVuSans-35"/>
      </g>
     </g>
    </g>
    <g id="xtick_3">
     <g id="line2d_3">
      <path clip-path="url(#pe6970c224f)" d="M 153.772791 307.584 
L 153.772791 41.472 
" style="fill:none;stroke:#cccccc;stroke-linecap:round;stroke-width:0.8;"/>
     </g>
     <g id="text_3">
      <!-- 50 -->
      <g style="fill:#262626;" transform="translate(147.410291 322.182437)scale(0.1 -0.1)">
       <use xlink:href="#DejaVuSans-35"/>
       <use x="63.623047" xlink:href="#DejaVuSans-30"/>
      </g>
     </g>
    </g>
    <g id="xtick_4">
     <g id="line2d_4">
      <path clip-path="url(#pe6970c224f)" d="M 194.558538 307.584 
L 194.558538 41.472 
" style="fill:none;stroke:#cccccc;stroke-linecap:round;stroke-width:0.8;"/>
     </g>
     <g id="text_4">
      <!-- 75 -->
      <g style="fill:#262626;" transform="translate(188.196038 322.182437)scale(0.1 -0.1)">
       <defs>
        <path d="M 525 4666 
L 3525 4666 
L 3525 4397 
L 1831 0 
L 1172 0 
L 2766 4134 
L 525 4134 
L 525 4666 
z
" id="DejaVuSans-37" transform="scale(0.015625)"/>
       </defs>
       <use xlink:href="#DejaVuSans-37"/>
       <use x="63.623047" xlink:href="#DejaVuSans-35"/>
      </g>
     </g>
    </g>
    <g id="xtick_5">
     <g id="line2d_5">
      <path clip-path="url(#pe6970c224f)" d="M 235.344285 307.584 
L 235.344285 41.472 
" style="fill:none;stroke:#cccccc;stroke-linecap:round;stroke-width:0.8;"/>
     </g>
     <g id="text_5">
      <!-- 100 -->
      <g style="fill:#262626;" transform="translate(225.800535 322.182437)scale(0.1 -0.1)">
       <defs>
        <path d="M 794 531 
L 1825 531 
L 1825 4091 
L 703 3866 
L 703 4441 
L 1819 4666 
L 2450 4666 
L 2450 531 
L 3481 531 
L 3481 0 
L 794 0 
L 794 531 
z
" id="DejaVuSans-31" transform="scale(0.015625)"/>
       </defs>
       <use xlink:href="#DejaVuSans-31"/>
       <use x="63.623047" xlink:href="#DejaVuSans-30"/>
       <use x="127.246094" xlink:href="#DejaVuSans-30"/>
      </g>
     </g>
    </g>
    <g id="xtick_6">
     <g id="line2d_6">
      <path clip-path="url(#pe6970c224f)" d="M 276.130032 307.584 
L 276.130032 41.472 
" style="fill:none;stroke:#cccccc;stroke-linecap:round;stroke-width:0.8;"/>
     </g>
     <g id="text_6">
      <!-- 125 -->
      <g style="fill:#262626;" transform="translate(266.586282 322.182437)scale(0.1 -0.1)">
       <use xlink:href="#DejaVuSans-31"/>
       <use x="63.623047" xlink:href="#DejaVuSans-32"/>
       <use x="127.246094" xlink:href="#DejaVuSans-35"/>
      </g>
     </g>
    </g>
    <g id="xtick_7">
     <g id="line2d_7">
      <path clip-path="url(#pe6970c224f)" d="M 316.915779 307.584 
L 316.915779 41.472 
" style="fill:none;stroke:#cccccc;stroke-linecap:round;stroke-width:0.8;"/>
     </g>
     <g id="text_7">
      <!-- 150 -->
      <g style="fill:#262626;" transform="translate(307.372029 322.182437)scale(0.1 -0.1)">
       <use xlink:href="#DejaVuSans-31"/>
       <use x="63.623047" xlink:href="#DejaVuSans-35"/>
       <use x="127.246094" xlink:href="#DejaVuSans-30"/>
      </g>
     </g>
    </g>
    <g id="xtick_8">
     <g id="line2d_8">
      <path clip-path="url(#pe6970c224f)" d="M 357.701526 307.584 
L 357.701526 41.472 
" style="fill:none;stroke:#cccccc;stroke-linecap:round;stroke-width:0.8;"/>
     </g>
     <g id="text_8">
      <!-- 175 -->
      <g style="fill:#262626;" transform="translate(348.157776 322.182437)scale(0.1 -0.1)">
       <use xlink:href="#DejaVuSans-31"/>
       <use x="63.623047" xlink:href="#DejaVuSans-37"/>
       <use x="127.246094" xlink:href="#DejaVuSans-35"/>
      </g>
     </g>
    </g>
    <g id="xtick_9">
     <g id="line2d_9">
      <path clip-path="url(#pe6970c224f)" d="M 398.487273 307.584 
L 398.487273 41.472 
" style="fill:none;stroke:#cccccc;stroke-linecap:round;stroke-width:0.8;"/>
     </g>
     <g id="text_9">
      <!-- 200 -->
      <g style="fill:#262626;" transform="translate(388.943523 322.182437)scale(0.1 -0.1)">
       <use xlink:href="#DejaVuSans-32"/>
       <use x="63.623047" xlink:href="#DejaVuSans-30"/>
       <use x="127.246094" xlink:href="#DejaVuSans-30"/>
      </g>
     </g>
    </g>
    <g id="text_10">
     <!-- Auroc -->
     <g style="fill:#262626;" transform="translate(221.819375 335.860562)scale(0.1 -0.1)">
      <defs>
       <path d="M 2188 4044 
L 1331 1722 
L 3047 1722 
L 2188 4044 
z
M 1831 4666 
L 2547 4666 
L 4325 0 
L 3669 0 
L 3244 1197 
L 1141 1197 
L 716 0 
L 50 0 
L 1831 4666 
z
" id="DejaVuSans-41" transform="scale(0.015625)"/>
       <path d="M 544 1381 
L 544 3500 
L 1119 3500 
L 1119 1403 
Q 1119 906 1312 657 
Q 1506 409 1894 409 
Q 2359 409 2629 706 
Q 2900 1003 2900 1516 
L 2900 3500 
L 3475 3500 
L 3475 0 
L 2900 0 
L 2900 538 
Q 2691 219 2414 64 
Q 2138 -91 1772 -91 
Q 1169 -91 856 284 
Q 544 659 544 1381 
z
M 1991 3584 
L 1991 3584 
z
" id="DejaVuSans-75" transform="scale(0.015625)"/>
       <path d="M 2631 2963 
Q 2534 3019 2420 3045 
Q 2306 3072 2169 3072 
Q 1681 3072 1420 2755 
Q 1159 2438 1159 1844 
L 1159 0 
L 581 0 
L 581 3500 
L 1159 3500 
L 1159 2956 
Q 1341 3275 1631 3429 
Q 1922 3584 2338 3584 
Q 2397 3584 2469 3576 
Q 2541 3569 2628 3553 
L 2631 2963 
z
" id="DejaVuSans-72" transform="scale(0.015625)"/>
       <path d="M 1959 3097 
Q 1497 3097 1228 2736 
Q 959 2375 959 1747 
Q 959 1119 1226 758 
Q 1494 397 1959 397 
Q 2419 397 2687 759 
Q 2956 1122 2956 1747 
Q 2956 2369 2687 2733 
Q 2419 3097 1959 3097 
z
M 1959 3584 
Q 2709 3584 3137 3096 
Q 3566 2609 3566 1747 
Q 3566 888 3137 398 
Q 2709 -91 1959 -91 
Q 1206 -91 779 398 
Q 353 888 353 1747 
Q 353 2609 779 3096 
Q 1206 3584 1959 3584 
z
" id="DejaVuSans-6f" transform="scale(0.015625)"/>
       <path d="M 3122 3366 
L 3122 2828 
Q 2878 2963 2633 3030 
Q 2388 3097 2138 3097 
Q 1578 3097 1268 2742 
Q 959 2388 959 1747 
Q 959 1106 1268 751 
Q 1578 397 2138 397 
Q 2388 397 2633 464 
Q 2878 531 3122 666 
L 3122 134 
Q 2881 22 2623 -34 
Q 2366 -91 2075 -91 
Q 1284 -91 818 406 
Q 353 903 353 1747 
Q 353 2603 823 3093 
Q 1294 3584 2113 3584 
Q 2378 3584 2631 3529 
Q 2884 3475 3122 3366 
z
" id="DejaVuSans-63" transform="scale(0.015625)"/>
      </defs>
      <use xlink:href="#DejaVuSans-41"/>
      <use x="68.408203" xlink:href="#DejaVuSans-75"/>
      <use x="131.787109" xlink:href="#DejaVuSans-72"/>
      <use x="170.650391" xlink:href="#DejaVuSans-6f"/>
      <use x="231.832031" xlink:href="#DejaVuSans-63"/>
     </g>
    </g>
   </g>
   <g id="matplotlib.axis_2">
    <g id="ytick_1">
     <g id="line2d_10">
      <path clip-path="url(#pe6970c224f)" d="M 57.6 286.12114 
L 414.72 286.12114 
" style="fill:none;stroke:#cccccc;stroke-linecap:round;stroke-width:0.8;"/>
     </g>
     <g id="text_11">
      <!-- 0.50 -->
      <g style="fill:#262626;" transform="translate(28.334375 289.920359)scale(0.1 -0.1)">
       <defs>
        <path d="M 684 794 
L 1344 794 
L 1344 0 
L 684 0 
L 684 794 
z
" id="DejaVuSans-2e" transform="scale(0.015625)"/>
       </defs>
       <use xlink:href="#DejaVuSans-30"/>
       <use x="63.623047" xlink:href="#DejaVuSans-2e"/>
       <use x="95.410156" xlink:href="#DejaVuSans-35"/>
       <use x="159.033203" xlink:href="#DejaVuSans-30"/>
      </g>
     </g>
    </g>
    <g id="ytick_2">
     <g id="line2d_11">
      <path clip-path="url(#pe6970c224f)" d="M 57.6 237.749421 
L 414.72 237.749421 
" style="fill:none;stroke:#cccccc;stroke-linecap:round;stroke-width:0.8;"/>
     </g>
     <g id="text_12">
      <!-- 0.55 -->
      <g style="fill:#262626;" transform="translate(28.334375 241.54864)scale(0.1 -0.1)">
       <use xlink:href="#DejaVuSans-30"/>
       <use x="63.623047" xlink:href="#DejaVuSans-2e"/>
       <use x="95.410156" xlink:href="#DejaVuSans-35"/>
       <use x="159.033203" xlink:href="#DejaVuSans-35"/>
      </g>
     </g>
    </g>
    <g id="ytick_3">
     <g id="line2d_12">
      <path clip-path="url(#pe6970c224f)" d="M 57.6 189.377702 
L 414.72 189.377702 
" style="fill:none;stroke:#cccccc;stroke-linecap:round;stroke-width:0.8;"/>
     </g>
     <g id="text_13">
      <!-- 0.60 -->
      <g style="fill:#262626;" transform="translate(28.334375 193.176921)scale(0.1 -0.1)">
       <defs>
        <path d="M 2113 2584 
Q 1688 2584 1439 2293 
Q 1191 2003 1191 1497 
Q 1191 994 1439 701 
Q 1688 409 2113 409 
Q 2538 409 2786 701 
Q 3034 994 3034 1497 
Q 3034 2003 2786 2293 
Q 2538 2584 2113 2584 
z
M 3366 4563 
L 3366 3988 
Q 3128 4100 2886 4159 
Q 2644 4219 2406 4219 
Q 1781 4219 1451 3797 
Q 1122 3375 1075 2522 
Q 1259 2794 1537 2939 
Q 1816 3084 2150 3084 
Q 2853 3084 3261 2657 
Q 3669 2231 3669 1497 
Q 3669 778 3244 343 
Q 2819 -91 2113 -91 
Q 1303 -91 875 529 
Q 447 1150 447 2328 
Q 447 3434 972 4092 
Q 1497 4750 2381 4750 
Q 2619 4750 2861 4703 
Q 3103 4656 3366 4563 
z
" id="DejaVuSans-36" transform="scale(0.015625)"/>
       </defs>
       <use xlink:href="#DejaVuSans-30"/>
       <use x="63.623047" xlink:href="#DejaVuSans-2e"/>
       <use x="95.410156" xlink:href="#DejaVuSans-36"/>
       <use x="159.033203" xlink:href="#DejaVuSans-30"/>
      </g>
     </g>
    </g>
    <g id="ytick_4">
     <g id="line2d_13">
      <path clip-path="url(#pe6970c224f)" d="M 57.6 141.005983 
L 414.72 141.005983 
" style="fill:none;stroke:#cccccc;stroke-linecap:round;stroke-width:0.8;"/>
     </g>
     <g id="text_14">
      <!-- 0.65 -->
      <g style="fill:#262626;" transform="translate(28.334375 144.805202)scale(0.1 -0.1)">
       <use xlink:href="#DejaVuSans-30"/>
       <use x="63.623047" xlink:href="#DejaVuSans-2e"/>
       <use x="95.410156" xlink:href="#DejaVuSans-36"/>
       <use x="159.033203" xlink:href="#DejaVuSans-35"/>
      </g>
     </g>
    </g>
    <g id="ytick_5">
     <g id="line2d_14">
      <path clip-path="url(#pe6970c224f)" d="M 57.6 92.634264 
L 414.72 92.634264 
" style="fill:none;stroke:#cccccc;stroke-linecap:round;stroke-width:0.8;"/>
     </g>
     <g id="text_15">
      <!-- 0.70 -->
      <g style="fill:#262626;" transform="translate(28.334375 96.433483)scale(0.1 -0.1)">
       <use xlink:href="#DejaVuSans-30"/>
       <use x="63.623047" xlink:href="#DejaVuSans-2e"/>
       <use x="95.410156" xlink:href="#DejaVuSans-37"/>
       <use x="159.033203" xlink:href="#DejaVuSans-30"/>
      </g>
     </g>
    </g>
    <g id="ytick_6">
     <g id="line2d_15">
      <path clip-path="url(#pe6970c224f)" d="M 57.6 44.262545 
L 414.72 44.262545 
" style="fill:none;stroke:#cccccc;stroke-linecap:round;stroke-width:0.8;"/>
     </g>
     <g id="text_16">
      <!-- 0.75 -->
      <g style="fill:#262626;" transform="translate(28.334375 48.061764)scale(0.1 -0.1)">
       <use xlink:href="#DejaVuSans-30"/>
       <use x="63.623047" xlink:href="#DejaVuSans-2e"/>
       <use x="95.410156" xlink:href="#DejaVuSans-37"/>
       <use x="159.033203" xlink:href="#DejaVuSans-35"/>
      </g>
     </g>
    </g>
    <g id="text_17">
     <!-- Iteration -->
     <g style="fill:#262626;" transform="translate(22.254687 195.736594)rotate(-90)scale(0.1 -0.1)">
      <defs>
       <path d="M 628 4666 
L 1259 4666 
L 1259 0 
L 628 0 
L 628 4666 
z
" id="DejaVuSans-49" transform="scale(0.015625)"/>
       <path d="M 1172 4494 
L 1172 3500 
L 2356 3500 
L 2356 3053 
L 1172 3053 
L 1172 1153 
Q 1172 725 1289 603 
Q 1406 481 1766 481 
L 2356 481 
L 2356 0 
L 1766 0 
Q 1100 0 847 248 
Q 594 497 594 1153 
L 594 3053 
L 172 3053 
L 172 3500 
L 594 3500 
L 594 4494 
L 1172 4494 
z
" id="DejaVuSans-74" transform="scale(0.015625)"/>
       <path d="M 3597 1894 
L 3597 1613 
L 953 1613 
Q 991 1019 1311 708 
Q 1631 397 2203 397 
Q 2534 397 2845 478 
Q 3156 559 3463 722 
L 3463 178 
Q 3153 47 2828 -22 
Q 2503 -91 2169 -91 
Q 1331 -91 842 396 
Q 353 884 353 1716 
Q 353 2575 817 3079 
Q 1281 3584 2069 3584 
Q 2775 3584 3186 3129 
Q 3597 2675 3597 1894 
z
M 3022 2063 
Q 3016 2534 2758 2815 
Q 2500 3097 2075 3097 
Q 1594 3097 1305 2825 
Q 1016 2553 972 2059 
L 3022 2063 
z
" id="DejaVuSans-65" transform="scale(0.015625)"/>
       <path d="M 2194 1759 
Q 1497 1759 1228 1600 
Q 959 1441 959 1056 
Q 959 750 1161 570 
Q 1363 391 1709 391 
Q 2188 391 2477 730 
Q 2766 1069 2766 1631 
L 2766 1759 
L 2194 1759 
z
M 3341 1997 
L 3341 0 
L 2766 0 
L 2766 531 
Q 2569 213 2275 61 
Q 1981 -91 1556 -91 
Q 1019 -91 701 211 
Q 384 513 384 1019 
Q 384 1609 779 1909 
Q 1175 2209 1959 2209 
L 2766 2209 
L 2766 2266 
Q 2766 2663 2505 2880 
Q 2244 3097 1772 3097 
Q 1472 3097 1187 3025 
Q 903 2953 641 2809 
L 641 3341 
Q 956 3463 1253 3523 
Q 1550 3584 1831 3584 
Q 2591 3584 2966 3190 
Q 3341 2797 3341 1997 
z
" id="DejaVuSans-61" transform="scale(0.015625)"/>
       <path d="M 603 3500 
L 1178 3500 
L 1178 0 
L 603 0 
L 603 3500 
z
M 603 4863 
L 1178 4863 
L 1178 4134 
L 603 4134 
L 603 4863 
z
" id="DejaVuSans-69" transform="scale(0.015625)"/>
       <path d="M 3513 2113 
L 3513 0 
L 2938 0 
L 2938 2094 
Q 2938 2591 2744 2837 
Q 2550 3084 2163 3084 
Q 1697 3084 1428 2787 
Q 1159 2491 1159 1978 
L 1159 0 
L 581 0 
L 581 3500 
L 1159 3500 
L 1159 2956 
Q 1366 3272 1645 3428 
Q 1925 3584 2291 3584 
Q 2894 3584 3203 3211 
Q 3513 2838 3513 2113 
z
" id="DejaVuSans-6e" transform="scale(0.015625)"/>
      </defs>
      <use xlink:href="#DejaVuSans-49"/>
      <use x="29.492188" xlink:href="#DejaVuSans-74"/>
      <use x="68.701172" xlink:href="#DejaVuSans-65"/>
      <use x="130.224609" xlink:href="#DejaVuSans-72"/>
      <use x="171.337891" xlink:href="#DejaVuSans-61"/>
      <use x="232.617188" xlink:href="#DejaVuSans-74"/>
      <use x="271.826172" xlink:href="#DejaVuSans-69"/>
      <use x="299.609375" xlink:href="#DejaVuSans-6f"/>
      <use x="360.791016" xlink:href="#DejaVuSans-6e"/>
     </g>
    </g>
   </g>
   <g id="PolyCollection_1">
    <defs>
     <path d="M 73.832727 -193.142724 
L 73.832727 -81.295409 
L 75.464157 -98.376588 
L 77.095587 -150.243721 
L 78.727017 -226.588017 
L 80.358447 -132.461548 
L 81.989877 -114.940969 
L 83.621307 -160.180023 
L 85.252736 -122.747116 
L 86.884166 -87.914509 
L 88.515596 -121.335713 
L 90.147026 -106.051807 
L 91.778456 -168.938946 
L 93.409886 -79.497982 
L 95.041316 -171.843328 
L 96.672746 -146.555859 
L 98.304175 -191.52847 
L 99.935605 -185.70763 
L 101.567035 -123.894824 
L 103.198465 -115.602602 
L 104.829895 -169.621207 
L 106.461325 -162.790686 
L 108.092755 -115.621319 
L 109.724185 -129.371548 
L 111.355614 -141.05656 
L 112.987044 -128.409051 
L 114.618474 -174.913632 
L 116.249904 -113.791057 
L 117.881334 -128.727902 
L 119.512764 -141.387814 
L 121.144194 -161.983902 
L 122.775624 -170.872712 
L 124.407053 -165.148213 
L 126.038483 -151.955655 
L 127.669913 -98.798904 
L 129.301343 -153.488285 
L 130.932773 -123.729604 
L 132.564203 -117.767892 
L 134.195633 -153.147491 
L 135.827063 -186.223534 
L 137.458492 -180.750131 
L 139.089922 -84.686134 
L 140.721352 -126.891748 
L 142.352782 -152.281709 
L 143.984212 -171.546465 
L 145.615642 -138.050699 
L 147.247072 -158.940957 
L 148.878502 -184.118629 
L 150.509931 -195.256931 
L 152.141361 -149.586273 
L 153.772791 -82.898772 
L 155.404221 -180.762592 
L 157.035651 -103.784426 
L 158.667081 -75.385409 
L 160.298511 -134.689924 
L 161.929941 -123.59267 
L 163.56137 -125.567549 
L 165.1928 -72.667399 
L 166.82423 -118.827811 
L 168.45566 -127.025468 
L 170.08709 -91.389401 
L 171.71852 -171.742454 
L 173.34995 -137.444082 
L 174.98138 -185.195241 
L 176.61281 -113.728376 
L 178.244239 -167.218092 
L 179.875669 -85.756822 
L 181.507099 -106.1239 
L 183.138529 -127.415983 
L 184.769959 -160.866297 
L 186.401389 -131.79313 
L 188.032819 -160.138432 
L 189.664249 -113.117241 
L 191.295678 -108.351808 
L 192.927108 -173.319035 
L 194.558538 -180.638925 
L 196.189968 -183.373352 
L 197.821398 -92.376139 
L 199.452828 -117.86602 
L 201.084258 -162.703427 
L 202.715688 -115.506746 
L 204.347117 -133.570509 
L 205.978547 -127.998036 
L 207.609977 -123.166793 
L 209.241407 -149.615193 
L 210.872837 -121.485052 
L 212.504267 -133.223536 
L 214.135697 -120.831482 
L 215.767127 -152.046044 
L 217.398556 -154.655818 
L 219.029986 -150.208848 
L 220.661416 -172.80063 
L 222.292846 -130.193326 
L 223.924276 -50.112 
L 225.555706 -151.685109 
L 227.187136 -130.40596 
L 228.818566 -147.49487 
L 230.449995 -123.87478 
L 232.081425 -138.634533 
L 233.712855 -177.133285 
L 235.344285 -173.344002 
L 236.975715 -168.192333 
L 238.607145 -97.284637 
L 240.238575 -181.819896 
L 241.870005 -187.913804 
L 243.501434 -112.112161 
L 245.132864 -62.421595 
L 246.764294 -108.38995 
L 248.395724 -152.812253 
L 250.027154 -170.277919 
L 251.658584 -134.899805 
L 253.290014 -100.249182 
L 254.921444 -131.086918 
L 256.552873 -139.738944 
L 258.184303 -190.119429 
L 259.815733 -111.423603 
L 261.447163 -138.438176 
L 263.078593 -169.900345 
L 264.710023 -143.29651 
L 266.341453 -152.199754 
L 267.972883 -122.427648 
L 269.604312 -102.770443 
L 271.235742 -132.59085 
L 272.867172 -172.309477 
L 274.498602 -134.667939 
L 276.130032 -136.374516 
L 277.761462 -204.549756 
L 279.392892 -158.764498 
L 281.024322 -145.338325 
L 282.655751 -129.908934 
L 284.287181 -158.358645 
L 285.918611 -188.544365 
L 287.550041 -154.441093 
L 289.181471 -135.051524 
L 290.812901 -143.38127 
L 292.444331 -174.013811 
L 294.075761 -148.512834 
L 295.70719 -126.289565 
L 297.33862 -131.905053 
L 298.97005 -112.938418 
L 300.60148 -156.795161 
L 302.23291 -118.749662 
L 303.86434 -118.607508 
L 305.49577 -187.868381 
L 307.1272 -200.922185 
L 308.75863 -105.0527 
L 310.390059 -100.220988 
L 312.021489 -166.572735 
L 313.652919 -98.855634 
L 315.284349 -149.259604 
L 316.915779 -109.997874 
L 318.547209 -183.20876 
L 320.178639 -209.534898 
L 321.810069 -100.396839 
L 323.441498 -112.187661 
L 325.072928 -124.135226 
L 326.704358 -151.065301 
L 328.335788 -118.315873 
L 329.967218 -164.361382 
L 331.598648 -149.849219 
L 333.230078 -175.286086 
L 334.861508 -124.558029 
L 336.492937 -167.246399 
L 338.124367 -134.049266 
L 339.755797 -162.615501 
L 341.387227 -161.922014 
L 343.018657 -170.902326 
L 344.650087 -84.500534 
L 346.281517 -113.545068 
L 347.912947 -115.259529 
L 349.544376 -112.062903 
L 351.175806 -163.406382 
L 352.807236 -158.222284 
L 354.438666 -164.214055 
L 356.070096 -112.673301 
L 357.701526 -140.569314 
L 359.332956 -172.392616 
L 360.964386 -197.850148 
L 362.595815 -142.019985 
L 364.227245 -154.557139 
L 365.858675 -168.492102 
L 367.490105 -182.245801 
L 369.121535 -101.831076 
L 370.752965 -129.959053 
L 372.384395 -141.799968 
L 374.015825 -116.360922 
L 375.647254 -104.85126 
L 377.278684 -137.537805 
L 378.910114 -151.970368 
L 380.541544 -146.778134 
L 382.172974 -101.421727 
L 383.804404 -100.084926 
L 385.435834 -124.766941 
L 387.067264 -123.823025 
L 388.698693 -118.999974 
L 390.330123 -131.715347 
L 391.961553 -165.305447 
L 393.592983 -205.044401 
L 395.224413 -184.090015 
L 396.855843 -168.315485 
L 398.487273 -155.43815 
L 398.487273 -223.452487 
L 398.487273 -223.452487 
L 396.855843 -274.482711 
L 395.224413 -238.162347 
L 393.592983 -270.055115 
L 391.961553 -245.160029 
L 390.330123 -250.018106 
L 388.698693 -272.843773 
L 387.067264 -269.912983 
L 385.435834 -236.797142 
L 383.804404 -226.055697 
L 382.172974 -223.812076 
L 380.541544 -292.032 
L 378.910114 -236.385914 
L 377.278684 -288.574966 
L 375.647254 -220.399729 
L 374.015825 -239.032718 
L 372.384395 -222.680086 
L 370.752965 -216.378241 
L 369.121535 -265.103918 
L 367.490105 -282.397127 
L 365.858675 -250.885121 
L 364.227245 -240.520957 
L 362.595815 -225.962294 
L 360.964386 -253.248392 
L 359.332956 -234.560281 
L 357.701526 -233.915523 
L 356.070096 -202.636936 
L 354.438666 -244.879949 
L 352.807236 -228.152661 
L 351.175806 -254.746223 
L 349.544376 -253.015331 
L 347.912947 -248.629724 
L 346.281517 -211.851648 
L 344.650087 -212.917223 
L 343.018657 -213.9587 
L 341.387227 -204.963266 
L 339.755797 -238.695531 
L 338.124367 -264.92966 
L 336.492937 -248.653267 
L 334.861508 -254.50912 
L 333.230078 -245.399021 
L 331.598648 -277.499581 
L 329.967218 -223.977235 
L 328.335788 -219.525533 
L 326.704358 -277.46117 
L 325.072928 -225.33685 
L 323.441498 -246.054057 
L 321.810069 -229.806878 
L 320.178639 -259.313366 
L 318.547209 -248.395809 
L 316.915779 -224.348207 
L 315.284349 -254.61909 
L 313.652919 -247.602478 
L 312.021489 -238.269977 
L 310.390059 -285.648474 
L 308.75863 -267.142091 
L 307.1272 -253.046163 
L 305.49577 -290.387375 
L 303.86434 -248.972033 
L 302.23291 -260.446848 
L 300.60148 -253.973043 
L 298.97005 -210.992386 
L 297.33862 -232.233388 
L 295.70719 -254.609573 
L 294.075761 -256.485479 
L 292.444331 -212.027483 
L 290.812901 -255.770137 
L 289.181471 -226.212359 
L 287.550041 -266.625057 
L 285.918611 -266.597861 
L 284.287181 -233.664417 
L 282.655751 -245.265379 
L 281.024322 -221.938589 
L 279.392892 -238.277646 
L 277.761462 -264.249819 
L 276.130032 -258.081379 
L 274.498602 -257.955865 
L 272.867172 -231.710809 
L 271.235742 -239.283513 
L 269.604312 -226.350592 
L 267.972883 -277.715179 
L 266.341453 -231.05165 
L 264.710023 -276.881611 
L 263.078593 -236.825163 
L 261.447163 -230.644007 
L 259.815733 -228.522487 
L 258.184303 -255.181747 
L 256.552873 -210.514692 
L 254.921444 -241.719071 
L 253.290014 -239.983271 
L 251.658584 -185.593487 
L 250.027154 -218.616031 
L 248.395724 -264.251074 
L 246.764294 -261.210631 
L 245.132864 -290.992416 
L 243.501434 -226.001974 
L 241.870005 -256.768999 
L 240.238575 -255.828661 
L 238.607145 -246.666837 
L 236.975715 -276.263833 
L 235.344285 -234.945071 
L 233.712855 -276.33498 
L 232.081425 -239.279342 
L 230.449995 -243.889712 
L 228.818566 -241.851295 
L 227.187136 -267.36615 
L 225.555706 -260.278089 
L 223.924276 -209.494497 
L 222.292846 -242.449886 
L 220.661416 -270.246821 
L 219.029986 -265.536446 
L 217.398556 -219.266407 
L 215.767127 -275.097099 
L 214.135697 -238.592963 
L 212.504267 -226.494891 
L 210.872837 -206.188145 
L 209.241407 -232.803842 
L 207.609977 -221.829438 
L 205.978547 -276.388019 
L 204.347117 -262.338246 
L 202.715688 -247.983322 
L 201.084258 -262.303803 
L 199.452828 -249.675252 
L 197.821398 -240.015461 
L 196.189968 -274.950058 
L 194.558538 -262.482877 
L 192.927108 -217.898822 
L 191.295678 -217.129303 
L 189.664249 -249.56178 
L 188.032819 -223.997924 
L 186.401389 -282.879356 
L 184.769959 -216.112602 
L 183.138529 -240.022922 
L 181.507099 -228.803312 
L 179.875669 -241.890886 
L 178.244239 -262.769678 
L 176.61281 -193.031305 
L 174.98138 -227.725927 
L 173.34995 -222.720067 
L 171.71852 -234.917862 
L 170.08709 -272.452701 
L 168.45566 -225.450664 
L 166.82423 -237.785013 
L 165.1928 -234.110322 
L 163.56137 -214.81268 
L 161.929941 -246.857056 
L 160.298511 -261.552893 
L 158.667081 -228.805039 
L 157.035651 -248.270038 
L 155.404221 -270.713846 
L 153.772791 -244.978374 
L 152.141361 -251.492417 
L 150.509931 -222.966162 
L 148.878502 -250.914637 
L 147.247072 -268.029979 
L 145.615642 -261.049967 
L 143.984212 -209.656973 
L 142.352782 -208.784956 
L 140.721352 -196.110129 
L 139.089922 -220.965203 
L 137.458492 -236.160124 
L 135.827063 -284.743662 
L 134.195633 -261.550996 
L 132.564203 -255.861582 
L 130.932773 -236.752923 
L 129.301343 -229.209562 
L 127.669913 -184.972576 
L 126.038483 -222.512029 
L 124.407053 -263.665783 
L 122.775624 -276.190922 
L 121.144194 -195.899803 
L 119.512764 -267.317392 
L 117.881334 -270.91368 
L 116.249904 -256.428888 
L 114.618474 -269.332093 
L 112.987044 -227.474149 
L 111.355614 -238.170802 
L 109.724185 -205.597384 
L 108.092755 -256.034403 
L 106.461325 -252.935577 
L 104.829895 -227.754657 
L 103.198465 -204.255301 
L 101.567035 -211.078105 
L 99.935605 -246.414449 
L 98.304175 -273.92964 
L 96.672746 -257.234203 
L 95.041316 -258.784649 
L 93.409886 -240.262644 
L 91.778456 -241.336247 
L 90.147026 -249.299669 
L 88.515596 -227.751597 
L 86.884166 -276.881975 
L 85.252736 -246.146596 
L 83.621307 -230.159612 
L 81.989877 -230.041356 
L 80.358447 -186.436506 
L 78.727017 -262.171546 
L 77.095587 -225.944564 
L 75.464157 -243.720894 
L 73.832727 -193.142724 
z
" id="m4f10caed96" style="stroke:#ffffff;stroke-opacity:0.2;"/>
    </defs>
    <g clip-path="url(#pe6970c224f)">
     <use style="fill:#1f77b4;fill-opacity:0.2;stroke:#ffffff;stroke-opacity:0.2;" x="0" xlink:href="#m4f10caed96" y="345.6"/>
    </g>
   </g>
   <g id="LineCollection_1">
    <path clip-path="url(#pe6970c224f)" d="M 398.487273 295.488 
L 398.487273 53.568 
" style="fill:none;stroke:#1f77b4;stroke-dasharray:5.55,2.4;stroke-dashoffset:0;stroke-width:1.5;"/>
   </g>
   <g id="line2d_16">
    <path clip-path="url(#pe6970c224f)" d="M 73.832727 208.380933 
L 75.464157 174.551259 
L 77.095587 157.505857 
L 78.727017 101.220218 
L 80.358447 186.150973 
L 81.989877 173.108838 
L 83.621307 150.430182 
L 85.252736 161.153144 
L 86.884166 163.201758 
L 88.515596 171.056345 
L 90.147026 167.924262 
L 91.778456 140.462403 
L 93.409886 185.719687 
L 95.041316 130.286011 
L 96.672746 143.704969 
L 98.304175 112.870945 
L 99.935605 129.538961 
L 101.567035 178.113536 
L 103.198465 185.671049 
L 104.829895 146.912068 
L 106.461325 137.736869 
L 108.092755 159.772139 
L 109.724185 178.115534 
L 111.355614 155.986319 
L 112.987044 167.6584 
L 114.618474 123.477137 
L 116.249904 160.490027 
L 117.881334 145.779209 
L 119.512764 141.247397 
L 121.144194 166.658148 
L 122.775624 122.068183 
L 124.407053 131.193002 
L 126.038483 158.366158 
L 127.669913 203.71426 
L 129.301343 154.251077 
L 130.932773 165.358736 
L 132.564203 158.785263 
L 134.195633 138.250756 
L 135.827063 110.116402 
L 137.458492 137.144873 
L 139.089922 192.774331 
L 140.721352 184.099062 
L 142.352782 165.066668 
L 143.984212 154.998281 
L 145.615642 146.049667 
L 147.247072 132.114532 
L 148.878502 128.083367 
L 152.141361 145.060655 
L 153.772791 181.661427 
L 155.404221 119.861781 
L 157.035651 169.572768 
L 158.667081 193.504776 
L 160.298511 147.478592 
L 161.929941 160.375137 
L 163.56137 175.409885 
L 165.1928 192.211139 
L 166.82423 167.293588 
L 168.45566 169.361934 
L 170.08709 163.678949 
L 171.71852 142.269842 
L 173.34995 165.517925 
L 174.98138 139.139416 
L 176.61281 192.22016 
L 178.244239 130.606115 
L 179.875669 181.776146 
L 181.507099 178.136394 
L 183.138529 161.880548 
L 184.769959 157.11055 
L 186.401389 138.263757 
L 188.032819 153.531822 
L 189.664249 164.26049 
L 191.295678 182.859445 
L 192.927108 149.991072 
L 194.558538 124.039099 
L 196.189968 116.438295 
L 197.821398 179.4042 
L 199.452828 161.829364 
L 201.084258 133.096385 
L 202.715688 163.854966 
L 204.347117 147.645622 
L 205.978547 143.406972 
L 207.609977 173.101884 
L 209.241407 154.390482 
L 210.872837 181.763402 
L 212.504267 165.740786 
L 214.135697 165.887777 
L 215.767127 132.028428 
L 217.398556 158.638887 
L 219.029986 137.727353 
L 220.661416 124.076274 
L 222.292846 159.278394 
L 223.924276 215.796752 
L 225.555706 139.618401 
L 227.187136 146.713945 
L 228.818566 150.926918 
L 230.449995 161.717754 
L 232.081425 156.643063 
L 233.712855 118.865868 
L 235.344285 141.455464 
L 236.975715 123.371917 
L 238.607145 173.624263 
L 240.238575 126.775722 
L 241.870005 123.258598 
L 243.501434 176.542932 
L 246.764294 160.799709 
L 248.395724 137.068336 
L 250.027154 151.153025 
L 251.658584 185.353354 
L 253.290014 175.483774 
L 254.921444 159.197005 
L 256.552873 170.473182 
L 258.184303 122.949412 
L 259.815733 175.626955 
L 261.447163 161.058908 
L 263.078593 142.237246 
L 264.710023 135.510939 
L 266.341453 153.974298 
L 267.972883 145.528587 
L 269.604312 181.039483 
L 271.235742 159.662819 
L 272.867172 143.589857 
L 274.498602 149.288098 
L 276.130032 148.372052 
L 277.761462 111.200213 
L 279.392892 147.078928 
L 281.024322 161.961543 
L 282.655751 158.012843 
L 284.287181 149.588469 
L 285.918611 118.028887 
L 287.550041 135.066925 
L 289.181471 164.968059 
L 290.812901 146.024297 
L 292.444331 152.579353 
L 294.075761 143.100844 
L 295.70719 155.150431 
L 297.33862 163.530779 
L 298.97005 183.634598 
L 300.60148 140.215898 
L 302.23291 156.001745 
L 303.86434 161.81023 
L 305.49577 106.472122 
L 307.1272 118.615826 
L 308.75863 159.502605 
L 310.390059 152.665269 
L 312.021489 143.178644 
L 313.652919 172.370944 
L 315.284349 143.660653 
L 316.915779 178.426959 
L 318.547209 129.797715 
L 320.178639 111.175868 
L 321.810069 180.498141 
L 323.441498 166.479141 
L 325.072928 170.863962 
L 326.704358 131.336764 
L 328.335788 176.679297 
L 329.967218 151.430691 
L 331.598648 131.9256 
L 333.230078 135.257446 
L 334.861508 156.066426 
L 336.492937 137.650167 
L 338.124367 146.110537 
L 339.755797 144.944484 
L 341.387227 162.15736 
L 343.018657 153.169487 
L 344.650087 196.891121 
L 346.281517 182.901642 
L 347.912947 163.655373 
L 349.544376 163.060883 
L 351.175806 136.523698 
L 352.807236 152.412528 
L 354.438666 141.052998 
L 356.070096 187.944882 
L 357.701526 158.357582 
L 359.332956 142.123552 
L 360.964386 120.05073 
L 362.595815 161.60886 
L 364.227245 148.060952 
L 365.858675 135.911389 
L 367.490105 113.278536 
L 369.121535 162.132503 
L 370.752965 172.431353 
L 372.384395 163.359973 
L 374.015825 167.90318 
L 375.647254 182.974505 
L 377.278684 132.543614 
L 378.910114 151.421859 
L 380.541544 126.194933 
L 382.172974 182.983099 
L 383.804404 182.529689 
L 385.435834 164.817958 
L 387.067264 148.731996 
L 388.698693 149.678126 
L 390.330123 154.733273 
L 391.961553 140.367262 
L 393.592983 108.050242 
L 395.224413 134.473819 
L 396.855843 124.200902 
L 398.487273 156.154682 
L 398.487273 156.154682 
" style="fill:none;stroke:#1f77b4;stroke-linecap:round;stroke-width:1.5;"/>
   </g>
   <g id="patch_3">
    <path d="M 57.6 307.584 
L 57.6 41.472 
" style="fill:none;stroke:#cccccc;stroke-linecap:square;stroke-linejoin:miter;stroke-width:0.8;"/>
   </g>
   <g id="patch_4">
    <path d="M 414.72 307.584 
L 414.72 41.472 
" style="fill:none;stroke:#cccccc;stroke-linecap:square;stroke-linejoin:miter;stroke-width:0.8;"/>
   </g>
   <g id="patch_5">
    <path d="M 57.6 307.584 
L 414.72 307.584 
" style="fill:none;stroke:#cccccc;stroke-linecap:square;stroke-linejoin:miter;stroke-width:0.8;"/>
   </g>
   <g id="patch_6">
    <path d="M 57.6 41.472 
L 414.72 41.472 
" style="fill:none;stroke:#cccccc;stroke-linecap:square;stroke-linejoin:miter;stroke-width:0.8;"/>
   </g>
   <g id="text_18">
    <!-- Model performance vs. # of iterations -->
    <g style="fill:#262626;" transform="translate(122.314688 35.472)scale(0.12 -0.12)">
     <defs>
      <path d="M 628 4666 
L 1569 4666 
L 2759 1491 
L 3956 4666 
L 4897 4666 
L 4897 0 
L 4281 0 
L 4281 4097 
L 3078 897 
L 2444 897 
L 1241 4097 
L 1241 0 
L 628 0 
L 628 4666 
z
" id="DejaVuSans-4d" transform="scale(0.015625)"/>
      <path d="M 2906 2969 
L 2906 4863 
L 3481 4863 
L 3481 0 
L 2906 0 
L 2906 525 
Q 2725 213 2448 61 
Q 2172 -91 1784 -91 
Q 1150 -91 751 415 
Q 353 922 353 1747 
Q 353 2572 751 3078 
Q 1150 3584 1784 3584 
Q 2172 3584 2448 3432 
Q 2725 3281 2906 2969 
z
M 947 1747 
Q 947 1113 1208 752 
Q 1469 391 1925 391 
Q 2381 391 2643 752 
Q 2906 1113 2906 1747 
Q 2906 2381 2643 2742 
Q 2381 3103 1925 3103 
Q 1469 3103 1208 2742 
Q 947 2381 947 1747 
z
" id="DejaVuSans-64" transform="scale(0.015625)"/>
      <path d="M 603 4863 
L 1178 4863 
L 1178 0 
L 603 0 
L 603 4863 
z
" id="DejaVuSans-6c" transform="scale(0.015625)"/>
      <path id="DejaVuSans-20" transform="scale(0.015625)"/>
      <path d="M 1159 525 
L 1159 -1331 
L 581 -1331 
L 581 3500 
L 1159 3500 
L 1159 2969 
Q 1341 3281 1617 3432 
Q 1894 3584 2278 3584 
Q 2916 3584 3314 3078 
Q 3713 2572 3713 1747 
Q 3713 922 3314 415 
Q 2916 -91 2278 -91 
Q 1894 -91 1617 61 
Q 1341 213 1159 525 
z
M 3116 1747 
Q 3116 2381 2855 2742 
Q 2594 3103 2138 3103 
Q 1681 3103 1420 2742 
Q 1159 2381 1159 1747 
Q 1159 1113 1420 752 
Q 1681 391 2138 391 
Q 2594 391 2855 752 
Q 3116 1113 3116 1747 
z
" id="DejaVuSans-70" transform="scale(0.015625)"/>
      <path d="M 2375 4863 
L 2375 4384 
L 1825 4384 
Q 1516 4384 1395 4259 
Q 1275 4134 1275 3809 
L 1275 3500 
L 2222 3500 
L 2222 3053 
L 1275 3053 
L 1275 0 
L 697 0 
L 697 3053 
L 147 3053 
L 147 3500 
L 697 3500 
L 697 3744 
Q 697 4328 969 4595 
Q 1241 4863 1831 4863 
L 2375 4863 
z
" id="DejaVuSans-66" transform="scale(0.015625)"/>
      <path d="M 3328 2828 
Q 3544 3216 3844 3400 
Q 4144 3584 4550 3584 
Q 5097 3584 5394 3201 
Q 5691 2819 5691 2113 
L 5691 0 
L 5113 0 
L 5113 2094 
Q 5113 2597 4934 2840 
Q 4756 3084 4391 3084 
Q 3944 3084 3684 2787 
Q 3425 2491 3425 1978 
L 3425 0 
L 2847 0 
L 2847 2094 
Q 2847 2600 2669 2842 
Q 2491 3084 2119 3084 
Q 1678 3084 1418 2786 
Q 1159 2488 1159 1978 
L 1159 0 
L 581 0 
L 581 3500 
L 1159 3500 
L 1159 2956 
Q 1356 3278 1631 3431 
Q 1906 3584 2284 3584 
Q 2666 3584 2933 3390 
Q 3200 3197 3328 2828 
z
" id="DejaVuSans-6d" transform="scale(0.015625)"/>
      <path d="M 191 3500 
L 800 3500 
L 1894 563 
L 2988 3500 
L 3597 3500 
L 2284 0 
L 1503 0 
L 191 3500 
z
" id="DejaVuSans-76" transform="scale(0.015625)"/>
      <path d="M 2834 3397 
L 2834 2853 
Q 2591 2978 2328 3040 
Q 2066 3103 1784 3103 
Q 1356 3103 1142 2972 
Q 928 2841 928 2578 
Q 928 2378 1081 2264 
Q 1234 2150 1697 2047 
L 1894 2003 
Q 2506 1872 2764 1633 
Q 3022 1394 3022 966 
Q 3022 478 2636 193 
Q 2250 -91 1575 -91 
Q 1294 -91 989 -36 
Q 684 19 347 128 
L 347 722 
Q 666 556 975 473 
Q 1284 391 1588 391 
Q 1994 391 2212 530 
Q 2431 669 2431 922 
Q 2431 1156 2273 1281 
Q 2116 1406 1581 1522 
L 1381 1569 
Q 847 1681 609 1914 
Q 372 2147 372 2553 
Q 372 3047 722 3315 
Q 1072 3584 1716 3584 
Q 2034 3584 2315 3537 
Q 2597 3491 2834 3397 
z
" id="DejaVuSans-73" transform="scale(0.015625)"/>
      <path d="M 3272 2816 
L 2363 2816 
L 2100 1772 
L 3016 1772 
L 3272 2816 
z
M 2803 4594 
L 2478 3297 
L 3391 3297 
L 3719 4594 
L 4219 4594 
L 3897 3297 
L 4872 3297 
L 4872 2816 
L 3775 2816 
L 3519 1772 
L 4513 1772 
L 4513 1294 
L 3397 1294 
L 3072 0 
L 2572 0 
L 2894 1294 
L 1978 1294 
L 1656 0 
L 1153 0 
L 1478 1294 
L 494 1294 
L 494 1772 
L 1594 1772 
L 1856 2816 
L 850 2816 
L 850 3297 
L 1978 3297 
L 2297 4594 
L 2803 4594 
z
" id="DejaVuSans-23" transform="scale(0.015625)"/>
     </defs>
     <use xlink:href="#DejaVuSans-4d"/>
     <use x="86.279297" xlink:href="#DejaVuSans-6f"/>
     <use x="147.460938" xlink:href="#DejaVuSans-64"/>
     <use x="210.9375" xlink:href="#DejaVuSans-65"/>
     <use x="272.460938" xlink:href="#DejaVuSans-6c"/>
     <use x="300.244141" xlink:href="#DejaVuSans-20"/>
     <use x="332.03125" xlink:href="#DejaVuSans-70"/>
     <use x="395.507812" xlink:href="#DejaVuSans-65"/>
     <use x="457.03125" xlink:href="#DejaVuSans-72"/>
     <use x="498.144531" xlink:href="#DejaVuSans-66"/>
     <use x="533.349609" xlink:href="#DejaVuSans-6f"/>
     <use x="594.53125" xlink:href="#DejaVuSans-72"/>
     <use x="633.894531" xlink:href="#DejaVuSans-6d"/>
     <use x="731.306641" xlink:href="#DejaVuSans-61"/>
     <use x="792.585938" xlink:href="#DejaVuSans-6e"/>
     <use x="855.964844" xlink:href="#DejaVuSans-63"/>
     <use x="910.945312" xlink:href="#DejaVuSans-65"/>
     <use x="972.46875" xlink:href="#DejaVuSans-20"/>
     <use x="1004.255859" xlink:href="#DejaVuSans-76"/>
     <use x="1063.435547" xlink:href="#DejaVuSans-73"/>
     <use x="1115.535156" xlink:href="#DejaVuSans-2e"/>
     <use x="1147.322266" xlink:href="#DejaVuSans-20"/>
     <use x="1179.109375" xlink:href="#DejaVuSans-23"/>
     <use x="1262.898438" xlink:href="#DejaVuSans-20"/>
     <use x="1294.685547" xlink:href="#DejaVuSans-6f"/>
     <use x="1355.867188" xlink:href="#DejaVuSans-66"/>
     <use x="1391.072266" xlink:href="#DejaVuSans-20"/>
     <use x="1422.859375" xlink:href="#DejaVuSans-69"/>
     <use x="1450.642578" xlink:href="#DejaVuSans-74"/>
     <use x="1489.851562" xlink:href="#DejaVuSans-65"/>
     <use x="1551.375" xlink:href="#DejaVuSans-72"/>
     <use x="1592.488281" xlink:href="#DejaVuSans-61"/>
     <use x="1653.767578" xlink:href="#DejaVuSans-74"/>
     <use x="1692.976562" xlink:href="#DejaVuSans-69"/>
     <use x="1720.759766" xlink:href="#DejaVuSans-6f"/>
     <use x="1781.941406" xlink:href="#DejaVuSans-6e"/>
     <use x="1845.320312" xlink:href="#DejaVuSans-73"/>
    </g>
   </g>
  </g>
 </g>
 <defs>
  <clipPath id="pe6970c224f">
   <rect height="266.112" width="357.12" x="57.6" y="41.472"/>
  </clipPath>
 </defs>
</svg>
