<?xml version="1.0" encoding="utf-8" standalone="no"?>
<!DOCTYPE svg PUBLIC "-//W3C//DTD SVG 1.1//EN"
  "http://www.w3.org/Graphics/SVG/1.1/DTD/svg11.dtd">
<svg height="345.6pt" version="1.1" viewBox="0 0 460.8 345.6" width="460.8pt" xmlns="http://www.w3.org/2000/svg" xmlns:xlink="http://www.w3.org/1999/xlink">
 <metadata>
  <rdf:RDF xmlns:cc="http://creativecommons.org/ns#" xmlns:dc="http://purl.org/dc/elements/1.1/" xmlns:rdf="http://www.w3.org/1999/02/22-rdf-syntax-ns#">
   <cc:Work>
    <dc:type rdf:resource="http://purl.org/dc/dcmitype/StillImage"/>
    <dc:date>2021-12-30T21:07:08.672576</dc:date>
    <dc:format>image/svg+xml</dc:format>
    <dc:creator>
     <cc:Agent>
      <dc:title>Matplotlib v3.4.3, https://matplotlib.org/</dc:title>
     </cc:Agent>
    </dc:creator>
   </cc:Work>
  </rdf:RDF>
 </metadata>
 <defs>
  <style type="text/css">*{stroke-linecap:butt;stroke-linejoin:round;}</style>
 </defs>
 <g id="figure_1">
  <g id="patch_1">
   <path d="M 0 345.6 
L 460.8 345.6 
L 460.8 0 
L 0 0 
z
" style="fill:#ffffff;"/>
  </g>
  <g id="axes_1">
   <g id="patch_2">
    <path d="M 57.6 307.584 
L 414.72 307.584 
L 414.72 41.472 
L 57.6 41.472 
z
" style="fill:#ffffff;"/>
   </g>
   <g id="matplotlib.axis_1">
    <g id="xtick_1">
     <g id="line2d_1">
      <path clip-path="url(#p29e2067f53)" d="M 72.201297 307.584 
L 72.201297 41.472 
" style="fill:none;stroke:#cccccc;stroke-linecap:round;stroke-width:0.8;"/>
     </g>
     <g id="text_1">
      <!-- 0 -->
      <g style="fill:#262626;" transform="translate(69.020047 322.182437)scale(0.1 -0.1)">
       <defs>
        <path d="M 2034 4250 
Q 1547 4250 1301 3770 
Q 1056 3291 1056 2328 
Q 1056 1369 1301 889 
Q 1547 409 2034 409 
Q 2525 409 2770 889 
Q 3016 1369 3016 2328 
Q 3016 3291 2770 3770 
Q 2525 4250 2034 4250 
z
M 2034 4750 
Q 2819 4750 3233 4129 
Q 3647 3509 3647 2328 
Q 3647 1150 3233 529 
Q 2819 -91 2034 -91 
Q 1250 -91 836 529 
Q 422 1150 422 2328 
Q 422 3509 836 4129 
Q 1250 4750 2034 4750 
z
" id="DejaVuSans-30" transform="scale(0.015625)"/>
       </defs>
       <use xlink:href="#DejaVuSans-30"/>
      </g>
     </g>
    </g>
    <g id="xtick_2">
     <g id="line2d_2">
      <path clip-path="url(#p29e2067f53)" d="M 112.987044 307.584 
L 112.987044 41.472 
" style="fill:none;stroke:#cccccc;stroke-linecap:round;stroke-width:0.8;"/>
     </g>
     <g id="text_2">
      <!-- 25 -->
      <g style="fill:#262626;" transform="translate(106.624544 322.182437)scale(0.1 -0.1)">
       <defs>
        <path d="M 1228 531 
L 3431 531 
L 3431 0 
L 469 0 
L 469 531 
Q 828 903 1448 1529 
Q 2069 2156 2228 2338 
Q 2531 2678 2651 2914 
Q 2772 3150 2772 3378 
Q 2772 3750 2511 3984 
Q 2250 4219 1831 4219 
Q 1534 4219 1204 4116 
Q 875 4013 500 3803 
L 500 4441 
Q 881 4594 1212 4672 
Q 1544 4750 1819 4750 
Q 2544 4750 2975 4387 
Q 3406 4025 3406 3419 
Q 3406 3131 3298 2873 
Q 3191 2616 2906 2266 
Q 2828 2175 2409 1742 
Q 1991 1309 1228 531 
z
" id="DejaVuSans-32" transform="scale(0.015625)"/>
        <path d="M 691 4666 
L 3169 4666 
L 3169 4134 
L 1269 4134 
L 1269 2991 
Q 1406 3038 1543 3061 
Q 1681 3084 1819 3084 
Q 2600 3084 3056 2656 
Q 3513 2228 3513 1497 
Q 3513 744 3044 326 
Q 2575 -91 1722 -91 
Q 1428 -91 1123 -41 
Q 819 9 494 109 
L 494 744 
Q 775 591 1075 516 
Q 1375 441 1709 441 
Q 2250 441 2565 725 
Q 2881 1009 2881 1497 
Q 2881 1984 2565 2268 
Q 2250 2553 1709 2553 
Q 1456 2553 1204 2497 
Q 953 2441 691 2322 
L 691 4666 
z
" id="DejaVuSans-35" transform="scale(0.015625)"/>
       </defs>
       <use xlink:href="#DejaVuSans-32"/>
       <use x="63.623047" xlink:href="#DejaVuSans-35"/>
      </g>
     </g>
    </g>
    <g id="xtick_3">
     <g id="line2d_3">
      <path clip-path="url(#p29e2067f53)" d="M 153.772791 307.584 
L 153.772791 41.472 
" style="fill:none;stroke:#cccccc;stroke-linecap:round;stroke-width:0.8;"/>
     </g>
     <g id="text_3">
      <!-- 50 -->
      <g style="fill:#262626;" transform="translate(147.410291 322.182437)scale(0.1 -0.1)">
       <use xlink:href="#DejaVuSans-35"/>
       <use x="63.623047" xlink:href="#DejaVuSans-30"/>
      </g>
     </g>
    </g>
    <g id="xtick_4">
     <g id="line2d_4">
      <path clip-path="url(#p29e2067f53)" d="M 194.558538 307.584 
L 194.558538 41.472 
" style="fill:none;stroke:#cccccc;stroke-linecap:round;stroke-width:0.8;"/>
     </g>
     <g id="text_4">
      <!-- 75 -->
      <g style="fill:#262626;" transform="translate(188.196038 322.182437)scale(0.1 -0.1)">
       <defs>
        <path d="M 525 4666 
L 3525 4666 
L 3525 4397 
L 1831 0 
L 1172 0 
L 2766 4134 
L 525 4134 
L 525 4666 
z
" id="DejaVuSans-37" transform="scale(0.015625)"/>
       </defs>
       <use xlink:href="#DejaVuSans-37"/>
       <use x="63.623047" xlink:href="#DejaVuSans-35"/>
      </g>
     </g>
    </g>
    <g id="xtick_5">
     <g id="line2d_5">
      <path clip-path="url(#p29e2067f53)" d="M 235.344285 307.584 
L 235.344285 41.472 
" style="fill:none;stroke:#cccccc;stroke-linecap:round;stroke-width:0.8;"/>
     </g>
     <g id="text_5">
      <!-- 100 -->
      <g style="fill:#262626;" transform="translate(225.800535 322.182437)scale(0.1 -0.1)">
       <defs>
        <path d="M 794 531 
L 1825 531 
L 1825 4091 
L 703 3866 
L 703 4441 
L 1819 4666 
L 2450 4666 
L 2450 531 
L 3481 531 
L 3481 0 
L 794 0 
L 794 531 
z
" id="DejaVuSans-31" transform="scale(0.015625)"/>
       </defs>
       <use xlink:href="#DejaVuSans-31"/>
       <use x="63.623047" xlink:href="#DejaVuSans-30"/>
       <use x="127.246094" xlink:href="#DejaVuSans-30"/>
      </g>
     </g>
    </g>
    <g id="xtick_6">
     <g id="line2d_6">
      <path clip-path="url(#p29e2067f53)" d="M 276.130032 307.584 
L 276.130032 41.472 
" style="fill:none;stroke:#cccccc;stroke-linecap:round;stroke-width:0.8;"/>
     </g>
     <g id="text_6">
      <!-- 125 -->
      <g style="fill:#262626;" transform="translate(266.586282 322.182437)scale(0.1 -0.1)">
       <use xlink:href="#DejaVuSans-31"/>
       <use x="63.623047" xlink:href="#DejaVuSans-32"/>
       <use x="127.246094" xlink:href="#DejaVuSans-35"/>
      </g>
     </g>
    </g>
    <g id="xtick_7">
     <g id="line2d_7">
      <path clip-path="url(#p29e2067f53)" d="M 316.915779 307.584 
L 316.915779 41.472 
" style="fill:none;stroke:#cccccc;stroke-linecap:round;stroke-width:0.8;"/>
     </g>
     <g id="text_7">
      <!-- 150 -->
      <g style="fill:#262626;" transform="translate(307.372029 322.182437)scale(0.1 -0.1)">
       <use xlink:href="#DejaVuSans-31"/>
       <use x="63.623047" xlink:href="#DejaVuSans-35"/>
       <use x="127.246094" xlink:href="#DejaVuSans-30"/>
      </g>
     </g>
    </g>
    <g id="xtick_8">
     <g id="line2d_8">
      <path clip-path="url(#p29e2067f53)" d="M 357.701526 307.584 
L 357.701526 41.472 
" style="fill:none;stroke:#cccccc;stroke-linecap:round;stroke-width:0.8;"/>
     </g>
     <g id="text_8">
      <!-- 175 -->
      <g style="fill:#262626;" transform="translate(348.157776 322.182437)scale(0.1 -0.1)">
       <use xlink:href="#DejaVuSans-31"/>
       <use x="63.623047" xlink:href="#DejaVuSans-37"/>
       <use x="127.246094" xlink:href="#DejaVuSans-35"/>
      </g>
     </g>
    </g>
    <g id="xtick_9">
     <g id="line2d_9">
      <path clip-path="url(#p29e2067f53)" d="M 398.487273 307.584 
L 398.487273 41.472 
" style="fill:none;stroke:#cccccc;stroke-linecap:round;stroke-width:0.8;"/>
     </g>
     <g id="text_9">
      <!-- 200 -->
      <g style="fill:#262626;" transform="translate(388.943523 322.182437)scale(0.1 -0.1)">
       <use xlink:href="#DejaVuSans-32"/>
       <use x="63.623047" xlink:href="#DejaVuSans-30"/>
       <use x="127.246094" xlink:href="#DejaVuSans-30"/>
      </g>
     </g>
    </g>
    <g id="text_10">
     <!-- Auroc -->
     <g style="fill:#262626;" transform="translate(221.819375 335.860562)scale(0.1 -0.1)">
      <defs>
       <path d="M 2188 4044 
L 1331 1722 
L 3047 1722 
L 2188 4044 
z
M 1831 4666 
L 2547 4666 
L 4325 0 
L 3669 0 
L 3244 1197 
L 1141 1197 
L 716 0 
L 50 0 
L 1831 4666 
z
" id="DejaVuSans-41" transform="scale(0.015625)"/>
       <path d="M 544 1381 
L 544 3500 
L 1119 3500 
L 1119 1403 
Q 1119 906 1312 657 
Q 1506 409 1894 409 
Q 2359 409 2629 706 
Q 2900 1003 2900 1516 
L 2900 3500 
L 3475 3500 
L 3475 0 
L 2900 0 
L 2900 538 
Q 2691 219 2414 64 
Q 2138 -91 1772 -91 
Q 1169 -91 856 284 
Q 544 659 544 1381 
z
M 1991 3584 
L 1991 3584 
z
" id="DejaVuSans-75" transform="scale(0.015625)"/>
       <path d="M 2631 2963 
Q 2534 3019 2420 3045 
Q 2306 3072 2169 3072 
Q 1681 3072 1420 2755 
Q 1159 2438 1159 1844 
L 1159 0 
L 581 0 
L 581 3500 
L 1159 3500 
L 1159 2956 
Q 1341 3275 1631 3429 
Q 1922 3584 2338 3584 
Q 2397 3584 2469 3576 
Q 2541 3569 2628 3553 
L 2631 2963 
z
" id="DejaVuSans-72" transform="scale(0.015625)"/>
       <path d="M 1959 3097 
Q 1497 3097 1228 2736 
Q 959 2375 959 1747 
Q 959 1119 1226 758 
Q 1494 397 1959 397 
Q 2419 397 2687 759 
Q 2956 1122 2956 1747 
Q 2956 2369 2687 2733 
Q 2419 3097 1959 3097 
z
M 1959 3584 
Q 2709 3584 3137 3096 
Q 3566 2609 3566 1747 
Q 3566 888 3137 398 
Q 2709 -91 1959 -91 
Q 1206 -91 779 398 
Q 353 888 353 1747 
Q 353 2609 779 3096 
Q 1206 3584 1959 3584 
z
" id="DejaVuSans-6f" transform="scale(0.015625)"/>
       <path d="M 3122 3366 
L 3122 2828 
Q 2878 2963 2633 3030 
Q 2388 3097 2138 3097 
Q 1578 3097 1268 2742 
Q 959 2388 959 1747 
Q 959 1106 1268 751 
Q 1578 397 2138 397 
Q 2388 397 2633 464 
Q 2878 531 3122 666 
L 3122 134 
Q 2881 22 2623 -34 
Q 2366 -91 2075 -91 
Q 1284 -91 818 406 
Q 353 903 353 1747 
Q 353 2603 823 3093 
Q 1294 3584 2113 3584 
Q 2378 3584 2631 3529 
Q 2884 3475 3122 3366 
z
" id="DejaVuSans-63" transform="scale(0.015625)"/>
      </defs>
      <use xlink:href="#DejaVuSans-41"/>
      <use x="68.408203" xlink:href="#DejaVuSans-75"/>
      <use x="131.787109" xlink:href="#DejaVuSans-72"/>
      <use x="170.650391" xlink:href="#DejaVuSans-6f"/>
      <use x="231.832031" xlink:href="#DejaVuSans-63"/>
     </g>
    </g>
   </g>
   <g id="matplotlib.axis_2">
    <g id="ytick_1">
     <g id="line2d_10">
      <path clip-path="url(#p29e2067f53)" d="M 57.6 293.682182 
L 414.72 293.682182 
" style="fill:none;stroke:#cccccc;stroke-linecap:round;stroke-width:0.8;"/>
     </g>
     <g id="text_11">
      <!-- 0.45 -->
      <g style="fill:#262626;" transform="translate(28.334375 297.481401)scale(0.1 -0.1)">
       <defs>
        <path d="M 684 794 
L 1344 794 
L 1344 0 
L 684 0 
L 684 794 
z
" id="DejaVuSans-2e" transform="scale(0.015625)"/>
        <path d="M 2419 4116 
L 825 1625 
L 2419 1625 
L 2419 4116 
z
M 2253 4666 
L 3047 4666 
L 3047 1625 
L 3713 1625 
L 3713 1100 
L 3047 1100 
L 3047 0 
L 2419 0 
L 2419 1100 
L 313 1100 
L 313 1709 
L 2253 4666 
z
" id="DejaVuSans-34" transform="scale(0.015625)"/>
       </defs>
       <use xlink:href="#DejaVuSans-30"/>
       <use x="63.623047" xlink:href="#DejaVuSans-2e"/>
       <use x="95.410156" xlink:href="#DejaVuSans-34"/>
       <use x="159.033203" xlink:href="#DejaVuSans-35"/>
      </g>
     </g>
    </g>
    <g id="ytick_2">
     <g id="line2d_11">
      <path clip-path="url(#p29e2067f53)" d="M 57.6 238.187485 
L 414.72 238.187485 
" style="fill:none;stroke:#cccccc;stroke-linecap:round;stroke-width:0.8;"/>
     </g>
     <g id="text_12">
      <!-- 0.50 -->
      <g style="fill:#262626;" transform="translate(28.334375 241.986703)scale(0.1 -0.1)">
       <use xlink:href="#DejaVuSans-30"/>
       <use x="63.623047" xlink:href="#DejaVuSans-2e"/>
       <use x="95.410156" xlink:href="#DejaVuSans-35"/>
       <use x="159.033203" xlink:href="#DejaVuSans-30"/>
      </g>
     </g>
    </g>
    <g id="ytick_3">
     <g id="line2d_12">
      <path clip-path="url(#p29e2067f53)" d="M 57.6 182.692787 
L 414.72 182.692787 
" style="fill:none;stroke:#cccccc;stroke-linecap:round;stroke-width:0.8;"/>
     </g>
     <g id="text_13">
      <!-- 0.55 -->
      <g style="fill:#262626;" transform="translate(28.334375 186.492006)scale(0.1 -0.1)">
       <use xlink:href="#DejaVuSans-30"/>
       <use x="63.623047" xlink:href="#DejaVuSans-2e"/>
       <use x="95.410156" xlink:href="#DejaVuSans-35"/>
       <use x="159.033203" xlink:href="#DejaVuSans-35"/>
      </g>
     </g>
    </g>
    <g id="ytick_4">
     <g id="line2d_13">
      <path clip-path="url(#p29e2067f53)" d="M 57.6 127.19809 
L 414.72 127.19809 
" style="fill:none;stroke:#cccccc;stroke-linecap:round;stroke-width:0.8;"/>
     </g>
     <g id="text_14">
      <!-- 0.60 -->
      <g style="fill:#262626;" transform="translate(28.334375 130.997309)scale(0.1 -0.1)">
       <defs>
        <path d="M 2113 2584 
Q 1688 2584 1439 2293 
Q 1191 2003 1191 1497 
Q 1191 994 1439 701 
Q 1688 409 2113 409 
Q 2538 409 2786 701 
Q 3034 994 3034 1497 
Q 3034 2003 2786 2293 
Q 2538 2584 2113 2584 
z
M 3366 4563 
L 3366 3988 
Q 3128 4100 2886 4159 
Q 2644 4219 2406 4219 
Q 1781 4219 1451 3797 
Q 1122 3375 1075 2522 
Q 1259 2794 1537 2939 
Q 1816 3084 2150 3084 
Q 2853 3084 3261 2657 
Q 3669 2231 3669 1497 
Q 3669 778 3244 343 
Q 2819 -91 2113 -91 
Q 1303 -91 875 529 
Q 447 1150 447 2328 
Q 447 3434 972 4092 
Q 1497 4750 2381 4750 
Q 2619 4750 2861 4703 
Q 3103 4656 3366 4563 
z
" id="DejaVuSans-36" transform="scale(0.015625)"/>
       </defs>
       <use xlink:href="#DejaVuSans-30"/>
       <use x="63.623047" xlink:href="#DejaVuSans-2e"/>
       <use x="95.410156" xlink:href="#DejaVuSans-36"/>
       <use x="159.033203" xlink:href="#DejaVuSans-30"/>
      </g>
     </g>
    </g>
    <g id="ytick_5">
     <g id="line2d_14">
      <path clip-path="url(#p29e2067f53)" d="M 57.6 71.703393 
L 414.72 71.703393 
" style="fill:none;stroke:#cccccc;stroke-linecap:round;stroke-width:0.8;"/>
     </g>
     <g id="text_15">
      <!-- 0.65 -->
      <g style="fill:#262626;" transform="translate(28.334375 75.502611)scale(0.1 -0.1)">
       <use xlink:href="#DejaVuSans-30"/>
       <use x="63.623047" xlink:href="#DejaVuSans-2e"/>
       <use x="95.410156" xlink:href="#DejaVuSans-36"/>
       <use x="159.033203" xlink:href="#DejaVuSans-35"/>
      </g>
     </g>
    </g>
    <g id="text_16">
     <!-- Iteration -->
     <g style="fill:#262626;" transform="translate(22.254687 195.736594)rotate(-90)scale(0.1 -0.1)">
      <defs>
       <path d="M 628 4666 
L 1259 4666 
L 1259 0 
L 628 0 
L 628 4666 
z
" id="DejaVuSans-49" transform="scale(0.015625)"/>
       <path d="M 1172 4494 
L 1172 3500 
L 2356 3500 
L 2356 3053 
L 1172 3053 
L 1172 1153 
Q 1172 725 1289 603 
Q 1406 481 1766 481 
L 2356 481 
L 2356 0 
L 1766 0 
Q 1100 0 847 248 
Q 594 497 594 1153 
L 594 3053 
L 172 3053 
L 172 3500 
L 594 3500 
L 594 4494 
L 1172 4494 
z
" id="DejaVuSans-74" transform="scale(0.015625)"/>
       <path d="M 3597 1894 
L 3597 1613 
L 953 1613 
Q 991 1019 1311 708 
Q 1631 397 2203 397 
Q 2534 397 2845 478 
Q 3156 559 3463 722 
L 3463 178 
Q 3153 47 2828 -22 
Q 2503 -91 2169 -91 
Q 1331 -91 842 396 
Q 353 884 353 1716 
Q 353 2575 817 3079 
Q 1281 3584 2069 3584 
Q 2775 3584 3186 3129 
Q 3597 2675 3597 1894 
z
M 3022 2063 
Q 3016 2534 2758 2815 
Q 2500 3097 2075 3097 
Q 1594 3097 1305 2825 
Q 1016 2553 972 2059 
L 3022 2063 
z
" id="DejaVuSans-65" transform="scale(0.015625)"/>
       <path d="M 2194 1759 
Q 1497 1759 1228 1600 
Q 959 1441 959 1056 
Q 959 750 1161 570 
Q 1363 391 1709 391 
Q 2188 391 2477 730 
Q 2766 1069 2766 1631 
L 2766 1759 
L 2194 1759 
z
M 3341 1997 
L 3341 0 
L 2766 0 
L 2766 531 
Q 2569 213 2275 61 
Q 1981 -91 1556 -91 
Q 1019 -91 701 211 
Q 384 513 384 1019 
Q 384 1609 779 1909 
Q 1175 2209 1959 2209 
L 2766 2209 
L 2766 2266 
Q 2766 2663 2505 2880 
Q 2244 3097 1772 3097 
Q 1472 3097 1187 3025 
Q 903 2953 641 2809 
L 641 3341 
Q 956 3463 1253 3523 
Q 1550 3584 1831 3584 
Q 2591 3584 2966 3190 
Q 3341 2797 3341 1997 
z
" id="DejaVuSans-61" transform="scale(0.015625)"/>
       <path d="M 603 3500 
L 1178 3500 
L 1178 0 
L 603 0 
L 603 3500 
z
M 603 4863 
L 1178 4863 
L 1178 4134 
L 603 4134 
L 603 4863 
z
" id="DejaVuSans-69" transform="scale(0.015625)"/>
       <path d="M 3513 2113 
L 3513 0 
L 2938 0 
L 2938 2094 
Q 2938 2591 2744 2837 
Q 2550 3084 2163 3084 
Q 1697 3084 1428 2787 
Q 1159 2491 1159 1978 
L 1159 0 
L 581 0 
L 581 3500 
L 1159 3500 
L 1159 2956 
Q 1366 3272 1645 3428 
Q 1925 3584 2291 3584 
Q 2894 3584 3203 3211 
Q 3513 2838 3513 2113 
z
" id="DejaVuSans-6e" transform="scale(0.015625)"/>
      </defs>
      <use xlink:href="#DejaVuSans-49"/>
      <use x="29.492188" xlink:href="#DejaVuSans-74"/>
      <use x="68.701172" xlink:href="#DejaVuSans-65"/>
      <use x="130.224609" xlink:href="#DejaVuSans-72"/>
      <use x="171.337891" xlink:href="#DejaVuSans-61"/>
      <use x="232.617188" xlink:href="#DejaVuSans-74"/>
      <use x="271.826172" xlink:href="#DejaVuSans-69"/>
      <use x="299.609375" xlink:href="#DejaVuSans-6f"/>
      <use x="360.791016" xlink:href="#DejaVuSans-6e"/>
     </g>
    </g>
   </g>
   <g id="PolyCollection_1">
    <defs>
     <path d="M 73.832727 -197.518724 
L 73.832727 -139.839468 
L 75.464157 -174.779298 
L 77.095587 -213.611771 
L 78.727017 -172.609854 
L 80.358447 -188.422609 
L 81.989877 -146.491277 
L 83.621307 -155.523786 
L 85.252736 -174.644781 
L 86.884166 -186.699003 
L 88.515596 -149.128193 
L 90.147026 -180.162278 
L 91.778456 -136.068645 
L 93.409886 -142.97237 
L 95.041316 -148.706018 
L 96.672746 -163.060043 
L 98.304175 -156.392451 
L 99.935605 -128.907765 
L 101.567035 -138.920006 
L 103.198465 -123.811412 
L 104.829895 -147.210615 
L 106.461325 -168.896128 
L 108.092755 -146.240594 
L 109.724185 -181.850932 
L 111.355614 -154.065965 
L 112.987044 -151.314346 
L 114.618474 -124.05132 
L 116.249904 -183.79399 
L 117.881334 -147.864826 
L 119.512764 -130.831882 
L 121.144194 -120.61231 
L 122.775624 -145.933444 
L 124.407053 -135.629553 
L 126.038483 -163.727013 
L 127.669913 -141.195795 
L 129.301343 -182.683148 
L 130.932773 -140.501217 
L 132.564203 -181.221018 
L 134.195633 -158.144367 
L 135.827063 -159.738294 
L 137.458492 -193.00398 
L 139.089922 -138.453595 
L 140.721352 -148.714593 
L 142.352782 -113.224023 
L 143.984212 -158.160419 
L 145.615642 -153.899334 
L 147.247072 -116.662139 
L 148.878502 -174.847207 
L 150.509931 -149.209099 
L 152.141361 -175.94133 
L 153.772791 -121.834772 
L 155.404221 -191.077075 
L 157.035651 -152.144513 
L 158.667081 -115.389911 
L 160.298511 -198.860746 
L 161.929941 -183.745023 
L 163.56137 -132.457567 
L 165.1928 -179.226645 
L 166.82423 -143.826929 
L 168.45566 -143.29007 
L 170.08709 -166.645574 
L 171.71852 -109.013717 
L 173.34995 -167.059267 
L 174.98138 -152.130965 
L 176.61281 -162.851746 
L 178.244239 -184.604086 
L 179.875669 -113.148989 
L 181.507099 -144.121578 
L 183.138529 -164.341325 
L 184.769959 -113.833664 
L 186.401389 -185.856743 
L 188.032819 -166.754145 
L 189.664249 -170.103758 
L 191.295678 -127.16564 
L 192.927108 -217.420869 
L 194.558538 -160.328043 
L 196.189968 -154.653614 
L 197.821398 -163.734462 
L 199.452828 -119.202757 
L 201.084258 -153.099717 
L 202.715688 -146.038449 
L 204.347117 -168.824837 
L 205.978547 -176.218259 
L 207.609977 -114.84796 
L 209.241407 -168.047826 
L 210.872837 -151.667348 
L 212.504267 -157.206894 
L 214.135697 -135.610487 
L 215.767127 -179.221218 
L 217.398556 -112.55574 
L 219.029986 -92.810129 
L 220.661416 -141.612431 
L 222.292846 -150.266861 
L 223.924276 -135.900719 
L 225.555706 -146.233445 
L 227.187136 -85.537629 
L 228.818566 -146.613397 
L 230.449995 -53.304986 
L 232.081425 -163.725219 
L 233.712855 -152.863488 
L 235.344285 -164.146045 
L 236.975715 -215.595351 
L 238.607145 -155.822922 
L 240.238575 -172.45846 
L 241.870005 -114.122467 
L 243.501434 -194.523644 
L 245.132864 -167.317755 
L 246.764294 -106.733353 
L 248.395724 -148.601707 
L 250.027154 -157.589829 
L 251.658584 -156.59334 
L 253.290014 -164.719825 
L 254.921444 -109.68135 
L 256.552873 -166.71249 
L 258.184303 -136.512824 
L 259.815733 -154.009108 
L 261.447163 -149.251786 
L 263.078593 -183.500263 
L 264.710023 -129.138529 
L 266.341453 -191.759481 
L 267.972883 -181.390964 
L 269.604312 -201.005419 
L 271.235742 -148.722683 
L 272.867172 -163.486423 
L 274.498602 -152.900466 
L 276.130032 -125.002268 
L 277.761462 -128.233093 
L 279.392892 -50.112 
L 281.024322 -139.631488 
L 282.655751 -127.224843 
L 284.287181 -101.774284 
L 285.918611 -133.094814 
L 287.550041 -166.717842 
L 289.181471 -131.990007 
L 290.812901 -172.296242 
L 292.444331 -116.376945 
L 294.075761 -170.43719 
L 295.70719 -82.004131 
L 297.33862 -151.605967 
L 298.97005 -155.045531 
L 300.60148 -135.619215 
L 302.23291 -134.784832 
L 303.86434 -99.577632 
L 305.49577 -131.179053 
L 307.1272 -182.706304 
L 308.75863 -144.399917 
L 310.390059 -163.250303 
L 312.021489 -140.426926 
L 313.652919 -201.89683 
L 315.284349 -141.363001 
L 316.915779 -147.472355 
L 318.547209 -158.370626 
L 320.178639 -117.417058 
L 321.810069 -155.893592 
L 323.441498 -147.518853 
L 325.072928 -160.277696 
L 326.704358 -198.207553 
L 328.335788 -110.419561 
L 329.967218 -146.151718 
L 331.598648 -179.36773 
L 333.230078 -166.073103 
L 334.861508 -157.513805 
L 336.492937 -168.749151 
L 338.124367 -151.181084 
L 339.755797 -150.876363 
L 341.387227 -193.70164 
L 343.018657 -188.124037 
L 344.650087 -192.118721 
L 346.281517 -116.859947 
L 347.912947 -177.808116 
L 349.544376 -180.381252 
L 351.175806 -196.510152 
L 352.807236 -159.641015 
L 354.438666 -142.678492 
L 356.070096 -180.914456 
L 357.701526 -199.284952 
L 359.332956 -145.37301 
L 360.964386 -91.027269 
L 362.595815 -172.604008 
L 364.227245 -140.887402 
L 365.858675 -165.628732 
L 367.490105 -140.279575 
L 369.121535 -169.836677 
L 370.752965 -153.621466 
L 372.384395 -154.703385 
L 374.015825 -150.754455 
L 375.647254 -89.014647 
L 377.278684 -134.086142 
L 378.910114 -103.176964 
L 380.541544 -150.691628 
L 382.172974 -165.982701 
L 383.804404 -118.809007 
L 385.435834 -138.151194 
L 387.067264 -173.625134 
L 388.698693 -152.600316 
L 390.330123 -122.553663 
L 391.961553 -205.634654 
L 393.592983 -111.761442 
L 395.224413 -146.7078 
L 396.855843 -164.36038 
L 398.487273 -142.587881 
L 398.487273 -211.800853 
L 398.487273 -211.800853 
L 396.855843 -261.401568 
L 395.224413 -237.444569 
L 393.592983 -248.368657 
L 391.961553 -248.024845 
L 390.330123 -218.846388 
L 388.698693 -216.524927 
L 387.067264 -227.430657 
L 385.435834 -217.613714 
L 383.804404 -254.107669 
L 382.172974 -239.905304 
L 380.541544 -254.826689 
L 378.910114 -252.099228 
L 377.278684 -265.916499 
L 375.647254 -260.206713 
L 374.015825 -213.167655 
L 372.384395 -238.391608 
L 370.752965 -281.454334 
L 369.121535 -268.816003 
L 367.490105 -193.15201 
L 365.858675 -245.627135 
L 364.227245 -265.556752 
L 362.595815 -225.129338 
L 360.964386 -250.036503 
L 359.332956 -247.879583 
L 357.701526 -237.713421 
L 356.070096 -248.223036 
L 354.438666 -235.218403 
L 352.807236 -268.61873 
L 351.175806 -248.856971 
L 349.544376 -245.421888 
L 347.912947 -271.764787 
L 346.281517 -213.908881 
L 344.650087 -278.68954 
L 343.018657 -257.148602 
L 341.387227 -259.976008 
L 339.755797 -209.006507 
L 338.124367 -222.856522 
L 336.492937 -221.59808 
L 334.861508 -252.153225 
L 333.230078 -208.366866 
L 331.598648 -211.020307 
L 329.967218 -265.773586 
L 328.335788 -246.206062 
L 326.704358 -274.093098 
L 325.072928 -212.726141 
L 323.441498 -250.331326 
L 321.810069 -232.687125 
L 320.178639 -255.598803 
L 318.547209 -245.057228 
L 316.915779 -258.532559 
L 315.284349 -237.545313 
L 313.652919 -283.814827 
L 312.021489 -241.411026 
L 310.390059 -256.744386 
L 308.75863 -292.032 
L 307.1272 -266.34197 
L 305.49577 -283.321731 
L 303.86434 -218.618632 
L 302.23291 -265.85037 
L 300.60148 -213.75277 
L 298.97005 -252.711179 
L 297.33862 -258.359925 
L 295.70719 -221.732523 
L 294.075761 -255.072327 
L 292.444331 -241.651593 
L 290.812901 -256.100488 
L 289.181471 -278.359714 
L 287.550041 -284.096638 
L 285.918611 -233.800284 
L 284.287181 -237.454115 
L 282.655751 -205.666314 
L 281.024322 -263.961828 
L 279.392892 -208.890306 
L 277.761462 -242.713767 
L 276.130032 -241.655735 
L 274.498602 -247.068111 
L 272.867172 -283.98858 
L 271.235742 -254.57204 
L 269.604312 -262.398463 
L 267.972883 -253.640677 
L 266.341453 -251.376726 
L 264.710023 -241.267403 
L 263.078593 -260.908309 
L 261.447163 -259.602386 
L 259.815733 -203.673326 
L 258.184303 -247.187474 
L 256.552873 -219.913362 
L 254.921444 -200.307272 
L 253.290014 -269.783064 
L 251.658584 -234.782843 
L 250.027154 -225.543724 
L 248.395724 -220.240279 
L 246.764294 -244.000163 
L 245.132864 -274.317623 
L 243.501434 -240.190792 
L 241.870005 -249.670633 
L 240.238575 -211.740535 
L 238.607145 -243.816891 
L 236.975715 -250.756588 
L 235.344285 -277.888383 
L 233.712855 -238.601899 
L 232.081425 -286.972043 
L 230.449995 -240.015858 
L 228.818566 -254.187228 
L 227.187136 -216.131914 
L 225.555706 -230.469461 
L 223.924276 -248.149152 
L 222.292846 -245.8978 
L 220.661416 -216.36717 
L 219.029986 -233.532368 
L 217.398556 -275.327719 
L 215.767127 -257.879192 
L 214.135697 -218.507976 
L 212.504267 -261.938562 
L 210.872837 -218.33256 
L 209.241407 -207.836674 
L 207.609977 -213.304042 
L 205.978547 -258.193422 
L 204.347117 -261.034613 
L 202.715688 -200.061184 
L 201.084258 -255.660164 
L 199.452828 -242.155317 
L 197.821398 -252.538694 
L 196.189968 -235.622562 
L 194.558538 -224.077336 
L 192.927108 -290.026423 
L 191.295678 -258.393537 
L 189.664249 -249.134101 
L 188.032819 -230.080723 
L 186.401389 -273.5867 
L 184.769959 -254.574631 
L 183.138529 -252.161527 
L 181.507099 -253.007067 
L 179.875669 -245.710479 
L 178.244239 -251.567636 
L 176.61281 -276.873813 
L 174.98138 -239.856276 
L 173.34995 -262.530181 
L 171.71852 -266.020639 
L 170.08709 -241.208893 
L 168.45566 -236.828493 
L 166.82423 -257.806937 
L 165.1928 -239.029273 
L 163.56137 -212.477594 
L 161.929941 -277.999852 
L 160.298511 -267.461639 
L 158.667081 -203.332023 
L 157.035651 -228.24201 
L 155.404221 -245.732834 
L 153.772791 -252.895583 
L 152.141361 -236.457084 
L 150.509931 -244.730464 
L 148.878502 -229.095142 
L 147.247072 -230.922062 
L 145.615642 -209.217779 
L 143.984212 -248.977871 
L 142.352782 -245.778904 
L 140.721352 -246.238045 
L 139.089922 -252.769996 
L 137.458492 -247.198812 
L 135.827063 -229.681521 
L 134.195633 -229.983932 
L 132.564203 -281.377598 
L 130.932773 -234.207174 
L 129.301343 -241.330049 
L 127.669913 -225.929346 
L 126.038483 -248.714019 
L 124.407053 -249.419522 
L 122.775624 -275.101063 
L 121.144194 -243.85882 
L 119.512764 -240.101839 
L 117.881334 -261.265282 
L 116.249904 -236.27819 
L 114.618474 -183.48405 
L 112.987044 -266.38234 
L 111.355614 -273.978996 
L 109.724185 -241.919121 
L 108.092755 -240.685701 
L 106.461325 -262.11319 
L 104.829895 -213.235418 
L 103.198465 -216.805029 
L 101.567035 -277.294811 
L 99.935605 -268.573343 
L 98.304175 -261.543256 
L 96.672746 -287.566857 
L 95.041316 -267.14466 
L 93.409886 -232.071106 
L 91.778456 -253.867322 
L 90.147026 -277.251315 
L 88.515596 -248.765644 
L 86.884166 -269.959262 
L 85.252736 -254.064261 
L 83.621307 -269.04402 
L 81.989877 -235.28325 
L 80.358447 -261.213989 
L 78.727017 -261.439383 
L 77.095587 -270.006919 
L 75.464157 -266.124451 
L 73.832727 -197.518724 
z
" id="m40df678fff" style="stroke:#ffffff;stroke-opacity:0.2;"/>
    </defs>
    <g clip-path="url(#p29e2067f53)">
     <use style="fill:#1f77b4;fill-opacity:0.2;stroke:#ffffff;stroke-opacity:0.2;" x="0" xlink:href="#m40df678fff" y="345.6"/>
    </g>
   </g>
   <g id="LineCollection_1">
    <path clip-path="url(#p29e2067f53)" d="M 398.487273 295.488 
L 398.487273 53.568 
" style="fill:none;stroke:#1f77b4;stroke-dasharray:5.55,2.4;stroke-dashoffset:0;stroke-width:1.5;"/>
   </g>
   <g id="line2d_15">
    <path clip-path="url(#p29e2067f53)" d="M 73.832727 176.920904 
L 75.464157 125.148125 
L 77.095587 103.790655 
L 78.727017 128.575381 
L 80.358447 120.781701 
L 81.989877 154.712737 
L 83.621307 133.316097 
L 85.252736 131.245479 
L 86.884166 117.270867 
L 88.515596 146.653082 
L 90.147026 116.893204 
L 91.778456 150.632017 
L 93.409886 158.078262 
L 95.041316 137.674661 
L 96.672746 120.28655 
L 98.304175 136.632146 
L 99.935605 146.859446 
L 101.567035 137.492592 
L 103.198465 175.29178 
L 104.829895 165.376984 
L 106.461325 130.095341 
L 108.092755 152.136852 
L 109.724185 133.714973 
L 111.355614 131.577519 
L 112.987044 136.751657 
L 114.618474 191.832315 
L 116.249904 135.56391 
L 117.881334 141.034946 
L 119.512764 160.13314 
L 121.144194 163.364435 
L 122.775624 135.082747 
L 124.407053 153.075463 
L 126.038483 139.379484 
L 127.669913 162.03743 
L 129.301343 133.593401 
L 130.932773 158.245804 
L 132.564203 114.300692 
L 134.195633 151.535851 
L 135.827063 150.890093 
L 137.458492 125.498604 
L 139.089922 149.988204 
L 140.721352 148.123681 
L 142.352782 166.098536 
L 143.984212 142.030855 
L 145.615642 164.041443 
L 147.247072 171.8079 
L 148.878502 143.628825 
L 150.509931 148.630219 
L 152.141361 139.400793 
L 153.772791 158.234823 
L 155.404221 127.195046 
L 157.035651 155.406738 
L 158.667081 186.239033 
L 160.298511 112.438808 
L 161.929941 114.727562 
L 163.56137 173.132419 
L 165.1928 136.472041 
L 166.82423 144.783067 
L 168.45566 155.540718 
L 170.08709 141.672766 
L 171.71852 158.082822 
L 173.34995 130.805276 
L 174.98138 149.606379 
L 176.61281 125.737221 
L 178.244239 127.514139 
L 179.875669 166.170266 
L 181.507099 147.035678 
L 183.138529 137.348574 
L 184.769959 161.395852 
L 186.401389 115.878278 
L 188.032819 147.182566 
L 189.664249 135.98107 
L 191.295678 152.820412 
L 192.927108 91.876354 
L 194.558538 153.397311 
L 196.189968 150.461912 
L 197.821398 137.463422 
L 199.452828 164.920963 
L 201.084258 141.220059 
L 202.715688 172.550183 
L 204.347117 130.670275 
L 205.978547 128.39416 
L 207.609977 181.523999 
L 209.241407 157.65775 
L 210.872837 160.600046 
L 212.504267 136.027272 
L 214.135697 168.540769 
L 215.767127 127.049795 
L 217.398556 151.65827 
L 219.029986 182.428752 
L 220.661416 166.610199 
L 222.292846 147.51767 
L 223.924276 153.575064 
L 225.555706 157.248547 
L 227.187136 194.765229 
L 228.818566 145.199688 
L 230.449995 198.939578 
L 232.081425 120.251369 
L 233.712855 149.867307 
L 235.344285 124.582786 
L 236.975715 112.42403 
L 238.607145 145.780094 
L 240.238575 153.500503 
L 241.870005 163.70345 
L 243.501434 128.242782 
L 245.132864 124.782311 
L 246.764294 170.233242 
L 248.395724 161.179007 
L 250.027154 154.033224 
L 251.658584 149.911909 
L 253.290014 128.348556 
L 254.921444 190.605689 
L 256.552873 152.287074 
L 258.184303 153.749851 
L 259.815733 166.758783 
L 261.447163 141.172914 
L 263.078593 123.395714 
L 264.710023 160.397034 
L 266.341453 124.031897 
L 267.972883 128.084179 
L 269.604312 113.898059 
L 271.235742 143.952639 
L 272.867172 121.862499 
L 274.498602 145.615711 
L 276.130032 162.270998 
L 277.761462 160.12657 
L 279.392892 216.098847 
L 281.024322 143.803342 
L 282.655751 179.154421 
L 284.287181 175.9858 
L 285.918611 162.152451 
L 287.550041 120.19276 
L 289.181471 140.425139 
L 290.812901 131.401635 
L 292.444331 166.585731 
L 294.075761 132.845241 
L 295.70719 193.731673 
L 297.33862 140.617054 
L 298.97005 141.721645 
L 300.60148 170.914007 
L 302.23291 145.282399 
L 303.86434 186.501868 
L 305.49577 138.349608 
L 307.1272 121.075863 
L 308.75863 127.384041 
L 310.390059 135.602656 
L 312.021489 154.681024 
L 313.652919 102.744171 
L 315.284349 156.145843 
L 316.915779 142.597543 
L 318.547209 143.886073 
L 320.178639 159.09207 
L 321.810069 151.309642 
L 323.441498 146.674911 
L 325.072928 159.098081 
L 326.704358 109.449674 
L 328.335788 167.287188 
L 329.967218 139.637348 
L 331.598648 150.405981 
L 333.230078 158.380015 
L 334.861508 140.766485 
L 336.492937 150.426384 
L 338.124367 158.581197 
L 339.755797 165.658565 
L 341.387227 118.761176 
L 343.018657 122.96368 
L 344.650087 110.195869 
L 346.281517 180.215586 
L 347.912947 120.813549 
L 349.544376 132.69843 
L 351.175806 122.916439 
L 352.807236 131.470127 
L 354.438666 156.651552 
L 356.070096 131.031254 
L 357.701526 127.100813 
L 359.332956 148.973703 
L 360.964386 175.068114 
L 362.595815 146.733327 
L 364.227245 142.377923 
L 365.858675 139.972066 
L 367.490105 178.884208 
L 369.121535 126.27366 
L 370.752965 128.0621 
L 372.384395 149.052504 
L 374.015825 163.638945 
L 375.647254 170.98932 
L 377.278684 145.598679 
L 378.910114 167.961904 
L 380.541544 142.840841 
L 382.172974 142.655998 
L 383.804404 159.141662 
L 385.435834 167.717546 
L 387.067264 145.072104 
L 388.698693 161.037378 
L 390.330123 174.899974 
L 391.961553 118.77025 
L 393.592983 165.53495 
L 395.224413 153.523815 
L 396.855843 132.719026 
L 398.487273 168.405633 
L 398.487273 168.405633 
" style="fill:none;stroke:#1f77b4;stroke-linecap:round;stroke-width:1.5;"/>
   </g>
   <g id="patch_3">
    <path d="M 57.6 307.584 
L 57.6 41.472 
" style="fill:none;stroke:#cccccc;stroke-linecap:square;stroke-linejoin:miter;stroke-width:0.8;"/>
   </g>
   <g id="patch_4">
    <path d="M 414.72 307.584 
L 414.72 41.472 
" style="fill:none;stroke:#cccccc;stroke-linecap:square;stroke-linejoin:miter;stroke-width:0.8;"/>
   </g>
   <g id="patch_5">
    <path d="M 57.6 307.584 
L 414.72 307.584 
" style="fill:none;stroke:#cccccc;stroke-linecap:square;stroke-linejoin:miter;stroke-width:0.8;"/>
   </g>
   <g id="patch_6">
    <path d="M 57.6 41.472 
L 414.72 41.472 
" style="fill:none;stroke:#cccccc;stroke-linecap:square;stroke-linejoin:miter;stroke-width:0.8;"/>
   </g>
   <g id="text_17">
    <!-- Model performance vs. # of iterations -->
    <g style="fill:#262626;" transform="translate(122.314688 35.472)scale(0.12 -0.12)">
     <defs>
      <path d="M 628 4666 
L 1569 4666 
L 2759 1491 
L 3956 4666 
L 4897 4666 
L 4897 0 
L 4281 0 
L 4281 4097 
L 3078 897 
L 2444 897 
L 1241 4097 
L 1241 0 
L 628 0 
L 628 4666 
z
" id="DejaVuSans-4d" transform="scale(0.015625)"/>
      <path d="M 2906 2969 
L 2906 4863 
L 3481 4863 
L 3481 0 
L 2906 0 
L 2906 525 
Q 2725 213 2448 61 
Q 2172 -91 1784 -91 
Q 1150 -91 751 415 
Q 353 922 353 1747 
Q 353 2572 751 3078 
Q 1150 3584 1784 3584 
Q 2172 3584 2448 3432 
Q 2725 3281 2906 2969 
z
M 947 1747 
Q 947 1113 1208 752 
Q 1469 391 1925 391 
Q 2381 391 2643 752 
Q 2906 1113 2906 1747 
Q 2906 2381 2643 2742 
Q 2381 3103 1925 3103 
Q 1469 3103 1208 2742 
Q 947 2381 947 1747 
z
" id="DejaVuSans-64" transform="scale(0.015625)"/>
      <path d="M 603 4863 
L 1178 4863 
L 1178 0 
L 603 0 
L 603 4863 
z
" id="DejaVuSans-6c" transform="scale(0.015625)"/>
      <path id="DejaVuSans-20" transform="scale(0.015625)"/>
      <path d="M 1159 525 
L 1159 -1331 
L 581 -1331 
L 581 3500 
L 1159 3500 
L 1159 2969 
Q 1341 3281 1617 3432 
Q 1894 3584 2278 3584 
Q 2916 3584 3314 3078 
Q 3713 2572 3713 1747 
Q 3713 922 3314 415 
Q 2916 -91 2278 -91 
Q 1894 -91 1617 61 
Q 1341 213 1159 525 
z
M 3116 1747 
Q 3116 2381 2855 2742 
Q 2594 3103 2138 3103 
Q 1681 3103 1420 2742 
Q 1159 2381 1159 1747 
Q 1159 1113 1420 752 
Q 1681 391 2138 391 
Q 2594 391 2855 752 
Q 3116 1113 3116 1747 
z
" id="DejaVuSans-70" transform="scale(0.015625)"/>
      <path d="M 2375 4863 
L 2375 4384 
L 1825 4384 
Q 1516 4384 1395 4259 
Q 1275 4134 1275 3809 
L 1275 3500 
L 2222 3500 
L 2222 3053 
L 1275 3053 
L 1275 0 
L 697 0 
L 697 3053 
L 147 3053 
L 147 3500 
L 697 3500 
L 697 3744 
Q 697 4328 969 4595 
Q 1241 4863 1831 4863 
L 2375 4863 
z
" id="DejaVuSans-66" transform="scale(0.015625)"/>
      <path d="M 3328 2828 
Q 3544 3216 3844 3400 
Q 4144 3584 4550 3584 
Q 5097 3584 5394 3201 
Q 5691 2819 5691 2113 
L 5691 0 
L 5113 0 
L 5113 2094 
Q 5113 2597 4934 2840 
Q 4756 3084 4391 3084 
Q 3944 3084 3684 2787 
Q 3425 2491 3425 1978 
L 3425 0 
L 2847 0 
L 2847 2094 
Q 2847 2600 2669 2842 
Q 2491 3084 2119 3084 
Q 1678 3084 1418 2786 
Q 1159 2488 1159 1978 
L 1159 0 
L 581 0 
L 581 3500 
L 1159 3500 
L 1159 2956 
Q 1356 3278 1631 3431 
Q 1906 3584 2284 3584 
Q 2666 3584 2933 3390 
Q 3200 3197 3328 2828 
z
" id="DejaVuSans-6d" transform="scale(0.015625)"/>
      <path d="M 191 3500 
L 800 3500 
L 1894 563 
L 2988 3500 
L 3597 3500 
L 2284 0 
L 1503 0 
L 191 3500 
z
" id="DejaVuSans-76" transform="scale(0.015625)"/>
      <path d="M 2834 3397 
L 2834 2853 
Q 2591 2978 2328 3040 
Q 2066 3103 1784 3103 
Q 1356 3103 1142 2972 
Q 928 2841 928 2578 
Q 928 2378 1081 2264 
Q 1234 2150 1697 2047 
L 1894 2003 
Q 2506 1872 2764 1633 
Q 3022 1394 3022 966 
Q 3022 478 2636 193 
Q 2250 -91 1575 -91 
Q 1294 -91 989 -36 
Q 684 19 347 128 
L 347 722 
Q 666 556 975 473 
Q 1284 391 1588 391 
Q 1994 391 2212 530 
Q 2431 669 2431 922 
Q 2431 1156 2273 1281 
Q 2116 1406 1581 1522 
L 1381 1569 
Q 847 1681 609 1914 
Q 372 2147 372 2553 
Q 372 3047 722 3315 
Q 1072 3584 1716 3584 
Q 2034 3584 2315 3537 
Q 2597 3491 2834 3397 
z
" id="DejaVuSans-73" transform="scale(0.015625)"/>
      <path d="M 3272 2816 
L 2363 2816 
L 2100 1772 
L 3016 1772 
L 3272 2816 
z
M 2803 4594 
L 2478 3297 
L 3391 3297 
L 3719 4594 
L 4219 4594 
L 3897 3297 
L 4872 3297 
L 4872 2816 
L 3775 2816 
L 3519 1772 
L 4513 1772 
L 4513 1294 
L 3397 1294 
L 3072 0 
L 2572 0 
L 2894 1294 
L 1978 1294 
L 1656 0 
L 1153 0 
L 1478 1294 
L 494 1294 
L 494 1772 
L 1594 1772 
L 1856 2816 
L 850 2816 
L 850 3297 
L 1978 3297 
L 2297 4594 
L 2803 4594 
z
" id="DejaVuSans-23" transform="scale(0.015625)"/>
     </defs>
     <use xlink:href="#DejaVuSans-4d"/>
     <use x="86.279297" xlink:href="#DejaVuSans-6f"/>
     <use x="147.460938" xlink:href="#DejaVuSans-64"/>
     <use x="210.9375" xlink:href="#DejaVuSans-65"/>
     <use x="272.460938" xlink:href="#DejaVuSans-6c"/>
     <use x="300.244141" xlink:href="#DejaVuSans-20"/>
     <use x="332.03125" xlink:href="#DejaVuSans-70"/>
     <use x="395.507812" xlink:href="#DejaVuSans-65"/>
     <use x="457.03125" xlink:href="#DejaVuSans-72"/>
     <use x="498.144531" xlink:href="#DejaVuSans-66"/>
     <use x="533.349609" xlink:href="#DejaVuSans-6f"/>
     <use x="594.53125" xlink:href="#DejaVuSans-72"/>
     <use x="633.894531" xlink:href="#DejaVuSans-6d"/>
     <use x="731.306641" xlink:href="#DejaVuSans-61"/>
     <use x="792.585938" xlink:href="#DejaVuSans-6e"/>
     <use x="855.964844" xlink:href="#DejaVuSans-63"/>
     <use x="910.945312" xlink:href="#DejaVuSans-65"/>
     <use x="972.46875" xlink:href="#DejaVuSans-20"/>
     <use x="1004.255859" xlink:href="#DejaVuSans-76"/>
     <use x="1063.435547" xlink:href="#DejaVuSans-73"/>
     <use x="1115.535156" xlink:href="#DejaVuSans-2e"/>
     <use x="1147.322266" xlink:href="#DejaVuSans-20"/>
     <use x="1179.109375" xlink:href="#DejaVuSans-23"/>
     <use x="1262.898438" xlink:href="#DejaVuSans-20"/>
     <use x="1294.685547" xlink:href="#DejaVuSans-6f"/>
     <use x="1355.867188" xlink:href="#DejaVuSans-66"/>
     <use x="1391.072266" xlink:href="#DejaVuSans-20"/>
     <use x="1422.859375" xlink:href="#DejaVuSans-69"/>
     <use x="1450.642578" xlink:href="#DejaVuSans-74"/>
     <use x="1489.851562" xlink:href="#DejaVuSans-65"/>
     <use x="1551.375" xlink:href="#DejaVuSans-72"/>
     <use x="1592.488281" xlink:href="#DejaVuSans-61"/>
     <use x="1653.767578" xlink:href="#DejaVuSans-74"/>
     <use x="1692.976562" xlink:href="#DejaVuSans-69"/>
     <use x="1720.759766" xlink:href="#DejaVuSans-6f"/>
     <use x="1781.941406" xlink:href="#DejaVuSans-6e"/>
     <use x="1845.320312" xlink:href="#DejaVuSans-73"/>
    </g>
   </g>
  </g>
 </g>
 <defs>
  <clipPath id="p29e2067f53">
   <rect height="266.112" width="357.12" x="57.6" y="41.472"/>
  </clipPath>
 </defs>
</svg>
