<?xml version="1.0" encoding="utf-8" standalone="no"?>
<!DOCTYPE svg PUBLIC "-//W3C//DTD SVG 1.1//EN"
  "http://www.w3.org/Graphics/SVG/1.1/DTD/svg11.dtd">
<svg xmlns:xlink="http://www.w3.org/1999/xlink" width="460.8pt" height="345.6pt" viewBox="0 0 460.8 345.6" xmlns="http://www.w3.org/2000/svg" version="1.1">
 <metadata>
  <rdf:RDF xmlns:dc="http://purl.org/dc/elements/1.1/" xmlns:cc="http://creativecommons.org/ns#" xmlns:rdf="http://www.w3.org/1999/02/22-rdf-syntax-ns#">
   <cc:Work>
    <dc:type rdf:resource="http://purl.org/dc/dcmitype/StillImage"/>
    <dc:date>2022-10-28T19:35:48.341039</dc:date>
    <dc:format>image/svg+xml</dc:format>
    <dc:creator>
     <cc:Agent>
      <dc:title>Matplotlib v3.5.2, https://matplotlib.org/</dc:title>
     </cc:Agent>
    </dc:creator>
   </cc:Work>
  </rdf:RDF>
 </metadata>
 <defs>
  <style type="text/css">*{stroke-linejoin: round; stroke-linecap: butt}</style>
 </defs>
 <g id="figure_1">
  <g id="patch_1">
   <path d="M 0 345.6 
L 460.8 345.6 
L 460.8 0 
L 0 0 
z
" style="fill: #ffffff"/>
  </g>
  <g id="axes_1">
   <g id="patch_2">
    <path d="M 57.6 307.584 
L 414.72 307.584 
L 414.72 41.472 
L 57.6 41.472 
z
" style="fill: #ffffff"/>
   </g>
   <g id="matplotlib.axis_1">
    <g id="xtick_1">
     <g id="line2d_1">
      <path d="M 72.201297 307.584 
L 72.201297 41.472 
" clip-path="url(#p6eb096a799)" style="fill: none; stroke: #cccccc; stroke-width: 0.8; stroke-linecap: round"/>
     </g>
     <g id="text_1">
      <!-- 0 -->
      <g style="fill: #262626" transform="translate(69.020047 322.182437)scale(0.1 -0.1)">
       <defs>
        <path id="DejaVuSans-30" d="M 2034 4250 
Q 1547 4250 1301 3770 
Q 1056 3291 1056 2328 
Q 1056 1369 1301 889 
Q 1547 409 2034 409 
Q 2525 409 2770 889 
Q 3016 1369 3016 2328 
Q 3016 3291 2770 3770 
Q 2525 4250 2034 4250 
z
M 2034 4750 
Q 2819 4750 3233 4129 
Q 3647 3509 3647 2328 
Q 3647 1150 3233 529 
Q 2819 -91 2034 -91 
Q 1250 -91 836 529 
Q 422 1150 422 2328 
Q 422 3509 836 4129 
Q 1250 4750 2034 4750 
z
" transform="scale(0.015625)"/>
       </defs>
       <use xlink:href="#DejaVuSans-30"/>
      </g>
     </g>
    </g>
    <g id="xtick_2">
     <g id="line2d_2">
      <path d="M 112.987044 307.584 
L 112.987044 41.472 
" clip-path="url(#p6eb096a799)" style="fill: none; stroke: #cccccc; stroke-width: 0.8; stroke-linecap: round"/>
     </g>
     <g id="text_2">
      <!-- 25 -->
      <g style="fill: #262626" transform="translate(106.624544 322.182437)scale(0.1 -0.1)">
       <defs>
        <path id="DejaVuSans-32" d="M 1228 531 
L 3431 531 
L 3431 0 
L 469 0 
L 469 531 
Q 828 903 1448 1529 
Q 2069 2156 2228 2338 
Q 2531 2678 2651 2914 
Q 2772 3150 2772 3378 
Q 2772 3750 2511 3984 
Q 2250 4219 1831 4219 
Q 1534 4219 1204 4116 
Q 875 4013 500 3803 
L 500 4441 
Q 881 4594 1212 4672 
Q 1544 4750 1819 4750 
Q 2544 4750 2975 4387 
Q 3406 4025 3406 3419 
Q 3406 3131 3298 2873 
Q 3191 2616 2906 2266 
Q 2828 2175 2409 1742 
Q 1991 1309 1228 531 
z
" transform="scale(0.015625)"/>
        <path id="DejaVuSans-35" d="M 691 4666 
L 3169 4666 
L 3169 4134 
L 1269 4134 
L 1269 2991 
Q 1406 3038 1543 3061 
Q 1681 3084 1819 3084 
Q 2600 3084 3056 2656 
Q 3513 2228 3513 1497 
Q 3513 744 3044 326 
Q 2575 -91 1722 -91 
Q 1428 -91 1123 -41 
Q 819 9 494 109 
L 494 744 
Q 775 591 1075 516 
Q 1375 441 1709 441 
Q 2250 441 2565 725 
Q 2881 1009 2881 1497 
Q 2881 1984 2565 2268 
Q 2250 2553 1709 2553 
Q 1456 2553 1204 2497 
Q 953 2441 691 2322 
L 691 4666 
z
" transform="scale(0.015625)"/>
       </defs>
       <use xlink:href="#DejaVuSans-32"/>
       <use xlink:href="#DejaVuSans-35" x="63.623047"/>
      </g>
     </g>
    </g>
    <g id="xtick_3">
     <g id="line2d_3">
      <path d="M 153.772791 307.584 
L 153.772791 41.472 
" clip-path="url(#p6eb096a799)" style="fill: none; stroke: #cccccc; stroke-width: 0.8; stroke-linecap: round"/>
     </g>
     <g id="text_3">
      <!-- 50 -->
      <g style="fill: #262626" transform="translate(147.410291 322.182437)scale(0.1 -0.1)">
       <use xlink:href="#DejaVuSans-35"/>
       <use xlink:href="#DejaVuSans-30" x="63.623047"/>
      </g>
     </g>
    </g>
    <g id="xtick_4">
     <g id="line2d_4">
      <path d="M 194.558538 307.584 
L 194.558538 41.472 
" clip-path="url(#p6eb096a799)" style="fill: none; stroke: #cccccc; stroke-width: 0.8; stroke-linecap: round"/>
     </g>
     <g id="text_4">
      <!-- 75 -->
      <g style="fill: #262626" transform="translate(188.196038 322.182437)scale(0.1 -0.1)">
       <defs>
        <path id="DejaVuSans-37" d="M 525 4666 
L 3525 4666 
L 3525 4397 
L 1831 0 
L 1172 0 
L 2766 4134 
L 525 4134 
L 525 4666 
z
" transform="scale(0.015625)"/>
       </defs>
       <use xlink:href="#DejaVuSans-37"/>
       <use xlink:href="#DejaVuSans-35" x="63.623047"/>
      </g>
     </g>
    </g>
    <g id="xtick_5">
     <g id="line2d_5">
      <path d="M 235.344285 307.584 
L 235.344285 41.472 
" clip-path="url(#p6eb096a799)" style="fill: none; stroke: #cccccc; stroke-width: 0.8; stroke-linecap: round"/>
     </g>
     <g id="text_5">
      <!-- 100 -->
      <g style="fill: #262626" transform="translate(225.800535 322.182437)scale(0.1 -0.1)">
       <defs>
        <path id="DejaVuSans-31" d="M 794 531 
L 1825 531 
L 1825 4091 
L 703 3866 
L 703 4441 
L 1819 4666 
L 2450 4666 
L 2450 531 
L 3481 531 
L 3481 0 
L 794 0 
L 794 531 
z
" transform="scale(0.015625)"/>
       </defs>
       <use xlink:href="#DejaVuSans-31"/>
       <use xlink:href="#DejaVuSans-30" x="63.623047"/>
       <use xlink:href="#DejaVuSans-30" x="127.246094"/>
      </g>
     </g>
    </g>
    <g id="xtick_6">
     <g id="line2d_6">
      <path d="M 276.130032 307.584 
L 276.130032 41.472 
" clip-path="url(#p6eb096a799)" style="fill: none; stroke: #cccccc; stroke-width: 0.8; stroke-linecap: round"/>
     </g>
     <g id="text_6">
      <!-- 125 -->
      <g style="fill: #262626" transform="translate(266.586282 322.182437)scale(0.1 -0.1)">
       <use xlink:href="#DejaVuSans-31"/>
       <use xlink:href="#DejaVuSans-32" x="63.623047"/>
       <use xlink:href="#DejaVuSans-35" x="127.246094"/>
      </g>
     </g>
    </g>
    <g id="xtick_7">
     <g id="line2d_7">
      <path d="M 316.915779 307.584 
L 316.915779 41.472 
" clip-path="url(#p6eb096a799)" style="fill: none; stroke: #cccccc; stroke-width: 0.8; stroke-linecap: round"/>
     </g>
     <g id="text_7">
      <!-- 150 -->
      <g style="fill: #262626" transform="translate(307.372029 322.182437)scale(0.1 -0.1)">
       <use xlink:href="#DejaVuSans-31"/>
       <use xlink:href="#DejaVuSans-35" x="63.623047"/>
       <use xlink:href="#DejaVuSans-30" x="127.246094"/>
      </g>
     </g>
    </g>
    <g id="xtick_8">
     <g id="line2d_8">
      <path d="M 357.701526 307.584 
L 357.701526 41.472 
" clip-path="url(#p6eb096a799)" style="fill: none; stroke: #cccccc; stroke-width: 0.8; stroke-linecap: round"/>
     </g>
     <g id="text_8">
      <!-- 175 -->
      <g style="fill: #262626" transform="translate(348.157776 322.182437)scale(0.1 -0.1)">
       <use xlink:href="#DejaVuSans-31"/>
       <use xlink:href="#DejaVuSans-37" x="63.623047"/>
       <use xlink:href="#DejaVuSans-35" x="127.246094"/>
      </g>
     </g>
    </g>
    <g id="xtick_9">
     <g id="line2d_9">
      <path d="M 398.487273 307.584 
L 398.487273 41.472 
" clip-path="url(#p6eb096a799)" style="fill: none; stroke: #cccccc; stroke-width: 0.8; stroke-linecap: round"/>
     </g>
     <g id="text_9">
      <!-- 200 -->
      <g style="fill: #262626" transform="translate(388.943523 322.182437)scale(0.1 -0.1)">
       <use xlink:href="#DejaVuSans-32"/>
       <use xlink:href="#DejaVuSans-30" x="63.623047"/>
       <use xlink:href="#DejaVuSans-30" x="127.246094"/>
      </g>
     </g>
    </g>
    <g id="text_10">
     <!-- Iteration -->
     <g style="fill: #262626" transform="translate(214.951406 335.860562)scale(0.1 -0.1)">
      <defs>
       <path id="DejaVuSans-49" d="M 628 4666 
L 1259 4666 
L 1259 0 
L 628 0 
L 628 4666 
z
" transform="scale(0.015625)"/>
       <path id="DejaVuSans-74" d="M 1172 4494 
L 1172 3500 
L 2356 3500 
L 2356 3053 
L 1172 3053 
L 1172 1153 
Q 1172 725 1289 603 
Q 1406 481 1766 481 
L 2356 481 
L 2356 0 
L 1766 0 
Q 1100 0 847 248 
Q 594 497 594 1153 
L 594 3053 
L 172 3053 
L 172 3500 
L 594 3500 
L 594 4494 
L 1172 4494 
z
" transform="scale(0.015625)"/>
       <path id="DejaVuSans-65" d="M 3597 1894 
L 3597 1613 
L 953 1613 
Q 991 1019 1311 708 
Q 1631 397 2203 397 
Q 2534 397 2845 478 
Q 3156 559 3463 722 
L 3463 178 
Q 3153 47 2828 -22 
Q 2503 -91 2169 -91 
Q 1331 -91 842 396 
Q 353 884 353 1716 
Q 353 2575 817 3079 
Q 1281 3584 2069 3584 
Q 2775 3584 3186 3129 
Q 3597 2675 3597 1894 
z
M 3022 2063 
Q 3016 2534 2758 2815 
Q 2500 3097 2075 3097 
Q 1594 3097 1305 2825 
Q 1016 2553 972 2059 
L 3022 2063 
z
" transform="scale(0.015625)"/>
       <path id="DejaVuSans-72" d="M 2631 2963 
Q 2534 3019 2420 3045 
Q 2306 3072 2169 3072 
Q 1681 3072 1420 2755 
Q 1159 2438 1159 1844 
L 1159 0 
L 581 0 
L 581 3500 
L 1159 3500 
L 1159 2956 
Q 1341 3275 1631 3429 
Q 1922 3584 2338 3584 
Q 2397 3584 2469 3576 
Q 2541 3569 2628 3553 
L 2631 2963 
z
" transform="scale(0.015625)"/>
       <path id="DejaVuSans-61" d="M 2194 1759 
Q 1497 1759 1228 1600 
Q 959 1441 959 1056 
Q 959 750 1161 570 
Q 1363 391 1709 391 
Q 2188 391 2477 730 
Q 2766 1069 2766 1631 
L 2766 1759 
L 2194 1759 
z
M 3341 1997 
L 3341 0 
L 2766 0 
L 2766 531 
Q 2569 213 2275 61 
Q 1981 -91 1556 -91 
Q 1019 -91 701 211 
Q 384 513 384 1019 
Q 384 1609 779 1909 
Q 1175 2209 1959 2209 
L 2766 2209 
L 2766 2266 
Q 2766 2663 2505 2880 
Q 2244 3097 1772 3097 
Q 1472 3097 1187 3025 
Q 903 2953 641 2809 
L 641 3341 
Q 956 3463 1253 3523 
Q 1550 3584 1831 3584 
Q 2591 3584 2966 3190 
Q 3341 2797 3341 1997 
z
" transform="scale(0.015625)"/>
       <path id="DejaVuSans-69" d="M 603 3500 
L 1178 3500 
L 1178 0 
L 603 0 
L 603 3500 
z
M 603 4863 
L 1178 4863 
L 1178 4134 
L 603 4134 
L 603 4863 
z
" transform="scale(0.015625)"/>
       <path id="DejaVuSans-6f" d="M 1959 3097 
Q 1497 3097 1228 2736 
Q 959 2375 959 1747 
Q 959 1119 1226 758 
Q 1494 397 1959 397 
Q 2419 397 2687 759 
Q 2956 1122 2956 1747 
Q 2956 2369 2687 2733 
Q 2419 3097 1959 3097 
z
M 1959 3584 
Q 2709 3584 3137 3096 
Q 3566 2609 3566 1747 
Q 3566 888 3137 398 
Q 2709 -91 1959 -91 
Q 1206 -91 779 398 
Q 353 888 353 1747 
Q 353 2609 779 3096 
Q 1206 3584 1959 3584 
z
" transform="scale(0.015625)"/>
       <path id="DejaVuSans-6e" d="M 3513 2113 
L 3513 0 
L 2938 0 
L 2938 2094 
Q 2938 2591 2744 2837 
Q 2550 3084 2163 3084 
Q 1697 3084 1428 2787 
Q 1159 2491 1159 1978 
L 1159 0 
L 581 0 
L 581 3500 
L 1159 3500 
L 1159 2956 
Q 1366 3272 1645 3428 
Q 1925 3584 2291 3584 
Q 2894 3584 3203 3211 
Q 3513 2838 3513 2113 
z
" transform="scale(0.015625)"/>
      </defs>
      <use xlink:href="#DejaVuSans-49"/>
      <use xlink:href="#DejaVuSans-74" x="29.492188"/>
      <use xlink:href="#DejaVuSans-65" x="68.701172"/>
      <use xlink:href="#DejaVuSans-72" x="130.224609"/>
      <use xlink:href="#DejaVuSans-61" x="171.337891"/>
      <use xlink:href="#DejaVuSans-74" x="232.617188"/>
      <use xlink:href="#DejaVuSans-69" x="271.826172"/>
      <use xlink:href="#DejaVuSans-6f" x="299.609375"/>
      <use xlink:href="#DejaVuSans-6e" x="360.791016"/>
     </g>
    </g>
   </g>
   <g id="matplotlib.axis_2">
    <g id="ytick_1">
     <g id="line2d_10">
      <path d="M 57.6 295.534185 
L 414.72 295.534185 
" clip-path="url(#p6eb096a799)" style="fill: none; stroke: #cccccc; stroke-width: 0.8; stroke-linecap: round"/>
     </g>
     <g id="text_11">
      <!-- 0.475 -->
      <g style="fill: #262626" transform="translate(21.971875 299.333404)scale(0.1 -0.1)">
       <defs>
        <path id="DejaVuSans-2e" d="M 684 794 
L 1344 794 
L 1344 0 
L 684 0 
L 684 794 
z
" transform="scale(0.015625)"/>
        <path id="DejaVuSans-34" d="M 2419 4116 
L 825 1625 
L 2419 1625 
L 2419 4116 
z
M 2253 4666 
L 3047 4666 
L 3047 1625 
L 3713 1625 
L 3713 1100 
L 3047 1100 
L 3047 0 
L 2419 0 
L 2419 1100 
L 313 1100 
L 313 1709 
L 2253 4666 
z
" transform="scale(0.015625)"/>
       </defs>
       <use xlink:href="#DejaVuSans-30"/>
       <use xlink:href="#DejaVuSans-2e" x="63.623047"/>
       <use xlink:href="#DejaVuSans-34" x="95.410156"/>
       <use xlink:href="#DejaVuSans-37" x="159.033203"/>
       <use xlink:href="#DejaVuSans-35" x="222.65625"/>
      </g>
     </g>
    </g>
    <g id="ytick_2">
     <g id="line2d_11">
      <path d="M 57.6 262.355374 
L 414.72 262.355374 
" clip-path="url(#p6eb096a799)" style="fill: none; stroke: #cccccc; stroke-width: 0.8; stroke-linecap: round"/>
     </g>
     <g id="text_12">
      <!-- 0.500 -->
      <g style="fill: #262626" transform="translate(21.971875 266.154593)scale(0.1 -0.1)">
       <use xlink:href="#DejaVuSans-30"/>
       <use xlink:href="#DejaVuSans-2e" x="63.623047"/>
       <use xlink:href="#DejaVuSans-35" x="95.410156"/>
       <use xlink:href="#DejaVuSans-30" x="159.033203"/>
       <use xlink:href="#DejaVuSans-30" x="222.65625"/>
      </g>
     </g>
    </g>
    <g id="ytick_3">
     <g id="line2d_12">
      <path d="M 57.6 229.176563 
L 414.72 229.176563 
" clip-path="url(#p6eb096a799)" style="fill: none; stroke: #cccccc; stroke-width: 0.8; stroke-linecap: round"/>
     </g>
     <g id="text_13">
      <!-- 0.525 -->
      <g style="fill: #262626" transform="translate(21.971875 232.975781)scale(0.1 -0.1)">
       <use xlink:href="#DejaVuSans-30"/>
       <use xlink:href="#DejaVuSans-2e" x="63.623047"/>
       <use xlink:href="#DejaVuSans-35" x="95.410156"/>
       <use xlink:href="#DejaVuSans-32" x="159.033203"/>
       <use xlink:href="#DejaVuSans-35" x="222.65625"/>
      </g>
     </g>
    </g>
    <g id="ytick_4">
     <g id="line2d_13">
      <path d="M 57.6 195.997752 
L 414.72 195.997752 
" clip-path="url(#p6eb096a799)" style="fill: none; stroke: #cccccc; stroke-width: 0.8; stroke-linecap: round"/>
     </g>
     <g id="text_14">
      <!-- 0.550 -->
      <g style="fill: #262626" transform="translate(21.971875 199.79697)scale(0.1 -0.1)">
       <use xlink:href="#DejaVuSans-30"/>
       <use xlink:href="#DejaVuSans-2e" x="63.623047"/>
       <use xlink:href="#DejaVuSans-35" x="95.410156"/>
       <use xlink:href="#DejaVuSans-35" x="159.033203"/>
       <use xlink:href="#DejaVuSans-30" x="222.65625"/>
      </g>
     </g>
    </g>
    <g id="ytick_5">
     <g id="line2d_14">
      <path d="M 57.6 162.81894 
L 414.72 162.81894 
" clip-path="url(#p6eb096a799)" style="fill: none; stroke: #cccccc; stroke-width: 0.8; stroke-linecap: round"/>
     </g>
     <g id="text_15">
      <!-- 0.575 -->
      <g style="fill: #262626" transform="translate(21.971875 166.618159)scale(0.1 -0.1)">
       <use xlink:href="#DejaVuSans-30"/>
       <use xlink:href="#DejaVuSans-2e" x="63.623047"/>
       <use xlink:href="#DejaVuSans-35" x="95.410156"/>
       <use xlink:href="#DejaVuSans-37" x="159.033203"/>
       <use xlink:href="#DejaVuSans-35" x="222.65625"/>
      </g>
     </g>
    </g>
    <g id="ytick_6">
     <g id="line2d_15">
      <path d="M 57.6 129.640129 
L 414.72 129.640129 
" clip-path="url(#p6eb096a799)" style="fill: none; stroke: #cccccc; stroke-width: 0.8; stroke-linecap: round"/>
     </g>
     <g id="text_16">
      <!-- 0.600 -->
      <g style="fill: #262626" transform="translate(21.971875 133.439348)scale(0.1 -0.1)">
       <defs>
        <path id="DejaVuSans-36" d="M 2113 2584 
Q 1688 2584 1439 2293 
Q 1191 2003 1191 1497 
Q 1191 994 1439 701 
Q 1688 409 2113 409 
Q 2538 409 2786 701 
Q 3034 994 3034 1497 
Q 3034 2003 2786 2293 
Q 2538 2584 2113 2584 
z
M 3366 4563 
L 3366 3988 
Q 3128 4100 2886 4159 
Q 2644 4219 2406 4219 
Q 1781 4219 1451 3797 
Q 1122 3375 1075 2522 
Q 1259 2794 1537 2939 
Q 1816 3084 2150 3084 
Q 2853 3084 3261 2657 
Q 3669 2231 3669 1497 
Q 3669 778 3244 343 
Q 2819 -91 2113 -91 
Q 1303 -91 875 529 
Q 447 1150 447 2328 
Q 447 3434 972 4092 
Q 1497 4750 2381 4750 
Q 2619 4750 2861 4703 
Q 3103 4656 3366 4563 
z
" transform="scale(0.015625)"/>
       </defs>
       <use xlink:href="#DejaVuSans-30"/>
       <use xlink:href="#DejaVuSans-2e" x="63.623047"/>
       <use xlink:href="#DejaVuSans-36" x="95.410156"/>
       <use xlink:href="#DejaVuSans-30" x="159.033203"/>
       <use xlink:href="#DejaVuSans-30" x="222.65625"/>
      </g>
     </g>
    </g>
    <g id="ytick_7">
     <g id="line2d_16">
      <path d="M 57.6 96.461318 
L 414.72 96.461318 
" clip-path="url(#p6eb096a799)" style="fill: none; stroke: #cccccc; stroke-width: 0.8; stroke-linecap: round"/>
     </g>
     <g id="text_17">
      <!-- 0.625 -->
      <g style="fill: #262626" transform="translate(21.971875 100.260537)scale(0.1 -0.1)">
       <use xlink:href="#DejaVuSans-30"/>
       <use xlink:href="#DejaVuSans-2e" x="63.623047"/>
       <use xlink:href="#DejaVuSans-36" x="95.410156"/>
       <use xlink:href="#DejaVuSans-32" x="159.033203"/>
       <use xlink:href="#DejaVuSans-35" x="222.65625"/>
      </g>
     </g>
    </g>
    <g id="ytick_8">
     <g id="line2d_17">
      <path d="M 57.6 63.282507 
L 414.72 63.282507 
" clip-path="url(#p6eb096a799)" style="fill: none; stroke: #cccccc; stroke-width: 0.8; stroke-linecap: round"/>
     </g>
     <g id="text_18">
      <!-- 0.650 -->
      <g style="fill: #262626" transform="translate(21.971875 67.081726)scale(0.1 -0.1)">
       <use xlink:href="#DejaVuSans-30"/>
       <use xlink:href="#DejaVuSans-2e" x="63.623047"/>
       <use xlink:href="#DejaVuSans-36" x="95.410156"/>
       <use xlink:href="#DejaVuSans-35" x="159.033203"/>
       <use xlink:href="#DejaVuSans-30" x="222.65625"/>
      </g>
     </g>
    </g>
    <g id="text_19">
     <!-- Auroc -->
     <g style="fill: #262626" transform="translate(15.892188 188.868625)rotate(-90)scale(0.1 -0.1)">
      <defs>
       <path id="DejaVuSans-41" d="M 2188 4044 
L 1331 1722 
L 3047 1722 
L 2188 4044 
z
M 1831 4666 
L 2547 4666 
L 4325 0 
L 3669 0 
L 3244 1197 
L 1141 1197 
L 716 0 
L 50 0 
L 1831 4666 
z
" transform="scale(0.015625)"/>
       <path id="DejaVuSans-75" d="M 544 1381 
L 544 3500 
L 1119 3500 
L 1119 1403 
Q 1119 906 1312 657 
Q 1506 409 1894 409 
Q 2359 409 2629 706 
Q 2900 1003 2900 1516 
L 2900 3500 
L 3475 3500 
L 3475 0 
L 2900 0 
L 2900 538 
Q 2691 219 2414 64 
Q 2138 -91 1772 -91 
Q 1169 -91 856 284 
Q 544 659 544 1381 
z
M 1991 3584 
L 1991 3584 
z
" transform="scale(0.015625)"/>
       <path id="DejaVuSans-63" d="M 3122 3366 
L 3122 2828 
Q 2878 2963 2633 3030 
Q 2388 3097 2138 3097 
Q 1578 3097 1268 2742 
Q 959 2388 959 1747 
Q 959 1106 1268 751 
Q 1578 397 2138 397 
Q 2388 397 2633 464 
Q 2878 531 3122 666 
L 3122 134 
Q 2881 22 2623 -34 
Q 2366 -91 2075 -91 
Q 1284 -91 818 406 
Q 353 903 353 1747 
Q 353 2603 823 3093 
Q 1294 3584 2113 3584 
Q 2378 3584 2631 3529 
Q 2884 3475 3122 3366 
z
" transform="scale(0.015625)"/>
      </defs>
      <use xlink:href="#DejaVuSans-41"/>
      <use xlink:href="#DejaVuSans-75" x="68.408203"/>
      <use xlink:href="#DejaVuSans-72" x="131.787109"/>
      <use xlink:href="#DejaVuSans-6f" x="170.650391"/>
      <use xlink:href="#DejaVuSans-63" x="231.832031"/>
     </g>
    </g>
   </g>
   <g id="PolyCollection_1">
    <defs>
     <path id="m1cca9fff64" d="M 73.832727 -215.993364 
L 73.832727 -92.18746 
L 75.464157 -97.447222 
L 77.095587 -130.865861 
L 78.727017 -120.387419 
L 80.358447 -155.923606 
L 81.989877 -124.350679 
L 83.621307 -148.461765 
L 85.252736 -122.528983 
L 86.884166 -121.192709 
L 88.515596 -90.028592 
L 90.147026 -91.001989 
L 91.778456 -119.600481 
L 93.409886 -91.462258 
L 95.041316 -146.661493 
L 96.672746 -144.639749 
L 98.304175 -127.02922 
L 99.935605 -101.517264 
L 101.567035 -79.234741 
L 103.198465 -112.970131 
L 104.829895 -90.243216 
L 106.461325 -91.092422 
L 108.092755 -118.589504 
L 109.724185 -107.80333 
L 111.355614 -124.97077 
L 112.987044 -145.284396 
L 114.618474 -95.802822 
L 116.249904 -111.958408 
L 117.881334 -105.002368 
L 119.512764 -142.399374 
L 121.144194 -86.001892 
L 122.775624 -126.93014 
L 124.407053 -88.942764 
L 126.038483 -113.614498 
L 127.669913 -101.060036 
L 129.301343 -115.328136 
L 130.932773 -117.170538 
L 132.564203 -108.352233 
L 134.195633 -122.012286 
L 135.827063 -88.153059 
L 137.458492 -96.045635 
L 139.089922 -151.514692 
L 140.721352 -146.576235 
L 142.352782 -121.345728 
L 143.984212 -128.930516 
L 145.615642 -125.616587 
L 147.247072 -146.728453 
L 148.878502 -89.256396 
L 150.509931 -153.920415 
L 152.141361 -116.706392 
L 153.772791 -120.258049 
L 155.404221 -140.657874 
L 157.035651 -80.682885 
L 158.667081 -101.03556 
L 160.298511 -103.418203 
L 161.929941 -189.983428 
L 163.56137 -129.502679 
L 165.1928 -155.785849 
L 166.82423 -184.387669 
L 168.45566 -95.584401 
L 170.08709 -158.823716 
L 171.71852 -61.531576 
L 173.34995 -98.567372 
L 174.98138 -154.19804 
L 176.61281 -146.918515 
L 178.244239 -112.098579 
L 179.875669 -146.897038 
L 181.507099 -74.495058 
L 183.138529 -88.295157 
L 184.769959 -121.987002 
L 186.401389 -105.912657 
L 188.032819 -108.784934 
L 189.664249 -90.368397 
L 191.295678 -98.5707 
L 192.927108 -103.202641 
L 194.558538 -131.328708 
L 196.189968 -160.079451 
L 197.821398 -95.226639 
L 199.452828 -117.182236 
L 201.084258 -147.912407 
L 202.715688 -97.168006 
L 204.347117 -105.066192 
L 205.978547 -118.596364 
L 207.609977 -150.422906 
L 209.241407 -88.669848 
L 210.872837 -98.803794 
L 212.504267 -104.696576 
L 214.135697 -103.307274 
L 215.767127 -81.482392 
L 217.398556 -152.768209 
L 219.029986 -102.511948 
L 220.661416 -99.38376 
L 222.292846 -81.499533 
L 223.924276 -152.895238 
L 225.555706 -112.937382 
L 227.187136 -82.701653 
L 228.818566 -122.299938 
L 230.449995 -114.848606 
L 232.081425 -57.247782 
L 233.712855 -133.893912 
L 235.344285 -133.997729 
L 236.975715 -103.675254 
L 238.607145 -93.878512 
L 240.238575 -89.031697 
L 241.870005 -141.325715 
L 243.501434 -106.070973 
L 245.132864 -106.749172 
L 246.764294 -153.585151 
L 248.395724 -131.599828 
L 250.027154 -118.35949 
L 251.658584 -140.46314 
L 253.290014 -168.655868 
L 254.921444 -127.689325 
L 256.552873 -95.54771 
L 258.184303 -112.622517 
L 259.815733 -74.209689 
L 261.447163 -98.901946 
L 263.078593 -97.043477 
L 264.710023 -98.54744 
L 266.341453 -101.998082 
L 267.972883 -110.776882 
L 269.604312 -145.002224 
L 271.235742 -123.988461 
L 272.867172 -117.012169 
L 274.498602 -95.16211 
L 276.130032 -97.318113 
L 277.761462 -112.337169 
L 279.392892 -97.17434 
L 281.024322 -117.310476 
L 282.655751 -83.309866 
L 284.287181 -127.418025 
L 285.918611 -139.629869 
L 287.550041 -93.827763 
L 289.181471 -113.516219 
L 290.812901 -50.112 
L 292.444331 -88.458285 
L 294.075761 -114.547893 
L 295.70719 -118.349835 
L 297.33862 -120.111192 
L 298.97005 -107.147083 
L 300.60148 -145.200083 
L 302.23291 -107.549626 
L 303.86434 -107.396771 
L 305.49577 -146.708046 
L 307.1272 -120.321308 
L 308.75863 -77.93793 
L 310.390059 -84.087413 
L 312.021489 -161.430905 
L 313.652919 -145.279192 
L 315.284349 -104.278209 
L 316.915779 -52.393413 
L 318.547209 -145.591114 
L 320.178639 -101.105611 
L 321.810069 -142.847935 
L 323.441498 -116.363221 
L 325.072928 -112.987917 
L 326.704358 -149.217594 
L 328.335788 -135.728751 
L 329.967218 -124.409498 
L 331.598648 -91.040029 
L 333.230078 -127.985708 
L 334.861508 -114.106795 
L 336.492937 -110.127085 
L 338.124367 -137.607015 
L 339.755797 -126.506703 
L 341.387227 -146.096953 
L 343.018657 -112.842429 
L 344.650087 -125.00451 
L 346.281517 -130.154196 
L 347.912947 -109.473088 
L 349.544376 -108.082208 
L 351.175806 -124.483369 
L 352.807236 -149.679519 
L 354.438666 -132.190722 
L 356.070096 -120.269643 
L 357.701526 -112.490595 
L 359.332956 -99.383784 
L 360.964386 -106.434147 
L 362.595815 -102.007955 
L 364.227245 -96.094183 
L 365.858675 -126.950851 
L 367.490105 -103.854812 
L 369.121535 -115.179674 
L 370.752965 -98.172035 
L 372.384395 -88.907317 
L 374.015825 -172.589647 
L 375.647254 -128.759237 
L 377.278684 -115.731864 
L 378.910114 -133.556825 
L 380.541544 -103.285868 
L 382.172974 -128.15485 
L 383.804404 -90.430905 
L 385.435834 -104.392658 
L 387.067264 -99.873058 
L 388.698693 -169.377674 
L 390.330123 -110.788835 
L 391.961553 -155.486139 
L 393.592983 -85.511499 
L 395.224413 -164.667104 
L 396.855843 -100.136375 
L 398.487273 -94.169707 
L 398.487273 -238.430895 
L 398.487273 -238.430895 
L 396.855843 -181.66073 
L 395.224413 -255.003861 
L 393.592983 -228.741394 
L 391.961553 -202.55086 
L 390.330123 -185.197259 
L 388.698693 -184.540691 
L 387.067264 -230.811661 
L 385.435834 -236.006386 
L 383.804404 -207.884511 
L 382.172974 -231.146472 
L 380.541544 -218.172655 
L 378.910114 -223.985043 
L 377.278684 -249.418244 
L 375.647254 -176.954313 
L 374.015825 -207.374469 
L 372.384395 -214.142769 
L 370.752965 -239.475401 
L 369.121535 -214.552333 
L 367.490105 -196.434865 
L 365.858675 -200.690922 
L 364.227245 -231.47949 
L 362.595815 -240.559007 
L 360.964386 -271.11043 
L 359.332956 -287.185362 
L 357.701526 -182.162154 
L 356.070096 -201.977422 
L 354.438666 -252.958917 
L 352.807236 -235.818316 
L 351.175806 -203.674178 
L 349.544376 -235.86588 
L 347.912947 -208.674419 
L 346.281517 -207.551894 
L 344.650087 -228.939381 
L 343.018657 -252.496268 
L 341.387227 -227.674928 
L 339.755797 -224.135618 
L 338.124367 -234.050488 
L 336.492937 -212.00926 
L 334.861508 -199.91945 
L 333.230078 -207.358623 
L 331.598648 -225.249834 
L 329.967218 -175.059936 
L 328.335788 -209.304241 
L 326.704358 -250.779919 
L 325.072928 -223.882955 
L 323.441498 -225.374467 
L 321.810069 -230.825943 
L 320.178639 -259.239148 
L 318.547209 -243.294269 
L 316.915779 -224.199048 
L 315.284349 -209.336533 
L 313.652919 -194.655684 
L 312.021489 -256.386425 
L 310.390059 -228.220754 
L 308.75863 -190.168636 
L 307.1272 -256.637737 
L 305.49577 -206.993532 
L 303.86434 -217.302225 
L 302.23291 -219.99631 
L 300.60148 -250.783204 
L 298.97005 -213.588785 
L 297.33862 -203.399275 
L 295.70719 -213.129371 
L 294.075761 -226.11899 
L 292.444331 -200.78363 
L 290.812901 -222.112771 
L 289.181471 -205.358873 
L 287.550041 -184.761675 
L 285.918611 -240.816202 
L 284.287181 -228.17907 
L 282.655751 -209.09986 
L 281.024322 -217.720769 
L 279.392892 -198.141948 
L 277.761462 -238.848387 
L 276.130032 -222.047042 
L 274.498602 -200.968524 
L 272.867172 -184.230128 
L 271.235742 -224.184974 
L 269.604312 -227.759534 
L 267.972883 -205.484599 
L 266.341453 -264.745493 
L 264.710023 -203.941072 
L 263.078593 -194.198824 
L 261.447163 -194.399672 
L 259.815733 -257.742855 
L 258.184303 -199.818072 
L 256.552873 -227.647321 
L 254.921444 -247.4987 
L 253.290014 -203.573299 
L 251.658584 -186.085435 
L 250.027154 -194.939724 
L 248.395724 -248.135798 
L 246.764294 -207.955692 
L 245.132864 -260.582447 
L 243.501434 -268.028277 
L 241.870005 -187.745333 
L 240.238575 -217.43501 
L 238.607145 -242.436501 
L 236.975715 -193.563091 
L 235.344285 -228.53112 
L 233.712855 -233.346661 
L 232.081425 -241.090994 
L 230.449995 -212.583153 
L 228.818566 -177.609106 
L 227.187136 -213.200537 
L 225.555706 -253.555332 
L 223.924276 -209.717377 
L 222.292846 -221.207563 
L 220.661416 -224.140715 
L 219.029986 -193.814877 
L 217.398556 -222.579883 
L 215.767127 -232.713782 
L 214.135697 -195.794197 
L 212.504267 -229.814841 
L 210.872837 -201.823205 
L 209.241407 -241.426159 
L 207.609977 -249.666252 
L 205.978547 -192.678182 
L 204.347117 -222.314146 
L 202.715688 -255.799398 
L 201.084258 -201.785495 
L 199.452828 -185.57066 
L 197.821398 -202.285582 
L 196.189968 -181.757807 
L 194.558538 -177.864312 
L 192.927108 -250.470047 
L 191.295678 -220.547764 
L 189.664249 -216.976748 
L 188.032819 -180.884197 
L 186.401389 -228.136065 
L 184.769959 -236.496566 
L 183.138529 -179.311855 
L 181.507099 -217.567256 
L 179.875669 -194.591103 
L 178.244239 -238.177945 
L 176.61281 -252.626441 
L 174.98138 -197.841671 
L 173.34995 -252.26667 
L 171.71852 -238.808139 
L 170.08709 -233.574587 
L 168.45566 -253.047535 
L 166.82423 -243.544109 
L 165.1928 -228.910356 
L 163.56137 -217.480891 
L 161.929941 -236.354307 
L 160.298511 -275.75244 
L 158.667081 -247.444003 
L 157.035651 -237.799732 
L 155.404221 -241.070305 
L 153.772791 -258.692674 
L 152.141361 -292.032 
L 150.509931 -252.180038 
L 148.878502 -186.483753 
L 147.247072 -227.93555 
L 145.615642 -268.168647 
L 143.984212 -218.220448 
L 142.352782 -221.181194 
L 140.721352 -227.66387 
L 139.089922 -221.528453 
L 137.458492 -179.524863 
L 135.827063 -200.657447 
L 134.195633 -184.204736 
L 132.564203 -238.014703 
L 130.932773 -234.907785 
L 129.301343 -237.799014 
L 127.669913 -230.49644 
L 126.038483 -251.316841 
L 124.407053 -179.688285 
L 122.775624 -229.665513 
L 121.144194 -256.932019 
L 119.512764 -251.124932 
L 117.881334 -209.365347 
L 116.249904 -198.086417 
L 114.618474 -239.437424 
L 112.987044 -253.069405 
L 111.355614 -200.829625 
L 109.724185 -265.711125 
L 108.092755 -224.938095 
L 106.461325 -225.499147 
L 104.829895 -207.486253 
L 103.198465 -199.063654 
L 101.567035 -184.461577 
L 99.935605 -205.185076 
L 98.304175 -285.387689 
L 96.672746 -248.084864 
L 95.041316 -226.299497 
L 93.409886 -195.258613 
L 91.778456 -228.927093 
L 90.147026 -184.928131 
L 88.515596 -196.011368 
L 86.884166 -227.541746 
L 85.252736 -256.639909 
L 83.621307 -267.028593 
L 81.989877 -232.759273 
L 80.358447 -271.616988 
L 78.727017 -256.327838 
L 77.095587 -216.722778 
L 75.464157 -253.033511 
L 73.832727 -215.993364 
z
" style="stroke: #ffffff; stroke-opacity: 0.2"/>
    </defs>
    <g clip-path="url(#p6eb096a799)">
     <use xlink:href="#m1cca9fff64" x="0" y="345.6" style="fill: #1f77b4; fill-opacity: 0.2; stroke: #ffffff; stroke-opacity: 0.2"/>
    </g>
   </g>
   <g id="line2d_18">
    <path d="M 73.832727 191.509588 
L 75.464157 170.359634 
L 77.095587 171.805681 
L 78.727017 157.242371 
L 80.358447 131.829703 
L 81.989877 167.045024 
L 83.621307 137.854821 
L 85.252736 156.015554 
L 86.884166 171.232773 
L 88.515596 202.58002 
L 90.147026 207.63494 
L 91.778456 171.336213 
L 93.409886 202.239565 
L 95.041316 159.119505 
L 98.304175 139.391545 
L 99.935605 192.24883 
L 101.567035 213.751841 
L 103.198465 189.583108 
L 104.829895 196.735266 
L 106.461325 187.304216 
L 108.092755 173.8362 
L 109.724185 158.842773 
L 111.355614 182.699803 
L 112.987044 146.4231 
L 114.618474 177.979877 
L 116.249904 190.577587 
L 117.881334 188.416143 
L 119.512764 148.837847 
L 121.144194 174.133044 
L 122.775624 167.302174 
L 124.407053 211.284476 
L 126.038483 163.13433 
L 127.669913 179.821762 
L 129.301343 169.036425 
L 130.932773 169.560839 
L 132.564203 172.416532 
L 134.195633 192.491489 
L 135.827063 201.194747 
L 137.458492 207.814751 
L 139.089922 159.078428 
L 140.721352 158.479948 
L 142.352782 174.336539 
L 143.984212 172.024518 
L 145.615642 148.707383 
L 147.247072 158.267998 
L 148.878502 207.729926 
L 150.509931 142.549773 
L 152.141361 141.230804 
L 153.772791 156.124639 
L 155.404221 154.73591 
L 157.035651 186.358692 
L 160.298511 156.014679 
L 161.929941 132.431132 
L 163.56137 172.108215 
L 165.1928 153.251897 
L 166.82423 131.634111 
L 168.45566 171.284032 
L 170.08709 149.400848 
L 171.71852 195.430142 
L 173.34995 170.182979 
L 174.98138 169.580144 
L 176.61281 145.827522 
L 178.244239 170.461738 
L 179.875669 174.85593 
L 181.507099 199.568843 
L 183.138529 211.796494 
L 184.769959 166.358216 
L 186.401389 178.575639 
L 188.032819 200.765435 
L 189.664249 191.927428 
L 191.295678 186.040768 
L 192.927108 168.763656 
L 194.558538 191.00349 
L 196.189968 174.681371 
L 197.821398 196.84389 
L 199.452828 194.223552 
L 201.084258 170.751049 
L 202.715688 169.116298 
L 204.347117 181.909831 
L 205.978547 189.962727 
L 207.609977 145.555421 
L 209.241407 180.551996 
L 210.872837 195.286501 
L 212.504267 178.344292 
L 214.135697 196.049264 
L 215.767127 188.501913 
L 217.398556 157.925954 
L 219.029986 197.436587 
L 220.661416 183.837763 
L 222.292846 194.246452 
L 223.924276 164.293692 
L 225.555706 162.353643 
L 227.187136 197.648905 
L 228.818566 195.645478 
L 230.449995 181.884121 
L 232.081425 196.430612 
L 233.712855 161.979714 
L 235.344285 164.335575 
L 236.975715 196.980827 
L 238.607145 177.442494 
L 240.238575 192.366646 
L 241.870005 181.064476 
L 243.501434 158.550375 
L 245.132864 161.934191 
L 246.764294 164.829578 
L 248.395724 155.732187 
L 250.027154 188.950393 
L 251.658584 182.325712 
L 253.290014 159.485417 
L 254.921444 158.005988 
L 256.552873 184.002484 
L 258.184303 189.379706 
L 259.815733 179.623728 
L 261.447163 198.949191 
L 263.078593 199.97885 
L 264.710023 194.355744 
L 266.341453 162.228213 
L 267.972883 187.46926 
L 269.604312 159.219121 
L 271.235742 171.513283 
L 272.867172 194.978852 
L 274.498602 197.534683 
L 276.130032 185.917422 
L 277.761462 170.007222 
L 279.392892 197.941856 
L 281.024322 178.084377 
L 282.655751 199.395137 
L 284.287181 167.801452 
L 285.918611 155.376965 
L 287.550041 206.305281 
L 289.181471 186.162454 
L 290.812901 209.487614 
L 292.444331 200.979043 
L 294.075761 175.266558 
L 295.70719 179.860397 
L 297.33862 183.844766 
L 298.97005 185.232066 
L 300.60148 147.608357 
L 302.23291 181.827032 
L 303.86434 183.250502 
L 305.49577 168.749211 
L 307.1272 157.120478 
L 308.75863 211.546717 
L 310.390059 189.445917 
L 312.021489 136.691335 
L 313.652919 175.632562 
L 315.284349 188.792629 
L 316.915779 207.303769 
L 318.547209 151.157309 
L 320.178639 165.427621 
L 321.810069 158.763061 
L 323.441498 174.731156 
L 325.072928 177.164564 
L 326.704358 145.601244 
L 328.335788 173.083504 
L 329.967218 195.865283 
L 331.598648 187.455068 
L 333.230078 177.927834 
L 334.861508 188.586877 
L 336.492937 184.531827 
L 338.124367 159.771249 
L 339.755797 170.27884 
L 341.387227 158.71406 
L 343.018657 162.930651 
L 344.650087 168.628055 
L 346.281517 176.746955 
L 347.912947 186.526247 
L 349.544376 173.625956 
L 351.175806 181.521227 
L 352.807236 152.851083 
L 354.438666 153.025181 
L 356.070096 184.476467 
L 357.701526 198.273626 
L 359.332956 152.315427 
L 360.964386 156.827711 
L 362.595815 174.316519 
L 364.227245 181.813164 
L 365.858675 181.779113 
L 367.490105 195.455162 
L 369.121535 180.733996 
L 370.752965 176.776282 
L 372.384395 194.074957 
L 374.015825 155.617942 
L 375.647254 192.743225 
L 377.278684 163.024946 
L 378.910114 166.829066 
L 380.541544 184.870739 
L 382.172974 165.949339 
L 383.804404 196.442292 
L 385.435834 175.400478 
L 387.067264 180.25764 
L 388.698693 168.640818 
L 390.330123 197.606953 
L 391.961553 166.5815 
L 393.592983 188.473553 
L 395.224413 135.764518 
L 396.855843 204.701447 
L 398.487273 179.299699 
L 398.487273 179.299699 
" clip-path="url(#p6eb096a799)" style="fill: none; stroke: #1f77b4; stroke-width: 1.5; stroke-linecap: round"/>
   </g>
   <g id="LineCollection_1">
    <path d="M 398.487273 295.488 
L 398.487273 53.568 
" clip-path="url(#p6eb096a799)" style="fill: none; stroke-dasharray: 5.55,2.4; stroke-dashoffset: 0; stroke: #1f77b4; stroke-width: 1.5"/>
   </g>
   <g id="patch_3">
    <path d="M 57.6 307.584 
L 57.6 41.472 
" style="fill: none; stroke: #cccccc; stroke-width: 0.8; stroke-linejoin: miter; stroke-linecap: square"/>
   </g>
   <g id="patch_4">
    <path d="M 414.72 307.584 
L 414.72 41.472 
" style="fill: none; stroke: #cccccc; stroke-width: 0.8; stroke-linejoin: miter; stroke-linecap: square"/>
   </g>
   <g id="patch_5">
    <path d="M 57.6 307.584 
L 414.72 307.584 
" style="fill: none; stroke: #cccccc; stroke-width: 0.8; stroke-linejoin: miter; stroke-linecap: square"/>
   </g>
   <g id="patch_6">
    <path d="M 57.6 41.472 
L 414.72 41.472 
" style="fill: none; stroke: #cccccc; stroke-width: 0.8; stroke-linejoin: miter; stroke-linecap: square"/>
   </g>
   <g id="text_20">
    <!-- Model performance vs. # of iterations -->
    <g style="fill: #262626" transform="translate(122.314688 35.472)scale(0.12 -0.12)">
     <defs>
      <path id="DejaVuSans-4d" d="M 628 4666 
L 1569 4666 
L 2759 1491 
L 3956 4666 
L 4897 4666 
L 4897 0 
L 4281 0 
L 4281 4097 
L 3078 897 
L 2444 897 
L 1241 4097 
L 1241 0 
L 628 0 
L 628 4666 
z
" transform="scale(0.015625)"/>
      <path id="DejaVuSans-64" d="M 2906 2969 
L 2906 4863 
L 3481 4863 
L 3481 0 
L 2906 0 
L 2906 525 
Q 2725 213 2448 61 
Q 2172 -91 1784 -91 
Q 1150 -91 751 415 
Q 353 922 353 1747 
Q 353 2572 751 3078 
Q 1150 3584 1784 3584 
Q 2172 3584 2448 3432 
Q 2725 3281 2906 2969 
z
M 947 1747 
Q 947 1113 1208 752 
Q 1469 391 1925 391 
Q 2381 391 2643 752 
Q 2906 1113 2906 1747 
Q 2906 2381 2643 2742 
Q 2381 3103 1925 3103 
Q 1469 3103 1208 2742 
Q 947 2381 947 1747 
z
" transform="scale(0.015625)"/>
      <path id="DejaVuSans-6c" d="M 603 4863 
L 1178 4863 
L 1178 0 
L 603 0 
L 603 4863 
z
" transform="scale(0.015625)"/>
      <path id="DejaVuSans-20" transform="scale(0.015625)"/>
      <path id="DejaVuSans-70" d="M 1159 525 
L 1159 -1331 
L 581 -1331 
L 581 3500 
L 1159 3500 
L 1159 2969 
Q 1341 3281 1617 3432 
Q 1894 3584 2278 3584 
Q 2916 3584 3314 3078 
Q 3713 2572 3713 1747 
Q 3713 922 3314 415 
Q 2916 -91 2278 -91 
Q 1894 -91 1617 61 
Q 1341 213 1159 525 
z
M 3116 1747 
Q 3116 2381 2855 2742 
Q 2594 3103 2138 3103 
Q 1681 3103 1420 2742 
Q 1159 2381 1159 1747 
Q 1159 1113 1420 752 
Q 1681 391 2138 391 
Q 2594 391 2855 752 
Q 3116 1113 3116 1747 
z
" transform="scale(0.015625)"/>
      <path id="DejaVuSans-66" d="M 2375 4863 
L 2375 4384 
L 1825 4384 
Q 1516 4384 1395 4259 
Q 1275 4134 1275 3809 
L 1275 3500 
L 2222 3500 
L 2222 3053 
L 1275 3053 
L 1275 0 
L 697 0 
L 697 3053 
L 147 3053 
L 147 3500 
L 697 3500 
L 697 3744 
Q 697 4328 969 4595 
Q 1241 4863 1831 4863 
L 2375 4863 
z
" transform="scale(0.015625)"/>
      <path id="DejaVuSans-6d" d="M 3328 2828 
Q 3544 3216 3844 3400 
Q 4144 3584 4550 3584 
Q 5097 3584 5394 3201 
Q 5691 2819 5691 2113 
L 5691 0 
L 5113 0 
L 5113 2094 
Q 5113 2597 4934 2840 
Q 4756 3084 4391 3084 
Q 3944 3084 3684 2787 
Q 3425 2491 3425 1978 
L 3425 0 
L 2847 0 
L 2847 2094 
Q 2847 2600 2669 2842 
Q 2491 3084 2119 3084 
Q 1678 3084 1418 2786 
Q 1159 2488 1159 1978 
L 1159 0 
L 581 0 
L 581 3500 
L 1159 3500 
L 1159 2956 
Q 1356 3278 1631 3431 
Q 1906 3584 2284 3584 
Q 2666 3584 2933 3390 
Q 3200 3197 3328 2828 
z
" transform="scale(0.015625)"/>
      <path id="DejaVuSans-76" d="M 191 3500 
L 800 3500 
L 1894 563 
L 2988 3500 
L 3597 3500 
L 2284 0 
L 1503 0 
L 191 3500 
z
" transform="scale(0.015625)"/>
      <path id="DejaVuSans-73" d="M 2834 3397 
L 2834 2853 
Q 2591 2978 2328 3040 
Q 2066 3103 1784 3103 
Q 1356 3103 1142 2972 
Q 928 2841 928 2578 
Q 928 2378 1081 2264 
Q 1234 2150 1697 2047 
L 1894 2003 
Q 2506 1872 2764 1633 
Q 3022 1394 3022 966 
Q 3022 478 2636 193 
Q 2250 -91 1575 -91 
Q 1294 -91 989 -36 
Q 684 19 347 128 
L 347 722 
Q 666 556 975 473 
Q 1284 391 1588 391 
Q 1994 391 2212 530 
Q 2431 669 2431 922 
Q 2431 1156 2273 1281 
Q 2116 1406 1581 1522 
L 1381 1569 
Q 847 1681 609 1914 
Q 372 2147 372 2553 
Q 372 3047 722 3315 
Q 1072 3584 1716 3584 
Q 2034 3584 2315 3537 
Q 2597 3491 2834 3397 
z
" transform="scale(0.015625)"/>
      <path id="DejaVuSans-23" d="M 3272 2816 
L 2363 2816 
L 2100 1772 
L 3016 1772 
L 3272 2816 
z
M 2803 4594 
L 2478 3297 
L 3391 3297 
L 3719 4594 
L 4219 4594 
L 3897 3297 
L 4872 3297 
L 4872 2816 
L 3775 2816 
L 3519 1772 
L 4513 1772 
L 4513 1294 
L 3397 1294 
L 3072 0 
L 2572 0 
L 2894 1294 
L 1978 1294 
L 1656 0 
L 1153 0 
L 1478 1294 
L 494 1294 
L 494 1772 
L 1594 1772 
L 1856 2816 
L 850 2816 
L 850 3297 
L 1978 3297 
L 2297 4594 
L 2803 4594 
z
" transform="scale(0.015625)"/>
     </defs>
     <use xlink:href="#DejaVuSans-4d"/>
     <use xlink:href="#DejaVuSans-6f" x="86.279297"/>
     <use xlink:href="#DejaVuSans-64" x="147.460938"/>
     <use xlink:href="#DejaVuSans-65" x="210.9375"/>
     <use xlink:href="#DejaVuSans-6c" x="272.460938"/>
     <use xlink:href="#DejaVuSans-20" x="300.244141"/>
     <use xlink:href="#DejaVuSans-70" x="332.03125"/>
     <use xlink:href="#DejaVuSans-65" x="395.507812"/>
     <use xlink:href="#DejaVuSans-72" x="457.03125"/>
     <use xlink:href="#DejaVuSans-66" x="498.144531"/>
     <use xlink:href="#DejaVuSans-6f" x="533.349609"/>
     <use xlink:href="#DejaVuSans-72" x="594.53125"/>
     <use xlink:href="#DejaVuSans-6d" x="633.894531"/>
     <use xlink:href="#DejaVuSans-61" x="731.306641"/>
     <use xlink:href="#DejaVuSans-6e" x="792.585938"/>
     <use xlink:href="#DejaVuSans-63" x="855.964844"/>
     <use xlink:href="#DejaVuSans-65" x="910.945312"/>
     <use xlink:href="#DejaVuSans-20" x="972.46875"/>
     <use xlink:href="#DejaVuSans-76" x="1004.255859"/>
     <use xlink:href="#DejaVuSans-73" x="1063.435547"/>
     <use xlink:href="#DejaVuSans-2e" x="1115.535156"/>
     <use xlink:href="#DejaVuSans-20" x="1147.322266"/>
     <use xlink:href="#DejaVuSans-23" x="1179.109375"/>
     <use xlink:href="#DejaVuSans-20" x="1262.898438"/>
     <use xlink:href="#DejaVuSans-6f" x="1294.685547"/>
     <use xlink:href="#DejaVuSans-66" x="1355.867188"/>
     <use xlink:href="#DejaVuSans-20" x="1391.072266"/>
     <use xlink:href="#DejaVuSans-69" x="1422.859375"/>
     <use xlink:href="#DejaVuSans-74" x="1450.642578"/>
     <use xlink:href="#DejaVuSans-65" x="1489.851562"/>
     <use xlink:href="#DejaVuSans-72" x="1551.375"/>
     <use xlink:href="#DejaVuSans-61" x="1592.488281"/>
     <use xlink:href="#DejaVuSans-74" x="1653.767578"/>
     <use xlink:href="#DejaVuSans-69" x="1692.976562"/>
     <use xlink:href="#DejaVuSans-6f" x="1720.759766"/>
     <use xlink:href="#DejaVuSans-6e" x="1781.941406"/>
     <use xlink:href="#DejaVuSans-73" x="1845.320312"/>
    </g>
   </g>
  </g>
 </g>
 <defs>
  <clipPath id="p6eb096a799">
   <rect x="57.6" y="41.472" width="357.12" height="266.112"/>
  </clipPath>
 </defs>
</svg>
