<?xml version="1.0" encoding="utf-8" standalone="no"?>
<!DOCTYPE svg PUBLIC "-//W3C//DTD SVG 1.1//EN"
  "http://www.w3.org/Graphics/SVG/1.1/DTD/svg11.dtd">
<svg height="345.6pt" version="1.1" viewBox="0 0 460.8 345.6" width="460.8pt" xmlns="http://www.w3.org/2000/svg" xmlns:xlink="http://www.w3.org/1999/xlink">
 <metadata>
  <rdf:RDF xmlns:cc="http://creativecommons.org/ns#" xmlns:dc="http://purl.org/dc/elements/1.1/" xmlns:rdf="http://www.w3.org/1999/02/22-rdf-syntax-ns#">
   <cc:Work>
    <dc:type rdf:resource="http://purl.org/dc/dcmitype/StillImage"/>
    <dc:date>2022-01-17T06:52:07.986889</dc:date>
    <dc:format>image/svg+xml</dc:format>
    <dc:creator>
     <cc:Agent>
      <dc:title>Matplotlib v3.4.3, https://matplotlib.org/</dc:title>
     </cc:Agent>
    </dc:creator>
   </cc:Work>
  </rdf:RDF>
 </metadata>
 <defs>
  <style type="text/css">*{stroke-linecap:butt;stroke-linejoin:round;}</style>
 </defs>
 <g id="figure_1">
  <g id="patch_1">
   <path d="M 0 345.6 
L 460.8 345.6 
L 460.8 0 
L 0 0 
z
" style="fill:#ffffff;"/>
  </g>
  <g id="axes_1">
   <g id="patch_2">
    <path d="M 57.6 307.584 
L 414.72 307.584 
L 414.72 41.472 
L 57.6 41.472 
z
" style="fill:#ffffff;"/>
   </g>
   <g id="matplotlib.axis_1">
    <g id="xtick_1">
     <g id="line2d_1">
      <path clip-path="url(#p1e27af3662)" d="M 72.201297 307.584 
L 72.201297 41.472 
" style="fill:none;stroke:#cccccc;stroke-linecap:round;stroke-width:0.8;"/>
     </g>
     <g id="text_1">
      <!-- 0 -->
      <g style="fill:#262626;" transform="translate(69.020047 322.182437)scale(0.1 -0.1)">
       <defs>
        <path d="M 2034 4250 
Q 1547 4250 1301 3770 
Q 1056 3291 1056 2328 
Q 1056 1369 1301 889 
Q 1547 409 2034 409 
Q 2525 409 2770 889 
Q 3016 1369 3016 2328 
Q 3016 3291 2770 3770 
Q 2525 4250 2034 4250 
z
M 2034 4750 
Q 2819 4750 3233 4129 
Q 3647 3509 3647 2328 
Q 3647 1150 3233 529 
Q 2819 -91 2034 -91 
Q 1250 -91 836 529 
Q 422 1150 422 2328 
Q 422 3509 836 4129 
Q 1250 4750 2034 4750 
z
" id="DejaVuSans-30" transform="scale(0.015625)"/>
       </defs>
       <use xlink:href="#DejaVuSans-30"/>
      </g>
     </g>
    </g>
    <g id="xtick_2">
     <g id="line2d_2">
      <path clip-path="url(#p1e27af3662)" d="M 112.987044 307.584 
L 112.987044 41.472 
" style="fill:none;stroke:#cccccc;stroke-linecap:round;stroke-width:0.8;"/>
     </g>
     <g id="text_2">
      <!-- 25 -->
      <g style="fill:#262626;" transform="translate(106.624544 322.182437)scale(0.1 -0.1)">
       <defs>
        <path d="M 1228 531 
L 3431 531 
L 3431 0 
L 469 0 
L 469 531 
Q 828 903 1448 1529 
Q 2069 2156 2228 2338 
Q 2531 2678 2651 2914 
Q 2772 3150 2772 3378 
Q 2772 3750 2511 3984 
Q 2250 4219 1831 4219 
Q 1534 4219 1204 4116 
Q 875 4013 500 3803 
L 500 4441 
Q 881 4594 1212 4672 
Q 1544 4750 1819 4750 
Q 2544 4750 2975 4387 
Q 3406 4025 3406 3419 
Q 3406 3131 3298 2873 
Q 3191 2616 2906 2266 
Q 2828 2175 2409 1742 
Q 1991 1309 1228 531 
z
" id="DejaVuSans-32" transform="scale(0.015625)"/>
        <path d="M 691 4666 
L 3169 4666 
L 3169 4134 
L 1269 4134 
L 1269 2991 
Q 1406 3038 1543 3061 
Q 1681 3084 1819 3084 
Q 2600 3084 3056 2656 
Q 3513 2228 3513 1497 
Q 3513 744 3044 326 
Q 2575 -91 1722 -91 
Q 1428 -91 1123 -41 
Q 819 9 494 109 
L 494 744 
Q 775 591 1075 516 
Q 1375 441 1709 441 
Q 2250 441 2565 725 
Q 2881 1009 2881 1497 
Q 2881 1984 2565 2268 
Q 2250 2553 1709 2553 
Q 1456 2553 1204 2497 
Q 953 2441 691 2322 
L 691 4666 
z
" id="DejaVuSans-35" transform="scale(0.015625)"/>
       </defs>
       <use xlink:href="#DejaVuSans-32"/>
       <use x="63.623047" xlink:href="#DejaVuSans-35"/>
      </g>
     </g>
    </g>
    <g id="xtick_3">
     <g id="line2d_3">
      <path clip-path="url(#p1e27af3662)" d="M 153.772791 307.584 
L 153.772791 41.472 
" style="fill:none;stroke:#cccccc;stroke-linecap:round;stroke-width:0.8;"/>
     </g>
     <g id="text_3">
      <!-- 50 -->
      <g style="fill:#262626;" transform="translate(147.410291 322.182437)scale(0.1 -0.1)">
       <use xlink:href="#DejaVuSans-35"/>
       <use x="63.623047" xlink:href="#DejaVuSans-30"/>
      </g>
     </g>
    </g>
    <g id="xtick_4">
     <g id="line2d_4">
      <path clip-path="url(#p1e27af3662)" d="M 194.558538 307.584 
L 194.558538 41.472 
" style="fill:none;stroke:#cccccc;stroke-linecap:round;stroke-width:0.8;"/>
     </g>
     <g id="text_4">
      <!-- 75 -->
      <g style="fill:#262626;" transform="translate(188.196038 322.182437)scale(0.1 -0.1)">
       <defs>
        <path d="M 525 4666 
L 3525 4666 
L 3525 4397 
L 1831 0 
L 1172 0 
L 2766 4134 
L 525 4134 
L 525 4666 
z
" id="DejaVuSans-37" transform="scale(0.015625)"/>
       </defs>
       <use xlink:href="#DejaVuSans-37"/>
       <use x="63.623047" xlink:href="#DejaVuSans-35"/>
      </g>
     </g>
    </g>
    <g id="xtick_5">
     <g id="line2d_5">
      <path clip-path="url(#p1e27af3662)" d="M 235.344285 307.584 
L 235.344285 41.472 
" style="fill:none;stroke:#cccccc;stroke-linecap:round;stroke-width:0.8;"/>
     </g>
     <g id="text_5">
      <!-- 100 -->
      <g style="fill:#262626;" transform="translate(225.800535 322.182437)scale(0.1 -0.1)">
       <defs>
        <path d="M 794 531 
L 1825 531 
L 1825 4091 
L 703 3866 
L 703 4441 
L 1819 4666 
L 2450 4666 
L 2450 531 
L 3481 531 
L 3481 0 
L 794 0 
L 794 531 
z
" id="DejaVuSans-31" transform="scale(0.015625)"/>
       </defs>
       <use xlink:href="#DejaVuSans-31"/>
       <use x="63.623047" xlink:href="#DejaVuSans-30"/>
       <use x="127.246094" xlink:href="#DejaVuSans-30"/>
      </g>
     </g>
    </g>
    <g id="xtick_6">
     <g id="line2d_6">
      <path clip-path="url(#p1e27af3662)" d="M 276.130032 307.584 
L 276.130032 41.472 
" style="fill:none;stroke:#cccccc;stroke-linecap:round;stroke-width:0.8;"/>
     </g>
     <g id="text_6">
      <!-- 125 -->
      <g style="fill:#262626;" transform="translate(266.586282 322.182437)scale(0.1 -0.1)">
       <use xlink:href="#DejaVuSans-31"/>
       <use x="63.623047" xlink:href="#DejaVuSans-32"/>
       <use x="127.246094" xlink:href="#DejaVuSans-35"/>
      </g>
     </g>
    </g>
    <g id="xtick_7">
     <g id="line2d_7">
      <path clip-path="url(#p1e27af3662)" d="M 316.915779 307.584 
L 316.915779 41.472 
" style="fill:none;stroke:#cccccc;stroke-linecap:round;stroke-width:0.8;"/>
     </g>
     <g id="text_7">
      <!-- 150 -->
      <g style="fill:#262626;" transform="translate(307.372029 322.182437)scale(0.1 -0.1)">
       <use xlink:href="#DejaVuSans-31"/>
       <use x="63.623047" xlink:href="#DejaVuSans-35"/>
       <use x="127.246094" xlink:href="#DejaVuSans-30"/>
      </g>
     </g>
    </g>
    <g id="xtick_8">
     <g id="line2d_8">
      <path clip-path="url(#p1e27af3662)" d="M 357.701526 307.584 
L 357.701526 41.472 
" style="fill:none;stroke:#cccccc;stroke-linecap:round;stroke-width:0.8;"/>
     </g>
     <g id="text_8">
      <!-- 175 -->
      <g style="fill:#262626;" transform="translate(348.157776 322.182437)scale(0.1 -0.1)">
       <use xlink:href="#DejaVuSans-31"/>
       <use x="63.623047" xlink:href="#DejaVuSans-37"/>
       <use x="127.246094" xlink:href="#DejaVuSans-35"/>
      </g>
     </g>
    </g>
    <g id="xtick_9">
     <g id="line2d_9">
      <path clip-path="url(#p1e27af3662)" d="M 398.487273 307.584 
L 398.487273 41.472 
" style="fill:none;stroke:#cccccc;stroke-linecap:round;stroke-width:0.8;"/>
     </g>
     <g id="text_9">
      <!-- 200 -->
      <g style="fill:#262626;" transform="translate(388.943523 322.182437)scale(0.1 -0.1)">
       <use xlink:href="#DejaVuSans-32"/>
       <use x="63.623047" xlink:href="#DejaVuSans-30"/>
       <use x="127.246094" xlink:href="#DejaVuSans-30"/>
      </g>
     </g>
    </g>
    <g id="text_10">
     <!-- Auroc -->
     <g style="fill:#262626;" transform="translate(221.819375 335.860562)scale(0.1 -0.1)">
      <defs>
       <path d="M 2188 4044 
L 1331 1722 
L 3047 1722 
L 2188 4044 
z
M 1831 4666 
L 2547 4666 
L 4325 0 
L 3669 0 
L 3244 1197 
L 1141 1197 
L 716 0 
L 50 0 
L 1831 4666 
z
" id="DejaVuSans-41" transform="scale(0.015625)"/>
       <path d="M 544 1381 
L 544 3500 
L 1119 3500 
L 1119 1403 
Q 1119 906 1312 657 
Q 1506 409 1894 409 
Q 2359 409 2629 706 
Q 2900 1003 2900 1516 
L 2900 3500 
L 3475 3500 
L 3475 0 
L 2900 0 
L 2900 538 
Q 2691 219 2414 64 
Q 2138 -91 1772 -91 
Q 1169 -91 856 284 
Q 544 659 544 1381 
z
M 1991 3584 
L 1991 3584 
z
" id="DejaVuSans-75" transform="scale(0.015625)"/>
       <path d="M 2631 2963 
Q 2534 3019 2420 3045 
Q 2306 3072 2169 3072 
Q 1681 3072 1420 2755 
Q 1159 2438 1159 1844 
L 1159 0 
L 581 0 
L 581 3500 
L 1159 3500 
L 1159 2956 
Q 1341 3275 1631 3429 
Q 1922 3584 2338 3584 
Q 2397 3584 2469 3576 
Q 2541 3569 2628 3553 
L 2631 2963 
z
" id="DejaVuSans-72" transform="scale(0.015625)"/>
       <path d="M 1959 3097 
Q 1497 3097 1228 2736 
Q 959 2375 959 1747 
Q 959 1119 1226 758 
Q 1494 397 1959 397 
Q 2419 397 2687 759 
Q 2956 1122 2956 1747 
Q 2956 2369 2687 2733 
Q 2419 3097 1959 3097 
z
M 1959 3584 
Q 2709 3584 3137 3096 
Q 3566 2609 3566 1747 
Q 3566 888 3137 398 
Q 2709 -91 1959 -91 
Q 1206 -91 779 398 
Q 353 888 353 1747 
Q 353 2609 779 3096 
Q 1206 3584 1959 3584 
z
" id="DejaVuSans-6f" transform="scale(0.015625)"/>
       <path d="M 3122 3366 
L 3122 2828 
Q 2878 2963 2633 3030 
Q 2388 3097 2138 3097 
Q 1578 3097 1268 2742 
Q 959 2388 959 1747 
Q 959 1106 1268 751 
Q 1578 397 2138 397 
Q 2388 397 2633 464 
Q 2878 531 3122 666 
L 3122 134 
Q 2881 22 2623 -34 
Q 2366 -91 2075 -91 
Q 1284 -91 818 406 
Q 353 903 353 1747 
Q 353 2603 823 3093 
Q 1294 3584 2113 3584 
Q 2378 3584 2631 3529 
Q 2884 3475 3122 3366 
z
" id="DejaVuSans-63" transform="scale(0.015625)"/>
      </defs>
      <use xlink:href="#DejaVuSans-41"/>
      <use x="68.408203" xlink:href="#DejaVuSans-75"/>
      <use x="131.787109" xlink:href="#DejaVuSans-72"/>
      <use x="170.650391" xlink:href="#DejaVuSans-6f"/>
      <use x="231.832031" xlink:href="#DejaVuSans-63"/>
     </g>
    </g>
   </g>
   <g id="matplotlib.axis_2">
    <g id="ytick_1">
     <g id="line2d_10">
      <path clip-path="url(#p1e27af3662)" d="M 57.6 300.853614 
L 414.72 300.853614 
" style="fill:none;stroke:#cccccc;stroke-linecap:round;stroke-width:0.8;"/>
     </g>
     <g id="text_11">
      <!-- 0.550 -->
      <g style="fill:#262626;" transform="translate(21.971875 304.652833)scale(0.1 -0.1)">
       <defs>
        <path d="M 684 794 
L 1344 794 
L 1344 0 
L 684 0 
L 684 794 
z
" id="DejaVuSans-2e" transform="scale(0.015625)"/>
       </defs>
       <use xlink:href="#DejaVuSans-30"/>
       <use x="63.623047" xlink:href="#DejaVuSans-2e"/>
       <use x="95.410156" xlink:href="#DejaVuSans-35"/>
       <use x="159.033203" xlink:href="#DejaVuSans-35"/>
       <use x="222.65625" xlink:href="#DejaVuSans-30"/>
      </g>
     </g>
    </g>
    <g id="ytick_2">
     <g id="line2d_11">
      <path clip-path="url(#p1e27af3662)" d="M 57.6 268.996761 
L 414.72 268.996761 
" style="fill:none;stroke:#cccccc;stroke-linecap:round;stroke-width:0.8;"/>
     </g>
     <g id="text_12">
      <!-- 0.575 -->
      <g style="fill:#262626;" transform="translate(21.971875 272.795979)scale(0.1 -0.1)">
       <use xlink:href="#DejaVuSans-30"/>
       <use x="63.623047" xlink:href="#DejaVuSans-2e"/>
       <use x="95.410156" xlink:href="#DejaVuSans-35"/>
       <use x="159.033203" xlink:href="#DejaVuSans-37"/>
       <use x="222.65625" xlink:href="#DejaVuSans-35"/>
      </g>
     </g>
    </g>
    <g id="ytick_3">
     <g id="line2d_12">
      <path clip-path="url(#p1e27af3662)" d="M 57.6 237.139907 
L 414.72 237.139907 
" style="fill:none;stroke:#cccccc;stroke-linecap:round;stroke-width:0.8;"/>
     </g>
     <g id="text_13">
      <!-- 0.600 -->
      <g style="fill:#262626;" transform="translate(21.971875 240.939126)scale(0.1 -0.1)">
       <defs>
        <path d="M 2113 2584 
Q 1688 2584 1439 2293 
Q 1191 2003 1191 1497 
Q 1191 994 1439 701 
Q 1688 409 2113 409 
Q 2538 409 2786 701 
Q 3034 994 3034 1497 
Q 3034 2003 2786 2293 
Q 2538 2584 2113 2584 
z
M 3366 4563 
L 3366 3988 
Q 3128 4100 2886 4159 
Q 2644 4219 2406 4219 
Q 1781 4219 1451 3797 
Q 1122 3375 1075 2522 
Q 1259 2794 1537 2939 
Q 1816 3084 2150 3084 
Q 2853 3084 3261 2657 
Q 3669 2231 3669 1497 
Q 3669 778 3244 343 
Q 2819 -91 2113 -91 
Q 1303 -91 875 529 
Q 447 1150 447 2328 
Q 447 3434 972 4092 
Q 1497 4750 2381 4750 
Q 2619 4750 2861 4703 
Q 3103 4656 3366 4563 
z
" id="DejaVuSans-36" transform="scale(0.015625)"/>
       </defs>
       <use xlink:href="#DejaVuSans-30"/>
       <use x="63.623047" xlink:href="#DejaVuSans-2e"/>
       <use x="95.410156" xlink:href="#DejaVuSans-36"/>
       <use x="159.033203" xlink:href="#DejaVuSans-30"/>
       <use x="222.65625" xlink:href="#DejaVuSans-30"/>
      </g>
     </g>
    </g>
    <g id="ytick_4">
     <g id="line2d_13">
      <path clip-path="url(#p1e27af3662)" d="M 57.6 205.283054 
L 414.72 205.283054 
" style="fill:none;stroke:#cccccc;stroke-linecap:round;stroke-width:0.8;"/>
     </g>
     <g id="text_14">
      <!-- 0.625 -->
      <g style="fill:#262626;" transform="translate(21.971875 209.082272)scale(0.1 -0.1)">
       <use xlink:href="#DejaVuSans-30"/>
       <use x="63.623047" xlink:href="#DejaVuSans-2e"/>
       <use x="95.410156" xlink:href="#DejaVuSans-36"/>
       <use x="159.033203" xlink:href="#DejaVuSans-32"/>
       <use x="222.65625" xlink:href="#DejaVuSans-35"/>
      </g>
     </g>
    </g>
    <g id="ytick_5">
     <g id="line2d_14">
      <path clip-path="url(#p1e27af3662)" d="M 57.6 173.4262 
L 414.72 173.4262 
" style="fill:none;stroke:#cccccc;stroke-linecap:round;stroke-width:0.8;"/>
     </g>
     <g id="text_15">
      <!-- 0.650 -->
      <g style="fill:#262626;" transform="translate(21.971875 177.225419)scale(0.1 -0.1)">
       <use xlink:href="#DejaVuSans-30"/>
       <use x="63.623047" xlink:href="#DejaVuSans-2e"/>
       <use x="95.410156" xlink:href="#DejaVuSans-36"/>
       <use x="159.033203" xlink:href="#DejaVuSans-35"/>
       <use x="222.65625" xlink:href="#DejaVuSans-30"/>
      </g>
     </g>
    </g>
    <g id="ytick_6">
     <g id="line2d_15">
      <path clip-path="url(#p1e27af3662)" d="M 57.6 141.569347 
L 414.72 141.569347 
" style="fill:none;stroke:#cccccc;stroke-linecap:round;stroke-width:0.8;"/>
     </g>
     <g id="text_16">
      <!-- 0.675 -->
      <g style="fill:#262626;" transform="translate(21.971875 145.368565)scale(0.1 -0.1)">
       <use xlink:href="#DejaVuSans-30"/>
       <use x="63.623047" xlink:href="#DejaVuSans-2e"/>
       <use x="95.410156" xlink:href="#DejaVuSans-36"/>
       <use x="159.033203" xlink:href="#DejaVuSans-37"/>
       <use x="222.65625" xlink:href="#DejaVuSans-35"/>
      </g>
     </g>
    </g>
    <g id="ytick_7">
     <g id="line2d_16">
      <path clip-path="url(#p1e27af3662)" d="M 57.6 109.712493 
L 414.72 109.712493 
" style="fill:none;stroke:#cccccc;stroke-linecap:round;stroke-width:0.8;"/>
     </g>
     <g id="text_17">
      <!-- 0.700 -->
      <g style="fill:#262626;" transform="translate(21.971875 113.511712)scale(0.1 -0.1)">
       <use xlink:href="#DejaVuSans-30"/>
       <use x="63.623047" xlink:href="#DejaVuSans-2e"/>
       <use x="95.410156" xlink:href="#DejaVuSans-37"/>
       <use x="159.033203" xlink:href="#DejaVuSans-30"/>
       <use x="222.65625" xlink:href="#DejaVuSans-30"/>
      </g>
     </g>
    </g>
    <g id="ytick_8">
     <g id="line2d_17">
      <path clip-path="url(#p1e27af3662)" d="M 57.6 77.855639 
L 414.72 77.855639 
" style="fill:none;stroke:#cccccc;stroke-linecap:round;stroke-width:0.8;"/>
     </g>
     <g id="text_18">
      <!-- 0.725 -->
      <g style="fill:#262626;" transform="translate(21.971875 81.654858)scale(0.1 -0.1)">
       <use xlink:href="#DejaVuSans-30"/>
       <use x="63.623047" xlink:href="#DejaVuSans-2e"/>
       <use x="95.410156" xlink:href="#DejaVuSans-37"/>
       <use x="159.033203" xlink:href="#DejaVuSans-32"/>
       <use x="222.65625" xlink:href="#DejaVuSans-35"/>
      </g>
     </g>
    </g>
    <g id="ytick_9">
     <g id="line2d_18">
      <path clip-path="url(#p1e27af3662)" d="M 57.6 45.998786 
L 414.72 45.998786 
" style="fill:none;stroke:#cccccc;stroke-linecap:round;stroke-width:0.8;"/>
     </g>
     <g id="text_19">
      <!-- 0.750 -->
      <g style="fill:#262626;" transform="translate(21.971875 49.798005)scale(0.1 -0.1)">
       <use xlink:href="#DejaVuSans-30"/>
       <use x="63.623047" xlink:href="#DejaVuSans-2e"/>
       <use x="95.410156" xlink:href="#DejaVuSans-37"/>
       <use x="159.033203" xlink:href="#DejaVuSans-35"/>
       <use x="222.65625" xlink:href="#DejaVuSans-30"/>
      </g>
     </g>
    </g>
    <g id="text_20">
     <!-- Iteration -->
     <g style="fill:#262626;" transform="translate(15.892187 195.736594)rotate(-90)scale(0.1 -0.1)">
      <defs>
       <path d="M 628 4666 
L 1259 4666 
L 1259 0 
L 628 0 
L 628 4666 
z
" id="DejaVuSans-49" transform="scale(0.015625)"/>
       <path d="M 1172 4494 
L 1172 3500 
L 2356 3500 
L 2356 3053 
L 1172 3053 
L 1172 1153 
Q 1172 725 1289 603 
Q 1406 481 1766 481 
L 2356 481 
L 2356 0 
L 1766 0 
Q 1100 0 847 248 
Q 594 497 594 1153 
L 594 3053 
L 172 3053 
L 172 3500 
L 594 3500 
L 594 4494 
L 1172 4494 
z
" id="DejaVuSans-74" transform="scale(0.015625)"/>
       <path d="M 3597 1894 
L 3597 1613 
L 953 1613 
Q 991 1019 1311 708 
Q 1631 397 2203 397 
Q 2534 397 2845 478 
Q 3156 559 3463 722 
L 3463 178 
Q 3153 47 2828 -22 
Q 2503 -91 2169 -91 
Q 1331 -91 842 396 
Q 353 884 353 1716 
Q 353 2575 817 3079 
Q 1281 3584 2069 3584 
Q 2775 3584 3186 3129 
Q 3597 2675 3597 1894 
z
M 3022 2063 
Q 3016 2534 2758 2815 
Q 2500 3097 2075 3097 
Q 1594 3097 1305 2825 
Q 1016 2553 972 2059 
L 3022 2063 
z
" id="DejaVuSans-65" transform="scale(0.015625)"/>
       <path d="M 2194 1759 
Q 1497 1759 1228 1600 
Q 959 1441 959 1056 
Q 959 750 1161 570 
Q 1363 391 1709 391 
Q 2188 391 2477 730 
Q 2766 1069 2766 1631 
L 2766 1759 
L 2194 1759 
z
M 3341 1997 
L 3341 0 
L 2766 0 
L 2766 531 
Q 2569 213 2275 61 
Q 1981 -91 1556 -91 
Q 1019 -91 701 211 
Q 384 513 384 1019 
Q 384 1609 779 1909 
Q 1175 2209 1959 2209 
L 2766 2209 
L 2766 2266 
Q 2766 2663 2505 2880 
Q 2244 3097 1772 3097 
Q 1472 3097 1187 3025 
Q 903 2953 641 2809 
L 641 3341 
Q 956 3463 1253 3523 
Q 1550 3584 1831 3584 
Q 2591 3584 2966 3190 
Q 3341 2797 3341 1997 
z
" id="DejaVuSans-61" transform="scale(0.015625)"/>
       <path d="M 603 3500 
L 1178 3500 
L 1178 0 
L 603 0 
L 603 3500 
z
M 603 4863 
L 1178 4863 
L 1178 4134 
L 603 4134 
L 603 4863 
z
" id="DejaVuSans-69" transform="scale(0.015625)"/>
       <path d="M 3513 2113 
L 3513 0 
L 2938 0 
L 2938 2094 
Q 2938 2591 2744 2837 
Q 2550 3084 2163 3084 
Q 1697 3084 1428 2787 
Q 1159 2491 1159 1978 
L 1159 0 
L 581 0 
L 581 3500 
L 1159 3500 
L 1159 2956 
Q 1366 3272 1645 3428 
Q 1925 3584 2291 3584 
Q 2894 3584 3203 3211 
Q 3513 2838 3513 2113 
z
" id="DejaVuSans-6e" transform="scale(0.015625)"/>
      </defs>
      <use xlink:href="#DejaVuSans-49"/>
      <use x="29.492188" xlink:href="#DejaVuSans-74"/>
      <use x="68.701172" xlink:href="#DejaVuSans-65"/>
      <use x="130.224609" xlink:href="#DejaVuSans-72"/>
      <use x="171.337891" xlink:href="#DejaVuSans-61"/>
      <use x="232.617188" xlink:href="#DejaVuSans-74"/>
      <use x="271.826172" xlink:href="#DejaVuSans-69"/>
      <use x="299.609375" xlink:href="#DejaVuSans-6f"/>
      <use x="360.791016" xlink:href="#DejaVuSans-6e"/>
     </g>
    </g>
   </g>
   <g id="PolyCollection_1">
    <defs>
     <path d="M 73.832727 -251.84927 
L 73.832727 -159.856987 
L 75.464157 -107.000904 
L 77.095587 -151.293049 
L 78.727017 -119.596145 
L 80.358447 -167.132652 
L 81.989877 -137.04396 
L 83.621307 -151.800112 
L 85.252736 -211.523304 
L 86.884166 -132.93618 
L 88.515596 -171.045801 
L 90.147026 -152.346731 
L 91.778456 -182.746781 
L 93.409886 -179.975784 
L 95.041316 -109.909508 
L 96.672746 -143.801737 
L 98.304175 -109.152282 
L 99.935605 -133.742369 
L 101.567035 -169.498892 
L 103.198465 -179.661143 
L 104.829895 -130.224899 
L 106.461325 -99.703325 
L 108.092755 -144.76603 
L 109.724185 -167.407624 
L 111.355614 -191.661897 
L 112.987044 -135.560453 
L 114.618474 -125.960422 
L 116.249904 -198.102486 
L 117.881334 -124.168222 
L 119.512764 -181.444962 
L 121.144194 -160.772152 
L 122.775624 -192.725053 
L 124.407053 -138.789325 
L 126.038483 -136.066288 
L 127.669913 -183.874733 
L 129.301343 -157.156464 
L 130.932773 -174.348625 
L 132.564203 -168.407137 
L 134.195633 -133.675348 
L 135.827063 -152.490115 
L 137.458492 -55.348002 
L 139.089922 -111.272199 
L 140.721352 -165.776787 
L 142.352782 -173.132461 
L 143.984212 -80.468669 
L 145.615642 -62.773835 
L 147.247072 -138.571758 
L 148.878502 -131.139753 
L 150.509931 -155.121287 
L 152.141361 -169.278795 
L 153.772791 -164.694277 
L 155.404221 -161.746353 
L 157.035651 -73.949654 
L 158.667081 -114.66235 
L 160.298511 -133.676579 
L 161.929941 -145.523837 
L 163.56137 -136.965094 
L 165.1928 -105.525167 
L 166.82423 -118.024864 
L 168.45566 -208.330283 
L 170.08709 -202.905713 
L 171.71852 -193.017677 
L 173.34995 -160.256193 
L 174.98138 -151.790071 
L 176.61281 -173.205602 
L 178.244239 -138.787221 
L 179.875669 -78.253822 
L 181.507099 -156.437052 
L 183.138529 -146.89873 
L 184.769959 -158.030222 
L 186.401389 -139.37833 
L 188.032819 -110.983494 
L 189.664249 -66.503085 
L 191.295678 -171.636596 
L 192.927108 -152.215763 
L 194.558538 -129.925179 
L 196.189968 -154.641882 
L 197.821398 -177.02559 
L 199.452828 -151.776144 
L 201.084258 -164.509162 
L 202.715688 -155.133292 
L 204.347117 -86.747792 
L 205.978547 -133.739057 
L 207.609977 -134.287988 
L 209.241407 -123.624178 
L 210.872837 -114.562391 
L 212.504267 -131.781382 
L 214.135697 -86.942342 
L 215.767127 -186.477926 
L 217.398556 -188.10033 
L 219.029986 -188.040966 
L 220.661416 -210.064048 
L 222.292846 -126.948179 
L 223.924276 -163.155305 
L 225.555706 -91.965287 
L 227.187136 -124.163885 
L 228.818566 -152.464782 
L 230.449995 -170.354195 
L 232.081425 -143.266854 
L 233.712855 -161.269215 
L 235.344285 -134.046528 
L 236.975715 -159.922906 
L 238.607145 -179.929436 
L 240.238575 -194.61468 
L 241.870005 -98.366576 
L 243.501434 -131.87267 
L 245.132864 -183.252548 
L 246.764294 -135.610749 
L 248.395724 -184.5059 
L 250.027154 -117.317524 
L 251.658584 -222.536771 
L 253.290014 -117.593746 
L 254.921444 -92.03141 
L 256.552873 -189.186289 
L 258.184303 -164.552101 
L 259.815733 -176.521658 
L 261.447163 -154.135161 
L 263.078593 -177.770475 
L 264.710023 -186.899149 
L 266.341453 -172.484193 
L 267.972883 -169.287754 
L 269.604312 -142.313913 
L 271.235742 -171.627316 
L 272.867172 -189.330249 
L 274.498602 -196.407337 
L 276.130032 -199.071414 
L 277.761462 -150.356297 
L 279.392892 -155.690745 
L 281.024322 -166.331455 
L 282.655751 -128.688153 
L 284.287181 -91.096218 
L 285.918611 -98.090311 
L 287.550041 -152.35039 
L 289.181471 -88.117491 
L 290.812901 -169.147528 
L 292.444331 -198.07672 
L 294.075761 -74.313181 
L 295.70719 -193.717313 
L 297.33862 -122.476605 
L 298.97005 -152.530128 
L 300.60148 -164.512903 
L 302.23291 -189.991497 
L 303.86434 -164.322643 
L 305.49577 -175.440135 
L 307.1272 -139.833112 
L 308.75863 -197.335662 
L 310.390059 -168.288849 
L 312.021489 -179.548073 
L 313.652919 -120.946929 
L 315.284349 -170.34001 
L 316.915779 -174.671246 
L 318.547209 -168.111154 
L 320.178639 -184.981042 
L 321.810069 -169.483628 
L 323.441498 -181.753572 
L 325.072928 -136.787732 
L 326.704358 -50.112 
L 328.335788 -151.351064 
L 329.967218 -188.228588 
L 331.598648 -186.762156 
L 333.230078 -182.949157 
L 334.861508 -128.094052 
L 336.492937 -134.622169 
L 338.124367 -144.220092 
L 339.755797 -176.731556 
L 341.387227 -156.885427 
L 343.018657 -103.010052 
L 344.650087 -119.040889 
L 346.281517 -159.081975 
L 347.912947 -74.407213 
L 349.544376 -191.098879 
L 351.175806 -115.291013 
L 352.807236 -182.550212 
L 354.438666 -172.856155 
L 356.070096 -198.555147 
L 357.701526 -166.697518 
L 359.332956 -195.753739 
L 360.964386 -172.346112 
L 362.595815 -180.623792 
L 364.227245 -119.60357 
L 365.858675 -140.323498 
L 367.490105 -114.526466 
L 369.121535 -193.124804 
L 370.752965 -98.567251 
L 372.384395 -135.957175 
L 374.015825 -209.325143 
L 375.647254 -178.070089 
L 377.278684 -125.070446 
L 378.910114 -128.057712 
L 380.541544 -107.081987 
L 382.172974 -119.222204 
L 383.804404 -163.192261 
L 385.435834 -142.017293 
L 387.067264 -174.261518 
L 388.698693 -139.250541 
L 390.330123 -87.564392 
L 391.961553 -132.025827 
L 393.592983 -140.455207 
L 395.224413 -151.832494 
L 396.855843 -151.259227 
L 398.487273 -189.561789 
L 398.487273 -240.127672 
L 398.487273 -240.127672 
L 396.855843 -237.080613 
L 395.224413 -207.872635 
L 393.592983 -235.937594 
L 391.961553 -281.133193 
L 390.330123 -225.32133 
L 388.698693 -215.932189 
L 387.067264 -244.061454 
L 385.435834 -253.259269 
L 383.804404 -228.983444 
L 382.172974 -266.525852 
L 380.541544 -195.670442 
L 378.910114 -234.682171 
L 377.278684 -219.77303 
L 375.647254 -242.733652 
L 374.015825 -263.313559 
L 372.384395 -236.781741 
L 370.752965 -200.121426 
L 369.121535 -253.932907 
L 367.490105 -242.389666 
L 365.858675 -286.372734 
L 364.227245 -260.226663 
L 362.595815 -279.151704 
L 360.964386 -262.147141 
L 359.332956 -228.161128 
L 357.701526 -213.094529 
L 356.070096 -231.313419 
L 354.438666 -239.55389 
L 352.807236 -222.474732 
L 351.175806 -259.048757 
L 349.544376 -259.419747 
L 347.912947 -233.557693 
L 346.281517 -239.218832 
L 344.650087 -263.545102 
L 343.018657 -217.644962 
L 341.387227 -240.996578 
L 339.755797 -244.791583 
L 338.124367 -271.451326 
L 336.492937 -235.252712 
L 334.861508 -265.790031 
L 333.230078 -232.142224 
L 331.598648 -241.835936 
L 329.967218 -265.040799 
L 328.335788 -261.253901 
L 326.704358 -209.480314 
L 325.072928 -279.7217 
L 323.441498 -265.596622 
L 321.810069 -278.247061 
L 320.178639 -270.822721 
L 318.547209 -232.119857 
L 316.915779 -233.100453 
L 315.284349 -252.005532 
L 313.652919 -250.882188 
L 312.021489 -213.155396 
L 310.390059 -221.104568 
L 308.75863 -243.47145 
L 307.1272 -239.086569 
L 305.49577 -244.643694 
L 303.86434 -238.516173 
L 302.23291 -269.445199 
L 300.60148 -258.385256 
L 298.97005 -224.054513 
L 297.33862 -248.84741 
L 295.70719 -246.700061 
L 294.075761 -258.777989 
L 292.444331 -252.41387 
L 290.812901 -242.528022 
L 289.181471 -274.892453 
L 287.550041 -243.588881 
L 285.918611 -251.38006 
L 284.287181 -208.717206 
L 282.655751 -279.217464 
L 281.024322 -273.966174 
L 279.392892 -234.682409 
L 277.761462 -202.658688 
L 276.130032 -238.775948 
L 274.498602 -226.577601 
L 272.867172 -230.70983 
L 271.235742 -230.795575 
L 269.604312 -207.412278 
L 267.972883 -217.777453 
L 266.341453 -258.583882 
L 264.710023 -252.48375 
L 263.078593 -254.340497 
L 261.447163 -215.513939 
L 259.815733 -259.775892 
L 258.184303 -196.496008 
L 256.552873 -219.198721 
L 254.921444 -232.749043 
L 253.290014 -244.788373 
L 251.658584 -292.032 
L 250.027154 -228.65876 
L 248.395724 -265.782272 
L 246.764294 -233.323523 
L 245.132864 -213.121443 
L 243.501434 -208.525412 
L 241.870005 -253.504184 
L 240.238575 -230.644809 
L 238.607145 -218.859595 
L 236.975715 -271.065066 
L 235.344285 -254.740047 
L 233.712855 -243.910905 
L 232.081425 -273.934454 
L 230.449995 -262.149802 
L 228.818566 -256.859502 
L 227.187136 -250.369196 
L 225.555706 -260.485887 
L 223.924276 -291.028708 
L 222.292846 -222.576211 
L 220.661416 -291.686807 
L 219.029986 -227.053085 
L 217.398556 -236.136494 
L 215.767127 -280.867116 
L 214.135697 -263.206142 
L 212.504267 -231.215212 
L 210.872837 -265.152581 
L 209.241407 -281.096678 
L 207.609977 -243.863513 
L 205.978547 -222.27193 
L 204.347117 -193.821161 
L 202.715688 -262.415853 
L 201.084258 -232.904028 
L 199.452828 -243.925074 
L 197.821398 -247.642874 
L 196.189968 -260.274913 
L 194.558538 -237.02148 
L 192.927108 -243.256541 
L 191.295678 -236.694806 
L 189.664249 -281.123244 
L 188.032819 -269.945982 
L 186.401389 -229.60996 
L 184.769959 -281.467443 
L 183.138529 -258.924998 
L 181.507099 -233.460611 
L 179.875669 -242.321705 
L 178.244239 -281.572351 
L 176.61281 -270.107747 
L 174.98138 -206.573312 
L 173.34995 -269.696072 
L 171.71852 -212.977453 
L 170.08709 -257.943386 
L 168.45566 -240.28792 
L 166.82423 -237.710893 
L 165.1928 -257.70681 
L 163.56137 -203.033768 
L 161.929941 -249.598986 
L 160.298511 -254.732205 
L 158.667081 -235.608071 
L 157.035651 -247.565421 
L 155.404221 -259.397009 
L 153.772791 -247.869917 
L 152.141361 -245.569193 
L 150.509931 -243.92377 
L 148.878502 -242.222539 
L 147.247072 -242.487528 
L 145.615642 -277.956235 
L 143.984212 -219.968284 
L 142.352782 -247.010522 
L 140.721352 -260.16174 
L 139.089922 -201.746311 
L 137.458492 -252.242245 
L 135.827063 -250.78794 
L 134.195633 -195.123191 
L 132.564203 -262.994604 
L 130.932773 -271.838003 
L 129.301343 -235.235009 
L 127.669913 -234.257529 
L 126.038483 -222.772277 
L 124.407053 -236.853063 
L 122.775624 -245.464088 
L 121.144194 -264.504898 
L 119.512764 -251.470339 
L 117.881334 -220.869918 
L 116.249904 -238.732585 
L 114.618474 -281.629296 
L 112.987044 -241.192201 
L 111.355614 -212.9311 
L 109.724185 -251.776778 
L 108.092755 -279.979046 
L 106.461325 -253.017157 
L 104.829895 -283.487148 
L 103.198465 -245.456212 
L 101.567035 -238.009079 
L 99.935605 -247.627783 
L 98.304175 -283.093052 
L 96.672746 -279.71189 
L 95.041316 -258.002407 
L 93.409886 -237.317233 
L 91.778456 -281.528008 
L 90.147026 -271.147589 
L 88.515596 -227.364481 
L 86.884166 -238.030995 
L 85.252736 -283.752661 
L 83.621307 -271.515616 
L 81.989877 -268.30859 
L 80.358447 -254.982231 
L 78.727017 -248.160697 
L 77.095587 -264.631212 
L 75.464157 -231.900016 
L 73.832727 -251.84927 
z
" id="mcc0d43bce2" style="stroke:#ffffff;stroke-opacity:0.2;"/>
    </defs>
    <g clip-path="url(#p1e27af3662)">
     <use style="fill:#1f77b4;fill-opacity:0.2;stroke:#ffffff;stroke-opacity:0.2;" x="0" xlink:href="#mcc0d43bce2" y="345.6"/>
    </g>
   </g>
   <g id="LineCollection_1">
    <path clip-path="url(#p1e27af3662)" d="M 398.487273 295.488 
L 398.487273 53.568 
" style="fill:none;stroke:#1f77b4;stroke-dasharray:5.55,2.4;stroke-dashoffset:0;stroke-width:1.5;"/>
   </g>
   <g id="line2d_19">
    <path clip-path="url(#p1e27af3662)" d="M 73.832727 139.746872 
L 75.464157 176.14954 
L 77.095587 137.63787 
L 78.727017 161.721579 
L 80.358447 134.542559 
L 81.989877 142.923725 
L 83.621307 133.942136 
L 85.252736 97.962018 
L 86.884166 160.116413 
L 88.515596 146.394859 
L 90.147026 133.85284 
L 91.778456 113.462605 
L 95.041316 161.644042 
L 96.672746 133.843187 
L 98.304175 149.477333 
L 99.935605 154.914924 
L 101.567035 141.846014 
L 103.198465 133.041322 
L 104.829895 138.743976 
L 106.461325 169.239759 
L 108.092755 133.227462 
L 109.724185 136.007799 
L 111.355614 143.303501 
L 112.987044 157.223673 
L 116.249904 127.182465 
L 117.881334 173.08093 
L 119.512764 129.142349 
L 121.144194 132.961475 
L 122.775624 126.50543 
L 124.407053 157.778806 
L 126.038483 166.180717 
L 127.669913 136.533869 
L 129.301343 149.404263 
L 130.932773 122.506686 
L 132.564203 129.899129 
L 134.195633 181.200731 
L 135.827063 143.960973 
L 137.458492 191.804876 
L 139.089922 189.090745 
L 140.721352 132.630737 
L 142.352782 135.528509 
L 143.984212 195.381524 
L 147.247072 155.070357 
L 148.878502 158.918854 
L 150.509931 146.077471 
L 152.141361 138.176006 
L 153.772791 139.317903 
L 155.404221 135.028319 
L 157.035651 184.842463 
L 158.667081 170.46479 
L 160.298511 151.395608 
L 161.929941 148.038588 
L 163.56137 175.600569 
L 165.1928 163.984012 
L 166.82423 167.732121 
L 168.45566 121.290898 
L 170.08709 115.17545 
L 171.71852 142.602435 
L 173.34995 130.623868 
L 174.98138 166.418309 
L 176.61281 123.943325 
L 178.244239 135.420214 
L 179.875669 185.312237 
L 181.507099 150.651169 
L 183.138529 142.688136 
L 184.769959 125.851168 
L 186.401389 161.105855 
L 188.032819 155.135262 
L 189.664249 171.786835 
L 191.295678 141.434299 
L 192.927108 147.863848 
L 194.558538 162.126671 
L 196.189968 138.141603 
L 197.821398 133.265768 
L 199.452828 147.749391 
L 201.084258 146.893405 
L 202.715688 136.825428 
L 204.347117 205.315523 
L 205.978547 167.594506 
L 207.609977 156.52425 
L 209.241407 143.239572 
L 210.872837 155.742514 
L 212.504267 164.101703 
L 214.135697 170.525758 
L 215.767127 111.927479 
L 217.398556 133.481588 
L 219.029986 138.052974 
L 220.661416 94.724573 
L 222.292846 170.837805 
L 223.924276 118.507994 
L 225.555706 169.374413 
L 227.187136 158.333459 
L 228.818566 140.937858 
L 230.449995 129.348002 
L 232.081425 136.999346 
L 233.712855 143.00994 
L 235.344285 151.206712 
L 236.975715 130.106014 
L 238.607145 146.205484 
L 240.238575 132.970255 
L 241.870005 169.66462 
L 243.501434 175.400959 
L 245.132864 147.413005 
L 246.764294 161.132864 
L 248.395724 120.455914 
L 250.027154 172.611858 
L 251.658584 88.315614 
L 253.290014 164.408941 
L 254.921444 183.209773 
L 256.552873 141.407495 
L 258.184303 165.075946 
L 259.815733 127.451225 
L 261.447163 160.77545 
L 263.078593 129.544514 
L 264.710023 125.90855 
L 266.341453 130.065962 
L 267.972883 152.067397 
L 269.604312 170.736904 
L 271.235742 144.388555 
L 272.867172 135.57996 
L 274.498602 134.107531 
L 276.130032 126.676319 
L 277.761462 169.092508 
L 279.392892 150.413423 
L 281.024322 125.451186 
L 282.655751 141.647191 
L 284.287181 195.693288 
L 287.550041 147.630365 
L 289.181471 164.095028 
L 290.812901 139.762225 
L 292.444331 120.354705 
L 294.075761 179.054415 
L 295.70719 125.391313 
L 297.33862 159.937993 
L 298.97005 157.30768 
L 300.60148 134.150921 
L 302.23291 115.881652 
L 303.86434 144.180592 
L 305.49577 135.558086 
L 307.1272 156.14016 
L 308.75863 125.196444 
L 310.390059 150.903292 
L 312.021489 149.248265 
L 313.652919 159.685442 
L 315.284349 134.427229 
L 316.915779 141.71415 
L 318.547209 145.484494 
L 320.178639 117.698119 
L 321.810069 121.734655 
L 323.441498 121.924903 
L 325.072928 137.345284 
L 326.704358 215.803843 
L 328.335788 139.297517 
L 329.967218 118.965307 
L 331.598648 131.300954 
L 333.230078 138.054309 
L 334.861508 148.657959 
L 336.492937 160.66256 
L 338.124367 137.764291 
L 339.755797 134.838431 
L 341.387227 146.658998 
L 343.018657 185.272493 
L 344.650087 154.307004 
L 346.281517 146.449597 
L 347.912947 191.617547 
L 349.544376 120.340687 
L 351.175806 158.430115 
L 352.807236 143.087528 
L 354.438666 139.394978 
L 356.070096 130.665717 
L 357.701526 155.703977 
L 359.332956 133.642567 
L 360.964386 128.353374 
L 362.595815 115.712252 
L 364.227245 155.684884 
L 365.858675 132.251884 
L 367.490105 167.141934 
L 369.121535 122.071145 
L 370.752965 196.255661 
L 372.384395 159.230542 
L 374.015825 109.280649 
L 375.647254 135.19813 
L 377.278684 173.178262 
L 378.910114 164.230058 
L 380.541544 194.223786 
L 382.172974 152.725972 
L 383.804404 149.512147 
L 385.435834 147.961719 
L 387.067264 136.438514 
L 388.698693 168.008635 
L 390.330123 189.157139 
L 391.961553 139.02049 
L 393.592983 157.403599 
L 395.224413 165.747435 
L 396.855843 151.43008 
L 398.487273 130.75527 
L 398.487273 130.75527 
" style="fill:none;stroke:#1f77b4;stroke-linecap:round;stroke-width:1.5;"/>
   </g>
   <g id="patch_3">
    <path d="M 57.6 307.584 
L 57.6 41.472 
" style="fill:none;stroke:#cccccc;stroke-linecap:square;stroke-linejoin:miter;stroke-width:0.8;"/>
   </g>
   <g id="patch_4">
    <path d="M 414.72 307.584 
L 414.72 41.472 
" style="fill:none;stroke:#cccccc;stroke-linecap:square;stroke-linejoin:miter;stroke-width:0.8;"/>
   </g>
   <g id="patch_5">
    <path d="M 57.6 307.584 
L 414.72 307.584 
" style="fill:none;stroke:#cccccc;stroke-linecap:square;stroke-linejoin:miter;stroke-width:0.8;"/>
   </g>
   <g id="patch_6">
    <path d="M 57.6 41.472 
L 414.72 41.472 
" style="fill:none;stroke:#cccccc;stroke-linecap:square;stroke-linejoin:miter;stroke-width:0.8;"/>
   </g>
   <g id="text_21">
    <!-- Model performance vs. # of iterations -->
    <g style="fill:#262626;" transform="translate(122.314688 35.472)scale(0.12 -0.12)">
     <defs>
      <path d="M 628 4666 
L 1569 4666 
L 2759 1491 
L 3956 4666 
L 4897 4666 
L 4897 0 
L 4281 0 
L 4281 4097 
L 3078 897 
L 2444 897 
L 1241 4097 
L 1241 0 
L 628 0 
L 628 4666 
z
" id="DejaVuSans-4d" transform="scale(0.015625)"/>
      <path d="M 2906 2969 
L 2906 4863 
L 3481 4863 
L 3481 0 
L 2906 0 
L 2906 525 
Q 2725 213 2448 61 
Q 2172 -91 1784 -91 
Q 1150 -91 751 415 
Q 353 922 353 1747 
Q 353 2572 751 3078 
Q 1150 3584 1784 3584 
Q 2172 3584 2448 3432 
Q 2725 3281 2906 2969 
z
M 947 1747 
Q 947 1113 1208 752 
Q 1469 391 1925 391 
Q 2381 391 2643 752 
Q 2906 1113 2906 1747 
Q 2906 2381 2643 2742 
Q 2381 3103 1925 3103 
Q 1469 3103 1208 2742 
Q 947 2381 947 1747 
z
" id="DejaVuSans-64" transform="scale(0.015625)"/>
      <path d="M 603 4863 
L 1178 4863 
L 1178 0 
L 603 0 
L 603 4863 
z
" id="DejaVuSans-6c" transform="scale(0.015625)"/>
      <path id="DejaVuSans-20" transform="scale(0.015625)"/>
      <path d="M 1159 525 
L 1159 -1331 
L 581 -1331 
L 581 3500 
L 1159 3500 
L 1159 2969 
Q 1341 3281 1617 3432 
Q 1894 3584 2278 3584 
Q 2916 3584 3314 3078 
Q 3713 2572 3713 1747 
Q 3713 922 3314 415 
Q 2916 -91 2278 -91 
Q 1894 -91 1617 61 
Q 1341 213 1159 525 
z
M 3116 1747 
Q 3116 2381 2855 2742 
Q 2594 3103 2138 3103 
Q 1681 3103 1420 2742 
Q 1159 2381 1159 1747 
Q 1159 1113 1420 752 
Q 1681 391 2138 391 
Q 2594 391 2855 752 
Q 3116 1113 3116 1747 
z
" id="DejaVuSans-70" transform="scale(0.015625)"/>
      <path d="M 2375 4863 
L 2375 4384 
L 1825 4384 
Q 1516 4384 1395 4259 
Q 1275 4134 1275 3809 
L 1275 3500 
L 2222 3500 
L 2222 3053 
L 1275 3053 
L 1275 0 
L 697 0 
L 697 3053 
L 147 3053 
L 147 3500 
L 697 3500 
L 697 3744 
Q 697 4328 969 4595 
Q 1241 4863 1831 4863 
L 2375 4863 
z
" id="DejaVuSans-66" transform="scale(0.015625)"/>
      <path d="M 3328 2828 
Q 3544 3216 3844 3400 
Q 4144 3584 4550 3584 
Q 5097 3584 5394 3201 
Q 5691 2819 5691 2113 
L 5691 0 
L 5113 0 
L 5113 2094 
Q 5113 2597 4934 2840 
Q 4756 3084 4391 3084 
Q 3944 3084 3684 2787 
Q 3425 2491 3425 1978 
L 3425 0 
L 2847 0 
L 2847 2094 
Q 2847 2600 2669 2842 
Q 2491 3084 2119 3084 
Q 1678 3084 1418 2786 
Q 1159 2488 1159 1978 
L 1159 0 
L 581 0 
L 581 3500 
L 1159 3500 
L 1159 2956 
Q 1356 3278 1631 3431 
Q 1906 3584 2284 3584 
Q 2666 3584 2933 3390 
Q 3200 3197 3328 2828 
z
" id="DejaVuSans-6d" transform="scale(0.015625)"/>
      <path d="M 191 3500 
L 800 3500 
L 1894 563 
L 2988 3500 
L 3597 3500 
L 2284 0 
L 1503 0 
L 191 3500 
z
" id="DejaVuSans-76" transform="scale(0.015625)"/>
      <path d="M 2834 3397 
L 2834 2853 
Q 2591 2978 2328 3040 
Q 2066 3103 1784 3103 
Q 1356 3103 1142 2972 
Q 928 2841 928 2578 
Q 928 2378 1081 2264 
Q 1234 2150 1697 2047 
L 1894 2003 
Q 2506 1872 2764 1633 
Q 3022 1394 3022 966 
Q 3022 478 2636 193 
Q 2250 -91 1575 -91 
Q 1294 -91 989 -36 
Q 684 19 347 128 
L 347 722 
Q 666 556 975 473 
Q 1284 391 1588 391 
Q 1994 391 2212 530 
Q 2431 669 2431 922 
Q 2431 1156 2273 1281 
Q 2116 1406 1581 1522 
L 1381 1569 
Q 847 1681 609 1914 
Q 372 2147 372 2553 
Q 372 3047 722 3315 
Q 1072 3584 1716 3584 
Q 2034 3584 2315 3537 
Q 2597 3491 2834 3397 
z
" id="DejaVuSans-73" transform="scale(0.015625)"/>
      <path d="M 3272 2816 
L 2363 2816 
L 2100 1772 
L 3016 1772 
L 3272 2816 
z
M 2803 4594 
L 2478 3297 
L 3391 3297 
L 3719 4594 
L 4219 4594 
L 3897 3297 
L 4872 3297 
L 4872 2816 
L 3775 2816 
L 3519 1772 
L 4513 1772 
L 4513 1294 
L 3397 1294 
L 3072 0 
L 2572 0 
L 2894 1294 
L 1978 1294 
L 1656 0 
L 1153 0 
L 1478 1294 
L 494 1294 
L 494 1772 
L 1594 1772 
L 1856 2816 
L 850 2816 
L 850 3297 
L 1978 3297 
L 2297 4594 
L 2803 4594 
z
" id="DejaVuSans-23" transform="scale(0.015625)"/>
     </defs>
     <use xlink:href="#DejaVuSans-4d"/>
     <use x="86.279297" xlink:href="#DejaVuSans-6f"/>
     <use x="147.460938" xlink:href="#DejaVuSans-64"/>
     <use x="210.9375" xlink:href="#DejaVuSans-65"/>
     <use x="272.460938" xlink:href="#DejaVuSans-6c"/>
     <use x="300.244141" xlink:href="#DejaVuSans-20"/>
     <use x="332.03125" xlink:href="#DejaVuSans-70"/>
     <use x="395.507812" xlink:href="#DejaVuSans-65"/>
     <use x="457.03125" xlink:href="#DejaVuSans-72"/>
     <use x="498.144531" xlink:href="#DejaVuSans-66"/>
     <use x="533.349609" xlink:href="#DejaVuSans-6f"/>
     <use x="594.53125" xlink:href="#DejaVuSans-72"/>
     <use x="633.894531" xlink:href="#DejaVuSans-6d"/>
     <use x="731.306641" xlink:href="#DejaVuSans-61"/>
     <use x="792.585938" xlink:href="#DejaVuSans-6e"/>
     <use x="855.964844" xlink:href="#DejaVuSans-63"/>
     <use x="910.945312" xlink:href="#DejaVuSans-65"/>
     <use x="972.46875" xlink:href="#DejaVuSans-20"/>
     <use x="1004.255859" xlink:href="#DejaVuSans-76"/>
     <use x="1063.435547" xlink:href="#DejaVuSans-73"/>
     <use x="1115.535156" xlink:href="#DejaVuSans-2e"/>
     <use x="1147.322266" xlink:href="#DejaVuSans-20"/>
     <use x="1179.109375" xlink:href="#DejaVuSans-23"/>
     <use x="1262.898438" xlink:href="#DejaVuSans-20"/>
     <use x="1294.685547" xlink:href="#DejaVuSans-6f"/>
     <use x="1355.867188" xlink:href="#DejaVuSans-66"/>
     <use x="1391.072266" xlink:href="#DejaVuSans-20"/>
     <use x="1422.859375" xlink:href="#DejaVuSans-69"/>
     <use x="1450.642578" xlink:href="#DejaVuSans-74"/>
     <use x="1489.851562" xlink:href="#DejaVuSans-65"/>
     <use x="1551.375" xlink:href="#DejaVuSans-72"/>
     <use x="1592.488281" xlink:href="#DejaVuSans-61"/>
     <use x="1653.767578" xlink:href="#DejaVuSans-74"/>
     <use x="1692.976562" xlink:href="#DejaVuSans-69"/>
     <use x="1720.759766" xlink:href="#DejaVuSans-6f"/>
     <use x="1781.941406" xlink:href="#DejaVuSans-6e"/>
     <use x="1845.320312" xlink:href="#DejaVuSans-73"/>
    </g>
   </g>
  </g>
 </g>
 <defs>
  <clipPath id="p1e27af3662">
   <rect height="266.112" width="357.12" x="57.6" y="41.472"/>
  </clipPath>
 </defs>
</svg>
