<?xml version="1.0" encoding="utf-8" standalone="no"?>
<!DOCTYPE svg PUBLIC "-//W3C//DTD SVG 1.1//EN"
  "http://www.w3.org/Graphics/SVG/1.1/DTD/svg11.dtd">
<svg height="345.6pt" version="1.1" viewBox="0 0 460.8 345.6" width="460.8pt" xmlns="http://www.w3.org/2000/svg" xmlns:xlink="http://www.w3.org/1999/xlink">
 <metadata>
  <rdf:RDF xmlns:cc="http://creativecommons.org/ns#" xmlns:dc="http://purl.org/dc/elements/1.1/" xmlns:rdf="http://www.w3.org/1999/02/22-rdf-syntax-ns#">
   <cc:Work>
    <dc:type rdf:resource="http://purl.org/dc/dcmitype/StillImage"/>
    <dc:date>2022-01-25T01:50:01.514073</dc:date>
    <dc:format>image/svg+xml</dc:format>
    <dc:creator>
     <cc:Agent>
      <dc:title>Matplotlib v3.4.3, https://matplotlib.org/</dc:title>
     </cc:Agent>
    </dc:creator>
   </cc:Work>
  </rdf:RDF>
 </metadata>
 <defs>
  <style type="text/css">*{stroke-linecap:butt;stroke-linejoin:round;}</style>
 </defs>
 <g id="figure_1">
  <g id="patch_1">
   <path d="M 0 345.6 
L 460.8 345.6 
L 460.8 0 
L 0 0 
z
" style="fill:#ffffff;"/>
  </g>
  <g id="axes_1">
   <g id="patch_2">
    <path d="M 57.6 307.584 
L 414.72 307.584 
L 414.72 41.472 
L 57.6 41.472 
z
" style="fill:#ffffff;"/>
   </g>
   <g id="matplotlib.axis_1">
    <g id="xtick_1">
     <g id="line2d_1">
      <path clip-path="url(#p5be94b7db4)" d="M 72.201297 307.584 
L 72.201297 41.472 
" style="fill:none;stroke:#cccccc;stroke-linecap:round;stroke-width:0.8;"/>
     </g>
     <g id="text_1">
      <!-- 0 -->
      <g style="fill:#262626;" transform="translate(69.020047 322.182437)scale(0.1 -0.1)">
       <defs>
        <path d="M 2034 4250 
Q 1547 4250 1301 3770 
Q 1056 3291 1056 2328 
Q 1056 1369 1301 889 
Q 1547 409 2034 409 
Q 2525 409 2770 889 
Q 3016 1369 3016 2328 
Q 3016 3291 2770 3770 
Q 2525 4250 2034 4250 
z
M 2034 4750 
Q 2819 4750 3233 4129 
Q 3647 3509 3647 2328 
Q 3647 1150 3233 529 
Q 2819 -91 2034 -91 
Q 1250 -91 836 529 
Q 422 1150 422 2328 
Q 422 3509 836 4129 
Q 1250 4750 2034 4750 
z
" id="DejaVuSans-30" transform="scale(0.015625)"/>
       </defs>
       <use xlink:href="#DejaVuSans-30"/>
      </g>
     </g>
    </g>
    <g id="xtick_2">
     <g id="line2d_2">
      <path clip-path="url(#p5be94b7db4)" d="M 112.987044 307.584 
L 112.987044 41.472 
" style="fill:none;stroke:#cccccc;stroke-linecap:round;stroke-width:0.8;"/>
     </g>
     <g id="text_2">
      <!-- 25 -->
      <g style="fill:#262626;" transform="translate(106.624544 322.182437)scale(0.1 -0.1)">
       <defs>
        <path d="M 1228 531 
L 3431 531 
L 3431 0 
L 469 0 
L 469 531 
Q 828 903 1448 1529 
Q 2069 2156 2228 2338 
Q 2531 2678 2651 2914 
Q 2772 3150 2772 3378 
Q 2772 3750 2511 3984 
Q 2250 4219 1831 4219 
Q 1534 4219 1204 4116 
Q 875 4013 500 3803 
L 500 4441 
Q 881 4594 1212 4672 
Q 1544 4750 1819 4750 
Q 2544 4750 2975 4387 
Q 3406 4025 3406 3419 
Q 3406 3131 3298 2873 
Q 3191 2616 2906 2266 
Q 2828 2175 2409 1742 
Q 1991 1309 1228 531 
z
" id="DejaVuSans-32" transform="scale(0.015625)"/>
        <path d="M 691 4666 
L 3169 4666 
L 3169 4134 
L 1269 4134 
L 1269 2991 
Q 1406 3038 1543 3061 
Q 1681 3084 1819 3084 
Q 2600 3084 3056 2656 
Q 3513 2228 3513 1497 
Q 3513 744 3044 326 
Q 2575 -91 1722 -91 
Q 1428 -91 1123 -41 
Q 819 9 494 109 
L 494 744 
Q 775 591 1075 516 
Q 1375 441 1709 441 
Q 2250 441 2565 725 
Q 2881 1009 2881 1497 
Q 2881 1984 2565 2268 
Q 2250 2553 1709 2553 
Q 1456 2553 1204 2497 
Q 953 2441 691 2322 
L 691 4666 
z
" id="DejaVuSans-35" transform="scale(0.015625)"/>
       </defs>
       <use xlink:href="#DejaVuSans-32"/>
       <use x="63.623047" xlink:href="#DejaVuSans-35"/>
      </g>
     </g>
    </g>
    <g id="xtick_3">
     <g id="line2d_3">
      <path clip-path="url(#p5be94b7db4)" d="M 153.772791 307.584 
L 153.772791 41.472 
" style="fill:none;stroke:#cccccc;stroke-linecap:round;stroke-width:0.8;"/>
     </g>
     <g id="text_3">
      <!-- 50 -->
      <g style="fill:#262626;" transform="translate(147.410291 322.182437)scale(0.1 -0.1)">
       <use xlink:href="#DejaVuSans-35"/>
       <use x="63.623047" xlink:href="#DejaVuSans-30"/>
      </g>
     </g>
    </g>
    <g id="xtick_4">
     <g id="line2d_4">
      <path clip-path="url(#p5be94b7db4)" d="M 194.558538 307.584 
L 194.558538 41.472 
" style="fill:none;stroke:#cccccc;stroke-linecap:round;stroke-width:0.8;"/>
     </g>
     <g id="text_4">
      <!-- 75 -->
      <g style="fill:#262626;" transform="translate(188.196038 322.182437)scale(0.1 -0.1)">
       <defs>
        <path d="M 525 4666 
L 3525 4666 
L 3525 4397 
L 1831 0 
L 1172 0 
L 2766 4134 
L 525 4134 
L 525 4666 
z
" id="DejaVuSans-37" transform="scale(0.015625)"/>
       </defs>
       <use xlink:href="#DejaVuSans-37"/>
       <use x="63.623047" xlink:href="#DejaVuSans-35"/>
      </g>
     </g>
    </g>
    <g id="xtick_5">
     <g id="line2d_5">
      <path clip-path="url(#p5be94b7db4)" d="M 235.344285 307.584 
L 235.344285 41.472 
" style="fill:none;stroke:#cccccc;stroke-linecap:round;stroke-width:0.8;"/>
     </g>
     <g id="text_5">
      <!-- 100 -->
      <g style="fill:#262626;" transform="translate(225.800535 322.182437)scale(0.1 -0.1)">
       <defs>
        <path d="M 794 531 
L 1825 531 
L 1825 4091 
L 703 3866 
L 703 4441 
L 1819 4666 
L 2450 4666 
L 2450 531 
L 3481 531 
L 3481 0 
L 794 0 
L 794 531 
z
" id="DejaVuSans-31" transform="scale(0.015625)"/>
       </defs>
       <use xlink:href="#DejaVuSans-31"/>
       <use x="63.623047" xlink:href="#DejaVuSans-30"/>
       <use x="127.246094" xlink:href="#DejaVuSans-30"/>
      </g>
     </g>
    </g>
    <g id="xtick_6">
     <g id="line2d_6">
      <path clip-path="url(#p5be94b7db4)" d="M 276.130032 307.584 
L 276.130032 41.472 
" style="fill:none;stroke:#cccccc;stroke-linecap:round;stroke-width:0.8;"/>
     </g>
     <g id="text_6">
      <!-- 125 -->
      <g style="fill:#262626;" transform="translate(266.586282 322.182437)scale(0.1 -0.1)">
       <use xlink:href="#DejaVuSans-31"/>
       <use x="63.623047" xlink:href="#DejaVuSans-32"/>
       <use x="127.246094" xlink:href="#DejaVuSans-35"/>
      </g>
     </g>
    </g>
    <g id="xtick_7">
     <g id="line2d_7">
      <path clip-path="url(#p5be94b7db4)" d="M 316.915779 307.584 
L 316.915779 41.472 
" style="fill:none;stroke:#cccccc;stroke-linecap:round;stroke-width:0.8;"/>
     </g>
     <g id="text_7">
      <!-- 150 -->
      <g style="fill:#262626;" transform="translate(307.372029 322.182437)scale(0.1 -0.1)">
       <use xlink:href="#DejaVuSans-31"/>
       <use x="63.623047" xlink:href="#DejaVuSans-35"/>
       <use x="127.246094" xlink:href="#DejaVuSans-30"/>
      </g>
     </g>
    </g>
    <g id="xtick_8">
     <g id="line2d_8">
      <path clip-path="url(#p5be94b7db4)" d="M 357.701526 307.584 
L 357.701526 41.472 
" style="fill:none;stroke:#cccccc;stroke-linecap:round;stroke-width:0.8;"/>
     </g>
     <g id="text_8">
      <!-- 175 -->
      <g style="fill:#262626;" transform="translate(348.157776 322.182437)scale(0.1 -0.1)">
       <use xlink:href="#DejaVuSans-31"/>
       <use x="63.623047" xlink:href="#DejaVuSans-37"/>
       <use x="127.246094" xlink:href="#DejaVuSans-35"/>
      </g>
     </g>
    </g>
    <g id="xtick_9">
     <g id="line2d_9">
      <path clip-path="url(#p5be94b7db4)" d="M 398.487273 307.584 
L 398.487273 41.472 
" style="fill:none;stroke:#cccccc;stroke-linecap:round;stroke-width:0.8;"/>
     </g>
     <g id="text_9">
      <!-- 200 -->
      <g style="fill:#262626;" transform="translate(388.943523 322.182437)scale(0.1 -0.1)">
       <use xlink:href="#DejaVuSans-32"/>
       <use x="63.623047" xlink:href="#DejaVuSans-30"/>
       <use x="127.246094" xlink:href="#DejaVuSans-30"/>
      </g>
     </g>
    </g>
    <g id="text_10">
     <!-- Auroc -->
     <g style="fill:#262626;" transform="translate(221.819375 335.860562)scale(0.1 -0.1)">
      <defs>
       <path d="M 2188 4044 
L 1331 1722 
L 3047 1722 
L 2188 4044 
z
M 1831 4666 
L 2547 4666 
L 4325 0 
L 3669 0 
L 3244 1197 
L 1141 1197 
L 716 0 
L 50 0 
L 1831 4666 
z
" id="DejaVuSans-41" transform="scale(0.015625)"/>
       <path d="M 544 1381 
L 544 3500 
L 1119 3500 
L 1119 1403 
Q 1119 906 1312 657 
Q 1506 409 1894 409 
Q 2359 409 2629 706 
Q 2900 1003 2900 1516 
L 2900 3500 
L 3475 3500 
L 3475 0 
L 2900 0 
L 2900 538 
Q 2691 219 2414 64 
Q 2138 -91 1772 -91 
Q 1169 -91 856 284 
Q 544 659 544 1381 
z
M 1991 3584 
L 1991 3584 
z
" id="DejaVuSans-75" transform="scale(0.015625)"/>
       <path d="M 2631 2963 
Q 2534 3019 2420 3045 
Q 2306 3072 2169 3072 
Q 1681 3072 1420 2755 
Q 1159 2438 1159 1844 
L 1159 0 
L 581 0 
L 581 3500 
L 1159 3500 
L 1159 2956 
Q 1341 3275 1631 3429 
Q 1922 3584 2338 3584 
Q 2397 3584 2469 3576 
Q 2541 3569 2628 3553 
L 2631 2963 
z
" id="DejaVuSans-72" transform="scale(0.015625)"/>
       <path d="M 1959 3097 
Q 1497 3097 1228 2736 
Q 959 2375 959 1747 
Q 959 1119 1226 758 
Q 1494 397 1959 397 
Q 2419 397 2687 759 
Q 2956 1122 2956 1747 
Q 2956 2369 2687 2733 
Q 2419 3097 1959 3097 
z
M 1959 3584 
Q 2709 3584 3137 3096 
Q 3566 2609 3566 1747 
Q 3566 888 3137 398 
Q 2709 -91 1959 -91 
Q 1206 -91 779 398 
Q 353 888 353 1747 
Q 353 2609 779 3096 
Q 1206 3584 1959 3584 
z
" id="DejaVuSans-6f" transform="scale(0.015625)"/>
       <path d="M 3122 3366 
L 3122 2828 
Q 2878 2963 2633 3030 
Q 2388 3097 2138 3097 
Q 1578 3097 1268 2742 
Q 959 2388 959 1747 
Q 959 1106 1268 751 
Q 1578 397 2138 397 
Q 2388 397 2633 464 
Q 2878 531 3122 666 
L 3122 134 
Q 2881 22 2623 -34 
Q 2366 -91 2075 -91 
Q 1284 -91 818 406 
Q 353 903 353 1747 
Q 353 2603 823 3093 
Q 1294 3584 2113 3584 
Q 2378 3584 2631 3529 
Q 2884 3475 3122 3366 
z
" id="DejaVuSans-63" transform="scale(0.015625)"/>
      </defs>
      <use xlink:href="#DejaVuSans-41"/>
      <use x="68.408203" xlink:href="#DejaVuSans-75"/>
      <use x="131.787109" xlink:href="#DejaVuSans-72"/>
      <use x="170.650391" xlink:href="#DejaVuSans-6f"/>
      <use x="231.832031" xlink:href="#DejaVuSans-63"/>
     </g>
    </g>
   </g>
   <g id="matplotlib.axis_2">
    <g id="ytick_1">
     <g id="line2d_10">
      <path clip-path="url(#p5be94b7db4)" d="M 57.6 277.486167 
L 414.72 277.486167 
" style="fill:none;stroke:#cccccc;stroke-linecap:round;stroke-width:0.8;"/>
     </g>
     <g id="text_11">
      <!-- 0.45 -->
      <g style="fill:#262626;" transform="translate(28.334375 281.285386)scale(0.1 -0.1)">
       <defs>
        <path d="M 684 794 
L 1344 794 
L 1344 0 
L 684 0 
L 684 794 
z
" id="DejaVuSans-2e" transform="scale(0.015625)"/>
        <path d="M 2419 4116 
L 825 1625 
L 2419 1625 
L 2419 4116 
z
M 2253 4666 
L 3047 4666 
L 3047 1625 
L 3713 1625 
L 3713 1100 
L 3047 1100 
L 3047 0 
L 2419 0 
L 2419 1100 
L 313 1100 
L 313 1709 
L 2253 4666 
z
" id="DejaVuSans-34" transform="scale(0.015625)"/>
       </defs>
       <use xlink:href="#DejaVuSans-30"/>
       <use x="63.623047" xlink:href="#DejaVuSans-2e"/>
       <use x="95.410156" xlink:href="#DejaVuSans-34"/>
       <use x="159.033203" xlink:href="#DejaVuSans-35"/>
      </g>
     </g>
    </g>
    <g id="ytick_2">
     <g id="line2d_11">
      <path clip-path="url(#p5be94b7db4)" d="M 57.6 227.977681 
L 414.72 227.977681 
" style="fill:none;stroke:#cccccc;stroke-linecap:round;stroke-width:0.8;"/>
     </g>
     <g id="text_12">
      <!-- 0.50 -->
      <g style="fill:#262626;" transform="translate(28.334375 231.7769)scale(0.1 -0.1)">
       <use xlink:href="#DejaVuSans-30"/>
       <use x="63.623047" xlink:href="#DejaVuSans-2e"/>
       <use x="95.410156" xlink:href="#DejaVuSans-35"/>
       <use x="159.033203" xlink:href="#DejaVuSans-30"/>
      </g>
     </g>
    </g>
    <g id="ytick_3">
     <g id="line2d_12">
      <path clip-path="url(#p5be94b7db4)" d="M 57.6 178.469195 
L 414.72 178.469195 
" style="fill:none;stroke:#cccccc;stroke-linecap:round;stroke-width:0.8;"/>
     </g>
     <g id="text_13">
      <!-- 0.55 -->
      <g style="fill:#262626;" transform="translate(28.334375 182.268414)scale(0.1 -0.1)">
       <use xlink:href="#DejaVuSans-30"/>
       <use x="63.623047" xlink:href="#DejaVuSans-2e"/>
       <use x="95.410156" xlink:href="#DejaVuSans-35"/>
       <use x="159.033203" xlink:href="#DejaVuSans-35"/>
      </g>
     </g>
    </g>
    <g id="ytick_4">
     <g id="line2d_13">
      <path clip-path="url(#p5be94b7db4)" d="M 57.6 128.960709 
L 414.72 128.960709 
" style="fill:none;stroke:#cccccc;stroke-linecap:round;stroke-width:0.8;"/>
     </g>
     <g id="text_14">
      <!-- 0.60 -->
      <g style="fill:#262626;" transform="translate(28.334375 132.759928)scale(0.1 -0.1)">
       <defs>
        <path d="M 2113 2584 
Q 1688 2584 1439 2293 
Q 1191 2003 1191 1497 
Q 1191 994 1439 701 
Q 1688 409 2113 409 
Q 2538 409 2786 701 
Q 3034 994 3034 1497 
Q 3034 2003 2786 2293 
Q 2538 2584 2113 2584 
z
M 3366 4563 
L 3366 3988 
Q 3128 4100 2886 4159 
Q 2644 4219 2406 4219 
Q 1781 4219 1451 3797 
Q 1122 3375 1075 2522 
Q 1259 2794 1537 2939 
Q 1816 3084 2150 3084 
Q 2853 3084 3261 2657 
Q 3669 2231 3669 1497 
Q 3669 778 3244 343 
Q 2819 -91 2113 -91 
Q 1303 -91 875 529 
Q 447 1150 447 2328 
Q 447 3434 972 4092 
Q 1497 4750 2381 4750 
Q 2619 4750 2861 4703 
Q 3103 4656 3366 4563 
z
" id="DejaVuSans-36" transform="scale(0.015625)"/>
       </defs>
       <use xlink:href="#DejaVuSans-30"/>
       <use x="63.623047" xlink:href="#DejaVuSans-2e"/>
       <use x="95.410156" xlink:href="#DejaVuSans-36"/>
       <use x="159.033203" xlink:href="#DejaVuSans-30"/>
      </g>
     </g>
    </g>
    <g id="ytick_5">
     <g id="line2d_14">
      <path clip-path="url(#p5be94b7db4)" d="M 57.6 79.452223 
L 414.72 79.452223 
" style="fill:none;stroke:#cccccc;stroke-linecap:round;stroke-width:0.8;"/>
     </g>
     <g id="text_15">
      <!-- 0.65 -->
      <g style="fill:#262626;" transform="translate(28.334375 83.251442)scale(0.1 -0.1)">
       <use xlink:href="#DejaVuSans-30"/>
       <use x="63.623047" xlink:href="#DejaVuSans-2e"/>
       <use x="95.410156" xlink:href="#DejaVuSans-36"/>
       <use x="159.033203" xlink:href="#DejaVuSans-35"/>
      </g>
     </g>
    </g>
    <g id="text_16">
     <!-- Iteration -->
     <g style="fill:#262626;" transform="translate(22.254687 195.736594)rotate(-90)scale(0.1 -0.1)">
      <defs>
       <path d="M 628 4666 
L 1259 4666 
L 1259 0 
L 628 0 
L 628 4666 
z
" id="DejaVuSans-49" transform="scale(0.015625)"/>
       <path d="M 1172 4494 
L 1172 3500 
L 2356 3500 
L 2356 3053 
L 1172 3053 
L 1172 1153 
Q 1172 725 1289 603 
Q 1406 481 1766 481 
L 2356 481 
L 2356 0 
L 1766 0 
Q 1100 0 847 248 
Q 594 497 594 1153 
L 594 3053 
L 172 3053 
L 172 3500 
L 594 3500 
L 594 4494 
L 1172 4494 
z
" id="DejaVuSans-74" transform="scale(0.015625)"/>
       <path d="M 3597 1894 
L 3597 1613 
L 953 1613 
Q 991 1019 1311 708 
Q 1631 397 2203 397 
Q 2534 397 2845 478 
Q 3156 559 3463 722 
L 3463 178 
Q 3153 47 2828 -22 
Q 2503 -91 2169 -91 
Q 1331 -91 842 396 
Q 353 884 353 1716 
Q 353 2575 817 3079 
Q 1281 3584 2069 3584 
Q 2775 3584 3186 3129 
Q 3597 2675 3597 1894 
z
M 3022 2063 
Q 3016 2534 2758 2815 
Q 2500 3097 2075 3097 
Q 1594 3097 1305 2825 
Q 1016 2553 972 2059 
L 3022 2063 
z
" id="DejaVuSans-65" transform="scale(0.015625)"/>
       <path d="M 2194 1759 
Q 1497 1759 1228 1600 
Q 959 1441 959 1056 
Q 959 750 1161 570 
Q 1363 391 1709 391 
Q 2188 391 2477 730 
Q 2766 1069 2766 1631 
L 2766 1759 
L 2194 1759 
z
M 3341 1997 
L 3341 0 
L 2766 0 
L 2766 531 
Q 2569 213 2275 61 
Q 1981 -91 1556 -91 
Q 1019 -91 701 211 
Q 384 513 384 1019 
Q 384 1609 779 1909 
Q 1175 2209 1959 2209 
L 2766 2209 
L 2766 2266 
Q 2766 2663 2505 2880 
Q 2244 3097 1772 3097 
Q 1472 3097 1187 3025 
Q 903 2953 641 2809 
L 641 3341 
Q 956 3463 1253 3523 
Q 1550 3584 1831 3584 
Q 2591 3584 2966 3190 
Q 3341 2797 3341 1997 
z
" id="DejaVuSans-61" transform="scale(0.015625)"/>
       <path d="M 603 3500 
L 1178 3500 
L 1178 0 
L 603 0 
L 603 3500 
z
M 603 4863 
L 1178 4863 
L 1178 4134 
L 603 4134 
L 603 4863 
z
" id="DejaVuSans-69" transform="scale(0.015625)"/>
       <path d="M 3513 2113 
L 3513 0 
L 2938 0 
L 2938 2094 
Q 2938 2591 2744 2837 
Q 2550 3084 2163 3084 
Q 1697 3084 1428 2787 
Q 1159 2491 1159 1978 
L 1159 0 
L 581 0 
L 581 3500 
L 1159 3500 
L 1159 2956 
Q 1366 3272 1645 3428 
Q 1925 3584 2291 3584 
Q 2894 3584 3203 3211 
Q 3513 2838 3513 2113 
z
" id="DejaVuSans-6e" transform="scale(0.015625)"/>
      </defs>
      <use xlink:href="#DejaVuSans-49"/>
      <use x="29.492188" xlink:href="#DejaVuSans-74"/>
      <use x="68.701172" xlink:href="#DejaVuSans-65"/>
      <use x="130.224609" xlink:href="#DejaVuSans-72"/>
      <use x="171.337891" xlink:href="#DejaVuSans-61"/>
      <use x="232.617188" xlink:href="#DejaVuSans-74"/>
      <use x="271.826172" xlink:href="#DejaVuSans-69"/>
      <use x="299.609375" xlink:href="#DejaVuSans-6f"/>
      <use x="360.791016" xlink:href="#DejaVuSans-6e"/>
     </g>
    </g>
   </g>
   <g id="PolyCollection_1">
    <defs>
     <path d="M 73.832727 -239.507431 
L 73.832727 -58.786497 
L 75.464157 -176.884906 
L 77.095587 -162.316514 
L 78.727017 -182.235772 
L 80.358447 -159.881707 
L 81.989877 -148.775986 
L 83.621307 -103.806076 
L 85.252736 -131.001473 
L 86.884166 -168.0802 
L 88.515596 -177.002281 
L 90.147026 -155.340887 
L 91.778456 -191.734251 
L 93.409886 -145.468541 
L 95.041316 -121.475546 
L 96.672746 -159.173007 
L 98.304175 -170.948396 
L 99.935605 -116.949472 
L 101.567035 -131.586443 
L 103.198465 -168.189248 
L 104.829895 -208.159061 
L 106.461325 -107.006435 
L 108.092755 -109.656729 
L 109.724185 -155.97784 
L 111.355614 -95.270543 
L 112.987044 -193.21357 
L 114.618474 -127.974583 
L 116.249904 -200.56503 
L 117.881334 -128.884341 
L 119.512764 -133.620325 
L 121.144194 -133.265824 
L 122.775624 -156.049884 
L 124.407053 -153.784627 
L 126.038483 -158.005298 
L 127.669913 -111.000088 
L 129.301343 -145.107732 
L 130.932773 -148.860635 
L 132.564203 -141.001076 
L 134.195633 -163.657578 
L 135.827063 -132.676313 
L 137.458492 -116.032252 
L 139.089922 -108.0105 
L 140.721352 -177.68929 
L 142.352782 -136.01818 
L 143.984212 -157.542121 
L 145.615642 -142.310775 
L 147.247072 -152.25641 
L 148.878502 -79.920934 
L 150.509931 -141.952037 
L 152.141361 -169.265502 
L 153.772791 -112.114554 
L 155.404221 -151.321108 
L 157.035651 -183.452227 
L 158.667081 -160.60805 
L 160.298511 -157.019035 
L 161.929941 -142.404486 
L 163.56137 -124.12405 
L 165.1928 -99.856059 
L 166.82423 -110.501975 
L 168.45566 -118.826618 
L 170.08709 -180.449917 
L 171.71852 -96.729591 
L 173.34995 -170.784536 
L 174.98138 -172.910869 
L 176.61281 -144.80788 
L 178.244239 -152.845059 
L 179.875669 -140.270218 
L 181.507099 -155.935015 
L 183.138529 -167.864274 
L 184.769959 -102.852672 
L 186.401389 -150.330514 
L 188.032819 -97.588747 
L 189.664249 -149.064351 
L 191.295678 -127.997159 
L 192.927108 -108.245993 
L 194.558538 -104.839311 
L 196.189968 -133.397163 
L 197.821398 -85.01867 
L 199.452828 -140.944632 
L 201.084258 -104.119951 
L 202.715688 -155.197841 
L 204.347117 -148.89217 
L 205.978547 -169.570673 
L 207.609977 -160.53789 
L 209.241407 -156.617608 
L 210.872837 -133.548604 
L 212.504267 -102.145657 
L 214.135697 -122.601468 
L 215.767127 -128.562531 
L 217.398556 -150.478676 
L 219.029986 -119.933472 
L 220.661416 -152.734566 
L 222.292846 -126.920905 
L 223.924276 -159.269295 
L 225.555706 -165.18847 
L 227.187136 -164.99401 
L 228.818566 -144.359453 
L 230.449995 -92.078517 
L 232.081425 -59.17176 
L 233.712855 -141.848596 
L 235.344285 -148.478308 
L 236.975715 -160.833724 
L 238.607145 -123.46696 
L 240.238575 -144.224317 
L 241.870005 -115.29017 
L 243.501434 -99.926216 
L 245.132864 -141.24989 
L 246.764294 -107.867643 
L 248.395724 -174.030234 
L 250.027154 -159.98026 
L 251.658584 -142.285645 
L 253.290014 -157.226823 
L 254.921444 -148.737253 
L 256.552873 -123.653173 
L 258.184303 -157.39376 
L 259.815733 -170.91967 
L 261.447163 -112.751255 
L 263.078593 -137.299509 
L 264.710023 -187.835559 
L 266.341453 -147.321439 
L 267.972883 -173.852843 
L 269.604312 -158.830819 
L 271.235742 -178.937028 
L 272.867172 -136.295099 
L 274.498602 -148.04769 
L 276.130032 -133.261588 
L 277.761462 -137.025119 
L 279.392892 -136.268528 
L 281.024322 -147.160717 
L 282.655751 -161.618373 
L 284.287181 -137.035161 
L 285.918611 -165.885616 
L 287.550041 -151.791678 
L 289.181471 -146.381437 
L 290.812901 -104.517929 
L 292.444331 -190.370469 
L 294.075761 -157.496006 
L 295.70719 -184.778605 
L 297.33862 -169.441718 
L 298.97005 -162.298835 
L 300.60148 -50.112 
L 302.23291 -143.925701 
L 303.86434 -111.97816 
L 305.49577 -161.782963 
L 307.1272 -133.465056 
L 308.75863 -170.881185 
L 310.390059 -172.564144 
L 312.021489 -155.02668 
L 313.652919 -153.824726 
L 315.284349 -159.226491 
L 316.915779 -120.227009 
L 318.547209 -165.177985 
L 320.178639 -183.061254 
L 321.810069 -172.461585 
L 323.441498 -163.467255 
L 325.072928 -143.0459 
L 326.704358 -179.244719 
L 328.335788 -88.154124 
L 329.967218 -167.979276 
L 331.598648 -196.666759 
L 333.230078 -158.329463 
L 334.861508 -123.75116 
L 336.492937 -165.153261 
L 338.124367 -175.230156 
L 339.755797 -103.087605 
L 341.387227 -134.066441 
L 343.018657 -165.827147 
L 344.650087 -129.285529 
L 346.281517 -142.824845 
L 347.912947 -172.400574 
L 349.544376 -181.917148 
L 351.175806 -90.663851 
L 352.807236 -156.307401 
L 354.438666 -186.172286 
L 356.070096 -181.561374 
L 357.701526 -94.730935 
L 359.332956 -113.164485 
L 360.964386 -93.174627 
L 362.595815 -153.982089 
L 364.227245 -96.074544 
L 365.858675 -122.768471 
L 367.490105 -164.064207 
L 369.121535 -94.084572 
L 370.752965 -136.990286 
L 372.384395 -184.141335 
L 374.015825 -146.770143 
L 375.647254 -178.657114 
L 377.278684 -136.920466 
L 378.910114 -112.291347 
L 380.541544 -165.584893 
L 382.172974 -184.795673 
L 383.804404 -149.98213 
L 385.435834 -122.684206 
L 387.067264 -172.508082 
L 388.698693 -171.676244 
L 390.330123 -154.158104 
L 391.961553 -127.601082 
L 393.592983 -164.811728 
L 395.224413 -125.731142 
L 396.855843 -150.865884 
L 398.487273 -165.231083 
L 398.487273 -236.51591 
L 398.487273 -236.51591 
L 396.855843 -225.237681 
L 395.224413 -235.163942 
L 393.592983 -221.363217 
L 391.961553 -222.860843 
L 390.330123 -251.323975 
L 388.698693 -221.003303 
L 387.067264 -235.853518 
L 385.435834 -242.504377 
L 383.804404 -231.210409 
L 382.172974 -235.889386 
L 380.541544 -258.076218 
L 378.910114 -238.432665 
L 377.278684 -235.738427 
L 375.647254 -231.457555 
L 374.015825 -236.81762 
L 372.384395 -221.719987 
L 370.752965 -244.51838 
L 369.121535 -265.257102 
L 367.490105 -244.33232 
L 365.858675 -230.305388 
L 364.227245 -255.574748 
L 362.595815 -233.573695 
L 360.964386 -259.752512 
L 359.332956 -206.900691 
L 357.701526 -206.68205 
L 356.070096 -200.121512 
L 354.438666 -267.466316 
L 352.807236 -222.290668 
L 351.175806 -174.820366 
L 349.544376 -244.154037 
L 347.912947 -248.383903 
L 346.281517 -241.165399 
L 344.650087 -218.866976 
L 343.018657 -211.892668 
L 341.387227 -228.096727 
L 339.755797 -274.323921 
L 338.124367 -244.874902 
L 336.492937 -224.117227 
L 334.861508 -279.077595 
L 333.230078 -262.473165 
L 331.598648 -229.792606 
L 329.967218 -198.032971 
L 328.335788 -208.410523 
L 326.704358 -240.029662 
L 325.072928 -221.152087 
L 323.441498 -225.395114 
L 321.810069 -221.159468 
L 320.178639 -243.1539 
L 318.547209 -239.421441 
L 316.915779 -213.755601 
L 315.284349 -257.677968 
L 313.652919 -210.422626 
L 312.021489 -252.753955 
L 310.390059 -255.731757 
L 308.75863 -268.039559 
L 307.1272 -252.943925 
L 305.49577 -244.460489 
L 303.86434 -207.227189 
L 302.23291 -233.753413 
L 300.60148 -238.937373 
L 298.97005 -226.285496 
L 297.33862 -252.018465 
L 295.70719 -267.319375 
L 294.075761 -206.70927 
L 292.444331 -218.277282 
L 290.812901 -231.805864 
L 289.181471 -243.71739 
L 287.550041 -236.21939 
L 285.918611 -279.363997 
L 284.287181 -244.434453 
L 282.655751 -224.450554 
L 281.024322 -231.193553 
L 279.392892 -214.994783 
L 277.761462 -220.065438 
L 276.130032 -254.561646 
L 274.498602 -227.863917 
L 272.867172 -274.468463 
L 271.235742 -262.637314 
L 269.604312 -228.221416 
L 267.972883 -242.258067 
L 266.341453 -224.153249 
L 264.710023 -259.040617 
L 263.078593 -198.162394 
L 261.447163 -246.982588 
L 259.815733 -225.506651 
L 258.184303 -252.704683 
L 256.552873 -236.624095 
L 254.921444 -219.551962 
L 253.290014 -215.262936 
L 251.658584 -202.373785 
L 250.027154 -247.462385 
L 248.395724 -264.214803 
L 246.764294 -216.833423 
L 245.132864 -224.849123 
L 243.501434 -204.085777 
L 241.870005 -273.457519 
L 240.238575 -220.990667 
L 238.607145 -220.619756 
L 236.975715 -234.820224 
L 235.344285 -211.893702 
L 233.712855 -234.577284 
L 232.081425 -229.711231 
L 230.449995 -264.038976 
L 228.818566 -230.197715 
L 227.187136 -230.827008 
L 225.555706 -225.670218 
L 223.924276 -262.149086 
L 222.292846 -197.097167 
L 220.661416 -216.868247 
L 219.029986 -213.224236 
L 217.398556 -202.190089 
L 215.767127 -199.837457 
L 214.135697 -271.104702 
L 212.504267 -229.553796 
L 210.872837 -249.381053 
L 209.241407 -253.975996 
L 207.609977 -233.403415 
L 205.978547 -260.676444 
L 204.347117 -261.045941 
L 202.715688 -274.241013 
L 201.084258 -170.160137 
L 199.452828 -268.270058 
L 197.821398 -229.737385 
L 196.189968 -223.429245 
L 194.558538 -234.882265 
L 192.927108 -221.863749 
L 191.295678 -224.948268 
L 189.664249 -243.836581 
L 188.032819 -202.058794 
L 186.401389 -218.920558 
L 184.769959 -200.501353 
L 183.138529 -230.137182 
L 181.507099 -226.872399 
L 179.875669 -188.011514 
L 178.244239 -241.189751 
L 176.61281 -263.110262 
L 174.98138 -212.48359 
L 173.34995 -246.403874 
L 171.71852 -234.817643 
L 170.08709 -239.015874 
L 168.45566 -211.017187 
L 166.82423 -229.30073 
L 165.1928 -206.108662 
L 163.56137 -213.825619 
L 161.929941 -229.919166 
L 160.298511 -245.142677 
L 158.667081 -226.264465 
L 157.035651 -253.483749 
L 155.404221 -240.709684 
L 153.772791 -244.991541 
L 152.141361 -221.295347 
L 150.509931 -206.24612 
L 148.878502 -231.64731 
L 147.247072 -276.593504 
L 145.615642 -251.592442 
L 143.984212 -228.954727 
L 142.352782 -254.504304 
L 140.721352 -213.98426 
L 139.089922 -252.721088 
L 137.458492 -229.379475 
L 135.827063 -262.131971 
L 134.195633 -228.791646 
L 132.564203 -215.918286 
L 130.932773 -223.760994 
L 129.301343 -231.281983 
L 127.669913 -255.191054 
L 126.038483 -261.164717 
L 124.407053 -201.308788 
L 122.775624 -228.727584 
L 121.144194 -218.800388 
L 119.512764 -213.91347 
L 117.881334 -209.904392 
L 116.249904 -234.510622 
L 114.618474 -262.155046 
L 112.987044 -279.781393 
L 111.355614 -239.304857 
L 109.724185 -226.781859 
L 108.092755 -233.947889 
L 106.461325 -216.950446 
L 104.829895 -236.174209 
L 103.198465 -240.407625 
L 101.567035 -247.07089 
L 99.935605 -234.768436 
L 98.304175 -275.534786 
L 96.672746 -252.812574 
L 95.041316 -243.77024 
L 93.409886 -200.628656 
L 91.778456 -292.032 
L 90.147026 -253.410131 
L 88.515596 -276.979949 
L 86.884166 -261.543187 
L 85.252736 -208.034496 
L 83.621307 -208.503052 
L 81.989877 -237.792778 
L 80.358447 -235.403173 
L 78.727017 -258.484381 
L 77.095587 -250.3874 
L 75.464157 -217.155816 
L 73.832727 -239.507431 
z
" id="m31ad8c8aa8" style="stroke:#ffffff;stroke-opacity:0.2;"/>
    </defs>
    <g clip-path="url(#p5be94b7db4)">
     <use style="fill:#1f77b4;fill-opacity:0.2;stroke:#ffffff;stroke-opacity:0.2;" x="0" xlink:href="#m31ad8c8aa8" y="345.6"/>
    </g>
   </g>
   <g id="LineCollection_1">
    <path clip-path="url(#p5be94b7db4)" d="M 398.487273 295.488 
L 398.487273 53.568 
" style="fill:none;stroke:#1f77b4;stroke-dasharray:5.55,2.4;stroke-dashoffset:0;stroke-width:1.5;"/>
   </g>
   <g id="line2d_15">
    <path clip-path="url(#p5be94b7db4)" d="M 73.832727 196.453036 
L 75.464157 148.579639 
L 77.095587 139.248043 
L 78.727017 125.239924 
L 80.358447 147.95756 
L 81.989877 152.315618 
L 83.621307 189.445436 
L 85.252736 176.082015 
L 86.884166 130.788306 
L 88.515596 118.608885 
L 90.147026 141.224491 
L 91.778456 103.716875 
L 93.409886 172.551402 
L 95.041316 162.977107 
L 96.672746 139.60721 
L 98.304175 122.358409 
L 99.935605 169.741046 
L 101.567035 156.271333 
L 103.198465 141.301563 
L 104.829895 123.433365 
L 106.461325 183.621559 
L 108.092755 173.797691 
L 109.724185 154.22015 
L 111.355614 178.3123 
L 112.987044 109.102518 
L 114.618474 150.535186 
L 116.249904 128.062174 
L 117.881334 176.205634 
L 119.512764 171.833103 
L 121.144194 169.566894 
L 122.775624 153.211266 
L 124.407053 168.053293 
L 126.038483 136.014993 
L 127.669913 162.504429 
L 129.301343 157.405142 
L 130.932773 159.289186 
L 132.564203 167.140319 
L 134.195633 149.375388 
L 135.827063 148.195858 
L 137.458492 172.894136 
L 139.089922 165.234206 
L 140.721352 149.763225 
L 142.352782 150.338758 
L 143.984212 152.351576 
L 145.615642 148.648392 
L 147.247072 131.175043 
L 148.878502 189.815878 
L 150.509931 171.500921 
L 152.141361 150.319576 
L 153.772791 167.046952 
L 155.404221 149.584604 
L 157.035651 127.132012 
L 158.667081 152.163743 
L 160.298511 144.519144 
L 161.929941 159.438174 
L 163.56137 176.625166 
L 165.1928 192.617639 
L 166.82423 175.698648 
L 168.45566 180.678098 
L 170.08709 135.867105 
L 171.71852 179.826383 
L 173.34995 137.005795 
L 174.98138 152.902771 
L 176.61281 141.640929 
L 178.244239 148.582595 
L 179.875669 181.459134 
L 181.507099 154.196293 
L 183.138529 146.599272 
L 184.769959 193.922987 
L 186.401389 160.974464 
L 188.032819 195.77623 
L 189.664249 149.149534 
L 191.295678 169.127286 
L 192.927108 180.545129 
L 194.558538 175.739212 
L 196.189968 167.186796 
L 197.821398 188.221973 
L 199.452828 140.992655 
L 201.084258 208.459956 
L 202.715688 130.880573 
L 204.347117 140.630945 
L 205.978547 130.476442 
L 207.609977 148.629347 
L 209.241407 140.303198 
L 210.872837 154.135172 
L 212.504267 179.750273 
L 214.135697 148.746915 
L 215.767127 181.400006 
L 217.398556 169.265618 
L 219.029986 179.021146 
L 220.661416 160.798593 
L 222.292846 183.590964 
L 223.924276 134.890809 
L 225.555706 150.170656 
L 227.187136 147.689491 
L 228.818566 158.321416 
L 230.449995 167.541253 
L 232.081425 201.158505 
L 233.712855 157.38706 
L 235.344285 165.413995 
L 236.975715 147.773026 
L 238.607145 173.556642 
L 240.238575 162.992508 
L 241.870005 151.226155 
L 243.501434 193.594003 
L 245.132864 162.550493 
L 246.764294 183.249467 
L 248.395724 126.477481 
L 250.027154 141.878678 
L 251.658584 173.270285 
L 253.290014 159.35512 
L 254.921444 161.455393 
L 256.552873 165.461366 
L 258.184303 140.550778 
L 259.815733 147.386839 
L 261.447163 165.733079 
L 263.078593 177.869048 
L 264.710023 122.161912 
L 266.341453 159.862656 
L 267.972883 137.544545 
L 269.604312 152.073882 
L 271.235742 124.812829 
L 272.867172 140.218219 
L 274.498602 157.644197 
L 276.130032 151.688383 
L 277.761462 167.054721 
L 279.392892 169.968344 
L 281.024322 156.422865 
L 282.655751 152.565536 
L 284.287181 154.865193 
L 285.918611 122.975194 
L 287.550041 151.594466 
L 289.181471 150.550586 
L 290.812901 177.438103 
L 292.444331 141.276125 
L 294.075761 163.497362 
L 295.70719 119.55101 
L 297.33862 134.869908 
L 298.97005 151.307834 
L 300.60148 201.075313 
L 302.23291 156.760443 
L 303.86434 185.997326 
L 305.49577 142.478274 
L 307.1272 152.39551 
L 308.75863 126.139628 
L 310.390059 131.45205 
L 312.021489 141.709682 
L 313.652919 163.476324 
L 315.284349 137.14777 
L 316.915779 178.608695 
L 318.547209 143.300287 
L 320.178639 132.492423 
L 321.810069 148.789473 
L 323.441498 151.168815 
L 325.072928 163.501006 
L 326.704358 135.962809 
L 328.335788 197.317676 
L 329.967218 162.593877 
L 331.598648 132.370317 
L 333.230078 135.198686 
L 334.861508 144.185622 
L 336.492937 150.964756 
L 338.124367 135.547471 
L 339.755797 156.894237 
L 341.387227 164.518416 
L 343.018657 156.740092 
L 344.650087 171.523748 
L 347.912947 135.207762 
L 349.544376 132.564408 
L 351.175806 212.857892 
L 352.807236 156.300966 
L 354.438666 118.780699 
L 356.070096 154.758557 
L 357.701526 194.893508 
L 359.332956 185.567412 
L 362.595815 151.822108 
L 364.227245 169.775354 
L 365.858675 169.063071 
L 367.490105 141.401737 
L 369.121535 165.929163 
L 370.752965 154.845667 
L 372.384395 142.669339 
L 374.015825 153.806119 
L 375.647254 140.542665 
L 377.278684 159.270554 
L 378.910114 170.237994 
L 380.541544 133.769445 
L 382.172974 135.25747 
L 383.804404 155.003731 
L 385.435834 163.005708 
L 387.067264 141.4192 
L 388.698693 149.260226 
L 390.330123 142.858961 
L 391.961553 170.369038 
L 393.592983 152.512527 
L 395.224413 165.152458 
L 396.855843 157.548217 
L 398.487273 144.726503 
L 398.487273 144.726503 
" style="fill:none;stroke:#1f77b4;stroke-linecap:round;stroke-width:1.5;"/>
   </g>
   <g id="patch_3">
    <path d="M 57.6 307.584 
L 57.6 41.472 
" style="fill:none;stroke:#cccccc;stroke-linecap:square;stroke-linejoin:miter;stroke-width:0.8;"/>
   </g>
   <g id="patch_4">
    <path d="M 414.72 307.584 
L 414.72 41.472 
" style="fill:none;stroke:#cccccc;stroke-linecap:square;stroke-linejoin:miter;stroke-width:0.8;"/>
   </g>
   <g id="patch_5">
    <path d="M 57.6 307.584 
L 414.72 307.584 
" style="fill:none;stroke:#cccccc;stroke-linecap:square;stroke-linejoin:miter;stroke-width:0.8;"/>
   </g>
   <g id="patch_6">
    <path d="M 57.6 41.472 
L 414.72 41.472 
" style="fill:none;stroke:#cccccc;stroke-linecap:square;stroke-linejoin:miter;stroke-width:0.8;"/>
   </g>
   <g id="text_17">
    <!-- Model performance vs. # of iterations -->
    <g style="fill:#262626;" transform="translate(122.314688 35.472)scale(0.12 -0.12)">
     <defs>
      <path d="M 628 4666 
L 1569 4666 
L 2759 1491 
L 3956 4666 
L 4897 4666 
L 4897 0 
L 4281 0 
L 4281 4097 
L 3078 897 
L 2444 897 
L 1241 4097 
L 1241 0 
L 628 0 
L 628 4666 
z
" id="DejaVuSans-4d" transform="scale(0.015625)"/>
      <path d="M 2906 2969 
L 2906 4863 
L 3481 4863 
L 3481 0 
L 2906 0 
L 2906 525 
Q 2725 213 2448 61 
Q 2172 -91 1784 -91 
Q 1150 -91 751 415 
Q 353 922 353 1747 
Q 353 2572 751 3078 
Q 1150 3584 1784 3584 
Q 2172 3584 2448 3432 
Q 2725 3281 2906 2969 
z
M 947 1747 
Q 947 1113 1208 752 
Q 1469 391 1925 391 
Q 2381 391 2643 752 
Q 2906 1113 2906 1747 
Q 2906 2381 2643 2742 
Q 2381 3103 1925 3103 
Q 1469 3103 1208 2742 
Q 947 2381 947 1747 
z
" id="DejaVuSans-64" transform="scale(0.015625)"/>
      <path d="M 603 4863 
L 1178 4863 
L 1178 0 
L 603 0 
L 603 4863 
z
" id="DejaVuSans-6c" transform="scale(0.015625)"/>
      <path id="DejaVuSans-20" transform="scale(0.015625)"/>
      <path d="M 1159 525 
L 1159 -1331 
L 581 -1331 
L 581 3500 
L 1159 3500 
L 1159 2969 
Q 1341 3281 1617 3432 
Q 1894 3584 2278 3584 
Q 2916 3584 3314 3078 
Q 3713 2572 3713 1747 
Q 3713 922 3314 415 
Q 2916 -91 2278 -91 
Q 1894 -91 1617 61 
Q 1341 213 1159 525 
z
M 3116 1747 
Q 3116 2381 2855 2742 
Q 2594 3103 2138 3103 
Q 1681 3103 1420 2742 
Q 1159 2381 1159 1747 
Q 1159 1113 1420 752 
Q 1681 391 2138 391 
Q 2594 391 2855 752 
Q 3116 1113 3116 1747 
z
" id="DejaVuSans-70" transform="scale(0.015625)"/>
      <path d="M 2375 4863 
L 2375 4384 
L 1825 4384 
Q 1516 4384 1395 4259 
Q 1275 4134 1275 3809 
L 1275 3500 
L 2222 3500 
L 2222 3053 
L 1275 3053 
L 1275 0 
L 697 0 
L 697 3053 
L 147 3053 
L 147 3500 
L 697 3500 
L 697 3744 
Q 697 4328 969 4595 
Q 1241 4863 1831 4863 
L 2375 4863 
z
" id="DejaVuSans-66" transform="scale(0.015625)"/>
      <path d="M 3328 2828 
Q 3544 3216 3844 3400 
Q 4144 3584 4550 3584 
Q 5097 3584 5394 3201 
Q 5691 2819 5691 2113 
L 5691 0 
L 5113 0 
L 5113 2094 
Q 5113 2597 4934 2840 
Q 4756 3084 4391 3084 
Q 3944 3084 3684 2787 
Q 3425 2491 3425 1978 
L 3425 0 
L 2847 0 
L 2847 2094 
Q 2847 2600 2669 2842 
Q 2491 3084 2119 3084 
Q 1678 3084 1418 2786 
Q 1159 2488 1159 1978 
L 1159 0 
L 581 0 
L 581 3500 
L 1159 3500 
L 1159 2956 
Q 1356 3278 1631 3431 
Q 1906 3584 2284 3584 
Q 2666 3584 2933 3390 
Q 3200 3197 3328 2828 
z
" id="DejaVuSans-6d" transform="scale(0.015625)"/>
      <path d="M 191 3500 
L 800 3500 
L 1894 563 
L 2988 3500 
L 3597 3500 
L 2284 0 
L 1503 0 
L 191 3500 
z
" id="DejaVuSans-76" transform="scale(0.015625)"/>
      <path d="M 2834 3397 
L 2834 2853 
Q 2591 2978 2328 3040 
Q 2066 3103 1784 3103 
Q 1356 3103 1142 2972 
Q 928 2841 928 2578 
Q 928 2378 1081 2264 
Q 1234 2150 1697 2047 
L 1894 2003 
Q 2506 1872 2764 1633 
Q 3022 1394 3022 966 
Q 3022 478 2636 193 
Q 2250 -91 1575 -91 
Q 1294 -91 989 -36 
Q 684 19 347 128 
L 347 722 
Q 666 556 975 473 
Q 1284 391 1588 391 
Q 1994 391 2212 530 
Q 2431 669 2431 922 
Q 2431 1156 2273 1281 
Q 2116 1406 1581 1522 
L 1381 1569 
Q 847 1681 609 1914 
Q 372 2147 372 2553 
Q 372 3047 722 3315 
Q 1072 3584 1716 3584 
Q 2034 3584 2315 3537 
Q 2597 3491 2834 3397 
z
" id="DejaVuSans-73" transform="scale(0.015625)"/>
      <path d="M 3272 2816 
L 2363 2816 
L 2100 1772 
L 3016 1772 
L 3272 2816 
z
M 2803 4594 
L 2478 3297 
L 3391 3297 
L 3719 4594 
L 4219 4594 
L 3897 3297 
L 4872 3297 
L 4872 2816 
L 3775 2816 
L 3519 1772 
L 4513 1772 
L 4513 1294 
L 3397 1294 
L 3072 0 
L 2572 0 
L 2894 1294 
L 1978 1294 
L 1656 0 
L 1153 0 
L 1478 1294 
L 494 1294 
L 494 1772 
L 1594 1772 
L 1856 2816 
L 850 2816 
L 850 3297 
L 1978 3297 
L 2297 4594 
L 2803 4594 
z
" id="DejaVuSans-23" transform="scale(0.015625)"/>
     </defs>
     <use xlink:href="#DejaVuSans-4d"/>
     <use x="86.279297" xlink:href="#DejaVuSans-6f"/>
     <use x="147.460938" xlink:href="#DejaVuSans-64"/>
     <use x="210.9375" xlink:href="#DejaVuSans-65"/>
     <use x="272.460938" xlink:href="#DejaVuSans-6c"/>
     <use x="300.244141" xlink:href="#DejaVuSans-20"/>
     <use x="332.03125" xlink:href="#DejaVuSans-70"/>
     <use x="395.507812" xlink:href="#DejaVuSans-65"/>
     <use x="457.03125" xlink:href="#DejaVuSans-72"/>
     <use x="498.144531" xlink:href="#DejaVuSans-66"/>
     <use x="533.349609" xlink:href="#DejaVuSans-6f"/>
     <use x="594.53125" xlink:href="#DejaVuSans-72"/>
     <use x="633.894531" xlink:href="#DejaVuSans-6d"/>
     <use x="731.306641" xlink:href="#DejaVuSans-61"/>
     <use x="792.585938" xlink:href="#DejaVuSans-6e"/>
     <use x="855.964844" xlink:href="#DejaVuSans-63"/>
     <use x="910.945312" xlink:href="#DejaVuSans-65"/>
     <use x="972.46875" xlink:href="#DejaVuSans-20"/>
     <use x="1004.255859" xlink:href="#DejaVuSans-76"/>
     <use x="1063.435547" xlink:href="#DejaVuSans-73"/>
     <use x="1115.535156" xlink:href="#DejaVuSans-2e"/>
     <use x="1147.322266" xlink:href="#DejaVuSans-20"/>
     <use x="1179.109375" xlink:href="#DejaVuSans-23"/>
     <use x="1262.898438" xlink:href="#DejaVuSans-20"/>
     <use x="1294.685547" xlink:href="#DejaVuSans-6f"/>
     <use x="1355.867188" xlink:href="#DejaVuSans-66"/>
     <use x="1391.072266" xlink:href="#DejaVuSans-20"/>
     <use x="1422.859375" xlink:href="#DejaVuSans-69"/>
     <use x="1450.642578" xlink:href="#DejaVuSans-74"/>
     <use x="1489.851562" xlink:href="#DejaVuSans-65"/>
     <use x="1551.375" xlink:href="#DejaVuSans-72"/>
     <use x="1592.488281" xlink:href="#DejaVuSans-61"/>
     <use x="1653.767578" xlink:href="#DejaVuSans-74"/>
     <use x="1692.976562" xlink:href="#DejaVuSans-69"/>
     <use x="1720.759766" xlink:href="#DejaVuSans-6f"/>
     <use x="1781.941406" xlink:href="#DejaVuSans-6e"/>
     <use x="1845.320312" xlink:href="#DejaVuSans-73"/>
    </g>
   </g>
  </g>
 </g>
 <defs>
  <clipPath id="p5be94b7db4">
   <rect height="266.112" width="357.12" x="57.6" y="41.472"/>
  </clipPath>
 </defs>
</svg>
