<?xml version="1.0" encoding="utf-8" standalone="no"?>
<!DOCTYPE svg PUBLIC "-//W3C//DTD SVG 1.1//EN"
  "http://www.w3.org/Graphics/SVG/1.1/DTD/svg11.dtd">
<svg height="345.6pt" version="1.1" viewBox="0 0 460.8 345.6" width="460.8pt" xmlns="http://www.w3.org/2000/svg" xmlns:xlink="http://www.w3.org/1999/xlink">
 <metadata>
  <rdf:RDF xmlns:cc="http://creativecommons.org/ns#" xmlns:dc="http://purl.org/dc/elements/1.1/" xmlns:rdf="http://www.w3.org/1999/02/22-rdf-syntax-ns#">
   <cc:Work>
    <dc:type rdf:resource="http://purl.org/dc/dcmitype/StillImage"/>
    <dc:date>2022-04-22T08:41:45.552181</dc:date>
    <dc:format>image/svg+xml</dc:format>
    <dc:creator>
     <cc:Agent>
      <dc:title>Matplotlib v3.4.3, https://matplotlib.org/</dc:title>
     </cc:Agent>
    </dc:creator>
   </cc:Work>
  </rdf:RDF>
 </metadata>
 <defs>
  <style type="text/css">*{stroke-linecap:butt;stroke-linejoin:round;}</style>
 </defs>
 <g id="figure_1">
  <g id="patch_1">
   <path d="M 0 345.6 
L 460.8 345.6 
L 460.8 0 
L 0 0 
z
" style="fill:#ffffff;"/>
  </g>
  <g id="axes_1">
   <g id="patch_2">
    <path d="M 57.6 307.584 
L 414.72 307.584 
L 414.72 41.472 
L 57.6 41.472 
z
" style="fill:#ffffff;"/>
   </g>
   <g id="matplotlib.axis_1">
    <g id="xtick_1">
     <g id="line2d_1">
      <path clip-path="url(#p8fbb81e7dd)" d="M 72.201297 307.584 
L 72.201297 41.472 
" style="fill:none;stroke:#cccccc;stroke-linecap:round;stroke-width:0.8;"/>
     </g>
     <g id="text_1">
      <!-- 0 -->
      <g style="fill:#262626;" transform="translate(69.020047 322.182437)scale(0.1 -0.1)">
       <defs>
        <path d="M 2034 4250 
Q 1547 4250 1301 3770 
Q 1056 3291 1056 2328 
Q 1056 1369 1301 889 
Q 1547 409 2034 409 
Q 2525 409 2770 889 
Q 3016 1369 3016 2328 
Q 3016 3291 2770 3770 
Q 2525 4250 2034 4250 
z
M 2034 4750 
Q 2819 4750 3233 4129 
Q 3647 3509 3647 2328 
Q 3647 1150 3233 529 
Q 2819 -91 2034 -91 
Q 1250 -91 836 529 
Q 422 1150 422 2328 
Q 422 3509 836 4129 
Q 1250 4750 2034 4750 
z
" id="DejaVuSans-30" transform="scale(0.015625)"/>
       </defs>
       <use xlink:href="#DejaVuSans-30"/>
      </g>
     </g>
    </g>
    <g id="xtick_2">
     <g id="line2d_2">
      <path clip-path="url(#p8fbb81e7dd)" d="M 112.987044 307.584 
L 112.987044 41.472 
" style="fill:none;stroke:#cccccc;stroke-linecap:round;stroke-width:0.8;"/>
     </g>
     <g id="text_2">
      <!-- 25 -->
      <g style="fill:#262626;" transform="translate(106.624544 322.182437)scale(0.1 -0.1)">
       <defs>
        <path d="M 1228 531 
L 3431 531 
L 3431 0 
L 469 0 
L 469 531 
Q 828 903 1448 1529 
Q 2069 2156 2228 2338 
Q 2531 2678 2651 2914 
Q 2772 3150 2772 3378 
Q 2772 3750 2511 3984 
Q 2250 4219 1831 4219 
Q 1534 4219 1204 4116 
Q 875 4013 500 3803 
L 500 4441 
Q 881 4594 1212 4672 
Q 1544 4750 1819 4750 
Q 2544 4750 2975 4387 
Q 3406 4025 3406 3419 
Q 3406 3131 3298 2873 
Q 3191 2616 2906 2266 
Q 2828 2175 2409 1742 
Q 1991 1309 1228 531 
z
" id="DejaVuSans-32" transform="scale(0.015625)"/>
        <path d="M 691 4666 
L 3169 4666 
L 3169 4134 
L 1269 4134 
L 1269 2991 
Q 1406 3038 1543 3061 
Q 1681 3084 1819 3084 
Q 2600 3084 3056 2656 
Q 3513 2228 3513 1497 
Q 3513 744 3044 326 
Q 2575 -91 1722 -91 
Q 1428 -91 1123 -41 
Q 819 9 494 109 
L 494 744 
Q 775 591 1075 516 
Q 1375 441 1709 441 
Q 2250 441 2565 725 
Q 2881 1009 2881 1497 
Q 2881 1984 2565 2268 
Q 2250 2553 1709 2553 
Q 1456 2553 1204 2497 
Q 953 2441 691 2322 
L 691 4666 
z
" id="DejaVuSans-35" transform="scale(0.015625)"/>
       </defs>
       <use xlink:href="#DejaVuSans-32"/>
       <use x="63.623047" xlink:href="#DejaVuSans-35"/>
      </g>
     </g>
    </g>
    <g id="xtick_3">
     <g id="line2d_3">
      <path clip-path="url(#p8fbb81e7dd)" d="M 153.772791 307.584 
L 153.772791 41.472 
" style="fill:none;stroke:#cccccc;stroke-linecap:round;stroke-width:0.8;"/>
     </g>
     <g id="text_3">
      <!-- 50 -->
      <g style="fill:#262626;" transform="translate(147.410291 322.182437)scale(0.1 -0.1)">
       <use xlink:href="#DejaVuSans-35"/>
       <use x="63.623047" xlink:href="#DejaVuSans-30"/>
      </g>
     </g>
    </g>
    <g id="xtick_4">
     <g id="line2d_4">
      <path clip-path="url(#p8fbb81e7dd)" d="M 194.558538 307.584 
L 194.558538 41.472 
" style="fill:none;stroke:#cccccc;stroke-linecap:round;stroke-width:0.8;"/>
     </g>
     <g id="text_4">
      <!-- 75 -->
      <g style="fill:#262626;" transform="translate(188.196038 322.182437)scale(0.1 -0.1)">
       <defs>
        <path d="M 525 4666 
L 3525 4666 
L 3525 4397 
L 1831 0 
L 1172 0 
L 2766 4134 
L 525 4134 
L 525 4666 
z
" id="DejaVuSans-37" transform="scale(0.015625)"/>
       </defs>
       <use xlink:href="#DejaVuSans-37"/>
       <use x="63.623047" xlink:href="#DejaVuSans-35"/>
      </g>
     </g>
    </g>
    <g id="xtick_5">
     <g id="line2d_5">
      <path clip-path="url(#p8fbb81e7dd)" d="M 235.344285 307.584 
L 235.344285 41.472 
" style="fill:none;stroke:#cccccc;stroke-linecap:round;stroke-width:0.8;"/>
     </g>
     <g id="text_5">
      <!-- 100 -->
      <g style="fill:#262626;" transform="translate(225.800535 322.182437)scale(0.1 -0.1)">
       <defs>
        <path d="M 794 531 
L 1825 531 
L 1825 4091 
L 703 3866 
L 703 4441 
L 1819 4666 
L 2450 4666 
L 2450 531 
L 3481 531 
L 3481 0 
L 794 0 
L 794 531 
z
" id="DejaVuSans-31" transform="scale(0.015625)"/>
       </defs>
       <use xlink:href="#DejaVuSans-31"/>
       <use x="63.623047" xlink:href="#DejaVuSans-30"/>
       <use x="127.246094" xlink:href="#DejaVuSans-30"/>
      </g>
     </g>
    </g>
    <g id="xtick_6">
     <g id="line2d_6">
      <path clip-path="url(#p8fbb81e7dd)" d="M 276.130032 307.584 
L 276.130032 41.472 
" style="fill:none;stroke:#cccccc;stroke-linecap:round;stroke-width:0.8;"/>
     </g>
     <g id="text_6">
      <!-- 125 -->
      <g style="fill:#262626;" transform="translate(266.586282 322.182437)scale(0.1 -0.1)">
       <use xlink:href="#DejaVuSans-31"/>
       <use x="63.623047" xlink:href="#DejaVuSans-32"/>
       <use x="127.246094" xlink:href="#DejaVuSans-35"/>
      </g>
     </g>
    </g>
    <g id="xtick_7">
     <g id="line2d_7">
      <path clip-path="url(#p8fbb81e7dd)" d="M 316.915779 307.584 
L 316.915779 41.472 
" style="fill:none;stroke:#cccccc;stroke-linecap:round;stroke-width:0.8;"/>
     </g>
     <g id="text_7">
      <!-- 150 -->
      <g style="fill:#262626;" transform="translate(307.372029 322.182437)scale(0.1 -0.1)">
       <use xlink:href="#DejaVuSans-31"/>
       <use x="63.623047" xlink:href="#DejaVuSans-35"/>
       <use x="127.246094" xlink:href="#DejaVuSans-30"/>
      </g>
     </g>
    </g>
    <g id="xtick_8">
     <g id="line2d_8">
      <path clip-path="url(#p8fbb81e7dd)" d="M 357.701526 307.584 
L 357.701526 41.472 
" style="fill:none;stroke:#cccccc;stroke-linecap:round;stroke-width:0.8;"/>
     </g>
     <g id="text_8">
      <!-- 175 -->
      <g style="fill:#262626;" transform="translate(348.157776 322.182437)scale(0.1 -0.1)">
       <use xlink:href="#DejaVuSans-31"/>
       <use x="63.623047" xlink:href="#DejaVuSans-37"/>
       <use x="127.246094" xlink:href="#DejaVuSans-35"/>
      </g>
     </g>
    </g>
    <g id="xtick_9">
     <g id="line2d_9">
      <path clip-path="url(#p8fbb81e7dd)" d="M 398.487273 307.584 
L 398.487273 41.472 
" style="fill:none;stroke:#cccccc;stroke-linecap:round;stroke-width:0.8;"/>
     </g>
     <g id="text_9">
      <!-- 200 -->
      <g style="fill:#262626;" transform="translate(388.943523 322.182437)scale(0.1 -0.1)">
       <use xlink:href="#DejaVuSans-32"/>
       <use x="63.623047" xlink:href="#DejaVuSans-30"/>
       <use x="127.246094" xlink:href="#DejaVuSans-30"/>
      </g>
     </g>
    </g>
    <g id="text_10">
     <!-- Iteration -->
     <g style="fill:#262626;" transform="translate(214.951406 335.860562)scale(0.1 -0.1)">
      <defs>
       <path d="M 628 4666 
L 1259 4666 
L 1259 0 
L 628 0 
L 628 4666 
z
" id="DejaVuSans-49" transform="scale(0.015625)"/>
       <path d="M 1172 4494 
L 1172 3500 
L 2356 3500 
L 2356 3053 
L 1172 3053 
L 1172 1153 
Q 1172 725 1289 603 
Q 1406 481 1766 481 
L 2356 481 
L 2356 0 
L 1766 0 
Q 1100 0 847 248 
Q 594 497 594 1153 
L 594 3053 
L 172 3053 
L 172 3500 
L 594 3500 
L 594 4494 
L 1172 4494 
z
" id="DejaVuSans-74" transform="scale(0.015625)"/>
       <path d="M 3597 1894 
L 3597 1613 
L 953 1613 
Q 991 1019 1311 708 
Q 1631 397 2203 397 
Q 2534 397 2845 478 
Q 3156 559 3463 722 
L 3463 178 
Q 3153 47 2828 -22 
Q 2503 -91 2169 -91 
Q 1331 -91 842 396 
Q 353 884 353 1716 
Q 353 2575 817 3079 
Q 1281 3584 2069 3584 
Q 2775 3584 3186 3129 
Q 3597 2675 3597 1894 
z
M 3022 2063 
Q 3016 2534 2758 2815 
Q 2500 3097 2075 3097 
Q 1594 3097 1305 2825 
Q 1016 2553 972 2059 
L 3022 2063 
z
" id="DejaVuSans-65" transform="scale(0.015625)"/>
       <path d="M 2631 2963 
Q 2534 3019 2420 3045 
Q 2306 3072 2169 3072 
Q 1681 3072 1420 2755 
Q 1159 2438 1159 1844 
L 1159 0 
L 581 0 
L 581 3500 
L 1159 3500 
L 1159 2956 
Q 1341 3275 1631 3429 
Q 1922 3584 2338 3584 
Q 2397 3584 2469 3576 
Q 2541 3569 2628 3553 
L 2631 2963 
z
" id="DejaVuSans-72" transform="scale(0.015625)"/>
       <path d="M 2194 1759 
Q 1497 1759 1228 1600 
Q 959 1441 959 1056 
Q 959 750 1161 570 
Q 1363 391 1709 391 
Q 2188 391 2477 730 
Q 2766 1069 2766 1631 
L 2766 1759 
L 2194 1759 
z
M 3341 1997 
L 3341 0 
L 2766 0 
L 2766 531 
Q 2569 213 2275 61 
Q 1981 -91 1556 -91 
Q 1019 -91 701 211 
Q 384 513 384 1019 
Q 384 1609 779 1909 
Q 1175 2209 1959 2209 
L 2766 2209 
L 2766 2266 
Q 2766 2663 2505 2880 
Q 2244 3097 1772 3097 
Q 1472 3097 1187 3025 
Q 903 2953 641 2809 
L 641 3341 
Q 956 3463 1253 3523 
Q 1550 3584 1831 3584 
Q 2591 3584 2966 3190 
Q 3341 2797 3341 1997 
z
" id="DejaVuSans-61" transform="scale(0.015625)"/>
       <path d="M 603 3500 
L 1178 3500 
L 1178 0 
L 603 0 
L 603 3500 
z
M 603 4863 
L 1178 4863 
L 1178 4134 
L 603 4134 
L 603 4863 
z
" id="DejaVuSans-69" transform="scale(0.015625)"/>
       <path d="M 1959 3097 
Q 1497 3097 1228 2736 
Q 959 2375 959 1747 
Q 959 1119 1226 758 
Q 1494 397 1959 397 
Q 2419 397 2687 759 
Q 2956 1122 2956 1747 
Q 2956 2369 2687 2733 
Q 2419 3097 1959 3097 
z
M 1959 3584 
Q 2709 3584 3137 3096 
Q 3566 2609 3566 1747 
Q 3566 888 3137 398 
Q 2709 -91 1959 -91 
Q 1206 -91 779 398 
Q 353 888 353 1747 
Q 353 2609 779 3096 
Q 1206 3584 1959 3584 
z
" id="DejaVuSans-6f" transform="scale(0.015625)"/>
       <path d="M 3513 2113 
L 3513 0 
L 2938 0 
L 2938 2094 
Q 2938 2591 2744 2837 
Q 2550 3084 2163 3084 
Q 1697 3084 1428 2787 
Q 1159 2491 1159 1978 
L 1159 0 
L 581 0 
L 581 3500 
L 1159 3500 
L 1159 2956 
Q 1366 3272 1645 3428 
Q 1925 3584 2291 3584 
Q 2894 3584 3203 3211 
Q 3513 2838 3513 2113 
z
" id="DejaVuSans-6e" transform="scale(0.015625)"/>
      </defs>
      <use xlink:href="#DejaVuSans-49"/>
      <use x="29.492188" xlink:href="#DejaVuSans-74"/>
      <use x="68.701172" xlink:href="#DejaVuSans-65"/>
      <use x="130.224609" xlink:href="#DejaVuSans-72"/>
      <use x="171.337891" xlink:href="#DejaVuSans-61"/>
      <use x="232.617188" xlink:href="#DejaVuSans-74"/>
      <use x="271.826172" xlink:href="#DejaVuSans-69"/>
      <use x="299.609375" xlink:href="#DejaVuSans-6f"/>
      <use x="360.791016" xlink:href="#DejaVuSans-6e"/>
     </g>
    </g>
   </g>
   <g id="matplotlib.axis_2">
    <g id="ytick_1">
     <g id="line2d_10">
      <path clip-path="url(#p8fbb81e7dd)" d="M 57.6 279.019115 
L 414.72 279.019115 
" style="fill:none;stroke:#cccccc;stroke-linecap:round;stroke-width:0.8;"/>
     </g>
     <g id="text_11">
      <!-- 0.575 -->
      <g style="fill:#262626;" transform="translate(21.971875 282.818334)scale(0.1 -0.1)">
       <defs>
        <path d="M 684 794 
L 1344 794 
L 1344 0 
L 684 0 
L 684 794 
z
" id="DejaVuSans-2e" transform="scale(0.015625)"/>
       </defs>
       <use xlink:href="#DejaVuSans-30"/>
       <use x="63.623047" xlink:href="#DejaVuSans-2e"/>
       <use x="95.410156" xlink:href="#DejaVuSans-35"/>
       <use x="159.033203" xlink:href="#DejaVuSans-37"/>
       <use x="222.65625" xlink:href="#DejaVuSans-35"/>
      </g>
     </g>
    </g>
    <g id="ytick_2">
     <g id="line2d_11">
      <path clip-path="url(#p8fbb81e7dd)" d="M 57.6 248.403581 
L 414.72 248.403581 
" style="fill:none;stroke:#cccccc;stroke-linecap:round;stroke-width:0.8;"/>
     </g>
     <g id="text_12">
      <!-- 0.600 -->
      <g style="fill:#262626;" transform="translate(21.971875 252.2028)scale(0.1 -0.1)">
       <defs>
        <path d="M 2113 2584 
Q 1688 2584 1439 2293 
Q 1191 2003 1191 1497 
Q 1191 994 1439 701 
Q 1688 409 2113 409 
Q 2538 409 2786 701 
Q 3034 994 3034 1497 
Q 3034 2003 2786 2293 
Q 2538 2584 2113 2584 
z
M 3366 4563 
L 3366 3988 
Q 3128 4100 2886 4159 
Q 2644 4219 2406 4219 
Q 1781 4219 1451 3797 
Q 1122 3375 1075 2522 
Q 1259 2794 1537 2939 
Q 1816 3084 2150 3084 
Q 2853 3084 3261 2657 
Q 3669 2231 3669 1497 
Q 3669 778 3244 343 
Q 2819 -91 2113 -91 
Q 1303 -91 875 529 
Q 447 1150 447 2328 
Q 447 3434 972 4092 
Q 1497 4750 2381 4750 
Q 2619 4750 2861 4703 
Q 3103 4656 3366 4563 
z
" id="DejaVuSans-36" transform="scale(0.015625)"/>
       </defs>
       <use xlink:href="#DejaVuSans-30"/>
       <use x="63.623047" xlink:href="#DejaVuSans-2e"/>
       <use x="95.410156" xlink:href="#DejaVuSans-36"/>
       <use x="159.033203" xlink:href="#DejaVuSans-30"/>
       <use x="222.65625" xlink:href="#DejaVuSans-30"/>
      </g>
     </g>
    </g>
    <g id="ytick_3">
     <g id="line2d_12">
      <path clip-path="url(#p8fbb81e7dd)" d="M 57.6 217.788047 
L 414.72 217.788047 
" style="fill:none;stroke:#cccccc;stroke-linecap:round;stroke-width:0.8;"/>
     </g>
     <g id="text_13">
      <!-- 0.625 -->
      <g style="fill:#262626;" transform="translate(21.971875 221.587265)scale(0.1 -0.1)">
       <use xlink:href="#DejaVuSans-30"/>
       <use x="63.623047" xlink:href="#DejaVuSans-2e"/>
       <use x="95.410156" xlink:href="#DejaVuSans-36"/>
       <use x="159.033203" xlink:href="#DejaVuSans-32"/>
       <use x="222.65625" xlink:href="#DejaVuSans-35"/>
      </g>
     </g>
    </g>
    <g id="ytick_4">
     <g id="line2d_13">
      <path clip-path="url(#p8fbb81e7dd)" d="M 57.6 187.172512 
L 414.72 187.172512 
" style="fill:none;stroke:#cccccc;stroke-linecap:round;stroke-width:0.8;"/>
     </g>
     <g id="text_14">
      <!-- 0.650 -->
      <g style="fill:#262626;" transform="translate(21.971875 190.971731)scale(0.1 -0.1)">
       <use xlink:href="#DejaVuSans-30"/>
       <use x="63.623047" xlink:href="#DejaVuSans-2e"/>
       <use x="95.410156" xlink:href="#DejaVuSans-36"/>
       <use x="159.033203" xlink:href="#DejaVuSans-35"/>
       <use x="222.65625" xlink:href="#DejaVuSans-30"/>
      </g>
     </g>
    </g>
    <g id="ytick_5">
     <g id="line2d_14">
      <path clip-path="url(#p8fbb81e7dd)" d="M 57.6 156.556978 
L 414.72 156.556978 
" style="fill:none;stroke:#cccccc;stroke-linecap:round;stroke-width:0.8;"/>
     </g>
     <g id="text_15">
      <!-- 0.675 -->
      <g style="fill:#262626;" transform="translate(21.971875 160.356197)scale(0.1 -0.1)">
       <use xlink:href="#DejaVuSans-30"/>
       <use x="63.623047" xlink:href="#DejaVuSans-2e"/>
       <use x="95.410156" xlink:href="#DejaVuSans-36"/>
       <use x="159.033203" xlink:href="#DejaVuSans-37"/>
       <use x="222.65625" xlink:href="#DejaVuSans-35"/>
      </g>
     </g>
    </g>
    <g id="ytick_6">
     <g id="line2d_15">
      <path clip-path="url(#p8fbb81e7dd)" d="M 57.6 125.941444 
L 414.72 125.941444 
" style="fill:none;stroke:#cccccc;stroke-linecap:round;stroke-width:0.8;"/>
     </g>
     <g id="text_16">
      <!-- 0.700 -->
      <g style="fill:#262626;" transform="translate(21.971875 129.740663)scale(0.1 -0.1)">
       <use xlink:href="#DejaVuSans-30"/>
       <use x="63.623047" xlink:href="#DejaVuSans-2e"/>
       <use x="95.410156" xlink:href="#DejaVuSans-37"/>
       <use x="159.033203" xlink:href="#DejaVuSans-30"/>
       <use x="222.65625" xlink:href="#DejaVuSans-30"/>
      </g>
     </g>
    </g>
    <g id="ytick_7">
     <g id="line2d_16">
      <path clip-path="url(#p8fbb81e7dd)" d="M 57.6 95.325909 
L 414.72 95.325909 
" style="fill:none;stroke:#cccccc;stroke-linecap:round;stroke-width:0.8;"/>
     </g>
     <g id="text_17">
      <!-- 0.725 -->
      <g style="fill:#262626;" transform="translate(21.971875 99.125128)scale(0.1 -0.1)">
       <use xlink:href="#DejaVuSans-30"/>
       <use x="63.623047" xlink:href="#DejaVuSans-2e"/>
       <use x="95.410156" xlink:href="#DejaVuSans-37"/>
       <use x="159.033203" xlink:href="#DejaVuSans-32"/>
       <use x="222.65625" xlink:href="#DejaVuSans-35"/>
      </g>
     </g>
    </g>
    <g id="ytick_8">
     <g id="line2d_17">
      <path clip-path="url(#p8fbb81e7dd)" d="M 57.6 64.710375 
L 414.72 64.710375 
" style="fill:none;stroke:#cccccc;stroke-linecap:round;stroke-width:0.8;"/>
     </g>
     <g id="text_18">
      <!-- 0.750 -->
      <g style="fill:#262626;" transform="translate(21.971875 68.509594)scale(0.1 -0.1)">
       <use xlink:href="#DejaVuSans-30"/>
       <use x="63.623047" xlink:href="#DejaVuSans-2e"/>
       <use x="95.410156" xlink:href="#DejaVuSans-37"/>
       <use x="159.033203" xlink:href="#DejaVuSans-35"/>
       <use x="222.65625" xlink:href="#DejaVuSans-30"/>
      </g>
     </g>
    </g>
    <g id="text_19">
     <!-- Auroc -->
     <g style="fill:#262626;" transform="translate(15.892188 188.868625)rotate(-90)scale(0.1 -0.1)">
      <defs>
       <path d="M 2188 4044 
L 1331 1722 
L 3047 1722 
L 2188 4044 
z
M 1831 4666 
L 2547 4666 
L 4325 0 
L 3669 0 
L 3244 1197 
L 1141 1197 
L 716 0 
L 50 0 
L 1831 4666 
z
" id="DejaVuSans-41" transform="scale(0.015625)"/>
       <path d="M 544 1381 
L 544 3500 
L 1119 3500 
L 1119 1403 
Q 1119 906 1312 657 
Q 1506 409 1894 409 
Q 2359 409 2629 706 
Q 2900 1003 2900 1516 
L 2900 3500 
L 3475 3500 
L 3475 0 
L 2900 0 
L 2900 538 
Q 2691 219 2414 64 
Q 2138 -91 1772 -91 
Q 1169 -91 856 284 
Q 544 659 544 1381 
z
M 1991 3584 
L 1991 3584 
z
" id="DejaVuSans-75" transform="scale(0.015625)"/>
       <path d="M 3122 3366 
L 3122 2828 
Q 2878 2963 2633 3030 
Q 2388 3097 2138 3097 
Q 1578 3097 1268 2742 
Q 959 2388 959 1747 
Q 959 1106 1268 751 
Q 1578 397 2138 397 
Q 2388 397 2633 464 
Q 2878 531 3122 666 
L 3122 134 
Q 2881 22 2623 -34 
Q 2366 -91 2075 -91 
Q 1284 -91 818 406 
Q 353 903 353 1747 
Q 353 2603 823 3093 
Q 1294 3584 2113 3584 
Q 2378 3584 2631 3529 
Q 2884 3475 3122 3366 
z
" id="DejaVuSans-63" transform="scale(0.015625)"/>
      </defs>
      <use xlink:href="#DejaVuSans-41"/>
      <use x="68.408203" xlink:href="#DejaVuSans-75"/>
      <use x="131.787109" xlink:href="#DejaVuSans-72"/>
      <use x="170.650391" xlink:href="#DejaVuSans-6f"/>
      <use x="231.832031" xlink:href="#DejaVuSans-63"/>
     </g>
    </g>
   </g>
   <g id="PolyCollection_1">
    <defs>
     <path d="M 73.832727 -271.128337 
L 73.832727 -166.106287 
L 75.464157 -178.284586 
L 77.095587 -176.106539 
L 78.727017 -146.308421 
L 80.358447 -145.956127 
L 81.989877 -89.622777 
L 83.621307 -143.42448 
L 85.252736 -145.363955 
L 86.884166 -162.89092 
L 88.515596 -187.536629 
L 90.147026 -164.240587 
L 91.778456 -162.605802 
L 93.409886 -163.575794 
L 95.041316 -150.106323 
L 96.672746 -150.968452 
L 98.304175 -189.281602 
L 99.935605 -176.278547 
L 101.567035 -111.870157 
L 103.198465 -188.241316 
L 104.829895 -151.587369 
L 106.461325 -166.546983 
L 108.092755 -134.825227 
L 109.724185 -187.459071 
L 111.355614 -161.022273 
L 112.987044 -139.773331 
L 114.618474 -174.112725 
L 116.249904 -124.281516 
L 117.881334 -136.162969 
L 119.512764 -174.63438 
L 121.144194 -182.999903 
L 122.775624 -139.629603 
L 124.407053 -173.430711 
L 126.038483 -155.103036 
L 127.669913 -122.670309 
L 129.301343 -124.443002 
L 130.932773 -184.434673 
L 132.564203 -129.864048 
L 134.195633 -146.887457 
L 135.827063 -164.569781 
L 137.458492 -187.500005 
L 139.089922 -134.801784 
L 140.721352 -168.782831 
L 142.352782 -187.888593 
L 143.984212 -160.303898 
L 145.615642 -126.160182 
L 147.247072 -149.906468 
L 148.878502 -135.567502 
L 150.509931 -170.52803 
L 152.141361 -161.738505 
L 153.772791 -142.054858 
L 155.404221 -134.251414 
L 157.035651 -177.357299 
L 158.667081 -122.041041 
L 160.298511 -166.762627 
L 161.929941 -143.382984 
L 163.56137 -163.717733 
L 165.1928 -154.911198 
L 166.82423 -138.900823 
L 168.45566 -159.020511 
L 170.08709 -148.880666 
L 171.71852 -161.418721 
L 173.34995 -117.749103 
L 174.98138 -154.621329 
L 176.61281 -181.458899 
L 178.244239 -173.735894 
L 179.875669 -149.486097 
L 181.507099 -133.582323 
L 183.138529 -111.492414 
L 184.769959 -143.904682 
L 186.401389 -172.765667 
L 188.032819 -113.403936 
L 189.664249 -202.621786 
L 191.295678 -129.988157 
L 192.927108 -176.382754 
L 194.558538 -166.627418 
L 196.189968 -149.719535 
L 197.821398 -181.480384 
L 199.452828 -129.326975 
L 201.084258 -105.239778 
L 202.715688 -147.960227 
L 204.347117 -123.416033 
L 205.978547 -147.031017 
L 207.609977 -164.370113 
L 209.241407 -151.897078 
L 210.872837 -120.933477 
L 212.504267 -173.165769 
L 214.135697 -163.500462 
L 215.767127 -156.34697 
L 217.398556 -160.801539 
L 219.029986 -133.25325 
L 220.661416 -143.318986 
L 222.292846 -150.917548 
L 223.924276 -167.076516 
L 225.555706 -140.693847 
L 227.187136 -140.301977 
L 228.818566 -178.93659 
L 230.449995 -132.827838 
L 232.081425 -164.381237 
L 233.712855 -131.603818 
L 235.344285 -112.939051 
L 236.975715 -117.000464 
L 238.607145 -161.520695 
L 240.238575 -149.39976 
L 241.870005 -178.288007 
L 243.501434 -171.045817 
L 245.132864 -143.904129 
L 246.764294 -157.708602 
L 248.395724 -162.449239 
L 250.027154 -113.279522 
L 251.658584 -170.39715 
L 253.290014 -150.542637 
L 254.921444 -180.781392 
L 256.552873 -116.390814 
L 258.184303 -168.385157 
L 259.815733 -160.83606 
L 261.447163 -155.446845 
L 263.078593 -146.287236 
L 264.710023 -153.244823 
L 266.341453 -161.910358 
L 267.972883 -145.264012 
L 269.604312 -148.939256 
L 271.235742 -177.495151 
L 272.867172 -138.265873 
L 274.498602 -167.707698 
L 276.130032 -152.6049 
L 277.761462 -138.329004 
L 279.392892 -154.877517 
L 281.024322 -134.993549 
L 282.655751 -149.109634 
L 284.287181 -157.686405 
L 285.918611 -152.288168 
L 287.550041 -190.431683 
L 289.181471 -162.427103 
L 290.812901 -162.654697 
L 292.444331 -133.404659 
L 294.075761 -160.741923 
L 295.70719 -150.551829 
L 297.33862 -148.099444 
L 298.97005 -189.902586 
L 300.60148 -128.525428 
L 302.23291 -151.316134 
L 303.86434 -155.388237 
L 305.49577 -154.540804 
L 307.1272 -139.378086 
L 308.75863 -160.36088 
L 310.390059 -146.17317 
L 312.021489 -152.412258 
L 313.652919 -112.306233 
L 315.284349 -177.321062 
L 316.915779 -147.676493 
L 318.547209 -144.783455 
L 320.178639 -125.368416 
L 321.810069 -146.101942 
L 323.441498 -143.222899 
L 325.072928 -148.989861 
L 326.704358 -107.596627 
L 328.335788 -150.283424 
L 329.967218 -171.260098 
L 331.598648 -103.980021 
L 333.230078 -165.667323 
L 334.861508 -136.487453 
L 336.492937 -150.710406 
L 338.124367 -119.373434 
L 339.755797 -151.080803 
L 341.387227 -147.926015 
L 343.018657 -157.079523 
L 344.650087 -163.180912 
L 346.281517 -139.294555 
L 347.912947 -120.402415 
L 349.544376 -155.134343 
L 351.175806 -149.248443 
L 352.807236 -160.589487 
L 354.438666 -148.940626 
L 356.070096 -183.867318 
L 357.701526 -168.892336 
L 359.332956 -160.97101 
L 360.964386 -160.306873 
L 362.595815 -186.295859 
L 364.227245 -158.472001 
L 365.858675 -132.163109 
L 367.490105 -72.047796 
L 369.121535 -136.449971 
L 370.752965 -159.931414 
L 372.384395 -162.807598 
L 374.015825 -147.563401 
L 375.647254 -113.327619 
L 377.278684 -142.53681 
L 378.910114 -85.906645 
L 380.541544 -152.308981 
L 382.172974 -147.891502 
L 383.804404 -175.488349 
L 385.435834 -175.719057 
L 387.067264 -150.034249 
L 388.698693 -179.156502 
L 390.330123 -170.630145 
L 391.961553 -144.769142 
L 393.592983 -137.432922 
L 395.224413 -88.376509 
L 396.855843 -50.112 
L 398.487273 -108.584121 
L 398.487273 -246.589522 
L 398.487273 -246.589522 
L 396.855843 -209.711031 
L 395.224413 -222.663555 
L 393.592983 -264.271102 
L 391.961553 -249.469014 
L 390.330123 -237.277917 
L 388.698693 -246.040355 
L 387.067264 -226.325106 
L 385.435834 -244.035203 
L 383.804404 -232.518902 
L 382.172974 -252.20496 
L 380.541544 -218.870999 
L 378.910114 -245.28598 
L 377.278684 -240.324349 
L 375.647254 -227.653917 
L 374.015825 -241.23196 
L 372.384395 -240.604757 
L 370.752965 -233.832704 
L 369.121535 -247.680025 
L 367.490105 -233.53582 
L 365.858675 -216.555117 
L 364.227245 -274.124103 
L 362.595815 -259.061455 
L 360.964386 -243.438581 
L 359.332956 -238.272717 
L 357.701526 -238.507835 
L 356.070096 -231.041851 
L 354.438666 -257.38356 
L 352.807236 -265.977272 
L 351.175806 -241.578183 
L 349.544376 -281.939999 
L 347.912947 -249.495272 
L 346.281517 -236.215422 
L 344.650087 -236.833237 
L 343.018657 -272.847641 
L 341.387227 -215.10976 
L 339.755797 -257.578928 
L 338.124367 -254.812041 
L 336.492937 -217.354824 
L 334.861508 -244.135476 
L 333.230078 -244.631553 
L 331.598648 -215.824455 
L 329.967218 -242.369969 
L 328.335788 -229.873955 
L 326.704358 -234.205666 
L 325.072928 -225.910765 
L 323.441498 -217.884058 
L 321.810069 -269.108151 
L 320.178639 -224.82581 
L 318.547209 -260.511232 
L 316.915779 -273.634402 
L 315.284349 -259.261773 
L 313.652919 -258.843547 
L 312.021489 -227.549308 
L 310.390059 -237.530657 
L 308.75863 -240.622267 
L 307.1272 -204.04914 
L 305.49577 -212.43038 
L 303.86434 -230.892249 
L 302.23291 -246.854865 
L 300.60148 -247.173354 
L 298.97005 -228.202363 
L 297.33862 -194.169188 
L 295.70719 -251.759176 
L 294.075761 -244.073792 
L 292.444331 -221.549944 
L 290.812901 -227.10384 
L 289.181471 -249.363071 
L 287.550041 -243.447273 
L 285.918611 -214.643537 
L 284.287181 -252.113069 
L 282.655751 -260.99106 
L 281.024322 -258.445959 
L 279.392892 -260.011222 
L 277.761462 -262.696484 
L 276.130032 -243.751373 
L 274.498602 -238.379618 
L 272.867172 -234.528776 
L 271.235742 -251.976926 
L 269.604312 -217.487422 
L 267.972883 -270.162324 
L 266.341453 -269.470304 
L 264.710023 -274.998585 
L 263.078593 -260.259904 
L 261.447163 -244.186139 
L 259.815733 -246.413501 
L 258.184303 -229.344078 
L 256.552873 -269.092997 
L 254.921444 -262.177212 
L 253.290014 -237.489902 
L 251.658584 -266.185291 
L 250.027154 -222.397 
L 248.395724 -240.207795 
L 246.764294 -253.908163 
L 245.132864 -249.419608 
L 243.501434 -216.869274 
L 241.870005 -279.090889 
L 240.238575 -269.722944 
L 238.607145 -220.451508 
L 236.975715 -263.535809 
L 235.344285 -249.273993 
L 233.712855 -223.236923 
L 232.081425 -244.97065 
L 230.449995 -236.534851 
L 228.818566 -267.648899 
L 227.187136 -235.789122 
L 225.555706 -254.956255 
L 223.924276 -261.607077 
L 222.292846 -276.086434 
L 220.661416 -231.077402 
L 219.029986 -227.936316 
L 217.398556 -239.905259 
L 215.767127 -250.560905 
L 214.135697 -239.29593 
L 212.504267 -266.1849 
L 210.872837 -219.045603 
L 209.241407 -253.91754 
L 207.609977 -247.794909 
L 205.978547 -258.369768 
L 204.347117 -231.851569 
L 202.715688 -242.973682 
L 201.084258 -283.142442 
L 199.452828 -224.95929 
L 197.821398 -242.2384 
L 196.189968 -251.441265 
L 194.558538 -249.444391 
L 192.927108 -228.1272 
L 191.295678 -285.529374 
L 189.664249 -241.392077 
L 188.032819 -245.837993 
L 186.401389 -239.719525 
L 184.769959 -252.698332 
L 183.138529 -286.447241 
L 181.507099 -240.189615 
L 179.875669 -232.747947 
L 178.244239 -212.918354 
L 176.61281 -256.253809 
L 174.98138 -229.535907 
L 173.34995 -245.765249 
L 171.71852 -249.786777 
L 170.08709 -252.602575 
L 168.45566 -253.801729 
L 166.82423 -233.624583 
L 165.1928 -240.421498 
L 163.56137 -211.33755 
L 161.929941 -207.203065 
L 160.298511 -240.020299 
L 158.667081 -278.105065 
L 157.035651 -244.134901 
L 155.404221 -237.512157 
L 153.772791 -233.191107 
L 152.141361 -225.606813 
L 150.509931 -258.000807 
L 148.878502 -202.408047 
L 147.247072 -243.267744 
L 145.615642 -252.689375 
L 143.984212 -248.899846 
L 142.352782 -259.28177 
L 140.721352 -266.099667 
L 139.089922 -252.478493 
L 137.458492 -227.884583 
L 135.827063 -249.013307 
L 134.195633 -262.752228 
L 132.564203 -237.832749 
L 130.932773 -246.764486 
L 129.301343 -223.346493 
L 127.669913 -197.061757 
L 126.038483 -215.423379 
L 124.407053 -235.447731 
L 122.775624 -243.47346 
L 121.144194 -265.946792 
L 119.512764 -266.937741 
L 117.881334 -259.79931 
L 116.249904 -292.032 
L 114.618474 -225.071784 
L 112.987044 -235.20576 
L 111.355614 -267.712247 
L 109.724185 -261.553553 
L 108.092755 -262.356738 
L 106.461325 -249.185311 
L 104.829895 -233.004229 
L 103.198465 -241.740328 
L 101.567035 -245.961273 
L 99.935605 -230.155784 
L 98.304175 -234.093325 
L 96.672746 -237.768186 
L 95.041316 -265.942984 
L 93.409886 -235.03312 
L 91.778456 -255.674037 
L 90.147026 -260.702423 
L 88.515596 -236.769989 
L 86.884166 -241.196911 
L 85.252736 -253.235879 
L 83.621307 -231.885044 
L 81.989877 -231.540975 
L 80.358447 -251.389871 
L 78.727017 -199.278868 
L 77.095587 -233.145369 
L 75.464157 -247.861333 
L 73.832727 -271.128337 
z
" id="me9c4fa294f" style="stroke:#ffffff;stroke-opacity:0.2;"/>
    </defs>
    <g clip-path="url(#p8fbb81e7dd)">
     <use style="fill:#1f77b4;fill-opacity:0.2;stroke:#ffffff;stroke-opacity:0.2;" x="0" xlink:href="#me9c4fa294f" y="345.6"/>
    </g>
   </g>
   <g id="LineCollection_1">
    <path clip-path="url(#p8fbb81e7dd)" d="M 398.487273 295.488 
L 398.487273 53.568 
" style="fill:none;stroke:#1f77b4;stroke-dasharray:5.55,2.4;stroke-dashoffset:0;stroke-width:1.5;"/>
   </g>
   <g id="line2d_18">
    <path clip-path="url(#p8fbb81e7dd)" d="M 73.832727 126.982688 
L 75.464157 132.527041 
L 77.095587 140.974046 
L 78.727017 172.806356 
L 80.358447 146.927001 
L 81.989877 185.018124 
L 83.621307 157.945238 
L 85.252736 146.300083 
L 86.884166 143.556085 
L 88.515596 133.446691 
L 90.147026 133.128495 
L 91.778456 136.460081 
L 93.409886 146.295543 
L 95.041316 137.575347 
L 96.672746 151.231681 
L 98.304175 133.912537 
L 99.935605 142.382835 
L 101.567035 166.684285 
L 103.198465 130.609178 
L 104.829895 153.304201 
L 106.461325 137.733853 
L 108.092755 147.009017 
L 109.724185 121.093688 
L 111.355614 131.23274 
L 112.987044 158.110455 
L 114.618474 146.007745 
L 116.249904 137.443242 
L 117.881334 147.618861 
L 119.512764 124.813939 
L 121.144194 121.126653 
L 122.775624 154.048468 
L 124.407053 141.160779 
L 126.038483 160.336793 
L 127.669913 185.733967 
L 129.301343 171.705252 
L 130.932773 130.00042 
L 132.564203 161.751601 
L 134.195633 140.780158 
L 135.827063 138.808456 
L 137.458492 137.907706 
L 139.089922 151.959861 
L 140.721352 128.158751 
L 142.352782 122.014819 
L 143.984212 140.998128 
L 145.615642 156.175222 
L 147.247072 149.012894 
L 148.878502 176.612226 
L 150.509931 131.335581 
L 152.141361 151.927341 
L 153.772791 157.977018 
L 155.404221 159.718215 
L 157.035651 134.8539 
L 158.667081 145.526947 
L 160.298511 142.208537 
L 161.929941 170.306975 
L 163.56137 158.072358 
L 165.1928 147.933652 
L 166.82423 159.337297 
L 168.45566 139.18888 
L 170.08709 144.85838 
L 171.71852 139.997251 
L 173.34995 163.842824 
L 174.98138 153.521382 
L 176.61281 126.743646 
L 178.244239 152.272876 
L 179.875669 154.482978 
L 181.507099 158.714031 
L 183.138529 146.630172 
L 184.769959 147.298493 
L 186.401389 139.357404 
L 188.032819 165.979035 
L 189.664249 123.593068 
L 191.295678 137.841234 
L 192.927108 143.345023 
L 194.558538 137.564095 
L 196.189968 145.0196 
L 197.821398 133.740608 
L 199.452828 168.456867 
L 201.084258 151.40889 
L 202.715688 150.133045 
L 204.347117 167.966199 
L 205.978547 142.899607 
L 207.609977 139.517489 
L 209.241407 142.692691 
L 210.872837 175.61046 
L 212.504267 125.924665 
L 214.135697 144.201804 
L 215.767127 142.146063 
L 217.398556 145.246601 
L 219.029986 165.005217 
L 220.661416 158.401806 
L 222.292846 132.098009 
L 223.924276 131.258203 
L 225.555706 147.774949 
L 227.187136 157.55445 
L 228.818566 122.307256 
L 230.449995 160.918655 
L 232.081425 140.924057 
L 233.712855 168.17963 
L 235.344285 164.493478 
L 236.975715 155.331863 
L 238.607145 154.613898 
L 241.870005 116.910552 
L 243.501434 151.642455 
L 245.132864 148.938132 
L 246.764294 139.791617 
L 248.395724 144.271483 
L 250.027154 177.761739 
L 251.658584 127.30878 
L 253.290014 151.58373 
L 254.921444 124.120698 
L 256.552873 152.858095 
L 258.184303 146.735382 
L 259.815733 141.97522 
L 261.447163 145.783508 
L 263.078593 142.32643 
L 264.710023 131.478296 
L 266.341453 129.909669 
L 267.972883 137.886832 
L 269.604312 162.386661 
L 271.235742 130.863962 
L 272.867172 159.202675 
L 274.498602 142.556342 
L 276.130032 147.421863 
L 277.761462 145.087256 
L 279.392892 138.155631 
L 281.024322 148.880246 
L 282.655751 140.549653 
L 284.287181 140.700263 
L 285.918611 162.134147 
L 287.550041 128.660522 
L 290.812901 150.720732 
L 292.444331 168.122699 
L 294.075761 143.192143 
L 295.70719 144.444498 
L 297.33862 174.465684 
L 298.97005 136.547526 
L 300.60148 157.750609 
L 302.23291 146.514501 
L 303.86434 152.459757 
L 305.49577 162.114408 
L 307.1272 173.886387 
L 308.75863 145.108426 
L 310.390059 153.748087 
L 312.021489 155.619217 
L 313.652919 160.02511 
L 315.284349 127.308582 
L 318.547209 142.952657 
L 320.178639 170.502887 
L 321.810069 137.994953 
L 323.441498 165.046522 
L 325.072928 158.149687 
L 326.704358 174.698853 
L 328.335788 155.52131 
L 329.967218 138.784966 
L 331.598648 185.697762 
L 333.230078 140.450562 
L 334.861508 155.288536 
L 336.492937 161.567385 
L 338.124367 158.507263 
L 339.755797 141.270135 
L 341.387227 164.082113 
L 343.018657 130.636418 
L 344.650087 145.592926 
L 346.281517 157.845012 
L 347.912947 160.651156 
L 349.544376 127.062829 
L 351.175806 150.186687 
L 352.807236 132.316621 
L 354.438666 142.437907 
L 356.070096 138.145416 
L 357.701526 141.899914 
L 359.332956 145.978137 
L 360.964386 143.727273 
L 362.595815 122.921343 
L 364.227245 129.301948 
L 365.858675 171.240887 
L 367.490105 192.808192 
L 369.121535 153.535002 
L 372.384395 143.893823 
L 374.015825 151.202319 
L 375.647254 175.109232 
L 377.278684 154.16942 
L 378.910114 180.003687 
L 380.541544 160.01001 
L 382.172974 145.551769 
L 383.804404 141.596375 
L 385.435834 135.72287 
L 387.067264 157.420322 
L 388.698693 133.001572 
L 390.330123 141.645969 
L 391.961553 148.480922 
L 393.592983 144.747988 
L 395.224413 190.079968 
L 396.855843 215.688484 
L 398.487273 168.013179 
L 398.487273 168.013179 
" style="fill:none;stroke:#1f77b4;stroke-linecap:round;stroke-width:1.5;"/>
   </g>
   <g id="patch_3">
    <path d="M 57.6 307.584 
L 57.6 41.472 
" style="fill:none;stroke:#cccccc;stroke-linecap:square;stroke-linejoin:miter;stroke-width:0.8;"/>
   </g>
   <g id="patch_4">
    <path d="M 414.72 307.584 
L 414.72 41.472 
" style="fill:none;stroke:#cccccc;stroke-linecap:square;stroke-linejoin:miter;stroke-width:0.8;"/>
   </g>
   <g id="patch_5">
    <path d="M 57.6 307.584 
L 414.72 307.584 
" style="fill:none;stroke:#cccccc;stroke-linecap:square;stroke-linejoin:miter;stroke-width:0.8;"/>
   </g>
   <g id="patch_6">
    <path d="M 57.6 41.472 
L 414.72 41.472 
" style="fill:none;stroke:#cccccc;stroke-linecap:square;stroke-linejoin:miter;stroke-width:0.8;"/>
   </g>
   <g id="text_20">
    <!-- Model performance vs. # of iterations -->
    <g style="fill:#262626;" transform="translate(122.314688 35.472)scale(0.12 -0.12)">
     <defs>
      <path d="M 628 4666 
L 1569 4666 
L 2759 1491 
L 3956 4666 
L 4897 4666 
L 4897 0 
L 4281 0 
L 4281 4097 
L 3078 897 
L 2444 897 
L 1241 4097 
L 1241 0 
L 628 0 
L 628 4666 
z
" id="DejaVuSans-4d" transform="scale(0.015625)"/>
      <path d="M 2906 2969 
L 2906 4863 
L 3481 4863 
L 3481 0 
L 2906 0 
L 2906 525 
Q 2725 213 2448 61 
Q 2172 -91 1784 -91 
Q 1150 -91 751 415 
Q 353 922 353 1747 
Q 353 2572 751 3078 
Q 1150 3584 1784 3584 
Q 2172 3584 2448 3432 
Q 2725 3281 2906 2969 
z
M 947 1747 
Q 947 1113 1208 752 
Q 1469 391 1925 391 
Q 2381 391 2643 752 
Q 2906 1113 2906 1747 
Q 2906 2381 2643 2742 
Q 2381 3103 1925 3103 
Q 1469 3103 1208 2742 
Q 947 2381 947 1747 
z
" id="DejaVuSans-64" transform="scale(0.015625)"/>
      <path d="M 603 4863 
L 1178 4863 
L 1178 0 
L 603 0 
L 603 4863 
z
" id="DejaVuSans-6c" transform="scale(0.015625)"/>
      <path id="DejaVuSans-20" transform="scale(0.015625)"/>
      <path d="M 1159 525 
L 1159 -1331 
L 581 -1331 
L 581 3500 
L 1159 3500 
L 1159 2969 
Q 1341 3281 1617 3432 
Q 1894 3584 2278 3584 
Q 2916 3584 3314 3078 
Q 3713 2572 3713 1747 
Q 3713 922 3314 415 
Q 2916 -91 2278 -91 
Q 1894 -91 1617 61 
Q 1341 213 1159 525 
z
M 3116 1747 
Q 3116 2381 2855 2742 
Q 2594 3103 2138 3103 
Q 1681 3103 1420 2742 
Q 1159 2381 1159 1747 
Q 1159 1113 1420 752 
Q 1681 391 2138 391 
Q 2594 391 2855 752 
Q 3116 1113 3116 1747 
z
" id="DejaVuSans-70" transform="scale(0.015625)"/>
      <path d="M 2375 4863 
L 2375 4384 
L 1825 4384 
Q 1516 4384 1395 4259 
Q 1275 4134 1275 3809 
L 1275 3500 
L 2222 3500 
L 2222 3053 
L 1275 3053 
L 1275 0 
L 697 0 
L 697 3053 
L 147 3053 
L 147 3500 
L 697 3500 
L 697 3744 
Q 697 4328 969 4595 
Q 1241 4863 1831 4863 
L 2375 4863 
z
" id="DejaVuSans-66" transform="scale(0.015625)"/>
      <path d="M 3328 2828 
Q 3544 3216 3844 3400 
Q 4144 3584 4550 3584 
Q 5097 3584 5394 3201 
Q 5691 2819 5691 2113 
L 5691 0 
L 5113 0 
L 5113 2094 
Q 5113 2597 4934 2840 
Q 4756 3084 4391 3084 
Q 3944 3084 3684 2787 
Q 3425 2491 3425 1978 
L 3425 0 
L 2847 0 
L 2847 2094 
Q 2847 2600 2669 2842 
Q 2491 3084 2119 3084 
Q 1678 3084 1418 2786 
Q 1159 2488 1159 1978 
L 1159 0 
L 581 0 
L 581 3500 
L 1159 3500 
L 1159 2956 
Q 1356 3278 1631 3431 
Q 1906 3584 2284 3584 
Q 2666 3584 2933 3390 
Q 3200 3197 3328 2828 
z
" id="DejaVuSans-6d" transform="scale(0.015625)"/>
      <path d="M 191 3500 
L 800 3500 
L 1894 563 
L 2988 3500 
L 3597 3500 
L 2284 0 
L 1503 0 
L 191 3500 
z
" id="DejaVuSans-76" transform="scale(0.015625)"/>
      <path d="M 2834 3397 
L 2834 2853 
Q 2591 2978 2328 3040 
Q 2066 3103 1784 3103 
Q 1356 3103 1142 2972 
Q 928 2841 928 2578 
Q 928 2378 1081 2264 
Q 1234 2150 1697 2047 
L 1894 2003 
Q 2506 1872 2764 1633 
Q 3022 1394 3022 966 
Q 3022 478 2636 193 
Q 2250 -91 1575 -91 
Q 1294 -91 989 -36 
Q 684 19 347 128 
L 347 722 
Q 666 556 975 473 
Q 1284 391 1588 391 
Q 1994 391 2212 530 
Q 2431 669 2431 922 
Q 2431 1156 2273 1281 
Q 2116 1406 1581 1522 
L 1381 1569 
Q 847 1681 609 1914 
Q 372 2147 372 2553 
Q 372 3047 722 3315 
Q 1072 3584 1716 3584 
Q 2034 3584 2315 3537 
Q 2597 3491 2834 3397 
z
" id="DejaVuSans-73" transform="scale(0.015625)"/>
      <path d="M 3272 2816 
L 2363 2816 
L 2100 1772 
L 3016 1772 
L 3272 2816 
z
M 2803 4594 
L 2478 3297 
L 3391 3297 
L 3719 4594 
L 4219 4594 
L 3897 3297 
L 4872 3297 
L 4872 2816 
L 3775 2816 
L 3519 1772 
L 4513 1772 
L 4513 1294 
L 3397 1294 
L 3072 0 
L 2572 0 
L 2894 1294 
L 1978 1294 
L 1656 0 
L 1153 0 
L 1478 1294 
L 494 1294 
L 494 1772 
L 1594 1772 
L 1856 2816 
L 850 2816 
L 850 3297 
L 1978 3297 
L 2297 4594 
L 2803 4594 
z
" id="DejaVuSans-23" transform="scale(0.015625)"/>
     </defs>
     <use xlink:href="#DejaVuSans-4d"/>
     <use x="86.279297" xlink:href="#DejaVuSans-6f"/>
     <use x="147.460938" xlink:href="#DejaVuSans-64"/>
     <use x="210.9375" xlink:href="#DejaVuSans-65"/>
     <use x="272.460938" xlink:href="#DejaVuSans-6c"/>
     <use x="300.244141" xlink:href="#DejaVuSans-20"/>
     <use x="332.03125" xlink:href="#DejaVuSans-70"/>
     <use x="395.507812" xlink:href="#DejaVuSans-65"/>
     <use x="457.03125" xlink:href="#DejaVuSans-72"/>
     <use x="498.144531" xlink:href="#DejaVuSans-66"/>
     <use x="533.349609" xlink:href="#DejaVuSans-6f"/>
     <use x="594.53125" xlink:href="#DejaVuSans-72"/>
     <use x="633.894531" xlink:href="#DejaVuSans-6d"/>
     <use x="731.306641" xlink:href="#DejaVuSans-61"/>
     <use x="792.585938" xlink:href="#DejaVuSans-6e"/>
     <use x="855.964844" xlink:href="#DejaVuSans-63"/>
     <use x="910.945312" xlink:href="#DejaVuSans-65"/>
     <use x="972.46875" xlink:href="#DejaVuSans-20"/>
     <use x="1004.255859" xlink:href="#DejaVuSans-76"/>
     <use x="1063.435547" xlink:href="#DejaVuSans-73"/>
     <use x="1115.535156" xlink:href="#DejaVuSans-2e"/>
     <use x="1147.322266" xlink:href="#DejaVuSans-20"/>
     <use x="1179.109375" xlink:href="#DejaVuSans-23"/>
     <use x="1262.898438" xlink:href="#DejaVuSans-20"/>
     <use x="1294.685547" xlink:href="#DejaVuSans-6f"/>
     <use x="1355.867188" xlink:href="#DejaVuSans-66"/>
     <use x="1391.072266" xlink:href="#DejaVuSans-20"/>
     <use x="1422.859375" xlink:href="#DejaVuSans-69"/>
     <use x="1450.642578" xlink:href="#DejaVuSans-74"/>
     <use x="1489.851562" xlink:href="#DejaVuSans-65"/>
     <use x="1551.375" xlink:href="#DejaVuSans-72"/>
     <use x="1592.488281" xlink:href="#DejaVuSans-61"/>
     <use x="1653.767578" xlink:href="#DejaVuSans-74"/>
     <use x="1692.976562" xlink:href="#DejaVuSans-69"/>
     <use x="1720.759766" xlink:href="#DejaVuSans-6f"/>
     <use x="1781.941406" xlink:href="#DejaVuSans-6e"/>
     <use x="1845.320312" xlink:href="#DejaVuSans-73"/>
    </g>
   </g>
  </g>
 </g>
 <defs>
  <clipPath id="p8fbb81e7dd">
   <rect height="266.112" width="357.12" x="57.6" y="41.472"/>
  </clipPath>
 </defs>
</svg>
